<svg xmlns="http://www.w3.org/2000/svg" viewBox="20 20 321 321">
<path fill="#fff" d="m104.872,194.354c26.75-35 53.501-70 80.252-105-2.878,0-5.756,0-8.635,0 26.75,35 53.501,70 80.251,105 1.439-2.508 2.878-5.016 4.317-7.523-49.383,0-98.765,0-148.147,0-4.119,0-8.237,0-12.355,0-6.449,0-6.449,10 0,10 49.382,0 98.765,0 148.147,0 4.118,0 8.237,0 12.355,0 3.436,0 6.707-4.396 4.317-7.523-26.75-35-53.501-70-80.251-105-2.429-3.178-6.206-3.178-8.635,0-26.75,35-53.501,70-80.252,105-3.916,5.125 4.776,10.096 8.636,5.046z"/>
<path fill="none" stroke="#fff" stroke-width="10" d="m262.5,245.146c0,3.256-2.641,5.896-5.897,5.896h-151.682c-3.257,0-5.897-2.641-5.897-5.896v-23.916c0-3.256 2.641-5.896 5.897-5.896h151.681c3.257,0 5.897,2.641 5.897,5.896v23.916z"/>
</svg>
