<svg xmlns="http://www.w3.org/2000/svg" viewBox="20 20 321 321">
<g fill="none" stroke="#fff" stroke-width="10">
<path d="m75.486,215.572c0,2.246 1.82,4.065 4.065,4.065h34.323c2.245,0 4.065-1.819 4.065-4.065v-70.002c0-2.244-1.82-4.064-4.065-4.064h-34.323c-2.245,0-4.065,1.82-4.065,4.064v70.002z"/>
<path d="m182.104,244.256c0,2.289-1.855,4.145-4.145,4.145l-43.063-24.179c-2.604-1.376-4.145-1.856-4.145-4.146v-79.252c0-2.289 .426-2.168 4.145-4.145l43.063-24.179c2.29,0 4.145,1.855 4.145,4.145v127.611z"/>
</g>
<g fill="#fff">
<path d="m205.938,135.532c24.4,24.918 24.401,64.764 0,89.683-4.514,4.608 2.553,11.684 7.07,7.07 28.209-28.807 28.209-75.017 0-103.824-4.518-4.613-11.584,2.462-7.07,7.071z"/>
<path d="m226.787,118.1c34.839,35.368 34.838,92.598 0,127.967-4.527,4.596 2.54,11.67 7.07,7.07 18.574-18.856 29.074-43.901 29.453-70.369 .382-26.785-10.757-52.759-29.453-71.739-4.53-4.6-11.597,2.474-7.07,7.071z"/>
</g>
</svg>
