<svg xmlns="http://www.w3.org/2000/svg" viewBox="20 20 321 321">
<g fill="none" stroke="#fff" stroke-width="10">
<path d="m97.5,235.33c0,3.508 2.844,6.351 6.351,6.351h53.631c3.507,0 6.351-2.843 6.351-6.351v-109.379c0-3.507-2.844-6.351-6.351-6.351h-53.631c-3.507,0-6.351,2.844-6.351,6.351v109.379z"/>
<path d="m264.092,280.146c0,3.576-2.9,6.477-6.478,6.477l-67.286-37.779c-4.069-2.149-6.477-2.9-6.477-6.478v-123.831c0-3.577 .666-3.389 6.477-6.477l67.286-37.78c3.577,0 6.478,2.899 6.478,6.477v199.391z"/>
</g>
</svg>
