<svg xmlns="http://www.w3.org/2000/svg" viewBox="20 20 321 321">
<g fill="none" stroke="#fff" stroke-width="10">
<path d="m153.274,184.758c0,13.205 10.707,23.91 23.91,23.91h85.014c13.206,0 23.91-10.705 23.91-23.91v-85.015c0-13.205-10.704-23.91-23.91-23.91h-85.014c-13.203,0-23.91,10.705-23.91,23.91v85.015z"/>
<path d="m153.7,189.242l-75.863,75.862c-2.892,2.892-2.892,7.582 0,10.474l8.728,8.728c2.893,2.893 7.581,2.893 10.474,0l76.003-76.003"/>
</g>
<g fill="#fff">
<path d="m255.779,134.666c-23.905,0-47.812,0-71.718,0-9.686,0-9.771,15.003-.107,15.003 23.905,0 47.812,0 71.718,0 9.685-.001 9.771-15.003 .107-15.003z"/>
<path d="m227.368,178.081c0-23.906 0-47.813 0-71.719 0-9.687-15.004-9.772-15.004-.108 0,23.906 0,47.813 0,71.719 0,9.685 15.004,9.771 15.004,.108z"/>
</g>
</svg>
