<svg xmlns="http://www.w3.org/2000/svg" viewBox="20 20 321 321">
<g fill="#fff">
<path d="m175.408,232.427c.21,4.182 1.284,10.306 6.721,10.306 2.935,0 5.869,0 8.804,0 7.383,0 15.897,1.506 16.407-8.629 .434-8.597 .085-17.28 .085-25.885 0-26.212 .001-52.424 .001-78.637 0-6.867-2.542-10.91-9.4-10.91-3.607,0-7.215,0-10.822,0-2.81,0-5.621-.371-8.186,.954-4.201,2.169-3.609,8.632-3.609,12.768 0,5.013 0,10.027 0,15.04 0,27.548 0,55.095 0,82.643-.001,.783-.001,1.567-.001,2.35 0,6.448 10,6.448 10,0 0-24.343 0-48.686 0-73.029 0-9.992 0-19.983 0-29.975 0-.149 0-.298 0-.447-.001-3.903 .072-.303-3.089-.303 .407,0 .814,0 1.222,0 3.731,0 7.464,0 11.196,0 1.518,0 3.036,0 4.555,0 .407,0 .814,0 1.222,0-2.804,0-3.287-3.623-3.088,.304 .034,.675 0,1.36 0,2.036 0,23.664 0,47.329-.001,70.993 0,9.462 0,18.924 0,28.387 0,.661 0,1.323 0,1.984 0,3.972-.132,.356 3.089,.356-1.076,0-2.153,0-3.23,0-3.36,0-6.721,0-10.081,0-1.221,0-2.441,0-3.662,0-.407,0-.814,0-1.222,0 2.807,0 3.288,3.623 3.09-.306-.324-6.417-10.326-6.448-10.001,0z"/>
<path d="m177.175,96.085c-35.019,26.765-70.037,53.53-105.055,80.294-3.178,2.429-3.178,6.206 0,8.635 35.018,26.765 70.037,53.528 105.055,80.293 3.126,2.39 7.524-.882 7.524-4.317-.001-49.408-.001-98.817-.001-148.226 0-4.121 0-8.241 0-12.362 0-6.449-10-6.449-10,0 0,49.409 0,98.817 0,148.225 0,4.121 0,8.241 0,12.362 2.508-1.439 5.016-2.878 7.524-4.317-35.019-26.765-70.037-53.528-105.056-80.293 0,2.878 0,5.757 0,8.635 35.019-26.765 70.037-53.53 105.055-80.294 5.05-3.86 .079-12.552-5.046-8.635z"/>
<path d="m218.312,232.427c.211,4.182 1.284,10.306 6.721,10.306 2.935,0 5.869,0 8.804,0 7.383,0 15.896,1.506 16.407-8.629 .433-8.597 .084-17.28 .084-25.885 0-26.212 .001-52.424 .001-78.637 0-6.867-2.541-10.91-9.399-10.91-3.608,0-7.216,0-10.823,0-2.808,0-5.622-.372-8.185,.954-4.2,2.172-3.61,8.631-3.61,12.768 0,5.013 0,10.027 0,15.04 0,27.548 .001,55.095 .001,82.643-.001,.783-.001,1.567-.001,2.35 0,6.448 10,6.448 10,0 0-24.343 0-48.686-.001-73.029 0-9.992 0-19.983 0-29.975 0-.149 0-.298 0-.447 0-3.903 .075-.303-3.089-.303 .407,0 .814,0 1.222,0 3.732,0 7.464,0 11.196,0 1.519,0 3.037,0 4.556,0 .407,0 .814,0 1.222,0-2.803,0-3.287-3.623-3.089,.304 .034,.675 0,1.36 0,2.036 0,23.664 0,47.329-.001,70.993 0,9.462 0,18.924 0,28.387 0,.661 0,1.323 0,1.984 0,3.972-.13,.356 3.09,.356-1.076,0-2.153,0-3.23,0-3.36,0-6.721,0-10.081,0-1.221,0-2.441,0-3.662,0-.407,0-.814,0-1.222,0 2.808,0 3.288,3.624 3.09-.306-.325-6.417-10.327-6.448-10.001,0z"/>
<path d="m260.036,232.422c.211,4.183 1.286,10.305 6.723,10.305 2.935,0 5.868,0 8.803,0 7.383,0 15.896,1.506 16.406-8.628 .434-8.597 .085-17.28 .085-25.885 .001-26.212 .001-52.424 .002-78.637 0-6.868-2.54-10.911-9.4-10.911-3.607,0-7.215,0-10.822,0-2.811,0-5.621-.37-8.187,.954-4.201,2.168-3.609,8.634-3.609,12.769 0,5.013 0,10.027 0,15.04 0,27.548 0,55.095 0,82.643-.001,.783-.001,1.567-.001,2.35 0,6.448 10,6.448 10,0 0-24.343 0-48.686 0-73.029 0-9.992 0-19.983 0-29.975 0-.149 0-.298 0-.447 0-3.903 .072-.304-3.088-.304 .407,0 .814,0 1.222,0 3.731,0 7.464,0 11.195,0 1.519,0 3.037,0 4.556,0 .407,0 .814,0 1.222,0-2.803,0-3.285-3.623-3.088,.305 .034,.675 0,1.36 0,2.036 0,23.664-.001,47.329-.001,70.993-.001,9.462-.001,18.924-.001,28.387 0,.661 0,1.323 0,1.984 0,3.971-.131,.355 3.09,.355-1.076,0-2.153,0-3.229,0-3.36,0-6.721,0-10.081,0-1.221,0-2.441,0-3.662,0-.407,0-.814,0-1.222,0 2.806,0 3.286,3.623 3.088-.305-.325-6.417-10.326-6.448-10.001,0z"/>
</g>
</svg>
