<svg xmlns="http://www.w3.org/2000/svg" viewBox="20 20 321 321">
<path fill="none" stroke="#fff" stroke-width="10" d="m138.761,209.423c-2.071,2.071-4.273,3.226-4.919,2.579l-20.287-20.287c-.646-.646 .508-2.849 2.579-4.92l73.112-73.111c2.07-2.07 4.272-3.225 4.919-2.579l20.287,20.288c.646,.646-.508,2.848-2.578,4.918l-73.113,73.112z"/>
<path fill="#fff" d="m227.266,117.108c5.833,43.665 11.667,87.33 17.5,130.994 1.667-1.667 3.333-3.333 5-5-43.664-5.834-87.329-11.667-130.993-17.501 1.179,2.845 2.357,5.69 3.536,8.535 34.918-34.918 69.837-69.837 104.756-104.756 2.912-2.912 5.824-5.824 8.736-8.736 4.564-4.564-2.507-11.635-7.07-7.071-34.919,34.919-69.838,69.838-104.756,104.756-2.912,2.912-5.825,5.825-8.737,8.737-3.399,3.398-.542,7.99 3.536,8.535 43.664,5.834 87.329,11.667 130.993,17.501 2.463,.329 5.329-2.537 5-5-5.833-43.664-11.667-87.329-17.5-130.994-.842-6.295-10.853-6.377-10.001,0z"/>
</svg>
