<svg xmlns="http://www.w3.org/2000/svg" viewBox="20 20 321 321">
<g fill="#fff">
<path d="m165.929,157.972c-.338-.933-.813-1.673-1.424-2.22-.612-.547-1.433-.821-2.462-.821s-1.851,.274-2.462,.821c-.612,.547-1.086,1.296-1.424,2.245-.337,.95-.563,2.052-.675,3.307-.113,1.254-.169,2.606-.169,4.055 0,1.448 .056,2.808 .169,4.079 .112,1.272 .338,2.374 .675,3.307 .338,.934 .813,1.674 1.424,2.221 .611,.547 1.432,.821 2.462,.821 .998,0 1.811-.273 2.438-.821 .628-.547 1.11-1.295 1.449-2.245 .337-.95 .562-2.052 .675-3.307 .112-1.255 .169-2.607 .169-4.055 0-1.448-.057-2.807-.169-4.079-.114-1.272-.339-2.374-.676-3.308z"/>
<path d="m243.514,140.333h-138.842c-2.629,0-4.761,2.203-4.761,4.919v38.945c0,2.716 2.131,4.919 4.761,4.919h138.842c2.63,0 4.762-2.203 4.762-4.919v-38.945c-.001-2.716-2.132-4.919-4.762-4.919zm-73.506,36.683c-1.867,2.624-4.506,3.935-7.917,3.935-3.508,0-6.188-1.311-8.038-3.935-1.851-2.623-2.776-6.509-2.776-11.658 0-5.148 .949-9.035 2.848-11.659 1.899-2.622 4.538-3.934 7.917-3.934 3.508,0 6.18,1.312 8.014,3.934 1.834,2.624 2.751,6.51 2.751,11.659 .001,5.149-.933,9.036-2.799,11.658zm13.131-3.765c1.126,1.689 2.783,2.535 4.973,2.535 .354,0 .739-.016 1.158-.048 .418-.032 .804-.08 1.158-.145v-10.91h5.938v14.917c-.708,.258-1.811,.547-3.307,.869-1.496,.321-3.307,.482-5.43,.482-1.867,0-3.549-.331-5.045-.989-1.498-.66-2.776-1.642-3.839-2.945-1.062-1.303-1.883-2.928-2.462-4.875-.579-1.947-.869-4.208-.869-6.783 0-2.542 .337-4.787 1.014-6.734 .676-1.947 1.593-3.58 2.752-4.9 1.159-1.319 2.526-2.309 4.103-2.969 1.576-.66 3.266-.99 5.068-.99 1.158,0 2.197,.089 3.114,.265 .917,.178 1.714,.379 2.39,.604 .676,.226 1.23,.467 1.666,.724 .434,.258 .764,.451 .989,.58l-1.546,4.731c-.707-.45-1.576-.853-2.605-1.207-1.031-.354-2.093-.531-3.187-.531-1.417,0-2.606,.258-3.572,.772-.966,.515-1.763,1.231-2.39,2.148-.627,.917-1.078,2.012-1.352,3.283-.273,1.272-.41,2.679-.41,4.224 .001,3.571 .564,6.203 1.691,7.892z"/>
<path d="m251.845,247.323c-.034,.221 1.911,.219-.118,.219-1.248,0-2.495,0-3.743,0-4.423,0-8.846,0-13.269,0-14.202,0-28.403,0-42.605,0-28.881,0-57.764,0-86.646,0-2.957,0-5.914,0-8.871,0-1.925,0 .246-.169 .246,1.07 0-.705 0-1.409 0-2.114 0-10.373 0-20.746 0-31.119 0-29.571 0-59.144 0-88.715 0-3.253 0-6.506 0-9.759-.826,1.439-1.651,2.878-2.477,4.317 16.27-10.881 32.54-21.762 48.81-32.643-1.284,.168-2.568,.336-3.853,.504 22.513,6.812 45.025,13.624 67.538,20.436 12.697,3.842 25.396,7.685 38.093,11.526 2.205,.667 4.41,1.334 6.615,2.001 .012,.004 .101-1.634 .101,.295 0,1.441 0,2.882 0,4.324 0,40.329 0,80.658 0,120.987 0,6.448 10,6.448 10,0 0-22.752 0-45.505 0-68.257 0-14.604 0-29.209 0-43.814 0-7.245 2.557-21.508-7.432-23.174-7.365-1.229-14.902-4.509-22.032-6.667-15.169-4.59-30.337-9.18-45.506-13.77-12.698-3.842-25.396-7.685-38.093-11.526-2.205-.667-4.41-1.334-6.615-2.002-3.545-1.072-8.092,3.329-10.733,5.096-12.252,8.194-24.505,16.388-36.758,24.583-2.774,1.855-7.658,4.032-7.658,7.873 0,2.356 0,4.713 0,7.069 0,28.944 0,57.888 0,86.833 0,11.332 0,22.664 0,33.996 0,3.298-.321,6.996 2.19,9.594 2.778,2.873 5.862,3.057 9.465,3.057 25.586,0 51.172,0 76.758,0 18.905,0 37.809,0 56.714,0 5.697,0 11.395,0 17.093,0 5.491,0 11.367-.757 12.428-7.561 .984-6.307-8.651-9.015-9.642-2.659z"/>
<path d="m101.218,192.371 147.019,0"/>
<path d="m101.218,193.871c47.763,0 95.526,0 143.289,0 1.244,0 2.487,0 3.73,0 1.935,0 1.935-3 0-3-47.763,0-95.526,0-143.29,0-1.243,0-2.487,0-3.73,0-1.934,0-1.934,3 .001,3z"/>
<path d="m101.218,137.553 147.019,0"/>
<path d="m101.218,139.053c47.763,0 95.526,0 143.289,0 1.244,0 2.487,0 3.73,0 1.935,0 1.935-3 0-3-47.763,0-95.526,0-143.29,0-1.243,0-2.487,0-3.73,0-1.934,0-1.934,3 .001,3z"/>
<path d="m77.606,132.183c26.285-17.613 52.57-35.226 78.855-52.838 5.327-3.569 .327-12.236-5.047-8.635-26.285,17.613-52.57,35.226-78.855,52.838-5.327,3.569-.327,12.236 5.047,8.635z"/>
<path d="m143.681,90.22c45.313,13.466 90.625,26.932 135.938,40.398 .805,.239 1.609,.478 2.414,.717 6.197,1.842 8.824-7.81 2.658-9.643-45.313-13.466-90.625-26.932-135.938-40.398-.805-.239-1.61-.478-2.415-.717-6.196-1.841-8.824,7.811-2.657,9.643z"/>
<path d="m265.667,250.592c8.264,0 16.527,0 24.791,0 1.935,0 1.935-3 0-3-8.264,0-16.527,0-24.791,0-1.935,0-1.935,3 0,3z"/>
<path d="m283.391,281.786c1.531,0 3.063,0 4.595,0 1.908,0 3.5-1.592 3.5-3.5s-1.592-3.5-3.5-3.5c-1.531,0-3.063,0-4.595,0-1.908,0-3.5,1.592-3.5,3.5s1.591,3.5 3.5,3.5z"/>
<path d="m256.666,291.786c5.333,0 10.667,0 16,0 4.514,0 4.514-7 0-7-5.333,0-10.667,0-16,0-4.514,0-4.514,7 0,7z"/>
<path d="m268.25,285.786c2,0 4,0 6,0 1.908,0 3.5-1.592 3.5-3.5s-1.592-3.5-3.5-3.5c-2,0-4,0-6,0-1.908,0-3.5,1.592-3.5,3.5s1.592,3.5 3.5,3.5z"/>
<path d="m286.584,291.786c.667,0 1.333,0 2,0 1.908,0 3.5-1.592 3.5-3.5s-1.592-3.5-3.5-3.5c-.667,0-1.333,0-2,0-1.908,0-3.5,1.592-3.5,3.5s1.592,3.5 3.5,3.5z"/>
<path d="m267.666,271.474c-2,0-4,0-6,0-1.908,0-3.5,1.592-3.5,3.5s1.592,3.5 3.5,3.5c2,0 4,0 6,0 1.908,0 3.5-1.592 3.5-3.5s-1.592-3.5-3.5-3.5z"/>
<path d="m265.666,257.453c-.667,0-1.333,0-2,0-1.908,0-3.5,1.592-3.5,3.5s1.592,3.5 3.5,3.5c.667,0 1.333,0 2,0 1.908,0 3.5-1.592 3.5-3.5s-1.592-3.5-3.5-3.5z"/>
<path d="m288.834,257.953c-5.333,0-10.667,0-16,0-4.514,0-4.514,7 0,7 5.333,0 10.667,0 16,0 4.514,0 4.514-7 0-7z"/>
<path d="m284.834,265.953c-5.083,0-10.167,0-15.25,0-4.514,0-4.514,7 0,7 5.083,0 10.167,0 15.25,0 4.514,0 4.514-7 0-7z"/>
<path d="m288.168,251.953c-2,0-4,0-6,0-1.908,0-3.5,1.592-3.5,3.5s1.592,3.5 3.5,3.5c2,0 4,0 6,0 1.908,0 3.5-1.592 3.5-3.5s-1.592-3.5-3.5-3.5z"/>
<path d="m273.834,249.953c-2,0-4,0-6,0-1.908,0-3.5,1.592-3.5,3.5s1.592,3.5 3.5,3.5c2,0 4,0 6,0 1.908,0 3.5-1.592 3.5-3.5s-1.592-3.5-3.5-3.5z"/>
<path d="m256.104,263.89c-2,0-4,0-6,0-1.908,0-3.5,1.592-3.5,3.5s1.592,3.5 3.5,3.5c2,0 4,0 6,0 1.908,0 3.5-1.592 3.5-3.5s-1.592-3.5-3.5-3.5z"/>
<path d="m287.833,269.953c-.222,0-.443,0-.665,0-1.908,0-3.5,1.592-3.5,3.5s1.592,3.5 3.5,3.5c.222,0 .443,0 .665,0 1.908,0 3.5-1.592 3.5-3.5s-1.592-3.5-3.5-3.5z"/>
<path d="m73.75,282.89c2.337,0 4.673,0 7.01,0 4.514,0 4.514-7 0-7-2.337,0-4.673,0-7.01,0-4.515,0-4.515,7 0,7z"/>
<path d="m100.271,279.89c2.581,0 5.161,0 7.741,0 4.514,0 4.514-7 0-7-2.581,0-5.161,0-7.741,0-4.515,0-4.515,7 0,7z"/>
<path d="m96.834,268.89c5.083,0 10.167,0 15.25,0 4.514,0 4.514-7 0-7-5.083,0-10.167,0-15.25,0-4.514,0-4.514,7 0,7z"/>
<path d="m122.069,291.786c2,0 4,0 6,0 1.908,0 3.5-1.592 3.5-3.5s-1.592-3.5-3.5-3.5c-2,0-4,0-6,0-1.908,0-3.5,1.592-3.5,3.5s1.592,3.5 3.5,3.5z"/>
<path d="m246.238,284.277c-3,0-6.001,0-9.001,0-4.514,0-4.514,7 0,7 3,0 6.001,0 9.001,0 4.514,0 4.514-7 0-7z"/>
<path d="m259.237,268.277c-5.333,0-10.667,0-16,0-4.514,0-4.514,7 0,7 5.333,0 10.667,0 16,0 4.514,0 4.514-7 0-7z"/>
<path d="m79.874,251.578c-2,0-4,0-6,0-1.908,0-3.5,1.592-3.5,3.5s1.592,3.5 3.5,3.5c2,0 4,0 6,0 1.908,0 3.5-1.592 3.5-3.5s-1.592-3.5-3.5-3.5z"/>
<path d="m240.487,260.536c-1.083,0-2.167,0-3.25,0-1.908,0-3.5,1.592-3.5,3.5s1.592,3.5 3.5,3.5c1.083,0 2.167,0 3.25,0 1.908,0 3.5-1.592 3.5-3.5s-1.591-3.5-3.5-3.5z"/>
<path d="m76.583,272.953c.667,0 1.333,0 2,0 1.908,0 3.5-1.592 3.5-3.5s-1.592-3.5-3.5-3.5c-.667,0-1.333,0-2,0-1.908,0-3.5,1.592-3.5,3.5s1.592,3.5 3.5,3.5z"/>
<path d="m93.584,276.277c-.667,0-1.333,0-2,0-1.908,0-3.5,1.592-3.5,3.5s1.592,3.5 3.5,3.5c.667,0 1.333,0 2,0 1.908,0 3.5-1.592 3.5-3.5s-1.592-3.5-3.5-3.5z"/>
<path d="m71.416,250.592c3.639,0 7.278,0 10.917,0 1.935,0 1.935-3 0-3-3.639,0-7.278,0-10.917,0-1.935,0-1.935,3 0,3z"/>
<path d="m196.164,284.786c-2,0-4,0-6,0-1.908,0-3.5,1.592-3.5,3.5s1.592,3.5 3.5,3.5c2,0 4,0 6,0 1.908,0 3.5-1.592 3.5-3.5s-1.592-3.5-3.5-3.5z"/>
<path d="m87.833,263.89c-1.833,0-3.667,0-5.5,0-1.908,0-3.5,1.592-3.5,3.5s1.592,3.5 3.5,3.5c1.833,0 3.667,0 5.5,0 1.908,0 3.5-1.592 3.5-3.5s-1.592-3.5-3.5-3.5z"/>
<path d="m172.5,266.953c3,0 6,0 9,0 4.514,0 4.514-7 0-7-3,0-6,0-9,0-4.514,0-4.514,7 0,7z"/>
<path d="m205.916,291.82c5.333,0 10.667,0 16,0 4.514,0 4.514-7 0-7-5.333,0-10.667,0-16,0-4.514,0-4.514,7 0,7z"/>
<path d="m221.375,277.729c2,0 4,0 6,0 1.908,0 3.5-1.592 3.5-3.5s-1.592-3.5-3.5-3.5c-2,0-4,0-6,0-1.908,0-3.5,1.592-3.5,3.5s1.592,3.5 3.5,3.5z"/>
<path d="m215.209,288.035c.667,0 1.333,0 2,0 1.908,0 3.5-1.592 3.5-3.5s-1.592-3.5-3.5-3.5c-.667,0-1.333,0-2,0-1.908,0-3.5,1.592-3.5,3.5s1.592,3.5 3.5,3.5z"/>
<path d="m213.75,264.584c-2,0-4,0-6,0-1.908,0-3.5,1.592-3.5,3.5s1.592,3.5 3.5,3.5c2,0 4,0 6,0 1.908,0 3.5-1.592 3.5-3.5s-1.592-3.5-3.5-3.5z"/>
<path d="m222.834,260.751c-5.083,0-10.167,0-15.25,0-4.514,0-4.514,7 0,7 5.083,0 10.167,0 15.25,0 4.514,0 4.514-7 0-7z"/>
<path d="m233.834,278.584c-2,0-4,0-6,0-1.908,0-3.5,1.592-3.5,3.5s1.592,3.5 3.5,3.5c2,0 4,0 6,0 1.908,0 3.5-1.592 3.5-3.5s-1.592-3.5-3.5-3.5z"/>
<path d="m135.882,271.917c-3,0-6,0-9,0-4.514,0-4.514,7 0,7 3,0 6,0 9,0 4.514,0 4.514-7 0-7z"/>
<path d="m152.736,260.549c-5.333,0-10.667,0-16,0-4.514,0-4.514,7 0,7 5.333,0 10.667,0 16,0 4.514,0 4.514-7 0-7z"/>
<path d="m152.402,271.786c-2,0-4,0-6,0-1.908,0-3.5,1.592-3.5,3.5s1.592,3.5 3.5,3.5c2,0 4,0 6,0 1.908,0 3.5-1.592 3.5-3.5s-1.592-3.5-3.5-3.5z"/>
<path d="m139.069,265.786c-.667,0-1.333,0-2,0-1.908,0-3.5,1.592-3.5,3.5s1.592,3.5 3.5,3.5c.667,0 1.333,0 2,0 1.908,0 3.5-1.592 3.5-3.5s-1.592-3.5-3.5-3.5z"/>
<path d="m144.902,291.786c2,0 4,0 6,0 1.908,0 3.5-1.592 3.5-3.5s-1.592-3.5-3.5-3.5c-2,0-4,0-6,0-1.908,0-3.5,1.592-3.5,3.5s1.593,3.5 3.5,3.5z"/>
<path d="m85.819,291.619c5.083,0 10.167,0 15.25,0 4.514,0 4.514-7 0-7-5.083,0-10.167,0-15.25,0-4.514,0-4.514,7 0,7z"/>
<path d="m124.569,271.786c2,0 4,0 6,0 1.908,0 3.5-1.592 3.5-3.5s-1.592-3.5-3.5-3.5c-2,0-4,0-6,0-1.908,0-3.5,1.592-3.5,3.5s1.593,3.5 3.5,3.5z"/>
<path d="m178.251,276.584c3,0 6.001,0 9.001,0 4.514,0 4.514-7 0-7-3,0-6.001,0-9.001,0-4.514,0-4.514,7 0,7z"/>
<path d="m159.584,291.82c5.333,0 10.667,0 16,0 4.514,0 4.514-7 0-7-5.333,0-10.667,0-16,0-4.514,0-4.514,7 0,7z"/>
<path d="m154.902,283.786c2,0 4,0 6,0 1.908,0 3.5-1.592 3.5-3.5s-1.592-3.5-3.5-3.5c-2,0-4,0-6,0-1.908,0-3.5,1.592-3.5,3.5s1.593,3.5 3.5,3.5z"/>
<path d="m173.251,287.584c.667,0 1.333,0 2,0 1.908,0 3.5-1.592 3.5-3.5s-1.592-3.5-3.5-3.5c-.667,0-1.333,0-2,0-1.908,0-3.5,1.592-3.5,3.5s1.593,3.5 3.5,3.5z"/>
<path d="m167.584,264.584c-3.722,0-7.444,0-11.166,0-4.514,0-4.514,7 0,7 3.722,0 7.444,0 11.166,0 4.514,0 4.514-7 0-7z"/>
<path d="m210.666,267.786c-3.902,0-7.806,0-11.708,0-4.514,0-4.514,7 0,7 3.902,0 7.806,0 11.708,0 4.514,0 4.514-7 0-7z"/>
<path d="m192.001,278.584c-2,0-4,0-6,0-1.908,0-3.5,1.592-3.5,3.5s1.592,3.5 3.5,3.5c2,0 4,0 6,0 1.908,0 3.5-1.592 3.5-3.5s-1.592-3.5-3.5-3.5z"/>
<path d="m146.902,279.786c5.333,0 10.667,0 16,0 4.514,0 4.514-7 0-7-5.333,0-10.667,0-16,0-4.514,0-4.514,7 0,7z"/>
<path d="m118.012,275.203c-3,0-6,0-9,0-4.514,0-4.514,7 0,7 3,0 6,0 9,0 4.514,0 4.514-7 0-7z"/>
<path d="m123.636,260.536c-1.083,0-2.167,0-3.25,0-1.908,0-3.5,1.592-3.5,3.5s1.592,3.5 3.5,3.5c1.083,0 2.167,0 3.25,0 1.908,0 3.5-1.592 3.5-3.5s-1.592-3.5-3.5-3.5z"/>
<path d="m99.584,265.167c-2,0-4,0-6,0-1.908,0-3.5,1.592-3.5,3.5s1.592,3.5 3.5,3.5c2,0 4,0 6,0 1.908,0 3.5-1.592 3.5-3.5s-1.592-3.5-3.5-3.5z"/>
<path d="m87.26,281.035c-1.833,0-3.667,0-5.5,0-1.908,0-3.5,1.592-3.5,3.5s1.592,3.5 3.5,3.5c1.833,0 3.667,0 5.5,0 1.908,0 3.5-1.592 3.5-3.5s-1.592-3.5-3.5-3.5z"/>
<path d="m189.416,270.89c5.083,0 10.167,0 15.25,0 4.514,0 4.514-7 0-7-5.083,0-10.167,0-15.25,0-4.514,0-4.514,7 0,7z"/>
<path d="m143.083,281.917c-.667,0-1.333,0-2,0-1.908,0-3.5,1.592-3.5,3.5s1.592,3.5 3.5,3.5c.667,0 1.333,0 2,0 1.908,0 3.5-1.592 3.5-3.5s-1.592-3.5-3.5-3.5z"/>
<path d="m146.833,271.723c-.667,0-1.333,0-2,0-1.908,0-3.5,1.592-3.5,3.5s1.592,3.5 3.5,3.5c.667,0 1.333,0 2,0 1.908,0 3.5-1.592 3.5-3.5s-1.592-3.5-3.5-3.5z"/>
<path d="m105.261,291.619c1.833,0 3.667,0 5.5,0 1.908,0 3.5-1.592 3.5-3.5s-1.592-3.5-3.5-3.5c-1.833,0-3.667,0-5.5,0-1.908,0-3.5,1.592-3.5,3.5s1.593,3.5 3.5,3.5z"/>
<path d="m73.332,290.667c.667,0 1.333,0 2,0 1.908,0 3.5-1.592 3.5-3.5s-1.592-3.5-3.5-3.5c-.667,0-1.333,0-2,0-1.908,0-3.5,1.592-3.5,3.5s1.592,3.5 3.5,3.5z"/>
<path d="m92.583,281.953c.667,0 1.333,0 2,0 1.908,0 3.5-1.592 3.5-3.5s-1.592-3.5-3.5-3.5c-.667,0-1.333,0-2,0-1.908,0-3.5,1.592-3.5,3.5s1.592,3.5 3.5,3.5z"/>
<path d="m103.833,272.89c-1.833,0-3.667,0-5.5,0-1.908,0-3.5,1.592-3.5,3.5s1.592,3.5 3.5,3.5c1.833,0 3.667,0 5.5,0 1.908,0 3.5-1.592 3.5-3.5s-1.592-3.5-3.5-3.5z"/>
<path d="m250.834,283.292c.667,0 1.333,0 2,0 1.908,0 3.5-1.592 3.5-3.5s-1.592-3.5-3.5-3.5c-.667,0-1.333,0-2,0-1.908,0-3.5,1.592-3.5,3.5s1.592,3.5 3.5,3.5z"/>
<path d="m211.5,272.89c-3.722,0-7.444,0-11.166,0-4.514,0-4.514,7 0,7 3.722,0 7.444,0 11.166,0 4.514,0 4.514-7 0-7z"/>
<path d="m83.166,259.953c-3.278,0-6.556,0-9.833,0-4.514,0-4.514,7 0,7 3.278,0 6.556,0 9.833,0 4.514,0 4.514-7 0-7z"/>
<path d="m140.46,280.584c-3.722,0-7.444,0-11.166,0-4.514,0-4.514,7 0,7 3.722,0 7.444,0 11.166,0 4.515,0 4.515-7 0-7z"/>
</g>
</svg>
