<svg xmlns="http://www.w3.org/2000/svg" viewBox="20 20 321 321">
<g fill="#fff">
<path d="m177.923,79.901c27.878,21.144 55.756,42.288 83.635,63.431 .841-3.106 1.683-6.211 2.523-9.317-27.814,0-55.63,0-83.444,0-6.449,0-6.449,10 0,10 27.814,0 55.63,0 83.444,0 5.402,0 6.252-6.489 2.523-9.317-27.878-21.144-55.757-42.288-83.635-63.431-5.14-3.9-10.113,4.791-5.046,8.634z"/>
<path d="m266.455,134.697c-27.741-21.144-55.482-42.287-83.224-63.431-1.254-.956-3.794-.956-5.047,0-27.741,21.144-55.482,42.287-83.223,63.431-3.717,2.833-2.888,9.317 2.523,9.317 49.712,0 99.425,0 149.137,0 5.771,0 11.54,0 17.311,0 6.448,0 6.448-10 0-10-49.712,0-99.424,0-149.137,0-5.77,0-11.541,0-17.311,0 .841,3.106 1.683,6.211 2.523,9.317 27.741-21.144 55.482-42.287 83.224-63.431-1.683,0-3.365,0-5.047,0 27.742,21.144 55.483,42.287 83.224,63.431 5.131,3.912 10.104-4.78 5.047-8.634z"/>
<path d="m244.523,281.64c.119-.612 2.896-.431 .289-.431-1.465,0-2.931,0-4.396,0-5.081,0-10.163,0-15.244,0-15.325,0-30.651,0-45.977,0-15.068,0-30.137,0-45.206,0-4.76,0-9.52,0-14.279,0-1.186,0-2.373,0-3.559,0-2.265,0 .889,.406 .889,1.611 0-46.66 0-93.319 0-139.979 0-1.733-2.492,1.174-1.618,1.174 .944,0 1.889,0 2.833,0 4.307,0 8.615,0 12.922,0 14.678,0 29.355,0 44.033,0 23.613,0 47.228,0 70.841,0-.56,0-1.707-2.943-1.707-1.021 0,1.164 0,2.328 0,3.492 0,4.483 0,8.967 0,13.45 0,14.579 0,29.157 0,43.736 0,25.761 0,51.521 0,77.282 0,.671 0,1.343 0,2.014 0,6.448 10,6.448 10,0 0-46.471 0-92.941 0-139.413 0-9.78-8.202-9.541-15.322-9.541-12.724,0-25.447,0-38.171,0-27.419,0-54.837,0-82.256,0-3.674,0-7.627-.144-9.954,3.425-1.817,2.788-1.6,5.566-1.6,8.683 0,10.969 0,21.938 0,32.908 0,30.061 0,60.123 0,90.184 0,6.925-2.398,19.894 6.804,21.814 2.144,.447 4.523,.179 6.69,.179 4.976,0 9.951,0 14.927,0 30.401,0 60.802,0 91.203,0 5.256,0 10.513,0 15.77,0 5.179,0 10.496-.577 11.731-6.911 1.23-6.297-8.408-8.983-9.643-2.656z"/>
<path d="m119.521,189.112 122.469,0"/>
<path d="m119.521,190.612c40.823,0 81.646,0 122.47,0 1.935,0 1.935-3 0-3-40.823,0-81.646,0-122.47,0-1.935,0-1.935,3 0,3z"/>
<path d="m119.521,235.75 122.469,0"/>
<path d="m119.521,237.25c40.823,0 81.646,0 122.47,0 1.935,0 1.935-3 0-3-40.823,0-81.646,0-122.47,0-1.935,0-1.935,3 0,3z"/>
<path d="m238.225,238.902h-115.042c-2.179,0-3.945,1.824-3.945,4.075v32.27c0,2.251 1.766,4.075 3.945,4.075h115.042c2.18,0 3.945-1.824 3.945-4.075v-32.27c-0-2.25-1.766-4.075-3.945-4.075zm-63.536,33.646c-.294-.933-.714-1.94-1.26-3.021-.547-1.08-1.154-2.133-1.82-3.16-.667-1.025-1.367-1.985-2.1-2.879s-1.434-1.646-2.1-2.26v11.319h-4.92v-24.76h4.92v10.28c.586-.746 1.2-1.574 1.84-2.48s1.246-1.813 1.82-2.721c.573-.906 1.1-1.799 1.58-2.68 .48-.88 .88-1.68 1.2-2.399h5.56c-.374,.72-.82,1.54-1.34,2.46s-1.114,1.88-1.78,2.88c-.667,1-1.38,2.021-2.14,3.06-.76,1.041-1.554,2.041-2.38,3 .826,.801 1.666,1.721 2.52,2.76 .853,1.041 1.66,2.154 2.42,3.341 .76,1.187 1.446,2.399 2.06,3.64 .613,1.24 1.106,2.447 1.48,3.62h-5.56zm13.48-5.86c.933,1.4 2.306,2.101 4.12,2.101 .293,0 .613-.013 .96-.04 .347-.026 .666-.066 .96-.12v-9.04h4.92v12.359c-.587,.215-1.5,.454-2.74,.721-1.24,.266-2.74,.4-4.5,.4-1.547,0-2.939-.274-4.18-.82-1.24-.547-2.3-1.36-3.18-2.44-.881-1.079-1.561-2.426-2.041-4.04-.479-1.613-.719-3.486-.719-5.619 0-2.107 .279-3.967 .84-5.58 .56-1.613 1.32-2.967 2.279-4.061 .961-1.094 2.094-1.913 3.4-2.46 1.307-.546 2.706-.819 4.199-.819 .961,0 1.82,.073 2.58,.219 .761,.147 1.42,.314 1.98,.5 .561,.188 1.02,.388 1.381,.601 .359,.214 .633,.374 .819,.479l-1.28,3.92c-.586-.373-1.307-.705-2.16-1-.854-.293-1.733-.439-2.64-.439-1.174,0-2.16,.214-2.96,.641-.8,.426-1.46,1.02-1.98,1.779-.52,.76-.893,1.667-1.119,2.721-.227,1.053-.34,2.219-.34,3.5 .002,2.956 .467,5.137 1.401,6.537z"/>
<path d="m258.334,237.25c10.61,0 21.222,0 31.832,0 1.935,0 1.935-3 0-3-10.61,0-21.222,0-31.832,0-1.935,0-1.935,3 0,3z"/>
<path d="m72.167,237.25c10.611,0 21.222,0 31.833,0 1.935,0 1.935-3 0-3-10.611,0-21.222,0-31.833,0-1.935,0-1.935,3 0,3z"/>
</g>
</svg>
