<svg xmlns="http://www.w3.org/2000/svg" viewBox="20 20 321 321">
<g fill="#fff">
<path d="m204.496,110.854c6.153,0 12.308,0 18.461,0 7.973,0 15.146,.375 21.439,6.112 8.739,7.966 7.014,20.302 7.014,30.936 0,27.054 0,54.109 0,81.163 0,14.21-10.149,23.941-24.228,23.941-11.838,0-23.676,0-35.514,0-15.364,0-30.727,0-46.09,0-11.344,0-22.562,1.375-31.066-7.955-7.17-7.866-5.253-20.768-5.253-30.589 0-15.584 0-31.168 0-46.752 0-11.139 0-22.278 0-33.417 0-7.455 2.874-14.406 8.943-18.986 6.369-4.807 13.661-4.452 21.147-4.452 5.791,0 11.582,0 17.373,0 6.449,0 6.449-10 0-10-13.077,0-28.239-2.167-40.299,3.799-9.952,4.923-15.715,15.198-17.03,25.872-.366,2.976-.133,6.135-.133,9.122 0,28.011 0,56.021 0,84.032 0,2.769-.034,5.538 .034,8.307 .271,11.035 6.787,20.902 16.007,26.598 9.355,5.778 21.23,4.422 31.748,4.422 26.895,0 53.79,0 80.684,0 18.101,0 33.678-13.764 33.678-32.4 0-9.005 0-18.011 0-27.017 0-15.902 0-31.806 0-47.708 0-9.076 1.085-19.002-.476-28.015-2.668-15.41-16.266-27.011-31.964-27.011-8.158,0-16.316,0-24.475,0-6.448-.002-6.448,9.998 0,9.998z"/>
<path d="m175.758,91.83c0,34.283 0,68.567 0,102.85 0,6.448 10,6.448 10,0 0-34.283 0-68.567 0-102.85 0-6.449-10-6.449-10-0z"/>
</g>
</svg>
