<svg xmlns="http://www.w3.org/2000/svg" viewBox="20 20 321 321">
<g fill="#fff">
<path d="m244.523,281.64c.119-.612 2.896-.431 .289-.431-1.465,0-2.931,0-4.396,0-5.081,0-10.163,0-15.244,0-15.325,0-30.651,0-45.977,0-15.068,0-30.137,0-45.206,0-4.76,0-9.52,0-14.279,0-1.186,0-2.373,0-3.559,0-2.261,0 .889,.243 .889,1.638 0-50.77 0-101.539 0-152.309 0-6.875 0-13.751 0-20.626-.826,1.439-1.651,2.878-2.477,4.317 13.553-9.064 27.106-18.128 40.659-27.192-1.284,.168-2.568,.336-3.853,.504 23.649,7.156 47.298,14.312 70.946,21.468 5.637,1.705 11.272,3.411 16.909,5.116 1.472,.445 2.944,.891 4.417,1.336 1.829,.554 .701,.547 .701-1.137 0,6.301 0,12.601 0,18.902 0,49.911 0,99.823 0,149.734 0,.003 0,.005 0,.008 0,6.448 10,6.448 10,0 0-49.693 0-99.387 0-149.08 0-6.503 0-13.007 0-19.51 0-8.85-15.068-10.686-21.594-12.661-25.828-7.815-51.655-15.63-77.482-23.445-3.27-.989-5.322,.283-7.953,2.042-5.823,3.895-11.646,7.789-17.469,11.683-5.823,3.894-11.646,7.788-17.469,11.683-2.637,1.763-5.337,3.214-5.337,6.838 0,21.712 0,43.424 0,65.137 0,29.982 0,59.966 0,89.949 0,5.785 0,11.57 0,17.355 0,10.699 14.644,8.248 21.506,8.248 25.049,0 50.099,0 75.148,0 10.905,0 21.812,0 32.718,0 6.465,0 16.082,1.651 17.753-6.911 1.233-6.297-8.405-8.983-9.64-2.656z"/>
<path d="m119.521,205.112 122.469,0"/>
<path d="m119.521,206.612c40.823,0 81.646,0 122.47,0 1.935,0 1.935-3 0-3-40.823,0-81.646,0-122.47,0-1.935,0-1.935,3 0,3z"/>
<path d="m119.521,243.75 122.469,0"/>
<path d="m119.521,245.25c40.823,0 81.646,0 122.47,0 1.935,0 1.935-3 0-3-40.823,0-81.646,0-122.47,0-1.935,0-1.935,3 0,3z"/>
<path d="m119.854,166.112 122.469,0"/>
<path d="m119.854,167.612c40.823,0 81.646,0 122.47,0 1.935,0 1.935-3 0-3-40.823,0-81.646,0-122.47,0-1.935,0-1.935,3-0,3z"/>
<path d="m119.854,127.112 122.469,0"/>
<path d="m119.854,128.612c40.823,0 81.646,0 122.47,0 1.935,0 1.935-3 0-3-40.823,0-81.646,0-122.47,0-1.935,0-1.935,3-0,3z"/>
<path d="m100.606,123.359c21.896-14.672 43.792-29.343 65.688-44.015 5.327-3.569 .327-12.236-5.047-8.635-21.896,14.672-43.792,29.343-65.688,44.015-5.327,3.57-.327,12.236 5.047,8.635z"/>
<path d="m155.004,88.488c38.417,11.417 76.833,22.833 115.25,34.25 6.197,1.842 8.824-7.81 2.658-9.643-38.417-11.417-76.833-22.833-115.25-34.25-6.197-1.841-8.825,7.811-2.658,9.643z"/>
<path d="m153.365,103.96c-.38-.734-.9-1.323-1.558-1.767-.659-.443-1.508-.665-2.546-.665-.203,0-.431,.007-.684,.019-.254,.013-.481,.044-.684,.095v15.808c.126,.025 .266,.038 .418,.038s.291,0 .418,0c1.064,0 1.957-.202 2.679-.608 .722-.405 1.304-.962 1.748-1.672 .443-.709 .76-1.551 .95-2.527 .19-.975 .285-2.045 .285-3.211 0-1.013-.076-2.001-.228-2.964-.152-.962-.418-1.811-.798-2.546z"/>
<path d="m238.902,114.834c0,0-81.574-24.463-82.726-24.808-1.448-.433-3.309-.183-3.953,.25-.753,.506-29.458,19.558-29.458,19.558-4,2.667-4,2.791-4,5v5.667c0,2.209 1.791,4 4,4h116.137c2.209,0 4-1.791 4-4v-1.667c0-2.209-1.162-2.898-4-4zm-80.578,.204c-.545,1.533-1.299,2.78-2.261,3.743-.963,.963-2.109,1.667-3.439,2.109s-2.793,.665-4.389,.665c-.836,0-1.653-.045-2.451-.133-.798-.089-1.653-.234-2.565-.437v-22.952c1.064-.228 2.065-.38 3.002-.456 .937-.076 1.811-.114 2.622-.114 1.545,0 2.958,.228 4.237,.684 1.279,.456 2.362,1.172 3.249,2.147 .886,.976 1.577,2.217 2.071,3.724 .494,1.507 .741,3.325 .741,5.453-0,2.178-.273,4.034-.817,5.567zm8.948,.646c.887,1.33 2.191,1.995 3.914,1.995 .278,0 .583-.013 .912-.038 .329-.025 .633-.063 .912-.114v-8.588h4.674v11.742c-.558,.203-1.425,.431-2.603,.684-1.178,.253-2.603,.38-4.275,.38-1.47,0-2.793-.26-3.971-.779-1.178-.519-2.185-1.292-3.021-2.318s-1.482-2.305-1.938-3.838c-.456-1.533-.684-3.312-.684-5.339 0-2.001 .266-3.768 .798-5.301 .532-1.532 1.254-2.818 2.166-3.857 .912-1.039 1.988-1.817 3.23-2.337 1.241-.519 2.571-.779 3.99-.779 .912,0 1.729,.07 2.451,.209 .722,.14 1.349,.298 1.881,.475 .532,.178 .969,.368 1.311,.57s.602,.355 .779,.456l-1.216,3.724c-.558-.354-1.242-.671-2.052-.95-.811-.279-1.647-.418-2.508-.418-1.115,0-2.052,.203-2.812,.608-.76,.405-1.387,.969-1.881,1.691s-.849,1.583-1.064,2.584c-.216,1.001-.323,2.109-.323,3.325 0,2.812 .443,4.883 1.33,6.213z"/>
<path d="m98.499,281.445c.667,0 1.333,0 2,0 1.908,0 3.5-1.592 3.5-3.5s-1.592-3.5-3.5-3.5c-.667,0-1.333,0-2,0-1.908,0-3.5,1.592-3.5,3.5s1.592,3.5 3.5,3.5z"/>
<path d="m73.833,287.445c5.333,0 10.667,0 16,0 4.514,0 4.514-7 0-7-5.333,0-10.667,0-16,0-4.514,0-4.514,7 0,7z"/>
<path d="m85.833,276.445c5.083,0 10.167,0 15.25,0 4.514,0 4.514-7 0-7-5.083,0-10.167,0-15.25,0-4.515,0-4.515,7 0,7z"/>
<path d="m94.416,291.834c2,0 4,0 6,0 1.908,0 3.5-1.592 3.5-3.5s-1.592-3.5-3.5-3.5c-2,0-4,0-6,0-1.908,0-3.5,1.592-3.5,3.5s1.592,3.5 3.5,3.5z"/>
<path d="m88.083,260.612c-3,0-6,0-9,0-4.514,0-4.514,7 0,7 3,0 6,0 9,0 4.514,0 4.514-7 0-7z"/>
<path d="m101.083,244.612c-5.333,0-10.667,0-16,0-4.514,0-4.514,7 0,7 5.333,0 10.667,0 16,0 4.514,0 4.514-7 0-7z"/>
<path d="m100.416,249.612c-2,0-4,0-6,0-1.908,0-3.5,1.592-3.5,3.5s1.592,3.5 3.5,3.5c2,0 4,0 6,0 1.908,0 3.5-1.592 3.5-3.5s-1.592-3.5-3.5-3.5z"/>
<path d="m80.708,245.945c-1.083,0-2.167,0-3.25,0-1.908,0-3.5,1.592-3.5,3.5s1.592,3.5 3.5,3.5c1.083,0 2.167,0 3.25,0 1.908,0 3.5-1.592 3.5-3.5s-1.593-3.5-3.5-3.5z"/>
<path d="m98.25,267.612c.667,0 1.333,0 2,0 1.908,0 3.5-1.592 3.5-3.5s-1.592-3.5-3.5-3.5c-.667,0-1.333,0-2,0-1.908,0-3.5,1.592-3.5,3.5s1.592,3.5 3.5,3.5z"/>
<path d="m77.583,284.834c-.667,0-1.333,0-2,0-1.908,0-3.5,1.592-3.5,3.5s1.592,3.5 3.5,3.5c.667,0 1.333,0 2,0 1.908,0 3.5-1.592 3.5-3.5s-1.592-3.5-3.5-3.5z"/>
<path d="m71.667,245.25c10.778,0 21.555,0 32.333,0 1.935,0 1.935-3 0-3-10.778,0-21.555,0-32.333,0-1.935,0-1.935,3 0,3z"/>
<path d="m79.832,252.167c-2,0-4,0-6,0-1.908,0-3.5,1.592-3.5,3.5s1.592,3.5 3.5,3.5c2,0 4,0 6,0 1.908,0 3.5-1.592 3.5-3.5s-1.593-3.5-3.5-3.5z"/>
<path d="m78.832,271.445c-1.833,0-3.667,0-5.5,0-1.908,0-3.5,1.592-3.5,3.5s1.592,3.5 3.5,3.5c1.833,0 3.667,0 5.5,0 1.908,0 3.5-1.592 3.5-3.5s-1.593-3.5-3.5-3.5z"/>
<path d="m258.334,245.25c10.61,0 21.222,0 31.832,0 1.935,0 1.935-3 0-3-10.61,0-21.222,0-31.832,0-1.935,0-1.935,3 0,3z"/>
<path d="m279.25,276.445c3,0 6,0 9,0 4.514,0 4.514-7 0-7-3,0-6,0-9,0-4.514,0-4.514,7 0,7z"/>
<path d="m260.583,291.682c5.333,0 10.667,0 16,0 4.514,0 4.514-7 0-7-5.333,0-10.667,0-16,0-4.514,0-4.514,7 0,7z"/>
<path d="m260.917,280.445c2,0 4,0 6,0 1.908,0 3.5-1.592 3.5-3.5s-1.592-3.5-3.5-3.5c-2,0-4,0-6,0-1.908,0-3.5,1.592-3.5,3.5s1.592,3.5 3.5,3.5z"/>
<path d="m274.25,287.445c.667,0 1.333,0 2,0 1.908,0 3.5-1.592 3.5-3.5s-1.592-3.5-3.5-3.5c-.667,0-1.333,0-2,0-1.908,0-3.5,1.592-3.5,3.5s1.592,3.5 3.5,3.5z"/>
<path d="m268.417,264.445c-2,0-4,0-6,0-1.908,0-3.5,1.592-3.5,3.5s1.592,3.5 3.5,3.5c2,0 4,0 6,0 1.908,0 3.5-1.592 3.5-3.5s-1.592-3.5-3.5-3.5z"/>
<path d="m262.834,249.612c-.667,0-1.333,0-2,0-1.908,0-3.5,1.592-3.5,3.5s1.592,3.5 3.5,3.5c.667,0 1.333,0 2,0 1.908,0 3.5-1.592 3.5-3.5s-1.592-3.5-3.5-3.5z"/>
<path d="m286.5,252.612c-5.333,0-10.667,0-16,0-4.514,0-4.514,7 0,7 5.333,0 10.667,0 16,0 4.514,0 4.514-7 0-7z"/>
<path d="m277.5,260.612c-5.083,0-10.167,0-15.25,0-4.514,0-4.514,7 0,7 5.083,0 10.167,0 15.25,0 4.514,0 4.514-7 0-7z"/>
<path d="m283.834,247.612c-2,0-4,0-6,0-1.908,0-3.5,1.592-3.5,3.5s1.592,3.5 3.5,3.5c2,0 4,0 6,0 1.908,0 3.5-1.592 3.5-3.5s-1.592-3.5-3.5-3.5z"/>
<path d="m266.5,244.612c-2,0-4,0-6,0-1.908,0-3.5,1.592-3.5,3.5s1.592,3.5 3.5,3.5c2,0 4,0 6,0 1.908,0 3.5-1.592 3.5-3.5s-1.592-3.5-3.5-3.5z"/>
<path d="m288.5,278.445c-2,0-4,0-6,0-1.908,0-3.5,1.592-3.5,3.5s1.592,3.5 3.5,3.5c2,0 4,0 6,0 1.908,0 3.5-1.592 3.5-3.5s-1.592-3.5-3.5-3.5z"/>
<path d="m287.834,244.612c-2,0-4,0-6,0-1.908,0-3.5,1.592-3.5,3.5s1.592,3.5 3.5,3.5c2,0 4,0 6,0 1.908,0 3.5-1.592 3.5-3.5s-1.592-3.5-3.5-3.5z"/>
<path d="m285.834,291.682c.667,0 1.333,0 2,0 1.908,0 3.5-1.592 3.5-3.5s-1.592-3.5-3.5-3.5c-.667,0-1.333,0-2,0-1.908,0-3.5,1.592-3.5,3.5s1.592,3.5 3.5,3.5z"/>
</g>
</svg>
