<svg xmlns="http://www.w3.org/2000/svg" viewBox="20 20 321 321">
<g fill="#fff">
<path d="m159.011,276.005c-2.313,6.882-5.578,4.969-11.733,4.521-3.105-.225-6.21-.45-9.316-.676-.334-.024-.669-.049-1.004-.073 3.335,.242 .942,1.322 1.606-.883 .163-.54 .325-1.08 .488-1.62 1.784-5.925 3.567-11.851 5.351-17.775 1.239-4.115 2.043-8.99 3.838-12.871 1.394-3.013 4.739-5.743 7.501-7.441 .013-.008-.482-.035 .454-.03 1.487,.007 2.974,.015 4.46,.021 3.116,.016 6.232,.031 9.348,.046 1.543,.008-.578,.197-1.113-.525 .466,.63-.094,2.119-.025,2.702 .006,.048-.004,.1-.01,.146 .281-2.595-.032-.184-.182,.474-.423,1.852-.918,3.688-1.411,5.521-2.56,9.54-5.414,19.003-8.252,28.463-1.857,6.192 7.795,8.819 9.643,2.658 2.963-9.878 5.938-19.761 8.592-29.728 .65-2.442 1.4-4.939 1.619-7.472 .273-3.161-.073-6.103-2.011-8.722-2.478-3.346-5.769-3.513-9.513-3.531-6.659-.033-13.382-1.287-18.976,2.949-5.397,4.086-8.8,8.722-10.716,15.084-2.157,7.165-4.314,14.33-6.471,21.494-1.637,5.438-5.288,14.07 .348,18.531 5.157,4.082 13.704,3.108 19.986,3.564 .429,.031 3.328,.385 1.446,.069 1.958,.328 3.813,.241 5.732-.301 5.472-1.546 8.295-6.972 9.964-11.939 2.06-6.128-7.6-8.736-9.643-2.656z"/>
<path d="m177.958,244.348c4.387-12.322 11.444-22.812 20.371-32.277 4.347-4.607 11.299-9.85 11.61-16.746 .147-3.259-3.82-4.353-5.975-2.475-.036,.03-.071,.062-.106,.093 1.991,.824 3.983,1.649 5.975,2.475-.327-21.878-.655-43.756-.982-65.634-.192-12.842-.385-25.684-.577-38.526-.039-2.648-.079-5.296-.119-7.944-.112-7.517-7.438-12.654-14.321-13.479-2.065-.248-3.28,1.795-3.5,3.5-1.17,9.083-1.359,18.349-1.873,27.486-.877,15.589-1.755,31.178-2.632,46.768-.725,12.875-1.449,25.751-2.174,38.627-.607,10.789-2.619,21.152-7.147,31.09-2.302,5.052-6.34,13.063-12.769,13.326-4.498,.184-4.516,7.185 0,7 16.529-.675 22.99-24.875 25.565-37.805 1.525-7.664 1.473-15.756 1.91-23.534 1.625-28.884 3.251-57.769 4.876-86.653 .307-5.445 .547-10.892 1.244-16.305-1.167,1.167-2.333,2.333-3.5,3.5 9.827,1.179 7.422,13.188 7.524,19.993 .193,12.968 .388,25.937 .582,38.904 .298,19.896 .596,39.791 .894,59.687 .048,3.192 3.712,4.447 5.975,2.475 .036-.03 .071-.062 .106-.093-1.991-.824-3.983-1.649-5.975-2.475-.088,1.947-2.177,3.964-3.453,5.388-2.902,3.237-6.033,6.265-8.954,9.487-8.569,9.457-15.043,20.264-19.324,32.287-1.519,4.262 5.246,6.08 6.749,1.86z"/>
<path d="m221.783,269.732c3.362,3.888 7.553,6.993 12.906,6.855 2.857-.074 5.278-1.592 7.762-2.813 4.767-2.342 15.222-5.151 16.76-11.104 1.861-7.205-3.178-12.076-7.279-17.183-4.687-5.833-9.372-11.666-14.058-17.5-4.081-5.079-9.157-7.888-15.529-9.608-1.921-.519-3.902-.73-5.867-.423-.567,.089-2.89,1.056-1.021,.289-.351,.145-.701,.288-1.052,.433-3.527,1.446-7.055,2.894-10.581,4.341-3.031,1.243-6.246,2.542-7.168,6.113-.977,3.779 .021,6.794 1.596,10.097 .969,2.031 2.684,3.883 4.021,5.661 6.324,8.417 12.925,16.63 19.51,24.842 4.034,5.032 11.063-2.092 7.07-7.07-7.314-9.125-15.825-18.202-21.865-28.292-.041-.068-.08-.139-.114-.211 4.376,9.177 .588,1.52 .489,1.158-.682-2.491-.717-2.722-3.18-1.711 2.475-1.016 4.949-2.031 7.425-3.047 2.194-.9 4.39-1.801 6.584-2.701 3.333-1.367-.484-.219 .567-.042 .996,.168 1.97,.491 2.931,.789 2.017,.625 3.894,1.555 5.701,2.633 3.145,1.876 5.674,6.64 7.899,9.409 4.127,5.138 8.254,10.275 12.381,15.413 .911,1.134 1.919,3.091 2.828,2.644-2.222,1.093-4.444,2.185-6.667,3.277-2.642,1.299-5.283,2.597-7.926,3.896-3.104,1.525-4.913-.74-7.054-3.215-4.224-4.886-11.266,2.219-7.069,7.07z"/>
<path d="m205.109,236.311c-8.385-9.421-18.359-16.764-29.661-22.307-3.682-1.806-7.477-3.369-11.187-5.113-2.204-1.036-5.083-2.167-6.17-4.511-1.317,1.714-2.635,3.428-3.953,5.142 .044,.016 .089,.03 .133,.046 2.385,.821 5.255-1.853 4.306-4.306-7.184-18.556-14.368-37.111-21.551-55.667-4.683-12.095-9.365-24.19-14.047-36.285-2.674-6.906-9.338-16.922-.196-21.959-1.596-.418-3.192-.837-4.789-1.255 4.49,7.982 8.139,16.501 12.041,24.778 6.659,14.123 13.317,28.246 19.976,42.369 10.027,21.267 18.311,45.342 35.305,62.225 6.179,6.139 15.589,13.296 24.82,10.018 4.223-1.5 2.403-8.265-1.861-6.75-8.065,2.864-16.449-6.363-21.27-11.609-4.929-5.365-9.271-11.436-12.381-18.031-3.678-7.801-7.355-15.601-11.034-23.402-11.57-24.541-23.141-49.081-34.71-73.621-1.518-3.219-3.096-6.405-4.842-9.508-.952-1.692-3.14-2.164-4.789-1.255-5.645,3.11-10.413,10.771-7.9,17.261 .956,2.47 1.912,4.939 2.868,7.409 4.637,11.977 9.274,23.955 13.911,35.932 7.899,20.404 15.799,40.809 23.699,61.214 1.435-1.436 2.87-2.87 4.306-4.306-.044-.016-.089-.03-.133-.046-3.186-1.097-5.127,2.606-3.953,5.142 2.74,5.914 11.338,8.206 16.743,10.665 12.024,5.471 22.555,12.779 31.37,22.682 3.007,3.376 7.94-1.593 4.949-4.952z"/>
</g>
</svg>
