<svg xmlns="http://www.w3.org/2000/svg" viewBox="20 20 321 321">
<g fill="#fff">
<path d="m263.995,134.211l12.629-1.312-1.28-12.173-12.614,1.339-6.73-15.102 9.441-8.481-8.19-9.097-9.425,8.505-14.313-8.276 2.652-12.402-11.973-2.545-2.626,12.42-16.442,1.72-5.145-11.594-11.185,4.978 5.175,11.587-12.28,11.063-10.988-6.358-6.12,10.601 10.992,6.329-3.445,15.686-12.608,1.801 1.279,12.172 12.616-1.34 6.73,15.102-9.443,8.482 8.191,9.097 9.425-8.506 14.312,8.275-2.649,12.404 11.973,2.545 2.623-12.419 16.443-1.719 5.146,11.593 11.182-4.979-5.098-11.635 12.206-11.015 10.985,6.358 6.121-10.601-10.992-6.329 3.425-16.174zm-45.923,34.531c-19.797,0-35.842-16.049-35.842-35.843 0-19.797 16.045-35.843 35.842-35.843 19.794,0 35.844,16.046 35.844,35.843 0,19.794-16.05,35.843-35.844,35.843z"/>
<path d="m263.995,139.211c4.21-.438 8.419-.875 12.629-1.312 2.479-.257 5.306-2.089 5-5-.427-4.058-.854-8.116-1.28-12.173-.261-2.476-2.087-5.309-5-5-4.205,.446-8.409,.893-12.614,1.339 1.439,.826 2.878,1.651 4.317,2.477-2.243-5.034-4.486-10.068-6.729-15.102-.261,2.02-.521,4.039-.782,6.059 3.147-2.827 6.295-5.654 9.441-8.481 2.104-1.891 1.746-5.132 0-7.071-2.729-3.032-5.46-6.064-8.19-9.097-1.891-2.101-5.132-1.75-7.07,0-3.142,2.835-6.283,5.67-9.425,8.505 2.02-.261 4.039-.521 6.059-.782-4.771-2.759-9.541-5.517-14.313-8.276 .766,1.882 1.532,3.764 2.298,5.646 .884-4.134 1.769-8.268 2.652-12.402 .543-2.538-.716-5.56-3.492-6.15-3.991-.849-7.981-1.697-11.973-2.545-2.536-.539-5.563,.713-6.15,3.492-.875,4.14-1.751,8.28-2.626,12.42 1.607-1.224 3.214-2.447 4.821-3.671-5.48,.573-10.962,1.146-16.442,1.72 1.439,.826 2.878,1.651 4.317,2.477-1.715-3.865-3.43-7.729-5.145-11.594-1.189-2.68-4.58-2.8-6.841-1.794-3.729,1.659-7.457,3.319-11.185,4.978-2.677,1.191-2.804,4.579-1.794,6.841 1.725,3.862 3.45,7.725 5.175,11.587 .261-2.02 .521-4.039 .782-6.059-4.094,3.688-8.188,7.375-12.281,11.063 2.02-.261 4.04-.521 6.059-.782-3.663-2.119-7.325-4.239-10.988-6.358-2.349-1.359-5.475-.572-6.841,1.794-2.04,3.533-4.08,7.067-6.12,10.601-1.355,2.348-.576,5.477 1.794,6.841 3.664,2.11 7.328,4.219 10.992,6.329-.766-1.882-1.532-3.764-2.298-5.646-1.148,5.229-2.297,10.457-3.445,15.686 1.164-1.164 2.328-2.328 3.492-3.492-4.203,.6-8.406,1.2-12.608,1.801-2.007,.287-3.879,2.838-3.671,4.821 .426,4.057 .853,8.115 1.279,12.172 .26,2.476 2.087,5.31 5,5 4.205-.447 8.411-.894 12.616-1.34-1.439-.826-2.878-1.651-4.317-2.477 2.243,5.034 4.487,10.068 6.73,15.102 .261-2.02 .521-4.039 .782-6.059-3.147,2.828-6.295,5.655-9.443,8.482-2.104,1.891-1.746,5.132 0,7.071 2.73,3.032 5.461,6.064 8.191,9.097 1.892,2.101 5.132,1.75 7.071,0 3.142-2.835 6.283-5.671 9.425-8.506-2.02,.26-4.039,.521-6.059,.782 4.771,2.758 9.541,5.517 14.312,8.275-.766-1.882-1.532-3.765-2.298-5.646-.883,4.135-1.767,8.27-2.649,12.404-.542,2.538 .715,5.561 3.492,6.15 3.991,.849 7.981,1.696 11.973,2.545 2.535,.539 5.563-.713 6.15-3.492 .874-4.14 1.749-8.279 2.623-12.419-1.607,1.224-3.214,2.448-4.821,3.67 5.481-.572 10.962-1.146 16.443-1.719-1.439-.825-2.878-1.65-4.317-2.476 1.716,3.865 3.431,7.729 5.146,11.593 1.189,2.68 4.58,2.801 6.841,1.794 3.728-1.659 7.455-3.319 11.182-4.979 2.688-1.197 2.788-4.572 1.794-6.841-1.699-3.878-3.398-7.757-5.098-11.635-.261,2.02-.521,4.039-.782,6.059 4.069-3.672 8.138-7.344 12.206-11.015-2.02,.261-4.039,.521-6.059,.782 3.661,2.12 7.323,4.239 10.985,6.358 2.349,1.359 5.475,.572 6.841-1.794 2.04-3.534 4.081-7.067 6.121-10.601 1.355-2.348 .575-5.477-1.794-6.841-3.664-2.109-7.328-4.219-10.992-6.329 .766,1.882 1.532,3.764 2.298,5.646 1.142-5.391 2.283-10.782 3.425-16.173 1.332-6.29-8.307-8.966-9.643-2.658-1.142,5.391-2.283,10.782-3.425,16.173-.466,2.2 .271,4.479 2.298,5.646 3.664,2.109 7.328,4.219 10.992,6.329-.598-2.28-1.196-4.561-1.794-6.841-2.04,3.534-4.081,7.067-6.121,10.601 2.28-.598 4.561-1.196 6.841-1.794-3.662-2.12-7.323-4.239-10.985-6.358-2.022-1.171-4.374-.739-6.059,.782-4.069,3.672-8.138,7.344-12.206,11.015-1.796,1.621-1.661,4.054-.782,6.059 1.699,3.878 3.398,7.757 5.098,11.635 .598-2.28 1.196-4.561 1.794-6.841-3.728,1.66-7.455,3.319-11.182,4.979 2.28,.598 4.561,1.196 6.841,1.794-1.716-3.864-3.431-7.729-5.146-11.593-.64-1.44-2.759-2.64-4.317-2.477-5.481,.573-10.962,1.146-16.443,1.719-2.137,.223-4.331,1.349-4.821,3.671-.874,4.14-1.749,8.28-2.623,12.419 2.05-1.164 4.101-2.328 6.15-3.492-3.991-.849-7.981-1.696-11.973-2.545 1.164,2.05 2.328,4.101 3.492,6.15 .883-4.135 1.767-8.27 2.649-12.404 .471-2.202-.275-4.477-2.298-5.646-4.771-2.758-9.541-5.517-14.312-8.275-2.023-1.17-4.373-.739-6.059,.782-3.143,2.835-6.284,5.671-9.426,8.506 2.357,0 4.714,0 7.071,0-2.73-3.032-5.461-6.064-8.191-9.097 0,2.357 0,4.714 0,7.071 3.147-2.828 6.295-5.655 9.443-8.482 1.791-1.609 1.671-4.064 .781-6.059-2.243-5.034-4.486-10.068-6.729-15.102-.641-1.438-2.757-2.642-4.317-2.477-4.205,.447-8.411,.894-12.616,1.34 1.667,1.667 3.333,3.333 5,5-.426-4.057-.853-8.115-1.279-12.172-1.224,1.607-2.447,3.214-3.671,4.821 4.203-.6 8.406-1.2 12.608-1.801 1.598-.228 3.16-1.977 3.492-3.492 1.148-5.229 2.297-10.457 3.445-15.686 .482-2.194-.282-4.486-2.298-5.646-3.664-2.11-7.328-4.219-10.992-6.329 .598,2.28 1.196,4.561 1.794,6.841 2.04-3.533 4.08-7.067 6.12-10.601-2.28,.598-4.561,1.196-6.841,1.794 3.663,2.119 7.325,4.239 10.988,6.358 2.024,1.171 4.372,.738 6.059-.782 4.094-3.688 8.188-7.375 12.28-11.063 1.789-1.611 1.674-4.063 .782-6.059-1.725-3.862-3.45-7.725-5.175-11.587-.598,2.28-1.196,4.561-1.794,6.841 3.729-1.659 7.456-3.319 11.185-4.978-2.28-.598-4.561-1.196-6.841-1.794 1.715,3.865 3.43,7.729 5.145,11.594 .639,1.44 2.759,2.64 4.317,2.477 5.48-.573 10.962-1.146 16.442-1.72 2.137-.224 4.33-1.349 4.821-3.671 .875-4.14 1.751-8.28 2.626-12.42-2.05,1.164-4.101,2.328-6.15,3.492 3.991,.849 7.981,1.697 11.973,2.545-1.164-2.05-2.328-4.1-3.492-6.15-.884,4.134-1.769,8.268-2.652,12.402-.471,2.202 .275,4.477 2.298,5.646 4.771,2.759 9.541,5.517 14.313,8.276 2.023,1.17 4.373,.739 6.059-.782 3.142-2.835 6.283-5.67 9.425-8.505-2.356,0-4.714,0-7.07,0 2.729,3.032 5.46,6.064 8.19,9.097 0-2.357 0-4.714 0-7.071-3.147,2.827-6.295,5.654-9.441,8.481-1.792,1.609-1.671,4.064-.782,6.059 2.243,5.034 4.486,10.068 6.729,15.102 .641,1.438 2.758,2.642 4.317,2.477 4.205-.446 8.409-.893 12.614-1.339-1.667-1.667-3.333-3.333-5-5 .427,4.058 .854,8.116 1.28,12.173 1.667-1.667 3.333-3.333 5-5-4.21,.438-8.419,.875-12.629,1.312-6.347,.66-6.411,10.666 .001,10z"/>
<path d="m218.072,163.742c-17.07-.329-30.513-13.774-30.842-30.843-.329-17.071 14.267-30.524 30.842-30.843 17.07-.329 30.524,14.269 30.844,30.843 .329,17.07-14.27,30.524-30.844,30.843-6.44,.124-6.452,10.125 0,10 22.55-.435 40.409-18.293 40.844-40.843 .435-22.55-18.947-40.421-40.844-40.843-22.552-.435-40.42,18.946-40.842,40.843-.435,22.55 18.945,40.421 40.842,40.843 6.452,.125 6.441-9.876 0-10z"/>
<path d="m189.828,226.285l12.682-.611-.604-12.227-12.67,.641-5.885-15.449 9.896-7.947-7.674-9.535-9.881,7.971-13.833-9.054 3.334-12.236-11.815-3.205-3.307,12.256-16.513,.807-4.497-11.86-11.441,4.352 4.527,11.856-12.875,10.367-10.619-6.957-6.698,10.248 10.628,6.927-4.309,15.471-12.688,1.099 .604,12.226 12.67-.641 5.886,15.449-9.898,7.947 7.676,9.537 9.882-7.973 13.832,9.054-3.333,12.239 11.815,3.203 3.305-12.257 16.514-.806 4.498,11.859 11.439-4.354-4.446-11.898 12.798-10.323 10.617,6.957 6.697-10.247-10.627-6.927 4.313-15.959zm-45.78,31.994c-19.796,0-35.842-16.049-35.842-35.844 0-19.796 16.046-35.844 35.842-35.844 19.795,0 35.844,16.048 35.844,35.844 0,19.795-16.049,35.844-35.844,35.844z"/>
<path d="m189.828,231.285c4.228-.204 8.454-.407 12.682-.611 2.616-.126 5.14-2.181 5-5-.201-4.075-.402-8.151-.604-12.227-.129-2.613-2.178-5.143-5-5-4.224,.214-8.446,.427-12.67,.641 1.607,1.224 3.214,2.447 4.821,3.671-1.962-5.149-3.923-10.3-5.885-15.449-.429,1.621-.857,3.243-1.286,4.864 3.299-2.648 6.598-5.298 9.896-7.947 2.286-1.835 1.558-5.136 0-7.07-2.558-3.179-5.115-6.357-7.674-9.536-1.836-2.282-5.136-1.561-7.07,0-3.294,2.657-6.588,5.314-9.882,7.971 2.02-.261 4.04-.521 6.059-.782-4.611-3.018-9.222-6.036-13.833-9.054 .766,1.882 1.532,3.764 2.298,5.647 1.111-4.079 2.223-8.158 3.334-12.236 .714-2.621-.858-5.436-3.492-6.15-3.938-1.068-7.877-2.137-11.815-3.205-2.619-.71-5.439,.855-6.15,3.492-1.103,4.085-2.205,8.171-3.307,12.256 1.607-1.224 3.214-2.447 4.821-3.671-5.504,.269-11.009,.538-16.513,.807 1.607,1.224 3.214,2.447 4.821,3.671-1.499-3.954-2.998-7.907-4.497-11.86-.892-2.353-3.431-4.527-6.15-3.492-3.814,1.451-7.627,2.901-11.441,4.352-2.349,.893-4.531,3.43-3.492,6.15 1.509,3.952 3.018,7.904 4.527,11.856 .429-1.621 .857-3.243 1.286-4.865-4.292,3.456-8.583,6.912-12.875,10.368 2.02-.261 4.04-.521 6.059-.782-3.54-2.319-7.079-4.638-10.619-6.957-2.364-1.549-5.41-.395-6.841,1.794-2.233,3.416-4.465,6.832-6.698,10.248-1.545,2.363-.399,5.412 1.794,6.841 3.542,2.309 7.085,4.618 10.628,6.927-.766-1.882-1.532-3.765-2.298-5.646-1.437,5.157-2.873,10.314-4.309,15.472 1.607-1.224 3.214-2.447 4.821-3.671-4.229,.366-8.459,.732-12.688,1.099-2.606,.226-5.143,2.104-5,5 .201,4.075 .403,8.15 .604,12.226 .129,2.613 2.178,5.143 5,5 4.224-.214 8.447-.427 12.67-.641-1.607-1.224-3.214-2.447-4.821-3.671 1.962,5.149 3.924,10.3 5.886,15.449 .429-1.621 .857-3.243 1.286-4.864-3.299,2.648-6.599,5.298-9.898,7.947-2.285,1.835-1.557,5.136 0,7.07 2.559,3.18 5.117,6.358 7.676,9.537 1.836,2.282 5.136,1.562 7.071,0 3.294-2.657 6.588-5.314 9.882-7.973-2.02,.261-4.04,.521-6.059,.782 4.61,3.018 9.221,6.036 13.832,9.054-.766-1.882-1.532-3.765-2.298-5.646-1.111,4.08-2.222,8.159-3.333,12.239-.714,2.621 .858,5.437 3.492,6.15 3.938,1.067 7.876,2.136 11.815,3.203 2.619,.71 5.439-.854 6.15-3.492 1.102-4.086 2.203-8.171 3.305-12.257-1.607,1.224-3.214,2.447-4.821,3.671 5.504-.269 11.009-.537 16.514-.806-1.607-1.224-3.214-2.447-4.821-3.671 1.499,3.953 2.998,7.906 4.498,11.859 .892,2.352 3.431,4.527 6.15,3.492 3.813-1.451 7.626-2.902 11.439-4.354 2.363-.899 4.512-3.422 3.492-6.15-1.482-3.966-2.964-7.933-4.446-11.898-.429,1.621-.857,3.243-1.286,4.864 4.266-3.44 8.532-6.882 12.798-10.323-2.02,.261-4.04,.521-6.059,.782 3.539,2.319 7.078,4.638 10.617,6.957 2.363,1.549 5.41,.395 6.841-1.794 2.232-3.415 4.465-6.831 6.697-10.247 1.545-2.363 .398-5.412-1.794-6.841-3.542-2.309-7.084-4.618-10.627-6.927 .766,1.882 1.532,3.765 2.298,5.646 1.438-5.32 2.876-10.64 4.314-15.96 1.686-6.234-7.962-8.877-9.643-2.658-1.438,5.32-2.876,10.64-4.314,15.96-.607,2.247 .401,4.41 2.298,5.646 3.542,2.309 7.084,4.618 10.627,6.927-.598-2.28-1.196-4.561-1.794-6.841-2.232,3.416-4.465,6.831-6.697,10.247 2.28-.598 4.561-1.196 6.841-1.794-3.539-2.319-7.078-4.638-10.616-6.957-2.014-1.319-4.357-.592-6.06,.782-4.266,3.44-8.532,6.882-12.798,10.323-1.26,1.016-1.846,3.364-1.286,4.864 1.482,3.966 2.964,7.933 4.446,11.898 1.164-2.05 2.328-4.101 3.492-6.15-3.813,1.451-7.626,2.902-11.439,4.354 2.05,1.164 4.1,2.328 6.15,3.492-1.499-3.953-2.998-7.906-4.498-11.859-.769-2.027-2.461-3.786-4.821-3.671-5.504,.269-11.009,.537-16.514,.806-2.228,.108-4.221,1.445-4.821,3.671-1.102,4.086-2.203,8.171-3.305,12.257 2.05-1.164 4.1-2.328 6.15-3.492-3.938-1.067-7.876-2.136-11.815-3.203 1.164,2.05 2.328,4.101 3.492,6.15 1.111-4.08 2.222-8.159 3.333-12.239 .612-2.248-.406-4.408-2.298-5.646-4.61-3.018-9.221-6.036-13.832-9.054-2.015-1.318-4.356-.592-6.059,.782-3.294,2.657-6.588,5.314-9.882,7.973 2.357,0 4.714,0 7.071,0-2.559-3.18-5.117-6.358-7.676-9.537 0,2.356 0,4.714 0,7.07 3.299-2.648 6.599-5.298 9.898-7.947 1.255-1.007 1.854-3.373 1.286-4.864-1.962-5.149-3.924-10.3-5.886-15.449-.771-2.023-2.46-3.79-4.821-3.671-4.224,.214-8.447,.427-12.67,.641 1.667,1.667 3.333,3.333 5,5-.201-4.075-.403-8.15-.604-12.226-1.667,1.667-3.333,3.333-5,5 4.229-.366 8.459-.732 12.688-1.099 2.25-.194 4.185-1.387 4.821-3.671 1.437-5.157 2.873-10.314 4.309-15.472 .624-2.239-.412-4.418-2.298-5.646-3.542-2.309-7.085-4.618-10.628-6.927 .598,2.28 1.196,4.561 1.794,6.841 2.233-3.416 4.465-6.832 6.698-10.248-2.28,.598-4.561,1.196-6.841,1.794 3.54,2.319 7.079,4.638 10.619,6.957 2.015,1.32 4.355,.59 6.059-.782 4.292-3.455 8.583-6.911 12.875-10.367 1.253-1.009 1.855-3.372 1.286-4.864-1.509-3.952-3.018-7.904-4.527-11.856-1.164,2.05-2.328,4.1-3.492,6.15 3.814-1.451 7.627-2.901 11.441-4.352-2.05-1.164-4.1-2.328-6.15-3.492 1.499,3.954 2.998,7.907 4.497,11.86 .769,2.027 2.461,3.786 4.821,3.671 5.504-.27 11.009-.538 16.513-.807 2.229-.109 4.221-1.446 4.821-3.671 1.103-4.085 2.205-8.171 3.307-12.256-2.05,1.164-4.1,2.328-6.15,3.492 3.938,1.068 7.877,2.137 11.815,3.205-1.164-2.05-2.328-4.1-3.492-6.15-1.111,4.079-2.223,8.157-3.334,12.236-.613,2.248 .406,4.409 2.298,5.646 4.611,3.019 9.222,6.036 13.833,9.055 2.015,1.318 4.356,.592 6.059-.782 3.294-2.656 6.588-5.313 9.881-7.971-2.356,0-4.714,0-7.07,0 2.558,3.179 5.115,6.357 7.674,9.535 0-2.356 0-4.714 0-7.07-3.299,2.648-6.598,5.298-9.897,7.947-1.255,1.008-1.854,3.373-1.286,4.864 1.961,5.149 3.923,10.3 5.885,15.449 .771,2.023 2.46,3.79 4.821,3.671 4.224-.214 8.446-.427 12.67-.641-1.667-1.667-3.333-3.333-5-5 .201,4.075 .402,8.151 .604,12.227 1.667-1.667 3.333-3.333 5-5-4.228,.204-8.454,.407-12.682,.611-6.418,.309-6.448,10.31 .001,9.999z"/>
<path d="m144.048,253.279c-17.07-.329-30.513-13.774-30.842-30.844-.329-17.07 14.267-30.524 30.842-30.844 17.07-.329 30.525,14.27 30.844,30.844 .329,17.071-14.27,30.525-30.844,30.844-6.44,.124-6.452,10.124 0,10 22.55-.435 40.409-18.293 40.845-40.844 .435-22.551-18.948-40.422-40.845-40.844-22.551-.435-40.42,18.947-40.842,40.844-.435,22.55 18.945,40.422 40.842,40.844 6.452,.124 6.44-9.876 0-10z"/>
<path d="m252.367,241.563l7.734-.986c-1.298-3.922-3.506-7.523-6.5-10.469l-4.215,6.832 2.981,4.623z"/>
<path d="m252.367,246.563c2.578-.329 5.156-.657 7.734-.986 2.988-.381 5.995-2.938 4.821-6.329-1.662-4.801-4.207-9.053-7.786-12.675-2.309-2.338-6.174-1.71-7.853,1.012-1.405,2.277-2.81,4.555-4.215,6.832-.901,1.462-.94,3.589 0,5.047 .993,1.541 1.987,3.082 2.98,4.623 3.48,5.399 12.141,.391 8.635-5.047-.993-1.541-1.987-3.082-2.98-4.623 0,1.683 0,3.364 0,5.047 1.405-2.277 2.81-4.555 4.215-6.832-2.617,.338-5.235,.675-7.853,1.012 2.337,2.366 4.122,5.11 5.214,8.263 1.607-2.109 3.214-4.22 4.821-6.329-2.578,.329-5.156,.657-7.734,.986-2.703,.345-5,2.014-5,5 .001,2.462 2.29,5.344 5.001,4.999z"/>
<path d="m253.602,230.107l5.691-9.223-9.384-5.748-5.542,9.115c.358,.133 .721,.243 1.076,.393 3.139,1.329 5.868,3.21 8.159,5.463z"/>
<path d="m257.919,232.631c1.897-3.074 3.794-6.148 5.691-9.223 1.453-2.355 .485-5.444-1.794-6.841-3.128-1.916-6.256-3.832-9.384-5.748-2.354-1.442-5.448-.496-6.841,1.794-1.848,3.038-3.694,6.076-5.542,9.115-1.787,2.938 .032,6.267 2.988,7.345 2.665,.973 4.985,2.631 7.028,4.569 4.673,4.437 11.756-2.623 7.07-7.07-3.348-3.178-7.104-5.56-11.44-7.142 .996,2.448 1.992,4.896 2.988,7.345 1.848-3.038 3.694-6.076 5.542-9.115-2.28,.598-4.561,1.196-6.841,1.794 3.128,1.916 6.256,3.832 9.384,5.748-.598-2.28-1.196-4.561-1.794-6.841-1.897,3.074-3.794,6.148-5.691,9.223-3.395,5.504 5.257,10.522 8.636,5.047z"/>
<path d="m240.107,231.258l4.26-7.006c-4.141-1.543-8.438-1.977-12.561-1.426l2.826,7.877 5.475,.555z"/>
<path d="m244.425,233.781c1.42-2.335 2.84-4.67 4.26-7.006 1.773-2.916-.016-6.297-2.988-7.345-4.45-1.569-9.2-2.149-13.89-1.604-2.969,.345-6.025,2.973-4.821,6.329 .942,2.626 1.884,5.251 2.826,7.877 .82,2.287 2.438,3.43 4.821,3.671 1.825,.185 3.649,.37 5.475,.555 2.717,.275 5-2.482 5-5 0-2.934-2.289-4.726-5-5-1.825-.185-3.649-.37-5.475-.555 1.607,1.224 3.214,2.447 4.821,3.671-.942-2.626-1.884-5.251-2.826-7.877-1.607,2.109-3.214,4.22-4.821,6.329 3.93-.456 7.502-.068 11.231,1.247-.996-2.448-1.992-4.896-2.988-7.345-1.42,2.335-2.84,4.67-4.26,7.006-3.359,5.526 5.291,10.547 8.635,5.047z"/>
<path d="m261.316,251.44l11.12-1.345-1.358-10.92-10.977,1.4c1.143,3.458 1.592,7.152 1.215,10.865z"/>
<path d="m261.316,256.44c3.707-.448 7.413-.896 11.12-1.345 2.43-.294 5.365-2.065 5-5-.453-3.64-.905-7.28-1.358-10.92-.301-2.421-2.062-5.375-5-5-3.659,.467-7.317,.934-10.977,1.4-3.07,.392-5.887,2.914-4.821,6.329 .992,3.182 1.313,6.21 1.036,9.535-.225,2.721 2.446,5.001 5,5.001 2.896,0 4.774-2.285 5-5 .342-4.116-.164-8.252-1.394-12.193-1.607,2.109-3.214,4.22-4.821,6.329 3.659-.467 7.317-.934 10.977-1.4-1.667-1.667-3.333-3.333-5-5 .453,3.64 .905,7.28 1.358,10.92 1.667-1.667 3.333-3.333 5-5-3.707,.448-7.413,.896-11.12,1.345-2.705,.327-5,2.027-5,5 0,2.477 2.288,5.328 5,4.999z"/>
<path d="m224.408,234.412l-2.904-7.926c-3.604,2.213-6.69,5.309-8.914,9.145l7.969,2.715 3.849-3.934z"/>
<path d="m229.229,233.083c-.968-2.642-1.937-5.284-2.904-7.926-1.065-2.908-4.431-4.835-7.345-2.988-4.415,2.798-8.018,6.452-10.708,10.938-1.74,2.902-.015,6.321 2.988,7.345 2.656,.905 5.313,1.81 7.969,2.715 1.646,.562 3.678-.073 4.864-1.286 1.283-1.311 2.566-2.622 3.85-3.934 4.512-4.609-2.555-11.686-7.07-7.07-1.283,1.311-2.566,2.622-3.85,3.934 1.621-.429 3.243-.857 4.864-1.286-2.656-.905-5.313-1.81-7.969-2.715 .996,2.448 1.992,4.896 2.988,7.345 1.805-3.01 4.151-5.469 7.12-7.351-2.448-.996-4.896-1.992-7.345-2.988 .968,2.642 1.937,5.284 2.904,7.926 .937,2.557 3.358,4.261 6.15,3.492 2.466-.678 4.433-3.589 3.494-6.151z"/>
<path d="m228.26,212.947l-10.344,3.752 3.588,9.787c3.133-1.926 6.643-3.174 10.303-3.66l-3.547-9.879z"/>
<path d="m226.931,208.126c-3.448,1.251-6.896,2.501-10.344,3.752-2.392,.867-4.484,3.443-3.492,6.15 1.196,3.263 2.392,6.524 3.588,9.787 1.094,2.983 4.385,4.737 7.345,2.988 2.864-1.692 5.819-2.66 9.108-3.156 2.56-.386 4.335-3.804 3.492-6.15-1.183-3.293-2.364-6.586-3.547-9.879-2.162-6.022-11.827-3.426-9.643,2.658 1.183,3.293 2.364,6.586 3.547,9.879 1.164-2.05 2.328-4.101 3.492-6.15-4.083,.615-7.944,2.064-11.497,4.164 2.448,.996 4.896,1.992 7.345,2.988-1.196-3.263-2.392-6.524-3.588-9.787-1.164,2.05-2.328,4.101-3.492,6.15 3.448-1.251 6.896-2.501 10.344-3.752 6.013-2.18 3.418-11.846-2.658-9.642z"/>
<path d="m251.95,257.574l5.397,5.24c.76-1.203 1.458-2.465 2.031-3.819 1.046-2.474 1.68-5.017 1.938-7.555l-7.609,.919-1.757,5.215z"/>
<path d="m248.415,261.109c1.799,1.747 3.598,3.494 5.397,5.24 2.351,2.283 6.146,1.753 7.853-1.012 2.655-4.302 4.069-8.9 4.651-13.897 .29-2.487-2.505-5.302-5-5-2.536,.307-5.073,.612-7.609,.919-2.352,.284-4.038,1.345-4.821,3.671-.586,1.738-1.171,3.477-1.757,5.215-2.064,6.129 7.596,8.735 9.643,2.658 .586-1.738 1.171-3.477 1.757-5.215-1.607,1.224-3.214,2.447-4.821,3.671 2.536-.307 5.073-.612 7.609-.919-1.667-1.667-3.333-3.333-5-5-.373,3.2-1.61,6.135-3.286,8.851 2.617-.338 5.235-.675 7.853-1.012-1.799-1.747-3.598-3.494-5.397-5.24-4.628-4.492-11.706,2.572-7.072,7.07z"/>
<path d="m210.898,258.506l-9.029,5.777 5.963,9.248 9.164-5.945c-2.666-2.592-4.74-5.688-6.098-9.08z"/>
<path d="m208.375,254.188c-3.01,1.926-6.02,3.852-9.029,5.777-2.216,1.418-3.315,4.481-1.794,6.841 1.987,3.083 3.976,6.166 5.963,9.248 1.422,2.206 4.48,3.325 6.841,1.794 3.055-1.981 6.109-3.964 9.164-5.945 2.696-1.749 3.359-5.482 1.012-7.853-2.346-2.369-4.018-4.999-5.315-8.068-1.064-2.512-4.721-3.036-6.842-1.794-2.574,1.508-2.855,4.33-1.794,6.841 1.61,3.81 3.973,7.157 6.88,10.092 .337-2.617 .674-5.235 1.012-7.853-3.055,1.981-6.109,3.964-9.164,5.945 2.28,.598 4.561,1.196 6.841,1.794-1.987-3.083-3.976-6.166-5.963-9.248-.598,2.28-1.196,4.561-1.794,6.841 3.01-1.926 6.02-3.852 9.029-5.777 5.412-3.463 .402-12.122-5.047-8.635z"/>
<path d="m239.172,267.232l-.738,7.551c4.031-.501 7.895-1.917 11.275-4.15l-5.363-5.279-5.174,1.878z"/>
<path d="m234.172,267.232c-.246,2.517-.492,5.034-.738,7.551-.351,3.585 3.436,5.223 6.329,4.821 4.441-.616 8.694-2.238 12.47-4.654 2.683-1.717 3.383-5.52 1.012-7.853-1.787-1.76-3.575-3.52-5.363-5.279-1.195-1.178-3.215-1.885-4.864-1.286-1.725,.626-3.449,1.253-5.174,1.879-2.56,.93-4.259,3.364-3.492,6.15 .679,2.47 3.587,4.424 6.15,3.492 1.725-.626 3.449-1.253 5.174-1.879-1.621-.429-3.243-.857-4.864-1.286 1.787,1.76 3.575,3.52 5.363,5.279 .337-2.617 .674-5.235 1.012-7.853-3.13,2.002-6.4,3.136-10.081,3.646 2.109,1.607 4.22,3.214 6.329,4.821 .246-2.517 .492-5.034 .738-7.551 .266-2.718-2.476-5-5-5-2.927,.002-4.736,2.291-5.001,5.002z"/>
<path d="m227.543,273.846l-1.155,11.053 10.946,1.105 1.1-11.221c-3.577,.444-7.278,.176-10.891-.937z"/>
<path d="m222.543,273.846c-.385,3.685-.771,7.368-1.155,11.053-.304,2.906 2.519,4.749 5,5 3.648,.368 7.298,.737 10.946,1.105 2.901,.293 4.756-2.51 5-5 .366-3.74 .733-7.48 1.1-11.221 .246-2.514-2.47-5.271-5-5-3.307,.354-6.364,.162-9.562-.759-6.21-1.79-8.843,7.86-2.658,9.643 3.976,1.146 8.104,1.557 12.22,1.116-1.667-1.667-3.333-3.333-5-5-.366,3.74-.733,7.48-1.1,11.221 1.667-1.667 3.333-3.333 5-5-3.648-.368-7.298-.737-10.946-1.105 1.667,1.667 3.333,3.333 5,5 .385-3.685 .771-7.368 1.155-11.053 .284-2.716-2.489-5-5-5-2.939,0-4.717,2.29-5,5z"/>
<path d="m212.59,235.631l-9.885-3.368-3.516,10.426 9.983,3.331c.266-2.502 .892-5.004 1.921-7.439 .436-1.032 .949-2.007 1.497-2.95z"/>
<path d="m213.919,230.81c-3.295-1.123-6.59-2.245-9.885-3.368-2.688-.916-5.321,1.032-6.15,3.492-1.172,3.476-2.344,6.95-3.516,10.426-.905,2.685 1.023,5.327 3.492,6.15 3.328,1.11 6.655,2.221 9.983,3.331 3.393,1.132 5.954-1.8 6.329-4.821 .348-2.798 1.356-5.429 2.734-7.865 3.179-5.621-5.461-10.659-8.635-5.047-2.303,4.072-3.525,8.291-4.1,12.912 2.109-1.607 4.22-3.214 6.329-4.821-3.328-1.11-6.655-2.221-9.983-3.331 1.164,2.05 2.328,4.101 3.492,6.15 1.172-3.476 2.344-6.95 3.516-10.426-2.05,1.164-4.101,2.328-6.15,3.492 3.295,1.123 6.59,2.245 9.885,3.368 6.122,2.086 8.727-7.575 2.659-9.642z"/>
<path d="m249.709,270.633l8.082,7.953 7.693-7.871-8.137-7.9c-2.012,3.178-4.622,5.824-7.638,7.818z"/>
<path d="m246.174,274.168c2.693,2.651 5.388,5.303 8.082,7.953 1.925,1.895 5.155,1.961 7.07,0 2.564-2.623 5.129-5.247 7.693-7.871 1.883-1.926 1.972-5.156 0-7.07-2.712-2.634-5.424-5.268-8.137-7.9-2.404-2.335-6.07-1.688-7.853,1.012-1.565,2.371-3.501,4.408-5.845,6.024-5.271,3.634-.278,12.306 5.047,8.635 3.812-2.627 6.881-5.747 9.433-9.612-2.617,.338-5.235,.675-7.853,1.012 2.712,2.634 5.424,5.268 8.137,7.9 0-2.356 0-4.714 0-7.07-2.564,2.623-5.129,5.247-7.693,7.871 2.356,0 4.714,0 7.07,0-2.693-2.651-5.388-5.303-8.082-7.953-4.597-4.527-11.672,2.541-7.069,7.069z"/>
<path d="m217.084,248.658l-7.911-2.639c-.458,4.293 .165,8.576 1.726,12.486l6.865-4.389-.68-5.458z"/>
<path d="m218.413,243.837c-2.637-.88-5.274-1.759-7.911-2.639-3.314-1.105-6.058,1.769-6.329,4.821-.416,4.685 .236,9.418 1.904,13.815 1.093,2.881 4.414,4.861 7.345,2.988 2.289-1.463 4.577-2.926 6.865-4.389 1.357-.867 2.692-2.582 2.477-4.317-.227-1.819-.453-3.64-.68-5.459-.337-2.704-2.02-5-5-5-2.47,0-5.338,2.289-5,5 .227,1.819 .453,3.64 .68,5.459 .825-1.439 1.651-2.878 2.477-4.317-2.289,1.463-4.577,2.926-6.865,4.389 2.448,.996 4.896,1.992 7.345,2.988-1.397-3.685-1.896-7.23-1.547-11.157-2.109,1.607-4.22,3.214-6.329,4.821 2.637,.88 5.274,1.759 7.911,2.639 6.134,2.046 8.743-7.613 2.657-9.642z"/>
<path d="m223.654,263.264l-6.658,4.322c2.268,2.199 4.951,4.04 8.035,5.344 .83,.351 1.668,.655 2.512,.916l.805-7.708-4.694-2.874z"/>
<path d="m221.131,258.946c-2.22,1.44-4.439,2.882-6.658,4.322-2.625,1.704-3.448,5.552-1.012,7.853 3.685,3.479 7.931,5.99 12.753,7.546 3.356,1.083 6.009-1.756 6.329-4.821 .269-2.569 .536-5.139 .805-7.708 .18-1.726-1.087-3.466-2.477-4.317-1.564-.958-3.129-1.916-4.693-2.874-5.516-3.377-10.535,5.274-5.047,8.635 1.564,.958 3.129,1.916 4.693,2.874-.825-1.439-1.651-2.878-2.477-4.317-.269,2.569-.536,5.139-.805,7.708 2.109-1.607 4.22-3.214 6.329-4.821-3.155-1.019-5.933-2.7-8.341-4.974-.337,2.617-.674,5.235-1.012,7.853 2.22-1.44 4.439-2.882 6.658-4.322 5.388-3.499 .382-12.159-5.045-8.637z"/>
<path d="m248.309,249.412c-.624,16.975-25.688,16.975-26.313,0-.271-7.379 6.182-12.898 13.156-13.154 7.379-.272 12.9,6.179 13.157,13.154 .236,6.429 10.237,6.451 10,0-.476-12.937-10.221-22.679-23.156-23.154-12.926-.475-22.707,10.934-23.156,23.154-.476,12.927 10.935,22.708 23.156,23.157 12.928,.475 22.707-10.935 23.156-23.157 .237-6.451-9.764-6.429-10,0z"/>
</g>
</svg>
