<svg xmlns="http://www.w3.org/2000/svg" viewBox="20 20 321 321">
<g fill="#fff">
<path d="m80.833,130.417c0,45.143 0,90.286 0,135.429 0,.052 0,.103 0,.154 0,6.448 10,6.448 10,0 0-45.143 0-90.286 0-135.429 0-.051 0-.103 0-.154 0-6.449-10-6.449-10,0z"/>
<path d="m270.833,130.417c0,45.143 0,90.286 0,135.429 0,.052 0,.103 0,.154 0,6.448 10,6.448 10,0 0-45.143 0-90.286 0-135.429 0-.051 0-.103 0-.154 0-6.449-10-6.449-10,0z"/>
</g>
<path fill="none" stroke="#fff" stroke-width="10" d="m286.833,117.588c0,3.172-2.572,5.745-5.745,5.745h-199.801c-3.173,0-5.745-2.573-5.745-5.745v-9.575c0-3.173 2.572-5.745 5.745-5.745h199.801c3.173,0 5.745,2.572 5.745,5.745v9.575z"/>
<path fill="#fff" d="m272.459,146.407c-.113,.56 .604,.431-.631,.431-1.073,0-2.146,0-3.22,0-3.865,0-7.73,0-11.596,0-12.936,0-25.87,0-38.806,0-31.541,0-63.083,0-94.624,0-9.949,0-19.897,0-29.846,0-1.625,0-3.25,0-4.875,0 .841,0 .471-.918 .471-2.36 0-1.751 0-3.503 0-5.254 0-.228-.894-.052 .506-.052 21.638,0 43.275,0 64.912,0 27.778,0 55.555,0 83.333,0 9.18,0 18.358,0 27.538,0 2.121,0 4.243,0 6.364,0 1.195,0 .348,.125 .348-.354 0,2.84 0,5.68 0,8.521 0,4.514 7,4.514 7,0 0-5.256 1.51-15.167-6.528-15.167-1.625,0-3.25,0-4.875,0-9.949,0-19.897,0-29.847,0-31.541,0-63.082,0-94.623,0-18.209,0-36.418,0-54.627,0-8.118,0-7.23,11.861-6.139,17.265 .771,3.818 4.959,4.402 8.133,4.402 8.364,0 16.729,0 25.093,0 52.071,0 104.141,0 156.211,0 3.574,0 6.353-1.983 7.077-5.569 .891-4.409-5.855-6.286-6.749-1.863z"/>
</svg>
