<svg xmlns="http://www.w3.org/2000/svg" viewBox="20 20 321 321">
<path fill="none" stroke="#fff" stroke-width="10" d="m279.5,248.734c0,3.645-2.955,6.6-6.6,6.6h-184.8c-3.646,0-6.6-2.955-6.6-6.6v-118.8c0-3.645 2.955-6.6 6.6-6.6h184.8c3.645,0 6.6,2.956 6.6,6.6v118.8z"/>
<path fill="#fff" d="m174.945,194.178c3.935,0 7.87,0 11.805,0 6.448,0 6.448-10 0-10-3.935,0-7.87,0-11.805,0-6.448,0-6.448,10 0,10z"/>
<g stroke="#fff" stroke-width="10">
<path fill="none" d="m180.719,123.645 0,128.419"/>
<path fill="#fff" d="m286.666,124.713c0,.509-3.164,.922-7.066,.922h-197.867c-3.903,0-7.066-.414-7.066-.922v-16.593c0-.509 3.164-.922 7.066-.922h197.867c3.902,0 7.066,.414 7.066,.922v16.593z"/>
</g>
<path fill="#fff" d="m75,143.333c48.659,0 97.318,.001 145.976,.002 21.953,0 43.905,0 65.857,.001 6.448,0 6.448-10 0-10-48.659,0-97.317-.001-145.977-.002-21.952,0-43.905,0-65.857-.001-6.448,0-6.448,10 .001,10z"/>
</svg>
