<svg xmlns="http://www.w3.org/2000/svg" viewBox="20 20 321 321">
<g fill="#fff">
<path d="m254.279,241.441c0-7.839 0-15.679 0-23.518 0-4.717 0-9.435 0-14.151 0-4.062 .029-3.786 4.262-3.786 3.592,0 2.924,.556 2.924,3.979 0,4.77 0,9.54 0,14.311 0,7.722 0,15.444 0,23.166 0,4.514 7,4.514 7,0 0-9.628 0-19.256 0-28.884 0-4.085 0-8.17 0-12.256 0-5.635-5.262-7.315-9.924-7.315-4.99,0-11.262,.944-11.262,7.491 0,3.907 0,7.815 0,11.724 0,9.746 0,19.493 0,29.24 0,4.513 7,4.513 7-.001z"/>
<path d="m241.029,264.611c0-17.41-.761-34.986 .096-52.377 .083-1.703-.23-1.899 1.158-1.899 1.53,0 3.06,0 4.59,0 3.138,0 .406,.3 .406-1.67 0,.426 0,.851 0,1.276 0,4.608 0,9.217 0,13.825 0,9.341 0,18.682 0,28.022 0,4.514 7,4.514 7,0 0-10.579 0-21.157 0-31.736 0-3.836 0-7.672 0-11.508 0-6.559-9.839-5.706-14.153-5.085-6.638,.955-6.097,9.225-6.097,14.27 0,5.17 0,10.339 0,15.508 0,10.458 0,20.916 0,31.374 0,4.514 7,4.514 7,0z"/>
<path d="m268.465,249.08c0-7.706 0-15.411 0-23.117 0-4.991 0-9.981 0-14.972 0-1.372 0-2.745 0-4.117 0-.306 0-.611 0-.917 0,2.009-2.682,1.67 .572,1.67 1.134,0 2.268,0 3.402,0 1.072,0 1.807,1.667 1.807,.878 0,.961 0,1.923 0,2.884 0,4.636 0,9.272 0,13.908 0,7.928 0,15.855 0,23.783 0,4.514 7,4.514 7,0 0-9.523 0-19.048 0-28.571 0-3.97 0-7.938 0-11.908 0-6.226-6.35-7.974-11.283-7.974-4.254,0-8.498,.675-8.498,5.938 0,4.514 0,9.027 0,13.542 0,9.657 0,19.315 0,28.973 0,4.514 7,4.514 7,0z"/>
<path d="m281.246,253.996c0-10.19 0-20.382 0-30.572 0-1.636 0-3.271 0-4.906 0,.553-2.668,1.47 .174,1.47 .353,0 2.667-.113 2.719-.045 1.164,1.542 .551,5.814 .551,7.593 0,20.14 0,40.278 0,60.418 0,4.514 7,4.514 7,0 0-21.451 0-42.901 0-64.352 0-5.274-1.744-9.873-7.493-10.614-5.423-.699-9.95,.92-9.95,6.859 0,11.383 0,22.767 0,34.149-.001,4.514 6.999,4.514 6.999,0z"/>
<path d="m230.481,287.013c-3.43-13.311-6.858-26.621-10.288-39.932-.623-2.421-1.691-3.43 .974-4.214 .966-.284 4.328-1.591 4.608-.793 .414,1.177 .827,2.354 1.241,3.531 2.359,6.713 4.718,13.427 7.077,20.14 1.486,4.229 8.251,2.409 6.75-1.861-2.693-7.663-5.387-15.327-8.079-22.99-1.576-4.485-5.72-6.801-10.5-5.597-4.827,1.217-10.355,3.049-9.87,9.127 .572,7.174 3.696,14.792 5.483,21.73 1.951,7.573 3.902,15.146 5.854,22.72 1.126,4.368 7.877,2.514 6.75-1.861z"/>
</g>
<path fill="none" stroke="#fff" stroke-width="10" d="m239.025,187.957c0,2.912-2.361,5.271-5.271,5.271h-147.608c-2.912,0-5.271-2.358-5.271-5.271v-94.891c0-2.911 2.36-5.271 5.271-5.271h147.608c2.91,0 5.271,2.361 5.271,5.271v94.891z"/>
<path fill="#fff" d="m155.513,145.387c3.143,0 6.286,0 9.429,0 6.449,0 6.449-10 0-10-3.143,0-6.286,0-9.429,0-6.449,0-6.449,10 0,10z"/>
<path fill="none" stroke="#fff" stroke-width="10" d="m160.125,88.043 0,102.574"/>
<g fill="#fff">
<path stroke="#fff" stroke-width="10" d="m244.749,88.896c0,.407-2.526,.737-5.644,.737h-158.045c-3.117,0-5.644-.33-5.644-.737v-13.254c0-.407 2.527-.737 5.644-.737h158.045c3.117,0 5.644,.33 5.644,.737v13.254z"/>
<path d="m97.54,193.268c.001-35.944 .001-71.888 .002-107.832 0-4.514-7-4.514-7,0-.001,35.944-.001,71.888-.002,107.832 0,4.513 7,4.513 7,0z"/>
<path d="m112.225,193.268c.001-35.944 .001-71.888 .002-107.832 0-4.514-7-4.514-7,0-.001,35.944-.001,71.888-.002,107.832 0,4.513 7,4.513 7,0z"/>
<path d="m126.911,193.268c0-35.944 .001-71.888 .002-107.832 0-4.514-7-4.514-7,0 0,35.944-.001,71.888-.002,107.832 0,4.513 7,4.513 7,0z"/>
<path d="m141.595,193.268c.001-35.944 .001-71.888 .002-107.832 0-4.514-7-4.514-7,0-.001,35.944-.001,71.888-.002,107.832 0,4.513 7,4.513 7,0z"/>
<path d="m156.28,193.268c.001-35.944 .001-71.888 .002-107.832 0-4.514-7-4.514-7,0-.001,35.944-.001,71.888-.002,107.832 0,4.513 7,4.513 7,0z"/>
<path d="m170.966,193.268c.001-35.944 .001-71.888 .002-107.832 0-4.514-7-4.514-7,0-.001,35.944-.001,71.888-.002,107.832 0,4.513 7,4.513 7,0z"/>
<path d="m185.651,193.268c.001-35.944 .002-71.888 .003-107.832 0-4.514-7-4.514-7,0-.001,35.944-.002,71.888-.003,107.832 0,4.513 7,4.513 7,0z"/>
</g>
</svg>
