<svg xmlns="http://www.w3.org/2000/svg" viewBox="20 20 321 321">
<path fill="none" stroke="#fff" stroke-width="10" d="m267.826,263.303c0,3.91-3.156,7.082-7.05,7.082l-157.885,.021c-3.894,0-7.05-3.171-7.05-7.083v-157.5c0-3.911 3.156-7.083 7.05-7.083l157.885-.021c3.894,0 7.05,3.172 7.05,7.083v157.501z"/>
<path fill="#fff" d="m228.5,205.584c2.213,0 4.426,0 6.639,0 2.726,0 5-2.274 5-5s-2.274-5-5-5c-2.213,0-4.426,0-6.639,0-2.726,0-5,2.274-5,5s2.274,5 5,5z"/>
<path fill="none" stroke="#fff" stroke-width="10" d="m267.826,103.208c0,2.485-2.711,4.5-6.053,4.5l-159.88,.021c-3.342,0-6.052-2.015-6.052-4.5v-9c0-2.485 2.71-4.5 6.052-4.5l159.88-.021c3.342,0 6.053,2.015 6.053,4.5v9z"/>
<path fill="#fff" d="m232.826,280.905c-.339,3.356-18.813-.782-20.919-1.06-15.024-1.98-30.049-3.96-45.073-5.94-15.025-1.98-30.049-3.96-45.074-5.94-4.835-.638-9.671-1.275-14.507-1.912-1.456-.192-6.201-.055-6.412-2.147-.621-6.157 0-12.699 0-18.878 0-14.5 0-29 0-43.5 0-27.359 0-54.718 0-82.076 0-1.71 0-3.42 0-5.13 0-2.551 5.184-1.015 6.412-.853 11.813,1.557 23.625,3.114 35.438,4.67 27.908,3.678 55.816,7.356 83.723,11.035 1.457,.192 6.201,.055 6.412,2.147 .169,1.673 0,3.451 0,5.13 0,11.217 0,22.434 0,33.651 0,30.642 0,61.283 0,91.925 0,6.293 0,12.585 0,18.878 0,6.448 10,6.448 10,0 0-48.151 0-96.303 0-144.454 0-1.71 0-3.42 0-5.13 0-7.619-6.137-10.793-12.673-11.655-9.511-1.253-19.021-2.507-28.531-3.76-29.47-3.884-58.94-7.768-88.411-11.652-3.299-.435-6.598-.87-9.897-1.304-6.555-.864-12.473,4.9-12.473,11.38 0,6.521 0,13.042 0,19.563 0,30.705 0,61.41 0,92.115 0,11.052 0,22.104 0,33.154 0,2.023-.071,4.04 .132,6.053 .717,7.111 6.606,9.563 12.759,10.374 25.609,3.375 51.218,6.75 76.827,10.125 13.299,1.753 26.598,3.506 39.896,5.259 3.232,.426 6.465,.852 9.697,1.278 7.063,.931 12.011-4.778 12.673-11.346 .648-6.415-9.358-6.352-9.999,0z"/>
</svg>
