<svg xmlns="http://www.w3.org/2000/svg" viewBox="20 20 321 321">
<g fill="#fff">
<path d="m80.833,130.417c0,45.143 0,90.286 0,135.429 0,.052 0,.103 0,.154 0,6.448 10,6.448 10,0 0-45.143 0-90.286 0-135.429 0-.051 0-.103 0-.154 0-6.449-10-6.449-10,0z"/>
<path d="m270.833,130.417c0,45.143 0,90.286 0,135.429 0,.052 0,.103 0,.154 0,6.448 10,6.448 10,0 0-45.143 0-90.286 0-135.429 0-.051 0-.103 0-.154 0-6.449-10-6.449-10,0z"/>
</g>
<path fill="none" stroke="#fff" stroke-width="10" d="m286.833,117.588c0,3.172-2.572,5.745-5.745,5.745h-199.801c-3.173,0-5.745-2.573-5.745-5.745v-9.575c0-3.173 2.572-5.745 5.745-5.745h199.801c3.173,0 5.745,2.572 5.745,5.745v9.575z"/>
<g fill="#fff">
<path d="m272.459,145.736c-.33,1.658 .979,1.431-.631,1.431-1.073,0-2.146,0-3.22,0-3.865,0-7.73,0-11.596,0-12.936,0-25.87,0-38.806,0-31.541,0-63.083,0-94.624,0-9.949,0-19.897,0-29.846,0-1.625,0-3.25,0-4.875,0 .916,0 .471-7.707 .471-8.614 0-.934-2.839,.948-.436,.948 .212,0 .425,0 .638,0 21.101,0 42.201,0 63.302,0 28.416,0 56.832,0 85.247,0 9.317,0 18.634,0 27.95,0 2.077,0 4.153,0 6.229,0 .152,0 .305,0 .456,0 2.403,0-.386-.254-.386-1.354 0,2.84 0,5.68 0,8.521 0,4.514 7,4.514 7,0 0-6.1 1.498-14.167-6.528-14.167-1.625,0-3.25,0-4.875,0-9.949,0-19.897,0-29.847,0-31.541,0-63.082,0-94.623,0-12.936,0-25.871,0-38.806,0-4.82,0-11.462,1.13-16.059-.217-7.915-2.32-6.705,12.467-5.902,16.498 .77,3.865 4.732,5.386 8.133,5.386 8.364,0 16.729,0 25.093,0 52.071,0 104.141,0 156.211,0 3.563,0 6.415-3.249 7.077-6.569 .882-4.41-5.865-6.288-6.747-1.863z"/>
<path d="m272.459,160.271c-.33,1.658 .979,1.431-.631,1.431-1.073,0-2.146,0-3.22,0-3.865,0-7.73,0-11.596,0-12.936,0-25.87,0-38.806,0-31.541,0-63.083,0-94.624,0-9.949,0-19.897,0-29.846,0-1.625,0-3.25,0-4.875,0 .916,0 .471-7.707 .471-8.614 0-.934-2.839,.948-.436,.948 .212,0 .425,0 .638,0 21.101,0 42.201,0 63.302,0 28.416,0 56.832,0 85.247,0 9.317,0 18.634,0 27.95,0 2.077,0 4.153,0 6.229,0 .152,0 .305,0 .456,0 2.403,0-.386-.254-.386-1.354 0,2.84 0,5.68 0,8.521 0,4.514 7,4.514 7,0 0-6.1 1.498-14.167-6.528-14.167-1.625,0-3.25,0-4.875,0-9.949,0-19.897,0-29.847,0-31.541,0-63.082,0-94.623,0-12.936,0-25.871,0-38.806,0-4.82,0-11.462,1.13-16.059-.217-7.915-2.32-6.705,12.467-5.902,16.498 .77,3.865 4.732,5.386 8.133,5.386 8.364,0 16.729,0 25.093,0 52.071,0 104.141,0 156.211,0 3.563,0 6.415-3.249 7.077-6.569 .882-4.41-5.865-6.288-6.747-1.863z"/>
<path d="m272.459,174.937c-.33,1.658 .979,1.431-.631,1.431-1.073,0-2.146,0-3.22,0-3.865,0-7.73,0-11.596,0-12.936,0-25.87,0-38.806,0-31.541,0-63.083,0-94.624,0-9.949,0-19.897,0-29.846,0-1.625,0-3.25,0-4.875,0 .916,0 .471-7.707 .471-8.614 0-.934-2.839,.948-.436,.948 .212,0 .425,0 .638,0 21.101,0 42.201,0 63.302,0 28.416,0 56.832,0 85.247,0 9.317,0 18.634,0 27.95,0 2.077,0 4.153,0 6.229,0 .152,0 .305,0 .456,0 2.403,0-.386-.254-.386-1.354 0,2.84 0,5.68 0,8.521 0,4.514 7,4.514 7,0 0-6.1 1.498-14.167-6.528-14.167-1.625,0-3.25,0-4.875,0-9.949,0-19.897,0-29.847,0-31.541,0-63.082,0-94.623,0-12.936,0-25.871,0-38.806,0-4.82,0-11.462,1.13-16.059-.217-7.915-2.32-6.705,12.467-5.902,16.498 .77,3.865 4.732,5.386 8.133,5.386 8.364,0 16.729,0 25.093,0 52.071,0 104.141,0 156.211,0 3.563,0 6.415-3.248 7.077-6.569 .882-4.41-5.865-6.288-6.747-1.863z"/>
<path d="m272.459,189.604c-.33,1.658 .979,1.431-.631,1.431-1.073,0-2.146,0-3.22,0-3.865,0-7.73,0-11.596,0-12.936,0-25.87,0-38.806,0-31.541,0-63.083,0-94.624,0-9.949,0-19.897,0-29.846,0-1.625,0-3.25,0-4.875,0 .916,0 .471-7.308 .471-8.144 0-1.999-2.613,.477-.471,.477 .18,0 .361,0 .542,0 20.827,0 41.654,0 62.481,0 28.733,0 57.467,0 86.199,0 9.451,0 18.901,0 28.353,0 1.981,0 3.964,0 5.946,0 .129,0 .258,0 .387,0 2.412,0-.436-1.771-.436-1.02 0,2.729 0,5.458 0,8.187 0,4.514 7,4.514 7,0 0-6.063 1.501-14.167-6.507-14.167-1.518,0-3.035,0-4.552,0-9.798,0-19.597,0-29.395,0-31.499,0-62.999,0-94.499,0-18.514,0-37.028,0-55.542,0-8.008,0-6.507,8.103-6.507,14.167 0,4.411 3.992,7.5 8.06,7.5 8.027,0 16.054,0 24.08,0 52.452,0 104.903,0 157.354,0 3.696,0 6.672-3.012 7.381-6.569 .881-4.409-5.865-6.287-6.747-1.862z"/>
<path d="m272.459,203.941c-.33,1.658 .979,1.431-.631,1.431-1.073,0-2.146,0-3.22,0-3.865,0-7.73,0-11.596,0-12.936,0-25.87,0-38.806,0-31.541,0-63.083,0-94.624,0-9.949,0-19.897,0-29.846,0-1.625,0-3.25,0-4.875,0 .916,0 .471-7.308 .471-8.144 0-1.998-2.613,.477-.471,.477 .18,0 .361,0 .542,0 20.827,0 41.654,0 62.481,0 28.733,0 57.467,0 86.199,0 9.451,0 18.901,0 28.353,0 1.981,0 3.964,0 5.946,0 .129,0 .258,0 .387,0 2.412,0-.436-1.771-.436-1.02 0,2.729 0,5.458 0,8.187 0,4.514 7,4.514 7,0 0-6.063 1.501-14.167-6.507-14.167-1.518,0-3.035,0-4.552,0-9.798,0-19.597,0-29.395,0-31.499,0-62.999,0-94.499,0-18.514,0-37.028,0-55.542,0-8.008,0-6.507,8.104-6.507,14.167 0,4.411 3.992,7.5 8.06,7.5 8.027,0 16.054,0 24.08,0 52.452,0 104.903,0 157.354,0 3.696,0 6.672-3.012 7.381-6.569 .881-4.408-5.865-6.286-6.747-1.862z"/>
<path d="m272.459,218.608c-.33,1.658 .979,1.431-.631,1.431-1.073,0-2.146,0-3.22,0-3.865,0-7.73,0-11.596,0-12.936,0-25.87,0-38.806,0-31.541,0-63.083,0-94.624,0-9.949,0-19.897,0-29.846,0-1.625,0-3.25,0-4.875,0 .916,0 .471-7.308 .471-8.144 0-1.998-2.613,.477-.471,.477 .18,0 .361,0 .542,0 20.827,0 41.654,0 62.481,0 28.733,0 57.467,0 86.199,0 9.451,0 18.901,0 28.353,0 1.981,0 3.964,0 5.946,0 .129,0 .258,0 .387,0 2.412,0-.436-1.771-.436-1.02 0,2.729 0,5.458 0,8.187 0,4.514 7,4.514 7,0 0-6.063 1.501-14.167-6.507-14.167-1.518,0-3.035,0-4.552,0-9.798,0-19.597,0-29.395,0-31.499,0-62.999,0-94.499,0-18.514,0-37.028,0-55.542,0-8.008,0-6.507,8.104-6.507,14.167 0,4.41 3.992,7.5 8.06,7.5 8.027,0 16.054,0 24.08,0 52.452,0 104.903,0 157.354,0 3.696,0 6.672-3.012 7.381-6.569 .882-4.408-5.865-6.286-6.747-1.862z"/>
<path d="m272.459,233.274c-.33,1.658 .979,1.431-.631,1.431-1.073,0-2.146,0-3.22,0-3.865,0-7.73,0-11.596,0-12.936,0-25.87,0-38.806,0-31.541,0-63.083,0-94.624,0-9.949,0-19.897,0-29.846,0-1.625,0-3.25,0-4.875,0 .916,0 .471-7.706 .471-8.614 0-.933-2.839,.948-.436,.948 .212,0 .425,0 .638,0 21.101,0 42.201,0 63.302,0 28.416,0 56.832,0 85.247,0 9.317,0 18.634,0 27.95,0 2.077,0 4.153,0 6.229,0 .152,0 .305,0 .456,0 2.403,0-.386-.254-.386-1.354 0,2.841 0,5.681 0,8.521 0,4.514 7,4.514 7,0 0-6.1 1.498-14.166-6.528-14.166-1.625,0-3.25,0-4.875,0-9.949,0-19.897,0-29.847,0-31.541,0-63.082,0-94.623,0-12.936,0-25.871,0-38.806,0-4.82,0-11.463,1.13-16.059-.218-7.914-2.32-6.705,12.468-5.902,16.497 .77,3.865 4.731,5.387 8.133,5.387 8.364,0 16.729,0 25.093,0 52.071,0 104.141,0 156.211,0 3.563,0 6.415-3.249 7.077-6.569 .882-4.409-5.865-6.287-6.747-1.863z"/>
<path d="m272.459,247.858c-.33,1.658 .979,1.431-.631,1.431-1.073,0-2.146,0-3.22,0-3.865,0-7.73,0-11.596,0-12.936,0-25.87,0-38.806,0-31.541,0-63.083,0-94.624,0-9.949,0-19.897,0-29.846,0-1.625,0-3.25,0-4.875,0 .916,0 .471-7.706 .471-8.614 0-.933-2.839,.948-.436,.948 .212,0 .425,0 .638,0 21.101,0 42.201,0 63.302,0 28.416,0 56.832,0 85.247,0 9.317,0 18.634,0 27.95,0 2.077,0 4.153,0 6.229,0 .152,0 .305,0 .456,0 2.403,0-.386-.254-.386-1.354 0,2.841 0,5.681 0,8.521 0,4.514 7,4.514 7,0 0-6.1 1.498-14.166-6.528-14.166-1.625,0-3.25,0-4.875,0-9.949,0-19.897,0-29.847,0-31.541,0-63.082,0-94.623,0-12.936,0-25.871,0-38.806,0-4.82,0-11.463,1.13-16.059-.218-7.914-2.32-6.705,12.468-5.902,16.497 .77,3.865 4.731,5.387 8.133,5.387 8.364,0 16.729,0 25.093,0 52.071,0 104.141,0 156.211,0 3.563,0 6.415-3.249 7.077-6.569 .882-4.409-5.865-6.287-6.747-1.863z"/>
<path d="m85.833,139.5c49.793,0 99.586,0 149.379,0 13.541,0 27.081,0 40.621,0 4.514,0 4.514-7 0-7-49.793,0-99.586,0-149.379,0-13.54,0-27.081,0-40.621,0-4.514,0-4.514,7 0,7z"/>
<path d="m238.208,217.705c3.583,0 7.167,0 10.75,0 1.935,0 1.935-3 0-3-3.583,0-7.167,0-10.75,0-1.935,0-1.935,3 0,3z"/>
<path d="m251.208,219.608c-.122,.605 .261,.431-1.003,.431-1.453,0-2.907,0-4.36,0-3.464,0-6.928,0-10.392,0-1.164,0-2.328,0-3.492,0-.381,0-.762,0-1.143,0-.33,0 .265,.811 .265,.02 0-2.687 0-5.373 0-8.061 0,.574-.47,.374 .878,.374 1.453,0 2.907,0 4.36,0 3.464,0 6.928,0 10.392,0 1.164,0 2.328,0 3.492,0 .381,0 .762,0 1.143,0 .33,0-.265-.811-.265-.02 0,2.729 0,5.458 0,8.187 0,4.514 7,4.514 7,0 0-3.562 .347-7.261-.36-10.766-.888-4.397-5.985-4.401-9.421-4.401-4.813,0-9.625,0-14.438,0-4.333,0-8.618,.428-9.656,5.569-.618,3.064-.618,7.464 0,10.528 1.038,5.141 5.323,5.569 9.656,5.569 4.813,0 9.625,0 14.438,0 4.333,0 8.618-.429 9.656-5.569 .89-4.406-5.857-6.283-6.75-1.861z"/>
</g>
</svg>
