<svg xmlns="http://www.w3.org/2000/svg" viewBox="20 20 321 321">
<path fill="none" stroke="#fff" stroke-width="10" d="m90.708,118.978c0,2.245 1.82,4.064 4.064,4.064h23.371c2.245,0 4.064-1.82 4.064-4.064v-23.372c0-2.245-1.82-4.064-4.064-4.064h-23.371c-2.245,0-4.064,1.82-4.064,4.064v23.372z"/>
<g fill="#fff">
<path d="m137.797,71.131c-2.406,2.407-4.813,4.813-7.219,7.219-1.926,1.926-1.926,5.145 0,7.071s5.145,1.926 7.071,0c2.406-2.407 4.813-4.813 7.219-7.219 1.926-1.926 1.926-5.145 0-7.071s-5.145-1.926-7.071,0z"/>
<path d="m175.708,102.042c-11.167,0-22.333,0-33.5,0-6.449,0-6.449,10 0,10 11.167,0 22.333,0 33.5,0 6.448,0 6.448-10 0-10z"/>
<path d="m78.369,143.702c1.99-1.99 3.979-3.979 5.969-5.969 1.926-1.926 1.926-5.145 0-7.071s-5.145-1.926-7.071,0c-1.99,1.99-3.979,3.979-5.969,5.969-1.926,1.926-1.926,5.145 0,7.071s5.144,1.926 7.071,0z"/>
<path d="m111.958,175.792c0-11.167 0-22.333 0-33.5 0-6.449-10-6.449-10,0 0,11.167 0,22.333 0,33.5 0,6.448 10,6.448 10,0z"/>
<path d="m160.337,154.351c-7.896-7.896-15.792-15.792-23.688-23.688-4.564-4.563-11.635,2.507-7.071,7.071 7.896,7.896 15.792,15.792 23.688,23.688 4.564,4.563 11.635-2.507 7.071-7.071z"/>
<path d="m210.481,133.667c0,10.087 0,20.175 0,30.262 0,1.935 3,1.935 3,0 0-10.087 0-20.175 0-30.262 0-1.935-3-1.935-3,0z"/>
<path d="m210.6,192.771c0,12.013 0,24.026 0,36.039 0,1.935 3,1.935 3,0 0-12.013 0-24.026 0-36.039 0-1.934-3-1.934-3-0z"/>
<path d="m210.6,258.969c0,10.008 0,20.016 0,30.023 0,1.935 3,1.935 3,0 0-10.008 0-20.016 0-30.023 0-1.935-3-1.935-3,0z"/>
<path d="m199.035,182.818c7.883,.08 15.767,.16 23.649,.24 6.451,.066 6.444-9.934 0-10-7.883-.081-15.767-.161-23.649-.241-6.451-.065-6.445,9.935 0,10.001z"/>
<path d="m225.92,182.391c20.865-13.75 41.729-27.5 62.594-41.25 5.358-3.531 .355-12.195-5.047-8.635-20.865,13.75-41.729,27.5-62.594,41.25-5.358,3.531-.355,12.194 5.047,8.635z"/>
<path d="m138.965,223.386c20.865-13.75 41.729-27.5 62.593-41.251 5.358-3.531 .355-12.194-5.047-8.634-20.865,13.75-41.729,27.5-62.593,41.25-5.358,3.531-.355,12.195 5.047,8.635z"/>
<path d="m137.082,217.02c-.802,.505-1.604,1.009-2.407,1.513-1.612,1.014-2.243,3.104-1.255,4.789 .94,1.605 3.172,2.271 4.789,1.256 .802-.505 1.604-1.009 2.407-1.513 1.612-1.014 2.243-3.104 1.255-4.789-.94-1.606-3.172-2.272-4.789-1.256z"/>
<path d="m286.224,135.327c-.788,.527-1.575,1.054-2.363,1.581-1.582,1.058-2.264,3.067-1.256,4.789 .92,1.57 3.201,2.317 4.789,1.255 .788-.527 1.575-1.054 2.363-1.581 1.582-1.058 2.264-3.067 1.256-4.789-.92-1.57-3.201-2.317-4.789-1.255z"/>
<path d="m198.92,249.239c7.883,.08 15.766,.161 23.648,.241 6.451,.065 6.445-9.935 0-10-7.883-.08-15.766-.161-23.648-.241-6.451-.065-6.445,9.935 0,10z"/>
<path d="m225.805,248.812c20.865-13.75 41.729-27.5 62.594-41.25 5.358-3.531 .355-12.194-5.047-8.635-20.865,13.75-41.729,27.5-62.594,41.25-5.359,3.531-.356,12.194 5.047,8.635z"/>
<path d="m138.849,289.808c20.865-13.75 41.729-27.501 62.594-41.251 5.358-3.531 .355-12.195-5.047-8.635-20.865,13.75-41.729,27.501-62.594,41.251-5.358,3.531-.355,12.194 5.047,8.635z"/>
<path d="m136.966,283.44c-.802,.505-1.604,1.01-2.407,1.514-1.612,1.014-2.243,3.103-1.255,4.789 .94,1.604 3.172,2.272 4.789,1.256 .802-.505 1.604-1.01 2.407-1.514 1.612-1.014 2.243-3.103 1.255-4.789-.941-1.604-3.173-2.272-4.789-1.256z"/>
<path d="m286.108,201.747c-.788,.527-1.575,1.055-2.363,1.581-1.582,1.059-2.264,3.067-1.256,4.789 .92,1.57 3.201,2.317 4.789,1.256 .788-.527 1.575-1.055 2.363-1.581 1.582-1.059 2.264-3.067 1.256-4.789-.919-1.57-3.201-2.317-4.789-1.256z"/>
</g>
</svg>
