<svg xmlns="http://www.w3.org/2000/svg" viewBox="20 20 321 321">
<path fill="none" stroke="#fff" stroke-width="10" d="m201.967,246.192c-1.693,3.632-5.998,6.577-9.614,6.577l-90.915,.019c-3.616,0-5.174-2.945-3.479-6.578l59.546-127.698c1.694-3.632 6-6.578 9.615-6.578l90.915-.02c3.616,0 5.174,2.946 3.479,6.579l-59.547,127.699z"/>
<path fill="#fff" d="m146.288,240.305c-.958,2.055-1.917,4.11-2.876,6.166-1.152,2.47-.717,5.37 1.794,6.841 2.186,1.28 5.689,.676 6.841-1.794 .958-2.055 1.917-4.11 2.876-6.166 1.152-2.47 .717-5.37-1.794-6.841-2.186-1.281-5.689-.676-6.841,1.794z"/>
<path fill="none" stroke="#fff" stroke-width="10" d="m207.744,264.139c-2.091,4.48-7.4,8.113-11.861,8.113l-115.944,.023c-4.461,0-6.383-3.633-4.293-8.115l77.917-167.094c2.089-4.48 7.4-8.115 11.861-8.115l115.945-.023c4.459,0 6.381,3.634 4.292,8.115l-77.917,167.096z"/>
<g fill="#fff">
<path d="m277.924,104.261-127.503,0 8.769-17.246 127.503,0z"/>
<path d="m76.381,262.584h127.455v6.432h-127.455z"/>
<path d="m244.031,120.492c-25.041,0-50.082,0-75.123,0-6.449,0-6.449,10 0,10 25.041,0 50.082,0 75.123,0 6.448-0 6.448-10 0-10z"/>
<path d="m238.115,133.083c-25.041,0-50.082,0-75.123,0-6.449,0-6.449,10 0,10 25.041,0 50.082,0 75.123,0 6.448,0 6.448-10 0-10z"/>
<path d="m232.031,145.673c-25.041,0-50.082,0-75.123,0-6.449,0-6.449,10 0,10 25.041,0 50.082,0 75.123,0 6.448,0 6.448-10 0-10z"/>
<path d="m226.031,158.265c-25.041,0-50.082,0-75.123,0-6.449,0-6.449,10 0,10 25.041,0 50.082,0 75.123,0 6.448,0 6.448-10 0-10z"/>
<path d="m220.635,170.855c-25.041,0-50.083,0-75.124,0-6.449,0-6.449,10 0,10 25.041,0 50.083,0 75.124,0 6.448,0 6.448-10 0-10z"/>
<path d="m214.719,183.446c-25.041,0-50.083,0-75.124,0-6.449,0-6.449,10 0,10 25.041,0 50.083,0 75.124,0 6.448,0 6.448-10 0-10z"/>
<path d="m208.635,196.037c-25.041,0-50.083,0-75.124,0-6.449,0-6.449,10 0,10 25.041,0 50.083,0 75.124,0 6.448,0 6.448-10 0-10z"/>
<path d="m202.635,208.629c-25.041,0-50.083,0-75.124,0-6.449,0-6.449,10 0,10 25.041,0 50.083,0 75.124,0 6.448,0 6.448-10 0-10z"/>
</g>
</svg>
