<svg xmlns="http://www.w3.org/2000/svg" viewBox="20 20 321 321">
<path fill="none" stroke="#fff" stroke-width="10" d="m232.836,280.912c0,3.406-2.713,6.168-6.059,6.168h-92.89c-3.346,0-6.058-2.762-6.058-6.168v-200.096c0-3.406 2.712-6.167 6.058-6.167h92.89c3.346,0 6.059,2.761 6.059,6.167v200.096z"/>
<path fill="#fff" d="m129.83,185.667c3.333,0 6.667,0 10,0 6.449,0 6.449-10 0-10-3.333,0-6.667,0-10,0-6.449,0-6.449,10 0,10z"/>
<path fill="none" stroke="#fff" stroke-width="10" d="m231.163,280c0-3.313-2.687-6-6-6h-91.333c-3.313,0-6,2.687-6,6v.667c0,3.313 2.687,6 6,6h91.333c3.313,0 6-2.687 6-6v-.667z"/>
</svg>
