<svg xmlns="http://www.w3.org/2000/svg" viewBox="20 20 321 321">
<g fill="#fff">
<path d="m178.833,70.667c0,14.222 0,28.445 0,42.667 0,1.935 3,1.935 3,0 0-14.222 0-28.445 0-42.667 0-1.935-3-1.935-3,0z"/>
<path d="m179,154c0,16.938 0,33.876 0,50.814 0,1.935 3,1.935 3,0 0-16.938 0-33.876 0-50.814 0-1.934-3-1.934-3,0z"/>
<path d="m179,247.334c0,14.111 0,28.222 0,42.333 0,1.935 3,1.935 3,0 0-14.111 0-28.222 0-42.333 0-1.935-3-1.935-3-0z"/>
<path d="m79.428,288.951c13.341-14.04 26.402-28.536 42.876-39.002 9.174-5.828 19.155-10.057 29.564-13.117 13.046-3.837 26.421-4.83 39.799-6.824 20.312-3.029 40.403-9.875 57.429-21.516 9.379-6.412 17.227-14.275 24.508-22.923 .856-1.018 1.709-2.07 2.72-2.941-.98,.845-2.405,1.392-4.663,.308-1.793-.86-2.119-3.923-1.267,.045 2.118,9.867 2.515,28.887 15.976,29.893 6.437,.48 6.39-9.522 0-10-6.313-.472-2.304-39.26-17.117-27.316-2.262,1.823-4.006,4.5-5.888,6.688-3.554,4.13-7.383,8.001-11.496,11.575-13.656,11.867-30.619,19.211-48.022,23.596-13.099,3.301-26.552,3.958-39.809,6.316-11.68,2.078-22.998,5.626-33.791,10.539-23.289,10.601-40.58,29.393-57.889,47.609-4.44,4.671 2.621,11.754 7.07,7.07z"/>
<path d="m75.977,279.559c-.945,.945-1.89,1.89-2.835,2.835-2.102,2.102-2.102,5.611 0,7.713 2.101,2.102 5.612,2.102 7.713,0 .945-.945 1.89-1.89 2.835-2.835 2.102-2.102 2.102-5.611 0-7.713-2.102-2.102-5.612-2.102-7.713,0z"/>
<path d="m286.369,204.673c-1.336-.029-2.672-.059-4.008-.089-2.29-.051-4.2,1.949-4.2,4.2 0,2.328 1.912,4.149 4.2,4.2 1.336,.029 2.672,.059 4.008,.089 2.29,.051 4.2-1.949 4.2-4.2 0-2.328-1.912-4.149-4.2-4.2z"/>
<path d="m80.369,194.788c13.341-14.039 26.402-28.535 42.876-39.001 9.174-5.829 19.155-10.057 29.564-13.118 13.046-3.837 26.421-4.83 39.799-6.824 20.312-3.029 40.403-9.875 57.429-21.516 9.379-6.412 17.227-14.275 24.508-22.923 .856-1.017 1.709-2.071 2.72-2.942-.98,.845-2.405,1.393-4.663,.309-1.793-.861-2.119-3.923-1.267,.045 2.118,9.866 2.514,28.887 15.975,29.893 6.437,.481 6.39-9.522 0-10-6.312-.472-2.303-39.26-17.116-27.317-2.262,1.823-4.006,4.5-5.888,6.688-3.554,4.131-7.383,8.001-11.496,11.576-13.656,11.867-30.619,19.211-48.022,23.596-13.099,3.3-26.552,3.957-39.809,6.316-11.68,2.079-22.998,5.626-33.791,10.539-23.288,10.601-40.58,29.393-57.889,47.609-4.441,4.671 2.619,11.754 7.07,7.07z"/>
<path d="m76.917,185.396c-.945,.945-1.89,1.89-2.835,2.835-2.102,2.102-2.102,5.611 0,7.713 2.101,2.102 5.612,2.102 7.713,0 .945-.945 1.89-1.89 2.835-2.835 2.102-2.102 2.102-5.611 0-7.713-2.101-2.102-5.612-2.102-7.713,0z"/>
<path d="m287.309,110.511c-1.336-.03-2.672-.06-4.008-.089-2.29-.051-4.2,1.949-4.2,4.2 0,2.328 1.912,4.149 4.2,4.2 1.336,.03 2.672,.06 4.008,.089 2.29,.051 4.2-1.949 4.2-4.2 0-2.328-1.912-4.149-4.2-4.2z"/>
</g>
</svg>
