<svg xmlns="http://www.w3.org/2000/svg" viewBox="20 20 321 321">
<path fill="none" stroke="#fff" stroke-width="10" d="m181.148,212.418c-3.23,1.883-8.786,3.408-12.406,3.408l-91.04,.01c-3.621,0-3.935-1.525-.704-3.408l113.591-66.168c3.23-1.882 8.787-3.409 12.407-3.409l61.312-.008-13.529,29.015-69.631,40.56z"/>
<path fill="#fff" d="m128.62,206.358c-1.829,1.064-3.657,2.129-5.485,3.193-2.352,1.369-3.169,4.493-1.794,6.841 1.378,2.353 4.485,3.166 6.841,1.794 1.829-1.064 3.657-2.129 5.485-3.193 2.352-1.369 3.169-4.493 1.794-6.841-1.378-2.352-4.485-3.166-6.841-1.794z"/>
<path fill="none" stroke="#fff" stroke-width="10" d="m207.642,264.366c-2.093,4.487-7.409,8.124-11.876,8.124l-116.093,.023c-4.467,0-6.391-3.639-4.299-8.125l78.017-167.31c2.092-4.486 7.411-8.125 11.876-8.125l116.094-.023c4.466,0 6.39,3.639 4.299,8.125l-78.018,167.311z"/>
<g fill="#fff">
<path d="m277.912,104.284-127.667,0 8.781-17.269 127.667,0z"/>
<path d="m76.11,262.81h127.618v6.44h-127.618z"/>
</g>
</svg>
