<svg xmlns="http://www.w3.org/2000/svg" viewBox="20 20 321 321">
<path fill="none" stroke="#fff" stroke-width="10" d="m284.333,232.167c0,3.313-2.687,6-6,6h-195c-3.313,0-6-2.687-6-6v-23c0-3.313 2.687-6 6-6h195c3.313,0 6,2.687 6,6v23z"/>
<g fill="#fff">
<path d="m90.833,248.667c10,0 20,0 30,0 6.449,0 6.449-10 0-10-10,0-20,0-30,0-6.449,0-6.449,10 0,10z"/>
<path d="m239.833,248.667c10,0 20,0 30,0 6.448,0 6.448-10 0-10-10,0-20,0-30,0-6.448,0-6.448,10 0,10z"/>
<path d="m88.012,107.996c6.667,30.333 13.333,60.667 20,91 1.384,6.298 11.024,3.626 9.643-2.658-6.667-30.333-13.333-60.667-20-91-1.384-6.297-11.025-3.627-9.643,2.658z"/>
<path d="m120.854,198.36c.615,2.798-1.51,5.642-4.746,6.354l-3.418,.751c-3.236,.712-6.358-.979-6.974-3.775l-6.96-31.657c-.615-2.797 1.51-5.641 4.746-6.353l3.418-.751c3.236-.711 6.358,.979 6.974,3.776l6.96,31.655z"/>
<path d="m265.139,105.338c-6.667,30.333-13.333,60.667-20,91-1.382,6.284 8.259,8.956 9.643,2.658 6.667-30.333 13.333-60.667 20-91 1.38-6.285-8.26-8.955-9.643-2.658z"/>
<path d="m241.939,198.36c-.615,2.798 1.51,5.642 4.746,6.354l3.418,.751c3.236,.712 6.359-.979 6.975-3.775l6.96-31.657c.614-2.797-1.51-5.641-4.746-6.353l-3.419-.751c-3.236-.711-6.357,.979-6.973,3.776l-6.961,31.655z"/>
<path d="m105.083,225.167c1.5,0 3,0 4.5,0 2.726,0 5-2.274 5-5s-2.274-5-5-5c-1.5,0-3,0-4.5,0-2.726,0-5,2.274-5,5s2.274,5 5,5z"/>
<path d="m197.083,226.167c1.5,0 3,0 4.5,0 2.726,0 5-2.274 5-5s-2.274-5-5-5c-1.5,0-3,0-4.5,0-2.726,0-5,2.274-5,5s2.274,5 5,5z"/>
<path d="m216.083,226.167c1.5,0 3,0 4.5,0 2.726,0 5-2.274 5-5s-2.274-5-5-5c-1.5,0-3,0-4.5,0-2.726,0-5,2.274-5,5s2.274,5 5,5z"/>
<path d="m236.083,226.167c1.5,0 3,0 4.5,0 2.726,0 5-2.274 5-5s-2.274-5-5-5c-1.5,0-3,0-4.5,0-2.726,0-5,2.274-5,5s2.274,5 5,5z"/>
<path d="m256.083,226.167c1.5,0 3,0 4.5,0 2.726,0 5-2.274 5-5s-2.274-5-5-5c-1.5,0-3,0-4.5,0-2.726,0-5,2.274-5,5s2.274,5 5,5z"/>
</g>
</svg>
