<svg xmlns="http://www.w3.org/2000/svg" viewBox="20 20 321 321">
<path fill="none" stroke="#fff" stroke-width="10" d="m287.333,218.667c0,3.313-2.687,6-6,6h-201c-3.313,0-6-2.687-6-6v-77.5c0-3.313 2.687-6 6-6h201c3.313,0 6,2.687 6,6v77.5z"/>
<g fill="#fff">
<path d="m87.642,154.243c.084,17.263 .169,34.525 .254,51.788 .032,6.447 10.032,6.45 10,0-.084-17.263-.169-34.525-.254-51.788-.032-6.447-10.032-6.45-10,0z"/>
<path d="m263.642,154.243c.085,17.263 .169,34.525 .254,51.788 .031,6.447 10.031,6.45 10,0-.085-17.263-.169-34.525-.254-51.788-.032-6.447-10.032-6.45-10,0z"/>
<path d="m165.241,203.877c0,2.243-1.818,4.062-4.062,4.062-2.244,0-4.062-1.818-4.062-4.062 0-2.244 1.818-4.063 4.062-4.063 2.243-0 4.062,1.819 4.062,4.063z"/>
<path d="m165.241,190.877c0,2.243-1.818,4.062-4.062,4.062-2.244,0-4.062-1.818-4.062-4.062 0-2.244 1.818-4.063 4.062-4.063 2.243-0 4.062,1.819 4.062,4.063z"/>
</g>
<path fill="none" stroke="#fff" stroke-width="5" d="m165.037,177.323c0,2.241-1.817,4.059-4.059,4.059h-.641c-2.241,0-4.059-1.817-4.059-4.059v-3.561c0-2.241 1.817-4.059 4.059-4.059h.641c2.241,0 4.059,1.817 4.059,4.059v3.561z"/>
<g fill="#fff">
<path d="m257.833,170.579c0,4.466-3.003,8.088-6.704,8.088h-65.927c-3.703,0-6.705-3.623-6.705-8.088v-7.192c0-4.466 3.001-8.088 6.705-8.088h65.927c3.701,0 6.704,3.623 6.704,8.088v7.192z"/>
<path d="m183.5,194c23.444,0 46.889,0 70.333,0 6.448,0 6.448-10 0-10-23.444,0-46.889,0-70.333,0-6.449,0-6.449,10 0,10z"/>
<path d="m183.5,206c23.444,0 46.889,0 70.333,0 6.448,0 6.448-10 0-10-23.444,0-46.889,0-70.333,0-6.449,0-6.449,10 0,10z"/>
</g>
</svg>
