<svg xmlns="http://www.w3.org/2000/svg" viewBox="20 20 321 321">
<g stroke="#fff" stroke-width="10">
<path fill="none" d="m238.031,279.639c0,3.514-2.621,6.361-5.854,6.361h-104.693c-3.232,0-5.853-2.848-5.853-6.361v-197.943c0-3.513 2.621-6.362 5.853-6.362h104.693c3.232,0 5.854,2.849 5.854,6.362v197.943z"/>
<path fill="#fff" d="m236.832,105c0,3.313-2.418,6-5.4,6h-102c-2.982,0-5.4-2.687-5.4-6v-23.333c0-3.313 2.417-6 5.4-6h102c2.982,0 5.4,2.687 5.4,6v23.333zm-27.601-12.666c0-3.313-2.418-6-5.399-6h-45.601c-2.982,0-5.4,2.687-5.4,6v2.666c0,3.313 2.418,6 5.4,6h45.601c2.981,0 5.399-2.687 5.399-6v-2.666z"/>
</g>
<path fill="#fff" d="m232.737,248.078h-106.588c-3.117,0-5.643,2.807-5.643,6.27v24.383c0,3.463 2.526,6.27 5.643,6.27h106.588c3.116,0 5.643-2.807 5.643-6.27v-24.383c0-3.463-2.526-6.27-5.643-6.27zm-44.987,22.529c0,1.426-1.156,2.582-2.583,2.582h-8.667c-1.426,0-2.583-1.156-2.583-2.582v-8.668c0-1.426 1.156-2.582 2.583-2.582h8.667c1.427,0 2.583,1.156 2.583,2.582v8.668z"/>
</svg>
