<svg xmlns="http://www.w3.org/2000/svg" viewBox="20 20 321 321">
<g fill="#fff">
<path d="m84.09,163.513c8.917,1.522 17.833,3.045 26.749,4.567 4.414,.754 6.304-5.991 1.861-6.75-8.917-1.522-17.833-3.045-26.749-4.567-4.414-.754-6.304,5.991-1.861,6.75z"/>
<path d="m84.364,173.128c8.917,1.522 17.833,3.045 26.749,4.567 4.414,.753 6.304-5.991 1.861-6.75-8.917-1.522-17.833-3.045-26.749-4.567-4.413-.753-6.304,5.992-1.861,6.75z"/>
<path d="m84.364,182.47c8.917,1.522 17.833,3.045 26.749,4.567 4.414,.754 6.304-5.991 1.861-6.75-8.917-1.522-17.833-3.045-26.749-4.567-4.413-.754-6.304,5.991-1.861,6.75z"/>
<path d="m90.058,192.441c5.004,.854 10.008,1.708 15.012,2.563 4.414,.754 6.304-5.991 1.861-6.75-5.004-.854-10.008-1.708-15.012-2.563-4.414-.753-6.304,5.992-1.861,6.75z"/>
</g>
<path fill="none" stroke="#fff" stroke-width="10" d="m121.034,137.573c0,7.544-6.116,13.66-13.66,13.66h-18.214c-7.544,0-13.66-6.116-13.66-13.66v-48.569c0-7.544 6.116-13.66 13.66-13.66h18.213c7.544,0 13.66,6.116 13.66,13.66v48.569z"/>
<g fill="#fff">
<path d="m200.278,291.002c16.389,0 32.778,0 49.168,0 9.686,0 9.771-15.004 .107-15.004-16.389,0-32.778,0-49.168,0-9.685,0-9.771,15.004-.107,15.004z"/>
<path d="m167.779,225.336c38.556,0 77.112,0 115.667,0 9.686,0 9.771-15.004 .107-15.004-38.556,0-77.111,0-115.667,0-9.685-0-9.771,15.004-.107,15.004z"/>
<path d="m229.998,223.946c0,19.889 0,39.777 0,59.667 0,9.686 15.004,9.771 15.004,.107 0-19.889 0-39.777 0-59.667 0-9.685-15.004-9.771-15.004-.107z"/>
<path d="m222,80.667c0,19.111 0,38.222 0,57.333 0,4.514 7,4.514 7,0 0-19.111 0-38.222 0-57.333 0-4.514-7-4.514-7,0z"/>
<path d="m184.632,168.022c14.434-9.222 28.867-18.444 43.301-27.667-1.178,0-2.355,0-3.533,0 14.434,9.223 28.868,18.445 43.302,27.667 .589-2.174 1.178-4.348 1.767-6.522-28.867,0-57.735,0-86.603,0-4.514,0-4.514,7 0,7 28.867,0 57.735,0 86.603,0 3.579,0 4.648-4.681 1.767-6.522-14.434-9.223-28.868-18.445-43.302-27.667-1.013-.647-2.521-.647-3.533,0-14.434,9.222-28.867,18.444-43.301,27.667-3.792,2.422-.285,8.483 3.532,6.044z"/>
<path stroke="#fff" d="m239.5,75.667c0,3.129-2.537,5.667-5.667,5.667h-16c-3.13,0-5.667-2.537-5.667-5.667 0-3.129 2.537-5.667 5.667-5.667h16c3.13,0 5.667,2.538 5.667,5.667z"/>
<path d="m203.998,218.946c0,19.889 0,39.777 0,59.667 0,9.686 15.004,9.771 15.004,.107 0-19.889 0-39.777 0-59.667 0-9.685-15.004-9.771-15.004-.107z"/>
</g>
</svg>
