<svg xmlns="http://www.w3.org/2000/svg" viewBox="20 20 321 321">
<g fill="#fff">
<path d="m83.84,163.013c8.917,1.522 17.833,3.045 26.749,4.567 4.414,.754 6.304-5.991 1.861-6.75-8.917-1.522-17.833-3.045-26.749-4.567-4.414-.754-6.304,5.991-1.861,6.75z"/>
<path d="m84.114,172.628c8.917,1.522 17.833,3.045 26.749,4.567 4.414,.753 6.304-5.991 1.861-6.75-8.917-1.522-17.833-3.045-26.749-4.567-4.413-.753-6.304,5.992-1.861,6.75z"/>
<path d="m84.114,181.97c8.917,1.522 17.833,3.045 26.749,4.567 4.414,.754 6.304-5.991 1.861-6.75-8.917-1.522-17.833-3.045-26.749-4.567-4.413-.754-6.304,5.991-1.861,6.75z"/>
<path d="m89.808,191.941c5.004,.854 10.008,1.708 15.012,2.563 4.414,.754 6.304-5.991 1.861-6.75-5.004-.854-10.008-1.708-15.012-2.563-4.414-.753-6.304,5.992-1.861,6.75z"/>
</g>
<path fill="none" stroke="#fff" stroke-width="10" d="m120.784,137.073c0,7.544-6.116,13.66-13.66,13.66h-18.214c-7.544,0-13.66-6.116-13.66-13.66v-48.569c0-7.544 6.116-13.66 13.66-13.66h18.213c7.544,0 13.66,6.116 13.66,13.66v48.569z"/>
<g fill="#fff">
<path d="m231.697,144.214c11.679-1.09 23.357-2.179 35.036-3.269-1.439-.826-2.878-1.651-4.317-2.477 6.697,9.658 13.395,19.316 20.092,28.974 2.28-2.28 4.561-4.561 6.841-6.841-18.376-8.568-36.752-17.137-55.128-25.705-5.806-2.707-10.888,5.912-5.047,8.635 18.376,8.568 36.752,17.137 55.128,25.705 4.102,1.913 9.975-2.321 6.841-6.841-6.697-9.658-13.395-19.316-20.092-28.974-.951-1.372-2.511-2.645-4.317-2.477-11.679,1.09-23.357,2.179-35.036,3.269-6.365,.595-6.423,10.6-.001,10.001z"/>
<path d="m253.923,151.469c-3.442,6.865-6.886,13.73-10.328,20.595-2.882,5.747 5.743,10.813 8.635,5.047 3.442-6.865 6.886-13.73 10.328-20.595 2.881-5.747-5.744-10.812-8.635-5.047z"/>
<path d="m186.274,144.43c9.54,27.234 19.08,54.468 28.62,81.702 2.117,6.045 11.78,3.444 9.643-2.658-9.54-27.234-19.08-54.468-28.62-81.702-2.117-6.045-11.78-3.445-9.643,2.658z"/>
<path d="m263.627,132.059c-4.642,3.395-9.283,6.79-13.925,10.185-2.195,1.605-3.278,4.307-1.794,6.841 1.271,2.17 4.637,3.406 6.841,1.794 4.642-3.395 9.283-6.79 13.925-10.185 2.195-1.605 3.278-4.307 1.794-6.841-1.272-2.171-4.637-3.407-6.841-1.794z"/>
<path d="m273.148,155.762c-.235-5.19-.472-10.38-.707-15.57-.292-6.421-10.293-6.45-10,0 .235,5.19 .472,10.38 .707,15.57 .292,6.421 10.293,6.449 10,0z"/>
<path d="m221.899,233.765c-11.851-20.524-23.7-41.05-35.551-61.574-1.439,2.508-2.878,5.016-4.317,7.523 23.7,0 47.401,0 71.102,0-1.439-2.508-2.878-5.016-4.317-7.523-11.851,20.524-23.7,41.05-35.551,61.574-3.23,5.595 5.412,10.628 8.635,5.047 11.851-20.524 23.7-41.05 35.551-61.574 1.894-3.28-.512-7.523-4.317-7.523-23.7,0-47.401,0-71.102,0-3.805,0-6.211,4.243-4.317,7.523 11.851,20.524 23.7,41.05 35.551,61.574 3.221,5.581 11.864,.547 8.633-5.047z"/>
<path d="m253.151,281.67c-23.7,0-47.4,.001-71.101,.001 .443,3.273 .886,6.548 1.329,9.821 5.87-1.124 11.741-2.248 17.611-3.372 3.912-.75 7.824-1.499 11.736-2.248 1.418-.271 2.835-.543 4.253-.814 2.063-.395 2.145,.287-1.001-.304 11.947,2.246 23.896,4.491 35.843,6.737 6.302,1.185 8.991-8.452 2.658-9.643-11.959-2.248-23.919-4.496-35.878-6.744-2.259-.425-4.881,.426-7.104,.852-4.063,.777-8.125,1.556-12.188,2.334-6.196,1.187-12.393,2.373-18.589,3.56-5.654,1.083-4.188,9.821 1.329,9.821 23.7,0 47.4-.001 71.101-.001 6.45-0 6.45-10 .001-10z"/>
<path d="m212.501,234.107c0,14.587 0,29.173 0,43.76 0,6.448 10,6.448 10,0 0-14.587 0-29.173 0-43.76 0-6.448-10-6.448-10-0z"/>
<path d="m193.106,136.699c-11.75-9.029-23.5-18.059-35.25-27.088-5.114-3.93-10.084,4.764-5.047,8.635 11.75,9.029 23.5,18.059 35.25,27.088 5.115,3.93 10.085-4.764 5.047-8.635z"/>
</g>
</svg>
