<svg xmlns="http://www.w3.org/2000/svg" viewBox="20 20 321 321">
<g fill="#fff">
<path d="m161.189,248.056c12.286,2.099 24.573,4.196 36.859,6.295 6.306,1.077 9.006-8.559 2.658-9.643-12.286-2.099-24.573-4.196-36.859-6.295-6.305-1.077-9.005,8.559-2.658,9.643z"/>
<path d="m161.568,261.306c12.286,2.099 24.572,4.196 36.858,6.295 6.306,1.077 9.006-8.559 2.658-9.643-12.286-2.099-24.572-4.196-36.858-6.295-6.305-1.077-9.005,8.559-2.658,9.643z"/>
<path d="m161.568,274.178c12.286,2.098 24.572,4.196 36.858,6.294 6.306,1.077 9.006-8.559 2.658-9.643-12.286-2.098-24.572-4.196-36.858-6.294-6.305-1.077-9.005,8.559-2.658,9.643z"/>
<path d="m169.414,287.919c6.895,1.177 13.79,2.354 20.685,3.531 6.306,1.076 9.006-8.56 2.658-9.643-6.895-1.177-13.79-2.354-20.685-3.531-6.306-1.076-9.006,8.56-2.658,9.643z"/>
<path d="m207.144,212.143c-.341,9.681-8.01,13.822-16.692,13.822-7.013,0-14.026,0-21.039,0-8.104,0-15.012-5.457-15.012-13.996 0-4.135 0-8.271 0-12.405 0-15.173 0-30.345 0-45.517 0-3.714-.417-7.771 .237-11.456 1.636-9.222 9.999-11.199 17.885-11.199 5.5,0 11,0 16.499,0 5.02,0 9.565,.06 13.623,3.612 6.159,5.392 4.5,15.458 4.5,22.791-.001,18.115-.001,36.231-.001,54.348 0,6.448 10,6.448 10,0 0-22.303 0-44.605 0-66.908 0-10.783-7.24-19.668-17.282-22.934-6.056-1.969-13.839-.909-20.08-.909-6.753,0-14.117-.791-20.507,1.785-8.985,3.62-14.875,12.547-14.875,22.212 0,22.245 0,44.489 0,66.734 0,10.43 6.662,18.748 16.059,22.535 5.704,2.298 13.314,1.307 19.323,1.307 6.218,0 12.671,.497 18.821-.595 11.008-1.952 18.168-12.63 18.541-23.228 .226-6.452-9.775-6.429-10,.001z"/>
<path d="m89.125,142.333c9.638,0 19.275,0 28.913,0 6.449,0 6.449-10 0-10-9.638,0-19.275,0-28.913,0-6.448,0-6.448,10 0,10z"/>
<path d="m103.853,86.528c6.815,6.814 13.63,13.629 20.444,20.444 4.564,4.563 11.635-2.507 7.071-7.071-6.815-6.814-13.63-13.629-20.444-20.444-4.564-4.564-11.634,2.507-7.071,7.071z"/>
<path d="m250.742,79.457c-6.815,6.815-13.63,13.63-20.444,20.444-4.564,4.564 2.507,11.635 7.07,7.071 6.815-6.815 13.63-13.63 20.444-20.444 4.565-4.564-2.506-11.635-7.07-7.071z"/>
<path d="m89.125,183.372c9.638,0 19.275,0 28.913,0 6.449,0 6.449-10 0-10-9.638,0-19.275,0-28.913,0-6.448,0-6.448,10 0,10z"/>
<path d="m244.016,142.128c9.638,0 19.275,0 28.913,0 6.448,0 6.448-10 0-10-9.638,0-19.275,0-28.913,0-6.449,0-6.449,10 0,10z"/>
<path d="m154.833,74.702c0,6.393 0,12.786 0,19.179 0,6.449 10,6.449 10,0 0-6.393 0-12.786 0-19.179 0-6.449-10-6.449-10,0z"/>
<path d="m89.125,224.41c9.638,0 19.275,0 28.913,0 6.449,0 6.449-10 0-10-9.638,0-19.275,0-28.913,0-6.448,0-6.448,10 0,10z"/>
<path d="m199.956,84.33c0,3.197 0,6.393 0,9.59 0,1.935 3,1.935 3,0 0-3.197 0-6.393 0-9.59 0-1.934-3-1.934-3,0z"/>
<path d="m103.64,138.833c4.819,0 9.638,0 14.457,0 1.935,0 1.935-3 0-3-4.819,0-9.638,0-14.457,0-1.935,0-1.935,3-0,3z"/>
<path d="m118.313,95.98c2.839,2.839 5.678,5.678 8.517,8.517 1.369,1.369 3.49-.752 2.121-2.121-2.839-2.839-5.678-5.678-8.517-8.517-1.369-1.369-3.49,.752-2.121,2.121z"/>
<path d="m242.386,92.82c-3.186,3.185-6.37,6.37-9.556,9.556-1.369,1.369 .752,3.49 2.121,2.121 3.186-3.185 6.37-6.37 9.556-9.556 1.369-1.369-.752-3.49-2.121-2.121z"/>
<path d="m103.64,179.872c4.819,0 9.638,0 14.457,0 1.935,0 1.935-3 0-3-4.819,0-9.638,0-14.457,0-1.935,0-1.935,3-0,3z"/>
<path d="m244.073,138.628c4.818,0 9.638,0 14.456,0 1.935,0 1.935-3 0-3-4.818,0-9.638,0-14.456,0-1.934,0-1.934,3 0,3z"/>
<path d="m244.073,179.666c4.818,0 9.638,0 14.456,0 1.935,0 1.935-3 0-3-4.818,0-9.638,0-14.456,0-1.934,0-1.934,3 0,3z"/>
<path d="m158.391,84.291c0,3.197 0,6.393 0,9.59 0,1.935 3,1.935 3,0 0-3.197 0-6.393 0-9.59 0-1.935-3-1.935-3,0z"/>
<path d="m103.64,220.91c4.819,0 9.638,0 14.457,0 1.935,0 1.935-3 0-3-4.819,0-9.638,0-14.457,0-1.935,0-1.935,3-0,3z"/>
<path d="m244.073,220.705c4.818,0 9.638,0 14.456,0 1.935,0 1.935-3 0-3-4.818,0-9.638,0-14.456,0-1.934,0-1.934,3 0,3z"/>
<path d="m196.398,74.741c0,6.393 0,12.786 0,19.179 0,6.449 10,6.449 10,0 0-6.393 0-12.786 0-19.179 0-6.449-10-6.449-10,0z"/>
</g>
</svg>
