<svg xmlns="http://www.w3.org/2000/svg" viewBox="20 20 321 321">
<g fill="#fff">
<path d="m83.84,163.013c8.917,1.522 17.833,3.045 26.749,4.567 4.414,.754 6.304-5.991 1.861-6.75-8.917-1.522-17.833-3.045-26.749-4.567-4.414-.754-6.304,5.991-1.861,6.75z"/>
<path d="m84.114,172.628c8.917,1.522 17.833,3.045 26.749,4.567 4.414,.753 6.304-5.991 1.861-6.75-8.917-1.522-17.833-3.045-26.749-4.567-4.413-.753-6.304,5.992-1.861,6.75z"/>
<path d="m84.114,181.97c8.917,1.522 17.833,3.045 26.749,4.567 4.414,.754 6.304-5.991 1.861-6.75-8.917-1.522-17.833-3.045-26.749-4.567-4.413-.754-6.304,5.991-1.861,6.75z"/>
<path d="m89.808,191.941c5.004,.854 10.008,1.708 15.012,2.563 4.414,.754 6.304-5.991 1.861-6.75-5.004-.854-10.008-1.708-15.012-2.563-4.414-.753-6.304,5.992-1.861,6.75z"/>
</g>
<path fill="none" stroke="#fff" stroke-width="10" d="m120.784,137.073c0,7.544-6.116,13.66-13.66,13.66h-18.214c-7.544,0-13.66-6.116-13.66-13.66v-48.569c0-7.544 6.116-13.66 13.66-13.66h18.213c7.544,0 13.66,6.116 13.66,13.66v48.569z"/>
<g fill="#fff">
<path d="m261.469,232.133c-.507,8.793-12.326,6.533-18.274,6.533-2.843,0-5.686,0-8.528,0-5.218,0-6.031-3.814-6.97-7.912-2.01-8.781-4.021-17.562-6.031-26.343-5.662-24.727-11.323-49.453-16.985-74.179-.592-2.588 4.563-5.315 6.803-5.315 1.871,0 3.741,0 5.611,0 7.629,0 15.257,0 22.886,0 4.976,0 9.952,0 14.929,0 5.849,0 6.561,5.23 6.561,9.644 0,27.768 0,55.536 0,83.304-.002,4.756-.002,9.512-.002,14.268 0,6.448 10,6.448 10,0 0-24.465 0-48.93 0-73.395 0-9.079 0-18.158 0-27.237 0-9.203-7.678-16.584-16.793-16.584-5.537,0-11.074,0-16.611,0-7.431,0-14.862,0-22.294,0-6.79,0-13.37,.72-17.722,6.795-6.011,8.394-1.115,19.462 .948,28.473 6.18,26.987 12.358,53.974 18.538,80.961 .87,3.802 1.146,7.34 3.568,10.724 4.286,5.983 10.76,6.796 17.501,6.796 5.424,0 10.847,0 16.271,0 9.392,0 16.074-7.524 16.594-16.533 .372-6.445-9.63-6.409-10,0z"/>
<path d="m276.998,76.613c0,48.807 0,97.613 0,146.42 0,20.61 0,41.22 0,61.83 0,9.686 15.004,9.771 15.004,.107 0-48.807 0-97.613 0-146.419 0-20.61 0-41.22 0-61.83 0-9.686-15.004-9.771-15.004-.108z"/>
<path d="m250.824,74.838c0,6.393 0,12.786 0,19.179 0,4.514 7,4.514 7,0 0-6.393 0-12.786 0-19.179 0-4.514-7-4.514-7,0z"/>
<path d="m226.239,74.91c.779,6.346 1.558,12.691 2.337,19.037 .543,4.42 7.549,4.474 7,0-.779-6.346-1.558-12.691-2.337-19.037-.543-4.421-7.549-4.474-7,0z"/>
<path d="m201.154,75.574c1.869,6.114 3.738,12.228 5.607,18.341 1.315,4.304 8.073,2.467 6.75-1.861-1.869-6.114-3.738-12.228-5.607-18.341-1.315-4.304-8.073-2.468-6.75,1.861z"/>
<path d="m258.162,288.684c0-6.393 0-12.786 0-19.179 0-4.514-7-4.514-7,0 0,6.393 0,12.786 0,19.179 0,4.513 7,4.513 7,0z"/>
<path d="m233.576,288.613c.779-6.346 1.559-12.691 2.338-19.037 .55-4.474-6.457-4.421-7,0-.779,6.346-1.559,12.691-2.338,19.037-.55,4.474 6.457,4.421 7,0z"/>
<path d="m270.833,151.733c0,19.47 0,38.939 0,58.409 0,4.514 7,4.514 7,0 0-19.47 0-38.939 0-58.409 0-4.514-7-4.514-7,0z"/>
</g>
</svg>
