<svg xmlns="http://www.w3.org/2000/svg" viewBox="20 20 321 321">
<g fill="#fff">
<path d="m211.293,162.989c0,6.322 0,12.645 0,18.967 0,1.935 3,1.935 3,0 0-6.322 0-12.645 0-18.967 0-1.935-3-1.935-3-0z"/>
<path d="m229.534,163.066c.768-2.196 1.535-4.392 2.303-6.587 .641-1.832-2.259-2.611-2.893-.798-.768,2.196-1.535,4.392-2.303,6.587-.64,1.832 2.259,2.611 2.893,.798z"/>
<path d="m224.325,182.139c.78-3.94 1.56-7.881 2.34-11.821 .374-1.89-2.518-2.694-2.893-.798-.78,3.941-1.56,7.881-2.34,11.822-.373,1.888 2.518,2.694 2.893,.797z"/>
<path d="m240.766,151.183c.483,.13 .967,.26 1.451,.39 .789,.212 1.627-.256 1.845-1.047 .216-.785-.259-1.633-1.048-1.845-.483-.13-.967-.26-1.451-.39-.789-.212-1.627,.256-1.845,1.047-.216,.784 .259,1.633 1.048,1.845z"/>
<path d="m245.561,155.455c.243,.333 .486,.665 .73,.998 .481,.658 1.292,.983 2.052,.538 .651-.381 1.022-1.391 .538-2.053-.243-.333-.486-.665-.73-.998-.481-.658-1.292-.983-2.052-.538-.652,.382-1.023,1.391-.538,2.053z"/>
<path d="m234.985,152.335c.438-.305 .876-.609 1.313-.914 .67-.466 .977-1.305 .538-2.053-.389-.663-1.38-1.005-2.052-.538-.438,.305-.876,.609-1.313,.914-.67,.466-.977,1.305-.538,2.052 .389,.664 1.38,1.007 2.052,.539z"/>
<path d="m199.283,162.268c-.768-2.196-1.535-4.392-2.303-6.587-.634-1.813-3.533-1.034-2.893,.798 .768,2.196 1.535,4.392 2.303,6.587 .634,1.813 3.534,1.034 2.893-.798z"/>
<path d="m204.491,181.342c-.78-3.941-1.56-7.881-2.34-11.822-.375-1.896-3.267-1.092-2.893,.798 .78,3.94 1.56,7.881 2.34,11.821 .376,1.897 3.267,1.091 2.893-.797z"/>
<path d="m184.361,148.29c-.484,.13-.968,.26-1.451,.39-.789,.212-1.264,1.061-1.048,1.845 .218,.791 1.056,1.26 1.845,1.047 .484-.13 .968-.26 1.451-.39 .789-.212 1.264-1.061 1.048-1.845-.218-.791-1.056-1.259-1.845-1.047z"/>
<path d="m177.773,153.94c-.243,.333-.486,.666-.73,.998-.483,.662-.113,1.671 .539,2.053 .76,.445 1.57,.12 2.052-.538 .243-.333 .486-.666 .73-.998 .483-.662 .113-1.671-.538-2.053-.76-.444-1.571-.12-2.053,.538z"/>
<path d="m192.453,149.745c-.438-.304-.875-.609-1.313-.914-.672-.467-1.663-.125-2.052,.538-.438,.748-.132,1.586 .538,2.053 .438,.304 .875,.609 1.313,.914 .672,.467 1.663,.125 2.052-.539 .439-.747 .132-1.586-.538-2.052z"/>
<path d="m220.583,136.941c.321-2.266 .644-4.531 .965-6.797 .269-1.892-2.622-2.707-2.893-.798-.321,2.266-.644,4.531-.965,6.797-.268,1.892 2.623,2.707 2.893,.798z"/>
<path d="m218.452,156.217c.327-4.065 .654-8.13 .981-12.195 .155-1.93-2.846-1.915-3,0-.327,4.065-.654,8.13-.981,12.195-.155,1.929 2.846,1.914 3,0z"/>
<path d="m223.864,124.497c.202,.134 .404,.268 .607,.402 .683,.452 1.656,.137 2.052-.538 .431-.735 .143-1.602-.538-2.053-.202-.134-.404-.268-.607-.402-.683-.452-1.656-.137-2.052,.538-.43,.736-.142,1.602 .538,2.053z"/>
<path d="m225.562,128.719c.103,.343 .204,.687 .307,1.031 .232,.783 1.045,1.268 1.845,1.047 .776-.213 1.281-1.062 1.048-1.845-.103-.343-.204-.687-.307-1.031-.232-.783-1.045-1.268-1.845-1.047-.777,.213-1.282,1.061-1.048,1.845z"/>
<path d="m223.007,125.304c.184-.314 .367-.628 .551-.942 .979-1.674-1.615-3.183-2.59-1.515-.184,.314-.367,.628-.551,.942-.979,1.674 1.615,3.183 2.59,1.515z"/>
<path d="m207.896,136.143c-.322-2.266-.644-4.531-.966-6.797-.271-1.909-3.161-1.094-2.893,.798 .322,2.266 .644,4.531 .966,6.797 .271,1.909 3.161,1.094 2.893-.798z"/>
<path d="m210.134,156.217c-.327-4.065-.654-8.13-.981-12.195-.154-1.915-3.155-1.93-3,0 .327,4.065 .654,8.13 .981,12.195 .154,1.914 3.155,1.929 3,0z"/>
<path d="m200.208,121.906c-.203,.134-.405,.269-.607,.402-.681,.451-.969,1.317-.538,2.053 .396,.675 1.369,.99 2.052,.538 .203-.134 .405-.269 .607-.402 .681-.451 .969-1.317 .538-2.053-.396-.675-1.369-.989-2.052-.538z"/>
<path d="m197.132,127.921c-.103,.344-.204,.688-.307,1.031-.233,.784 .271,1.632 1.048,1.845 .8,.22 1.612-.265 1.845-1.047 .103-.344 .204-.688 .307-1.031 .233-.784-.271-1.632-1.048-1.845-.8-.221-1.613,.264-1.845,1.047z"/>
<path d="m205.169,123.789c-.184-.314-.367-.628-.551-.942-.975-1.668-3.568-.159-2.59,1.515 .184,.314 .367,.628 .551,.942 .975,1.668 3.568,.159 2.59-1.515z"/>
<path d="m286.832,281.167c-49.725,0-99.449,0-149.174,0-6.857,0-13.715,0-20.572,0-5.456,0-4.653-5.756-4.653-9.447 0-7.567 0-15.135 0-22.702 0-5.285 0-10.57 0-15.855 0-6.763 13.011-4.495 17.136-4.495 8.835,0 17.67,0 26.505,0 43.586,0 87.172,0 130.759,0 6.448,0 6.448-10 0-10-46.716,0-93.433,0-140.149,0-9.287,0-18.573,0-27.859,0-8.567,0-16.392,5.116-16.392,14.495 0,5.285 0,10.57 0,15.855 0,7.567 0,15.135 0,22.702 0,6.971 .627,12.637 6.747,17.254 4.948,3.733 15.204,2.193 20.971,2.193 51.865,0 103.729,0 155.595,0 .362,0 .724,0 1.086,0 6.448,0 6.448-10 0-10z"/>
<path d="m283.34,218.544c-.59-7.309-5.738-13.01-13.368-13.01-4.142,0-8.284,0-12.426,0 1.667,1.667 3.333,3.333 5,5 0-10.466-6.935-15.677-16.811-15.677-7.208,0-14.417,0-21.625,0 1.667,1.667 3.333,3.333 5,5-1.778-18.504-31.361-18.504-33.14,0 1.667-1.667 3.333-3.333 5-5-6.687,0-13.373,0-20.06,0-9.75,0-16.333,5.572-16.333,15.677 1.667-1.667 3.333-3.333 5-5-4.27,0-8.539,0-12.809,0-7.634,0-12.789,5.692-13.379,13.01-.519,6.432 9.485,6.382 10,0 .412-5.103 12.706-3.01 16.188-3.01 2.726,0 5-2.274 5-5 0-7.018 6.057-5.677 11.224-5.677 5.057,0 10.112,0 15.169,0 2.923,0 4.739-2.288 5-5 .513-5.332 12.627-5.331 13.14,0 .261,2.712 2.077,5 5,5 5.244,0 10.488,0 15.733,0 5.386,0 12.702-1.747 12.702,5.677 0,2.726 2.274,5 5,5 3.449,0 15.386-2.049 15.794,3.01 .515,6.382 10.52,6.432 10.001,0z"/>
<path d="m84.006,162.43c8.917,1.522 17.833,3.045 26.749,4.567 4.414,.754 6.304-5.991 1.861-6.75-8.917-1.522-17.833-3.045-26.749-4.567-4.413-.754-6.304,5.991-1.861,6.75z"/>
<path d="m84.281,172.045c8.917,1.522 17.833,3.045 26.749,4.567 4.414,.753 6.304-5.991 1.861-6.75-8.917-1.522-17.833-3.045-26.749-4.567-4.414-.753-6.304,5.992-1.861,6.75z"/>
<path d="m84.281,181.387c8.917,1.522 17.833,3.045 26.749,4.567 4.414,.754 6.304-5.991 1.861-6.75-8.917-1.522-17.833-3.045-26.749-4.567-4.414-.754-6.304,5.991-1.861,6.75z"/>
<path d="m89.974,191.357c5.004,.854 10.008,1.71 15.012,2.564 4.414,.754 6.304-5.991 1.861-6.75-5.004-.854-10.008-1.71-15.012-2.564-4.414-.753-6.304,5.992-1.861,6.75z"/>
</g>
<path fill="none" stroke="#fff" stroke-width="10" d="m120.95,136.49c0,7.544-6.116,13.66-13.66,13.66h-18.213c-7.544,0-13.66-6.116-13.66-13.66v-48.569c0-7.544 6.116-13.66 13.66-13.66h18.213c7.544,0 13.66,6.116 13.66,13.66v48.569z"/>
</svg>
