<svg xmlns="http://www.w3.org/2000/svg" viewBox="20 20 321 321">
<g fill="#fff">
<path d="m199.658,281.339c0,2.733-2.217,4.949-4.951,4.949h-9.486c-2.734,0-4.951-2.216-4.951-4.949v-9.075c0-2.734 2.216-4.95 4.951-4.95h9.486c2.734,0 4.951,2.216 4.951,4.95v9.075z"/>
<path d="m288.758,281.339c0,2.733-2.217,4.949-4.949,4.949h-9.488c-2.734,0-4.949-2.216-4.949-4.949v-9.075c0-2.734 2.215-4.95 4.949-4.95h9.488c2.732,0 4.949,2.216 4.949,4.95v9.075z"/>
<path d="m277.271,244.199h-86.016c-4.938,0-8.805-4.958-8.805-11.289v-.52l3.92-15.3c.383-5.82 6.273-10.693 11.127-10.693h73.531c4.852,0 10.744,4.873 11.127,10.693l3.92,15.3v.52c.001,6.331-3.866,11.289-8.804,11.289zm-85.703-8.25h85.391c.279-.31 .762-1.184 .852-2.576l-3.885-15.166v-.521c0-1.297-2.057-2.925-2.965-3.042l-73.463,.003c-.84,.114-2.896,1.743-2.896,3.039v.521l-3.887,15.166c.092,1.393 .572,2.267 .853,2.576z"/>
<path d="m292.332,267.062c0,2.416-2.293,4.377-5.119,4.377h-105.811c-2.828,0-5.12-1.961-5.12-4.377v-22.86c0-2.417 2.292-4.377 5.12-4.377h105.811c2.826,0 5.119,1.96 5.119,4.377v22.86zm-88.756-17.702c0-2.143-2.215-3.879-4.949-3.879h-14.232c-2.732,0-4.95,1.736-4.95,3.879v4.04c0,2.142 2.217,3.878 4.95,3.878h14.232c2.734,0 4.949-1.736 4.949-3.878v-4.04zm85.389,0c0-2.143-2.217-3.879-4.951-3.879h-14.23c-2.734,0-4.951,1.736-4.951,3.879v4.04c0,2.142 2.217,3.878 4.951,3.878h14.23c2.734,0 4.951-1.736 4.951-3.878v-4.04zm-33.207,3.428c0-4.166-2.217-7.543-4.949-7.543h-33.414c-2.732,0-4.949,3.377-4.949,7.543v4.714c0,4.165 2.217,7.543 4.949,7.543h33.414c2.732,0 4.949-3.378 4.949-7.543v-4.714z"/>
<path d="m206.877,247.514h54.449v8.25h-54.449z"/>
<path d="m207.701,258.238h54.451v8.25h-54.451z"/>
<path d="m150.933,174.295c0,37.285 0,74.571 0,111.856 0,6.448 10,6.448 10,0 0-37.285 0-74.571 0-111.856 0-6.449-10-6.449-10,0z"/>
<path d="m287.211,163.384c-44.98,.022-89.96,.045-134.94,.067 .358,0 .172-5.334 .172-6.405 0-1.394-.66-.975 .513-.975 3.107,0 6.215,0 9.322,0 13.377,0 26.754,0 40.131,0 27.158,0 54.316,0 81.475,0 1.109,0 2.218,0 3.327,0 6.448,0 6.448-10 0-10-44.98,0-89.96,0-134.94,0-9.93,0-9.828,9.903-9.828,17.055 0,6.351 4.82,10.328 10.887,10.325 9.368-.005 18.735-.009 28.103-.014 30.277-.015 60.554-.03 90.83-.045 4.982-.002 9.966-.005 14.948-.007 6.448-.005 6.449-10.005 0-10.001z"/>
<path d="m285.309,175.224c.069-.256 1.464-.094-.535-.094-1.5,0-3,0-4.5,0-5.185,0-10.368,0-15.552,0-15.468,0-30.937,0-46.404,0-14.746,0-29.492,0-44.238,0-4.281,0-8.562,0-12.843,0-.857,0-1.715,0-2.573,0-.767,0 .769,1.631 .769,.294 0-.822 0-1.644 0-2.465 0-2.051 .264-.454-.983-.454 22.616,0 45.233,0 67.851,0 14.516,0 29.032,0 43.549,0 4.4,0 8.8,0 13.2,0 .931,0 1.861,0 2.793,0 .975,0-.659,.066-.659-.825 0,1.492 0,2.983 0,4.474 0,4.514 7,4.514 7,0 0-4.929-.134-10.649-6.622-10.649-3.127,0-6.254,0-9.381,0-13.657,0-27.314,0-40.972,0-25.328,0-50.656,0-75.984,0-6.44,0-6.792,5.41-6.792,10.449 0,4.947 4.231,6.176 8.194,6.176 10.602,0 21.204,0 31.806,0 28.969,0 57.937,0 86.905,0 4.942,0 11.061,1.097 12.721-5.045 1.179-4.364-5.574-6.214-6.75-1.861z"/>
<path d="m84.09,162.513c8.917,1.522 17.833,3.045 26.749,4.567 4.414,.754 6.304-5.991 1.861-6.75-8.917-1.522-17.833-3.045-26.749-4.567-4.414-.754-6.304,5.991-1.861,6.75z"/>
<path d="m84.364,172.128c8.917,1.522 17.833,3.045 26.749,4.567 4.414,.753 6.304-5.991 1.861-6.75-8.917-1.522-17.833-3.045-26.749-4.567-4.413-.753-6.304,5.992-1.861,6.75z"/>
<path d="m84.364,181.47c8.917,1.522 17.833,3.045 26.749,4.567 4.414,.754 6.304-5.991 1.861-6.75-8.917-1.522-17.833-3.045-26.749-4.567-4.413-.754-6.304,5.991-1.861,6.75z"/>
<path d="m90.058,191.441c5.004,.854 10.008,1.708 15.012,2.563 4.414,.754 6.304-5.991 1.861-6.75-5.004-.854-10.008-1.708-15.012-2.563-4.414-.753-6.304,5.992-1.861,6.75z"/>
</g>
<path fill="none" stroke="#fff" stroke-width="10" d="m121.034,136.573c0,7.544-6.116,13.66-13.66,13.66h-18.214c-7.544,0-13.66-6.116-13.66-13.66v-48.569c0-7.544 6.116-13.66 13.66-13.66h18.213c7.544,0 13.66,6.116 13.66,13.66v48.569z"/>
</svg>
