<svg xmlns="http://www.w3.org/2000/svg" viewBox="20 20 321 321">
<g fill="#fff">
<path d="m77.112,291.169c13.25,0 26.499,0 39.748,0 9.687,0 9.772-15.004 .108-15.004-13.25,0-26.499,0-39.748,0-9.686,0-9.771,15.004-.108,15.004z"/>
<path d="m110.763,269.169c13.249,0 26.498,0 39.747,0 9.687,0 9.772-15.004 .108-15.004-13.249,0-26.498,0-39.747,0-9.686,0-9.771,15.004-.108,15.004z"/>
<path d="m144.413,247.169c13.25,0 26.499,0 39.748,0 9.686,0 9.771-15.004 .107-15.004-13.249,0-26.498,0-39.747,0-9.686-0-9.771,15.004-.108,15.004z"/>
<path d="m178.064,225.169c13.25,0 26.499,0 39.748,0 9.686,0 9.771-15.004 .107-15.004-13.249,0-26.498,0-39.747,0-9.686-0-9.772,15.004-.108,15.004z"/>
<path d="m211.715,203.169c13.249,0 26.498,0 39.747,0 9.686,0 9.771-15.004 .107-15.004-13.249,0-26.498,0-39.747,0-9.685-0-9.771,15.004-.107,15.004z"/>
<path d="m245.365,181.169c13.249,0 26.498,0 39.747,0 9.686,0 9.771-15.003 .107-15.003-13.249,0-26.498,0-39.747,0-9.685,0-9.771,15.003-.107,15.003z"/>
<path d="m84.09,162.513c8.917,1.522 17.833,3.045 26.749,4.567 4.414,.754 6.304-5.991 1.861-6.75-8.917-1.522-17.833-3.045-26.749-4.567-4.414-.754-6.304,5.991-1.861,6.75z"/>
<path d="m84.364,172.128c8.917,1.522 17.833,3.045 26.749,4.567 4.414,.753 6.304-5.991 1.861-6.75-8.917-1.522-17.833-3.045-26.749-4.567-4.413-.753-6.304,5.992-1.861,6.75z"/>
<path d="m84.364,181.47c8.917,1.522 17.833,3.045 26.749,4.567 4.414,.754 6.304-5.991 1.861-6.75-8.917-1.522-17.833-3.045-26.749-4.567-4.413-.754-6.304,5.991-1.861,6.75z"/>
<path d="m90.058,191.441c5.004,.854 10.008,1.708 15.012,2.563 4.414,.754 6.304-5.991 1.861-6.75-5.004-.854-10.008-1.708-15.012-2.563-4.414-.753-6.304,5.992-1.861,6.75z"/>
</g>
<path fill="none" stroke="#fff" stroke-width="10" d="m121.034,136.573c0,7.544-6.116,13.66-13.66,13.66h-18.214c-7.544,0-13.66-6.116-13.66-13.66v-48.569c0-7.544 6.116-13.66 13.66-13.66h18.213c7.544,0 13.66,6.116 13.66,13.66v48.569z"/>
</svg>
