<svg xmlns="http://www.w3.org/2000/svg" viewBox="20 20 321 321">
<g fill="#fff">
<path d="m84.09,162.513c8.917,1.522 17.833,3.045 26.749,4.567 4.414,.754 6.304-5.991 1.861-6.75-8.917-1.522-17.833-3.045-26.749-4.567-4.414-.754-6.304,5.991-1.861,6.75z"/>
<path d="m84.364,172.128c8.917,1.522 17.833,3.045 26.749,4.567 4.414,.753 6.304-5.991 1.861-6.75-8.917-1.522-17.833-3.045-26.749-4.567-4.413-.753-6.304,5.992-1.861,6.75z"/>
<path d="m84.364,181.47c8.917,1.522 17.833,3.045 26.749,4.567 4.414,.754 6.304-5.991 1.861-6.75-8.917-1.522-17.833-3.045-26.749-4.567-4.413-.754-6.304,5.991-1.861,6.75z"/>
<path d="m90.058,191.441c5.004,.854 10.008,1.708 15.012,2.563 4.414,.754 6.304-5.991 1.861-6.75-5.004-.854-10.008-1.708-15.012-2.563-4.414-.753-6.304,5.992-1.861,6.75z"/>
</g>
<g fill="none" stroke="#fff" stroke-width="10">
<path d="m121.034,136.573c0,7.544-6.116,13.66-13.66,13.66h-18.214c-7.544,0-13.66-6.116-13.66-13.66v-48.569c0-7.544 6.116-13.66 13.66-13.66h18.213c7.544,0 13.66,6.116 13.66,13.66v48.569z"/>
<path d="m286.903,282.17c0,2.664-2.15,4.825-4.804,4.825l-134.833,.015c-2.653,0-4.804-2.162-4.804-4.826v-86.877c0-2.664 2.15-4.826 4.804-4.826l134.833-.014c2.653,0 4.804,2.162 4.804,4.826v86.877z"/>
</g>
<path fill="#fff" d="m210.387,243.754c2.864,0 5.728,0 8.592,0 2.726,0 5-2.274 5-5s-2.274-5-5-5c-2.864,0-5.728,0-8.592,0-2.726,0-5,2.274-5,5s2.274,5 5,5z"/>
<g fill="none" stroke="#fff" stroke-width="10">
<path d="m214.683,191.057 0,93.466"/>
<path d="m286.903,193.526c0,1.694-1.847,3.066-4.124,3.066l-136.193,.015c-2.277,0-4.124-1.373-4.124-3.066v-6.133c0-1.694 1.847-3.066 4.124-3.066l136.193-.015c2.277,0 4.124,1.373 4.124,3.066v6.133z"/>
</g>
</svg>
