<svg xmlns="http://www.w3.org/2000/svg" viewBox="20 20 321 321">
<g fill="#fff">
<path d="m84.09,163.513c8.917,1.522 17.833,3.045 26.749,4.567 4.414,.754 6.304-5.991 1.861-6.75-8.917-1.522-17.833-3.045-26.749-4.567-4.414-.754-6.304,5.991-1.861,6.75z"/>
<path d="m84.364,173.128c8.917,1.522 17.833,3.045 26.749,4.567 4.414,.753 6.304-5.991 1.861-6.75-8.917-1.522-17.833-3.045-26.749-4.567-4.413-.753-6.304,5.992-1.861,6.75z"/>
<path d="m84.364,182.47c8.917,1.522 17.833,3.045 26.749,4.567 4.414,.754 6.304-5.991 1.861-6.75-8.917-1.522-17.833-3.045-26.749-4.567-4.413-.754-6.304,5.991-1.861,6.75z"/>
<path d="m90.058,192.441c5.004,.854 10.008,1.708 15.012,2.563 4.414,.754 6.304-5.991 1.861-6.75-5.004-.854-10.008-1.708-15.012-2.563-4.414-.753-6.304,5.992-1.861,6.75z"/>
</g>
<path fill="none" stroke="#fff" stroke-width="10" d="m121.034,137.573c0,7.544-6.116,13.66-13.66,13.66h-18.214c-7.544,0-13.66-6.116-13.66-13.66v-48.569c0-7.544 6.116-13.66 13.66-13.66h18.213c7.544,0 13.66,6.116 13.66,13.66v48.569z"/>
<g fill="#fff">
<path stroke="#fff" d="m243.441,75.164c0,2.852-2.313,5.164-5.164,5.164h-14.58c-2.852,0-5.163-2.312-5.163-5.164 0-2.852 2.312-5.164 5.163-5.164h14.58c2.852,0 5.164,2.313 5.164,5.164z"/>
<path d="m225.987,82.44c0,30.928 0,61.856 0,92.784 0,6.448 10,6.448 10,0 0-30.928 0-61.856 0-92.784 0-6.448-10-6.448-10,0z"/>
<path d="m170.266,230.945c.276,22.491 12.527,43.001 32.358,53.698 19.919,10.745 44.972,8.802 63.375-4.104 18.406-12.909 28.124-35.592 25.11-57.809-3.023-22.286-18.209-40.494-38.938-48.686-18.415-7.277-40.155-3.941-56.196,7.308-16.142,11.322-25.469,30-25.709,49.593-.079,6.451 9.921,6.444 10,0 .28-22.813 15.298-42.589 37.238-48.909 22.038-6.348 45.637,3.956 57.28,23.31 11.847,19.691 7.886,45.278-7.931,61.465-16.046,16.421-41.786,19.151-61.467,7.932-15.636-8.915-24.902-26.002-25.121-43.797-.078-6.445-10.078-6.452-9.999-.001z"/>
<path d="m223.485,152.587c0,6.127 0,12.254 0,18.381 0,9.687 15.004,9.772 15.004,.108 0-6.127 0-12.254 0-18.381 0-9.686-15.004-9.772-15.004-.108z"/>
</g>
</svg>
