<svg xmlns="http://www.w3.org/2000/svg" viewBox="20 20 321 321">
<g fill="#fff">
<path d="m80.49,77.167c48.841,0 97.682,0 146.523,0 20.347,0 40.692,0 61.038,0 4.514,0 4.514-7 0-7-48.841,0-97.683,0-146.523,0-20.346,0-40.692,0-61.038,0-4.514,0-4.514,7 0,7z"/>
<path d="m80.49,86.119c6.892,0 13.785,0 20.677,0 4.514,0 4.514-7 0-7-6.892,0-13.785,0-20.677,0-4.514,0-4.514,7-0,7z"/>
<path d="m117.867,86.119c6.892,0 13.785,0 20.677,0 4.514,0 4.514-7 0-7-6.892,0-13.785,0-20.677,0-4.514,0-4.514,7-0,7z"/>
<path d="m155.244,86.119c6.892,0 13.785,0 20.677,0 4.514,0 4.514-7 0-7-6.892,0-13.785,0-20.677,0-4.515,0-4.515,7 0,7z"/>
<path d="m192.62,86.119c6.893,0 13.784,0 20.677,0 4.514,0 4.514-7 0-7-6.893,0-13.784,0-20.677,0-4.514,0-4.514,7 0,7z"/>
<path d="m229.997,86.119c6.893,0 13.784,0 20.677,0 4.514,0 4.514-7 0-7-6.893,0-13.784,0-20.677,0-4.514,0-4.514,7 0,7z"/>
<path d="m69.833,71.667c0,44.971 0,89.941 0,134.912 0,.029 0,.059 0,.088 0,1.935 3,1.935 3,0 0-44.971 0-89.941 0-134.913 0-.029 0-.058 0-.087 0-1.935-3-1.935-3,0z"/>
<path d="m267.374,86.119c6.893,0 13.784,0 20.677,0 4.514,0 4.514-7 0-7-6.893,0-13.784,0-20.677,0-4.514,0-4.514,7 0,7z"/>
<path d="m80.005,245.544c.646-.372 1.317-.829 2.015-1.371 .696-.542 1.368-1.127 2.015-1.753 .646-.627 1.25-1.271 1.811-1.931 .561-.661 1.028-1.313 1.402-1.957h3.366v35.343h-4.386v-28.407c-.579,.612-1.25,1.19-2.015,1.734-.765,.544-1.573,1.054-2.422,1.529l-1.786-3.187z"/>
<path d="m126.058,242c-1.292,.17-2.474,.451-3.544,.841-1.071,.392-2.032,1.004-2.882,1.837-.85,.833-1.555,1.93-2.116,3.289-.561,1.36-.978,3.06-1.25,5.1 .714-.306 1.402-.526 2.065-.663 .663-.135 1.283-.203 1.861-.203 2.448,0 4.343,.961 5.687,2.881 1.343,1.922 2.015,4.564 2.015,7.931 0,3.604-.638,6.443-1.913,8.517-1.275,2.074-3.29,3.111-6.043,3.111-1.395,0-2.619-.272-3.672-.815-1.054-.544-1.93-1.437-2.626-2.678-.697-1.241-1.224-2.873-1.581-4.896-.357-2.022-.536-4.496-.536-7.42 0-2.551 .247-5.032 .74-7.446 .492-2.414 1.292-4.564 2.397-6.451 1.104-1.888 2.55-3.426 4.335-4.616 1.785-1.189 3.986-1.836 6.604-1.938l.459,3.619zm-6.936,13.77c-.544,0-1.088,.095-1.632,.28-.544,.188-1.054,.417-1.53,.688-.034,.408-.051,.825-.051,1.25 0,.426 0,.859 0,1.301 0,1.563 .042,3.052 .127,4.462 .084,1.411 .263,2.651 .536,3.724 .271,1.07 .671,1.921 1.198,2.549 .527,.63 1.232,.943 2.117,.943 1.326,0 2.252-.705 2.779-2.115 .527-1.411 .791-3.29 .791-5.636 0-2.55-.349-4.429-1.045-5.636-.698-1.206-1.795-1.81-3.29-1.81z"/>
<path d="m133.809,245.544c.646-.372 1.317-.829 2.015-1.371 .696-.542 1.368-1.127 2.015-1.753 .646-.627 1.25-1.271 1.811-1.931 .561-.661 1.028-1.313 1.402-1.957h3.366v35.343h-4.386v-28.407c-.579,.612-1.25,1.19-2.015,1.734-.765,.544-1.573,1.054-2.422,1.529l-1.786-3.187z"/>
<path d="m171.192,246.335c0,1.972-.484,3.766-1.454,5.38-.969,1.615-2.1,3.019-3.391,4.208 1.428,1.054 2.668,2.32 3.723,3.8 1.054,1.479 1.581,3.238 1.581,5.278 0,1.599-.247,3.001-.739,4.207-.494,1.207-1.14,2.21-1.938,3.009-.799,.799-1.708,1.402-2.729,1.811s-2.074,.612-3.162,.612c-1.258,0-2.415-.229-3.468-.688-1.054-.459-1.956-1.088-2.703-1.887-.749-.799-1.326-1.76-1.734-2.882-.408-1.122-.612-2.347-.612-3.672 0-2.107 .467-3.986 1.402-5.636 .935-1.648 2.185-3.102 3.749-4.36-1.292-.985-2.346-2.235-3.162-3.748-.816-1.513-1.224-3.29-1.224-5.33 0-1.529 .237-2.847 .714-3.952 .476-1.104 1.097-2.015 1.861-2.729 .765-.714 1.624-1.232 2.576-1.556 .952-.322 1.92-.484 2.907-.484 .951,0 1.895,.162 2.83,.484 .935,.323 1.776,.834 2.525,1.53 .747,.697 1.343,1.59 1.785,2.678 .441,1.088 .663,2.397 .663,3.927zm-3.825,18.972c0-.884-.146-1.708-.434-2.474-.29-.765-.672-1.479-1.147-2.142-.477-.663-1.012-1.267-1.606-1.811-.596-.544-1.216-1.054-1.862-1.53-.986,.918-1.802,1.989-2.448,3.213-.646,1.225-.969,2.754-.969,4.59 0,1.837 .382,3.308 1.147,4.411 .765,1.105 1.811,1.658 3.137,1.658 1.122,0 2.099-.502 2.933-1.505 .832-1.002 1.249-2.473 1.249-4.41zm-7.752-19.431c0,1.088 .084,2.049 .255,2.881 .169,.834 .425,1.564 .765,2.193 .34,.63 .756,1.198 1.25,1.709 .493,.51 1.063,.986 1.708,1.428 .952-.986 1.726-2.031 2.321-3.137 .594-1.104 .893-2.541 .893-4.31 0-2.073-.34-3.51-1.02-4.31-.681-.798-1.514-1.198-2.499-1.198-.375,0-.783,.068-1.224,.204-.442,.136-.841,.383-1.199,.739-.357,.357-.655,.842-.892,1.453-.239,.614-.358,1.396-.358,2.348z"/>
<path d="m186.695,256.178c0-3.468 .153-6.383 .459-8.746 .307-2.363 .799-4.259 1.479-5.687 .68-1.429 1.539-2.456 2.576-3.086 1.037-.629 2.303-.943 3.799-.943 1.462,0 2.721,.314 3.774,.943 1.054,.63 1.921,1.657 2.601,3.086 .68,1.428 1.174,3.323 1.479,5.687s.459,5.278 .459,8.746-.153,6.384-.459,8.746c-.306,2.363-.8,4.259-1.479,5.687-.68,1.429-1.547,2.457-2.601,3.085-1.054,.629-2.313,.944-3.774,.944-1.496,0-2.762-.315-3.799-.944-1.037-.628-1.896-1.656-2.576-3.085-.68-1.428-1.172-3.323-1.479-5.687-.305-2.362-.459-5.278-.459-8.746zm12.036,0c0-2.787-.068-5.117-.204-6.987-.137-1.869-.35-3.365-.637-4.487-.29-1.122-.672-1.921-1.148-2.397-.477-.476-1.055-.714-1.734-.714s-1.258,.238-1.733,.714c-.477,.477-.858,1.275-1.147,2.397s-.502,2.618-.638,4.487c-.136,1.87-.204,4.2-.204,6.987 0,2.788 .068,5.117 .204,6.987s.349,3.365 .638,4.487 .671,1.922 1.147,2.396c.476,.477 1.054,.715 1.733,.715s1.258-.238 1.734-.715c.477-.475 .858-1.274 1.148-2.396 .287-1.122 .5-2.617 .637-4.487 .136-1.87 .204-4.199 .204-6.987z"/>
<path d="m219.08,254.852c1.699,.612 3.018,1.692 3.953,3.238 .934,1.548 1.402,3.545 1.402,5.993 0,3.264-.791,5.839-2.372,7.726s-3.97,2.831-7.165,2.831c-1.259,0-2.482-.188-3.672-.562-1.191-.373-2.228-.867-3.111-1.479l1.173-3.57c.782,.477 1.606,.885 2.474,1.225s1.776,.51 2.729,.51c1.734,0 3.086-.535 4.055-1.606s1.453-2.78 1.453-5.125c0-2.347-.535-4.114-1.606-5.305-1.071-1.189-2.779-1.785-5.126-1.785h-1.326v-3.723h1.123c2.039,0 3.553-.543 4.539-1.632 .985-1.088 1.479-2.602 1.479-4.539 0-1.836-.391-3.204-1.173-4.105-.782-.9-1.819-1.352-3.11-1.352-.885,0-1.727,.171-2.525,.51-.799,.341-1.488,.766-2.065,1.275l-1.733-3.213c.883-.816 1.929-1.429 3.137-1.836 1.205-.408 2.404-.612 3.595-.612 2.651,0 4.692,.833 6.12,2.499s2.143,3.876 2.143,6.63c0,1.938-.383,3.579-1.148,4.922-.769,1.342-1.848,2.371-3.243,3.085z"/>
<path d="m241.01,254.852c1.699,.612 3.018,1.692 3.953,3.238 .934,1.548 1.402,3.545 1.402,5.993 0,3.264-.791,5.839-2.372,7.726s-3.97,2.831-7.165,2.831c-1.259,0-2.482-.188-3.672-.562-1.191-.373-2.228-.867-3.111-1.479l1.173-3.57c.782,.477 1.606,.885 2.474,1.225s1.776,.51 2.729,.51c1.734,0 3.086-.535 4.055-1.606s1.453-2.78 1.453-5.125c0-2.347-.535-4.114-1.606-5.305-1.071-1.189-2.779-1.785-5.126-1.785h-1.326v-3.723h1.123c2.039,0 3.553-.543 4.539-1.632 .985-1.088 1.479-2.602 1.479-4.539 0-1.836-.391-3.204-1.173-4.105-.782-.9-1.819-1.352-3.11-1.352-.885,0-1.727,.171-2.525,.51-.799,.341-1.488,.766-2.065,1.275l-1.733-3.213c.883-.816 1.929-1.429 3.137-1.836 1.205-.408 2.404-.612 3.595-.612 2.651,0 4.692,.833 6.12,2.499s2.143,3.876 2.143,6.63c0,1.938-.383,3.579-1.148,4.922-.77,1.342-1.849,2.371-3.243,3.085z"/>
<path d="m258.248,268.061c.033,.272 .051,.535 .051,.791 0,.254 0,.518 0,.79 0,2.177-.307,4.267-.918,6.272-.612,2.006-1.445,3.944-2.5,5.814l-3.11-.918c.85-1.734 1.411-3.494 1.683-5.278 .271-1.785 .408-3.46 .408-5.024 0-.441-.009-.866-.025-1.274-.018-.407-.043-.798-.076-1.173h4.487z"/>
<path d="m266.102,270.254c1.291-.136 2.49-.399 3.596-.791 1.104-.391 2.082-.994 2.932-1.811s1.572-1.895 2.168-3.238c.594-1.343 1.027-3.034 1.301-5.074-1.326,.544-2.568,.815-3.724,.815-2.448,0-4.36-.96-5.737-2.881s-2.065-4.564-2.065-7.931c0-3.604 .638-6.442 1.912-8.517 1.275-2.074 3.29-3.111 6.044-3.111 1.394,0 2.617,.272 3.672,.816 1.053,.544 1.93,1.437 2.627,2.677 .695,1.242 1.224,2.874 1.58,4.896 .357,2.023 .535,4.496 .535,7.42 0,2.585-.246,5.084-.738,7.497-.494,2.415-1.301,4.564-2.423,6.452-1.122,1.887-2.601,3.416-4.437,4.59-1.837,1.172-4.098,1.811-6.783,1.912l-.46-3.721zm7.343-13.668c1.02,0 2.022-.307 3.009-.918 0-.408 .008-.824 .025-1.25 .017-.425 .025-.875 .025-1.352 0-1.563-.034-3.051-.103-4.462s-.237-2.652-.51-3.724c-.271-1.07-.672-1.92-1.198-2.55-.527-.629-1.232-.943-2.116-.943-1.326,0-2.253,.706-2.779,2.116-.527,1.411-.791,3.29-.791,5.636 0,2.55 .365,4.429 1.097,5.636s1.845,1.811 3.341,1.811z"/>
<path d="m284.701,282.402c-.492,4.237-14.117,2.265-16.289,2.265-12.04,0-24.08,0-36.12,0-32.031,0-64.063,0-96.094,0-18.969,0-37.937,0-56.906,0-3.785,0-2.626-6.545-2.626-8.563 0-7.512 0-15.023 0-22.536 0-6.694 0-13.389 0-20.083 0-2.415 .318-5.061 3.382-5.061 52.465,0 104.93,0 157.395,0 14.877,0 29.754,0 44.631,0 3.353,0 2.627,4.188 2.627,6.096 0,6.021 0,12.041 0,18.062-0,9.939-0,19.88-0,29.82 0,4.514 7,4.514 7,0 0-12.169 0-24.338 0-36.506 0-8.307 2.865-24.473-9.83-24.473-19.508,0-39.017,0-58.524,0-32.003,0-64.005,0-96.008,0-11.813,0-23.625,0-35.438,0-5.051,0-11.526-1.02-16.408,.711-6.048,2.145-5.826,8.359-5.826,13.556 0,7.283 0,14.566 0,21.85 0,7.011 0,14.021 0,21.031 0,5.637 .972,12.143 7.979,12.943 5.023,.574 10.265,.152 15.31,.152 12.04,0 24.08,0 36.12,0 51,0 101.999,0 152.999,0 5.593,0 9.018-4.016 9.627-9.265 .52-4.478-6.486-4.427-7.001,.001z"/>
<path d="m95.688,286c0,1.104-.896,2-2,2h-11.5c-1.104,0-2-.896-2-2v-5c0-1.104 .896-2 2-2h11.5c1.104,0 2,.896 2,2v5z"/>
<path d="m126.813,286c0,1.104-.896,2-2,2h-11.5c-1.104,0-2-.896-2-2v-5c0-1.104 .896-2 2-2h11.5c1.104,0 2,.896 2,2v5z"/>
<path d="m149.938,286c0,1.104-.896,2-2,2h-11.5c-1.104,0-2-.896-2-2v-5c0-1.104 .896-2 2-2h11.5c1.104,0 2,.896 2,2v5z"/>
<path d="m173.063,286c0,1.104-.896,2-2,2h-11.5c-1.104,0-2-.896-2-2v-5c0-1.104 .896-2 2-2h11.5c1.104,0 2,.896 2,2v5z"/>
<path d="m201.188,286c0,1.104-.895,2-2,2h-11.5c-1.104,0-2-.896-2-2v-5c0-1.104 .896-2 2-2h11.5c1.105,0 2,.896 2,2v5z"/>
<path d="m224.313,286c0,1.104-.895,2-2,2h-11.5c-1.104,0-2-.896-2-2v-5c0-1.104 .896-2 2-2h11.5c1.105,0 2,.896 2,2v5z"/>
<path d="m247.438,286c0,1.104-.895,2-2,2h-11.5c-1.104,0-2-.896-2-2v-5c0-1.104 .896-2 2-2h11.5c1.105,0 2,.896 2,2v5z"/>
<path d="m281.188,286c0,1.104-.895,2-2,2h-11.5c-1.104,0-2-.896-2-2v-5c0-1.104 .896-2 2-2h11.5c1.105,0 2,.896 2,2v5z"/>
<path d="m95.5,231.834c0,1.104-.896,2-2,2h-11.5c-1.104,0-2-.896-2-2v-5c0-1.104 .896-2 2-2h11.5c1.104,0 2,.896 2,2v5z"/>
<path d="m126.625,231.834c0,1.104-.896,2-2,2h-11.5c-1.104,0-2-.896-2-2v-5c0-1.104 .896-2 2-2h11.5c1.104,0 2,.896 2,2v5z"/>
<path d="m149.75,231.834c0,1.104-.896,2-2,2h-11.5c-1.104,0-2-.896-2-2v-5c0-1.104 .896-2 2-2h11.5c1.104,0 2,.896 2,2v5z"/>
<path d="m172.875,231.834c0,1.104-.896,2-2,2h-11.5c-1.104,0-2-.896-2-2v-5c0-1.104 .896-2 2-2h11.5c1.104,0 2,.896 2,2v5z"/>
<path d="m201,231.834c0,1.104-.896,2-2,2h-11.5c-1.104,0-2-.896-2-2v-5c0-1.104 .896-2 2-2h11.5c1.104,0 2,.896 2,2v5z"/>
<path d="m224.125,231.834c0,1.104-.896,2-2,2h-11.5c-1.104,0-2-.896-2-2v-5c0-1.104 .896-2 2-2h11.5c1.104,0 2,.896 2,2v5z"/>
<path d="m247.25,231.834c0,1.104-.896,2-2,2h-11.5c-1.104,0-2-.896-2-2v-5c0-1.104 .896-2 2-2h11.5c1.104,0 2,.896 2,2v5z"/>
<path d="m281,231.834c0,1.104-.896,2-2,2h-11.5c-1.104,0-2-.896-2-2v-5c0-1.104 .896-2 2-2h11.5c1.104,0 2,.896 2,2v5z"/>
<path d="m73.166,150.627c48.397,0 96.794,0 145.191,0 23.548,0 47.095,0 70.643,0 1.935,0 1.935-3 0-3-48.397,0-96.794,0-145.191,0-23.547,0-47.095,0-70.643,0-1.935,0-1.935,3 0,3z"/>
<path d="m134.25,181.317c3.612,8.654 8.928,23.816 20.072,24.79 5.746,.502 10.317-6.08 12.944-10.205 7.959-12.501 12.345-27.76 16.289-41.931 2.406-8.644 4.788-17.258 7.778-25.73 2.706-7.67 5.773-15.351 10.154-22.236 2.494-3.92 5.558-8.041 9.688-4.043 7.245,7.013 10.766,18.917 13.985,28.163 2.329,6.687 4.424,13.487 6.179,20.35 1.117,4.371 7.869,2.515 6.75-1.861-2.885-11.284-17.374-68.885-36.96-52.871-5.352,4.375-8.558,11.305-11.325,17.466-3.356,7.472-6.057,15.235-8.504,23.046-2.396,7.647-4.279,15.436-6.605,23.103-3.19,10.511-6.792,21.103-12.128,30.739-1.603,2.896-3.96,7.433-7.249,8.778-6.002,2.455-12.798-15.779-14.317-19.419-1.713-4.102-8.49-2.304-6.751,1.861z"/>
<path d="m167.923,179.456c-2.641,6.327-5.571,13.157-10.477,18.085-2.584,2.596-4.485,1.282-6.59-.906-5.128-5.33-8.074-13.296-10.723-20.052-3.711-9.463-6.629-19.221-9.234-29.039-3.249-12.248-19.836-73.565-39.977-48.384-6.671,8.341-10.438,19.134-13.91,29.103-2.328,6.687-4.423,13.487-6.178,20.349-1.119,4.376 5.632,6.232 6.75,1.861 3.011-11.776 6.783-23.556 11.765-34.647 2.102-4.68 5.429-13.467 10.667-15.614 4.239-1.738 8.671,7.736 10.098,10.393 11.5,21.417 14.824,46.304 23.644,68.795 3.422,8.726 7.427,19.084 15.231,24.846 12.625,9.32 22.411-15.09 25.684-22.929 1.738-4.165-5.038-5.963-6.75-1.861z"/>
<path d="m241.37,180.901c3.583,8.583 9.854,26.284 21.965,24.574 6.569-.928 11.03-9.571 13.711-14.71 6.617-12.686 11.04-26.87 14.567-40.708 1.115-4.377-5.636-6.233-6.75-1.861-2.667,10.466-6.031,20.827-10.095,30.831-2.49,6.131-5.407,12.853-10.054,17.683-7.199,7.481-14.701-13.134-16.595-17.67-1.711-4.102-8.487-2.304-6.749,1.861z"/>
<path d="m275.043,179.04c-2.641,6.327-5.57,13.157-10.477,18.085-2.584,2.596-4.484,1.282-6.59-.906-5.128-5.33-8.073-13.296-10.723-20.052-3.712-9.463-6.63-19.221-9.234-29.039-3.249-12.248-19.835-73.564-39.976-48.384-6.672,8.341-10.438,19.134-13.91,29.103-2.329,6.687-4.424,13.487-6.179,20.349-1.119,4.376 5.633,6.232 6.75,1.861 3.011-11.776 6.784-23.556 11.766-34.647 2.103-4.68 5.43-13.467 10.668-15.614 4.238-1.738 8.67,7.736 10.097,10.393 11.499,21.417 14.823,46.304 23.644,68.795 3.422,8.726 7.427,19.084 15.231,24.846 12.625,9.32 22.411-15.09 25.683-22.929 1.738-4.165-5.038-5.963-6.75-1.861z"/>
</g>
</svg>
