<svg xmlns="http://www.w3.org/2000/svg" viewBox="20 20 321 321">
<g fill="#fff">
<path d="m115.233,292.111c8.833,0 17.667,0 26.5,0 6.449,0 6.449-10 0-10-8.833,0-17.667,0-26.5,0-6.449,0-6.449,10 0,10z"/>
<path d="m221.232,292.111c8.725,0 17.449,0 26.174,0 6.448,0 6.448-10 0-10-8.725,0-17.449,0-26.174,0-6.448,0-6.448,10 0,10z"/>
<path d="m168.233,292.111c8.833,0 17.667,0 26.5,0 6.448,0 6.448-10 0-10-8.833,0-17.667,0-26.5,0-6.449,0-6.449,10 0,10z"/>
</g>
<path fill="none" stroke="#fff" stroke-width="10" d="m178.145,98.111v-17c0-3.313 2.687-6 6-6h40.5c3.313,0 6,2.687 6,6v17"/>
<g fill="#fff">
<path d="m251.5,93.111c-20.755,.981-41.794,0-62.567,0-25.983,0-51.966,0-77.948,0-4.723,0-8.183,1.357-11.675,4.824-5.718,5.675-8.637,14.218-10.979,21.711-8.1,25.925-9.213,54.59-8.395,81.526 .719,23.675 2.942,49.668 13.204,71.384 2.88,6.094 8.143,14.056 15.657,14.056 2.199,0 4.398,0 6.597,0 28.425,0 56.851,0 85.276,0 13.268,0 26.535,0 39.803,0 5.984,0 13.473,1.146 18.6-2.594 10.732-7.825 14.23-24.521 16.817-36.644 4.806-22.513 5.873-45.931 5.172-68.878-.615-20.17-2.747-40.941-8.835-60.263-3.026-9.603-8.636-24.662-20.727-25.122-6.451-.245-6.428,9.756 0,10 1.062,.041 2.424,1.084 3.912,2.763 2.369,2.671 3.939,6.339 5.254,9.614 4.218,10.508 6.313,21.904 7.933,33.06 4.229,29.118 3.86,59.833-.968,88.846-1.709,10.269-4.002,20.907-8.518,30.351-1.33,2.78-2.903,5.448-5.129,7.599-1.123,1.085-1.772,1.269-2.808,1.269-7.038,0-14.077,0-21.115,0-30.799,0-61.597,0-92.395,0-9.22,0-18.439,0-27.659,0-3.872,0-6.281-5.299-7.81-8.246-4.709-9.082-6.808-19.706-8.605-29.682-5.188-28.789-5.081-59.101-1.471-88.066 1.428-11.457 3.749-22.993 7.724-33.854 1.087-2.97 4.919-13.653 9.197-13.653 23.307,0 46.614,0 69.921,0 16.786,0 33.571,0 50.356,0 7.363,0 14.822,.348 22.179,0 6.422-.304 6.451-10.306 .002-10.001z"/>
<path d="m174.188,79.667c20.138,0 40.275,0 60.413,0 6.448,0 6.448-10 0-10-20.138,0-40.275,0-60.413,0-6.448,0-6.448,10 0,10z"/>
</g>
</svg>
