<svg xmlns="http://www.w3.org/2000/svg" viewBox="20 20 321 321">
<path fill="none" stroke="#fff" stroke-width="10" d="M286.98,266.605c0,3.313-2.717,6-6.07,6H81.156   c-3.353,0-6.071-2.688-6.071-6V141.988c0-3.313,2.718-6,6.071-6H280.91c3.354,0,6.07,2.687,6.07,6V266.605z"/>
<g fill="#fff">
<path d="m287.057,133.017c-34.531-21.028-69.063-42.057-103.593-63.085-1.499-.913-3.548-.913-5.047,0-34.532,21.028-69.064,42.057-103.596,63.085-4.217,2.568-2.516,9.317 2.523,9.317 48.95,0 97.9,0 146.849,0 20.113,0 40.227,0 60.34,0 6.448,0 6.448-10 0-10-48.95,0-97.899,0-146.85,0-20.113,0-40.226,0-60.339,0 .841,3.106 1.683,6.211 2.523,9.317 34.532-21.028 69.064-42.057 103.596-63.085-1.683,0-3.365,0-5.047,0 34.531,21.028 69.062,42.057 103.593,63.085 5.524,3.364 10.546-5.287 5.048-8.634z"/>
<path d="m284.533,137.249-103.593,63.085-103.596-63.085z"/>
<path d="m282.01,132.932c-34.531,21.028-69.063,42.057-103.593,63.085 1.682,0 3.365,0 5.047,0-34.532-21.028-69.064-42.057-103.596-63.085-.841,3.106-1.682,6.211-2.523,9.317 48.95,0 97.9,0 146.849,0 20.113,0 40.227,0 60.34,0 6.448,0 6.448-10 0-10-48.95,0-97.899,0-146.85,0-20.113,0-40.226,0-60.339,0-5.039,0-6.741,6.75-2.523,9.317 34.532,21.028 69.063,42.057 103.596,63.085 1.499,.913 3.548,.913 5.047,0 34.53-21.028 69.062-42.057 103.593-63.085 5.497-3.347 .475-11.998-5.048-8.634z"/>
</g>
</svg>
