<svg xmlns="http://www.w3.org/2000/svg" viewBox="20 20 321 321">
<path fill="none" stroke="#fff" stroke-width="10" d="m95.154,96.12c.703,0 1.272,.57 1.272,1.272v31.814c0,.703-.569,1.272-1.272,1.272h-5.939c-.703,0-1.272-.569-1.272-1.272v-31.814c0-.703 .57-1.272 1.272-1.272h5.939z"/>
<path fill="#fff" d="m96.426,104.125c11.828,.637 11.828,17.712 0,18.35-4.489,.242-4.513,7.243 0,7 9.146-.493 15.682-7.029 16.175-16.175 .492-9.126-7.769-15.722-16.175-16.175-4.513-.244-4.489,6.758 0,7z"/>
<g fill="none" stroke="#fff" stroke-width="10">
<path d="m85.977,96.12c1.086,0 1.966,.88 1.966,1.966v49.162c0,1.086-.88,1.966-1.966,1.966h-9.177c-1.086,0-1.966-.88-1.966-1.966v-49.162c0-1.086 .88-1.966 1.966-1.966h9.177z"/>
<path d="m285.711,96.12c.703,0 1.272,.57 1.272,1.272v31.814c0,.703-.569,1.272-1.272,1.272h-5.938c-.702,0-1.272-.569-1.272-1.272v-31.814c0-.703 .57-1.272 1.272-1.272h5.938z"/>
</g>
<g fill="#fff">
<path d="m248.25,114.799c2.944,0 5.889,0 8.833,0 1.935,0 1.935-3 0-3-2.944,0-5.889,0-8.833,0-1.935,0-1.935,3-0,3z"/>
<path d="m231.25,114.799c2.944,0 5.889,0 8.833,0 1.935,0 1.935-3 0-3-2.944,0-5.889,0-8.833,0-1.935,0-1.935,3 0,3z"/>
<path d="m214.25,114.799c2.944,0 5.889,0 8.833,0 1.935,0 1.935-3 0-3-2.944,0-5.889,0-8.833,0-1.935,0-1.935,3 0,3z"/>
<path d="m197.25,114.799c2.944,0 5.889,0 8.833,0 1.935,0 1.935-3 0-3-2.944,0-5.889,0-8.833,0-1.935,0-1.935,3 0,3z"/>
<path d="m180.25,114.799c2.944,0 5.889,0 8.833,0 1.935,0 1.935-3 0-3-2.944,0-5.889,0-8.833,0-1.935,0-1.935,3 0,3z"/>
<path d="m163.25,114.799c2.944,0 5.889,0 8.833,0 1.935,0 1.935-3 0-3-2.944,0-5.889,0-8.833,0-1.935,0-1.935,3 0,3z"/>
<path d="m146.25,114.799c2.944,0 5.889,0 8.833,0 1.935,0 1.935-3 0-3-2.944,0-5.889,0-8.833,0-1.935,0-1.935,3 0,3z"/>
<path d="m129.25,114.799c2.944,0 5.889,0 8.833,0 1.935,0 1.935-3 0-3-2.944,0-5.889,0-8.833,0-1.935,0-1.935,3 0,3z"/>
<path d="m112.25,114.799c2.944,0 5.889,0 8.833,0 1.935,0 1.935-3 0-3-2.944,0-5.889,0-8.833,0-1.935,0-1.935,3 0,3z"/>
<path d="m265.25,114.799c2.944,0 5.889,0 8.833,0 1.935,0 1.935-3 0-3-2.944,0-5.889,0-8.833,0-1.935,0-1.935,3 0,3z"/>
<path d="m223.388,288.417c22.579-32.703 45.159-65.406 67.738-98.109 5.504-7.972-7.529-15.41-12.99-7.5-22.579,32.703-45.159,65.406-67.738,98.109-5.504,7.972 7.529,15.41 12.99,7.5z"/>
<path d="m220.643,278.172c-9.786-7.022-19.571-14.045-29.357-21.067-3.326-2.387-8.354-.532-10.245,2.745-2.194,3.8-.573,7.864 2.745,10.245 9.786,7.022 19.571,14.045 29.357,21.067 3.326,2.387 8.354,.532 10.245-2.745 2.194-3.8 .573-7.864-2.745-10.245z"/>
</g>
</svg>
