<svg xmlns="http://www.w3.org/2000/svg" viewBox="20 20 321 321">
<g fill="#fff">
<path d="m276.033,227.524c-.264,21.84-14.327,41.07-35.273,47.551-20.997,6.497-44.063-2.393-55.993-20.611-12.03-18.37-9.941-43.151 4.399-59.6 14.372-16.485 38.711-21.485 58.468-12.16 17.335,8.183 28.17,25.791 28.399,44.82 .117,9.678 15.12,9.774 15.004,.107-.285-23.601-12.93-45.152-33.556-56.708-20.663-11.576-46.938-10.132-66.614,2.754-19.622,12.85-30.717,36.129-28.741,59.425 1.966,23.186 16.774,44.003 38.044,53.442 20.025,8.888 43.533,6.932 61.856-5.067 18.09-11.847 28.75-32.366 29.01-53.847 .118-9.69-14.886-9.764-15.003-.106z"/>
<path d="m191.411,273.221c26.912-26.912 53.824-53.824 80.737-80.736 6.835-6.835-3.813-17.403-10.666-10.551-26.912,26.912-53.824,53.824-80.737,80.736-6.835,6.835 3.813,17.403 10.666,10.551z"/>
<path d="m106.147,125.746c-24.31,24.903-24.31,64.6 0,89.502 3.158,3.234 8.104-1.719 4.95-4.949-21.646-22.174-21.646-57.429 0-79.603 3.154-3.231-1.792-8.184-4.95-4.95z"/>
<path d="m94.006,114.561c-30.503,31.089-30.501,81.123 .001,112.211 3.166,3.227 8.112-1.727 4.95-4.949-27.838-28.372-27.839-73.939-.001-102.312 3.163-3.224-1.784-8.177-4.95-4.95z"/>
<path d="m271.92,188.337c6.111-22.287 .022-45.71-16.093-62.253-3.154-3.238-8.1,1.716-4.949,4.95 14.395,14.776 19.746,35.551 14.292,55.441-1.195,4.362 5.558,6.21 6.75,1.862z"/>
<path d="m283.183,205.479c14.458-30.599 8.509-66.715-15.215-90.919-3.163-3.228-8.11,1.725-4.949,4.95 21.391,21.824 27.216,54.719 14.119,82.436-1.917,4.058 4.117,7.613 6.045,3.533z"/>
<path d="m171.583,203.578c-5.626,0-20.29,2.836-20.061-5.738 .193-7.236 3.955-15.095 6.399-21.786 2.641-7.227 5.437-14.542 6.459-22.211 .677-5.079 3.232-9.919 5.996-14.16 1.973-3.028 2.672-3.024 6.208-3.024 2.887,0 9.745-1.176 11.716,.612 3.671,3.332 5.979,9.166 7.399,13.79 .883,2.87 1.05,5.973 1.74,8.901 1.116,4.733 2.828,9.335 4.479,13.901 1.522,4.21 8.289,2.394 6.75-1.861-1.855-5.13-3.623-10.269-4.876-15.584-.812-3.439-1.08-6.749-2.321-10.079-2.083-5.586-5.322-12.832-10.753-15.918-3.298-1.875-8.661-.76-12.265-.76-3.387,0-6.879-.583-9.735,1.553-5.198,3.886-8.215,11.134-10.25,17.085-1.153,3.373-1.336,7.046-2.196,10.505-1.17,4.705-2.878,9.281-4.532,13.832-1.679,4.621-3.379,9.228-4.823,13.929-1.267,4.124-2.971,9.334-2.311,13.693 1.989,13.144 17.38,10.321 26.975,10.321 4.516-.001 4.516-7.001 .002-7.001z"/>
</g>
<path fill="none" stroke="#fff" stroke-width="10" d="m232.578,282.916c-.74,2.555-3.063,4.418-5.812,4.418h-92.89c-3.346,0-6.058-2.76-6.058-6.167v-200.096c0-3.406 2.712-6.167 6.058-6.167h92.89c3.346,0 6.058,2.761 6.058,6.167v92.096"/>
<path fill="#fff" d="m129.818,185.922c3.333,0 6.667,0 10,0 6.449,0 6.449-10 0-10-3.333,0-6.667,0-10,0-6.448,0-6.448,10 0,10z"/>
<path fill="none" stroke="#fff" stroke-width="10" d="m191.083,274.256h-57.265c-3.313,0-6,2.686-6,6v.666c0,3.313 2.687,6 6,6h72.014 19.32c3.313,0 6-2.687 6-6"/>
<path fill="#fff" d="m129.822,186.332c3.338,0 6.676,0 10.014,0 4.514,0 4.514-7 0-7-3.338,0-6.676,0-10.014,0-4.514,0-4.514,7 0,7z"/>
</svg>
