<svg xmlns="http://www.w3.org/2000/svg" viewBox="20 20 321 321">
<g fill="none" stroke="#fff" stroke-width="10">
<path d="m212.111,283.262c0,2.023-1.789,3.664-3.992,3.664h-129.284c-2.204,0-3.992-1.641-3.992-3.664v-129.94c0-2.024 1.788-3.664 3.992-3.664h129.284c2.203,0 3.992,1.64 3.992,3.664v129.94z"/>
<path d="m125.648,220.314c0,.08-.07,.145-.156,.145h-5.057c-.086,0-.156-.064-.156-.145v-5.082c0-.08 .07-.144 .156-.144h5.057c.086,0 .156,.063 .156,.144v5.082z"/>
<path d="m167.049,220.314c0,.08-.07,.145-.156,.145h-5.057c-.086,0-.156-.064-.156-.145v-5.082c0-.08 .07-.144 .156-.144h5.057c.086,0 .156,.063 .156,.144v5.082z"/>
<path d="m146.19,230.987c0,.079-.07,.144-.156,.144h-5.058c-.086,0-.156-.064-.156-.144v-5.083c0-.08 .07-.145 .156-.145h5.058c.086,0 .156,.064 .156,.145v5.083z"/>
</g>
<g fill="#fff">
<path d="m173.253,238.715c-17.228,0-34.455,0-51.682,0-2.642,0-5.283,0-7.924,0-.208,0 1.832,.825 .98,.15-1.772-1.406-3.365-3.06-4.954-4.664-6.201-6.26-12.024-12.928-17.75-19.621 0,2.356 0,4.714 0,7.07 3.056-3.651 6.17-7.255 9.316-10.828 4.018-4.564 9.296-11.166 13.569-14.115 .88-.607-1.887,.242-1.311,.242 .495,0 .989,0 1.483,0 2.197,0 4.394,0 6.59,0 7.235,0 14.471,0 21.707,0 6.993,0 13.987,0 20.98,0 2.313,0 4.626,0 6.939,0 .571,0 1.141,0 1.711,0 1.182,0-2.144-.842-1.162-.238 4.07,2.503 9.188,9.268 12.909,13.497 3.382,3.845 6.709,7.741 9.978,11.683 0-2.356 0-4.714 0-7.07-3.372,3.904-6.811,7.753-10.291,11.562-2.64,2.889-5.323,5.739-8.09,8.507-1.099,1.099-2.228,2.167-3.389,3.2-.994,.884-1.444,.878-.938,.805-6.362,.917-3.646,10.552 2.658,9.643 2.44-.352 4.672-2.742 6.393-4.316 2.939-2.687 5.662-5.622 8.375-8.531 4.21-4.514 8.319-9.126 12.353-13.798 1.91-2.212 1.84-4.853 0-7.07-3.483-4.202-7.04-8.345-10.645-12.442-4.346-4.939-8.891-10.997-14.576-14.492-2.86-1.759-7.649-.937-10.796-.937-7.47,0-14.94,0-22.41,0s-14.94,0-22.41,0c-3.431,0-7.625-.662-10.796,.934-5.681,2.86-10.452,9.745-14.575,14.368-3.614,4.052-7.161,8.165-10.645,12.329-1.855,2.218-1.894,4.856 0,7.07 5.922,6.925 11.967,13.784 18.38,20.259 2.552,2.577 6.083,6.806 10.07,6.806 2.078,0 4.157,0 6.235,0 17.905,0 35.811,0 53.716,0 6.451-.003 6.451-10.003 .002-10.003z"/>
<path d="m285.375,125.541c-.513,8.886-9.127,7.96-15.471,7.96-7.75,0-15.501,0-23.252,0-5.376,0-13.058,1.416-16.638-3.583-2.707-3.781-1.306-11.851-1.306-16.128 0-7.665 0-15.33 0-22.995 0-5.901-.268-13.961 8.083-13.961 12.596,0 25.19,0 37.785,0 5.227,0 10.798,1.603 10.798,8.085 0,3.875 0,7.75 0,11.626 .001,9.664 .001,19.33 .001,28.996 0,4.514 7,4.514 7,0 0-12.253 0-24.505 0-36.758 0-6.784-1.089-12.417-7.05-16.687-4.412-3.16-11.093-2.262-16.22-2.262-7.768,0-15.535,0-23.303,0-5.455,0-10.815-.524-15.94,1.643-6.807,2.878-8.153,10.219-8.153,16.71 0,7.289 0,14.578 0,21.867 0,7.144-1.202,15.564 1.643,22.293 3.743,8.856 13.78,8.154 21.626,8.154 9.482,0 18.966,0 28.449,0 3.009,0 5.848,.074 8.783-.793 6.275-1.854 9.809-7.985 10.165-14.167 .26-4.512-6.741-4.487-7,0z"/>
<path d="m253.719,86.626c0,12.361 0,24.722 0,37.083 0,4.514 7,4.514 7,0 0-12.361 0-24.722 0-37.083 0-4.514-7-4.514-7,0z"/>
</g>
</svg>
