<svg xmlns="http://www.w3.org/2000/svg" viewBox="20 20 321 321">
<g fill="#fff">
<path d="m146.817,288.209c25.825-37.403 51.649-74.807 77.474-112.209 22.049-31.934 44.097-63.869 66.146-95.803 5.504-7.972-7.529-15.41-12.99-7.5-25.824,37.403-51.649,74.806-77.474,112.209-22.048,31.935-44.097,63.868-66.146,95.803-5.504,7.972 7.529,15.41 12.99,7.5z"/>
<path d="m144.072,277.964c-20.748-14.89-41.497-29.778-62.245-44.668-3.326-2.387-8.353-.532-10.245,2.745-2.194,3.8-.573,7.864 2.745,10.245 20.748,14.89 41.497,29.778 62.245,44.668 3.326,2.387 8.353,.532 10.245-2.745 2.195-3.8 .574-7.864-2.745-10.245z"/>
</g>
</svg>
