<svg xmlns="http://www.w3.org/2000/svg" viewBox="20 20 321 321">
<path fill="none" stroke="#fff" stroke-width="10" d="m95.154,96.12c.703,0 1.272,.57 1.272,1.272v31.814c0,.703-.569,1.272-1.272,1.272h-5.939c-.703,0-1.272-.569-1.272-1.272v-31.814c0-.703 .57-1.272 1.272-1.272h5.939z"/>
<path fill="#fff" d="m96.426,104.125c11.828,.637 11.828,17.712 0,18.35-4.489,.242-4.513,7.243 0,7 9.146-.493 15.682-7.029 16.175-16.175 .492-9.126-7.769-15.722-16.175-16.175-4.513-.244-4.489,6.758 0,7z"/>
<g fill="none" stroke="#fff" stroke-width="10">
<path d="m85.977,96.12c1.086,0 1.966,.88 1.966,1.966v49.162c0,1.086-.88,1.966-1.966,1.966h-9.177c-1.086,0-1.966-.88-1.966-1.966v-49.162c0-1.086 .88-1.966 1.966-1.966h9.177z"/>
<path d="m285.711,96.12c.703,0 1.272,.57 1.272,1.272v31.814c0,.703-.569,1.272-1.272,1.272h-5.938c-.702,0-1.272-.569-1.272-1.272v-31.814c0-.703 .57-1.272 1.272-1.272h5.938z"/>
</g>
<g fill="#fff">
<path d="m180.25,114.799c2.944,0 5.889,0 8.833,0 1.935,0 1.935-3 0-3-2.944,0-5.889,0-8.833,0-1.935,0-1.935,3 0,3z"/>
<path d="m163.25,114.799c2.944,0 5.889,0 8.833,0 1.935,0 1.935-3 0-3-2.944,0-5.889,0-8.833,0-1.935,0-1.935,3 0,3z"/>
<path d="m146.25,114.799c2.944,0 5.889,0 8.833,0 1.935,0 1.935-3 0-3-2.944,0-5.889,0-8.833,0-1.935,0-1.935,3 0,3z"/>
<path d="m129.25,114.799c2.944,0 5.889,0 8.833,0 1.935,0 1.935-3 0-3-2.944,0-5.889,0-8.833,0-1.935,0-1.935,3 0,3z"/>
<path d="m112.25,114.799c2.944,0 5.889,0 8.833,0 1.935,0 1.935-3 0-3-2.944,0-5.889,0-8.833,0-1.935,0-1.935,3 0,3z"/>
<path d="m144.725,286.761c23.711-41.068 47.422-82.138 71.133-123.206 .515-.893 1.03-1.785 1.546-2.678-2.878,0-5.757,0-8.635,0 23.711,41.069 47.422,82.137 71.134,123.207 .515,.893 1.03,1.785 1.546,2.678 1.439-2.508 2.878-5.016 4.317-7.523-47.422,0-94.844,0-142.266,0-1.031,0-2.062,0-3.092,0-6.449,0-6.449,10 0,10 47.422,0 94.844,0 142.266,0 1.031,0 2.062,0 3.093,0 3.806,0 6.211-4.243 4.317-7.523-23.711-41.069-47.422-82.138-71.134-123.206-.515-.893-1.03-1.786-1.546-2.678-1.873-3.244-6.762-3.244-8.635,0-23.711,41.069-47.422,82.137-71.132,123.206-.516,.894-1.031,1.786-1.546,2.679-3.232,5.592 5.411,10.625 8.634,5.044z"/>
<path d="m208.175,195.157c0,14.896 0,29.794 0,44.69 0,6.448 10,6.448 10,0 0-14.896 0-29.794 0-44.69 0-6.448-10-6.448-10,0z"/>
<path d="m208.175,260.003c0,1.694 0,3.388 0,5.082 0,2.726 2.274,5 5,5s5-2.274 5-5c0-1.694 0-3.388 0-5.082 0-2.726-2.274-5-5-5s-5,2.274-5,5z"/>
<path d="m193.357,77.728c-13.671,23.126-27.342,46.252-41.013,69.378-3.29,5.564 5.357,10.592 8.635,5.047 13.671-23.126 27.342-46.252 41.013-69.378 3.289-5.564-5.356-10.592-8.635-5.047z"/>
<path d="m210.272,77.728c-13.671,23.126-27.342,46.252-41.013,69.378-3.29,5.564 5.357,10.592 8.635,5.047 13.671-23.126 27.342-46.252 41.013-69.378 3.289-5.564-5.356-10.592-8.635-5.047z"/>
</g>
</svg>
