<svg xmlns="http://www.w3.org/2000/svg" viewBox="20 20 321 321">
<g fill="none" stroke="#fff" stroke-width="10">
<path d="m286.982,281.264c0,3.127-2.763,5.662-6.17,5.662h-199.8c-3.407,0-6.169-2.535-6.169-5.662v-200.816c0-3.127 2.762-5.662 6.169-5.662h199.8c3.407,0 6.17,2.535 6.17,5.662v200.816z"/>
<path d="m159.779,130.438c0,.049-.043,.089-.097,.089h-3.126c-.054,0-.097-.04-.097-.089v-3.143c0-.048 .043-.088 .097-.088h3.126c.054,0 .097,.04 .097,.088v3.143z"/>
<path d="m206.02,130.438c0,.049-.044,.089-.097,.089h-3.126c-.054,0-.098-.04-.098-.089v-3.143c0-.048 .044-.088 .098-.088h3.126c.053,0 .097,.04 .097,.088v3.143z"/>
<path d="m182.703,143.632c0,.049-.044,.089-.098,.089h-3.125c-.053,0-.097-.04-.097-.089v-3.142c0-.049 .043-.088 .097-.088h3.125c.054,0 .098,.04 .098,.088v3.142z"/>
</g>
<path fill="#fff" d="m212.334,151.067c-18.144,0-36.287,0-54.431,0-2.749,0-5.497,0-8.246,0 .404,0 1.913,.92 .626-.132-1.769-1.447-3.378-3.102-4.983-4.724-6.5-6.569-12.61-13.561-18.615-20.583 0,2.357 0,4.714 0,7.071 3.236-3.867 6.534-7.683 9.867-11.467 4.217-4.788 9.769-11.756 14.286-14.819 .912-.618-2.271,.252-1.18,.252 .541,0 1.081,0 1.622,0 2.448,0 4.896,0 7.343,0 7.569,0 15.139,0 22.708,0 7.238,0 14.476,0 21.714,0 2.317,0 4.634,0 6.951,0 .611,0 1.223,0 1.834,0 1.536,0-1.909-.792-1.024-.264 .179,.106 1.152,.948 1.943,1.685 1.181,1.101 2.303,2.266 3.423,3.429 2.95,3.064 5.773,6.252 8.58,9.448 3.466,3.947 6.878,7.944 10.231,11.988 0-2.357 0-4.714 0-7.071-3.557,4.119-7.184,8.178-10.855,12.195-2.878,3.147-5.802,6.255-8.829,9.259-1.092,1.083-2.214,2.135-3.369,3.151-1.005,.884-1.409,.826-.924,.759-6.364,.887-3.646,10.521 2.658,9.643 2.424-.338 4.653-2.699 6.371-4.253 3.196-2.892 6.142-6.077 9.078-9.228 4.409-4.729 8.716-9.561 12.94-14.455 1.91-2.212 1.84-4.853 0-7.071-7.782-9.387-15.654-20.303-25.499-27.613-2.823-2.097-6.234-1.602-9.55-1.602-6.908,0-13.816,0-20.725,0-12.254,0-24.508,0-36.763,0-5.026,0-9.482,6.012-12.58,9.281-5.266,5.558-10.272,11.369-15.23,17.201-.7,.824-1.399,1.65-2.093,2.479-1.855,2.218-1.894,4.857 0,7.071 6.201,7.25 12.531,14.433 19.243,21.216 2.636,2.665 6.347,7.15 10.475,7.15 2.184,0 4.368,0 6.552,0 18.816,0 37.633,0 56.45,0 6.449,.004 6.449-9.996 .001-9.996z"/>
<g fill="none" stroke="#fff" stroke-width="10">
<path d="m147.628,224.635c.042-.023 .099-.007 .125,.039l1.563,2.708c.027,.046 .014,.104-.029,.128l-2.721,1.571c-.042,.024-.098,.007-.125-.04l-1.563-2.707c-.027-.046-.014-.104 .028-.127l2.722-1.572z"/>
<path d="m124.508,184.59c.042-.024 .099-.006 .125,.039l1.563,2.708c.027,.046 .014,.104-.028,.128l-2.722,1.571c-.042,.024-.098,.007-.125-.04l-1.563-2.707c-.026-.045-.014-.104 .028-.128l2.722-1.571z"/>
<path d="m147.593,198.186c.042-.025 .099-.006 .125,.039l1.563,2.707c.027,.047 .014,.104-.029,.129l-2.721,1.57c-.042,.025-.099,.008-.125-.039l-1.563-2.707c-.027-.046-.014-.104 .028-.129l2.722-1.57z"/>
</g>
<path fill="#fff" d="m139.229,168.83c9.072,15.713 18.144,31.426 27.215,47.139 1.375,2.38 2.749,4.761 4.123,7.141-.214-.37-.181-2.07-.432-.535-.368,2.256-.997,4.477-1.599,6.678-2.439,8.914-5.439,17.701-8.517,26.413 2.05-1.164 4.1-2.328 6.15-3.492-4.967-.869-9.921-1.817-14.864-2.812-6.232-1.254-15.129-2.599-19.965-4.943-.998-.484 1.288,1.778 .749,.845-.27-.468-.541-.937-.811-1.404-1.224-2.12-2.448-4.239-3.671-6.359-3.785-6.556-7.569-13.111-11.354-19.666-3.619-6.269-7.238-12.536-10.857-18.805-1.159-2.007-2.317-4.014-3.476-6.021-.305-.529-.611-1.059-.917-1.588-.767-1.328 .281,2.059 .296,1.016 .015-1.015 1.121-5.001 1.738-7.142 1.179-4.087 2.528-8.126 3.892-12.154 1.685-4.976 3.441-9.929 5.267-14.855-2.05,1.164-4.1,2.328-6.15,3.492 5.345,1.021 10.674,2.132 15.988,3.303 4.165,.918 8.318,1.897 12.434,3.017 1.484,.404 2.956,.849 4.414,1.342 1.253,.423 1.411,.764 1.129,.402 3.962,5.082 10.986-2.05 7.071-7.071-1.51-1.937-4.644-2.695-6.858-3.408-4.103-1.322-8.333-2.28-12.53-3.249-6.3-1.454-12.637-2.767-18.988-3.979-2.861-.546-5.144,.777-6.15,3.492-4.247,11.457-9.761,23.745-11.173,35.95-.403,3.485 1.747,6.205 3.4,9.068 3.454,5.982 6.908,11.966 10.362,17.948 6.127,10.612 12.254,21.226 18.381,31.839 2.499,4.327 9.928,5.18 14.28,6.221 7.446,1.781 14.981,3.212 22.511,4.589 1.064,.195 2.129,.387 3.194,.573 2.838,.496 5.175-.732 6.15-3.492 3.179-8.996 6.234-18.069 8.752-27.273 .997-3.644 3.027-9.108 .95-12.705-1.092-1.892-2.184-3.783-3.276-5.675-9.408-16.296-18.816-32.591-28.225-48.887-3.22-5.582-11.863-.548-8.633,5.047z"/>
<g fill="none" stroke="#fff" stroke-width="10">
<path d="m214.174,224.635c-.043-.023-.1-.007-.126,.039l-1.563,2.708c-.026,.046-.014,.104 .029,.128l2.721,1.571c.043,.024 .099,.007 .125-.04l1.563-2.707c.026-.046 .014-.104-.028-.127l-2.721-1.572z"/>
<path d="m237.293,184.59c-.042-.024-.099-.006-.125,.039l-1.563,2.708c-.027,.046-.014,.104 .027,.128l2.723,1.571c.041,.024 .098,.007 .125-.04l1.563-2.707c.026-.045 .014-.104-.028-.128l-2.722-1.571z"/>
<path d="m214.209,198.186c-.043-.025-.1-.006-.126,.039l-1.563,2.707c-.026,.047-.014,.104 .029,.129l2.721,1.57c.043,.025 .099,.008 .125-.039l1.563-2.707c.027-.046 .015-.104-.027-.129l-2.722-1.57z"/>
</g>
<path fill="#fff" d="m213.938,163.783c-9.408,16.296-18.816,32.591-28.225,48.887-1.092,1.892-2.185,3.783-3.276,5.675-2.085,3.612-.027,9.044 .95,12.705 2.459,9.214 5.576,18.285 8.753,27.273 .976,2.76 3.313,3.988 6.15,3.492 12.148-2.125 25.468-3.65 36.843-8.582 3.027-1.312 4.473-5.105 6.014-7.775 3.519-6.094 7.037-12.188 10.556-18.282 5.98-10.358 11.961-20.717 17.941-31.075 2.564-4.442-.703-11.759-2.038-16.13-2.198-7.199-4.713-14.306-7.275-21.383-.357-.988-.718-1.976-1.083-2.961-1.006-2.715-3.289-4.039-6.15-3.492-6.016,1.148-12.013,2.405-17.987,3.751-4.298,.968-8.589,1.997-12.812,3.254-2.407,.717-5.947,1.538-7.578,3.631-3.914,5.021 3.109,12.153 7.07,7.071-.27,.346-.19,.085 .539-.192 1.364-.519 2.776-.918 4.179-1.322 4.044-1.165 8.156-2.101 12.261-3.025 5.641-1.271 11.307-2.441 16.986-3.526-2.05-1.164-4.101-2.328-6.15-3.492 1.711,4.616 3.349,9.259 4.946,13.915 1.289,3.759 2.528,7.535 3.688,11.335 .506,1.656 .979,3.322 1.422,4.996 .186,.699 .352,1.403 .514,2.108 .047,.2 .416,2.419 .298,1.392 .197,1.706 .471-.865 .485-.89-.234,.406-.469,.812-.703,1.217-1.163,2.016-2.327,4.031-3.491,6.047-3.738,6.476-7.478,12.952-11.216,19.428-3.661,6.341-7.323,12.683-10.984,19.024-1.212,2.099-2.423,4.197-3.635,6.296-.34,.589-.68,1.177-1.02,1.766-.771,1.336 .304-.301 .866-.677-4.037,2.703-13.641,3.758-19.289,4.918-5.269,1.082-10.557,2.086-15.854,3.013 2.05,1.164 4.101,2.328 6.15,3.492-2.979-8.432-5.818-16.931-8.271-25.531-.656-2.299-1.261-4.614-1.735-6.959-.396-1.957 .132-1.232-.613,.058 1.398-2.422 2.796-4.843 4.193-7.264 9.072-15.713 18.144-31.426 27.216-47.139 3.23-5.595-5.413-10.629-8.635-5.047z"/>
</svg>
