<svg xmlns="http://www.w3.org/2000/svg" viewBox="20 20 321 321">
<path fill="#fff" d="m226.554,277.086c-24.971,0-49.942,0-74.914,0-4.93,0-9.86,0-14.79,0-.76,0-1.521,0-2.281,0 4.163,0 6.204,2.735 6.996,5.223-.043-.136-.072-.276-.104-.415-.118-.518-.194-1.046-.274-1.571-.326-2.138 .006,.155-.06-.37-.108-.869-.206-1.74-.303-2.61-.27-2.434-.508-4.871-.741-7.31-.609-6.37-1.147-12.748-1.675-19.125-2.489-30.083-4.63-60.195-6.738-90.307-.272-3.883-.542-7.766-.81-11.649-.05-.725-.1-1.449-.149-2.173-.206-3.006-6.271,.724-3.41,.724 10.267,0 20.534,0 30.801,0 25.352,0 50.705,0 76.057,0 .243,0-3.672-3.741-3.86-.974-.011,.149-.021,.299-.031,.449-.071,1.042-.143,2.083-.215,3.125-.299,4.334-.602,8.668-.905,13.001-1.017,14.498-2.058,28.994-3.13,43.488-1.256,16.981-2.542,33.962-3.988,50.929-.519,6.077-1.055,12.153-1.691,18.22-.115,1.098-.237,2.195-.366,3.292-.082,.702-.525,3.915-.105,.961-.08,.565-.171,1.129-.28,1.689-.398,2.032 1.236-2.008 1.609-2.379 1.13-.656 2.261-1.313 3.391-1.969-.009,.003-.018,.006-.027,.01-9.086,3.145-5.267,17.655 3.883,14.488 8.209-2.841 7.016-16.8 7.666-23.774 1.35-14.481 2.463-28.986 3.571-43.488 1.946-25.456 3.766-50.922 5.518-76.393 .43-6.254-1.952-13.882-8.809-15.411-2.662-.594-5.629-.267-8.324-.267-13.513,0-27.026,0-40.539,0-15.289,0-30.577,0-45.865,0-4.348,0-8.695,0-13.042,0-7.365,0-12.379,4.915-12.831,12.513-.408,6.86 .777,14.041 1.258,20.876 1.048,14.891 2.121,29.779 3.229,44.666 1.166,15.66 2.361,31.319 3.695,46.966 .792,9.294 1.169,18.91 2.967,28.083 1.43,7.294 8.73,6.487 14.326,6.487 10.407,0 20.814,0 31.221,0 17.988,0 35.976,0 53.964,0 9.683-.001 9.769-15.005 .105-15.005z"/>
<g fill="none" stroke="#fff">
<path stroke-width="8.151" d="m204.777,93.603c.36,1.789-1.004,3.572-3.05,3.983l-39.894,8.028c-2.043,.411-3.993-.706-4.353-2.494l-3.259-16.196c-.36-1.788 1.005-3.572 3.049-3.983l39.894-8.028c2.043-.411 3.992,.706 4.353,2.494l3.26,16.196z"/>
<g stroke-width="10">
<path d="m173.003,202.639"/>
<path d="m186.768,188.875"/>
<path d="m173.003,188.875"/>
</g>
</g>
<g fill="#fff">
<path d="m124.423,118.953c38.926-8.156 77.852-16.312 116.776-24.468 9.662-2.024 5.653-16.783-3.957-14.77-38.926,8.156-77.851,16.312-116.776,24.468-9.662,2.025-5.653,16.783 3.957,14.77z"/>
<path d="m172.946,162.501c.111,33.709 .222,67.418 .333,101.128 .032,9.685 15.035,9.772 15.003,.107-.111-33.709-.223-67.418-.333-101.127-.032-9.684-15.035-9.772-15.003-.108z"/>
<path d="m203.664,162.501c-1.055,33.709-2.109,67.418-3.164,101.128-.303,9.693 14.702,9.75 15.004,.107 1.055-33.709 2.109-67.418 3.164-101.127 .303-9.693-14.702-9.749-15.004-.108z"/>
<path d="m142.665,162.501c1.131,33.709 2.262,67.418 3.393,101.128 .324,9.657 15.328,9.773 15.003,.107-1.131-33.709-2.262-67.418-3.393-101.127-.324-9.657-15.328-9.773-15.003-.108z"/>
</g>
</svg>
