<svg xmlns="http://www.w3.org/2000/svg" viewBox="20 20 321 321">
<g fill="none" stroke="#fff" stroke-width="10">
<path d="m212.221,283.259c0,2.025-1.789,3.667-3.994,3.667h-129.389c-2.207,0-3.995-1.642-3.995-3.667v-130.045c0-2.025 1.789-3.667 3.995-3.667h129.388c2.205,0 3.994,1.642 3.994,3.667v130.045z"/>
<path d="m186.965,258.728c0,1.268-1.118,2.295-2.5,2.295h-80.971c-1.381,0-2.5-1.027-2.5-2.295v-81.382c0-1.268 1.119-2.295 2.5-2.295h80.971c1.382,0 2.5,1.027 2.5,2.295v81.382z"/>
<path d="m126.805,221.416c0,.094-.082,.169-.184,.169h-5.954c-.102,0-.185-.075-.185-.169v-5.984c0-.094 .083-.169 .185-.169h5.954c.102,0 .184,.075 .184,.169v5.984z"/>
<path d="m145.965,260.509c0,.036-.07,.065-.157,.065h-5.093c-.086,0-.157-.029-.157-.065v-2.309c0-.036 .07-.065 .157-.065h5.093c.087,0 .157,.029 .157,.065v2.309z"/>
</g>
<g fill="#fff">
<path d="m102.627,191.654-.084-15.292 15.293,.083z"/>
<path d="m107.627,191.654c-.028-5.098-.056-10.194-.083-15.292-1.667,1.667-3.333,3.333-5,5 5.098,.027 10.195,.055 15.292,.083-1.179-2.846-2.357-5.691-3.536-8.536-5.069,5.07-10.139,10.14-15.209,15.21-4.563,4.563 2.508,11.635 7.071,7.07 5.069-5.069 10.139-10.14 15.209-15.209 3.098-3.098 .816-8.512-3.536-8.536-5.098-.027-10.195-.055-15.292-.083-2.714-.015-5.015,2.285-5,5 .028,5.098 .056,10.194 .083,15.292 .036,6.449 10.036,6.451 10.001,.001z"/>
<path d="m170.707,176.445 15.291-.083-.082,15.292z"/>
<path d="m170.707,181.445c5.097-.028 10.194-.056 15.292-.083-1.667-1.667-3.333-3.333-5-5-.027,5.098-.055,10.194-.082,15.292 2.845-1.179 5.69-2.357 8.535-3.535-5.069-5.07-10.139-10.14-15.209-15.21-4.564-4.563-11.635,2.507-7.071,7.071 5.07,5.069 10.14,10.14 15.21,15.209 3.098,3.099 8.512,.816 8.535-3.535 .027-5.098 .055-10.194 .082-15.292 .015-2.715-2.285-5.015-5-5-5.097,.027-10.194,.055-15.292,.083-6.447,.034-6.451,10.034 0,10z"/>
<path d="m185.268,244.524 .084,15.292-15.293-.082z"/>
<path d="m180.268,244.524c.028,5.098 .056,10.194 .084,15.292 1.667-1.667 3.333-3.333 5-5-5.098-.027-10.195-.055-15.292-.082 1.179,2.845 2.357,5.69 3.536,8.535 5.069-5.069 10.139-10.14 15.208-15.21 4.563-4.563-2.507-11.635-7.07-7.07-5.07,5.069-10.139,10.14-15.209,15.21-3.098,3.098-.816,8.512 3.536,8.535 5.098,.027 10.195,.055 15.292,.082 2.715,.015 5.015-2.285 5-5-.028-5.098-.056-10.194-.084-15.292-.037-6.446-10.037-6.45-10.001-0z"/>
<path d="m117.835,259.733-15.292,.083 .083-15.292z"/>
<path d="m117.835,254.733c-5.097,.027-10.195,.056-15.292,.083 1.667,1.667 3.333,3.333 5,5 .028-5.098 .055-10.194 .083-15.292-2.845,1.179-5.69,2.357-8.536,3.535 5.07,5.07 10.14,10.14 15.209,15.209 4.564,4.564 11.635-2.507 7.071-7.07-5.07-5.07-10.14-10.14-15.209-15.209-3.098-3.099-8.512-.816-8.536,3.535-.028,5.098-.055,10.194-.083,15.292-.015,2.715 2.286,5.015 5,5 5.097-.027 10.195-.056 15.292-.083 6.448-.035 6.451-10.035 .001-10z"/>
</g>
<g fill="none" stroke="#fff" stroke-width="10">
<path d="m166.956,221.416c0,.094-.083,.169-.184,.169h-5.955c-.101,0-.184-.075-.184-.169v-5.984c0-.094 .083-.169 .184-.169h5.955c.101,0 .184,.075 .184,.169v5.984z"/>
<path d="m146.181,177.618c0,.036-.07,.065-.157,.065h-5.092c-.086,0-.157-.03-.157-.065v-2.308c0-.036 .071-.066 .157-.066h5.092c.087,0 .157,.03 .157,.066v2.308z"/>
</g>
<g fill="#fff">
<path d="m285.199,125.541c-.513,8.886-9.127,7.96-15.471,7.96-7.751,0-15.501,0-23.252,0-5.377,0-13.059,1.416-16.639-3.583-2.708-3.781-1.307-11.851-1.307-16.128 0-7.665 0-15.33 0-22.995 0-5.902-.267-13.961 8.085-13.961 12.595,0 25.189,0 37.784,0 5.227,0 10.799,1.603 10.799,8.085 0,3.875 0,7.75 0,11.626 .001,9.664 .001,19.33 .001,28.996 0,4.514 7,4.514 7,0 0-12.253 0-24.505 0-36.758 0-6.784-1.089-12.417-7.051-16.687-4.412-3.16-11.093-2.262-16.219-2.262-7.768,0-15.535,0-23.303,0-5.455,0-10.816-.524-15.941,1.643-6.808,2.878-8.154,10.218-8.154,16.71 0,7.289 0,14.578 0,21.867 0,7.144-1.202,15.564 1.643,22.293 3.744,8.856 13.781,8.154 21.627,8.154 9.483,0 18.966,0 28.449,0 3.009,0 5.848,.074 8.784-.793 6.274-1.854 9.809-7.985 10.165-14.167 .261-4.512-6.741-4.487-7,0z"/>
<path d="m253.542,86.626c0,12.361 0,24.722 0,37.083 0,4.514 7,4.514 7,0 0-12.361 0-24.722 0-37.083-0-4.514-7-4.514-7,0z"/>
</g>
</svg>
