<svg xmlns="http://www.w3.org/2000/svg" viewBox="20 20 321 321">
<g fill="none" stroke="#fff" stroke-width="10">
<path d="m286.982,281.264c0,3.127-2.763,5.662-6.17,5.662h-199.8c-3.407,0-6.169-2.535-6.169-5.662v-200.816c0-3.127 2.762-5.662 6.169-5.662h199.8c3.407,0 6.17,2.535 6.17,5.662v200.816z"/>
<path d="m152.083,184.767c0,.144-.127,.261-.284,.261h-9.195c-.157,0-.284-.117-.284-.261v-9.243c0-.144 .127-.26 .284-.26h9.195c.157,0 .284,.117 .284,.26v9.243z"/>
<path d="m220.083,184.767c0,.144-.128,.261-.284,.261h-9.195c-.156,0-.283-.117-.283-.261v-9.243c0-.144 .127-.26 .283-.26h9.195c.156,0 .284,.117 .284,.26v9.243z"/>
<path d="m185.794,204.17c0,.144-.128,.26-.284,.26h-9.195c-.157,0-.284-.116-.284-.26v-9.242c0-.145 .127-.261 .284-.261h9.195c.156,0 .284,.116 .284,.261v9.242z"/>
</g>
<path fill="#fff" d="m226.93,215.146c-24.954,0-49.909,0-74.863,0-5.053,0-10.105,0-15.158,0-.858,0-1.716,0-2.573,0 .432,0 2.222,.822 .92,.032-.788-.478-1.219-.881-2.331-1.854-11.105-9.72-20.728-21.422-30.389-32.538-1.08-1.242-2.156-2.486-3.226-3.737 0,2.357 0,4.714 0,7.071 7.863-9.4 15.909-18.67 24.257-27.643 3.656-3.93 8.357-9.531 12.32-11.72-1.32,.729-2.166,.39-.239,.39 1.8,0 3.601,0 5.401,0 27.494,0 54.987,0 82.48,0 1.017,0 2.033,0 3.05,0 .588,0 .521,.181-.573-.104-1.794-.467 .832,.744 .391,.393 4.874,3.882 9.068,8.764 13.254,13.35 7.636,8.369 15.019,16.985 22.248,25.707 0-2.357 0-4.714 0-7.071-5.275,6.111-10.655,12.135-16.106,18.089-4.201,4.591-8.465,9.129-12.888,13.507-1.63,1.612-3.298,3.187-5.027,4.691-.842,.732-.734,.66-1.549,1.23-1.319,.923-.745,.338 .601,.207-6.356,.625-6.417,10.631 0,10 4.101-.403 7.207-3.571 10.104-6.237 4.569-4.208 8.821-8.772 13.051-13.316 6.43-6.908 12.719-13.957 18.885-21.101 1.91-2.213 1.84-4.852 0-7.071-7.861-9.485-15.906-18.839-24.257-27.897-4.222-4.58-8.541-9.527-13.737-13.04-2.404-1.625-5.13-1.337-7.863-1.337-27.535,0-55.07,0-82.605,0-2.438,0-5.837-.553-8.205,.345-5.464,2.072-9.933,7.727-13.843,11.829-9.111,9.557-17.749,19.602-26.22,29.729-1.855,2.218-1.894,4.856 0,7.071 7.999,9.354 16.179,18.577 24.676,27.482 4.13,4.329 8.446,9.27 13.615,12.406 2.44,1.48 5.288,1.138 8.008,1.138 27.563,0 55.125,0 82.688,0 1.901,0 3.804,0 5.705,0 6.446-.001 6.446-10.001-.002-10.001z"/>
</svg>
