<svg xmlns="http://www.w3.org/2000/svg" viewBox="20 20 321 321">
<path fill="none" stroke="#fff" stroke-width="10" d="m280.971,207.693c-15.689-3.207-34.107-4.618-49.699-5.856-9.279-.736-42.269-.825-49.691-.835v-.002c0,0-.262,0-.747,.001-.486-.001-.749-.001-.749-.001v.002c-7.422,.01-40.412,.099-49.69,.835-15.592,1.238-34.01,2.649-49.7,5.856-3.143,.643-5.862,2.174-5.862,4.855v39.072c0,2.682 2.625,4.855 5.862,4.855h43.976c12.796-1.235 9.428-16.295 15.826-21.753 2.17-1.851 7.323-1.673 10.438-1.673 6.895,0 22.978,0 28.814,0 1.361,0 2.167,0 2.167,0 5.837,0 21.92,0 28.814,0 3.115,0 8.269-.178 10.438,1.673 6.397,5.458 3.03,20.518 15.826,21.753h43.976c3.238,0 5.862-2.174 5.862-4.855v-39.072c.001-2.681-2.719-4.212-5.861-4.855z"/>
<g fill="#fff">
<path d="m158.639,114.102c-.324,17.193-13.885,30.756-31.079,31.08-17.194,.324-30.765-14.374-31.079-31.08-.324-17.194 14.374-30.764 31.079-31.079 17.194-.323 30.764,14.373 31.079,31.079 .121,6.44 10.122,6.452 10,0-.427-22.675-18.403-40.652-41.079-41.079-22.675-.427-40.665,19.046-41.079,41.079-.427,22.675 19.046,40.665 41.079,41.08 22.675,.427 40.664-19.047 41.079-41.08 .121-6.452-9.879-6.44-10-0z"/>
<path d="m266.146,114.102c-.323,17.193-13.885,30.756-31.078,31.08-17.195,.324-30.766-14.373-31.08-31.08-.323-17.195 14.373-30.764 31.08-31.079 17.195-.323 30.764,14.373 31.078,31.079 .121,6.44 10.121,6.452 10,0-.427-22.675-18.403-40.652-41.078-41.079-22.676-.427-40.665,19.045-41.08,41.079-.427,22.676 19.047,40.665 41.08,41.08 22.675,.427 40.663-19.047 41.078-41.08 .122-6.452-9.878-6.44-10-0z"/>
<path d="m127.56,155.182c35.836,0 71.672,0 107.508,0 6.448,0 6.448-10 0-10-35.836,0-71.672,0-107.508,0-6.449,0-6.449,10 0,10z"/>
</g>
</svg>
