<svg xmlns="http://www.w3.org/2000/svg" viewBox="20 20 321 321">
<g fill="#fff">
<path stroke="#fff" d="m289.82,166.615c2.646,3.343 2.081,8.199-1.262,10.845l-32.286,25.558c-3.343,2.646-8.2,2.082-10.845-1.261l-47.322-59.78c-2.647-3.344-2.082-8.2 1.261-10.846l32.286-25.558c3.344-2.646 8.199-2.082 10.846,1.262l47.322,59.78z"/>
<path d="m162.793,189.231c27.088,1.939 54.177,3.878 81.265,5.817 6.438,.461 6.394-9.542 0-10-27.088-1.939-54.177-3.878-81.265-5.817-6.438-.46-6.393,9.542 0,10z"/>
<path d="m145.615,168 14.018,16.029-14.481,15.61z"/>
<path d="m142.08,171.535c4.673,5.343 9.345,10.687 14.018,16.029 0-2.356 0-4.714 0-7.071-4.827,5.204-9.653,10.407-14.48,15.61 2.845,1.178 5.69,2.356 8.536,3.535 .154-10.547 .309-21.093 .463-31.639 .094-6.452-9.906-6.443-10,0-.154,10.546-.309,21.092-.463,31.639-.063,4.268 5.555,6.748 8.536,3.535 4.827-5.203 9.653-10.406 14.48-15.609 1.947-2.099 1.845-4.961 0-7.071-4.673-5.343-9.345-10.687-14.018-16.03-4.254-4.862-11.298,2.24-7.072,7.072z"/>
</g>
<ellipse fill="none" cx="261.924" cy="130.052" rx="17.713" ry="21.222" stroke="#fff" stroke-width="10" transform="matrix(.8558 -.5172 .5172 .8558 -29.5093 154.2245)"/>
<g fill="#fff">
<path stroke="#fff" d="m207.401,186.51 14.261-25.311 15.091,25.174z"/>
<path d="m132.422,176.711c-3.654,.209-7.308,.418-10.962,.627-4.487,.257-4.512,7.258 0,7 3.654-.209 7.308-.418 10.962-.627 4.487-.257 4.512-7.258 0-7z"/>
<path d="m95.066,181.209c-3.924,1.819-7.847,3.639-11.771,5.458-4.092,1.897-.534,7.931 3.533,6.045 3.923-1.819 7.847-3.639 11.771-5.458 4.092-1.898 .534-7.93-3.533-6.045z"/>
<path d="m77.856,195.063c-1.999,2.297-3.997,4.594-5.996,6.891-1.251,1.438-1.418,3.531 0,4.949 1.279,1.278 3.697,1.44 4.95,0 1.999-2.297 3.997-4.594 5.996-6.891 1.251-1.438 1.418-3.531 0-4.949-1.279-1.279-3.697-1.441-4.95,0z"/>
<path d="m132.35,166.699c-6.256,0-12.511,0-18.767,0-4.514,0-4.514,7 0,7 6.256,0 12.511,0 18.767,0 4.514,0 4.514-7 0-7z"/>
<path d="m99.066,169.395c-4.167,1.833-8.333,3.667-12.5,5.5-4.124,1.814-.558,7.844 3.533,6.044 4.167-1.833 8.333-3.667 12.5-5.5 4.124-1.814 .558-7.844-3.533-6.044z"/>
<path d="m77.858,179.379c-2.25,1.921-4.5,3.842-6.75,5.764-1.452,1.239-1.269,3.681 0,4.949 1.428,1.428 3.5,1.238 4.95,0 2.25-1.921 4.5-3.842 6.75-5.764 1.452-1.239 1.269-3.681 0-4.95-1.428-1.426-3.5-1.236-4.95,.001z"/>
<path d="m132.419,187.444c-5.089,1.41-10.178,2.819-15.267,4.229-4.344,1.203-2.497,7.957 1.861,6.75 5.089-1.41 10.178-2.819 15.267-4.229 4.345-1.203 2.498-7.957-1.861-6.75z"/>
<path d="m106.713,198.763c-2.639,1.684-5.278,3.367-7.918,5.051-3.792,2.42-.285,8.48 3.533,6.045 2.639-1.684 5.278-3.367 7.918-5.051 3.793-2.42 .285-8.481-3.533-6.045z"/>
<path d="m87.858,212.192c-1.833,2.166-3.667,4.333-5.5,6.5-1.231,1.455-1.432,3.518 0,4.949 1.265,1.265 3.716,1.458 4.95,0 1.833-2.166 3.667-4.333 5.5-6.5 1.231-1.455 1.432-3.518 0-4.949-1.265-1.264-3.716-1.458-4.95,0z"/>
<path d="m72.561,227.15c-.583,1.25-1.167,2.5-1.75,3.75-.807,1.729-.502,3.76 1.255,4.789 1.53,.896 3.982,.473 4.789-1.256 .583-1.25 1.167-2.5 1.75-3.75 .807-1.729 .502-3.76-1.255-4.789-1.531-.896-3.982-.472-4.789,1.256z"/>
<path d="m132.625,199.014c-6.122,2.588-12.244,5.175-18.366,7.762-4.146,1.752-.573,7.78 3.533,6.045 6.122-2.588 12.244-5.175 18.366-7.762 4.145-1.752 .573-7.781-3.533-6.045z"/>
<path d="m105.629,211.192c-2.528,2.333-5.056,4.666-7.583,7-3.323,3.067 1.639,8.006 4.95,4.949 2.528-2.333 5.056-4.666 7.583-7 3.323-3.067-1.639-8.005-4.95-4.949z"/>
<path d="m90.561,226.15c-1.667,2.333-3.333,4.667-5,7-1.111,1.556-.277,3.891 1.255,4.789 1.76,1.03 3.682,.293 4.789-1.256 1.667-2.333 3.333-4.667 5-7 1.111-1.556 .277-3.891-1.255-4.789-1.76-1.03-3.683-.292-4.789,1.256z"/>
<path d="m79.022,241.067c-.558,1.306-1.115,2.61-1.672,3.916-.388,.909-.627,1.701-.353,2.697 .241,.875 .826,1.633 1.608,2.092 1.489,.872 4.039,.5 4.789-1.256 .558-1.306 1.115-2.61 1.672-3.916 .388-.909 .627-1.701 .353-2.697-.241-.875-.826-1.633-1.608-2.092-1.49-.872-4.04-.499-4.789,1.256z"/>
<path d="m106.202,187.068c-2.907,1.161-5.815,2.321-8.723,3.482-1.77,.707-2.993,2.311-2.444,4.306 .463,1.685 2.531,3.152 4.306,2.444 2.907-1.161 5.815-2.321 8.723-3.482 1.77-.707 2.993-2.311 2.444-4.306-.464-1.684-2.531-3.152-4.306-2.444z"/>
<path d="m88.202,200.59c-2.206,1.785-4.412,3.571-6.618,5.357-1.485,1.202-1.242,3.707 0,4.949 1.454,1.454 3.469,1.199 4.95,0 2.206-1.785 4.412-3.571 6.618-5.357 1.485-1.202 1.242-3.707 0-4.949-1.454-1.454-3.469-1.199-4.95,0z"/>
<path d="m73.432,214.288c-.807,1.119-1.613,2.238-2.42,3.357-1.118,1.551-.272,3.894 1.255,4.789 1.765,1.033 3.676,.288 4.789-1.256 .807-1.119 1.613-2.238 2.42-3.357 1.118-1.551 .272-3.894-1.255-4.789-1.766-1.033-3.677-.288-4.789,1.256z"/>
<path d="m112.081,175.964c-2.604,.551-5.209,1.102-7.814,1.653-1.867,.395-2.927,2.551-2.444,4.306 .528,1.921 2.44,2.839 4.306,2.444 2.604-.551 5.209-1.102 7.814-1.653 1.867-.395 2.927-2.551 2.444-4.305-.529-1.921-2.441-2.839-4.306-2.445z"/>
</g>
</svg>
