<svg xmlns="http://www.w3.org/2000/svg" viewBox="20 20 321 321">
<g fill="#fff">
<path d="m166.338,203.984c.678,.195 .358-4.745 .358-5.707 0-5.183 0-10.365 0-15.547 0-15.465 0-30.929 0-46.394 0-14.742 0-29.484 0-44.227 0-4.28 0-8.56 0-12.839 0-.857 0-1.715 0-2.572 0-.748-1.917,.096-.76,.096 1.964,0 3.929,0 5.893,0 2.566,0 .583-1.057 .583,.464 0,1.277 0,2.555 0,3.832 0,4.858 0,9.715 0,14.573 0,15.221 0,30.441 0,45.662 0,15.041 0,30.081 0,45.121 0,4.632 0,9.264 0,13.896 0,1.074 0,2.148 0,3.223 0,.202 0,.404 0,.606 0-.208 1.961-.312 .761-.312-1.047,0-2.094,0-3.141,0-1.542,0-3.083,0-4.625,0-4.514,0-4.514,7 0,7 5.471,0 14.005,1.379 14.005-6.688 0-2.276 0-4.553 0-6.828 0-12.766 0-25.532 0-38.297 0-26.795 0-53.59 0-80.385 0-3.786-.812-8.866-5.711-8.866-5.472,0-14.005-1.378-14.005,6.69 0,7.666 0,15.332 0,22.998 0,30.135 0,60.269 0,90.404 0,5.548-2.347,18.8 4.781,20.849 4.348,1.248 6.191-5.507 1.861-6.752z"/>
<path d="m90.93,204.302c.677,.194 .358-4.748 .358-5.708 0-5.183 0-10.364 0-15.547 0-15.464 0-30.929 0-46.393 0-14.743 0-29.485 0-44.227 0-4.28 0-8.56 0-12.839 0-.857 0-1.715 0-2.572 0-.748-1.917,.096-.76,.096 1.964,0 3.929,0 5.893,0 2.565,0 .584-1.057 .584,.464 0,1.277 0,2.555 0,3.832 0,4.857 0,9.715 0,14.572 0,15.221 0,30.441 0,45.662 0,15.04 0,30.081 0,45.121 0,4.632 0,9.264 0,13.896 0,1.074 0,2.148 0,3.223 0,.202 0,.404 0,.606 0-.207 1.96-.311 .76-.311-1.047,0-2.094,0-3.141,0-1.542,0-3.083,0-4.625,0-4.514,0-4.514,7 0,7 5.472,0 14.005,1.379 14.005-6.689 0-2.276 0-4.553 0-6.828 0-12.766 0-25.531 0-38.297 0-26.795 0-53.59 0-80.385 0-3.787-.812-8.866-5.711-8.866-5.472,0-14.005-1.378-14.005,6.69 0,7.666 0,15.332 0,22.998 0,30.135 0,60.269 0,90.403 0,5.548-2.346,18.802 4.781,20.85 4.348,1.249 6.191-5.507 1.861-6.751z"/>
<path d="m128.951,204.302c.677,.194 .358-4.748 .358-5.708 0-5.183 0-10.364 0-15.547 0-15.464 0-30.929 0-46.393 0-14.743 0-29.485 0-44.227 0-4.28 0-8.56 0-12.839 0-.857 0-1.715 0-2.572 0-.748-1.917,.096-.76,.096 1.964,0 3.929,0 5.893,0 2.565,0 .584-1.057 .584,.464 0,1.277 0,2.555 0,3.832 0,4.857 0,9.715 0,14.572 0,15.221 0,30.441 0,45.662 0,15.04 0,30.081 0,45.121 0,4.632 0,9.264 0,13.896 0,1.074 0,2.148 0,3.223 0,.202 0,.404 0,.606 0-.207 1.96-.311 .76-.311-1.047,0-2.094,0-3.141,0-1.541,0-3.083,0-4.624,0-4.514,0-4.514,7 0,7 5.472,0 14.005,1.378 14.005-6.689 0-2.276 0-4.553 0-6.828 0-12.766 0-25.531 0-38.297 0-26.795 0-53.59 0-80.385 0-3.787-.812-8.866-5.711-8.866-5.472,0-14.005-1.378-14.005,6.69 0,7.666 0,15.332 0,22.998 0,30.135 0,60.269 0,90.403 0,5.548-2.346,18.801 4.781,20.85 4.347,1.249 6.19-5.506 1.86-6.751z"/>
<path d="m86.826,192.95c0,1.222-.125,2.212-.281,2.212h-11.414c-.155,0-.281-.99-.281-2.212v-8.294c0-1.221 .126-2.211 .281-2.211h11.414c.156,0 .281,.99 .281,2.211v8.294z"/>
<path d="m83.326,192.95c-.152,.984-.087,1.133 .197,.445 1.007-.578 2.015-1.155 3.022-1.733-3.805,0-7.609,0-11.414,0 1.007,.578 2.015,1.155 3.022,1.733 .55,.874 .197-.823 .197-1.308 0-1.012 0-2.024 0-3.036 0-1.063 0-2.128 0-3.191 0-.352 0-.702 0-1.054 0-.553 .361-1.48-.197-.595-1.007,.578-2.015,1.155-3.022,1.733 3.805,0 7.609,0 11.414,0-1.007-.578-2.015-1.155-3.022-1.733-.605-.959-.197,.561-.197,1.014 0,.944 0,1.89 0,2.835 0,1.63 0,3.26 0,4.89 0,4.514 7,4.514 7,0 0-3.957 1.703-14.005-4.218-14.005-2.865,0-5.73,0-8.596,0-.794,0-1.587,0-2.381,0-3.222,0-3.718,3.242-3.781,5.711-.061,2.36 0,4.729 0,7.09 0,3.109 .155,6.916 4.218,6.916 2.865,0 5.73,0 8.596,0 .794,0 1.587,0 2.381,0 3.222,0 3.718-3.242 3.781-5.712 .116-4.516-6.885-4.506-7-0z"/>
<path d="m125.224,192.74c0,1.221-.255,2.211-.568,2.211h-23.045c-.314,0-.568-.99-.568-2.211v-8.294c0-1.222 .254-2.212 .568-2.212h23.045c.313,0 .568,.99 .568,2.212v8.294z"/>
<path d="m121.724,192.74c-.03,.148-.06,.296-.09,.444 1.007-.578 2.015-1.155 3.022-1.733-7.682,0-15.363,0-23.045,0 1.007,.578 2.015,1.155 3.022,1.733-.714-1.151-.714-8.032 0-9.184-1.007,.578-2.015,1.155-3.022,1.733 7.682,0 15.363,0 23.045,0-1.007-.578-2.015-1.155-3.022-1.733 1.097,1.772 .09,6.653 .09,8.74 0,4.514 7,4.514 7,0 0-3.073 1.058-8.876-.645-11.625-1.947-3.144-5.324-2.381-8.563-2.381-4.768,0-9.537,0-14.305,0-4.505,0-7.105,.411-7.669,5.712-.297,2.789-.909,9.12 .645,11.624 1.95,3.143 5.323,2.381 8.563,2.381 4.768,0 9.537,0 14.305,0 4.505,0 7.104-.41 7.668-5.711 .479-4.486-6.526-4.44-6.999,0z"/>
<path d="m163.139,192.846c0,1.221-.254,2.211-.568,2.211h-23.045c-.314,0-.568-.99-.568-2.211v-8.295c0-1.221 .254-2.211 .568-2.211h23.045c.313,0 .568,.99 .568,2.211v8.295z"/>
<path d="m159.639,192.846c-.03,.148-.06,.296-.09,.444 1.007-.578 2.015-1.155 3.022-1.733-7.682,0-15.363,0-23.045,0 1.007,.578 2.015,1.155 3.022,1.733-.714-1.151-.714-8.032 0-9.184-1.007,.578-2.015,1.155-3.022,1.733 7.682,0 15.363,0 23.045,0-1.007-.578-2.015-1.155-3.022-1.733 1.097,1.771 .09,6.654 .09,8.74 0,4.514 7,4.514 7,0 0-3.072 1.059-8.877-.644-11.625-1.949-3.143-5.324-2.381-8.563-2.381-4.768,0-9.537,0-14.305,0-4.504,0-7.104,.411-7.669,5.711-.297,2.789-.909,9.121 .645,11.625 1.95,3.143 5.323,2.381 8.563,2.381 4.768,0 9.537,0 14.305,0 4.504,0 7.104-.41 7.668-5.711 .477-4.487-6.528-4.441-7,0z"/>
<path d="m175.734,184.129c0-1.221 .117-2.211 .261-2.211h10.608c.145,0 .262,.99 .262,2.211v8.294c0,1.221-.117,2.212-.262,2.212h-10.608c-.145,0-.261-.991-.261-2.212v-8.294z"/>
<path d="m179.234,184.129c.16-.982 .087-1.131-.217-.444-1.007,.578-2.015,1.155-3.022,1.733 3.536,0 7.072,0 10.608,0-1.008-.578-2.015-1.155-3.022-1.733-.553-.943-.216,.851-.216,1.307 0,1.012 0,2.024 0,3.036 0,1.063 0,2.128 0,3.191 0,.522-.269,2.477 .216,1.649 1.008-.578 2.015-1.155 3.022-1.733-3.536,0-7.072,0-10.608,0 1.007,.578 2.015,1.155 3.022,1.733 .596,1.019 .217-.58 .217-1.015 0-.944 0-1.89 0-2.835 0-1.629 0-3.259 0-4.889 0-4.514-7-4.514-7,0 0,3.763-1.672,14.006 4.023,14.006 2.628,0 5.257,0 7.886,0 .819,0 1.64,0 2.46,0 3.229,0 3.703-3.243 3.762-5.712 .057-2.36 0-4.729 0-7.09 0-2.951-.06-6.915-4.024-6.915-2.628,0-5.257,0-7.885,0-.82,0-1.64,0-2.46,0-3.229,0-3.703,3.242-3.761,5.711-.108,4.517 6.892,4.506 6.999-0z"/>
<path d="m86.826,97.053c0,1.221-.125,2.211-.281,2.211h-11.414c-.155,0-.281-.99-.281-2.211v-8.293c0-1.221 .126-2.211 .281-2.211h11.414c.156,0 .281,.991 .281,2.211v8.293z"/>
<path d="m83.326,97.053c-.152,.984-.087,1.133 .197,.445 1.007-.578 2.015-1.156 3.022-1.733-3.805,0-7.609,0-11.414,0 1.007,.578 2.015,1.156 3.022,1.733 .551,.874 .197-.823 .197-1.307 0-1.012 0-2.024 0-3.036 0-1.064 0-2.128 0-3.192 0-.351 0-.702 0-1.053 0-.553 .361-1.482-.197-.596-1.007,.578-2.015,1.156-3.022,1.733 3.805,0 7.609,0 11.414,0-1.007-.578-2.015-1.156-3.022-1.733-.605-.959-.197,.561-.197,1.014 0,.945 0,1.89 0,2.835 0,1.63 0,3.26 0,4.89 0,4.514 7,4.514 7,0 0-3.957 1.703-14.005-4.218-14.005-2.865,0-5.73,0-8.596,0-.794,0-1.587,0-2.381,0-3.222,0-3.718,3.242-3.781,5.711-.061,2.36 0,4.729 0,7.09 0,3.108 .156,6.915 4.218,6.915 2.865,0 5.73,0 8.596,0 .794,0 1.587,0 2.381,0 3.222,0 3.718-3.242 3.781-5.711 .116-4.517-6.885-4.506-7-0z"/>
<path d="m125.224,96.842c0,1.221-.255,2.211-.568,2.211h-23.045c-.314,0-.568-.991-.568-2.211v-8.294c0-1.221 .254-2.211 .568-2.211h23.045c.313,0 .568,.99 .568,2.211v8.294z"/>
<path d="m121.724,96.842c-.03,.148-.06,.296-.09,.445 1.007-.578 2.015-1.156 3.022-1.733-7.682,0-15.363,0-23.045,0 1.007,.578 2.015,1.156 3.022,1.733-.714-1.151-.714-8.032 0-9.183-1.007,.578-2.015,1.156-3.022,1.733 7.682,0 15.363,0 23.045,0-1.007-.578-2.015-1.156-3.022-1.733 1.097,1.771 .09,6.652 .09,8.738 0,4.514 7,4.514 7,0 0-3.073 1.058-8.875-.645-11.624-1.948-3.144-5.324-2.381-8.563-2.381-4.768,0-9.537,0-14.305,0-4.504,0-7.104,.411-7.669,5.711-.297,2.79-.909,9.12 .645,11.624 1.95,3.143 5.323,2.381 8.563,2.381 4.768,0 9.537,0 14.305,0 4.505,0 7.104-.411 7.668-5.711 .479-4.486-6.526-4.44-6.999,0z"/>
<path d="m163.139,96.947c0,1.221-.254,2.211-.568,2.211h-23.045c-.314,0-.568-.99-.568-2.211v-8.293c0-1.221 .254-2.211 .568-2.211h23.045c.313,0 .568,.991 .568,2.211v8.293z"/>
<path d="m159.639,96.947c-.03,.148-.06,.296-.09,.445 1.007-.578 2.015-1.156 3.022-1.733-7.682,0-15.363,0-23.045,0 1.007,.578 2.015,1.156 3.022,1.733-.714-1.151-.714-8.032 0-9.183-1.007,.578-2.015,1.156-3.022,1.733 7.682,0 15.363,0 23.045,0-1.007-.578-2.015-1.156-3.022-1.733 1.097,1.77 .09,6.652 .09,8.738 0,4.514 7,4.514 7,0 0-3.072 1.058-8.876-.644-11.624-1.948-3.144-5.324-2.381-8.563-2.381-4.768,0-9.537,0-14.305,0-4.505,0-7.104,.411-7.669,5.711-.297,2.79-.909,9.12 .645,11.624 1.95,3.143 5.323,2.381 8.563,2.381 4.768,0 9.537,0 14.305,0 4.505,0 7.104-.411 7.668-5.711 .477-4.487-6.528-4.44-7,0z"/>
<path d="m205.416,96.868c-.152,.984-.087,1.132 .196,.445 1.008-.578 2.015-1.156 3.022-1.733-3.805,0-7.609,0-11.414,0 1.008,.578 2.015,1.156 3.022,1.733 .55,.874 .196-.823 .196-1.308 0-1.012 0-2.023 0-3.036 0-1.064 0-2.128 0-3.191 0-.351 0-.702 0-1.053 0-.553 .361-1.482-.196-.596-1.008,.578-2.015,1.156-3.022,1.733 3.805,0 7.609,0 11.414,0-1.008-.578-2.015-1.156-3.022-1.733-.604-.96-.196,.562-.196,1.014 0,.945 0,1.89 0,2.835 0,1.63 0,3.26 0,4.89 0,4.514 7,4.514 7,0 0-3.957 1.703-14.005-4.218-14.005-2.865,0-5.73,0-8.597,0-.793,0-1.587,0-2.381,0-3.222,0-3.718,3.242-3.781,5.711-.061,2.36 0,4.729 0,7.09 0,3.109 .155,6.916 4.218,6.916 2.865,0 5.73,0 8.597,0 .793,0 1.587,0 2.381,0 3.222,0 3.718-3.242 3.781-5.711 .116-4.517-6.884-4.506-7-.001z"/>
<path d="m175.891,88.596c0-1.221 .117-2.211 .261-2.211h10.608c.145,0 .262,.99 .262,2.211v8.293c0,1.221-.117,2.211-.262,2.211h-10.608c-.144,0-.261-.99-.261-2.211v-8.293z"/>
<path d="m179.391,88.596c.16-.982 .087-1.131-.217-.445-1.007,.578-2.015,1.156-3.022,1.733 3.536,0 7.072,0 10.608,0-1.008-.578-2.015-1.156-3.022-1.733-.553-.943-.216,.851-.216,1.307 0,1.012 0,2.024 0,3.036 0,1.064 0,2.128 0,3.192 0,.522-.269,2.476 .216,1.648 1.008-.578 2.015-1.156 3.022-1.733-3.536,0-7.072,0-10.608,0 1.007,.578 2.015,1.156 3.022,1.733 .596,1.02 .217-.58 .217-1.014 0-.945 0-1.89 0-2.835 0-1.629 0-3.259 0-4.889 0-4.514-7-4.514-7,0 0,3.763-1.672,14.005 4.023,14.005 2.628,0 5.257,0 7.886,0 .819,0 1.64,0 2.46,0 3.229,0 3.703-3.243 3.762-5.711 .057-2.36 0-4.729 0-7.09 0-2.951-.059-6.915-4.024-6.915-2.628,0-5.257,0-7.885,0-.82,0-1.64,0-2.46,0-3.229,0-3.702,3.243-3.761,5.711-.109,4.517 6.892,4.507 6.999,0z"/>
<path d="m241.209,228.781c0-9.863 0-19.728 0-29.591 0-6.235 0-12.471 0-18.707 0-1.508 0-3.016 0-4.524 0-2.682 3.217-1.89 5.107-1.89 1.227,0 4.682-.57 4.682,1.468 0,1.485 0,2.971 0,4.456 0,6.17 0,12.34 0,18.509 0,10.093 0,20.186 0,30.278 0,4.514 7,4.514 7,0 0-11.709 0-23.419 0-35.128 0-5.787 0-11.575 0-17.362 0-6.465-4.814-9.221-10.729-9.221-6.253,0-13.061,1.091-13.061,9.102 0,5.413 0,10.825 0,16.238 0,12.124 0,24.248 0,36.372 .001,4.514 7.001,4.514 7.001,0z"/>
<path d="m225.525,258.786c0-11.049 0-22.098 0-33.146 0-7.303 0-14.605 0-21.908 0-4.86-.456-10.208 .396-14.969 .453-2.528 5.455-1.294 7.729-1.294 2.686,0 .558-.051 .558-1.076 0,.527 0,1.055 0,1.582 0,6.102 0,12.203 0,18.305 0,11.967 0,23.935 0,35.901 0,4.514 7,4.514 7,0 0-11.967 0-23.935 0-35.901 0-6.102 0-12.203 0-18.305 0-6.744-4.604-7.506-10.361-7.506-2.877,0-6.536-.546-8.881,1.509-3.924,3.44-3.435,9.771-3.441,14.491-.006,3.626 0,7.253 0,10.879 0,14.943 0,29.887 0,44.83 0,2.202 0,4.405 0,6.608 0,4.514 7,4.514 7,0z"/>
<path d="m257.998,238.676c0-9.999 0-19.998 0-29.997 0-6.463 0-12.926 0-19.389 0-1.837 0-3.674 0-5.511 0-.336 0-.672 0-1.008 0,.154-2.009,1.191-.736,1.191 .745,0 1.49,0 2.236,0 5.394,0 6.63,.58 6.63,5.399 0,5.854 0,11.71 0,17.565 0,10.582 0,21.165 0,31.748 0,4.514 7,4.514 7,0 0-11.865 0-23.729 0-35.595 0-10.324 3.104-26.118-11.797-26.118-5.754,0-10.333,.781-10.333,7.505 0,6.102 0,12.203 0,18.305 0,11.968 0,23.935 0,35.902 0,4.516 7,4.516 7,.003z"/>
<path d="m273.128,245.041c0-12.389 0-24.778 0-37.167 0-2.504 0-5.008 0-7.513 0-.521 0-1.044 0-1.566 0,.328-2.026,1.174-.602,1.174 1.11,0 2.221,0 3.331,0 3.463,0 2.633,5.412 2.633,8.106 0,26.102 0,52.204 0,78.306 0,.504 0,1.007 0,1.511 0,4.514 7,4.514 7,0 0-24.825 0-49.65 0-74.476 0-2.882 0-5.763 0-8.645 0-3.092-.473-6.735-2.594-9.144-2.604-2.956-6.056-2.659-9.649-2.659-6.614,0-7.119,4.728-7.119,9.918 0,7.315 0,14.632 0,21.948 0,6.735 0,13.471 0,20.206-0,4.515 7,4.515 7,.001z"/>
<path d="m213.063,288.069c-4.117-17.482-8.233-34.965-12.351-52.447-.767-3.257-1.659-4.886 2.256-6.144 1.46-.469 5.136-2.104 5.776-.108 .5,1.554 .999,3.106 1.498,4.66 2.779,8.649 5.559,17.299 8.338,25.948 1.375,4.279 8.135,2.449 6.75-1.861-3.11-9.679-6.221-19.357-9.33-29.036-1.87-5.819-5.817-8.194-12.049-7.223-5.894,.92-12.506,4.936-10.889,11.805 4.417,18.756 8.833,37.512 13.25,56.268 1.035,4.392 7.785,2.529 6.751-1.862z"/>
</g>
</svg>
