<svg xmlns="http://www.w3.org/2000/svg" viewBox="20 20 321 321">
<g stroke="#fff" stroke-width="10">
<path fill="#fff" d="m273.021,175.052c0,4.083-3.311,7.393-7.395,7.393h-73.236c-4.083,0-7.394-3.311-7.394-7.393v-46.766c0-4.083 3.311-7.393 7.394-7.393h73.236c4.084,0 7.395,3.311 7.395,7.393v46.766z"/>
<path fill="none" d="m172.374,152.05 113.813,0"/>
</g>
<g fill="#fff">
<path d="m168.139,143.169c0,5.667 0,11.333 0,17 0,6.449 10,6.449 10,0 0-5.667 0-11.333 0-17 0-6.449-10-6.449-10,0z"/>
<path d="m178.116,101.759c36.023,0 72.047,0 108.07,0 6.448,0 6.448-10 0-10-36.023,0-72.047,0-108.07,0-6.449,0-6.449,10-0,10z"/>
<path d="m98.333,97.167c0,49.662 0,99.324 0,148.986 0,13.505 0,27.009 0,40.514 0,6.448 10,6.448 10,0 0-49.662 0-99.324 0-148.986 0-13.504 0-27.009 0-40.514 0-6.449-10-6.449-10,0z"/>
<path d="m76.476,221.971c18.048,0 36.097,0 54.145,0 4.514,0 4.514-7 0-7-18.048,0-36.097,0-54.145,0-4.515,0-4.515,7 0,7z"/>
<path d="m73.912,239.387c19.757,0 39.515,0 59.272,0 4.514,0 4.514-7 0-7-19.757,0-39.515,0-59.272,0-4.514,0-4.514,7 0,7z"/>
<path d="m73.912,248.096c19.757,0 39.515,0 59.272,0 4.514,0 4.514-7 0-7-19.757,0-39.515,0-59.272,0-4.514,0-4.514,7 0,7z"/>
<path d="m74.432,256.804c19.411,0 38.821,0 58.232,0 4.514,0 4.514-7 0-7-19.411,0-38.821,0-58.232,0-4.514,0-4.514,7 0,7z"/>
<path d="m77.167,265.512c17.588,0 35.175,0 52.763,0 4.514,0 4.514-7 0-7-17.588,0-35.175,0-52.763,0-4.515,0-4.515,7 0,7z"/>
<path d="m86.021,282.929c11.685,0 23.37,0 35.055,0 4.514,0 4.514-7 0-7-11.685,0-23.37,0-35.055,0-4.514,0-4.514,7 0,7z"/>
<path d="m110.673,121.334c0,2.196-1.78,3.976-3.977,3.976h-7.245c-2.196,0-3.976-1.78-3.976-3.976v-47.381c0-2.196 1.78-3.976 3.976-3.976h7.245c2.196,0 3.977,1.78 3.977,3.976v47.381z"/>
<path d="m73.912,230.679c19.757,0 39.515,0 59.272,0 4.514,0 4.514-7 0-7-19.757,0-39.515,0-59.272,0-4.514,0-4.514,7 0,7z"/>
<path d="m80.62,274.221c15.286,0 30.571,0 45.857,0 4.514,0 4.514-7 0-7-15.286,0-30.571,0-45.857,0-4.515,0-4.515,7 0,7z"/>
<path d="m94.368,291.637c6.12,0 12.24,0 18.36,0 4.514,0 4.514-7 0-7-6.12,0-12.24,0-18.36,0-4.514,0-4.514,7 0,7z"/>
<path d="m281.187,96.759c0,18.43 0,36.861 0,55.291 0,6.449 10,6.449 10,0 0-18.43 0-36.861 0-55.291 0-6.449-10-6.449-10-0z"/>
</g>
</svg>
