<svg xmlns="http://www.w3.org/2000/svg" viewBox="20 20 321 321">
<g fill="#fff">
<path d="m179.292,162.989c0,6.322 0,12.645 0,18.967 0,1.935 3,1.935 3,0 0-6.322 0-12.645 0-18.967 .001-1.935-3-1.935-3-0z"/>
<path d="m197.534,163.066c.768-2.196 1.535-4.392 2.303-6.587 .641-1.832-2.259-2.611-2.893-.798-.768,2.196-1.535,4.392-2.303,6.587-.64,1.832 2.259,2.611 2.893,.798z"/>
<path d="m192.325,182.139c.78-3.94 1.56-7.881 2.34-11.821 .374-1.89-2.518-2.694-2.893-.798-.78,3.941-1.56,7.881-2.34,11.822-.373,1.888 2.518,2.694 2.893,.797z"/>
<path d="m208.766,151.183c.483,.13 .967,.26 1.451,.39 .789,.212 1.627-.256 1.845-1.047 .216-.785-.259-1.633-1.048-1.845-.483-.13-.967-.26-1.451-.39-.789-.212-1.627,.256-1.845,1.047-.216,.784 .259,1.633 1.048,1.845z"/>
<path d="m213.561,155.455c.243,.333 .486,.665 .73,.998 .481,.658 1.292,.983 2.052,.538 .651-.381 1.022-1.391 .538-2.053-.243-.333-.486-.665-.73-.998-.481-.658-1.292-.983-2.052-.538-.652,.382-1.023,1.391-.538,2.053z"/>
<path d="m202.985,152.335c.438-.305 .876-.609 1.313-.914 .67-.466 .977-1.305 .538-2.053-.389-.663-1.38-1.005-2.052-.538-.438,.305-.876,.609-1.313,.914-.67,.466-.977,1.305-.538,2.052 .389,.664 1.38,1.007 2.052,.539z"/>
<path d="m167.283,162.268c-.768-2.196-1.535-4.392-2.303-6.587-.634-1.813-3.533-1.034-2.893,.798 .768,2.196 1.535,4.392 2.303,6.587 .634,1.813 3.533,1.034 2.893-.798z"/>
<path d="m172.492,181.342c-.78-3.941-1.56-7.881-2.34-11.822-.375-1.896-3.267-1.092-2.893,.798 .78,3.94 1.56,7.881 2.34,11.821 .376,1.897 3.267,1.091 2.893-.797z"/>
<path d="m152.361,148.29c-.483,.13-.967,.26-1.451,.39-.789,.212-1.263,1.061-1.047,1.845 .218,.791 1.056,1.26 1.845,1.047 .483-.13 .967-.26 1.451-.39 .789-.212 1.263-1.061 1.047-1.845-.218-.791-1.056-1.259-1.845-1.047z"/>
<path d="m145.773,153.94c-.243,.333-.486,.666-.73,.998-.483,.662-.113,1.671 .539,2.053 .76,.445 1.57,.12 2.052-.538 .243-.333 .486-.666 .73-.998 .483-.662 .113-1.671-.538-2.053-.76-.444-1.571-.12-2.053,.538z"/>
<path d="m160.453,149.745c-.438-.304-.876-.609-1.313-.914-.673-.467-1.664-.125-2.053,.538-.438,.748-.131,1.587 .538,2.053 .438,.304 .876,.609 1.314,.914 .672,.467 1.663,.125 2.052-.539 .438-.747 .132-1.587-.538-2.052z"/>
<path d="m188.583,136.941c.321-2.266 .644-4.531 .965-6.797 .269-1.892-2.622-2.707-2.893-.798-.321,2.266-.644,4.531-.965,6.797-.268,1.892 2.623,2.707 2.893,.798z"/>
<path d="m186.452,156.217c.327-4.065 .654-8.13 .981-12.195 .155-1.93-2.846-1.915-3,0-.327,4.065-.654,8.13-.981,12.195-.155,1.929 2.846,1.914 3,0z"/>
<path d="m191.864,124.497c.202,.134 .404,.268 .607,.402 .683,.452 1.656,.137 2.052-.538 .431-.735 .143-1.602-.538-2.053-.202-.134-.404-.268-.607-.402-.683-.452-1.656-.137-2.052,.538-.43,.736-.142,1.602 .538,2.053z"/>
<path d="m193.562,128.719c.103,.343 .204,.687 .307,1.031 .232,.783 1.045,1.268 1.845,1.047 .776-.213 1.281-1.062 1.048-1.845-.103-.343-.204-.687-.307-1.031-.232-.783-1.045-1.268-1.845-1.047-.777,.213-1.282,1.061-1.048,1.845z"/>
<path d="m191.007,125.304c.184-.314 .367-.628 .551-.942 .979-1.674-1.615-3.183-2.59-1.515-.184,.314-.367,.628-.551,.942-.979,1.674 1.615,3.183 2.59,1.515z"/>
<path d="m175.896,136.143c-.322-2.266-.644-4.531-.966-6.797-.271-1.909-3.162-1.094-2.893,.798 .322,2.266 .644,4.531 .966,6.797 .272,1.909 3.162,1.094 2.893-.798z"/>
<path d="m178.134,156.217c-.327-4.065-.654-8.13-.981-12.195-.154-1.915-3.155-1.93-3,0 .327,4.065 .654,8.13 .981,12.195 .154,1.914 3.155,1.929 3,0z"/>
<path d="m168.208,121.906c-.203,.134-.405,.269-.608,.402-.68,.451-.969,1.317-.538,2.053 .396,.675 1.37,.99 2.053,.538 .202-.134 .405-.269 .607-.402 .681-.451 .969-1.317 .539-2.053-.397-.675-1.37-.989-2.053-.538z"/>
<path d="m165.132,127.921c-.103,.344-.205,.688-.307,1.031-.233,.784 .272,1.632 1.047,1.845 .801,.22 1.612-.265 1.845-1.047 .103-.344 .205-.688 .307-1.031 .233-.784-.272-1.632-1.047-1.845-.8-.221-1.612,.264-1.845,1.047z"/>
<path d="m173.169,123.789c-.184-.314-.367-.628-.551-.942-.976-1.668-3.569-.159-2.591,1.515 .184,.314 .367,.628 .551,.942 .976,1.668 3.569,.159 2.591-1.515z"/>
<path d="m281.566,276.79c-.477,6.491-12.62,4.377-16.917,4.377-12.053,0-24.104,0-36.157,0-31.954,0-63.909,0-95.864,0-11.933,0-23.865,0-35.798,0-3.912,0-16.397,2.02-16.397-4.407 0-12.654 0-25.31 0-37.964 0-4.781-.701-10.129 5.811-10.129 6.361,0 12.723,0 19.084,0 46.231,0 92.462,0 138.693,0 4.585,0 9.17,0 13.755,0 4.163,0 8.327,0 12.491,0 3.932,0 10.883-1.298 11.299,4.377 1.058,14.422-0,29.279-0,43.746 0,6.448 10,6.448 10,0 0-12.427 0-24.854 0-37.28 0-6.368 .258-12.131-4.689-17.078-5.288-5.289-14.703-3.765-21.475-3.765-24.195,0-48.391,0-72.586,0-21.107,0-42.215,0-63.322,0-8.926,0-17.852,0-26.777,0-6.398,0-12.909-.366-19.292,.102-8.843,.648-12.991,8.561-12.991,16.494 0,13.385 0,26.771 0,40.155 0,8.274 5.527,15.749 14.384,15.749 1.461,0 2.923,0 4.384,0 24.476,0 48.951,0 73.427,0 27.979,0 55.958,0 83.938,0 8.519,0 17.037,0 25.556,0 1.607,0 3.215,0 4.822,0 8.329,0 14.037-6.409 14.622-14.377 .472-6.436-9.532-6.392-10.001,0z"/>
<path d="m251.34,218.544c-.59-7.309-5.738-13.01-13.368-13.01-4.142,0-8.284,0-12.426,0 1.667,1.667 3.333,3.333 5,5 0-10.466-6.935-15.677-16.811-15.677-7.208,0-14.417,0-21.625,0 1.667,1.667 3.333,3.333 5,5-1.778-18.504-31.362-18.504-33.14,0 1.667-1.667 3.333-3.333 5-5-6.687,0-13.373,0-20.06,0-9.75,0-16.333,5.572-16.333,15.677 1.667-1.667 3.333-3.333 5-5-4.27,0-8.539,0-12.809,0-7.634,0-12.789,5.692-13.379,13.01-.519,6.432 9.485,6.382 10,0 .412-5.103 12.706-3.01 16.188-3.01 2.726,0 5-2.274 5-5 0-7.018 6.057-5.677 11.224-5.677 5.056,0 10.112,0 15.168,0 2.923,0 4.739-2.288 5-5 .512-5.332 12.627-5.331 13.14,0 .261,2.712 2.077,5 5,5 5.244,0 10.488,0 15.733,0 5.386,0 12.702-1.747 12.702,5.677 0,2.726 2.274,5 5,5 3.449,0 15.386-2.049 15.794,3.01 .516,6.382 10.521,6.432 10.002,0z"/>
</g>
</svg>
