<svg xmlns="http://www.w3.org/2000/svg" viewBox="20 20 321 321">
<g fill="#fff">
<path d="m257.686,115.265c-48.647,0-97.294,0-145.942,0-2.517,0-5.034,0-7.551,0-6.449,0-6.449,10 0,10 48.647,0 97.294,0 145.942,0 2.517,0 5.034,0 7.551,0 6.448,0 6.448-10 0-10z"/>
<path d="m252.686,276.238c-.532,7.91-16.387,5.186-21.503,5.186-14.594,0-29.187,0-43.779,0-24.468,0-48.936,0-73.403,0-7.307,0-5.8-8.537-5.8-13.446 0-10.97 0-21.938 0-32.908 0-31.835 0-63.67 0-95.506 0-18.101 0-36.202 0-54.303 0-7.789 16.191-5.193 20.83-5.193 14.487,0 28.975,0 43.462,0 24.744,0 49.488,0 74.232,0 7.356,0 5.961,8.011 5.961,13.014 0,10.835 0,21.67 0,32.506 0,50.208 0,100.416 0,150.624 0,.008 0,.017 0,.026 0,6.448 10,6.448 10,0 0-49.658 0-99.317 0-148.975 0-11.102 0-22.204 0-33.306 0-8.689 .648-17.717-8.697-22.407-6.351-3.187-16.718-1.483-23.49-1.483-14.695,0-29.392,0-44.087,0-24.185,0-48.369,0-72.553,0-8.85,0-15.08,6.593-15.658,15.186-.091,1.352 0,2.741 0,4.095 0,9.405 0,18.81 0,28.215 0,52.567 0,105.133 0,157.701 0,6.304 2.96,11.797 8.697,14.676 3.232,1.622 6.694,1.483 10.172,1.483 11.157,0 22.313,0 33.47,0 29.31,0 58.62,0 87.93,0 2.853,0 5.705,0 8.559,0 8.85,0 15.079-6.593 15.657-15.186 .433-6.439-9.57-6.397-10,.001z"/>
<path d="m179.634,102.167c8.715,0 17.43,0 26.146,0 9.686,0 9.771-15.003 .107-15.003-8.715,0-17.43,0-26.145,0-9.686,.001-9.772,15.003-.108,15.003z"/>
<path d="m233.188,196.418c-.277,22.931-15.13,43.015-37.078,49.805-22.01,6.811-46.144-2.655-58.622-21.709-12.626-19.279-10.27-45.251 4.743-62.47 15.105-17.325 40.664-22.333 61.349-12.569 18.112,8.549 29.367,27.097 29.608,46.943 .078,6.444 10.078,6.451 10,0-.273-22.649-12.434-43.288-32.218-54.371-19.889-11.141-45.075-9.664-63.99,2.723-18.917,12.388-29.361,34.817-27.461,57.216 1.888,22.265 16.351,42.082 36.697,51.112 19.19,8.516 41.735,6.434 59.242-5.031 17.346-11.359 27.48-31.078 27.729-51.648 .079-6.452-9.921-6.445-9.999-.001z"/>
<path d="m216.635,196.418c-.345,19.568-15.848,35.071-35.416,35.416-19.57,.345-35.08-16.366-35.416-35.416-.344-19.569 16.367-35.08 35.416-35.416 19.569-.344 35.081,16.367 35.416,35.416 .079,4.509 7.079,4.517 7,0-.395-22.435-17.37-40.353-39.637-42.318-21.876-1.93-42.145,15.286-44.809,36.812-2.75,22.22 12.293,42.903 34.251,47.196 21.898,4.282 43.209-10.088 48.906-31.277 .906-3.372 1.227-6.935 1.288-10.413 .08-4.517-6.92-4.509-6.999,0z"/>
</g>
<path fill="none" stroke="#fff" d="m44.239,121.792"/>
<g fill="#fff">
<path d="m156.192,75.067c0,15.066 0,30.131 0,45.197 0,6.449 10,6.449 10,0 0-15.066 0-30.131 0-45.197 0-6.448-10-6.448-10,0z"/>
<path d="m238.213,97.59c1.543,0 3.086,0 4.629,0 2.726,0 5-2.274 5-5s-2.274-5-5-5c-1.543,0-3.086,0-4.629,0-2.726,0-5,2.274-5,5s2.274,5 5,5z"/>
<path d="m235.436,176.973c0,12.963 0,25.927 0,38.89 0,6.448 10,6.448 10,0 0-12.963 0-25.927 0-38.89 0-6.449-10-6.449-10,0z"/>
<path d="m174.728,110.667c3.307,0 6.614,0 9.92,0 1.935,0 1.935-3 0-3-3.307,0-6.614,0-9.92,0-1.935,0-1.935,3 0,3z"/>
<path d="m190.645,110.667c3.307,0 6.613,0 9.92,0 1.935,0 1.935-3 0-3-3.307,0-6.613,0-9.92,0-1.935,0-1.935,3 0,3z"/>
<path d="m206.561,110.667c3.307,0 6.613,0 9.92,0 1.935,0 1.935-3 0-3-3.307,0-6.613,0-9.92,0-1.935,0-1.935,3 0,3z"/>
<path d="m222.477,110.667c3.307,0 6.613,0 9.92,0 1.935,0 1.935-3 0-3-3.307,0-6.613,0-9.92,0-1.935,0-1.935,3 0,3z"/>
<path d="m138.833,269.498c-.642,5.573-8.165,4.169-11.5,4.169s-10.858,1.404-11.5-4.169c-.585-5.081 0-10.541 0-15.662 0-5.545 8.614-4.169 11.5-4.169 3.335,0 10.858-1.404 11.5,4.169 .585,5.081 0,10.541 0,15.662 0,1.935 3,1.935 3,0 0-4.405 0-8.81 0-13.215 0-4.014-.937-8.898-5.87-9.467-4.606-.53-9.401-.149-14.033-.149-4.906,0-8.491,1.91-9.097,7.169-.494,4.284 0,8.902 0,13.215 0,4.014 .937,8.898 5.87,9.467 4.606,.53 9.401,.149 14.033,.149 4.906,0 8.491-1.91 9.097-7.169 .221-1.92-2.781-1.898-3,0z"/>
</g>
</svg>
