<svg xmlns="http://www.w3.org/2000/svg" viewBox="20 20 321 321">
<g fill="#fff">
<path d="m257.868,176.366c9.386,2.515 18.771,5.03 28.156,7.544 6.237,1.672 8.881-7.975 2.658-9.643-9.386-2.515-18.771-5.03-28.156-7.544-6.237-1.671-8.88,7.975-2.658,9.643z"/>
<path d="m254.335,170.367c-.832,3.107-1.665,6.214-2.497,9.321-1.671,6.237 7.976,8.881 9.643,2.658 .832-3.107 1.665-6.214 2.497-9.321 1.67-6.237-7.976-8.881-9.643-2.658z"/>
<path d="m240.126,183.205c9.741,2.61 19.481,5.22 29.223,7.83 6.237,1.672 8.881-7.976 2.658-9.643-9.741-2.61-19.481-5.22-29.223-7.83-6.237-1.671-8.881,7.976-2.658,9.643z"/>
<path d="m236.54,177.472c-.396,1.477-.792,2.954-1.188,4.431-.705,2.631 .853,5.425 3.492,6.15 2.613,.719 5.445-.861 6.15-3.492 .396-1.477 .792-2.954 1.188-4.431 .705-2.631-.853-5.424-3.492-6.15-2.613-.719-5.445,.861-6.15,3.492z"/>
<path d="m265.763,185.573c-.396,1.478-.792,2.954-1.188,4.432-.705,2.631 .853,5.425 3.492,6.15 2.613,.719 5.445-.861 6.15-3.492 .396-1.478 .792-2.954 1.188-4.432 .705-2.631-.853-5.425-3.492-6.15-2.613-.719-5.445,.861-6.15,3.492z"/>
<path d="m252.381,203.585c-.893,3.331-1.784,6.662-2.677,9.992-1.17,4.366 5.583,6.217 6.75,1.861 .893-3.331 1.784-6.662 2.677-9.992 1.17-4.366-5.583-6.217-6.75-1.861z"/>
<path d="m242.114,200.96c-.681,2.541-1.361,5.081-2.042,7.621-1.17,4.366 5.583,6.217 6.75,1.861 .681-2.541 1.361-5.081 2.042-7.621 1.17-4.366-5.583-6.217-6.75-1.861z"/>
<path d="m237.866,216.116c-1.232,4.602-2.464,9.202-3.696,13.803-1.169,4.366 5.583,6.218 6.75,1.861 1.232-4.602 2.464-9.202 3.696-13.803 1.169-4.366-5.583-6.217-6.75-1.861z"/>
<path d="m248.053,220.759c-1.261,4.708-2.522,9.415-3.783,14.122-1.17,4.366 5.583,6.217 6.75,1.861 1.261-4.708 2.522-9.415 3.783-14.122 1.17-4.366-5.583-6.217-6.75-1.861z"/>
<path d="m259.732,212.185c-.926,3.456-1.851,6.912-2.776,10.367-1.169,4.366 5.583,6.218 6.75,1.861 .926-3.456 1.851-6.912 2.776-10.367 1.169-4.366-5.583-6.218-6.75-1.861z"/>
<path d="m254.441,231.755c-.279,1.042-.559,2.084-.838,3.126-.493,1.842 .597,3.798 2.444,4.306 1.829,.503 3.812-.603 4.306-2.444 .279-1.042 .559-2.084 .838-3.126 .493-1.842-.597-3.798-2.444-4.306-1.829-.503-3.811,.602-4.306,2.444z"/>
<path d="m231.418,203.376c-.926,3.455-1.852,6.91-2.777,10.365-1.17,4.366 5.583,6.217 6.75,1.861 .926-3.455 1.852-6.91 2.777-10.365 1.17-4.366-5.583-6.216-6.75-1.861z"/>
<path d="m226.146,222.875c-1.066,3.979-2.133,7.959-3.199,11.938-1.17,4.366 5.583,6.217 6.75,1.861 1.066-3.979 2.133-7.959 3.199-11.938 1.17-4.366-5.583-6.216-6.75-1.861z"/>
<path d="m255.495,192.467c-.4,1.495-.801,2.99-1.201,4.484-.493,1.842 .597,3.798 2.444,4.306 1.829,.503 3.813-.603 4.306-2.444 .4-1.495 .801-2.99 1.201-4.484 .493-1.842-.597-3.798-2.444-4.306-1.829-.503-3.813,.602-4.306,2.444z"/>
<path d="m245.521,189.16c-.4,1.495-.801,2.989-1.201,4.483-.493,1.842 .597,3.798 2.444,4.306 1.829,.503 3.813-.603 4.306-2.444 .4-1.495 .801-2.989 1.201-4.483 .493-1.842-.597-3.798-2.444-4.306-1.829-.503-3.812,.602-4.306,2.444z"/>
<path d="m262.535,202.253c-.244,.912-.488,1.823-.732,2.734-.493,1.842 .597,3.798 2.444,4.306 1.829,.503 3.813-.603 4.306-2.444 .244-.912 .488-1.823 .732-2.734 .493-1.842-.597-3.798-2.444-4.306-1.829-.503-3.813,.602-4.306,2.444z"/>
<path d="m234.535,193.459c-.244,.911-.487,1.822-.731,2.733-.493,1.842 .597,3.797 2.444,4.306 1.829,.503 3.813-.603 4.306-2.444 .244-.911 .487-1.822 .731-2.733 .493-1.842-.597-3.797-2.444-4.306-1.829-.503-3.813,.602-4.306,2.444z"/>
<path d="m165.287,291.667c2.905,0 5.811,0 8.716,0 2.726,0 5-2.274 5-5s-2.274-5-5-5c-2.905,0-5.811,0-8.716,0-2.726,0-5,2.274-5,5s2.275,5 5,5z"/>
<path d="m262.994,291.667c2.905,0 5.81,0 8.715,0 2.726,0 5-2.274 5-5s-2.274-5-5-5c-2.905,0-5.81,0-8.715,0-2.726,0-5,2.274-5,5s2.275,5 5,5z"/>
<path d="m277.716,277.54c-.833,2.459 .473,.457 .552,.457-.297,0-.594,0-.891,0-1.429,0-2.856,0-4.285,0-5.196,0-10.394,0-15.591,0-15.563,0-31.125,0-46.688,0-13.925,0-27.85,0-41.775,0-3.15,0-6.3,0-9.45,0-.172,0-.345,0-.517,0 1.32,0 1.716,1.4 .804-.51-.254-.531-.457-.829-.652-1.278-.905-2.082-1.81-4.164-2.715-6.245-3.662-8.424-7.325-16.848-10.987-25.271 .168,1.284 .336,2.568 .504,3.853 .091-.57-1.26-.458 .61-.458 1.405,0 2.809,0 4.214,0 4.903,0 9.805,0 14.708,0 15.074,0 30.149,0 45.223,0 24.005,0 48.009,0 72.014,0 .602,0-.035-3.694-.529-.447-.543,3.568-1.086,7.137-1.629,10.705-.973,6.398-1.947,12.796-2.92,19.194-.96,6.306 8.675,9.017 9.643,2.658 .827-5.437 1.654-10.874 2.482-16.311 .814-5.354 2.513-11.231 2.513-16.671 0-11.428-14.512-9.129-21.941-9.129-30.077,0-60.154,0-90.231,0-10.645,0-21.289,0-31.934,0-3.873,0-8.508,.147-10.57,4.167-3.024,5.896 .981,11.562 3.379,17.075 2.905,6.682 5.81,13.363 8.715,20.046 1.992,4.58 4.133,8.621 9.817,8.621 9.268,0 18.536,0 27.804,0 21.191,0 42.383,0 63.574,0 7.375,0 14.75,0 22.125,0 6.583,0 11.712-.259 14.267-7.799 2.075-6.124-7.586-8.73-9.643-2.657z"/>
<path d="m282.354,180.709c0,22.169 0,44.338 0,66.507 0,6.448 10,6.448 10,0 0-22.169 0-44.338 0-66.507 0-6.448-10-6.448-10,0z"/>
<path d="m83.237,160.091c.584,8.473 6.323,11 13.859,11 7.264,0 14.527,0 21.791,0 5.256,0 10.512,0 15.769,0 7.547,0 12.535-5.66 16.767-11.147 7.24-9.388 26.225-46.853 2.511-46.853-13.26,0-26.521,0-39.781,0-6.102,0-12.205,0-18.307,0-7.258,0-12.609,3.125-12.609,11.037 0,11.987 0,23.975 0,35.963 0,6.449 10,6.449 10,0 0-11.812 0-23.625 0-35.437 0-.666-.03-1.335 .101-1.992-.239,1.199 .055,.428 1.19,.428 1.735,0 3.47,0 5.205,0 7.074,0 14.147,0 21.221,0 7.776,0 15.552,0 23.329,0 1.09,0 11.643-1.109 11.304,1.337-1.463,10.57-5.728,20.601-11.901,29.259-2.596,3.641-5.734,7.404-10.475,7.404-7.741,0-15.481,0-23.222,0-3.905,0-7.81,0-11.715,0-1.559,0-4.922,.659-5.037-1-.441-6.396-10.444-6.439-10,.001z"/>
<path d="m88.237,111.216c24.458,0 48.917,0 73.375,0 6.449,0 6.449-10 0-10-24.458,0-48.917,0-73.375,0-6.448,0-6.448,10 0,10z"/>
<path d="m245.023,111.889c0,2.413-1.956,4.369-4.369,4.369h-43.277c-2.412,0-4.369-1.956-4.369-4.369v-27.635c0-2.413 1.957-4.37 4.369-4.37h43.277c2.413,0 4.369,1.957 4.369,4.37v27.635z"/>
<path d="m189.18,101.796c20.619,0 41.238,0 61.857,0 4.514,0 4.514-7 0-7-20.619,0-41.238,0-61.857,0-4.514,0-4.514,7 0,7z"/>
<path d="m184.145,93.048c0,3.349 0,6.697 0,10.046 0,4.514 7,4.514 7,0 0-3.349 0-6.697 0-10.046 0-4.514-7-4.514-7,0z"/>
<path d="m189.533,76.851c20.501,0 41.003,0 61.504,0 4.514,0 4.514-7 0-7-20.501,0-41.003,0-61.504,0-4.513,0-4.513,7 0,7z"/>
<path d="m254.537,98.296c0-8.315 0-16.63 0-24.946 0-4.514-7-4.514-7,0 0,8.315 0,16.63 0,24.946 0,4.515 7,4.515 7,0z"/>
<path d="m80.333,197.123c0-40.319 0-80.637 0-120.956 0-6.449-10-6.449-10,0 0,40.319 0,80.637 0,120.956 0,6.448 10,6.448 10,0z"/>
</g>
</svg>
