<svg xmlns="http://www.w3.org/2000/svg" viewBox="20 20 321 321">
<g fill="#fff">
<path d="m284.063,189.624c-.242,1.532-1.831,.926-3.333,.926-3.068,0-6.136,0-9.204,0-8.029,0-16.059,0-24.089,0-5.227,0-10.454,0-15.681,0-.717,0-.324-4.366-.324-5.143 0-28.55 0-57.1 0-85.649 0-1.369-.035-22.591 .032-22.591 12.766,0 25.531,0 38.297,0 4.715,0 9.429,0 14.144,0 .072,0 .033,5.624 .033,6.069 0,13.084 0,26.168 0,39.252 0,22.689 0,45.377 0,68.066 0,4.514 7,4.514 7,0 0-23.66 0-47.321 0-70.981 0-12.567 0-25.134 0-37.702 0-3.021 .273-5.758-1.141-8.541-2.155-4.243-8.896-3.165-12.746-3.165-14.303,0-28.606,0-42.909,0-4.634,0-9.71,1.281-9.71,7.098 0,2.674 0,5.348 0,8.021 0,29.121 0,58.242 0,87.364 0,5.728 0,11.455 0,17.183 0,8.108 7.354,7.717 13.196,7.717 11.008,0 22.016,0 33.023,0 6.061,0 18.812,2.458 20.161-6.064 .7-4.414-6.045-6.308-6.749-1.86z"/>
<path d="m229.064,138.247c1.889,0 3.778,0 5.667,0 1.908,0 3.5-1.592 3.5-3.5s-1.592-3.5-3.5-3.5c-1.889,0-3.778,0-5.667,0-1.908,0-3.5,1.592-3.5,3.5s1.592,3.5 3.5,3.5z"/>
<path d="m262.751,104.889c.028-.106 .673-.073 .146-.073-.357,0-.716,0-1.073,0-1.209,0-2.418,0-3.627,0-1.958,0-3.916,0-5.875,0-.376,0 .349,.726 .349,.347 0-.299 0-.599 0-.898 0-1.149 0-2.298 0-3.448 0-1.984 0-3.968 0-5.953 0,.492-.77,.44-.2,.44 .357,0 .716,0 1.073,0 1.209,0 2.418,0 3.627,0 1.988,0 3.978,0 5.967,0-.493,0-.44-.77-.44-.197 0,.361 0,.723 0,1.083 0,1.206 0,2.411 0,3.617 0,1.827 0,3.654 0,5.48 0,1.935 3,1.935 3,0 0-2.48 0-4.96 0-7.44 0-1.979 .48-5.543-2.528-5.543-2.5,0-4.999,0-7.499,0-2.206,0-5.207-.604-5.945,2.129-.59,2.181-.054,5.129-.054,7.367 0,2.209-.607,5.222 2.13,5.962 2.192,.593 5.159,.054 7.408,.054 2.277,0 5.664,.716 6.435-2.129 .505-1.871-2.389-2.663-2.894-.798z"/>
<path d="m262.751,128.579c.028-.106 .673-.073 .146-.073-.357,0-.716,0-1.073,0-1.209,0-2.418,0-3.627,0-1.958,0-3.916,0-5.875,0-.376,0 .349,.726 .349,.347 0-.299 0-.599 0-.898 0-1.149 0-2.298 0-3.448 0-1.984 0-3.968 0-5.952 0,.492-.77,.439-.2,.439 .357,0 .716,0 1.073,0 1.209,0 2.418,0 3.627,0 1.988,0 3.978,0 5.967,0-.493,0-.44-.769-.44-.196 0,.361 0,.722 0,1.083 0,1.206 0,2.411 0,3.616 0,1.827 0,3.654 0,5.48 0,1.935 3,1.935 3,0 0-2.48 0-4.96 0-7.44 0-1.979 .48-5.544-2.528-5.544-2.5,0-4.999,0-7.499,0-2.206,0-5.207-.604-5.945,2.13-.59,2.181-.054,5.129-.054,7.367 0,2.208-.607,5.221 2.13,5.961 2.192,.593 5.159,.054 7.408,.054 2.277,0 5.664,.716 6.435-2.129 .505-1.87-2.389-2.663-2.894-.797z"/>
<path d="m262.751,150.899c.028-.106 .673-.073 .146-.073-.357,0-.716,0-1.073,0-1.209,0-2.418,0-3.627,0-1.958,0-3.916,0-5.875,0-.376,0 .349,.726 .349,.347 0-.299 0-.599 0-.898 0-1.149 0-2.298 0-3.448 0-1.984 0-3.968 0-5.953 0,.492-.77,.44-.2,.44 .357,0 .716,0 1.073,0 1.209,0 2.418,0 3.627,0 1.988,0 3.978,0 5.967,0-.493,0-.44-.77-.44-.197 0,.361 0,.723 0,1.083 0,1.206 0,2.411 0,3.617 0,1.827 0,3.654 0,5.48 0,1.935 3,1.935 3,0 0-2.48 0-4.96 0-7.44 0-1.979 .48-5.543-2.528-5.543-2.5,0-4.999,0-7.499,0-2.206,0-5.207-.604-5.945,2.129-.59,2.181-.054,5.129-.054,7.367 0,2.209-.607,5.222 2.13,5.962 2.192,.593 5.159,.054 7.408,.054 2.277,0 5.664,.716 6.435-2.129 .505-1.871-2.389-2.663-2.894-.798z"/>
<path d="m262.751,174.588c.028-.106 .673-.073 .146-.073-.357,0-.716,0-1.073,0-1.209,0-2.418,0-3.627,0-1.958,0-3.916,0-5.875,0-.376,0 .349,.726 .349,.347 0-.299 0-.599 0-.898 0-1.149 0-2.298 0-3.448 0-1.984 0-3.968 0-5.952 0,.492-.77,.439-.2,.439 .357,0 .716,0 1.073,0 1.209,0 2.418,0 3.627,0 1.988,0 3.978,0 5.967,0-.493,0-.44-.769-.44-.196 0,.361 0,.722 0,1.083 0,1.206 0,2.411 0,3.616 0,1.827 0,3.654 0,5.48 0,1.935 3,1.935 3,0 0-2.48 0-4.96 0-7.44 0-1.979 .48-5.544-2.528-5.544-2.5,0-4.999,0-7.499,0-2.206,0-5.207-.604-5.945,2.13-.59,2.181-.054,5.129-.054,7.367 0,2.208-.607,5.221 2.13,5.961 2.192,.593 5.159,.054 7.408,.054 2.277,0 5.664,.716 6.435-2.129 .505-1.869-2.389-2.662-2.894-.797z"/>
<path d="m155.855,260.689c-.431-6.266-7.869-4.429-11.948-3.599 .633,.482 1.266,.964 1.899,1.446 .035-.36 .07-.722 .104-1.082 .058-.601-.496-1.354-1.101-1.446-4.005-.61-9.03-2.414-13.145-1.703-2.493,.431-7.485,2.184-7.152,5.589 .726,7.424 11.946,7.524 17.321,8.685 .854,.185 1.548-.248 1.845-1.048 .123-.328 .245-.657 .367-.986-.615,.35-1.23,.699-1.845,1.048 2.936,1.185 6.903,3.711 10.214,2.951 2.797-.642 3.023-7.458 3.386-9.456 .344-1.891-2.546-2.698-2.893-.797-.234,1.286-.778,7.554-2.154,7.303-2.679-.488-5.238-1.878-7.756-2.894-.806-.325-1.586,.353-1.845,1.048-.123,.328-.245,.657-.367,.986 .615-.35 1.23-.699 1.845-1.048-4.018-.867-10.744-.9-13.86-3.755-3.043-2.787 1.284-4.477 3.761-4.728 3.611-.364 7.945,1.159 11.479,1.697-.367-.482-.734-.964-1.101-1.446-.035,.36-.07,.722-.104,1.082-.1,1.033 1.027,1.624 1.899,1.446 1.785-.363 7.934-2.444 8.15,.706 .133,1.92 3.134,1.933 3.001,.001z"/>
<path d="m277.637,219.769c-.735,3.644-11.299,1.898-13.678,1.898-7.664,0-15.328,0-22.993,0-4.599,0-9.197,0-13.796,0-3.231,0 .235-6.502 .678-7.762 .888-2.53 1.775-5.06 2.663-7.59 1.299-3.7 10.793-1.898 13.678-1.898 7.664,0 15.329,0 22.993,0 4.599,0 9.197,0 13.796,0 3.231,0-.235,6.502-.678,7.762-.888,2.53-1.776,5.059-2.663,7.59-.643,1.83 2.257,2.61 2.893,.797 .888-2.529 1.775-5.06 2.663-7.589 .667-1.902 2.76-5.365 2.337-7.458-1.031-5.109-6.367-4.102-10.33-4.102-13.847,0-27.693,0-41.54,0-5.32,0-5.911,3.729-7.436,8.074-1.491,4.25-7.119,13.596 .442,15.122 3.881,.783 8.591,.054 12.522,.054 7.963,0 15.927,0 23.891,0 4.654,0 16.152,2.331 17.45-4.102 .381-1.888-2.509-2.692-2.892-.796z"/>
<path d="m272.542,213.887c.042-.164 .085-.367 .129-.609 .044-.243 .093-.512 .148-.807s.112-.611 .169-.949c.059-.338 .123-.686 .193-1.039-.211,.449-.424,.934-.643,1.449-.217,.516-.438,1.041-.667,1.578-.227,.538-.457,1.082-.691,1.633-.233,.549-.469,1.08-.707,1.592h-1.612c.333-.658 .675-1.337 1.026-2.035 .353-.697 .705-1.39 1.062-2.079 .355-.688 .713-1.368 1.072-2.034 .359-.668 .707-1.3 1.047-1.898h1.326c-.064,.547-.146,1.133-.249,1.762-.103,.628-.192,1.229-.269,1.801 .446-.546 .922-1.141 1.43-1.781 .507-.641 .975-1.234 1.401-1.781h1.326c-.21,.599-.444,1.232-.705,1.904-.262,.672-.534,1.352-.816,2.041s-.572,1.383-.872,2.08c-.299,.697-.592,1.372-.877,2.021h-1.482c.247-.512 .502-1.039 .766-1.586 .264-.546 .525-1.09 .787-1.631 .26-.542 .516-1.07 .765-1.586 .25-.516 .479-1 .688-1.449-.206,.276-.437,.58-.689,.909s-.5,.653-.74,.976c-.242,.32-.463,.615-.667,.884-.203,.269-.362,.48-.479,.636h-1.17z"/>
<path d="m271.495,208.688l-3.752,8.047h-4.875l.618-1.326h3.276l.843-1.807h-2.847l.618-1.326h2.847l1.055-2.262h-3.563l.618-1.326h5.162z"/>
<path d="m259.834,208.688h5.058l-3.752,8.047h-1.612l3.134-6.721h-3.445l.617-1.326z"/>
<path d="m255.546,208.519c1.135,0 1.832,.364 2.091,1.093 .258,.727 .074,1.763-.552,3.105-.312,.668-.68,1.262-1.104,1.782-.424,.52-.883,.96-1.375,1.319-.494,.359-1.006,.633-1.54,.818-.532,.187-1.063,.28-1.592,.28-.286,0-.533-.024-.74-.071-.207-.049-.384-.102-.528-.163-.146-.061-.26-.126-.345-.194-.085-.07-.149-.121-.194-.156l1.01-1.274c.139,.13 .328,.241 .567,.332s.541,.136 .905,.136c.251,0 .518-.045 .798-.136 .281-.091 .563-.243 .849-.455 .286-.212 .57-.497 .853-.852 .283-.356 .548-.798 .794-1.327 .429-.918 .599-1.622 .511-2.111-.088-.49-.491-.734-1.212-.734-.416,0-.782,.047-1.1,.143s-.581,.191-.79,.285l.186-1.26c.29-.139 .654-.267 1.095-.385 .438-.117 .91-.175 1.413-.175z"/>
<path d="m250.585,212.717c-.646,1.388-1.391,2.434-2.231,3.141s-1.716,1.06-2.626,1.06c-.944,0-1.5-.353-1.665-1.06-.164-.707 .077-1.753 .724-3.141 .646-1.385 1.387-2.433 2.219-3.139 .831-.707 1.707-1.06 2.626-1.06 .944,0 1.501,.353 1.67,1.06 .169,.706-.071,1.754-.717,3.139zm-1.625,0c.182-.389 .337-.756 .466-1.098 .13-.343 .207-.639 .234-.891 .025-.252-.009-.45-.105-.598-.096-.147-.283-.221-.561-.221-.268,0-.521,.073-.759,.221s-.461,.348-.672,.604c-.21,.256-.409,.554-.598,.892-.188,.337-.373,.702-.555,1.091-.182,.391-.337,.758-.466,1.1-.13,.342-.207,.639-.234,.891-.025,.252 .01,.451 .105,.598 .096,.147 .282,.221 .56,.221s.532-.073 .767-.221c.233-.146 .454-.35 .665-.605 .21-.255 .409-.552 .597-.89 .189-.339 .374-.704 .556-1.094z"/>
<path d="m240.47,216.734c.024-.182 .058-.416 .1-.701 .042-.286 .089-.594 .138-.924 .05-.329 .101-.662 .155-1 .053-.339 .099-.65 .138-.938-.254,.322-.518,.652-.789,.995-.272,.343-.534,.672-.786,.987-.251,.317-.485,.613-.702,.892-.215,.277-.399,.507-.554,.688h-1.326c.267-.701 .527-1.387 .782-2.054 .254-.667 .514-1.327 .781-1.983 .267-.653 .54-1.313 .824-1.975 .282-.663 .577-1.342 .883-2.035h1.469l-2.992,6.254 2.575-3.406h1.17l-.64,3.406 2.852-6.254h1.469c-.333,.658-.681,1.344-1.043,2.055-.361,.711-.723,1.416-1.086,2.119-.361,.701-.719,1.382-1.074,2.041-.355,.658-.693,1.269-1.017,1.832h-1.327z"/>
<path d="m238.995,208.688l-3.752,8.047h-4.875l.618-1.326h3.276l.843-1.807h-2.847l.618-1.326h2.847l1.055-2.262h-3.563l.618-1.326h5.162z"/>
<path d="m140.133,128.854c4.967-2.085 10.529-2.141 15.835-2.001 5.215,.136 11.497,.43 16.224,2.907 2.382,1.249 2.594,4.612 3.074,6.989 .8,3.96 1.595,7.922 2.388,11.884 2.928,14.635 5.943,29.266 8.75,43.924 .721,3.767 1.406,7.551 1.836,11.363 .13,1.143 .212,2.292 .168,3.441-.016,.413 .851-.358-.507,.194-1.519,.617-3.064,1.2-4.701,1.41-2.611,.336-4.379-12.788-4.697-14.512-1.457-7.907-2.478-15.894-3.527-23.863-.623-4.731-.854-9.817-2.188-14.419-.957-3.299-3.506-.711-3.357,1.649 .441,7.026 1.541,14.048 2.435,21.026 .864,6.747 1.762,13.489 2.676,20.229 .853,6.292-20.568,4.471-23.73,4.254-1.932-.132-1.919,2.869 0,3 5.932,.405 11.831,.293 17.729-.473 1.897-.246 5.776-.373 7.234-1.831 3.269-3.269 1.237-8.867 .699-12.908-1.06-7.954-2.099-15.911-3.051-23.878-.339-2.838-.67-5.679-.921-8.526-.061-.694-.118-1.392-.116-2.089-.005,2.595-2.793-1.264-2.219,1.462 2.815,13.36 3.412,27.161 6.1,40.57 .737,3.679 1.404,10.251 4.716,12.733 2.958,2.218 10.295-.552 10.444-4.465 .332-8.728-2.664-18.225-4.475-26.693-1.977-9.249-3.648-18.565-5.494-27.842-1.046-5.257-2.102-10.512-3.162-15.766-.646-3.202-.868-6.332-3.435-8.648-3.588-3.237-10.098-3.396-14.602-3.851-6.75-.681-14.548-.841-20.923,1.836-1.756,.738-.986,3.642 .797,2.894z"/>
<path d="m154.95,123.522c-2.612-.306-1.954-8.448-1.78-10.127-1,0-2,0-3,0 0,.211 0,.422 0,.633 0,1.963 2.833,1.896 3,0 .147-1.67 1.134-2.744 2.823-2.897-.5-.5-1-1-1.5-1.5 0,.012 0,.025 0,.037 0,.895 .689,1.399 1.5,1.5 1.682,.21 2.858,2.015 2.569,3.628-.339,1.892 2.552,2.7 2.893,.798 .662-3.692-1.749-6.962-5.461-7.426 .5,.5 1,1 1.5,1.5 0-.012 0-.025 0-.037 0-.762-.685-1.574-1.5-1.5-3.399,.31-5.525,2.511-5.823,5.897 1,0 2,0 3,0 0-.211 0-.422 0-.633 0-1.973-2.805-1.883-3,0-.412,3.969-.679,12.488 4.78,13.127 1.918,.225 1.896-2.778-.001-3z"/>
<path d="m126.361,129.873c8-3.05 16.702-.448 23.209,4.624 3.9,3.04 4.206,10.895 5.269,15.31 2.024,8.41 4,16.846 5.564,25.355 .576,3.132 1.382,6.412 1.438,9.593 .036,2.075-6.4,1.889-8.162,2.094 .482,.367 .964,.734 1.446,1.102-.81-5.803-1.716-11.592-2.602-17.383-.646-4.228-2.094-9.045-1.959-13.339-.932,.252-1.864,.504-2.795,.757 .134,.241 .368,3.147 .487,4.092 .456,3.624 .889,7.251 1.322,10.878 .917,7.668 1.815,15.339 2.708,23.011 .196,1.683 .392,3.366 .587,5.05 .349,3.012-6.575,2.386-7.932,2.441-6.327,.263-12.653,.525-18.98,.788-1.927,.08-1.935,3.08 0,3 7.109-.295 14.218-.59 21.327-.885 5.242-.218 9.031-1.506 8.336-7.488-.966-8.316-1.94-16.631-2.931-24.944-.496-4.163-.995-8.326-1.519-12.485-.185-1.468-.073-3.633-.817-4.972-.747-1.346-2.75-.692-2.795,.757-.12,3.839 1.148,8.118 1.724,11.891 .998,6.54 2.03,13.076 2.945,19.628 .083,.598 .854,1.17 1.446,1.102 2.483-.288 7.29,.021 9.403-1.397 2.795-1.876 1.676-6.078 1.145-8.856-1.887-9.875-3.897-19.688-6.229-29.473-1.493-6.262-1.815-14.245-7.218-18.456-6.949-5.417-16.785-7.901-25.217-4.686-1.786,.68-1.011,3.581 .8,2.891z"/>
<path d="m156.223,141.405c-.488-3.419-4.89-4.503-7.667-5.222-7.054-1.827-14.707-1.908-21.941-1.946-1.935-.01-1.934,2.99 0,3 4.901,.025 9.783,.234 14.659,.747 2.47,.26 11.572,.829 12.056,4.219 .273,1.908 3.163,1.093 2.893-.798z"/>
<path d="m132.952,125.605c-2.338-.265-1.383-8.354-1.221-9.826-1,0-2,0-3,0 0,.211 0,.422 0,.634 0,1.963 2.833,1.896 3,0 .147-1.67 1.134-2.744 2.823-2.897-.5-.5-1-1-1.5-1.5 0,.012 0,.025 0,.037 0,.884 .688,1.413 1.5,1.5 1.725,.185 3.273,1.908 2.951,3.702-.339,1.892 2.551,2.7 2.893,.798 .685-3.814-2.053-7.093-5.844-7.5 .5,.5 1,1 1.5,1.5 0-.012 0-.025 0-.037 0-.762-.685-1.574-1.5-1.5-3.399,.31-5.525,2.51-5.823,5.897 1,0 2,0 3,0 0-.211 0-.422 0-.634 0-1.978-2.793-1.877-3,0-.421,3.82-1.223,12.209 4.221,12.826 1.92,.218 1.899-2.784 0-3z"/>
<path d="m79.97,232.119c-3.749-.378-2.824-5.396-2.824-7.958 0-5.027 0-10.054 0-15.08 0-15.386 0-30.772 0-46.158 0-14.733 0-29.467 0-44.201 0-4.211 0-8.423 0-12.635 0-3.151 .706-5.375 4.466-5.375 7.03,0 14.06,0 21.089,0 2.583,0 15.761-1.867 15.761,2.834 0,7.506 0,15.012 0,22.519 0,30.008 0,60.015 0,90.023 0,3.652 0,7.305 0,10.956 0,3.06-.946,5.075-4.466,5.075-11.342,0-22.684,0-34.026,0-4.514,0-4.514,7 0,7 11.704,0 23.407,0 35.111,0 11.542,0 10.382-11.456 10.382-19.419 0-29.583 0-59.166 0-88.749 0-8.971 0-17.941 0-26.911 0-5.941-4.46-10.329-10.382-10.329-6.418,0-12.836,0-19.254,0-9.466,0-25.68-2.936-25.68,11.052 0,9.872 0,19.744 0,29.616 0,22.5 0,45 0,67.499 0,7.567 0,15.134 0,22.701 0,7.005 1.185,13.668 9.824,14.539 4.489,.454 4.446-6.551-.001-6.999z"/>
<path d="m122.201,119.738c14.616-1.879 29.231-3.758 43.847-5.637 1.891-.243 1.915-3.246 0-3-14.616,1.879-29.231,3.758-43.847,5.637-1.891,.243-1.915,3.246 0,3z"/>
<path d="m150.497,249.193c-.226-2.252-.871-4.214-3.124-5.021-1.003-.359-1.801,.554-1.899,1.446-.092,.834-.184,1.667-.275,2.501 .5-.5 1-1 1.5-1.5-2.737,.086-5.475,.173-8.212,.259 .5,.5 1,1 1.5,1.5 .037-.92 .073-1.84 .109-2.76 .032-.795-.706-1.53-1.5-1.5-6.048,.228-19.125,.723-19.125,9.369 0,.817 .682,1.5 1.5,1.5 9.342,0 18.684,0 28.026,0 .818,0 1.5-.683 1.5-1.5-0-1.43-0-2.862-0-4.294 0-1.935-3-1.935-3,0 0,1.432 0,2.863 0,4.295 .5-.5 1-1 1.5-1.5-9.342,0-18.684,0-28.026,0 .5,.5 1,1 1.5,1.5 0-6.185 12.262-6.224 16.125-6.369-.5-.5-1-1-1.5-1.5-.037,.92-.073,1.84-.109,2.76-.032,.799 .707,1.525 1.5,1.5 2.737-.086 5.475-.173 8.212-.259 .886-.028 1.408-.667 1.5-1.5 .092-.834 .184-1.667 .275-2.501-.633,.482-1.266,.964-1.899,1.446 .308,.709 .615,1.419 .922,2.128 .191,1.907 3.193,1.925 3,0z"/>
<path d="m142.77,257.41c-.424,2.564-.847,5.129-1.271,7.693-.313,1.892 2.578,2.702 2.893,.797 .424-2.564 .847-5.129 1.271-7.693 .312-1.892-2.579-2.702-2.893-.797z"/>
<path d="m107.758,289.096c-.316-3.104-.633-6.21-.95-9.314-.194-1.905-3.196-1.924-3,0 .316,3.104 .633,6.21 .95,9.314 .194,1.905 3.196,1.924 3,0z"/>
<path d="m107.966,273.678c-.129,6.887-7.899,4.935-12.184,8.389-2.775,2.237-4.431,4.974-7.958,6.286-3.165,1.177-7.349,.439-10.651,.337-1.936-.06-1.93,2.94 0,3 3.819,.118 7.709,.484 11.448-.444 3.593-.893 6.116-3.88 8.582-6.402 2.901-2.967 7.596-2.363 11.083-4.43 2.367-1.403 2.633-4.267 2.68-6.735 .036-1.937-2.964-1.934-3-.001z"/>
<path d="m108.397,272.977c-1.504,1.767-3.203,3.242-5.824,2.878-1.188-.165-1.361-1.337-1.995-2.028-.791-.863-1.612-1.238-2.779-1.282-3.091-.117-6.545,3.935-8.645,5.694-2.44,2.045-5.003,3.819-7.854,5.237-1.931,.96-4.657,1.033-6.045,2.906-1.628,2.196-1.392,5.457 1.917,5.308 1.926-.087 1.935-3.088 0-3 .805-.843 1.771-1.352 2.896-1.527 .923-.266 1.868-.718 2.747-1.097 1.92-.828 3.669-2.05 5.359-3.263 2.817-2.021 5.266-4.516 8.109-6.497 1.864-1.298 1.779,.016 3.123,1.069 1.121,.878 1.935,1.312 3.394,1.515 3.052,.425 5.859-1.608 7.717-3.792 1.248-1.464-.864-3.597-2.12-2.121z"/>
<path d="m107.704,289.494c.811-3.911 1.622-7.823 2.433-11.735 .392-1.888-2.5-2.691-2.893-.797-.811,3.911-1.622,7.823-2.433,11.735-.391,1.888 2.501,2.692 2.893,.797z"/>
<path d="m115.901,277.335c-.316-3.104-.633-6.209-.95-9.313-.194-1.905-3.196-1.924-3,0 .316,3.104 .633,6.209 .95,9.313 .194,1.905 3.196,1.924 3,0z"/>
<path d="m90.77,277.074c-1.818-.02-3.635-.094-5.453-.145-1.936-.055-1.931,2.945 0,3 1.818,.051 3.635,.125 5.453,.145 1.935,.022 1.933-2.978 0-3z"/>
<path d="m116.109,261.918c-.055,4.307-2.267,4.938-6.171,5.835-1.961,.45-3.78,.714-5.38,2.037-1.925,1.593-3.494,3.546-5.408,5.155-1.483,1.246 .651,3.357 2.121,2.121 2.355-1.979 4.259-5.082 7.321-5.974 2.353-.685 4.713-.961 6.981-1.952 2.967-1.297 3.499-4.315 3.536-7.223 .025-1.935-2.975-1.932-3,.001z"/>
<path d="m116.541,261.217c-1.504,1.767-3.203,3.242-5.824,2.878-1.188-.165-1.362-1.337-1.995-2.028-.791-.863-1.612-1.238-2.779-1.282-3.091-.118-6.545,3.934-8.645,5.693-2.44,2.046-5.003,3.819-7.854,5.237-1.931,.961-4.657,1.034-6.045,2.907-1.628,2.196-1.392,5.457 1.917,5.308 1.926-.087 1.935-3.088 0-3 .805-.843 1.771-1.352 2.896-1.527 .923-.266 1.868-.718 2.747-1.097 1.92-.828 3.669-2.051 5.359-3.263 2.817-2.021 5.266-4.517 8.109-6.497 1.864-1.298 1.779,.016 3.123,1.069 1.121,.878 1.935,1.312 3.394,1.515 3.052,.425 5.859-1.608 7.717-3.792 1.247-1.464-.865-3.597-2.12-2.121z"/>
<path d="m115.847,277.733c.811-3.911 1.622-7.823 2.433-11.735 .392-1.888-2.5-2.691-2.893-.797-.811,3.911-1.622,7.823-2.433,11.735-.391,1.888 2.501,2.692 2.893,.797z"/>
</g>
</svg>
