<svg xmlns="http://www.w3.org/2000/svg" viewBox="20 20 321 321">
<g fill="#fff">
<path d="m177.478,81.693c0,48.866 0,97.731 0,146.597 0,20.078 0,40.157 0,60.235 0,4.514 7,4.514 7,0 0-48.865 0-97.731 0-146.597 0-20.079 0-40.157 0-60.236 .001-4.513-7-4.513-7,.001z"/>
<path d="m259.333,81.693c0,48.866 0,97.731 0,146.597 0,20.078 0,40.157 0,60.235 0,4.514 7,4.514 7,0 0-48.865 0-97.731 0-146.597 0-20.079 0-40.157 0-60.236 0-4.513-7-4.513-7,.001z"/>
<path d="m259.365,84.349c-25.833,0-51.667,0-77.5,0-4.514,0-4.514,7 0,7 25.833,0 51.667,0 77.5,0 4.514,0 4.514-7 0-7z"/>
<path d="m259.365,139.168c-25.833,0-51.667,0-77.5,0-4.514,0-4.514,7 0,7 25.833,0 51.667,0 77.5,0 4.514,0 4.514-7 0-7z"/>
<path d="m259.365,193.987c-25.833,0-51.667,0-77.5,0-4.514,0-4.514,7 0,7 25.833,0 51.667,0 77.5,0 4.514,0 4.514-7 0-7z"/>
<path d="m204.646,190.453c-5.409-.552-3.994-6.055-3.994-9.521 0-3.889 0-7.779 0-11.668 0-6.128 8.2-4.684 12.236-4.684 12.78,0 25.562,0 38.342,0 5.193,0 4.103,4.735 4.103,7.704 0,4.033 0,8.065 0,12.099 0,2.903 .398,6.07-4.421,6.07-2.107,0-4.214,0-6.321,0-13.172,0-26.345,0-39.517,0-.142,0-.285,0-.428,0-1.935,0-1.935,3 0,3 12.285,0 24.57,0 36.855,0 3.519,0 10.091,1.149 13.367-.774 5.374-3.156 3.464-11.351 3.464-16.647 0-4.916 1.635-13.57-5.533-14.303-4.568-.466-9.273-.149-13.859-.149-7.874,0-15.748,0-23.623,0-4.39,0-9.59-.74-13.843,.624-5.93,1.901-3.822,12.314-3.822,16.797 0,6.419-1.453,13.59 6.994,14.452 1.924,.196 1.906-2.806-0-3z"/>
<path d="m242.334,134.375c0,2.801-2.271,5.072-5.072,5.072h-9.509c-2.801,0-5.071-2.271-5.071-5.072v-12.52c0-2.801 2.271-5.072 5.071-5.072h9.509c2.801,0 5.072,2.271 5.072,5.072v12.52z"/>
<path d="m208.814,134.323c0,2.801-2.271,5.072-5.072,5.072h-9.509c-2.801,0-5.071-2.271-5.071-5.072v-12.521c0-2.801 2.271-5.071 5.071-5.071h9.509c2.801,0 5.072,2.271 5.072,5.071v12.521z"/>
<path d="m203.065,113.546c-1.98-1.98-1.98-5.192 0-7.172l6.724-6.724c1.98-1.98 5.191-1.98 7.172,0l8.854,8.853c1.98,1.98 1.98,5.192 0,7.173l-6.723,6.724c-1.98,1.98-5.193,1.98-7.174,0l-8.853-8.854z"/>
<path d="m107.783,98.445c0,49.706 0,99.412 0,149.118 0,5.77 0,11.539 0,17.309 0,4.514 7,4.514 7,0 0-49.706 0-99.412 0-149.118 0-5.769 0-11.539 0-17.308 0-4.515-7-4.515-7-.001z"/>
<path d="m84.667,270.767c17.708,0 35.417,0 53.125,0 6.449,0 6.449-10 0-10-17.708,0-35.417,0-53.125,0-6.449,0-6.449,10 0,10z"/>
<path d="m87.276,270.034c-.299,6.701-.599,13.401-.898,20.103-.086,1.935 2.914,1.927 3,0 .299-6.701 .599-13.401 .898-20.103 .086-1.934-2.914-1.927-3,0z"/>
<path d="m97.118,270.034c0,6.701 0,13.401 0,20.103 0,1.935 3,1.935 3,0 0-6.701 0-13.401 0-20.103 0-1.934-3-1.934-3,0z"/>
<path d="m92.197,270.034c0,6.701 0,13.401 0,20.103 0,1.935 3,1.935 3,0 0-6.701 0-13.401 0-20.103 0-1.934-3-1.934-3,0z"/>
<path d="m102.039,270.034c0,6.701 0,13.401 0,20.103 0,1.935 3,1.935 3,0 0-6.701 0-13.401 0-20.103 0-1.934-3-1.934-3,0z"/>
<path d="m106.959,270.034c0,6.701 0,13.401 0,20.103 0,1.935 3,1.935 3,0 0-6.701 0-13.401 0-20.103 0-1.934-3-1.934-3,0z"/>
<path d="m116.762,270.034c0,6.701 0,13.401 0,20.103 0,1.935 3,1.935 3,0 0-6.701 0-13.401 0-20.103 0-1.934-3-1.934-3,0z"/>
<path d="m111.839,270.034c0,6.701 0,13.401 0,20.103 0,1.935 3,1.935 3,0 0-6.701 0-13.401 0-20.103 0-1.934-3-1.934-3,0z"/>
<path d="m121.682,270.034c0,6.701 0,13.401 0,20.103 0,1.935 3,1.935 3,0 0-6.701 0-13.401 0-20.103 0-1.934-3-1.934-3,0z"/>
<path d="m131.524,270.034c.299,6.701 .599,13.401 .898,20.103 .086,1.927 3.086,1.935 3,0-.299-6.701-.599-13.401-.898-20.103-.086-1.927-3.086-1.934-3,0z"/>
<path d="m126.604,270.034c0,6.701 0,13.401 0,20.103 0,1.935 3,1.935 3,0 0-6.701 0-13.401 0-20.103 0-1.934-3-1.934-3,0z"/>
<path d="m136.292,270.118c.865,6.645 1.729,13.29 2.594,19.935 .246,1.891 3.249,1.914 3,0-.865-6.645-1.729-13.29-2.594-19.935-.247-1.89-3.25-1.914-3,0z"/>
<path d="m82.376,270.118c-.865,6.645-1.729,13.29-2.594,19.935-.249,1.914 2.754,1.891 3,0 .865-6.645 1.729-13.29 2.594-19.935 .249-1.914-2.753-1.89-3,0z"/>
<path d="m236.203,285.564c.154-.57 1.927-.361-.115-.361-1.138,0-2.275,0-3.413,0-3.859,0-7.72,0-11.579,0-5.741,0-11.482,0-17.224,0 1.398,0 1.293,2.224 1.215,.306-.037-.904-.074-1.809-.111-2.713-.138-3.347-.274-6.692-.411-10.039-.319-7.791-.639-15.581-.958-23.372-.093-2.261-.186-4.522-.278-6.783-.078-1.919 .203,.307-1.299,.307 .676,0 1.351,0 2.026,0 7.159,0 14.319,0 21.479,0 3.311,0 6.622,0 9.933,0 .969,0 1.938,0 2.907,0 1.762,0-.466-1.062-.467-1.039-.223,5.437-.445,10.872-.668,16.308-.387,9.439-.774,18.879-1.161,28.318-.186,4.516 6.815,4.497 7,0 .507-12.37 1.015-24.74 1.521-37.11 .154-3.773 1.815-11.654-3.345-13.05-4.868-1.317-10.74-.427-15.721-.427-7.159,0-14.319,0-21.479,0-4.863,0-7.906,2.33-7.697,7.425 .554,13.512 1.107,27.023 1.661,40.536 .154,3.771 .896,8.334 5.814,8.334 3.81,0 7.618,0 11.428,0 5.805,0 11.608,0 17.413,0 4.318,0 8.867,.444 10.278-4.777 1.18-4.365-5.573-6.215-6.749-1.863z"/>
<path d="m196.891,249.268c.566-8.055 1.134-16.11 1.7-24.165 .43-6.114 2.454-10.627 8.83-12.856 3.925-1.372 9.31-.541 13.362-.541 3.954,0 8.141-.391 12.07,.216 7.171,1.105 9.679,6.901 10.12,13.182 .567,8.055 1.134,16.11 1.701,24.165 .135,1.919 3.136,1.932 3,0-.634-9-1.267-18.001-1.9-27.001-.404-5.735-4.036-10.537-9.564-12.47-4.874-1.704-10.343-1.092-15.427-1.092-4.649,0-9.611-.499-14.16,.648-6.096,1.536-10.401,6.78-10.833,12.913-.633,9-1.267,18.001-1.899,27.001-.136,1.931 2.865,1.919 3,0z"/>
<path d="m170.143,219.616c-4.52,22.401-9.04,44.802-13.56,67.202-.889,4.407 5.857,6.284 6.75,1.861 4.52-22.401 9.04-44.802 13.56-67.202 .889-4.407-5.858-6.284-6.75-1.861z"/>
</g>
</svg>
