<svg xmlns="http://www.w3.org/2000/svg" viewBox="20 20 321 321">
<path fill="#fff" d="m70.28,116.692h118.914v23.96h-118.914z" transform="matrix(.7071 -.7071 .7071 .7071 -52.9857 129.4245)"/>
<g fill="none" stroke="#fff" stroke-width="10">
<path d="m181.438,124.577c0,40.29-25.499,83.021-52.811,83.021-27.313,0-52.812-42.731-52.812-83.021 0-14.691-.414-28.367 4.651-39.816 0,0 30.806-10.31 48.16-10.31 17.329,0 48.121,10.225 48.121,10.225 5.088,11.465 4.691,25.173 4.691,39.901z"/>
<path d="m274.76,109.269c0,1.76-1.426,3.187-3.187,3.187h-18.325c-1.76,0-3.188-1.427-3.188-3.187v-18.326c0-1.76 1.428-3.187 3.188-3.187h18.325c1.761,0 3.187,1.427 3.187,3.187v18.326z"/>
</g>
<g fill="#fff">
<path d="m231.529,78.061c1.887,1.887 3.773,3.773 5.661,5.661 1.926,1.926 5.145,1.926 7.07,0 1.927-1.926 1.927-5.145 0-7.071-1.887-1.887-3.773-3.773-5.661-5.661-1.926-1.926-5.145-1.926-7.07,0-1.926,1.926-1.926,5.144 0,7.071z"/>
<path d="m208.111,104.91c8.756,0 17.512,0 26.268,0 6.448,0 6.448-10 0-10-8.756,0-17.512,0-26.268,0-6.448,0-6.448,10 0,10z"/>
<path d="m290.742,122.348c-1.56-1.56-3.119-3.12-4.68-4.681-1.926-1.926-5.145-1.926-7.07,0-1.927,1.927-1.927,5.145 0,7.071 1.56,1.56 3.119,3.12 4.68,4.681 1.926,1.926 5.145,1.926 7.07,0 1.927-1.927 1.927-5.145 0-7.071z"/>
<path d="m267.019,139.777c0-4.076 0-8.152 0-12.228 0-6.449-10-6.449-10,0 0,4.076 0,8.152 0,12.228 0,6.449 10,6.449 10,0z"/>
<path d="m226.471,143.313c6.191-6.191 12.383-12.383 18.574-18.574 4.564-4.564-2.507-11.635-7.07-7.071-6.191,6.191-12.383,12.383-18.574,18.574-4.565,4.564 2.506,11.634 7.07,7.071z"/>
</g>
<path fill="none" stroke="#fff" stroke-width="10" d="m268.648,254.92c0,1.859-1.634,3.368-3.648,3.368h-13.379c-2.014,0-3.648-1.509-3.648-3.368v-93.397c0-1.861 1.635-3.369 3.648-3.369h13.379c2.015,0 3.648,1.508 3.648,3.369v93.397z"/>
<g fill="#fff">
<path stroke="#fff" stroke-width="10" d="m274.121,283.019c0,2.015-1.28,3.648-2.859,3.648h-25.902c-1.579,0-2.86-1.634-2.86-3.648v-21.081c0-2.015 1.281-3.648 2.86-3.648h25.901c1.579,0 2.859,1.634 2.859,3.648v21.081z"/>
<path d="m276.555,170.451c3.648,0 7.297,0 10.945,0 6.448,0 6.448-10 0-10-3.648,0-7.297,0-10.945,0-6.449,0-6.449,10 0,10z"/>
<path d="m276.555,194.775c3.648,0 7.297,0 10.945,0 6.448,0 6.448-10 0-10-3.648,0-7.297,0-10.945,0-6.449,0-6.449,10 0,10z"/>
<path d="m276.555,219.707c3.648,0 7.297,0 10.945,0 6.448,0 6.448-10 0-10-3.648,0-7.297,0-10.945,0-6.449,0-6.449,10 0,10z"/>
<path d="m276.555,245.855c3.648,0 7.297,0 10.945,0 6.448,0 6.448-10 0-10-3.648,0-7.297,0-10.945,0-6.449,0-6.449,10 0,10z"/>
<path stroke="#fff" stroke-width="10" d="m247.973,186.167h20.676v81.648h-20.676z"/>
</g>
</svg>
