<svg xmlns="http://www.w3.org/2000/svg" viewBox="20 20 321 321">
<g fill="#fff" fill-rule="evenodd">
<path d="m135.611,77.889c0,19.185 0,38.371 0,57.556-19.185,0-38.371,0-57.556,0 0-19.185 0-38.371 0-57.556 19.185,0 38.371,0 57.556,0zm-49.334,8.222c0,13.704 0,27.408 0,41.111 13.704,0 27.408,0 41.111,0 0-13.704 0-27.408 0-41.111-13.703-0-27.407-0-41.111-0z"/>
<path d="m168.5,77.889c2.741,0 5.481,0 8.222,0 0,2.741 0,5.481 0,8.222-2.741,0-5.481,0-8.222,0 0-2.74 0-5.481 0-8.222z"/>
<path d="m184.944,77.889c8.222,0 16.444,0 24.667,0 0,5.481 0,10.963 0,16.444-2.741,0-5.482,0-8.223,0 0-2.741 0-5.481 0-8.222-5.481,0-10.963,0-16.444,0 0-2.74 0-5.481 0-8.222z"/>
<path d="m283.611,77.889c0,19.185 0,38.371 0,57.556-19.186,0-38.371,0-57.557,0 0-19.185 0-38.371 0-57.556 19.186,0 38.372,0 57.557,0zm-49.334,8.222c0,13.704 0,27.408 0,41.111 13.703,0 27.408,0 41.111,0 0-13.704 0-27.408 0-41.111-13.702-0-27.408-0-41.111-0z"/>
<path d="m94.5,94.333c8.222,0 16.445,0 24.667,0 0,8.222 0,16.445 0,24.667-8.222,0-16.445,0-24.667,0 0-8.222 0-16.444 0-24.667z"/>
<path d="m184.944,94.333c2.741,0 5.481,0 8.222,0 0,2.741 0,5.481 0,8.222-2.74,0-5.48,0-8.222,0 0-2.74 0-5.481 0-8.222z"/>
<path d="m242.5,94.333c8.222,0 16.444,0 24.666,0 0,8.222 0,16.445 0,24.667-8.222,0-16.444,0-24.666,0 0-8.222 0-16.444 0-24.667z"/>
<path d="m250.722,143.667c2.741,0 5.481,0 8.223,0 0,2.741 0,5.481 0,8.222-2.741,0-5.481,0-8.223,0 0-2.741 0-5.481 0-8.222z"/>
<path d="m242.5,184.778c2.74,0 5.48,0 8.222,0 0,2.741 0,5.481 0,8.222-2.741,0-5.481,0-8.222,0 0-2.74 0-5.48 0-8.222z"/>
<path d="m78.055,209.445c5.481,0 10.963,0 16.444,0 0,2.74 0,5.48 0,8.222-5.481,0-10.963,0-16.444,0 0-2.741 0-5.481 0-8.222z"/>
<path d="m135.611,225.889c0,19.186 0,38.371 0,57.557-19.185,0-38.371,0-57.556,0 0-19.186 0-38.371 0-57.557 19.185,0 38.371,0 57.556,0zm-49.334,8.222c0,13.703 0,27.408 0,41.111 13.704,0 27.408,0 41.111,0 0-13.703 0-27.408 0-41.111-13.703,0-27.407,0-41.111,0z"/>
<path d="m168.5,225.889c2.741,0 5.481,0 8.222,0 0,2.741 0,5.482 0,8.223-2.741,0-5.481,0-8.222,0 0-2.741 0-5.482 0-8.223z"/>
<path d="m226.055,225.889c2.741,0 5.482,0 8.223,0 0,2.741 0,5.482 0,8.223-2.74,0-5.481,0-8.223,0 0-2.741 0-5.482 0-8.223z"/>
<path d="m94.5,242.334c8.222,0 16.445,0 24.667,0 0,8.222 0,16.444 0,24.666-8.222,0-16.445,0-24.667,0 0-8.222 0-16.444 0-24.666z"/>
<path d="m275.389,275.223c2.74,0 5.481,0 8.223,0 0,2.74 0,5.481 0,8.223-2.741,0-5.482,0-8.223,0 0-2.742 0-5.483 0-8.223z"/>
<path d="m184.944,119c-10.621,0-21.241,0-31.861,0-2.387,6.177-.351,16.779-1.028,24.667-2.741,0-5.481,0-8.222,0 0-8.222 0-16.444 0-24.667 2.741,0 5.481,0 8.222,0 0-2.398 0-4.796 0-7.195-.765-2.318-5.765-.402-8.222-1.027 0-2.741 0-5.482 0-8.223 2.741,0 5.481,0 8.222,0 0-8.222 0-16.444 0-24.667 2.741,0 5.481,0 8.222,0 0,5.139 0,10.278 0,15.417 3.449,2.375 11.288,.36 16.444,1.028 0,5.139 0,10.278 0,15.417 .766,2.318 5.765,.402 8.223,1.028-0,2.741-0,5.482-0,8.222 5.481,0 10.963,0 16.444,0 0-5.481 0-10.963 0-16.445 2.74,0 5.481,0 8.223,0 0,2.741 0,5.482 0,8.223 2.74,0 5.48,0 8.222,0 0,13.361 0,26.722 0,40.083 .442,2.298 5.065,.417 7.194,1.028 2.318-.765 .402-5.765 1.027-8.222 5.482,0 10.963,0 16.445,0 0,5.139 0,10.278 0,15.417 3.449,2.375 11.287,.36 16.444,1.028 0,5.481 0,10.963 0,16.444-8.223,0-16.444,0-24.667,0 0,10.62 0,21.241 0,31.861 3.109,2.372 10.602,.362 15.417,1.028 2.317-.766 .401-5.766 1.027-8.223 2.741,0 5.481,0 8.223,0 0,5.481 0,10.963 0,16.444-2.741,0-5.481,0-8.223,0 0,5.139 0,10.278 0,15.417 .766,2.318 5.765,.401 8.223,1.027 0,5.139 0,10.277 0,15.417 .442,2.298 5.065,.416 7.194,1.027 2.318-.765 .402-5.765 1.027-8.222 5.482,0 10.963,0 16.445,0 0,2.74 0,5.48 0,8.222-2.741,0-5.482,0-8.223,0 0,2.398 0,4.796 0,7.194 .766,2.318 5.765,.402 8.223,1.028 0,2.741 0,5.481 0,8.222-8.223,0-16.445,0-24.667,0 0,5.482 0,10.963 0,16.445-2.741,0-5.481,0-8.223,0 0-8.223 0-16.445 0-24.667 2.741,0 5.481,0 8.223,0 0-2.741 0-5.481 0-8.223-10.964,0-21.927,0-32.89,0 0,7.88 0,15.759 0,23.64 .766,2.317 5.766,.401 8.223,1.027 0,2.74 0,5.481 0,8.223-2.74,0-5.481,0-8.223,0 0-2.741 0-5.482 0-8.223-2.397,0-4.796,0-7.193,0-2.318,.766-.402,5.765-1.028,8.223-2.741,0-5.481,0-8.222,0 0-5.482 0-10.963 0-16.445 2.74,0 5.48,0 8.222,0 0-5.48 0-10.963 0-16.444-5.481,0-10.963,0-16.444,0 0,5.481 0,10.964 0,16.444-5.139,0-10.277,0-15.417,0-2.298,.443-.416,5.065-1.027,7.195 .765,2.317 5.765,.401 8.222,1.027 0,2.74 0,5.481 0,8.223-2.74,0-5.48,0-8.222,0 0-2.398 0-4.797 0-7.195-.766-2.318-5.765-.401-8.223-1.027 0-2.74 0-5.481 0-8.223 2.741,0 5.481,0 8.223,0 0-2.74 0-5.48 0-8.222 2.741,0 5.481,0 8.222,0 0-2.741 0-5.481 0-8.223 2.741,0 5.482,0 8.223,0 0-2.741 0-5.481 0-8.222-7.88,0-15.76,0-23.639,0-2.318,.766-.402,5.765-1.028,8.222-2.398,0-4.796,0-7.194,0-2.318,.766-.402,5.765-1.028,8.223-2.741,0-5.481,0-8.222,0 0-5.481 0-10.964 0-16.444 5.139,0 10.278,0 15.417,0 2.318-.766 .402-5.766 1.027-8.223 2.741,0 5.481,0 8.223,0 0-2.74 0-5.481 0-8.223 5.481,0 10.963,0 16.444,0 0,2.741 0,5.482 0,8.223 2.74,0 5.481,0 8.223,0 0-2.398 0-4.797 0-7.194-.766-2.317-5.766-.401-8.223-1.028 0-2.74 0-5.48 0-8.222-5.481,0-10.963,0-16.444,0 0-2.741 0-5.481 0-8.222 7.88,0 15.759,0 23.639,0 2.317-.766 .401-5.766 1.028-8.223 2.74,0 5.48,0 8.222,0 0-2.398 0-4.797 0-7.194-.442-2.298-5.065-.417-7.194-1.028-2.318,.766-.402,5.766-1.027,8.223-2.741,0-5.482,0-8.223,0 0-2.74 0-5.481 0-8.223-10.621,0-21.241,0-31.861,0-2.318,.766-.402,5.766-1.028,8.223-2.741,0-5.481,0-8.222,0 0,2.398 0,4.797 0,7.194 .443,2.298 5.065,.417 7.194,1.028 2.318-.766 .402-5.766 1.028-8.223 2.741,0 5.481,0 8.222,0 0,5.481 0,10.963 0,16.444-2.398,0-4.796,0-7.194,0-2.318,.765-.402,5.765-1.028,8.222-2.741,0-5.481,0-8.222,0 0,5.482 0,10.963 0,16.445-2.741,0-5.481,0-8.222,0 0-5.139 0-10.278 0-15.417-.765-2.317-5.765-.401-8.222-1.028 0-5.139 0-10.277 0-15.416-.443-2.299-5.065-.416-7.194-1.027-2.318,.765-.402,5.764-1.028,8.222-2.741,0-5.481,0-8.222,0 0-2.741 0-5.481 0-8.222 2.741,0 5.481,0 8.222,0 0-2.741 0-5.482 0-8.223-7.88,0-15.759,0-23.639,0-2.298,.442-.416,5.064-1.027,7.194 .765,2.317 5.765,.401 8.222,1.028 0,2.74 0,5.48 0,8.222-2.741,0-5.481,0-8.222,0 0-2.741 0-5.481 0-8.222-2.741,0-5.482,0-8.223,0 0-5.482 0-10.963 0-16.445 5.139,0 10.278,0 15.417,0 2.318-.766 .402-5.765 1.028-8.222 2.398,0 4.796,0 7.194,0 2.318-.766 .402-5.765 1.028-8.223 2.741,0 5.481,0 8.222,0 0,2.741 0,5.481 0,8.223-2.741,0-5.481,0-8.222,0 0,2.741 0,5.481 0,8.222 2.398,0 4.796,0 7.194,0 2.318-.766 .402-5.765 1.028-8.222 2.398,0 4.796,0 7.194,0 2.318-.766 .402-5.765 1.028-8.223 2.741,0 5.481,0 8.222,0 0,2.741 0,5.481 0,8.223-2.741,0-5.481,0-8.222,0 0,5.481 0,10.963 0,16.444 5.139,0 10.278,0 15.417,0 2.298-.443 .417-5.065 1.028-7.194-.765-2.318-5.765-.401-8.222-1.028 0-2.74 0-5.48 0-8.222 2.741,0 5.481,0 8.222,0 0-2.741 0-5.482 0-8.223 2.741,0 5.481,0 8.222,0 0-5.481 0-10.963 0-16.444 10.963,0 21.926,0 32.889,0 0-8.222 0-16.444 0-24.667 2.74,0 5.481,0 8.223,0 0-5.139 0-10.278 0-15.417-.766-2.318-5.766-.402-8.223-1.028 0,5.481 0,10.963 0,16.444-2.74,0-5.481,0-8.223,0 0,5.481 0,10.963 0,16.444-2.74,0-5.48,0-8.222,0 0-5.481 0-10.963 0-16.444 2.741,0 5.481,0 8.222,0 0-2.741 0-5.481 0-8.222-2.398,0-4.796,0-7.194,0-2.317,.765-.401,5.765-1.027,8.222-2.741,0-5.482,0-8.223,0 0,5.481 0,10.963 0,16.444-5.481,0-10.963,0-16.444,0 0-2.741 0-5.481 0-8.222 2.741,0 5.481,0 8.222,0 0-2.398 0-4.796 0-7.194-.765-2.318-5.765-.402-8.222-1.028 0-2.741 0-5.481 0-8.222 2.741,0 5.481,0 8.222,0 0,2.741 0,5.481 0,8.222 2.398,0 4.796,0 7.195,0 2.318-.766 .402-5.765 1.027-8.222 2.741,0 5.481,0 8.223,0-.002-2.736-.002-5.477-.002-8.218zm-8.222,57.556c0,2.741 0,5.481 0,8.223 2.741,0 5.481,0 8.223,0 .626-2.458-1.29-7.457 1.027-8.223 2.398,0 4.796,0 7.194,0 0-2.741 0-5.481 0-8.222-2.74,0-5.48,0-8.222,0 0,2.741 0,5.481 0,8.222-2.741,0-5.482,0-8.222,0zm24.667,8.222c2.74,0 5.481,0 8.223,0 0-2.741 0-5.482 0-8.223-2.741,0-5.482,0-8.223,0 0,2.741 0,5.482 0,8.223zm16.444,0c2.741,0 5.481,0 8.222,0 0-2.741 0-5.482 0-8.223-2.74,0-5.48,0-8.222,0 0,2.741 0,5.482 0,8.223zm0,57.556c8.222,0 16.444,0 24.667,0 0-8.223 0-16.445 0-24.667-8.223,0-16.445,0-24.667,0 0,8.222 0,16.444 0,24.667z"/>
<path d="m168.5,258.778c2.741,0 5.481,0 8.222,0 0,2.741 0,5.481 0,8.222-2.398,0-4.796,0-7.194,0-2.318,.766-.402,5.766-1.028,8.223-2.741,0-5.481,0-8.222,0 0,2.74 0,5.481 0,8.223-2.741,0-5.481,0-8.222,0 0-2.741 0-5.482 0-8.223-2.741,0-5.481,0-8.222,0 0-5.481 0-10.963 0-16.444 2.741,0 5.481,0 8.222,0 0,2.741 0,5.481 0,8.222 5.139,0 10.278,0 15.417,0 2.317-.767 .401-5.766 1.027-8.223z"/>
<path d="m94.5,184.778c0-2.741 0-5.482 0-8.223-2.398,0-4.796,0-7.194,0-2.318,.766-.402,5.765-1.028,8.223-2.741,0-5.481,0-8.222,0 0-5.482 0-10.963 0-16.445 2.741,0 5.481,0 8.222,0 0-2.398 0-4.796 0-7.194-.765-2.318-5.765-.402-8.222-1.028 0-2.741 0-5.481 0-8.222 2.741,0 5.481,0 8.222,0 0-2.741 0-5.481 0-8.222 5.481,0 10.963,0 16.444,0 0,2.398 0,4.796 0,7.194 .766,2.318 5.765,.402 8.223,1.028 0,2.741 0,5.481 0,8.222-5.139,0-10.278,0-15.417,0-2.298,.443-.416,5.065-1.028,7.194 .766,2.318 5.765,.402 8.222,1.028 0,5.481 0,10.963 0,16.445-2.741,0-5.482,0-8.222,0 0,5.481 0,10.963 0,16.444-5.481,0-10.963,0-16.444,0 0-2.74 0-5.481 0-8.223 2.398,0 4.796,0 7.194,0 2.318-.766 .402-5.765 1.028-8.222 2.74,.001 5.481,.001 8.222,.001z"/>
<path d="m135.611,151.889c-2.741,0-5.481,0-8.222,0 0,2.398 0,4.796 0,7.194 .442,2.298 5.065,.417 7.194,1.028 2.318-.765 .402-5.764 1.028-8.222 5.481,0 10.963,0 16.444,0 0,2.398 0,4.796 0,7.194 .766,2.318 5.765,.402 8.222,1.028 0,2.741 0,5.481 0,8.222-2.741,0-5.481,0-8.222,0 0-2.741 0-5.481 0-8.222-2.398,0-4.796,0-7.194,0-2.318,.766-.402,5.765-1.028,8.222-8.222,0-16.444,0-24.667,0 0-5.481 0-10.963 0-16.444 2.398,0 4.796,0 7.194,0 2.318-.765 .402-5.765 1.028-8.222 2.741,0 5.481,0 8.222,0 .001,2.741 .001,5.481 .001,8.222z"/>
<path d="m275.389,168.333c0-2.398 0-4.796 0-7.194-.766-2.318-5.765-.402-8.223-1.028 0-2.741 0-5.481 0-8.222 5.482,0 10.963,0 16.445,0 0,5.481 0,10.963 0,16.444-2.741,0-5.482,0-8.222,0 0,2.398 0,4.796 0,7.195 .766,2.318 5.765,.402 8.223,1.027 0,13.704 0,27.407 0,41.111-2.741,0-5.482,0-8.223,0 0,2.397 0,4.796 0,7.194 .766,2.318 5.765,.402 8.223,1.027 0,2.741 0,5.482 0,8.223-2.741,0-5.482,0-8.223,0 0-2.398 0-4.797 0-7.194-.766-2.317-5.765-.401-8.223-1.028 0-2.74 0-5.48 0-8.222 2.741,0 5.482,0 8.223,0 0-13.361 0-26.722 0-40.083-.766-2.318-5.765-.402-8.223-1.028 0-2.741 0-5.481 0-8.222 2.741,0 5.482,0 8.223,0z"/>
</g>
</svg>
