<svg xmlns="http://www.w3.org/2000/svg" viewBox="20 20 321 321">
<path fill="none" stroke="#fff" stroke-width="10" d="m135.5,234.416c0,3.06-2.687,5.54-6,5.54h-22c-3.313,0-6-2.48-6-5.54v-153.586c0-3.06 2.687-5.54 6-5.54h22c3.313,0 6,2.48 6,5.54v153.586z"/>
<g fill="#fff">
<path stroke="#fff" stroke-width="10" d="m144.5,280.623c0,3.313-2.106,6-4.704,6h-42.592c-2.598,0-4.704-2.687-4.704-6v-34.666c0-3.314 2.106-6 4.704-6h42.592c2.598,0 4.704,2.686 4.704,6v34.666z"/>
<path d="m148.5,91.29c6,0 12,0 18,0 6.449,0 6.449-10 0-10-6,0-12,0-18,0-6.449,0-6.449,10 0,10z"/>
<path d="m148.5,131.29c6,0 12,0 18,0 6.449,0 6.449-10 0-10-6,0-12,0-18,0-6.449,0-6.449,10 0,10z"/>
<path d="m148.5,172.29c6,0 12,0 18,0 6.449,0 6.449-10 0-10-6,0-12,0-18,0-6.449,0-6.449,10 0,10z"/>
<path d="m148.5,215.289c6,0 12,0 18,0 6.449,0 6.449-10 0-10-6,0-12,0-18,0-6.449,0-6.449,10 0,10z"/>
<path stroke="#fff" stroke-width="10" d="m101.499,193.118h34v62.505h-34z"/>
<path d="m288.503,276.015c-2.337,0-4.674,0-7.011,0-4.514,0-4.514,7 0,7 2.337,0 4.674,0 7.011,0 4.514,0 4.514-7 0-7z"/>
<path d="m261.982,273.015c-2.581,0-5.161,0-7.742,0-4.514,0-4.514,7 0,7 2.581,0 5.161,0 7.742,0 4.514,0 4.514-7 0-7z"/>
<path d="m265.418,262.015c-5.083,0-10.167,0-15.25,0-4.514,0-4.514,7 0,7 5.083,0 10.167,0 15.25,0 4.514,0 4.514-7 0-7z"/>
<path d="m240.184,284.911c-2,0-4,0-6,0-1.908,0-3.5,1.592-3.5,3.5s1.592,3.5 3.5,3.5c2,0 4,0 6,0 1.908,0 3.5-1.592 3.5-3.5s-1.592-3.5-3.5-3.5z"/>
<path d="m285.67,266.078c-.667,0-1.333,0-2,0-1.908,0-3.5,1.592-3.5,3.5s1.592,3.5 3.5,3.5c.667,0 1.333,0 2,0 1.908,0 3.5-1.592 3.5-3.5s-1.592-3.5-3.5-3.5z"/>
<path d="m268.668,283.402c.667,0 1.333,0 2,0 1.908,0 3.5-1.592 3.5-3.5s-1.592-3.5-3.5-3.5c-.667,0-1.333,0-2,0-1.908,0-3.5,1.592-3.5,3.5s1.592,3.5 3.5,3.5z"/>
<path d="m184.088,291.911c2,0 4,0 6,0 1.908,0 3.5-1.592 3.5-3.5s-1.592-3.5-3.5-3.5c-2,0-4,0-6,0-1.908,0-3.5,1.592-3.5,3.5s1.592,3.5 3.5,3.5z"/>
<path d="m274.42,271.015c1.833,0 3.667,0 5.5,0 1.908,0 3.5-1.592 3.5-3.5s-1.592-3.5-3.5-3.5c-1.833,0-3.667,0-5.5,0-1.908,0-3.5,1.592-3.5,3.5s1.592,3.5 3.5,3.5z"/>
<path d="m193.752,260.078c-3,0-6,0-9,0-4.514,0-4.514,7 0,7 3,0 6,0 9,0 4.514,0 4.514-7 0-7z"/>
<path d="m226.371,279.042c3,0 6,0 9,0 4.514,0 4.514-7 0-7-3,0-6,0-9,0-4.514,0-4.514,7 0,7z"/>
<path d="m209.516,267.674c5.333,0 10.667,0 16,0 4.514,0 4.514-7 0-7-5.333,0-10.667,0-16,0-4.514,0-4.514,7 0,7z"/>
<path d="m209.85,278.911c2,0 4,0 6,0 1.908,0 3.5-1.592 3.5-3.5s-1.592-3.5-3.5-3.5c-2,0-4,0-6,0-1.908,0-3.5,1.592-3.5,3.5s1.591,3.5 3.5,3.5z"/>
<path d="m223.184,272.911c.667,0 1.333,0 2,0 1.908,0 3.5-1.592 3.5-3.5s-1.592-3.5-3.5-3.5c-.667,0-1.333,0-2,0-1.908,0-3.5,1.592-3.5,3.5s1.591,3.5 3.5,3.5z"/>
<path d="m217.35,284.911c-2,0-4,0-6,0-1.908,0-3.5,1.592-3.5,3.5s1.592,3.5 3.5,3.5c2,0 4,0 6,0 1.908,0 3.5-1.592 3.5-3.5s-1.592-3.5-3.5-3.5z"/>
<path d="m276.434,284.744c-5.083,0-10.167,0-15.25,0-4.514,0-4.514,7 0,7 5.083,0 10.167,0 15.25,0 4.513,0 4.513-7 0-7z"/>
<path d="m237.684,264.911c-2,0-4,0-6,0-1.908,0-3.5,1.592-3.5,3.5s1.592,3.5 3.5,3.5c2,0 4,0 6,0 1.908,0 3.5-1.592 3.5-3.5s-1.592-3.5-3.5-3.5z"/>
<path d="m193.002,269.709c-3,0-6.001,0-9.001,0-4.514,0-4.514,7 0,7 3,0 6.001,0 9.001,0 4.514,0 4.514-7 0-7z"/>
<path d="m202.668,284.945c-5.333,0-10.667,0-16,0-4.514,0-4.514,7 0,7 5.333,0 10.667,0 16,0 4.514,0 4.514-7 0-7z"/>
<path d="m207.35,276.911c-2,0-4,0-6,0-1.908,0-3.5,1.592-3.5,3.5s1.592,3.5 3.5,3.5c2,0 4,0 6,0 1.908,0 3.5-1.592 3.5-3.5s-1.592-3.5-3.5-3.5z"/>
<path d="m189.001,280.709c-.667,0-1.333,0-2,0-1.908,0-3.5,1.592-3.5,3.5s1.592,3.5 3.5,3.5c.667,0 1.333,0 2,0 1.908,0 3.5-1.592 3.5-3.5s-1.592-3.5-3.5-3.5z"/>
<path d="m194.668,271.709c3.722,0 7.444,0 11.166,0 4.514,0 4.514-7 0-7-3.722,0-7.444,0-11.166,0-4.514,0-4.514,7 0,7z"/>
<path d="m215.35,272.911c-5.333,0-10.667,0-16,0-4.514,0-4.514,7 0,7 5.333,0 10.667,0 16,0 4.513,0 4.513-7 0-7z"/>
<path d="m244.24,282.328c3,0 6.001,0 9.001,0 4.514,0 4.514-7 0-7-3,0-6.001,0-9.001,0-4.513,0-4.513,7 0,7z"/>
<path d="m238.616,267.661c1.083,0 2.167,0 3.25,0 1.908,0 3.5-1.592 3.5-3.5s-1.592-3.5-3.5-3.5c-1.083,0-2.167,0-3.25,0-1.908,0-3.5,1.592-3.5,3.5s1.592,3.5 3.5,3.5z"/>
<path d="m262.668,272.292c2,0 4,0 6,0 1.908,0 3.5-1.592 3.5-3.5s-1.592-3.5-3.5-3.5c-2,0-4,0-6,0-1.908,0-3.5,1.592-3.5,3.5s1.592,3.5 3.5,3.5z"/>
<path d="m274.992,288.16c1.833,0 3.667,0 5.5,0 1.908,0 3.5-1.592 3.5-3.5s-1.592-3.5-3.5-3.5c-1.833,0-3.667,0-5.5,0-1.908,0-3.5,1.592-3.5,3.5s1.592,3.5 3.5,3.5z"/>
<path d="m219.17,289.042c.667,0 1.333,0 2,0 1.908,0 3.5-1.592 3.5-3.5s-1.592-3.5-3.5-3.5c-.667,0-1.333,0-2,0-1.908,0-3.5,1.592-3.5,3.5s1.592,3.5 3.5,3.5z"/>
<path d="m215.42,278.848c.667,0 1.333,0 2,0 1.908,0 3.5-1.592 3.5-3.5s-1.592-3.5-3.5-3.5c-.667,0-1.333,0-2,0-1.908,0-3.5,1.592-3.5,3.5s1.592,3.5 3.5,3.5z"/>
<path d="m256.991,284.744c-1.834,0-3.667,0-5.501,0-1.908,0-3.5,1.592-3.5,3.5s1.592,3.5 3.5,3.5c1.834,0 3.667,0 5.501,0 1.908,0 3.5-1.592 3.5-3.5s-1.592-3.5-3.5-3.5z"/>
<path d="m288.92,283.792c-.667,0-1.333,0-2,0-1.908,0-3.5,1.592-3.5,3.5s1.592,3.5 3.5,3.5c.667,0 1.333,0 2,0 1.908,0 3.5-1.592 3.5-3.5s-1.592-3.5-3.5-3.5z"/>
<path d="m269.67,275.078c-.667,0-1.333,0-2,0-1.908,0-3.5,1.592-3.5,3.5s1.592,3.5 3.5,3.5c.667,0 1.333,0 2,0 1.908,0 3.5-1.592 3.5-3.5s-1.592-3.5-3.5-3.5z"/>
<path d="m258.42,280.015c1.833,0 3.667,0 5.5,0 1.908,0 3.5-1.592 3.5-3.5s-1.592-3.5-3.5-3.5c-1.833,0-3.667,0-5.5,0-1.908,0-3.5,1.592-3.5,3.5s1.592,3.5 3.5,3.5z"/>
<path d="m279.087,267.078c3.277,0 6.556,0 9.833,0 4.514,0 4.514-7 0-7-3.277,0-6.556,0-9.833,0-4.514,0-4.514,7 0,7z"/>
<path d="m221.792,287.709c3.722,0 7.444,0 11.166,0 4.514,0 4.514-7 0-7-3.722,0-7.444,0-11.166,0-4.514,0-4.514,7 0,7z"/>
<path d="m183.873,250.191c2.337,0 4.673,0 7.01,0 4.514,0 4.514-7 0-7-2.337,0-4.673,0-7.01,0-4.514,0-4.514,7 0,7z"/>
<path d="m207.394,247.191c2.58,0 5.161,0 7.741,0 4.514,0 4.514-7 0-7-2.58,0-5.161,0-7.741,0-4.514,0-4.514,7 0,7z"/>
<path d="m203.957,236.191c5.083,0 10.167,0 15.25,0 4.514,0 4.514-7 0-7-5.083,0-10.167,0-15.25,0-4.514,0-4.514,7 0,7z"/>
<path d="m229.191,259.088c2,0 4,0 6,0 1.908,0 3.5-1.592 3.5-3.5s-1.592-3.5-3.5-3.5c-2,0-4,0-6,0-1.908,0-3.5,1.592-3.5,3.5s1.592,3.5 3.5,3.5z"/>
<path d="m183.705,240.255c.667,0 1.333,0 2,0 1.908,0 3.5-1.592 3.5-3.5s-1.592-3.5-3.5-3.5c-.667,0-1.333,0-2,0-1.908,0-3.5,1.592-3.5,3.5s1.592,3.5 3.5,3.5z"/>
<path d="m200.707,243.58c-.667,0-1.333,0-2,0-1.908,0-3.5,1.592-3.5,3.5s1.592,3.5 3.5,3.5c.667,0 1.333,0 2,0 1.908,0 3.5-1.592 3.5-3.5s-1.592-3.5-3.5-3.5z"/>
<path d="m288.287,249.088c-2,0-4,0-6,0-1.908,0-3.5,1.592-3.5,3.5s1.592,3.5 3.5,3.5c2,0 4,0 6,0 1.908,0 3.5-1.592 3.5-3.5s-1.592-3.5-3.5-3.5z"/>
<path d="m194.956,231.191c-1.834,0-3.667,0-5.501,0-1.908,0-3.5,1.592-3.5,3.5s1.592,3.5 3.5,3.5c1.834,0 3.667,0 5.501,0 1.908,0 3.5-1.592 3.5-3.5s-1.592-3.5-3.5-3.5z"/>
<path d="m279.623,234.255c3,0 6.001,0 9.001,0 4.514,0 4.514-7 0-7-3,0-6.001,0-9.001,0-4.514,0-4.514,7 0,7z"/>
<path d="m243.005,239.219c-3,0-6.001,0-9.001,0-4.514,0-4.514,7 0,7 3,0 6.001,0 9.001,0 4.514,0 4.514-7 0-7z"/>
<path d="m259.859,227.852c-5.333,0-10.667,0-16,0-4.514,0-4.514,7 0,7 5.333,0 10.667,0 16,0 4.514,0 4.514-7 0-7z"/>
<path d="m259.525,239.088c-2,0-4,0-6,0-1.908,0-3.5,1.592-3.5,3.5s1.592,3.5 3.5,3.5c2,0 4,0 6,0 1.908,0 3.5-1.592 3.5-3.5s-1.591-3.5-3.5-3.5z"/>
<path d="m246.191,233.088c-.667,0-1.333,0-2,0-1.908,0-3.5,1.592-3.5,3.5s1.592,3.5 3.5,3.5c.667,0 1.333,0 2,0 1.908,0 3.5-1.592 3.5-3.5s-1.591-3.5-3.5-3.5z"/>
<path d="m252.025,259.088c2,0 4,0 6,0 1.908,0 3.5-1.592 3.5-3.5s-1.592-3.5-3.5-3.5c-2,0-4,0-6,0-1.908,0-3.5,1.592-3.5,3.5s1.592,3.5 3.5,3.5z"/>
<path d="m192.941,260.921c5.083,0 10.167,0 15.25,0 4.514,0 4.514-7 0-7-5.083,0-10.167,0-15.25,0-4.513,0-4.513,7 0,7z"/>
<path d="m231.692,239.088c2,0 4,0 6,0 1.908,0 3.5-1.592 3.5-3.5s-1.592-3.5-3.5-3.5c-2,0-4,0-6,0-1.908,0-3.5,1.592-3.5,3.5s1.592,3.5 3.5,3.5z"/>
<path d="m279.374,243.886c3,0 6.001,0 9.001,0 4.514,0 4.514-7 0-7-3,0-6.001,0-9.001,0-4.514,0-4.514,7 0,7z"/>
<path d="m265.707,259.123c5.333,0 10.667,0 16,0 4.514,0 4.514-7 0-7-5.333,0-10.667,0-16,0-4.514,0-4.514,7 0,7z"/>
<path d="m262.025,251.088c2,0 4,0 6,0 1.908,0 3.5-1.592 3.5-3.5s-1.592-3.5-3.5-3.5c-2,0-4,0-6,0-1.908,0-3.5,1.592-3.5,3.5s1.592,3.5 3.5,3.5z"/>
<path d="m280.375,254.886c.667,0 1.333,0 2,0 1.908,0 3.5-1.592 3.5-3.5s-1.592-3.5-3.5-3.5c-.667,0-1.333,0-2,0-1.908,0-3.5,1.592-3.5,3.5s1.592,3.5 3.5,3.5z"/>
<path d="m274.707,229.886c-3.722,0-7.444,0-11.166,0-4.514,0-4.514,7 0,7 3.722,0 7.444,0 11.166,0 4.514,0 4.514-7 0-7z"/>
<path d="m254.025,247.088c5.333,0 10.667,0 16,0 4.514,0 4.514-7 0-7-5.333,0-10.667,0-16,0-4.513,0-4.513,7 0,7z"/>
<path d="m225.135,242.504c-3,0-6,0-9,0-4.514,0-4.514,7 0,7 3,0 6,0 9,0 4.513,0 4.513-7 0-7z"/>
<path d="m230.76,227.838c-1.083,0-2.167,0-3.25,0-1.908,0-3.5,1.592-3.5,3.5s1.592,3.5 3.5,3.5c1.083,0 2.167,0 3.25,0 1.908,0 3.5-1.592 3.5-3.5s-1.592-3.5-3.5-3.5z"/>
<path d="m206.707,232.469c-2,0-4,0-6,0-1.908,0-3.5,1.592-3.5,3.5s1.592,3.5 3.5,3.5c2,0 4,0 6,0 1.908,0 3.5-1.592 3.5-3.5s-1.592-3.5-3.5-3.5z"/>
<path d="m194.383,248.338c-1.833,0-3.667,0-5.5,0-1.908,0-3.5,1.592-3.5,3.5s1.592,3.5 3.5,3.5c1.833,0 3.667,0 5.5,0 1.908,0 3.5-1.592 3.5-3.5s-1.592-3.5-3.5-3.5z"/>
<path d="m250.206,249.219c-.667,0-1.333,0-2,0-1.908,0-3.5,1.592-3.5,3.5s1.592,3.5 3.5,3.5c.667,0 1.333,0 2,0 1.908,0 3.5-1.592 3.5-3.5s-1.592-3.5-3.5-3.5z"/>
<path d="m253.956,239.024c-.667,0-1.333,0-2,0-1.908,0-3.5,1.592-3.5,3.5s1.592,3.5 3.5,3.5c.667,0 1.333,0 2,0 1.908,0 3.5-1.592 3.5-3.5s-1.592-3.5-3.5-3.5z"/>
<path d="m212.385,258.921c1.833,0 3.667,0 5.5,0 1.908,0 3.5-1.592 3.5-3.5s-1.592-3.5-3.5-3.5c-1.833,0-3.667,0-5.5,0-1.908,0-3.5,1.592-3.5,3.5s1.592,3.5 3.5,3.5z"/>
<path d="m184.455,257.969c.667,0 1.333,0 2,0 1.908,0 3.5-1.592 3.5-3.5s-1.592-3.5-3.5-3.5c-.667,0-1.333,0-2,0-1.908,0-3.5,1.592-3.5,3.5s1.592,3.5 3.5,3.5z"/>
<path d="m199.705,249.255c.667,0 1.333,0 2,0 1.908,0 3.5-1.592 3.5-3.5s-1.592-3.5-3.5-3.5c-.667,0-1.333,0-2,0-1.908,0-3.5,1.592-3.5,3.5s1.592,3.5 3.5,3.5z"/>
<path d="m210.956,238.191c-1.834,0-3.667,0-5.501,0-1.908,0-3.5,1.592-3.5,3.5s1.592,3.5 3.5,3.5c1.834,0 3.667,0 5.501,0 1.908,0 3.5-1.592 3.5-3.5s-1.592-3.5-3.5-3.5z"/>
<path d="m193.289,227.255c-3.278,0-6.556,0-9.834,0-4.514,0-4.514,7 0,7 3.278,0 6.556,0 9.834,0 4.514,0 4.514-7 0-7z"/>
<path d="m247.584,247.886c-3.722,0-7.444,0-11.166,0-4.514,0-4.514,7 0,7 3.722,0 7.444,0 11.166,0 4.514,0 4.514-7 0-7z"/>
<path d="m182.088,230.167c36.179,0 72.357,0 108.536,0 1.935,0 1.935-3 0-3-36.179,0-72.357,0-108.536,0-1.935,0-1.935,3-0,3z"/>
<path d="m208.718,227.236c.063-15.673 .431-42.836 21.81-43.222 1.933-.035 1.936-3.035 0-3-23.484,.424-24.739,28.599-24.81,46.222-.008,1.935 2.992,1.935 3,0z"/>
<path d="m203.281,227.236c.126-18.041 4.718-42.843 27.246-43.222 1.933-.032 1.936-3.033 0-3-24.365,.409-30.107,26.354-30.246,46.222-.013,1.936 2.987,1.934 3,0z"/>
<path d="m220.391,227.236c.016-7.766-.271-15.921 1.438-23.552 .762-3.402 2.656-5.781 4.748-8.457 1.177-1.505-.931-3.645-2.121-2.121-2.146,2.743-4.153,5.209-5.206,8.593-2.482,7.985-1.843,17.32-1.858,25.537-.005,1.935 2.995,1.935 2.999,0z"/>
<path d="m216.359,227.236c.028-7.726-.24-16.176 2.533-23.526 1.416-3.751 4.781-5.968 7.684-8.482 1.465-1.269-.667-3.382-2.121-2.121-3.118,2.701-6.256,4.996-8.047,8.837-3.516,7.542-3.02,17.229-3.049,25.293-.006,1.934 2.994,1.934 3-.001z"/>
<path d="m195.998,227.236c-.046-7.583-.018-16.122-3.419-23.114-.652-1.341-1.617-2.561-2.749-3.525-.311-.265-1.609-.977-1.646-1.382-.17-1.911-3.171-1.928-3,0 .199,2.249 2.109,2.951 3.498,4.435 5.123,5.474 4.275,16.855 4.315,23.587 .013,1.933 3.013,1.935 3.001-.001z"/>
<path d="m201.382,226.838c-1.05-6.593-1.379-15.021-5.013-20.89-1.971-3.183-6.063-5.089-8.624-7.794-1.332-1.407-3.45,.718-2.121,2.121 2.401,2.536 5.647,4.241 7.91,6.84 1.318,1.513 1.764,3.878 2.24,5.754 1.231,4.842 1.93,9.839 2.715,14.766 .304,1.907 3.195,1.094 2.893-.797z"/>
<path d="m274.576,227.186c.022-6.912-.262-14.395 1.936-21.048 1.12-3.392 3.961-5.377 6.561-7.588 1.476-1.255-.657-3.366-2.121-2.121-2.797,2.379-5.485,4.467-6.953,7.943-2.916,6.906-2.398,15.518-2.422,22.813-.007,1.935 2.993,1.935 2.999,.001z"/>
<path d="m269.139,227.186c.04-6.861-.186-14.869 3.442-20.984 2.181-3.675 6.654-5.38 10.188-7.417 1.676-.965 .165-3.558-1.514-2.59-3.98,2.294-8.076,4.14-10.883,7.92-4.566,6.149-4.191,15.894-4.233,23.071-.012,1.935 2.988,1.933 3,0z"/>
<path d="m283.816,227.186c.047-5.998-.38-14.873 4.124-19.651 1.392-1.477 3.436-1.81 3.69-4.109 .213-1.922-2.79-1.901-3,0 .01-.089-3.619,2.893-4.177,3.699-3.771,5.45-3.589,13.804-3.638,20.062-.013,1.934 2.987,1.932 3.001-.001z"/>
<path d="m278.326,227.584c.946-5.036 1.286-12.857 4.724-17.049 2.021-2.465 5.733-3.897 8.142-6.05 1.445-1.292-.684-3.406-2.121-2.121-2.565,2.292-6.219,3.705-8.402,6.367-3.766,4.592-4.197,12.535-5.234,18.056-.357,1.891 2.534,2.697 2.891,.797z"/>
<path d="m265.1,227.287c-.036-4.676-.104-9.962-2.447-14.168-.521-.935-1.27-1.74-2.124-2.375-.278-.206-.565-.395-.858-.578-.456-.286-.184-.293-.127,.219-.21-1.901-3.212-1.922-3,0 .188,1.703 1.418,2.044 2.553,3.04 3.402,2.984 2.973,9.896 3.004,13.862 .013,1.934 3.013,1.936 2.999,0z"/>
<path d="m268.914,226.889c-.753-4.009-1.116-9.289-3.6-12.731-1.508-2.091-4.309-3.133-6.211-4.833-1.438-1.285-3.566,.829-2.121,2.121 1.727,1.543 3.95,2.526 5.6,4.098 .853,.813 1.179,2.14 1.505,3.223 .876,2.906 1.375,5.943 1.935,8.92 .356,1.899 3.248,1.092 2.892-.798z"/>
<path d="m250.574,227.8c-.021-6.788 .339-14.309-1.911-20.838-1.064-3.092-3.337-5.134-5.603-7.355-1.382-1.355-3.504,.765-2.121,2.121 2.081,2.041 4.056,3.779 5.032,6.616 2.071,6.013 1.583,13.213 1.603,19.456 .006,1.934 3.006,1.934 3-0z"/>
<path d="m254.879,227.8c-.038-6.844 .123-14.679-3.241-20.888-1.917-3.539-5.665-5.403-8.881-7.54-1.616-1.074-3.117,1.525-1.514,2.59 2.862,1.902 5.955,3.442 7.804,6.464 3.309,5.406 2.799,13.333 2.832,19.374 .011,1.933 3.011,1.934 3,0z"/>
<path d="m239.895,227.793c-.042-3.811-.375-7.962-2.924-10.998-.622-.741-1.483-1.313-2.35-1.726-.273-.131-.556-.241-.834-.362-.676-.295-.063,.052-.04,.199-.304-1.906-3.194-1.095-2.893,.797 .23,1.444 1.997,1.752 3.043,2.381 2.981,1.793 2.965,6.757 2.997,9.709 .022,1.934 3.022,1.936 3.001-0z"/>
<path d="m244.081,227.395c-.883-3.168-1.622-7.311-4.082-9.727-1.792-1.76-4.812-2.374-6.941-3.658-1.661-1.002-3.168,1.593-1.514,2.59 1.938,1.17 4.154,1.797 6.063,2.978 2.322,1.437 2.937,6.301 3.582,8.614 .518,1.861 3.413,1.07 2.892-.797z"/>
</g>
</svg>
