<svg xmlns="http://www.w3.org/2000/svg" viewBox="20 20 321 321">
<path fill="none" stroke="#fff" stroke-width="10" d="m135.5,234.46c0,3.06-2.687,5.54-6,5.54h-22c-3.313,0-6-2.48-6-5.54v-153.586c0-3.06 2.687-5.54 6-5.54h22c3.313,0 6,2.48 6,5.54v153.586z"/>
<g fill="#fff">
<path stroke="#fff" stroke-width="10" d="M144.5,280.667c0,3.313-2.106,6-4.704,6   H97.204c-2.598,0-4.704-2.687-4.704-6V246c0-3.313,2.106-6,4.704-6h42.592c2.598,0,4.704,2.688,4.704,6V280.667z"/>
<path d="m148.5,91.333c6,0 12,0 18,0 6.449,0 6.449-10 0-10-6,0-12,0-18,0-6.449,0-6.449,10 0,10z"/>
<path d="m148.5,131.333c6,0 12,0 18,0 6.449,0 6.449-10 0-10-6,0-12,0-18,0-6.449,0-6.449,10 0,10z"/>
<path d="m148.5,172.333c6,0 12,0 18,0 6.449,0 6.449-10 0-10-6,0-12,0-18,0-6.449,0-6.449,10 0,10z"/>
<path d="m148.5,215.334c6,0 12,0 18,0 6.449,0 6.449-10 0-10-6,0-12,0-18,0-6.449,0-6.449,10 0,10z"/>
<path stroke="#fff" stroke-width="10" d="m101.499,105.167h34v150.5h-34z"/>
<path d="m180.5,110.167c35.444,0 70.889,0 106.333,0 6.448,0 6.448-10 0-10-35.444,0-70.889,0-106.333,0-6.449,0-6.449,10 0,10z"/>
<path d="m192.172,130.403c.578,1.056 1.242,2.36 1.998,3.912 .753,1.553 1.539,3.232 2.357,5.04 .818,1.808 1.628,3.656 2.431,5.544 .802,1.889 1.556,3.665 2.263,5.328 .705-1.664 1.459-3.439 2.262-5.328 .801-1.888 1.611-3.736 2.43-5.544 .818-1.808 1.604-3.487 2.358-5.04 .754-1.552 1.42-2.856 1.997-3.912h6.816c.319,2.208 .615,4.68 .889,7.416 .271,2.736 .511,5.584 .719,8.544 .209,2.96 .4,5.928 .576,8.904s.328,5.776 .457,8.4h-7.297c-.096-3.232-.225-6.751-.384-10.56-.161-3.808-.4-7.647-.72-11.52-.578,1.344-1.221,2.832-1.926,4.464-.707,1.632-1.405,3.264-2.096,4.896-.689,1.632-1.355,3.192-1.998,4.68-.642,1.488-1.188,2.76-1.637,3.816h-5.232c-.449-1.056-.994-2.328-1.637-3.816-.643-1.488-1.309-3.048-1.999-4.68-.69-1.632-1.388-3.264-2.094-4.896-.706-1.632-1.349-3.12-1.927-4.464-.319,3.873-.56,7.712-.719,11.52-.161,3.809-.289,7.328-.385,10.56h-7.296c.128-2.624 .28-5.424 .456-8.4s.367-5.944 .576-8.904c.207-2.959 .447-5.808 .72-8.544 .271-2.736 .567-5.208 .888-7.416h7.154z"/>
<path d="m248.712,163.667c-.37-1.156-.769-2.343-1.194-3.561-.426-1.218-.85-2.432-1.272-3.639h-12.991c-.42,1.214-.842,2.43-1.264,3.649-.422,1.22-.814,2.404-1.179,3.551h-7.776c1.252-3.583 2.439-6.896 3.563-9.936 1.124-3.04 2.223-5.904 3.299-8.592 1.074-2.688 2.134-5.24 3.178-7.656 1.043-2.416 2.127-4.776 3.25-7.08h7.098c1.094,2.304 2.17,4.665 3.231,7.08 1.061,2.417 2.13,4.968 3.207,7.656s2.178,5.552 3.303,8.592c1.125,3.041 2.314,6.353 3.568,9.936h-8.021zm-8.996-25.728c-.167,.483-.412,1.141-.733,1.972-.322,.832-.688,1.792-1.1,2.882-.41,1.09-.87,2.29-1.378,3.6-.508,1.31-1.024,2.684-1.548,4.122h9.512c-.509-1.442-1.002-2.821-1.479-4.135s-.931-2.517-1.359-3.607c-.43-1.09-.807-2.05-1.131-2.881-.324-.829-.586-1.48-.784-1.953z"/>
<path d="m281.901,163.667c-.937-1.853-1.962-3.729-3.075-5.629-1.114-1.9-2.393-3.508-3.837-4.82-.448,.495-1.015,1.183-1.702,2.063-.687,.881-1.373,1.817-2.061,2.807-.687,.99-1.33,2.017-1.928,3.079-.6,1.063-1.045,1.897-1.336,2.501h-8.545c1.4-2.597 3.053-5.279 4.958-8.045 1.905-2.766 4.03-5.702 6.376-8.81l-10.854-16.409h9.072l6.338,9.632 6.477-9.632h8.545l-10.795,16.055c2.83,3.547 5.161,6.798 6.991,9.754 1.83,2.956 3.274,5.441 4.332,7.456h-8.956z"/>
</g>
</svg>
