<svg xmlns="http://www.w3.org/2000/svg" viewBox="20 20 321 321">
<g fill="#fff">
<path d="m183.983,128.219c4.229-1.258 8.513-2.353 12.844-3.195 5.906-1.149 11.071,.669 16.59,2.689 7.573,2.773 15.314,7.22 23.585,7.594 7.584,.344 15.701-4.572 22.595-7.222 5.297-2.036 10.722-4.133 16.455-3.259 4.719,.719 9.399,2.033 13.97,3.393 1.858,.553 2.646-2.342 .797-2.893-4.228-1.258-8.513-2.353-12.843-3.195-5.37-1.045-9.78-.16-14.938,1.538-8.436,2.775-17.019,8.23-26.035,8.639-5.043,.229-10.941-2.752-15.529-4.583-3.039-1.213-6.207-2.541-9.391-3.672-5.043-1.792-9.606-2.93-14.927-2.119-4.718,.72-9.398,2.034-13.969,3.394-1.85,.549-1.062,3.444 .796,2.891z"/>
<path d="m189.234,134.172c4.477-1.606 9.603-3.217 14.371-2.406 4.563,.776 9.035,2.629 13.314,4.337 6.278,2.505 13.113,5.923 20.082,6.238 6.439,.292 13.714-3.623 19.441-5.979 4.211-1.731 8.516-3.3 12.941-4.383 5.081-1.243 10.586,.469 15.385,2.191 1.825,.655 2.604-2.244 .797-2.893-4.163-1.495-8.523-2.583-12.953-2.759-4.584-.183-9.621,2.132-13.813,3.707-6.967,2.619-14.19,6.77-21.798,7.115-6.95,.314-14.545-4.278-20.875-6.76-4.488-1.76-9.138-3.464-13.949-4.026-4.459-.521-9.603,1.238-13.74,2.724-1.806,.65-1.028,3.549 .797,2.894z"/>
<path d="m189.316,120.148c4.476-1.606 9.602-3.217 14.37-2.406 4.563,.777 9.034,2.63 13.313,4.338 6.278,2.506 13.114,5.923 20.083,6.238 6.439,.292 13.714-3.622 19.441-5.978 4.211-1.732 8.516-3.301 12.942-4.384 5.08-1.242 10.584,.469 15.383,2.191 1.825,.655 2.604-2.244 .797-2.893-4.162-1.494-8.522-2.583-12.951-2.759-4.585-.183-9.622,2.132-13.814,3.708-6.967,2.619-14.19,6.77-21.798,7.114-6.95,.314-14.546-4.277-20.875-6.76-4.489-1.761-9.138-3.465-13.949-4.027-4.458-.521-9.602,1.238-13.739,2.724-1.806,.65-1.028,3.55 .797,2.894z"/>
<path d="m281.833,187.424c0,33.081 0,66.162 0,99.243 0,6.448 10,6.448 10,0 0-33.081 0-66.162 0-99.243 0-6.449-10-6.449-10-0z"/>
</g>
<g fill="none" stroke="#fff" stroke-width="10">
<path d="m186.98,203.533 60.938-26.785"/>
<path d="m192.301,219.188 65.158-6.834"/>
</g>
<g fill="#fff">
<path d="m247.918,176.748 33.676,10.059-24.135,25.547z"/>
<path d="m246.589,181.569c11.226,3.353 22.45,6.706 33.676,10.059-.735-2.785-1.471-5.571-2.206-8.356-8.045,8.516-16.09,17.031-24.135,25.547 2.785,.735 5.571,1.471 8.356,2.206-3.181-11.869-6.36-23.737-9.541-35.606-1.667-6.223-11.314-3.579-9.643,2.658 3.181,11.869 6.36,23.738 9.541,35.606 .955,3.564 5.765,4.95 8.356,2.206 8.045-8.516 16.09-17.031 24.135-25.547 2.606-2.758 1.455-7.263-2.206-8.356-11.226-3.353-22.45-6.706-33.676-10.059-6.193-1.851-8.82,7.801-2.657,9.642z"/>
<path d="m201.344,218.599c.588,2.352-.922,4.759-3.371,5.373l-6.287,1.571c-2.452,.613-4.916-.799-5.505-3.15l-4.753-18.998c-.59-2.354 .92-4.758 3.371-5.372l6.287-1.572c2.449-.612 4.915,.798 5.504,3.15l4.754,18.998z"/>
<path d="m221.037,213.234c.578,2.312-.537,4.582-2.492,5.072l-5.013,1.254c-1.954,.488-4.007-.989-4.585-3.301l-4.67-18.662c-.58-2.311 .537-4.581 2.491-5.07l5.013-1.254c1.953-.488 4.006,.988 4.586,3.301l4.67,18.66z"/>
<path d="m243.361,209.447c.727,2.9-.27,5.648-2.224,6.139l-5.013,1.253c-1.955,.489-4.127-1.466-4.854-4.366l-5.861-23.421c-.725-2.9 .271-5.649 2.226-6.139l5.013-1.253c1.953-.488 4.127,1.466 4.854,4.366l5.859,23.421z"/>
</g>
<path fill="none" stroke="#fff" stroke-width="10" d="m135.5,234.127c0,3.06-2.687,5.54-6,5.54h-22c-3.313,0-6-2.48-6-5.54v-153.586c0-3.06 2.687-5.54 6-5.54h22c3.313,0 6,2.48 6,5.54v153.586z"/>
<g fill="#fff">
<path stroke="#fff" stroke-width="10" d="m144.5,280.334c0,3.313-2.106,6-4.704,6h-42.592c-2.598,0-4.704-2.687-4.704-6v-34.666c0-3.314 2.106-6 4.704-6h42.592c2.598,0 4.704,2.686 4.704,6v34.666z"/>
<path d="m148.5,91c6,0 12,0 18,0 6.449,0 6.449-10 0-10-6,0-12,0-18,0-6.449,0-6.449,10 0,10z"/>
<path d="m148.5,131c6,0 12,0 18,0 6.449,0 6.449-10 0-10-6,0-12,0-18,0-6.449,0-6.449,10 0,10z"/>
<path d="m148.5,172c6,0 12,0 18,0 6.449,0 6.449-10 0-10-6,0-12,0-18,0-6.449,0-6.449,10 0,10z"/>
<path d="m148.5,215c6,0 12,0 18,0 6.449,0 6.449-10 0-10-6,0-12,0-18,0-6.449,0-6.449,10 0,10z"/>
<path stroke="#fff" stroke-width="10" d="m101.499,192.829h34v62.505h-34z"/>
</g>
</svg>
