<svg xmlns="http://www.w3.org/2000/svg" viewBox="20 20 321 321">
<g fill="#fff">
<g stroke="#fff" stroke-width="13.063">
<path d="m165.204,141.073c0,4.329-3.148,7.838-7.033,7.838h-54.511c-3.885,0-7.035-3.51-7.035-7.838v-56.823c0-4.329 3.15-7.838 7.035-7.838h54.512c3.884,0 7.033,3.509 7.033,7.838v56.823z"/>
<path d="m78.008,121.479c0,4.329 3.509,7.838 7.838,7.838h36.576c4.328,0 7.837-3.509 7.837-7.838v-22.207c0-4.329-3.51-7.838-7.837-7.838h-36.576c-4.329,0-7.838,3.509-7.838,7.838v22.207z"/>
<path d="m76.333,121.479c0-4.328 3.509-7.837 7.838-7.837h45.067c4.328,0 7.837,3.509 7.837,7.837v12.41c0,4.329-3.51,7.838-7.837,7.838h-45.067c-4.329,0-7.838-3.509-7.838-7.838v-12.41z"/>
</g>
<path d="m142.792,170.955c-5.5,9.526-11,19.052-16.5,28.579-3.23,5.595 5.412,10.628 8.635,5.047 5.5-9.526 11-19.053 16.5-28.579 3.23-5.595-5.412-10.629-8.635-5.047z"/>
<path d="m139.302,147c-5.5,9.526-11,19.052-16.5,28.579-3.23,5.595 5.412,10.628 8.635,5.047 5.5-9.526 11-19.052 16.5-28.579 3.23-5.595-5.413-10.629-8.635-5.047z"/>
<path d="m113.302,192.033c-5.5,9.526-11,19.053-16.5,28.579-3.23,5.595 5.412,10.628 8.635,5.047 5.5-9.526 11-19.053 16.5-28.579 3.23-5.595-5.413-10.628-8.635-5.047z"/>
<path d="m116.811,155.955c-5.5,9.526-11,19.052-16.5,28.579-3.23,5.595 5.413,10.628 8.635,5.047 5.5-9.526 11-19.052 16.5-28.579 3.23-5.595-5.413-10.629-8.635-5.047z"/>
<path d="m113.321,132c-5.5,9.526-11,19.053-16.5,28.579-3.23,5.595 5.412,10.628 8.635,5.047 5.5-9.526 11-19.053 16.5-28.579 3.23-5.595-5.413-10.629-8.635-5.047z"/>
<path d="m87.321,177.033c-5.5,9.526-11,19.053-16.5,28.579-3.23,5.595 5.413,10.628 8.635,5.047 5.5-9.526 11-19.053 16.5-28.579 3.23-5.595-5.413-10.628-8.635-5.047z"/>
<path d="m91.312,200.122c-5.5,9.526-11,19.053-16.5,28.579-3.23,5.595 5.412,10.628 8.635,5.047 5.5-9.526 11-19.053 16.5-28.579 3.23-5.595-5.413-10.628-8.635-5.047z"/>
<path d="m118.312,214.122c-5.5,9.526-11,19.053-16.5,28.579-3.23,5.595 5.412,10.628 8.635,5.047 5.5-9.526 11-19.053 16.5-28.579 3.23-5.595-5.413-10.628-8.635-5.047z"/>
<path d="m195.302,148c-5.5,9.526-11,19.052-16.5,28.579-3.23,5.595 5.412,10.628 8.635,5.047 5.5-9.526 11-19.053 16.5-28.579 3.23-5.595-5.413-10.629-8.635-5.047z"/>
<path d="m169.302,193.033c-5.5,9.526-11,19.053-16.5,28.579-3.23,5.595 5.412,10.628 8.635,5.047 5.5-9.526 11-19.053 16.5-28.579 3.23-5.595-5.413-10.628-8.635-5.047z"/>
<path d="m172.811,156.955c-5.5,9.526-11,19.052-16.5,28.579-3.23,5.595 5.413,10.628 8.635,5.047 5.5-9.526 11-19.052 16.499-28.579 3.231-5.595-5.412-10.629-8.634-5.047z"/>
<path d="m147.312,201.122c-5.5,9.526-11,19.053-16.5,28.579-3.23,5.595 5.412,10.628 8.635,5.047 5.5-9.526 11-19.053 16.5-28.579 3.23-5.595-5.413-10.628-8.635-5.047z"/>
<g stroke="#fff" stroke-width="13.063">
<path d="m207.674,148.912c0,4.328-3.148,7.837-7.033,7.837h-54.512c-3.885,0-7.034-3.509-7.034-7.837v-56.824c0-4.329 3.149-7.838 7.034-7.838h54.512c3.885,0 7.033,3.509 7.033,7.838v56.824z"/>
<path d="m171.781,142.379c0,4.329 3.51,7.838 7.837,7.838h36.576c4.329,0 7.838-3.509 7.838-7.838v-22.207c0-4.328-3.509-7.837-7.838-7.837h-36.576c-4.328,0-7.837,3.51-7.837,7.837v22.207z"/>
<path d="m170.648,158.056c0,4.328-3.149,7.837-7.033,7.837h-65.513c-3.884,0-7.034-3.509-7.034-7.837v-56.824c0-4.329 3.149-7.838 7.034-7.838h65.513c3.884,0 7.033,3.509 7.033,7.838v56.824z"/>
</g>
<path d="m285.083,280.326c-.434,5.377-6.032,4.5-9.861,4.5-3.448,0-8.889,.559-8.889-4.526 0-1.523 0-3.046 0-4.569 0-9.443 0-18.888 0-28.331 0-31.346 0-62.691 0-94.038 0-22.94 0-45.88 0-68.821 0-3.284-.028-6.955 4.5-7.32 4.226-.341 14.25-1.545 14.25,4.738 0,6.055 0,12.111 0,18.166 0,56.493 0,112.985 0,169.477 0,3.576 0,7.15 0,10.724 0,4.514 7,4.514 7,0 0-49.432 0-98.863 0-148.295 0-12.17 0-24.341 0-36.511 0-4.968 .98-11.113-.229-16.026-2.395-9.723-11.282-9.272-19.311-9.272-6.945,0-13.21,4.065-13.21,11.666 0,5.877 0,11.755 0,17.632 0,56.532 0,113.063 0,169.595 0,4.176-.788,9.307 .229,13.439 2.092,8.493 9.272,9.272 16.632,9.272 2.91,0 5.944,.272 8.684-.886 4.533-1.916 6.819-5.837 7.205-10.614 .363-4.502-6.64-4.468-7,0z"/>
<path d="m262.833,104.554c7.162,0 14.325,0 21.487,0 1.935,0 1.935-3 0-3-7.162,0-14.325,0-21.487,0-1.935,0-1.935,3 0,3z"/>
<path d="m262.833,95.241c3.988,0 7.976,0 11.964,0 1.935,0 1.935-3 0-3-3.988,0-7.976,0-11.964,0-1.935,0-1.935,3 0,3z"/>
<path d="m262.833,85.929c3.988,0 7.976,0 11.964,0 1.935,0 1.935-3 0-3-3.988,0-7.976,0-11.964,0-1.935,0-1.935,3 0,3z"/>
<path d="m262.053,150.938c7.163,0 14.325,0 21.488,0 1.935,0 1.935-3 0-3-7.163,0-14.325,0-21.488,0-1.935,0-1.935,3 0,3z"/>
<path d="m262.053,141.625c3.988,0 7.977,0 11.965,0 1.935,0 1.935-3 0-3-3.988,0-7.977,0-11.965,0-1.935,0-1.935,3 0,3z"/>
<path d="m262.053,132.313c3.988,0 7.977,0 11.965,0 1.935,0 1.935-3 0-3-3.988,0-7.977,0-11.965,0-1.935,0-1.935,3 0,3z"/>
<path d="m262.053,123c3.988,0 7.977,0 11.965,0 1.935,0 1.935-3 0-3-3.988,0-7.977,0-11.965,0-1.935,0-1.935,3 0,3z"/>
<path d="m262.053,113.688c3.988,0 7.977,0 11.965,0 1.935,0 1.935-3 0-3-3.988,0-7.977,0-11.965,0-1.935,0-1.935,3 0,3z"/>
<path d="m262.663,196.852c7.162,0 14.325,0 21.487,0 1.935,0 1.935-3 0-3-7.162,0-14.325,0-21.487,0-1.934,0-1.934,3 0,3z"/>
<path d="m262.663,187.539c3.988,0 7.976,0 11.964,0 1.935,0 1.935-3 0-3-3.988,0-7.976,0-11.964,0-1.934,0-1.934,3 0,3z"/>
<path d="m262.663,178.227c3.988,0 7.976,0 11.964,0 1.935,0 1.935-3 0-3-3.988,0-7.976,0-11.964,0-1.934,0-1.934,3 0,3z"/>
<path d="m262.663,168.915c3.988,0 7.976,0 11.964,0 1.935,0 1.935-3 0-3-3.988,0-7.976,0-11.964,0-1.934,0-1.934,3 0,3z"/>
<path d="m262.663,159.602c3.988,0 7.976,0 11.964,0 1.935,0 1.935-3 0-3-3.988,0-7.976,0-11.964,0-1.934,0-1.934,3 0,3z"/>
<path d="m261.883,243.236c7.163,0 14.325,0 21.488,0 1.935,0 1.935-3 0-3-7.163,0-14.325,0-21.488,0-1.935,0-1.935,3 0,3z"/>
<path d="m261.883,233.924c3.988,0 7.977,0 11.965,0 1.935,0 1.935-3 0-3-3.988,0-7.977,0-11.965,0-1.935,0-1.935,3 0,3z"/>
<path d="m261.883,224.611c3.988,0 7.977,0 11.965,0 1.935,0 1.935-3 0-3-3.988,0-7.977,0-11.965,0-1.935,0-1.935,3 0,3z"/>
<path d="m261.883,215.299c3.988,0 7.977,0 11.965,0 1.935,0 1.935-3 0-3-3.988,0-7.977,0-11.965,0-1.935,0-1.935,3 0,3z"/>
<path d="m261.883,205.986c3.988,0 7.977,0 11.965,0 1.935,0 1.935-3 0-3-3.988,0-7.977,0-11.965,0-1.935,0-1.935,3 0,3z"/>
<path d="m262.053,280.354c3.988,0 7.977,0 11.965,0 1.935,0 1.935-3 0-3-3.988,0-7.977,0-11.965,0-1.935,0-1.935,3 0,3z"/>
<path d="m262.053,271.042c3.988,0 7.977,0 11.965,0 1.935,0 1.935-3 0-3-3.988,0-7.977,0-11.965,0-1.935,0-1.935,3 0,3z"/>
<path d="m262.053,261.729c3.988,0 7.977,0 11.965,0 1.935,0 1.935-3 0-3-3.988,0-7.977,0-11.965,0-1.935,0-1.935,3 0,3z"/>
<path d="m262.053,252.417c3.988,0 7.977,0 11.965,0 1.935,0 1.935-3 0-3-3.988,0-7.977,0-11.965,0-1.935,0-1.935,3 0,3z"/>
</g>
</svg>
