<svg xmlns="http://www.w3.org/2000/svg" viewBox="20 20 321 321">
<g fill="#fff">
<path d="m191.66,103.333c-2.145-3.808-4.465-7.567-6.961-11.28-2.496-3.712-5.152-7.216-7.968-10.512v21.792h-7.392v-33.264h6.096c1.056,1.056 2.224,2.352 3.504,3.888 1.28,1.536 2.584,3.176 3.912,4.92 1.328,1.745 2.647,3.552 3.96,5.424 1.312,1.872 2.544,3.672 3.696,5.4v-19.632h7.439v33.264h-6.286z"/>
<path d="m183.078,285.955c1.057,0 1.928-.088 2.616-.264s1.239-.416 1.656-.721c.415-.303 .704-.664 .864-1.08 .159-.415 .24-.879 .24-1.392 0-1.087-.513-1.992-1.537-2.712-1.023-.721-2.783-1.496-5.279-2.328-1.088-.384-2.177-.824-3.264-1.32-1.088-.496-2.064-1.119-2.928-1.871-.864-.752-1.568-1.664-2.112-2.736-.544-1.072-.816-2.377-.816-3.912 0-1.536 .288-2.92 .864-4.152 .576-1.231 1.392-2.279 2.448-3.145 1.056-.863 2.335-1.527 3.84-1.991 1.503-.464 3.2-.696 5.087-.696 2.24,0 4.177,.24 5.809,.721 1.633,.479 2.977,1.008 4.032,1.584l-2.16,5.903c-.929-.479-1.96-.903-3.097-1.272-1.136-.367-2.504-.551-4.104-.551-1.793,0-3.08,.248-3.863,.744-.785,.496-1.176,1.256-1.176,2.279 0,.608 .144,1.121 .432,1.536 .288,.416 .696,.792 1.224,1.128s1.136,.641 1.824,.912c.688,.271 1.447,.552 2.28,.84 1.728,.641 3.231,1.271 4.512,1.896 1.279,.623 2.344,1.352 3.191,2.184s1.48,1.809 1.896,2.928c.416,1.121 .624,2.48 .624,4.08 0,3.104-1.089,5.513-3.265,7.225s-5.455,2.567-9.84,2.567c-1.472,0-2.8-.089-3.983-.264-1.185-.177-2.232-.393-3.144-.648-.912-.255-1.697-.528-2.352-.815-.656-.289-1.208-.561-1.656-.816l2.112-5.952c.991,.545 2.215,1.032 3.672,1.464 1.457,.43 3.241,.647 5.353,.647z"/>
<path d="m96.027,167.622c.383,1.313 .806,2.792 1.27,4.44 .463,1.648 .958,3.353 1.486,5.112 .526,1.76 1.062,3.521 1.605,5.28 .543,1.761 1.07,3.393 1.582,4.896 .417-1.633 .844-3.408 1.278-5.328 .434-1.92 .844-3.904 1.229-5.952 .386-2.047 .764-4.087 1.133-6.12 .37-2.032 .716-3.992 1.038-5.88h7.778c-1.126,5.568-2.422,11.216-3.887,16.944-1.464,5.729-3.05,11.168-4.755,16.32h-6.849c-1.118-3.072-2.205-6.296-3.258-9.672-1.054-3.377-2.092-6.76-3.114-10.153-1.025,3.393-2.05,6.776-3.076,10.153-1.025,3.376-2.099,6.6-3.22,9.672h-6.844c-1.704-5.152-3.287-10.592-4.749-16.32-1.462-5.728-2.755-11.376-3.88-16.944h8.112c.321,1.889 .675,3.849 1.062,5.88 .385,2.032 .788,4.072 1.206,6.12 .417,2.048 .844,4.032 1.278,5.952s.877,3.695 1.327,5.328c.577-1.567 1.138-3.232 1.683-4.992 .544-1.759 1.074-3.52 1.587-5.28 .513-1.76 .986-3.456 1.418-5.088 .433-1.632 .826-3.087 1.178-4.368h6.382z"/>
<path d="m292.02,180.678c0,2.848-.424,5.352-1.271,7.512-.849,2.16-2.01,3.969-3.48,5.424-1.473,1.457-3.225,2.553-5.256,3.288-2.033,.735-4.217,1.104-6.553,1.104-2.271,0-4.416-.369-6.432-1.104s-3.775-1.831-5.279-3.288c-1.505-1.455-2.688-3.264-3.553-5.424-.863-2.16-1.296-4.664-1.296-7.512 0-2.848 .448-5.352 1.345-7.512 .895-2.16 2.104-3.976 3.623-5.448 1.52-1.471 3.28-2.575 5.28-3.312 1.999-.735 4.104-1.104 6.312-1.104 2.272,0 4.416,.369 6.433,1.104 2.017,.737 3.775,1.841 5.28,3.312 1.504,1.473 2.688,3.288 3.552,5.448s1.295,4.664 1.295,7.512zm-25.393,0c0,1.632 .2,3.104 .601,4.416 .399,1.313 .976,2.44 1.728,3.384 .752,.944 1.672,1.673 2.76,2.185s2.336,.768 3.744,.768c1.376,0 2.617-.256 3.721-.768s2.031-1.24 2.783-2.185c.752-.943 1.328-2.071 1.729-3.384s.6-2.784 .6-4.416c0-1.632-.199-3.112-.6-4.44-.4-1.327-.977-2.463-1.729-3.408-.752-.943-1.68-1.672-2.783-2.184-1.104-.512-2.345-.768-3.721-.768-1.408,0-2.656,.264-3.744,.792s-2.008,1.265-2.76,2.208c-.752,.944-1.328,2.081-1.728,3.408-.401,1.328-.601,2.792-.601,4.392z"/>
<path d="m174.833,160.042 8.952-38.063 8.382,38.063z"/>
<path d="m176.28,160.441c2.984-12.688 5.968-25.375 8.952-38.063-.964,0-1.929,0-2.893,0 2.794,12.688 5.588,25.375 8.382,38.063 .482-.633 .964-1.266 1.446-1.899-5.778,0-11.556,0-17.333,0-1.935,0-1.935,3 0,3 5.778,0 11.555,0 17.333,0 1.014,0 1.654-.954 1.446-1.899-2.794-12.688-5.588-25.375-8.382-38.063-.318-1.448-2.558-1.423-2.893,0-2.984,12.688-5.968,25.375-8.952,38.063-.442,1.882 2.451,2.681 2.894,.798z"/>
<path d="m239.118,177.189c-10.674-2.415-21.348-4.83-32.021-7.245 .856,1.125 1.713,2.25 2.569,3.375 0-4.834 .81-10.292-1.102-14.821-2.332-5.526-11.34-3.998-15.96-3.998 1.125,.856 2.25,1.713 3.375,2.569-3.035-13.414-6.069-26.827-9.104-40.241-.758-3.35-5.992-3.35-6.75,0-3.035,13.414-6.069,26.828-9.104,40.241 1.125-.856 2.25-1.713 3.375-2.569-5.112,0-11.876-1.289-15.413,3.29-2.98,3.857-1.649,10.975-1.649,15.53 .856-1.125 1.713-2.25 2.569-3.375-10.673,2.415-21.347,4.83-32.02,7.244-3.35,.758-3.35,5.992 0,6.75 10.673,2.415 21.347,4.829 32.02,7.244-.856-1.125-1.713-2.25-2.569-3.375 0,3.867-1.472,11.696 1.102,15.028 3.981,5.154 9.991,3.998 15.849,3.998-1.125-.856-2.25-1.713-3.375-2.569 3.072,13.078 6.144,26.157 9.215,39.236 .784,3.34 5.978,3.359 6.75,0 3.007-13.079 6.015-26.158 9.021-39.236-1.125,.856-2.25,1.713-3.375,2.569 4.878,0 11.929,1.328 15.328-3.072 3.141-4.067 1.816-11.128 1.816-15.953-.856,1.125-1.713,2.25-2.569,3.375 10.674-2.415 21.348-4.83 32.021-7.245 4.402-.995 2.535-7.744-1.861-6.75-10.674,2.415-21.348,4.83-32.021,7.245-1.509,.342-2.569,1.873-2.569,3.375 0,3.512 0,7.022 0,10.534 0,2.603-8.361,1.491-10.145,1.491-1.506,0-3.028,1.062-3.375,2.569-3.007,13.079-6.015,26.158-9.021,39.236 2.25,0 4.5,0 6.75,0-3.072-13.078-6.144-26.157-9.215-39.236-.354-1.508-1.863-2.569-3.375-2.569-1.41,0-9.951,.923-9.951-1.182 0-3.615 0-7.229 0-10.845 0-1.502-1.061-3.033-2.569-3.375-10.673-2.414-21.347-4.829-32.02-7.244 0,2.25 0,4.5 0,6.75 10.673-2.414 21.347-4.829 32.02-7.244 1.509-.341 2.569-1.873 2.569-3.375 0-3.446 0-6.891 0-10.337 0-2.632 8.13-1.482 10.063-1.482 1.502,0 3.034-1.061 3.375-2.569 3.035-13.414 6.069-26.828 9.104-40.241-2.25,0-4.5,0-6.75,0 3.035,13.414 6.069,26.827 9.104,40.241 .342,1.509 1.873,2.569 3.375,2.569 1.563,0 10.062-.938 10.062,1.179 0,3.546 0,7.093 0,10.64 0,1.502 1.061,3.034 2.569,3.375 10.674,2.415 21.348,4.83 32.021,7.244 4.396,.996 6.264-5.753 1.861-6.749z"/>
</g>
</svg>
