<svg xmlns="http://www.w3.org/2000/svg" viewBox="20 20 321 321">
<path fill="none" stroke="#fff" stroke-width="10" d="m270.333,119.103c0,2.245-1.819,4.064-4.064,4.064h-23.371c-2.245,0-4.064-1.82-4.064-4.064v-23.372c0-2.245 1.819-4.064 4.064-4.064h23.371c2.245,0 4.064,1.82 4.064,4.064v23.372z"/>
<g fill="#fff">
<path d="m216.173,78.328c2.406,2.406 4.813,4.813 7.22,7.219 1.926,1.926 5.145,1.926 7.07,0 1.927-1.926 1.927-5.145 0-7.071-2.406-2.406-4.813-4.813-7.22-7.219-1.926-1.926-5.145-1.926-7.07,0-1.927,1.926-1.927,5.144 0,7.071z"/>
<path d="m185.333,112.167c11.167,0 22.333,0 33.5,0 6.448,0 6.448-10 0-10-11.167,0-22.333,0-33.5,0-6.449,0-6.449,10 0,10z"/>
<path d="m289.742,136.756c-1.989-1.99-3.979-3.979-5.969-5.969-1.926-1.926-5.145-1.926-7.07,0-1.927,1.926-1.927,5.145 0,7.071 1.989,1.99 3.979,3.979 5.969,5.969 1.926,1.926 5.145,1.926 7.07,0 1.927-1.927 1.927-5.144 0-7.071z"/>
<path d="m259.083,175.917c0-11.167 0-22.333 0-33.5 0-6.449-10-6.449-10,0 0,11.167 0,22.333 0,33.5-0,6.448 10,6.448 10,0z"/>
<path d="m207.773,161.547c7.896-7.896 15.793-15.792 23.689-23.688 4.564-4.563-2.507-11.635-7.07-7.071-7.896,7.896-15.793,15.792-23.689,23.688-4.564,4.563 2.507,11.634 7.07,7.071z"/>
<path d="m120.685,271.572c6.905,0 15.18,1.315 21.684-1.444 8.438-3.581 13.885-10.075 17.662-18.216 4.142-8.926 8.228-17.914 11.172-27.318 2.583-8.252 3.661-16.845 4.689-25.399 1.001-8.33 1.894-16.7 2.539-25.066 .501-6.504-1.047-13.494-6.805-17.211-3.988-2.575-9.338-2.083-13.837-2.083-11.645,0-23.289,0-34.933,0-4.514,0-4.514,7 0,7 .72,0 1.439,0 2.159,0 4.514,0 4.514-7 0-7-11.161,0-22.321,0-33.481,0-5.193,0-10.569-.493-15.289,2.083-5.563,3.036-6.825,9.934-6.861,15.684-.055,8.774 1.576,17.893 2.595,26.593 .95,8.104 2.06,16.164 4.282,24.03 2.802,9.92 7.268,19.358 11.58,28.688 3.641,7.875 8.739,13.992 16.69,17.804 7.15,3.427 16.466,1.856 24.149,1.856 4.514,0 4.514-7 0-7-4.044,0-8.088,0-12.131,0-2.943,0-5.723,.271-8.485-.901-8.439-3.581-12.09-10.743-15.712-18.618-6.89-14.982-11.404-29.496-13.372-45.858-.855-7.118-1.537-14.257-2.217-21.394-.443-4.648-1.699-13.139 3.971-15.313 4.11-1.577 9.6-.654 13.835-.654 10.149,0 20.298,0 30.448,0 4.514,0 4.514-7 0-7-.72,0-1.439,0-2.159,0-4.514,0-4.514,7 0,7 9.623,0 19.246,0 28.869,0 4.906,0 10.637-.862 15.414,.654 5.379,1.707 4.469,10.104 4.071,14.264-.716,7.486-1.442,14.972-2.318,22.442-1.918,16.372-6.524,30.868-13.372,45.858-3.563,7.801-6.892,13.972-14.712,18.139-5.55,2.958-14.049,1.381-20.123,1.381-4.516-.001-4.516,6.999-.002,6.999z"/>
</g>
<path fill="none" stroke="#fff" stroke-width="15" d="m123.936,268.072 0,11.261"/>
<g fill="#fff">
<path d="m96.265,286.217c18.447,0 36.894,0 55.341,0 4.514,0 4.514-7 0-7-18.447,0-36.894,0-55.341,0-4.515,0-4.515,7 0,7z"/>
<path d="m110.2,291.5c9.157,0 18.314,0 27.472,0 6.449,0 6.449-10 0-10-9.157,0-18.314,0-27.472,0-6.449,0-6.449,10 0,10z"/>
<path d="m154.598,217.991c-.699,7.802-10.784,5.948-16.212,5.948-7.88,0-15.76,0-23.64,0-5.097,0-10.195,0-15.292,0-6.94,0-6.896-10.602-7.687-15.67-1.128-7.237-2.256-14.475-3.385-21.713-.599-3.841 .435-8.23 5.607-8.23 1.292,0 2.585,0 3.878,0 14.641,0 29.281,0 43.921,0 3.785,0 7.569,0 11.353,0 6.963,0 6.796,5.354 6.056,10.108-1.515,9.72-3.03,19.438-4.545,29.158-.295,1.892 2.595,2.704 2.893,.797 1.745-11.189 3.489-22.38 5.233-33.569 1.984-12.73-19.452-9.494-26.216-9.494-13.752,0-27.505,0-41.258,0-14.932,0-9.001,17.244-7.604,26.206 .707,4.532 1.413,9.064 2.12,13.597 .456,2.922 .425,6.501 2.646,8.722 4.744,4.744 13.455,3.089 19.572,3.089 9.813,0 19.625,0 29.438,0 7.089,0 15.284,.409 16.123-8.948 .172-1.929-2.83-1.912-3.001-.001z"/>
<path d="m116.819,187.785c0,8.898 0,17.798 0,26.696 0,1.935 3,1.935 3,0 0-8.898 0-17.798 0-26.696 0-1.934-3-1.934-3,0z"/>
<path d="m128.052,187.785c0,8.898 0,17.798 0,26.696 0,1.935 3,1.935 3,0 0-8.898 0-17.798 0-26.696 0-1.934-3-1.934-3,0z"/>
<path d="m122.436,187.785c0,8.898 0,17.798 0,26.696 0,1.935 3,1.935 3,0 0-8.898 0-17.798 0-26.696 0-1.934-3-1.934-3,0z"/>
<path d="m140.14,187.241c-.398,8.898-.796,17.798-1.194,26.696-.086,1.935 2.914,1.927 3,0 .398-8.898 .796-17.798 1.194-26.696 .086-1.934-2.914-1.927-3,0z"/>
<path d="m151.374,187.241c-.398,8.898-.796,17.798-1.194,26.696-.086,1.935 2.914,1.927 3,0 .398-8.898 .796-17.798 1.194-26.696 .086-1.934-2.914-1.927-3,0z"/>
<path d="m145.757,187.241c-.398,8.898-.796,17.798-1.194,26.696-.086,1.935 2.914,1.927 3,0 .398-8.898 .796-17.798 1.194-26.696 .086-1.934-2.914-1.927-3,0z"/>
<path d="m104.692,188.227c.398,8.898 .796,17.797 1.195,26.695 .086,1.927 3.086,1.935 3,0-.398-8.898-.796-17.797-1.195-26.695-.086-1.927-3.086-1.935-3,0z"/>
<path d="m93.459,188.227c.398,8.898 .796,17.797 1.194,26.695 .086,1.927 3.086,1.935 3,0-.398-8.898-.796-17.797-1.194-26.695-.086-1.927-3.086-1.935-3,0z"/>
<path d="m99.076,188.227c.398,8.898 .796,17.797 1.194,26.695 .086,1.927 3.086,1.935 3,0-.398-8.898-.796-17.797-1.194-26.695-.087-1.927-3.087-1.935-3,0z"/>
</g>
</svg>
