<svg xmlns="http://www.w3.org/2000/svg" viewBox="20 20 321 321">
<g fill="none" stroke="#fff" stroke-width="10">
<path d="m196.834,127.992c0,9.084-7.363,16.449-16.449,16.449-9.084,0-16.449-7.364-16.449-16.449 0-3.474 1.22-6.311 2.303-9.353 1.93-5.413 8.535-24.488 14.146-24.488 5.624,0 12.522,19.84 14.167,24.52 1.067,3.035 2.282,5.86 2.282,9.321z"/>
<path d="m174.78,201.508c0,9.085-7.365,16.449-16.45,16.449-9.084,0-16.449-7.364-16.449-16.449 0-3.475 1.219-6.312 2.304-9.353 1.93-5.413 8.535-24.489 14.145-24.489 5.624,0 12.522,19.84 14.167,24.519 1.067,3.036 2.283,5.861 2.283,9.323z"/>
<path d="m125.892,225.797c0,2.369-2.291,4.29-5.115,4.29h-40.495c-2.825,0-5.115-1.921-5.115-4.29v-146.906c0-2.369 2.291-4.29 5.115-4.29h40.495c2.825,0 5.115,1.921 5.115,4.29v146.906z"/>
</g>
<g fill="#fff">
<path d="m116.702,152.251c0,9.085-7.364,16.45-16.449,16.45-9.084,0-16.449-7.364-16.449-16.45 0-3.474 1.22-6.31 2.304-9.352 1.93-5.413 8.536-24.488 14.146-24.488 5.624,0 12.522,19.84 14.167,24.519 1.065,3.035 2.281,5.861 2.281,9.321z"/>
<path d="m192.273,276.374c0,5.16-1.311,8.989-3.931,11.489s-6.67,3.75-12.15,3.75c-1.92,0-3.84-.17-5.76-.51s-3.7-.79-5.34-1.35l1.56-7.5c1.4,.56 2.87,1 4.41,1.32 1.54,.319 3.29,.48 5.25,.48 2.56,0 4.37-.562 5.43-1.681 1.06-1.12 1.59-2.56 1.59-4.319v-1.141c-.96,.44-1.95,.771-2.97,.99-1.02,.221-2.13,.33-3.33,.33-4.36,0-7.701-1.291-10.02-3.871-2.32-2.579-3.48-6.188-3.48-10.829 0-2.319 .36-4.43 1.08-6.33 .72-1.899 1.77-3.53 3.15-4.89 1.38-1.359 3.069-2.41 5.07-3.15 2-.74 4.26-1.109 6.78-1.109 1.08,0 2.19,.05 3.331,.149 1.14,.101 2.27,.23 3.39,.39 1.119,.16 2.19,.352 3.21,.57 1.02,.221 1.93,.449 2.73,.689v26.523zm-19.62-12.84c0,5.001 2.02,7.5 6.06,7.5 .92,0 1.779-.12 2.58-.36 .8-.24 1.479-.52 2.04-.84v-14.279c-.44-.08-.96-.15-1.56-.211-.601-.06-1.301-.09-2.101-.09-2.36,0-4.12,.78-5.28,2.34-1.16,1.56-1.739,3.54-1.739,5.94z"/>
<path d="m204.152,291.434h-9.18l20.166-58.08h9.055l-20.041,58.08z"/>
<path d="m242.313,263.594c0-2.88-.37-4.92-1.109-6.119-.741-1.201-2.011-1.801-3.811-1.801-.561,0-1.141,.03-1.74,.09-.6,.061-1.18,.131-1.74,.211v24.359h-8.939v-30.48c.76-.199 1.65-.409 2.67-.629 1.02-.221 2.1-.42 3.24-.601 1.14-.181 2.31-.319 3.51-.42 1.199-.1 2.379-.149 3.54-.149 2.28,0 4.13,.29 5.55,.869 1.42,.58 2.59,1.271 3.51,2.07 1.279-.92 2.75-1.64 4.41-2.16 1.66-.52 3.189-.779 4.59-.779 2.521,0 4.59,.35 6.211,1.049 1.619,.701 2.909,1.691 3.869,2.971 .96,1.28 1.62,2.801 1.98,4.56 .359,1.761 .539,3.72 .539,5.88v17.82h-8.939v-16.74c0-2.88-.37-4.92-1.109-6.119-.741-1.201-2.011-1.801-3.811-1.801-.48,0-1.15,.12-2.01,.36-.861,.239-1.57,.54-2.131,.899 .28,.921 .46,1.891 .541,2.91 .079,1.02 .119,2.11 .119,3.27v17.221h-8.939v-16.741z"/>
<path d="m281.433,257.055c1.399,0 2.38-.211 2.94-.631 .559-.42 .84-.949 .84-1.59 0-1.64-1.4-2.46-4.2-2.46h-2.46v-4.92h2.46c.919,0 1.681-.181 2.28-.54s.9-.9 .9-1.62c0-1.28-.881-1.92-2.641-1.92-.921,0-1.84,.149-2.76,.45-.921,.3-1.801,.65-2.641,1.05l-2.279-4.74c.999-.64 2.25-1.189 3.75-1.649s2.97-.69 4.41-.69c1.599,0 2.949,.181 4.049,.54s1.98,.85 2.641,1.471c.66,.62 1.13,1.34 1.41,2.159 .279,.82 .42,1.671 .42,2.55 0,.84-.19,1.641-.57,2.4-.381,.76-1.03,1.5-1.949,2.22 1.279,.601 2.209,1.401 2.789,2.4 .58,1 .871,2.12 .871,3.36 0,1.08-.181,2.1-.541,3.06-.359,.96-.939,1.79-1.74,2.489-.801,.701-1.85,1.252-3.149,1.65-1.3,.4-2.89,.6-4.771,.6-.68,0-1.39-.039-2.129-.119-.741-.08-1.471-.199-2.19-.36-.72-.159-1.391-.33-2.011-.51-.62-.181-1.17-.39-1.649-.63l1.38-5.34c1.359,.561 2.51,.92 3.45,1.08 .939,.16 1.97,.24 3.09,.24z"/>
</g>
</svg>
