<svg xmlns="http://www.w3.org/2000/svg" viewBox="20 20 321 321">
<g fill="#fff">
<g stroke="#fff" stroke-width="10">
<path d="m180.061,125.5c0,3.362-2.445,6.087-5.462,6.087h-42.331c-3.016,0-5.462-2.725-5.462-6.087v-44.124c0-3.361 2.446-6.086 5.462-6.086h42.331c3.017,0 5.462,2.725 5.462,6.086v44.124z"/>
<path d="m86.927,110.286c0,3.36 2.725,6.086 6.085,6.086h28.403c3.36,0 6.086-2.726 6.086-6.086v-17.244c0-3.361-2.726-6.086-6.086-6.086h-28.403c-3.36,0-6.085,2.726-6.085,6.086v17.244z"/>
<path d="m74.754,110.286c0-3.361 2.726-6.086 6.086-6.086h34.996c3.361,0 6.086,2.725 6.086,6.086v9.636c0,3.361-2.725,6.086-6.086,6.086h-34.996c-3.361,0-6.086-2.725-6.086-6.086v-9.636z"/>
</g>
<path d="m120.401,163.055c-5.216,9.034-10.432,18.068-15.648,27.103-2.261,3.917 3.789,7.44 6.044,3.533 5.216-9.034 10.432-18.068 15.648-27.103 2.261-3.917-3.789-7.44-6.044-3.533z"/>
<path d="m127.151,126.888c-5.579,9.663-11.158,19.326-16.737,28.989-2.261,3.917 3.789,7.44 6.044,3.533 5.579-9.663 11.158-19.326 16.737-28.989 2.261-3.917-3.789-7.44-6.044-3.533z"/>
<path d="m123.611,102.589c-5.58,9.663-11.159,19.327-16.738,28.99-2.262,3.917 3.789,7.44 6.044,3.533 5.58-9.664 11.159-19.327 16.738-28.99 2.262-3.916-3.789-7.44-6.044-3.533z"/>
<path d="m95.763,148.831c-5.216,9.034-10.431,18.068-15.646,27.102-2.261,3.917 3.789,7.44 6.044,3.533 5.216-9.034 10.431-18.068 15.646-27.102 2.261-3.917-3.789-7.44-6.044-3.533z"/>
<path d="m99.547,170.726c-5.216,9.033-10.432,18.066-15.647,27.099-2.262,3.917 3.788,7.44 6.044,3.533 5.216-9.033 10.432-18.066 15.647-27.099 2.262-3.916-3.788-7.44-6.044-3.533z"/>
<path d="m242.883,156.636c-5.216,9.033-10.432,18.066-15.647,27.1-2.261,3.917 3.789,7.439 6.045,3.533 5.216-9.033 10.432-18.066 15.647-27.1 2.26-3.917-3.789-7.44-6.045-3.533z"/>
<path d="m242.247,127.646c-5.578,9.663-11.157,19.326-16.736,28.989-2.261,3.917 3.789,7.44 6.045,3.533 5.578-9.663 11.157-19.326 16.736-28.989 2.261-3.916-3.789-7.439-6.045-3.533z"/>
<path d="m217.073,171.572c-5.216,9.034-10.432,18.067-15.647,27.101-2.261,3.917 3.789,7.44 6.045,3.533 5.216-9.033 10.432-18.067 15.647-27.101 2.261-3.916-3.789-7.439-6.045-3.533z"/>
<path d="m219.435,136.729c-5.579,9.663-11.158,19.326-16.737,28.989-2.261,3.917 3.789,7.44 6.045,3.533 5.579-9.663 11.158-19.326 16.737-28.989 2.26-3.916-3.79-7.439-6.045-3.533z"/>
<g stroke="#fff" stroke-width="10">
<path d="m220.805,131.587c0,3.361-2.445,6.086-5.461,6.086h-42.331c-3.016,0-5.461-2.726-5.461-6.086v-44.125c0-3.361 2.446-6.086 5.461-6.086h42.331c3.016,0 5.461,2.726 5.461,6.086v44.125z"/>
<path d="m208.463,126.516c0,3.361 2.725,6.086 6.086,6.086h28.402c3.361,0 6.086-2.725 6.086-6.086v-17.244c0-3.362-2.725-6.086-6.086-6.086h-28.402c-3.361,0-6.086,2.724-6.086,6.086v17.244z"/>
<path d="m185.842,148.07c0,3.361-2.445,6.086-5.461,6.086h-42.33c-3.017,0-5.462-2.725-5.462-6.086v-44.125c0-3.36 2.445-6.086 5.462-6.086h42.33c3.016,0 5.461,2.726 5.461,6.086v44.125z"/>
</g>
<path d="m166.286,182.124c5.804,3.897 11.607,7.794 17.41,11.691 3.76,2.524 7.259-3.543 3.533-6.045-5.804-3.896-11.607-7.793-17.41-11.69-3.759-2.524-7.258,3.542-3.533,6.044z"/>
<path d="m172.81,151.259c2.816,12.847 5.632,25.693 8.448,38.54 .967,4.408 7.715,2.538 6.75-1.861-2.816-12.847-5.632-25.693-8.448-38.54-.967-4.409-7.715-2.539-6.75,1.861z"/>
<path d="m164.534,180.242c4.113,12.261 8.226,24.522 12.338,36.784 1.428,4.257 8.19,2.431 6.75-1.861-4.112-12.261-8.225-24.522-12.338-36.784-1.428-4.256-8.189-2.431-6.75,1.861z"/>
<path d="m171.081,218.202c2.601,.652 5.202,1.304 7.802,1.956 4.38,1.098 6.238-5.652 1.861-6.75-2.601-.652-5.202-1.304-7.802-1.956-4.38-1.098-6.237,5.652-1.861,6.75z"/>
<path d="m166.168,215.071c2.815,12.847 5.63,25.693 8.446,38.541 .966,4.408 7.714,2.538 6.75-1.861-2.815-12.847-5.63-25.693-8.445-38.541-.967-4.408-7.715-2.538-6.751,1.861z"/>
<path d="m142.638,179.236c4.701,5.462 9.402,10.925 14.103,16.387 2.95,3.428 7.878-1.547 4.95-4.949-4.701-5.463-9.402-10.925-14.103-16.388-2.95-3.427-7.878,1.547-4.95,4.95z"/>
<path d="m149.217,151.965c1.995,13.333 3.991,26.666 5.986,39.999 .667,4.452 7.411,2.553 6.75-1.861-1.995-13.333-3.991-26.666-5.986-39.999-.666-4.452-7.411-2.553-6.75,1.861z"/>
<path d="m141.614,177.854c3.084,13.133 6.168,26.266 9.252,39.399 1.032,4.394 7.781,2.529 6.75-1.861-3.084-13.133-6.168-26.266-9.252-39.399-1.031-4.393-7.781-2.53-6.75,1.861z"/>
<path d="m281.833,207.172c0,26.498 0,52.997 0,79.495 0,6.448 10,6.448 10,0 0-26.498 0-52.997 0-79.495 0-6.448-10-6.448-10-0z"/>
</g>
<g fill="none" stroke="#fff" stroke-width="10">
<path d="m206.85,220.076 48.812-21.457"/>
<path d="m211.111,232.615 52.193-5.474"/>
</g>
<g fill="#fff">
<path d="m255.662,198.619 26.974,8.058-19.332,20.464z"/>
<path d="m254.333,203.44c8.991,2.686 17.982,5.372 26.974,8.058-.735-2.785-1.471-5.571-2.206-8.356-6.444,6.821-12.889,13.643-19.332,20.464 2.785,.735 5.571,1.471 8.356,2.206-2.547-9.507-5.095-19.015-7.642-28.521-1.667-6.223-11.313-3.579-9.643,2.658 2.547,9.507 5.095,19.015 7.642,28.521 .955,3.564 5.765,4.95 8.356,2.206 6.444-6.821 12.889-13.643 19.332-20.464 2.606-2.758 1.455-7.263-2.206-8.356-8.991-2.686-17.982-5.372-26.974-8.058-6.193-1.851-8.82,7.802-2.657,9.642z"/>
<path d="m218.355,232.143c.471,1.885-.738,3.813-2.701,4.305l-5.036,1.259c-1.964,.491-3.938-.64-4.409-2.523l-3.808-15.218c-.473-1.885 .737-3.813 2.7-4.304l5.036-1.259c1.963-.49 3.938,.639 4.409,2.523l3.809,15.217z"/>
<path d="m234.129,227.847c.463,1.851-.43,3.671-1.996,4.063l-4.015,1.004c-1.565,.392-3.21-.792-3.673-2.644l-3.741-14.947c-.464-1.852 .431-3.671 1.996-4.063l4.015-1.005c1.565-.392 3.21,.792 3.674,2.644l3.74,14.948z"/>
<path d="m252.012,224.813c.582,2.323-.216,4.525-1.781,4.917l-4.016,1.004c-1.565,.392-3.306-1.175-3.887-3.497l-4.695-18.761c-.581-2.323 .217-4.525 1.782-4.917l4.016-1.004c1.564-.392 3.306,1.174 3.888,3.498l4.693,18.76z"/>
<g stroke="#fff">
<path stroke-width="11.425" d="m194.11,142.01c0,4.1 3.243,7.425 7.241,7.425h33.797c3.999,0 7.241-3.325 7.241-7.425v-21.038c0-4.101-3.242-7.425-7.241-7.425h-33.797c-3.998,0-7.241,3.325-7.241,7.425v21.038z"/>
<path stroke-width="9.893" d="m153.384,108.521c0-3.507 2.843-6.35 6.35-6.35h36.511c3.506,0 6.35,2.843 6.35,6.35v10.053c0,3.506-2.844,6.35-6.35,6.35h-36.511c-3.507,0-6.35-2.843-6.35-6.35v-10.053z"/>
<path stroke-width="8.605" d="m172.813,129.315c0,3.162-2.142,5.724-4.783,5.724h-37.073c-2.642,0-4.784-2.563-4.784-5.724v-41.49c0-3.16 2.142-5.722 4.784-5.722h37.073c2.642,0 4.783,2.563 4.783,5.722v41.49z"/>
<g stroke-width="9.893">
<path d="m245.085,128.798c0,3.507 2.843,6.351 6.35,6.351h29.632c3.506,0 6.35-2.844 6.35-6.351v-17.99c0-3.507-2.844-6.35-6.35-6.35h-29.632c-3.507,0-6.35,2.843-6.35,6.35v17.99z"/>
<path d="m145.104,122.714c0,3.505 2.843,6.349 6.35,6.349h29.632c3.507,0 6.35-2.844 6.35-6.349v-17.992c0-3.505-2.843-6.349-6.35-6.349h-29.632c-3.506,0-6.35,2.843-6.35,6.349v17.992z"/>
<path d="m202.367,82.103c3.507,0 6.35,2.843 6.35,6.35v36.51c0,3.507-2.844,6.35-6.35,6.35h-10.054c-3.507,0-6.35-2.843-6.35-6.35v-36.511c0-3.506 2.843-6.349 6.351-6.349h10.053z"/>
<path d="m149.474,80.792c0-3.507 2.843-6.35 6.349-6.35h36.511c3.506,0 6.35,2.843 6.35,6.35v10.053c0,3.507-2.844,6.35-6.35,6.35h-36.511c-3.506,0-6.349-2.843-6.349-6.35v-10.053z"/>
<path d="m150.778,98.506c0,3.507-2.843,6.351-6.35,6.351h-36.51c-3.507,0-6.35-2.844-6.35-6.351v-10.053c0-3.506 2.843-6.35 6.35-6.35h36.511c3.506,0 6.35,2.844 6.35,6.351v10.052z"/>
<path d="m255.357,141.12c-3.507,0-6.35-2.844-6.35-6.351v-36.51c0-3.507 2.844-6.35 6.35-6.35h10.055c3.506,0 6.35,2.843 6.35,6.35v36.51c0,3.507-2.844,6.351-6.351,6.351h-10.054z"/>
<path d="m270.972,136.208c0,3.507-2.843,6.351-6.351,6.351h-36.51c-3.507,0-6.35-2.844-6.35-6.351v-10.053c0-3.506 2.844-6.35 6.35-6.35h36.511c3.507,0 6.35,2.844 6.35,6.351v10.052z"/>
<path d="m226.012,75.551c3.507,0 6.35,2.843 6.35,6.35v36.511c0,3.506-2.843,6.35-6.35,6.35h-10.054c-3.507,0-6.35-2.844-6.35-6.35v-36.511c0-3.507 2.843-6.35 6.35-6.35h10.054z"/>
<path d="m94.182,125.778c0-3.507 2.843-6.351 6.35-6.351h36.511c3.506,0 6.35,2.844 6.35,6.351v10.053c0,3.506-2.843,6.35-6.35,6.35h-36.511c-3.506,0-6.35-2.844-6.35-6.35v-10.053z"/>
<path d="m115.354,103.544c0-3.507 2.843-6.35 6.35-6.35h36.511c3.506,0 6.35,2.843 6.35,6.35v10.053c0,3.507-2.843,6.351-6.35,6.351h-36.511c-3.506,0-6.35-2.844-6.35-6.351v-10.053z"/>
<path d="m236.282,91.91c3.507,0 6.351,2.843 6.351,6.349v36.511c0,3.507-2.844,6.351-6.351,6.351h-10.054c-3.506,0-6.35-2.844-6.35-6.351v-36.512c0-3.506 2.844-6.349 6.35-6.349h10.054z"/>
</g>
</g>
</g>
</svg>
