<svg xmlns="http://www.w3.org/2000/svg" viewBox="20 20 321 321">
<g fill="#fff">
<g stroke="#fff" stroke-width="13.063">
<path d="m196.204,141.073c0,4.329-3.148,7.838-7.032,7.838h-54.512c-3.885,0-7.035-3.51-7.035-7.838v-56.823c0-4.329 3.15-7.838 7.035-7.838h54.512c3.884,0 7.032,3.509 7.032,7.838v56.823z"/>
<path d="m93.008,121.479c0,4.329 3.509,7.838 7.838,7.838h36.576c4.328,0 7.837-3.509 7.837-7.838v-22.207c0-4.329-3.51-7.838-7.837-7.838h-36.576c-4.329,0-7.838,3.509-7.838,7.838v22.207z"/>
<path d="m77.333,121.479c0-4.328 3.509-7.837 7.838-7.837h45.067c4.328,0 7.837,3.509 7.837,7.837v12.41c0,4.329-3.51,7.838-7.837,7.838h-45.067c-4.329,0-7.838-3.509-7.838-7.838v-12.41z"/>
</g>
<path d="m173.792,170.955c-5.5,9.526-11,19.052-16.5,28.579-3.23,5.595 5.412,10.628 8.635,5.047 5.5-9.526 11-19.053 16.5-28.579 3.23-5.595-5.412-10.629-8.635-5.047z"/>
<path d="m170.302,147c-5.5,9.526-11,19.052-16.5,28.579-3.23,5.595 5.412,10.628 8.635,5.047 5.5-9.526 11-19.052 16.5-28.579 3.23-5.595-5.413-10.629-8.635-5.047z"/>
<path d="m144.302,192.033c-5.5,9.526-11,19.053-16.5,28.579-3.23,5.595 5.412,10.628 8.635,5.047 5.5-9.526 11-19.053 16.5-28.579 3.23-5.595-5.413-10.628-8.635-5.047z"/>
<path d="m147.811,155.955c-5.5,9.526-11,19.052-16.5,28.579-3.23,5.595 5.413,10.628 8.635,5.047 5.5-9.526 11-19.052 16.5-28.579 3.23-5.595-5.413-10.629-8.635-5.047z"/>
<path d="m144.321,132c-5.5,9.526-11,19.053-16.5,28.579-3.23,5.595 5.412,10.628 8.635,5.047 5.5-9.526 11-19.053 16.5-28.579 3.23-5.595-5.413-10.629-8.635-5.047z"/>
<path d="m118.321,177.033c-5.5,9.526-11,19.053-16.5,28.579-3.23,5.595 5.413,10.628 8.635,5.047 5.5-9.526 11-19.053 16.5-28.579 3.23-5.595-5.413-10.628-8.635-5.047z"/>
<path d="m122.312,200.122c-5.5,9.526-11,19.053-16.5,28.579-3.23,5.595 5.412,10.628 8.635,5.047 5.5-9.526 11-19.053 16.5-28.579 3.23-5.595-5.413-10.628-8.635-5.047z"/>
<path d="m149.312,214.122c-5.5,9.526-11,19.053-16.5,28.579-3.23,5.595 5.412,10.628 8.635,5.047 5.5-9.526 11-19.053 16.5-28.579 3.23-5.595-5.413-10.628-8.635-5.047z"/>
<path d="m227.112,171.515c-5.5,9.526-11,19.052-16.5,28.579-3.23,5.595 5.412,10.628 8.635,5.047 5.5-9.526 11-19.053 16.5-28.579 3.231-5.595-5.412-10.628-8.635-5.047z"/>
<path d="m223.622,147.561c-5.5,9.526-11,19.052-16.5,28.579-3.23,5.595 5.412,10.628 8.635,5.047 5.5-9.526 11-19.053 16.5-28.579 3.23-5.595-5.412-10.629-8.635-5.047z"/>
<path d="m197.622,192.594c-5.5,9.526-11,19.053-16.5,28.579-3.23,5.595 5.412,10.628 8.635,5.047 5.5-9.526 11-19.053 16.5-28.579 3.23-5.595-5.412-10.628-8.635-5.047z"/>
<path d="m201.132,156.515c-5.5,9.526-11,19.052-16.5,28.579-3.23,5.595 5.412,10.628 8.635,5.047 5.5-9.526 11-19.052 16.5-28.579 3.23-5.595-5.413-10.628-8.635-5.047z"/>
<path d="m175.632,200.683c-5.5,9.526-11,19.053-16.5,28.579-3.23,5.595 5.412,10.628 8.635,5.047 5.5-9.526 11-19.053 16.5-28.579 3.23-5.595-5.412-10.628-8.635-5.047z"/>
<path d="m202.632,214.683c-5.5,9.526-11,19.053-16.5,28.579-3.23,5.595 5.412,10.628 8.635,5.047 5.5-9.526 11-19.053 16.5-28.579 3.23-5.595-5.413-10.628-8.635-5.047z"/>
<g stroke="#fff" stroke-width="13.063">
<path d="m248.674,148.912c0,4.328-3.148,7.837-7.033,7.837h-54.512c-3.885,0-7.035-3.509-7.035-7.837v-56.824c0-4.329 3.15-7.838 7.035-7.838h54.512c3.885,0 7.033,3.509 7.033,7.838v56.824z"/>
<path d="m232.781,142.379c0,4.329 3.51,7.838 7.837,7.838h36.576c4.329,0 7.838-3.509 7.838-7.838v-22.207c0-4.328-3.509-7.837-7.838-7.837h-36.576c-4.327,0-7.837,3.51-7.837,7.837v22.207z"/>
<path d="m201.648,158.056c0,4.328-3.149,7.837-7.033,7.837h-54.513c-3.884,0-7.034-3.509-7.034-7.837v-56.824c0-4.329 3.149-7.838 7.034-7.838h54.513c3.884,0 7.033,3.509 7.033,7.838v56.824z"/>
</g>
<path d="m98.261,241.236c-5.813,9.338-11.625,18.677-17.438,28.016-3.418,5.491 5.236,10.508 8.635,5.047 5.813-9.338 11.625-18.677 17.438-28.016 3.417-5.491-5.236-10.508-8.635-5.047z"/>
<path d="m119.887,234.875c-5.5,9.525-11,19.052-16.5,28.578-3.23,5.595 5.412,10.628 8.635,5.047 5.5-9.525 11-19.052 16.5-28.578 3.23-5.595-5.412-10.628-8.635-5.047z"/>
<path d="m148.863,244.972c-5.5,9.526-11,19.053-16.5,28.579-3.23,5.595 5.413,10.628 8.635,5.047 5.5-9.526 11-19.053 16.5-28.579 3.23-5.595-5.413-10.628-8.635-5.047z"/>
<path d="m124.562,255.328c-5.5,9.526-11,19.053-16.5,28.579-3.23,5.595 5.412,10.628 8.635,5.047 5.5-9.526 11-19.053 16.5-28.579 3.23-5.595-5.413-10.628-8.635-5.047z"/>
<path d="m255.358,155.515c-5.5,9.526-11,19.052-16.5,28.579-3.23,5.595 5.412,10.628 8.635,5.047 5.5-9.526 11-19.052 16.5-28.579 3.231-5.595-5.412-10.628-8.635-5.047z"/>
<path d="m230.878,198.683c-5.5,9.526-11,19.053-16.5,28.579-3.23,5.595 5.412,10.628 8.635,5.047 5.5-9.526 11-19.053 16.5-28.579 3.23-5.595-5.412-10.628-8.635-5.047z"/>
<path d="m205.122,243.6c-4.313,7.472-8.627,14.943-12.94,22.415-3.23,5.595 5.412,10.628 8.635,5.047 4.313-7.472 8.627-14.943 12.94-22.415 3.23-5.595-5.412-10.629-8.635-5.047z"/>
<path d="m171.632,237.742c-5.5,9.525-11,19.052-16.5,28.578-3.23,5.595 5.412,10.628 8.635,5.047 5.5-9.525 11-19.052 16.5-28.578 3.23-5.595-5.412-10.628-8.635-5.047z"/>
<path d="m177.872,257.551c-4.948,8.57-9.896,17.141-14.845,25.712-3.23,5.595 5.413,10.628 8.635,5.047 4.948-8.57 9.896-17.142 14.845-25.712 3.23-5.595-5.412-10.628-8.635-5.047z"/>
<path d="m94.177,217.807c-5.947,9.254-11.894,18.507-17.841,27.761-3.498,5.442 5.162,10.451 8.635,5.047 5.947-9.253 11.894-18.507 17.841-27.761 3.497-5.443-5.162-10.452-8.635-5.047z"/>
<path d="m121.311,142.226c-5.5,9.526-11,19.053-16.5,28.579-3.23,5.595 5.413,10.628 8.635,5.047 5.5-9.526 11-19.053 16.5-28.579 3.23-5.595-5.413-10.629-8.635-5.047z"/>
<path d="m95.818,186.393c-5.5,9.526-11,19.053-16.5,28.58-3.23,5.595 5.413,10.628 8.635,5.047 5.5-9.526 11-19.053 16.5-28.58 3.23-5.595-5.413-10.629-8.635-5.047z"/>
</g>
</svg>
