<svg xmlns="http://www.w3.org/2000/svg" viewBox="20 20 321 321">
<g fill="#fff">
<path d="m146.098,78.902c7.345,7.345 14.69,14.689 22.035,22.035 4.564,4.563 11.635-2.507 7.071-7.071-7.345-7.345-14.69-14.689-22.035-22.035-4.564-4.563-11.634,2.507-7.071,7.071z"/>
<path d="m99.02,146.338c19.504,0 39.008,0 58.512,0 6.449,0 6.449-10 0-10-19.504,0-39.008,0-58.512,0-6.449,0-6.449,10 0,10z"/>
<path d="m290.542,207.457c-7.407-7.408-14.815-14.816-22.224-22.224-4.563-4.564-11.635,2.507-7.07,7.07 7.407,7.408 14.815,14.816 22.224,22.224 4.563,4.565 11.634-2.506 7.07-7.07z"/>
<path d="m224.099,261.417c0-19.504 0-39.007 0-58.511 0-6.448-10-6.448-10,0 0,19.504 0,39.007 0,58.511 0,6.448 10,6.448 10,0z"/>
<path d="m135.576,233.678c13.792-13.791 27.583-27.583 41.375-41.375 4.563-4.563-2.507-11.634-7.071-7.07-13.792,13.791-27.583,27.583-41.375,41.375-4.564,4.563 2.507,11.634 7.071,7.07z"/>
<path d="m99.02,146.338c19.504,0 39.008,0 58.512,0 6.449,0 6.449-10 0-10-19.504,0-39.008,0-58.512,0-6.449,0-6.449,10 0,10z"/>
<path d="m224.099,261.417c0-19.504 0-39.007 0-58.511 0-6.448-10-6.448-10,0 0,19.504 0,39.007 0,58.511 0,6.448 10,6.448 10,0z"/>
<path d="m135.576,233.678c13.792-13.791 27.583-27.583 41.375-41.375 4.563-4.563-2.507-11.634-7.071-7.07-13.792,13.791-27.583,27.583-41.375,41.375-4.564,4.563 2.507,11.634 7.071,7.07z"/>
<path d="m140.297,115.006c5.492,2.275 10.983,4.55 16.475,6.824 2.523,1.045 5.495-1.11 6.15-3.492 .791-2.875-.976-5.108-3.492-6.15-5.492-2.275-10.983-4.55-16.475-6.824-2.523-1.045-5.495,1.11-6.15,3.492-.791,2.874 .976,5.108 3.492,6.15z"/>
<path d="m143.455,180.33c5.492-2.274 10.983-4.549 16.475-6.824 2.516-1.042 4.283-3.275 3.492-6.15-.655-2.382-3.627-4.537-6.15-3.492-5.492,2.274-10.983,4.549-16.475,6.824-2.516,1.042-4.283,3.275-3.492,6.15 .655,2.382 3.627,4.537 6.15,3.492z"/>
<path d="m192.272,219.663c2.274-5.491 4.55-10.983 6.824-16.475 1.045-2.522-1.109-5.495-3.492-6.15-2.875-.791-5.108,.977-6.15,3.492-2.274,5.491-4.55,10.983-6.824,16.475-1.045,2.522 1.109,5.495 3.492,6.15 2.875,.791 5.108-.976 6.15-3.492z"/>
<path d="m255.097,217.005c-2.274-5.491-4.55-10.983-6.824-16.475-1.042-2.516-3.275-4.283-6.15-3.492-2.383,.655-4.537,3.628-3.492,6.15 2.274,5.491 4.55,10.983 6.824,16.475 1.042,2.516 3.275,4.283 6.15,3.492 2.382-.655 4.537-3.628 3.492-6.15z"/>
<path d="m182.678,76.547c1.259,3.039 2.518,6.078 3.776,9.116 1.042,2.516 3.275,4.283 6.15,3.492 2.383-.655 4.537-3.627 3.492-6.15-1.259-3.039-2.518-6.078-3.776-9.116-1.042-2.516-3.275-4.283-6.15-3.492-2.383,.655-4.537,3.627-3.492,6.15z"/>
<path d="m288.972,165.805c-3.173-1.314-6.345-2.628-9.518-3.942-2.522-1.045-5.495,1.11-6.15,3.492-.791,2.875 .977,5.108 3.492,6.15 3.173,1.314 6.345,2.628 9.518,3.942 2.522,1.045 5.495-1.11 6.15-3.492 .791-2.874-.977-5.108-3.492-6.15z"/>
</g>
<path fill="none" stroke="#fff" stroke-width="10" d="m260.535,156.005c0,13.255-10.744,24-24,24h-30.873c-13.256,0-24-10.745-24-24v-29.333c0-13.255 10.744-24 24-24h30.873c13.256,0 24,10.745 24,24v29.333z"/>
</svg>
