<svg xmlns="http://www.w3.org/2000/svg" viewBox="20 20 321 321">
<g fill="#fff">
<g stroke="#fff" stroke-width="13.063">
<path d="m196.65,140.42c0,4.328-3.148,7.838-7.033,7.838h-54.511c-3.885,0-7.035-3.51-7.035-7.838v-56.823c0-4.329 3.15-7.838 7.035-7.838h54.511c3.885,0 7.033,3.509 7.033,7.838v56.823z"/>
<path d="m93.455,120.825c0,4.329 3.509,7.838 7.838,7.838h36.576c4.328,0 7.837-3.509 7.837-7.838v-22.206c0-4.329-3.51-7.838-7.837-7.838h-36.576c-4.329,0-7.838,3.509-7.838,7.838v22.206z"/>
<path d="m77.779,120.825c0-4.328 3.509-7.837 7.838-7.837h45.067c4.328,0 7.837,3.509 7.837,7.837v12.41c0,4.329-3.51,7.838-7.837,7.838h-45.067c-4.329,0-7.838-3.509-7.838-7.838v-12.41z"/>
<path d="m249.121,148.258c0,4.328-3.149,7.838-7.033,7.838h-54.514c-3.885,0-7.034-3.51-7.034-7.838v-56.823c0-4.329 3.149-7.838 7.034-7.838h54.514c3.884,0 7.033,3.509 7.033,7.838v56.823z"/>
<path d="m233.227,141.727c0,4.328 3.51,7.838 7.838,7.838h36.576c4.328,0 7.838-3.51 7.838-7.838v-22.208c0-4.328-3.51-7.837-7.838-7.837h-36.576c-4.328,0-7.838,3.51-7.838,7.837v22.208z"/>
<path d="m202.094,157.402c0,4.328-3.148,7.837-7.033,7.837h-54.512c-3.884,0-7.034-3.509-7.034-7.837v-56.824c0-4.329 3.149-7.838 7.034-7.838h54.512c3.885,0 7.033,3.509 7.033,7.838v56.824z"/>
<path d="m103.063,142.532c0-4.328 3.509-7.837 7.838-7.837h45.067c4.328,0 7.837,3.509 7.837,7.837v12.41c0,4.329-3.51,7.838-7.837,7.838h-45.067c-4.329,0-7.838-3.509-7.838-7.838v-12.41z"/>
</g>
<path d="m230.389,186.05c-2.649,9.07-5.298,18.14-7.947,27.209-1.269,4.344 5.487,6.185 6.75,1.861 2.649-9.07 5.298-18.14 7.947-27.209 1.268-4.344-5.488-6.184-6.75-1.861z"/>
<path d="m222.572,189.881c2.197,2.299 4.396,4.598 6.594,6.896 3.124,3.269 8.067-1.688 4.949-4.949-2.197-2.299-4.396-4.598-6.594-6.896-3.124-3.269-8.067,1.688-4.949,4.949z"/>
<path d="m239.86,188.631c-3.09,.754-6.18,1.508-9.27,2.262-4.384,1.069-2.523,7.82 1.861,6.75 3.09-.754 6.18-1.508 9.27-2.262 4.384-1.069 2.524-7.82-1.861-6.75z"/>
<path d="m203.749,195.835c6.529,6.829 13.059,13.658 19.589,20.487 3.124,3.269 8.067-1.688 4.949-4.949-6.529-6.829-13.059-13.658-19.589-20.487-3.124-3.269-8.067,1.688-4.949,4.949z"/>
<path d="m203.164,204.498c3.09-.754 6.18-1.509 9.271-2.263 4.384-1.07 2.523-7.82-1.861-6.75-3.09,.754-6.18,1.509-9.271,2.263-4.384,1.07-2.524,7.82 1.861,6.75z"/>
<path d="m210.715,188.856c-.892,3.054-1.784,6.107-2.676,9.16-1.269,4.344 5.487,6.185 6.75,1.861 .892-3.054 1.784-6.107 2.676-9.16 1.268-4.343-5.487-6.184-6.75-1.861z"/>
<path d="m199.271,223.942c9.18-2.24 18.359-4.479 27.539-6.72 4.384-1.069 2.523-7.82-1.861-6.75-9.18,2.24-18.359,4.479-27.539,6.72-4.385,1.07-2.524,7.821 1.861,6.75z"/>
<path d="m206.443,228.835c.892-3.054 1.784-6.107 2.676-9.16 1.269-4.344-5.487-6.185-6.75-1.861-.892,3.054-1.784,6.107-2.676,9.16-1.268,4.343 5.488,6.184 6.75,1.861z"/>
<path d="m196.704,214.444c2.198,2.299 4.396,4.598 6.595,6.896 3.125,3.269 8.067-1.688 4.949-4.949-2.198-2.299-4.396-4.598-6.595-6.896-3.125-3.268-8.067,1.689-4.949,4.949z"/>
<path d="m221.281,242.087c2.649-9.07 5.298-18.14 7.947-27.209 1.269-4.344-5.487-6.185-6.75-1.861-2.649,9.07-5.298,18.14-7.947,27.209-1.268,4.343 5.488,6.184 6.75,1.861z"/>
<path d="m229.098,238.255c-2.198-2.3-4.396-4.599-6.595-6.897-3.124-3.269-8.067,1.688-4.949,4.949 2.198,2.3 4.396,4.599 6.595,6.897 3.123,3.269 8.067-1.688 4.949-4.949z"/>
<path d="m211.81,239.506c3.09-.755 6.18-1.509 9.27-2.264 4.384-1.07 2.523-7.82-1.861-6.75-3.09,.755-6.18,1.509-9.27,2.264-4.385,1.07-2.524,7.82 1.861,6.75z"/>
<path d="m247.982,232.094c-6.53-6.83-13.061-13.659-19.591-20.488-3.125-3.269-8.067,1.688-4.949,4.949 6.53,6.83 13.061,13.659 19.591,20.488 3.125,3.269 8.068-1.689 4.949-4.949z"/>
<path d="m248.566,223.431c-3.09,.754-6.18,1.509-9.271,2.263-4.384,1.07-2.523,7.82 1.861,6.75 3.09-.754 6.18-1.509 9.271-2.263 4.385-1.071 2.524-7.821-1.861-6.75z"/>
<path d="m241.016,239.071c.892-3.053 1.784-6.105 2.676-9.158 1.269-4.344-5.486-6.185-6.75-1.861-.892,3.053-1.784,6.105-2.676,9.158-1.269,4.344 5.486,6.185 6.75,1.861z"/>
<path d="m252.459,203.985c-9.179,2.24-18.358,4.481-27.538,6.722-4.384,1.07-2.523,7.82 1.861,6.75 9.179-2.24 18.358-4.481 27.538-6.722 4.384-1.07 2.524-7.82-1.861-6.75z"/>
<path d="m245.287,199.093c-.892,3.054-1.784,6.107-2.676,9.16-1.269,4.344 5.487,6.185 6.75,1.861 .892-3.054 1.784-6.107 2.676-9.16 1.269-4.344-5.487-6.184-6.75-1.861z"/>
<path d="m255.025,213.484c-2.197-2.3-4.396-4.599-6.594-6.897-3.124-3.269-8.067,1.688-4.949,4.949 2.197,2.3 4.396,4.599 6.594,6.897 3.124,3.269 8.068-1.688 4.949-4.949z"/>
<path d="m133.749,152.442c0,9.449 0,18.898 0,28.347 0,4.514 7,4.514 7,0 0-9.449 0-18.898 0-28.347 0-4.514-7-4.514-7,0z"/>
<path d="m127.233,158.318c2.755,1.59 5.51,3.181 8.264,4.771 3.917,2.261 7.44-3.789 3.533-6.044-2.755-1.59-5.509-3.181-8.264-4.771-3.916-2.261-7.439,3.789-3.533,6.044z"/>
<path d="m143.636,152.274c-2.754,1.59-5.509,3.181-8.264,4.771-3.907,2.255-.383,8.305 3.533,6.044 2.755-1.59 5.509-3.181 8.264-4.771 3.907-2.255 .384-8.305-3.533-6.044z"/>
<path d="m110.835,169.311c8.183,4.725 16.366,9.449 24.548,14.173 3.917,2.262 7.44-3.789 3.533-6.044-8.183-4.725-16.366-9.449-24.548-14.173-3.916-2.261-7.44,3.789-3.533,6.044z"/>
<path d="m112.715,177.881c2.755-1.59 5.509-3.181 8.264-4.771 3.907-2.255 .383-8.305-3.533-6.044-2.754,1.59-5.509,3.181-8.264,4.771-3.907,2.256-.384,8.306 3.533,6.044z"/>
<path d="m115.65,160.654c0,3.181 0,6.362 0,9.542 0,4.514 7,4.514 7,0 0-3.181 0-6.362 0-9.542 0-4.514-7-4.514-7,0z"/>
<path d="m114.43,197.638c8.183-4.725 16.366-9.448 24.549-14.173 3.907-2.255 .383-8.305-3.533-6.044-8.183,4.724-16.366,9.448-24.549,14.172-3.907,2.256-.383,8.305 3.533,6.045z"/>
<path d="m122.759,200.332c0-3.181 0-6.361 0-9.542 0-4.514-7-4.514-7,0 0,3.181 0,6.361 0,9.542 0,4.514 7,4.514 7,0z"/>
<path d="m109.291,189.149c2.755,1.59 5.509,3.181 8.264,4.771 3.917,2.261 7.44-3.789 3.533-6.045-2.755-1.59-5.509-3.181-8.264-4.771-3.916-2.261-7.44,3.79-3.533,6.045z"/>
<path d="m140.717,208.892c0-9.448 0-18.897 0-28.346 0-4.514-7-4.514-7,0 0,9.449 0,18.898 0,28.346 0,4.513 7,4.513 7,0z"/>
<path d="m147.232,203.016c-2.755-1.59-5.509-3.18-8.264-4.771-3.917-2.261-7.44,3.789-3.533,6.045 2.755,1.59 5.51,3.18 8.264,4.771 3.917,2.26 7.44-3.79 3.533-6.045z"/>
<path d="m130.829,209.061c2.754-1.591 5.509-3.181 8.264-4.771 3.907-2.256 .383-8.306-3.533-6.045-2.754,1.591-5.509,3.181-8.264,4.771-3.907,2.255-.383,8.305 3.533,6.045z"/>
<path d="m163.631,191.806c-8.183-4.724-16.366-9.448-24.549-14.172-3.917-2.261-7.44,3.789-3.533,6.044 8.183,4.725 16.366,9.448 24.549,14.173 3.916,2.26 7.44-3.789 3.533-6.045z"/>
<path d="m161.75,183.236c-2.754,1.591-5.509,3.181-8.264,4.771-3.907,2.256-.384,8.306 3.533,6.045 2.755-1.591 5.509-3.181 8.264-4.771 3.908-2.256 .384-8.305-3.533-6.045z"/>
<path d="m158.815,200.465c0-3.181 0-6.362 0-9.543 0-4.514-7-4.514-7,0 0,3.181 0,6.362 0,9.543 0,4.514 7,4.514 7,0z"/>
<path d="m160.035,163.48c-8.183,4.724-16.366,9.449-24.549,14.173-3.907,2.255-.383,8.306 3.533,6.044 8.183-4.724 16.366-9.449 24.549-14.173 3.907-2.255 .383-8.305-3.533-6.044z"/>
<path d="m151.706,160.785c0,3.181 0,6.362 0,9.542 0,4.514 7,4.514 7,0 0-3.181 0-6.362 0-9.542 0-4.514-7-4.514-7,0z"/>
<path d="m165.174,171.969c-2.755-1.591-5.509-3.181-8.264-4.771-3.917-2.261-7.44,3.789-3.533,6.044 2.755,1.591 5.51,3.181 8.264,4.771 3.917,2.261 7.44-3.789 3.533-6.044z"/>
<path d="m164.673,237.394c-6.681,6.681-13.362,13.362-20.044,20.044-3.194,3.194 1.755,8.145 4.95,4.949 6.681-6.681 13.362-13.362 20.044-20.044 3.195-3.195-1.755-8.144-4.95-4.949z"/>
<path d="m155.923,236.984c.823,3.072 1.646,6.145 2.47,9.217 1.167,4.355 7.92,2.505 6.75-1.861-.823-3.072-1.646-6.145-2.47-9.217-1.167-4.355-7.92-2.505-6.75,1.861z"/>
<path d="m171.827,244.277c-3.072-.823-6.145-1.647-9.217-2.471-4.366-1.17-6.217,5.582-1.861,6.75 3.072,.823 6.145,1.647 9.217,2.471 4.366,1.17 6.217-5.582 1.861-6.75z"/>
<path d="m136.554,233.162c2.445,9.126 4.891,18.253 7.336,27.38 1.167,4.355 7.92,2.505 6.75-1.861-2.445-9.126-4.891-18.253-7.336-27.38-1.167-4.356-7.92-2.505-6.75,1.861z"/>
<path d="m131.77,240.498c3.073,.823 6.145,1.646 9.217,2.469 4.367,1.17 6.217-5.583 1.861-6.75-3.073-.823-6.145-1.646-9.217-2.469-4.367-1.17-6.217,5.583-1.861,6.75z"/>
<path d="m146.07,230.402c-2.249,2.249-4.499,4.498-6.748,6.748-3.194,3.194 1.755,8.145 4.95,4.949 2.249-2.249 4.499-4.498 6.748-6.748 3.194-3.194-1.755-8.144-4.95-4.949z"/>
<path d="m119.013,255.68c9.127,2.446 18.254,4.892 27.38,7.338 4.366,1.17 6.217-5.583 1.861-6.75-9.127-2.446-18.254-4.892-27.38-7.338-4.366-1.17-6.217,5.583-1.861,6.75z"/>
<path d="m123.04,263.486c2.249-2.249 4.498-4.498 6.748-6.748 3.194-3.194-1.755-8.145-4.95-4.949-2.249,2.249-4.498,4.498-6.748,6.748-3.194,3.194 1.755,8.145 4.95,4.949z"/>
<path d="m121.435,246.099c.823,3.072 1.647,6.145 2.47,9.217 1.167,4.355 7.92,2.505 6.75-1.861-.823-3.072-1.647-6.145-2.47-9.217-1.168-4.356-7.921-2.506-6.75,1.861z"/>
<path d="m129.686,282.236c6.681-6.681 13.362-13.362 20.043-20.044 3.194-3.194-1.755-8.145-4.95-4.949-6.681,6.681-13.362,13.362-20.043,20.044-3.194,3.194 1.755,8.145 4.95,4.949z"/>
<path d="m138.436,282.646c-.823-3.072-1.646-6.145-2.47-9.217-1.167-4.355-7.92-2.505-6.75,1.861 .823,3.072 1.646,6.145 2.47,9.217 1.167,4.355 7.919,2.505 6.75-1.861z"/>
<path d="m122.532,275.354c3.072,.823 6.145,1.646 9.217,2.469 4.367,1.17 6.217-5.583 1.861-6.75-3.072-.823-6.145-1.646-9.217-2.469-4.367-1.17-6.217,5.583-1.861,6.75z"/>
<path d="m157.958,286.315c-2.446-9.127-4.892-18.254-7.337-27.381-1.167-4.355-7.92-2.505-6.75,1.861 2.446,9.127 4.892,18.254 7.337,27.381 1.167,4.356 7.92,2.506 6.75-1.861z"/>
<path d="m162.742,278.98c-3.073-.823-6.145-1.647-9.217-2.471-4.366-1.17-6.217,5.582-1.861,6.75 3.073,.823 6.145,1.647 9.217,2.471 4.366,1.17 6.217-5.582 1.861-6.75z"/>
<path d="m148.442,289.074c2.249-2.249 4.498-4.498 6.747-6.747 3.194-3.194-1.755-8.144-4.95-4.949-2.249,2.249-4.498,4.498-6.747,6.747-3.194,3.194 1.756,8.145 4.95,4.949z"/>
<path d="m175.499,263.797c-9.127-2.445-18.254-4.892-27.381-7.337-4.367-1.17-6.217,5.583-1.861,6.75 9.127,2.445 18.254,4.892 27.381,7.337 4.366,1.17 6.217-5.583 1.861-6.75z"/>
<path d="m171.472,255.99c-2.249,2.249-4.498,4.498-6.748,6.748-3.194,3.194 1.755,8.145 4.95,4.949 2.249-2.249 4.498-4.498 6.748-6.748 3.195-3.194-1.755-8.144-4.95-4.949z"/>
<path d="m173.077,273.379c-.823-3.072-1.646-6.145-2.47-9.218-1.167-4.355-7.92-2.505-6.75,1.861 .823,3.072 1.646,6.145 2.47,9.218 1.167,4.356 7.92,2.505 6.75-1.861z"/>
</g>
</svg>
