<svg xmlns="http://www.w3.org/2000/svg" viewBox="20 20 321 321">
<g fill="none" stroke="#fff" stroke-width="10">
<path d="m196.834,127.992c0,9.084-7.363,16.449-16.449,16.449-9.084,0-16.449-7.364-16.449-16.449 0-3.474 1.22-6.311 2.303-9.353 1.93-5.413 8.535-24.488 14.146-24.488 5.624,0 12.522,19.84 14.167,24.52 1.067,3.035 2.282,5.86 2.282,9.321z"/>
<path d="m174.78,201.508c0,9.085-7.365,16.449-16.45,16.449-9.084,0-16.449-7.364-16.449-16.449 0-3.475 1.219-6.312 2.304-9.353 1.93-5.413 8.535-24.489 14.145-24.489 5.624,0 12.522,19.84 14.167,24.519 1.067,3.036 2.283,5.861 2.283,9.323z"/>
<path d="m125.892,225.797c0,2.369-2.291,4.29-5.115,4.29h-40.495c-2.825,0-5.115-1.921-5.115-4.29v-146.906c0-2.369 2.291-4.29 5.115-4.29h40.495c2.825,0 5.115,1.921 5.115,4.29v146.906z"/>
</g>
<g fill="#fff">
<path d="m116.702,152.251c0,9.085-7.364,16.45-16.449,16.45-9.084,0-16.449-7.364-16.449-16.45 0-3.474 1.22-6.31 2.304-9.352 1.93-5.413 8.536-24.488 14.146-24.488 5.624,0 12.522,19.84 14.167,24.519 1.065,3.035 2.281,5.861 2.281,9.321z"/>
<path d="m171.076,249.254c6.24,0 11.02,1.11 14.34,3.33 3.319,2.221 4.979,5.67 4.979,10.351 0,2.921-.67,5.29-2.01,7.11-1.341,1.82-3.271,3.25-5.79,4.289 .84,1.041 1.719,2.23 2.641,3.57 .919,1.341 1.83,2.74 2.729,4.2s1.771,2.98 2.61,4.56c.84,1.581 1.619,3.131 2.34,4.65h-10.464c-.763-1.359-1.537-2.739-2.319-4.141-.783-1.398-1.585-2.76-2.408-4.08-.823-1.319-1.637-2.568-2.439-3.75-.804-1.179-1.607-2.25-2.41-3.209h-4.62v15.18h-9.36v-40.98c2.04-.398 4.149-.68 6.33-.84 2.18-.159 4.13-.24 5.851-.24zm.54,7.98c-.681,0-1.29,.021-1.83,.061s-1.05,.08-1.53,.119v11.28h2.64c3.52,0 6.04-.439 7.56-1.319 1.52-.88 2.28-2.38 2.28-4.5 0-2.041-.771-3.49-2.31-4.351-1.541-.86-3.81-1.29-6.81-1.29z"/>
<path d="m223.995,249.734h9.36v41.58h-9.36v-17.641h-15.72v17.641h-9.36v-41.58h9.36v15.9h15.72v-15.9z"/>
<path d="m261.494,260.414c0,3.761-.959,6.641-2.879,8.641s-4.5,3-7.74,3-5.82-1-7.74-3-2.88-4.88-2.88-8.641c0-3.759 .96-6.639 2.88-8.64 1.92-1.999 4.5-3 7.74-3s5.82,1.001 7.74,3c1.92,2.001 2.879,4.881 2.879,8.64zm-6.779,0c0-2.039-.359-3.52-1.08-4.439s-1.641-1.381-2.76-1.381c-1.16,0-2.091,.461-2.79,1.381-.7,.92-1.05,2.4-1.05,4.439 0,2.041 .35,3.531 1.05,4.471 .699,.939 1.63,1.41 2.79,1.41 1.119,0 2.039-.471 2.76-1.41s1.08-2.43 1.08-4.471zm18.48-10.68h8.34l-23.461,41.58h-8.34l23.461-41.58zm17.94,30.901c0,3.76-.96,6.641-2.88,8.64-1.92,2.001-4.5,3-7.74,3-3.239,0-5.819-.999-7.739-3-1.92-1.999-2.881-4.88-2.881-8.64s.961-6.64 2.881-8.641c1.92-2 4.5-3 7.739-3 3.24,0 5.82,1 7.74,3 1.92,2.001 2.88,4.881 2.88,8.641zm-6.78,0c0-2.041-.361-3.52-1.08-4.44-.721-.919-1.641-1.38-2.761-1.38-1.161,0-2.091,.461-2.79,1.38-.7,.921-1.05,2.399-1.05,4.44 0,2.039 .35,3.53 1.05,4.47 .699,.94 1.629,1.41 2.79,1.41 1.12,0 2.04-.47 2.761-1.41 .719-.94 1.08-2.431 1.08-4.47z"/>
</g>
</svg>
