<svg xmlns="http://www.w3.org/2000/svg" viewBox="20 20 321 321">
<g fill="#fff">
<path d="m146.302,214.39c.295-36.432 29.756-66.006 66.193-66.413 6.444-.072 6.451-10.072 0-10-41.875,.467-75.854,34.53-76.193,76.413-.052,6.451 9.948,6.445 10,0z"/>
<path d="m212.712,280.279c-36.433-.295-66.006-29.754-66.412-66.192-.072-6.444-10.072-6.451-10,0 .466,41.876 34.529,75.854 76.412,76.192 6.451,.052 6.445-9.948 0-10z"/>
<path d="m215.235,280.962c-25.076-10.63-42.12-41.234-42.457-67.854-.058-4.616-7.209-7.302-9.317-2.523-.02,.044-.039,.088-.059,.133 3.106,.841 6.211,1.683 9.317,2.523 .321-26.471 19.387-53.71 42.313-66.039 5.681-3.055 .631-11.688-5.047-8.635-26.003,13.983-46.904,44.784-47.266,74.673-.057,4.679 7.241,7.229 9.317,2.523 .02-.044 .039-.088 .059-.133-3.106-.841-6.211-1.683-9.317-2.523 .376,29.772 19.221,64.54 47.41,76.489 5.865,2.487 10.967-6.124 5.047-8.634z"/>
<g stroke="#fff">
<path d="m131.086,126.638c0,1.519-1.231,2.75-2.75,2.75-1.519,0-2.75-1.231-2.75-2.75 0-1.519 1.231-2.75 2.75-2.75 1.519,0 2.75,1.232 2.75,2.75z"/>
<path d="m76.613,80.292c0,1.596-1.294,2.89-2.89,2.89-1.596,0-2.89-1.294-2.89-2.89 0-1.596 1.294-2.89 2.89-2.89 1.596-.001 2.89,1.293 2.89,2.89z"/>
<path d="m116.904,95.982c0,1.125-.912,2.037-2.037,2.037h-.679c-1.125,0-2.037-.912-2.037-2.037v-.679c0-1.126 .912-2.037 2.037-2.037h.679c1.125,0 2.037,.911 2.037,2.037v.679z"/>
<path d="m177.006,90.638c0,1.519-1.231,2.75-2.75,2.75-1.519,0-2.75-1.231-2.75-2.75 0-1.519 1.231-2.75 2.75-2.75 1.518,0 2.75,1.232 2.75,2.75z"/>
<path d="m171.592,126.638c0,2.319-1.881,4.2-4.2,4.2-2.319,0-4.2-1.881-4.2-4.2 0-2.319 1.881-4.2 4.2-4.2 2.319,0 4.2,1.881 4.2,4.2z"/>
</g>
<path d="m99.464,81.042c0,.744-.603,1.347-1.347,1.347h-.449c-.744,0-1.347-.603-1.347-1.347v-.449c0-.744 .603-1.347 1.347-1.347h.449c.744,0 1.347,.603 1.347,1.347v.449z"/>
<path d="m97.964,81.042c.006-.093 .049-.103 .1-.166-.201,.255-.1,.053-.014,.025 .142-.045-.292-.012-.382-.012 .091,0 .106,.052 .167,.1-.255-.202-.053-.1-.025-.014 .045,.141 .012-.292 .012-.382 0,.091-.052,.105-.1,.166 .201-.255 .1-.053 .014-.025-.142,.045 .292,.012 .382,.012-.091,0-.106-.052-.167-.1 .255,.202 .053,.1 .025,.014-.044-.141-.012,.292-.012,.382 0,1.935 3,1.935 3,0 0-.662-.082-1.227-.363-1.839-.431-.94-1.521-1.396-2.484-1.457-1.781-.111-3.184,1.05-3.296,2.847-.11,1.78 1.05,3.184 2.847,3.296 1.781,.111 3.184-1.05 3.296-2.847 .051-.817-.721-1.5-1.5-1.5-.856-0-1.449,.684-1.5,1.5z"/>
<g stroke="#fff">
<path d="m143.649,163.956c0,1.519-1.231,2.75-2.75,2.75-1.519,0-2.75-1.231-2.75-2.75 0-1.519 1.231-2.75 2.75-2.75 1.518,0 2.75,1.232 2.75,2.75z"/>
<path d="m94.583,147.732c0,.834-.675,1.51-1.508,1.51-.833,0-1.508-.676-1.508-1.51 0-.834 .675-1.51 1.508-1.51 .832,0 1.508,.676 1.508,1.51z"/>
<path d="m236.728,106.89c0,1.519-1.231,2.75-2.75,2.75-1.519,0-2.75-1.231-2.75-2.75 0-1.519 1.231-2.75 2.75-2.75 1.518,0 2.75,1.231 2.75,2.75z"/>
<path d="m103.143,237.508c0,2.898-2.351,5.25-5.25,5.25-2.899,0-5.25-2.352-5.25-5.25 0-2.9 2.351-5.25 5.25-5.25 2.899,0 5.25,2.349 5.25,5.25z"/>
<path d="m113.66,266.795c0,.834-.675,1.51-1.508,1.51-.833,0-1.508-.676-1.508-1.51 0-.834 .675-1.511 1.508-1.511 .832,0 1.508,.677 1.508,1.511z"/>
<path d="m273.941,91.315c0,2.246-1.885,4.067-4.209,4.067h-1.402c-2.324,0-4.209-1.821-4.209-4.067v-1.355c0-2.246 1.885-4.067 4.209-4.067h1.402c2.324,0 4.209,1.821 4.209,4.067v1.355z"/>
</g>
<path d="m281.918,245.595c-10.364,21.323-29.583,36.451-52.749,41.503-23.599,5.145-48.62-2.305-66.35-18.44-17.154-15.611-25.641-38.942-23.842-61.891 1.889-24.108 16.327-45.954 36.924-58.23 28.281-16.857 64.984-12.275 89.118,9.688 24.12,21.948 30.493,58.07 16.899,87.37-.809,1.742 1.776,3.268 2.59,1.514 18.846-40.616 .09-88.762-41.129-106.111-41.593-17.506-89.606,6.206-103.821,48.182-13.11,38.715 7.862,81.115 44.902,96.705 37.872,15.94 82.339-2.339 100.048-38.775 .842-1.733-1.744-3.256-2.59-1.515z"/>
</g>
</svg>
