<svg xmlns="http://www.w3.org/2000/svg" viewBox="20 20 321 321">
<g fill="#fff">
<path d="m103.833,75.167c0,48.697 0,97.394 0,146.091 0,21.97 0,43.939 0,65.909 0,6.448 10,6.448 10,0 0-48.697 0-97.395 0-146.091 0-21.97 0-43.939 0-65.909 0-6.449-10-6.449-10-0z"/>
<path d="m139.333,154.451c0,4.538-4.356,8.216-9.73,8.216h-40.04c-5.374,0-9.73-3.678-9.73-8.216v-12.068c0-4.538 4.356-8.216 9.73-8.216h40.039c5.374,0 9.73,3.678 9.73,8.216v12.068z"/>
<path d="m246.333,75.167c0,48.697 0,97.394 0,146.091 0,21.97 0,43.939 0,65.909 0,6.448 10,6.448 10,0 0-48.697 0-97.395 0-146.091 0-21.97 0-43.939 0-65.909 0-6.449-10-6.449-10-0z"/>
<path d="m281.833,173.451c0,4.538-4.356,8.216-9.73,8.216h-40.039c-5.374,0-9.73-3.678-9.73-8.216v-12.068c0-4.538 4.356-8.216 9.73-8.216h40.039c5.374,0 9.73,3.678 9.73,8.216v12.068z"/>
<path d="m176.083,74.956c0,48.697 0,97.394 0,146.091 0,21.97 0,43.939 0,65.909 0,6.448 10,6.448 10,0 0-48.697 0-97.395 0-146.091 0-21.97 0-43.939 0-65.909 0-6.449-10-6.449-10,0z"/>
<path d="m211.583,220.24c0,4.537-4.356,8.216-9.73,8.216h-40.039c-5.374,0-9.73-3.679-9.73-8.216v-12.068c0-4.537 4.356-8.216 9.73-8.216h40.039c5.374,0 9.73,3.679 9.73,8.216v12.068z"/>
</g>
</svg>
