<svg xmlns="http://www.w3.org/2000/svg" viewBox="20 20 321 321">
<g fill="#fff">
<path d="m244.523,281.64c.119-.612 2.896-.431 .289-.431-1.465,0-2.931,0-4.396,0-5.081,0-10.163,0-15.244,0-15.325,0-30.651,0-45.977,0-15.068,0-30.137,0-45.206,0-4.76,0-9.52,0-14.279,0-1.186,0-2.373,0-3.559,0-2.261,0 .889,.243 .889,1.638 0-50.77 0-101.539 0-152.309 0-6.875 0-13.751 0-20.626-.826,1.439-1.651,2.878-2.477,4.317 13.553-9.064 27.106-18.128 40.659-27.192-1.284,.168-2.568,.336-3.853,.504 23.649,7.156 47.298,14.312 70.946,21.468 5.637,1.705 11.272,3.411 16.909,5.116 1.472,.445 2.944,.891 4.417,1.336 1.829,.554 .701,.547 .701-1.137 0,6.301 0,12.601 0,18.902 0,49.911 0,99.823 0,149.734 0,.003 0,.005 0,.008 0,6.448 10,6.448 10,0 0-49.693 0-99.387 0-149.08 0-6.503 0-13.007 0-19.51 0-8.85-15.068-10.686-21.594-12.661-25.828-7.815-51.655-15.63-77.482-23.445-3.27-.989-5.322,.283-7.953,2.042-5.823,3.895-11.646,7.789-17.469,11.683-5.823,3.894-11.646,7.788-17.469,11.683-2.637,1.763-5.337,3.214-5.337,6.838 0,21.712 0,43.424 0,65.137 0,29.982 0,59.966 0,89.949 0,5.785 0,11.57 0,17.355 0,10.699 14.644,8.248 21.506,8.248 25.049,0 50.099,0 75.148,0 10.905,0 21.812,0 32.718,0 6.465,0 16.082,1.651 17.753-6.911 1.233-6.297-8.405-8.983-9.64-2.656z"/>
<path d="m119.521,205.112 122.469,0"/>
<path d="m119.521,206.612c40.823,0 81.646,0 122.47,0 1.935,0 1.935-3 0-3-40.823,0-81.646,0-122.47,0-1.935,0-1.935,3 0,3z"/>
<path d="m119.521,243.75 122.469,0"/>
<path d="m119.521,245.25c40.823,0 81.646,0 122.47,0 1.935,0 1.935-3 0-3-40.823,0-81.646,0-122.47,0-1.935,0-1.935,3 0,3z"/>
<path d="m119.854,166.112 122.469,0"/>
<path d="m119.854,167.612c40.823,0 81.646,0 122.47,0 1.935,0 1.935-3 0-3-40.823,0-81.646,0-122.47,0-1.935,0-1.935,3-0,3z"/>
<path d="m119.854,127.112 122.469,0"/>
<path d="m119.854,128.612c40.823,0 81.646,0 122.47,0 1.935,0 1.935-3 0-3-40.823,0-81.646,0-122.47,0-1.935,0-1.935,3-0,3z"/>
<path d="m100.606,123.359c21.896-14.672 43.792-29.343 65.688-44.015 5.327-3.569 .327-12.236-5.047-8.635-21.896,14.672-43.792,29.343-65.688,44.015-5.327,3.57-.327,12.236 5.047,8.635z"/>
<path d="m155.004,88.488c38.417,11.417 76.833,22.833 115.25,34.25 6.197,1.842 8.824-7.81 2.658-9.643-38.417-11.417-76.833-22.833-115.25-34.25-6.197-1.841-8.825,7.811-2.658,9.643z"/>
<path d="m238.568,207.667h-116.136c-2.209,0-4,1.791-4,4v25.667c0,2.209 1.791,4 4,4h116.137c2.209,0 4-1.791 4-4v-25.667c-.001-2.209-1.792-4-4.001-4zm-59.505,29h-15.086v-23.522h14.25v3.877h-9.576v5.281h8.322v3.877h-8.322v6.611h10.412v3.876zm8.626-5.567c.887,1.33 2.19,1.996 3.914,1.996 .277,0 .582-.014 .912-.039 .328-.024 .633-.063 .912-.113v-8.588h4.674v11.742c-.559,.203-1.426,.43-2.604,.684-1.178,.252-2.604,.38-4.275,.38-1.469,0-2.793-.261-3.971-.779s-2.186-1.292-3.021-2.317c-.836-1.026-1.481-2.305-1.938-3.838s-.684-3.313-.684-5.34c0-2 .266-3.768 .798-5.301 .532-1.532 1.254-2.818 2.166-3.857 .911-1.038 1.988-1.816 3.229-2.336s2.571-.779 3.99-.779c.912,0 1.729,.07 2.451,.209 .722,.139 1.349,.298 1.881,.475 .532,.178 .969,.367 1.311,.57s.602,.355 .779,.455l-1.216,3.725c-.558-.354-1.241-.671-2.052-.949-.812-.279-1.647-.418-2.508-.418-1.115,0-2.053,.202-2.813,.607s-1.387,.969-1.881,1.691c-.494,.722-.85,1.583-1.064,2.584-.215,1-.322,2.108-.322,3.324 .002,2.811 .445,4.882 1.332,6.212z"/>
<path d="m238.756,246.334h-116.137c-2.209,0-4,1.791-4,4v25.666c0,2.209 1.791,4 4,4h116.137c2.209,0 4-1.791 4-4v-25.666c0-2.209-1.791-4-4-4zm-63.873,29.083c-.279-.886-.678-1.843-1.197-2.869-.52-1.026-1.096-2.026-1.729-3.002-.634-.975-1.298-1.887-1.995-2.735-.697-.85-1.362-1.564-1.995-2.147v10.754h-4.674v-23.522h4.674v9.767c.557-.709 1.14-1.495 1.748-2.356 .608-.861 1.184-1.723 1.729-2.584 .544-.861 1.045-1.709 1.501-2.546 .456-.836 .836-1.596 1.14-2.28h5.282c-.355,.685-.779,1.463-1.273,2.338-.494,.873-1.058,1.785-1.691,2.735s-1.311,1.919-2.033,2.907c-.722,.988-1.476,1.938-2.261,2.85 .785,.76 1.583,1.635 2.394,2.623 .811,.987 1.577,2.045 2.299,3.172 .722,1.128 1.374,2.28 1.957,3.459 .583,1.178 1.051,2.324 1.406,3.438h-5.282zm12.806-5.569c.887,1.33 2.19,1.996 3.914,1.996 .277,0 .582-.014 .912-.039 .328-.024 .633-.063 .912-.113v-8.588h4.674v11.742c-.559,.203-1.426,.43-2.604,.684-1.178,.252-2.604,.38-4.275,.38-1.469,0-2.793-.261-3.971-.779s-2.186-1.292-3.021-2.317c-.836-1.026-1.481-2.305-1.938-3.838s-.684-3.313-.684-5.34c0-2 .266-3.768 .798-5.301 .532-1.532 1.254-2.818 2.166-3.857 .911-1.038 1.988-1.816 3.229-2.336s2.571-.779 3.99-.779c.912,0 1.729,.07 2.451,.209 .722,.139 1.349,.298 1.881,.475 .532,.178 .969,.367 1.311,.57s.602,.355 .779,.455l-1.216,3.725c-.558-.354-1.241-.671-2.052-.949-.812-.279-1.647-.418-2.508-.418-1.115,0-2.053,.202-2.813,.607s-1.387,.969-1.881,1.691c-.494,.722-.85,1.583-1.064,2.584-.215,1-.322,2.108-.322,3.324 .002,2.811 .445,4.882 1.332,6.212z"/>
<path d="m238.824,168.667h-116.137c-2.209,0-4,1.791-4,4v25.667c0,2.209 1.791,4 4,4h116.137c2.209,0 4-1.791 4-4v-25.667c0-2.209-1.791-4-4-4zm-79.299,29.25h-14.288v-3.876h4.94v-13.148c-.71,.507-1.52,.957-2.432,1.349s-1.685,.703-2.318,.931l-1.52-3.876c.608-.228 1.266-.519 1.976-.874 .709-.354 1.418-.747 2.128-1.178 .708-.431 1.38-.887 2.014-1.368 .633-.481 1.178-.975 1.634-1.482h3.192v19.646h4.674v3.876zm13.452-.456c-.684,.582-1.47,.874-2.356,.874-.456,0-.887-.076-1.292-.228-.406-.152-.767-.374-1.083-.666-.317-.291-.57-.646-.76-1.063s-.285-.905-.285-1.463c0-.532 .095-1.007 .285-1.425s.443-.766 .76-1.045c.316-.279 .677-.494 1.083-.646 .405-.152 .836-.229 1.292-.229 .886,0 1.672,.292 2.356,.875 .684,.582 1.026,1.406 1.026,2.47-0,1.115-.342,1.964-1.026,2.546zm22.877-2.147c-1.471,2.064-3.547,3.097-6.232,3.097-2.762,0-4.871-1.032-6.327-3.097-1.457-2.064-2.185-5.124-2.185-9.178 0-4.053 .746-7.112 2.242-9.177 1.494-2.064 3.571-3.097 6.231-3.097 2.761,0 4.864,1.033 6.308,3.097 1.444,2.065 2.166,5.124 2.166,9.177 0,4.054-.735,7.114-2.203,9.178zm10.335-2.964c.887,1.33 2.19,1.996 3.914,1.996 .277,0 .582-.014 .912-.039 .328-.024 .633-.063 .912-.113v-8.588h4.674v11.742c-.559,.203-1.426,.43-2.604,.684-1.178,.252-2.604,.38-4.275,.38-1.469,0-2.793-.261-3.971-.779s-2.186-1.292-3.021-2.317c-.836-1.026-1.481-2.305-1.938-3.838s-.684-3.313-.684-5.34c0-2 .266-3.768 .798-5.301 .532-1.532 1.254-2.818 2.166-3.857 .911-1.039 1.988-1.817 3.229-2.337 1.241-.519 2.571-.779 3.99-.779 .912,0 1.729,.07 2.451,.209 .722,.14 1.349,.298 1.881,.475 .532,.178 .969,.368 1.311,.57s.602,.355 .779,.456l-1.216,3.724c-.558-.354-1.241-.671-2.052-.95-.812-.279-1.647-.418-2.508-.418-1.115,0-2.053,.203-2.813,.608s-1.387,.969-1.881,1.691-.85,1.583-1.064,2.584c-.215,1-.322,2.108-.322,3.324 .002,2.812 .445,4.883 1.332,6.213z"/>
<path d="m192.643,180.323c-.267-.734-.641-1.317-1.121-1.748-.482-.431-1.128-.646-1.938-.646-.812,0-1.457,.215-1.938,.646-.48,.431-.854,1.02-1.121,1.767-.266,.748-.443,1.615-.531,2.604-.09,.988-.133,2.052-.133,3.191 0,1.141 .043,2.211 .133,3.211 .088,1.002 .266,1.869 .531,2.604 .267,.734 .641,1.317 1.121,1.748 .481,.431 1.127,.646 1.938,.646 .785,0 1.425-.216 1.919-.646s.874-1.02 1.141-1.768c.266-.746 .442-1.615 .531-2.603 .089-.988 .133-2.052 .133-3.192 0-1.14-.044-2.209-.133-3.211-.09-1-.267-1.867-.532-2.603z"/>
<path d="m238.902,129.834h-116.137c-2.209,0-4,1.791-4,4v25.666c0,2.209 1.791,4 4,4h116.137c2.209,0 4-1.791 4-4v-25.667c0-2.208-1.791-3.999-4-3.999zm-79.263,28.583h-15.352c-.076-.253-.108-.57-.095-.95 .013-.38 .019-.646 .019-.798 0-1.267 .234-2.432 .703-3.496 .468-1.064 1.064-2.045 1.786-2.945 .722-.899 1.494-1.735 2.318-2.508 .823-.772 1.596-1.514 2.318-2.223 .722-.709 1.317-1.393 1.786-2.052 .468-.658 .703-1.33 .703-2.014 0-.962-.292-1.704-.874-2.223-.583-.519-1.318-.779-2.204-.779-.735,0-1.508,.177-2.318,.532-.811,.355-1.609,.95-2.394,1.786l-2.318-3.268c1.013-1.064 2.185-1.849 3.515-2.356 1.33-.506 2.653-.76 3.971-.76 .962,0 1.887,.14 2.774,.418 .886,.279 1.672,.697 2.356,1.254s1.229,1.26 1.634,2.109c.405,.849 .608,1.831 .608,2.945 0,.811-.152,1.59-.456,2.337-.304,.748-.709,1.476-1.216,2.185-.507,.709-1.077,1.394-1.71,2.052-.633,.659-1.279,1.292-1.938,1.9-.33,.304-.709,.665-1.14,1.083-.431,.418-.836,.849-1.216,1.292-.38,.443-.703,.893-.969,1.349-.266,.456-.399,.874-.399,1.254h10.108v3.876zm13.338-.457c-.684,.583-1.47,.874-2.356,.874-.456,0-.887-.076-1.292-.228-.406-.152-.767-.374-1.083-.665-.317-.291-.57-.646-.76-1.064s-.285-.905-.285-1.463c0-.532 .095-1.007 .285-1.425 .19-.418 .443-.766 .76-1.045 .316-.278 .677-.494 1.083-.646 .405-.152 .836-.228 1.292-.228 .886,0 1.672,.292 2.356,.874 .684,.583 1.026,1.406 1.026,2.47-0,1.116-.342,1.964-1.026,2.546zm22.877-2.147c-1.471,2.065-3.547,3.097-6.232,3.097-2.762,0-4.871-1.032-6.327-3.097-1.457-2.064-2.185-5.124-2.185-9.177s.746-7.112 2.242-9.177c1.494-2.064 3.571-3.097 6.231-3.097 2.761,0 4.864,1.033 6.308,3.097 1.444,2.065 2.166,5.124 2.166,9.177s-.735,7.113-2.203,9.177zm10.335-2.963c.887,1.33 2.19,1.995 3.914,1.995 .277,0 .582-.013 .912-.038 .328-.025 .633-.063 .912-.114v-8.588h4.674v11.742c-.559,.203-1.426,.431-2.604,.684s-2.604,.38-4.275,.38c-1.469,0-2.793-.26-3.971-.779-1.178-.519-2.186-1.292-3.021-2.318s-1.481-2.305-1.938-3.838c-.456-1.533-.684-3.312-.684-5.339 0-2.001 .266-3.768 .798-5.301 .532-1.532 1.254-2.818 2.166-3.857 .911-1.039 1.988-1.817 3.229-2.337 1.241-.519 2.571-.779 3.99-.779 .912,0 1.729,.07 2.451,.209 .722,.14 1.349,.298 1.881,.475 .532,.178 .969,.368 1.311,.57s.602,.355 .779,.456l-1.216,3.724c-.558-.354-1.241-.671-2.052-.95-.812-.279-1.647-.418-2.508-.418-1.115,0-2.053,.203-2.813,.608s-1.387,.969-1.881,1.691-.85,1.583-1.064,2.584c-.215,1.001-.322,2.109-.322,3.325 .002,2.812 .445,4.883 1.332,6.213z"/>
<path d="m192.643,140.822c-.267-.734-.641-1.317-1.121-1.748-.482-.431-1.128-.646-1.938-.646-.812,0-1.457,.215-1.938,.646-.48,.431-.854,1.02-1.121,1.767-.266,.748-.443,1.615-.531,2.603-.09,.988-.133,2.052-.133,3.192 0,1.14 .043,2.21 .133,3.211 .088,1.001 .266,1.868 .531,2.603 .267,.735 .641,1.317 1.121,1.748 .481,.431 1.127,.646 1.938,.646 .785,0 1.425-.215 1.919-.646s.874-1.02 1.141-1.767c.266-.747 .442-1.615 .531-2.603 .089-.988 .133-2.052 .133-3.192 0-1.14-.044-2.21-.133-3.211-.09-1-.267-1.867-.532-2.603z"/>
<path d="m153.365,103.96c-.38-.734-.9-1.323-1.558-1.767-.659-.443-1.508-.665-2.546-.665-.203,0-.431,.007-.684,.019-.254,.013-.481,.044-.684,.095v15.808c.126,.025 .266,.038 .418,.038s.291,0 .418,0c1.064,0 1.957-.202 2.679-.608 .722-.405 1.304-.962 1.748-1.672 .443-.709 .76-1.551 .95-2.527 .19-.975 .285-2.045 .285-3.211 0-1.013-.076-2.001-.228-2.964-.152-.962-.418-1.811-.798-2.546z"/>
<path d="m238.902,114.834c0,0-81.574-24.463-82.726-24.808-1.448-.433-3.309-.183-3.953,.25-.753,.506-29.458,19.558-29.458,19.558-4,2.667-4,2.791-4,5v5.667c0,2.209 1.791,4 4,4h116.137c2.209,0 4-1.791 4-4v-1.667c0-2.209-1.162-2.898-4-4zm-80.578,.204c-.545,1.533-1.299,2.78-2.261,3.743-.963,.963-2.109,1.667-3.439,2.109s-2.793,.665-4.389,.665c-.836,0-1.653-.045-2.451-.133-.798-.089-1.653-.234-2.565-.437v-22.952c1.064-.228 2.065-.38 3.002-.456 .937-.076 1.811-.114 2.622-.114 1.545,0 2.958,.228 4.237,.684 1.279,.456 2.362,1.172 3.249,2.147 .886,.976 1.577,2.217 2.071,3.724 .494,1.507 .741,3.325 .741,5.453-0,2.178-.273,4.034-.817,5.567zm8.948,.646c.887,1.33 2.191,1.995 3.914,1.995 .278,0 .583-.013 .912-.038 .329-.025 .633-.063 .912-.114v-8.588h4.674v11.742c-.558,.203-1.425,.431-2.603,.684-1.178,.253-2.603,.38-4.275,.38-1.47,0-2.793-.26-3.971-.779-1.178-.519-2.185-1.292-3.021-2.318s-1.482-2.305-1.938-3.838c-.456-1.533-.684-3.312-.684-5.339 0-2.001 .266-3.768 .798-5.301 .532-1.532 1.254-2.818 2.166-3.857 .912-1.039 1.988-1.817 3.23-2.337 1.241-.519 2.571-.779 3.99-.779 .912,0 1.729,.07 2.451,.209 .722,.14 1.349,.298 1.881,.475 .532,.178 .969,.368 1.311,.57s.602,.355 .779,.456l-1.216,3.724c-.558-.354-1.242-.671-2.052-.95-.811-.279-1.647-.418-2.508-.418-1.115,0-2.052,.203-2.812,.608-.76,.405-1.387,.969-1.881,1.691s-.849,1.583-1.064,2.584c-.216,1.001-.323,2.109-.323,3.325 0,2.812 .443,4.883 1.33,6.213z"/>
<path d="m98.499,281.445c.667,0 1.333,0 2,0 1.908,0 3.5-1.592 3.5-3.5s-1.592-3.5-3.5-3.5c-.667,0-1.333,0-2,0-1.908,0-3.5,1.592-3.5,3.5s1.592,3.5 3.5,3.5z"/>
<path d="m73.833,287.445c5.333,0 10.667,0 16,0 4.514,0 4.514-7 0-7-5.333,0-10.667,0-16,0-4.514,0-4.514,7 0,7z"/>
<path d="m85.833,276.445c5.083,0 10.167,0 15.25,0 4.514,0 4.514-7 0-7-5.083,0-10.167,0-15.25,0-4.515,0-4.515,7 0,7z"/>
<path d="m94.416,291.834c2,0 4,0 6,0 1.908,0 3.5-1.592 3.5-3.5s-1.592-3.5-3.5-3.5c-2,0-4,0-6,0-1.908,0-3.5,1.592-3.5,3.5s1.592,3.5 3.5,3.5z"/>
<path d="m88.083,260.612c-3,0-6,0-9,0-4.514,0-4.514,7 0,7 3,0 6,0 9,0 4.514,0 4.514-7 0-7z"/>
<path d="m101.083,244.612c-5.333,0-10.667,0-16,0-4.514,0-4.514,7 0,7 5.333,0 10.667,0 16,0 4.514,0 4.514-7 0-7z"/>
<path d="m100.416,249.612c-2,0-4,0-6,0-1.908,0-3.5,1.592-3.5,3.5s1.592,3.5 3.5,3.5c2,0 4,0 6,0 1.908,0 3.5-1.592 3.5-3.5s-1.592-3.5-3.5-3.5z"/>
<path d="m80.708,245.945c-1.083,0-2.167,0-3.25,0-1.908,0-3.5,1.592-3.5,3.5s1.592,3.5 3.5,3.5c1.083,0 2.167,0 3.25,0 1.908,0 3.5-1.592 3.5-3.5s-1.593-3.5-3.5-3.5z"/>
<path d="m98.25,267.612c.667,0 1.333,0 2,0 1.908,0 3.5-1.592 3.5-3.5s-1.592-3.5-3.5-3.5c-.667,0-1.333,0-2,0-1.908,0-3.5,1.592-3.5,3.5s1.592,3.5 3.5,3.5z"/>
<path d="m77.583,284.834c-.667,0-1.333,0-2,0-1.908,0-3.5,1.592-3.5,3.5s1.592,3.5 3.5,3.5c.667,0 1.333,0 2,0 1.908,0 3.5-1.592 3.5-3.5s-1.592-3.5-3.5-3.5z"/>
<path d="m71.667,245.25c10.778,0 21.555,0 32.333,0 1.935,0 1.935-3 0-3-10.778,0-21.555,0-32.333,0-1.935,0-1.935,3 0,3z"/>
<path d="m79.832,252.167c-2,0-4,0-6,0-1.908,0-3.5,1.592-3.5,3.5s1.592,3.5 3.5,3.5c2,0 4,0 6,0 1.908,0 3.5-1.592 3.5-3.5s-1.593-3.5-3.5-3.5z"/>
<path d="m78.832,271.445c-1.833,0-3.667,0-5.5,0-1.908,0-3.5,1.592-3.5,3.5s1.592,3.5 3.5,3.5c1.833,0 3.667,0 5.5,0 1.908,0 3.5-1.592 3.5-3.5s-1.593-3.5-3.5-3.5z"/>
<path d="m258.334,245.25c10.61,0 21.222,0 31.832,0 1.935,0 1.935-3 0-3-10.61,0-21.222,0-31.832,0-1.935,0-1.935,3 0,3z"/>
<path d="m279.25,276.445c3,0 6,0 9,0 4.514,0 4.514-7 0-7-3,0-6,0-9,0-4.514,0-4.514,7 0,7z"/>
<path d="m260.583,291.682c5.333,0 10.667,0 16,0 4.514,0 4.514-7 0-7-5.333,0-10.667,0-16,0-4.514,0-4.514,7 0,7z"/>
<path d="m260.917,280.445c2,0 4,0 6,0 1.908,0 3.5-1.592 3.5-3.5s-1.592-3.5-3.5-3.5c-2,0-4,0-6,0-1.908,0-3.5,1.592-3.5,3.5s1.592,3.5 3.5,3.5z"/>
<path d="m274.25,287.445c.667,0 1.333,0 2,0 1.908,0 3.5-1.592 3.5-3.5s-1.592-3.5-3.5-3.5c-.667,0-1.333,0-2,0-1.908,0-3.5,1.592-3.5,3.5s1.592,3.5 3.5,3.5z"/>
<path d="m268.417,264.445c-2,0-4,0-6,0-1.908,0-3.5,1.592-3.5,3.5s1.592,3.5 3.5,3.5c2,0 4,0 6,0 1.908,0 3.5-1.592 3.5-3.5s-1.592-3.5-3.5-3.5z"/>
<path d="m262.834,249.612c-.667,0-1.333,0-2,0-1.908,0-3.5,1.592-3.5,3.5s1.592,3.5 3.5,3.5c.667,0 1.333,0 2,0 1.908,0 3.5-1.592 3.5-3.5s-1.592-3.5-3.5-3.5z"/>
<path d="m286.5,252.612c-5.333,0-10.667,0-16,0-4.514,0-4.514,7 0,7 5.333,0 10.667,0 16,0 4.514,0 4.514-7 0-7z"/>
<path d="m277.5,260.612c-5.083,0-10.167,0-15.25,0-4.514,0-4.514,7 0,7 5.083,0 10.167,0 15.25,0 4.514,0 4.514-7 0-7z"/>
<path d="m283.834,247.612c-2,0-4,0-6,0-1.908,0-3.5,1.592-3.5,3.5s1.592,3.5 3.5,3.5c2,0 4,0 6,0 1.908,0 3.5-1.592 3.5-3.5s-1.592-3.5-3.5-3.5z"/>
<path d="m266.5,244.612c-2,0-4,0-6,0-1.908,0-3.5,1.592-3.5,3.5s1.592,3.5 3.5,3.5c2,0 4,0 6,0 1.908,0 3.5-1.592 3.5-3.5s-1.592-3.5-3.5-3.5z"/>
<path d="m288.5,278.445c-2,0-4,0-6,0-1.908,0-3.5,1.592-3.5,3.5s1.592,3.5 3.5,3.5c2,0 4,0 6,0 1.908,0 3.5-1.592 3.5-3.5s-1.592-3.5-3.5-3.5z"/>
<path d="m287.834,244.612c-2,0-4,0-6,0-1.908,0-3.5,1.592-3.5,3.5s1.592,3.5 3.5,3.5c2,0 4,0 6,0 1.908,0 3.5-1.592 3.5-3.5s-1.592-3.5-3.5-3.5z"/>
<path d="m285.834,291.682c.667,0 1.333,0 2,0 1.908,0 3.5-1.592 3.5-3.5s-1.592-3.5-3.5-3.5c-.667,0-1.333,0-2,0-1.908,0-3.5,1.592-3.5,3.5s1.592,3.5 3.5,3.5z"/>
</g>
</svg>
