<svg xmlns="http://www.w3.org/2000/svg" viewBox="20 20 321 321">
<g fill="#fff">
<path d="m129.119,176.138c-3.929-.198-.306,.283-.306,3.09 0-.408 0-.815 0-1.222 0-1.519 0-3.037 0-4.556 0-3.732 0-7.464 0-11.196 0-.407 0-.814 0-1.222 0,2.807-3.623,3.287 .306,3.089 .148-.007 .299,0 .447,0 1.261,0 2.522,0 3.783,0 12.861,0 25.722,0 38.583,0 15.313,0 30.626,0 45.94,0 4.318,0 8.638,0 12.956,0 .581,0 1.161,0 1.742,0 3.902,0 .303,.072 .303-3.089 0,.408 0,.815 0,1.222 0,1.827 0,3.654 0,5.481 0,3.001 0,6.002 0,9.004 0,.83 0,1.659 0,2.489 0-3.286 3.591-3.089-.416-3.089-2.335,0-4.671,0-7.006,0-11.897,0-23.796,0-35.693,0-20.213-.001-40.426-.001-60.639-.001-6.449,0-6.449,10 0,10 24.343,0 48.686,0 73.029,.001 9.991,0 19.983,0 29.975,0 2.781,0 5.59-.359 8.003-1.816 3.052-1.842 2.747-5.281 2.747-8.325 0-3.645 0-7.289 0-10.934 0-2.832 .477-6.134-1.735-8.345-3.1-3.1-8.286-2.598-12.382-2.598-5.144,0-10.288,0-15.433,0-15.738,0-31.477,0-47.215,0-11.651,0-23.302,0-34.953,0-4.721,0-12.342,.418-12.342,6.722 0,6.027 0,12.054 0,18.081 0,5.746 5.631,6.979 10.306,7.214 6.448,.324 6.417-9.677 0-10z"/>
<path d="m256.825,179.324c-26.765,35.018-53.529,70.036-80.294,105.055 2.878,0 5.757,0 8.635,0-26.765-35.019-53.529-70.037-80.293-105.055-1.439,2.508-2.878,5.016-4.317,7.523 49.409,0 98.817,0 148.225,0 4.121,0 8.241,0 12.362,0 6.448,0 6.448-10 0-10-49.408,0-98.817,0-148.226,0-4.121,0-8.241,0-12.362,0-3.435,0-6.707,4.396-4.317,7.523 26.765,35.019 53.529,70.037 80.293,105.055 2.429,3.178 6.206,3.178 8.635,0 26.765-35.018 53.529-70.036 80.294-105.055 3.918-5.124-4.775-10.096-8.635-5.046z"/>
<path d="m129.119,133.234c-3.929-.198-.306,.283-.306,3.09 0-.408 0-.815 0-1.222 0-1.519 0-3.037 0-4.556 0-3.732 0-7.465 0-11.197 0-.407 0-.814 0-1.222 0,2.807-3.623,3.289 .306,3.091 .148-.007 .299,0 .447,0 1.261,0 2.522,0 3.783,0 12.861,0 25.722,0 38.583,0 15.313,0 30.626,0 45.94,0 4.318,0 8.638,0 12.956,0 .581,0 1.161,0 1.742,0 3.902,0 .303,.072 .303-3.09 0,.408 0,.815 0,1.222 0,1.827 0,3.654 0,5.481 0,3.001 0,6.003 0,9.004 0,.83 0,1.659 0,2.489 0-3.286 3.591-3.09-.416-3.09-2.335,0-4.671,0-7.006,0-11.897,0-23.796,0-35.693,0-20.213,0-40.426,0-60.639,0-6.449,0-6.449,10 0,10 24.343,0 48.686,0 73.029,0 9.991,0 19.983,0 29.975,0 2.782,0 5.59-.359 8.003-1.815 3.052-1.842 2.747-5.281 2.747-8.325 0-3.645 0-7.29 0-10.934 0-2.833 .477-6.134-1.735-8.345-3.099-3.1-8.287-2.597-12.382-2.597-5.144,0-10.288,0-15.433,0-15.738,0-31.477,0-47.215,0-11.651,0-23.302,0-34.953,0-4.72,0-12.342,.417-12.342,6.72 0,6.027 0,12.054 0,18.081 0,5.745 5.631,6.979 10.306,7.214 6.448,.327 6.417-9.675 0-9.999z"/>
<path d="m129.124,91.51c-3.928-.198-.305,.282-.305,3.088 0-.407 0-.814 0-1.222 0-1.519 0-3.037 0-4.556 0-3.732 0-7.464 0-11.196 0-.407 0-.814 0-1.222 0,2.806-3.623,3.288 .305,3.09 .148-.007 .299,0 .447,0 1.261,0 2.522,0 3.783,0 12.861,0 25.722,0 38.583-.001 15.313,0 30.626,0 45.939,0 4.319,0 8.638,0 12.956,0 .581,0 1.161,0 1.742,0 3.904,0 .305,.072 .305-3.088 0,.407 0,.814 0,1.222 0,1.827 0,3.654 0,5.481 0,3.001 0,6.002 0,9.003 0,.83 0,1.659 0,2.489 0-3.285 3.591-3.088-.418-3.088-2.335,0-4.671,0-7.006,0-11.897,0-23.796,0-35.693,0-20.213-0-40.426-0-60.638-0-6.449,0-6.449,10 0,10 24.343,0 48.686,0 73.028,0 9.991,0 19.983,0 29.975,0 2.782,0 5.592-.357 8.005-1.816 3.051-1.843 2.747-5.281 2.747-8.326 0-3.645 0-7.289 0-10.933 0-2.833 .477-6.134-1.735-8.346-3.1-3.1-8.288-2.597-12.384-2.597-5.144,0-10.288,0-15.433,0-15.738,0-31.477,0-47.215,.001-11.651,0-23.302,0-34.953,0-4.72,0-12.341,.418-12.341,6.721 0,6.026 0,12.053 0,18.08 0,5.745 5.63,6.98 10.305,7.216 6.449,.325 6.418-9.677 .001-10z"/>
</g>
</svg>
