<svg xmlns="http://www.w3.org/2000/svg" viewBox="20 20 321 321">
<g fill="#fff">
<path d="m177.923,79.901c27.878,21.144 55.756,42.288 83.635,63.431 .841-3.106 1.683-6.211 2.523-9.317-27.814,0-55.63,0-83.444,0-6.449,0-6.449,10 0,10 27.814,0 55.63,0 83.444,0 5.402,0 6.252-6.489 2.523-9.317-27.878-21.144-55.757-42.288-83.635-63.431-5.14-3.9-10.113,4.791-5.046,8.634z"/>
<path d="m266.455,134.697c-27.741-21.144-55.482-42.287-83.224-63.431-1.254-.956-3.794-.956-5.047,0-27.741,21.144-55.482,42.287-83.223,63.431-3.717,2.833-2.888,9.317 2.523,9.317 49.712,0 99.425,0 149.137,0 5.771,0 11.54,0 17.311,0 6.448,0 6.448-10 0-10-49.712,0-99.424,0-149.137,0-5.77,0-11.541,0-17.311,0 .841,3.106 1.683,6.211 2.523,9.317 27.741-21.144 55.482-42.287 83.224-63.431-1.683,0-3.365,0-5.047,0 27.742,21.144 55.483,42.287 83.224,63.431 5.131,3.912 10.104-4.78 5.047-8.634z"/>
<path d="m244.523,281.64c.119-.612 2.896-.431 .289-.431-1.465,0-2.931,0-4.396,0-5.081,0-10.163,0-15.244,0-15.325,0-30.651,0-45.977,0-15.068,0-30.137,0-45.206,0-4.76,0-9.52,0-14.279,0-1.186,0-2.373,0-3.559,0-2.265,0 .889,.406 .889,1.611 0-46.66 0-93.319 0-139.979 0-1.733-2.492,1.174-1.618,1.174 .944,0 1.889,0 2.833,0 4.307,0 8.615,0 12.922,0 14.678,0 29.355,0 44.033,0 23.613,0 47.228,0 70.841,0-.56,0-1.707-2.943-1.707-1.021 0,1.164 0,2.328 0,3.492 0,4.483 0,8.967 0,13.45 0,14.579 0,29.157 0,43.736 0,25.761 0,51.521 0,77.282 0,.671 0,1.343 0,2.014 0,6.448 10,6.448 10,0 0-46.471 0-92.941 0-139.413 0-9.78-8.202-9.541-15.322-9.541-12.724,0-25.447,0-38.171,0-27.419,0-54.837,0-82.256,0-3.674,0-7.627-.144-9.954,3.425-1.817,2.788-1.6,5.566-1.6,8.683 0,10.969 0,21.938 0,32.908 0,30.061 0,60.123 0,90.184 0,6.925-2.398,19.894 6.804,21.814 2.144,.447 4.523,.179 6.69,.179 4.976,0 9.951,0 14.927,0 30.401,0 60.802,0 91.203,0 5.256,0 10.513,0 15.77,0 5.179,0 10.496-.577 11.731-6.911 1.23-6.297-8.408-8.983-9.643-2.656z"/>
<path d="m119.521,189.112 122.469,0"/>
<path d="m119.521,190.612c40.823,0 81.646,0 122.47,0 1.935,0 1.935-3 0-3-40.823,0-81.646,0-122.47,0-1.935,0-1.935,3 0,3z"/>
<path d="m119.521,235.75 122.469,0"/>
<path d="m119.521,237.25c40.823,0 81.646,0 122.47,0 1.935,0 1.935-3 0-3-40.823,0-81.646,0-122.47,0-1.935,0-1.935,3 0,3z"/>
<path d="m174.106,160.282c-.28-.773-.674-1.386-1.18-1.84-.507-.453-1.187-.68-2.04-.68-.854,0-1.534,.227-2.04,.68-.507,.454-.9,1.074-1.18,1.86-.28,.787-.467,1.7-.56,2.74-.094,1.04-.14,2.16-.14,3.36 0,1.2 .046,2.327 .14,3.38 .093,1.054 .28,1.967 .56,2.74 .28,.773 .673,1.387 1.18,1.84 .506,.454 1.187,.68 2.04,.68 .826,0 1.5-.227 2.02-.68 .52-.453 .92-1.073 1.2-1.86 .28-.787 .466-1.7 .56-2.74 .093-1.04 .14-2.16 .14-3.36 0-1.2-.047-2.326-.14-3.38-.094-1.053-.28-1.966-.56-2.74z"/>
<path d="m238.393,145.667h-115.043c-2.179,0-3.945,1.825-3.945,4.076v32.27c0,2.25 1.766,4.076 3.945,4.076h115.043c2.178,0 3.944-1.826 3.944-4.076v-32.27c0-2.251-1.767-4.076-3.944-4.076zm-60.907,30.395c-1.547,2.174-3.734,3.26-6.56,3.26-2.907,0-5.127-1.086-6.66-3.26-1.534-2.173-2.3-5.393-2.3-9.66 0-4.266 .786-7.486 2.36-9.66 1.573-2.173 3.76-3.26 6.56-3.26 2.906,0 5.12,1.087 6.64,3.26 1.52,2.174 2.28,5.394 2.28,9.66 0,4.266-.774,7.487-2.32,9.66zm10.879-3.12c.934,1.4 2.307,2.1 4.121,2.1 .293,0 .612-.013 .959-.04 .347-.026 .666-.066 .961-.12v-9.04h4.92v12.36c-.588,.214-1.5,.454-2.74,.72-1.24,.266-2.74,.4-4.5,.4-1.547,0-2.94-.274-4.18-.82-1.24-.546-2.301-1.36-3.181-2.44-.88-1.08-1.56-2.426-2.04-4.04-.48-1.613-.72-3.486-.72-5.62 0-2.106 .28-3.966 .84-5.58 .56-1.613 1.32-2.966 2.28-4.06 .96-1.093 2.093-1.913 3.4-2.46 1.306-.546 2.705-.82 4.199-.82 .96,0 1.82,.074 2.58,.22 .76,.147 1.42,.314 1.98,.5 .56,.187 1.02,.387 1.38,.6 .36,.214 .633,.374 .819,.48l-1.279,3.92c-.587-.373-1.307-.706-2.16-1-.854-.293-1.734-.44-2.641-.44-1.174,0-2.16,.214-2.959,.64-.801,.427-1.461,1.02-1.98,1.78-.52,.76-.894,1.667-1.12,2.72-.227,1.054-.34,2.22-.34,3.5 .002,2.96 .468,5.14 1.401,6.54z"/>
<path d="m258.334,237.25c10.61,0 21.222,0 31.832,0 1.935,0 1.935-3 0-3-10.61,0-21.222,0-31.832,0-1.935,0-1.935,3 0,3z"/>
<path d="m72.167,237.25c10.611,0 21.222,0 31.833,0 1.935,0 1.935-3 0-3-10.611,0-21.222,0-31.833,0-1.935,0-1.935,3 0,3z"/>
</g>
</svg>
