<svg xmlns="http://www.w3.org/2000/svg" viewBox="20 20 321 321">
<path fill="none" stroke="#fff" stroke-width="10" d="m136.761,149.604c-2.071-2.071-4.273-3.225-4.919-2.58l-20.287,20.287c-.646,.646 .508,2.849 2.579,4.92l73.112,73.112c2.07,2.07 4.272,3.225 4.919,2.578l20.287-20.287c.646-.646-.508-2.848-2.578-4.918l-73.113-73.112z"/>
<path fill="#fff" d="m235.266,241.92c5.833-43.664 11.667-87.329 17.5-130.994 .329-2.463-2.537-5.329-5-5-43.664,5.833-87.329,11.667-130.993,17.5-4.077,.545-6.935,5.137-3.536,8.536 34.919,34.919 69.838,69.837 104.756,104.756 2.912,2.912 5.825,5.824 8.737,8.736 4.563,4.564 11.635-2.507 7.07-7.07-34.918-34.919-69.837-69.838-104.756-104.757-2.912-2.912-5.824-5.825-8.736-8.737-1.179,2.845-2.357,5.69-3.536,8.536 43.664-5.833 87.329-11.667 130.993-17.5-1.667-1.667-3.333-3.333-5-5-5.833,43.665-11.667,87.33-17.5,130.994-.851,6.377 9.16,6.295 10.001,0z"/>
</svg>
