<svg xmlns="http://www.w3.org/2000/svg" viewBox="20 20 321 321">
<g fill="#fff">
<path d="m259.237,250.592c10.407,0 20.813,0 31.221,0 1.935,0 1.935-3 0-3-10.407,0-20.813,0-31.221,0-1.934,0-1.934,3 0,3z"/>
<path d="m283.391,281.786c1.531,0 3.063,0 4.595,0 1.908,0 3.5-1.592 3.5-3.5s-1.592-3.5-3.5-3.5c-1.531,0-3.063,0-4.595,0-1.908,0-3.5,1.592-3.5,3.5s1.591,3.5 3.5,3.5z"/>
<path d="m256.666,291.786c5.333,0 10.667,0 16,0 4.514,0 4.514-7 0-7-5.333,0-10.667,0-16,0-4.514,0-4.514,7 0,7z"/>
<path d="m268.25,285.786c2,0 4,0 6,0 1.908,0 3.5-1.592 3.5-3.5s-1.592-3.5-3.5-3.5c-2,0-4,0-6,0-1.908,0-3.5,1.592-3.5,3.5s1.592,3.5 3.5,3.5z"/>
<path d="m286.584,291.786c.667,0 1.333,0 2,0 1.908,0 3.5-1.592 3.5-3.5s-1.592-3.5-3.5-3.5c-.667,0-1.333,0-2,0-1.908,0-3.5,1.592-3.5,3.5s1.592,3.5 3.5,3.5z"/>
<path d="m267.666,271.474c-2,0-4,0-6,0-1.908,0-3.5,1.592-3.5,3.5s1.592,3.5 3.5,3.5c2,0 4,0 6,0 1.908,0 3.5-1.592 3.5-3.5s-1.592-3.5-3.5-3.5z"/>
<path d="m265.666,257.453c-.667,0-1.333,0-2,0-1.908,0-3.5,1.592-3.5,3.5s1.592,3.5 3.5,3.5c.667,0 1.333,0 2,0 1.908,0 3.5-1.592 3.5-3.5s-1.592-3.5-3.5-3.5z"/>
<path d="m288.834,257.953c-5.333,0-10.667,0-16,0-4.514,0-4.514,7 0,7 5.333,0 10.667,0 16,0 4.514,0 4.514-7 0-7z"/>
<path d="m284.834,265.953c-5.083,0-10.167,0-15.25,0-4.514,0-4.514,7 0,7 5.083,0 10.167,0 15.25,0 4.514,0 4.514-7 0-7z"/>
<path d="m288.168,251.953c-2,0-4,0-6,0-1.908,0-3.5,1.592-3.5,3.5s1.592,3.5 3.5,3.5c2,0 4,0 6,0 1.908,0 3.5-1.592 3.5-3.5s-1.592-3.5-3.5-3.5z"/>
<path d="m273.834,249.953c-2,0-4,0-6,0-1.908,0-3.5,1.592-3.5,3.5s1.592,3.5 3.5,3.5c2,0 4,0 6,0 1.908,0 3.5-1.592 3.5-3.5s-1.592-3.5-3.5-3.5z"/>
<path d="m256.104,263.89c-2,0-4,0-6,0-1.908,0-3.5,1.592-3.5,3.5s1.592,3.5 3.5,3.5c2,0 4,0 6,0 1.908,0 3.5-1.592 3.5-3.5s-1.592-3.5-3.5-3.5z"/>
<path d="m287.833,269.953c-.222,0-.443,0-.665,0-1.908,0-3.5,1.592-3.5,3.5s1.592,3.5 3.5,3.5c.222,0 .443,0 .665,0 1.908,0 3.5-1.592 3.5-3.5s-1.592-3.5-3.5-3.5z"/>
<path d="m73.75,282.89c2.337,0 4.673,0 7.01,0 4.514,0 4.514-7 0-7-2.337,0-4.673,0-7.01,0-4.515,0-4.515,7 0,7z"/>
<path d="m100.271,279.89c2.581,0 5.161,0 7.741,0 4.514,0 4.514-7 0-7-2.581,0-5.161,0-7.741,0-4.515,0-4.515,7 0,7z"/>
<path d="m96.834,268.89c5.083,0 10.167,0 15.25,0 4.514,0 4.514-7 0-7-5.083,0-10.167,0-15.25,0-4.514,0-4.514,7 0,7z"/>
<path d="m122.069,291.786c2,0 4,0 6,0 1.908,0 3.5-1.592 3.5-3.5s-1.592-3.5-3.5-3.5c-2,0-4,0-6,0-1.908,0-3.5,1.592-3.5,3.5s1.592,3.5 3.5,3.5z"/>
<path d="m246.238,284.277c-3,0-6.001,0-9.001,0-4.514,0-4.514,7 0,7 3,0 6.001,0 9.001,0 4.514,0 4.514-7 0-7z"/>
<path d="m259.237,268.277c-5.333,0-10.667,0-16,0-4.514,0-4.514,7 0,7 5.333,0 10.667,0 16,0 4.514,0 4.514-7 0-7z"/>
<path d="m79.874,251.578c-2,0-4,0-6,0-1.908,0-3.5,1.592-3.5,3.5s1.592,3.5 3.5,3.5c2,0 4,0 6,0 1.908,0 3.5-1.592 3.5-3.5s-1.592-3.5-3.5-3.5z"/>
<path d="m240.487,260.536c-1.083,0-2.167,0-3.25,0-1.908,0-3.5,1.592-3.5,3.5s1.592,3.5 3.5,3.5c1.083,0 2.167,0 3.25,0 1.908,0 3.5-1.592 3.5-3.5s-1.591-3.5-3.5-3.5z"/>
<path d="m76.583,272.953c.667,0 1.333,0 2,0 1.908,0 3.5-1.592 3.5-3.5s-1.592-3.5-3.5-3.5c-.667,0-1.333,0-2,0-1.908,0-3.5,1.592-3.5,3.5s1.592,3.5 3.5,3.5z"/>
<path d="m93.584,276.277c-.667,0-1.333,0-2,0-1.908,0-3.5,1.592-3.5,3.5s1.592,3.5 3.5,3.5c.667,0 1.333,0 2,0 1.908,0 3.5-1.592 3.5-3.5s-1.592-3.5-3.5-3.5z"/>
<path d="m71.416,250.592c9.889,0 19.778,0 29.667,0 1.935,0 1.935-3 0-3-9.889,0-19.778,0-29.667,0-1.935,0-1.935,3 0,3z"/>
<path d="m196.164,284.786c-2,0-4,0-6,0-1.908,0-3.5,1.592-3.5,3.5s1.592,3.5 3.5,3.5c2,0 4,0 6,0 1.908,0 3.5-1.592 3.5-3.5s-1.592-3.5-3.5-3.5z"/>
<path d="m87.833,263.89c-1.833,0-3.667,0-5.5,0-1.908,0-3.5,1.592-3.5,3.5s1.592,3.5 3.5,3.5c1.833,0 3.667,0 5.5,0 1.908,0 3.5-1.592 3.5-3.5s-1.592-3.5-3.5-3.5z"/>
<path d="m172.5,266.953c3,0 6,0 9,0 4.514,0 4.514-7 0-7-3,0-6,0-9,0-4.514,0-4.514,7 0,7z"/>
<path d="m205.916,291.82c5.333,0 10.667,0 16,0 4.514,0 4.514-7 0-7-5.333,0-10.667,0-16,0-4.514,0-4.514,7 0,7z"/>
<path d="m221.375,277.729c2,0 4,0 6,0 1.908,0 3.5-1.592 3.5-3.5s-1.592-3.5-3.5-3.5c-2,0-4,0-6,0-1.908,0-3.5,1.592-3.5,3.5s1.592,3.5 3.5,3.5z"/>
<path d="m215.209,288.035c.667,0 1.333,0 2,0 1.908,0 3.5-1.592 3.5-3.5s-1.592-3.5-3.5-3.5c-.667,0-1.333,0-2,0-1.908,0-3.5,1.592-3.5,3.5s1.592,3.5 3.5,3.5z"/>
<path d="m213.75,264.584c-2,0-4,0-6,0-1.908,0-3.5,1.592-3.5,3.5s1.592,3.5 3.5,3.5c2,0 4,0 6,0 1.908,0 3.5-1.592 3.5-3.5s-1.592-3.5-3.5-3.5z"/>
<path d="m222.834,260.751c-5.083,0-10.167,0-15.25,0-4.514,0-4.514,7 0,7 5.083,0 10.167,0 15.25,0 4.514,0 4.514-7 0-7z"/>
<path d="m233.834,278.584c-2,0-4,0-6,0-1.908,0-3.5,1.592-3.5,3.5s1.592,3.5 3.5,3.5c2,0 4,0 6,0 1.908,0 3.5-1.592 3.5-3.5s-1.592-3.5-3.5-3.5z"/>
<path d="m135.882,271.917c-3,0-6,0-9,0-4.514,0-4.514,7 0,7 3,0 6,0 9,0 4.514,0 4.514-7 0-7z"/>
<path d="m152.736,260.549c-5.333,0-10.667,0-16,0-4.514,0-4.514,7 0,7 5.333,0 10.667,0 16,0 4.514,0 4.514-7 0-7z"/>
<path d="m152.402,271.786c-2,0-4,0-6,0-1.908,0-3.5,1.592-3.5,3.5s1.592,3.5 3.5,3.5c2,0 4,0 6,0 1.908,0 3.5-1.592 3.5-3.5s-1.592-3.5-3.5-3.5z"/>
<path d="m139.069,265.786c-.667,0-1.333,0-2,0-1.908,0-3.5,1.592-3.5,3.5s1.592,3.5 3.5,3.5c.667,0 1.333,0 2,0 1.908,0 3.5-1.592 3.5-3.5s-1.592-3.5-3.5-3.5z"/>
<path d="m144.902,291.786c2,0 4,0 6,0 1.908,0 3.5-1.592 3.5-3.5s-1.592-3.5-3.5-3.5c-2,0-4,0-6,0-1.908,0-3.5,1.592-3.5,3.5s1.593,3.5 3.5,3.5z"/>
<path d="m85.819,291.619c5.083,0 10.167,0 15.25,0 4.514,0 4.514-7 0-7-5.083,0-10.167,0-15.25,0-4.514,0-4.514,7 0,7z"/>
<path d="m124.569,271.786c2,0 4,0 6,0 1.908,0 3.5-1.592 3.5-3.5s-1.592-3.5-3.5-3.5c-2,0-4,0-6,0-1.908,0-3.5,1.592-3.5,3.5s1.593,3.5 3.5,3.5z"/>
<path d="m178.251,276.584c3,0 6.001,0 9.001,0 4.514,0 4.514-7 0-7-3,0-6.001,0-9.001,0-4.514,0-4.514,7 0,7z"/>
<path d="m159.584,291.82c5.333,0 10.667,0 16,0 4.514,0 4.514-7 0-7-5.333,0-10.667,0-16,0-4.514,0-4.514,7 0,7z"/>
<path d="m154.902,283.786c2,0 4,0 6,0 1.908,0 3.5-1.592 3.5-3.5s-1.592-3.5-3.5-3.5c-2,0-4,0-6,0-1.908,0-3.5,1.592-3.5,3.5s1.593,3.5 3.5,3.5z"/>
<path d="m173.251,287.584c.667,0 1.333,0 2,0 1.908,0 3.5-1.592 3.5-3.5s-1.592-3.5-3.5-3.5c-.667,0-1.333,0-2,0-1.908,0-3.5,1.592-3.5,3.5s1.593,3.5 3.5,3.5z"/>
<path d="m167.584,264.584c-3.722,0-7.444,0-11.166,0-4.514,0-4.514,7 0,7 3.722,0 7.444,0 11.166,0 4.514,0 4.514-7 0-7z"/>
<path d="m210.666,267.786c-3.902,0-7.806,0-11.708,0-4.514,0-4.514,7 0,7 3.902,0 7.806,0 11.708,0 4.514,0 4.514-7 0-7z"/>
<path d="m192.001,278.584c-2,0-4,0-6,0-1.908,0-3.5,1.592-3.5,3.5s1.592,3.5 3.5,3.5c2,0 4,0 6,0 1.908,0 3.5-1.592 3.5-3.5s-1.592-3.5-3.5-3.5z"/>
<path d="m146.902,279.786c5.333,0 10.667,0 16,0 4.514,0 4.514-7 0-7-5.333,0-10.667,0-16,0-4.514,0-4.514,7 0,7z"/>
<path d="m118.012,275.203c-3,0-6,0-9,0-4.514,0-4.514,7 0,7 3,0 6,0 9,0 4.514,0 4.514-7 0-7z"/>
<path d="m123.636,260.536c-1.083,0-2.167,0-3.25,0-1.908,0-3.5,1.592-3.5,3.5s1.592,3.5 3.5,3.5c1.083,0 2.167,0 3.25,0 1.908,0 3.5-1.592 3.5-3.5s-1.592-3.5-3.5-3.5z"/>
<path d="m99.584,265.167c-2,0-4,0-6,0-1.908,0-3.5,1.592-3.5,3.5s1.592,3.5 3.5,3.5c2,0 4,0 6,0 1.908,0 3.5-1.592 3.5-3.5s-1.592-3.5-3.5-3.5z"/>
<path d="m87.26,281.035c-1.833,0-3.667,0-5.5,0-1.908,0-3.5,1.592-3.5,3.5s1.592,3.5 3.5,3.5c1.833,0 3.667,0 5.5,0 1.908,0 3.5-1.592 3.5-3.5s-1.592-3.5-3.5-3.5z"/>
<path d="m189.416,270.89c5.083,0 10.167,0 15.25,0 4.514,0 4.514-7 0-7-5.083,0-10.167,0-15.25,0-4.514,0-4.514,7 0,7z"/>
<path d="m143.083,281.917c-.667,0-1.333,0-2,0-1.908,0-3.5,1.592-3.5,3.5s1.592,3.5 3.5,3.5c.667,0 1.333,0 2,0 1.908,0 3.5-1.592 3.5-3.5s-1.592-3.5-3.5-3.5z"/>
<path d="m146.833,271.723c-.667,0-1.333,0-2,0-1.908,0-3.5,1.592-3.5,3.5s1.592,3.5 3.5,3.5c.667,0 1.333,0 2,0 1.908,0 3.5-1.592 3.5-3.5s-1.592-3.5-3.5-3.5z"/>
<path d="m105.261,291.619c1.833,0 3.667,0 5.5,0 1.908,0 3.5-1.592 3.5-3.5s-1.592-3.5-3.5-3.5c-1.833,0-3.667,0-5.5,0-1.908,0-3.5,1.592-3.5,3.5s1.593,3.5 3.5,3.5z"/>
<path d="m73.332,290.667c.667,0 1.333,0 2,0 1.908,0 3.5-1.592 3.5-3.5s-1.592-3.5-3.5-3.5c-.667,0-1.333,0-2,0-1.908,0-3.5,1.592-3.5,3.5s1.592,3.5 3.5,3.5z"/>
<path d="m92.583,281.953c.667,0 1.333,0 2,0 1.908,0 3.5-1.592 3.5-3.5s-1.592-3.5-3.5-3.5c-.667,0-1.333,0-2,0-1.908,0-3.5,1.592-3.5,3.5s1.592,3.5 3.5,3.5z"/>
<path d="m103.833,272.89c-1.833,0-3.667,0-5.5,0-1.908,0-3.5,1.592-3.5,3.5s1.592,3.5 3.5,3.5c1.833,0 3.667,0 5.5,0 1.908,0 3.5-1.592 3.5-3.5s-1.592-3.5-3.5-3.5z"/>
<path d="m250.834,283.292c.667,0 1.333,0 2,0 1.908,0 3.5-1.592 3.5-3.5s-1.592-3.5-3.5-3.5c-.667,0-1.333,0-2,0-1.908,0-3.5,1.592-3.5,3.5s1.592,3.5 3.5,3.5z"/>
<path d="m211.5,272.89c-3.722,0-7.444,0-11.166,0-4.514,0-4.514,7 0,7 3.722,0 7.444,0 11.166,0 4.514,0 4.514-7 0-7z"/>
<path d="m83.166,259.953c-3.278,0-6.556,0-9.833,0-4.514,0-4.514,7 0,7 3.278,0 6.556,0 9.833,0 4.514,0 4.514-7 0-7z"/>
<path d="m140.46,280.584c-3.722,0-7.444,0-11.166,0-4.514,0-4.514,7 0,7 3.722,0 7.444,0 11.166,0 4.515,0 4.515-7 0-7z"/>
<path d="m177.973,78.96c27.878,21.144 55.757,42.288 83.636,63.431 .841-3.106 1.683-6.211 2.523-9.317-27.815,0-55.63,0-83.445,0-6.449,0-6.449,10 0,10 27.815,0 55.63,0 83.445,0 5.402,0 6.252-6.489 2.523-9.317-27.879-21.144-55.758-42.288-83.636-63.431-5.141-3.9-10.113,4.791-5.046,8.634z"/>
<path d="m266.504,133.756c-27.741-21.144-55.482-42.287-83.223-63.431-1.254-.956-3.794-.956-5.047,0-27.741,21.144-55.482,42.287-83.223,63.431-3.717,2.833-2.888,9.317 2.523,9.317 49.712,0 99.424,0 149.136,0 5.771,0 11.54,0 17.311,0 6.448,0 6.448-10 0-10-49.712,0-99.424,0-149.136,0-5.771,0-11.541,0-17.311,0 .841,3.106 1.683,6.211 2.523,9.317 27.741-21.144 55.482-42.287 83.224-63.431-1.683,0-3.365,0-5.047,0 27.741,21.144 55.482,42.287 83.223,63.431 5.131,3.912 10.104-4.78 5.047-8.634z"/>
<path d="m244.573,247.7c.119-.612 2.896-.431 .289-.431-1.465,0-2.931,0-4.396,0-5.082,0-10.163,0-15.244,0-15.325,0-30.651,0-45.977,0-15.068,0-30.137,0-45.206,0-4.76,0-9.52,0-14.279,0-1.186,0-2.373,0-3.559,0-2.271,0 .889,.691 .889,1.566 0-25.329 0-50.658 0-75.987 0-10.257 0-20.515 0-30.772 0-1.965-2.055,.998-1.618,.998 .944,0 1.889,0 2.833,0 4.307,0 8.615,0 12.922,0 30.298,0 60.597,0 90.895,0 7.993,0 15.986,0 23.979,0-1.115,0-1.707-3.007-1.707-.8 0,1.486 0,2.973 0,4.459 0,5.506 0,11.013 0,16.519 0,28.592 0,57.185 0,85.776 0,6.448 10,6.448 10,0 0-24.153 0-48.307 0-72.46 0-11.19 0-22.38 0-33.57 0-4.965-2.501-9.925-8.223-9.925-2.366,0-4.732,0-7.1,0-28.961,0-57.922,0-86.883,0-11.181,0-22.362,0-33.544,0-3.674,0-7.627-.144-9.954,3.425-1.972,3.026-1.6,6.349-1.6,9.775 0,28.516 0,57.032 0,85.548 0,7.225-2.97,23.227 6.804,25.268 2.144,.448 4.523,.179 6.69,.179 4.976,0 9.951,0 14.927,0 24.291,0 48.582,0 72.873,0 9.722,0 19.442,0 29.164,0 6.288,0 15.047,1.39 16.667-6.911 1.23-6.297-8.407-8.983-9.642-2.657z"/>
<path d="m119.57,195.172 122.47,0"/>
<path d="m119.57,196.672c40.823,0 81.646,0 122.47,0 1.935,0 1.935-3 0-3-40.823,0-81.646,0-122.47,0-1.934,0-1.934,3 0,3z"/>
<path d="m173.799,108.913c-.4-.773-.947-1.393-1.64-1.86-.694-.466-1.587-.7-2.68-.7-.214,0-.454,.007-.72,.02-.267,.014-.507,.047-.72,.1v16.64c.133,.027 .28,.04 .44,.04s.306,0 .44,0c1.12,0 2.06-.213 2.82-.64 .76-.426 1.374-1.013 1.84-1.76 .466-.747 .8-1.633 1-2.66 .2-1.026 .3-2.153 .3-3.38 0-1.066-.08-2.106-.24-3.12-.16-1.013-.44-1.906-.84-2.68z"/>
<path d="m237.064,125.276l-54.125-40.776c-1.248-.939-2.965-.939-4.212,0l-54.125,40.776c-1.202,.906-1.691,2.479-1.213,3.906s1.814,2.39 3.319,2.39h108.25c1.505,0 2.842-.962 3.319-2.39s-.011-3-1.213-3.906zm-58.045-4.703c-.574,1.614-1.367,2.927-2.38,3.94-1.014,1.014-2.22,1.754-3.62,2.22s-2.94,.7-4.62,.7c-.88,0-1.74-.047-2.58-.14-.84-.094-1.74-.247-2.7-.46v-24.16c1.12-.24 2.173-.4 3.16-.48 .986-.08 1.906-.12 2.76-.12 1.626,0 3.113,.24 4.46,.72 1.346,.48 2.486,1.233 3.42,2.26 .933,1.027 1.66,2.334 2.18,3.92 .52,1.587 .78,3.5 .78,5.74 0,2.294-.287,4.247-.86,5.86zm9.42,.68c.933,1.4 2.306,2.1 4.119,2.1 .293,0 .613-.013 .961-.04 .346-.026 .666-.066 .959-.12v-9.04h4.92v12.36c-.586,.214-1.5,.454-2.739,.72-1.24,.266-2.74,.4-4.5,.4-1.547,0-2.94-.274-4.181-.82-1.24-.546-2.299-1.36-3.18-2.44-.88-1.08-1.561-2.426-2.04-4.04-.479-1.613-.72-3.486-.72-5.62 0-2.106 .279-3.966 .84-5.58 .561-1.613 1.32-2.966 2.28-4.06 .96-1.093 2.093-1.913 3.399-2.46 1.307-.546 2.707-.82 4.2-.82 .96,0 1.82,.074 2.58,.22 .761,.147 1.42,.314 1.979,.5 .561,.187 1.021,.387 1.381,.6 .359,.214 .633,.374 .82,.48l-1.281,3.92c-.586-.373-1.307-.706-2.159-1-.854-.293-1.733-.44-2.64-.44-1.174,0-2.16,.214-2.961,.64-.799,.427-1.459,1.02-1.979,1.78-.521,.76-.894,1.667-1.12,2.72-.227,1.054-.34,2.22-.34,3.5 .002,2.96 .469,5.141 1.402,6.54z"/>
<path d="m174.156,162.028c-.28-.773-.674-1.386-1.18-1.84-.507-.453-1.187-.68-2.04-.68-.854,0-1.534,.227-2.04,.68-.507,.454-.9,1.074-1.18,1.86-.28,.787-.467,1.7-.56,2.74-.094,1.04-.14,2.16-.14,3.36 0,1.2 .046,2.327 .14,3.38 .093,1.054 .28,1.967 .56,2.74 .28,.773 .673,1.387 1.18,1.84 .506,.454 1.187,.68 2.04,.68 .826,0 1.5-.227 2.02-.68 .52-.453 .92-1.073 1.2-1.86 .28-.787 .466-1.7 .56-2.74 .093-1.04 .14-2.16 .14-3.36 0-1.2-.047-2.326-.14-3.38-.094-1.053-.28-1.966-.56-2.74z"/>
<path d="m238.441,145.413h-115.042c-2.179,0-3.945,1.825-3.945,4.076v38.269c0,2.251 1.766,4.076 3.945,4.076h115.042c2.18,0 3.945-1.825 3.945-4.076v-38.269c.001-2.251-1.765-4.076-3.945-4.076zm-60.905,32.395c-1.547,2.174-3.734,3.26-6.56,3.26-2.907,0-5.127-1.086-6.66-3.26-1.534-2.173-2.3-5.393-2.3-9.66 0-4.266 .786-7.486 2.36-9.66 1.573-2.173 3.76-3.26 6.56-3.26 2.906,0 5.12,1.087 6.64,3.26 1.52,2.174 2.28,5.394 2.28,9.66-.001,4.267-.774,7.487-2.32,9.66zm10.88-3.12c.933,1.4 2.306,2.1 4.119,2.1 .293,0 .613-.013 .961-.04 .346-.026 .666-.066 .959-.12v-9.04h4.92v12.36c-.586,.214-1.5,.454-2.739,.72-1.24,.266-2.74,.4-4.5,.4-1.547,0-2.94-.274-4.181-.82-1.24-.546-2.299-1.36-3.18-2.44-.88-1.08-1.561-2.426-2.04-4.04-.479-1.613-.72-3.486-.72-5.62 0-2.106 .279-3.966 .84-5.58 .561-1.613 1.32-2.966 2.28-4.06 .96-1.093 2.093-1.913 3.399-2.46 1.307-.546 2.707-.82 4.2-.82 .96,0 1.82,.074 2.58,.22 .761,.147 1.42,.314 1.979,.5 .561,.187 1.021,.387 1.381,.6 .359,.214 .633,.374 .82,.48l-1.281,3.92c-.586-.373-1.307-.706-2.159-1-.854-.293-1.733-.44-2.64-.44-1.174,0-2.16,.214-2.961,.64-.799,.427-1.459,1.02-1.979,1.78-.521,.76-.894,1.667-1.12,2.72-.227,1.054-.34,2.22-.34,3.5 .002,2.96 .468,5.141 1.402,6.54z"/>
<path d="m238.441,198.752h-115.042c-2.179,0-3.945,1.826-3.945,4.076v38.27c0,2.25 1.766,4.076 3.945,4.076h115.042c2.18,0 3.945-1.826 3.945-4.076v-38.27c.001-2.25-1.765-4.076-3.945-4.076zm-59.106,35.456h-15.88v-24.76h15v4.079h-10.08v5.561h8.76v4.08h-8.76v6.96h10.96v4.08zm9.081-5.86c.933,1.4 2.306,2.101 4.119,2.101 .293,0 .613-.013 .961-.04 .346-.026 .666-.066 .959-.12v-9.04h4.92v12.359c-.586,.215-1.5,.454-2.739,.721-1.24,.266-2.74,.4-4.5,.4-1.547,0-2.94-.274-4.181-.82-1.24-.547-2.299-1.36-3.18-2.44-.88-1.079-1.561-2.426-2.04-4.04-.479-1.613-.72-3.486-.72-5.619 0-2.107 .279-3.967 .84-5.58s1.32-2.967 2.28-4.061 2.093-1.913 3.399-2.46c1.307-.546 2.707-.819 4.2-.819 .96,0 1.82,.073 2.58,.219 .761,.147 1.42,.314 1.979,.5 .561,.188 1.021,.388 1.381,.601 .359,.214 .633,.374 .82,.479l-1.281,3.92c-.586-.373-1.307-.705-2.159-1-.854-.293-1.733-.439-2.64-.439-1.174,0-2.16,.214-2.961,.641-.799,.426-1.459,1.02-1.979,1.779s-.894,1.667-1.12,2.721c-.227,1.053-.34,2.219-.34,3.5 .002,2.957 .468,5.137 1.402,6.537z"/>
<path d="m98.499,249.953c-3.278,0-6.556,0-9.833,0-4.514,0-4.514,7 0,7 3.278,0 6.556,0 9.833,0 4.514,0 4.514-7 0-7z"/>
<path d="m95.444,262.834c.667,0 1.333,0 2,0 1.908,0 3.5-1.592 3.5-3.5s-1.592-3.5-3.5-3.5c-.667,0-1.333,0-2,0-1.908,0-3.5,1.592-3.5,3.5s1.592,3.5 3.5,3.5z"/>
<path d="m260.237,254.578c-.667,0-1.333,0-2,0-1.908,0-3.5,1.592-3.5,3.5s1.592,3.5 3.5,3.5c.667,0 1.333,0 2,0 1.908,0 3.5-1.592 3.5-3.5s-1.591-3.5-3.5-3.5z"/>
</g>
</svg>
