<svg xmlns="http://www.w3.org/2000/svg" viewBox="20 20 321 321">
<g fill="none" stroke="#fff" stroke-width="10">
<path d="m184.648,165.393l-88.398-88.4c-2.892-2.892-7.582-2.892-10.473,0l-8.728,8.728c-2.893,2.893-2.893,7.581 0,10.474l84.857,84.857"/>
<path d="m177.594,196.74l87.399,87.399c2.892,2.891 7.581,2.891 10.474,0l8.727-8.729c2.894-2.893 2.894-7.582 0-10.474l-83.877-83.878"/>
<path d="m181.121,200.268l-83.871,83.871c-2.892,2.891-7.581,2.891-10.473,0l-8.728-8.728c-2.893-2.893-2.893-7.582 0-10.474l87.381-87.381"/>
<path d="m181.121,161.865l84.872-84.872c2.892-2.892 7.581-2.892 10.474,0l8.728,8.728c2.893,2.893 2.893,7.581 0,10.474l-88.396,88.396"/>
</g>
</svg>
