<svg xmlns="http://www.w3.org/2000/svg" viewBox="20 20 321 321">
<g fill="#fff">
<path d="m244.523,281.64c.119-.612 2.896-.431 .289-.431-1.465,0-2.931,0-4.396,0-5.081,0-10.163,0-15.244,0-15.325,0-30.651,0-45.977,0-15.068,0-30.137,0-45.206,0-4.76,0-9.52,0-14.279,0-1.186,0-2.373,0-3.559,0-2.261,0 .889,.243 .889,1.638 0-50.77 0-101.539 0-152.309 0-6.875 0-13.751 0-20.626-.826,1.439-1.651,2.878-2.477,4.317 13.553-9.064 27.106-18.128 40.659-27.192-1.284,.168-2.568,.336-3.853,.504 23.649,7.156 47.298,14.312 70.946,21.468 5.637,1.705 11.272,3.411 16.909,5.116 1.472,.445 2.944,.891 4.417,1.336 1.829,.554 .701,.547 .701-1.137 0,6.301 0,12.601 0,18.902 0,49.911 0,99.823 0,149.734 0,.003 0,.005 0,.008 0,6.448 10,6.448 10,0 0-49.693 0-99.387 0-149.08 0-6.503 0-13.007 0-19.51 0-8.85-15.068-10.686-21.594-12.661-25.828-7.815-51.655-15.63-77.482-23.445-3.27-.989-5.322,.283-7.953,2.042-5.823,3.895-11.646,7.789-17.469,11.683-5.823,3.894-11.646,7.788-17.469,11.683-2.637,1.763-5.337,3.214-5.337,6.838 0,21.712 0,43.424 0,65.137 0,29.982 0,59.966 0,89.949 0,5.785 0,11.57 0,17.355 0,10.699 14.644,8.248 21.506,8.248 25.049,0 50.099,0 75.148,0 10.905,0 21.812,0 32.718,0 6.465,0 16.082,1.651 17.753-6.911 1.233-6.297-8.405-8.983-9.64-2.656z"/>
<path d="m119.521,205.112 122.469,0"/>
<path d="m119.521,206.612c40.823,0 81.646,0 122.47,0 1.935,0 1.935-3 0-3-40.823,0-81.646,0-122.47,0-1.935,0-1.935,3 0,3z"/>
<path d="m119.521,243.75 122.469,0"/>
<path d="m119.521,245.25c40.823,0 81.646,0 122.47,0 1.935,0 1.935-3 0-3-40.823,0-81.646,0-122.47,0-1.935,0-1.935,3 0,3z"/>
<path d="m119.854,166.112 122.469,0"/>
<path d="m119.854,167.612c40.823,0 81.646,0 122.47,0 1.935,0 1.935-3 0-3-40.823,0-81.646,0-122.47,0-1.935,0-1.935,3-0,3z"/>
<path d="m119.854,127.112 122.469,0"/>
<path d="m119.854,128.612c40.823,0 81.646,0 122.47,0 1.935,0 1.935-3 0-3-40.823,0-81.646,0-122.47,0-1.935,0-1.935,3-0,3z"/>
<path d="m100.606,123.359c21.896-14.672 43.792-29.343 65.688-44.015 5.327-3.569 .327-12.236-5.047-8.635-21.896,14.672-43.792,29.343-65.688,44.015-5.327,3.57-.327,12.236 5.047,8.635z"/>
<path d="m155.004,88.488c38.417,11.417 76.833,22.833 115.25,34.25 6.197,1.842 8.824-7.81 2.658-9.643-38.417-11.417-76.833-22.833-115.25-34.25-6.197-1.841-8.825,7.811-2.658,9.643z"/>
<path d="m238.902,129.834h-116.137c-2.209,0-4,1.791-4,4v25.666c0,2.209 1.791,4 4,4h116.137c2.209,0 4-1.791 4-4v-25.667c0-2.208-1.791-3.999-4-3.999zm-79.263,28.583h-15.352c-.076-.253-.108-.57-.095-.95 .013-.38 .019-.646 .019-.798 0-1.267 .234-2.432 .703-3.496 .468-1.064 1.064-2.045 1.786-2.945 .722-.899 1.494-1.735 2.318-2.508 .823-.772 1.596-1.514 2.318-2.223 .722-.709 1.317-1.393 1.786-2.052 .468-.658 .703-1.33 .703-2.014 0-.962-.292-1.704-.874-2.223-.583-.519-1.318-.779-2.204-.779-.735,0-1.508,.177-2.318,.532-.811,.355-1.609,.95-2.394,1.786l-2.318-3.268c1.013-1.064 2.185-1.849 3.515-2.356 1.33-.506 2.653-.76 3.971-.76 .962,0 1.887,.14 2.774,.418 .886,.279 1.672,.697 2.356,1.254s1.229,1.26 1.634,2.109c.405,.849 .608,1.831 .608,2.945 0,.811-.152,1.59-.456,2.337-.304,.748-.709,1.476-1.216,2.185-.507,.709-1.077,1.394-1.71,2.052-.633,.659-1.279,1.292-1.938,1.9-.33,.304-.709,.665-1.14,1.083-.431,.418-.836,.849-1.216,1.292-.38,.443-.703,.893-.969,1.349-.266,.456-.399,.874-.399,1.254h10.108v3.876zm13.338-.457c-.684,.583-1.47,.874-2.356,.874-.456,0-.887-.076-1.292-.228-.406-.152-.767-.374-1.083-.665-.317-.291-.57-.646-.76-1.064s-.285-.905-.285-1.463c0-.532 .095-1.007 .285-1.425 .19-.418 .443-.766 .76-1.045 .316-.278 .677-.494 1.083-.646 .405-.152 .836-.228 1.292-.228 .886,0 1.672,.292 2.356,.874 .684,.583 1.026,1.406 1.026,2.47-0,1.116-.342,1.964-1.026,2.546zm22.877-2.147c-1.471,2.065-3.547,3.097-6.232,3.097-2.762,0-4.871-1.032-6.327-3.097-1.457-2.064-2.185-5.124-2.185-9.177s.746-7.112 2.242-9.177c1.494-2.064 3.571-3.097 6.231-3.097 2.761,0 4.864,1.033 6.308,3.097 1.444,2.065 2.166,5.124 2.166,9.177s-.735,7.113-2.203,9.177zm10.335-2.963c.887,1.33 2.19,1.995 3.914,1.995 .277,0 .582-.013 .912-.038 .328-.025 .633-.063 .912-.114v-8.588h4.674v11.742c-.559,.203-1.426,.431-2.604,.684s-2.604,.38-4.275,.38c-1.469,0-2.793-.26-3.971-.779-1.178-.519-2.186-1.292-3.021-2.318s-1.481-2.305-1.938-3.838c-.456-1.533-.684-3.312-.684-5.339 0-2.001 .266-3.768 .798-5.301 .532-1.532 1.254-2.818 2.166-3.857 .911-1.039 1.988-1.817 3.229-2.337 1.241-.519 2.571-.779 3.99-.779 .912,0 1.729,.07 2.451,.209 .722,.14 1.349,.298 1.881,.475 .532,.178 .969,.368 1.311,.57s.602,.355 .779,.456l-1.216,3.724c-.558-.354-1.241-.671-2.052-.95-.812-.279-1.647-.418-2.508-.418-1.115,0-2.053,.203-2.813,.608s-1.387,.969-1.881,1.691-.85,1.583-1.064,2.584c-.215,1.001-.322,2.109-.322,3.325 .002,2.812 .445,4.883 1.332,6.213z"/>
<path d="m192.643,140.822c-.267-.734-.641-1.317-1.121-1.748-.482-.431-1.128-.646-1.938-.646-.812,0-1.457,.215-1.938,.646-.48,.431-.854,1.02-1.121,1.767-.266,.748-.443,1.615-.531,2.603-.09,.988-.133,2.052-.133,3.192 0,1.14 .043,2.21 .133,3.211 .088,1.001 .266,1.868 .531,2.603 .267,.735 .641,1.317 1.121,1.748 .481,.431 1.127,.646 1.938,.646 .785,0 1.425-.215 1.919-.646s.874-1.02 1.141-1.767c.266-.747 .442-1.615 .531-2.603 .089-.988 .133-2.052 .133-3.192 0-1.14-.044-2.21-.133-3.211-.09-1-.267-1.867-.532-2.603z"/>
<path d="m98.499,281.445c.667,0 1.333,0 2,0 1.908,0 3.5-1.592 3.5-3.5s-1.592-3.5-3.5-3.5c-.667,0-1.333,0-2,0-1.908,0-3.5,1.592-3.5,3.5s1.592,3.5 3.5,3.5z"/>
<path d="m73.833,287.445c5.333,0 10.667,0 16,0 4.514,0 4.514-7 0-7-5.333,0-10.667,0-16,0-4.514,0-4.514,7 0,7z"/>
<path d="m85.833,276.445c5.083,0 10.167,0 15.25,0 4.514,0 4.514-7 0-7-5.083,0-10.167,0-15.25,0-4.515,0-4.515,7 0,7z"/>
<path d="m94.416,291.834c2,0 4,0 6,0 1.908,0 3.5-1.592 3.5-3.5s-1.592-3.5-3.5-3.5c-2,0-4,0-6,0-1.908,0-3.5,1.592-3.5,3.5s1.592,3.5 3.5,3.5z"/>
<path d="m88.083,260.612c-3,0-6,0-9,0-4.514,0-4.514,7 0,7 3,0 6,0 9,0 4.514,0 4.514-7 0-7z"/>
<path d="m101.083,244.612c-5.333,0-10.667,0-16,0-4.514,0-4.514,7 0,7 5.333,0 10.667,0 16,0 4.514,0 4.514-7 0-7z"/>
<path d="m100.416,249.612c-2,0-4,0-6,0-1.908,0-3.5,1.592-3.5,3.5s1.592,3.5 3.5,3.5c2,0 4,0 6,0 1.908,0 3.5-1.592 3.5-3.5s-1.592-3.5-3.5-3.5z"/>
<path d="m80.708,245.945c-1.083,0-2.167,0-3.25,0-1.908,0-3.5,1.592-3.5,3.5s1.592,3.5 3.5,3.5c1.083,0 2.167,0 3.25,0 1.908,0 3.5-1.592 3.5-3.5s-1.593-3.5-3.5-3.5z"/>
<path d="m98.25,267.612c.667,0 1.333,0 2,0 1.908,0 3.5-1.592 3.5-3.5s-1.592-3.5-3.5-3.5c-.667,0-1.333,0-2,0-1.908,0-3.5,1.592-3.5,3.5s1.592,3.5 3.5,3.5z"/>
<path d="m77.583,284.834c-.667,0-1.333,0-2,0-1.908,0-3.5,1.592-3.5,3.5s1.592,3.5 3.5,3.5c.667,0 1.333,0 2,0 1.908,0 3.5-1.592 3.5-3.5s-1.592-3.5-3.5-3.5z"/>
<path d="m71.667,245.25c10.778,0 21.555,0 32.333,0 1.935,0 1.935-3 0-3-10.778,0-21.555,0-32.333,0-1.935,0-1.935,3 0,3z"/>
<path d="m79.832,252.167c-2,0-4,0-6,0-1.908,0-3.5,1.592-3.5,3.5s1.592,3.5 3.5,3.5c2,0 4,0 6,0 1.908,0 3.5-1.592 3.5-3.5s-1.593-3.5-3.5-3.5z"/>
<path d="m78.832,271.445c-1.833,0-3.667,0-5.5,0-1.908,0-3.5,1.592-3.5,3.5s1.592,3.5 3.5,3.5c1.833,0 3.667,0 5.5,0 1.908,0 3.5-1.592 3.5-3.5s-1.593-3.5-3.5-3.5z"/>
<path d="m258.334,245.25c10.61,0 21.222,0 31.832,0 1.935,0 1.935-3 0-3-10.61,0-21.222,0-31.832,0-1.935,0-1.935,3 0,3z"/>
<path d="m279.25,276.445c3,0 6,0 9,0 4.514,0 4.514-7 0-7-3,0-6,0-9,0-4.514,0-4.514,7 0,7z"/>
<path d="m260.583,291.682c5.333,0 10.667,0 16,0 4.514,0 4.514-7 0-7-5.333,0-10.667,0-16,0-4.514,0-4.514,7 0,7z"/>
<path d="m260.917,280.445c2,0 4,0 6,0 1.908,0 3.5-1.592 3.5-3.5s-1.592-3.5-3.5-3.5c-2,0-4,0-6,0-1.908,0-3.5,1.592-3.5,3.5s1.592,3.5 3.5,3.5z"/>
<path d="m274.25,287.445c.667,0 1.333,0 2,0 1.908,0 3.5-1.592 3.5-3.5s-1.592-3.5-3.5-3.5c-.667,0-1.333,0-2,0-1.908,0-3.5,1.592-3.5,3.5s1.592,3.5 3.5,3.5z"/>
<path d="m268.417,264.445c-2,0-4,0-6,0-1.908,0-3.5,1.592-3.5,3.5s1.592,3.5 3.5,3.5c2,0 4,0 6,0 1.908,0 3.5-1.592 3.5-3.5s-1.592-3.5-3.5-3.5z"/>
<path d="m262.834,249.612c-.667,0-1.333,0-2,0-1.908,0-3.5,1.592-3.5,3.5s1.592,3.5 3.5,3.5c.667,0 1.333,0 2,0 1.908,0 3.5-1.592 3.5-3.5s-1.592-3.5-3.5-3.5z"/>
<path d="m286.5,252.612c-5.333,0-10.667,0-16,0-4.514,0-4.514,7 0,7 5.333,0 10.667,0 16,0 4.514,0 4.514-7 0-7z"/>
<path d="m277.5,260.612c-5.083,0-10.167,0-15.25,0-4.514,0-4.514,7 0,7 5.083,0 10.167,0 15.25,0 4.514,0 4.514-7 0-7z"/>
<path d="m283.834,247.612c-2,0-4,0-6,0-1.908,0-3.5,1.592-3.5,3.5s1.592,3.5 3.5,3.5c2,0 4,0 6,0 1.908,0 3.5-1.592 3.5-3.5s-1.592-3.5-3.5-3.5z"/>
<path d="m266.5,244.612c-2,0-4,0-6,0-1.908,0-3.5,1.592-3.5,3.5s1.592,3.5 3.5,3.5c2,0 4,0 6,0 1.908,0 3.5-1.592 3.5-3.5s-1.592-3.5-3.5-3.5z"/>
<path d="m288.5,278.445c-2,0-4,0-6,0-1.908,0-3.5,1.592-3.5,3.5s1.592,3.5 3.5,3.5c2,0 4,0 6,0 1.908,0 3.5-1.592 3.5-3.5s-1.592-3.5-3.5-3.5z"/>
<path d="m287.834,244.612c-2,0-4,0-6,0-1.908,0-3.5,1.592-3.5,3.5s1.592,3.5 3.5,3.5c2,0 4,0 6,0 1.908,0 3.5-1.592 3.5-3.5s-1.592-3.5-3.5-3.5z"/>
<path d="m285.834,291.682c.667,0 1.333,0 2,0 1.908,0 3.5-1.592 3.5-3.5s-1.592-3.5-3.5-3.5c-.667,0-1.333,0-2,0-1.908,0-3.5,1.592-3.5,3.5s1.592,3.5 3.5,3.5z"/>
</g>
</svg>
