<svg xmlns="http://www.w3.org/2000/svg" viewBox="20 20 321 321">
<g fill="#fff">
<path d="m282.091,248.793c-.342,19.011-15.57,33.223-34.364,33.223-9.349,0-18.696,0-28.045,0-30.382,0-60.764,0-91.146,0-8.193,0-17.079,.821-25.046-1.37-15.908-4.376-23.746-19.357-23.746-34.84 0-26.94 0-53.881 0-80.822 0-13.63 0-27.261 0-40.891 0-10.286-.432-19.816 5.218-29.091 5.9-9.688 16.872-15.134 28.005-15.334 1.873-.034 3.75,0 5.623,0 11.993,0 23.985,0 35.978,0 28.948,0 57.895,0 86.843,0 2.435,0 4.869,0 7.304,0 9.692,0 18.423,4.118 24.992,11.149 8.259,8.838 8.384,19.892 8.384,31.057 0,42.305 0,84.612 0,126.919 0,6.448 10,6.448 10,0 0-45.25 0-90.499 0-135.749 0-21.074-15.582-39.412-36.368-42.802-7.717-1.259-15.997-.575-23.774-.575-30.484,0-60.969,0-91.454,0-8.919,0-17.838,0-26.757,0-19.139,0-35.525,11.826-41.866,29.812-2.981,8.458-2.127,18.187-2.127,27.037 0,14.13 0,28.26 0,42.39 0,26.019 0,52.037 0,78.056 0,17.04 8.363,32.442 23.721,40.403 9.584,4.968 19.753,4.651 30.13,4.651 29.716,0 59.432,0 89.148,0 10.936,0 21.872,0 32.808,0 15.528,0 28.915-5.53 38.481-18.126 5.414-7.128 7.898-16.254 8.058-25.097 .116-6.452-9.884-6.441-10-0z"/>
<path d="m219.152,141.803c0,5.72-1.027,11.11-3.079,16.17-2.056,5.06-4.806,9.938-8.25,14.63-3.448,4.695-7.37,9.24-11.771,13.639-4.4,4.4-8.875,8.801-13.42,13.201-3.815,3.668-7.518,7.369-11.11,11.109-3.596,3.74-6.82,7.48-9.68,11.221-2.86,3.739-5.135,7.407-6.82,11-1.688,3.596-2.53,7.149-2.53,10.67v.439h71.94v12.54h-87.781c0-.292-.038-.843-.11-1.649-.076-.805-.11-2.016-.11-3.631 0-6.893 1.244-13.31 3.74-19.25 2.492-5.939 5.682-11.55 9.57-16.83 3.884-5.279 8.212-10.182 12.98-14.712 4.764-4.527 9.35-8.91 13.75-13.146 3.664-3.506 7.15-6.902 10.45-10.188s6.194-6.693 8.69-10.223c2.492-3.527 4.472-7.277 5.939-11.248 1.465-3.967 2.2-8.305 2.2-13.011 0-10.292-2.75-17.679-8.25-22.165-5.5-4.482-12.43-6.727-20.79-6.727-4.695,0-8.875,.587-12.54,1.76-3.667,1.176-6.857,2.53-9.57,4.07-2.716,1.54-5.026,3.118-6.93,4.73-1.908,1.616-3.3,2.86-4.18,3.74l-7.48-9.9c.88-1.024 2.454-2.53 4.73-4.51 2.272-1.98 5.132-3.922 8.58-5.83 3.444-1.904 7.442-3.554 11.99-4.95 4.544-1.392 9.604-2.09 15.18-2.09 14.812,0 25.96,3.63 33.44,10.89 7.483,7.261 11.222,17.346 11.222,30.251z"/>
</g>
</svg>
