<svg xmlns="http://www.w3.org/2000/svg" viewBox="20 20 321 321">
<g fill="none" stroke="#fff" stroke-width="10">
<path d="m249.113,267.473h-165.959c-4.433,0-8.026-3.593-8.026-8.025v-155.96c0-4.433 3.593-8.026 8.026-8.026h46.013c6.833,0 8.873,4.039 8.873,7.183 0,14.211 9.213,12.817 10.958,12.817 25.135,0 100.116,0 100.116,0 4.215,0 7.672,3.25 8,7.38 .018,.213 .025,42.403 .025,42.62"/>
<path d="m257.139,259.447c0,4.433-3.594,8.025-8.025,8.025h-165.96c-4.433,0-8.026-3.593-8.026-8.025l29-105.959c0-4.433 3.593-8.026 8.026-8.026h46.013c6.833,0 8.873,4.039 8.873,7.183 0,14.211 9.213,12.817 10.958,12.817 25.135,0 100.116,0 100.116,0 4.432,0 8.025,3.593 8.025,8.026l-29,85.959z"/>
</g>
</svg>
