<svg xmlns="http://www.w3.org/2000/svg" viewBox="20 20 321 321">
<g fill="#fff">
<path d="m282.091,248.793c-.342,19.011-15.57,33.223-34.364,33.223-9.349,0-18.696,0-28.045,0-30.382,0-60.764,0-91.146,0-8.193,0-17.079,.821-25.046-1.37-15.908-4.376-23.746-19.357-23.746-34.84 0-26.94 0-53.881 0-80.822 0-13.63 0-27.261 0-40.891 0-10.286-.432-19.816 5.218-29.091 5.9-9.688 16.872-15.134 28.005-15.334 1.873-.034 3.75,0 5.623,0 11.993,0 23.985,0 35.978,0 28.948,0 57.895,0 86.843,0 2.435,0 4.869,0 7.304,0 9.692,0 18.423,4.118 24.992,11.149 8.259,8.838 8.384,19.892 8.384,31.057 0,42.305 0,84.612 0,126.919 0,6.448 10,6.448 10,0 0-45.25 0-90.499 0-135.749 0-21.074-15.582-39.412-36.368-42.802-7.717-1.259-15.997-.575-23.774-.575-30.484,0-60.969,0-91.454,0-8.919,0-17.838,0-26.757,0-19.139,0-35.525,11.826-41.866,29.812-2.981,8.458-2.127,18.187-2.127,27.037 0,14.13 0,28.26 0,42.39 0,26.019 0,52.037 0,78.056 0,17.04 8.363,32.442 23.721,40.403 9.584,4.968 19.753,4.651 30.13,4.651 29.716,0 59.432,0 89.148,0 10.936,0 21.872,0 32.808,0 15.528,0 28.915-5.53 38.481-18.126 5.414-7.128 7.898-16.254 8.058-25.097 .116-6.452-9.884-6.441-10-0z"/>
<path d="m226.633,164.463c0,30.656-7.336,53.718-22,69.189-14.668,15.477-36.08,23.211-64.24,23.211l-.44-11.881c9.68,0 18.552-1.1 26.62-3.3 8.064-2.2 15.069-5.61 21.01-10.229 5.94-4.62 10.78-10.561 14.521-17.82 3.739-7.26 6.27-16.021 7.59-26.29-3.961,2.056-8.729,3.851-14.301,5.39-5.575,1.541-11.516,2.311-17.819,2.311-8.216,0-15.18-1.282-20.9-3.85-5.72-2.564-10.34-5.975-13.86-10.23-3.52-4.252-6.088-9.165-7.7-14.74-1.615-5.572-2.42-11.364-2.42-17.38 0-5.572 .88-11.22 2.64-16.94s4.51-10.89 8.25-15.51c3.74-4.62 8.432-8.395 14.08-11.33 5.645-2.932 12.354-4.4 20.13-4.4 15.984,0 28.122,5.61 36.41,16.83 8.283,11.219 12.429,26.877 12.429,46.969zm-47.74,18.04c6.744,0 12.65-.771 17.71-2.31 5.06-1.54 9.789-3.334 14.189-5.39 .145-1.76 .254-3.444 .33-5.06 .072-1.612 .109-3.444 .109-5.5 0-6.892-.477-13.42-1.43-19.58-.955-6.16-2.715-11.584-5.279-16.28-2.568-4.692-5.979-8.395-10.23-11.11-4.256-2.712-9.68-4.07-16.28-4.07-5.428,0-10.048,.99-13.86,2.97-3.815,1.98-6.896,4.585-9.24,7.81-2.348,3.228-4.07,6.968-5.17,11.22-1.1,4.256-1.65,8.656-1.65,13.2 0,11.588 2.603,20.168 7.81,25.74 5.205,5.575 12.871,8.36 22.991,8.36z"/>
</g>
</svg>
