<svg xmlns="http://www.w3.org/2000/svg" viewBox="20 20 321 321">
<g fill="none" stroke="#fff" stroke-width="10">
<path stroke-linejoin="round" stroke-linecap="round" d="m180.998,225.021-34.108,17.93 6.513-37.978-27.594-26.898 38.134-5.542 17.055-34.555 17.055,34.555 38.133,5.542-27.594,26.898 6.514,37.978z"/>
<path d="m286.398,264.557c0,5.145-4.171,9.314-9.314,9.314h-192.607c-5.145,0-9.315-4.17-9.315-9.314v-169.396c0-5.145 4.17-9.314 9.315-9.314h53.4c7.931,0 10.298,4.686 10.298,8.336 0,16.493 10.693,14.875 12.718,14.875 29.169,0 116.191,0 116.191,0 5.144,0 9.314,4.169 9.314,9.314v146.185z"/>
</g>
</svg>
