<svg xmlns="http://www.w3.org/2000/svg" viewBox="20 20 321 321">
<g fill="#fff">
<path d="m226.932,164.01c0-11.232 0-22.465 0-33.697 0-7.319 0-14.638 0-21.957 0-4.342 .282-8.861-.484-13.155-1.913-10.713-9.253-19.926-19.419-23.934-4.879-1.922-9.855-2.267-15.006-2.267-12.979,0-25.959,0-38.938,0-14.63,0-29.259,0-43.889,0-2.777,0-5.554,0-8.33,0-10.789,0-20.214,5.538-26.37,14.194-6.652,9.353-5.222,21.683-5.222,32.525 0,15.62 0,31.24 0,46.86 0,9.853 0,19.706 0,29.56 0,13.165 5.365,24.983 17.532,31.215 9.645,4.94 22.195,3.304 32.686,3.304 9.807,0 19.614,0 29.421,0 6.449,0 6.449-10 0-10-12.251,0-24.503,0-36.755,0-4.657,0-9.375,.216-14.024-.138-10.696-.813-18.86-11.14-18.86-21.454 0-25.134 0-50.269 0-75.403 0-9.586-1.794-21.719 3.166-30.343 6.736-11.715 19.925-10.32 31.351-10.32 26.824,0 53.647,0 80.471,0 10.996,0 19.817,6.757 22.309,17.55 1.342,5.815 .361,12.858 .361,18.739 0,16.24 0,32.48 0,48.72 0,6.449 10,6.449 10,.001z"/>
<path d="m188.213,140.235c-26.574,0-53.148,0-79.722,0-9.687,0-9.772,15.003-.108,15.003 26.574,0 53.148,0 79.723,0 9.685,0 9.771-15.003 .107-15.003z"/>
<path d="m155.799,187.651c0-26.574 0-53.148 0-79.722 0-9.687-15.003-9.772-15.003-.108 0,26.574 0,53.148 0,79.723 0,9.685 15.003,9.771 15.003,.107z"/>
</g>
<path fill="none" stroke="#fff" stroke-width="10" d="m265.546,209.891c2.141,0 3.876-.543 3.876-1.209v-20.971c0-.667-1.735-1.209-3.876-1.209h-75.571c-2.141,0-3.875,.541-3.875,1.209v20.97c0,.668 1.735,1.21 3.875,1.21h75.571z"/>
<path fill="#fff" d="m165.29,212.933c19.552,25.581 39.104,51.162 58.656,76.743 2.429,3.178 6.206,3.178 8.635,0 19.552-25.581 39.104-51.162 58.656-76.744 2.39-3.126-.882-7.523-4.317-7.523-39.104,0-78.208,.001-117.312,.001-6.449,0-6.449,10 0,10 39.104,0 78.208-.001 117.312-.001-1.439-2.508-2.878-5.016-4.317-7.523-19.552,25.581-39.104,51.162-58.656,76.744 2.878,0 5.757,0 8.635,0-19.552-25.581-39.104-51.162-58.656-76.743-3.862-5.051-12.554-.079-8.636,5.046z"/>
</svg>
