<svg xmlns="http://www.w3.org/2000/svg" viewBox="20 20 321 321">
<path fill="none" stroke="#fff" stroke-width="10" d="m146.009,105.167h-65.81c-3.05,0-5.522,2.473-5.522,5.522v169.792c0,3.049 2.473,5.521 5.522,5.521h129.759c3.05,0 5.521-2.472 5.521-5.521v-25.308"/>
<g fill="#fff">
<path d="m96.052,137.142c16.684,0 33.369,0 50.053,0 6.449,0 6.449-10 0-10-16.684,0-33.369,0-50.053,0-6.449,0-6.449,10-0,10z"/>
<path d="m96.052,184.414c16.684,0 33.369,0 50.053,0 6.449,0 6.449-10 0-10-16.684,0-33.369,0-50.053,0-6.449,0-6.449,10-0,10z"/>
<path d="m96.052,160.777c16.684,0 33.369,0 50.053,0 6.449,0 6.449-10 0-10-16.684,0-33.369,0-50.053,0-6.449,0-6.449,10-0,10z"/>
<path d="m96.052,208.049c16.684,0 33.369,0 50.053,0 6.449,0 6.449-10 0-10-16.684,0-33.369,0-50.053,0-6.449,0-6.449,10-0,10z"/>
<path d="m96.623,231.684c16.304,0 32.607,0 48.911,0 6.449,0 6.449-10 0-10-16.304,0-32.607,0-48.911,0-6.449,0-6.449,10 0,10z"/>
<path d="m96.766,255.318c16.208,0 32.417,0 48.625,0 6.449,0 6.449-10 0-10-16.208,0-32.417,0-48.625,0-6.449,0-6.449,10-0,10z"/>
</g>
<path fill="none" stroke="#fff" stroke-width="10" d="m286.813,79.861c0-3.05-2.473-5.522-5.521-5.522h-129.76c-3.05,0-5.522,2.473-5.522,5.522v169.792c0,3.049 2.473,5.521 5.522,5.521h129.759c3.049,0 5.521-2.473 5.521-5.521v-169.792z"/>
<g fill="#fff">
<path d="m167.385,106.313c32.685,0 65.368,0 98.053,0 6.448,0 6.448-10 0-10-32.685,0-65.368,0-98.053,0-6.449,0-6.449,10 0,10z"/>
<path d="m167.385,153.585c32.685,0 65.368,0 98.053,0 6.448,0 6.448-10 0-10-32.685,0-65.368,0-98.053,0-6.449,0-6.449,10 0,10z"/>
<path d="m167.385,129.949c32.685,0 65.368,0 98.053,0 6.448,0 6.448-10 0-10-32.685,0-65.368,0-98.053,0-6.449-0-6.449,10 0,10z"/>
<path d="m167.385,177.22c32.685,0 65.368,0 98.053,0 6.448,0 6.448-10 0-10-32.685,0-65.368,0-98.053,0-6.449,0-6.449,10 0,10z"/>
<path d="m167.956,200.854c32.304,0 64.608,0 96.912,0 6.448,0 6.448-10 0-10-32.304,0-64.607,0-96.912,0-6.449,0-6.449,10 0,10z"/>
<path d="m168.099,224.49c32.208,0 64.416,0 96.624,0 6.448,0 6.448-10 0-10-32.208,0-64.416,0-96.624,0-6.449,0-6.449,10 0,10z"/>
</g>
</svg>
