<svg xmlns="http://www.w3.org/2000/svg" viewBox="20 20 321 321">
<g fill="#fff">
<path d="m138.833,260.167c0,3.313-2.687,6-6,6h-11.5c-3.313,0-6-2.687-6-6v-11c0-3.313 2.687-6 6-6h11.5c3.313,0 6,2.687 6,6v11z"/>
<path d="m246.833,260.167c0,3.313-2.687,6-6,6h-11.5c-3.313,0-6-2.687-6-6v-11c0-3.313 2.687-6 6-6h11.5c3.313,0 6,2.687 6,6v11z"/>
<path d="m232.909,215.15h-104.26c-5.985,0-10.674-6.011-10.674-13.684v-.631l4.752-18.545c.463-7.055 7.605-12.961 13.487-12.961h89.128c5.882,0 13.024,5.906 13.487,12.961l4.753,18.545v.631c.001,7.674-4.687,13.684-10.673,13.684zm-103.881-10h103.503c.34-.376 .924-1.436 1.033-3.123l-4.71-18.383v-.631c0-1.572-2.493-3.546-3.595-3.688l-89.045,.003c-1.018,.139-3.511,2.113-3.511,3.684v.631l-4.71,18.383c.11,1.689 .695,2.748 1.035,3.124z"/>
<path d="m251.166,242.861c0,2.93-2.779,5.306-6.205,5.306h-128.256c-3.427,0-6.206-2.376-6.206-5.306v-27.709c0-2.93 2.779-5.306 6.206-5.306h128.256c3.426,0 6.205,2.376 6.205,5.306v27.709zm-107.583-21.456c0-2.597-2.687-4.702-6-4.702h-17.25c-3.313,0-6,2.105-6,4.702v4.897c0,2.596 2.687,4.701 6,4.701h17.25c3.313,0 6-2.105 6-4.701v-4.897zm103.5,0c0-2.597-2.687-4.702-6-4.702h-17.25c-3.313,0-6,2.105-6,4.702v4.897c0,2.596 2.687,4.701 6,4.701h17.25c3.313,0 6-2.105 6-4.701v-4.897zm-40.25,4.156c0-5.05-2.687-9.144-6-9.144h-40.5c-3.313,0-6,4.094-6,9.144v5.713c0,5.05 2.687,9.144 6,9.144h40.5c3.313,0 6-4.094 6-9.144v-5.713z"/>
<path d="m147.583,219.167h66v10h-66z"/>
<path d="m148.583,232.167h66v10h-66z"/>
<path d="m80.833,130.417c0,45.143 0,90.286 0,135.429 0,.052 0,.103 0,.154 0,6.448 10,6.448 10,0 0-45.143 0-90.286 0-135.429 0-.051 0-.103 0-.154 0-6.449-10-6.449-10,0z"/>
<path d="m270.833,130.417c0,45.143 0,90.286 0,135.429 0,.052 0,.103 0,.154 0,6.448 10,6.448 10,0 0-45.143 0-90.286 0-135.429 0-.051 0-.103 0-.154 0-6.449-10-6.449-10,0z"/>
</g>
<path fill="none" stroke="#fff" stroke-width="10" d="m286.833,117.588c0,3.172-2.572,5.745-5.745,5.745h-199.801c-3.173,0-5.745-2.573-5.745-5.745v-9.575c0-3.173 2.572-5.745 5.745-5.745h199.801c3.173,0 5.745,2.572 5.745,5.745v9.575z"/>
<path fill="#fff" d="m272.459,131.741c-.113,.56 .604,.431-.631,.431-1.073,0-2.146,0-3.22,0-3.865,0-7.73,0-11.596,0-12.936,0-25.87,0-38.806,0-31.541,0-63.083,0-94.624,0-9.949,0-19.897,0-29.846,0-1.625,0-3.25,0-4.875,0 .854,0 .755-4.667 .036-4.667 .569,0 1.138,0 1.707,0 22.669,0 45.338,0 68.008,0 26.49,0 52.981,0 79.472,0 8.894,0 17.786,0 26.68,0 2.235,0 4.472,0 6.708,0 .433,0 .865,0 1.298,0-.623,0-.436-.319-.436,.969 0,1.399 0,2.798 0,4.197 0,4.514 7,4.514 7,0 0-5.078 .355-12.167-6.755-12.167-2.048,0-4.096,0-6.143,0-10.534,0-21.068,0-31.602,0-31.673,0-63.346,0-95.019,0-12.482,0-24.964,0-37.445,0-4.82,0-13.128-1.541-17.425,1.356-5.375,3.625-3.51,17.31 3.888,17.31 1.409,0 2.817,0 4.226,0 9.646,0 19.292,0 28.937,0 50.27,0 100.539,0 150.81,0 3.351,0 5.772-2.448 6.403-5.569 .89-4.406-5.856-6.283-6.75-1.86z"/>
</svg>
