<svg xmlns="http://www.w3.org/2000/svg" viewBox="20 20 321 321">
<g fill="#fff">
<path d="m271.556,233.755c-.294,2.184-2.15,1.357-4.162,1.357-3.82,0-7.642,0-11.462,0-12.941,0-25.882,0-38.822,0-31.557,0-63.114,0-94.671,0-9.748,0-19.496,0-29.244,0-1.097,0-3.254,.435-4.293-.004 .332,.141-.453,2.111 .401-.456 .509-1.531 .996-3.07 1.475-4.611 1.537-4.938 2.902-9.93 4.029-14.977 2.141-9.594 1.791-19.449 2.423-29.212 .078-1.202 .668-15.391 1.394-15.391 6.885,0 13.769,0 20.653,0 30.674,0 61.348,0 92.021,0 12.812,0 25.624,0 38.437,0 3.373,0 6.747,0 10.12,0 2.653,0 2.034,.234 2.266,3.18 .893,11.381 .62,23.025 1.939,34.337 1.131,9.69 4.186,19.284 7.495,28.435 2.175,6.016 11.841,3.421 9.643-2.658-2.521-6.971-4.673-14.112-6.29-21.346-2.065-9.235-1.427-19.171-2.049-28.591-.415-6.283 .596-16.924-4.946-21.206-2.81-2.171-5.849-2.151-9.138-2.151-25.219,0-50.437,0-75.654,0-26.536,0-53.071,0-79.606,0-1.694,0-3.388,0-5.082,0-9.776,0-10.057,9.94-10.609,17.087-.749,9.683-.544,19.552-1.606,29.185-.961,8.721-3.97,17.484-6.73,25.778-2.137,6.419 3.241,12.6 9.779,12.6 2.178,0 4.355,0 6.533,0 10.785,0 21.569,0 32.354,0 31.768,0 63.537,0 95.304,0 12.286,0 24.572,0 36.858,0 7.614,0 19.471,1.807 20.883-8.699 .846-6.302-8.788-9.023-9.643-2.657z"/>
<path d="m273.425,159.366c-.422-10.646-16.857-15.032-24.813-17.345-21.883-6.361-45.448-7.756-68.109-7.816-22.342-.059-45.256,1.656-66.902,7.479-8.163,2.196-25.588,6.737-26.022,17.682-.077,1.935 2.924,1.928 3,0 .17-4.289 4.791-7.025 8.103-8.871 6.008-3.347 12.854-5.243 19.486-6.894 20.262-5.045 41.526-6.341 62.335-6.396 20.417-.054 41.101,1.491 61.031,6.083 6.85,1.578 13.708,3.616 20.001,6.789 3.546,1.788 8.712,4.774 8.891,9.289 .075,1.927 3.076,1.935 2.999,0z"/>
<path d="m86.445,167.38c49.796,0 99.593,0 149.39,0 12.556,0 25.112,0 37.668,0 6.448,0 6.448-10 0-10-49.797,0-99.593,0-149.39,0-12.556,0-25.112,0-37.668,0-6.448,0-6.448,10 0,10z"/>
<path d="m81.624,161.051c-1.148,4.009-2.296,8.018-3.444,12.027-1.779,6.213 7.871,8.847 9.643,2.658 1.148-4.009 2.296-8.018 3.444-12.027 1.779-6.212-7.871-8.846-9.643-2.658z"/>
<path d="m268.682,163.709c1.148,4.009 2.296,8.018 3.444,12.027 1.772,6.188 11.422,3.555 9.643-2.658-1.148-4.009-2.296-8.018-3.444-12.027-1.773-6.188-11.423-3.554-9.643,2.658z"/>
<path d="m80.387,223.502c-.09,4.467-1.548,13.804-7.554,14.112-4.491,.231-4.513,7.232 0,7 10.441-.537 14.375-12.264 14.554-21.112 .092-4.517-6.908-4.508-7,0z"/>
<path d="m273.617,223.683c.18,8.849 4.113,20.574 14.555,21.111 4.514,.232 4.491-6.769 0-7-6.006-.309-7.464-9.644-7.555-14.111-.092-4.508-7.092-4.517-7,0z"/>
<path d="m83.887,227.002c49.65,0 99.299,0 148.95,0 14.76,0 29.521,0 44.28,0 4.514,0 4.514-7 0-7-49.649,0-99.299,0-148.949,0-14.76,0-29.521,0-44.281,0-4.514,0-4.514,7 0,7z"/>
<path d="m72.833,246.122c48.286,0 96.572,0 144.858,0 23.493,0 46.987,0 70.48,0 4.514,0 4.514-7 0-7-48.286,0-96.572,0-144.858,0-23.494,0-46.987,0-70.48,0-4.514,0-4.514,7 0,7z"/>
</g>
</svg>
