<svg xmlns="http://www.w3.org/2000/svg" viewBox="20 20 321 321">
<g fill="none" stroke="#fff" stroke-width="10">
<path d="m267.826,263.303c0,3.91-3.156,7.082-7.05,7.082l-157.885,.021c-3.894,0-7.05-3.171-7.05-7.083v-157.5c0-3.911 3.156-7.083 7.05-7.083l157.885-.021c3.894,0 7.05,3.172 7.05,7.083v157.501z"/>
<path d="m267.826,103.208c0,2.485-2.711,4.5-6.053,4.5l-159.88,.021c-3.342,0-6.052-2.015-6.052-4.5v-9c0-2.485 2.71-4.5 6.052-4.5l159.88-.021c3.342,0 6.053,2.015 6.053,4.5v9z"/>
<path d="m265.732,265.178c.584,2.887-1.629,5.228-4.942,5.228h-157.333c-3.313,0-6.474-2.341-7.058-5.228l-21.159-134.545c-.584-2.887 1.628-5.228 4.942-5.228h157.333c3.313,0 6.474,2.34 7.058,5.228l21.159,134.545z"/>
</g>
<path fill="#fff" d="m247.194,199.667c2.213,0 4.426,0 6.639,0 2.726,0 5-2.274 5-5s-2.274-5-5-5c-2.213,0-4.426,0-6.639,0-2.726,0-5,2.274-5,5s2.275,5 5,5z"/>
</svg>
