<svg xmlns="http://www.w3.org/2000/svg" viewBox="20 20 321 321">
<g fill="none" stroke="#fff" stroke-width="10">
<path d="m285.412,251.773c.585,2.887-1.628,5.227-4.941,5.227h-94.333c-3.313,0-6.474-2.34-7.058-5.227l-21.16-104.545c-.584-2.887 1.628-5.228 4.942-5.228h94.333c3.313,0 6.474,2.34 7.059,5.228l21.158,104.545z"/>
<path d="m286.816,250.303c0,3.91-3.156,7.082-7.049,7.082l-197.885,.021c-3.894,0-7.05-3.171-7.05-7.083v-127.5c0-3.911 3.156-7.083 7.05-7.083l197.885-.021c3.893,0 7.049,3.172 7.049,7.083v127.501z"/>
</g>
<path fill="#fff" d="m174.52,191.584c2.104,0 4.208,0 6.313,0 2.726,0 5-2.274 5-5s-2.274-5-5-5c-2.104,0-4.208,0-6.313,0-2.726,0-5,2.274-5,5s2.274,5 5,5z"/>
<g fill="none" stroke="#fff" stroke-width="10">
<path d="m180.824,116.583 0,137.175"/>
<path d="m286.816,120.208c0,2.485-2.709,4.5-6.052,4.5l-199.88,.021c-3.342,0-6.052-2.015-6.052-4.5v-9c0-2.485 2.71-4.5 6.052-4.5l199.88-.021c3.343,0 6.052,2.015 6.052,4.5v9z"/>
</g>
</svg>
