<svg xmlns="http://www.w3.org/2000/svg" viewBox="20 20 321 321">
<g fill="#fff">
<path d="m187.127,278.996c-.322,4.009-5.436,3.051-8.227,3.051-5.601,0-11.202,0-16.803,0-15.916,0-31.831,0-47.747,0-10.387,0-20.774,0-31.161,0-5.295,0-3.631-8.994-3.631-12.464 0-56.074 0-112.148 0-168.222 0-5.936 0-11.872 0-17.808 0-3.669 3.632-3.219 6.112-3.219 4.956,0 9.912,0 14.868,0 27.267,0 54.534,0 81.8,0 6.08,0 4.789,5.765 4.789,10.294 0,10.512 0,21.024 0,31.537 0,31.724 0,63.448 0,95.172 0,20.554 0,41.106 0,61.659 0,6.448 10,6.448 10,0 0-49.47 0-98.939 0-148.409 0-11.79 0-23.58 0-35.37 0-6.088 1.104-13.716-2.229-19.111-5.143-8.325-19.751-5.772-27.977-5.772-15.626,0-31.253,0-46.879,0-11.799,0-23.598,0-35.397,0-5.983,0-11.517,2.083-14.015,8.022-1.1,2.616-1.073,5.148-1.073,7.88 0,23.092 0,46.184 0,69.276 0,31.098 0,62.195 0,93.293 0,8.929 0,17.857 0,26.786 0,1.945-.182,4.141 .284,6.04 1.696,6.921 7.411,10.415 14.228,10.415 20.858,0 41.715,0 62.573,0 10.253,0 20.506,0 30.76,0 2.169,0 4.338,0 6.508,0 7.582,0 12.639-5.854 13.217-13.051 .517-6.432-9.487-6.382-10,.001z"/>
<path d="m173.441,174.714c-.386,3.825-7.999,2.5-10.467,2.5-6.957,0-13.915,0-20.872,0-14.169,0-28.338,0-42.506,0-1.255,0-2.511,0-3.766,0-3.209,0-2.772-3.244-2.772-5.372 0-2.804-1.97-18.008 2.569-18.008 10.892,0 21.784,0 32.676,0 12.867,0 25.733,0 38.6,0 3.355,0 6.538-.429 6.538,4.049 0,5.61 0,11.221 0,16.831 0,4.514 7,4.514 7,0 0-9.403 3.629-27.88-10.562-27.88-12.541,0-25.081,0-37.622,0-12.032,0-24.063,0-36.095,0-6.551,0-10.104,4.908-10.104,11.049 0,3.517 0,7.034 0,10.55 0,2.54-.527,5.927 .247,8.421 2.58,8.313 10.317,7.36 17.22,7.36 10.239,0 20.478,0 30.716,0 9.989,0 19.979,0 29.968,0 7.344,0 15.269,.045 16.231-9.5 .454-4.491-6.55-4.447-6.999-0z"/>
<path d="m173.775,131.047c-.386,3.825-7.999,2.5-10.467,2.5-6.957,0-13.915,0-20.872,0-14.169,0-28.337,0-42.506,0-1.255,0-2.511,0-3.766,0-3.209,0-2.772-3.244-2.772-5.372 0-2.804-1.97-18.008 2.569-18.008 10.892,0 21.784,0 32.676,0 12.867,0 25.733,0 38.6,0 3.355,0 6.538-.429 6.538,4.049 0,5.611 0,11.221 0,16.831 0,4.514 7,4.514 7,0 0-9.403 3.628-27.88-10.562-27.88-12.541,0-25.082,0-37.622,0-12.032,0-24.063,0-36.095,0-6.551,0-10.104,4.908-10.104,11.049 0,3.517 0,7.034 0,10.55 0,2.54-.527,5.927 .247,8.421 2.58,8.313 10.317,7.36 17.22,7.36 10.239,0 20.478,0 30.716,0 9.989,0 19.979,0 29.968,0 7.344,0 15.269,.045 16.231-9.5 .454-4.49-6.551-4.446-6.999-0z"/>
<path d="m173.441,218.857c-.386,3.825-7.999,2.5-10.467,2.5-6.957,0-13.915,0-20.872,0-14.169,0-28.338,0-42.506,0-1.255,0-2.511,0-3.766,0-3.209,0-2.772-3.244-2.772-5.372 0-2.804-1.97-18.009 2.569-18.009 10.892,0 21.784,0 32.676,0 12.867,0 25.733,0 38.6,0 3.355,0 6.538-.43 6.538,4.049 0,5.611 0,11.222 0,16.832 0,4.514 7,4.514 7,0 0-9.402 3.629-27.881-10.562-27.881-12.541,0-25.081,0-37.622,0-12.032,0-24.063,0-36.095,0-6.551,0-10.104,4.908-10.104,11.049 0,3.517 0,7.034 0,10.551 0,2.539-.527,5.927 .247,8.421 2.58,8.313 10.317,7.36 17.22,7.36 10.239,0 20.478,0 30.716,0 9.989,0 19.979,0 29.968,0 7.344,0 15.269,.045 16.231-9.5 .454-4.49-6.55-4.447-6.999,0z"/>
<path d="m175.441,91c-.174,3.224-4.826,3.224-5,0-.173-3.226 4.828-3.208 5,0 .104,1.924 3.104,1.934 3,0-.167-3.108-2.392-5.333-5.5-5.5-3.102-.167-5.346,2.643-5.5,5.5-.167,3.102 2.643,5.346 5.5,5.5 3.102,.167 5.346-2.643 5.5-5.5 .104-1.934-2.896-1.923-3,0z"/>
<path d="m91.4,275c27.619,0 55.238,0 82.856,0 6.449,0 6.449-10 0-10-27.619,0-55.238,0-82.856,0-6.448,0-6.448,10 0,10z"/>
<path d="m91.4,262.072c27.619,0 55.238,0 82.856,0 6.449,0 6.449-10 0-10-27.619,0-55.238,0-82.856,0-6.448,0-6.448,10 0,10z"/>
<path d="m91.4,249.145c27.619,0 55.238,0 82.856,0 6.449,0 6.449-10 0-10-27.619,0-55.238,0-82.856,0-6.448,0-6.448,10 0,10z"/>
<path d="m206.992,251.783c27.248,0 54.496,0 81.744,0 4.514,0 4.514-7 0-7-27.248,0-54.496,0-81.744,0-4.513,0-4.513,7 0,7z"/>
<path d="m244.469,236.539c0,3.661 0,7.323 0,10.984 0,4.514 7,4.514 7,0 0-3.661 0-7.323 0-10.984 0-4.514-7-4.514-7,0z"/>
<path d="m271.662,249.283c0,3.662 0,7.323 0,10.985 0,4.514 7,4.514 7,0 0-3.662 0-7.323 0-10.985 0-4.513-7-4.513-7,0z"/>
<path d="m217.328,249.283c0,3.662 0,7.323 0,10.985 0,4.514 7,4.514 7,0 0-3.662 0-7.323 0-10.985 0-4.513-7-4.513-7,0z"/>
<path d="m227.736,281.7c-.021,.128 1.651,.134 .433,.134-.52,0-1.039,0-1.559,0-1.623,0-3.247,0-4.87,0-2.923,0-5.847,0-8.77,0 1.242,0 1.129,1.926 1.129,.611 0-.52 0-1.039 0-1.559 0-1.623 0-3.246 0-4.869 0-2.924 0-5.847 0-8.77 0,1.24-1.928,1.127-.613,1.127 .52,0 1.039,0 1.559,0 1.623,0 3.247,0 4.87,0 2.923,0 5.847,0 8.77,0-1.24,0-1.127-1.926-1.127-.611 0,.52 0,1.039 0,1.559 0,1.928 0,3.854 0,5.782 0,2.642 0,5.283 0,7.925 0,6.448 10,6.448 10,0 0-7.509 2.954-22.794-7.476-24.476-4.138-.667-8.621-.179-12.797-.179-5.656,0-11.887,.53-13.007,7.476-.667,4.138-.179,8.62-.179,12.796 0,5.656 .53,11.888 7.474,13.009 4.138,.668 8.621,.179 12.797,.179 5.657,0 11.889-.53 13.009-7.476 1.017-6.306-8.618-9.011-9.643-2.658z"/>
<path d="m282.069,281.7c-.021,.128 1.654,.134 .435,.134-.52,0-1.039,0-1.559,0-1.624,0-3.247,0-4.87,0-2.924,0-5.847,0-8.771,0 1.241,0 1.128,1.926 1.128,.611 0-.52 0-1.039 0-1.559 0-1.623 0-3.246 0-4.869 0-2.924 0-5.847 0-8.77 0,1.24-1.927,1.127-.612,1.127 .52,0 1.039,0 1.559,0 1.624,0 3.247,0 4.87,0 2.924,0 5.847,0 8.771,0-1.242,0-1.129-1.926-1.129-.611 0,.52 0,1.039 0,1.559 0,1.928 0,3.854 0,5.782 0,2.642 0,5.283 0,7.925 0,6.448 10,6.448 10,0 0-7.508 2.954-22.793-7.474-24.476-4.138-.668-8.621-.179-12.798-.179-5.656,0-11.888,.53-13.008,7.476-.667,4.138-.179,8.62-.179,12.796 0,5.656 .53,11.888 7.475,13.009 4.138,.668 8.621,.179 12.798,.179 5.656,0 11.887-.53 13.007-7.476 1.017-6.306-8.618-9.011-9.643-2.658z"/>
<path d="m254.877,227.159c-.021,.127 1.651,.133 .433,.133-.52,0-1.039,0-1.559,0-1.623,0-3.247,0-4.87,0-2.923,0-5.847,0-8.77,0 1.242,0 1.129,1.927 1.129,.612 0-.52 0-1.039 0-1.559 0-1.623 0-3.246 0-4.869 0-2.924 0-5.847 0-8.77 0,1.24-1.928,1.127-.613,1.127 .52,0 1.039,0 1.559,0 1.623,0 3.247,0 4.87,0 2.923,0 5.847,0 8.77,0-1.24,0-1.127-1.926-1.127-.611 0,.52 0,1.039 0,1.559 0,1.928 0,3.854 0,5.782 0,2.642 0,5.283 0,7.925 0,6.448 10,6.448 10,0 0-7.509 2.954-22.793-7.476-24.476-4.138-.668-8.621-.179-12.797-.179-5.656,0-11.887,.53-13.007,7.476-.667,4.138-.179,8.62-.179,12.796 0,5.656 .53,11.888 7.474,13.008 4.138,.668 8.621,.179 12.797,.179 5.656,0 11.888-.53 13.009-7.475 1.017-6.306-8.618-9.011-9.643-2.658z"/>
</g>
</svg>
