<svg xmlns="http://www.w3.org/2000/svg" viewBox="20 20 321 321">
<g fill="#fff">
<path d="m75.333,184.667c48.697,0 97.394,0 146.091,0 21.97,0 43.939,0 65.909,0 6.448,0 6.448-10 0-10-48.697,0-97.395,0-146.091,0-21.97,0-43.939,0-65.909,0-6.449,0-6.449,10-0,10z"/>
<path d="m185.833,175.167c0-8.167 0-16.333 0-24.5 0-6.449-10-6.449-10,0 0,8.167 0,16.333 0,24.5 0,6.448 10,6.448 10,0z"/>
<path d="m255.833,210.667c0-8.833 0-17.667 0-26.5 0-6.449-10-6.449-10,0 0,8.833 0,17.667 0,26.5 0,6.448 10,6.448 10,0z"/>
<path d="m114.833,210.417c0-8.75 0-17.5 0-26.25 0-6.449-10-6.449-10,0 0,8.75 0,17.5 0,26.25 0,6.448 10,6.448 10,0z"/>
</g>
<g fill="none" stroke="#fff" stroke-width="10">
<path d="m140.083,270.167c0,3.313-2.687,6-6,6h-49c-3.313,0-6-2.687-6-6v-49c0-3.313 2.687-6 6-6h49c3.313,0 6,2.687 6,6v49z"/>
<path d="m282.083,270.167c0,3.313-2.687,6-6,6h-49c-3.313,0-6-2.687-6-6v-49c0-3.313 2.687-6 6-6h49c3.313,0 6,2.687 6,6v49z"/>
<path d="m211.083,140.167c0,3.313-2.687,6-6,6h-49c-3.313,0-6-2.687-6-6v-49c0-3.313 2.687-6 6-6h49c3.313,0 6,2.687 6,6v49z"/>
</g>
</svg>
