<svg xmlns="http://www.w3.org/2000/svg" viewBox="20 20 321 321">
<g fill="#fff">
<path d="m232.672,283.517c-37.676-22.906-75.352-45.812-113.028-68.718-5.525-3.359-10.547,5.291-5.047,8.635 37.676,22.906 75.352,45.812 113.028,68.718 5.525,3.359 10.547-5.292 5.047-8.635z"/>
<path d="m100.042,236.336c-2.37,.125-4.392-1.693-4.516-4.063l-1.743-33.035c-.125-2.369 1.694-4.391 4.063-4.516l5.797-.306c2.369-.124 4.391,1.694 4.515,4.063l1.743,33.035c.124,2.369-1.695,4.391-4.064,4.516l-5.795,.306z"/>
<path d="m129.315,206.377c.104,1.975-1.413,3.659-3.386,3.764l-18.071,.952c-1.974,.104-3.659-1.411-3.764-3.386l-.254-4.832c-.105-1.973 1.412-3.658 3.385-3.761l18.073-.953c1.974-.104 3.658,1.411 3.762,3.384l.255,4.832z"/>
<path d="m114.031,226.783c-1.726,.092-3.221-1.659-3.339-3.91l-1.088-20.608c-.119-2.251 1.184-4.15 2.908-4.241l4.223-.223c1.726-.092 3.222,1.66 3.34,3.911l1.086,20.608c.119,2.252-1.184,4.149-2.909,4.24l-4.221,.223z"/>
<path d="m227.481,175.478c-5.576,26.788-10.442,54.362-10.332,81.816 .044,11.075 .339,34.441 15.61,35.989 14.386,1.458 23.058-20.794 27.323-30.916 10.841-25.729 17.409-53.301 22.927-80.591 5.115-25.304 9.449-51.426 9.14-77.322-.13-10.913-.713-33.241-15.597-34.75-13.649-1.384-22.062,18.85-26.314,28.548-10.771,24.561-17.235,51.069-22.757,77.226-1.328,6.29 8.312,8.967 9.643,2.658 5.581-26.44 11.979-53.546 23.266-78.224 3.082-6.739 6.646-14.084 12.378-18.99 2.946-2.522 4.23-1.583 6.087,2.001 3.416,6.594 3.225,15.583 3.31,22.771 .147,12.353-1.099,24.728-2.655,36.966-3.837,30.167-10.428,60.297-19.228,89.398-4.48,14.814-9.535,30.131-17.963,43.238-1.837,2.855-5.024,6.882-7.516,7.807-1.073,.398-1.581,.231-1.81,.12-1.176-.575-1.647-1.445-2.535-3.158-2.227-4.298-2.631-9.812-2.998-14.543-.598-7.7-.316-15.469 .157-23.166 1.331-21.604 5.102-43.058 9.507-64.221 1.31-6.291-8.329-8.969-9.643-2.657z"/>
<path d="m74.584,180.667c21.5,0 43,0 64.5,0 6.449,0 6.449-10 0-10-21.5,0-43,0-64.5,0-6.448,0-6.448,10 0,10z"/>
<path d="m106.959,154.598c1.5-4.667 3-9.333 4.5-14 1.385-4.31-5.375-6.141-6.75-1.861-1.5,4.667-3,9.333-4.5,14-1.385,4.309 5.375,6.14 6.75,1.861z"/>
<path d="m110.959,136.236c-1.333-5.833-2.667-11.667-4-17.5-1.006-4.4-7.754-2.534-6.75,1.861 1.333,5.833 2.667,11.667 4,17.5 1.006,4.401 7.755,2.534 6.75-1.861z"/>
<path d="m106.959,120.598c1.5-4.667 3-9.333 4.5-14 1.385-4.31-5.375-6.141-6.75-1.861-1.5,4.667-3,9.333-4.5,14-1.385,4.309 5.375,6.14 6.75,1.861z"/>
<path d="m110.959,102.236c-1.333-5.833-2.667-11.667-4-17.5-1.006-4.4-7.754-2.534-6.75,1.861 1.333,5.833 2.667,11.667 4,17.5 1.006,4.401 7.755,2.534 6.75-1.861z"/>
<path d="m106.913,86.598c1.333-4.148 2.667-8.296 4-12.444 1.385-4.31-5.375-6.141-6.75-1.861-1.333,4.148-2.667,8.296-4,12.444-1.385,4.309 5.375,6.14 6.75,1.861z"/>
<path d="m131.459,161.736c-1.5-4.667-3-9.333-4.5-14-1.375-4.279-8.135-2.449-6.75,1.861 1.5,4.667 3,9.333 4.5,14 1.376,4.28 8.136,2.449 6.75-1.861z"/>
<path d="m127.459,147.098c1.333-5.833 2.667-11.667 4-17.5 1.004-4.395-5.744-6.261-6.75-1.861-1.333,5.833-2.667,11.667-4,17.5-1.004,4.394 5.745,6.261 6.75,1.861z"/>
<path d="m131.459,127.736c-1.5-4.667-3-9.333-4.5-14-1.375-4.279-8.135-2.449-6.75,1.861 1.5,4.667 3,9.333 4.5,14 1.376,4.28 8.136,2.449 6.75-1.861z"/>
<path d="m127.459,113.098c1.333-5.833 2.667-11.667 4-17.5 1.004-4.395-5.744-6.261-6.75-1.861-1.333,5.833-2.667,11.667-4,17.5-1.004,4.394 5.745,6.261 6.75,1.861z"/>
<path d="m131.459,93.736c-1.5-4.667-3-9.333-4.5-14-1.375-4.279-8.135-2.449-6.75,1.861 1.5,4.667 3,9.333 4.5,14 1.376,4.28 8.136,2.449 6.75-1.861z"/>
<path d="m87.959,163.9c1.5-4.667 3-9.333 4.5-14 1.385-4.31-5.375-6.141-6.75-1.861-1.5,4.667-3,9.333-4.5,14-1.385,4.31 5.375,6.141 6.75,1.861z"/>
<path d="m91.959,145.539c-1.333-5.833-2.667-11.667-4-17.5-1.006-4.4-7.754-2.534-6.75,1.861 1.333,5.833 2.667,11.667 4,17.5 1.006,4.4 7.755,2.534 6.75-1.861z"/>
<path d="m87.959,129.9c1.5-4.667 3-9.333 4.5-14 1.385-4.31-5.375-6.141-6.75-1.861-1.5,4.667-3,9.333-4.5,14-1.385,4.31 5.375,6.141 6.75,1.861z"/>
<path d="m91.959,111.539c-1.333-5.833-2.667-11.667-4-17.5-1.006-4.4-7.754-2.534-6.75,1.861 1.333,5.833 2.667,11.667 4,17.5 1.006,4.4 7.755,2.534 6.75-1.861z"/>
<path d="m87.959,95.9c1.5-4.667 3-9.333 4.5-14 1.385-4.31-5.375-6.141-6.75-1.861-1.5,4.667-3,9.333-4.5,14-1.385,4.31 5.375,6.141 6.75,1.861z"/>
</g>
</svg>
