<svg xmlns="http://www.w3.org/2000/svg" viewBox="20 20 321 321">
<path fill="none" stroke="#fff" stroke-width="10" d="m248.355,265.568c0,3.068-2.706,5.557-6.043,5.557h-120.851c-3.336,0-6.042-2.488-6.042-5.557v-91.347c0-3.066 2.706-5.554 6.042-5.554h120.852c3.337,0 6.043,2.488 6.043,5.554v91.347z"/>
<g fill="#fff">
<path d="m214.344,192.17c0,18.729 0,37.458 0,56.187 0,6.448 10,6.448 10,0 0-18.729 0-37.458 0-56.187 0-6.448-10-6.448-10,0z"/>
<path d="m143.604,254.824c25.237,0 50.475,0 75.712,0 6.448,0 6.448-10 0-10-25.237,0-50.475,0-75.712,0-6.449,0-6.449,10-0,10z"/>
<path d="m143.751,234.994c24.846,0 49.692,0 74.538,0 6.448,0 6.448-10 0-10-24.846,0-49.692,0-74.538,0-6.449,0-6.449,10 0,10z"/>
<path d="m189.006,192.17c0,18.729 0,37.458 0,56.187 0,6.448 10,6.448 10,0 0-18.729 0-37.458 0-56.187 0-6.448-10-6.448-10,0z"/>
<path d="m138.328,192.17c0,18.729 0,37.458 0,56.187 0,6.448 10,6.448 10,0 0-18.729 0-37.458 0-56.187 0-6.448-10-6.448-10,0z"/>
<path d="m163.667,192.17c0,18.729 0,37.458 0,56.187 0,6.448 10,6.448 10,0 0-18.729 0-37.458 0-56.187 0-6.448-10-6.448-10,0z"/>
<path d="m143.457,195.334c25.287,0 50.573,0 75.859,0 6.448,0 6.448-10 0-10-25.286,0-50.573,0-75.859,0-6.449,0-6.449,10 0,10z"/>
<path d="m143.457,215.164c25.139,0 50.278,0 75.418,0 6.448,0 6.448-10 0-10-25.14,0-50.279,0-75.418,0-6.449,0-6.449,10 0,10z"/>
</g>
<g fill="none" stroke="#fff" stroke-width="10">
<path d="m280.971,98.694c-15.689-3.208-34.107-4.619-49.699-5.857-9.279-.736-42.269-.825-49.691-.834v-.003c0,0-.262,0-.747,0-.485,0-.748,0-.748,0v.002c-7.422,.01-40.412,.098-49.69,.834-15.592,1.238-34.01,2.649-49.7,5.857-3.143,.642-5.862,2.173-5.862,4.855v39.072c0,2.682 2.625,4.855 5.862,4.855h43.976c12.796-1.235 9.428-16.294 15.826-21.752 2.17-1.851 7.323-1.673 10.438-1.673 6.895,0 22.978,0 28.814,0 1.361,0 2.167,0 2.167,0 5.837,0 21.92,0 28.814,0 3.115,0 8.269-.178 10.438,1.673 6.397,5.458 3.03,20.518 15.826,21.752h43.976c3.238,0 5.862-2.174 5.862-4.855v-39.072c0-2.681-2.72-4.212-5.862-4.854z"/>
<path d="m213.941,162.998c0,3.131-2.538,5.669-5.67,5.669h-53.769c-3.131,0-5.669-2.538-5.669-5.669v-9.661c0-3.131 2.538-5.669 5.669-5.669h53.769c3.132,0 5.67,2.538 5.67,5.669v9.661z"/>
</g>
</svg>
