<svg xmlns="http://www.w3.org/2000/svg" viewBox="20 20 321 321">
<g fill="#fff">
<path d="m155.164,234.139c16.227,2.771 32.454,5.541 48.681,8.312 6.306,1.077 9.006-8.559 2.658-9.643-16.227-2.771-32.454-5.541-48.681-8.312-6.306-1.077-9.006,8.559-2.658,9.643z"/>
<path d="m155.664,251.639c16.227,2.771 32.454,5.541 48.681,8.312 6.306,1.077 9.006-8.559 2.658-9.643-16.227-2.771-32.454-5.541-48.681-8.312-6.306-1.077-9.006,8.559-2.658,9.643z"/>
<path d="m155.664,268.639c16.227,2.771 32.454,5.541 48.681,8.312 6.306,1.077 9.006-8.559 2.658-9.643-16.227-2.771-32.454-5.541-48.681-8.312-6.306-1.077-9.006,8.559-2.658,9.643z"/>
<path d="m166.024,286.786c9.106,1.555 18.214,3.109 27.32,4.664 6.306,1.076 9.006-8.56 2.658-9.643-9.106-1.555-18.213-3.109-27.32-4.664-6.305-1.076-9.005,8.56-2.658,9.643z"/>
</g>
<path fill="none" stroke="#fff" stroke-width="10" d="m222.033,188.252c0,13.73-11.13,24.86-24.859,24.86h-33.147c-13.729,0-24.86-11.13-24.86-24.86v-88.392c0-13.729 11.13-24.86 24.86-24.86h33.147c13.729,0 24.859,11.13 24.859,24.86v88.392z"/>
</svg>
