<svg xmlns="http://www.w3.org/2000/svg" viewBox="20 20 321 321">
<g fill="#fff">
<path d="m84.09,162.513c8.917,1.522 17.833,3.045 26.749,4.567 4.414,.754 6.304-5.991 1.861-6.75-8.917-1.522-17.833-3.045-26.749-4.567-4.414-.754-6.304,5.991-1.861,6.75z"/>
<path d="m84.364,172.128c8.917,1.522 17.833,3.045 26.749,4.567 4.414,.753 6.304-5.991 1.861-6.75-8.917-1.522-17.833-3.045-26.749-4.567-4.413-.753-6.304,5.992-1.861,6.75z"/>
<path d="m84.364,181.47c8.917,1.522 17.833,3.045 26.749,4.567 4.414,.754 6.304-5.991 1.861-6.75-8.917-1.522-17.833-3.045-26.749-4.567-4.413-.754-6.304,5.991-1.861,6.75z"/>
<path d="m90.058,191.441c5.004,.854 10.008,1.708 15.012,2.563 4.414,.754 6.304-5.991 1.861-6.75-5.004-.854-10.008-1.708-15.012-2.563-4.414-.753-6.304,5.992-1.861,6.75z"/>
</g>
<path fill="none" stroke="#fff" stroke-width="10" d="m121.034,136.573c0,7.544-6.116,13.66-13.66,13.66h-18.214c-7.544,0-13.66-6.116-13.66-13.66v-48.569c0-7.544 6.116-13.66 13.66-13.66h18.213c7.544,0 13.66,6.116 13.66,13.66v48.569z"/>
<g fill="#fff">
<path d="m224.017,291.978c8.699,0 17.398,0 26.098,0 9.686,0 9.771-15.004 .107-15.004-8.699,0-17.398,0-26.098,0-9.686,0-9.771,15.004-.107,15.004z"/>
<path d="m203.799,138.239c8.938,16.8 17.877,33.6 26.815,50.4 2.121,3.986 8.164,.449 6.045-3.533-8.938-16.8-17.877-33.6-26.815-50.4-2.121-3.986-8.164-.45-6.045,3.533z"/>
<path d="m231.352,106.199c0,49.943 0,99.886 0,149.829 0,9.546 0,19.093 0,28.639 0,6.448 10,6.448 10,0 0-49.943 0-99.886 0-149.829 0-9.546 0-19.092 0-28.639 0-6.449-10-6.449-10-0z"/>
<path d="m284.453,70.026c-16.619,10.363-33.238,20.726-49.857,31.088 1.683,0 3.364,0 5.047,0-16.619-10.363-33.238-20.726-49.857-31.088-.841,3.106-1.683,6.211-2.523,9.317 33.238,0 66.477,0 99.715,0 6.448,0 6.448-10 0-10-33.238,0-66.477,0-99.715,0-5.075,0-6.692,6.718-2.523,9.317 16.619,10.363 33.238,20.726 49.857,31.088 1.473,.918 3.574,.918 5.047,0 16.619-10.363 33.238-20.726 49.857-31.088 5.457-3.402 .441-12.056-5.048-8.634z"/>
<path d="m177.015,149.045c10.16-3.26 20.321-6.52 30.482-9.78 4.28-1.374 2.449-8.133-1.861-6.75-10.16,3.26-20.321,6.52-30.482,9.78-4.281,1.374-2.45,8.133 1.861,6.75z"/>
<path d="m167.549,146.702c6.06-.302 12.12-.604 18.179-.906-.825-1.992-1.65-3.983-2.475-5.975-4.641,3.909-9.282,7.817-13.922,11.726 1.95,.515 3.9,1.03 5.85,1.544-1.419-3.606-2.838-7.213-4.257-10.819-1.633-4.15-8.405-2.345-6.75,1.861 1.419,3.606 2.838,7.213 4.257,10.819 1.001,2.543 3.713,3.344 5.85,1.544 4.641-3.909 9.281-7.817 13.921-11.726 2.332-1.964 .452-6.121-2.475-5.975-6.06,.302-12.12,.604-18.179,.906-4.491,.225-4.512,7.226 .001,7.001z"/>
</g>
</svg>
