<svg xmlns="http://www.w3.org/2000/svg" viewBox="20 20 321 321">
<g fill="#fff">
<path d="m83.84,163.013c8.917,1.522 17.833,3.045 26.749,4.567 4.414,.754 6.304-5.991 1.861-6.75-8.917-1.522-17.833-3.045-26.749-4.567-4.414-.754-6.304,5.991-1.861,6.75z"/>
<path d="m84.114,172.628c8.917,1.522 17.833,3.045 26.749,4.567 4.414,.753 6.304-5.991 1.861-6.75-8.917-1.522-17.833-3.045-26.749-4.567-4.413-.753-6.304,5.992-1.861,6.75z"/>
<path d="m84.114,181.97c8.917,1.522 17.833,3.045 26.749,4.567 4.414,.754 6.304-5.991 1.861-6.75-8.917-1.522-17.833-3.045-26.749-4.567-4.413-.754-6.304,5.991-1.861,6.75z"/>
<path d="m89.808,191.941c5.004,.854 10.008,1.708 15.012,2.563 4.414,.754 6.304-5.991 1.861-6.75-5.004-.854-10.008-1.708-15.012-2.563-4.414-.753-6.304,5.992-1.861,6.75z"/>
</g>
<path fill="none" stroke="#fff" stroke-width="10" d="m120.784,137.073c0,7.544-6.116,13.66-13.66,13.66h-18.214c-7.544,0-13.66-6.116-13.66-13.66v-48.569c0-7.544 6.116-13.66 13.66-13.66h18.213c7.544,0 13.66,6.116 13.66,13.66v48.569z"/>
<g fill="#fff">
<path d="m259.833,161.667c-.127,8.03-7.06,14.84-13.688,19.554-11.971,8.514-26.208,13.684-40.146,17.933-42.171,12.854-87.284,16.447-131.165,16.514-6.448,.01-6.449,10.01 0,10 46.044-.07 93.463-4.082 137.573-18.035 14.518-4.593 29.407-10.467 41.564-19.832 8.346-6.429 15.688-15.089 15.862-26.133 .102-6.453-9.898-6.443-10-.001z"/>
<path d="m83.333,224.667c0,3.333 0,6.667 0,10 0,4.514 7,4.514 7,0 0-3.333 0-6.667 0-10 0-4.514-7-4.514-7,0z"/>
<path d="m93.833,250.667c0,3.313-2.687,6-6,6h-3c-3.313,0-6-2.687-6-6v-11c0-3.313 2.687-6 6-6h3c3.313,0 6,2.687 6,6v11z"/>
<path d="m127.333,221.667c0,3.333 0,6.667 0,10 0,4.514 7,4.514 7,0 0-3.333 0-6.667 0-10 0-4.514-7-4.514-7,0z"/>
<path d="m137.833,247.667c0,3.313-2.687,6-6,6h-3c-3.313,0-6-2.687-6-6v-11c0-3.313 2.687-6 6-6h3c3.313,0 6,2.687 6,6v11z"/>
<path d="m167.333,215.667c0,3.333 0,6.667 0,10 0,4.514 7,4.514 7,0 0-3.333 0-6.667 0-10 0-4.514-7-4.514-7,0z"/>
<path d="m177.833,241.667c0,3.313-2.687,6-6,6h-3c-3.313,0-6-2.687-6-6v-11c0-3.313 2.687-6 6-6h3c3.313,0 6,2.687 6,6v11z"/>
<path d="m208.333,206.667c0,3.333 0,6.667 0,10 0,4.514 7,4.514 7,0 0-3.333 0-6.667 0-10 0-4.514-7-4.514-7,0z"/>
<path d="m218.833,232.667c0,3.313-2.687,6-6,6h-3c-3.313,0-6-2.687-6-6v-11c0-3.313 2.687-6 6-6h3c3.313,0 6,2.687 6,6v11z"/>
<path d="m248.333,188.667c0,3.333 0,6.667 0,10 0,4.514 7,4.514 7,0 0-3.333 0-6.667 0-10 0-4.514-7-4.514-7,0z"/>
<path d="m258.833,214.667c0,3.313-2.687,6-6,6h-3c-3.313,0-6-2.687-6-6v-11c0-3.313 2.687-6 6-6h3c3.313,0 6,2.687 6,6v11z"/>
<path d="m287.409,155.167 .174-57.451-75.751,57.451z"/>
<path d="m292.409,155.167c.058-19.15 .116-38.3 .174-57.451 .011-3.45-4.397-6.688-7.523-4.317-25.251,19.15-50.501,38.3-75.751,57.451-3.729,2.828-2.879,9.317 2.523,9.317 25.192,0 50.385,0 75.577,0 6.448,0 6.448-10 0-10-25.192,0-50.385,0-75.577,0 .841,3.106 1.683,6.211 2.523,9.317 25.25-19.15 50.501-38.3 75.751-57.451-2.508-1.439-5.016-2.878-7.523-4.317-.058,19.15-.116,38.3-.174,57.451-.019,6.45 9.981,6.448 10,0z"/>
</g>
<g fill="none" stroke="#fff" stroke-width="10">
<path d="m317.634,158"/>
<path d="m291.834,152.167h-51.643c-5.831,0-10.558,2.612-10.558,5.833v122.5c0,3.222 4.727,5.834 10.558,5.834h51.643"/>
<path d="m300.134,211.846"/>
<path d="m292.583,207.167h-17.949c-3.313,0-6,2.542-6,5.679v68.143c0,3.136 2.687,5.679 6,5.679h17.2"/>
</g>
</svg>
