<svg xmlns="http://www.w3.org/2000/svg" viewBox="20 20 321 321">
<g fill="#fff">
<path d="m84.09,162.513c8.917,1.522 17.833,3.045 26.749,4.567 4.414,.754 6.304-5.991 1.861-6.75-8.917-1.522-17.833-3.045-26.749-4.567-4.414-.754-6.304,5.991-1.861,6.75z"/>
<path d="m84.364,172.128c8.917,1.522 17.833,3.045 26.749,4.567 4.414,.753 6.304-5.991 1.861-6.75-8.917-1.522-17.833-3.045-26.749-4.567-4.413-.753-6.304,5.992-1.861,6.75z"/>
<path d="m84.364,181.47c8.917,1.522 17.833,3.045 26.749,4.567 4.414,.754 6.304-5.991 1.861-6.75-8.917-1.522-17.833-3.045-26.749-4.567-4.413-.754-6.304,5.991-1.861,6.75z"/>
<path d="m90.058,191.441c5.004,.854 10.008,1.708 15.012,2.563 4.414,.754 6.304-5.991 1.861-6.75-5.004-.854-10.008-1.708-15.012-2.563-4.414-.753-6.304,5.992-1.861,6.75z"/>
</g>
<path fill="none" stroke="#fff" stroke-width="10" d="m121.034,136.573c0,7.544-6.116,13.66-13.66,13.66h-18.214c-7.544,0-13.66-6.116-13.66-13.66v-48.569c0-7.544 6.116-13.66 13.66-13.66h18.213c7.544,0 13.66,6.116 13.66,13.66v48.569z"/>
<g fill="#fff">
<path d="m284.833,276.248c-.384,3.329-6.938,2.169-8.774,2.169-5.884,0-11.768,0-17.651,0-16,0-32,0-48,0-10.266,0-20.531,0-30.797,0-4.616,0-2.777-11.128-2.777-13.571 0-55.082 0-110.166 0-165.249 0-4.129-1.648-10.68 4.209-10.68 11.675,0 23.35,0 35.024,0 15.771,0 31.541,0 47.312,0 5.155,0 10.31,0 15.464,0 1.757,0 5.991-.733 5.991,2.424 0,51.36 0,102.72 0,154.08-.001,10.275-.001,20.552-.001,30.827 0,4.514 7,4.514 7,0 0-49.871 0-99.741 0-149.612 0-10.098 0-20.195 0-30.293 0-7.021-.985-14.426-10.164-14.426-26.703,0-53.405,0-80.108,0-5.651,0-11.303,0-16.955,0-2.991,0-6.17-.32-9.027,.701-7.425,2.654-5.746,12.7-5.746,18.865 0,27.728 0,55.455 0,83.183 0,27.383 0,54.766 0,82.149 0,6.678-1.503,17.372 7.87,18.452 8.344,.961 17.175,.149 25.557,.149 18.948,0 37.897,0 56.846,0 6.378,0 12.756,0 19.134,0 6.347,0 11.742-1.774 12.594-9.169 .515-4.478-6.49-4.429-7.001,.001z"/>
<path d="m180.583,291.417c4.333,0 8.667,0 13,0 6.448,0 6.448-10 0-10-4.333,0-8.667,0-13,0-6.449,0-6.449,10 0,10z"/>
<path d="m269.333,291.417c4.333,0 8.667,0 13,0 6.448,0 6.448-10 0-10-4.333,0-8.667,0-13,0-6.448,0-6.448,10 0,10z"/>
<path d="m227.333,88c0,43.667 0,87.333 0,131 0,4.514 7,4.514 7,0 0-43.667 0-87.333 0-131 0-4.514-7-4.514-7,0z"/>
<path d="m173.333,223.834c38.333,0 76.667,0 115,0 4.514,0 4.514-7 0-7-38.333,0-76.667,0-115,0-4.514,0-4.514,7 0,7z"/>
<path d="m173.333,254.834c38.333,0 76.667,0 115,0 4.514,0 4.514-7 0-7-38.333,0-76.667,0-115,0-4.514,0-4.514,7 0,7z"/>
<path d="m258.083,233.5c5.944,0 11.889,0 17.833,0 1.935,0 1.935-3 0-3-5.944,0-11.889,0-17.833,0-1.935,0-1.935,3-0,3z"/>
<path d="m185.75,233.5c5.944,0 11.888,0 17.832,0 1.935,0 1.935-3 0-3-5.944,0-11.888,0-17.832,0-1.935,0-1.935,3 0,3z"/>
<path d="m258.084,264.834c5.944,0 11.888,0 17.832,0 1.935,0 1.935-3 0-3-5.944,0-11.888,0-17.832,0-1.935,0-1.935,3 0,3z"/>
<path d="m185.75,264.834c5.944,0 11.889,0 17.833,0 1.935,0 1.935-3 0-3-5.944,0-11.889,0-17.833,0-1.935,0-1.935,3 0,3z"/>
<path d="m173.333,176.167c38.333,0 76.667,0 115,0 1.935,0 1.935-3 0-3-38.333,0-76.667,0-115,0-1.935,0-1.935,3 0,3z"/>
<path d="m173.333,130.167c38.333,0 76.667,0 115,0 1.935,0 1.935-3 0-3-38.333,0-76.667,0-115,0-1.935,0-1.935,3 0,3z"/>
<path d="m224,167.167c0,5 0,10 0,15 0,4.514 7,4.514 7,0 0-5 0-10 0-15 0-4.514-7-4.514-7,0z"/>
<path d="m230.666,167.167c0,5 0,10 0,15 0,4.514 7,4.514 7,0 0-5 0-10 0-15 0-4.514-7-4.514-7,0z"/>
</g>
</svg>
