<svg xmlns="http://www.w3.org/2000/svg" viewBox="20 20 321 321">
<path fill="none" stroke="#fff" stroke-width="10" d="m219.124,90.74c0,1.566-1.271,2.835-2.837,2.835h-70.909c-1.567,0-2.836-1.27-2.836-2.835v-13.237c0-1.566 1.27-2.836 2.836-2.836h70.909c1.566,0 2.837,1.271 2.837,2.836v13.237z"/>
<g fill="#fff">
<path d="m205.119,131.934c-14.072,13.541-35.831,13.54-49.903,0-1.394-1.341-3.518,.778-2.121,2.121 15.253,14.677 38.892,14.678 54.145,0 1.397-1.344-.727-3.463-2.121-2.121z"/>
<path d="m288.168,244.826c-28.385,28.117-66.507,44.061-106.466,44.418-40.293,.359-79.307-16.155-107.839-44.418-1.375-1.362-3.497,.759-2.121,2.121 28.937,28.664 67.849,44.933 108.586,45.297 41.067,.366 80.882-16.493 109.96-45.297 1.377-1.362-.745-3.483-2.12-2.121z"/>
<path d="m205.583,93.576c-.327,13.741-11.01,24.423-24.75,24.75-13.74,.327-24.435-11.502-24.75-24.75-.107-4.506-7.107-4.517-7,0 .418,17.588 14.162,31.332 31.75,31.75 17.586,.418 31.347-14.791 31.75-31.75 .107-4.517-6.893-4.507-7,0z"/>
<path d="m193.512,97.804c-.163,7.441-3.531,17.934-12.465,18.328-1.927,.085-1.935,3.085 0,3 10.699-.472 15.263-12.096 15.465-21.328 .042-1.936-2.958-1.932-3,0z"/>
<path d="m164.821,97.804c.222,9.605 5.33,20.872 16.226,21.328 1.936,.081 1.928-2.919 0-3-9.165-.383-13.045-10.482-13.226-18.328-.045-1.932-3.045-1.936-3,0z"/>
<path d="m179.333,97.804c0,6.613 0,13.226 0,19.838 0,1.935 3,1.935 3,0 0-6.613 0-13.226 0-19.838 0-1.935-3-1.935-3,0z"/>
<path d="m152.86,132.237c-26.971,37.427-53.942,74.854-80.913,112.282-.146,.203-.293,.407-.44,.61-1.133,1.572 1.471,3.067 2.591,1.514 26.971-37.428 53.942-74.855 80.913-112.282 .146-.204 .293-.407 .44-.61 1.133-1.573-1.471-3.068-2.591-1.514z"/>
<path d="m205.119,134.055c10.106,12.88 20.214,25.759 30.32,38.639 1.193,1.521 3.301-.618 2.121-2.121-10.106-12.88-20.214-25.759-30.32-38.639-1.193-1.521-3.301,.617-2.121,2.121z"/>
<path d="m277.594,233.471c3.524,4.492 7.05,8.984 10.574,13.477 1.193,1.521 3.301-.618 2.121-2.121-3.524-4.492-7.05-8.984-10.574-13.477-1.194-1.522-3.301,.618-2.121,2.121z"/>
<path d="m276.033,227.524c-.264,21.84-14.327,41.07-35.273,47.551-20.997,6.497-44.063-2.393-55.993-20.611-12.03-18.37-9.941-43.151 4.399-59.6 14.372-16.485 38.711-21.485 58.468-12.16 17.335,8.183 28.17,25.791 28.399,44.82 .117,9.678 15.12,9.774 15.004,.107-.285-23.601-12.93-45.152-33.556-56.708-20.663-11.576-46.938-10.132-66.614,2.754-19.622,12.85-30.717,36.129-28.741,59.425 1.966,23.186 16.774,44.003 38.044,53.442 20.025,8.888 43.533,6.932 61.856-5.067 18.09-11.847 28.75-32.366 29.01-53.847 .118-9.69-14.886-9.764-15.003-.106z"/>
<path d="m191.411,273.221c26.912-26.912 53.824-53.824 80.737-80.736 6.835-6.835-3.813-17.403-10.666-10.551-26.912,26.912-53.824,53.824-80.737,80.736-6.835,6.835 3.813,17.403 10.666,10.551z"/>
</g>
</svg>
