<svg xmlns="http://www.w3.org/2000/svg" viewBox="20 20 321 321">
<path fill="none" stroke="#fff" stroke-width="10" d="m206.318,102.999c-1.514-1.514-3.123-2.357-3.596-1.886l-14.827,14.828c-.472,.472 .372,2.083 1.886,3.596l53.437,53.438c1.513,1.513 3.123,2.357 3.596,1.884l14.827-14.828c.473-.472-.371-2.082-1.885-3.595l-53.438-53.437z"/>
<g fill="#fff">
<path d="m279.525,170.471c4.263-31.914 8.526-63.828 12.789-95.742 .329-2.463-2.537-5.329-5-5-31.914,4.264-63.828,8.527-95.742,12.791-4.077,.545-6.935,5.137-3.535,8.536 27.65,27.65 55.302,55.301 82.953,82.952 4.563,4.563 11.635-2.507 7.07-7.071-27.65-27.65-55.302-55.301-82.953-82.952-1.178,2.845-2.356,5.69-3.535,8.536 31.914-4.264 63.828-8.527 95.742-12.791-1.667-1.667-3.333-3.333-5-5-4.263,31.914-8.526,63.828-12.789,95.742-.851,6.376 9.16,6.294 10-.001z"/>
<path d="m70.688,185.333c0,33.778 0,67.556 0,101.334 0,6.448 10,6.448 10,0 0-33.778 0-67.556 0-101.334 0-6.449-10-6.449-10-0z"/>
<path d="m285.835,281.667c-48.661,0-97.322,0-145.983,0-21.388,0-42.776,0-64.164,0-6.449,0-6.449,10 0,10 48.661,0 97.322,0 145.983,0 21.388,0 42.776,0 64.164,0 6.448,0 6.448-10 0-10z"/>
<path d="m81.184,248.683c20.486-10.118 40.973-20.235 61.459-30.354 5.782-2.855 .713-11.479-5.047-8.635-20.486,10.118-40.973,20.235-61.459,30.354-5.782,2.855-.713,11.479 5.047,8.635z"/>
<path d="m138.971,217.508c11.805,7.319 23.609,14.639 35.414,21.958 5.497,3.408 10.514-5.245 5.047-8.635-11.805-7.319-23.609-14.639-35.414-21.958-5.497-3.408-10.514,5.245-5.047,8.635z"/>
<path d="m191.8,223.944c3.305,8.843 6.61,17.687 9.915,26.529 2.236,5.983 11.905,3.395 9.643-2.658-3.305-8.843-6.61-17.687-9.915-26.529-2.237-5.983-11.906-3.394-9.643,2.658z"/>
<path d="m209.06,253.462c14.466-10.674 28.931-21.349 43.396-32.022 5.129-3.784 .149-12.47-5.047-8.635-14.465,10.674-28.931,21.349-43.396,32.022-5.129,3.784-.15,12.47 5.047,8.635z"/>
<path d="m179.432,239.466c6.571-4.178 13.142-8.355 19.712-12.533 5.424-3.448 .412-12.105-5.047-8.635-6.571,4.178-13.142,8.355-19.712,12.533-5.424,3.448-.412,12.106 5.047,8.635z"/>
<path d="m248.603,221.943c12.016,2.849 24.032,5.696 36.048,8.545 6.271,1.486 8.932-8.155 2.658-9.643-12.016-2.849-24.032-5.696-36.048-8.545-6.271-1.486-8.932,8.156-2.658,9.643z"/>
</g>
</svg>
