<svg xmlns="http://www.w3.org/2000/svg" viewBox="20 20 321 321">
<path fill="none" stroke="#fff" stroke-width="10" d="m219.124,90.74c0,1.566-1.271,2.835-2.837,2.835h-70.909c-1.567,0-2.836-1.27-2.836-2.835v-13.237c0-1.566 1.27-2.836 2.836-2.836h70.909c1.566,0 2.837,1.271 2.837,2.836v13.237z"/>
<g fill="#fff">
<path d="m205.119,131.934c-14.072,13.541-35.831,13.54-49.903,0-1.394-1.341-3.518,.778-2.121,2.121 15.253,14.677 38.892,14.678 54.145,0 1.397-1.344-.727-3.463-2.121-2.121z"/>
<path d="m176.84,288.75c-38.709-1.243-75.401-16.652-102.977-43.924-1.376-1.361-3.498,.76-2.121,2.121 28.138,27.828 65.604,43.534 105.098,44.803 1.935,.063 1.93-2.938 0-3z"/>
<path d="m205.583,93.576c-.327,13.741-11.01,24.423-24.75,24.75-13.74,.327-24.435-11.502-24.75-24.75-.107-4.506-7.107-4.517-7,0 .418,17.588 14.162,31.332 31.75,31.75 17.586,.418 31.347-14.791 31.75-31.75 .107-4.517-6.893-4.507-7,0z"/>
<path d="m193.512,97.804c-.163,7.441-3.531,17.934-12.465,18.328-1.927,.085-1.935,3.085 0,3 10.699-.472 15.263-12.096 15.465-21.328 .042-1.936-2.958-1.932-3,0z"/>
<path d="m164.821,97.804c.222,9.605 5.33,20.872 16.226,21.328 1.936,.081 1.928-2.919 0-3-9.165-.383-13.045-10.482-13.226-18.328-.045-1.932-3.045-1.936-3,0z"/>
<path d="m179.333,97.804c0,6.613 0,13.226 0,19.838 0,1.935 3,1.935 3,0 0-6.613 0-13.226 0-19.838 0-1.935-3-1.935-3,0z"/>
<path d="m152.86,132.237c-26.971,37.427-53.942,74.854-80.913,112.282-.146,.203-.293,.407-.44,.61-1.133,1.572 1.471,3.067 2.591,1.514 26.971-37.428 53.942-74.855 80.913-112.282 .146-.204 .293-.407 .44-.61 1.133-1.573-1.471-3.068-2.591-1.514z"/>
<path d="m205.119,134.055c.705,.899 1.41,1.797 2.115,2.696 .506,.645 1.596,.526 2.121,0 .63-.629 .504-1.479 0-2.121-.705-.899-1.41-1.797-2.115-2.696-.506-.645-1.596-.526-2.121,0-.63,.629-.504,1.478 0,2.121z"/>
</g>
<g fill="none" stroke="#fff" stroke-width="3">
<path d="m266.212,276.662c0,7.662-6.244,13.87-13.945,13.87h-31.537c-7.701,0-13.943-6.208-13.943-13.87v-69.627c0-7.66 6.242-13.868 13.943-13.868h31.536c7.701,0 13.945,6.208 13.945,13.868v69.627z"/>
<path d="m274.746,204.99c0,16.305 0,60.795 0,77.101 0,11.123 15.607,11.123 15.607,0 0-16.306 0-60.796 0-77.101 .001-11.123-15.607-11.123-15.607,0z"/>
<path d="m182.473,204.99c0,16.305 0,60.795 0,77.101 0,11.123 15.607,11.123 15.607,0 0-16.306 0-60.796 0-77.101 0-11.123-15.607-11.123-15.607,0z"/>
<circle cx="236.5" cy="156.564" r="28"/>
</g>
</svg>
