<svg xmlns="http://www.w3.org/2000/svg" viewBox="20 20 321 321">
<path fill="none" stroke="#fff" stroke-width="10" d="m74.622,99.285c3.311,15.667 9.358,33.123 14.437,47.916 3.022,8.803 16.089,39.094 19.039,45.906h-.002c0,0 .104,.241 .298,.686 .193,.445 .298,.686 .298,.686h.002c2.967,6.803 16.196,37.024 20.569,45.241 7.35,13.806 15.985,30.136 25.18,43.246 1.842,2.627 4.33,4.511 6.79,3.442l35.834-15.572c2.459-1.069 3.406-4.342 2.116-7.313l-17.526-40.331c-6.233-11.243-18.702-2.153-26.258-5.846-2.563-1.253-4.453-6.05-5.695-8.907-2.748-6.323-9.158-21.073-11.484-26.426-.542-1.249-.864-1.988-.864-1.988-2.326-5.353-8.736-20.103-11.484-26.426-1.241-2.857-3.458-7.513-2.626-10.24 2.457-8.043 17.61-10.957 13.643-23.185l-17.526-40.332c-1.291-2.97-4.331-4.51-6.79-3.442l-35.835,15.573c-2.46,1.069-2.78,4.173-2.116,7.312z"/>
<g fill="#fff">
<path d="m205.662,82.633c1.291-.498 2.549-1.139 3.773-1.921 1.225-.782 2.346-1.762 3.365-2.941h2.244v23.562h-3.162v-19.175c-.271,.25-.605,.51-1.002,.782s-.828,.533-1.293,.782-.951,.487-1.461,.714-1.004,.419-1.479,.578l-.985-2.381z"/>
<path d="m250.303,83.79c0,.816-.164,1.604-.493,2.363-.329,.76-.765,1.508-1.309,2.244-.544,.737-1.156,1.462-1.836,2.176-.681,.714-1.36,1.411-2.04,2.091-.386,.386-.833,.839-1.344,1.36-.51,.522-.991,1.066-1.444,1.632-.454,.567-.833,1.111-1.14,1.632-.306,.521-.459,.975-.459,1.36h10.847v2.686h-14.28c-.023-.136-.033-.272-.033-.408 0-.136 0-.26 0-.374 0-1.065 .175-2.057 .526-2.975 .351-.918 .81-1.785 1.377-2.601 .566-.816 1.201-1.586 1.903-2.312 .703-.725 1.395-1.428 2.074-2.108 .566-.544 1.105-1.083 1.615-1.615 .51-.532 .963-1.065 1.36-1.598 .396-.532 .714-1.082 .952-1.649 .238-.566 .357-1.167 .357-1.802 0-.68-.108-1.258-.324-1.734-.215-.476-.504-.873-.867-1.19-.362-.317-.787-.549-1.274-.697-.487-.147-1.003-.221-1.547-.221-.657,0-1.258,.091-1.802,.272-.545,.182-1.031,.391-1.463,.629-.43,.238-.793,.487-1.088,.748s-.521,.459-.68,.595l-1.564-2.244c.205-.226 .511-.504 .918-.833 .408-.328 .896-.64 1.463-.935s1.201-.544 1.904-.748c.701-.204 1.461-.306 2.277-.306 2.471,0 4.324,.573 5.559,1.717 1.238,1.144 1.855,2.759 1.855,4.845z"/>
<path d="m274.034,99.021c2.017,0 3.462-.396 4.335-1.19 .872-.793 1.309-1.858 1.309-3.196 0-.861-.182-1.586-.543-2.176-.363-.589-.84-1.059-1.429-1.411-.59-.351-1.274-.6-2.058-.748-.781-.147-1.58-.221-2.396-.221h-.816v-2.584h1.123c.566,0 1.15-.057 1.75-.17 .601-.113 1.15-.317 1.649-.612 .499-.294 .906-.697 1.224-1.207 .317-.51 .477-1.15 .477-1.921 0-.634-.113-1.178-.34-1.632-.227-.453-.527-.827-.901-1.122-.374-.294-.805-.504-1.292-.629-.488-.125-1.003-.187-1.547-.187-1.088,0-2.012,.159-2.771,.476s-1.399,.646-1.92,.986l-1.225-2.414c.271-.181 .617-.379 1.037-.595 .419-.215 .889-.413 1.41-.595 .521-.181 1.083-.334 1.684-.459 .601-.125 1.229-.187 1.887-.187 1.246,0 2.324,.153 3.23,.459s1.654,.737 2.244,1.292c.589,.556 1.031,1.213 1.326,1.972 .294,.759 .441,1.581 .441,2.465 0,1.224-.352,2.272-1.054,3.145-.703,.873-1.553,1.536-2.55,1.989 .611,.182 1.201,.442 1.768,.782s1.06,.771 1.479,1.292c.42,.521 .76,1.122 1.021,1.802 .261,.68 .392,1.44 .392,2.278 0,1.02-.176,1.967-.527,2.839-.352,.873-.896,1.626-1.633,2.261s-1.66,1.133-2.771,1.496-2.425,.544-3.944,.544c-.59,0-1.195-.045-1.818-.136-.624-.091-1.207-.204-1.751-.34-.544-.136-1.021-.272-1.429-.408-.407-.136-.702-.249-.883-.34l.611-2.754c.385,.182 1.025,.419 1.921,.714 .894,.296 1.988,.442 3.28,.442z"/>
<path d="m203.859,127.173c.431-.997 1.02-2.159 1.768-3.485s1.593-2.691 2.533-4.097c.94-1.405 1.949-2.788 3.026-4.148 1.076-1.36 2.159-2.584 3.247-3.672h3.025v14.96h2.789v2.584h-2.789v6.018h-3.06v-6.018h-10.54v-2.142zm10.541-11.661c-.68,.726-1.366,1.536-2.058,2.431-.691,.896-1.365,1.831-2.022,2.805s-1.274,1.972-1.853,2.992c-.578,1.02-1.094,2.018-1.547,2.992h7.479v-11.22z"/>
<path d="m241.191,120.85c3.422,.136 5.933,.884 7.53,2.244 1.599,1.36 2.397,3.208 2.397,5.542 0,1.043-.176,2.006-.527,2.89-.352,.884-.884,1.644-1.598,2.278-.715,.635-1.615,1.133-2.703,1.496s-2.381,.544-3.876,.544c-.59,0-1.19-.045-1.802-.136-.612-.091-1.18-.204-1.701-.34-.521-.136-.985-.272-1.393-.408-.408-.136-.703-.249-.885-.34l.611-2.754c.386,.182 1.015,.419 1.888,.714 .872,.295 1.943,.442 3.213,.442 1.021,0 1.876-.113 2.567-.34s1.252-.532 1.683-.918c.431-.385 .742-.833 .935-1.343 .193-.51 .289-1.048 .289-1.615 0-.861-.146-1.626-.441-2.295-.295-.668-.816-1.229-1.564-1.683-.748-.453-1.745-.799-2.992-1.037-1.246-.238-2.821-.357-4.726-.357 .136-1.11 .243-2.153 .323-3.128 .079-.975 .152-1.926 .221-2.856 .068-.929 .125-1.853 .17-2.771 .045-.918 .09-1.887 .137-2.907h11.355v2.686h-8.602c-.023,.34-.057,.799-.103,1.377s-.091,1.179-.136,1.802c-.046,.624-.091,1.229-.137,1.819-.043,.589-.088,1.053-.133,1.394z"/>
<path d="m268.492,125.881c0-2.289 .316-4.312 .952-6.069 .634-1.756 1.535-3.235 2.702-4.437 1.168-1.201 2.584-2.113 4.25-2.737s3.542-.946 5.627-.969l.238,2.652c-1.338,.023-2.556,.17-3.654,.442-1.1,.272-2.08,.703-2.941,1.292s-1.587,1.354-2.176,2.295c-.59,.941-1.031,2.103-1.326,3.485 .59-.272 1.252-.498 1.989-.68 .736-.181 1.501-.272 2.295-.272 1.337,0 2.47,.204 3.399,.612 .93,.408 1.689,.947 2.278,1.615 .589,.669 1.015,1.44 1.274,2.312 .262,.873 .392,1.785 .392,2.737 0,.861-.147,1.746-.442,2.652-.295,.907-.742,1.734-1.342,2.482-.602,.748-1.367,1.36-2.296,1.836-.93,.476-2.028,.714-3.298,.714-2.584,0-4.551-.884-5.898-2.652-1.349-1.768-2.023-4.204-2.023-7.31zm7.615-2.414c-.793,0-1.529,.074-2.209,.221-.68,.148-1.36,.369-2.041,.663-.021,.25-.039,.504-.051,.765s-.017,.516-.017,.765c0,.998 .067,1.938 .204,2.822 .136,.884 .379,1.661 .73,2.329s.822,1.202 1.412,1.598c.588,.397 1.336,.595 2.243,.595 .748,0 1.382-.158 1.904-.476 .521-.317 .952-.725 1.292-1.224 .34-.498 .583-1.037 .73-1.615 .147-.578 .222-1.139 .222-1.683 0-1.541-.369-2.72-1.104-3.536-.736-.816-1.841-1.224-3.315-1.224z"/>
<path d="m208.041,169.333c.137-1.813 .459-3.723 .97-5.729 .51-2.006 1.139-3.955 1.887-5.848 .748-1.892 1.569-3.649 2.465-5.27 .896-1.62 1.773-2.941 2.636-3.961h-11.459v-2.754h14.994v2.618c-.748,.861-1.575,2.046-2.482,3.553-.906,1.508-1.762,3.196-2.566,5.066-.805,1.87-1.496,3.865-2.074,5.984-.578,2.12-.935,4.233-1.07,6.341h-3.301z"/>
<path d="m251.73,163.213c0,.952-.164,1.831-.492,2.635-.329,.805-.816,1.507-1.463,2.108-.646,.601-1.456,1.065-2.431,1.394-.975,.328-2.097,.493-3.366,.493-1.474,0-2.703-.209-3.688-.629-.986-.419-1.774-.946-2.363-1.581-.59-.634-1.009-1.331-1.258-2.091-.25-.759-.374-1.479-.374-2.159 0-.657 .107-1.286 .322-1.887 .216-.601 .499-1.162 .851-1.683 .351-.521 .759-.991 1.224-1.411 .465-.419 .957-.787 1.479-1.105-2.222-1.269-3.332-3.139-3.332-5.61 0-.861 .17-1.683 .51-2.465 .341-.782 .821-1.467 1.445-2.057 .623-.589 1.377-1.06 2.261-1.411 .885-.351 1.87-.527 2.958-.527 1.269,0 2.357,.193 3.265,.578 .906,.386 1.648,.878 2.227,1.479s.997,1.264 1.258,1.989c.26,.726 .391,1.428 .391,2.108 0,.658-.096,1.275-.289,1.853-.192,.578-.453,1.117-.781,1.615-.329,.499-.703,.941-1.122,1.326-.42,.386-.856,.726-1.31,1.02 2.673,1.27 4.034,3.276 4.078,6.018zm-12.24,.204c0,.408 .074,.833 .222,1.275s.401,.85 .765,1.224 .828,.686 1.395,.935c.566,.25 1.279,.374 2.142,.374 .771,0 1.445-.113 2.022-.34 .578-.226 1.049-.515 1.412-.867 .361-.351 .634-.753 .815-1.207 .181-.453 .272-.918 .272-1.394 0-.725-.137-1.36-.408-1.904s-.663-1.02-1.174-1.428c-.51-.408-1.121-.753-1.836-1.037-.713-.283-1.523-.527-2.43-.731-1.021,.567-1.809,1.27-2.363,2.108-.556,.839-.834,1.837-.834,2.992zm8.5-12.069c0-.34-.073-.714-.221-1.122-.147-.408-.379-.788-.697-1.139-.317-.351-.725-.646-1.224-.884-.499-.238-1.11-.357-1.836-.357s-1.343,.113-1.853,.34-.924,.516-1.241,.867-.55,.737-.697,1.156c-.147,.42-.221,.833-.221,1.241 0,.499 .091,.998 .272,1.496 .181,.499 .464,.964 .85,1.394 .385,.431 .889,.816 1.513,1.156 .623,.34 1.365,.612 2.228,.816 .951-.566 1.711-1.229 2.277-1.989 .567-.76 .85-1.752 .85-2.975z"/>
<path d="m283.385,155.189c0,4.67-1.162,8.2-3.486,10.591-2.323,2.392-5.773,3.598-10.353,3.621l-.102-2.652c1.428,0 2.714-.136 3.858-.408s2.147-.708 3.01-1.309c.861-.601 1.58-1.377 2.158-2.329 .578-.952 1.004-2.119 1.275-3.502-.59,.272-1.258,.493-2.006,.663-.748,.17-1.52,.255-2.313,.255-1.338,0-2.471-.198-3.399-.595-.93-.396-1.688-.929-2.278-1.598-.59-.668-1.015-1.439-1.275-2.312-.26-.872-.391-1.785-.391-2.737 0-.838 .147-1.711 .441-2.618 .295-.906 .742-1.734 1.344-2.482 .6-.748 1.365-1.36 2.295-1.836s2.028-.714 3.298-.714c1.292,0 2.431,.227 3.417,.68s1.813,1.111 2.482,1.972c.668,.862 1.173,1.91 1.513,3.145 .341,1.236 .512,2.624 .512,4.165zm-7.617,2.347c.793,0 1.541-.073 2.244-.221 .703-.147 1.383-.368 2.041-.663 .021-.249 .033-.493 .033-.731 0-.238 0-.481 0-.731 0-.974-.068-1.909-.203-2.805-.137-.895-.381-1.677-.732-2.346-.352-.668-.821-1.201-1.41-1.598-.59-.396-1.338-.595-2.244-.595-.748,0-1.383,.159-1.904,.476-.521,.318-.951,.72-1.291,1.207-.341,.488-.584,1.02-.731,1.598s-.222,1.139-.222,1.683c0,1.542 .369,2.715 1.105,3.519 .735,.804 1.841,1.207 3.314,1.207z"/>
<path d="m212.189,180.043c0,.952-.085,1.865-.255,2.737-.17,.873-.346,1.774-.526,2.703 .815-.453 1.619-.896 2.413-1.325 .794-.432 1.654-.805 2.584-1.123l.204-.068 .952,2.857-.272,.102c-.906,.34-1.813,.561-2.72,.662-.907,.103-1.836,.188-2.788,.256 .748,.635 1.451,1.252 2.108,1.853s1.269,1.298 1.836,2.091l.17,.238-2.481,1.734-.137-.204c-.544-.816-1.015-1.626-1.41-2.431-.397-.805-.8-1.638-1.207-2.5-.408,.862-.812,1.695-1.207,2.5-.397,.805-.867,1.614-1.412,2.431l-.136,.204-2.481-1.734 .17-.238c.566-.793 1.178-1.49 1.836-2.091 .656-.601 1.359-1.218 2.107-1.853-.951-.068-1.881-.153-2.787-.256-.907-.102-1.814-.322-2.721-.662l-.271-.102 .951-2.857 .205,.068c.929,.318 1.789,.691 2.584,1.123 .793,.43 1.598,.872 2.414,1.325-.182-.929-.357-1.83-.527-2.703-.17-.872-.256-1.785-.256-2.737v-.272h3.061v.272z"/>
<path d="m233.27,191.535c0-3.943 .696-6.98 2.09-9.111 1.395-2.131 3.326-3.196 5.797-3.196s4.404,1.065 5.797,3.196c1.395,2.131 2.092,5.168 2.092,9.111 0,3.944-.697,6.982-2.092,9.112-1.393,2.131-3.326,3.196-5.797,3.196s-4.402-1.065-5.797-3.196c-1.394-2.129-2.09-5.168-2.09-9.112zm12.443,0c0-1.291-.074-2.516-.221-3.672-.148-1.156-.396-2.164-.748-3.025s-.822-1.547-1.411-2.058c-.59-.51-1.315-.765-2.177-.765s-1.586,.255-2.176,.765c-.59,.511-1.06,1.196-1.41,2.058-.352,.861-.602,1.869-.748,3.025-.148,1.156-.221,2.381-.221,3.672 0,1.293 .072,2.516 .221,3.672 .146,1.156 .396,2.166 .748,3.026 .351,.862 .82,1.547 1.41,2.058 .59,.51 1.314,.765 2.176,.765s1.587-.255 2.177-.765c.589-.511 1.06-1.195 1.411-2.058 .352-.86 .6-1.87 .748-3.026 .147-1.156 .221-2.379 .221-3.672z"/>
<path d="m273.15,185.994h5.508l1.189-6.223h2.856l-1.19,6.223h2.992v2.516h-3.502l-1.156,6.086h4.658v2.516h-5.134l-1.19,6.223h-2.855l1.189-6.223h-5.508l-1.189,6.223h-2.856l1.19-6.223h-2.992v-2.516h3.468l1.156-6.086h-4.624v-2.516h5.134l1.19-6.223h2.855l-1.189,6.223zm-1.666,8.602h5.508l1.189-6.086h-5.508l-1.189,6.086z"/>
<path d="m289.366,202.999c-.629,5.338-8.792,3.87-11.919,3.87-6.699,0-13.398,0-20.098,0-15.17,0-30.34,0-45.509,0-3.261,0-6.521,0-9.782,0-5.006,0-4.059-5.882-4.059-8.593 0-12.063 0-24.127 0-36.19 0-27.392 0-54.784 0-82.175 0-2.952 .174-6.744 4.739-6.744 4.22,0 8.438,0 12.658,0 15.523,0 31.048,0 46.571,0 6.095,0 12.189,0 18.285,0 2.829,0 9.112-.987 9.112,4.13 0,8.511 0,17.022 0,25.533 0,29.802 0,59.604 0,89.407 .002,3.587 .002,7.174 .002,10.762 0,1.935 3,1.935 3,0 0-22.824 0-45.649 0-68.473 0-14.537 0-29.075 0-43.612 0-6.427 2.38-17.858-5.338-20.552-2.543-.888-6.389-.195-8.979-.195-6.586,0-13.173,0-19.76,0-15.257,0-30.514,0-45.771,0-6.494,0-17.518-1.91-17.518,7.7 0,9.444 0,18.888 0,28.332 0,29.429 0,58.858 0,88.287 0,6.241-1.324,15.384 7.739,15.384 11.669,0 23.338,0 35.006,0 12.367,0 24.735,0 37.103,0 6.396,0 16.48,1.937 17.519-6.87 .226-1.92-2.777-1.898-3.001-.001z"/>
<path d="m196.5,107.833c31.455,0 62.911,0 94.366,0 1.935,0 1.935-3 0-3-31.455,0-62.911,0-94.366,0-1.935,0-1.935,3 0,3z"/>
<path d="m196.5,141.518c31.111,0 62.222,0 93.333,0 1.935,0 1.935-3 0-3-31.111,0-62.222,0-93.333,0-1.935,0-1.935,3 0,3z"/>
<path d="m196.5,177.167c31.455,0 62.911,0 94.366,0 1.935,0 1.935-3 0-3-31.455,0-62.911,0-94.366,0-1.935,0-1.935,3 0,3z"/>
<path d="m225.583,71.667c0,45.454 0,90.907 0,136.361 0,.113 0,.228 0,.341 0,1.935 3,1.935 3,0 0-45.454 0-90.907 0-136.361 0-.114 0-.228 0-.341 0-1.935-3-1.935-3-0z"/>
<path d="m259.333,71.667c0,45.454 0,90.907 0,136.361 0,.113 0,.228 0,.341 0,1.935 3,1.935 3,0 0-45.454 0-90.907 0-136.361 0-.114 0-.228 0-.341 0-1.935-3-1.935-3-0z"/>
</g>
</svg>
