<svg xmlns="http://www.w3.org/2000/svg" viewBox="20 20 321 321">
<path fill="none" stroke="#fff" stroke-width="10" d="m280.971,237.693c-15.689-3.207-34.107-4.618-49.699-5.856-9.279-.736-42.269-.825-49.691-.835v-.002c0,0-.262,0-.747,.001-.486-.001-.749-.001-.749-.001v.002c-7.422,.01-40.412,.099-49.69,.835-15.592,1.238-34.01,2.649-49.7,5.856-3.143,.643-5.862,2.174-5.862,4.855v39.072c0,2.682 2.625,4.855 5.862,4.855h43.976c12.796-1.235 9.428-16.295 15.826-21.753 2.17-1.851 7.323-1.673 10.438-1.673 6.895,0 22.978,0 28.814,0 1.361,0 2.167,0 2.167,0 5.837,0 21.92,0 28.814,0 3.115,0 8.269-.178 10.438,1.673 6.397,5.458 3.03,20.518 15.826,21.753h43.976c3.238,0 5.862-2.174 5.862-4.855v-39.072c.001-2.681-2.719-4.212-5.861-4.855z"/>
<g fill="#fff">
<path d="m148.295,79.499c-24.414-3.261-48.828-6.522-73.242-9.784-2.463-.329-5.329,2.537-5,5 3.261,24.414 6.522,48.829 9.784,73.243 .544,4.077 5.137,6.935 8.536,3.536 21.153-21.153 42.306-42.306 63.458-63.459 4.563-4.564-2.507-11.635-7.071-7.071-21.153,21.153-42.306,42.306-63.458,63.459 2.845,1.179 5.69,2.357 8.536,3.536-3.261-24.414-6.522-48.829-9.784-73.243-1.667,1.667-3.333,3.333-5,5 24.414,3.261 48.828,6.522 73.242,9.784 6.376,.851 6.294-9.16-.001-10.001z"/>
<path d="m212.671,196.644c1.722,2.385-5.324,7.424-6.846,8.945-2.685,2.686-5.37,5.371-8.055,8.057-.938,.938-14.68-13.752-16.336-15.408-.938-.938 13.752-14.677 15.408-16.333 .938-.938 14.709,13.78 16.376,15.447 3.194,3.195 8.145-1.755 4.949-4.949-3.611-3.612-7.223-7.224-10.835-10.835-4.032-4.033-8.587-9.613-14.689-5.202-4.26,3.078-7.839,7.677-11.545,11.382-4.033,4.033-9.612,8.585-5.203,14.689 3.077,4.26 7.678,7.84 11.383,11.545 4.034,4.034 8.585,9.61 14.69,5.203 4.26-3.076 7.839-7.68 11.543-11.384 4.035-4.035 9.609-8.584 5.203-14.69-2.613-3.624-8.69-.135-6.043,3.533z"/>
<path d="m248.027,161.289c1.723,2.385-5.325,7.425-6.846,8.946-2.686,2.685-5.371,5.37-8.056,8.056-.939,.939-14.679-13.751-16.335-15.408-.938-.938 13.75-14.678 15.405-16.334 .939-.939 14.711,13.782 16.379,15.45 3.194,3.194 8.144-1.755 4.949-4.95-3.611-3.612-7.224-7.224-10.835-10.835-4.036-4.036-8.584-9.609-14.692-5.203-4.26,3.073-7.84,7.679-11.543,11.383-4.032,4.033-9.612,8.587-5.202,14.69 3.079,4.259 7.678,7.839 11.383,11.544 4.033,4.034 8.585,9.611 14.69,5.203 4.26-3.076 7.84-7.678 11.544-11.383 4.034-4.034 9.611-8.585 5.203-14.69-2.615-3.625-8.691-.136-6.044,3.531z"/>
<path d="m269.147,142.429c-2.384,1.723-7.425-5.326-8.945-6.846-2.686-2.685-5.37-5.371-8.056-8.056-.938-.938 13.751-14.678 15.407-16.334 .938-.938 14.678,13.751 16.334,15.408 .938,.938-13.782,14.709-15.448,16.375-3.194,3.195 1.755,8.145 4.949,4.95 3.612-3.612 7.224-7.224 10.835-10.836 4.033-4.033 9.613-8.587 5.203-14.689-3.079-4.259-7.678-7.839-11.383-11.544-4.033-4.034-8.585-9.612-14.689-5.202-4.26,3.077-7.839,7.678-11.544,11.383-4.033,4.033-9.613,8.586-5.203,14.69 3.078,4.259 7.679,7.839 11.383,11.544 4.033,4.033 8.587,9.613 14.69,5.202 3.622-2.618 .133-8.695-3.533-6.045z"/>
<path d="m163.009,177.713c-2.384,1.722-7.425-5.326-8.945-6.847-2.685-2.685-5.37-5.371-8.056-8.056-.938-.938 13.751-14.678 15.408-16.334 .938-.938 14.678,13.752 16.334,15.408 .937,.937-13.783,14.709-15.45,16.375-3.194,3.195 1.755,8.145 4.95,4.95 3.611-3.612 7.223-7.224 10.835-10.835 4.033-4.033 9.613-8.586 5.203-14.689-3.078-4.259-7.678-7.839-11.383-11.544-4.034-4.034-8.585-9.611-14.69-5.203-4.26,3.076-7.84,7.678-11.544,11.383-4.034,4.034-9.611,8.584-5.202,14.689 3.076,4.26 7.678,7.839 11.383,11.544 4.034,4.033 8.585,9.611 14.69,5.203 3.623-2.615 .134-8.692-3.533-6.044z"/>
<path d="m127.494,142.198c-2.384,1.722-7.424-5.326-8.945-6.847-2.685-2.685-5.371-5.371-8.056-8.056-.937-.937 13.751-14.678 15.407-16.334 .937-.937 14.679,13.752 16.335,15.408 .937,.937-13.784,14.709-15.45,16.375-3.194,3.195 1.755,8.145 4.95,4.95 3.612-3.612 7.224-7.224 10.835-10.836 4.033-4.033 9.612-8.585 5.203-14.689-3.077-4.26-7.678-7.839-11.383-11.544-4.034-4.034-8.584-9.61-14.69-5.203-4.26,3.075-7.84,7.679-11.543,11.384-4.033,4.034-9.611,8.585-5.203,14.689 3.076,4.26 7.678,7.839 11.382,11.544 4.034,4.034 8.585,9.612 14.69,5.203 3.623-2.616 .135-8.693-3.532-6.044z"/>
</g>
</svg>
