<svg xmlns="http://www.w3.org/2000/svg" viewBox="20 20 321 321">
<path fill="none" stroke="#fff" stroke-width="10" d="m280.971,237.693c-15.689-3.207-34.107-4.618-49.699-5.856-9.279-.736-42.269-.825-49.691-.835v-.002c0,0-.262,0-.747,.001-.486-.001-.749-.001-.749-.001v.002c-7.422,.01-40.412,.099-49.69,.835-15.592,1.238-34.01,2.649-49.7,5.856-3.143,.643-5.862,2.174-5.862,4.855v39.072c0,2.682 2.625,4.855 5.862,4.855h43.976c12.796-1.235 9.428-16.295 15.826-21.753 2.17-1.851 7.323-1.673 10.438-1.673 6.895,0 22.978,0 28.814,0 1.361,0 2.167,0 2.167,0 5.837,0 21.92,0 28.814,0 3.115,0 8.269-.178 10.438,1.673 6.397,5.458 3.03,20.518 15.826,21.753h43.976c3.238,0 5.862-2.174 5.862-4.855v-39.072c.001-2.681-2.719-4.212-5.861-4.855z"/>
<g fill="#fff">
<path d="m74.833,211.667c48.697,0 97.394,0 146.091,0 21.97,0 43.939,0 65.909,0 6.448,0 6.448-10 0-10-48.697,0-97.395,0-146.091,0-21.97,0-43.939,0-65.909,0-6.449,0-6.449,10-0,10z"/>
<path d="m214.363,89.499c24.414-3.261 48.828-6.522 73.242-9.784-1.667-1.667-3.333-3.333-5-5-3.262,24.414-6.522,48.829-9.784,73.243 2.845-1.179 5.69-2.357 8.535-3.536-21.152-21.153-42.305-42.306-63.458-63.459-4.563-4.563-11.635,2.507-7.07,7.071 21.152,21.153 42.305,42.306 63.458,63.459 3.398,3.399 7.99,.542 8.535-3.536 3.262-24.414 6.522-48.829 9.784-73.243 .329-2.463-2.537-5.329-5-5-24.414,3.261-48.828,6.522-73.242,9.784-6.295,.842-6.377,10.853-0,10.001z"/>
<path d="m196.116,183.758c5.807,4.193 10.148-.662 14.051-4.564 3.824-3.825 7.649-7.65 11.474-11.475 5.481-5.481-.122-10.866-4.015-14.759-3.825-3.825-7.65-7.65-11.476-11.476-5.481-5.481-10.866,.124-14.759,4.017-3.825,3.825-7.65,7.65-11.476,11.475-5.48,5.481 .125,10.866 4.017,14.759 3.825,3.825 7.65,7.65 11.476,11.475 3.194,3.194 8.145-1.755 4.949-4.95-5.149-5.149-10.3-10.299-15.449-15.449-.938-.938 13.751-14.678 15.407-16.334 .938-.938 14.679,13.752 16.335,15.408 .937,.937-6.678,7.603-7.353,8.278-1.574,1.574-7.215,9.308-9.648,7.55-3.667-2.649-7.155,3.429-3.533,6.045z"/>
<path d="m231.631,148.242c5.807,4.194 10.148-.662 14.051-4.563 3.825-3.825 7.649-7.65 11.475-11.475 5.481-5.481-.124-10.865-4.016-14.758-3.825-3.825-7.65-7.65-11.476-11.476-5.48-5.481-10.866,.125-14.759,4.017-3.825,3.825-7.649,7.65-11.475,11.475-5.481,5.481 .123,10.866 4.016,14.759 3.825,3.825 7.65,7.65 11.476,11.475 3.194,3.194 8.144-1.755 4.949-4.95-5.149-5.149-10.3-10.299-15.449-15.449-.938-.938 13.751-14.678 15.407-16.334 .938-.938 14.679,13.752 16.335,15.409 .937,.937-6.677,7.602-7.352,8.277-1.574,1.574-7.216,9.308-9.649,7.55-3.667-2.65-7.155,3.427-3.533,6.043z"/>
</g>
</svg>
