<svg xmlns="http://www.w3.org/2000/svg" viewBox="20 20 321 321">
<path fill="none" stroke="#fff" stroke-width="10" d="m177.084,191.383c0,2.918-12.255,5.284-27.372,5.284h-46.758c-15.116,0-27.372-2.366-27.372-5.284v-111.485c0-2.918 12.256-5.285 27.372-5.285h46.758c15.116,0 27.372,2.366 27.372,5.285v111.485z"/>
<g fill="#fff">
<path d="m97.987,120.557c19.596-3.332 39.191-6.664 58.786-9.997 6.348-1.079 3.647-10.715-2.658-9.643-19.596,3.332-39.191,6.664-58.786,9.997-6.348,1.079-3.647,10.715 2.658,9.643z"/>
<path d="m156.773,121.386c-19.595-3.333-39.19-6.665-58.786-9.998-6.306-1.072-9.006,8.563-2.658,9.643 19.595,3.333 39.19,6.665 58.786,9.998 6.306,1.072 9.006-8.564 2.658-9.643z"/>
<path d="m156.773,135.348c-19.595-3.332-39.19-6.664-58.786-9.996-6.306-1.072-9.006,8.563-2.658,9.643 19.595,3.332 39.19,6.664 58.786,9.996 6.306,1.072 9.006-8.564 2.658-9.643z"/>
<path d="m156.773,149.31c-19.595-3.333-39.19-6.665-58.786-9.997-6.306-1.072-9.006,8.563-2.658,9.643 19.595,3.333 39.19,6.665 58.786,9.997 6.306,1.072 9.006-8.564 2.658-9.643z"/>
<path d="m156.773,163.272c-19.595-3.332-39.19-6.664-58.786-9.996-6.306-1.072-9.006,8.563-2.658,9.643 19.595,3.332 39.19,6.664 58.786,9.996 6.306,1.072 9.006-8.564 2.658-9.643z"/>
<path d="m155.444,110.792c35.388,0 70.775,0 106.163,0 6.448,0 6.448-10 0-10-35.388,0-70.775,0-106.163,0-6.448,0-6.448,10 0,10z"/>
<path d="m167.61,228.09c27.43,0 54.858,0 82.288,0 1.935,0 1.935-3 0-3-27.43,0-54.858,0-82.288,0-1.934,0-1.934,3 0,3z"/>
<path d="m283.333,281.38c1.531,0 3.063,0 4.595,0 1.908,0 3.5-1.592 3.5-3.5s-1.592-3.5-3.5-3.5c-1.531,0-3.063,0-4.595,0-1.908,0-3.5,1.592-3.5,3.5s1.592,3.5 3.5,3.5z"/>
<path d="m256.607,291.38c5.333,0 10.667,0 16,0 4.514,0 4.514-7 0-7-5.333,0-10.667,0-16,0-4.513,0-4.513,7 0,7z"/>
<path d="m271.192,285.38c2,0 4,0 6,0 1.908,0 3.5-1.592 3.5-3.5s-1.592-3.5-3.5-3.5c-2,0-4,0-6,0-1.908,0-3.5,1.592-3.5,3.5s1.592,3.5 3.5,3.5z"/>
<path d="m286.525,291.38c.667,0 1.333,0 2,0 1.908,0 3.5-1.592 3.5-3.5s-1.592-3.5-3.5-3.5c-.667,0-1.333,0-2,0-1.908,0-3.5,1.592-3.5,3.5s1.592,3.5 3.5,3.5z"/>
<path d="m286.109,227.758c-2,0-4,0-6,0-1.908,0-3.5,1.592-3.5,3.5s1.592,3.5 3.5,3.5c2,0 4,0 6,0 1.908,0 3.5-1.592 3.5-3.5s-1.591-3.5-3.5-3.5z"/>
<path d="m274.797,240.451c-.667,0-1.333,0-2,0-1.908,0-3.5,1.592-3.5,3.5s1.592,3.5 3.5,3.5c.667,0 1.333,0 2,0 1.908,0 3.5-1.592 3.5-3.5s-1.592-3.5-3.5-3.5z"/>
<path d="m288.775,257.547c-4.659,0-9.319,0-13.979,0-4.514,0-4.514,7 0,7 4.659,0 9.319,0 13.979,0 4.514,0 4.514-7 0-7z"/>
<path d="m283.333,265.547c-2.846,0-5.69,0-8.536,0-4.514,0-4.514,7 0,7 2.846,0 5.69,0 8.536,0 4.514,0 4.514-7 0-7z"/>
<path d="m288.109,251.547c-2,0-4,0-6,0-1.908,0-3.5,1.592-3.5,3.5s1.592,3.5 3.5,3.5c2,0 4,0 6,0 1.908,0 3.5-1.592 3.5-3.5s-1.591-3.5-3.5-3.5z"/>
<path d="m284.109,235.754c-2,0-4,0-6,0-1.908,0-3.5,1.592-3.5,3.5s1.592,3.5 3.5,3.5c2,0 4,0 6,0 1.908,0 3.5-1.592 3.5-3.5s-1.591-3.5-3.5-3.5z"/>
<path d="m227.131,260.963c-2,0-4,0-6,0-1.908,0-3.5,1.592-3.5,3.5s1.592,3.5 3.5,3.5c2,0 4,0 6,0 1.908,0 3.5-1.592 3.5-3.5s-1.592-3.5-3.5-3.5z"/>
<path d="m287.775,269.547c-.222,0-.444,0-.666,0-1.908,0-3.5,1.592-3.5,3.5s1.592,3.5 3.5,3.5c.222,0 .444,0 .666,0 1.908,0 3.5-1.592 3.5-3.5s-1.591-3.5-3.5-3.5z"/>
<path d="m73.691,282.483c2.337,0 4.673,0 7.01,0 4.514,0 4.514-7 0-7-2.337,0-4.673,0-7.01,0-4.514,0-4.514,7 0,7z"/>
<path d="m168.906,232.758c2.581,0 5.161,0 7.741,0 4.514,0 4.514-7 0-7-2.581,0-5.161,0-7.741,0-4.514,0-4.514,7 0,7z"/>
<path d="m203.067,240.451c5.083,0 10.167,0 15.25,0 4.514,0 4.514-7 0-7-5.083,0-10.167,0-15.25,0-4.513,0-4.513,7 0,7z"/>
<path d="m122.011,291.38c2,0 4,0 6,0 1.908,0 3.5-1.592 3.5-3.5s-1.592-3.5-3.5-3.5c-2,0-4,0-6,0-1.908,0-3.5,1.592-3.5,3.5s1.592,3.5 3.5,3.5z"/>
<path d="m246.18,283.872c-3,0-6,0-9,0-4.514,0-4.514,7 0,7 3,0 6,0 9,0 4.513,0 4.513-7 0-7z"/>
<path d="m187.776,245.75c-5.333,0-10.667,0-16,0-4.514,0-4.514,7 0,7 5.333,0 10.667,0 16,0 4.514,0 4.514-7 0-7z"/>
<path d="m81.191,249.154c-2,0-4,0-6,0-1.908,0-3.5,1.592-3.5,3.5s1.592,3.5 3.5,3.5c2,0 4,0 6,0 1.908,0 3.5-1.592 3.5-3.5s-1.592-3.5-3.5-3.5z"/>
<path d="m238.43,258.13c-1.083,0-2.167,0-3.25,0-1.908,0-3.5,1.592-3.5,3.5s1.592,3.5 3.5,3.5c1.083,0 2.167,0 3.25,0 1.908,0 3.5-1.592 3.5-3.5s-1.592-3.5-3.5-3.5z"/>
<path d="m188.357,243.451c.667,0 1.333,0 2,0 1.908,0 3.5-1.592 3.5-3.5s-1.592-3.5-3.5-3.5c-.667,0-1.333,0-2,0-1.908,0-3.5,1.592-3.5,3.5s1.592,3.5 3.5,3.5z"/>
<path d="m93.526,275.872c-.667,0-1.333,0-2,0-1.908,0-3.5,1.592-3.5,3.5s1.592,3.5 3.5,3.5c.667,0 1.333,0 2,0 1.908,0 3.5-1.592 3.5-3.5s-1.592-3.5-3.5-3.5z"/>
<path d="m196.106,284.38c-2,0-4,0-6,0-1.908,0-3.5,1.592-3.5,3.5s1.592,3.5 3.5,3.5c2,0 4,0 6,0 1.908,0 3.5-1.592 3.5-3.5s-1.591-3.5-3.5-3.5z"/>
<path d="m85.775,260.483c-1.833,0-3.667,0-5.5,0-1.908,0-3.5,1.592-3.5,3.5s1.592,3.5 3.5,3.5c1.833,0 3.667,0 5.5,0 1.908,0 3.5-1.592 3.5-3.5s-1.592-3.5-3.5-3.5z"/>
<path d="m178.192,261.547c3,0 6.001,0 9.001,0 4.514,0 4.514-7 0-7-3,0-6.001,0-9.001,0-4.514-0-4.514,7 0,7z"/>
<path d="m205.858,291.415c5.333,0 10.667,0 16,0 4.514,0 4.514-7 0-7-5.333,0-10.667,0-16,0-4.513,0-4.513,7 0,7z"/>
<path d="m240.43,249.75c2,0 4,0 6,0 1.908,0 3.5-1.592 3.5-3.5s-1.592-3.5-3.5-3.5c-2,0-4,0-6,0-1.908,0-3.5,1.592-3.5,3.5s1.591,3.5 3.5,3.5z"/>
<path d="m284.109,248.477c.667,0 1.333,0 2,0 1.908,0 3.5-1.592 3.5-3.5s-1.592-3.5-3.5-3.5c-.667,0-1.333,0-2,0-1.908,0-3.5,1.592-3.5,3.5s1.592,3.5 3.5,3.5z"/>
<path d="m217.047,257.963c-2,0-4,0-6,0-1.908,0-3.5,1.592-3.5,3.5s1.592,3.5 3.5,3.5c2,0 4,0 6,0 1.908,0 3.5-1.592 3.5-3.5s-1.592-3.5-3.5-3.5z"/>
<path d="m219.131,252.131c-5.083,0-10.167,0-15.25,0-4.514,0-4.514,7 0,7 5.083,0 10.167,0 15.25,0 4.514,0 4.514-7 0-7z"/>
<path d="m247.43,260.483c-2,0-4,0-6,0-1.908,0-3.5,1.592-3.5,3.5s1.592,3.5 3.5,3.5c2,0 4,0 6,0 1.908,0 3.5-1.592 3.5-3.5s-1.592-3.5-3.5-3.5z"/>
<path d="m247.93,227.758c-3,0-6.001,0-9.001,0-4.514,0-4.514,7 0,7 3,0 6.001,0 9.001,0 4.513,0 4.513-7 0-7z"/>
<path d="m244.602,252.885c-5.333,0-10.667,0-16,0-4.514,0-4.514,7 0,7 5.333,0 10.667,0 16,0 4.513,0 4.513-7 0-7z"/>
<path d="m79.524,231.338c-2,0-4,0-6,0-1.908,0-3.5,1.592-3.5,3.5s1.592,3.5 3.5,3.5c2,0 4,0 6,0 1.908,0 3.5-1.592 3.5-3.5s-1.592-3.5-3.5-3.5z"/>
<path d="m213.858,243.75c-.667,0-1.333,0-2,0-1.908,0-3.5,1.592-3.5,3.5s1.592,3.5 3.5,3.5c.667,0 1.333,0 2,0 1.908,0 3.5-1.592 3.5-3.5s-1.591-3.5-3.5-3.5z"/>
<path d="m144.844,291.38c2,0 4,0 6,0 1.908,0 3.5-1.592 3.5-3.5s-1.592-3.5-3.5-3.5c-2,0-4,0-6,0-1.908,0-3.5,1.592-3.5,3.5s1.593,3.5 3.5,3.5z"/>
<path d="m85.761,291.213c5.083,0 10.167,0 15.25,0 4.514,0 4.514-7 0-7-5.083,0-10.167,0-15.25,0-4.514,0-4.514,7 0,7z"/>
<path d="m79.702,249.752c2,0 4,0 6,0 1.908,0 3.5-1.592 3.5-3.5s-1.592-3.5-3.5-3.5c-2,0-4,0-6,0-1.908,0-3.5,1.592-3.5,3.5s1.592,3.5 3.5,3.5z"/>
<path d="m170.584,268.483c3,0 6,0 9,0 4.514,0 4.514-7 0-7-3,0-6,0-9,0-4.514,0-4.514,7 0,7z"/>
<path d="m159.526,291.415c5.333,0 10.667,0 16,0 4.514,0 4.514-7 0-7-5.333,0-10.667,0-16,0-4.514,0-4.514,7 0,7z"/>
<path d="m224.131,249.752c2,0 4,0 6,0 1.908,0 3.5-1.592 3.5-3.5s-1.592-3.5-3.5-3.5c-2,0-4,0-6,0-1.908,0-3.5,1.592-3.5,3.5s1.592,3.5 3.5,3.5z"/>
<path d="m176.085,237.756c.667,0 1.333,0 2,0 1.908,0 3.5-1.592 3.5-3.5s-1.592-3.5-3.5-3.5c-.667,0-1.333,0-2,0-1.908,0-3.5,1.592-3.5,3.5s1.592,3.5 3.5,3.5z"/>
<path d="m179.776,236.451c-3.722,0-7.444,0-11.166,0-4.514,0-4.514,7 0,7 3.722,0 7.444,0 11.166,0 4.514,0 4.514-7 0-7z"/>
<path d="m206.962,261.166c-3.902,0-7.806,0-11.708,0-4.514,0-4.514,7 0,7 3.902,0 7.806,0 11.708,0 4.514,0 4.514-7 0-7z"/>
<path d="m230.317,230.756c-2,0-4,0-6,0-1.908,0-3.5,1.592-3.5,3.5s1.592,3.5 3.5,3.5c2,0 4,0 6,0 1.908,0 3.5-1.592 3.5-3.5s-1.591-3.5-3.5-3.5z"/>
<path d="m191.693,245.75c-3,0-6,0-9,0-4.514,0-4.514,7 0,7 3,0 6,0 9,0 4.514,0 4.514-7 0-7z"/>
<path d="m199.731,242.75c-1.083,0-2.167,0-3.25,0-1.908,0-3.5,1.592-3.5,3.5s1.592,3.5 3.5,3.5c1.083,0 2.167,0 3.25,0 1.908,0 3.5-1.592 3.5-3.5s-1.591-3.5-3.5-3.5z"/>
<path d="m89.202,225.758c-2,0-4,0-6,0-1.908,0-3.5,1.592-3.5,3.5s1.592,3.5 3.5,3.5c2,0 4,0 6,0 1.908,0 3.5-1.592 3.5-3.5s-1.592-3.5-3.5-3.5z"/>
<path d="m87.202,280.63c-1.833,0-3.667,0-5.5,0-1.908,0-3.5,1.592-3.5,3.5s1.592,3.5 3.5,3.5c1.833,0 3.667,0 5.5,0 1.908,0 3.5-1.592 3.5-3.5s-1.592-3.5-3.5-3.5z"/>
<path d="m186.357,266.483c1.945,0 3.891,0 5.836,0 4.514,0 4.514-7 0-7-1.945,0-3.891,0-5.836,0-4.513,0-4.513,7 0,7z"/>
<path d="m139.025,282.511c-.667,0-1.333,0-2,0-1.908,0-3.5,1.592-3.5,3.5s1.592,3.5 3.5,3.5c.667,0 1.333,0 2,0 1.908,0 3.5-1.592 3.5-3.5s-1.592-3.5-3.5-3.5z"/>
<path d="m216.398,227.758c-6.86,0-13.72,0-20.58,0-4.514,0-4.514,7 0,7 6.86,0 13.72,0 20.58,0 4.514,0 4.514-7 0-7z"/>
<path d="m105.203,291.213c1.833,0 3.667,0 5.5,0 1.908,0 3.5-1.592 3.5-3.5s-1.592-3.5-3.5-3.5c-1.833,0-3.667,0-5.5,0-1.908,0-3.5,1.592-3.5,3.5s1.592,3.5 3.5,3.5z"/>
<path d="m73.274,290.261c.667,0 1.333,0 2,0 1.908,0 3.5-1.592 3.5-3.5s-1.592-3.5-3.5-3.5c-.667,0-1.333,0-2,0-1.908,0-3.5,1.592-3.5,3.5s1.592,3.5 3.5,3.5z"/>
<path d="m81.274,239.756c.667,0 1.333,0 2,0 1.908,0 3.5-1.592 3.5-3.5s-1.592-3.5-3.5-3.5c-.667,0-1.333,0-2,0-1.908,0-3.5,1.592-3.5,3.5s1.593,3.5 3.5,3.5z"/>
<path d="m82.274,269.115c-1.833,0-3.667,0-5.5,0-1.908,0-3.5,1.592-3.5,3.5s1.592,3.5 3.5,3.5c1.833,0 3.667,0 5.5,0 1.908,0 3.5-1.592 3.5-3.5s-1.592-3.5-3.5-3.5z"/>
<path d="m249.012,238.451c-3.722,0-7.444,0-11.166,0-4.514,0-4.514,7 0,7 3.722,0 7.444,0 11.166,0 4.513,0 4.513-7 0-7z"/>
<path d="m83.107,256.547c-3.278,0-6.556,0-9.833,0-4.514,0-4.514,7 0,7 3.278,0 6.556,0 9.833,0 4.515,0 4.515-7 0-7z"/>
<path d="m119.12,279.511c-3.722,0-7.444,0-11.166,0-4.514,0-4.514,7 0,7 3.722,0 7.444,0 11.166,0 4.514,0 4.514-7 0-7z"/>
<path d="m283.697,156.72c-.321,12.316-9.832,21.827-22.148,22.148-12.314,.321-21.84-10.316-22.148-22.148-.321-12.315 10.315-21.84 22.148-22.149 12.315-.321 21.84,10.316 22.148,22.149 .117,4.505 7.118,4.517 7,0-.422-16.174-12.974-28.727-29.148-29.149-16.171-.422-28.743,13.61-29.148,29.149-.422,16.17 13.61,28.743 29.148,29.148 16.17,.422 28.743-13.609 29.148-29.148 .118-4.516-6.883-4.505-7,0z"/>
<path d="m270.797,130.257c0,1.542-1.25,2.792-2.791,2.792h-13.029c-1.541,0-2.791-1.25-2.791-2.792v-6.048c0-1.542 1.25-2.792 2.791-2.792h13.029c1.541,0 2.791,1.25 2.791,2.792v6.048z"/>
<path d="m270.797,189.813c0,1.542-1.25,2.792-2.791,2.792h-13.029c-1.541,0-2.791-1.25-2.791-2.792v-6.049c0-1.541 1.25-2.792 2.791-2.792h13.029c1.541,0 2.791,1.25 2.791,2.792v6.049z"/>
<path d="m272.965,194.25c0,1.682-.915,3.045-2.045,3.045h-18.977c-1.129,0-2.045-1.363-2.045-3.045v-.847c0-1.683 .916-3.046 2.045-3.046h18.977c1.13,0 2.045,1.363 2.045,3.046v.847z"/>
<path d="m258.584,178.752c-11.692,0-23.386,0-35.078,0-1.927,0-3.853,0-5.779,0-.554,0 .395,1.155 .395,.222 0-.731 0-1.463 0-2.195 0-6.654 0-13.309 0-19.963 0-6.48 0-12.961 0-19.442 0-.823 0-1.646 0-2.47 0-1.203-.053-.023-.548-.023 1.739,0 3.479,0 5.22,0 11.93,0 23.86,0 35.791,0 4.514,0 4.514-7 0-7-12.37,0-24.74,0-37.11,0-4.645,0-10.353,.31-10.353,6.583 0,5.477 0,10.953 0,16.43 0,7.634 0,15.268 0,22.901 0,4.725-.552,11.957 6.326,11.957 12.37,0 24.74,0 37.11,0 1.342,0 2.685,0 4.026,0 4.514-0 4.514-7 0-7z"/>
<path d="m201.996,131.304c0,16.982 0,33.965 0,50.948 0,4.514 7,4.514 7,0 0-16.982 0-33.965 0-50.948 0-4.514-7-4.514-7,0z"/>
<path d="m97.987,243.075c19.596-3.332 39.191-6.664 58.786-9.996 6.348-1.079 3.647-10.715-2.658-9.643-19.596,3.332-39.191,6.664-58.786,9.996-6.348,1.08-3.647,10.715 2.658,9.643z"/>
<path d="m156.773,257.829c-19.595-3.332-39.19-6.664-58.786-9.996-6.306-1.072-9.006,8.563-2.658,9.643 19.595,3.332 39.19,6.664 58.786,9.996 6.306,1.072 9.006-8.564 2.658-9.643z"/>
<path d="m156.773,271.792c-19.595-3.332-39.19-6.664-58.786-9.996-6.306-1.072-9.006,8.563-2.658,9.643 19.595,3.332 39.19,6.664 58.786,9.996 6.306,1.072 9.006-8.564 2.658-9.643z"/>
<path d="m158.484,281.851c34.374,0 68.749,0 103.123,0 6.448,0 6.448-10 0-10-34.374,0-68.749,0-103.123,0-6.448,0-6.448,10-0,10z"/>
<path d="m156.773,243.429c-19.595-3.332-39.19-6.664-58.786-9.996-6.306-1.072-9.006,8.563-2.658,9.643 19.595,3.332 39.19,6.664 58.786,9.996 6.306,1.072 9.006-8.564 2.658-9.643z"/>
<path d="m150.444,168.093c0,20.055 0,40.11 0,60.165 0,6.448 10,6.448 10,0 0-20.055 0-40.109 0-60.165 0-6.448-10-6.448-10,0z"/>
<path d="m256.549,191.826c0,28.342 0,56.683 0,85.024 0,6.448 10,6.448 10,0 0-28.342 0-56.683 0-85.024 0-6.448-10-6.448-10-0z"/>
<path d="m256.432,106.134c0,7.274 0,14.548 0,21.822 0,6.449 10,6.449 10,0 0-7.274 0-14.548 0-21.822 0-6.448-10-6.448-10,0z"/>
<path d="m271.797,228.09c5.993,0 11.985,0 17.979,0 1.935,0 1.935-3 0-3-5.993,0-11.985,0-17.979,0-1.935,0-1.935,3 0,3z"/>
<path d="m71.583,228.09c10.874,0 21.747,0 32.62,0 1.935,0 1.935-3 0-3-10.874,0-21.747,0-32.62,0-1.935,0-1.935,3 0,3z"/>
</g>
</svg>
