<svg xmlns="http://www.w3.org/2000/svg" viewBox="20 20 321 321">
<g fill="#fff">
<path d="m166.338,203.984c.678,.195 .358-4.745 .358-5.707 0-5.183 0-10.365 0-15.547 0-15.465 0-30.929 0-46.394 0-14.742 0-29.484 0-44.227 0-4.28 0-8.56 0-12.839 0-.857 0-1.715 0-2.572 0-.748-1.917,.096-.76,.096 1.964,0 3.929,0 5.893,0 2.566,0 .583-1.057 .583,.464 0,1.277 0,2.555 0,3.832 0,4.858 0,9.715 0,14.573 0,15.221 0,30.441 0,45.662 0,15.041 0,30.081 0,45.121 0,4.632 0,9.264 0,13.896 0,1.074 0,2.148 0,3.223 0,.202 0,.404 0,.606 0-.208 1.961-.312 .761-.312-1.047,0-2.094,0-3.141,0-1.542,0-3.083,0-4.625,0-4.514,0-4.514,7 0,7 5.471,0 14.005,1.379 14.005-6.688 0-2.276 0-4.553 0-6.828 0-12.766 0-25.532 0-38.297 0-26.795 0-53.59 0-80.385 0-3.786-.812-8.866-5.711-8.866-5.472,0-14.005-1.378-14.005,6.69 0,7.666 0,15.332 0,22.998 0,30.135 0,60.269 0,90.404 0,5.548-2.347,18.8 4.781,20.849 4.348,1.248 6.191-5.507 1.861-6.752z"/>
<path d="m90.93,204.302c.677,.194 .358-4.748 .358-5.708 0-5.183 0-10.364 0-15.547 0-15.464 0-30.929 0-46.393 0-14.743 0-29.485 0-44.227 0-4.28 0-8.56 0-12.839 0-.857 0-1.715 0-2.572 0-.748-1.917,.096-.76,.096 1.964,0 3.929,0 5.893,0 2.565,0 .584-1.057 .584,.464 0,1.277 0,2.555 0,3.832 0,4.857 0,9.715 0,14.572 0,15.221 0,30.441 0,45.662 0,15.04 0,30.081 0,45.121 0,4.632 0,9.264 0,13.896 0,1.074 0,2.148 0,3.223 0,.202 0,.404 0,.606 0-.207 1.96-.311 .76-.311-1.047,0-2.094,0-3.141,0-1.542,0-3.083,0-4.625,0-4.514,0-4.514,7 0,7 5.472,0 14.005,1.379 14.005-6.689 0-2.276 0-4.553 0-6.828 0-12.766 0-25.531 0-38.297 0-26.795 0-53.59 0-80.385 0-3.787-.812-8.866-5.711-8.866-5.472,0-14.005-1.378-14.005,6.69 0,7.666 0,15.332 0,22.998 0,30.135 0,60.269 0,90.403 0,5.548-2.346,18.802 4.781,20.85 4.348,1.249 6.191-5.507 1.861-6.751z"/>
<path d="m128.951,204.302c.677,.194 .358-4.748 .358-5.708 0-5.183 0-10.364 0-15.547 0-15.464 0-30.929 0-46.393 0-14.743 0-29.485 0-44.227 0-4.28 0-8.56 0-12.839 0-.857 0-1.715 0-2.572 0-.748-1.917,.096-.76,.096 1.964,0 3.929,0 5.893,0 2.565,0 .584-1.057 .584,.464 0,1.277 0,2.555 0,3.832 0,4.857 0,9.715 0,14.572 0,15.221 0,30.441 0,45.662 0,15.04 0,30.081 0,45.121 0,4.632 0,9.264 0,13.896 0,1.074 0,2.148 0,3.223 0,.202 0,.404 0,.606 0-.207 1.96-.311 .76-.311-1.047,0-2.094,0-3.141,0-1.541,0-3.083,0-4.624,0-4.514,0-4.514,7 0,7 5.472,0 14.005,1.378 14.005-6.689 0-2.276 0-4.553 0-6.828 0-12.766 0-25.531 0-38.297 0-26.795 0-53.59 0-80.385 0-3.787-.812-8.866-5.711-8.866-5.472,0-14.005-1.378-14.005,6.69 0,7.666 0,15.332 0,22.998 0,30.135 0,60.269 0,90.403 0,5.548-2.346,18.801 4.781,20.85 4.347,1.249 6.19-5.506 1.86-6.751z"/>
<path d="m86.826,192.95c0,1.222-.125,2.212-.281,2.212h-11.414c-.155,0-.281-.99-.281-2.212v-8.294c0-1.221 .126-2.211 .281-2.211h11.414c.156,0 .281,.99 .281,2.211v8.294z"/>
<path d="m83.326,192.95c-.152,.984-.087,1.133 .197,.445 1.007-.578 2.015-1.155 3.022-1.733-3.805,0-7.609,0-11.414,0 1.007,.578 2.015,1.155 3.022,1.733 .55,.874 .197-.823 .197-1.308 0-1.012 0-2.024 0-3.036 0-1.063 0-2.128 0-3.191 0-.352 0-.702 0-1.054 0-.553 .361-1.48-.197-.595-1.007,.578-2.015,1.155-3.022,1.733 3.805,0 7.609,0 11.414,0-1.007-.578-2.015-1.155-3.022-1.733-.605-.959-.197,.561-.197,1.014 0,.944 0,1.89 0,2.835 0,1.63 0,3.26 0,4.89 0,4.514 7,4.514 7,0 0-3.957 1.703-14.005-4.218-14.005-2.865,0-5.73,0-8.596,0-.794,0-1.587,0-2.381,0-3.222,0-3.718,3.242-3.781,5.711-.061,2.36 0,4.729 0,7.09 0,3.109 .155,6.916 4.218,6.916 2.865,0 5.73,0 8.596,0 .794,0 1.587,0 2.381,0 3.222,0 3.718-3.242 3.781-5.712 .116-4.516-6.885-4.506-7-0z"/>
<path d="m125.224,192.74c0,1.221-.255,2.211-.568,2.211h-23.045c-.314,0-.568-.99-.568-2.211v-8.294c0-1.222 .254-2.212 .568-2.212h23.045c.313,0 .568,.99 .568,2.212v8.294z"/>
<path d="m121.724,192.74c-.03,.148-.06,.296-.09,.444 1.007-.578 2.015-1.155 3.022-1.733-7.682,0-15.363,0-23.045,0 1.007,.578 2.015,1.155 3.022,1.733-.714-1.151-.714-8.032 0-9.184-1.007,.578-2.015,1.155-3.022,1.733 7.682,0 15.363,0 23.045,0-1.007-.578-2.015-1.155-3.022-1.733 1.097,1.772 .09,6.653 .09,8.74 0,4.514 7,4.514 7,0 0-3.073 1.058-8.876-.645-11.625-1.947-3.144-5.324-2.381-8.563-2.381-4.768,0-9.537,0-14.305,0-4.505,0-7.105,.411-7.669,5.712-.297,2.789-.909,9.12 .645,11.624 1.95,3.143 5.323,2.381 8.563,2.381 4.768,0 9.537,0 14.305,0 4.505,0 7.104-.41 7.668-5.711 .479-4.486-6.526-4.44-6.999,0z"/>
<path d="m163.139,192.846c0,1.221-.254,2.211-.568,2.211h-23.045c-.314,0-.568-.99-.568-2.211v-8.295c0-1.221 .254-2.211 .568-2.211h23.045c.313,0 .568,.99 .568,2.211v8.295z"/>
<path d="m159.639,192.846c-.03,.148-.06,.296-.09,.444 1.007-.578 2.015-1.155 3.022-1.733-7.682,0-15.363,0-23.045,0 1.007,.578 2.015,1.155 3.022,1.733-.714-1.151-.714-8.032 0-9.184-1.007,.578-2.015,1.155-3.022,1.733 7.682,0 15.363,0 23.045,0-1.007-.578-2.015-1.155-3.022-1.733 1.097,1.771 .09,6.654 .09,8.74 0,4.514 7,4.514 7,0 0-3.072 1.059-8.877-.644-11.625-1.949-3.143-5.324-2.381-8.563-2.381-4.768,0-9.537,0-14.305,0-4.504,0-7.104,.411-7.669,5.711-.297,2.789-.909,9.121 .645,11.625 1.95,3.143 5.323,2.381 8.563,2.381 4.768,0 9.537,0 14.305,0 4.504,0 7.104-.41 7.668-5.711 .477-4.487-6.528-4.441-7,0z"/>
<path d="m175.734,184.129c0-1.221 .117-2.211 .261-2.211h10.608c.145,0 .262,.99 .262,2.211v8.294c0,1.221-.117,2.212-.262,2.212h-10.608c-.145,0-.261-.991-.261-2.212v-8.294z"/>
<path d="m179.234,184.129c.16-.982 .087-1.131-.217-.444-1.007,.578-2.015,1.155-3.022,1.733 3.536,0 7.072,0 10.608,0-1.008-.578-2.015-1.155-3.022-1.733-.553-.943-.216,.851-.216,1.307 0,1.012 0,2.024 0,3.036 0,1.063 0,2.128 0,3.191 0,.522-.269,2.477 .216,1.649 1.008-.578 2.015-1.155 3.022-1.733-3.536,0-7.072,0-10.608,0 1.007,.578 2.015,1.155 3.022,1.733 .596,1.019 .217-.58 .217-1.015 0-.944 0-1.89 0-2.835 0-1.629 0-3.259 0-4.889 0-4.514-7-4.514-7,0 0,3.763-1.672,14.006 4.023,14.006 2.628,0 5.257,0 7.886,0 .819,0 1.64,0 2.46,0 3.229,0 3.703-3.243 3.762-5.712 .057-2.36 0-4.729 0-7.09 0-2.951-.06-6.915-4.024-6.915-2.628,0-5.257,0-7.885,0-.82,0-1.64,0-2.46,0-3.229,0-3.703,3.242-3.761,5.711-.108,4.517 6.892,4.506 6.999-0z"/>
<path d="m86.826,97.053c0,1.221-.125,2.211-.281,2.211h-11.414c-.155,0-.281-.99-.281-2.211v-8.293c0-1.221 .126-2.211 .281-2.211h11.414c.156,0 .281,.991 .281,2.211v8.293z"/>
<path d="m83.326,97.053c-.152,.984-.087,1.133 .197,.445 1.007-.578 2.015-1.156 3.022-1.733-3.805,0-7.609,0-11.414,0 1.007,.578 2.015,1.156 3.022,1.733 .551,.874 .197-.823 .197-1.307 0-1.012 0-2.024 0-3.036 0-1.064 0-2.128 0-3.192 0-.351 0-.702 0-1.053 0-.553 .361-1.482-.197-.596-1.007,.578-2.015,1.156-3.022,1.733 3.805,0 7.609,0 11.414,0-1.007-.578-2.015-1.156-3.022-1.733-.605-.959-.197,.561-.197,1.014 0,.945 0,1.89 0,2.835 0,1.63 0,3.26 0,4.89 0,4.514 7,4.514 7,0 0-3.957 1.703-14.005-4.218-14.005-2.865,0-5.73,0-8.596,0-.794,0-1.587,0-2.381,0-3.222,0-3.718,3.242-3.781,5.711-.061,2.36 0,4.729 0,7.09 0,3.108 .156,6.915 4.218,6.915 2.865,0 5.73,0 8.596,0 .794,0 1.587,0 2.381,0 3.222,0 3.718-3.242 3.781-5.711 .116-4.517-6.885-4.506-7-0z"/>
<path d="m125.224,96.842c0,1.221-.255,2.211-.568,2.211h-23.045c-.314,0-.568-.991-.568-2.211v-8.294c0-1.221 .254-2.211 .568-2.211h23.045c.313,0 .568,.99 .568,2.211v8.294z"/>
<path d="m121.724,96.842c-.03,.148-.06,.296-.09,.445 1.007-.578 2.015-1.156 3.022-1.733-7.682,0-15.363,0-23.045,0 1.007,.578 2.015,1.156 3.022,1.733-.714-1.151-.714-8.032 0-9.183-1.007,.578-2.015,1.156-3.022,1.733 7.682,0 15.363,0 23.045,0-1.007-.578-2.015-1.156-3.022-1.733 1.097,1.771 .09,6.652 .09,8.738 0,4.514 7,4.514 7,0 0-3.073 1.058-8.875-.645-11.624-1.948-3.144-5.324-2.381-8.563-2.381-4.768,0-9.537,0-14.305,0-4.504,0-7.104,.411-7.669,5.711-.297,2.79-.909,9.12 .645,11.624 1.95,3.143 5.323,2.381 8.563,2.381 4.768,0 9.537,0 14.305,0 4.505,0 7.104-.411 7.668-5.711 .479-4.486-6.526-4.44-6.999,0z"/>
<path d="m163.139,96.947c0,1.221-.254,2.211-.568,2.211h-23.045c-.314,0-.568-.99-.568-2.211v-8.293c0-1.221 .254-2.211 .568-2.211h23.045c.313,0 .568,.991 .568,2.211v8.293z"/>
<path d="m159.639,96.947c-.03,.148-.06,.296-.09,.445 1.007-.578 2.015-1.156 3.022-1.733-7.682,0-15.363,0-23.045,0 1.007,.578 2.015,1.156 3.022,1.733-.714-1.151-.714-8.032 0-9.183-1.007,.578-2.015,1.156-3.022,1.733 7.682,0 15.363,0 23.045,0-1.007-.578-2.015-1.156-3.022-1.733 1.097,1.77 .09,6.652 .09,8.738 0,4.514 7,4.514 7,0 0-3.072 1.058-8.876-.644-11.624-1.948-3.144-5.324-2.381-8.563-2.381-4.768,0-9.537,0-14.305,0-4.505,0-7.104,.411-7.669,5.711-.297,2.79-.909,9.12 .645,11.624 1.95,3.143 5.323,2.381 8.563,2.381 4.768,0 9.537,0 14.305,0 4.505,0 7.104-.411 7.668-5.711 .477-4.487-6.528-4.44-7,0z"/>
<path d="m205.416,96.868c-.152,.984-.087,1.132 .196,.445 1.008-.578 2.015-1.156 3.022-1.733-3.805,0-7.609,0-11.414,0 1.008,.578 2.015,1.156 3.022,1.733 .55,.874 .196-.823 .196-1.308 0-1.012 0-2.023 0-3.036 0-1.064 0-2.128 0-3.191 0-.351 0-.702 0-1.053 0-.553 .361-1.482-.196-.596-1.008,.578-2.015,1.156-3.022,1.733 3.805,0 7.609,0 11.414,0-1.008-.578-2.015-1.156-3.022-1.733-.604-.96-.196,.562-.196,1.014 0,.945 0,1.89 0,2.835 0,1.63 0,3.26 0,4.89 0,4.514 7,4.514 7,0 0-3.957 1.703-14.005-4.218-14.005-2.865,0-5.73,0-8.597,0-.793,0-1.587,0-2.381,0-3.222,0-3.718,3.242-3.781,5.711-.061,2.36 0,4.729 0,7.09 0,3.109 .155,6.916 4.218,6.916 2.865,0 5.73,0 8.597,0 .793,0 1.587,0 2.381,0 3.222,0 3.718-3.242 3.781-5.711 .116-4.517-6.884-4.506-7-.001z"/>
<path d="m175.891,88.596c0-1.221 .117-2.211 .261-2.211h10.608c.145,0 .262,.99 .262,2.211v8.293c0,1.221-.117,2.211-.262,2.211h-10.608c-.144,0-.261-.99-.261-2.211v-8.293z"/>
<path d="m179.391,88.596c.16-.982 .087-1.131-.217-.445-1.007,.578-2.015,1.156-3.022,1.733 3.536,0 7.072,0 10.608,0-1.008-.578-2.015-1.156-3.022-1.733-.553-.943-.216,.851-.216,1.307 0,1.012 0,2.024 0,3.036 0,1.064 0,2.128 0,3.192 0,.522-.269,2.476 .216,1.648 1.008-.578 2.015-1.156 3.022-1.733-3.536,0-7.072,0-10.608,0 1.007,.578 2.015,1.156 3.022,1.733 .596,1.02 .217-.58 .217-1.014 0-.945 0-1.89 0-2.835 0-1.629 0-3.259 0-4.889 0-4.514-7-4.514-7,0 0,3.763-1.672,14.005 4.023,14.005 2.628,0 5.257,0 7.886,0 .819,0 1.64,0 2.46,0 3.229,0 3.703-3.243 3.762-5.711 .057-2.36 0-4.729 0-7.09 0-2.951-.059-6.915-4.024-6.915-2.628,0-5.257,0-7.885,0-.82,0-1.64,0-2.46,0-3.229,0-3.702,3.243-3.761,5.711-.109,4.517 6.892,4.507 6.999,0z"/>
<path d="m198.484,245.925c.188-.586 1.316-.445 .176-.445-.85,0-1.699,0-2.549,0-2.498,0-4.996,0-7.494,0-1.551,0-3.101,0-4.651,0-.838,0 .667,2.139 .667,.943 0-.583 0-1.167 0-1.751 0-7.809 0-15.618 0-23.428 0,1.479-1.653,1.327-.302,1.327 .85,0 1.699,0 2.549,0 2.498,0 4.996,0 7.494,0 1.627,0 3.254,0 4.881,0-1.013,0-.896-2.243-.896-.622 0,.68 0,1.36 0,2.041 0,7.622 0,15.243 0,22.865 0,4.514 7,4.514 7,0 0-4.441 0-8.883 0-13.324 0-3.889 1.089-9.495-.125-13.268-1.939-6.028-8.692-4.692-13.738-4.692-5.047,0-11.799-1.336-13.738,4.692-1.214,3.772-.125,9.379-.125,13.268 0,4.441 0,8.883 0,13.324 0,6.741 8.491,5.624 12.886,5.624 5.196,0 12.706,1.554 14.716-4.693 1.386-4.309-5.374-6.14-6.751-1.861z"/>
<path d="m227.125,245.158c-.064,.367 1.441,.321-.311,.321-1.267,0-2.533,0-3.8,0-2.756,0-5.512,0-8.268,0-.713,0-1.427,0-2.141,0-.28,0 .667,1.114 .667,.043 0-1.819 0-3.639 0-5.458 0-9.623 0-19.246 0-28.869 0,.734-1.64,.572 .186,.572 1.267,0 2.533,0 3.8,0 2.986,0 5.973,0 8.959,0 .56,0 1.119,0 1.679,0-1.095,0-.896-1.074-.896,.265 0,1.979 0,3.957 0,5.937 0,9.373 0,18.746 0,28.12 0,4.514 7,4.514 7,0 0-11.353 0-22.704 0-34.057 0-7.04-5.566-7.265-10.985-7.265-5.5,0-15.295-2.032-16.616,5.46-.839,4.756-.125,10.152-.125,14.956 0,6.555 0,13.109 0,19.664 0,6.644 4.577,7.632 10.089,7.632 5.598,0 16.159,2.213 17.513-5.46 .777-4.413-5.968-6.3-6.751-1.861z"/>
<path d="m255.799,245.131c.685,.242 .799,.344 .345,.307-.51,0-1.021,0-1.53,0-1.768,0-3.535,0-5.304,0-2.691,0-5.383,0-8.075,0 .854,0 .713,1.093 .713-.054 0-.802 0-1.604 0-2.406 0-2.893 0-5.785 0-8.678 0-11.57 0-23.142 0-34.712 0,.875-.98,.596 1.061,.596 1.768,0 3.535,0 5.304,0 1.858,0 3.717,0 5.575,0 .623,0 1.247,0 1.87,0 1.247,0-.083,.122-.083-.596 0,4.207 0,8.415 0,12.622 0,11.284 0,22.567 0,33.852 0,4.514 7,4.514 7,0 0-12.428 0-24.855 0-37.283 0-3.797 1.207-10.702-1.817-13.727-2.152-2.152-5.013-1.868-7.779-1.868-3.737,0-7.476,0-11.213,0-6.244,0-6.917,5.165-6.917,10.007 0,7.204 0,14.407 0,21.611 0,6.525 0,13.051 0,19.576 0,6.331 3.902,8.06 9.597,8.06 5.661,0 16.541,2.264 18.005-5.445 .836-4.412-5.91-6.294-6.752-1.862z"/>
<path d="m284.401,245.183c-.044,.231 1.256,.214 .066,.214-.583,0-1.166,0-1.749,0-1.769,0-3.537,0-5.306,0s-3.537,0-5.306,0c-.583,0-1.166,0-1.749,0-1.229,0 .191,.091 .191,.632 0-4.189 0-8.379 0-12.569 0-14.634 0-29.269 0-43.902 0-1.38 0-2.759 0-4.138 0,.335-1.441,.528 .289,.528 1.87,0 3.741,0 5.611,0 2.868,0 5.735,0 8.603,0-.928,0-.776-1.265-.776,.024 0,.854 0,1.707 0,2.561 0,14.415 0,28.831 0,43.246 0,4.778 0,9.557 0,14.335 0,4.514 7,4.514 7,0 0-11.468 0-22.936 0-34.403 0-7.004 0-14.009 0-21.013 0-3.735 .831-10.341-4.186-11.406-5.501-1.168-11.713-.344-17.317-.344-5.965,0-6.224,5.725-6.224,10.082 0,14.532 0,29.065 0,43.598 0,5.674-1.961,15.306 3.35,19.073 2.923,2.073 10.102,.696 13.348,.696 4.557,0 9.804,.381 10.904-5.353 .848-4.41-5.898-6.291-6.749-1.861z"/>
<path d="m199.264,290.906l-1.644-7.081h-9.347l-1.586,7.081h-7.251c1.662-6.041 3.342-11.545 5.042-16.514 1.699-4.967 3.342-9.68 4.928-14.136h7.591c1.661,4.489 3.313,9.251 4.957,14.284 1.643,5.035 3.237,10.49 4.786,16.365h-7.476zm-6.233-24.707c-.377,1.155-.727,2.253-1.047,3.293-.322,1.04-.623,2.063-.906,3.069-.284,1.008-.549,2.022-.794,3.045-.246,1.023-.481,2.08-.708,3.17h6.854c-.227-1.09-.453-2.146-.68-3.17-.227-1.022-.481-2.037-.765-3.045-.283-1.006-.586-2.029-.906-3.069-.321-1.04-.671-2.137-1.048-3.293z"/>
<path d="m221.299,291.549c-2.266,0-4.163-.271-5.693-.816-1.529-.545-2.746-1.328-3.653-2.352-.906-1.023-1.549-2.261-1.926-3.714-.378-1.452-.566-3.069-.566-4.853v-19.558h7.024v19.161c0,1.288 .075,2.369 .227,3.244 .15,.875 .405,1.576 .765,2.104 .358,.529 .858,.908 1.501,1.139 .643,.232 1.453,.348 2.436,.348s1.794-.115 2.437-.348c.642-.23 1.151-.618 1.529-1.163 .378-.544 .642-1.254 .794-2.129 .15-.874 .227-1.956 .227-3.243v-19.112h6.967v19.558c0,1.783-.189,3.4-.566,4.853-.378,1.453-1.039,2.69-1.982,3.714-.944,1.023-2.191,1.807-3.738,2.352-1.554,.543-3.479,.815-5.783,.815z"/>
<path d="m262.482,260.257v5.05h-9.233v25.6h-7.024v-25.6h-9.234v-5.05h25.491z"/>
<path d="m265.428,275.557c0-5.281 1.114-9.268 3.343-11.957 2.228-2.691 5.325-4.036 9.29-4.036 4.116,0 7.252,1.345 9.404,4.036 2.152,2.689 3.229,6.676 3.229,11.957s-1.096,9.268-3.285,11.957c-2.191,2.691-5.288,4.035-9.291,4.035-4.116,0-7.26-1.344-9.432-4.035-2.172-2.69-3.258-6.676-3.258-11.957zm7.082,0c0,1.485 .065,2.881 .198,4.184 .132,1.305 .396,2.436 .793,3.393s.953,1.716 1.671,2.277c.717,.561 1.68,.842 2.889,.842 1.171,0 2.125-.281 2.861-.842 .736-.562 1.303-1.328 1.699-2.303 .396-.973 .66-2.104 .793-3.392 .133-1.288 .199-2.674 .199-4.159s-.066-2.88-.199-4.184c-.133-1.305-.396-2.435-.793-3.393-.396-.957-.954-1.715-1.671-2.277-.718-.561-1.681-.842-2.89-.842s-2.172,.281-2.889,.842c-.718,.563-1.274,1.329-1.671,2.303s-.661,2.104-.793,3.392c-.132,1.287-.197,2.673-.197,4.159z"/>
</g>
</svg>
