<svg xmlns="http://www.w3.org/2000/svg" viewBox="20 20 321 321">
<g fill="#fff">
<path d="m277.239,156.167c-49.609,0-99.219,0-148.829,0-11.307,0-22.614,0-33.92,0-7.807,0-16.79-1.12-21.871,6.403-3.608,5.342-2.786,11.859-2.786,17.982 0,7.391 0,14.783 0,22.174 0,4.656 0,9.312 0,13.968 0,7.108-.888,14.652 3.923,20.559 4.574,5.615 10.773,6.683 17.529,6.683 7.246,0 14.492,0 21.739,0 13.458,0 33.93,3.2 36.988-14.958-1.607,1.224-3.214,2.447-4.821,3.671 23.929,0 47.857,0 71.786,0-1.607-1.224-3.214-2.447-4.821-3.671 3.058,18.158 23.53,14.958 36.988,14.958 7.246,0 14.492,0 21.738,0 7.07,0 14.074-1.245 18.311-7.694 3.99-6.074 3.142-13.23 3.142-20.15 0-4.663 0-9.325 0-13.988 0-7.473 0-14.946 0-22.419 0-6.182 .857-13.098-3.567-18.125-3.078-3.497-6.943-5.084-11.529-5.393-6.44-.433-6.398,9.569 0,10 6.488,.437 5.095,8.187 5.095,12.674 0,6.787 0,13.573 0,20.36 0,8.813 0,17.625 0,26.438 0,6.778-5.402,8.297-10.895,8.297-6.112,0-12.226,0-18.338,0-6.39,0-12.778,0-19.168,0-5.793,0-10.95-.58-12.136-7.616-.364-2.163-2.77-3.671-4.821-3.671-23.929,0-47.857,0-71.786,0-2.051,0-4.457,1.508-4.821,3.671-1.356,8.054-7.822,7.616-14.131,7.616-7.675,0-15.351,0-23.026,0-5.173,0-10.346,0-15.52,0-9.189,0-7.86-10.264-7.86-16.486 0-11.697 0-23.394 0-35.091 0-4.568-1.858-14.065 3.741-16.009 1.47-.511 3.61-.182 5.113-.182 54.582,0 109.163,0 163.744,0 8.27,0 16.539,0 24.809,0 6.449-.001 6.449-10.001-0-10.001z"/>
<path d="m164.688,207.93c3.094,0 6.187,0 9.281,0 4.514,0 4.514-7 0-7-3.094,0-6.187,0-9.281,0-4.514,0-4.514,7 0,7z"/>
<path d="m187.688,207.93c3.094,0 6.188,0 9.281,0 4.514,0 4.514-7 0-7-3.094,0-6.188,0-9.281,0-4.514,0-4.514,7 0,7z"/>
<path d="m229.981,189.58c.105-1.005 1.377-.867-.113-.869-.856-.001-1.714-.002-2.57-.003-.287,0-.575,0-.862-.001-.564,0-.258-.11 .199,.253 .415,.33 .227,.951 .227-.058 .001-.344 .001-.688 .001-1.032-.001,1.002-1.439,.869 .112,.871 .857,0 1.714,.001 2.571,.002 .287,0 .575,0 .862,.001 .565,0 .257,.11-.199-.252-.415-.331-.227-.953-.227,.057-.001,.344-.001,.687-.001,1.031-.003,4.515 6.997,4.514 7,0 .001-2.062-.066-3.982-1.489-5.648-1.461-1.709-3.469-2.187-5.617-2.188-1.26-.001-2.519-.002-3.778-.003-3.604-.003-5.882,2.783-6.234,6.13-.486,4.619 2.523,7.833 7.106,7.838 1.259,.001 2.519,.003 3.777,.004 3.604,.004 5.883-2.785 6.235-6.132 .2-1.901-1.743-3.5-3.5-3.5-2.058-.001-3.3,1.603-3.5,3.499z"/>
<path d="m258,189.596c.106-1.006 1.378-.867-.112-.869-.857-.001-1.714-.002-2.571-.003-.287,0-.574,0-.862-.001-.565,0-.257-.11 .199,.253 .415,.33 .227,.951 .227-.058 .001-.344 .001-.688 .001-1.032-.001,1.002-1.439,.869 .112,.87 .857,0 1.714,.001 2.571,.001 .287,0 .574,.001 .862,.001 .566,0 .255,.11-.2-.251-.415-.331-.227-.95-.227,.058-0,.343-0,.687-0,1.031 0,4.514 7,4.514 7,0 0-2.062-.066-3.982-1.49-5.648-1.46-1.71-3.468-2.188-5.616-2.19-1.26,0-2.519-.001-3.778-.002-3.605-.002-5.88,2.784-6.234,6.131-.489,4.619 2.525,7.833 7.106,7.838 1.26,.001 2.519,.003 3.778,.004 3.605,.004 5.881-2.786 6.234-6.132 .201-1.901-1.744-3.5-3.5-3.5-2.06-.001-3.3,1.602-3.5,3.499z"/>
<path d="m235.646,212.42c.105-1.005 1.378-.867-.112-.869-.856-.001-1.714-.002-2.57-.003-.287,0-.575,0-.862-.001-.564,0-.257-.11 .198,.252 .416,.331 .228,.95 .228-.058 .001-.344 .001-.688 .001-1.031-.001,1.002-1.439,.868 .112,.87 .856,0 1.714,.001 2.57,.002 .287,0 .575,0 .862,.001 .564,0 .257,.11-.199-.253-.415-.33-.227-.949-.227,.059-.001,.343-.001,.687-.001,1.031-.003,4.515 6.997,4.514 7,0 .001-2.062-.065-3.983-1.489-5.649-1.46-1.709-3.469-2.187-5.617-2.188-1.259-.001-2.519-.002-3.777-.003-3.605-.003-5.88,2.784-6.234,6.131-.488,4.619 2.525,7.833 7.106,7.838 1.259,.001 2.519,.003 3.777,.004 3.604,.004 5.882-2.786 6.234-6.132 .2-1.901-1.743-3.5-3.5-3.5-2.059-.001-3.301,1.602-3.5,3.499z"/>
<path d="m263.664,212.436c.105-1.006 1.378-.868-.112-.87-.857,0-1.714-.001-2.571-.002-.287,0-.574,0-.862-.001-.565,0-.256-.11 .199,.252 .415,.33 .227,.952 .228-.058 0-.344 .001-.688 .001-1.031-.001,1.001-1.439,.867 .112,.869 .857,.001 1.714,.002 2.571,.003 .287,0 .575,0 .862,.001 .565,0 .257,.11-.199-.253-.415-.33-.227-.95-.228,.059 0,.343-.001,.687-.001,1.031-.005,4.515 6.995,4.514 7,0 .002-2.062-.064-3.983-1.488-5.649-1.461-1.709-3.469-2.187-5.617-2.188-1.26-.001-2.519-.003-3.778-.004-3.604-.004-5.882,2.787-6.234,6.132-.486,4.617 2.522,7.834 7.105,7.838 1.26,.001 2.519,.002 3.778,.003 3.604,.003 5.882-2.783 6.234-6.131 .2-1.901-1.743-3.5-3.5-3.5-2.059-.001-3.301,1.602-3.5,3.499z"/>
<path d="m73.11,73.321c1.618,31.434 33.114,48.865 61.863,48.163 4.506-.11 4.517-7.11 0-7-24.677,.603-53.444-13.589-54.863-41.163-.231-4.491-7.232-4.513-7,0z"/>
<path d="m185.314,158.5c.37-26.311-24.37-42.884-48.527-44-4.515-.208-4.494,6.792 0,7 20.386,.941 41.841,14.638 41.527,37-.063,4.516 6.937,4.51 7,0z"/>
<path d="m129.523,189.219c-2.451,0-4.902,0-7.354,0 1.167,1.167 2.333,2.333 3.5,3.5 0-2.874 .179-5.797-.15-8.653-.606-5.266-5.331-7.87-10.191-7.87-5.3,0-9.173,1.685-11.051,6.939-.984,2.753-.275,6.726-.275,9.584 1.167-1.167 2.333-2.333 3.5-3.5-2.874,0-5.796-.18-8.653,.149-5.266,.606-7.87,5.331-7.87,10.19 0,5.3 1.685,9.174 6.939,11.052 2.753,.983 6.726,.274 9.584,.274-1.167-1.167-2.333-2.333-3.5-3.5 0,2.874-.179,5.797 .15,8.653 .606,5.266 5.331,7.87 10.191,7.87 5.3,0 9.173-1.686 11.051-6.939 .984-2.753 .275-6.726 .275-9.584-1.167,1.167-2.333,2.333-3.5,3.5 5.952,0 11.822,.827 15.469-4.91 1.388-2.183 1.663-7.345 .779-9.817-1.534-4.295-4.402-6.421-8.894-6.938-4.48-.516-4.43,6.49 0,7 3.506,.403 2.877,7.666-.545,7.666-2.27,0-4.539,0-6.809,0-1.908,0-3.5,1.592-3.5,3.5 0,3.082 1.396,9.523-3.341,9.523-5.684,0-4.326-5.422-4.326-9.523 0-1.908-1.592-3.5-3.5-3.5-3.083,0-9.523,1.396-9.523-3.341 0-5.683 5.422-4.325 9.523-4.325 1.908,0 3.5-1.592 3.5-3.5 0-3.082-1.396-9.523 3.341-9.523 5.684,0 4.326,5.422 4.326,9.523 0,1.908 1.592,3.5 3.5,3.5 2.451,0 4.902,0 7.354,0 4.514,0 4.514-7-0-7z"/>
</g>
</svg>
