<svg xmlns="http://www.w3.org/2000/svg" viewBox="20 20 321 321">
<g fill="#fff">
<path d="m114.333,287.297c0,2.413-1.42,4.37-3.172,4.37h-8.989c-1.752,0-3.172-1.957-3.172-4.37v-81.26c0-2.413 1.42-4.37 3.172-4.37h8.989c1.752,0 3.172,1.957 3.172,4.37v81.26z"/>
<path d="m113.035,241.702c7.611-9.277 15.222-18.555 22.833-27.833 4.054-4.941-2.978-12.06-7.071-7.07-7.611,9.277-15.222,18.555-22.833,27.833-4.054,4.941 2.978,12.059 7.071,7.07z"/>
<path d="m162.972,192.25c0,2.578-1.991,4.667-4.449,4.667h-59.866c-2.458,0-4.449-2.089-4.449-4.667v-30.917c0-2.577 1.991-4.667 4.449-4.667h59.866c2.458,0 4.449,2.089 4.449,4.667v30.917z"/>
<path d="m155.244,169.515c0,2.155-1.747,3.902-3.901,3.902h-48.608c-2.155,0-3.902-1.747-3.902-3.902v-21.946c0-2.155 1.747-3.902 3.902-3.902h48.608c2.154,0 3.901,1.747 3.901,3.902v21.946z"/>
<path d="m127.711,164.616c0,1.438-1.547,2.605-3.456,2.605h-32.967c-1.908,0-3.455-1.167-3.455-2.605v-31.593c0-1.438 1.547-2.605 3.455-2.605h32.968c1.908,0 3.456,1.167 3.456,2.605v31.593z"/>
<path d="m144.083,153.667c0,3.313-2.687,6-6,6h-9.875c-3.313,0-6-2.687-6-6v-19.375c0-3.313 2.687-6 6-6h9.875c3.313,0 6,2.687 6,6v19.375z"/>
<path d="m108.958,195.417c0,3.313-2.687,6-6,6h-15.75c-3.313,0-6-2.687-6-6v-15.75c0-3.313 2.687-6 6-6h15.75c3.313,0 6,2.687 6,6v15.75z"/>
<path d="m101.583,163.667c0,3.313-3.471,6-7.753,6h-13.244c-4.282,0-7.753-2.687-7.753-6v-22.75c0-3.313 3.471-6 7.753-6h13.244c4.282,0 7.753,2.687 7.753,6v22.75z"/>
<path d="m91.833,191.667c0,3.313-2.687,6-6,6h-10c-3.313,0-6-2.687-6-6v-40.333c0-3.313 2.687-6 6-6h10c3.313,0 6,2.687 6,6v40.333z"/>
<path d="m155.167,206c0,3.314-2.687,6-6,6h-70.334c-3.313,0-6-2.686-6-6v-8c0-3.313 2.687-6 6-6h70.333c3.313,0 6,2.688 6,6v8z"/>
<path d="m108.083,211.667c0,2.624-2.126,4.75-4.75,4.75h-12c-2.624,0-4.75-2.126-4.75-4.75 0-2.624 2.126-4.75 4.75-4.75h12c2.624,0 4.75,2.126 4.75,4.75z"/>
<path d="m256.068,121.328c3.133-3.946 6.266-7.892 9.398-11.837 1.693-2.132 2.091-4.98 0-7.071-1.761-1.761-5.373-2.138-7.07,0-3.133,3.946-6.266,7.892-9.398,11.837-1.693,2.132-2.091,4.98 0,7.071 1.761,1.761 5.373,2.137 7.07,0z"/>
<path d="m262.323,109.611c5.013-.507 10.025-1.015 15.038-1.522 2.711-.274 5-2.067 5-5 0-2.518-2.283-5.275-5-5-5.013,.507-10.025,1.015-15.038,1.522-2.711,.274-5,2.067-5,5 0,2.517 2.283,5.275 5,5z"/>
<path d="m253.261,113.425c-4.906-1.145-9.813-2.289-14.72-3.434-6.274-1.464-8.938,8.178-2.658,9.643 4.906,1.145 9.813,2.289 14.72,3.434 6.274,1.463 8.937-8.179 2.658-9.643z"/>
<path d="m232.95,109.941c-4.26,2.691-8.519,5.382-12.778,8.073-5.435,3.434-.422,12.09 5.047,8.635 4.26-2.691 8.52-5.382 12.778-8.073 5.435-3.433 .422-12.09-5.047-8.635z"/>
<path d="m214.284,208.967-20.177-45.001 92.721,45.001z"/>
<path d="m218.602,206.443c-6.726-15-13.451-30-20.177-45-2.28,2.28-4.561,4.561-6.841,6.841 30.906,15 61.813,30 92.721,45 .841-3.105 1.683-6.212 2.523-9.317-24.182,0-48.362,0-72.544,0-6.448,0-6.448,10 0,10 24.182,0 48.362,0 72.544,0 4.744,0 7.137-7.078 2.523-9.317-30.906-15-61.813-30-92.721-45-4.71-2.286-8.903,2.241-6.841,6.841 6.726,15 13.451,30 20.177,45 2.636,5.875 11.251,.784 8.636-5.048z"/>
<path d="m277.053,281.368c-.599,4.104-8.698,3.265-12.126,3.265-5.653,0-11.307,0-16.96,0-15.967,0-31.935,0-47.901,0-9.342,0-18.684,0-28.026,0-1.762,0-7.112-.305-7.112-2.955 0-1.701 0-3.401 0-5.103 0-6.589 0-13.178 0-19.768 0-14.454 0-28.909 0-43.364 0-1.403 0-2.807 0-4.21 0-2.478 5.711-2.767 7.271-2.767 3.237,0 6.475,0 9.712,0 27.972,0 55.943,0 83.914,0 4.021,0 11.103-.855 11.103,4.355 0,7.822 0,15.646 0,23.469 0,16.002 0,32.005 0,48.008 0,4.514 7,4.514 7,0 0-23.825 0-47.651 0-71.477 0-11.267-11.88-11.355-20.497-11.355-14.002,0-28.003,0-42.004,0-14.155,0-28.311,0-42.465,0-8.444,0-21.034-.289-21.034,11.015 0,23.934 0,47.866 0,71.8 0,10.615 15.384,9.352 22.751,9.352 12.917,0 25.833,0 38.75,0 13.291,0 26.582,0 39.873,0 7.631,0 23.006,1.828 24.5-8.403 .645-4.415-6.099-6.315-6.749-1.862z"/>
<path d="m213.668,208.967-19.822-45.001-52.722,45.001z"/>
<path d="m217.985,206.443c-6.607-15-13.215-30-19.822-45-1.395-3.165-5.653-2.89-7.853-1.012-17.574,15-35.148,30-52.722,45.001-3.422,2.921-.575,8.535 3.536,8.535 24.181,0 48.362,0 72.544,0 6.448,0 6.448-10 0-10-24.182,0-48.363,0-72.544,0 1.179,2.845 2.357,5.69 3.536,8.535 17.574-15 35.147-30 52.721-45-2.617-.337-5.235-.675-7.853-1.012 6.607,15 13.215,30 19.822,45 2.595,5.891 11.21,.796 8.635-5.047z"/>
<path d="m264.981,245.844c-.699,2.749-12.253,1.261-14.069,1.261-6.037,0-12.074,0-18.111,0-1.072,0-3.734,.353-3.734-1.323 0-2.474 0-4.946 0-7.419 0-5.172 0-10.343 0-15.514 0-1.857 29.226-.915 32.127-.915 1.072,0 3.734-.353 3.734,1.322 0,2.474 0,4.946 0,7.419 0,5.189 0,10.378 0,15.567 0,1.935 3,1.935 3,0 0-6.072 0-12.146 0-18.218 0-4.16 .692-9.091-5.074-9.091-6.591,0-13.182,0-19.771,0-4.473,0-11.266-1.315-15.401,.896-1.723,.921-1.614,3.064-1.614,4.702 0,3.653 0,7.308 0,10.962 0,2.914-1.89,13.601 2.919,14.371 5.195,.832 10.8,.239 16.041,.239 6.091,0 12.181,0 18.271,0 2.329,0 4.016-1.26 4.576-3.464 .477-1.874-2.417-2.669-2.894-.795z"/>
<path d="m245.496,220.434c0,9.391 0,18.78 0,28.171 0,1.935 3,1.935 3,0 0-9.391 0-18.78 0-28.171 0-1.935-3-1.935-3,0z"/>
<path d="m227.566,236.02c12.954,0 25.907,0 38.861,0 1.935,0 1.935-3 0-3-12.954,0-25.907,0-38.861,0-1.934,0-1.934,3-0,3z"/>
<path d="m200.642,283.483c-.569,2.819-5.884,1.733-7.771,1.733-4.027,0-8.056,0-12.083,0-1.36,0-5.2,.683-5.2-1.677 0-1.74 0-3.479 0-5.22 0-14.739 0-29.479 0-44.219 0-1.767-1.372-10.997 1.825-10.997 6.667,0 13.333,0 20,0 4.648,0 3.176,5.442 3.176,8.837 0,7.406 0,14.813 0,22.219 0,9.907 0,19.814 0,29.722 0,1.935 3,1.935 3,0 0-11.552 0-23.103 0-34.654 0-6.795 0-13.59 0-20.385 0-3.313 .589-8.738-4.335-8.738-6.155,0-12.311,0-18.465,0-3.911,0-8.2-.054-8.2,5.093 0,13.215 0,26.43 0,39.645 0,5.226 0,10.451 0,15.678 0,3.34-.211,6.806 3.936,7.644 4.773,.964 10.581,.054 15.432,.054 4.046,0 10.507,1.375 11.579-3.937 .38-1.889-2.512-2.693-2.894-.798z"/>
<path d="m195.566,252.217c1.11,0 2.222,0 3.332,0 1.935,0 1.935-3 0-3-1.11,0-2.222,0-3.332,0-1.934,0-1.934,3 0,3z"/>
<path d="m196.484,241.487c-.375,1.362-14.26,.382-16.32,.382-.865,0-.42-12.865-.42-14.664 0-.071 14.959-.036 16.49-.036 .396,0 .196,13.149 .196,14.717 0,1.935 3,1.935 3,0 0-3.562 0-7.123 0-10.686 0-2.446 .707-7.031-3.057-7.031-3.782,0-7.564,0-11.348,0-2.86,0-7.25-.976-8.229,2.586-.835,3.037-.054,7.254-.054,10.38 0,2.451-.901,7.734 3.008,7.734 3.798,0 7.597,0 11.395,0 2.86,0 7.251,.976 8.229-2.585 .517-1.868-2.378-2.66-2.89-.797z"/>
<path d="m186.588,225.669c0,5.9 0,11.8 0,17.7 0,1.935 3,1.935 3,0 0-5.9 0-11.8 0-17.7 0-1.935-3-1.935-3,0z"/>
<path d="m178.244,236.02c6.563,0 13.124,0 19.687,0 1.935,0 1.935-3 0-3-6.563,0-13.124,0-19.687,0-1.934,0-1.934,3 0,3z"/>
<path d="m90.176,290.086c.022-7.596-.307-15.865 2.149-23.168 1.249-3.713 4.352-5.884 7.204-8.313 1.475-1.256-.657-3.367-2.121-2.121-2.96,2.52-5.959,4.772-7.511,8.467-3.213,7.654-2.697,17.041-2.721,25.135-.006,1.935 2.994,1.935 3,0z"/>
<path d="m84.219,290.086c.04-7.536-.21-16.394 3.811-23.098 2.419-4.034 7.304-5.902 11.196-8.148 1.675-.966 .165-3.559-1.514-2.59-4.34,2.504-8.849,4.513-11.894,8.654-4.957,6.743-4.558,17.329-4.599,25.182-.011,1.935 2.989,1.934 3,0z"/>
<path d="m100.302,290.086c.049-6.599-.401-16.324 4.525-21.6 1.479-1.584 3.773-1.983 4.037-4.438 .207-1.923-2.795-1.902-3,0-.014,.132-3.935,3.174-4.574,4.094-4.139,5.953-3.938,15.099-3.988,21.944-.014,1.935 2.986,1.934 3,0z"/>
<path d="m94.291,290.484c1.042-5.547 1.42-14.121 5.206-18.737 2.219-2.706 6.288-4.275 8.929-6.639 1.444-1.293-.685-3.407-2.121-2.121-2.806,2.511-6.811,4.057-9.2,6.969-4.108,5.01-4.575,13.71-5.706,19.731-.356,1.891 2.535,2.698 2.892,.797z"/>
<path d="m79.793,290.197c-.04-5.097-.108-10.867-2.662-15.453-.558-1.001-1.361-1.87-2.276-2.551-.647-.48-1.229-1.218-1.152-.518-.21-1.901-3.212-1.922-3,0 .199,1.805 1.552,2.173 2.756,3.229 3.762,3.3 3.3,10.904 3.334,15.293 .015,1.934 3.015,1.936 3-0z"/>
<path d="m83.977,289.799c-.823-4.381-1.216-10.155-3.93-13.918-1.64-2.272-4.714-3.416-6.784-5.266-1.438-1.285-3.566,.83-2.121,2.121 1.893,1.691 4.327,2.767 6.136,4.49 .954,.908 1.321,2.383 1.687,3.595 .96,3.184 1.506,6.512 2.12,9.774 .356,1.901 3.248,1.094 2.892-.796z"/>
<path d="m132.652,290.197c.047-7.56-.078-16.376 4.069-23.037 2.11-3.391 5.992-5.197 8.972-7.693 1.485-1.243-.649-3.354-2.121-2.121-3.296,2.761-6.954,4.666-9.441,8.3-4.63,6.765-4.43,16.778-4.479,24.552-.012,1.935 2.988,1.933 3-.001z"/>
<path d="m126.695,290.197c.066-7.716 .262-16.978 5.863-22.976 3.381-3.621 8.623-5.12 12.832-7.521 1.68-.958 .169-3.55-1.514-2.59-4.771,2.721-10.11,4.424-13.947,8.532-5.891,6.309-6.166,16.485-6.234,24.554-.017,1.937 2.983,1.935 3,.001z"/>
<path d="m140.458,289.949c.033-4.581-.399-11.54 2.875-15.322 1.091-1.261 2.609-1.587 2.801-3.473 .196-1.924-2.806-1.905-3,0 .056-.554-2.553,2.101-2.977,2.768-2.832,4.458-2.663,11.006-2.698,16.027-.015,1.936 2.985,1.934 2.999,0z"/>
<path d="m136.455,290.348c.718-4.16 .955-9.754 3.371-13.4 1.249-1.884 4.229-3.138 5.868-4.732 1.388-1.352-.735-3.471-2.121-2.121-1.872,1.821-4.577,3.003-6.148,5.089-2.841,3.773-3.097,9.936-3.862,14.368-.327,1.89 2.563,2.7 2.892,.796z"/>
<path d="m120.662,290.059c-.023-6.194 1.276-16.395-4.54-20.455-1.591-1.111-3.088,1.491-1.515,2.59 .888,.62 1.206,.581 1.647,1.779 1.808,4.905 1.388,10.975 1.407,16.086 .008,1.934 3.008,1.934 3.001,0z"/>
<path d="m126.641,289.66c-.786-4.545-1.104-10.401-3.748-14.384-1.517-2.285-4.518-3.544-6.468-5.438-1.388-1.348-3.511,.771-2.121,2.121 1.789,1.738 4.133,2.878 5.84,4.646 .921,.954 1.246,2.515 1.586,3.741 .917,3.305 1.434,6.737 2.018,10.111 .33,1.904 3.22,1.095 2.893-.797z"/>
</g>
</svg>
