<svg xmlns="http://www.w3.org/2000/svg" viewBox="20 20 321 321">
<g fill="#fff">
<path d="m167.869,263.474c-.131,.651-.608,.416-2.121,.416-2.473,0-4.946,0-7.419,0-7.459,0-14.918,0-22.377,0-12.547,0-25.094,0-37.641,0-.924,0-.138,.925-.138-.513 0-2.17 0-4.34 0-6.509 0-7.441 0-14.882 0-22.323s0-14.882 0-22.323c0-2.068 0-4.136 0-6.204 0-1.694-.68-.817 .138-.817 23.098,0 46.196,0 69.294,0 1.014,0 .139-.911 .139,.246 0,1.816 0,3.634 0,5.45 0,6.889 0,13.778 0,20.667 0,10.947 0,21.894 0,32.841 0,4.514 7,4.514 7,0 0-11.605 0-23.21 0-34.815 0-6.826 0-13.653 0-20.479 0-4.612-.036-10.909-6.486-10.909-23.316,0-46.631,0-69.947,0-4.983,0-7.138,3.681-7.138,8.157 0,5.819 0,11.638 0,17.457 0,13.276 0,26.553 0,39.829 0,10.469 16.975,7.246 23.617,7.246 15.203,0 30.405,0 45.607,0 5.25,0 12.833,1.323 14.222-5.555 .89-4.408-5.857-6.285-6.75-1.862z"/>
<path d="m157.027,250.236c-.414,13.042-12.742,22.755-24.115,13.186-5.144-4.327-6.56-12.086-3.271-17.884 2.445-4.309 5.423-7.538 7.113-12.312 .699-1.975 1.279-3.993 1.912-5.99 .321-1.016 .661-2.02 1.121-2.982-.414-.001-.829-.002-1.243-.002 .507,.646 .955,1.332 1.344,2.056 1.431,2.425 1.984,5.108 2.463,7.835 .177,1.006 .659,2.28 1.536,2.879 1.551,1.06 3.034,.127 4.143-1.092 .887-.974 1.542-2.182 2.183-3.321 .369-.655 1.687-2.443 .964-2.083-.606-.078-1.212-.156-1.818-.234 5.292,5.447 7.477,12.444 7.668,19.944 .049,1.931 3.049,1.936 3,0-.211-8.291-2.707-16.055-8.546-22.066-.492-.506-1.216-.535-1.818-.234-.961,.479-4.187,6.397-4.04,6.599-.924-1.267-.896-4.002-1.31-5.486-.41-1.476-1.14-2.901-1.835-4.255-.655-1.275-1.607-2.926-3.017-3.461-.5-.19-1.094,.044-1.459,.386-1.763,1.646-2.265,4.819-2.945,7.003-1.546,4.968-3.377,9.083-6.553,13.227-4.901,6.395-4.947,15.577 .534,21.759 4.675,5.273 12.604,8.661 19.486,5.669 7.652-3.326 11.25-11.133 11.503-19.139 .062-1.937-2.939-1.931-3-.002z"/>
<path d="m149.534,257.494c-.253,4.563-2.501,9.129-7.599,9.545-6.02,.491-10.059-6.784-7.534-11.825 1.062-2.121 2.8-3.724 3.751-5.953 .829-1.943 1.049-5.327 2.452-6.917-.606,.078-1.212,.156-1.818,.234 2.392,1.583 .869,8.091 4.649,7.984 2.321-.065 2.592-3.19 3.873-4.409-.707,0-1.414,0-2.121,0 3.01,3.209 4.173,6.993 4.347,11.341 .077,1.928 3.077,1.936 3,0-.206-5.14-1.67-9.671-5.226-13.462-.569-.607-1.544-.55-2.121,0-.345,.328-.541,.767-.761,1.181-.215,.412-.439,.818-.673,1.22-.5,.748-.529,.83-.088,.245-.459-2.243-1.314-5.332-3.365-6.689-.533-.353-1.394-.247-1.818,.234-1.07,1.212-1.425,2.897-1.897,4.406-.97,3.104-2.175,5.509-4.126,8.093-2.808,3.718-2.529,9.533 .613,13.012 7.943,8.795 18.872,2.403 19.462-8.239 .108-1.934-2.893-1.925-3-.001z"/>
<path d="m128.332,261.878c-6.844,8.97-18.326-1.943-11.986-10.34 1.042-1.38 1.937-2.752 2.537-4.385 .668-1.816 1.008-5.093 2.3-6.558-.606,.078-1.212,.156-1.817,.234 2.768,1.832 .968,6.837 3.938,8.577 1.785,1.045 2.853-.404 4.317-.983 1.777-.703 1.003-3.604-.798-2.893-.313,.124-.545,.239-.816,.443-1.778,1.343-1.788-1.16-2.102-2.606-.382-1.759-1.481-4.106-3.026-5.128-.533-.353-1.393-.247-1.817,.234-2.474,2.803-2.468,7.41-4.569,10.569-2.715,4.083-4.275,6.979-2.586,11.98 2.972,8.804 13.99,8.953 19.016,2.367 1.174-1.535-1.434-3.028-2.591-1.511z"/>
<path d="m129.627,241.435c-6.288,.384-5.163-8.392-8.313-11.581-.494-.501-1.214-.541-1.817-.234-3.02,1.531-4.006,7.134-4.524,9.977 .041-.223-2.149-4.117-3.059-4.738-.542-.369-1.38-.229-1.818,.234-6.249,6.593-8.708,16.749-5.553,25.372 2.977,8.136 10.75,10.933 18.371,7.773 1.76-.729 .989-3.634-.798-2.893-7.014,2.908-12.546,.152-15.144-6.946-2.571-7.027 .304-15.972 5.246-21.186-.606,.078-1.212,.156-1.818,.234-.535-.365 1.105,2.374 1.5,3.021 .708,1.163 1.57,2.188 2.878,2.639 4.096,1.411 3.801-9.664 6.233-10.898-.605-.078-1.211-.156-1.817-.234 1.734,1.757 2.229,6.18 3.539,8.437 1.491,2.57 3.895,4.207 6.896,4.023 1.92-.118 1.932-3.119-.002-3z"/>
<path d="m137.055,230.787c-2.452-3.632-3.668-7.772-4.943-11.926-.666-2.166-1.179-5.299-2.935-6.922-.38-.352-.944-.558-1.459-.386-4.057,1.356-5.515,9.489-6.096,12.871-.481,2.804-2.223-1.42-2.85-2.563-.487-.889-1.016-2.697-2.032-3.171-.609-.284-1.321-.284-1.818,.234-5.974,6.234-8.963,14.079-9.171,22.677-.047,1.936 2.953,1.932 3,0 .188-7.809 2.864-14.891 8.292-20.556-.606,.078-1.212,.156-1.818,.234-.645-.3 .886,1.967 1.313,2.747 .746,1.36 1.597,2.668 2.683,3.78 1.587,1.623 3.913,1.137 4.758-.94 1.27-3.12 1.389-6.438 2.876-9.561 .483-1.015 1.107-2.017 1.819-2.887-1.403-.346-1.677,.011-.821,1.07 .234,.628 .453,1.262 .656,1.901 1.698,5.112 2.9,10.387 5.953,14.908 1.079,1.598 3.679,.099 2.593-1.51z"/>
<path d="m163.678,232.547c0,4.438 0,8.875 0,13.313 0,1.935 3,1.935 3,0 0-4.438 0-8.875 0-13.313 0-1.935-3-1.935-3,0z"/>
<path d="m165.877,234.047c.817,0 1.633,0 2.45,0 1.935,0 1.935-3 0-3-.817,0-1.633,0-2.45,0-1.934,0-1.934,3 0,3z"/>
<path d="m278.012,283.003c.201-1 3.174-.836 1.062-.836-.99,0-1.98,0-2.971,0-3.593,0-7.186,0-10.778,0-12.256,0-24.511,0-36.767,0-32.093,0-64.186,0-96.279,0-18.018,0-36.035,0-54.052,0 1.833,0 2.106,3.477 2.106,1.537 0-.866 0-1.732 0-2.599 0-3.345 0-6.688 0-10.033 0-11.803 0-23.606 0-35.409 0-52.369 0-104.738 0-157.107 0-.35 0-.699 0-1.048 0,2.496-3.729,2.159-.465,2.159 1.426,0 2.851,0 4.276,0 6.063,0 12.125,0 18.188,0-1.439-.826-2.878-1.651-4.317-2.477 3.153,4.204 6.306,8.408 9.458,12.611 1.792,2.39 3.585,4.78 5.377,7.17 2.436,3.249 5.652,2.695 9.287,2.695 5.823,0 11.646,0 17.468,0 1.285,0 2.57,0 3.855,0 1.912,0-1.551-.576 .968,.34 .883,.321 1.766,.642 2.648,.963 .903,.329 1.738,1.154 .254,.032 .439,.332 .878,.664 1.317,.997 10.924,8.267 21.848,16.533 32.771,24.8 .707,.535 1.414,1.07 2.12,1.604 1.542,1.167-.307,.383-.979-1.112 1.361,3.025 2.723,6.05 4.084,9.076 .738,1.641-.324-3.695-.302-.119 .013,2.044 .026,4.088 .039,6.132 .095,15 .189,30 .285,45 .041,6.592 .083,13.183 .125,19.774 .02,3.091-.75,7.792 1.643,10.186 1.994,1.995 4.303,5.327 7.413,5.327 .942,0 1.885,0 2.827,0 5.364,0 10.729,0 16.094,0 15.711,0 31.422,0 47.132,0 5.905,0 11.811,0 17.716,0 1.627,0-1.784-3.361-1.784-1.842 0,.807 0,1.613 0,2.42 0,3.737 0,7.475 0,11.212 0,16.625 0,33.25 0,49.875 0,6.448 10,6.448 10,0 0-11.303 0-22.605 0-33.908 0-7.365 0-14.73 0-22.095 0-3.912 .783-8.95-1.513-12.355-2.63-3.901-7.355-3.307-11.41-3.307-6.073,0-12.146,0-18.22,0-15.587,0-31.175,0-46.763,0-4.698,0-9.396,0-14.095,0 1.179,.488 2.357,.977 3.535,1.465-1.333-1.334-2.666-2.667-3.999-4 .488,1.178 .977,2.356 1.465,3.535-.155-24.534-.311-49.067-.466-73.602-.05-7.924-2.526-16.322-9.061-21.267-10.967-8.299-21.934-16.599-32.901-24.898-4.44-3.36-9.362-4.234-14.8-4.234-7.424,0-14.849,0-22.274,0 1.439,.826 2.878,1.651 4.317,2.477-3.445-4.594-6.891-9.188-10.336-13.781-1.443-1.925-2.887-3.85-4.331-5.774-1.961-2.615-3.951-2.921-6.918-2.921-6.897,0-13.795,0-20.693,0-5.108,0-9.039,3.118-9.039,8.462 0,19.564 0,39.128 0,58.693 0,49.168 0,98.336 0,147.503 0,9.362 10.829,7.842 17.005,7.842 10.947,0 21.893,0 32.84,0 31.87,0 63.739,0 95.608,0 15.949,0 31.897,0 47.847,0 6.838,0 22.146,2.788 24.021-6.506 1.275-6.295-8.364-8.976-9.638-2.657z"/>
<path d="m194.833,216.7c30.667,0 61.333,0 92,0 6.448,0 6.448-10 0-10-30.667,0-61.333,0-92,0-6.448,0-6.448,10 0,10z"/>
<path d="m138.661,131.867c-.508,3.945-6.193,2.634-8.775,2.634-2.908,0-5.816,0-8.724,0-3.343,0-1.867-15.692-1.867-17.7 0-4.652 14.515-2.634 17.499-2.634 3.343,0 1.867,15.692 1.867,17.7 0,1.935 3,1.935 3,0 0-4.062 0-8.123 0-12.184 0-3.34-.16-8.516-4.798-8.516-4.069,0-8.139,0-12.208,0-4.429,0-7.688,.424-8.359,5.634-.505,3.923 0,8.229 0,12.184 0,3.34 .161,8.516 4.799,8.516 4.069,0 8.139,0 12.208,0 4.429,0 7.688-.424 8.358-5.634 .247-1.915-2.757-1.891-3,0z"/>
<path d="m165.285,147.2c-.508,3.945-6.193,2.634-8.775,2.634-2.908,0-5.816,0-8.724,0-3.343,0-1.867-15.692-1.867-17.7 0-4.652 14.515-2.634 17.499-2.634 3.343,0 1.867,15.692 1.867,17.7 0,1.935 3,1.935 3,0 0-4.062 0-8.123 0-12.184 0-3.34-.16-8.516-4.798-8.516-4.069,0-8.139,0-12.208,0-4.429,0-7.688,.424-8.359,5.634-.505,3.923 0,8.229 0,12.184 0,3.34 .161,8.516 4.799,8.516 4.069,0 8.139,0 12.208,0 4.429,0 7.688-.424 8.358-5.634 .247-1.915-2.757-1.891-3,0z"/>
<path d="m135.461,170.534c-.508,3.945-6.193,2.634-8.775,2.634-2.908,0-5.816,0-8.724,0-3.343,0-1.867-15.692-1.867-17.7 0-4.652 14.515-2.634 17.499-2.634 3.343,0 1.867,15.692 1.867,17.7 0,1.935 3,1.935 3,0 0-4.062 0-8.123 0-12.184 0-3.34-.16-8.516-4.798-8.516-4.069,0-8.139,0-12.208,0-4.429,0-7.688,.424-8.359,5.634-.505,3.923 0,8.229 0,12.184 0,3.34 .161,8.516 4.799,8.516 4.069,0 8.139,0 12.208,0 4.429,0 7.688-.424 8.358-5.634 .247-1.915-2.757-1.891-3,0z"/>
</g>
</svg>
