<svg xmlns="http://www.w3.org/2000/svg" viewBox="20 20 321 321">
<g fill="#fff">
<path d="m157.138,70.994c-4.521,4.521-9.042,9.043-13.564,13.564-4.563,4.564 2.507,11.635 7.071,7.071 4.521-4.521 9.042-9.043 13.564-13.564 4.564-4.564-2.507-11.635-7.071-7.071z"/>
<path d="m191.83,110.139c-12.006,0-24.012,0-36.018,0-6.449,0-6.449,10 0,10 12.006,0 24.012,0 36.018,0 6.448,0 6.448-10 0-10z"/>
<path d="m79.647,161.552c4.56-4.56 9.12-9.12 13.681-13.68 4.563-4.563-2.507-11.635-7.071-7.071-4.56,4.56-9.12,9.12-13.681,13.68-4.564,4.563 2.507,11.634 7.071,7.071z"/>
<path d="m122.914,189.057c0-12.006 0-24.012 0-36.018 0-6.449-10-6.449-10,0 0,12.006 0,24.012 0,36.018 0,6.448 10,6.448 10,0z"/>
<path d="m175.039,166.269c-8.49-8.489-16.979-16.979-25.469-25.469-4.564-4.563-11.635,2.507-7.071,7.071 8.49,8.489 16.979,16.979 25.469,25.469 4.564,4.564 11.635-2.507 7.071-7.071z"/>
<path d="m191.83,110.139c-12.006,0-24.012,0-36.018,0-6.449,0-6.449,10 0,10 12.006,0 24.012,0 36.018,0 6.448,0 6.448-10 0-10z"/>
<path d="m122.914,189.057c0-12.006 0-24.012 0-36.018 0-6.449-10-6.449-10,0 0,12.006 0,24.012 0,36.018 0,6.448 10,6.448 10,0z"/>
<path d="m175.039,166.269c-8.49-8.489-16.979-16.979-25.469-25.469-4.564-4.563-11.635,2.507-7.071,7.071 8.49,8.489 16.979,16.979 25.469,25.469 4.564,4.564 11.635-2.507 7.071-7.071z"/>
<path d="m164.274,91.141c-3.38,1.4-6.761,2.8-10.141,4.201-2.516,1.042-4.283,3.275-3.492,6.15 .655,2.382 3.627,4.537 6.15,3.492 3.38-1.4 6.761-2.8 10.141-4.201 2.516-1.042 4.283-3.275 3.492-6.15-.655-2.382-3.627-4.537-6.15-3.492z"/>
<path d="m166.625,131.352c-3.38-1.4-6.761-2.8-10.142-4.2-2.523-1.045-5.495,1.11-6.15,3.492-.791,2.875 .976,5.108 3.492,6.15 3.38,1.4 6.761,2.8 10.142,4.2 2.523,1.045 5.495-1.11 6.15-3.492 .791-2.875-.976-5.108-3.492-6.15z"/>
<path d="m142.216,161.207c-1.4-3.381-2.8-6.761-4.201-10.142-1.042-2.516-3.275-4.283-6.15-3.492-2.382,.655-4.537,3.627-3.492,6.15 1.4,3.381 2.8,6.761 4.201,10.142 1.042,2.516 3.275,4.283 6.15,3.492 2.382-.655 4.537-3.628 3.492-6.15z"/>
<path d="m103.543,163.865c1.4-3.38 2.801-6.761 4.201-10.142 1.045-2.523-1.11-5.495-3.492-6.15-2.875-.791-5.108,.976-6.15,3.492-1.4,3.38-2.801,6.761-4.201,10.142-1.045,2.523 1.11,5.495 3.492,6.15 2.875,.791 5.108-.976 6.15-3.492z"/>
<path d="m132.544,73.109c-.775,1.87-1.55,3.741-2.325,5.611-1.045,2.522 1.11,5.495 3.492,6.15 2.875,.791 5.108-.976 6.15-3.492 .775-1.87 1.55-3.741 2.325-5.611 1.045-2.522-1.11-5.495-3.492-6.15-2.875-.791-5.108,.976-6.15,3.492z"/>
<path d="m77.049,137.989c1.953-.809 3.906-1.617 5.859-2.426 2.516-1.042 4.283-3.275 3.492-6.15-.655-2.383-3.627-4.537-6.15-3.492-1.953,.809-3.906,1.617-5.859,2.426-2.516,1.042-4.283,3.275-3.492,6.15 .655,2.383 3.627,4.537 6.15,3.492z"/>
</g>
<path fill="none" stroke="#fff" stroke-width="10" d="m92.406,124.168c0,8.159 6.614,14.774 14.773,14.774h19.005c8.16,0 14.774-6.615 14.774-14.774v-18.057c0-8.159-6.614-14.774-14.774-14.774h-19.004c-8.159,0-14.773,6.615-14.773,14.774v18.057z"/>
<g fill="#fff">
<path d="m119.661,254.249c4.432-5.581 8.864-11.163 13.296-16.745 1.693-2.132 2.091-4.979 0-7.07-1.762-1.762-5.374-2.139-7.071,0-4.432,5.581-8.864,11.163-13.296,16.745-1.693,2.132-2.091,4.979 0,7.07 1.761,1.762 5.373,2.139 7.071,0z"/>
<path d="m129.975,238.066c7.091-.718 14.182-1.435 21.273-2.152 6.352-.643 6.415-10.649 0-10-7.091,.718-14.182,1.435-21.273,2.152-6.352,.643-6.415,10.65 0,10z"/>
<path d="m116.603,246.535c-6.94-1.619-13.881-3.238-20.822-4.857-6.274-1.464-8.937,8.178-2.658,9.643 6.94,1.619 13.881,3.238 20.822,4.857 6.273,1.464 8.936-8.178 2.658-9.643z"/>
<path d="m90.468,242.397c-6.026,3.808-12.051,7.614-18.077,11.422-5.435,3.434-.422,12.091 5.047,8.635 6.026-3.808 12.051-7.614 18.077-11.422 5.435-3.433 .422-12.091-5.047-8.635z"/>
<path d="m178.558,263.402c3.668-3.199 7.337-6.399 11.005-9.6 2.056-1.792 1.828-5.242 0-7.07-2.024-2.024-5.019-1.79-7.07,0-3.669,3.199-7.337,6.399-11.006,9.6-2.055,1.792-1.828,5.242 0,7.07 2.024,2.025 5.019,1.79 7.071,0z"/>
<path d="m185.495,254.726c4.726,1.167 9.452,2.333 14.178,3.5 6.261,1.546 8.917-8.098 2.658-9.643-4.726-1.167-9.452-2.333-14.178-3.5-6.26-1.546-8.916,8.098-2.658,9.643z"/>
<path d="m176.895,255.876c-4.461-1.947-8.922-3.896-13.384-5.843-2.498-1.091-5.345-.76-6.841,1.794-1.254,2.142-.706,5.75 1.794,6.841 4.461,1.947 8.922,3.896 13.384,5.843 2.498,1.091 5.345,.76 6.841-1.794 1.254-2.142 .705-5.75-1.794-6.841z"/>
<path d="m157.955,250.514c-3.883,2.936-7.767,5.872-11.649,8.808-2.169,1.641-3.294,4.279-1.794,6.841 1.255,2.143 4.661,3.441 6.841,1.794 3.883-2.936 7.767-5.872 11.649-8.808 2.169-1.641 3.294-4.279 1.794-6.841-1.255-2.143-4.661-3.442-6.841-1.794z"/>
<g stroke="#fff" stroke-width="10">
<path d="m250.104,221.609c0,1.961-1.982,3.55-4.43,3.55h-34.332c-2.445,0-4.43-1.589-4.43-3.55v-25.73c0-1.961 1.984-3.55 4.43-3.55h34.332c2.447,0 4.43,1.589 4.43,3.55v25.73z"/>
<path d="m187.256,206.672c0,3.258 2.641,5.897 5.897,5.897h27.519c3.258,0 5.897-2.64 5.897-5.897v-16.707c0-3.257-2.64-5.897-5.897-5.897h-27.519c-3.257,0-5.897,2.641-5.897,5.897v16.707z"/>
<path d="m175.462,206.672c0-3.256 2.641-5.896 5.897-5.896h33.907c3.257,0 5.897,2.641 5.897,5.896v9.338c0,3.256-2.641,5.896-5.897,5.896h-33.907c-3.256,0-5.897-2.641-5.897-5.896v-9.338z"/>
<path d="m265.271,208.434c0-3.256-2.641-5.896-5.897-5.896h-33.906c-3.258,0-5.897,2.641-5.897,5.896v9.338c0,3.256 2.64,5.896 5.897,5.896h33.906c3.257,0 5.897-2.641 5.897-5.896v-9.338z"/>
<path d="m287.324,152.404c0-2.647-2.089-4.794-4.664-4.794h-26.82c-2.575,0-4.664,2.147-4.664,4.794v7.592c0,2.647 2.089,4.794 4.664,4.794h26.82c2.575,0 4.664-2.147 4.664-4.794v-7.592z"/>
<path d="m241.165,155.43c0,2.081 2.089,3.767 4.665,3.767h21.766c2.576,0 4.664-1.687 4.664-3.767v-10.674c0-2.08-2.088-3.767-4.664-3.767h-21.766c-2.576,0-4.665,1.687-4.665,3.767v10.674z"/>
<path d="m262.602,151.409c0-2.208-1.742-3.998-3.89-3.998h-22.364c-2.148,0-3.89,1.791-3.89,3.998v6.331c0,2.208 1.741,3.999 3.89,3.999h22.364c2.147,0 3.89-1.791 3.89-3.999v-6.331z"/>
</g>
</g>
</svg>
