<svg xmlns="http://www.w3.org/2000/svg" viewBox="20 20 321 321">
<g fill="#fff">
<path d="m243.764,140.352c2.348,34.78 4.695,69.56 7.043,104.339 .303,4.479 7.305,4.509 7,0-2.348-34.779-4.695-69.56-7.043-104.339-.303-4.479-7.305-4.508-7,0z"/>
<path d="m237.137,246.75c-46.014-1.837-92.027-3.674-138.04-5.511-.25-.011-.5-.021-.75-.03-6.451-.258-6.426,9.743 0,10 46.013,1.837 92.026,3.674 138.04,5.511 .25,.011 .5,.021 .75,.03 6.451,.258 6.426-9.743 0-10z"/>
<path d="m232.487,239.524c-23.723-1.072-47.445-2.145-71.168-3.218-9.691-.438-9.734,14.568-.108,15.004 23.723,1.072 47.446,2.145 71.169,3.218 9.69,.438 9.734-14.568 .107-15.004z"/>
<path d="m83.285,240.107c.39,20.711 16.785,37.104 37.495,37.494s37.116-17.37 37.495-37.494c.39-20.711-17.371-37.117-37.495-37.496-20.711-.389-37.116,17.372-37.495,37.496-.037,1.936 2.964,1.933 3,0 .359-19.067 15.427-34.137 34.495-34.496 19.069-.359 34.146,15.969 34.495,34.496 .359,19.068-15.969,34.146-34.495,34.494-19.068,.359-34.146-15.967-34.495-34.494-.036-1.932-3.036-1.935-3,0z"/>
<path d="m93.317,274.357c-9.771-9.629-17.333-22.544-16.722-36.613 .501-11.542 6.244-22.243 14.63-29.971 19.671-18.125 51.495-12.697 65.902,9.05 1.162,1.753 3.95,2.512 5.497,.708 .061-.07 .122-.142 .183-.213-1.135,.301-2.271,.601-3.406,.9 21.391,7.287 42.783,14.574 64.173,21.861 14.04,4.783 28.079,9.565 42.119,14.349 4.152,1.414 8.304,2.828 12.456,4.243 2.768,.942 6.712,1.691 6.712,5.254 0,3.362 0,6.725 0,10.087 0,2.471 .893,7.221-.821,9.396-1.139,1.445-4.473,.908-5.98,.908-9.682,0-19.364,0-29.047,0-31.569,0-63.14,0-94.71,0-17.617,0-35.235,0-52.852,0-4.514,0-4.514,7 0,7 49.971,0 99.942,0 149.913,0 9.203,0 18.406,0 27.609,0 2.411,0 5.138,.235 7.306-.996 7.076-4.022 5.583-12.321 5.583-19.234 0-7.088 .747-15.303-7.868-17.853-2.082-.616-4.127-1.36-6.183-2.062-11.595-3.949-23.189-7.899-34.784-11.85-27.255-9.284-54.51-18.568-81.764-27.854-1.095-.373-2.646,.014-3.406,.9-.061,.07-.122,.142-.183,.213 1.833,.236 3.665,.472 5.497,.708-16.794-25.352-51.028-30.786-74.917-12.145-10.905,8.51-17.181,21.657-18.559,35.226-1.642,16.174 7.516,31.942 18.672,42.936 3.217,3.172 8.169-1.776 4.95-4.948z"/>
<path d="m268.413,282.625c.268,3.31 1.665,5.82 4.512,7.587 2.04,1.267 4.611,1.052 6.904,1.052 2.31,0 4.606,.18 6.783-.74 3.324-1.404 4.969-4.423 5.249-7.898 .255-3.16-1.995-6.027-4.512-7.589-2.04-1.267-4.612-1.052-6.905-1.052-2.31,0-4.606-.18-6.782,.74-3.325,1.405-4.969,4.424-5.249,7.9-.363,4.502 6.64,4.468 7,0 .176-2.18 2.907-1.641 4.416-1.641 1.564,0 4.847-.662 5.032,1.641 .175,2.168-3.179,1.639-4.417,1.639-1.563,0-4.846,.662-5.031-1.639-.36-4.467-7.363-4.502-7,0z"/>
<path d="m81.882,282.978c.267,3.31 1.665,5.821 4.511,7.588 2.04,1.267 4.612,1.052 6.904,1.052 2.31,0 4.607,.18 6.783-.74 3.325-1.404 4.969-4.424 5.249-7.899 .255-3.16-1.996-6.027-4.511-7.588-2.04-1.267-4.612-1.052-6.905-1.052-2.31,0-4.607-.18-6.783,.74-3.324,1.403-4.967,4.423-5.248,7.899-.363,4.503 6.64,4.468 7,0 .176-2.179 2.908-1.64 4.416-1.64 1.564,0 4.847-.662 5.032,1.64 .175,2.169-3.177,1.64-4.416,1.64-1.564,0-4.846,.662-5.032-1.64-.36-4.468-7.363-4.503-7,0z"/>
<path d="m242.829,252.687c6.004-16.5 11.417-33.238 16.442-50.06 4.055-13.576 7.783-27.27 10.729-41.132 2.346-11.037 4.721-22.794 3.848-34.135-.491-6.387-10.495-6.435-10,0 .81,10.522-1.351,21.231-3.49,31.477-2.896,13.871-6.694,27.554-10.729,41.131-5.001,16.827-10.439,33.563-16.442,50.061-2.21,6.074 7.456,8.667 9.642,2.658z"/>
<path d="m263.761,73.348c-1.519,5.487-2.505,11.106-4.515,16.447-2.407,6.395-5.664,11.901-6.52,18.803-.607,4.905 1.304,11.131 3.773,15.347 2.182,3.723 6.177,5.75 9.824,7.732 5.667,3.079 10.714-5.555 5.047-8.635-2.448-1.331-5.223-2.416-6.681-4.904-2.065-3.523-2.364-8.317-1.384-12.161 1.32-5.182 4.212-9.885 6.09-14.874 1.829-4.86 2.625-10.103 4.007-15.098 1.724-6.225-7.924-8.864-9.641-2.657z"/>
<path d="m265.819,245.624c-2.569-17.376-5.771-34.681-9.354-51.874-2.891-13.872-6.124-27.69-10.128-41.286-3.182-10.806-6.72-22.233-12.876-31.772-3.483-5.397-12.143-.389-8.635,5.047 5.724,8.869 8.876,19.354 11.868,29.384 4.05,13.58 7.219,27.423 10.128,41.286 3.607,17.187 6.785,34.5 9.354,51.874 .941,6.36 10.576,3.647 9.643-2.659z"/>
<path d="m199.048,78.398c1.416,6.15 3.482,12.106 3.949,18.434 .442,6.002 .491,12.519 3.255,18.023 2.208,4.399 5.961,8.323 10.035,11.055 3.736,2.506 8.569,2.318 12.856,2.305 6.447-.02 6.449-10.02 0-10-2.776,.008-6.075,.495-8.423-1.338-3.575-2.793-5.829-6.284-6.801-10.658-1.13-5.08-.888-10.458-1.623-15.61-.719-5.033-2.467-9.922-3.606-14.869-1.447-6.283-11.087-3.618-9.642,2.658z"/>
<path d="m228.737,151.568c10.763-4.263 21.526-8.526 32.289-12.79 5.922-2.346 3.344-12.02-2.658-9.643-10.763,4.263-21.526,8.526-32.289,12.79-5.922,2.346-3.344,12.021 2.658,9.643z"/>
</g>
</svg>
