<svg xmlns="http://www.w3.org/2000/svg" viewBox="20 20 321 321">
<path fill="none" stroke="#fff" d="m44.239,93.792"/>
<g fill="#fff">
<path d="m84.95,281.988c-7.313-.492-5.186-12.366-5.186-17.284 0-11.992 0-23.984 0-35.977 0-31.947 0-63.895 0-95.842 0-11.871 0-23.742 0-35.612 0-4.511-2.032-16.771 5.192-16.771 18.101,0 36.202,0 54.304,0 31.835,0 63.671,0 95.506,0 10.97,0 21.938,0 32.908,0 4.741,0 13.446-1.509 13.446,5.623 0,51.736 0,103.472 0,155.208 0,10.004 0,20.007 0,30.01 0,5.168 .199,10.646-6.696,10.646-21.969,0-43.938,0-65.908,0-41.188-.001-82.377-.001-123.566-.001-6.449,0-6.449,10 0,10 49.659,0 99.317,0 148.976,0 11.102,0 22.204,0 33.306,0 8.689,0 17.717,.648 22.406-8.697 2.659-5.298 1.483-13.396 1.483-19.11 0-12.111 0-24.224 0-36.335 0-31.944 0-63.889 0-95.833 0-11.748 0-23.496 0-35.244 0-6.769 1.225-15.374-3.587-20.84-5.744-6.526-13.937-5.426-21.694-5.426-11.489,0-22.979,0-34.469,0-31.906,0-63.813,0-95.719,0-12.338,0-24.676,0-37.014,0-5.786,0-12.012-.625-17.725,.542-11.184,2.285-11.148,13.691-11.148,22.477 0,10.843 0,21.685 0,32.528 0,50.242 0,100.483 0,150.726 0,8.673 6.939,14.658 15.186,15.213 6.44,.433 6.398-9.57-.001-10.001z"/>
<path d="m162.333,133.804c-.362,17.437-14.063,31.138-31.5,31.5-17.436,.362-31.149-14.608-31.5-31.5-.362-17.436 14.608-31.149 31.5-31.5 17.436-.362 31.149,14.608 31.5,31.5 .04,1.932 3.04,1.936 3,0-.396-19.083-15.417-34.104-34.5-34.5-19.083-.396-34.116,16.013-34.5,34.5-.396,19.083 16.013,34.116 34.5,34.5 19.083,.396 34.116-16.013 34.5-34.5 .04-1.936-2.96-1.932-3,0z"/>
<path d="m154.291,222.667c-.352,13.048-10.409,23.105-23.457,23.457-13.046,.352-23.122-10.939-23.459-23.457-.352-13.047 10.941-23.12 23.459-23.458 13.046-.352 23.12,10.94 23.457,23.458 .052,1.931 3.052,1.936 3,0-.396-14.696-11.76-26.062-26.457-26.458-14.694-.396-26.079,12.355-26.459,26.458-.396,14.694 12.357,26.077 26.459,26.457 14.693,.396 26.077-12.356 26.457-26.457 .052-1.936-2.948-1.931-3,0z"/>
<path d="m138.833,133.804c-.555,10.311-15.445,10.311-16,0-.556-10.316 15.447-10.262 16,0 .104,1.924 3.104,1.934 3,0-.335-6.226-4.774-10.665-11-11-6.212-.334-10.692,5.279-11,11-.334,6.212 5.279,10.692 11,11 6.212,.334 10.692-5.279 11-11 .104-1.934-2.896-1.924-3,0z"/>
<path d="m263.083,133.804c-.361,12.938-10.312,22.889-23.25,23.25-12.936,.361-22.904-10.855-23.25-23.25-.361-12.935 10.854-22.904 23.25-23.25 12.936-.361 22.904,10.855 23.25,23.25 .054,1.931 3.054,1.936 3,0-.407-14.593-11.656-25.843-26.25-26.25-14.59-.407-25.86,12.269-26.25,26.25-.407,14.589 12.27,25.86 26.25,26.25 14.59,.407 25.86-12.269 26.25-26.25 .054-1.936-2.946-1.931-3,0z"/>
<path d="m263.641,222.668c-.361,17.387-14.025,31.05-31.412,31.41s-31.063-14.565-31.412-31.41c-.361-17.388 14.566-31.063 31.412-31.413 17.388-.361 31.062,14.568 31.412,31.413 .04,1.932 3.04,1.936 3,0-.395-19.035-15.377-34.018-34.412-34.413s-34.029,15.973-34.412,34.413c-.395,19.034 15.973,34.027 34.412,34.41 19.033,.395 34.029-15.971 34.412-34.41 .04-1.936-2.96-1.932-3,0z"/>
<path d="m247.833,133.804c-.556,10.311-15.444,10.311-16,0-.556-10.317 15.447-10.262 16,0 .104,1.924 3.104,1.934 3,0-.335-6.226-4.774-10.665-11-11-6.213-.334-10.692,5.279-11,11-.335,6.212 5.278,10.692 11,11 6.213,.334 10.692-5.279 11-11 .105-1.934-2.896-1.924-3,0z"/>
<path d="m239.925,222.668c-.534,9.918-14.858,9.918-15.393,0-.535-9.926 14.862-9.874 15.393,0 .104,1.924 3.104,1.934 3,0-.326-6.054-4.643-10.371-10.696-10.697-6.041-.325-10.396,5.135-10.696,10.697-.325,6.04 5.134,10.396 10.696,10.695 6.04,.325 10.396-5.133 10.696-10.695 .104-1.934-2.897-1.924-3,0z"/>
<path d="m138.451,222.667c-.529,9.819-14.708,9.818-15.236,0-.529-9.826 14.71-9.775 15.236,0 .104,1.924 3.104,1.934 3,0-.324-6.009-4.607-10.296-10.617-10.62-5.998-.323-10.322,5.098-10.619,10.62-.323,5.997 5.097,10.321 10.619,10.618 5.996,.323 10.32-5.097 10.617-10.618 .104-1.934-2.896-1.924-3,0z"/>
<path d="m206.949,157.054c-12.938-.361-22.889-10.312-23.25-23.25-.36-12.936 10.854-22.904 23.25-23.25 1.931-.054 1.936-3.054 0-3-14.594,.407-25.843,11.656-26.25,26.25-.407,14.59 12.269,25.86 26.25,26.25 1.936,.054 1.931-2.947 0-3z"/>
<path d="m206.949,110.554c4.706,0 9.413,0 14.119,0 1.935,0 1.935-3 0-3-4.706,0-9.413,0-14.119,0-1.934,0-1.934,3 0,3z"/>
<path d="m206.949,160.054c4.706,0 9.413,0 14.119,0 1.935,0 1.935-3 0-3-4.706,0-9.413,0-14.119,0-1.934,0-1.934,3 0,3z"/>
<path d="m136.44,269.955c2.477,0 4.955,0 7.432,0 1.935,0 1.935-3 0-3-2.477,0-4.955,0-7.432,0-1.934,0-1.934,3 0,3z"/>
<path d="m155.791,269.955c17.053,0 34.105,0 51.158,0 1.935,0 1.935-3 0-3-17.053,0-34.105,0-51.158,0-1.935,0-1.935,3 0,3z"/>
<path d="m218.316,269.955c2.478,0 4.954,0 7.432,0 1.935,0 1.935-3 0-3-2.478,0-4.954,0-7.432,0-1.934,0-1.934,3 0,3z"/>
</g>
</svg>
