<svg xmlns="http://www.w3.org/2000/svg" viewBox="20 20 321 321">
<g fill="#fff">
<path d="m240.924,257.988c0-48.647 0-97.294 0-145.942 0-2.517 0-5.034 0-7.551 0-6.449-10-6.449-10,0 0,48.647 0,97.294 0,145.942 0,2.517 0,5.034 0,7.551 0,6.449 10,6.449 10,0z"/>
<path d="m84.95,252.988c-7.91-.532-5.186-16.387-5.186-21.503 0-14.594 0-29.187 0-43.779 0-24.468 0-48.936 0-73.403 0-7.307 8.537-5.8 13.447-5.8 10.969,0 21.938,0 32.908,0 31.835,0 63.671,0 95.506,0 18.102,0 36.202,0 54.304,0 7.788,0 5.192,16.192 5.192,20.83 0,14.487 0,28.975 0,43.462 0,24.744 0,49.488 0,74.232 0,7.356-8.011,5.961-13.014,5.961-10.835,0-21.671,0-32.506,0-50.208,0-100.416,0-150.624,0-.008-0-.018-0-.027-0-6.449,0-6.449,10 0,10 49.659,0 99.317,0 148.976,0 11.102,0 22.204,0 33.306,0 8.689,0 17.717,.648 22.406-8.697 3.187-6.351 1.483-16.718 1.483-23.49 0-14.695 0-29.392 0-44.087 0-24.185 0-48.369 0-72.553 0-8.85-6.593-15.08-15.186-15.658-1.352-.091-2.741,0-4.095,0-9.405,0-18.811,0-28.216,0-52.567,0-105.134,0-157.701,0-6.304,0-11.797,2.96-14.676,8.697-1.622,3.232-1.483,6.694-1.483,10.172 0,11.157 0,22.313 0,33.47 0,29.31 0,58.62 0,87.93 0,2.853 0,5.705 0,8.559 0,8.85 6.592,15.079 15.186,15.657 6.441,.434 6.399-9.569 0-10z"/>
</g>
<path fill="none" stroke="#fff" d="m44.239,121.792"/>
<g fill="#fff">
<path d="m91.71,230.406c1.155,8.598 13.989,5.972 20.149,5.972 14.897,0 29.795,0 44.692,0 14.565,0 29.13,0 43.695,0 5.24,0 18.161,2.305 18.161-6.091 0-25.467 0-50.934 0-76.401 0-5.712 0-11.424 0-17.137 0-2.188 .643-6.472-.815-8.359-2.306-2.985-4.923-2.958-8.262-2.958-4.634,0-9.267,0-13.9,0-29.338,0-58.677,0-88.015,0-5.614,0-15.705-1.823-15.705,6.606 0,10.582 0,21.164 0,31.746 0,22.207 0,44.415 0,66.622 0,1.935 3,1.935 3,0 0-24.642 0-49.282 0-73.924 0-6.067 0-12.133 0-18.2 0-2.455-1.192-9.85 2.982-9.85 8.009,0 16.019,0 24.027,0 28.541,0 57.082,0 85.622,0 2.175,0 8.066-.952 8.066,3.09 0,3.019 0,6.037 0,9.056 0,14.604 0,29.208 0,43.813 0,13.557 0,27.113 0,40.67 0,2.147 1.014,8.317-3.073,8.317-2.647,0-5.295,0-7.942,0-29.152,0-58.305,0-87.457,0-4.72,0-9.439,0-14.159,0-2.404,0-7.536,.979-8.066-2.972-.253-1.887-3.256-1.913-3-0z"/>
<path d="m235.924,242.334c16.732,0 33.465,0 50.197,0 6.448,0 6.448-10 0-10-16.732,0-33.465,0-50.197,0-6.448,0-6.448,10 0,10z"/>
<path d="m264.022,171.5c3.307,0 6.613,0 9.92,0 1.935,0 1.935-3 0-3-3.307,0-6.613,0-9.92,0-1.934,0-1.934,3 0,3z"/>
<path d="m246.729,171.5c3.307,0 6.613,0 9.92,0 1.935,0 1.935-3 0-3-3.307,0-6.613,0-9.92,0-1.935,0-1.935,3 0,3z"/>
<path d="m264.022,178.611c3.307,0 6.613,0 9.92,0 1.935,0 1.935-3 0-3-3.307,0-6.613,0-9.92,0-1.934,0-1.934,3 0,3z"/>
<path d="m246.729,178.611c3.307,0 6.613,0 9.92,0 1.935,0 1.935-3 0-3-3.307,0-6.613,0-9.92,0-1.935,0-1.935,3 0,3z"/>
<path d="m246.729,212.167c3.307,0 6.613,0 9.92,0 1.935,0 1.935-3 0-3-3.307,0-6.613,0-9.92,0-1.935,0-1.935,3 0,3z"/>
<path d="m246.729,192.834c3.307,0 6.613,0 9.92,0 1.935,0 1.935-3 0-3-3.307,0-6.613,0-9.92,0-1.935,0-1.935,3 0,3z"/>
<path d="m264.022,212.167c3.307,0 6.613,0 9.92,0 1.935,0 1.935-3 0-3-3.307,0-6.613,0-9.92,0-1.934,0-1.934,3 0,3z"/>
<path d="m273.06,153.804c-.528,1.277-5.974,.515-7.24,.515-4.338,0-8.677,0-13.015,0-2.709,0-3.836,.777-3.836-2.135 0-3.603 0-7.205 0-10.808 0-.425 18.511-.209 20.202-.209 3.368,0 3.835-.601 3.835,2.907 0,3.376 0,6.753 0,10.129 0,1.935 3,1.935 3,0 0-4.045 0-8.09 0-12.136 0-3.587-2.581-3.9-5.466-3.9-5.382,0-10.764,0-16.146,0-3.341,0-6.882-.878-8.372,2.717-.533,1.285-.054,3.607-.054,4.947 0,2.529 0,5.059 0,7.587 0,3.587 2.582,3.901 5.467,3.901 5.382,0 10.764,0 16.146,0 3.34,0 6.883,.878 8.371-2.717 .74-1.788-2.164-2.559-2.892-.798z"/>
<path d="m195.767,159.003c-5.305,4.071-11.537,7.063-18.078,8.424-8.644,1.798-17.885-3.119-24.705-7.995-4.123-2.948-8.392-5.585-13.148-7.421-10.072-3.888-19.329-2.857-29.017,1.641-4.091,1.899-.533,7.932 3.533,6.044 10.576-4.911 19.97-3.479 29.821,2.226 3.964,2.296 7.471,5.21 11.499,7.429 7.909,4.356 16.45,6.372 25.365,4.518 6.463-1.345 13.042-4.814 18.263-8.821 3.528-2.709 .049-8.794-3.533-6.045z"/>
<path d="m195.767,178.185c-5.305,4.071-11.537,7.062-18.078,8.423-8.643,1.798-17.885-3.118-24.705-7.995-4.123-2.948-8.392-5.585-13.148-7.421-10.072-3.888-19.329-2.858-29.017,1.641-4.091,1.899-.533,7.932 3.533,6.044 10.577-4.911 19.97-3.479 29.821,2.227 3.964,2.296 7.471,5.21 11.499,7.428 7.909,4.356 16.45,6.372 25.365,4.518 6.463-1.345 13.042-4.813 18.263-8.819 3.528-2.71 .049-8.795-3.533-6.046z"/>
<path d="m195.767,196.591c-5.305,4.071-11.537,7.063-18.078,8.424-8.643,1.798-17.885-3.118-24.705-7.994-4.123-2.948-8.392-5.586-13.148-7.423-10.071-3.888-19.33-2.858-29.017,1.642-4.091,1.9-.533,7.934 3.533,6.045 10.576-4.913 19.97-3.48 29.821,2.226 3.964,2.296 7.471,5.21 11.499,7.428 7.909,4.356 16.45,6.372 25.365,4.518 6.463-1.345 13.042-4.813 18.263-8.819 3.528-2.71 .049-8.795-3.533-6.047z"/>
</g>
</svg>
