<svg xmlns="http://www.w3.org/2000/svg" viewBox="20 20 321 321">
<g fill="#fff">
<path d="m88.162,213.988c5.833-1.333 11.667-2.667 17.5-4 6.286-1.437 3.62-11.078-2.658-9.643-5.833,1.333-11.667,2.667-17.5,4-6.286,1.437-3.62,11.079 2.658,9.643z"/>
<path d="m103.004,209.988c4.667,1.5 9.333,3 14,4.5 6.157,1.979 8.772-7.678 2.658-9.643-4.667-1.5-9.333-3-14-4.5-6.157-1.979-8.772,7.678-2.658,9.643z"/>
<path d="m129.162,214.988c5.833-1.333 11.667-2.667 17.5-4 6.286-1.437 3.62-11.078-2.658-9.643-5.833,1.333-11.667,2.667-17.5,4-6.286,1.437-3.62,11.079 2.658,9.643z"/>
<path d="m144.004,210.988c4.667,1.5 9.333,3 14,4.5 6.157,1.979 8.772-7.678 2.658-9.643-4.667-1.5-9.333-3-14-4.5-6.157-1.979-8.772,7.678-2.658,9.643z"/>
<path d="m170.162,215.988c5.833-1.333 11.667-2.667 17.5-4 6.286-1.437 3.62-11.078-2.658-9.643-5.833,1.333-11.667,2.667-17.5,4-6.286,1.437-3.62,11.079 2.658,9.643z"/>
<path d="m185.004,211.988c4.667,1.5 9.333,3 14,4.5 6.157,1.979 8.771-7.678 2.658-9.643-4.667-1.5-9.333-3-14-4.5-6.157-1.979-8.772,7.678-2.658,9.643z"/>
<path d="m211.162,215.988c5.833-1.333 11.667-2.667 17.5-4 6.286-1.437 3.62-11.078-2.658-9.643-5.833,1.333-11.667,2.667-17.5,4-6.286,1.437-3.62,11.079 2.658,9.643z"/>
<path d="m226.004,211.988c4.667,1.5 9.333,3 14,4.5 6.157,1.979 8.771-7.678 2.658-9.643-4.667-1.5-9.333-3-14-4.5-6.157-1.979-8.771,7.678-2.658,9.643z"/>
<path d="m251.162,215.988c5.833-1.333 11.667-2.667 17.5-4 6.286-1.437 3.62-11.078-2.658-9.643-5.833,1.333-11.667,2.667-17.5,4-6.286,1.437-3.62,11.079 2.658,9.643z"/>
<path d="m266.004,211.988c4.667,1.5 9.333,3 14,4.5 6.157,1.979 8.771-7.678 2.658-9.643-4.667-1.5-9.333-3-14-4.5-6.157-1.979-8.771,7.678-2.658,9.643z"/>
<path d="m76.162,233.988c5.833-1.333 11.667-2.667 17.5-4 6.286-1.437 3.62-11.078-2.658-9.643-5.833,1.333-11.667,2.667-17.5,4-6.286,1.437-3.62,11.079 2.658,9.643z"/>
<path d="m91.004,229.988c4.667,1.5 9.333,3 14,4.5 6.157,1.979 8.772-7.678 2.658-9.643-4.667-1.5-9.333-3-14-4.5-6.157-1.979-8.772,7.678-2.658,9.643z"/>
<path d="m117.162,234.988c5.833-1.333 11.667-2.667 17.5-4 6.286-1.437 3.62-11.078-2.658-9.643-5.833,1.333-11.667,2.667-17.5,4-6.286,1.437-3.62,11.079 2.658,9.643z"/>
<path d="m132.004,230.988c4.667,1.5 9.333,3 14,4.5 6.157,1.979 8.772-7.678 2.658-9.643-4.667-1.5-9.333-3-14-4.5-6.157-1.979-8.772,7.678-2.658,9.643z"/>
<path d="m158.162,235.988c5.833-1.333 11.667-2.667 17.5-4 6.286-1.437 3.62-11.078-2.658-9.643-5.833,1.333-11.667,2.667-17.5,4-6.286,1.437-3.62,11.079 2.658,9.643z"/>
<path d="m173.004,231.988c4.667,1.5 9.333,3 14,4.5 6.157,1.979 8.771-7.678 2.658-9.643-4.667-1.5-9.333-3-14-4.5-6.157-1.979-8.772,7.678-2.658,9.643z"/>
<path d="m199.162,235.988c5.833-1.333 11.667-2.667 17.5-4 6.286-1.437 3.62-11.078-2.658-9.643-5.833,1.333-11.667,2.667-17.5,4-6.286,1.437-3.62,11.079 2.658,9.643z"/>
<path d="m214.004,231.988c4.667,1.5 9.333,3 14,4.5 6.157,1.979 8.771-7.678 2.658-9.643-4.667-1.5-9.333-3-14-4.5-6.157-1.979-8.771,7.678-2.658,9.643z"/>
<path d="m239.162,235.988c5.833-1.333 11.667-2.667 17.5-4 6.286-1.437 3.62-11.078-2.658-9.643-5.833,1.333-11.667,2.667-17.5,4-6.286,1.437-3.62,11.079 2.658,9.643z"/>
<path d="m254.004,231.988c4.667,1.5 9.333,3 14,4.5 6.157,1.979 8.771-7.678 2.658-9.643-4.667-1.5-9.333-3-14-4.5-6.157-1.979-8.771,7.678-2.658,9.643z"/>
<path d="m138.5,188.667 39.167-32 39.166,32z"/>
<path d="m142.036,192.202c13.055-10.666 26.111-21.333 39.167-32-2.357,0-4.714,0-7.071,0 13.056,10.667 26.111,21.333 39.167,32 1.178-2.845 2.356-5.69 3.535-8.535-26.111,0-52.222,0-78.333,0-6.449,0-6.449,10 0,10 26.111,0 52.222,0 78.333,0 4.045,0 7.046-5.667 3.535-8.535-13.055-10.667-26.11-21.333-39.166-32-2.278-1.861-4.793-1.861-7.071,0-13.055,10.667-26.111,21.333-39.167,32-4.998,4.082 2.122,11.114 7.071,7.07z"/>
<circle cx="213.958" cy="150.542" stroke="#fff" r="21.125"/>
<path d="m163.078,137.01c3.97-1.681 8.236-.57 9.528,2.481l.975,2.302c1.292,3.051-.879,6.888-4.849,8.569l-57.204,24.223c-3.97,1.681-8.236,.57-9.528-2.481l-.975-2.302c-1.292-3.051 .879-6.888 4.849-8.569l57.204-24.223z"/>
<path d="m160.539,148.248c-.509-.938 1.437-2.982 4.348-4.564l2.196-1.194c2.911-1.583 5.685-2.105 6.194-1.167l7.349,13.515c.51,.938-1.437,2.982-4.348,4.564l-2.196,1.194c-2.911,1.583-5.685,2.105-6.194,1.167l-7.349-13.515z"/>
</g>
</svg>
