<svg xmlns="http://www.w3.org/2000/svg" viewBox="20 20 321 321">
<g fill="#fff">
<path d="m75.677,156.583-.244-81 106.801,81z"/>
<path d="m80.677,156.583c-.082-27-.163-54-.245-81-2.508,1.439-5.016,2.878-7.523,4.317 35.59,26.992 71.18,53.984 106.771,80.976 .01,.008 .021,.016 .031,.024 .841-3.106 1.683-6.211 2.523-9.317-35.519,0-71.038,0-106.557,0-6.449,0-6.449,10 0,10 35.519,0 71.038,0 106.557,0 5.402,0 6.252-6.489 2.523-9.317-35.59-26.992-71.18-53.984-106.771-80.976-.01-.008-.021-.016-.031-.024-3.125-2.371-7.534,.868-7.523,4.317 .082,27 .163,54 .245,81 .02,6.448 10.02,6.45 10,0z"/>
</g>
<g fill="none" stroke="#fff" stroke-width="10">
<path d="m163.433,281.916c0,3.223-4.727,5.834-10.558,5.834h-66.884c-5.832,0-10.558-2.611-10.558-5.834v-122.499c0-3.222 4.727-5.833 10.558-5.833h66.884c5.832,0 10.558,2.612 10.558,5.833v122.499z"/>
<path d="m128.433,281.404c0,3.137-2.687,5.68-6,5.68h-23.5c-3.313,0-6-2.543-6-5.68v-68.143c0-3.136 2.687-5.678 6-5.678h23.5c3.313,0 6,2.542 6,5.678v68.143z"/>
</g>
<g fill="#fff">
<circle cx="233.833" cy="193.955" r="9.529"/>
<path d="m233.834,203.71c-5.379,0-9.756-4.376-9.756-9.755s4.377-9.755 9.756-9.755c5.378,0 9.754,4.376 9.754,9.755s-4.376,9.755-9.754,9.755zm0-19.059c-5.131,0-9.305,4.174-9.305,9.304 0,5.129 4.174,9.304 9.305,9.304 5.129,0 9.303-4.175 9.303-9.304 0-5.13-4.174-9.304-9.303-9.304z"/>
<path d="m223.727,248.03c0,13.085 0,26.173 0,39.259 0,5.244 8.121,5.289 8.121,.059 0-13.088 0-26.173 0-39.26 0-5.243-8.121-5.289-8.121-.058z"/>
<path d="m235.906,248.03c0,13.085 0,26.173 0,39.259 0,5.244 8.121,5.289 8.121,.059 0-13.088 0-26.173 0-39.26-0-5.243-8.121-5.289-8.121-.058z"/>
<path d="m244.066,248.776c0,2.608-2.115,4.723-4.724,4.723h-11.021c-2.607,0-4.723-2.114-4.723-4.723v-37.919c0-2.607 2.115-4.723 4.723-4.723h11.021c2.608,0 4.724,2.115 4.724,4.723v37.919z"/>
<path d="m245.156,211.323c0,5.544 0,11.088 0,16.632 0,3.782 5.863,3.782 5.863,0 0-5.544 0-11.088 0-16.632 .001-3.782-5.863-3.782-5.863,0z"/>
<path d="m245.156,227.955c0,5.545 0,11.09 0,16.633 0,3.781 5.863,3.781 5.863,0 0-5.543 0-11.088 0-16.633 .001-3.781-5.863-3.781-5.863,0z"/>
<path d="m216.646,211.322c0,5.545 0,11.088 0,16.633 0,3.781 5.863,3.781 5.863,0 0-5.545 0-11.088 0-16.633 .001-3.781-5.863-3.781-5.863,0z"/>
<path d="m216.646,227.955c0,5.545 0,11.09 0,16.633 0,3.781 5.863,3.781 5.863,0 0-5.543 0-11.088 0-16.633 .001-3.781-5.863-3.781-5.863,0z"/>
</g>
</svg>
