<svg xmlns="http://www.w3.org/2000/svg" viewBox="20 20 321 321">
<g fill="none" stroke="#fff" stroke-width="10">
<path d="m236.833,280.988c0,3.137-2.687,5.679-6,5.679h-23.5c-3.313,0-6-2.542-6-5.679v-68.143c0-3.137 2.687-5.679 6-5.679h23.5c3.313,0 6,2.542 6,5.679v68.143z"/>
<path d="m137.762,247.49c0,1.477-1.295,2.672-2.894,2.672h-10.609c-1.598,0-2.893-1.195-2.893-2.672v-74.064c0-1.475 1.295-2.671 2.893-2.671h10.609c1.598,0 2.894,1.196 2.894,2.671v74.064z"/>
</g>
<g fill="#fff">
<path stroke="#fff" stroke-width="10" d="m142.102,269.773c0,1.598-1.016,2.894-2.269,2.894h-20.54c-1.253,0-2.268-1.296-2.268-2.894v-16.717c0-1.599 1.015-2.895 2.268-2.895h20.54c1.253,0 2.269,1.296 2.269,2.895v16.717z"/>
<path d="m149.32,181.541c2.894,0 5.787,0 8.68,0 2.726,0 5-2.274 5-5s-2.274-5-5-5c-2.894,0-5.787,0-8.68,0-2.726,0-5,2.274-5,5s2.274,5 5,5z"/>
<path d="m149.32,200.83c2.894,0 5.787,0 8.68,0 2.726,0 5-2.274 5-5s-2.274-5-5-5c-2.894,0-5.787,0-8.68,0-2.726,0-5,2.274-5,5s2.274,5 5,5z"/>
<path d="m149.32,220.602c2.894,0 5.787,0 8.68,0 2.726,0 5-2.274 5-5s-2.274-5-5-5c-2.894,0-5.787,0-8.68,0-2.726,0-5,2.274-5,5s2.274,5 5,5z"/>
<path d="m149.32,241.338c2.894,0 5.787,0 8.68,0 2.726,0 5-2.274 5-5s-2.274-5-5-5c-2.894,0-5.787,0-8.68,0-2.726,0-5,2.274-5,5s2.274,5 5,5z"/>
<path stroke="#fff" stroke-width="10" d="m121.365,223.68h16.396v34.038h-16.396z"/>
</g>
<path fill="none" stroke="#fff" stroke-width="10" d="m273.583,281.074c0,3.365-2.746,6.093-6.132,6.093h-172.986c-3.386,0-6.132-2.728-6.132-6.093v-119.064c0-3.365 2.746-6.093 6.132-6.093h172.986c3.386,0 6.132,2.728 6.132,6.093v119.064z"/>
<path fill="#fff" d="m78.639,160.754c35.06-27.034 70.12-54.069 105.18-81.103-1.683,0-3.365,0-5.047,0 35.061,27.034 70.12,54.069 105.181,81.103 .841-3.106 1.683-6.211 2.523-9.317-48.71,0-97.421,0-146.131,0-21.41,0-42.819,0-64.229,0-6.449,0-6.449,10 0,10 48.71,0 97.421,0 146.131,0 21.41,0 42.819,0 64.229,0 5.433,0 6.213-6.473 2.523-9.317-35.06-27.034-70.12-54.069-105.181-81.103-1.241-.957-3.806-.957-5.047,0-35.06,27.034-70.12,54.069-105.18,81.103-5.029,3.878-.059,12.572 5.048,8.634z"/>
</svg>
