<svg xmlns="http://www.w3.org/2000/svg" viewBox="20 20 321 321">
<g fill="#fff">
<path d="m180.123,178.697c0-24.831 0-49.662 0-74.493 0-5.497 0-10.993 0-16.489 0-2.569-.497-7.721 3.113-8.088 4.691-.478 12.066-1.135 15.964,1.115 2.145,1.239 1.257,6.139 1.257,8.118 0,29.946 0,59.892 0,89.837 0,6.449 10,6.449 10,0 0-24.828 0-49.657 0-74.485 0-5.605 0-11.21 0-16.815 0-4.031 .213-7.807-2.105-11.403-4.406-6.835-12.506-6.367-19.546-6.367-2.688,0-5.514-.263-8.146,.409-4.822,1.231-8.196,5.39-9.974,9.771-1.852,4.563-.563,11.925-.563,16.625 0,11.069 0,22.137 0,33.206 0,16.353 0,32.706 0,49.059-0,6.449 10,6.449 10,0z"/>
<path d="m151.79,232.339c0-23.81 0-47.618 0-71.428 0-12.14 0-24.279 0-36.419 0-4.806-.064-9.617 .279-14.414 .188-2.628 .222-6.497 3.334-6.497 3.692,0 7.385,0 11.078,0 1.006,0 2.012,0 3.019,0 2.27,0 .624,.311 .624-1.028 0,.501 0,1.002 0,1.503 0,3.136 0,6.273 0,9.409 0,11.554 0,23.107 0,34.661 0,18.175 0,36.35 0,54.526 0,6.448 10,6.448 10,0 0-24.522 0-49.044 0-73.566 0-8.844 0-17.689 0-26.533 0-9.879-10.616-8.972-17.395-8.972-7.141,0-14.782-.994-18.466,6.668-4.177,8.686-2.472,20.455-2.472,30.069 0,12.794 0,25.588 0,38.382 0,21.212 0,42.425 0,63.638-.001,6.449 9.999,6.449 9.999,.001z"/>
<path d="m210.457,196.385c0-24.522 0-49.044 0-73.565 0-8.845 0-17.689 0-26.533 0,1.178-1.662,1.028-.259,1.028 .637,0 1.273,0 1.91,0 1.82,0 3.641,0 5.46,0 3.603,0 6.02-.572 8.617,2.302 2.114,2.339 1.604,4.597 1.604,7.828 0,29.647 0,59.294 0,88.941 0,6.448 10,6.448 10,0 0-24.734 0-49.468 0-74.203 0-8.347 1.942-19.257-2.447-26.816-4.765-8.206-12.365-8.051-20.621-8.051-6.492,0-14.265,.71-14.265,9.281 0,33.263 0,66.526 0,99.79 .001,6.446 10.001,6.446 10.001-.002z"/>
<path d="m237.79,207.765c0-24.753 0-49.505 0-74.257 0-2.039 0-4.078 0-6.116 0-.584 0-1.168 0-1.752 0-1.495 .136,.291-.875,.291 3.063,0 6.128,0 9.192,0 3.057,0 3.6,3.988 3.864,6.405 .657,6.013 .151,12.315 .151,18.341 0,45.233 0,90.466 0,135.699 0,6.448 10,6.448 10,0 0-48.36 0-96.721 0-145.081 0-8.507 .524-19.438-8.092-24.087-2.995-1.616-6.576-1.277-9.855-1.277-3.689,0-8.398-.627-11.283,2.229-3.493,3.456-3.103,7.462-3.103,11.892 0,25.72 0,51.44 0,77.16 0,.185 0,.37 0,.555 .001,6.446 10.001,6.446 10.001-.002z"/>
<path d="m129.321,285.024c-5.641-23.708-11.283-47.416-16.924-71.124-2.315-9.73-4.631-19.462-6.946-29.192-1.239-5.206 8.485-6.762 12.017-7.598 6.61-1.564 6.918,3.267 8.444,7.964 5.31,16.354 10.62,32.708 15.93,49.062 1.982,6.106 11.64,3.493 9.643-2.658-3.629-11.178-7.258-22.354-10.888-33.532-2.047-6.304-4.094-12.608-6.141-18.912-1.955-6.021-5.064-10.678-11.912-11.816-6.398-1.063-17.563,1.682-22.488,6.284-4.625,4.322-5.264,9.596-3.88,15.413 2.7,11.347 5.4,22.694 8.1,34.041 5.134,21.576 10.269,43.152 15.403,64.729 1.492,6.27 11.134,3.609 9.642-2.661z"/>
</g>
</svg>
