<svg xmlns="http://www.w3.org/2000/svg" viewBox="20 20 321 321">
<g fill="#fff">
<path d="m70.833,74.667c0,48.697 0,97.394 0,146.091 0,21.97 0,43.939 0,65.909 0,6.448 10,6.448 10,0 0-48.697 0-97.395 0-146.091 0-21.97 0-43.939 0-65.909 0-6.449-10-6.449-10-0z"/>
<path d="m287.833,281.667c-48.697,0-97.395,0-146.091,0-21.97,0-43.939,0-65.909,0-6.449,0-6.449,10 0,10 48.697,0 97.394,0 146.091,0 21.97,0 43.939,0 65.909,0 6.448,0 6.448-10 0-10z"/>
<path d="m82.369,201.702c20.667-21.167 41.333-42.333 62-63.5 4.506-4.615-2.56-11.691-7.071-7.071-20.667,21.167-41.333,42.333-62,63.5-4.506,4.615 2.559,11.691 7.071,7.071z"/>
<path d="m138.685,136.484c11.909,15.313 23.817,30.625 35.726,45.937 3.956,5.086 10.979-2.046 7.071-7.071-11.909-15.313-23.817-30.625-35.726-45.938-3.956-5.085-10.979,2.047-7.071,7.072z"/>
<path d="m193.012,153.996c3.333,18.5 6.667,37 10,55.5 1.143,6.34 10.778,3.646 9.643-2.658-3.333-18.5-6.667-37-10-55.5-1.143-6.34-10.779-3.646-9.643,2.658z"/>
<path d="m212.15,210.69c22-33.667 44-67.333 66-101 3.539-5.416-5.123-10.421-8.635-5.047-22,33.667-44,67.333-66,101-3.538,5.417 5.124,10.421 8.635,5.047z"/>
<path d="m182.263,181.409c6.63-8.739 13.259-17.479 19.888-26.219 3.899-5.141-4.791-10.114-8.635-5.047-6.629,8.739-13.258,17.479-19.887,26.219-3.9,5.142 4.791,10.115 8.634,5.047z"/>
</g>
</svg>
