<svg xmlns="http://www.w3.org/2000/svg" viewBox="20 20 321 321">
<g fill="#fff">
<circle cx="236.593" cy="156.564" r="28.837"/>
<path d="m236.594,186.084c-16.276,0-29.52-13.244-29.52-29.52s13.243-29.52 29.52-29.52c16.275,0 29.517,13.244 29.517,29.52s-13.242,29.52-29.517,29.52zm0-57.674c-15.525,0-28.154,12.63-28.154,28.154 0,15.522 12.629,28.154 28.154,28.154 15.523,0 28.15-12.632 28.15-28.154 0-15.523-12.627-28.154-28.15-28.154z"/>
<path d="m267.559,277.459c0,7.895-6.4,14.291-14.293,14.291h-33.348c-7.893,0-14.291-6.396-14.291-14.291v-71.745c0-7.894 6.398-14.291 14.291-14.291h33.348c7.893,0 14.293,6.397 14.293,14.291v71.745z"/>
<path d="m273.856,204.122c0,16.776 0,62.553 0,79.331 0,11.443 17.745,11.443 17.745,0 0-16.778 0-62.555 0-79.331 .001-11.444-17.745-11.444-17.745,0z"/>
<path d="m181.583,204.12c0,16.778 0,62.554 0,79.331 0,11.443 17.745,11.443 17.745,0 0-16.777 0-62.553 0-79.331 0-11.443-17.745-11.443-17.745,0z"/>
<path d="m87.409,125.104 9.644-4.107-10.777-11.194-10.776-11.195 1.134,15.301 1.132,15.301z"/>
<path d="m89.933,129.421c3.215-1.369 6.43-2.738 9.644-4.107 3.065-1.306 3.025-5.762 1.012-7.853-7.185-7.462-14.369-14.925-21.553-22.389-2.886-2.998-8.863-.882-8.536,3.536 .755,10.201 1.511,20.402 2.266,30.603 .301,4.073 3.951,5.839 7.523,4.317 3.215-1.369 6.429-2.738 9.644-4.107 5.917-2.52 .815-11.131-5.047-8.635-3.214,1.369-6.429,2.738-9.643,4.107 2.508,1.439 5.016,2.878 7.523,4.317-.755-10.201-1.51-20.402-2.266-30.603-2.845,1.179-5.69,2.357-8.536,3.536 7.184,7.463 14.368,14.926 21.553,22.389 .337-2.618 .675-5.235 1.012-7.853-3.215,1.369-6.43,2.738-9.644,4.107-5.916,2.52-.815,11.131 5.048,8.635z"/>
<path stroke="#fff" d="m123.029,116.265c1.425,3.098 5.138,4.488 8.292,3.103l23.344-10.248c3.154-1.385 4.557-5.019 3.131-8.118-1.425-3.099-5.137-4.488-8.292-3.103l-23.344,10.246c-3.154,1.387-4.556,5.021-3.131,8.12z"/>
<path d="m190.224,86.842c6.028-2.801 9.528-8.188 7.815-12.034-1.712-3.845-5.895-5.587-11.924-2.787l4.109,14.821z"/>
<path d="m189.916,87.586l-4.552-15.818 .52-.242c6.362-2.948 10.856-1.071 12.69,3.044 1.828,4.11-1.814,9.836-8.119,12.764l-.539,.252zm-3.045-15.304l3.655,13.807c5.405-2.723 8.52-7.587 6.979-11.045-1.532-3.444-5.03-5.159-10.634-2.762z"/>
<path d="m182.539,70.361l-98.608,42.193c-1.386,.593-2.031,2.203-1.438,3.589l5.221,12.201c.593,1.386 2.203,2.031 3.589,1.438l98.608-42.193c2.701-1.155 1.584-3.25 1.439-3.589l-5.222-12.201c-.593-1.387-2.202-2.031-3.589-1.438zm-44.383,25.136l-2.802,1.199c-.303,.13-.763-.261-1.025-.875-.263-.614-.229-1.216 .075-1.346l2.803-1.2c.303-.129 .763,.262 1.025,.875 .262,.614 .227,1.217-.076,1.347zm6.467-2.768l-2.802,1.2c-.304,.13-.764-.262-1.026-.875-.263-.613-.229-1.216 .075-1.346l2.803-1.198c.304-.13 .763,.261 1.025,.875 .262,.612 .229,1.214-.075,1.344zm6.467-2.766l-2.802,1.199c-.304,.13-.763-.262-1.025-.875-.262-.613-.229-1.216 .075-1.346l2.802-1.199c.304-.129 .764,.262 1.026,.875 .262,.613 .228,1.216-.076,1.346zm6.466-2.767l-2.803,1.2c-.304,.13-.763-.262-1.025-.875-.262-.614-.229-1.216 .076-1.346l2.802-1.199c.304-.13 .763,.262 1.025,.875 .263,.613 .228,1.215-.075,1.345zm6.467-2.767l-2.803,1.199c-.304,.13-.764-.262-1.026-.875-.262-.612-.229-1.215 .075-1.345l2.803-1.199c.304-.131 .763,.261 1.025,.874 .263,.613 .23,1.216-.074,1.346zm6.466-2.767l-2.802,1.2c-.305,.129-.763-.262-1.026-.875s-.228-1.216 .076-1.347l2.802-1.198c.304-.13 .762,.262 1.024,.875 .264,.612 .23,1.215-.074,1.345zm13.813-7.471l-5.605,2.399c-.608,.26-1.363-.141-1.686-.896-.324-.755-.093-1.578 .515-1.838l5.606-2.398c.607-.26 1.362,.141 1.686,.896 .323,.754 .092,1.577-.516,1.837z"/>
</g>
</svg>
