<svg xmlns="http://www.w3.org/2000/svg" viewBox="20 20 321 321">
<g fill="none" stroke="#fff" stroke-width="10">
<path d="m193.252,187.957c-.713-2.662-2.88-4.398-4.838-3.873l-42.253,11.322c-1.957,.523-2.966,3.108-2.252,5.773l19.6,73.148c.715,2.662 2.88,4.397 4.839,3.871l42.252-11.32c1.957-.525 2.967-3.111 2.254-5.773l-19.602-73.148z"/>
<path d="m195.281,139.111c-1.948,1.949-2.367,4.693-.935,6.126l30.931,30.932c1.434,1.432 4.178,1.015 6.127-.935l53.549-53.549c1.948-1.949 2.367-4.693 .934-6.126l-30.932-30.93c-1.432-1.434-4.176-1.016-6.125,.934l-53.549,53.548z"/>
<path d="m151.967,161.954c2.664,.716 5.249-.295 5.773-2.254l11.322-42.253c.523-1.957-1.209-4.124-3.872-4.837l-73.149-19.602c-2.664-.711-5.248,.298-5.773,2.255l-11.322,42.252c-.525,1.959 1.209,4.126 3.873,4.839l73.148,19.6z"/>
</g>
<g fill="#fff">
<path d="m174.781,174.764c2.083-7.772 4.166-15.545 6.249-23.318-2.786,.735-5.572,1.471-8.357,2.207 5.69,5.69 11.38,11.38 17.07,17.07 .735-2.786 1.471-5.571 2.206-8.357-7.772,2.083-15.545,4.165-23.318,6.248-6.223,1.667-3.579,11.314 2.658,9.643 7.773-2.083 15.545-4.165 23.318-6.248 3.643-.976 4.854-5.71 2.206-8.357-5.689-5.69-11.38-11.38-17.069-17.07-2.647-2.646-7.381-1.436-8.357,2.207-2.083,7.772-4.166,15.545-6.248,23.318-1.672,6.236 7.974,8.88 9.642,2.657z"/>
<path d="m81.904,178.101c-3.407-8.751-5.495-16.106-3.231-25.493 .454-1.88-2.439-2.678-2.893-.798-2.391,9.915-.403,17.754 3.231,27.089 .695,1.782 3.596,1.008 2.893-.798z"/>
<path d="m92.54,173.535c-3.32-5.645-3.808-10.633-2.695-17.136 .324-1.892-2.567-2.702-2.893-.798-1.25,7.302-.751,13.076 2.997,19.448 .98,1.666 3.574,.157 2.591-1.514z"/>
<path d="m243.579,238.616c-5.868,7.323-11.232,12.872-20.491,15.558-1.854,.538-1.065,3.433 .797,2.893 9.77-2.833 15.587-8.556 21.815-16.329 1.197-1.495-.911-3.632-2.121-2.122z"/>
<path d="m234.307,231.683c-1.131,1.995-2.256,3.913-3.88,5.556-2.595,2.624-6.247,4.12-9.642,5.365-1.801,.66-1.023,3.561 .797,2.893 3.806-1.396 7.474-3.046 10.546-5.74 2.057-1.804 3.438-4.21 4.769-6.56 .955-1.686-1.637-3.197-2.59-1.514z"/>
<path d="m212.857,72.113c9.28,1.423 16.745,3.296 23.722,9.962 1.397,1.336 3.522-.783 2.121-2.121-7.361-7.034-15.176-9.22-25.046-10.733-1.891-.29-2.705,2.6-.797,2.892z"/>
<path d="m211.506,83.613c6.556-.053 11.122,2.016 16.204,6.242 1.476,1.228 3.61-.883 2.121-2.121-5.688-4.729-10.943-7.18-18.325-7.121-1.934,.015-1.936,3.015-0,3z"/>
<path d="m148.557,154.408c1.998,.537 3.937-.221 4.33-1.69l8.491-31.689c.392-1.468-.907-3.093-2.904-3.628l-54.862-14.701c-1.998-.534-3.936,.224-4.33,1.691l-8.491,31.689c-.394,1.469 .907,3.095 2.904,3.629l54.862,14.699z"/>
<path d="m140.395,152.264c1.998,.537 3.937-.221 4.33-1.69l8.491-31.689c.392-1.468-.907-3.093-2.904-3.628l-54.862-14.702c-1.998-.534-3.936,.224-4.33,1.691l-8.491,31.689c-.394,1.469 .907,3.095 2.904,3.629l54.862,14.7z"/>
<path d="m209.428,133.829c-1.461,1.462-1.775,3.52-.701,4.595l23.199,23.199c1.074,1.074 3.132,.761 4.595-.701l40.161-40.162c1.461-1.462 1.775-3.52 .7-4.595l-23.198-23.197c-1.074-1.076-3.133-.762-4.595,.701l-40.161,40.16z"/>
<path d="m203.615,139.642c-1.461,1.462-1.775,3.52-.701,4.595l23.199,23.199c1.074,1.074 3.132,.761 4.595-.701l40.161-40.162c1.461-1.462 1.775-3.52 .7-4.595l-23.198-23.198c-1.074-1.076-3.133-.762-4.595,.701l-40.161,40.161z"/>
</g>
</svg>
