<svg xmlns="http://www.w3.org/2000/svg" viewBox="20 20 321 321">
<g fill="none" stroke="#fff" stroke-width="10">
<path d="m193.252,187.957c-.713-2.662-2.88-4.398-4.838-3.873l-42.253,11.322c-1.957,.523-2.966,3.108-2.252,5.773l19.6,73.148c.715,2.662 2.88,4.397 4.839,3.871l42.252-11.32c1.957-.525 2.967-3.111 2.254-5.773l-19.602-73.148z"/>
<path d="m195.281,139.111c-1.948,1.949-2.367,4.693-.935,6.126l30.931,30.932c1.434,1.432 4.178,1.015 6.127-.935l53.549-53.549c1.948-1.949 2.367-4.693 .934-6.126l-30.932-30.93c-1.432-1.434-4.176-1.016-6.125,.934l-53.549,53.548z"/>
<path d="m151.967,161.954c2.664,.716 5.249-.295 5.773-2.254l11.322-42.253c.523-1.957-1.209-4.124-3.872-4.837l-73.149-19.602c-2.664-.711-5.248,.298-5.773,2.255l-11.322,42.252c-.525,1.959 1.209,4.126 3.873,4.839l73.148,19.6z"/>
</g>
<path fill="#fff" d="m174.781,174.764c2.083-7.772 4.166-15.545 6.249-23.318-2.786,.735-5.572,1.471-8.357,2.207 5.69,5.69 11.38,11.38 17.07,17.07 .735-2.786 1.471-5.571 2.206-8.357-7.772,2.083-15.545,4.165-23.318,6.248-6.223,1.667-3.579,11.314 2.658,9.643 7.773-2.083 15.545-4.165 23.318-6.248 3.643-.976 4.854-5.71 2.206-8.357-5.689-5.69-11.38-11.38-17.069-17.07-2.647-2.646-7.381-1.436-8.357,2.207-2.083,7.772-4.166,15.545-6.248,23.318-1.672,6.236 7.974,8.88 9.642,2.657z"/>
</svg>
