<svg xmlns="http://www.w3.org/2000/svg" viewBox="20 20 321 321">
<path fill="#fff" d="m262.148,96.03c0,49.764 0,99.527 0,149.291 0,13.782 0,27.563 0,41.346 0,6.448 10,6.448 10,0 0-49.764 0-99.527 0-149.291 0-13.782 0-27.564 0-41.346 0-6.448-10-6.448-10,0z"/>
<g fill="none" stroke="#fff" stroke-width="10">
<path d="m75.345,126.976 117.053-51.453"/>
<path d="m85.563,157.045 125.162-13.128"/>
</g>
<g fill="#fff">
<path d="m192.398,75.523 64.685,19.32-46.358,49.074z"/>
<path d="m191.069,80.345c21.562,6.44 43.123,12.88 64.685,19.32-.735-2.786-1.471-5.571-2.206-8.357-15.453,16.358-30.906,32.716-46.358,49.074 2.785,.735 5.571,1.471 8.356,2.207-6.108-22.798-12.218-45.596-18.326-68.394-1.667-6.223-11.314-3.579-9.643,2.658 6.108,22.798 12.218,45.596 18.326,68.394 .955,3.565 5.765,4.951 8.356,2.207 15.453-16.358 30.906-32.716 46.358-49.074 2.606-2.758 1.455-7.264-2.206-8.357-21.562-6.44-43.123-12.88-64.685-19.32-6.193-1.851-8.82,7.801-2.657,9.642z"/>
<path d="m100.743,152.304c.902,3.603-1.41,7.288-5.165,8.228l-9.628,2.409c-3.753,.938-7.528-1.223-8.43-4.826l-7.281-29.096c-.903-3.604 1.41-7.289 5.164-8.228l9.629-2.409c3.754-.938 7.528,1.222 8.431,4.826l7.28,29.096z"/>
<path d="m140.762,145.611c1.11,4.44-1.033,8.802-4.788,9.742l-9.628,2.409c-3.753,.939-7.698-1.899-8.809-6.339l-8.97-35.847c-1.111-4.44 1.032-8.802 4.787-9.742l9.629-2.409c3.752-.939 7.697,1.899 8.808,6.34l8.971,35.846z"/>
<path d="m183.645,138.335c1.395,5.571-.518,10.853-4.272,11.791l-9.629,2.409c-3.754,.939-7.928-2.817-9.321-8.389l-11.258-44.987c-1.394-5.571 .519-10.853 4.273-11.791l9.629-2.409c3.753-.938 7.928,2.818 9.322,8.389l11.256,44.987z"/>
<path d="m80.33,254.736c1.026-1.113 2.086-2.273 3.182-3.479 1.095-1.206 2.156-2.401 3.182-3.585s1.993-2.307 2.902-3.375c.909-1.066 1.69-1.994 2.343-2.783h12.402c-2.474,2.842-4.889,5.554-7.245,8.137-2.357,2.585-4.935,5.25-7.735,7.998 1.4,1.262 2.846,2.771 4.34,4.523 1.493,1.752 2.94,3.564 4.34,5.434 1.4,1.871 2.683,3.74 3.85,5.609 1.166,1.87 2.146,3.576 2.94,5.119h-11.994c-.746-1.217-1.596-2.561-2.55-4.035-.955-1.474-1.968-2.947-3.04-4.42-1.072-1.473-2.201-2.889-3.389-4.245s-2.365-2.503-3.528-3.438v16.139h-10.43v-52.641l10.43-1.68v30.722z"/>
<path d="m130.66,258.804c0-3.36-.432-5.74-1.295-7.14-.864-1.4-2.345-2.101-4.445-2.101-.654,0-1.33,.035-2.03,.104-.7,.07-1.377,.152-2.03,.246v28.42h-10.43v-35.561c.886-.232 1.925-.479 3.115-.734s2.45-.49 3.78-.701c1.33-.209 2.695-.373 4.095-.489s2.776-.175 4.13-.175c2.66,0 4.818,.339 6.475,1.015 1.656,.677 3.021,1.481 4.095,2.415 1.493-1.072 3.208-1.913 5.145-2.52 1.936-.606 3.721-.91 5.355-.91 2.94,0 5.355,.408 7.245,1.225s3.395,1.973 4.515,3.465c1.12,1.494 1.89,3.268 2.31,5.32 .42,2.055 .63,4.34 .63,6.859v20.791h-10.43v-19.53c0-3.36-.432-5.74-1.295-7.14-.864-1.4-2.345-2.101-4.445-2.101-.56,0-1.342,.14-2.345,.42-1.004,.28-1.832,.63-2.485,1.05 .326,1.074 .536,2.205 .63,3.396 .093,1.19 .14,2.462 .14,3.815v20.09h-10.43v-19.529z"/>
<path d="m174.83,291.283h-10.71l23.528-67.76h10.562l-23.38,67.76z"/>
<path d="m202.549,278.334v-52.641l10.431-1.68v17.64c.7-.233 1.598-.454 2.694-.665 1.097-.21 2.158-.314 3.186-.314 2.986,0 5.471,.408 7.455,1.225 1.982,.816 3.57,1.973 4.76,3.465 1.19,1.494 2.03,3.268 2.52,5.32 .49,2.055 .736,4.34 .736,6.859v20.791h-10.431v-19.53c0-3.36-.433-5.74-1.295-7.14-.864-1.4-2.462-2.101-4.795-2.101-.935,0-1.81,.082-2.625,.245-.817,.164-1.552,.339-2.205,.525v28h-10.431z"/>
</g>
</svg>
