<svg xmlns="http://www.w3.org/2000/svg" viewBox="20 20 321 321">
<path fill="#fff" d="m262.148,96.03c0,49.764 0,99.527 0,149.291 0,13.782 0,27.563 0,41.346 0,6.448 10,6.448 10,0 0-49.764 0-99.527 0-149.291 0-13.782 0-27.564 0-41.346 0-6.448-10-6.448-10,0z"/>
<g fill="none" stroke="#fff" stroke-width="10">
<path d="m75.345,126.976 117.053-51.453"/>
<path d="m85.563,157.045 125.162-13.128"/>
</g>
<g fill="#fff">
<path d="m192.398,75.523 64.685,19.32-46.358,49.074z"/>
<path d="m191.069,80.345c21.562,6.44 43.123,12.88 64.685,19.32-.735-2.786-1.471-5.571-2.206-8.357-15.453,16.358-30.906,32.716-46.358,49.074 2.785,.735 5.571,1.471 8.356,2.207-6.108-22.798-12.218-45.596-18.326-68.394-1.667-6.223-11.314-3.579-9.643,2.658 6.108,22.798 12.218,45.596 18.326,68.394 .955,3.565 5.765,4.951 8.356,2.207 15.453-16.358 30.906-32.716 46.358-49.074 2.606-2.758 1.455-7.264-2.206-8.357-21.562-6.44-43.123-12.88-64.685-19.32-6.193-1.851-8.82,7.801-2.657,9.642z"/>
<path d="m100.743,152.304c.902,3.603-1.41,7.288-5.165,8.228l-9.628,2.409c-3.753,.938-7.528-1.223-8.43-4.826l-7.281-29.096c-.903-3.604 1.41-7.289 5.164-8.228l9.629-2.409c3.754-.938 7.528,1.222 8.431,4.826l7.28,29.096z"/>
<path d="m140.762,145.611c1.11,4.44-1.033,8.802-4.788,9.742l-9.628,2.409c-3.753,.939-7.698-1.899-8.809-6.339l-8.97-35.847c-1.111-4.44 1.032-8.802 4.787-9.742l9.629-2.409c3.752-.939 7.697,1.899 8.808,6.34l8.971,35.846z"/>
<path d="m183.645,138.335c1.395,5.571-.518,10.853-4.272,11.791l-9.629,2.409c-3.754,.939-7.928-2.817-9.321-8.389l-11.258-44.987c-1.394-5.571 .519-10.853 4.273-11.791l9.629-2.409c3.753-.938 7.928,2.818 9.322,8.389l11.256,44.987z"/>
<path d="m86.096,278.478c-2.736,0-5.461-.085-8.172-.252-2.712-.169-5.533-.563-8.46-1.188v-48.383c2.304-.433 4.824-.757 7.56-.973 2.736-.216 5.28-.324 7.632-.324 3.168,0 6.084,.229 8.748,.684 2.664,.457 4.956,1.236 6.876,2.34 1.919,1.105 3.42,2.557 4.5,4.357 1.08,1.799 1.62,4.02 1.62,6.659 0,3.985-1.92,7.128-5.76,9.433 3.168,1.199 5.328,2.832 6.48,4.896 1.152,2.064 1.728,4.392 1.728,6.983 0,5.232-1.908,9.17-5.724,11.809-3.816,2.639-9.493,3.959-17.028,3.959zm-5.688-30.96h5.472c3.456,0 5.928-.443 7.416-1.332 1.487-.888 2.232-2.315 2.232-4.284 0-2.016-.769-3.431-2.304-4.247-1.537-.816-3.792-1.225-6.768-1.225-.961,0-1.992,.012-3.096,.036-1.104,.024-2.088,.084-2.952,.18v10.872zm0,8.568v12.888c.815,.097 1.703,.169 2.664,.216 .959,.049 2.016,.072 3.168,.072 3.359,0 6.071-.479 8.136-1.439 2.063-.961 3.096-2.736 3.096-5.328 0-2.305-.864-3.948-2.592-4.933-1.728-.983-4.201-1.476-7.416-1.476h-7.056z"/>
<path d="m133.543,221.957c2.016,0 3.863,.205 5.544,.613 1.68,.408 2.976,.804 3.888,1.188l-2.088,8.568c-.96-.433-2.004-.756-3.132-.973-1.128-.216-2.172-.324-3.132-.324-1.296,0-2.389,.18-3.276,.541-.889,.359-1.584,.852-2.088,1.475-.504,.625-.864,1.369-1.08,2.232-.216,.864-.324,1.801-.324,2.809v1.871h13.248v8.929h-13.248v28.944h-10.728v-39.889c0-4.896 1.379-8.783 4.14-11.664 2.76-2.88 6.852-4.32 12.276-4.32z"/>
<path d="m147.151,230.525l10.728-1.729v11.16h12.888v8.929h-12.888v13.319c0,2.258 .396,4.057 1.188,5.4 .792,1.345 2.387,2.016 4.788,2.016 1.152,0 2.34-.107 3.564-.324 1.224-.215 2.34-.515 3.348-.899l1.512,8.353c-1.296,.528-2.736,.984-4.32,1.367-1.584,.384-3.528,.576-5.832,.576-2.928,0-5.353-.396-7.272-1.188-1.92-.793-3.456-1.896-4.608-3.313-1.152-1.415-1.956-3.132-2.412-5.148-.457-2.016-.684-4.248-.684-6.695v-31.824z"/>
</g>
</svg>
