<svg xmlns="http://www.w3.org/2000/svg" viewBox="20 20 321 321">
<path fill="none" stroke="#fff" stroke-width="10" d="m270.333,119.103c0,2.245-1.819,4.064-4.064,4.064h-23.371c-2.245,0-4.064-1.82-4.064-4.064v-23.372c0-2.245 1.819-4.064 4.064-4.064h23.371c2.245,0 4.064,1.82 4.064,4.064v23.372z"/>
<g fill="#fff">
<path d="m216.173,78.328c2.406,2.406 4.813,4.813 7.22,7.219 1.926,1.926 5.145,1.926 7.07,0 1.927-1.926 1.927-5.145 0-7.071-2.406-2.406-4.813-4.813-7.22-7.219-1.926-1.926-5.145-1.926-7.07,0-1.927,1.926-1.927,5.144 0,7.071z"/>
<path d="m185.333,112.167c11.167,0 22.333,0 33.5,0 6.448,0 6.448-10 0-10-11.167,0-22.333,0-33.5,0-6.449,0-6.449,10 0,10z"/>
<path d="m289.742,136.756c-1.989-1.99-3.979-3.979-5.969-5.969-1.926-1.926-5.145-1.926-7.07,0-1.927,1.926-1.927,5.145 0,7.071 1.989,1.99 3.979,3.979 5.969,5.969 1.926,1.926 5.145,1.926 7.07,0 1.927-1.927 1.927-5.144 0-7.071z"/>
<path d="m259.083,175.917c0-11.167 0-22.333 0-33.5 0-6.449-10-6.449-10,0 0,11.167 0,22.333 0,33.5-0,6.448 10,6.448 10,0z"/>
<path d="m207.773,161.547c7.896-7.896 15.793-15.792 23.689-23.688 4.564-4.563-2.507-11.635-7.07-7.071-7.896,7.896-15.793,15.792-23.689,23.688-4.564,4.563 2.507,11.634 7.07,7.071z"/>
<path d="m142.041,291.502c4.725,0 9.45,0 14.175,0 4.514,0 4.514-7 0-7-4.725,0-9.45,0-14.175,0-4.515,0-4.515,7 0,7z"/>
<path d="m144.311,223.348c0,21.112 0,42.226 0,63.338 0,6.448 10,6.448 10,0 0-21.112 0-42.226 0-63.338 0-6.449-10-6.449-10-0z"/>
<path d="m86.286,182.117c1.824,0 3.647,0 5.471,0 1.935,0 1.935-3 0-3-1.824,0-3.647,0-5.471,0-1.934,0-1.934,3 0,3z"/>
<path d="m204.701,182.117c1.824,0 3.647,0 5.472,0 1.935,0 1.935-3 0-3-1.824,0-3.647,0-5.472,0-1.934,0-1.934,3 0,3z"/>
<path d="m219.283,212.162c-.439,5.096-5.64,4.502-9.258,4.502-4.693,0-9.387,0-14.08,0-15.059,0-30.117,0-45.175,0-15.321,0-30.643,0-45.964,0-5.022,0-10.044,0-15.065,0-2.358,0-4.874,.251-7.195-.283-3.948-.908-3.287-5.525-3.287-8.485 0-4.008 0-8.015 0-12.022 0-3.777 .026-7.587 5.063-7.967 .545-.041 1.109,0 1.655,0 10.087,0 20.174,0 30.26,0 29.546,0 59.092,0 88.637,0 3.569,0 7.601-.527 11.123,.283 4.648,1.069 3.286,8.772 3.286,12.132 0,3.947 0,7.893 0,11.84 0,4.514 7,4.514 7,0 0-10.401 3.804-31.256-12.225-31.256-8.068,0-16.137,0-24.205,0-30.24,0-60.479,0-90.719,0-7.624,0-18.505-1.9-24.198,4.301-4.353,4.742-2.677,14.167-2.677,20.002 0,7.738-.034,14.58 8.426,17.922 2.344,.926 5.728,.533 8.224,.533 4.804,0 9.609,0 14.414,0 15.15,0 30.299,0 45.449,0 16.879,0 33.758,0 50.637,0 9.988,0 25.661,2.554 26.875-11.502 .388-4.499-6.616-4.462-7.001,0z"/>
<path d="m71.167,204.081c13.327,0 26.654,0 39.98,0 1.935,0 1.935-3 0-3-13.327,0-26.654,0-39.98,0-1.935,0-1.935,3 0,3z"/>
<path d="m187.244,204.081c13.327,0 26.653,0 39.98,0 1.935,0 1.935-3 0-3-13.327,0-26.653,0-39.98,0-1.934,0-1.934,3 0,3z"/>
<path d="m170.789,202.4c-4.15,2.496-8.301,4.992-12.451,7.489-1.656,.995-.148,3.59 1.514,2.59 4.151-2.496 8.301-4.992 12.452-7.489 1.655-.995 .148-3.59-1.515-2.59z"/>
<path d="m170.789,196.843c-7.23,4.349-14.46,8.697-21.69,13.047-1.655,.995-.148,3.59 1.514,2.59 7.23-4.349 14.461-8.697 21.691-13.047 1.655-.995 .148-3.59-1.515-2.59z"/>
<path d="m170.789,191.286c-7.23,4.349-14.46,8.697-21.69,13.046-1.656,.995-.148,3.59 1.514,2.59 7.23-4.349 14.461-8.697 21.691-13.046 1.655-.995 .148-3.59-1.515-2.59z"/>
<path d="m170.314,208.107c-.987,.594-1.975,1.188-2.963,1.782-1.655,.995-.148,3.59 1.515,2.59 .987-.594 1.975-1.188 2.963-1.782 1.655-.995 .148-3.59-1.515-2.59z"/>
<path d="m170.789,185.391c-7.23,4.349-14.46,8.697-21.69,13.046-1.656,.995-.148,3.59 1.514,2.59 7.23-4.349 14.461-8.697 21.691-13.046 1.655-.996 .148-3.59-1.515-2.59z"/>
<path d="m127.407,204.99c4.15,2.497 8.302,4.993 12.452,7.489 1.663,1 3.17-1.595 1.515-2.59-4.151-2.497-8.302-4.993-12.453-7.489-1.662-1-3.17,1.595-1.514,2.59z"/>
<path d="m127.407,199.433c7.23,4.35 14.461,8.698 21.691,13.047 1.662,1 3.169-1.595 1.514-2.59-7.23-4.35-14.461-8.698-21.691-13.047-1.662-1-3.17,1.595-1.514,2.59z"/>
<path d="m127.407,193.876c7.23,4.349 14.461,8.697 21.691,13.046 1.662,1 3.169-1.595 1.514-2.59-7.23-4.349-14.461-8.697-21.691-13.046-1.662-1-3.17,1.595-1.514,2.59z"/>
<path d="m127.882,210.697c.987,.595 1.975,1.188 2.963,1.782 1.662,1 3.169-1.595 1.514-2.59-.987-.595-1.975-1.188-2.963-1.782-1.663-1-3.169,1.595-1.514,2.59z"/>
<path d="m127.407,187.98c7.23,4.349 14.461,8.697 21.691,13.046 1.662,1 3.169-1.595 1.514-2.59-7.23-4.349-14.461-8.697-21.691-13.046-1.662-.999-3.17,1.595-1.514,2.59z"/>
<path d="m176.322,217.073c-.78,3.167-13.309,1.591-15.073,1.591-7.973,0-15.947,0-23.92,0-.947,0-14.142,1.011-14.142-1.351 0-6.145 0-12.289 0-18.433 0-3.285 0-6.569 0-9.854 0-2.317-.448-4.083 3.038-4.083 5.537,0 11.074,0 16.611,0 7.781,0 15.562,0 23.343,0 3.039,0 10.089-1.321 10.089,2.996 0,9.845 0,19.688 0,29.532 0,1.935 3,1.935 3,0 0-5.549 0-11.098 0-16.647 0-5.016 .948-11.024-.263-15.938-.982-3.986-8.454-2.942-11.388-2.942-7.614,0-15.229,0-22.843,0-6.012,0-12.023,0-18.035,0-4.692,0-6.553,2.186-6.553,6.513 0,7.249 0,14.498 0,21.747 0,3.939-1.396,10.721 4.312,11.323 9.558,1.01 19.602,.138 29.201,.138 5.649,0 11.299,0 16.948,0 3.313,0 7.582,.207 8.567-3.794 .464-1.879-2.429-2.676-2.892-.798z"/>
</g>
</svg>
