<svg xmlns="http://www.w3.org/2000/svg" viewBox="20 20 321 321">
<g fill="#fff">
<path d="m115.5,287c.05-29.275 1.846-58.858 8.064-87.529 2.027-9.349 4.523-18.861 8.708-27.502 1.325-2.735 2.864-5.451 4.914-7.708 .968-1.066 1.512-1.472 2.458-2.031 .417-.246 1.31-.436 1.531-.442 6.433-.199 6.452-10.2 0-10-16.589,.513-22.607,26.358-25.755,38.659-8.002,31.275-9.865,64.402-9.92,96.554-.012,6.448 9.988,6.447 10-.001z"/>
<path d="m152.459,130.289c0,2.662-2.158,4.82-4.82,4.82h-3.614c-2.662,0-4.82-2.158-4.82-4.82v-3.615c0-2.662 2.158-4.819 4.82-4.819h3.614c2.662,0 4.82,2.158 4.82,4.819v3.615z"/>
<path d="m167.621,130.494c0,2.662-2.158,4.82-4.819,4.82h-3.615c-2.662,0-4.82-2.158-4.82-4.82v-3.615c0-2.662 2.158-4.82 4.82-4.82h3.615c2.662,0 4.819,2.158 4.819,4.82v3.615z"/>
<path d="m145.13,143.479c0,2.662-2.158,4.819-4.82,4.819h-3.614c-2.662,0-4.82-2.158-4.82-4.819v-3.615c0-2.662 2.158-4.819 4.82-4.819h3.614c2.662,0 4.82,2.158 4.82,4.819v3.615z"/>
<path d="m173.771,145.121c0,2.662-2.158,4.819-4.82,4.819h-3.615c-2.661,0-4.819-2.158-4.819-4.819v-3.615c0-2.662 2.158-4.82 4.819-4.82h3.615c2.662,0 4.82,2.158 4.82,4.82v3.615z"/>
<path d="m162.321,156.726c0,2.662-2.158,4.819-4.82,4.819h-3.615c-2.662,0-4.819-2.158-4.819-4.819v-3.615c0-2.662 2.158-4.819 4.819-4.819h3.615c2.662,0 4.82,2.158 4.82,4.819v3.615z"/>
<path d="m180.314,168.705c0,2.662-2.158,4.82-4.819,4.82h-3.615c-2.662,0-4.82-2.158-4.82-4.82v-3.615c0-2.662 2.158-4.82 4.82-4.82h3.615c2.661,0 4.819,2.158 4.819,4.82v3.615z"/>
<path d="m189.569,126.524c0,2.662-2.158,4.82-4.819,4.82h-3.615c-2.662,0-4.82-2.158-4.82-4.82v-3.615c0-2.662 2.158-4.82 4.82-4.82h3.615c2.661,0 4.819,2.158 4.819,4.82v3.615z"/>
<path d="m190.685,156.049c0,2.661-2.157,4.819-4.819,4.819h-3.615c-2.661,0-4.819-2.158-4.819-4.819v-3.615c0-2.662 2.158-4.82 4.819-4.82h3.615c2.662,0 4.819,2.158 4.819,4.82v3.615z"/>
<path d="m193.916,141.251c0,2.661-2.158,4.819-4.819,4.819h-3.614c-2.662,0-4.821-2.158-4.821-4.819v-3.615c0-2.661 2.159-4.819 4.821-4.819h3.614c2.661,0 4.819,2.158 4.819,4.819v3.615z"/>
<path d="m177.315,114.224c0,2.662-2.158,4.819-4.82,4.819h-3.614c-2.662,0-4.82-2.158-4.82-4.819v-3.615c0-2.662 2.158-4.82 4.82-4.82h3.614c2.662,0 4.82,2.158 4.82,4.82v3.615z"/>
<path d="m162.054,110.01c0,2.662-2.158,4.82-4.82,4.82h-3.615c-2.662,0-4.82-2.158-4.82-4.82v-3.615c0-2.661 2.158-4.819 4.82-4.819h3.615c2.662,0 4.82,2.158 4.82,4.819v3.615z"/>
<path d="m147.684,112.742c0,2.662-2.158,4.819-4.819,4.819h-3.615c-2.662,0-4.82-2.158-4.82-4.819v-3.615c0-2.662 2.158-4.82 4.82-4.82h3.615c2.662,0 4.819,2.158 4.819,4.82v3.615z"/>
<path d="m134.955,122.809c0,2.662-2.158,4.82-4.82,4.82h-3.614c-2.662,0-4.82-2.158-4.82-4.82v-3.615c0-2.662 2.158-4.82 4.82-4.82h3.614c2.662,0 4.82,2.158 4.82,4.82v3.615z"/>
<path d="m128.713,137.184c0,2.662-2.158,4.82-4.82,4.82h-3.615c-2.661,0-4.819-2.158-4.819-4.82v-3.615c0-2.661 2.158-4.819 4.819-4.819h3.615c2.662,0 4.82,2.158 4.82,4.819v3.615z"/>
<path d="m164.891,174.97c0,2.662-2.158,4.82-4.82,4.82h-3.615c-2.662,0-4.82-2.158-4.82-4.82v-3.614c0-2.662 2.158-4.82 4.82-4.82h3.615c2.662,0 4.82,2.158 4.82,4.82v3.614z"/>
<path d="m150.485,173.202c0,2.662-2.158,4.819-4.819,4.819h-3.615c-2.662,0-4.819-2.158-4.819-4.819v-3.615c0-2.662 2.158-4.82 4.819-4.82h3.615c2.662,0 4.819,2.158 4.819,4.82v3.615z"/>
<path d="m130.208,152.138c0,2.661-2.158,4.819-4.82,4.819h-3.615c-2.662,0-4.819-2.158-4.819-4.819v-3.615c0-2.661 2.158-4.819 4.819-4.819h3.615c2.662,0 4.82,2.158 4.82,4.819v3.615z"/>
<path d="m281.583,95.417c0,2.071-1.679,3.75-3.75,3.75-2.071,0-3.75-1.679-3.75-3.75 0-2.071 1.679-3.75 3.75-3.75 2.071,0 3.75,1.679 3.75,3.75z"/>
<path d="m291.083,82.917c0,2.071-1.679,3.75-3.75,3.75-2.071,0-3.75-1.679-3.75-3.75 0-2.071 1.679-3.75 3.75-3.75 2.071,0 3.75,1.679 3.75,3.75z"/>
<path d="m259.833,76.917c0,2.071-1.679,3.75-3.75,3.75-2.071,0-3.75-1.679-3.75-3.75 0-2.071 1.679-3.75 3.75-3.75 2.071,0 3.75,1.679 3.75,3.75z"/>
<path d="m264.083,104.167c0,2.071-1.679,3.75-3.75,3.75-2.071,0-3.75-1.679-3.75-3.75 0-2.071 1.679-3.75 3.75-3.75 2.071,0 3.75,1.679 3.75,3.75z"/>
<path d="m244.833,102.667c0,2.071-1.679,3.75-3.75,3.75-2.071,0-3.75-1.679-3.75-3.75 0-2.071 1.679-3.75 3.75-3.75 2.071,0 3.75,1.679 3.75,3.75z"/>
<path d="m222.583,74.167c0,2.071-1.679,3.75-3.75,3.75-2.071,0-3.75-1.679-3.75-3.75 0-2.071 1.679-3.75 3.75-3.75 2.071,0 3.75,1.679 3.75,3.75z"/>
<path d="m239.583,89.167c0,2.071-1.679,3.75-3.75,3.75-2.071,0-3.75-1.679-3.75-3.75 0-2.071 1.679-3.75 3.75-3.75 2.071,0 3.75,1.679 3.75,3.75z"/>
<path d="m196.333,85.167c0,2.071-1.679,3.75-3.75,3.75-2.071,0-3.75-1.679-3.75-3.75 0-2.071 1.679-3.75 3.75-3.75 2.071,0 3.75,1.679 3.75,3.75z"/>
<path d="m200.345,93.752c.114-2.068 1.884-3.651 3.952-3.537 2.067,.115 3.65,1.884 3.536,3.952-.114,2.068-1.884,3.651-3.952,3.537-2.068-.115-3.651-1.884-3.536-3.952z"/>
<path d="m218.089,104.459c.114-2.068 1.884-3.651 3.952-3.537 2.068,.114 3.65,1.883 3.536,3.952-.114,2.068-1.884,3.651-3.952,3.537-2.067-.115-3.65-1.884-3.536-3.952z"/>
<path d="m194.083,170.292c0,2.071-1.679,3.75-3.75,3.75-2.071,0-3.75-1.679-3.75-3.75 0-2.071 1.679-3.75 3.75-3.75 2.071,0 3.75,1.679 3.75,3.75z"/>
<path d="m199.333,162.042c0,2.071-1.679,3.75-3.75,3.75-2.071,0-3.75-1.679-3.75-3.75 0-2.071 1.679-3.75 3.75-3.75 2.071,0 3.75,1.679 3.75,3.75z"/>
<path d="m203.083,152.792c0,2.071-1.679,3.75-3.75,3.75-2.071,0-3.75-1.679-3.75-3.75 0-2.071 1.679-3.75 3.75-3.75 2.071,0 3.75,1.679 3.75,3.75z"/>
<path d="m124.333,108.417c0,2.071-1.679,3.75-3.75,3.75-2.071,0-3.75-1.679-3.75-3.75 0-2.071 1.679-3.75 3.75-3.75 2.071,0 3.75,1.679 3.75,3.75z"/>
<path d="m131.583,102.167c0,2.071-1.679,3.75-3.75,3.75-2.071,0-3.75-1.679-3.75-3.75 0-2.071 1.679-3.75 3.75-3.75 2.071,0 3.75,1.679 3.75,3.75z"/>
<path d="m139.833,97.667c0,2.071-1.679,3.75-3.75,3.75-2.071,0-3.75-1.679-3.75-3.75 0-2.071 1.679-3.75 3.75-3.75 2.071,0 3.75,1.679 3.75,3.75z"/>
<path d="m148.833,94.917c0,2.071-1.679,3.75-3.75,3.75-2.071,0-3.75-1.679-3.75-3.75 0-2.071 1.679-3.75 3.75-3.75 2.071,0 3.75,1.679 3.75,3.75z"/>
<path d="m158.583,94.417c0,2.071-1.679,3.75-3.75,3.75-2.071,0-3.75-1.679-3.75-3.75 0-2.071 1.679-3.75 3.75-3.75 2.071,0 3.75,1.679 3.75,3.75z"/>
<path d="m167.833,95.417c0,2.071-1.679,3.75-3.75,3.75-2.071,0-3.75-1.679-3.75-3.75 0-2.071 1.679-3.75 3.75-3.75 2.071,0 3.75,1.679 3.75,3.75z"/>
<path d="m177.083,98.417c0,2.071-1.679,3.75-3.75,3.75-2.071,0-3.75-1.679-3.75-3.75 0-2.071 1.679-3.75 3.75-3.75 2.071,0 3.75,1.679 3.75,3.75z"/>
<path d="m185.583,103.167c0,2.071-1.679,3.75-3.75,3.75-2.071,0-3.75-1.679-3.75-3.75 0-2.071 1.679-3.75 3.75-3.75 2.071,0 3.75,1.679 3.75,3.75z"/>
<path d="m192.833,109.167c0,2.071-1.679,3.75-3.75,3.75-2.071,0-3.75-1.679-3.75-3.75 0-2.071 1.679-3.75 3.75-3.75 2.071,0 3.75,1.679 3.75,3.75z"/>
<path d="m197.833,116.667c0,2.071-1.679,3.75-3.75,3.75-2.071,0-3.75-1.679-3.75-3.75 0-2.071 1.679-3.75 3.75-3.75 2.071,0 3.75,1.679 3.75,3.75z"/>
<path d="m202.083,124.667c0,2.071-1.679,3.75-3.75,3.75-2.071,0-3.75-1.679-3.75-3.75 0-2.071 1.679-3.75 3.75-3.75 2.071,0 3.75,1.679 3.75,3.75z"/>
<path d="m204.583,133.667c0,2.071-1.679,3.75-3.75,3.75-2.071,0-3.75-1.679-3.75-3.75 0-2.071 1.679-3.75 3.75-3.75 2.071,0 3.75,1.679 3.75,3.75z"/>
<path d="m204.833,143.417c0,2.071-1.679,3.75-3.75,3.75-2.071,0-3.75-1.679-3.75-3.75 0-2.071 1.679-3.75 3.75-3.75 2.071,0 3.75,1.679 3.75,3.75z"/>
<path d="m180.211,176.227c.414-2.03 2.394-3.339 4.423-2.926 2.029,.414 3.34,2.394 2.926,4.423-.413,2.03-2.393,3.339-4.423,2.926-2.03-.414-3.339-2.393-2.926-4.423z"/>
<path d="m173.11,181.029c.414-2.03 2.394-3.34 4.423-2.926 2.029,.413 3.34,2.393 2.927,4.422-.414,2.029-2.394,3.34-4.423,2.928-2.03-.414-3.34-2.394-2.927-4.424z"/>
<path d="m164.783,184.418c.414-2.029 2.394-3.339 4.424-2.926 2.029,.414 3.339,2.394 2.926,4.424-.414,2.029-2.393,3.34-4.423,2.926-2.03-.414-3.339-2.393-2.927-4.424z"/>
<path d="m155.885,186.19c.414-2.03 2.394-3.339 4.423-2.926 2.03,.413 3.339,2.394 2.926,4.423-.414,2.029-2.394,3.34-4.423,2.926-2.029-.413-3.339-2.392-2.926-4.423z"/>
<path d="m146.857,186.109c.413-2.029 2.394-3.339 4.423-2.925 2.03,.413 3.339,2.392 2.927,4.423-.414,2.029-2.395,3.339-4.423,2.926-2.03-.413-3.34-2.393-2.927-4.424z"/>
<path d="m139.899,181.902c1.882-.864 4.109-.039 4.973,1.843 .864,1.883 .039,4.108-1.844,4.974-1.882,.863-4.108,.038-4.972-1.844-.864-1.883-.039-4.109 1.843-4.973z"/>
<path d="m113.283,162.144c1.883-.864 4.108-.039 4.973,1.844 .864,1.882 .039,4.108-1.844,4.973-1.882,.864-4.108,.038-4.972-1.844-.864-1.883-.039-4.11 1.843-4.973z"/>
<path d="m109.511,154.116c1.883-.864 4.108-.039 4.973,1.844 .864,1.883 .038,4.108-1.844,4.973-1.882,.863-4.108,.038-4.973-1.844-.863-1.882-.038-4.109 1.844-4.973z"/>
<path d="m110.739,146.107c1.77,1.077 2.332,3.383 1.255,5.153-1.077,1.77-3.383,2.331-5.153,1.255-1.769-1.077-2.332-3.383-1.255-5.153 1.077-1.769 3.383-2.331 5.153-1.255z"/>
<path d="m109.917,137.79c1.77,1.076 2.332,3.383 1.255,5.152-1.076,1.77-3.383,2.332-5.153,1.255-1.77-1.076-2.332-3.383-1.255-5.152 1.076-1.77 3.382-2.331 5.153-1.255z"/>
<path d="m110.483,128.653c1.77,1.076 2.332,3.383 1.255,5.153-1.077,1.77-3.383,2.332-5.152,1.255-1.77-1.077-2.332-3.383-1.255-5.153 1.077-1.769 3.383-2.331 5.152-1.255z"/>
<path d="m112.685,120.284c1.77,1.077 2.332,3.383 1.255,5.153-1.076,1.77-3.383,2.332-5.152,1.255-1.77-1.076-2.332-3.383-1.255-5.153 1.076-1.769 3.383-2.331 5.152-1.255z"/>
<path d="m116.824,112.069c1.77,1.076 2.332,3.383 1.255,5.152-1.076,1.77-3.382,2.332-5.152,1.255-1.77-1.077-2.332-3.383-1.255-5.152 1.077-1.769 3.383-2.331 5.152-1.255z"/>
<path d="m117,283.334c.437-43.795 43.348-70.542 83.5-70.834-.589-2.174-1.178-4.348-1.767-6.522-8.617,4.732-17.234,9.464-25.851,14.196-5.84,3.207-11.68,6.414-17.52,9.621-2.215,1.216-6.537,2.553-8.163,4.641-12.058,15.475-24.116,30.949-36.175,46.424-2.739,3.515 2.178,8.507 4.95,4.949 12.04-15.451 24.08-30.902 36.121-46.354-.902,1.158 .277-.033 1.206-.543 1.865-1.024 3.729-2.048 5.594-3.072 5.84-3.207 11.68-6.414 17.521-9.621 8.617-4.731 17.234-9.464 25.851-14.195 3.075-1.688 1.67-6.548-1.767-6.522-44.021,.32-90.026,30.175-90.5,77.834-.045,4.514 6.955,4.51 7-.002z"/>
<path d="m112.066,287.771c10.331-31.85-5.132-67.154-37.233-78.431-2.731-.959-5.827,2.7-3.953,5.142 4.246,5.531 8.493,11.063 12.739,16.595 2.727,3.552 5.453,7.104 8.18,10.655 .889,1.158 1.778,2.317 2.667,3.476 .911,1.187 .417,.411 .39,.304 3.486,14.087 6.973,28.173 10.459,42.26 1.084,4.38 7.834,2.521 6.75-1.861-3.486-14.086-6.973-28.173-10.459-42.259-.409-1.653-1.937-3.073-2.939-4.379-2.799-3.646-5.599-7.293-8.398-10.939-4.448-5.795-8.896-11.589-13.345-17.384-1.317,1.714-2.635,3.428-3.953,5.142 28.626,10.056 41.436,41.789 32.344,69.819-1.395,4.305 5.365,6.134 6.751,1.86z"/>
</g>
</svg>
