<svg xmlns="http://www.w3.org/2000/svg" viewBox="20 20 321 321">
<g fill="#fff">
<path d="m110.657,258.859c-18.347-16.767-29.54-39.665-31.008-64.526-1.458-24.687 7.375-49.102 23.741-67.537 4.265-4.804-2.782-11.903-7.071-7.071-18.243,20.55-27.918,47.105-26.669,74.608 1.24,27.316 13.821,53.214 33.937,71.597 4.747,4.341 11.839-2.712 7.07-7.071z"/>
<path d="m242.408,251.313c-16.768,18.346-39.665,29.54-64.526,31.009-24.688,1.459-49.102-7.375-67.537-23.74-4.804-4.266-11.903,2.781-7.071,7.07 20.55,18.244 47.105,27.919 74.608,26.67 27.315-1.24 53.213-13.822 71.597-33.938 4.34-4.75-2.712-11.841-7.071-7.071z"/>
<path d="m243.42,250.53c-17.335,8.139-37.751,8.071-56.23,4.594-19.219-3.617-38.575-11.526-53.322-24.597-4.428-3.925-10.143,.935-7.853,6.059 .027,.062 .055,.123 .082,.184 2.618-2.02 5.235-4.039 7.853-6.059-14.319-13.139-22.854-31.17-27.803-49.714-4.859-18.208-6.152-38.121-1.552-56.509 1.565-6.258-8.079-8.912-9.643-2.658-5.064,20.245-3.585,41.752 1.552,61.826 5.138,20.077 14.955,39.979 30.375,54.126 4.389,4.027 10.119-.987 7.853-6.059-.027-.062-.055-.123-.082-.184-2.618,2.02-5.235,4.039-7.853,6.059 16.137,14.303 36.735,22.983 57.734,27.169 21.213,4.229 44.109,3.707 63.937-5.602 5.833-2.739 .753-11.358-5.048-8.635z"/>
</g>
<path fill="none" stroke="#fff" stroke-width="10" d="m265.558,98.006c2.141,0 3.876-.542 3.876-1.209v-20.969c0-.668-1.736-1.21-3.877-1.21h-75.57c-2.141,0-3.875,.542-3.875,1.21v20.969c0,.667 1.734,1.209 3.874,1.209h75.572z"/>
<path fill="#fff" d="m165.301,101.048c19.552,25.582 39.104,51.163 58.656,76.744 2.429,3.178 6.206,3.178 8.635,0 19.552-25.581 39.104-51.163 58.655-76.744 2.39-3.126-.882-7.523-4.317-7.523-39.104,0-78.208,0-117.312,0-6.449,0-6.449,10 0,10 39.104,0 78.208,0 117.312,0-1.439-2.508-2.878-5.016-4.317-7.523-19.552,25.581-39.104,51.163-58.655,76.744 2.878,0 5.757,0 8.635,0-19.552-25.582-39.104-51.163-58.656-76.744-3.861-5.05-12.554-.079-8.636,5.046z"/>
</svg>
