<svg xmlns="http://www.w3.org/2000/svg" viewBox="20 20 321 321">
<g fill="#fff">
<g stroke="#fff" stroke-width="13.063">
<path d="m138.167,122.249c0,3.026-2.2,5.479-4.916,5.479h-38.105c-2.716,0-4.918-2.454-4.918-5.479v-39.721c0-3.025 2.202-5.479 4.918-5.479h38.104c2.716,0 4.916,2.453 4.916,5.479v39.721z"/>
<path d="m77.215,108.552c0,3.026 2.453,5.479 5.479,5.479h25.568c3.025,0 5.479-2.453 5.479-5.479v-15.523c0-3.025-2.454-5.479-5.479-5.479h-25.569c-3.025,0-5.479,2.453-5.479,5.479v15.523z"/>
<path d="m76.044,108.552c0-3.025 2.453-5.478 5.479-5.478h31.503c3.025,0 5.479,2.453 5.479,5.478v8.675c0,3.026-2.454,5.479-5.479,5.479h-31.504c-3.025,0-5.479-2.453-5.479-5.479v-8.675z"/>
</g>
<path d="m131.287,137.679c-4.442,7.693-8.884,15.387-13.325,23.08-2.261,3.917 3.789,7.44 6.044,3.533 4.442-7.693 8.884-15.386 13.325-23.08 2.261-3.917-3.789-7.44-6.044-3.533z"/>
<path d="m127.468,120.333c-4.442,7.693-8.883,15.386-13.325,23.08-2.261,3.917 3.789,7.44 6.044,3.533 4.442-7.693 8.883-15.387 13.325-23.08 2.261-3.916-3.788-7.439-6.044-3.533z"/>
<path d="m107.471,154.702c-4.442,7.693-8.884,15.387-13.326,23.08-2.261,3.917 3.789,7.44 6.044,3.533 4.442-7.693 8.884-15.386 13.326-23.08 2.261-3.917-3.788-7.44-6.044-3.533z"/>
<path d="m110.305,125.565c-4.442,7.694-8.884,15.387-13.325,23.081-2.261,3.917 3.789,7.44 6.044,3.533 4.442-7.693 8.884-15.387 13.325-23.081 2.261-3.916-3.788-7.44-6.044-3.533z"/>
<path d="m100.6,115.147c-3.845,6.659-7.689,13.318-11.534,19.978-3.23,5.595 5.412,10.628 8.635,5.047 3.845-6.659 7.689-13.318 11.534-19.978 3.23-5.595-5.413-10.629-8.635-5.047z"/>
<path d="m86.489,142.588c-4.442,7.693-8.883,15.387-13.325,23.08-2.261,3.917 3.789,7.44 6.044,3.533 4.442-7.693 8.883-15.387 13.325-23.08 2.261-3.916-3.789-7.44-6.044-3.533z"/>
<path d="m89.712,161.234c-4.442,7.693-8.884,15.386-13.326,23.08-2.262,3.917 3.789,7.44 6.044,3.533 4.442-7.693 8.884-15.387 13.326-23.08 2.262-3.916-3.789-7.44-6.044-3.533z"/>
<path d="m111.517,172.54c-4.442,7.693-8.884,15.387-13.325,23.08-2.261,3.917 3.789,7.44 6.044,3.533 4.442-7.693 8.884-15.387 13.325-23.08 2.261-3.916-3.789-7.44-6.044-3.533z"/>
<path d="m173.693,119.141c-4.442,7.693-8.883,15.386-13.325,23.08-2.261,3.917 3.789,7.44 6.044,3.533 4.442-7.693 8.883-15.387 13.325-23.08 2.261-3.916-3.789-7.44-6.044-3.533z"/>
<path d="m152.696,155.51c-4.442,7.693-8.884,15.386-13.326,23.079-2.262,3.917 3.788,7.439 6.044,3.533 4.442-7.693 8.884-15.386 13.326-23.079 2.262-3.917-3.788-7.44-6.044-3.533z"/>
<path d="m155.53,126.373c-4.442,7.693-8.883,15.387-13.325,23.08-2.261,3.917 3.789,7.44 6.044,3.533 4.442-7.693 8.883-15.387 13.325-23.08 2.261-3.917-3.789-7.44-6.044-3.533z"/>
<path d="m134.937,162.042c-4.442,7.694-8.884,15.387-13.326,23.081-2.261,3.917 3.789,7.44 6.044,3.533 4.442-7.693 8.884-15.387 13.326-23.081 2.261-3.917-3.789-7.44-6.044-3.533z"/>
<g stroke="#fff" stroke-width="13.063">
<path d="m167.854,127.729c0,3.024-2.201,5.478-4.917,5.478h-38.105c-2.716,0-4.917-2.453-4.917-5.478v-39.722c0-3.026 2.202-5.479 4.917-5.479h38.105c2.715,0 4.917,2.453 4.917,5.479v39.722z"/>
<path d="m142.764,123.162c0,3.026 2.454,5.479 5.479,5.479h25.568c3.026,0 5.479-2.453 5.479-5.479v-15.523c0-3.025-2.453-5.478-5.479-5.478h-25.568c-3.025,0-5.479,2.453-5.479,5.478v15.523z"/>
<path d="m141.972,134.12c0,3.025-2.202,5.479-4.916,5.479h-45.795c-2.715,0-4.917-2.453-4.917-5.479v-39.722c0-3.025 2.202-5.479 4.917-5.479h45.795c2.714,0 4.916,2.453 4.916,5.479v39.722z"/>
</g>
<path d="m263.338,261.72c-6.698,0-13.397,0-20.096,0-1.935,0-1.935,3 0,3 6.698,0 13.397,0 20.096,0 1.934,0 1.934-3 0-3z"/>
<path d="m263.338,270.43c-3.729,0-7.459,0-11.188,0-1.935,0-1.935,3 0,3 3.729,0 7.459,0 11.188,0 1.934,0 1.934-3 0-3z"/>
<path d="m263.338,279.138c-3.729,0-7.459,0-11.188,0-1.935,0-1.935,3 0,3 3.729,0 7.459,0 11.188,0 1.934,0 1.934-3 0-3z"/>
<path d="m264.066,218.341c-6.698,0-13.396,0-20.095,0-1.935,0-1.935,3 0,3 6.698,0 13.396,0 20.095,0 1.935,0 1.935-3 0-3z"/>
<path d="m264.066,227.049c-3.729,0-7.459,0-11.188,0-1.935,0-1.935,3 0,3 3.729,0 7.459,0 11.188,0 1.935,0 1.935-3 0-3z"/>
<path d="m264.066,235.758c-3.729,0-7.459,0-11.188,0-1.935,0-1.935,3 0,3 3.729,0 7.459,0 11.188,0 1.935,0 1.935-3 0-3z"/>
<path d="m264.066,244.468c-3.729,0-7.459,0-11.188,0-1.935,0-1.935,3 0,3 3.729,0 7.459,0 11.188,0 1.935,0 1.935-3 0-3z"/>
<path d="m264.066,253.178c-3.729,0-7.459,0-11.188,0-1.935,0-1.935,3 0,3 3.729,0 7.459,0 11.188,0 1.935,0 1.935-3 0-3z"/>
<path d="m263.496,175.4c-6.698,0-13.396,0-20.095,0-1.935,0-1.935,3 0,3 6.698,0 13.396,0 20.095,0 1.935,0 1.935-3 0-3z"/>
<path d="m263.496,184.109c-3.729,0-7.46,0-11.189,0-1.935,0-1.935,3 0,3 3.729,0 7.46,0 11.189,0 1.935,0 1.935-3 0-3z"/>
<path d="m263.496,192.818c-3.729,0-7.46,0-11.189,0-1.935,0-1.935,3 0,3 3.729,0 7.46,0 11.189,0 1.935,0 1.935-3 0-3z"/>
<path d="m263.496,201.527c-3.729,0-7.46,0-11.189,0-1.935,0-1.935,3 0,3 3.729,0 7.46,0 11.189,0 1.935,0 1.935-3 0-3z"/>
<path d="m263.496,210.237c-3.729,0-7.46,0-11.189,0-1.935,0-1.935,3 0,3 3.729,0 7.46,0 11.189,0 1.935,0 1.935-3 0-3z"/>
<path d="m264.227,132.021c-6.698,0-13.397,0-20.096,0-1.935,0-1.935,3 0,3 6.698,0 13.397,0 20.096,0 1.934,0 1.934-3 0-3z"/>
<path d="m264.227,140.73c-3.729,0-7.46,0-11.189,0-1.935,0-1.935,3 0,3 3.729,0 7.46,0 11.189,0 1.934,0 1.934-3 0-3z"/>
<path d="m264.227,149.439c-3.729,0-7.46,0-11.189,0-1.935,0-1.935,3 0,3 3.729,0 7.46,0 11.189,0 1.934,0 1.934-3 0-3z"/>
<path d="m264.227,158.148c-3.729,0-7.46,0-11.189,0-1.935,0-1.935,3 0,3 3.729,0 7.46,0 11.189,0 1.934,0 1.934-3 0-3z"/>
<path d="m264.227,166.858c-3.729,0-7.46,0-11.189,0-1.935,0-1.935,3 0,3 3.729,0 7.46,0 11.189,0 1.934,0 1.934-3 0-3z"/>
<path d="m281.849,70.6c-11.198,0-22.397,0-33.596,0-7.402,0-14.805,0-22.207,0-3.829,0-8.396-.596-12.071,.717-6.631,2.37-6.725,8.61-6.238,14.333 .603,7.103 1.205,14.206 1.809,21.309 .633,7.464 1.267,14.928 1.9,22.393 .43,5.066 .168,10.477 4.015,14.323 2.095,2.095 5.155,2.629 7.982,2.629-1.667-1.667-3.333-3.333-5-5 1.854,46.521 3.707,93.041 5.561,139.562 .22,5.515 3.296,10.563 9.467,10.563 6.099,0 12.196,0 18.294,0 4.875,0 12.861,1.466 17.437-.899 4.521-2.337 5.301-6.419 5.508-10.933 1.202-26.261 2.405-52.522 3.607-78.784 .909-19.836 1.817-39.672 2.726-59.508-1.667,1.667-3.333,3.333-5,5 8.559,0 11.082-6.164 11.698-13.424 .649-7.645 1.298-15.29 1.946-22.935 .688-8.098 1.375-16.196 2.062-24.294 .629-7.434-1.02-14.029-9.9-15.052-6.399-.737-6.329,9.271 0,10 .806,.093-1.911,26.38-2.078,28.35-.558,6.571-1.115,13.142-1.673,19.712-.175,2.063 .593,7.642-2.057,7.642-2.82,0-4.875,2.278-5,5-2.131,46.521-4.261,93.041-6.392,139.562-.084,1.826-.264,.563 .642,.563-2.103,0-4.205,0-6.308,0-7.404,0-14.809,0-22.213,0-.95,0-1.9,0-2.851,0-1.124,0 .112,.179 .132,.656-.029-.734-.059-1.468-.088-2.202-.152-3.827-.306-7.654-.458-11.481-1.198-30.094-2.397-60.188-3.597-90.281-.489-12.272-.978-24.544-1.467-36.816-.108-2.723-2.192-5-5-5-2.708,0-1.938-6.261-2.116-8.358-.594-6.996-1.188-13.991-1.781-20.987-.568-6.69-1.136-13.38-1.704-20.069-.09-1.064-1.358-6.29 .288-6.29 21.24,0 42.479,0 63.72,0 6.449-.001 6.449-10.001 .001-10.001z"/>
</g>
</svg>
