<svg xmlns="http://www.w3.org/2000/svg" viewBox="20 20 321 321">
<path fill="none"  stroke="#000" stroke-width="10" d="m129.899,180.831c-2.929,0-5.303-.741-5.303-1.654v-28.69c0-.914 2.374-1.655 5.303-1.655h103.396c2.928,0 5.302,.741 5.302,1.655v28.69c0,.913-2.374,1.654-5.302,1.654h-103.396z"/>
<path fill="#000" d="m256.844,179.017c-26.751,35-53.501,70-80.252,105 2.878,0 5.757,0 8.635,0-26.75-35-53.5-70-80.251-105-1.439,2.508-2.878,5.016-4.317,7.523 49.382,0 98.765,0 148.147,0 4.118,0 8.237,0 12.355,0 6.448,0 6.448-10 0-10-49.383,0-98.765,0-148.147,0-4.119,0-8.237,0-12.355,0-3.435,0-6.707,4.397-4.317,7.523 26.75,35 53.5,70 80.251,105 2.429,3.178 6.206,3.178 8.635,0 26.751-35 53.501-70 80.252-105 3.916-5.125-4.777-10.096-8.636-5.046z"/>
</svg>
