<svg xmlns="http://www.w3.org/2000/svg" viewBox="20 20 321 321">
<path fill="#000" d="m263.592,237.195c-.254,11.588-7.394,21.571-18.427,25.297-3.953,1.335-7.983,1.266-12.072,1.266-12.303,0-24.605,0-36.909,0-23.792,0-47.584,0-71.376,0-11.548,0-21.632-7.571-25.297-18.426-1.334-3.954-1.265-7.984-1.265-12.073 0-12.303 0-24.606 0-36.909 0-23.792 0-47.584 0-71.377 0-11.548 7.571-21.632 18.426-25.297 3.954-1.335 7.984-1.266 12.073-1.266 12.303,0 24.606,0 36.909,0 23.792,0 47.585,0 71.377,0 11.548,0 21.632,7.572 25.297,18.426 1.335,3.954 1.266,7.984 1.266,12.073 0,12.303 0,24.606 0,36.909-.002,23.792-.002,47.585-.002,71.377 0,6.448 10,6.448 10,0 0-23.792 0-47.585 0-71.377 0-12.303 0-24.606 0-36.909 0-15.611-6.131-29.773-20.843-36.934-9.375-4.563-20.073-3.565-30.189-3.565-15.042,0-30.084,0-45.125,0-14.228,0-28.456,0-42.684,0-3.176,0-6.353,0-9.528,0-8.913,0-16.864,3.087-23.837,8.516-11.256,8.764-13.14,22.028-13.14,35.198 0,13.507 0,27.015 0,40.522 0,15.484 0,30.967 0,46.451 0,9.007-.909,18.776 1.247,27.602 4.215,17.247 20.607,27.06 37.498,27.06 11.303,0 22.607,0 33.91,0 25.28,0 50.56,0 75.84,0 20.338,0 36.411-16.445 36.852-36.563 .14-6.453-9.861-6.439-10.001-.001z"/>
</svg>
