<svg xmlns="http://www.w3.org/2000/svg" viewBox="20 20 321 321">
<g fill="#000">
<path d="m258.334,237.25c10.61,0 21.222,0 31.832,0 1.935,0 1.935-3 0-3-10.61,0-21.222,0-31.832,0-1.935,0-1.935,3 0,3z"/>
<path d="m279.25,268.445c3,0 6,0 9,0 4.514,0 4.514-7 0-7-3,0-6,0-9,0-4.514,0-4.514,7 0,7z"/>
<path d="m260.583,283.682c5.333,0 10.667,0 16,0 4.514,0 4.514-7 0-7-5.333,0-10.667,0-16,0-4.514,0-4.514,7 0,7z"/>
<path d="m260.917,272.445c2,0 4,0 6,0 1.908,0 3.5-1.592 3.5-3.5s-1.592-3.5-3.5-3.5c-2,0-4,0-6,0-1.908,0-3.5,1.592-3.5,3.5s1.592,3.5 3.5,3.5z"/>
<path d="m274.25,279.445c.667,0 1.333,0 2,0 1.908,0 3.5-1.592 3.5-3.5s-1.592-3.5-3.5-3.5c-.667,0-1.333,0-2,0-1.908,0-3.5,1.592-3.5,3.5s1.592,3.5 3.5,3.5z"/>
<path d="m268.417,256.445c-2,0-4,0-6,0-1.908,0-3.5,1.592-3.5,3.5s1.592,3.5 3.5,3.5c2,0 4,0 6,0 1.908,0 3.5-1.592 3.5-3.5s-1.592-3.5-3.5-3.5z"/>
<path d="m262.834,241.612c-.667,0-1.333,0-2,0-1.908,0-3.5,1.592-3.5,3.5s1.592,3.5 3.5,3.5c.667,0 1.333,0 2,0 1.908,0 3.5-1.592 3.5-3.5s-1.592-3.5-3.5-3.5z"/>
<path d="m286.5,244.612c-5.333,0-10.667,0-16,0-4.514,0-4.514,7 0,7 5.333,0 10.667,0 16,0 4.514,0 4.514-7 0-7z"/>
<path d="m277.5,252.612c-5.083,0-10.167,0-15.25,0-4.514,0-4.514,7 0,7 5.083,0 10.167,0 15.25,0 4.514,0 4.514-7 0-7z"/>
<path d="m283.834,239.612c-2,0-4,0-6,0-1.908,0-3.5,1.592-3.5,3.5s1.592,3.5 3.5,3.5c2,0 4,0 6,0 1.908,0 3.5-1.592 3.5-3.5s-1.592-3.5-3.5-3.5z"/>
<path d="m266.5,236.612c-2,0-4,0-6,0-1.908,0-3.5,1.592-3.5,3.5s1.592,3.5 3.5,3.5c2,0 4,0 6,0 1.908,0 3.5-1.592 3.5-3.5s-1.592-3.5-3.5-3.5z"/>
<path d="m262.916,284.736c-.667,0-1.333,0-2,0-1.908,0-3.5,1.592-3.5,3.5s1.592,3.5 3.5,3.5c.667,0 1.333,0 2,0 1.908,0 3.5-1.592 3.5-3.5s-1.592-3.5-3.5-3.5z"/>
<path d="m287.582,284.736c-5.333,0-10.667,0-16,0-4.514,0-4.514,7 0,7 5.333,0 10.667,0 16,0 4.514,0 4.514-7 0-7z"/>
<path d="m288.5,270.445c-2,0-4,0-6,0-1.908,0-3.5,1.592-3.5,3.5s1.592,3.5 3.5,3.5c2,0 4,0 6,0 1.908,0 3.5-1.592 3.5-3.5s-1.592-3.5-3.5-3.5z"/>
<path d="m287.834,236.612c-2,0-4,0-6,0-1.908,0-3.5,1.592-3.5,3.5s1.592,3.5 3.5,3.5c2,0 4,0 6,0 1.908,0 3.5-1.592 3.5-3.5s-1.592-3.5-3.5-3.5z"/>
<path d="m98.499,273.445c.667,0 1.333,0 2,0 1.908,0 3.5-1.592 3.5-3.5s-1.592-3.5-3.5-3.5c-.667,0-1.333,0-2,0-1.908,0-3.5,1.592-3.5,3.5s1.592,3.5 3.5,3.5z"/>
<path d="m73.833,279.445c5.333,0 10.667,0 16,0 4.514,0 4.514-7 0-7-5.333,0-10.667,0-16,0-4.514,0-4.514,7 0,7z"/>
<path d="m85.833,268.445c5.083,0 10.167,0 15.25,0 4.514,0 4.514-7 0-7-5.083,0-10.167,0-15.25,0-4.515,0-4.515,7 0,7z"/>
<path d="m73.458,291.736c2,0 4,0 6,0 1.908,0 3.5-1.592 3.5-3.5s-1.592-3.5-3.5-3.5c-2,0-4,0-6,0-1.908,0-3.5,1.592-3.5,3.5s1.592,3.5 3.5,3.5z"/>
<path d="m94.165,285.682c2,0 4,0 6,0 1.908,0 3.5-1.592 3.5-3.5s-1.592-3.5-3.5-3.5c-2,0-4,0-6,0-1.908,0-3.5,1.592-3.5,3.5s1.592,3.5 3.5,3.5z"/>
<path d="m88.083,252.612c-3,0-6,0-9,0-4.514,0-4.514,7 0,7 3,0 6,0 9,0 4.514,0 4.514-7 0-7z"/>
<path d="m101.083,236.612c-5.333,0-10.667,0-16,0-4.514,0-4.514,7 0,7 5.333,0 10.667,0 16,0 4.514,0 4.514-7 0-7z"/>
<path d="m100.416,241.612c-2,0-4,0-6,0-1.908,0-3.5,1.592-3.5,3.5s1.592,3.5 3.5,3.5c2,0 4,0 6,0 1.908,0 3.5-1.592 3.5-3.5s-1.592-3.5-3.5-3.5z"/>
<path d="m80.708,237.945c-1.083,0-2.167,0-3.25,0-1.908,0-3.5,1.592-3.5,3.5s1.592,3.5 3.5,3.5c1.083,0 2.167,0 3.25,0 1.908,0 3.5-1.592 3.5-3.5s-1.593-3.5-3.5-3.5z"/>
<path d="m98.25,259.612c.667,0 1.333,0 2,0 1.908,0 3.5-1.592 3.5-3.5s-1.592-3.5-3.5-3.5c-.667,0-1.333,0-2,0-1.908,0-3.5,1.592-3.5,3.5s1.592,3.5 3.5,3.5z"/>
<path d="m100.498,284.736c-2,0-4,0-6,0-1.908,0-3.5,1.592-3.5,3.5s1.592,3.5 3.5,3.5c2,0 4,0 6,0 1.908,0 3.5-1.592 3.5-3.5s-1.593-3.5-3.5-3.5z"/>
<path d="m84.583,281.167c-.667,0-1.333,0-2,0-1.908,0-3.5,1.592-3.5,3.5s1.592,3.5 3.5,3.5c.667,0 1.333,0 2,0 1.908,0 3.5-1.592 3.5-3.5s-1.592-3.5-3.5-3.5z"/>
<path d="m72.167,237.25c10.611,0 21.222,0 31.833,0 1.935,0 1.935-3 0-3-10.611,0-21.222,0-31.833,0-1.935,0-1.935,3 0,3z"/>
<path d="m79.832,244.167c-2,0-4,0-6,0-1.908,0-3.5,1.592-3.5,3.5s1.592,3.5 3.5,3.5c2,0 4,0 6,0 1.908,0 3.5-1.592 3.5-3.5s-1.593-3.5-3.5-3.5z"/>
<path d="m78.832,263.445c-1.833,0-3.667,0-5.5,0-1.908,0-3.5,1.592-3.5,3.5s1.592,3.5 3.5,3.5c1.833,0 3.667,0 5.5,0 1.908,0 3.5-1.592 3.5-3.5s-1.593-3.5-3.5-3.5z"/>
<path d="m173.79,114.753c-.388-.749-.918-1.35-1.589-1.802-.672-.452-1.538-.679-2.597-.679-.208,0-.44,.007-.698,.02-.259,.014-.491,.045-.698,.097v16.125c.129,.026 .271,.038 .426,.038s.297,0 .426,0c1.085,0 1.996-.206 2.733-.62 .736-.413 1.33-.981 1.782-1.705 .452-.723 .775-1.583 .969-2.578 .194-.995 .291-2.086 .291-3.275 0-1.034-.078-2.041-.232-3.024-.154-.982-.426-1.848-.813-2.597z"/>
<path d="m238.883,115.084c0,0-81.573-24.463-82.725-24.808-1.448-.433-3.309-.183-3.953,.25-.753,.506-29.458,19.558-29.458,19.558-4,2.667-4,2.791-4,5l.037,20.333c0,2.209 1.791,4 4,4h116.136c2.209,0 4-1.791 4-4l-.037-16.333c0-2.209-1.162-2.898-4-4zm-60.054,11.218c-.556,1.563-1.325,2.836-2.307,3.817-.982,.983-2.151,1.7-3.508,2.151-1.356,.452-2.849,.679-4.477,.679-.853,0-1.686-.046-2.5-.136s-1.686-.238-2.617-.446v-23.411c1.086-.232 2.106-.388 3.063-.465 .956-.078 1.847-.117 2.674-.117 1.576,0 3.017,.232 4.322,.698 1.305,.465 2.409,1.195 3.314,2.19 .904,.995 1.608,2.262 2.112,3.798 .504,1.538 .756,3.392 .756,5.563 .001,2.223-.277,4.115-.832,5.679zm9.128,.658c.904,1.357 2.234,2.035 3.992,2.035 .283,0 .594-.013 .93-.039 .336-.025 .646-.064 .932-.116v-8.76h4.767v11.977c-.569,.207-1.454,.439-2.655,.697s-2.654,.388-4.36,.388c-1.499,0-2.849-.266-4.05-.795-1.202-.529-2.229-1.318-3.082-2.364s-1.512-2.351-1.977-3.915c-.465-1.563-.698-3.378-.698-5.445 0-2.041 .271-3.844 .814-5.407 .542-1.563 1.279-2.875 2.21-3.934 .93-1.06 2.027-1.854 3.294-2.384 1.266-.529 2.622-.795 4.069-.795 .931,0 1.764,.072 2.5,.213 .736,.142 1.376,.304 1.919,.484 .543,.181 .989,.375 1.337,.582 .35,.207 .613,.362 .795,.465l-1.24,3.799c-.568-.362-1.267-.685-2.094-.969-.826-.285-1.68-.426-2.558-.426-1.138,0-2.093,.207-2.868,.62-.775,.414-1.414,.988-1.918,1.725-.504,.736-.867,1.615-1.086,2.636-.221,1.021-.33,2.151-.33,3.392 0,2.868 .452,4.98 1.357,6.336z"/>
<path d="m155.004,88.488c38.417,11.417 76.833,22.833 115.25,34.25 6.197,1.842 8.824-7.81 2.658-9.643-38.417-11.417-76.833-22.833-115.25-34.25-6.197-1.841-8.825,7.811-2.658,9.643z"/>
<path d="m100.606,123.359c21.896-14.672 43.792-29.343 65.688-44.015 5.327-3.569 .327-12.236-5.047-8.635-21.896,14.672-43.792,29.343-65.688,44.015-5.327,3.57-.327,12.236 5.047,8.635z"/>
<path d="m244.523,281.64c.119-.612 2.896-.431 .289-.431-1.465,0-2.931,0-4.396,0-5.081,0-10.163,0-15.244,0-15.325,0-30.651,0-45.977,0-15.068,0-30.137,0-45.206,0-4.76,0-9.52,0-14.279,0-1.186,0-2.373,0-3.559,0-2.261,0 .889,.243 .889,1.638 0-50.77 0-101.539 0-152.309 0-6.875 0-13.751 0-20.626-.826,1.439-1.651,2.878-2.477,4.317 13.553-9.064 27.106-18.128 40.659-27.192-1.284,.168-2.568,.336-3.853,.504 23.649,7.156 47.298,14.312 70.946,21.468 5.637,1.705 11.272,3.411 16.909,5.116 1.472,.445 2.944,.891 4.417,1.336 1.829,.554 .701,.547 .701-1.137 0,6.301 0,12.601 0,18.902 0,49.911 0,99.823 0,149.734 0,.003 0,.005 0,.008 0,6.448 10,6.448 10,0 0-49.693 0-99.387 0-149.08 0-6.503 0-13.007 0-19.51 0-8.85-15.068-10.686-21.594-12.661-25.828-7.815-51.655-15.63-77.482-23.445-3.27-.989-5.322,.283-7.953,2.042-5.823,3.895-11.646,7.789-17.469,11.683-5.823,3.894-11.646,7.788-17.469,11.683-2.637,1.763-5.337,3.214-5.337,6.838 0,21.712 0,43.424 0,65.137 0,29.982 0,59.966 0,89.949 0,5.785 0,11.57 0,17.355 0,10.699 14.644,8.248 21.506,8.248 25.049,0 50.099,0 75.148,0 10.905,0 21.812,0 32.718,0 6.465,0 16.082,1.651 17.753-6.911 1.233-6.297-8.405-8.983-9.64-2.656z"/>
<path d="m119.521,189.112 122.469,0"/>
<path d="m119.521,190.612c40.823,0 81.646,0 122.47,0 1.935,0 1.935-3 0-3-40.823,0-81.646,0-122.47,0-1.935,0-1.935,3 0,3z"/>
<path d="m119.521,235.75 122.469,0"/>
<path d="m119.521,237.25c40.823,0 81.646,0 122.47,0 1.935,0 1.935-3 0-3-40.823,0-81.646,0-122.47,0-1.935,0-1.935,3 0,3z"/>
<path d="m119.521,142.474 123.247,.343"/>
<path d="m119.521,143.974c41.083,.114 82.165,.229 123.247,.343 1.935,.005 1.935-2.995 0-3-41.082-.114-82.165-.229-123.247-.343-1.936-.005-1.935,2.995 0,3z"/>
</g>
</svg>
