<svg xmlns="http://www.w3.org/2000/svg" viewBox="20 20 321 321">
<path fill="none"  stroke="#000" stroke-width="10" d="m186.379,247.423c2.07,2.071 4.273,3.226 4.92,2.579l20.287-20.287c.646-.646-.509-2.849-2.58-4.92l-73.111-73.111c-2.07-2.07-4.273-3.225-4.919-2.579l-20.287,20.288c-.646,.646 .509,2.848 2.579,4.918l73.111,73.112z"/>
<path fill="#000" d="m87.874,155.108c-5.833,43.665-11.667,87.33-17.5,130.994-.329,2.463 2.537,5.329 5,5 43.664-5.834 87.329-11.667 130.993-17.501 4.077-.545 6.935-5.137 3.535-8.535-34.918-34.919-69.837-69.838-104.756-104.756-2.912-2.912-5.824-5.825-8.736-8.737-4.564-4.563-11.635,2.507-7.071,7.071 34.919,34.919 69.838,69.837 104.756,104.756 2.912,2.912 5.825,5.824 8.737,8.736 1.178-2.845 2.356-5.69 3.535-8.535-43.664,5.834-87.329,11.667-130.993,17.501 1.667,1.667 3.333,3.333 5,5 5.833-43.664 11.667-87.329 17.5-130.994 .852-6.377-9.159-6.295-10,0z"/>
</svg>
