<svg xmlns="http://www.w3.org/2000/svg" viewBox="20 20 321 321">
<path fill="none"  stroke="#000" stroke-width="10" d="m186.379,113.604c2.07-2.071 4.273-3.225 4.92-2.58l20.287,20.287c.646,.646-.509,2.849-2.58,4.92l-73.111,73.112c-2.07,2.07-4.273,3.225-4.919,2.578l-20.287-20.287c-.646-.646 .509-2.848 2.579-4.918l73.111-73.112z"/>
<path fill="#000" d="m97.874,205.92c-5.833-43.665-11.667-87.329-17.5-130.994-1.667,1.667-3.333,3.333-5,5 43.664,5.833 87.329,11.667 130.993,17.5-1.179-2.845-2.357-5.69-3.535-8.536-34.919,34.919-69.838,69.838-104.757,104.756-2.912,2.912-5.825,5.825-8.737,8.737-4.563,4.563 2.507,11.635 7.071,7.07 34.919-34.918 69.837-69.837 104.756-104.756 2.912-2.912 5.824-5.824 8.736-8.736 3.399-3.399 .542-7.991-3.535-8.536-43.664-5.833-87.329-11.667-130.993-17.5-2.463-.329-5.329,2.537-5,5 5.833,43.665 11.667,87.329 17.5,130.994 .842,6.296 10.853,6.378 10.001,.001z"/>
</svg>
