<svg xmlns="http://www.w3.org/2000/svg" viewBox="20 20 321 321">
<g fill="#000">
<path d="m245.106,228.263c.001,8.203 .294,15.742-4.08,23.091-4.692,7.885-13.751,12.404-22.771,12.404-9.211,0-18.421,0-27.632,0-27.373,0-54.746,0-82.118,0-15.478,0-28.745-10.555-28.745-26.852 0-9.211 0-18.422 0-27.633 0-27.372 0-54.746 0-82.119 0-15.478 10.556-28.745 26.853-28.745 9.21,0 18.421,0 27.632,0 27.373,0 54.745,0 82.118,0 15.503,0 28.392,10.39 28.745,26.563 .141,6.439 10.142,6.453 10,0-.444-20.332-16.683-36.563-37.124-36.563-9.708,0-19.417,0-29.125,0-26.973,0-53.945,0-80.918,0-18.083,0-33.914,11.585-37.52,29.709-1.683,8.454-.661,17.948-.661,26.486 0,28.814 0,57.629 0,86.444 0,2.518-.024,5.035 .031,7.553 .242,11.064 6.202,21.834 15.157,28.228 10.025,7.158 20.965,6.929 32.54,6.929 29.316,0 58.633,0 87.949,0 8.865,0 17.981,.724 26.416-2.531 9.409-3.631 17.093-11.313 20.724-20.724 2.793-7.236 2.531-14.64 2.53-22.24-.002-6.449-10.002-6.449-10.001,0z"/>
<path d="m219.94,230.786c11.495-15.039 22.989-30.079 34.484-45.118-2.878,0-5.757,0-8.635,0 11.495,15.039 22.989,30.079 34.484,45.118 1.439-2.508 2.878-5.016 4.317-7.523-22.989,0-45.979,0-68.969,0-6.448,0-6.448,10 0,10 22.989,0 45.979,0 68.969,0 3.436,0 6.707-4.397 4.317-7.523-11.495-15.04-22.989-30.079-34.484-45.118-2.429-3.178-6.206-3.178-8.635,0-11.495,15.039-22.989,30.078-34.484,45.118-3.916,5.124 4.777,10.096 8.636,5.046z"/>
<path d="m157.434,120.584c0,40.333 0,80.667 0,121 0,6.448 10,6.448 10,0 0-40.333 0-80.667 0-121 0-6.449-10-6.449-10,0z"/>
</g>
</svg>
