<svg xmlns="http://www.w3.org/2000/svg" viewBox="20 20 321 321">
<g fill="#000">
<path d="m282.091,248.793c-.342,19.011-15.57,33.223-34.364,33.223-9.349,0-18.696,0-28.045,0-30.382,0-60.764,0-91.146,0-8.193,0-17.079,.821-25.046-1.37-15.908-4.376-23.746-19.357-23.746-34.84 0-26.94 0-53.881 0-80.822 0-13.63 0-27.261 0-40.891 0-10.286-.432-19.816 5.218-29.091 5.9-9.688 16.872-15.134 28.005-15.334 1.873-.034 3.75,0 5.623,0 11.993,0 23.985,0 35.978,0 28.948,0 57.895,0 86.843,0 2.435,0 4.869,0 7.304,0 9.692,0 18.423,4.118 24.992,11.149 8.259,8.838 8.384,19.892 8.384,31.057 0,42.305 0,84.612 0,126.919 0,6.448 10,6.448 10,0 0-45.25 0-90.499 0-135.749 0-21.074-15.582-39.412-36.368-42.802-7.717-1.259-15.997-.575-23.774-.575-30.484,0-60.969,0-91.454,0-8.919,0-17.838,0-26.757,0-19.139,0-35.525,11.826-41.866,29.812-2.981,8.458-2.127,18.187-2.127,27.037 0,14.13 0,28.26 0,42.39 0,26.019 0,52.037 0,78.056 0,17.04 8.363,32.442 23.721,40.403 9.584,4.968 19.753,4.651 30.13,4.651 29.716,0 59.432,0 89.148,0 10.936,0 21.872,0 32.808,0 15.528,0 28.915-5.53 38.481-18.126 5.414-7.128 7.898-16.254 8.058-25.097 .116-6.452-9.884-6.441-10-0z"/>
<path d="m135.773,195.923c0-29.772 7.15-52.36 21.45-67.76 14.3-15.4 35.089-23.685 62.37-24.86l.88,12.1c-8.947,.588-17.197,1.946-24.75,4.07-7.555,2.128-14.266,5.428-20.13,9.9-5.868,4.476-10.78,10.23-14.74,17.27-3.96,7.04-6.676,15.695-8.14,25.96 3.96-2.052 8.725-3.85 14.3-5.39 5.572-1.54 11.512-2.31 17.82-2.31 8.212,0 15.181,1.286 20.899,3.85 5.721,2.568 10.341,5.978 13.86,10.23 3.521,4.255 6.085,9.167 7.7,14.74 1.612,5.576 2.42,11.44 2.42,17.6 0,5.721-.88,11.44-2.64,17.16-1.761,5.721-4.511,10.891-8.25,15.51-3.74,4.621-8.437,8.398-14.08,11.33-5.647,2.933-12.358,4.4-20.13,4.4-15.988,0-28.126-5.609-36.41-16.83-8.287-11.22-12.429-26.874-12.429-46.97zm47.741-18.48c-6.749,0-12.651,.77-17.71,2.31-5.06,1.54-9.79,3.338-14.19,5.39-.295,2.496-.44,4.438-.44,5.83 0,1.396 0,3.118 0,5.17 0,6.896 .475,13.42 1.43,19.58 .952,6.16 2.712,11.588 5.28,16.28 2.564,4.695 5.975,8.397 10.23,11.11 4.252,2.715 9.68,4.069 16.28,4.069 5.425,0 10.045-.989 13.86-2.97 3.813-1.98 6.892-4.582 9.24-7.811 2.345-3.224 4.069-6.964 5.17-11.22 1.101-4.252 1.649-8.724 1.649-13.42 0-11.731-2.605-20.384-7.81-25.96-5.208-5.571-12.87-8.358-22.989-8.358z"/>
</g>
</svg>
