<svg xmlns="http://www.w3.org/2000/svg" viewBox="20 20 321 321">
<path fill="none"  stroke="#000" stroke-width="10" d="m287.139,278.447c0,4.433-3.594,8.025-8.025,8.025h-195.96c-4.433,0-8.026-3.593-8.026-8.025v-195.959c0-4.433 3.593-8.026 8.026-8.026h195.959c4.432,0 8.025,3.593 8.025,8.026v195.959z"/>
<path fill="#000" d="m257.893,158.114c-.377,3.273-5.382,2.349-7.291,2.349-4.643,0-9.286,0-13.93,0-14.693,0-29.387,0-44.079,0-25.866,0-51.732,0-77.598,0-2.259,0-4.604-.39-4.604-3.39 0-4.679 0-9.357 0-14.036 0-15.611 0-31.223 0-46.834 0-4.86 0-9.721 0-14.582 0-2.784 1.974-3.659 4.337-3.659 9.759,0 19.518,0 29.276,0 30.654,0 61.307,0 91.961,0 6.525,0 13.052,0 19.577,0 3.714,0 2.35,9.184 2.35,10.827 0,7.01 0,14.021 0,21.031 .001,16.098 .001,32.196 .001,48.294 0,4.514 7,4.514 7,0 0-24.451 0-48.902 0-73.354 0-4.342 .336-9.328-3.925-12.036-2.903-1.846-5.684-1.763-8.902-1.763-10.692,0-21.386,0-32.078,0-30.366,0-60.732,0-91.098,0-6.173,0-16.033-1.759-21.574,1.763-4.26,2.708-3.924,7.694-3.924,12.036 0,6.144 0,12.287 0,18.43 0,15.262 0,30.523 0,45.785 0,8.207-.763,18.487 10.634,18.487 24.865,0 49.731,0 74.597,0 16.924,0 33.849,0 50.772,0 8.894,0 24.077,2.986 25.498-9.349 .516-4.479-6.49-4.429-7,.001z"/>
<path fill="none"  stroke="#000" stroke-width="10" d="m88.776,94.894c0,2.347-1.902,4.25-4.25,4.25h-4.378c-2.347,0-4.25-1.902-4.25-4.25 0-2.347 1.902-4.25 4.25-4.25h4.378c2.348,.001 4.25,1.903 4.25,4.25z"/>
<g fill="#000">
<path d="m124.833,103.304c39.184,0 78.368,0 117.552,0 4.514,0 4.514-7 0-7-39.184,0-78.368,0-117.552,0-4.514,0-4.514,7 0,7z"/>
<path d="m124.833,151.771c39.184,0 78.368,0 117.552,0 4.514,0 4.514-7 0-7-39.184,0-78.368,0-117.552,0-4.514,0-4.514,7 0,7z"/>
<path d="m124.833,127.537c39.184,0 78.368,0 117.552,0 4.514,0 4.514-7 0-7-39.184,0-78.368,0-117.552,0-4.514,0-4.514,7 0,7z"/>
<path d="m155.865,266.576c0,4.275-3.344,7.74-7.469,7.74h-14.466c-4.125,0-7.468-3.465-7.468-7.74v-49.301c0-4.275 3.344-7.742 7.468-7.742h14.467c4.125,0 7.469,3.467 7.469,7.742v49.301z"/>
<path d="m245.038,278.414c-.429,5.251-5.506,4.559-9.203,4.559-5.014,0-10.026,0-15.04,0-15.471,0-30.94,0-46.411,0-14.005,0-28.01,0-42.015,0-3.181,0-6.362,0-9.543,0-5.045,0-5.193-4.123-5.193-7.804 0-14.04 0-28.08 0-42.12 0-6.883 0-13.766 0-20.648 0-4.138-1.266-11.051 4.66-11.523 7.47-.596 15.231,0 22.718,0 15.739,0 31.477,0 47.216,0 13.073,0 26.146,0 39.22,0 2.847,0 5.693,0 8.539,0 5.014,0 5.054,4.218 5.054,7.805-.002,23.243-.002,46.487-.002,69.731 0,4.514 7,4.514 7,0 0-23.76 0-47.519 0-71.277 0-6.278-3.355-12.598-10.337-13.154-2.387-.19-4.79-.105-7.185-.105-12.799,0-25.598,0-38.396,0-24.551,0-49.101,0-73.652,0-13.927,0-11.836,15.551-11.836,24.883 0,15.443 0,30.888 0,46.331 0,9.333-2.091,24.882 11.836,24.882 8.611,0 17.222,0 25.833,0 28.738,0 57.477,0 86.215,0 1.896,0 3.79,0 5.686,0 6.741,0 11.311-5.131 11.836-11.559 .368-4.503-6.635-4.468-7-.001z"/>
</g>
</svg>
