<svg xmlns="http://www.w3.org/2000/svg" viewBox="20 20 321 321">
<g fill="#000">
<path d="m110.351,165.846c0,3.491-2.831,6.321-6.322,6.321h-12.116c-3.491,0-6.321-2.831-6.321-6.321v-11.589c0-3.491 2.831-6.321 6.321-6.321h12.116c3.491,0 6.322,2.83 6.322,6.321v11.589z"/>
<path d="m224.133,165.846c0,3.491-2.83,6.321-6.32,6.321h-12.116c-3.491,0-6.321-2.831-6.321-6.321v-11.589c0-3.491 2.83-6.321 6.321-6.321h12.116c3.49,0 6.32,2.83 6.32,6.321v11.589z"/>
<path d="m209.464,118.418h-109.842c-6.306,0-11.246-6.332-11.246-14.417v-.664l5.007-19.54c.488-7.432 8.012-13.655 14.209-13.655h93.9c6.197,0 13.722,6.223 14.21,13.655l5.007,19.54v.664c-0,8.085-4.939,14.417-11.245,14.417zm-109.444-10.535h109.044c.358-.396 .975-1.512 1.09-3.29l-4.963-19.368v-.665c0-1.656-2.627-3.736-3.786-3.885l-93.813,.004c-1.072,.146-3.699,2.226-3.699,3.881v.665l-4.963,19.368c.116,1.778 .732,2.894 1.09,3.29z"/>
<path d="m228.698,147.614c0,3.085-2.928,5.589-6.538,5.589h-135.123c-3.61,0-6.538-2.503-6.538-5.589v-29.194c0-3.086 2.928-5.589 6.538-5.589h135.123c3.61,0 6.538,2.502 6.538,5.589v29.194zm-113.344-22.606c0-2.735-2.83-4.953-6.321-4.953h-18.173c-3.492,0-6.322,2.218-6.322,4.953v5.16c0,2.735 2.83,4.953 6.322,4.953h18.173c3.491,0 6.321-2.217 6.321-4.953v-5.16zm109.042,0c0-2.735-2.83-4.953-6.321-4.953h-18.174c-3.491,0-6.321,2.218-6.321,4.953v5.16c0,2.735 2.83,4.953 6.321,4.953h18.174c3.491,0 6.321-2.217 6.321-4.953v-5.16zm-42.405,4.378c0-5.32-2.83-9.633-6.321-9.633h-42.669c-3.491,0-6.321,4.313-6.321,9.633v6.02c0,5.319 2.831,9.633 6.321,9.633h42.669c3.491,0 6.321-4.313 6.321-9.633v-6.02z"/>
<path d="m119.569,122.65h69.534v10.536h-69.534z"/>
<path d="m120.622,136.346h69.534v10.536h-69.534z"/>
<path d="m264.331,179.472c0,35.047 0,70.094 0,105.141 0,9.686 15.004,9.771 15.004,.107 0-35.047 0-70.094 0-105.14-0-9.686-15.004-9.771-15.004-.108z"/>
<path d="m273.833,288.834c-49.291,0-98.583,0-147.874,0-16.987,0-33.973,0-50.959,0-1.935,0-1.935,3 0,3 49.292,0 98.583,0 147.875,0 16.986,0 33.973,0 50.959,0 1.934,0 1.934-3-.001-3z"/>
<path d="m114.083,192.198c0,29.552 0,59.103 0,88.654 0,6.448 10,6.448 10,0 0-29.552 0-59.103 0-88.654 0-6.448-10-6.448-10,0z"/>
<path d="m138,192.293c0,29.552 0,59.104 0,88.655 0,6.448 10,6.448 10,0 0-29.552 0-59.104 0-88.655 0-6.448-10-6.448-10,0z"/>
<path d="m161.917,192.293c0,29.552 0,59.104 0,88.655 0,6.448 10,6.448 10,0 0-29.552 0-59.104 0-88.655 0-6.448-10-6.448-10,0z"/>
<path d="m209.75,192.293c0,29.552 0,59.104 0,88.655 0,6.448 10,6.448 10,0 0-29.552 0-59.104 0-88.655 0-6.448-10-6.448-10,0z"/>
<path d="m233.666,192.198c0,29.552 0,59.103 0,88.654 0,6.448 10,6.448 10,0 0-29.552 0-59.103 0-88.654 0-6.448-10-6.448-10,0z"/>
<path d="m257.584,192.293c0,29.552 0,59.104 0,88.655 0,6.448 10,6.448 10,0 0-29.552 0-59.104 0-88.655 0-6.448-10-6.448-10,0z"/>
<path d="m281.5,192.293c0,29.552 0,59.104 0,88.655 0,6.448 10,6.448 10,0 0-29.552 0-59.104 0-88.655 0-6.448-10-6.448-10,0z"/>
<path d="m119.083,285.853c49.658,0 99.315,0 148.973,0 6.148,0 12.296,0 18.444,0 6.448,0 6.448-10 0-10-49.657,0-99.315,0-148.973,0-6.148,0-12.296,0-18.444,0-6.449,0-6.449,10-0,10z"/>
<path d="m119.083,196.525c49.658,0 99.315,0 148.973,0 6.148,0 12.296,0 18.444,0 6.448,0 6.448-10 0-10-49.657,0-99.315,0-148.973,0-6.148,0-12.296,0-18.444,0-6.449,0-6.449,10-0,10z"/>
<path d="m185.833,192.293c0,29.552 0,59.104 0,88.655 0,6.448 10,6.448 10,0 0-29.552 0-59.104 0-88.655 0-6.448-10-6.448-10,0z"/>
<path d="m70,191.525c0,31.797 0,63.595 0,95.392 0,6.448 10,6.448 10,0 0-31.797 0-63.595 0-95.392 0-6.448-10-6.448-10-0z"/>
</g>
</svg>
