<svg xmlns="http://www.w3.org/2000/svg" viewBox="20 20 321 321">
<path fill="none"  stroke="#000" stroke-width="10" d="m193.191,280.931c0,3.406-2.713,6.167-6.059,6.167h-92.89c-3.346,0-6.058-2.761-6.058-6.167v-187.097c0-3.406 2.712-6.167 6.058-6.167h92.89c3.346,0 6.059,2.761 6.059,6.167v187.097z"/>
<path fill="#000" d="m90.185,185.686c3.333,0 6.667,0 10,0 6.449,0 6.449-10 0-10-3.333,0-6.667,0-10,0-6.449-.001-6.449,10 0,10z"/>
<g fill="none"  stroke="#000" stroke-width="10">
<path d="m286.854,80.667c0-3.314 .313-6-3-6h-206.333c-3.313,0-3,2.686-3,6v.667c0,3.313-.313,6 3,6h206.333c3.313,0 3-2.687 3-6v-.667z"/>
<path d="M157.524,287.098H81.08   c-3.346,0-6.058-2.761-6.058-6.168V80.834c0-3.406,2.712-6.167,6.058-6.167h76.111"/>
</g>
</svg>
