<svg xmlns="http://www.w3.org/2000/svg" viewBox="20 20 321 321">
<path fill="none"  stroke="#000" stroke-width="10" d="m232.836,280.912c0,3.406-2.713,6.168-6.059,6.168h-92.89c-3.346,0-6.058-2.762-6.058-6.168v-200.096c0-3.406 2.712-6.167 6.058-6.167h92.89c3.346,0 6.059,2.761 6.059,6.167v200.096z"/>
<path fill="#000" d="m129.83,185.667c3.333,0 6.667,0 10,0 6.449,0 6.449-10 0-10-3.333,0-6.667,0-10,0-6.449,0-6.449,10 0,10z"/>
<path fill="none"  stroke="#000" stroke-width="10" d="m231.163,280c0-3.313-2.687-6-6-6h-91.333c-3.313,0-6,2.687-6,6v.667c0,3.313 2.687,6 6,6h91.333c3.313,0 6-2.687 6-6v-.667z"/>
<g fill="#000">
<path d="m129.833,186.077c3.338,0 6.676,0 10.014,0 4.514,0 4.514-7 0-7-3.338,0-6.676,0-10.014,0-4.514,0-4.514,7 0,7z"/>
<path d="m188.537,121.593c.23-.853 2.312-.752 1.079-.752-.632,0-1.265,0-1.897,0-2.136,0-4.271,0-6.407,0-3.461,0-6.921,0-10.382,0 1.593,0 1.465,2.945 1.465-.125 0-2.031 0-4.062 0-6.092 0-3.506 0-7.012 0-10.517 0,1.718-2.624,1.625-1.204,1.625 .633,0 1.265,0 1.898,0 2.136,0 4.271,0 6.408,0 3.514,0 7.029,0 10.543,0-1.723,0-1.628-2.624-1.628-1.196 0,.639 0,1.277 0,1.915 0,2.13 0,4.26 0,6.39 0,3.228 0,6.456 0,9.684 0,4.514 7,4.514 7,0 0-4.382 0-8.765 0-13.146 0-4.045 .667-10.646-5.316-10.646-4.417,0-8.834,0-13.25,0-4.346,0-9.873-.98-11.325,4.388-1.067,3.947-.125,9.2-.125,13.243 0,4.35-.989,9.9 4.386,11.354 3.968,1.073 9.252,.125 13.316,.125 4.489,0 10.68,1.204 12.189-4.386 1.179-4.368-5.574-6.217-6.75-1.864z"/>
<path d="m188.537,163.452c.23-.853 2.312-.752 1.079-.752-.632,0-1.265,0-1.897,0-2.136,0-4.271,0-6.407,0-3.461,0-6.921,0-10.382,0 1.593,0 1.465,2.945 1.465-.125 0-2.031 0-4.062 0-6.092 0-3.506 0-7.012 0-10.517 0,1.718-2.624,1.625-1.204,1.625 .633,0 1.265,0 1.898,0 2.136,0 4.271,0 6.408,0 3.514,0 7.029,0 10.543,0-1.723,0-1.628-2.624-1.628-1.196 0,.639 0,1.277 0,1.915 0,2.13 0,4.26 0,6.39 0,3.228 0,6.456 0,9.684 0,4.514 7,4.514 7,0 0-4.382 0-8.765 0-13.146 0-4.045 .667-10.646-5.316-10.646-4.417,0-8.834,0-13.25,0-4.346,0-9.873-.98-11.325,4.388-1.067,3.947-.125,9.2-.125,13.243 0,4.35-.988,9.899 4.386,11.354 3.968,1.073 9.253,.125 13.316,.125 4.489,0 10.679,1.203 12.189-4.386 1.179-4.367-5.574-6.217-6.75-1.864z"/>
<path d="m188.537,202.892c.23-.853 2.312-.752 1.079-.752-.632,0-1.265,0-1.897,0-2.136,0-4.271,0-6.407,0-3.461,0-6.921,0-10.382,0 1.593,0 1.465,2.944 1.465-.126 0-2.03 0-4.061 0-6.092 0-3.506 0-7.011 0-10.517 0,1.718-2.624,1.624-1.204,1.624 .633,0 1.265,0 1.898,0 2.136,0 4.271,0 6.408,0 3.514,0 7.029,0 10.543,0-1.723,0-1.628-2.623-1.628-1.195 0,.639 0,1.276 0,1.915 0,2.13 0,4.26 0,6.39 0,3.228 0,6.456 0,9.684 0,4.514 7,4.514 7,0 0-4.382 0-8.765 0-13.146 0-4.045 .667-10.646-5.316-10.646-4.417,0-8.834,0-13.25,0-4.346,0-9.874-.98-11.325,4.389-1.067,3.947-.125,9.199-.125,13.243 0,4.35-.988,9.898 4.386,11.354 3.967,1.074 9.253,.125 13.316,.125 4.489,0 10.679,1.203 12.189-4.387 1.179-4.366-5.574-6.216-6.75-1.863z"/>
<path d="m188.537,244.751c.23-.853 2.312-.752 1.079-.752-.632,0-1.265,0-1.897,0-2.136,0-4.271,0-6.407,0-3.461,0-6.921,0-10.382,0 1.593,0 1.465,2.944 1.465-.126 0-2.03 0-4.062 0-6.092 0-3.506 0-7.012 0-10.518 0,1.719-2.624,1.625-1.204,1.625 .633,0 1.265,0 1.898,0 2.136,0 4.271,0 6.408,0 3.514,0 7.029,0 10.543,0-1.723,0-1.628-2.624-1.628-1.196 0,.639 0,1.277 0,1.915 0,2.13 0,4.26 0,6.39 0,3.229 0,6.456 0,9.685 0,4.514 7,4.514 7,0 0-4.383 0-8.765 0-13.147 0-4.045 .667-10.646-5.316-10.646-4.417,0-8.834,0-13.25,0-4.346,0-9.873-.98-11.325,4.388-1.068,3.947-.125,9.2-.125,13.243 0,4.351-.988,9.899 4.386,11.354 3.967,1.074 9.253,.125 13.316,.125 4.489,0 10.679,1.203 12.189-4.387 1.179-4.364-5.574-6.214-6.75-1.861z"/>
</g>
</svg>
