<svg xmlns="http://www.w3.org/2000/svg" viewBox="20 20 321 321">
<g fill="#000">
<path d="m208.472,133.705c0,10.128 0,20.257 0,30.386 0,1.935 3,1.935 3,0 0-10.128 0-20.257 0-30.386 0-1.934-3-1.934-3,0z"/>
<path d="m208.59,193.051c0,12.063 0,24.126 0,36.188 0,1.935 3,1.935 3,0 0-12.063 0-24.126 0-36.188 0-1.935-3-1.935-3,0z"/>
<path d="m208.59,259.52c0,10.049 0,20.099 0,30.147 0,1.935 3,1.935 3,0 0-10.049 0-20.099 0-30.147 0-1.935-3-1.935-3,0z"/>
<path d="m140.129,221.531c37.446-38.939 93.957-53.037 145.315-36.294 6.148,2.004 8.762-7.653 2.658-9.643-54.609-17.803-115.263-2.502-155.044,38.867-4.468,4.646 2.594,11.727 7.071,7.07z"/>
<path d="m136.925,216.097c-.673,.673-1.346,1.346-2.02,2.019-1.349,1.348-1.348,3.602 0,4.949 1.349,1.349 3.601,1.349 4.95,0 .673-.673 1.346-1.346 2.02-2.019 1.349-1.348 1.348-3.602 0-4.949-1.349-1.349-3.601-1.349-4.95,0z"/>
<path d="m287.316,179.803c-.93-.206-1.859-.411-2.788-.616-1.861-.411-3.78,.536-4.306,2.444-.486,1.768 .581,3.894 2.444,4.306 .93,.205 1.859,.411 2.788,.616 1.861,.411 3.78-.536 4.306-2.444 .487-1.768-.58-3.895-2.444-4.306z"/>
<path d="m140.129,288.471c37.446-38.939 93.957-53.036 145.315-36.294 6.148,2.005 8.762-7.653 2.658-9.643-54.609-17.802-115.263-2.502-155.044,38.866-4.468,4.647 2.594,11.727 7.071,7.071z"/>
<path d="m136.925,283.037c-.673,.673-1.346,1.346-2.02,2.019-1.349,1.348-1.348,3.602 0,4.949 1.349,1.349 3.601,1.349 4.95,0 .673-.673 1.346-1.346 2.02-2.019 1.349-1.348 1.348-3.602 0-4.949-1.349-1.349-3.601-1.349-4.95,0z"/>
<path d="m287.316,246.742c-.93-.205-1.859-.41-2.788-.615-1.861-.411-3.78,.536-4.306,2.444-.486,1.767 .581,3.895 2.444,4.306 .93,.205 1.859,.41 2.788,.615 1.861,.411 3.78-.536 4.306-2.444 .487-1.767-.58-3.895-2.444-4.306z"/>
</g>
<path fill="none"  stroke="#000" stroke-width="10" d="m90.708,118.603c0,2.245 1.82,4.064 4.064,4.064h23.371c2.245,0 4.064-1.82 4.064-4.064v-23.372c0-2.245-1.82-4.064-4.064-4.064h-23.371c-2.245,0-4.064,1.82-4.064,4.064v23.372z"/>
<g fill="#000">
<path d="m137.797,70.756c-2.406,2.407-4.813,4.813-7.219,7.219-1.926,1.926-1.926,5.145 0,7.071s5.145,1.926 7.071,0c2.406-2.407 4.813-4.813 7.219-7.219 1.926-1.926 1.926-5.145 0-7.071s-5.145-1.926-7.071,0z"/>
<path d="m175.708,101.667c-11.167,0-22.333,0-33.5,0-6.449,0-6.449,10 0,10 11.167,0 22.333,0 33.5,0 6.448,0 6.448-10 0-10z"/>
<path d="m78.369,143.327c1.99-1.99 3.979-3.979 5.969-5.969 1.926-1.926 1.926-5.145 0-7.071s-5.145-1.926-7.071,0c-1.99,1.99-3.979,3.979-5.969,5.969-1.926,1.926-1.926,5.145 0,7.071s5.144,1.926 7.071,0z"/>
<path d="m111.958,175.417c0-11.167 0-22.333 0-33.5 0-6.449-10-6.449-10,0 0,11.167 0,22.333 0,33.5 0,6.448 10,6.448 10,0z"/>
<path d="m160.337,153.976c-7.896-7.896-15.792-15.792-23.688-23.688-4.564-4.563-11.635,2.507-7.071,7.071 7.896,7.896 15.792,15.792 23.688,23.688 4.564,4.563 11.635-2.507 7.071-7.071z"/>
</g>
</svg>
