<svg xmlns="http://www.w3.org/2000/svg" viewBox="20 20 321 321">
<path fill="none"  stroke="#000" stroke-width="10" d="m220.978,233.758c-1.464,0-2.651-.37-2.651-.826v-14.346c0-.457 1.188-.828 2.651-.828h51.698c1.464,0 2.65,.371 2.65,.828v14.346c0,.456-1.187,.826-2.65,.826h-51.698z"/>
<path fill="#000" d="m282.291,231.59c-13.375,17.5-26.751,35-40.126,52.5 2.878,0 5.757,0 8.635,0-13.375-17.5-26.75-35-40.125-52.5-1.439,2.508-2.878,5.016-4.317,7.523 26.75,0 53.501,0 80.251,0 6.448,0 6.448-10 0-10-26.75,0-53.501,0-80.251,0-3.436,0-6.707,4.396-4.317,7.523 13.375,17.5 26.75,35 40.125,52.5 2.429,3.178 6.206,3.178 8.635,0 13.375-17.5 26.751-35 40.126-52.5 3.917-5.124-4.777-10.096-8.636-5.046z"/>
<path fill="none"  stroke="#000" stroke-width="10" d="m238.147,187.992c0,2.906-2.355,5.261-5.261,5.261h-147.324c-2.906,0-5.261-2.354-5.261-5.261v-94.708c0-2.906 2.355-5.262 5.261-5.262h147.325c2.905,0 5.261,2.356 5.261,5.262v94.708z"/>
<path fill="#000" d="m154.796,145.514c3.137,0 6.274,0 9.412,0 6.449,0 6.449-10 0-10-3.137,0-6.274,0-9.412,0-6.449,0-6.449,10 0,10z"/>
<path fill="none"  stroke="#000" stroke-width="10" d="m159.399,88.27 0,102.376"/>
<g fill="#000">
<path  stroke="#000" stroke-width="10" d="m243.861,89.121c0,.406-2.522,.736-5.634,.736h-157.741c-3.111,0-5.633-.33-5.633-.736v-13.228c0-.405 2.522-.735 5.633-.735h157.742c3.111,0 5.634,.33 5.634,.735v13.228z"/>
<path d="m96.941,193.292c0-35.875 .001-71.75 .001-107.625 0-4.514-7-4.514-7,0 0,35.875-.001,71.75-.001,107.625 0,4.514 7,4.514 7,0z"/>
<path d="m111.597,193.292c.001-35.875 .001-71.75 .002-107.625 0-4.514-7-4.514-7,0-.001,35.875-.001,71.75-.002,107.625 0,4.514 7,4.514 7,0z"/>
</g>
</svg>
