<svg xmlns="http://www.w3.org/2000/svg" viewBox="20 20 321 321">
<g fill="none"  stroke="#000" stroke-width="10">
<path d="m267.654,250.303c0,3.91-2.583,7.082-5.768,7.082l-161.89,.021c-3.186,0-5.768-3.171-5.768-7.083v-127.5c0-3.911 2.582-7.083 5.768-7.083l161.89-.021c3.185,0 5.768,3.172 5.768,7.083v127.501z"/>
<path d="m180.941,116.583 0,137.175"/>
<path d="m267.654,120.208c0,2.485-2.218,4.5-4.952,4.5l-163.522,.021c-2.734,0-4.951-2.015-4.951-4.5v-9c0-2.485 2.217-4.5 4.951-4.5l163.522-.021c2.734,0 4.952,2.015 4.952,4.5v9z"/>
<path d="m94.243,250.303c0,3.91 2.583,7.082 5.767,7.082l161.89,.021c3.186,0 5.769-3.171 5.769-7.083v-127.5c0-3.911-2.583-7.083-5.769-7.083l-161.89-.021c-3.185,0-5.767,3.172-5.767,7.083v127.501z"/>
</g>
<path fill="#000" d="m186.113,181.584c-1.722,0-3.443,0-5.165,0-2.726,0-5,2.274-5,5s2.274,5 5,5c1.722,0 3.443,0 5.165,0 2.726,0 5-2.274 5-5s-2.274-5-5-5z"/>
<g fill="none"  stroke="#000" stroke-width="10">
<path d="m180.956,116.583 0,137.175"/>
<path d="m94.243,120.208c0,2.485 2.217,4.5 4.952,4.5l163.521,.021c2.735,0 4.953-2.015 4.953-4.5v-9c0-2.485-2.218-4.5-4.953-4.5l-163.521-.021c-2.735,0-4.952,2.015-4.952,4.5v9z"/>
<path d="m267.654,250.303c0,3.91-2.582,7.082-5.768,7.082l-161.89,.021c-3.186,0-5.768-3.171-5.768-7.083v-127.5c0-3.911 2.582-7.083 5.768-7.083l161.89-.021c3.186,0 5.768,3.172 5.768,7.083v127.501z"/>
</g>
<path fill="#000" d="m180.948,191.584c6.448,0 6.448-10 0-10-6.448,0-6.448,10 0,10z"/>
<g fill="none"  stroke="#000" stroke-width="10">
<path d="m180.941,116.583 0,137.175"/>
<path d="m267.654,120.208c0,2.485-2.217,4.5-4.952,4.5l-163.521,.021c-2.734,0-4.951-2.015-4.951-4.5v-9c0-2.485 2.217-4.5 4.951-4.5l163.521-.021c2.735,0 4.952,2.015 4.952,4.5v9z"/>
<path d="m174.629,251.773c.454,2.887-1.266,5.227-3.841,5.227h-73.315c-2.575,0-5.032-2.34-5.485-5.227l-16.446-104.545c-.455-2.887 1.266-5.228 3.84-5.228h73.316c2.575,0 5.03,2.34 5.485,5.228l16.446,104.545z"/>
</g>
</svg>
