<svg xmlns="http://www.w3.org/2000/svg" viewBox="20 20 321 321">
<path fill="none"  stroke="#000" stroke-width="10" d="m286.817,250.303c0,3.91-3.156,7.082-7.05,7.082l-197.885,.021c-3.894,0-7.05-3.171-7.05-7.083v-127.5c0-3.911 3.156-7.083 7.05-7.083l197.885-.021c3.894,0 7.05,3.172 7.05,7.083v127.501z"/>
<path fill="#000" d="m174.521,191.584c4.203,0 8.406,0 12.609,0 6.448,0 6.448-10 0-10-4.203,0-8.406,0-12.609,0-6.449,0-6.449,10 0,10z"/>
<g fill="none"  stroke="#000" stroke-width="10">
<path d="m180.825,116.583 0,137.175"/>
<path d="m286.817,120.208c0,2.485-2.71,4.5-6.052,4.5l-199.88,.021c-3.342,0-6.052-2.015-6.052-4.5v-9c0-2.485 2.71-4.5 6.052-4.5l199.88-.021c3.342,0 6.052,2.015 6.052,4.5v9z"/>
</g>
</svg>
