<svg xmlns="http://www.w3.org/2000/svg" viewBox="20 20 321 321">
<g fill="none"  stroke="#000" stroke-width="10">
<path d="m287.279,278.221c0,4.894-4.315,8.86-9.637,8.86h-192.753c-5.321,0-9.637-3.967-9.637-8.86v-89.695c0-4.89 4.316-8.858 9.637-8.858h192.753c5.321,0 9.637,3.969 9.637,8.858v89.695z"/>
<path d="m262.846,213.503c-12.85-2.627-27.935-3.782-40.704-4.797-7.599-.603-34.618-.676-40.696-.684v-.001c0,0-.215,0-.612,0s-.612,0-.612,0v.001c-6.079,.008-33.097,.081-40.696,.684-12.77,1.015-27.854,2.17-40.704,4.797-2.574,.525-4.801,1.78-4.801,3.976v32c0,2.197 2.149,3.977 4.801,3.977h36.016c10.479-1.011 7.722-13.344 12.961-17.814 1.777-1.516 5.998-1.371 8.549-1.371 5.647,0 18.819,0 23.599,0 1.115,0 1.775,0 1.775,0 4.779,0 17.951,0 23.598,0 2.553,0 6.772-.145 8.55,1.371 5.239,4.471 2.481,16.804 12.962,17.814h36.016c2.652,0 4.801-1.779 4.801-3.977v-32c-.003-2.196-2.229-3.451-4.803-3.976z"/>
</g>
<g fill="#000">
<path d="m242.197,76.973c-1.341-9.976-16.774-7.13-23.751-7.13-15.404,0-30.809,0-46.212,0-13.222,0-26.443,0-39.665,0-2.662,0-5.928-.417-8.434,.641-4.703,1.985-5.082,6.258-5.082,10.615 0,27.74 0,55.481 0,83.222 0,7.023-2.131,19.847 8.496,19.847 9.812,0 19.624,0 29.436,0 25.658,0 51.315,0 76.973,0 10.656,0 8.364-13.569 8.364-20.529 0-15.182 0-30.364 0-45.546 0-13.396 0-26.792 0-40.188 0-4.514-7-4.514-7,0 0,24.639 0,49.277 0,73.916 0,1.895 1.229,25.348-1.109,25.348-8.755,0-17.509,0-26.263,0-26.623,0-53.246,0-79.869,0-2.539,0-2.027-2.317-2.027-4.254 0-5.08 0-10.159 0-15.239 0-15.764 0-31.527 0-47.291 0-10.614 0-21.228 0-31.841 0-3.447 17.456-1.699 19.907-1.699 28.194,0 56.389,0 84.582,0 2.169,0 4.536-.746 4.904,1.991 .599,4.454 7.343,2.549 6.75-1.863z"/>
<path d="m140.205,101.118c26.989,0 53.978,0 80.967,0 4.514,0 4.514-7 0-7-26.989,0-53.978,0-80.967,0-4.514,0-4.514,7-0,7z"/>
<path d="m140.205,140.152c26.989,0 53.978,0 80.967,0 4.514,0 4.514-7 0-7-26.989,0-53.978,0-80.967,0-4.514,0-4.514,7-0,7z"/>
<path d="m140.205,120.634c26.989,0 53.978,0 80.967,0 4.514,0 4.514-7 0-7-26.989,0-53.978,0-80.967,0-4.514,0-4.514,7-0,7z"/>
<path d="m140.205,159.668c26.989,0 53.978,0 80.967,0 4.514,0 4.514-7 0-7-26.989,0-53.978,0-80.967,0-4.514,0-4.514,7-0,7z"/>
</g>
</svg>
