<svg xmlns="http://www.w3.org/2000/svg" viewBox="20 20 321 321">
<g fill="#000">
<path d="m147.636,118.014c-14.505,15.154-14.506,38.448 0,53.602 4.467,4.666 11.528-2.415 7.071-7.071-10.71-11.188-10.71-28.271 0-39.459 4.457-4.657-2.604-11.738-7.071-7.072z"/>
<path d="m132.036,101.991c-23.279,23.884-23.278,61.865 0,85.749 4.507,4.625 11.573-2.452 7.071-7.071-19.474-19.98-19.474-51.627 0-71.607 4.502-4.618-2.564-11.695-7.071-7.071z"/>
<path d="m116.581,86.317c-31.769,32.364-31.77,84.515-.001,116.879 4.523,4.608 11.59-2.467 7.071-7.07-27.96-28.485-27.959-74.254 .001-102.738 4.518-4.603-2.548-11.679-7.071-7.071z"/>
<path d="m100.813,71.792c-19.296,19.582-30.146,45.687-30.337,73.185-.19,27.35 11.239,53.803 30.337,73.184 4.532,4.599 11.6-2.476 7.071-7.07-36-36.533-36-95.695 0-132.227 4.529-4.596-2.539-11.671-7.071-7.072z"/>
<path d="m200.783,283.417c0,4.188-2.608,7.583-5.826,7.583h-7.12c-3.217,0-5.825-3.395-5.825-7.583v-158.834c0-4.188 2.608-7.583 5.825-7.583h7.12c3.218,0 5.826,3.396 5.826,7.583v158.834z"/>
<path d="m209.447,134c0,2.748-2.108,4.975-4.709,4.975h-26.683c-2.599,0-4.708-2.228-4.708-4.975v-5.528c0-2.747 2.109-4.975 4.708-4.975h26.683c2.601,0 4.709,2.228 4.709,4.975v5.528z"/>
<path d="m216.307,151.689c0,2.748-2.91,4.975-6.498,4.975h-36.823c-3.587,0-6.498-2.228-6.498-4.975v-5.528c0-2.747 2.91-4.975 6.498-4.975h36.823c3.588,0 6.498,2.228 6.498,4.975v5.528z"/>
<path d="m218.833,170.1c0,2.748-3.142,4.975-7.016,4.975h-39.757c-3.874,0-7.016-2.227-7.016-4.975v-5.528c0-2.747 3.142-4.975 7.016-4.975h39.757c3.874,0 7.016,2.228 7.016,4.975v5.528z"/>
<path d="M175.167,284 191.317,162.334 207.468,284z"/>
<path d="m182.668,284.054c5.384-40.555 10.768-81.11 16.151-121.666-4.916,.629-9.831,1.258-14.746,1.887 5.383,40.555 10.767,81.111 16.15,121.667 2.433-3.147 4.865-6.296 7.298-9.443-10.767,0-21.534,0-32.301,0-9.687,0-9.772,15.004-.108,15.004 10.768,0 21.534,0 32.302,0 5.357,0 7.931-4.681 7.298-9.443-5.383-40.555-10.767-81.11-16.15-121.666-.431-3.249-4.18-5.541-7.19-5.561-4.476-.03-7.018,3.398-7.556,7.447-5.383,40.555-10.767,81.111-16.15,121.667-.539,4.061 3.745,7.531 7.447,7.556 4.475,.028 7.018-3.399 7.555-7.449z"/>
</g>
</svg>
