<svg xmlns="http://www.w3.org/2000/svg" viewBox="20 20 321 321">
<g fill="#000">
<path d="m203.268,183.674c5.324-4.228 5.694,5.563 5.846,8.319 .24,4.383 .472,8.767 .695,13.15 .236,4.644 .461,9.287 .643,13.933 .091,2.341 1.258,7.287-.715,8.35 .752,.432 1.505,.863 2.257,1.295-.147-4.766-.313-9.529-.474-14.295-.08-2.377-.921-8.32-.378-9.719-.982-.133-1.964-.266-2.946-.398 .416,6.912 .388,13.877 .567,20.799 .099,3.794 .197,7.588 .294,11.382 .02,.743 .039,1.486 .058,2.229 .048,1.883 .493,1.399-1.214,1.72-.871,.163-1.742,.327-2.613,.49-1.9,.356-1.094,3.247 .797,2.893 3.706-.695 6.146-.613 6.03-5.103-.083-3.256-.167-6.513-.252-9.769-.212-8.2-.175-16.453-.667-24.642-.105-1.753-2.338-1.963-2.946-.398-.931,2.393 .149,6.914 .233,9.406 .173,5.135 .352,10.27 .511,15.404 .036,1.156 1.241,1.842 2.257,1.295 3.722-2.004 2.359-6.348 2.234-10.022-.237-6.982-.624-13.96-.991-20.936-.229-4.344-.244-8.755-.899-13.059-.89-5.833-5.987-7.988-10.447-4.446-1.516,1.204 .622,3.311 2.12,2.122z"/>
<path d="m212.184,192.674c-.137-4.428-4.182-7.868-8.523-7.979-1.936-.049-1.931,2.951 0,3 2.673,.068 5.438,2.219 5.523,4.979 .059,1.93 3.059,1.935 3,0z"/>
<path d="m285.273,280.704c-.442,4.87-5.613,4.02-9.019,4.02-5.077,0-10.154,0-15.232,0-15.509,0-31.019,0-46.528,0-14.189,0-28.38,0-42.569,0-4.806,0-15.262,2.019-15.262-5.112 0-52.657 0-105.314 0-157.971 0-10.76 0-21.521 0-32.281 0-4.608-1.54-12.385 5.176-12.385 26.094,0 52.188,0 78.281,0 12.185,0 24.368,0 36.553,0 3.114,0 8.601-.756 8.601,4.027 0,1.411 0,2.822 0,4.233 0,23.951 0,47.902 0,71.854-.001,41.205-.001,82.41-.001,123.615 0,4.514 7,4.514 7,0 0-49.311 0-98.622 0-147.933 0-17.259 0-34.518 0-51.776 0-12.786-14.32-11.021-22.878-11.021-14.316,0-28.632,0-42.947,0-15.433,0-30.865,0-46.297,0-4.962,0-9.925,0-14.888,0-2.924,0-6.199-.322-8.909,.948-7.956,3.73-6.691,12.111-6.691,19.32 0,11.018 0,22.036 0,33.054 0,52.207 0,104.415 0,156.622 0,5.678 3.725,11.151 9.746,11.685 2.378,.21 4.771,.121 7.157,.121 12.708,0 25.416,0 38.124,0 25.314,0 50.628,0 75.942,0 6.603,0 11.062-4.624 11.642-11.02 .408-4.497-6.596-4.457-7.001,0z"/>
<path d="m177.032,156.859c0,33.27 0,66.54 0,99.809 0,4.514 7,4.514 7,0 0-33.27 0-66.539 0-99.809-.001-4.514-7-4.514-7,0z"/>
<path d="m219.965,73.475c0,48.348 0,96.695 0,145.043 0,23.235 0,46.471 0,69.706 0,4.514 7,4.514 7,0 0-48.348 0-96.695 0-145.042 0-23.236 0-46.471 0-69.707 0-4.515-7-4.515-7,0z"/>
<path d="m153.163,160.359c23.434,0 46.869,0 70.302,0 4.514,0 4.514-7 0-7-23.434,0-46.868,0-70.302,0-4.515,0-4.515,7 0,7z"/>
<path d="m153.163,260.833c23.434,0 46.869,0 70.302,0 4.514,0 4.514-7 0-7-23.434,0-46.868,0-70.302,0-4.515-0-4.515,7 0,7z"/>
<path d="m223.465,222.879c20.789,0 41.579,0 62.368,0 4.514,0 4.514-7 0-7-20.789,0-41.579,0-62.368,0-4.514,0-4.514,7-0,7z"/>
<path d="m180.833,173.886c14.211,0 28.421,0 42.632,0 1.935,0 1.935-3 0-3-14.211,0-28.421,0-42.632,0-1.935,0-1.935,3 0,3z"/>
<path d="m224.377,146.917c21.466,0 42.931,0 64.396,0 4.514,0 4.514-7 0-7-21.466,0-42.931,0-64.396,0-4.514,0-4.514,7 0,7z"/>
<path d="m224.377,108.294c21.466,0 42.931,0 64.396,0 4.514,0 4.514-7 0-7-21.466,0-42.931,0-64.396,0-4.514,0-4.514,7 0,7z"/>
<path d="m170.856,244.409c-.02,.538-.253,1.562-.003,1.562-.292,0-.584,0-.877,0-1.25,0-2.5,0-3.75,0-1.19,0-2.38,0-3.57,0-.227,0-.454,0-.682,0 .404,0 .089-1.58 .089-2.143 0-1.158 .531-1.199 1.509-1.199 1.148,0 2.296,0 3.443,0 1.054,0 2.107,0 3.161,0 .995,0 .68,.944 .68,1.78 0,1.935 3,1.935 3,0 0-1.707-.007-3.921-1.971-4.571-1.333-.441-3.036-.209-4.413-.209-3.186,0-8.411-.861-8.411,3.801 0,1.602-.063,5.113 2.203,5.446 1.474,.217 3.009,.095 4.495,.095 1.728,0 3.456,0 5.184,0 2.402,0 2.844-2.711 2.912-4.562 .072-1.935-2.928-1.929-2.999,0z"/>
<path d="m162.387,235.785c.02-.538 .253-1.563 .003-1.563 .292,0 .584,0 .877,0 1.25,0 2.5,0 3.75,0 1.19,0 2.38,0 3.57,0 .227,0 .454,0 .682,0-.404,0-.089,1.581-.089,2.143 0,1.158-.531,1.199-1.509,1.199-1.148,0-2.296,0-3.443,0-1.054,0-2.107,0-3.161,0-.995-0-.68-.943-.68-1.779 0-1.935-3-1.935-3,0 0,1.707 .007,3.92 1.971,4.57 1.333,.441 3.036,.209 4.412,.209 3.186,0 8.411,.861 8.411-3.801 0-1.602 .063-5.113-2.203-5.446-1.474-.217-3.009-.095-4.495-.095-1.728,0-3.456,0-5.184,0-2.402,0-2.843,2.712-2.911,4.563-.072,1.936 2.928,1.929 2.999,0z"/>
<path d="m162.711,249.893c.066-1.264-.091-.957 1.205-.957 1.142,0 2.284,0 3.426,0 1.094,0 2.189,0 3.283,0 1.32,0 .88,.279 .88,1.647 0,.772-3.959,.442-4.491,.442-1.068,0-2.137,0-3.205,0-.98,0-1.098-.057-1.098-1.132 0-1.935-3-1.935-3,0 0,1.956 .472,3.949 2.794,4.105 1.495,.102 3.013,.027 4.509,.027 3.26,0 7.491,.578 7.491-3.892 0-1.825-.63-4.198-2.88-4.198-1.428,0-2.855,0-4.283,0-1.573,0-3.146,0-4.719,0-2.192,0-2.817,2.158-2.912,3.957-.101,1.935 2.899,1.925 3,.001z"/>
<path d="m162.387,228.535c.066-1.265-.093-.958 1.205-.958 1.142,0 2.284,0 3.426,0 1.094,0 2.188,0 3.283,0 1.32,0 .88,.279 .88,1.647 0,.772-3.959,.442-4.491,.442-1.068,0-2.137,0-3.205,0-.98,.001-1.098-.057-1.098-1.131 0-1.935-3-1.935-3,0 0,1.955 .472,3.949 2.793,4.104 1.495,.101 3.013,.027 4.509,.027 3.259,0 7.491,.579 7.491-3.891 0-1.825-.63-4.199-2.88-4.199-1.428,0-2.855,0-4.283,0-1.573,0-3.146,0-4.719,0-2.192,0-2.817,2.159-2.911,3.958-.101,1.936 2.899,1.926 3,.001z"/>
<path d="m279.576,197.512c-.428,4.832-6.022,3.849-9.214,3.849-4.726,0-9.451,0-14.177,0s-9.451,0-14.177,0c-3.225,0-9.214,.996-9.214-4.165 0-4.932 7.21-3.915 10.832-3.915 4.146,0 8.29,0 12.436,0 4.649,0 9.299,0 13.947,0 3.775-.001 9.567-.953 9.567,4.231 0,1.935 3,1.935 3,0 0-6.477-4.304-7.231-10.11-7.231-5.136,0-10.272,0-15.408,0-4.819,0-9.638,0-14.456,0s-12.807-.319-12.807,6.218c0,5.514 3.194,7.862 8.466,7.862 5.646,0 11.293,0 16.939,0 6.024,0 12.049,0 18.073,0 4.942,0 8.811-1.281 9.303-6.849 .171-1.928-2.831-1.911-3,0z"/>
<path d="m234.166,182.445c.427-4.832 6.021-3.848 9.212-3.848 4.726,0 9.451,0 14.177,0s9.451,0 14.177,0c3.225,0 9.214-.997 9.214,4.165 0,4.932-7.21,3.914-10.832,3.914-4.146,0-8.29,0-12.436,0-4.648,0-9.298,0-13.946,0-3.775,0-9.566,.953-9.566-4.231 0-1.935-3-1.935-3,0 0,6.477 4.303,7.23 10.109,7.23 5.136,0 10.271,0 15.408,0 4.818,0 9.637,0 14.455,0s12.807,.32 12.807-6.217c0-5.515-3.193-7.862-8.466-7.862-5.646,0-11.293,0-16.939,0-6.024,0-12.049,0-18.073,0-4.942,0-8.809,1.281-9.301,6.848-.17,1.929 2.831,1.912 3,.001z"/>
<path d="m232.795,207.092c.463-3.65 6.678-2.792 9.214-2.792 4.726,0 9.451,0 14.177,0s9.451,0 14.177,0c2.661,0 9.214-.886 9.214,3.214 0,3.656-8.035,2.677-10.832,2.677-4.146,0-8.29,0-12.436,0-4.649,0-9.299,0-13.947,0-3.305-.001-9.567,1.186-9.567-3.099 0-1.935-3-1.935-3,0 0,6.072 5.206,6.099 10.238,6.099 5.094,0 10.188,0 15.28,0 4.805,0 9.608,0 14.412,0 4.616,0 12.851,.693 12.851-5.677 0-5.19-4.554-6.214-8.858-6.214-5.516,0-11.031,0-16.547,0-5.86,0-11.72,0-17.58,0-4.533,0-9.113,.408-9.796,5.792-.243,1.916 2.76,1.892 3,0z"/>
<path d="m232.795,169.78c.463-3.65 6.678-2.792 9.214-2.792 4.726,0 9.451,0 14.177,0s9.451,0 14.177,0c2.661,0 9.214-.886 9.214,3.214 0,3.657-8.035,2.678-10.832,2.678-4.146,0-8.29,0-12.436,0-4.649,0-9.299,0-13.947,0-3.305,0-9.567,1.186-9.567-3.1 0-1.935-3-1.935-3,0 0,6.072 5.206,6.1 10.238,6.1 5.094,0 10.188,0 15.28,0 4.805,0 9.608,0 14.412,0 4.616,0 12.851,.692 12.851-5.678 0-5.19-4.554-6.214-8.858-6.214-5.516,0-11.031,0-16.547,0-5.86,0-11.72,0-17.58,0-4.533,0-9.113,.409-9.796,5.792-.243,1.916 2.76,1.892 3,0z"/>
<path d="m211.771,274.799c-.493,5.509-6.955,4.326-10.813,4.326-1.66,0-3.201,.158-4.778-.591-2.428-1.152-2.143-4.063-2.143-6.241 0-5.508 7.275-4.326 10.812-4.326 1.66,0 3.202-.158 4.779,.591 2.429,1.152 2.143,4.062 2.143,6.241 0,1.935 3,1.935 3,0 0-6.848-3.186-9.832-9.922-9.832-5.993,0-13.106-.535-13.812,7.326-.616,6.877 3.613,9.832 9.921,9.832 5.994,0 13.108,.536 13.813-7.326 .173-1.928-2.829-1.911-3,0z"/>
<path d="m193.639,185.373c4.007-4.852 7.203,1.721 7.408,5.618 .217,4.116 .426,8.233 .63,12.352 .26,5.235 .507,10.471 .723,15.708 .099,2.409 1.541,10.585-.602,11.801 .752,.432 1.505,.863 2.257,1.295-.251-8.575-.697-17.157-.8-25.736-.367,.482-.734,.965-1.101,1.447 .001-.001 .002-.001 .003-.001-.634-.482-1.267-.965-1.899-1.446 .4,7.066 .376,14.18 .551,21.254 .103,4.13 .203,8.26 .304,12.39 .021,.88 .043,1.759 .064,2.638 .05,2.04 .557,1.537-1.214,1.887-.872,.172-1.744,.345-2.615,.517-1.897,.374-1.092,3.266 .797,2.893 3.908-.771 6.144-.733 6.029-5.403-.082-3.375-.164-6.749-.247-10.123-.213-8.671-.179-17.391-.669-26.051-.057-1.002-.911-1.667-1.898-1.446-.001,0-.002,0-.003,0-.642,.144-1.109,.806-1.102,1.446 .103,8.579 .549,17.161 .8,25.736 .033,1.138 1.248,1.867 2.257,1.295 4.093-2.321 2.317-8.265 2.169-12.32-.273-7.472-.658-14.939-1.035-22.406-.188-3.737 .479-9.368-1.444-12.821-2.833-5.085-7.096-7.955-11.483-2.642-1.223,1.476 .886,3.611 2.12,2.118z"/>
<path d="m207.564,181.167c.641,.182 .2-.212 .063-.791-.232-.992-.277-2.033-.348-3.046-.144-2.061-.117-4.139-.025-6.201-1,0-2,0-3,0 0,.208 0,.417 0,.625 0,1.944 2.905,1.921 3,0 .02-.405 .001-2.694 .758-2.897-.633-.482-1.266-.964-1.898-1.446 0,.012 0,.025 0,.037 0,.687 .462,1.243 1.102,1.446 .839,.267 .677,3.303 .626,4.013-.139,1.931 2.862,1.918 3,0 .167-2.321-.189-6.068-2.829-6.906 .367,.482 .734,.964 1.102,1.446 0-.012 0-.025 0-.037 0-.979-.957-1.7-1.898-1.446-2.476,.665-2.854,3.608-2.961,5.79 1,0 2,0 3,0 0-.208 0-.417 0-.625 0-1.943-2.914-1.923-3,0-.121,2.717-1.221,11.873 2.513,12.931 1.864,.528 2.654-2.367 .795-2.893z"/>
<path d="m182.982,183.847c-.173-.096-.347-.191-.521-.288-.482-.366-.964-.733-1.446-1.101 1.627,4.071 1.677,7.6 1.836,11.957 .257,7.027 .513,14.056 .758,21.083 .155,4.43 .33,8.858 .49,13.288 .059,1.605 1.593,13.343 .095,14.114 .684,.179 1.368,.358 2.052,.538-.555-1.085-.3-5.392-.37-7.16-.194-4.888-.315-9.779-.438-14.669-.11-4.357-.205-8.715-.32-13.072-.033-1.224 .426-4.214-.896-4.985-.763-.445-2.053-.08-2.203,.896-.778,5.048 .11,10.783 .228,15.865 .026,1.154 1.388,18.757-1.046,18.387-1.892-.288-2.705,2.603-.798,2.893 7.271,1.107 5.135-9.052 5.029-13.428-.118-4.895-.232-9.789-.34-14.685-.051-2.336-.423-6.664-.181-8.234-.734,.299-1.469,.598-2.203,.896-1.229-.718-.701-1.22-.637,.805 .053,1.665 .091,3.33 .132,4.994 .11,4.505 .214,9.01 .333,13.514 .115,4.357 .241,8.714 .434,13.067 .084,1.897-.213,4.672 .687,6.43 .386,.756 1.358,.896 2.052,.538 3.222-1.658 1.648-8.958 1.565-11.625-.163-5.222-.394-10.441-.57-15.662-.258-7.607-.538-15.214-.816-22.82-.18-4.933-.143-9.131-1.979-13.723-.277-.693-.71-1.009-1.446-1.101-.094-.012-.188-.023-.282-.036-.47-.059-1.1,.319-1.295,.743-.164,.355-.328,.711-.492,1.066-.807,1.745 1.779,3.27 2.588,1.515z"/>
<path d="m187.766,184.207c1.121-2.029 1.916,3.77 1.951,4.854 .082,2.553 .165,5.106 .246,7.659 .231,7.192 .461,14.385 .683,21.577 .138,4.473 .5,8.852 .931,13.306 .18,1.86 2.548,14.434 1.038,15.317 .684,.179 1.368,.358 2.052,.538-.516-1.063-.43-5.056-.551-6.805-.332-4.774-.598-9.554-.866-14.332-.259-4.588-.505-9.175-.772-13.762-.11-1.889 .138-4.367-.479-6.191-.359-1.061-1.667-1.482-2.507-.661-.961,.938-.458,3.459-.44,4.595 .072,4.658 .171,9.316 .266,13.975 .093,4.545 .188,9.089 .286,13.634 .028,1.354 .058,2.708 .087,4.063 .004,.192 .009,.384 .013,.576 1.158,1.139 1.168,1.638 .026,1.497-.959,.074-1.89-.076-2.792-.451-1.839-.617-2.621,2.28-.797,2.893 4.225,1.418 6.659,.516 6.56-4.086-.075-3.426-.147-6.852-.22-10.277-.116-5.5-.229-11-.334-16.501-.038-1.972-.073-3.943-.104-5.916-.009-.616-.017-1.233-.023-1.851-.011-1.136 .293-.71-.405-.028-.836-.221-1.672-.441-2.507-.662 .477,1.409 .343,4.883 .455,6.829 .274,4.746 .528,9.492 .797,14.238 .263,4.629 .531,9.258 .861,13.882 .147,2.066-.074,4.937 .858,6.856 .356,.735 1.388,.927 2.052,.538 1.579-.924 1.737-2.781 1.643-4.419-.222-3.834-.638-7.662-1.002-11.484-.625-6.564-1.051-13.01-1.257-19.603-.259-8.314-.526-16.629-.795-24.943-.07-2.163-.008-4.451-.994-6.43-1.628-3.269-4.994-2.751-6.547,.062-.94,1.694 1.651,3.206 2.587,1.513z"/>
<path d="m198.524,181.167c.641,.182 .2-.212 .063-.791-.233-.992-.278-2.033-.349-3.046-.144-2.061-.117-4.139-.024-6.201-1,0-2,0-3,0 0,.208 0,.417 0,.625 0,1.944 2.905,1.921 3,0 .02-.405 .001-2.694 .758-2.897-.633-.482-1.266-.964-1.898-1.446 0,.012 0,.025 0,.037 0,.687 .462,1.243 1.102,1.446 .839,.267 .677,3.303 .625,4.013-.14,1.931 2.861,1.918 3,0 .168-2.32-.188-6.068-2.828-6.906 .367,.482 .734,.964 1.102,1.446 0-.012 0-.025 0-.037 0-.979-.957-1.7-1.898-1.446-2.476,.665-2.854,3.608-2.961,5.79 1,0 2,0 3,0 0-.208 0-.417 0-.625 0-1.943-2.914-1.923-3,0-.122,2.717-1.222,11.873 2.513,12.931 1.864,.528 2.654-2.367 .795-2.893z"/>
<path d="m187.592,181.167c.641,.181 .199-.212 .063-.791-.233-.992-.278-2.033-.349-3.046-.144-2.061-.117-4.139-.025-6.201-1,0-2,0-3,0 0,.208 0,.417 0,.625 0,1.944 2.905,1.921 3,0 .02-.406 .001-2.694 .759-2.897-.633-.482-1.266-.964-1.898-1.446 0,.012 0,.025 0,.037 0,.687 .462,1.243 1.102,1.446 .838,.266 .677,3.304 .626,4.013-.139,1.932 2.862,1.918 3,0 .166-2.32-.189-6.067-2.829-6.906 .367,.482 .734,.964 1.102,1.446 0-.012 0-.025 0-.037 0-.98-.957-1.699-1.898-1.446-2.476,.665-2.854,3.607-2.962,5.79 1,0 2,0 3,0 0-.208 0-.417 0-.625 0-1.943-2.914-1.923-3,0-.121,2.717-1.221,11.874 2.514,12.931 1.863,.528 2.653-2.367 .795-2.893z"/>
<path d="m185.646,184.711c-.081,.354-.776,.828-.581,.775 .306-.082 .136-.04 .369-.065 .458-.05 .92-.059 1.38-.062s.92,.021 1.379,.062c.545,.049-.227-.049 .238,.036 .083,.017 .166,.037 .247,.061-.346-.132-.579-.4-.697-.807 .433,1.886 3.325,1.086 2.893-.797-.373-1.627-2.788-1.547-4.06-1.555-1.27-.008-3.689-.061-4.061,1.555-.432,1.883 2.461,2.683 2.893,.797z"/>
<path d="m214.256,145.711c-.517,4.172-14.47,2.282-16.682,2.282-2.251,0-16.683,1.871-16.683-2.653 0-3.354 14.762-2.181 17.187-2.181 3.172,0 6.345,0 9.517,0 2.452-0 6.661-.798 6.661,2.552 0,1.935 3,1.935 3,0 0-8.055-12.703-5.553-18.185-5.553-4.288,0-21.18-2.313-21.18,4.491 0,9.042 12.646,6.343 18.69,6.343 4.61,0 9.221,0 13.831,0 3.798,0 6.349-1.28 6.844-5.282 .237-1.916-2.766-1.893-3,.001z"/>
<path d="m181.893,135.058c.516-4.172 14.47-2.282 16.682-2.282 2.252,0 16.684-1.871 16.684,2.654 0,3.353-14.763,2.18-17.188,2.18-3.172,0-6.344,0-9.516,0-2.452,0-6.662,.798-6.662-2.552 0-1.935-3-1.935-3,0 0,8.054 12.705,5.552 18.186,5.552 4.287,0 21.18,2.313 21.18-4.49 0-9.043-12.645-6.344-18.689-6.344-4.61,0-9.221,0-13.831,0-3.798,0-6.35,1.28-6.845,5.282-.239,1.917 2.763,1.894 2.999,0z"/>
<path d="m181.839,126.501c.697-3.72 14.66-1.933 16.735-1.933 1.607,0 16.684-1.598 16.684,2.109 0,1.838-15.925,1.177-17.188,1.177-3.172,0-6.344,0-9.516,0-2.008,0-6.662,.806-6.662-1.752 0-1.935-3-1.935-3,0 0,7.244 14.374,4.752 19.178,4.752 3.492,0 20.188,1.961 20.188-3.602 0-8.154-12.289-5.685-17.7-5.685-4.615,0-9.231,0-13.847,0-3.385,0-7.015,.134-7.765,4.135-.355,1.892 2.536,2.699 2.893,.799z"/>
<path d="m233.311,116.417c.176-2.593 1.061-2.077 2.802-2.077 1.816,0 3.632,0 5.447,0 1.74,0 3.48,0 5.222,0 2.017,0 2.285,.897 2.285,3.081 0,2.075-7.801,1.328-8.762,1.328-2.459-0-6.994,1.035-6.994-2.332 0-1.935-3-1.935-3,0 0,6.347 5.188,5.332 9.994,5.332 3.773,0 11.762,1.398 11.762-4.328 0-2.484-.308-5.589-3.297-6.027-2.09-.307-4.365-.054-6.471-.054-2.699,0-5.398,0-8.098,0-2.933,0-3.724,2.612-3.891,5.077-.13,1.932 2.871,1.919 3.001,0z"/>
<path d="m248.551,126.492c-.175,2.594-1.061,2.077-2.802,2.077-1.816,0-3.632,0-5.447,0-1.74,0-3.48,0-5.222,0-2.017,0-2.285-.897-2.285-3.081 0-2.074 7.801-1.328 8.761-1.328 2.458-0 6.995-1.035 6.995,2.332 0,1.935 3,1.935 3,0 0-6.346-5.19-5.332-9.995-5.332-3.771,0-11.761-1.397-11.761,4.328 0,2.484 .307,5.589 3.297,6.027 2.09,.307 4.365,.054 6.471,.054 2.699,0 5.398,0 8.098,0 2.934,0 3.725-2.612 3.891-5.077 .13-1.932-2.871-1.92-3.001-0z"/>
<path d="m248.551,134.962c-.256,2.501-6.552,1.371-8.249,1.371-2.45,0-7.507,1.293-7.507-2.177 0-1.235 7.351-.77 8.026-.77 1.691,0 7.73-.932 7.73,1.576 0,1.935 3,1.935 3,0 0-5.759-5.825-4.576-9.995-4.576-3.321,0-11.761-1.416-11.761,3.77 0,6.225 5.174,5.177 9.768,5.177 4.5,0 11.367,1.698 11.988-4.371 .197-1.924-2.805-1.905-3,0z"/>
<path d="m259.571,117.815c.175-2.593 1.063-2.077 2.803-2.077 1.815,0 3.631,0 5.446,0 1.74,0 3.48,0 5.221,0 2.017,0 2.286,.898 2.286,3.081 0,2.076-7.801,1.329-8.762,1.328-2.46,0-6.994,1.036-6.994-2.332 0-1.935-3-1.935-3,0 0,6.347 5.188,5.333 9.994,5.333 3.772,0 11.762,1.398 11.762-4.328 0-2.484-.308-5.589-3.298-6.027-2.09-.307-4.364-.054-6.47-.054-2.699,0-5.397,0-8.097,0-2.934,0-3.725,2.611-3.892,5.077-.13,1.931 2.871,1.918 3.001-.001z"/>
<path d="m274.811,126.521c-.175,2.594-1.061,2.077-2.802,2.077-1.815,0-3.632,0-5.447,0-1.74,0-3.48,0-5.221,0-2.018,0-2.285-.898-2.285-3.082 0-2.075 7.8-1.328 8.761-1.328 2.458-0 6.994-1.036 6.994,2.333 0,1.935 3,1.935 3,0 0-6.347-5.188-5.333-9.994-5.333-3.772,0-11.761-1.397-11.761,4.328 0,2.484 .307,5.59 3.297,6.028 2.09,.307 4.364,.054 6.47,.054 2.699,0 5.398,0 8.098,0 2.934,0 3.725-2.612 3.891-5.077 .129-1.933-2.872-1.92-3.001-0z"/>
<path d="m274.811,134.991c-.256,2.5-6.553,1.37-8.249,1.37-2.449,0-7.506,1.293-7.506-2.176 0-1.235 7.35-.77 8.025-.77 1.691-0 7.73-.934 7.73,1.576 0,1.935 3,1.935 3,0 0-5.759-5.824-4.576-9.994-4.576-3.322,0-11.761-1.416-11.761,3.77 0,6.224 5.174,5.176 9.767,5.176 4.5,0 11.368,1.698 11.988-4.37 .197-1.925-2.805-1.906-3,0z"/>
<path d="m161.709,128.191c.106-2.234 .271-2.077 2.074-2.077 1.712,0 3.425,0 5.138,0 1.367,0 2.734,0 4.101,0 1.714,0 1.265,1.811 1.265,3.221 0,1.91-5.859,1.188-7.022,1.188-1.392,0-2.783,0-4.174,0-1.565,0-1.382-1.021-1.382-2.332 0-1.935-3-1.935-3,0 0,2.27 .143,4.258 2.492,5.176 1.476,.578 3.942,.156 5.458,.156 3.604,0 10.627,1.24 10.627-4.188 0-1.831 .05-5.722-2.506-6.104-1.918-.287-3.926-.116-5.86-.116-2.242,0-4.483,0-6.725,0-2.795,0-3.379,2.822-3.486,5.077-.092,1.934 2.909,1.925 3-.001z"/>
<path d="m173.858,138.267c-.106,2.234-.271,2.077-2.073,2.077-1.712,0-3.425,0-5.138,0-1.367,0-2.734,0-4.101,0-1.715,0-1.265-1.812-1.265-3.222 0-1.908 5.86-1.188 7.021-1.188 1.392,0 2.783,0 4.174,0 1.566,0 1.382,1.022 1.382,2.333 0,1.935 3,1.935 3,0 0-2.27-.143-4.257-2.492-5.176-1.477-.578-3.941-.156-5.458-.156-3.603,0-10.627-1.24-10.627,4.188 0,1.831-.051,5.723 2.506,6.105 1.918,.287 3.926,.116 5.86,.116 2.242,0 4.484,0 6.726,0 2.795,0 3.378-2.823 3.486-5.077 .092-1.935-2.909-1.926-3.001,0z"/>
<path d="m173.858,146.736c-.125,1.794-.739,1.37-2.073,1.37-1.508,0-3.016,0-4.524,0-1.445,0-2.891,0-4.336,0-1.574,0-1.644-.479-1.644-2.176 0-1.262 6.47-.77 7.021-.77 1.313,0 2.625,0 3.938,0 1.239,.001 1.618,.319 1.618,1.576 0,1.935 3,1.935 3,0 0-5.387-4.508-4.576-8.556-4.576-3.249,0-10.021-1.146-10.021,3.77 0,2.151 .359,4.759 2.924,5.122 1.766,.25 3.664,.054 5.442,.054 4.279,0 9.809,1.385 10.211-4.37 .135-1.931-2.865-1.918-3-0z"/>
<path d="m258.423,282.586c-.141-3.219-.282-6.438-.423-9.657-.084-1.927-3.085-1.935-3,0 .141,3.219 .282,6.438 .423,9.657 .084,1.927 3.085,1.935 3,0z"/>
<path d="m256.854,266.601c-.017,2.035 .256,4.476-1.625,5.763-1.289,.882-2.414,1.176-3.356,2.479-1.056,1.461-1.534,3.472-2.295,5.085-1.23,2.609-3.059,2.482-5.617,2.294-1.931-.143-1.917,2.858 0,3 2.437,.18 4.442,.403 6.408-1.195 1.883-1.532 2.586-4.475 3.524-6.6 .912-2.064 3.311-2.247 4.604-4.03 1.41-1.943 1.339-4.5 1.357-6.796 .015-1.936-2.985-1.934-3,0z"/>
<path d="m256.904,266.574c-1.479,4.097-1.727-2.674-4.635-.849-2.048,1.287-3.001,4.429-4.061,6.461-.869,1.669-1.813,3.321-3.041,4.755-.927,1.083-2.227,1.558-2.801,2.935-.758,1.818-1.135,5.944 1.991,5.292 1.894-.395 1.091-3.286-.797-2.893-.096,.02-.191,.04-.287,.06 .486,.129 .974,.257 1.46,.386-.771-.653 3.791-5.204 4.344-6.029 1.544-2.307 2.62-4.893 3.969-7.311 .192-.345 .398-.694 .654-.997-.398-.008-.797-.016-1.195-.023 .104,.438 .225,.872 .362,1.302 .294,.999 1.092,1.979 2.123,2.263 2.659,.731 4.12-2.654 4.806-4.554 .659-1.825-2.24-2.603-2.892-.798z"/>
<path d="m258.423,282.586c.361-4.056 .724-8.111 1.085-12.167 .172-1.928-2.83-1.911-3,0-.361,4.056-.724,8.111-1.085,12.167-.172,1.928 2.829,1.911 3,0z"/>
<path d="m244.408,282.13c-.142-3.219-.282-6.438-.424-9.657-.085-1.927-3.085-1.935-3,0 .142,3.219 .282,6.438 .424,9.657 .085,1.927 3.085,1.934 3,0z"/>
<path d="m242.838,266.145c-.017,2.035 .256,4.477-1.624,5.763-1.29,.883-2.415,1.177-3.356,2.479-1.056,1.461-1.534,3.472-2.296,5.085-1.23,2.609-3.059,2.481-5.617,2.293-1.931-.143-1.917,2.858 0,3 2.437,.18 4.442,.404 6.408-1.195 1.882-1.531 2.586-4.474 3.525-6.599 .912-2.063 3.31-2.247 4.603-4.03 1.41-1.943 1.339-4.5 1.357-6.796 .016-1.936-2.984-1.934-3,0z"/>
<path d="m242.889,266.118c-1.478,4.095-1.729-2.675-4.635-.849-2.048,1.287-3.001,4.428-4.061,6.461-.869,1.669-1.814,3.321-3.041,4.755-.927,1.082-2.227,1.557-2.801,2.934-.757,1.814-1.135,5.949 1.991,5.292 1.894-.397 1.09-3.289-.797-2.893-.096,.02-.191,.04-.287,.061 .486,.128 .974,.257 1.46,.386-.771-.653 3.791-5.204 4.344-6.03 1.544-2.306 2.62-4.892 3.969-7.31 .192-.346 .398-.694 .654-.997-.398-.008-.797-.017-1.195-.024 .104,.438 .225,.873 .362,1.302 .293,1 1.092,1.979 2.123,2.264 2.659,.73 4.12-2.653 4.806-4.554 .658-1.825-2.241-2.603-2.892-.798z"/>
<path d="m244.408,282.13c.361-4.056 .724-8.111 1.085-12.167 .172-1.928-2.829-1.911-3,0-.361,4.056-.724,8.111-1.085,12.167-.172,1.928 2.83,1.911 3,0z"/>
<path d="m280.138,281.095c-.063-3.885-.124-7.77-.187-11.654-.031-1.933-3.031-1.936-3,0 .063,3.885 .124,7.77 .187,11.654 .031,1.932 3.031,1.935 3,0z"/>
<path d="m278.32,248.52c-.029,6.481-.206,13.096-1.27,19.499-.32,1.928-3.06,13.092-3.583,12.999-1.891-.337-2.699,2.554-.797,2.893 6.276,1.119 4.948-8.483 6.537-12.39 2.741-6.741 2.08-15.864 2.112-23.001 .01-1.935-2.99-1.935-2.999,0z"/>
<path d="m280.219,247.073c-2.125-.398-4.389-.312-4.671,2.341-.422,3.963-.284,8.008-.668,11.992-.443,4.6-1.008,9.303-2.37,13.734-.8,2.605-1.907,4.906-1.166,7.766 .202,.784 1.068,1.272 1.845,1.048 .051-.015 .102-.029 .151-.044 1.855-.536 1.065-3.432-.797-2.893-.051,.015-.102,.029-.152,.044 .615,.349 1.23,.698 1.846,1.048-.566-2.188 .456-4.191 1.166-6.171 1.06-2.951 1.425-6.22 1.858-9.307 .402-2.865 .688-5.745 .921-8.629 .105-1.319-.192-8.306 1.24-8.037 1.891,.355 2.697-2.535 .797-2.892z"/>
<path d="m280.138,281.866c.159-5.152 .317-10.304 .477-15.456 .06-1.936-2.94-1.93-3,0-.159,5.152-.317,10.304-.477,15.456-.06,1.936 2.94,1.93 3,0z"/>
<path d="m270.383,280.313c-.073-3.886-.147-7.771-.221-11.656-.036-1.933-3.037-1.936-3,0 .073,3.886 .147,7.771 .221,11.656 .036,1.933 3.037,1.936 3,0z"/>
<path d="m268.787,247.737c-.034,6.479-.261,13.13-1.518,19.499-.345,1.749-1.335,3.102-1.781,4.804-.461,1.757-.67,8.563-2.82,8.196-1.892-.322-2.701,2.568-.797,2.893 7.224,1.229 4.484-8.134 7.268-12.031 1.623-2.273 1.585-6.255 1.885-8.917 .54-4.785 .738-9.63 .764-14.443 .009-1.935-2.991-1.934-3.001-.001z"/>
<path d="m270.686,246.291c-7.556-1.228-5.311,8.017-5.851,13.162-.498,4.743-1.218,9.565-2.672,14.12-.921,2.887-2.673,5.298-1.673,8.552 .246,.8 1.033,1.244 1.846,1.048 .06-.015 .12-.029 .18-.044 1.88-.454 1.083-3.348-.797-2.893-.061,.015-.12,.029-.181,.044 .615,.349 1.23,.698 1.845,1.047-.714-2.323 .647-4.145 1.387-6.17 1.098-3.008 1.682-6.158 2.207-9.309 .477-2.858 .807-5.744 1.083-8.629 .158-1.656-.452-8.406 1.829-8.036 1.891,.308 2.703-2.582 .797-2.892z"/>
<path d="m270.383,281.085c.188-5.152 .378-10.305 .566-15.457 .071-1.936-2.93-1.929-3,0-.188,5.152-.378,10.305-.566,15.457-.071,1.936 2.93,1.929 3,0z"/>
<path d="m184.455,282.362c-.063-1.359-.124-2.72-.187-4.079-.088-1.927-3.089-1.935-3,0 .063,1.359 .124,2.72 .187,4.079 .088,1.927 3.089,1.935 3,0z"/>
<path d="m182.637,270.96c-.035,2.151-.233,4.628-1.306,6.538-.338,.604-1.092,.95-1.457,1.634-.715,1.343-.703,2.339-2.488,2.211-1.931-.139-1.918,2.862 0,3 1.481,.106 2.607,.07 3.679-1.052 1.002-1.049 1.236-2.519 2.134-3.404 2.147-2.118 2.392-6.087 2.438-8.927 .031-1.936-2.969-1.933-3,0z"/>
<path d="m184.137,269.46c-1.352-.096-3.049-.332-3.959,.914-.704,.963-.43,2.597-.675,3.727-.402,1.862-1.083,3.917-2.38,5.351-1.002,1.106-2.148,2.057-1.5,3.775 .253,.672 .724,1.047 1.446,1.102 .064,.005 .127,.01 .191,.015 1.931,.147 1.916-2.854 0-3-.063-.005-.127-.01-.191-.015 .482,.367 .964,.734 1.447,1.102-.097-.258 1.657-2.022 1.88-2.365 .699-1.072 1.147-2.352 1.553-3.556 .367-1.084 .637-2.234 .751-3.374 .046-.457 .046-.907 .056-1.366-.656,.547-.648,.752 .023,.614 .453,.012 .905,.038 1.357,.077 1.932,.135 1.919-2.866 .001-3.001z"/>
<path d="m184.455,282.633c.159-1.804 .317-3.607 .477-5.411 .17-1.928-2.832-1.911-3,0-.159,1.804-.317,3.607-.477,5.411-.17,1.928 2.832,1.911 3,0z"/>
<path d="m174.7,282.089c-.074-1.359-.147-2.72-.221-4.079-.104-1.924-3.104-1.934-3,0 .074,1.359 .147,2.72 .221,4.079 .104,1.924 3.104,1.933 3,0z"/>
<path d="m173.104,270.687c-.034,1.748-.156,5.8-1.953,6.74-.716,.374-1.142,1.03-1.521,1.717-.243,.44-.455,.896-.701,1.335-.497,.889-1.481,.643-2.343,.591-1.933-.117-1.922,2.884 0,3 1.631,.099 2.817,.089 4.104-.981 1.152-.958 1.443-2.512 2.602-3.475 2.36-1.961 2.758-6.07 2.813-8.927 .037-1.936-2.963-1.932-3.001,0z"/>
<path d="m174.604,269.187c-1.397-.085-3.25-.384-4.341,.732-.876,.896-.575,2.644-.858,3.782-.475,1.913-1.399,4.342-3.047,5.552-1.399,1.028-2.232,2.298-1.446,4.059 .218,.489 .805,.712 1.295,.743 .076,.005 .151,.01 .227,.015 1.933,.124 1.92-2.876 0-3-.076-.005-.151-.01-.227-.015 .432,.248 .864,.495 1.295,.743 .256,.574 2.194-1.699 2.329-1.892 .85-1.209 1.455-2.518 1.985-3.893 .439-1.141 .705-2.326 .845-3.537 .136-1.188 .083-.416-.423-.349 .768-.102 1.599,.012 2.366,.059 1.934,.118 1.922-2.882 0-2.999z"/>
<path d="m174.7,282.358c.189-1.803 .378-3.606 .567-5.409 .202-1.923-2.8-1.904-3,0-.189,1.803-.378,3.606-.567,5.409-.202,1.923 2.8,1.905 3,0z"/>
<path d="m213.816,116.499c-.517,4.171-14.472,2.282-16.683,2.282-2.252,0-16.682,1.871-16.682-2.653 0-3.354 14.762-2.181 17.187-2.181 3.172,0 6.345,0 9.517,0 2.452-.001 6.661-.799 6.661,2.552 0,1.935 3,1.935 3,0 0-8.055-12.703-5.553-18.185-5.553-4.288,0-21.18-2.313-21.18,4.491 0,9.042 12.644,6.343 18.688,6.343 4.61,0 9.221,0 13.831,0 3.798,0 6.351-1.279 6.846-5.282 .238-1.916-2.765-1.893-3,.001z"/>
<path d="m181.452,105.846c.517-4.172 14.472-2.282 16.683-2.282 2.253,0 16.683-1.871 16.683,2.654 0,3.353-14.762,2.18-17.186,2.18-3.173,0-6.345,0-9.517,0-2.452-.001-6.663,.798-6.663-2.552 0-1.935-3-1.935-3,0 0,8.054 12.705,5.552 18.187,5.552 4.287,0 21.179,2.313 21.179-4.49 0-9.043-12.643-6.344-18.688-6.344-4.61,0-9.221,0-13.831,0-3.798,0-6.351,1.28-6.846,5.282-.238,1.917 2.765,1.894 2.999,0z"/>
<path d="m181.398,97.289c.697-3.72 14.662-1.933 16.736-1.933 1.608,0 16.683-1.598 16.683,2.109 0,1.839-15.924,1.177-17.186,1.177-3.173,0-6.345,0-9.517,0-2.008,0-6.663,.806-6.663-1.752 0-1.935-3-1.935-3,0 0,7.244 14.374,4.752 19.18,4.752 3.492,0 20.186,1.961 20.186-3.602 0-8.154-12.288-5.685-17.698-5.685-4.616,0-9.232,0-13.848,0-3.385,0-7.016,.134-7.766,4.135-.354,1.891 2.537,2.698 2.893,.799z"/>
<path d="m84.09,162.94c8.917,1.522 17.833,3.045 26.749,4.567 4.414,.753 6.304-5.991 1.861-6.75-8.917-1.522-17.833-3.045-26.749-4.567-4.414-.753-6.304,5.991-1.861,6.75z"/>
<path d="m84.364,172.556c8.917,1.522 17.833,3.045 26.749,4.567 4.414,.754 6.304-5.991 1.861-6.75-8.917-1.522-17.833-3.045-26.749-4.567-4.413-.754-6.304,5.991-1.861,6.75z"/>
<path d="m84.364,181.896c8.917,1.523 17.833,3.046 26.749,4.568 4.414,.754 6.304-5.991 1.861-6.75-8.917-1.522-17.833-3.045-26.749-4.568-4.413-.753-6.304,5.993-1.861,6.75z"/>
<path d="m90.058,191.868c5.004,.854 10.008,1.709 15.012,2.563 4.414,.754 6.304-5.991 1.861-6.75-5.004-.854-10.008-1.709-15.012-2.563-4.414-.754-6.304,5.991-1.861,6.75z"/>
</g>
<path fill="none"  stroke="#000" stroke-width="10" d="M121.034,137c0,7.544-6.116,13.66-13.66,13.66    H89.16c-7.544,0-13.66-6.116-13.66-13.66V88.431c0-7.544,6.116-13.66,13.66-13.66h18.213c7.544,0,13.66,6.116,13.66,13.66V137z"/>
</svg>
