<svg xmlns="http://www.w3.org/2000/svg" viewBox="20 20 321 321">
<g fill="#000">
<path d="m84.09,162.513c8.917,1.522 17.833,3.045 26.749,4.567 4.414,.754 6.304-5.991 1.861-6.75-8.917-1.522-17.833-3.045-26.749-4.567-4.414-.754-6.304,5.991-1.861,6.75z"/>
<path d="m84.364,172.128c8.917,1.522 17.833,3.045 26.749,4.567 4.414,.753 6.304-5.991 1.861-6.75-8.917-1.522-17.833-3.045-26.749-4.567-4.413-.753-6.304,5.992-1.861,6.75z"/>
<path d="m84.364,181.47c8.917,1.522 17.833,3.045 26.749,4.567 4.414,.754 6.304-5.991 1.861-6.75-8.917-1.522-17.833-3.045-26.749-4.567-4.413-.754-6.304,5.991-1.861,6.75z"/>
<path d="m90.058,191.441c5.004,.854 10.008,1.708 15.012,2.563 4.414,.754 6.304-5.991 1.861-6.75-5.004-.854-10.008-1.708-15.012-2.563-4.414-.753-6.304,5.992-1.861,6.75z"/>
</g>
<path fill="none"  stroke="#000" stroke-width="10" d="m121.034,136.573c0,7.544-6.116,13.66-13.66,13.66h-18.214c-7.544,0-13.66-6.116-13.66-13.66v-48.569c0-7.544 6.116-13.66 13.66-13.66h18.213c7.544,0 13.66,6.116 13.66,13.66v48.569z"/>
<g fill="#000">
<path d="m156.801,282.51v9.157h-45.461v-75.551h10.575v66.394h34.886z"/>
<path d="m167.921,291.667v-75.551h46.116v9.049h-35.541v22.458h31.615v8.83h-31.615v26.165h38.266v9.049h-48.841z"/>
<path d="m292.203,253.837c0,6.542-1.019,12.229-3.053,17.062-2.035,4.834-4.905,8.831-8.612,11.992-3.706,3.162-8.141,5.524-13.3,7.086-5.162,1.564-10.831,2.345-17.008,2.345-3.053,0-6.415-.128-10.084-.382-3.671-.256-6.996-.744-9.976-1.472v-73.261c2.979-.727 6.305-1.217 9.976-1.473 3.669-.254 7.031-.381 10.084-.381 6.177,0 11.846,.781 17.008,2.344 5.159,1.563 9.594,3.925 13.3,7.086 3.707,3.162 6.577,7.16 8.612,11.992 2.035,4.834 3.053,10.521 3.053,17.062zm-41.099,29.218c10.029,0 17.514-2.563 22.457-7.686 4.941-5.125 7.414-12.301 7.414-21.532 0-9.229-2.473-16.407-7.414-21.531-4.943-5.124-12.428-7.687-22.457-7.687-2.981,0-5.288,.038-6.924,.109-1.635,.074-2.779,.146-3.434,.219v57.78c.654,.073 1.799,.146 3.434,.218 1.635,.074 3.942,.11 6.924,.11z"/>
</g>
</svg>
