<svg xmlns="http://www.w3.org/2000/svg" viewBox="20 20 321 321">
<g fill="#000">
<path d="m84.09,162.513c8.917,1.522 17.833,3.045 26.749,4.567 4.414,.754 6.304-5.991 1.861-6.75-8.917-1.522-17.833-3.045-26.749-4.567-4.414-.754-6.304,5.991-1.861,6.75z"/>
<path d="m84.364,172.128c8.917,1.522 17.833,3.045 26.749,4.567 4.414,.753 6.304-5.991 1.861-6.75-8.917-1.522-17.833-3.045-26.749-4.567-4.413-.753-6.304,5.992-1.861,6.75z"/>
<path d="m84.364,181.47c8.917,1.522 17.833,3.045 26.749,4.567 4.414,.754 6.304-5.991 1.861-6.75-8.917-1.522-17.833-3.045-26.749-4.567-4.413-.754-6.304,5.991-1.861,6.75z"/>
<path d="m90.058,191.441c5.004,.854 10.008,1.708 15.012,2.563 4.414,.754 6.304-5.991 1.861-6.75-5.004-.854-10.008-1.708-15.012-2.563-4.414-.753-6.304,5.992-1.861,6.75z"/>
</g>
<path fill="none"  stroke="#000" stroke-width="10" d="m121.034,136.573c0,7.544-6.116,13.66-13.66,13.66h-18.214c-7.544,0-13.66-6.116-13.66-13.66v-48.569c0-7.544 6.116-13.66 13.66-13.66h18.213c7.544,0 13.66,6.116 13.66,13.66v48.569z"/>
<g fill="#000">
<path d="m169.429,231.167c-5.582-.59-4.145-7.524-4.145-10.874 0-6.278 0-12.557 0-18.835 0-15.944 0-31.889 0-47.834 0-5.535 0-11.069 0-16.604 0-3.04-.791-7.853 4.554-7.853 9.38,0 18.76,0 28.14,0 27.773,0 55.547,0 83.32,0 2.894,0 6.938,.363 6.938,4.543 0,4.031 0,8.061 0,12.092 0,15.416 0,30.832 0,46.248 0,11.449 0,22.898 0,34.348 0,7.387-15.869,4.77-19.865,4.77-29.504,0-59.008,0-88.511,0-3.478-.001-6.954-.001-10.431-.001-1.935,0-1.935,3 0,3 23.735,0 47.47,0 71.206,0 12.77,0 25.538,0 38.308,0 2.682,0 5.452,.265 8.029-.58 4.125-1.352 4.264-5.506 4.264-9.042 0-27.579 0-55.158 0-82.737 0-6.774 1.316-15.641-8.263-15.641-10.336,0-20.671,0-31.007,0-26.979,0-53.96,0-80.94,0-4.496,0-8.126,1.778-8.742,6.676-.314,2.504 0,5.251 0,7.768 0,14.517 0,29.034 0,43.551 0,11.454 0,22.909 0,34.364 0,6.354-1.509,14.727 7.145,15.641 1.923,.203 1.904-2.799-0-3z"/>
<path d="m176.068,187.147c8.729-6.228 17.459-12.457 26.188-18.685 1.561-1.113 .064-3.717-1.514-2.591-8.729,6.229-17.46,12.457-26.189,18.686-1.559,1.114-.063,3.717 1.515,2.59z"/>
<path d="m174.954,225.605c-5.186-.636-3.601-8.48-3.601-11.629 0-6.782 0-13.564 0-20.347 0-15.29 0-30.579 0-45.869 0-3.434 0-6.867 0-10.3 0-4.301 6.939-3.294 9.202-3.294 13.414,0 26.827,0 40.24,0 15.051,0 30.102,0 45.152,0 3.875,0 7.75,0 11.625,0 4.545,0 4.596,3.702 4.596,6.813 0,26.455 0,52.91 0,79.365 0,7.106-8.944,5.26-13.622,5.26-11.939,0-23.88,0-35.819,0-19.258,.001-38.516,.001-57.773,.001-1.935,0-1.935,3 0,3 24.381,0 48.762,0 73.143,0 10.008,0 20.015,0 30.021,0 9.642,0 7.049-13.236 7.049-19.456 0-15.582 0-31.164 0-46.746 0-6.319 0-12.639 0-18.958 0-3.105 .428-6.354-.901-9.229-1.58-3.417-6.023-3.049-9.122-3.049-5.021,0-10.043,0-15.064,0-15.706,0-31.411,0-47.117,0-11.885,0-23.77,0-35.655,0-4.125,0-8.186,.896-8.901,5.757-.392,2.659-.054,5.579-.054,8.255 0,25.676 0,51.352 0,77.027 0,3.937 3.046,5.964 6.601,6.399 1.917,.236 1.894-2.767 0-3z"/>
<path d="m200.439,168.228c5.944,6 11.889,12 17.833,18 1.363,1.376 3.483-.746 2.121-2.121-5.944-6-11.889-12-17.833-18-1.363-1.377-3.483,.746-2.121,2.121z"/>
<path d="m220.394,186.228c6-4.944 12-9.889 18-14.833 1.494-1.231-.641-3.341-2.121-2.121-6,4.944-12,9.889-18,14.833-1.495,1.231 .64,3.34 2.121,2.121z"/>
<path d="m236.038,171.091c4,7.167 8,14.333 12,21.5 .942,1.689 3.534,.177 2.59-1.514-4-7.167-8-14.334-12-21.501-.942-1.689-3.534-.177-2.59,1.515z"/>
<path d="m250.628,192.591c4.334-6.611 8.667-13.222 13-19.833 1.064-1.624-1.534-3.125-2.59-1.515-4.334,6.611-8.667,13.223-13,19.834-1.064,1.623 1.534,3.124 2.59,1.514z"/>
<path d="m261.272,173.061c4.333,5.355 8.667,10.71 13,16.066 1.217,1.505 3.326-.632 2.121-2.121-4.333-5.355-8.667-10.711-13-16.066-1.216-1.504-3.326,.632-2.121,2.121z"/>
<path d="m244.333,168.667c4.556,0 9.111,0 13.667,0 1.935,0 1.935-3 0-3-4.556,0-9.111,0-13.667,0-1.935,0-1.935,3 0,3z"/>
<path d="m251.166,162.921c8.306,0 16.611,0 24.917,0 1.935,0 1.935-3 0-3-8.306,0-16.611,0-24.917,0-1.935,0-1.935,3 0,3z"/>
<path d="m243.333,157.833c8.111-.056 16.222-.111 24.333-.167 1.934-.013 1.936-3.013 0-3-8.111,.056-16.222,.111-24.333,.167-1.934,.014-1.936,3.014 0,3z"/>
<path d="m248.5,154c10.167,0 20.333,0 30.5,0 1.935,0 1.935-3 0-3-10.167,0-20.333,0-30.5,0-1.935,0-1.935,3 0,3z"/>
<path d="m211.477,159.773c-1.361-1.5-2.722-3-4.083-4.5-1.303-1.436-3.418,.692-2.121,2.121 1.361,1.5 2.722,3 4.083,4.5 1.302,1.436 3.417-.692 2.121-2.121z"/>
<path d="m223.934,156.969c.211-1.868 .422-3.736 .633-5.604 .092-.814-.752-1.5-1.5-1.5-.887,0-1.408,.688-1.5,1.5-.211,1.868-.422,3.736-.633,5.604-.092,.814 .752,1.5 1.5,1.5 .886,0 1.408-.688 1.5-1.5z"/>
<path d="m234.257,164.129c1.556-.667 3.111-1.333 4.666-2 .752-.323 .913-1.414 .538-2.053-.45-.77-1.301-.86-2.052-.538-1.556,.667-3.111,1.333-4.666,2-.752,.323-.913,1.414-.538,2.053 .45,.769 1.301,.86 2.052,.538z"/>
<path d="m209.875,173.52c.711-12.964 19.789-12.964 20.5,0 .105,1.924 3.106,1.934 3,0-.923-16.82-25.577-16.82-26.5,0-.106,1.934 2.895,1.923 3,0z"/>
<path d="m183.833,205.334c3.389,0 6.778,0 10.167,0 1.935,0 1.935-3 0-3-3.389,0-6.778,0-10.167,0-1.935,0-1.935,3 0,3z"/>
<path d="m183.833,209.834c9.111,0 18.222,0 27.333,0 1.935,0 1.935-3 0-3-9.111,0-18.222,0-27.333,0-1.935,0-1.935,3 0,3z"/>
<path d="m191.833,214.834c4.833,0 9.667,0 14.5,0 1.935,0 1.935-3 0-3-4.833,0-9.667,0-14.5,0-1.935,0-1.935,3 0,3z"/>
<path d="m215.333,217c3.809,0 7.618,0 11.427,0 1.935,0 1.935-3 0-3-3.809,0-7.618,0-11.427,0-1.935,0-1.935,3 0,3z"/>
<path d="m200.333,221.334c3.611,0 7.222,0 10.833,0 1.935,0 1.935-3 0-3-3.611,0-7.222,0-10.833,0-1.935,0-1.935,3 0,3z"/>
<path d="m174.554,198.074c2.24,1.275 4.465,1.198 6.999,1.013 4.048-.296 7.281,.719 11.092,1.872 7.413,2.244 14.091-.603 21.453-.846 4.484-.147 7.53,2.801 11.249,4.728 3.661,1.896 8.384,3.099 8.844,7.735 .119,1.204 .298,2.391 .377,3.598 .241,3.698-5.499,4.327-7.891,4.573-1.925,.198-7.512,1.126-9.223,.134-1.677-.973-3.187,1.62-1.514,2.59 2.151,1.248 5.263,.458 7.616,.368 4.258-.162 8.417-.379 11.963-3.025 4.18-3.12 2.069-12.242-1.561-14.869-4.013-2.905-9.211-5.031-13.53-7.534-3.297-1.91-7.533-1.358-11.119-.875-6.251,.842-11.11,1.972-17.381,.073-2.073-.628-4.138-1.534-6.336-1.617-2.944-.111-6.835,1.024-9.524-.507-1.684-.96-3.194,1.632-1.514,2.589z"/>
<path d="m164.938,77c11.167,0 22.333,0 33.5,0 4.514,0 4.514-7 0-7-11.166,0-22.333,0-33.5,0-4.514,0-4.514,7 0,7z"/>
<path d="m188.554,76.441c-.376,2.33-5.204,1.395-6.721,1.395-2.096,0-4.192,0-6.289,0-1.398,0-.409-1.992 .363-1.992 .368,0 .736,0 1.104,0 1.385,0 2.77,0 4.155,0 1.565,0 6.999-1.006 7.387,1.395 .308,1.906 3.198,1.094 2.893-.798-.773-4.795-6.773-3.597-10.279-3.597-3.232,0-9.667-1.036-9.667,3.996s6.435,3.996 9.667,3.996c3.506,0 9.506,1.198 10.279-3.597 .306-1.892-2.585-2.704-2.892-.798z"/>
<path d="m179.333,89.669c0,6.222 0,12.444 0,18.667 0,1.935 3,1.935 3,0 0-6.222 0-12.444 0-18.667 0-1.934-3-1.934-3,0z"/>
<path d="m187.229,90.398c1.765,5.778 3.528,11.556 5.293,17.333 .563,1.845 3.459,1.058 2.893-.798-1.765-5.778-3.528-11.556-5.293-17.333-.563-1.844-3.459-1.057-2.893,.798z"/>
<path d="m171.554,89.601c-1.764,5.778-3.528,11.556-5.292,17.333-.566,1.855 2.33,2.643 2.893,.798 1.764-5.778 3.528-11.556 5.292-17.333 .566-1.856-2.33-2.643-2.893-.798z"/>
<path d="m254.771,77.082c11.167,0 22.333,0 33.5,0 4.514,0 4.514-7 0-7-11.167,0-22.333,0-33.5,0-4.513,0-4.513,7 0,7z"/>
<path d="m278.388,76.522c-.376,2.33-5.204,1.395-6.721,1.395-2.096,0-4.192,0-6.289,0-1.397,0-.408-1.992 .364-1.992 .367,0 .735,0 1.104,0 1.385,0 2.77,0 4.155,0 1.566,0 6.999-1.006 7.387,1.395 .308,1.906 3.198,1.094 2.893-.798-.773-4.795-6.773-3.597-10.279-3.597-3.232,0-9.667-1.036-9.667,3.996s6.435,3.996 9.667,3.996c3.506,0 9.506,1.198 10.279-3.597 .305-1.892-2.586-2.703-2.893-.798z"/>
<path d="m269.166,89.751c0,6.222 0,12.444 0,18.667 0,1.935 3,1.935 3,0 0-6.222 0-12.444 0-18.667 0-1.935-3-1.935-3,0z"/>
<path d="m277.063,90.48c1.764,5.778 3.528,11.556 5.292,17.333 .563,1.845 3.459,1.058 2.893-.798-1.764-5.778-3.528-11.556-5.292-17.333-.563-1.845-3.459-1.057-2.893,.798z"/>
<path d="m261.388,89.682c-1.765,5.778-3.528,11.556-5.293,17.333-.566,1.855 2.329,2.643 2.893,.798 1.765-5.778 3.528-11.556 5.293-17.333 .566-1.855-2.33-2.643-2.893-.798z"/>
</g>
</svg>
