<svg xmlns="http://www.w3.org/2000/svg" viewBox="20 20 321 321">
<g fill="#000">
<path d="m84.09,163.513c8.917,1.522 17.833,3.045 26.749,4.567 4.414,.754 6.304-5.991 1.861-6.75-8.917-1.522-17.833-3.045-26.749-4.567-4.414-.754-6.304,5.991-1.861,6.75z"/>
<path d="m84.364,173.128c8.917,1.522 17.833,3.045 26.749,4.567 4.414,.753 6.304-5.991 1.861-6.75-8.917-1.522-17.833-3.045-26.749-4.567-4.413-.753-6.304,5.992-1.861,6.75z"/>
<path d="m84.364,182.47c8.917,1.522 17.833,3.045 26.749,4.567 4.414,.754 6.304-5.991 1.861-6.75-8.917-1.522-17.833-3.045-26.749-4.567-4.413-.754-6.304,5.991-1.861,6.75z"/>
<path d="m90.058,192.441c5.004,.854 10.008,1.708 15.012,2.563 4.414,.754 6.304-5.991 1.861-6.75-5.004-.854-10.008-1.708-15.012-2.563-4.414-.753-6.304,5.992-1.861,6.75z"/>
</g>
<path fill="none"  stroke="#000" stroke-width="10" d="m121.034,137.573c0,7.544-6.116,13.66-13.66,13.66h-18.214c-7.544,0-13.66-6.116-13.66-13.66v-48.569c0-7.544 6.116-13.66 13.66-13.66h18.213c7.544,0 13.66,6.116 13.66,13.66v48.569z"/>
<g fill="#000">
<path d="m281.833,274.667c-.528,9.817-15.991,7-22.516,7-14.885,0-29.77,0-44.654,0-15.081,0-30.162,0-45.243,0-4.546,0-9.091,0-13.637,0-3.962,0-8.084-.034-9.85-4.536-1.739-4.433-.433-11.32-.433-15.914 0-7.232 0-14.465 0-21.698 0-4.916 1.647-9.521 7.518-9.521 3.099,0 6.197,0 9.295,0 29.577,0 59.154,0 88.731,0 6.178,0 12.355,0 18.532,0 4.472,0 9.779-.675 11.824,4.536 .78,1.991 .433,4.678 .433,6.77 0,4.348 0,8.695 0,13.043 0,6.773 0,13.547 0,20.32 0,6.448 10,6.448 10,0 0-12.035 0-24.069 0-36.104 0-8.606-4.544-15.758-13.097-18.109-2.713-.746-5.935-.455-8.731-.455-28.399,0-56.798,0-85.196,0-10.272,0-20.544,0-30.816,0-6.063,0-12.016,2.094-15.495,7.39-3.567,5.43-2.998,11.502-2.998,17.664 0,7.721 0,15.441 0,23.162 0,6.733-.004,12.431 4.556,18.029 5.96,7.317 18.245,5.424 26.602,5.424 25.289,0 50.578,0 75.867,0 9.297,0 18.595,0 27.892,0 1.473,0 2.944,0 4.417,0 9.608,0 16.504-7.781 17-17 .346-6.448-9.655-6.414-10.001-.001z"/>
<path d="m175.637,119.266c7.768-7.853 15.686-16.238 24.711-22.65 5.321-3.781 12.288-5.624 18.396-7.686 4.541-1.533 9.116-2.977 13.715-4.327-1.317-.536-2.636-1.072-3.953-1.608 1.886,3.77 3.679,7.585 5.425,11.421 2.553,5.604 5.922,11.911 6.701,18.106 1.36,10.809-.087,22.386-1,33.2 1.477-1.125 2.954-2.25 4.431-3.375-23.324-9.644-46.647-19.287-69.971-28.931-4.172-1.725-5.971,5.051-1.861,6.75 23.324,9.644 46.647,19.287 69.971,28.931 2.272,.939 4.261-1.363 4.431-3.375 .936-11.083 2.306-22.825 .912-33.902-.823-6.542-3.986-12.853-6.619-18.822-2.013-4.562-4.145-9.078-6.374-13.537-.688-1.373-2.525-2.027-3.953-1.608-10.962,3.218-23.481,6.169-33.205,12.329-9.944,6.299-18.468,15.807-26.707,24.134-3.176,3.211 1.772,8.163 4.95,4.95z"/>
<path d="m253.248,210.724c8.791-36.369 17.583-72.737 26.374-109.106 1.515-6.266-8.128-8.925-9.643-2.658-8.791,36.369-17.583,72.737-26.374,109.106-1.514,6.266 8.128,8.924 9.643,2.658z"/>
<path d="m277.196,95.853c-14.47-7.275-28.938-14.549-43.408-21.824-5.745-2.888-10.81,5.737-5.047,8.635 14.47,7.275 28.938,14.549 43.408,21.824 5.746,2.887 10.81-5.738 5.047-8.635z"/>
<path d="m196.166,220.061c22.778,0 45.556,0 68.334,0 6.448,0 6.448-10 0-10-22.778,0-45.556,0-68.334,0-6.448,0-6.448,10 0,10z"/>
<path d="m201.093,215.061c19.556,0 39.111,0 58.667,0 6.448,0 6.448-10 0-10-19.556,0-39.111,0-58.667,0-6.448,0-6.448,10 0,10z"/>
<path d="m204.833,206.395c0,1.778 0,3.556 0,5.334 0,2.726 2.274,5 5,5s5-2.274 5-5c0-1.778 0-3.556 0-5.334 0-2.726-2.274-5-5-5s-5,2.274-5,5z"/>
<path d="m241.626,84.812c-4.792-2.3-9.585-4.601-14.378-6.901-5.784-2.776-10.859,5.845-5.047,8.635 4.793,2.3 9.585,4.601 14.378,6.901 5.784,2.776 10.859-5.845 5.047-8.635z"/>
</g>
</svg>
