<svg xmlns="http://www.w3.org/2000/svg" viewBox="20 20 321 321">
<g fill="#000">
<path d="m226.44,240.921c17.578,0 35.157,0 52.735,0 6.448,0 6.448-10 0-10-17.578,0-35.157,0-52.735,0-6.448,0-6.448,10 0,10z"/>
<path d="m248.963,240.385c0,9.414 0,18.828 0,28.242 0,6.448 10,6.448 10,0 0-9.414 0-18.828 0-28.242 0-6.448-10-6.448-10-0z"/>
<path d="m254.136,266.025c-10.236,3.67-20.473,7.34-30.71,11.01-4.216,1.512-2.398,8.277 1.861,6.75 10.236-3.67 20.473-7.34 30.71-11.01 4.216-1.511 2.399-8.277-1.861-6.75z"/>
<path d="m253.032,272.775c10.237,3.67 20.474,7.34 30.71,11.01 4.26,1.527 6.077-5.238 1.861-6.75-10.237-3.67-20.474-7.34-30.71-11.01-4.259-1.527-6.077,5.239-1.861,6.75z"/>
<path d="m278.061,153.597c-2.044,16.071-4.089,32.142-6.133,48.213-.813,6.385 9.197,6.307 10,0 2.044-16.071 4.089-32.142 6.133-48.213 .812-6.385-9.198-6.306-10,0z"/>
<path d="m271.928,203.527c.749,6.612 1.499,13.224 2.248,19.836 .718,6.332 10.726,6.402 10,0-.749-6.612-1.499-13.224-2.248-19.836-.718-6.332-10.726-6.402-10,0z"/>
<path d="m278.519,125.82c1.075,5.025 2.151,10.05 3.227,15.075 1.35,6.305 10.988,3.63 9.643-2.658-1.075-5.025-2.151-10.05-3.227-15.075-1.35-6.305-10.989-3.63-9.643,2.658z"/>
<path d="m236.303,213.922c10.613,0 21.226,0 31.839,0 4.514,0 4.514-7 0-7-10.613,0-21.226,0-31.839,0-4.514,0-4.514,7 0,7z"/>
<path d="m257.451,211.004c.213,8.24 .426,16.48 .639,24.721 .05,1.931 3.05,1.936 3,0-.213-8.24-.426-16.48-.639-24.721-.05-1.931-3.05-1.936-3,0z"/>
<path d="m224.453,284.667c-.569,0-1.14,0-1.709,0-1.908,0-3.5,1.592-3.5,3.5s1.592,3.5 3.5,3.5c.569,0 1.14,0 1.709,0 1.908,0 3.5-1.592 3.5-3.5s-1.592-3.5-3.5-3.5z"/>
<path d="m285.527,284.667c-.569,0-1.14,0-1.709,0-1.908,0-3.5,1.592-3.5,3.5s1.592,3.5 3.5,3.5c.569,0 1.14,0 1.709,0 1.908,0 3.5-1.592 3.5-3.5s-1.591-3.5-3.5-3.5z"/>
<path d="m135.993,207.91c28.502,0 57.005,0 85.507,0 6.448,0 6.448-10 0-10-28.502,0-57.004,0-85.507,0-6.449,0-6.449,10 0,10z"/>
<path d="m158.503,205.51c0,26.377 0,52.754 0,79.131 0,6.448 10,6.448 10,0 0-26.377 0-52.754 0-79.131 0-6.448-10-6.448-10,0z"/>
<path d="m135.845,205.51c0,26.377 0,52.754 0,79.131 0,6.448 10,6.448 10,0 0-26.377 0-52.754 0-79.131 0-6.448-10-6.448-10,0z"/>
<path d="m135.993,291.834c18.522,0 37.043,0 55.565,0 6.448,0 6.448-10 0-10-18.522,0-37.043,0-55.565,0-6.449,0-6.449,10 0,10z"/>
<path d="m84.09,162.513c8.917,1.522 17.833,3.045 26.749,4.567 4.414,.754 6.304-5.991 1.861-6.75-8.917-1.522-17.833-3.045-26.749-4.567-4.414-.754-6.304,5.991-1.861,6.75z"/>
<path d="m84.364,172.128c8.917,1.522 17.833,3.045 26.749,4.567 4.414,.753 6.304-5.991 1.861-6.75-8.917-1.522-17.833-3.045-26.749-4.567-4.413-.753-6.304,5.992-1.861,6.75z"/>
<path d="m84.364,181.47c8.917,1.522 17.833,3.045 26.749,4.567 4.414,.754 6.304-5.991 1.861-6.75-8.917-1.522-17.833-3.045-26.749-4.567-4.413-.754-6.304,5.991-1.861,6.75z"/>
<path d="m90.058,191.441c5.004,.854 10.008,1.708 15.012,2.563 4.414,.754 6.304-5.991 1.861-6.75-5.004-.854-10.008-1.708-15.012-2.563-4.414-.753-6.304,5.992-1.861,6.75z"/>
</g>
<path fill="none"  stroke="#000" stroke-width="10" d="m121.034,136.573c0,7.544-6.116,13.66-13.66,13.66h-18.214c-7.544,0-13.66-6.116-13.66-13.66v-48.569c0-7.544 6.116-13.66 13.66-13.66h18.213c7.544,0 13.66,6.116 13.66,13.66v48.569z"/>
<g fill="#000">
<path d="m169.857,194.12c-8.096,0-16.193,0-24.289,0-4.514,0-4.514,7 0,7 8.096,0 16.193,0 24.289,0 4.514,0 4.514-7 0-7z"/>
<path d="m152.967,198.583c10.257-25.804 20.513-51.607 30.77-77.411 1.669-4.199-5.104-6.003-6.75-1.861-10.257,25.804-20.513,51.607-30.77,77.411-1.669,4.199 5.104,6.004 6.75,1.861z"/>
<path d="m180.362,125.241c11.345,0 22.69,0 34.035,0 6.448,0 6.448-10 0-10-11.345,0-22.69,0-34.035,0-6.448,0-6.448,10 0,10z"/>
<path d="m185.955,127.062c8.814,0 17.628,0 26.442,0 1.935,0 1.935-3 0-3-8.814,0-17.628,0-26.442,0-1.934,0-1.934,3 0,3z"/>
</g>
</svg>
