<svg xmlns="http://www.w3.org/2000/svg" viewBox="20 20 321 321">
<g fill="#000">
<path d="m110.235,174.984-36.023,34.832 12.259-48.587z"/>
<path d="m107.643,172.392c-12.008,11.611-24.015,23.222-36.023,34.833 2.042,1.188 4.085,2.377 6.127,3.566 4.086-16.196 8.173-32.392 12.259-48.587-1.795,.73-3.59,1.46-5.385,2.191 7.921,4.585 15.842,9.17 23.764,13.755 4.1,2.373 7.79-3.964 3.7-6.331-7.921-4.585-15.842-9.17-23.764-13.755-2.016-1.167-4.802-.121-5.385,2.191-4.086,16.196-8.173,32.392-12.259,48.587-.9,3.569 3.467,6.139 6.127,3.566 12.008-11.61 24.015-23.222 36.023-34.832 3.404-3.291-1.786-8.471-5.184-5.184z"/>
<path d="m168.469,286.943c-.094-31.259-.189-62.518-.283-93.776-2.508,1.439-5.016,2.878-7.523,4.317 38.969,29.556 77.939,59.11 116.909,88.666 2.246,1.703 4.492,3.407 6.738,5.11 .841-3.105 1.683-6.212 2.523-9.317-41.121,0-82.242,0-123.364,0-6.449,0-6.449,10 0,10 41.122,0 82.243,0 123.364,0 5.402,0 6.252-6.489 2.523-9.317-38.97-29.556-77.939-59.11-116.909-88.666-2.246-1.703-4.492-3.407-6.738-5.11-3.125-2.37-7.534,.867-7.523,4.317 .094,31.259 .189,62.518 .283,93.776 .02,6.448 10.02,6.45 10,0z"/>
<path d="m186.102,198.53c27.914,21.531 55.828,43.063 83.742,64.594 5.106,3.938 10.076-4.756 5.047-8.635-27.914-21.531-55.828-43.063-83.742-64.594-5.107-3.938-10.077,4.756-5.047,8.635z"/>
</g>
<path fill="none"  stroke="#000" stroke-width="10" d="m269.763,123.484c0,2.466-1.999,4.466-4.466,4.466h-25.682c-2.467,0-4.467-2-4.467-4.466v-25.682c0-2.467 2-4.466 4.467-4.466h25.682c2.467,0 4.466,2 4.466,4.466v25.682z"/>
<g fill="#000">
<path d="m210.597,78.328c2.644,2.644 5.288,5.289 7.933,7.933 1.926,1.926 5.145,1.926 7.07,0 1.927-1.926 1.927-5.145 0-7.071-2.644-2.644-5.288-5.289-7.933-7.933-1.926-1.926-5.145-1.926-7.07,0-1.927,1.926-1.927,5.144 0,7.071z"/>
<path d="m176.358,115.369c12.271,0 24.542,0 36.812,0 6.448,0 6.448-10 0-10-12.271,0-24.541,0-36.812,0-6.449,0-6.449,10 0,10z"/>
<path d="m290.743,143.233c-2.187-2.187-4.373-4.373-6.561-6.56-1.926-1.926-5.145-1.926-7.07,0-1.927,1.926-1.927,5.145 0,7.071 2.187,2.187 4.373,4.373 6.561,6.56 1.926,1.926 5.145,1.926 7.07,0 1.927-1.926 1.927-5.145 0-7.071z"/>
<path d="m256.906,185.917c0-12.271 0-24.542 0-36.813 0-6.449-10-6.449-10,0 0,12.271 0,24.542 0,36.813 0,6.448 10,6.448 10,0z"/>
<path d="m200.668,169.776c8.678-8.677 17.354-17.354 26.031-26.031 4.564-4.564-2.507-11.635-7.07-7.071-8.678,8.677-17.354,17.354-26.031,26.031-4.565,4.564 2.506,11.635 7.07,7.071z"/>
<path d="m109.334,74.042c-9.947,17.159-19.893,34.318-29.84,51.477-4.855,8.376 8.136,15.875 12.99,7.5 9.947-17.159 19.893-34.318 29.84-51.477 4.856-8.376-8.136-15.875-12.99-7.5z"/>
<path d="m84.009,136.503c10.483,1.972 20.966,3.944 31.449,5.916 9.458,1.779 13.464-12.682 3.961-14.47-10.483-1.972-20.966-3.944-31.449-5.916-9.458-1.779-13.465,12.683-3.961,14.47z"/>
<path d="m110.943,131.434c-9.947,17.159-19.893,34.317-29.84,51.476-4.855,8.376 8.136,15.875 12.99,7.5 9.947-17.159 19.893-34.317 29.84-51.476 4.856-8.376-8.136-15.875-12.99-7.5z"/>
</g>
</svg>
