<svg xmlns="http://www.w3.org/2000/svg" viewBox="20 20 321 321">
<g fill="none"  stroke="#000" stroke-width="10">
<path d="m286.982,281.264c0,3.127-2.763,5.662-6.17,5.662h-199.8c-3.407,0-6.169-2.535-6.169-5.662v-200.816c0-3.127 2.762-5.662 6.169-5.662h199.8c3.407,0 6.17,2.535 6.17,5.662v200.816z"/>
<path d="m247.982,243.383c0,1.957-1.729,3.543-3.861,3.543h-125.036c-2.132,0-3.86-1.586-3.86-3.543v-125.672c0-1.957 1.728-3.543 3.86-3.543h125.036c2.133,0 3.861,1.586 3.861,3.543v125.672z"/>
<path d="m155.083,185.767c0,.144-.127,.261-.284,.261h-9.195c-.157,0-.284-.117-.284-.261v-9.243c0-.144 .127-.26 .284-.26h9.195c.157,0 .284,.117 .284,.26v9.243z"/>
<path d="m184.669,246.133c0,.055-.108,.101-.243,.101h-7.863c-.134,0-.243-.046-.243-.101v-3.564c0-.056 .109-.102 .243-.102h7.863c.135,0 .243,.046 .243,.102v3.564z"/>
</g>
<g fill="#000">
<path d="m117.747,139.808-.129-23.615 23.614,.129z"/>
<path d="m122.747,139.808c-.043-7.872-.085-15.743-.128-23.614-1.667,1.667-3.333,3.333-5,5 7.872,.043 15.743,.085 23.614,.128-1.179-2.845-2.357-5.69-3.536-8.536-7.829,7.829-15.657,15.657-23.486,23.486-4.563,4.564 2.507,11.635 7.071,7.071 7.829-7.829 15.657-15.657 23.486-23.486 3.098-3.098 .816-8.512-3.536-8.536-7.872-.043-15.743-.085-23.614-.128-2.714-.015-5.015,2.286-5,5 .043,7.872 .085,15.743 .128,23.614 .036,6.447 10.036,6.451 10.001,.001z"/>
<path d="m222.875,116.322 23.614-.129-.128,23.615z"/>
<path d="m222.875,121.322c7.871-.043 15.743-.085 23.614-.128-1.667-1.667-3.333-3.333-5-5-.043,7.872-.085,15.743-.128,23.614 2.845-1.179 5.69-2.357 8.535-3.536-7.828-7.829-15.657-15.657-23.486-23.486-4.563-4.563-11.635,2.507-7.07,7.071 7.828,7.829 15.657,15.657 23.486,23.486 3.098,3.098 8.512,.816 8.535-3.536 .043-7.872 .085-15.743 .128-23.614 .015-2.714-2.285-5.015-5-5-7.871,.043-15.743,.085-23.614,.128-6.447,.036-6.45,10.036 0,10.001z"/>
<path d="m245.361,221.45 .128,23.614-23.614-.128z"/>
<path d="m240.361,221.45c.043,7.871 .085,15.743 .128,23.614 1.667-1.667 3.333-3.333 5-5-7.871-.043-15.743-.086-23.614-.129 1.179,2.845 2.357,5.69 3.535,8.535 7.829-7.828 15.658-15.656 23.486-23.485 4.564-4.563-2.507-11.634-7.07-7.07-7.829,7.828-15.658,15.656-23.486,23.485-3.099,3.098-.816,8.512 3.535,8.535 7.871,.043 15.743,.086 23.614,.129 2.715,.015 5.015-2.285 5-5-.043-7.871-.085-15.743-.128-23.614-.035-6.447-10.035-6.45-10-0z"/>
<path d="m141.231,244.936-23.614,.128 .129-23.615z"/>
<path d="m141.231,239.936c-7.872,.043-15.743,.086-23.614,.129 1.667,1.667 3.333,3.333 5,5 .043-7.872 .085-15.743 .128-23.615-2.845,1.179-5.69,2.357-8.536,3.535 7.829,7.829 15.657,15.658 23.486,23.486 4.564,4.564 11.635-2.507 7.071-7.07-7.829-7.829-15.657-15.658-23.486-23.486-3.098-3.099-8.512-.816-8.536,3.535-.043,7.872-.085,15.743-.128,23.615-.015,2.715 2.286,5.015 5,5 7.872-.043 15.743-.086 23.614-.129 6.448-.036 6.452-10.036 .001-10z"/>
</g>
<g fill="none"  stroke="#000" stroke-width="10">
<path d="m217.083,185.767c0,.144-.128,.261-.284,.261h-9.195c-.156,0-.283-.117-.283-.261v-9.243c0-.144 .127-.26 .283-.26h9.195c.156,0 .284,.117 .284,.26v9.243z"/>
<path d="m185.002,118.133c0,.055-.108,.101-.242,.101h-7.864c-.134,0-.243-.045-.243-.101v-3.565c0-.055 .109-.101 .243-.101h7.864c.134,0 .242,.045 .242,.101v3.565z"/>
</g>
</svg>
