<svg xmlns="http://www.w3.org/2000/svg" viewBox="20 20 321 321">
<g  stroke="#000" stroke-width="10">
<g fill="none">
<path d="m286.658,258.416c0,3.453-2.799,6.251-6.251,6.251h-198.63c-3.452,0-6.25-2.798-6.25-6.251v-125.011c0-3.453 2.799-6.25 6.25-6.25h198.63c3.452,0 6.251,2.798 6.251,6.25v125.011z"/>
<path d="m208.703,122.334c0,2.393-1.939,4.333-4.334,4.333h-46.703c-2.393,0-4.333-1.94-4.333-4.333v-21.667c0-2.393 1.94-4.333 4.333-4.333h46.703c2.395,0 4.334,1.94 4.334,4.333v21.667z"/>
</g>
<path fill="#000" d="m177.405,202.639h-38.15c-1.864,0-3.375-1.461-3.375-3.26v-7.244c0-1.8 1.511-3.26 3.375-3.26h38.15"/>
<path fill="none" d="m173.003,202.639"/>
<path fill="#000" d="m182.811,188.875h39.514c1.865,0 3.379,1.46 3.379,3.26v7.244c0,1.799-1.514,3.26-3.379,3.26h-39.655"/>
<g fill="none">
<path d="m186.768,188.875"/>
<path d="m173.003,188.875"/>
</g>
<g fill="#000">
<path d="m186.869,202.469v35.675c0,1.801-1.46,3.26-3.26,3.26h-7.244c-1.8,0-3.259-1.459-3.124-3.214v-35.675"/>
<path d="m173.242,188.977v-35.675c0-1.8 1.46-3.26 3.259-3.26h7.245c1.799,0 3.259,1.459 3.259,3.26v35.675"/>
<path d="m187.083,202.167c0,3.313-2.687,6-6,6h-.5c-3.313,0-6-2.687-6-6v-9.75c0-3.313 2.687-6 6-6h.5c3.313,0 6,2.687 6,6v9.75z"/>
</g>
</g>
</svg>
