<svg xmlns="http://www.w3.org/2000/svg" viewBox="20 20 321 321">
<g fill="#000">
<path d="m101.692,208.489c-5.242,0-9.234-2.411-11.979-7.235-2.745-4.822-4.117-11.672-4.117-20.549 0-4.412 .418-8.35 1.256-11.813 .837-3.464 1.985-6.388 3.442-8.774 1.457-2.386 3.194-4.194 5.21-5.425 2.016-1.232 4.201-1.848 6.56-1.848 1.364,0 2.604,.167 3.721,.5 1.116,.334 2.094,.719 2.93,1.155 .837,.437 1.535,.886 2.093,1.347 .558,.462 .961,.821 1.21,1.077l-2.093,9.697c-.993-.873-2.148-1.616-3.466-2.232-1.318-.616-2.814-.923-4.49-.923-1.116,0-2.209,.307-3.278,.923-1.071,.616-2.016,1.605-2.838,2.963-.822,1.36-1.482,3.116-1.977,5.272-.497,2.155-.744,4.772-.744,7.851 0,2.462 .162,4.759 .488,6.888 .326,2.129 .853,3.963 1.581,5.502 .728,1.539 1.682,2.759 2.861,3.656 1.177,.898 2.605,1.346 4.279,1.346 1.055,0 2.001-.102 2.839-.307 .836-.205 1.582-.447 2.233-.731 .65-.282 1.224-.603 1.721-.962 .495-.357 .945-.692 1.349-1l2,9.619c-1.023,1.027-2.465,1.951-4.326,2.771s-4.016,1.232-6.465,1.232z"/>
<path d="m138.697,208.263c-.359-1.914-.744-3.88-1.157-5.897-.413-2.016-.824-4.025-1.234-6.024h-12.59c-.407,2.009-.816,4.022-1.224,6.042-.41,2.018-.79,3.98-1.142,5.88h-7.537c1.213-5.935 2.364-11.418 3.453-16.452 1.089-5.032 2.153-9.775 3.196-14.226 1.042-4.451 2.069-8.674 3.08-12.676 1.011-3.999 2.062-7.907 3.15-11.722h6.879c1.058,3.815 2.103,7.724 3.131,11.722 1.028,4.002 2.065,8.226 3.108,12.676 1.044,4.45 2.111,9.193 3.202,14.226 1.09,5.034 2.243,10.518 3.458,16.452h-7.773zm-8.718-42.6c-.163,.8-.4,1.889-.711,3.265-.313,1.377-.667,2.968-1.065,4.772s-.844,3.791-1.336,5.96c-.492,2.17-.992,4.444-1.5,6.825h9.219c-.495-2.389-.972-4.671-1.434-6.846-.462-2.176-.902-4.166-1.318-5.971-.415-1.805-.78-3.394-1.094-4.77-.315-1.375-.569-2.452-.761-3.235z"/>
<path d="m160.233,208.263c-2.264,0-4.218-.533-5.861-1.597-1.645-1.064-3-2.545-4.071-4.441-1.068-1.895-1.861-4.154-2.372-6.777-.512-2.621-.769-5.518-.769-8.686v-33.575h7.258v32.562c0,2.182 .146,4.039 .44,5.571 .295,1.532 .699,2.778 1.21,3.739s1.132,1.648 1.86,2.064c.729,.416 1.527,.623 2.396,.623 1.768,0 3.202-.908 4.304-2.727 1.1-1.817 1.651-4.908 1.651-9.271v-32.562h7.256v33.575c0,3.168-.263,6.076-.79,8.725-.528,2.648-1.334,4.922-2.42,6.816-1.085,1.896-2.465,3.363-4.14,4.402-1.671,1.039-3.657,1.559-5.952,1.559z"/>
<path d="m203.058,153.187v10.57h-9.723v44.506h-7.257v-44.506h-9.722v-10.57h26.702z"/>
<path d="m205.105,153.187h7.258v55.076h-7.258v-55.076z"/>
<path d="m246.404,180.762c0,4.521-.412,8.494-1.233,11.921-.822,3.428-1.946,6.298-3.373,8.609-1.427,2.311-3.124,4.049-5.093,5.218-1.97,1.167-4.087,1.752-6.35,1.752-2.203,0-4.281-.585-6.234-1.752-1.953-1.169-3.658-2.907-5.117-5.218-1.457-2.312-2.604-5.182-3.441-8.609s-1.258-7.4-1.258-11.921c0-4.519 .436-8.494 1.304-11.921s2.039-6.309 3.512-8.646c1.474-2.334 3.179-4.087 5.117-5.256 1.938-1.168 3.978-1.752 6.118-1.752 2.201,0 4.279,.584 6.232,1.752 1.954,1.169 3.66,2.922 5.117,5.256 1.459,2.337 2.605,5.218 3.443,8.646 .836,3.428 1.256,7.402 1.256,11.921zm-24.607,0c0,2.59 .191,4.927 .58,7.009 .387,2.083 .945,3.872 1.675,5.37 .728,1.498 1.62,2.653 2.675,3.466 1.054,.813 2.265,1.219 3.629,1.219 1.333,0 2.533-.405 3.605-1.219 1.068-.813 1.968-1.968 2.697-3.466 .729-1.498 1.285-3.287 1.675-5.37 .388-2.082 .581-4.419 .581-7.009 0-2.59-.193-4.938-.581-7.046-.39-2.106-.946-3.91-1.675-5.408-.729-1.497-1.629-2.653-2.697-3.466-1.072-.813-2.272-1.219-3.605-1.219-1.364,0-2.575,.419-3.629,1.258-1.055,.837-1.947,2.007-2.675,3.503-.729,1.499-1.288,3.301-1.675,5.409-.389,2.107-.58,4.431-.58,6.969z"/>
<path d="m269.977,208.263c-2.076-6.306-4.325-12.53-6.744-18.677s-4.994-11.947-7.722-17.405v36.082h-7.165v-55.076h5.908c1.025,1.749 2.156,3.895 3.396,6.437 1.24,2.543 2.504,5.26 3.791,8.146 1.287,2.888 2.565,5.881 3.838,8.98 1.271,3.1 2.465,6.081 3.582,8.941v-32.505h7.21v55.076h-6.094z"/>
<path d="m288.762,91.136c-6.349-6.349-12.697-12.698-19.047-19.046-6.836-6.835-17.403,3.813-10.551,10.665 6.349,6.349 12.697,12.698 19.047,19.046 6.836,6.835 17.403-3.813 10.551-10.665z"/>
<path d="m289.531,138.666c-22.192-22.192-44.385-44.384-66.577-66.577-6.835-6.835-17.403,3.813-10.551,10.665 22.192,22.192 44.385,44.384 66.577,66.577 6.836,6.836 17.404-3.812 10.551-10.665z"/>
<path d="m196.01,138.666c-22.192-22.192-44.384-44.384-66.576-66.577-6.835-6.836-17.403,3.813-10.551,10.665 22.192,22.192 44.384,44.384 66.576,66.577 6.835,6.836 17.403-3.812 10.551-10.665z"/>
<path d="m101.682,137.919c-6.336-6.357-12.673-12.714-19.009-19.071-6.825-6.847-17.393,3.802-10.552,10.665 6.337,6.357 12.673,12.714 19.01,19.071 6.825,6.848 17.392-3.802 10.551-10.665z"/>
<path d="m242.771,138.666c-22.192-22.192-44.384-44.384-66.576-66.577-6.836-6.835-17.404,3.813-10.552,10.665 22.192,22.192 44.385,44.384 66.577,66.577 6.835,6.836 17.403-3.812 10.551-10.665z"/>
<path d="m148.539,137.896c-21.956-21.936-43.911-43.872-65.866-65.807-6.839-6.833-17.407,3.815-10.552,10.665 21.956,21.936 43.911,43.872 65.866,65.807 6.839,6.833 17.408-3.815 10.552-10.665z"/>
<path d="m82.729,242.795c6.645-6.605 13.291-13.211 19.936-19.816 6.857-6.815-3.793-17.382-10.665-10.551-6.645,6.605-13.291,13.211-19.936,19.816-6.856,6.816 3.793,17.382 10.665,10.551z"/>
<path d="m130.26,288.784c22.036-21.935 44.072-43.87 66.108-65.806 6.852-6.82-3.798-17.387-10.666-10.551-22.035,21.935-44.071,43.87-66.107,65.806-6.852,6.821 3.798,17.387 10.665,10.551z"/>
<path d="m177.021,288.784c21.936-21.935 43.871-43.87 65.807-65.806 6.835-6.835-3.813-17.403-10.666-10.551-21.935,21.935-43.87,43.87-65.806,65.806-6.836,6.835 3.812,17.404 10.665,10.551z"/>
<path d="m223.829,288.737c21.92-21.919 43.839-43.839 65.759-65.759 6.836-6.835-3.812-17.403-10.664-10.551-21.921,21.919-43.841,43.839-65.761,65.759-6.835,6.835 3.813,17.404 10.666,10.551z"/>
<path d="m270.541,288.783c6.35-6.349 12.698-12.697 19.047-19.046 6.836-6.835-3.812-17.403-10.664-10.551-6.35,6.349-12.698,12.697-19.048,19.046-6.835,6.835 3.812,17.404 10.665,10.551z"/>
<path d="m83.499,288.784c21.894-21.935 43.788-43.87 65.682-65.806 6.829-6.842-3.819-17.41-10.665-10.551-21.894,21.935-43.788,43.87-65.682,65.806-6.829,6.842 3.819,17.411 10.665,10.551z"/>
<path d="m282.013,283.09c.524-1.939 4.381-1.719 1.976-1.719-.958,0-1.917,0-2.876,0-3.488,0-6.976,0-10.464,0-11.973,0-23.944,0-35.917,0-32.054,0-64.108,0-96.162,0-20.246,0-40.492,0-60.738,0-3.048,0 2.001,5.053 2.001,1.995 0-2.481 0-4.964 0-7.445 0-10.593 0-21.185 0-31.777 0-54.688 0-109.375 0-164.063 0-.867 0-1.734 0-2.601 0-2.744 .16,2.149-3.023,2.149 1.451,0 2.902,0 4.353,0 9.069,0 18.138,0 27.207,0 30.93,0 61.861,0 92.792,0 25.365,0 50.73,0 76.097,0 2.29,0 4.581,0 6.872,0 2.135,0-2.296-5.205-2.296-1.653 0,7.303 0,14.606 0,21.909 0,57.269 0,114.538 0,171.806 0,4.243 0,8.485 0,12.729 0,6.448 10,6.448 10,0 0-48.906 0-97.813 0-146.719 0-20.073 0-40.147 0-60.22 0-7.655-6.365-7.851-11.979-7.851-9.35,0-18.7,0-28.05,0-56.063,0-112.125,0-168.188,0-5.535,0-13.785-.917-13.785,7.261 0,5.989 0,11.978 0,17.967 0,28.881 0,57.762 0,86.643 0,28.607 0,57.214 0,85.821 0,5.646 0,11.293 0,16.94 0,8.308 9.044,7.11 14.577,7.11 56.296,0 112.591,0 168.887,0 8.121,0 16.241,0 24.361,0 5.374,0 12.173,1.126 13.997-5.623 1.685-6.235-7.962-8.878-9.642-2.659z"/>
</g>
</svg>
