<svg xmlns="http://www.w3.org/2000/svg" viewBox="20 20 321 321">
<g fill="#000">
<path d="m115.938,122.007c-31.769,32.364-31.769,84.515-.001,116.879 4.523,4.608 11.59-2.467 7.071-7.07-27.959-28.485-27.959-74.254 .001-102.738 4.518-4.603-2.549-11.678-7.071-7.071z"/>
<path d="m100.17,107.482c-19.296,19.582-30.146,45.687-30.337,73.185-.19,27.35 11.239,53.804 30.337,73.185 4.532,4.599 11.6-2.476 7.071-7.07-36-36.533-36-95.695 0-132.228 4.529-4.596-2.539-11.671-7.071-7.072z"/>
<path d="m246.035,239.326c31.77-32.363 31.77-84.515 .001-116.879-4.522-4.608-11.59,2.467-7.07,7.071 27.959,28.484 27.959,74.253-.001,102.738-4.52,4.603 2.548,11.679 7.07,7.07z"/>
<path d="m261.803,253.852c19.296-19.581 30.146-45.687 30.337-73.184 .189-27.351-11.239-53.804-30.338-73.186-4.531-4.599-11.599,2.476-7.07,7.071 35.998,36.533 36,95.695 .001,132.228-4.529,4.595 2.538,11.669 7.07,7.071z"/>
<path d="m217.069,215.956c.354,7.56-5.81,7-11.034,7-6.988,0-13.978,0-20.966,0-12.181,0-24.362,0-36.543,0-11.515,0-.835-24.668 .966-29.726 4.316-12.121 8.193-23.74 10.697-36.356 .824-4.151 2.798-8.124 4.767-11.829 1.028-1.936 2.173-3.897 3.519-5.634 .575-.742 1.226-1.41 1.893-2.068 1.248-1.231-1.377-.387 1.974-.387 3.887,0 7.774,0 11.661,0 1.955,0 3.91,0 5.865,0-1.367,0-.7-.23 .01,.387 3.486,3.036 5.65,7.917 7.561,12.017 1.787,3.838 2.627,7.653 3.271,11.799 .959,6.175 2.965,12.189 4.991,18.08 4.131,12.015 9.727,24.011 11.368,36.717 .814,6.303 10.825,6.383 10,0-1.702-13.173-6.758-25.396-11.184-37.827-2.119-5.951-4.02-11.975-5.272-18.172-.965-4.773-1.688-8.972-3.61-13.503-2.901-6.834-7.99-18.563-16.582-19.441-6.452-.659-14.146-.659-20.597,0-4.336,.443-7.415,3.812-9.835,7.157-5.667,7.83-8.672,16.407-10.357,25.787-2.373,13.206-8.281,25.642-12.427,38.335-3.649,11.171-7.755,24.686 3.687,32.563 3.946,2.717 9.389,2.101 13.937,2.101 14.393,0 28.785,0 43.178,0 4.466,0 8.931,0 13.396,0 9.276,0 16.093-7.941 15.668-17-.302-6.42-10.303-6.449-10.002-0z"/>
</g>
</svg>
