<svg xmlns="http://www.w3.org/2000/svg" viewBox="20 20 321 321">
<g fill="none"  stroke="#000" stroke-width="10">
<path d="m282.436,281.116c0,3.314-2.688,6.001-6.001,6.001h-190.685c-3.314,0-6-2.687-6-6.001v-110.411c0-3.314 2.687-6 6-6h190.685c3.313,0 6.001,2.686 6.001,6v110.411z"/>
<path d="m286.398,157.721c0,3.453-2.799,6.25-6.251,6.25h-198.629c-3.452,0-6.25-2.798-6.25-6.25v-6.012c0-3.453 2.799-6.25 6.25-6.25h198.63c3.452,0 6.251,2.798 6.251,6.25v6.012z"/>
</g>
<path fill="#000" d="m186.391,196.28c-.208,3.463-2.295,4.113-5.169,4.113-3.025,0-5.481-.285-5.71-4.113-.209-3.481 2.52-4.113 5.169-4.113 3.024,0 5.48,.285 5.71,4.113 .115,1.922 3.116,1.934 3,0-.135-2.251-.86-4.666-2.833-6.004-1.696-1.15-3.38-1.109-5.336-1.109-1.895,0-3.554-.094-5.313,.727-2.356,1.099-3.256,4.03-3.397,6.387-.13,2.163 1.023,4.777 2.833,6.004 1.697,1.15 3.38,1.109 5.336,1.109 1.895,0 3.554,.094 5.313-.727 2.356-1.099 3.256-4.03 3.397-6.387 .116-1.933-2.885-1.922-3,0z"/>
</svg>
