<svg xmlns="http://www.w3.org/2000/svg" viewBox="20 20 321 321">
<g fill="#000">
<path d="m288.762,91.136c-6.349-6.349-12.697-12.698-19.047-19.046-6.836-6.835-17.403,3.813-10.551,10.665 6.349,6.349 12.697,12.698 19.047,19.046 6.836,6.835 17.403-3.813 10.551-10.665z"/>
<path d="m289.531,138.666c-22.192-22.192-44.385-44.384-66.577-66.577-6.835-6.835-17.403,3.813-10.551,10.665 22.192,22.192 44.385,44.384 66.577,66.577 6.836,6.836 17.404-3.812 10.551-10.665z"/>
<path d="m196.01,138.666c-22.192-22.192-44.384-44.384-66.576-66.577-6.835-6.836-17.403,3.813-10.551,10.665 22.192,22.192 44.384,44.384 66.576,66.577 6.835,6.836 17.403-3.812 10.551-10.665z"/>
<path d="m101.682,137.919c-6.336-6.357-12.673-12.714-19.009-19.071-6.825-6.847-17.393,3.802-10.552,10.665 6.337,6.357 12.673,12.714 19.01,19.071 6.825,6.848 17.392-3.802 10.551-10.665z"/>
<path d="m242.771,138.666c-22.192-22.192-44.384-44.384-66.576-66.577-6.836-6.835-17.404,3.813-10.552,10.665 22.192,22.192 44.385,44.384 66.577,66.577 6.835,6.836 17.403-3.812 10.551-10.665z"/>
<path d="m148.539,137.896c-21.956-21.936-43.911-43.872-65.866-65.807-6.839-6.833-17.407,3.815-10.552,10.665 21.956,21.936 43.911,43.872 65.866,65.807 6.839,6.833 17.408-3.815 10.552-10.665z"/>
<path d="m82.729,242.795c6.645-6.605 13.291-13.211 19.936-19.816 6.857-6.815-3.793-17.382-10.665-10.551-6.645,6.605-13.291,13.211-19.936,19.816-6.856,6.816 3.793,17.382 10.665,10.551z"/>
<path d="m130.26,288.784c22.036-21.935 44.072-43.87 66.108-65.806 6.852-6.82-3.798-17.387-10.666-10.551-22.035,21.935-44.071,43.87-66.107,65.806-6.852,6.821 3.798,17.387 10.665,10.551z"/>
<path d="m177.021,288.784c21.936-21.935 43.871-43.87 65.807-65.806 6.835-6.835-3.813-17.403-10.666-10.551-21.935,21.935-43.87,43.87-65.806,65.806-6.836,6.835 3.812,17.404 10.665,10.551z"/>
<path d="m223.829,288.737c21.92-21.919 43.839-43.839 65.759-65.759 6.836-6.835-3.812-17.403-10.664-10.551-21.921,21.919-43.841,43.839-65.761,65.759-6.835,6.835 3.813,17.404 10.666,10.551z"/>
<path d="m270.541,288.783c6.35-6.349 12.698-12.697 19.047-19.046 6.836-6.835-3.812-17.403-10.664-10.551-6.35,6.349-12.698,12.697-19.048,19.046-6.835,6.835 3.812,17.404 10.665,10.551z"/>
<path d="m83.499,288.784c21.894-21.935 43.788-43.87 65.682-65.806 6.829-6.842-3.819-17.41-10.665-10.551-21.894,21.935-43.788,43.87-65.682,65.806-6.829,6.842 3.819,17.411 10.665,10.551z"/>
<path d="m282.013,283.09c.524-1.939 4.381-1.719 1.976-1.719-.958,0-1.917,0-2.876,0-3.488,0-6.976,0-10.464,0-11.973,0-23.944,0-35.917,0-32.054,0-64.108,0-96.162,0-20.246,0-40.492,0-60.738,0-3.048,0 2.001,5.053 2.001,1.995 0-2.481 0-4.964 0-7.445 0-10.593 0-21.185 0-31.777 0-54.688 0-109.375 0-164.063 0-.867 0-1.734 0-2.601 0-2.744 .16,2.149-3.023,2.149 1.451,0 2.902,0 4.353,0 9.069,0 18.138,0 27.207,0 30.93,0 61.861,0 92.792,0 25.365,0 50.73,0 76.097,0 2.29,0 4.581,0 6.872,0 2.135,0-2.296-5.205-2.296-1.653 0,7.303 0,14.606 0,21.909 0,57.269 0,114.538 0,171.806 0,4.243 0,8.485 0,12.729 0,6.448 10,6.448 10,0 0-48.906 0-97.813 0-146.719 0-20.073 0-40.147 0-60.22 0-7.655-6.365-7.851-11.979-7.851-9.35,0-18.7,0-28.05,0-56.063,0-112.125,0-168.188,0-5.535,0-13.785-.917-13.785,7.261 0,5.989 0,11.978 0,17.967 0,28.881 0,57.762 0,86.643 0,28.607 0,57.214 0,85.821 0,5.646 0,11.293 0,16.94 0,8.308 9.044,7.11 14.577,7.11 56.296,0 112.591,0 168.887,0 8.121,0 16.241,0 24.361,0 5.374,0 12.173,1.126 13.997-5.623 1.685-6.235-7.962-8.878-9.642-2.659z"/>
<path d="m108.823,208.263c-.328-1.927-.679-3.905-1.056-5.935-.377-2.03-.752-4.053-1.125-6.065h-11.488c-.371,2.022-.744,4.049-1.117,6.081-.374,2.033-.721,4.006-1.043,5.919h-6.875c1.107-5.973 2.156-11.493 3.15-16.56s1.965-9.84 2.916-14.32c.951-4.48 1.888-8.732 2.81-12.76 .923-4.026 1.881-7.96 2.874-11.8h6.276c.967,3.84 1.919,7.774 2.857,11.8 .938,4.028 1.884,8.28 2.836,12.76 .952,4.48 1.925,9.254 2.92,14.32 .995,5.066 2.047,10.587 3.156,16.56h-7.091zm-7.955-42.88c-.148,.805-.364,1.901-.649,3.286-.285,1.386-.608,2.987-.972,4.804s-.77,3.816-1.219,6c-.449,2.184-.905,4.474-1.369,6.87h8.412c-.45-2.403-.886-4.701-1.308-6.891-.422-2.19-.823-4.194-1.203-6.011-.38-1.816-.713-3.417-1-4.801-.285-1.385-.517-2.47-.692-3.257z"/>
<path d="m129.603,209.468c-4.782,0-8.425-2.466-10.929-7.399-2.504-4.934-3.756-11.939-3.756-21.019 0-4.513 .382-8.541 1.146-12.083 .764-3.543 1.811-6.534 3.141-8.974 1.33-2.44 2.915-4.29 4.754-5.549 1.839-1.26 3.834-1.89 5.984-1.89 1.245,0 2.377,.171 3.396,.512 1.019,.342 1.91,.735 2.674,1.181 .764,.447 1.4,.905 1.91,1.377 .509,.473 .877,.84 1.104,1.103l-1.91,9.918c-.906-.892-1.959-1.653-3.162-2.283-1.203-.629-2.568-.945-4.096-.945-1.019,0-2.016,.315-2.993,.945-.976,.63-1.839,1.641-2.589,3.031-.75,1.391-1.352,3.188-1.804,5.393s-.679,4.88-.679,8.029c0,2.519 .149,4.868 .446,7.046s.777,4.053 1.443,5.628c.665,1.575 1.535,2.821 2.61,3.739 1.075,.919 2.377,1.377 3.905,1.377 .962,0 1.825-.104 2.589-.314 .764-.209 1.443-.459 2.037-.748 .594-.287 1.118-.616 1.57-.984 .452-.365 .863-.708 1.231-1.022l1.825,9.84c-.934,1.05-2.25,1.995-3.947,2.834s-3.665,1.257-5.9,1.257z"/>
<path d="m158.996,152.823h6.621v55.44h-6.621v-23.521h-11.121v23.521h-6.621v-55.44h6.621v21.2h11.121v-21.2z"/>
<path d="m192.598,152.823v10.64h-8.871v44.8h-6.622v-44.8h-8.871v-10.64h24.364z"/>
<path d="m207.531,209.383c-2.066,0-3.849-.548-5.349-1.641-1.5-1.092-2.737-2.611-3.714-4.56-.977-1.946-1.697-4.267-2.164-6.96-.467-2.692-.701-5.666-.701-8.92v-34.48h6.621v33.44c0,2.24 .135,4.147 .404,5.72 .268,1.574 .637,2.854 1.104,3.84 .467,.988 1.032,1.694 1.697,2.121 .664,.427 1.394,.639 2.186,.639 1.613,0 2.922-.932 3.927-2.799 1.004-1.867 1.507-5.041 1.507-9.521v-33.44h6.621v34.48c0,3.254-.24,6.24-.722,8.96s-1.217,5.054-2.207,7c-.991,1.947-2.249,3.454-3.778,4.521-1.527,1.067-3.338,1.6-5.432,1.6z"/>
<path d="m242.52,208.263c-1.896-6.347-3.948-12.612-6.154-18.8-2.208-6.187-4.557-12.026-7.047-17.52v36.32h-6.536v-55.44h5.391c.934,1.76 1.966,3.92 3.099,6.48 1.131,2.56 2.285,5.294 3.459,8.2 1.174,2.907 2.341,5.92 3.502,9.04 1.16,3.12 2.25,6.12 3.268,9v-32.72h6.579v55.44h-5.561z"/>
<path d="m266.776,163.272c-3.085,0-5.313,1.588-6.685,4.761-1.373,3.175-2.06,7.516-2.06,13.025 0,2.675 .171,5.102 .51,7.278 .339,2.178 .849,4.052 1.528,5.626 .679,1.574 1.527,2.795 2.547,3.66 1.018,.865 2.207,1.299 3.564,1.299 .735,0 1.365-.026 1.889-.08 .523-.051 .983-.156 1.38-.314v-18.965h6.621v26.992c-.792,.578-2.065,1.194-3.819,1.85-1.756,.655-3.92,.984-6.494,.984-2.207,0-4.209-.631-6.006-1.889-1.798-1.26-3.332-3.096-4.605-5.51-1.273-2.412-2.257-5.377-2.95-8.893-.693-3.514-1.04-7.527-1.04-12.039 0-4.565 .383-8.605 1.146-12.12 .764-3.514 1.811-6.493 3.141-8.932s2.893-4.289 4.69-5.547c1.796-1.26 3.714-1.889 5.751-1.889 1.386,0 2.639,.171 3.756,.512 1.118,.342 2.08,.735 2.887,1.18 .807,.447 1.471,.905 1.994,1.377 .523,.473 .898,.84 1.125,1.102l-1.91,9.837c-.905-.892-1.945-1.665-3.119-2.321-1.175-.655-2.455-.984-3.841-.984z"/>
</g>
</svg>
