<svg xmlns="http://www.w3.org/2000/svg" viewBox="20 20 321 321">
<path fill="none"  stroke="#000" stroke-width="10" d="m74.622,99.285c3.311,15.667 9.358,33.123 14.437,47.916 3.022,8.803 16.089,39.094 19.039,45.906h-.002c0,0 .104,.241 .298,.686 .193,.445 .298,.686 .298,.686h.002c2.967,6.803 16.196,37.024 20.569,45.241 7.35,13.806 15.985,30.136 25.18,43.246 1.842,2.627 4.33,4.511 6.79,3.442l35.834-15.572c2.459-1.069 3.406-4.342 2.116-7.313l-17.526-40.331c-6.233-11.243-18.702-2.153-26.258-5.846-2.563-1.253-4.453-6.05-5.695-8.907-2.748-6.323-9.158-21.073-11.484-26.426-.542-1.249-.864-1.988-.864-1.988-2.326-5.353-8.736-20.103-11.484-26.426-1.241-2.857-3.458-7.513-2.626-10.24 2.457-8.043 17.61-10.957 13.643-23.185l-17.526-40.332c-1.291-2.97-4.331-4.51-6.79-3.442l-35.835,15.573c-2.46,1.069-2.78,4.173-2.116,7.312z"/>
<g fill="#000">
<path d="m205.552,112.698c24.4,24.919 24.4,64.764 0,89.683-4.514,4.608 2.553,11.685 7.07,7.07 28.209-28.807 28.209-75.018 0-103.825-4.518-4.613-11.584,2.463-7.07,7.072z"/>
<path d="m226.401,95.265c34.838,35.368 34.837,92.598 0,127.967-4.527,4.596 2.54,11.67 7.07,7.07 18.573-18.856 29.074-43.901 29.452-70.37 .382-26.785-10.756-52.759-29.452-71.739-4.53-4.599-11.597,2.476-7.07,7.072z"/>
<path d="m248.555,78.324c21.035,21.292 32.933,49.652 33.276,79.588 .348,30.28-12.084,59.505-33.276,80.957-4.535,4.59 2.533,11.663 7.07,7.07 22.871-23.149 35.832-54.114 36.206-86.659 .378-32.863-13.209-64.75-36.206-88.027-4.537-4.592-11.605,2.481-7.07,7.071z"/>
</g>
</svg>
