<svg xmlns="http://www.w3.org/2000/svg" viewBox="20 20 321 321">
<path fill="none"  stroke="#000" stroke-width="10" d="m287.304,99.285c-3.312,15.667-9.358,33.123-14.437,47.916-3.022,8.803-16.09,39.094-19.039,45.906h.002c0,0-.104,.241-.298,.686-.193,.445-.298,.686-.298,.686h-.002c-2.967,6.803-16.196,37.024-20.569,45.241-7.35,13.806-15.985,30.136-25.18,43.246-1.842,2.627-4.33,4.511-6.79,3.442l-35.834-15.572c-2.459-1.069-3.407-4.342-2.116-7.313l17.526-40.331c6.232-11.243 18.701-2.153 26.258-5.846 2.563-1.253 4.453-6.05 5.695-8.907 2.748-6.323 9.157-21.073 11.483-26.426 .542-1.249 .864-1.988 .864-1.988 2.325-5.353 8.735-20.103 11.483-26.426 1.241-2.857 3.458-7.513 2.626-10.24-2.457-8.043-17.609-10.957-13.643-23.185l17.526-40.332c1.29-2.97 4.331-4.51 6.79-3.442l35.834,15.572c2.462,1.07 2.783,4.174 2.119,7.313z"/>
<g fill="#000">
<path d="m107.492,177.151c24.414,3.261 48.828,6.522 73.242,9.784 2.463,.329 5.329-2.537 5-5-3.262-24.415-6.523-48.829-9.784-73.243-.544-4.077-5.137-6.935-8.536-3.536-21.153,21.153-42.306,42.306-63.458,63.459-4.563,4.564 2.507,11.635 7.071,7.071 21.153-21.153 42.306-42.306 63.458-63.459-2.845-1.179-5.69-2.357-8.536-3.536 3.261,24.415 6.522,48.829 9.784,73.243 1.667-1.667 3.333-3.333 5-5-24.414-3.261-48.828-6.523-73.242-9.784-6.376-.851-6.294,9.161 .001,10.001z"/>
<path d="m92.778,78.937c2.384-1.722 7.425,5.326 8.945,6.847 2.685,2.685 5.37,5.371 8.056,8.056 .938,.938-13.751,14.678-15.408,16.334-.938,.938-14.678-13.752-16.334-15.408-.937-.937 13.783-14.709 15.449-16.376 3.194-3.195-1.755-8.145-4.95-4.95-3.611,3.612-7.223,7.224-10.835,10.836-4.033,4.033-9.613,8.586-5.203,14.689 3.078,4.26 7.678,7.839 11.383,11.544 4.034,4.034 8.585,9.611 14.69,5.203 4.26-3.076 7.84-7.678 11.544-11.383 4.034-4.034 9.611-8.584 5.202-14.689-3.076-4.26-7.678-7.839-11.383-11.544-4.034-4.034-8.585-9.612-14.69-5.203-3.622,2.616-.133,8.692 3.534,6.044z"/>
<path d="m128.293,114.452c2.384-1.722 7.424,5.326 8.945,6.847 2.685,2.685 5.371,5.371 8.056,8.056 .937,.937-13.751,14.678-15.407,16.334-.937,.937-14.679-13.752-16.335-15.408-.937-.937 13.784-14.709 15.45-16.375 3.194-3.195-1.755-8.145-4.95-4.95-3.612,3.612-7.224,7.224-10.835,10.836-4.033,4.033-9.612,8.585-5.203,14.689 3.077,4.26 7.678,7.839 11.383,11.544 4.034,4.034 8.584,9.61 14.69,5.203 4.26-3.075 7.84-7.679 11.543-11.384 4.033-4.034 9.611-8.585 5.203-14.689-3.076-4.26-7.678-7.839-11.382-11.544-4.034-4.034-8.585-9.612-14.69-5.203-3.623,2.616-.135,8.693 3.532,6.044z"/>
</g>
</svg>
