<svg xmlns="http://www.w3.org/2000/svg" viewBox="20 20 321 321">
<path fill="none"  stroke="#000" stroke-width="10" d="m280.971,176.694c-15.689-3.208-34.107-4.619-49.699-5.857-9.279-.736-42.269-.825-49.691-.834v-.003c0,0-.262,0-.747,0-.485,0-.748,0-.748,0v.002c-7.422,.01-40.412,.098-49.69,.834-15.592,1.238-34.01,2.649-49.7,5.857-3.143,.642-5.862,2.173-5.862,4.855v39.072c0,2.682 2.625,4.855 5.862,4.855h43.976c12.796-1.235 9.428-16.295 15.826-21.753 2.17-1.851 7.323-1.673 10.438-1.673 6.895,0 22.978,0 28.814,0 1.361,0 2.167,0 2.167,0 5.837,0 21.92,0 28.814,0 3.115,0 8.269-.178 10.438,1.673 6.397,5.458 3.03,20.518 15.826,21.753h43.976c3.238,0 5.862-2.174 5.862-4.855v-39.072c0-2.681-2.72-4.212-5.862-4.854z"/>
<path fill="#000" d="m74.833,150.667c48.697,0 97.394,0 146.091,0 21.97,0 43.939,0 65.909,0 6.448,0 6.448-10 0-10-48.697,0-97.395,0-146.091,0-21.97,0-43.939,0-65.909,0-6.449,0-6.449,10-0,10z"/>
</svg>
