<svg xmlns="http://www.w3.org/2000/svg" viewBox="20 20 321 321">
<g fill="#000">
<path d="m291.809,286.943c.133-44.114 .267-88.229 .399-132.344 .011-3.45-4.397-6.688-7.523-4.317-38.352,29.086-76.703,58.173-115.055,87.26-19.815,15.028-39.63,30.056-59.445,45.084-3.729,2.828-2.879,9.317 2.523,9.317 49.822,0 99.645,0 149.467,0 8.211,0 16.423,0 24.634,0 6.448,0 6.448-10 0-10-49.822,0-99.645,0-149.466,0-8.211,0-16.423,0-24.634,0 .841,3.105 1.683,6.212 2.523,9.317 38.352-29.087 76.703-58.173 115.056-87.26 19.814-15.028 39.63-30.056 59.444-45.084-2.508-1.439-5.016-2.878-7.523-4.317-.133,44.114-.267,88.229-.399,132.344-.021,6.45 9.979,6.448 9.999,0z"/>
<path d="m250.195,153.168c-38.135,29.415-76.271,58.83-114.405,88.245-1.26,.972-2.52,1.943-3.779,2.915-5.029,3.879-.06,12.573 5.047,8.635 38.135-29.415 76.271-58.83 114.405-88.245 1.26-.972 2.52-1.943 3.779-2.915 5.029-3.879 .06-12.574-5.047-8.635z"/>
</g>
<path fill="none"  stroke="#000" stroke-width="10" d="m92.778,123.484c0,2.466 2,4.466 4.466,4.466h25.682c2.467,0 4.466-2 4.466-4.466v-25.682c0-2.467-2-4.466-4.466-4.466h-25.682c-2.467,0-4.466,2-4.466,4.466v25.682z"/>
<g fill="#000">
<path d="m144.874,71.256c-2.644,2.645-5.289,5.289-7.933,7.933-1.926,1.926-1.926,5.145 0,7.071s5.145,1.926 7.071,0c2.644-2.645 5.289-5.289 7.933-7.933 1.926-1.926 1.926-5.145 0-7.071s-5.145-1.926-7.071,0z"/>
<path d="m186.184,105.369c-12.271,0-24.542,0-36.813,0-6.449,0-6.449,10 0,10 12.271,0 24.542,0 36.813,0 6.448,0 6.448-10 0-10z"/>
<path d="m78.869,150.304c2.187-2.187 4.373-4.373 6.56-6.56 1.926-1.926 1.926-5.145 0-7.071s-5.145-1.926-7.071,0c-2.187,2.187-4.373,4.373-6.56,6.56-1.926,1.926-1.926,5.145 0,7.071s5.145,1.926 7.071,0z"/>
<path d="m115.635,185.917c0-12.271 0-24.542 0-36.813 0-6.449-10-6.449-10,0 0,12.271 0,24.542 0,36.813 0,6.448 10,6.448 10,0z"/>
<path d="m168.943,162.705c-8.677-8.677-17.354-17.354-26.031-26.031-4.564-4.563-11.635,2.507-7.071,7.071 8.677,8.677 17.354,17.354 26.031,26.031 4.564,4.564 11.635-2.507 7.071-7.071z"/>
</g>
</svg>
