<svg xmlns="http://www.w3.org/2000/svg" viewBox="20 20 321 321">
<g fill="#000">
<path d="m222.457,85.638c0-1.837-1.359-3.327-3.033-3.327h-14.157c-1.675,0-3.032,1.489-3.032,3.327v7.207c0,1.837 1.357,3.326 3.032,3.326h14.157c1.674,0 3.033-1.489 3.033-3.326v-7.207z"/>
<path d="m224.813,80.351c0-2.004-.995-3.629-2.223-3.629h-20.619c-1.229,0-2.223,1.625-2.223,3.629v1.008c0,2.005 .994,3.63 2.223,3.63h20.619c1.228,0 2.223-1.625 2.223-3.63v-1.008z"/>
<path d="m146.861,83.177c0,1.087-.881,1.969-1.968,1.969h-37.796c-1.087,0-1.968-.882-1.968-1.969v-10.726c0-1.088 .881-1.969 1.968-1.969h37.796c1.087,0 1.968,.881 1.968,1.969v10.726z"/>
<path d="m257.537,138.437c0,5.117-4.148,9.267-9.267,9.267h-59.76c-5.117,0-9.266-4.15-9.266-9.267v-35.407c0-5.118 4.149-9.267 9.266-9.267h59.761c5.118,0 9.267,4.149 9.267,9.267v35.407z"/>
<path d="m186.447,156.419c0,2.144-1.334,3.882-2.98,3.882h-5.352c-1.647,0-2.982-1.738-2.982-3.882v-70.391c0-2.144 1.334-3.882 2.982-3.882h5.352c1.646,0 2.98,1.738 2.98,3.882v70.391z"/>
<path d="m175.875,140.267c-.291,5.406-4.765,6.085-8.993,6.085-4.535,0-9.07,0-13.604,0-13.137,0-26.275,0-39.412,0-4.765,0-9.53,0-14.296,0-3.669,0-7.692,.276-9.351-3.954-1.296-3.304-.374-8.358-.374-11.774 0-6.594 0-13.188 0-19.782 0-3.732-.629-8.126 .374-11.774 1.182-4.3 5.914-3.954 9.351-3.954 11.373,0 22.745,0 34.117,0 11.065,0 22.13,0 33.195,0 4.228,0 8.702,.679 8.993,6.085 .199,3.684 0,7.433 0,11.121 0,9.315 0,18.631 0,27.947 0,5.339 8.28,5.339 8.28,0 0-10.279 0-20.558 0-30.837 0-4.112 .433-8.557-.668-12.563-1.76-6.401-8.16-10.033-14.455-10.033-21.946,0-43.892,0-65.838,0-2.417,0-4.834,0-7.251,0-7.968,0-14.377,6.681-14.377,14.568 0,10.869 0,21.737 0,32.605 0,4.742-.308,9.132 1.961,13.51 2.662,5.137 8.405,7.115 13.815,7.115 10.19,0 20.38,0 30.571,0 11.538,0 23.076,0 34.614,0 2.385,0 4.77,0 7.154,0 8.164,0 14.05-6.49 14.474-14.365 .286-5.338-7.995-5.31-8.28,0z"/>
<path d="m180.631,105.503c-25.955,0-51.91,0-77.866,0-3.737,0-3.737,5.796 0,5.796 25.956,0 51.911,0 77.866,0 3.738,.001 3.738-5.796 0-5.796z"/>
<path d="m180.631,113.809c-25.955,0-51.91,0-77.866,0-3.737,0-3.737,5.796 0,5.796 25.956,0 51.911,0 77.866,0 3.738,0 3.738-5.796 0-5.796z"/>
<path d="m180.631,122.114c-25.955,0-51.91,0-77.866,0-3.737,0-3.737,5.796 0,5.796 25.956,0 51.911,0 77.866,0 3.738-0 3.738-5.796 0-5.796z"/>
<path d="m180.631,130.419c-25.955,0-51.91,0-77.866,0-3.737,0-3.737,5.796 0,5.796 25.956,0 51.911,0 77.866,0 3.738,0 3.738-5.796 0-5.796z"/>
<path d="m178.663,97.198c-24.242,0-48.483,0-72.725,0-3.738,0-3.738,5.796 0,5.796 24.242,0 48.482,0 72.725,0 3.737,0 3.737-5.796 0-5.796z"/>
<path d="m178.663,138.725c-24.242,0-48.483,0-72.725,0-3.738,0-3.738,5.796 0,5.796 24.242,0 48.482,0 72.725,0 3.737,0 3.737-5.796 0-5.796z"/>
<path d="m261.805,139.015c1.77,0 3.205-1.229 3.205-2.742v-12.797c0-1.515-1.436-2.743-3.205-2.743h-6.943c-1.77,0-3.205,1.228-3.205,2.743v12.797c0,1.514 1.436,2.742 3.205,2.742h6.943z"/>
<path d="m177.125,170.57c0,1.171-.95,2.121-2.121,2.121h-44.121c-1.172,0-2.122-.95-2.122-2.121v-10.117c0-1.171 .95-2.121 2.122-2.121h44.121c1.171,0 2.121,.949 2.121,2.121v10.117z"/>
<path d="m167.718,149.802h9.624v20.998h-9.624z"/>
<path d="m243.172,247.829c-.295,11.656-8.993,21.199-20.73,22.092-2.415,.184-4.895,.035-7.313,.035-12.871,0-25.743,0-38.615,0-24.031,0-48.062,0-72.093,0-10.83,0-19.418-7.67-21.799-17.989-1.013-4.389-.373-9.656-.373-14.106 0-13.828 0-27.655 0-41.483 0-8.82 4.004-16.265 11.72-20.702 4.184-2.405 8.81-2.591 13.462-2.591 11.598,0 23.197,0 34.795,0 25.979,0 51.958,0 77.936,0 7.632,0 14.578,3.181 19.06,9.483 3.823,5.376 3.95,11.372 3.95,17.614 0,14.425 0,28.851 0,43.275 0,1.458 0,2.915 0,4.372 0,6.448 10,6.448 10,0 0-12.185 0-24.368 0-36.553 0-14.872 1.182-29.69-11.336-40.534-9.236-8.001-20.269-7.659-31.557-7.659-14.201,0-28.401,0-42.602,0-15.271,0-30.541,0-45.812,0-8.707,0-18.415-1.007-26.886,1.398-10.705,3.04-18.717,12.12-21.698,22.621-1.432,5.043-1.033,10.581-1.033,15.775 0,14.212 0,28.424 0,42.636 0,18.334 12.878,34.442 32.172,34.442 8.164,0 16.327,0 24.491,0 28.739,0 57.478,0 86.217,0 5.21,0 10.211,.051 15.313-1.398 13.618-3.867 22.382-16.956 22.73-30.729 .164-6.451-9.836-6.435-9.999,.001z"/>
<path d="m113.195,291.373c7.72,0 15.439,0 23.159,0 6.449,0 6.449-10 0-10-7.72,0-15.439,0-23.159,0-6.449,0-6.449,10 0,10z"/>
<path d="m195.59,291.667c7.72,0 15.438,0 23.158,0 6.448,0 6.448-10 0-10-7.72,0-15.438,0-23.158,0-6.448,0-6.448,10 0,10z"/>
<path d="m81.883,226.775c0,7.002-2.838,12.68-6.339,12.68-3.501,0-6.34-5.678-6.34-12.68v-10.511c0-7.003 2.839-12.679 6.34-12.679 3.501,0 6.339,5.676 6.339,12.679v10.511z"/>
<path d="m273.517,154.578c-.037,15.057-.588,30.458-5.069,44.944-1.364,4.41-3.362,8.813-6.48,12.231-2.783,3.051-5.865,4.254-9.913,4.334-9.672,.191-9.775,15.194-.107,15.004 35.664-.705 36.511-51.155 36.574-76.405 .023-9.687-14.981-9.77-15.005-.108z"/>
<path d="m256.785,243.865c0,2.642-2.143,4.784-4.785,4.784-2.643,0-4.785-2.143-4.785-4.784v-44.689c0-2.643 2.143-4.785 4.785-4.785 2.643,0 4.785,2.143 4.785,4.785v44.689z"/>
<path d="m288.521,149.793c-.341-13.786-9.573-26.516-24.115-27.005-9.693-.327-9.747,14.679-.107,15.003 6.037,.204 9.084,6.432 9.219,11.894 .238,9.668 15.241,9.776 15.003,.108z"/>
<path d="m280.754,162.579c-5.242,0-9.49-2.254-9.49-5.036v-8.445c0-2.781 4.248-5.035 9.49-5.035 5.24,0 9.489,2.254 9.489,5.035v8.445c0,2.781-4.249,5.036-9.489,5.036z"/>
</g>
</svg>
