<svg xmlns="http://www.w3.org/2000/svg" viewBox="20 20 321 321">
<g  stroke="#000" stroke-width="10">
<g fill="none">
<path d="m217.756,285.666c-1.926,0-3.489-2.225-3.489-4.969v-201.628c0-2.744 1.563-4.969 3.489-4.969h13.088c1.928,0 3.49,2.225 3.49,4.969v201.628c0,2.744-1.563,4.969-3.49,4.969h-13.088z"/>
<path d="m98.756,286.166c-1.927,0-3.49-2.225-3.49-4.969v-201.628c0-2.744 1.563-4.969 3.49-4.969h13.088c1.927,0 3.49,2.225 3.49,4.969v201.628c0,2.744-1.563,4.969-3.49,4.969h-13.088z"/>
<path d="m158.756,286.166c-1.927,0-3.49-2.225-3.49-4.969v-201.628c0-2.744 1.563-4.969 3.49-4.969h13.088c1.927,0 3.49,2.225 3.49,4.969v201.628c0,2.744-1.563,4.969-3.49,4.969h-13.088z"/>
</g>
<g fill="#000">
<path d="m93.75,262.928c0,1.926-.199,3.489-.444,3.489h-18.012c-.246,0-.444-1.563-.444-3.489v-13.088c0-1.928 .199-3.49 .444-3.49h18.011c.246,0 .444,1.563 .444,3.49v13.088z"/>
<path d="m154.343,262.594c0,1.928-.402,3.49-.896,3.49h-36.367c-.495,0-.896-1.563-.896-3.49v-13.088c0-1.926 .402-3.489 .896-3.489h36.367c.495,0 .896,1.563 .896,3.489v13.088z"/>
<path d="m214.176,262.761c0,1.927-.401,3.489-.896,3.489h-36.366c-.495,0-.896-1.563-.896-3.489v-13.088c0-1.927 .402-3.489 .896-3.489h36.366c.495,0 .896,1.563 .896,3.489v13.088z"/>
<path d="m234.053,249.006c0-1.926 .185-3.489 .412-3.489h16.741c.228,0 .413,1.563 .413,3.489v13.088c0,1.928-.186,3.49-.413,3.49h-16.741c-.228,0-.412-1.563-.412-3.49v-13.088z"/>
<path d="m93.75,111.594c0,1.927-.199,3.49-.444,3.49h-18.012c-.246,0-.444-1.563-.444-3.49v-13.088c0-1.927 .199-3.49 .444-3.49h18.011c.246,0 .444,1.563 .444,3.49v13.088z"/>
<path d="m154.343,111.261c0,1.927-.402,3.49-.896,3.49h-36.367c-.495,0-.896-1.563-.896-3.49v-13.088c0-1.927 .402-3.49 .896-3.49h36.367c.495,0 .896,1.563 .896,3.49v13.088z"/>
<path d="m214.176,111.427c0,1.927-.401,3.49-.896,3.49h-36.366c-.495,0-.896-1.563-.896-3.49v-13.088c0-1.927 .402-3.49 .896-3.49h36.366c.495,0 .896,1.563 .896,3.49v13.088z"/>
</g>
<path fill="none" d="m286.416,111.302c0,1.927-.199,3.49-.444,3.49h-18.011c-.246,0-.444-1.563-.444-3.49v-13.088c0-1.927 .198-3.49 .444-3.49h18.011c.245,0 .444,1.563 .444,3.49v13.088z"/>
<path fill="#000" d="m234.301,98.248c0-1.927 .184-3.49 .412-3.49h16.74c.229,0 .413,1.563 .413,3.49v13.088c0,1.927-.185,3.49-.413,3.49h-16.74c-.229,0-.412-1.563-.412-3.49v-13.088z"/>
</g>
</svg>
