<svg xmlns="http://www.w3.org/2000/svg" viewBox="20 20 321 321">
<g fill="#000">
<path d="m108.564,193.021c47.1,0 94.2,0 141.301,0 .665,0 1.33,0 1.995,0 6.448,0 6.448-10 0-10-47.101,0-94.201,0-141.301,0-.665,0-1.33,0-1.995,0-6.448,0-6.448,10 0,10z"/>
<path d="m273.73,202.951c-.33-11.312-9.446-19.552-20.57-19.848-6.452-.171-6.436,9.829 0,10 5.595,.148 10.401,4.051 10.57,9.848 .188,6.434 10.189,6.452 10-0z"/>
<path d="m108.564,224.482c47.1,0 94.2,0 141.301,0 .665,0 1.33,0 1.995,0 6.448,0 6.448-10 0-10-47.101,0-94.201,0-141.301,0-.665,0-1.33,0-1.995,0-6.448,0-6.448,10 0,10z"/>
<path d="m263.73,204.553c-.169,5.797-4.976,9.699-10.57,9.848-6.436,.171-6.452,10.171 0,10 11.124-.296 20.24-8.536 20.57-19.848 .189-6.452-9.812-6.434-10,0z"/>
<path d="m253.118,244.93c-47.101,0-94.201,0-141.301,0-.665,0-1.33,0-1.995,0-6.449,0-6.449,10 0,10 47.1,0 94.2,0 141.301,0 .665,0 1.33,0 1.995,0 6.448,0 6.448-10 0-10z"/>
<path d="m87.952,234.998c.331,11.312 9.446,19.553 20.57,19.849 6.453,.171 6.436-9.829 0-10-5.595-.148-10.401-4.052-10.57-9.849-.188-6.434-10.189-6.452-10,0z"/>
<path d="m97.952,234.316c.169-5.797 4.975-9.7 10.57-9.849 6.436-.171 6.453-10.171 0-10-11.125,.296-20.24,8.537-20.57,19.849-.189,6.453 9.812,6.434 10,0z"/>
</g>
<g fill="none"  stroke="#000" stroke-width="10">
<path d="m286.861,266.941c0,3.578-2.719,6.479-6.072,6.479h-199.383c-3.354,0-6.073-2.9-6.073-6.479v-98.796c0-3.578 2.719-6.479 6.073-6.479h199.383c3.354,0 6.072,2.9 6.072,6.479v98.796z"/>
<path d="m125.444,123.525c1.113,0 2.015,.282 2.015,.628v10.905c0,.348-.902,.629-2.015,.629h-39.298c-1.113,0-2.016-.281-2.016-.629v-10.905c0-.346 .903-.628 2.016-.628h39.298z"/>
</g>
<path fill="#000" d="m79.872,125.78c10.167-13.302 20.334-26.605 30.501-39.908-2.878,0-5.756,0-8.635,0 10.167,13.303 20.334,26.605 30.501,39.908 1.439-2.508 2.878-5.016 4.317-7.523-20.334,0-40.668,0-61.003,0-6.449,0-6.449,10 0,10 20.334,0 40.668,0 61.003,0 3.435,0 6.707-4.397 4.317-7.523-10.167-13.303-20.334-26.605-30.501-39.908-2.429-3.178-6.206-3.178-8.635,0-10.167,13.302-20.334,26.605-30.501,39.908-3.916,5.124 4.777,10.096 8.636,5.046z"/>
<path fill="none"  stroke="#000" stroke-width="10" d="m200.443,123.525c1.113,0 2.016,.282 2.016,.628v10.905c0,.348-.902,.629-2.016,.629h-39.297c-1.113,0-2.016-.281-2.016-.629v-10.905c0-.346 .903-.628 2.016-.628h39.297z"/>
<path fill="#000" d="m154.872,125.78c10.167-13.302 20.334-26.605 30.502-39.908-2.878,0-5.756,0-8.635,0 10.167,13.303 20.334,26.605 30.501,39.908 1.439-2.508 2.878-5.016 4.317-7.523-20.334,0-40.668,0-61.003,0-6.449,0-6.449,10 0,10 20.334,0 40.669,0 61.003,0 3.436,0 6.707-4.397 4.317-7.523-10.167-13.303-20.334-26.605-30.501-39.908-2.429-3.178-6.206-3.178-8.635,0-10.167,13.302-20.334,26.605-30.502,39.908-3.916,5.124 4.776,10.096 8.636,5.046z"/>
<path fill="none"  stroke="#000" stroke-width="10" d="m275.443,123.525c1.113,0 2.016,.282 2.016,.628v10.905c0,.348-.902,.629-2.016,.629h-39.297c-1.113,0-2.016-.281-2.016-.629v-10.905c0-.346 .902-.628 2.016-.628h39.297z"/>
<path fill="#000" d="m229.872,125.78c10.167-13.302 20.335-26.605 30.502-39.908-2.878,0-5.757,0-8.635,0 10.167,13.303 20.334,26.605 30.501,39.908 1.439-2.508 2.878-5.016 4.317-7.523-20.334,0-40.669,0-61.003,0-6.448,0-6.448,10 0,10 20.334,0 40.669,0 61.003,0 3.436,0 6.707-4.397 4.317-7.523-10.167-13.303-20.334-26.605-30.501-39.908-2.429-3.178-6.206-3.178-8.635,0-10.167,13.302-20.335,26.605-30.502,39.908-3.917,5.124 4.777,10.096 8.636,5.046z"/>
</svg>
