<svg xmlns="http://www.w3.org/2000/svg" viewBox="20 20 321 321">
<g fill="#000">
<path d="m204.238,286.943c.095-31.259 .188-62.518 .283-93.776 .011-3.45-4.398-6.688-7.523-4.317-38.97,29.556-77.939,59.11-116.908,88.666-2.246,1.703-4.492,3.407-6.738,5.11-3.729,2.828-2.879,9.317 2.523,9.317 41.121,0 82.242,0 123.363,0 6.448,0 6.448-10 0-10-41.121,0-82.242,0-123.363,0 .841,3.105 1.683,6.212 2.523,9.317 38.97-29.556 77.939-59.11 116.908-88.666 2.246-1.703 4.492-3.407 6.738-5.11-2.508-1.439-5.016-2.878-7.523-4.317-.095,31.259-.188,62.518-.283,93.776-.019,6.45 9.981,6.448 10,0z"/>
<path d="m171.56,189.896c-27.915,21.531-55.829,43.063-83.743,64.594-5.029,3.879-.06,12.573 5.047,8.635 27.915-21.531 55.829-43.063 83.743-64.594 5.029-3.88 .06-12.574-5.047-8.635z"/>
</g>
<path fill="none"  stroke="#000" stroke-width="10" d="m92.945,123.484c0,2.466 1.999,4.466 4.466,4.466h25.682c2.467,0 4.466-2 4.466-4.466v-25.682c0-2.467-2-4.466-4.466-4.466h-25.682c-2.467,0-4.466,2-4.466,4.466v25.682z"/>
<g fill="#000">
<path d="m145.041,71.256c-2.644,2.645-5.289,5.289-7.933,7.933-1.926,1.926-1.926,5.145 0,7.071s5.145,1.926 7.071,0c2.644-2.645 5.289-5.289 7.933-7.933 1.926-1.926 1.926-5.145 0-7.071s-5.145-1.926-7.071,0z"/>
<path d="m186.35,105.369c-12.271,0-24.542,0-36.812,0-6.449,0-6.449,10 0,10 12.271,0 24.542,0 36.812,0 6.448,0 6.448-10-0-10z"/>
<path d="m79.036,150.304c2.187-2.187 4.374-4.373 6.561-6.56 1.926-1.926 1.926-5.145 0-7.071-1.927-1.926-5.145-1.926-7.071,0-2.187,2.187-4.374,4.373-6.561,6.56-1.926,1.926-1.926,5.145 0,7.071 1.926,1.926 5.144,1.926 7.071,0z"/>
<path d="m115.802,185.917c0-12.271 0-24.542 0-36.813 0-6.449-10-6.449-10,0 0,12.271 0,24.542 0,36.813 0,6.448 10,6.448 10,0z"/>
<path d="m169.11,162.705c-8.677-8.677-17.354-17.354-26.031-26.031-4.564-4.563-11.635,2.507-7.071,7.071 8.677,8.677 17.354,17.354 26.031,26.031 4.564,4.564 11.635-2.507 7.071-7.071z"/>
</g>
<path fill="none"  stroke="#000" stroke-width="10" d="m268.648,215.92c0,1.859-1.634,3.368-3.648,3.368h-13.379c-2.014,0-3.648-1.509-3.648-3.368v-93.397c0-1.861 1.635-3.369 3.648-3.369h13.379c2.015,0 3.648,1.508 3.648,3.369v93.397z"/>
<g fill="#000">
<path  stroke="#000" stroke-width="10" d="m274.121,244.018c0,2.016-1.28,3.649-2.859,3.649h-25.902c-1.579,0-2.86-1.634-2.86-3.649v-21.08c0-2.015 1.281-3.648 2.86-3.648h25.901c1.579,0 2.859,1.634 2.859,3.648v21.08z"/>
<path d="m276.555,131.451c3.648,0 7.297,0 10.945,0 6.448,0 6.448-10 0-10-3.648,0-7.297,0-10.945,0-6.449,0-6.449,10 0,10z"/>
<path d="m276.555,155.775c3.648,0 7.297,0 10.945,0 6.448,0 6.448-10 0-10-3.648,0-7.297,0-10.945,0-6.449,0-6.449,10 0,10z"/>
<path d="m276.555,180.708c3.648,0 7.297,0 10.945,0 6.448,0 6.448-10 0-10-3.648,0-7.297,0-10.945,0-6.449,0-6.449,10 0,10z"/>
<path d="m276.555,206.855c3.648,0 7.297,0 10.945,0 6.448,0 6.448-10 0-10-3.648,0-7.297,0-10.945,0-6.449,0-6.449,10 0,10z"/>
<path  stroke="#000" stroke-width="10" d="m247.973,185.894h20.676v42.922h-20.676z"/>
</g>
</svg>
