<svg xmlns="http://www.w3.org/2000/svg" viewBox="20 20 321 321">
<g fill="none"  stroke="#000" stroke-width="10">
<path d="m271.5,272c0,3.314-2.687,6-6,6h-170c-3.313,0-6-2.686-6-6v-120c0-3.313 2.687-6 6-6h170c3.313,0 6,2.687 6,6v120z"/>
<path d="m277.833,123.522c0,2.473-2.833,4.478-6.325,4.478h-181.683c-3.493,0-6.325-2.005-6.325-4.478v-7.711c0-2.473 2.833-4.478 6.325-4.478h181.683c3.492,0 6.325,2.005 6.325,4.478v7.711z"/>
<path d="m193.898,106.511c0,2.664-2.16,4.823-4.824,4.823h-17.418c-2.664,0-4.823-2.16-4.823-4.823v-17.687c0-2.664 2.16-4.823 4.823-4.823h17.418c2.664,0 4.824,2.16 4.824,4.823v17.687z"/>
</g>
</svg>
