<svg xmlns="http://www.w3.org/2000/svg" viewBox="20 20 321 321">
<g fill="#000">
<path d="m109.508,153.17c.373,1.846-.822,3.645-2.668,4.017l-5.894,1.188c-1.846,.372-3.645-.823-4.017-2.669l-16.33-80.981c-.373-1.846 .822-3.645 2.669-4.017l5.894-1.188c1.846-.372 3.645,.823 4.017,2.669l16.329,80.981z"/>
<path d="m89.458,119.832c-3.111,18.739-6.222,37.479-9.333,56.218-.733,4.415 6.012,6.306 6.75,1.861 3.111-18.739 6.222-37.479 9.333-56.218 .733-4.415-6.012-6.307-6.75-1.861z"/>
<path d="m78.833,182.48c11,0 22,0 33,0 4.514,0 4.514-7 0-7-11,0-22,0-33,0-4.514,0-4.514,7 0,7z"/>
<path d="m135.836,171.365c13.952,2.354 27.903,4.708 41.855,7.062 1.892,.319 2.702-2.571 .798-2.893-13.952-2.354-27.903-4.708-41.855-7.062-1.892-.319-2.702,2.571-.798,2.893z"/>
<path d="m136.677,170.069c1.808,.305 3.616,.61 5.423,.915 1.892,.319 2.702-2.571 .798-2.893-1.808-.305-3.616-.61-5.423-.915-1.892-.319-2.703,2.572-.798,2.893z"/>
<path d="m146.448,171.718c1.728,.292 3.456,.583 5.184,.875 1.892,.319 2.702-2.571 .798-2.893-1.728-.292-3.456-.583-5.184-.875-1.892-.319-2.703,2.572-.798,2.893z"/>
<path d="m154.834,173.133c1.808,.305 3.616,.61 5.423,.915 1.892,.319 2.702-2.571 .798-2.893-1.808-.305-3.616-.61-5.423-.915-1.892-.319-2.702,2.572-.798,2.893z"/>
<path d="m163.504,174.596c1.698,.287 3.396,.573 5.094,.859 1.892,.319 2.702-2.571 .798-2.893-1.698-.287-3.396-.573-5.094-.859-1.892-.319-2.702,2.571-.798,2.893z"/>
<path d="m171.928,176.017c1.753,.296 3.506,.592 5.259,.888 1.892,.319 2.702-2.571 .798-2.893-1.753-.296-3.506-.592-5.259-.888-1.892-.319-2.702,2.571-.798,2.893z"/>
<path d="m137.735,171.712c-.106,1.83-.213,3.661-.319,5.491-.112,1.934 2.888,1.923 3,0 .106-1.83 .213-3.661 .319-5.491 .113-1.933-2.888-1.922-3,0z"/>
<path d="m216.459,221.753c20.497,0 40.993,0 61.49,0 6.448,0 6.448-10 0-10-20.497,0-40.993,0-61.49,0-6.448,0-6.448,10 0,10z"/>
<path d="m243.55,216.753c0,16.21 0,32.42 0,48.63 0,6.448 10,6.448 10,0 0-16.21 0-32.42 0-48.63 0-6.448-10-6.448-10,0z"/>
<path d="m248.906,262.91c-11.936,4.279-23.872,8.559-35.809,12.838-4.216,1.512-2.398,8.277 1.861,6.75 11.936-4.279 23.872-8.559 35.809-12.838 4.216-1.512 2.399-8.277-1.861-6.75z"/>
<path d="m247.619,269.66c11.937,4.279 23.873,8.559 35.809,12.838 4.26,1.527 6.077-5.238 1.861-6.75-11.937-4.279-23.873-8.559-35.809-12.838-4.259-1.527-6.077,5.238-1.861,6.75z"/>
<path d="m277.479,120.762c-2.384,18.739-4.769,37.479-7.152,56.218-.813,6.385 9.197,6.307 10,0 2.384-18.739 4.769-37.479 7.152-56.218 .812-6.385-9.198-6.306-10-0z"/>
<path d="m270.326,178.981c.874,7.71 1.749,15.42 2.623,23.13 .718,6.332 10.726,6.401 10,0-.874-7.71-1.749-15.42-2.623-23.13-.718-6.332-10.725-6.402-10,0z"/>
<path d="m277.983,88.153c1.254,5.859 2.508,11.719 3.762,17.578 1.349,6.305 10.988,3.63 9.643-2.658-1.254-5.859-2.508-11.719-3.762-17.578-1.349-6.305-10.988-3.63-9.643,2.658z"/>
<path d="m227.958,190.521c12.375,0 24.75,0 37.125,0 4.514,0 4.514-7 0-7-12.375,0-24.75,0-37.125,0-4.514,0-4.514,7 0,7z"/>
<path d="m252.867,187.699c.248,9.608 .496,19.216 .744,28.824 .05,1.931 3.05,1.936 3,0-.248-9.608-.496-19.216-.744-28.824-.05-1.93-3.05-1.935-3,0z"/>
<path d="m214.142,284.667c-.664,0-1.328,0-1.992,0-1.908,0-3.5,1.592-3.5,3.5s1.592,3.5 3.5,3.5c.664,0 1.328,0 1.992,0 1.908,0 3.5-1.592 3.5-3.5s-1.592-3.5-3.5-3.5z"/>
<path d="m285.354,284.667c-.664,0-1.328,0-1.992,0-1.908,0-3.5,1.592-3.5,3.5s1.592,3.5 3.5,3.5c.664,0 1.328,0 1.992,0 1.908,0 3.5-1.592 3.5-3.5s-1.591-3.5-3.5-3.5z"/>
<path d="m75.167,188.123c35.222,0 70.444,0 105.667,0 6.448,0 6.448-10 0-10-35.222,0-70.444,0-105.667,0-6.449,0-6.449,10 0,10z"/>
<path d="m104.163,186.336c0,32.596 0,65.191 0,97.787 0,6.448 10,6.448 10,0 0-32.596 0-65.191 0-97.787 0-6.449-10-6.449-10-0z"/>
<path d="m76.163,186.336c0,32.596 0,65.191 0,97.787 0,6.448 10,6.448 10,0 0-32.596 0-65.191 0-97.787 0-6.449-10-6.449-10-0z"/>
<path d="m75.167,291.834c22.889,0 45.778,0 68.667,0 6.449,0 6.449-10 0-10-22.889,0-45.778,0-68.667,0-6.449,0-6.449,10 0,10z"/>
</g>
</svg>
