<svg xmlns="http://www.w3.org/2000/svg" viewBox="20 20 321 321">
<g fill="#000">
<path d="m218.315,76.793c-15.711,46.928-31.423,93.856-47.135,140.785-1.475,4.405-2.95,8.812-4.425,13.217-3.081,9.202 11.415,13.087 14.47,3.961 15.712-46.928 31.424-93.856 47.135-140.784 1.476-4.406 2.95-8.812 4.426-13.217 3.081-9.203-11.415-13.087-14.471-3.962z"/>
<path d="m222.492,84.017c16.026,10.233 32.052,20.466 48.078,30.699 8.169,5.216 15.634-7.797 7.5-12.99-16.026-10.233-32.052-20.466-48.078-30.699-8.169-5.217-15.634,7.796-7.5,12.99z"/>
<path d="m118,260.668c.453,7.968 5.067,14.191 12.78,16.505 2.473,.741 5.394,.495 7.961,.495 9.903,0 19.807,0 29.71,0 10.065,0 20.13,0 30.196,0 2.357,0 4.806,.154 7.138-.26 8.403-1.49 13.641-8.457 14.111-16.74 .366-6.445-9.636-6.41-10,0-.46,8.104-8.466,7-14.175,7-8.759,0-17.518,0-26.276,0-8.871,0-17.742,0-26.614,0-5.815,0-14.359,1.307-14.832-7-.363-6.41-10.365-6.445-9.999,0z"/>
<path d="m211.439,234.49c.177,4-6.111,3.999-8.518,4.496-3.954,.815-7.908,1.632-11.862,2.447-5.962,1.23-6.354-12.63-7.16-16.535-.887-4.292 17.835-6.095 20.416-6.627 5.971-1.232 6.369,12.698 7.178,16.617 .391,1.895 3.282,1.091 2.893-.797-.902-4.375-1.805-8.749-2.707-13.123-.793-3.843-2.92-6.672-7.299-5.769-5.101,1.053-10.2,2.104-15.3,3.157-4.117,.849-8.379,1.551-8.145,6.857 .196,4.435 1.865,9.178 2.762,13.521 .793,3.843 2.919,6.672 7.298,5.769 5.101-1.053 10.2-2.105 15.3-3.157 4.117-.85 8.379-1.551 8.145-6.857-.086-1.926-3.086-1.933-3.001,.001z"/>
<path d="m131.111,262.038c-3.74-1.246-1.306-7.761-.907-10.196 .628-3.834 1.257-7.667 1.885-11.5 .925-5.642 14.1-1.183 17.8-.576 4.574,.75-.497,18.762-.978,21.695-.925,5.642-14.099,1.184-17.8,.577-1.892-.31-2.703,2.581-.798,2.893 4.614,.756 9.227,1.512 13.84,2.268 3.914,.641 6.968-.774 7.65-4.939 .863-5.267 1.727-10.533 2.589-15.799 .677-4.127 1.121-7.98-3.707-9.587-4.262-1.419-9.404-1.541-13.84-2.269-3.914-.641-6.968,.774-7.65,4.939-.863,5.267-1.727,10.533-2.589,15.799-.677,4.128-1.121,7.979 3.707,9.588 1.841,.613 2.624-2.285 .798-2.893z"/>
<path d="m202.27,259.081c.399,3.903-5.948,4.325-8.331,4.969-3.673,.992-7.347,1.984-11.021,2.977-5.844,1.578-6.939-11.347-8.005-15.294-1.097-4.064 17.268-7.053 19.874-7.757 5.173-1.396 6.621,12.114 7.537,15.504 .504,1.866 3.397,1.073 2.893-.797-1.441-5.338-2.373-19.99-10.832-17.706-4.839,1.307-9.678,2.613-14.517,3.92-3.949,1.066-8.457,1.936-7.922,7.156 .414,4.043 2.18,8.271 3.238,12.188 .978,3.622 2.81,7.223 7.355,5.995 4.937-1.333 9.873-2.666 14.81-3.999 3.949-1.066 8.455-1.937 7.922-7.156-.196-1.905-3.198-1.924-3.001,0z"/>
<path d="m153.991,262.825c-3.656-1.317-1.059-7.87-.611-10.239 .722-3.817 1.444-7.634 2.167-11.451 1.051-5.557 14.193-.782 17.834-.094 4.483,.849-1.011,18.816-1.555,21.691-1.052,5.556-14.195,.782-17.835,.093-1.891-.357-2.697,2.533-.798,2.893 4.594,.869 9.187,1.738 13.78,2.607 3.903,.739 6.967-.687 7.745-4.796 .992-5.243 1.984-10.487 2.976-15.73 .78-4.122 1.272-7.926-3.516-9.65-4.226-1.522-9.363-1.771-13.78-2.607-3.904-.739-6.967,.688-7.745,4.797-.992,5.243-1.984,10.487-2.976,15.73-.78,4.122-1.272,7.925 3.516,9.649 1.825,.657 2.604-2.242 .798-2.893z"/>
<path d="m156.078,221.168c-.473-3.297 5.715-4.213 7.738-4.93 3.129-1.108 6.258-2.217 9.387-3.325 4.784-1.694 6.879,10.31 8.018,13.525 1.269,3.582-14.777,7.423-17.125,8.255-4.785,1.695-6.879-10.308-8.018-13.525-.641-1.811-3.54-1.031-2.893,.797 1.691,4.775 3.67,18.468 11.309,15.763 4.371-1.549 8.742-3.097 13.113-4.646 3.868-1.37 7.21-2.53 6.506-7.44-.546-3.812-2.815-7.948-4.102-11.582-1.156-3.266-3.546-5.478-7.207-4.181-4.371,1.549-8.742,3.097-13.113,4.646-3.868,1.37-7.21,2.53-6.506,7.44 .273,1.909 3.164,1.094 2.893-.797z"/>
<path d="m127.773,225.842c-3.156-2.688 1.583-7.862 2.93-10.08 1.934-3.181 3.867-6.361 5.8-9.542 3.156-5.192 13.478,3.815 16.954,5.929 3.769,2.29-7.542,17.094-8.962,19.43-3.161,5.199-13.537-3.851-17.025-5.971-1.658-1.008-3.164,1.587-1.514,2.59 3.816,2.32 7.633,4.641 11.45,6.96 3.315,2.016 6.904,2.502 9.223-1.313 2.705-4.45 5.41-8.899 8.114-13.35 2.163-3.558 4.632-7.231 .604-10.659-3.381-2.877-7.962-4.891-11.753-7.194-3.315-2.016-6.904-2.503-9.223,1.312-2.705,4.45-5.409,8.899-8.114,13.35-2.163,3.558-4.631,7.231-.604,10.66 1.463,1.246 3.596-.866 2.12-2.122z"/>
<path d="m209.896,281.689c-.081,.6-27.405,0-29.18,0-15.032,0-30.063,0-45.096,0-2.874,0-5.748,0-8.621,0 0,0 0-4.847 0-5.102 0-11.166 0-22.332 0-33.498 0-30.65 0-61.3 0-91.95 0-6.488 0-12.975 0-19.462 0-.018 26.574-.009 28.228-.009 15.134,0 30.267,0 45.401,0 3.084,0 6.168,0 9.252,0 .033,0 .016,4.462 .016,4.716 0,27.071 0,54.142 0,81.213 0,21.364 0,42.728 0,64.092 0,6.448 10,6.448 10,0 0-48.174 0-96.348 0-144.521 0-1.831 0-3.661 0-5.491 0-6.993-6.095-10.009-12.146-10.009-12.935,0-25.87,0-38.805,0-13.147,0-26.295,0-39.442,0-6.138,0-12.503,2.754-12.503,10 0,1.7 0,3.401 0,5.101 0,48.304 0,96.607 0,144.911 0,10.558 10.648,10.009 17.994,10.009 10.986,0 21.971,0 32.957,0 10.893,0 21.786,0 32.678,0 8.367,0 17.788,1.01 19.268-10 .856-6.376-9.155-6.293-10.001,0z"/>
<path d="m127.459,175.667c28.521,0 57.041,0 85.562,0 1.935,0 1.935-3 0-3-28.521,0-57.041,0-85.562,0-1.935,0-1.935,3-0,3z"/>
</g>
</svg>
