<svg xmlns="http://www.w3.org/2000/svg" viewBox="20 20 321 321">
<g fill="none"  stroke="#000" stroke-width="10">
<path d="m286.658,258.416c0,3.453-2.799,6.251-6.251,6.251h-198.63c-3.452,0-6.25-2.798-6.25-6.251v-125.011c0-3.453 2.799-6.25 6.25-6.25h198.63c3.452,0 6.251,2.798 6.251,6.25v125.011z"/>
<path d="m208.703,124.038c0,1.721-1.939,3.117-4.334,3.117h-46.703c-2.393,0-4.333-1.396-4.333-3.117v-15.587c0-1.721 1.94-3.117 4.333-3.117h46.703c2.395,0 4.334,1.396 4.334,3.117v15.587z"/>
<path d="m173.003,202.639"/>
<path d="m186.768,188.875"/>
<path d="m173.003,188.875"/>
</g>
<g fill="#000">
<path d="m97.332,130.613c0,43.111 0,86.222 0,129.333 0,9.686 15.003,9.771 15.003,.107 0-43.11 0-86.222 0-129.333-.001-9.685-15.003-9.771-15.003-.107z"/>
<path d="m250.331,129.613c0,43.111 0,86.222 0,129.333 0,9.686 15.004,9.771 15.004,.107 0-43.11 0-86.222 0-129.333 0-9.685-15.004-9.771-15.004-.107z"/>
<path d="m166.37,168.792c1.396,5.828-6.33,6.635-10.308,7.951-5.478,1.813-10.955,3.625-16.433,5.437-1.923,.637-3.665,1.374-5.566-.112-1.562-1.222-2.04-4.216-2.619-5.968-1.544-4.668-3.089-9.336-4.633-14.005-1.875-5.667 6.705-6.759 10.308-7.951 5.478-1.812 10.955-3.624 16.433-5.437 1.923-.636 3.665-1.374 5.566,.113 1.562,1.221 2.04,4.215 2.619,5.967 1.544,4.669 3.089,9.337 4.633,14.005 1.411,4.264 8.172,2.437 6.75-1.861-3.305-9.989-6.019-30.072-20.952-25.131-6.721,2.224-13.443,4.447-20.164,6.671-6.616,2.189-12.946,4.814-12.388,13.216 .403,6.072 3.897,12.703 5.791,18.426 2.19,6.619 7.383,11.696 14.844,9.228 6.453-2.135 12.907-4.27 19.36-6.405 5.935-1.963 13.145-3.558 13.912-11.108 .176-1.733 .001-3.211-.402-4.896-1.053-4.39-7.803-2.528-6.751,1.86z"/>
</g>
</svg>
