<svg xmlns="http://www.w3.org/2000/svg" viewBox="20 20 321 321">
<g fill="#000">
<path d="m90.869,220.508c-20.669-36.791-7.88-83.569 28.528-104.838 5.563-3.25 .533-11.895-5.047-8.635-41.129,24.026-55.43,77.021-32.116,118.52 3.159,5.621 11.797,.582 8.635-5.047z"/>
<path d="m195.532,248.735c-36.791,20.668-83.569,7.881-104.838-28.528-3.25-5.563-11.895-.533-8.635,5.047 24.027,41.13 77.02,55.429 118.52,32.116 5.621-3.158 .582-11.797-5.047-8.635z"/>
<path d="m111.397,206.933c-8.332-14.849-10.957-32.839-10.377-49.66 .514-14.936 4.494-33.457 18.34-41.704 5.534-3.295 .507-11.942-5.047-8.635-16.49,9.82-21.907,29.915-23.166,47.88-1.344,19.186 2.135,40.271 11.615,57.165 3.156,5.624 11.795,.584 8.635-5.046z"/>
<path d="m195.532,248.735c-14.486,7.937-32.769,.625-45.95-6.655-15.003-8.287-29.465-20.391-38.203-35.313-3.256-5.56-11.9-.53-8.635,5.047 10.077,17.21 26.777,30.864 44.17,40.196 15.974,8.57 36.694,14.657 53.664,5.359 5.657-3.098 .611-11.733-5.046-8.634z"/>
<g  stroke="#000">
<path d="m161.333,136.917c0,1.519-1.231,2.75-2.75,2.75-1.519,0-2.75-1.231-2.75-2.75 0-1.519 1.231-2.75 2.75-2.75 1.519,0 2.75,1.231 2.75,2.75z"/>
<path d="m182.833,95.667c0,2.899-2.351,5.25-5.25,5.25-2.899,0-5.25-2.351-5.25-5.25 0-2.899 2.351-5.25 5.25-5.25 2.899,0 5.25,2.351 5.25,5.25z"/>
<path d="m205.75,139.762c0,2.525-2.047,4.572-4.572,4.572h-1.523c-2.524,0-4.571-2.047-4.571-4.572v-1.523c0-2.525 2.047-4.572 4.571-4.572h1.523c2.525,0 4.572,2.047 4.572,4.572v1.523z"/>
<g stroke-width="10">
<path d="m287.333,216.986c0,4.405-3.204,7.978-7.16,7.978h-55.487c-3.954,0-7.16-3.572-7.16-7.978v-57.841c0-4.406 3.206-7.978 7.16-7.978h55.487c3.956,0 7.16,3.572 7.16,7.978v57.841z"/>
<path d="m182.289,197.041c0,4.405 3.572,7.978 7.979,7.978h37.23c4.406,0 7.979-3.572 7.979-7.978v-22.605c0-4.406-3.572-7.978-7.979-7.978h-37.23c-4.406,0-7.979,3.572-7.979,7.978v22.605z"/>
<path d="m166.333,197.041c0-4.406 3.572-7.979 7.978-7.979h45.874c4.405,0 7.978,3.572 7.978,7.979v12.631c0,4.406-3.572,7.979-7.978,7.979h-45.874c-4.406,0-7.978-3.572-7.978-7.979v-12.631z"/>
</g>
</g>
</g>
</svg>
