<svg xmlns="http://www.w3.org/2000/svg" viewBox="20 20 321 321">
<g fill="#000">
<path d="m197.995,103.641c14.793-1.38 29.587-2.76 44.38-4.14-1.008-.578-2.015-1.156-3.022-1.733 8.483,12.233 16.967,24.467 25.45,36.7 1.597-1.596 3.192-3.192 4.789-4.789-23.276-10.854-46.554-21.707-69.83-32.56-4.064-1.895-7.621,4.138-3.533,6.044 23.276,10.854 46.554,21.707 69.83,32.56 2.871,1.339 6.982-1.625 4.789-4.789-8.483-12.233-16.967-24.467-25.45-36.7-.666-.96-1.758-1.852-3.022-1.733-14.793,1.38-29.587,2.76-44.38,4.14-4.456,.415-4.496,7.419-.001,7z"/>
<path d="m228.595,117.094c-4.36,8.696-8.721,17.392-13.082,26.087-2.017,4.023 4.021,7.569 6.045,3.533 4.36-8.696 8.721-17.392 13.082-26.087 2.016-4.023-4.021-7.568-6.045-3.533z"/>
<path d="m141.747,106.394c12.083,34.497 24.167,68.993 36.251,103.489 2.117,6.045 11.78,3.444 9.643-2.658-12.083-34.497-24.167-68.993-36.251-103.489-2.118-6.045-11.781-3.445-9.643,2.658z"/>
<path d="m239.87,93.524c-5.88,4.3-11.759,8.601-17.639,12.901-3.604,2.635-.117,8.714 3.533,6.044 5.88-4.3 11.759-8.601 17.639-12.901 3.604-2.635 .118-8.714-3.533-6.044z"/>
<path d="m247.668,121.102c-.299-6.574-.598-13.148-.896-19.723-.204-4.495-7.205-4.515-7,0 .299,6.574 .598,13.148 .896,19.723 .204,4.495 7.205,4.515 7,0z"/>
<path d="m184.435,220.58c-15.01-25.998-30.021-51.997-45.031-77.995-1.439,2.508-2.878,5.016-4.317,7.523 30.021,0 60.041,0 90.062,0-1.439-2.508-2.878-5.016-4.317-7.523-15.01,25.998-30.021,51.997-45.03,77.995-3.23,5.595 5.412,10.628 8.635,5.047 15.01-25.998 30.021-51.997 45.03-77.995 1.894-3.28-.512-7.523-4.317-7.523-30.021,0-60.041,0-90.062,0-3.805,0-6.211,4.243-4.317,7.523 15.01,25.999 30.021,51.997 45.031,77.995 3.22,5.581 11.863,.548 8.633-5.047z"/>
<path d="m225.172,281.92c-30.021,0-60.041,.001-90.061,.001 .443,3.273 .886,6.548 1.329,9.821 7.274-1.394 14.548-2.786 21.822-4.18 5.089-.975 10.179-1.949 15.268-2.924 1.815-.348 3.63-.695 5.445-1.043 2.25-.431 2.905,.257-.552-.394 15.14,2.847 30.28,5.693 45.419,8.539 6.302,1.185 8.991-8.452 2.658-9.643-15.148-2.848-30.298-5.696-45.446-8.544-2.523-.475-5.595,.563-8.067,1.036-5.148,.985-10.296,1.972-15.445,2.958-7.92,1.517-15.84,3.033-23.761,4.551-5.654,1.083-4.188,9.821 1.329,9.821 30.021,0 60.041-.001 90.061-.001 6.449,.002 6.449-9.998 .001-9.998z"/>
<path d="m175.015,220.34c0,18.477 0,36.954 0,55.431 0,6.448 10,6.448 10,0 0-18.477 0-36.954 0-55.431 0-6.448-10-6.448-10-0z"/>
<path d="m147.173,98.965c-21.229-6.524-42.459-13.048-63.688-19.571-6.181-1.899-8.803,7.754-2.658,9.643 21.229,6.524 42.459,13.048 63.688,19.571 6.181,1.899 8.803-7.755 2.658-9.643z"/>
</g>
</svg>
