<svg xmlns="http://www.w3.org/2000/svg" viewBox="20 20 321 321">
<g fill="#000">
<path d="m244.501,132.699c0,47.103 0,94.206 0,141.308 0,.665 0,1.33 0,1.995 0,6.448 10,6.448 10,0 0-47.103 0-94.205 0-141.308 0-.665 0-1.33 0-1.995 0-6.449-10-6.449-10,0z"/>
<path d="m281.501,179.001c0,32.333 0,64.667 0,97 0,6.448 10,6.448 10,0 0-32.334 0-64.667 0-97 0-6.448-10-6.448-10,0z"/>
<path d="m257.168,132.35c0,12.32 0,24.639 0,36.959 0,6.449 10,6.449 10,0 0-12.32 0-24.639 0-36.959 0-6.449-10-6.449-10,0z"/>
<path d="m231.5,132.001c0,12.32 0,24.639 0,36.959 0,6.449 10,6.449 10,0 0-12.32 0-24.639 0-36.959 0-6.449-10-6.449-10,0z"/>
<path  stroke="#000" d="m273.168,189.668c0,3.313 2.686,6 6,6h6c3.313,0 6-2.687 6-6v-55.333c0-3.313-2.687-6-6-6h-6c-3.314,0-6,2.687-6,6v55.333z"/>
<path d="m236.501,175.335c8.333,0 16.667,0 25,0 6.448,0 6.448-10 0-10-8.333,0-16.667,0-25,0-6.448,0-6.448,10 0,10z"/>
</g>
<path fill="none"  stroke="#000" stroke-width="10" d="m117.167,104.466c0,2.246-1.821,4.067-4.067,4.067h-25.532c-2.246,0-4.067-1.821-4.067-4.067v-13.104c0-2.246 1.821-4.067 4.067-4.067h25.532c2.246,0 4.067,1.821 4.067,4.067v13.104z"/>
<path fill="#000" d="m119.167,103.001c31.667,0 63.333,0 95,0 6.448,0 6.448-10 0-10-31.667,0-63.333,0-95,0-6.448,0-6.448,10 0,10z"/>
<path fill="none"  stroke="#000" stroke-width="10" d="m220.496,227.567c0,26.94-21.839,48.78-48.779,48.78h-48.434c-26.94,0-48.78-21.84-48.78-48.78v-48.434c0-26.94 21.839-48.78 48.78-48.78h48.434c26.94,0 48.779,21.839 48.779,48.78v48.434z"/>
<path fill="#000" d="m187.246,218.697c-.297,12.455-8.725,22.376-20.838,25.003-5.938,1.288-12.901,.396-18.908,.396-6.169,0-12.791,.631-18.908-.396-12.163-2.042-20.552-12.989-20.838-25.003-.137-5.747 0-11.515 0-17.264 0-6.628-.595-13.495 1.434-19.888 3.285-10.35 13.792-16.942 24.348-16.942 6.563,0 13.126,0 19.689,0 5.796,0 11.475-.345 17.081,1.434 10.283,3.264 16.694,13.531 16.942,23.966 .226,9.554-.002,19.138-.002,28.694 0,4.514 7,4.514 7,0 0-5.755 0-11.509 0-17.264 0-6.379 .428-12.902-.933-19.175-2.191-10.102-10.282-18.958-19.9-22.51-6.599-2.438-13.298-2.145-20.189-2.145-16.113,0-32.948-2.084-44.742,11.416-10.476,11.992-7.729,29.727-7.729,44.439 0,11.563 2.269,21.918 11.416,29.909 8.598,7.511 18.918,7.729 29.607,7.729 9.068,0 18.885,1.004 27.815-.933 14.585-3.164 24.311-17.023 24.655-31.467 .108-4.515-6.892-4.505-7,.001z"/>
</svg>
