<svg xmlns="http://www.w3.org/2000/svg" viewBox="20 20 321 321">
<g fill="#000">
<g  stroke="#000" stroke-width="10">
<path d="m286.833,212.73c0,1.622-2.595,2.937-5.795,2.937h-200.41c-3.2,0-5.795-1.314-5.795-2.937v-17.127c0-1.622 2.595-2.937 5.795-2.937h200.41c3.2,0 5.795,1.314 5.795,2.937v17.127z"/>
<path d="m214.112,184.09c0,3.152-2.901,5.709-6.478,5.709h-119.297c-3.577,0-6.478-2.557-6.478-5.709v-25.214c0-3.153 2.901-5.709 6.478-5.709h119.298c3.576,0 6.478,2.556 6.478,5.709v25.214z"/>
</g>
<path d="m69.833,172.39c0,21.511 0,43.023 0,64.535 0,6.448 10,6.448 10,0 0-21.512 0-43.023 0-64.535 0-6.449-10-6.449-10,0z"/>
<path d="m281.833,144.667c0,31.056 0,62.111 0,93.167 0,6.448 10,6.448 10,0 0-31.056 0-62.111 0-93.167 0-6.449-10-6.449-10,0z"/>
<path d="m222.331,156.113c0,9.333 0,18.667 0,28 0,9.686 15.004,9.771 15.004,.107 0-9.333 0-18.667 0-28 0-9.685-15.004-9.771-15.004-.107z"/>
<path d="m262.887,176.166c-9.333,0-18.666,0-28,0-9.686,0-9.771,15.003-.107,15.003 9.333,0 18.666,0 28,0 9.685,0 9.771-15.003 .107-15.003z"/>
<circle cx="254.167" cy="160.333" r="13.667"/>
</g>
</svg>
