<svg xmlns="http://www.w3.org/2000/svg" viewBox="20 20 321 321">
<g fill="#000">
<path d="m255.407,160.383c2.407,8.41 2.01,16.679 1.79,25.321 .5-.5 1-1 1.5-1.5-19.662,0-39.325,0-58.987,0 .5,.5 1,1 1.5,1.5 .219-8.917 .702-17.471-1.896-26.119-.482,.633-.964,1.266-1.446,1.899 19.662,0 39.324,0 58.986,0 1.935,0 1.935-3 0-3-19.662,0-39.324,0-58.986,0-.958,0-1.729,.96-1.446,1.899 2.513,8.363 2,16.704 1.789,25.321-.021,.817 .697,1.5 1.5,1.5 19.662,0 39.325,0 58.987,0 .833,0 1.479-.683 1.5-1.5 .227-8.931 .588-17.437-1.897-26.119-.532-1.856-3.428-1.066-2.894,.798z"/>
<path d="m271.392,81.26c8.368,.481 9.628,15.443 10.189,21.579 .553,6.032-.048,12.077-1.352,17.983-1.216,5.514-3.489,12.471-10.071,12.471-4.628,0-9.255,0-13.883,0-15.6,0-31.199,0-46.799,0-11.337,0-22.858,.705-34.012-1.661-12.081-2.563-23.65-7.342-35.314-11.295-12.603-4.272-25.462-7.65-38.769-8.654-1.494-.113-3.011,.401-3.495-1.236-.297-1.003-.293-2.095-.318-3.129-.084-3.44 .468-4.256 3.903-4.588 6.88-.664 13.681-2.021 20.384-3.677 12.556-3.102 24.649-7.781 36.928-11.784 9.932-3.238 20.219-6.007 30.738-6.007 3.505,0 7.01,0 10.515,0 15.29,0 30.58,0 45.87,0 8.495-.002 16.99-.002 25.486-.002 1.935,0 1.935-3 0-3-24.661,0-49.323,0-73.984,0-3.119,0-6.238-.02-9.356,.015-11.24,.125-22.275,3.518-32.849,7.014-12.399,4.101-24.622,8.633-37.352,11.646-3.277,.776-6.589,1.393-9.911,1.943-3.202,.53-7.307,.213-10.383,1.218-2.551,.833-2.79,3.992-2.964,6.279-.178,2.33-.046,5.934 1.906,7.585 1.225,1.036 3.445,.638 4.883,.722 4.347,.254 8.661,.901 12.94,1.684 13.113,2.396 25.696,7.063 38.236,11.458 10.719,3.757 21.596,7.402 32.984,8.333 3.527,.288 7.132,.137 10.667,.137 25.04,0 50.08,0 75.12,0 11.854,0 13.313-20.068 13.491-28.44 .191-8.943-1.479-28.904-13.428-29.592-1.934-.113-1.923,2.887-0,2.998z"/>
<path d="m90.583,101.9c1.304,.06 4.001,.281 4.001,2.063 0,1.016 0,2.031 0,3.047 0,1.095 0,2.189 0,3.284 0,2.002-2.373,2.283-4.001,2.358-1.3,.06-4.002-.364-4.002-2.063 0-1.016 0-2.031 0-3.047 0-1.095 0-2.189 0-3.284-.001-2.002 2.373-2.282 4.002-2.358 1.926-.089 1.935-3.089 0-3-2.543,.117-5.612,.793-6.726,3.382-.588,1.368-.277,3.288-.277,4.728 0,1.632-.103,3.283 .125,4.901 .404,2.869 4.666,3.638 6.877,3.74 2.489,.115 5.674-.94 6.724-3.382 .588-1.369 .277-3.288 .277-4.728 0-1.632 .103-3.283-.125-4.902-.404-2.868-4.664-3.638-6.875-3.74-1.936-.088-1.927,2.913 0,3.001z"/>
<path d="m84.397,110.82c0-2.362 0-4.725 0-7.087 0-1.935-3-1.935-3,0 0,2.362 0,4.725 0,7.087 0,1.934 3,1.934 3,0z"/>
<path d="m93.312,144.167c49.517,0 99.034,0 148.55,0 15.49,0 30.98,0 46.471,0 4.514,0 4.514-7 0-7-49.517,0-99.033,0-148.55,0-15.49,0-30.98,0-46.471,0-4.514,0-4.514,7-0,7z"/>
<path d="m93.312,218.5c49.517,0 99.034,0 148.55,0 15.49,0 30.98,0 46.471,0 4.514,0 4.514-7 0-7-49.517,0-99.033,0-148.55,0-15.49,0-30.98,0-46.471,0-4.514,0-4.514,7-0,7z"/>
<path d="m93.113,292.167c49.517,0 99.034,0 148.551,0 15.49,0 30.98,0 46.471,0 4.514,0 4.514-7 0-7-49.517,0-99.034,0-148.551,0-15.49,0-30.98,0-46.471,0-4.514,0-4.514,7 0,7z"/>
<path d="m284.833,75.167c0,48.454 0,96.908 0,145.362 0,22.713 0,45.425 0,68.138 0,4.514 7,4.514 7,0 0-48.454 0-96.908 0-145.362 0-22.712 0-45.425 0-68.138 0-4.514-7-4.514-7-0z"/>
<path d="m220.286,94.864c.735,2.403 1.264,4.852 1.587,7.322 .224,1.934 3.219,1.722 2.975-.389-.345-2.634-.908-5.247-1.692-7.81-.659-2.044-3.473-.995-2.87,.877z"/>
<path d="m222.116,106.995c.056,2.396-.082,4.797-.411,7.177-.295,1.921 2.65,2.508 2.973,.411 .351-2.539 .497-5.1 .438-7.657-.08-2.114-3.073-1.867-3,.069z"/>
<path d="m220.933,118.318c-.132,.561-.275,1.119-.429,1.675-.551,1.878 2.291,2.851 2.891,.8 .165-.594 .317-1.189 .458-1.788 .457-2.078-2.502-2.591-2.92-.687z"/>
<path d="m228.293,98.072c.357,1.836 .615,3.687 .773,5.544 .157,2.245 3.159,2.168 2.989-.254-.167-1.964-.44-3.921-.818-5.864-.502-2.387-3.411-1.638-2.944,.574z"/>
<path d="m229.21,110.146c-.18,4.417-.923,8.815-2.229,13.087-.698,2.167 2.116,3.215 2.869,.877 1.381-4.519 2.167-9.171 2.358-13.842 .063-2.427-2.939-2.371-2.998-.122z"/>
<path d="m236.824,92.739c.738,2.879 1.265,5.798 1.579,8.734 .244,2.656 3.244,2.514 2.983-.319-.33-3.08-.882-6.141-1.656-9.16-.753-2.766-3.613-1.847-2.906,.745z"/>
<path d="m238.737,106.614c.03,1.306 .019,2.613-.035,3.919-.148,2.661 2.84,2.961 2.997,.122 .057-1.369 .068-2.74 .037-4.11-.107-2.84-3.099-2.593-2.999,.069z"/>
<path d="m237.992,117.67c-.446,2.81-1.088,5.597-1.927,8.34-.827,2.566 1.987,3.615 2.869,.877 .879-2.876 1.553-5.799 2.021-8.747 .405-2.82-2.583-3.113-2.963-.47z"/>
<path d="m249.385,112.155c-.328,5.737-1.341,11.445-3.039,16.999-.973,3.019 1.841,4.067 2.869,.877 1.769-5.784 2.823-11.729 3.165-17.704 .141-3.31-2.862-3.304-2.995-.172z"/>
<path d="m254.146,81.231c3.354,.368 4.625,7.16 5.246,9.612 1.354,5.346 1.651,10.941 1.708,16.433 .057,5.518-.513,11.049-1.708,16.434-.543,2.447-1.944,9.25-5.246,9.612-1.901,.209-1.922,3.211 0,3 3.563-.391 5.463-3.749 6.612-6.841 2.628-7.064 3.265-14.723 3.342-22.205 .077-7.417-.743-15.218-3.342-22.204-1.149-3.092-3.05-6.449-6.612-6.84-1.922-.211-1.902,2.79 0,2.999z"/>
<path d="m200.457,81.231c3.354,.368 4.626,7.159 5.247,9.612 1.354,5.346 1.651,10.941 1.708,16.433 .057,5.518-.513,11.049-1.708,16.434-.543,2.448-1.944,9.25-5.247,9.612-1.901,.208-1.922,3.211 0,3 3.563-.391 5.463-3.749 6.613-6.841 2.628-7.064 3.265-14.723 3.342-22.205 .077-7.417-.743-15.218-3.342-22.204-1.15-3.092-3.051-6.449-6.613-6.84-1.922-.211-1.901,2.791 0,2.999z"/>
<path d="m270.051,161.634c7.946,.496 8.877,15.45 9.258,21.22 .426,6.433-.568,13.219-2.738,19.268-2.072,5.777-5.419,6.563-10.651,6.563-6.179,0-12.357,0-18.536,0-15.012,0-30.023,0-45.035,0-3.99,0-7.981,.092-11.961-.26-12.07-1.068-23.768-5.997-35.1-9.955-12.345-4.313-24.839-8.02-37.902-9.288-3.64-.354-5.173,.001-5.283-3.986-.11-3.989 1.91-3.862 5.408-4.261 6.735-.769 13.369-2.241 19.907-4 19.679-5.293 38.659-15.3 59.415-15.3 24.354,0 48.707,0 73.062,0 .05-.001 .103-.001 .156-.001 1.935,0 1.935-3 0-3-24.067,0-48.134,0-72.201,0-18.813,0-35.969,7.555-53.617,13.159-6.166,1.958-12.418,3.604-18.762,4.872-3.771,.754-7.583,1.258-11.407,1.635-1.34,.132-3.016-.002-3.791,1.38-1.455,2.594-1.314,5.83-.877,8.676 .67,4.361 4.452,3.546 7.989,3.825 25.469,2.015 47.812,16.436 73.002,19.243 10.646,1.186 21.811,.26 32.488,.26 14.348,0 28.696,0 43.044,0 3.51,0 6.483,.233 9.429-2.105 5.405-4.29 6.268-13.895 6.846-20.203 .82-8.94-.088-29.989-12.143-30.741-1.933-.122-1.921,2.879 0,2.999z"/>
<path d="m105.613,180.405c1.097,.051 3.503,.219 3.503,1.739 0,.924 0,1.848 0,2.771 0,.996 0,1.991 0,2.987 0,1.731-2.102,1.943-3.503,2.008-1.093,.051-3.504-.288-3.504-1.739 0-.924 0-1.848 0-2.771 0-.996 0-1.991 0-2.987-.001-1.731 2.103-1.943 3.504-2.008 1.926-.089 1.935-3.089 0-3-2.356,.109-5.203,.744-6.234,3.143-.548,1.272-.271,3.026-.271,4.368 0,1.498-.09,3.01 .119,4.494 .377,2.674 4.316,3.405 6.385,3.501 2.307,.106 5.26-.881 6.233-3.143 .547-1.273 .27-3.026 .27-4.368 0-1.498 .09-3.01-.119-4.494-.376-2.673-4.314-3.405-6.384-3.501-1.934-.089-1.925,2.911 .001,3z"/>
<path d="m100.123,188.381c0-2.148 0-4.297 0-6.445 0-1.935-3-1.935-3,0 0,2.148 0,4.297 0,6.445 0,1.934 3,1.934 3,0z"/>
<path d="m269.375,227.744c8.495,.465 9.972,15.137 10.648,21.421 .63,5.841 .283,11.574-.716,17.362-.952,5.516-3.085,15.994-10.305,15.994-3.756,0-7.512,0-11.268,0-24.821,0-49.643,0-74.464,0-11.876,0-23.431-3.833-34.546-7.638-12.504-4.28-24.866-8.91-37.746-11.971-6.104-1.451-12.312-2.407-18.559-2.966-3.455-.31-5.194,.439-5.567-3.376-.214-2.194-.526-5.881 2.174-6.101 13.217-1.075 26.112-4.479 38.694-8.524 18.643-5.993 37.087-14.202 57-14.202 12.215,0 24.429,0 36.644,0 16.005,.001 32.008,.001 48.011,.001 1.935,0 1.935-3 0-3-24.821,0-49.643,0-74.464,0-12.753,0-24.686,.641-37.146,4.142-11.925,3.35-23.482,7.907-35.308,11.58-6.163,1.914-12.407,3.539-18.726,4.849-3.725,.771-7.486,1.344-11.26,1.805-1.884,.23-5.074-.264-6.641,1.056-2.644,2.226-3.617,13.163 .661,14.319 2.36,.638 5.181,.386 7.624,.604 3.768,.337 7.502,.962 11.216,1.667 6.949,1.318 13.767,3.287 20.504,5.421 19.033,6.027 38.031,15.335 58.376,15.335 26.2,0 52.401,0 78.602,0 3.621,0 7.657,.541 10.96-1.211 6.972-3.697 8.331-15.146 9.159-22.008 .814-6.748 .322-13.412-.912-20.088-1.275-6.891-4.205-17.009-12.644-17.471-1.935-.105-1.925,2.895-.001,3z"/>
<path d="m79.545,249.414c1.417,.065 4.275,.315 4.275,2.241 0,1.066 0,2.133 0,3.199 0,1.148 0,2.298 0,3.447 0,2.151-2.523,2.469-4.275,2.55-1.413,.065-4.278-.406-4.278-2.24 0-1.066 0-2.133 0-3.199 0-1.148 0-2.298 0-3.447 0-2.152 2.525-2.47 4.278-2.551 1.926-.089 1.935-3.089 0-3-2.646,.122-5.839,.82-6.998,3.514-.611,1.421-.28,3.433-.28,4.927 0,1.706-.109,3.434 .129,5.126 .419,2.975 4.859,3.766 7.148,3.871 2.59,.119 5.902-.973 6.995-3.514 .611-1.421 .28-3.432 .28-4.926 0-1.706 .109-3.434-.129-5.126-.419-2.975-4.857-3.767-7.146-3.872-1.934-.09-1.925,2.911 .001,3z"/>
<path d="m72.976,258.854c0-2.48 0-4.96 0-7.44 0-1.935-3-1.935-3,0 0,2.48 0,4.96 0,7.44 0,1.934 3,1.934 3,0z"/>
<path d="m265.744,243.285c1.301,7.356 1.088,15.142 .381,22.551-.327,3.428-1.53,16.454-6.488,16.998-1.901,.209-1.922,3.211 0,3 5.765-.633 7.446-8.69 8.457-13.246 2.133-9.604 2.255-20.424 .543-30.1-.336-1.903-3.228-1.093-2.893,.797z"/>
<path d="m211.803,243.285c1.245,7.471 1.353,15.021 .634,22.551-.327,3.427-1.53,16.454-6.487,16.998-1.901,.209-1.922,3.211 0,3 5.322-.585 7.053-7.527 8.139-11.814 2.571-10.152 2.317-21.275 .607-31.531-.318-1.906-3.209-1.095-2.893,.796z"/>
<path d="m213.249,244.387c17.98,0 35.961,0 53.941,0 1.935,0 1.935-3 0-3-17.98,0-35.961,0-53.941,0-1.935,0-1.935,3 0,3z"/>
<path d="m217.825,161.338c1.117,2.143 1.935,4.51 2.382,7.029 .299,2.072 3.3,1.525 2.914-.842-.529-2.782-1.464-5.404-2.735-7.786-1.099-1.92-3.485-.058-2.561,1.599z"/>
<path d="m220.597,172.916c-.003,.635-.028,1.276-.079,1.922-.072,.925 .57,1.742 1.383,1.75 .853,.009 1.602-.888 1.662-1.925 .045-.71 .063-1.417 .056-2.118-.011-1.025-.832-1.694-1.623-1.543-.835,.157-1.394,1-1.399,1.914z"/>
<path d="m226.556,163.954c1.09,3.813 1.496,7.936 1.083,12.161-.361,2.766 2.792,2.597 3.1-.479 .347-4.571-.182-9.031-1.448-13.157-.913-2.684-3.485-.931-2.735,1.475z"/>
<path d="m236.447,163.687c.777,3.479 1.121,7.107 .985,10.799-.24,3.495 2.96,2.733 3.086-1.072 .042-3.93-.421-7.789-1.345-11.484-.981-3.475-3.514-1.443-2.726,1.757z"/>
<path d="m236.445,254.807c.347,2.753 .462,5.479 .362,8.153-.105,2.065 2.855,2.71 2.99,.483 .127-2.817 .027-5.691-.313-8.592-.305-2.327-3.35-2.22-3.039-.044z"/>
<path d="m236.225,268.049c-.356,2.502-.903,4.939-1.623,7.29-.601,1.87 2.115,3.186 2.783,1.162 .777-2.482 1.371-5.055 1.767-7.694 .298-2.199-2.669-2.81-2.927-.758z"/>
<path d="m233.165,279.367c-.219,.535-.447,1.065-.685,1.591-.342,.756-.176,1.655 .557,2.103 .665,.407 1.693,.188 2.065-.621 .255-.554 .5-1.114 .735-1.681 .343-.823 .111-1.777-.665-2.147-.705-.337-1.692-.015-2.007,.755z"/>
<path d="m243.877,260.273c.027,1.982-.049,3.945-.224,5.882-.238,2.312 2.668,3.281 2.954,.81 .203-2.028 .303-4.085 .294-6.163-.042-2.569-3.096-2.947-3.024-.529z"/>
<path d="m242.641,272.825c-.948,4.422-2.42,8.643-4.351,12.575-.997,1.968 1.401,3.853 2.499,1.744 2.069-4.127 3.654-8.554 4.691-13.188 .511-2.423-2.388-3.411-2.839-1.131z"/>
<path d="m253.392,257.688c.153,3.089 .092,6.15-.175,9.162-.271,2.691 2.614,3.889 2.944,1.036 .313-3.135 .414-6.323 .292-9.542-.148-2.963-3.248-3.47-3.061-.656z"/>
<path d="m252.546,272.056c-.223,1.306-.482,2.6-.782,3.88-.257,1.108-.004,2.292 .773,2.72 .706,.389 1.717-.146 2.003-1.311 .326-1.333 .613-2.68 .86-4.039 .217-1.185-.166-2.413-.992-2.74-.753-.298-1.671,.36-1.862,1.49z"/>
<path d="m249.754,282.804c-.698,1.973-1.489,3.901-2.371,5.781-1.131,2.339 1.192,4.404 2.436,1.926 .942-1.955 1.791-3.963 2.544-6.018 .938-2.66-1.759-4.218-2.609-1.689z"/>
</g>
</svg>
