<svg xmlns="http://www.w3.org/2000/svg" viewBox="20 20 321 321">
<g fill="#000">
<path d="m287.333,181.167c-30.139,0-60.276,0-90.415,0-4.514,0-4.514,7 0,7 30.139,0 60.276,0 90.415,0 4.514,0 4.514-7 0-7z"/>
<path d="m282.333,280.667c-.256,2.534-26.718,1-29.19,1-14.766,0-29.531,0-44.297,0-1.003,0-7.513,.851-7.513-1.047 0-2.55 0-5.1 0-7.65 0-13.694 0-27.389 0-41.083 0-15.443 0-30.886 0-46.328 0-4.735 0-9.471 0-14.206 0-1.563-.611-4.186 1.582-4.186 25.266,0 50.53,0 75.796,0 1.657,0 3.622-.436 3.622,1.732 0,3.078 0,6.157 0,9.235 0,12.938 0,25.875 0,38.813 0,21.241 0,42.481 0,63.72 0,6.448 10,6.448 10,0 0-23.852 0-47.702 0-71.554 0-12.333 0-24.667 0-37 0-3.865 .178-7.604-2.489-10.836-3.447-4.179-8.054-4.11-12.887-4.11-24.853,0-49.705,0-74.558,0-12.849,0-11.066,14.22-11.066,22.828 0,14.641 0,29.282 0,43.923 0,14.757 0,29.515 0,44.272 0,8.649-1.989,23.477 11.017,23.477 24.702,0 49.405,0 74.107,0 1.604,0 3.207,0 4.81,0 6.439,0 10.464-5.02 11.066-11 .646-6.415-9.359-6.353-10,0z"/>
<path d="m238.583,177.167c3.833,0 7.667,0 11.5,0 4.514,0 4.514-7 0-7-3.833,0-7.667,0-11.5,0-4.514,0-4.514,7 0,7z"/>
<path d="m263.333,177.167c2.5,0 5,0 7.5,0 4.514,0 4.514-7 0-7-2.5,0-5,0-7.5,0-4.514,0-4.514,7 0,7z"/>
<path d="m271.208,241.104c-.334,16.106-12.978,28.748-29.083,29.082s-28.758-13.479-29.082-29.082c-.334-16.106 13.479-28.758 29.082-29.082 16.106-.334 28.759,13.478 29.083,29.082 .094,4.508 7.094,4.517 7,0-.414-19.949-16.134-35.668-36.083-36.082-19.947-.414-35.681,16.757-36.082,36.082-.414,19.947 16.757,35.681 36.082,36.082 19.947,.414 35.682-16.757 36.083-36.082 .094-4.517-6.906-4.508-7-0z"/>
<path d="m260.883,241.104c-.313,10.461-8.297,18.444-18.758,18.758-10.459,.313-18.458-8.768-18.757-18.758-.313-10.458 8.767-18.459 18.757-18.758 10.458-.314 18.459,8.767 18.758,18.758 .135,4.504 7.136,4.517 7,0-.43-14.331-11.427-25.328-25.758-25.758-14.325-.429-25.347,12.073-25.757,25.758-.429,14.325 12.072,25.348 25.757,25.758 14.325,.429 25.348-12.073 25.758-25.758 .136-4.517-6.865-4.504-7,0z"/>
<path d="m287.453,102.167c-47.691-.034-95.762-1.933-142.921-9.475-15.026-2.403-30.048-5.427-44.559-10.062-8.101-2.587-17.366-5.696-23.665-11.688-3.269-3.109-8.226,1.833-4.95,4.95 6.664,6.338 15.878,9.795 24.423,12.718 14.787,5.058 30.28,8.093 45.669,10.633 48.133,7.945 97.296,9.889 146.003,9.923 4.515,.004 4.514-6.996 0-6.999z"/>
<path d="m187,96.917c0,3.833 0,7.667 0,11.5 0,4.514 7,4.514 7,0 0-3.833 0-7.667 0-11.5 0-4.514-7-4.514-7,0z"/>
<path d="m145.913,93.167c0,3.833 0,7.667 0,11.5 0,4.514 7,4.514 7,0 0-3.833 0-7.667 0-11.5 0-4.514-7-4.514-7,0z"/>
<path d="m111.333,83.054c0,3.833 0,7.667 0,11.5 0,4.514 7,4.514 7,0 0-3.833 0-7.667 0-11.5 0-4.514-7-4.514-7,0z"/>
<path d="m88.043,77.417c0,3.833 0,7.667 0,11.5 0,4.514 7,4.514 7,0 0-3.833 0-7.667 0-11.5 0-4.514-7-4.514-7,0z"/>
<path d="m256.866,114.269c-.832-5.055-6.03-5.716-10.283-5.716-5.676,0-11.353,0-17.029,0-4.422,0-8.843,0-13.265,0-5.771,0-8.244,3.455-8.244,8.645 0,4.475 .513,9.276-.017,13.715-.325,2.724-2.888,11.137 1.692,12.062 4.595,.928 9.753,.256 14.425,.256 5.422,0 4.843-4.946 4.843-8.949-.5,.5-1,1-1.5,1.5 3.329,0 6.659,0 9.988,0-.5-.5-1-1-1.5-1.5 0,4.002-.58,8.949 4.842,8.949 3.149,0 6.299,0 9.448,0 2.18,0 4.273,.308 6.155-.96 3.332-2.246 .498-9.462 .498-12.687 0-4.972 0-9.944 0-14.917 0-1.935-3-1.935-3,0 0,6.958-.267,13.873 .558,20.777 .192,1.611 1.244,4.786-1.4,4.786-2.207,0-4.414,0-6.621,0-2.017,0-4.033,0-6.05,0-2.174,0-1.43-4.642-1.43-5.949 0-.818-.683-1.5-1.5-1.5-3.329,0-6.659,0-9.988,0-.817,0-1.5,.682-1.5,1.5 0,1.554 0,3.107 0,4.661 0,1.898-3.693,1.288-4.653,1.288-1.617,0-11.556,1.149-11.227-1.613 .862-7.228 .937-14.13 .937-21.42 0-4.254 2.841-5.645 6.835-5.645 3.891,0 7.782,0 11.674,0 4.598,0 9.194,0 13.792,0 3.257,0 9.894-.946 10.628,3.514 .313,1.906 3.204,1.095 2.892-.797z"/>
<path d="m236.273,117.823c2.206,.356 1.479,3.647 1.479,5.095 0,2.403 0,4.807 0,7.209 0,2.34-1.074,2.693-3.253,2.693-2.044,0-4.088,0-6.132,0-2.183,0-1.154-11.201-1.154-12.712 0-3.628 6.884-2.232 9.459-2.232 1.935,0 1.935-3 0-3-4.409,0-12.459-1.688-12.459,4.838 0,3.298 0,6.596 0,9.894 0,2.826 .286,5.611 3.681,6.158 2.609,.421 5.518,.054 8.157,.054 2.763,0 4.701-1.675 4.701-4.518 0-3.405 0-6.81 0-10.215 0-2.825-.287-5.61-3.682-6.158-1.891-.304-2.703,2.586-.797,2.894z"/>
<path d="m209.545,117.727c15.292,0 30.583,0 45.875,0 1.935,0 1.935-3 0-3-15.292,0-30.583,0-45.875,0-1.935,0-1.935,3 0,3z"/>
<path d="m103.194,120.402c.107,3.015-3.144,4.57-5.416,2.527-.396-.356-.791-.711-1.187-1.067-1.374-1.236-2.749-2.472-4.123-3.708-2-1.799-3.76-3.205-3.76-6.062 0-6.458 0-12.917 0-19.375 0-2.248 5.518-1.613 5.483-.541-.119,3.73-.119,7.466 .046,11.194 .128,2.902 .286,5.494 2.042,7.855 2.166,2.913 5.913,6.052 6.968,9.575 .553,1.848 3.449,1.061 2.893-.798-1.265-4.223-5.577-7.85-8.062-11.383-1.276-1.814-.859-5.388-.926-7.515-.088-2.829-.045-5.664 .027-8.492 .109-4.235-3.305-4.196-6.589-4.196-3.813,0-4.881,1.822-4.881,5.345 0,5.051 0,10.103 0,15.154 0,2.83-.634,6.446 1.648,8.614 2.797,2.657 5.621,5.514 8.697,7.838 4.765,3.6 10.366,1.387 10.141-4.966-.069-1.928-3.07-1.935-3.001,.001z"/>
</g>
<path fill="none"  stroke="#000" d="m44.239,121.792"/>
<g fill="#000">
<path d="m126.807,126.289c.107,3.015-3.144,4.57-5.416,2.527-.396-.356-.791-.711-1.187-1.067-1.374-1.236-2.749-2.472-4.123-3.708-2-1.799-3.76-3.205-3.76-6.062 0-6.458 0-12.917 0-19.375 0-2.248 5.518-1.613 5.483-.541-.119,3.73-.119,7.466 .046,11.194 .128,2.902 .286,5.494 2.042,7.855 2.166,2.913 5.913,6.052 6.968,9.575 .553,1.848 3.449,1.061 2.893-.798-1.265-4.223-5.577-7.85-8.062-11.383-1.276-1.814-.859-5.388-.926-7.515-.088-2.829-.045-5.664 .027-8.492 .109-4.235-3.305-4.196-6.589-4.196-3.813,0-4.881,1.822-4.881,5.345 0,5.051 0,10.103 0,15.154 0,2.83-.634,6.446 1.648,8.614 2.797,2.657 5.621,5.514 8.696,7.838 4.766,3.6 10.367,1.387 10.141-4.966-.068-1.928-3.069-1.935-3,.001z"/>
<path d="m145.287,261.436c-.69,3.675-4.743,2.893-6.355,.573-1.016-1.46-2.031-2.92-3.046-4.38-1.4-2.014-3.586-4.253-2.975-6.853 1.368-5.822 2.735-11.644 4.103-17.466 .584-2.485 5.682-.099 5.576,.284-.993,3.574-1.833,7.198-2.423,10.86-.422,2.618-.418,4.453 .614,6.838 1.37,3.164 4.243,7.057 4.454,10.541 .116,1.922 3.117,1.934 3,0-.248-4.103-3.212-8.394-4.863-12.056-1.91-4.235 .935-11.09 2.111-15.386 1.089-3.976-3.681-4.519-6.3-5.134-3.524-.827-4.63,1.42-5.319,4.354-1.087,4.626-2.174,9.253-3.26,13.879-.816,3.473-1.445,5.699 .794,8.919 2.372,3.41 4.557,7.668 7.797,10.331 3.824,3.145 8.246-.563 8.987-4.51 .353-1.888-2.538-2.695-2.895-.794z"/>
<path d="m149.752,249.971c-.171,3.778 1.923,6.771 5.812,6.976 3.058,.161 6.208-3.66 8.279-5.522 2.245-2.019 5.656-4.22 6.337-7.321 .596-2.711 .058-6.066 .058-8.813 0-2.778 .234-5.377-2.99-6.249-2.313-.626-6.081-.407-7.809,1.321-.822,.822-.65,2.09-.604,3.131 .122,2.79-.828,4.597-2.427,6.652-2.175,2.797-5.584,5.95-6.603,9.428-.545,1.86 2.35,2.649 2.893,.797 1.287-4.393 6.221-7.223 8.134-11.328 .899-1.931 1.262-4.814 .879-6.938 .082,.451 5.526-1.165 5.526,.663 0,4.094 1.31,10.238-1.869,13.258-1.404,1.334-2.886,2.595-4.327,3.891-.765,.687-1.529,1.374-2.293,2.062-2.205,1.982-6.161,1.638-5.996-2.005 .087-1.938-2.913-1.93-3-.003z"/>
<path d="m136.394,263.494c.102,6.85 .203,14.341 .304,21.189 .057,3.862 7.057,3.867 7,0-.102-6.849-.159-10.776-.261-17.625-.057-3.862-2.14-2.433-7.043-4.277v.713z"/>
<path d="m153.476,236.359c-.227,3.883-.454,7.764-.681,11.646-.129,2.207-.258,4.414-.387,6.621-.607,10.381-1.213,20.762-1.82,31.142-.245,4.195 6.756,4.174 7,0 .647-11.076 1.141-19.512 1.788-30.588 .257-4.392-7.089,1.521-6.833-2.869 .368-6.299 7.874-14.949 7.933-15.951 .245-4.196-6.756-4.172-7-.001z"/>
<path d="m90.509,236.716c1.032,16.827 2.064,33.654 3.096,50.481 .275,4.483 7.277,4.511 7,0-1.032-16.827-2.064-33.654-3.096-50.481-.275-4.484-7.277-4.511-7,0z"/>
<path d="m121.587,236.531c.102,16.833 .203,33.667 .304,50.5 .027,4.513 7.027,4.516 7,0-.102-16.833-.203-33.667-.304-50.5-.027-4.512-7.027-4.515-7,0z"/>
<path d="m107.114,236.531c.102,16.611 .203,33.222 .304,49.833 .027,4.513 7.027,4.516 7,0-.102-16.611-.203-33.222-.304-49.833-.027-4.512-7.027-4.515-7-0z"/>
<path d="m144.06,234.044c0,0-.572,2.04-1.194,4.672 2.735,0 5.469,0 8.203,0 2.857,0 5.714,0 8.571,0 .112-.181 .2-.335 .229-.432 1.177-3.839 .705-5.909 .705-5.909 0-.232 .048-.453 .125-.659-6.096,0-12.193,0-18.289,0l.243,.058c1.016,.238 1.645,1.254 1.407,2.27z"/>
<path d="m173.895,231.716c-1.649,0-3.299,0-4.948,0 .077,.206 .125,.427 .125,.659v6.341c.52,0 1.04,0 1.56,0 .872,0 1.745,0 2.617,0 .221,0 .441,0 .663,0-2.127,12.45-4.329,24.896-6.882,37.265-.493,2.387-1.011,4.769-1.587,7.137-.143,.586-.306,1.166-.467,1.747-24.121,0-48.241,0-72.362,0-2.304,0-4.608,0-6.912,0-.216-.774-.413-1.556-.603-2.337-.807-3.316-1.478-6.667-2.148-10.013-1.568-7.819-2.987-15.668-4.382-23.519-.506-2.845-1.003-5.69-1.496-8.537-.101-.581-.2-1.162-.3-1.743 19.155,0 38.31,0 57.465,0l1.554-6.614c.032-.137 .08-.265 .138-.386-13.771,0-27.542,0-41.312,0-5.089,0-10.179,0-15.268,0-4.059,0-8.423,.155-9.673,4.985-.902,3.488 1.251,9.115 1.847,12.493 1.375,7.798 2.794,15.589 4.316,23.358 1.039,5.306 1.757,11.081 3.741,16.143 1.332,3.4 4.009,3.169 7.071,3.169 13.563,0 27.126,0 40.69,0 13.012,0 26.022,0 39.034,0 .493,.122 1.048,.11 1.66-.071 .907-.168 1.574-.656 2.018-1.298 2.247-2.493 2.62-7.483 3.221-10.253 1.66-7.653 3.063-15.365 4.461-23.07 1.056-5.813 2.079-11.633 3.077-17.457 .799-4.684-2.043-7.999-6.918-7.999z"/>
<path d="m170.345,128.167c-.333-11.598-9.587-20.096-21.021-20.404-1.936-.052-1.931,2.948 0,3 9.777,.264 17.735,7.461 18.021,17.404 .056,1.931 3.056,1.936 3,0z"/>
<path d="m167.345,128.167c.049,1.925 1.281,3.728 3.326,3.811 .817,.033 1.5-.708 1.5-1.5 0-.843-.683-1.467-1.5-1.5-.175-.009-.16-.006 .045,.01-.161-.051-.151-.042 .027,.027-.071-.037-.139-.078-.205-.124 .281,.185-.008-.045-.058-.101 .104,.134 .108,.129 .012-.015-.215-.349 .071,.26-.068-.14-.029-.091-.053-.183-.073-.275 .07,.297-.005-.151-.006-.192-.021-.817-.667-1.5-1.5-1.5-.802-.001-1.521,.682-1.5,1.499z"/>
<path d="m146.777,109.004c7.965,0 15.929,0 23.894,0 1.935,0 1.935-3 0-3-7.965,0-15.929,0-23.894,0-1.935,0-1.935,3 0,3z"/>
<path d="m145.277,107.504c-.002,.146-.066,.613 .018,.016-.034,.242-.071,.483-.098,.726-.048,.435 .071,.885 .281,1.263 .655,1.179 2.285,1.224 3.456,1.231 1.935,.011 1.934-2.989 0-3-.271-.001-.541-.008-.812-.025-.087-.006-.175-.015-.262-.024 .384,.04 .052,0-.029-.017-.057-.013-.114-.028-.17-.045-.285-.083 .329,.164 .097,.04-.127-.082-.072-.037 .167,.135-.174-.15 .226,.343 .12,.151 .11,.293 .146,.37 .106,.23 .112,.427 .038,.375 .036,.212-.002-.137 .057-.5-.025,.088 .045-.326 .109-.651 .114-.981 .013-.818-.692-1.5-1.5-1.5-.827-0-1.486,.683-1.499,1.5z"/>
<path d="m173.907,128.167c.286-9.943 8.244-17.141 18.021-17.404 1.931-.052 1.936-3.052 0-3-11.435,.309-20.688,8.806-21.021,20.404-.055,1.936 2.945,1.931 3,0z"/>
<path d="m170.907,128.167c0,.101-.005,.201-.015,.301 .018-.156 .01-.146-.024,.031-.023,.09-.052,.18-.085,.267 .102-.292-.065,.08-.091,.121 .109-.128 .108-.129-.003-.003-.257,.288 .239-.133-.075,.073-.15,.079-.138,.079 .037-.001-.347,.13 .307,.007-.068,.022-.817,.033-1.5,.657-1.5,1.5 0,.792 .683,1.533 1.5,1.5 2.044-.083 3.276-1.886 3.326-3.811 .021-.818-.698-1.5-1.5-1.5-.835,0-1.481,.683-1.502,1.5z"/>
<path d="m194.476,106.004c-7.965,0-15.929,0-23.894,0-1.935,0-1.935,3 0,3 7.965,0 15.929,0 23.894,0 1.934,0 1.934-3 0-3z"/>
<path d="m192.976,107.504c.005,.311 .061,.619 .106,.926 .029,.197-.041-.472-.019-.082 .021,.365 .063-.26 .025-.119 .086-.327 .206-.41 .456-.593-.272,.199 .357-.099-.035,.015-.061,.016-.122,.03-.184,.042-.359,.076 .359-.034-.061,.009-.313,.032-.631,.035-.946,.037-1.934,.011-1.936,3.011 0,3 1.234-.007 2.667-.071 3.429-1.192 .241-.353 .338-.828 .313-1.25-.014-.241-.059-.481-.095-.72-.037-.252 .053,.425 .023,.168-.009-.08-.013-.16-.014-.241-.014-.817-.672-1.5-1.5-1.5-.806-0-1.512,.682-1.498,1.5z"/>
<path d="m245.92,99.292c0,3.833 0,7.667 0,11.5 0,4.514 7,4.514 7,0 0-3.833 0-7.667 0-11.5 0-4.514-7-4.514-7,0z"/>
<path d="m211.833,98.542c0,3.833 0,7.667 0,11.5 0,4.514 7,4.514 7,0 0-3.833 0-7.667 0-11.5 0-4.514-7-4.514-7,0z"/>
</g>
</svg>
