<svg xmlns="http://www.w3.org/2000/svg" viewBox="20 20 321 321">
<g fill="#000">
<g  stroke="#000" stroke-width="10">
<path d="m214.112,197.09c0,3.152-2.901,5.709-6.478,5.709h-119.297c-3.577,0-6.478-2.557-6.478-5.709v-25.214c0-3.153 2.901-5.709 6.478-5.709h119.298c3.576,0 6.478,2.556 6.478,5.709v25.214z"/>
<path d="m286.833,238.73c0,1.622-2.595,2.937-5.795,2.937h-200.41c-3.2,0-5.795-1.314-5.795-2.937v-17.127c0-1.622 2.595-2.937 5.795-2.937h200.41c3.2,0 5.795,1.314 5.795,2.937v17.127z"/>
</g>
<path d="m69.833,97.667c0,49.694 0,99.388 0,149.082 0,5.392 0,10.784 0,16.176 0,6.448 10,6.448 10,0 0-49.694 0-99.388 0-149.082 0-5.392 0-10.784 0-16.176 0-6.449-10-6.449-10-0z"/>
<path d="m281.833,97.667c0,49.628 0,99.257 0,148.886 0,5.761 0,11.521 0,17.281 0,6.448 10,6.448 10,0 0-49.629 0-99.257 0-148.886 0-5.76 0-11.521 0-17.281 0-6.449-10-6.449-10,0z"/>
<path d="m222.331,169.113c0,9.333 0,18.667 0,28 0,9.686 15.004,9.771 15.004,.107 0-9.333 0-18.667 0-28 0-9.685-15.004-9.771-15.004-.107z"/>
<path d="m262.887,189.665c-11,0-22,0-33,0-9.686,0-9.771,15.004-.107,15.004 11,0 22,0 33,0 9.685,0 9.771-15.004 .107-15.004z"/>
<circle cx="254.167" cy="173.333" r="13.667"/>
<path  stroke="#000" stroke-width="10" d="m214.779,138.089c0,3.153-2.9,5.709-6.479,5.709h-119.296c-3.577,0-6.478-2.556-6.478-5.709v-25.213c0-3.153 2.901-5.709 6.478-5.709h119.297c3.578,0 6.479,2.556 6.479,5.709v25.213z"/>
<path d="m222.998,110.113c0,9.333 0,18.667 0,28 0,9.687 15.004,9.772 15.004,.108 0-9.333 0-18.667 0-28 0-9.686-15.004-9.772-15.004-.108z"/>
<path d="m263.554,130.666c-11,0-22,0-33,0-9.686,0-9.771,15.003-.107,15.003 11,0 22,0 33,0 9.685-.001 9.771-15.003 .107-15.003z"/>
<circle cx="254.833" cy="114.333" r="13.667"/>
<path d="m207.025,145.667c-23.5,0-47,0-70.5,0-13.254,0-26.509,0-39.764,0-2.302,0-4.604,0-6.905,0-11.193,0-9.497-11.75-9.497-19.271 0-7.596-2.208-18.245 7.183-20.977 2.456-.714 5.748-.252 8.246-.252 12.928,0 25.855,0 38.784,0 24.136,0 48.272,0 72.409,0 11.222,0 9.53,11.721 9.53,19.271 0,8.208 2.254,20.563-9.486,21.229-1.923,.109-1.934,3.109 0,3 7.753-.439 12.485-5.632 12.485-13.232 0-6.848 0-13.695 0-20.542 0-7.131-5.122-12.725-12.497-12.725-2.301,0-4.603,0-6.904,0-29.089,0-58.177,0-87.266,0-7.666,0-15.333,0-22.999,0-7.771,0-12.486,5.94-12.486,13.232 0,6.848 0,13.695 0,20.542 0,7.131 5.122,12.725 12.497,12.725 2.302,0 4.604,0 6.905,0 13.254,0 26.509,0 39.764,0 23.5,0 47,0 70.5,0 1.936,0 1.936-3 .001-3z"/>
<path d="m206.576,204.732c-23.5,0-47,0-70.5,0-13.254,0-26.509,0-39.764,0-2.302,0-4.604,0-6.905,0-11.193,0-9.497-11.75-9.497-19.271 0-7.596-2.208-18.245 7.183-20.977 2.456-.714 5.748-.252 8.246-.252 12.928,0 25.855,0 38.784,0 24.136,0 48.272,0 72.409,0 11.222,0 9.53,11.721 9.53,19.271 0,8.209 2.253,20.564-9.486,21.229-1.923,.109-1.934,3.109 0,3 7.753-.439 12.485-5.633 12.485-13.232 0-6.848 0-13.695 0-20.542 0-7.131-5.122-12.725-12.497-12.725-2.301,0-4.603,0-6.904,0-29.089,0-58.177,0-87.266,0-7.666,0-15.333,0-22.999,0-7.771,0-12.486,5.94-12.486,13.232 0,6.848 0,13.695 0,20.542 0,7.132 5.123,12.726 12.497,12.726 2.302,0 4.604,0 6.905,0 13.254,0 26.509,0 39.764,0 23.5,0 47,0 70.5,0 1.936-.001 1.936-3.001 .001-3.001z"/>
</g>
</svg>
