<svg xmlns="http://www.w3.org/2000/svg" viewBox="20 20 321 321">
<path fill="#000" d="m232.125,206.247c-.478,2.962-6.077,1.696-8.178,1.696-6.092,0-12.183,0-18.273,0-15.987,0-31.974,0-47.961,0-9.095,0-18.189,0-27.284,0-1.732,0-.817-26.674-.817-28.7 0-15.408 0-30.816 0-46.225 0-3.636 0-7.272 0-10.908 0-1.799 5.531-1.01 6.492-1.01 28.298,0 56.596,0 84.895,0 2.86,0 11.001-1.779 11.001,2.246 0,8.817 0,17.635 0,26.453 0,19.126 0,38.251 0,57.377 0,4.514 7,4.514 7,0 0-24.95 0-49.9 0-74.851 0-7.657 1.602-18.226-9.273-18.226-11.396,0-22.79,0-34.186,0-15.703,0-31.405,0-47.108,0-4.979,0-9.959,0-14.938,0-4.022,0-9.715,.373-10.54,5.487-1.521,9.429-.342,19.76-.342,29.271 0,15.485 0,30.971 0,46.456 0,7.399-2.13,19.628 8.784,19.628 10.924,0 21.848,0 32.771,0 15.807,0 31.613,0 47.419,0 5.246,0 10.493,0 15.739,0 3.62,0 8.379,.375 10.373-3.48 .639-1.234 .953-1.977 1.176-3.354 .712-4.414-6.032-6.307-6.75-1.86z"/>
<path fill="none"  stroke="#000" stroke-width="10" d="m252.334,278.443c0,4.727-3.808,8.557-8.504,8.557h-125.993c-4.697,0-8.504-3.83-8.504-8.557v-175.218c0-4.727 3.807-8.558 8.504-8.558h125.993c4.696,0 8.504,3.831 8.504,8.558v175.218z"/>
<g fill="#000">
<path d="m215.833,186.939c-.22,9.557-4.267,18.828-12.979,23.47-8.386,4.468-18.644,.202-24.585-6.229-7.159-7.748-6.807-18.934-.818-27.062 4.849-6.582 7.624-12.74 10.051-20.54 .447-1.439 .901-2.875 1.381-4.304 .238-.707 .502-1.405 .789-2.094 .787-1.864 .578-.088-.735-1.137 3.059,2.442 4.473,7.862 5.331,11.43 .677,2.81 1.352,9.766 6.025,7.045 3.037-1.769 4.652-6.232 6.257-9.159 .45-.696 .147-.495-.908,.603 .704,.735 1.385,1.492 2.041,2.271 1.884,2.162 3.164,4.822 4.368,7.397 2.662,5.695 3.673,12.077 3.782,18.309 .034,1.933 3.034,1.936 3,0-.193-11.048-3.455-21.902-11.07-30.099-3.679-3.96-5.732,3.813-7.44,6.339-.873,1.292-1.771,2.539-2.444,.376-.868-2.792-1.088-5.689-2.096-8.479-.974-2.695-2.674-7.073-5.32-8.623-3.898-2.284-7.214,13.645-7.824,15.446-1.625,4.799-3.94,8.706-7.013,12.701-2.824,3.671-5.343,7.658-5.685,12.414-.73,10.154 3.932,19.089 12.506,24.512 7.358,4.654 16.685,4.77 24.056,.252 8.392-5.142 12.115-15.45 12.331-24.839 .044-1.935-2.957-1.931-3.001-0z"/>
<path d="m205.129,197.306c-.267,6.816-3.982,13.846-11.499,14.279-6.663,.385-11.969-5.709-12.645-11.865-.612-5.581 4.195-9.02 6.323-13.619 1.356-2.933 1.666-8.633 3.965-10.891-.605,.078-1.212,.156-1.817,.235 3.773,1.653 1.344,11.367 6.103,11.367 1.269,0 2.319-1.211 2.966-2.157 .564-.827 1.064-1.678 1.545-2.557 .176-.321 1.24-1.725 .479-1.212-.605-.079-1.212-.157-1.817-.235 4.417,4.601 6.22,10.358 6.397,16.655 .054,1.931 3.055,1.936 3,0-.198-7.089-2.316-13.611-7.277-18.776-.444-.462-1.271-.602-1.817-.235-.83,.558-3.329,4.918-3.339,4.888-.911-2.858-1.358-8.854-4.726-10.329-.632-.277-1.294-.279-1.817,.235-1.501,1.474-1.946,4.09-2.544,6.01-1.208,3.875-2.563,7.251-5.042,10.496-4.189,5.479-5.037,12.822-.523,18.525 4.006,5.063 10.319,7.634 16.635,5.782 7.016-2.058 10.192-9.975 10.451-16.596 .075-1.936-2.926-1.928-3.001,0z"/>
<path d="m174.751,203.894c-8.446,11.624-26.546,.192-20.351-12.375 1.463-2.968 4.045-5.148 5.315-8.273 1.135-2.793 1.659-8.417 3.814-10.533-.606,.078-1.212,.156-1.817,.235 4.18,1.827 1.503,9.93 5.366,12.078 2.812,1.563 3.632-.848 5.931-1.295 1.898-.369 1.092-3.261-.798-2.893-.547,.106-.98,.544-1.409,.869-2.462,1.872-3.032-2.009-3.355-3.686-.418-2.172-1.961-6.676-4.222-7.665-.632-.276-1.293-.28-1.817,.235-1.255,1.232-1.679,3.269-2.193,4.882-1.065,3.343-1.994,6.672-3.92,9.644-3.647,5.625-6.364,9.451-4.181,16.456 1.669,5.358 6.714,9.028 11.986,10.24 5.826,1.339 10.936-1.857 14.241-6.406 1.14-1.568-1.464-3.062-2.59-1.513z"/>
<path d="m176.047,175.007c-6.147,.545-8.474-7.004-10.08-11.66-.495-1.436-1.59-6.811-4.243-5.257-1.586,.929-2.577,3.287-3.358,4.81-.71,1.384-1.21,2.875-1.686,4.35-.105,.325-1.386,5.715-1.444,5.666-2.125-1.799-2.584-6.517-5.177-7.544-.475-.188-1.122,.033-1.459,.386-8.726,9.108-12.288,23.583-7.798,35.546 1.781,4.745 5.215,8.68 9.596,11.169 5.278,3 10.616,1.772 15.888-.438 1.756-.736 .986-3.641-.798-2.893-6.835,2.867-12.595,2.819-18.055-2.726-5.943-6.034-6.23-15.375-4.723-23.155 .77-3.976 2.414-7.705 4.462-11.172 .519-.686 1.038-1.371 1.557-2.057 1.429-.824 1.371-1.58-.174-2.268 .366,.494 .615,1.121 .898,1.663 1.079,2.068 2.643,5.833 5.139,6.585 2.55,.77 3.609-1.653 4.124-3.706 .892-3.561 1.492-6.713 3.368-9.969 .176-.272 .352-.544 .527-.817 1.081-.899 .781-1.24-.901-1.022 .43,.62 .623,1.481 .868,2.185 2.178,6.259 5.123,16.064 13.47,15.324 1.91-.169 1.927-3.171-.001-3z"/>
<path d="m186.103,159.478c-3.252-4.815-4.974-10.216-6.677-15.726-1.092-3.533-1.849-7.878-4.203-10.846-1.604-2.022-3.575,.816-4.417,1.986-3.696,5.134-4.251,10.939-5.964,16.796-.831,2.838-4.593-4.464-5.204-5.612-.631-1.184-1.575-4.324-3.48-3.799-1.853,.51-3.744,3.752-4.865,5.178-1.914,2.435-3.317,5.329-4.631,8.117-2.82,5.985-3.967,12.458-4.079,19.033-.033,1.936 2.967,1.933 3,0 .113-6.664 1.46-12.829 4.301-18.86 1.487-3.155 3.353-6.072 5.625-8.715 1.575-1.832 .503-1.445 .232-1.91 .251,.432 .474,.882 .705,1.325 1.387,2.653 4.731,10.776 8.975,9.05 2.261-.92 2.667-4.121 2.997-6.175 .566-3.52 1.644-6.762 3.226-9.96 .508-1.027 1.126-1.995 1.751-2.953 1.068-1.635-.356-1.506 .034-.861 2.208,3.651 2.967,8.651 4.258,12.679 1.45,4.521 3.158,8.82 5.824,12.768 1.078,1.592 3.677,.093 2.592-1.515z"/>
<path d="m224,257.838c-1.247-15.46-19.737-12.004-30.567-12.004-13.932,0-27.864,0-41.796,0-6.528,0-13.265,3.265-13.858,10.624-.516,6.395-.111,12.941-.111,19.354 0,7.424 3.547,14.688 12.087,14.688 4.129,0 8.259,0 12.389,0 15.962,0 31.925,0 47.888,0 7.333,0 13.97-4.15 13.97-12.251-.002-6.804-.002-13.607-.002-20.411 0-4.514-7-4.514-7,0 0,6.212 0,12.424 0,18.636 0,3.33-.828,7.026-5.087,7.026-1.391,0-2.781,0-4.172,0-14.645,0-29.29,0-43.935,0-4.603,0-9.205,0-13.807,0-7.513,0-5.333-12.038-5.333-16.828 0-5.223-1.61-13.838 5.989-13.838 5.255,0 10.51,0 15.766,0 10.479,0 20.959,0 31.439,0 4.951,0 18.541-2.418 19.14,5.004 .36,4.468 7.363,4.502 7-0z"/>
<path d="m225.333,161.667c0,6.339 0,12.678 0,19.018 0,1.935 3,1.935 3,0 0-6.339 0-12.678 0-19.018 0-1.935-3-1.935-3,0z"/>
<path d="m227.833,163.167c1.167,0 2.333,0 3.5,0 1.935,0 1.935-3 0-3-1.167,0-2.333,0-3.5,0-1.935,0-1.935,3 0,3z"/>
<path d="m200.559,92.166c0,1.565-1.282,2.834-2.863,2.834h-34.391c-1.581,0-2.862-1.269-2.862-2.834v-19.998c0-1.565 1.282-2.834 2.862-2.834h34.391c1.581,0 2.863,1.269 2.863,2.834v19.998z"/>
</g>
</svg>
