<svg xmlns="http://www.w3.org/2000/svg" viewBox="20 20 321 321">
<g fill="#000">
<path d="m268.5,280c-.23,2.29-14.844,1-16.432,1-13.176,0-26.353,0-39.529,0-30.983,0-61.967,0-92.951,0-8.058,0-16.116,0-24.175,0-1.59,0-2.247-.405-2.247-2.09 0-3.65 0-7.301 0-10.951 0-29.623 0-59.246 0-88.869 0-1.914-1.453-17.09 1.367-17.09 6.941,0 13.882,0 20.823,0 30.504,0 61.008,0 91.512,0 20.17,0 40.34,0 60.51,0 2.364,0 1.121,17.56 1.121,19.281 0,15.397 0,30.795 0,46.192 .001,17.509 .001,35.018 .001,52.527 0,6.448 10,6.448 10,0 0-23.464 0-46.928 0-70.392 0-13.234 0-26.468 0-39.702 0-2.298 0-4.596 0-6.895 0-6.541-5.52-11.011-11.744-11.011-51.773,0-103.547,0-155.321,0-5.753,0-11.507,0-17.26,0-12.867,0-11.008,14.455-11.008,23.041 0,29.623 0,59.246 0,88.869 0,6.982-2.431,21.284 5.122,25.383 5.493,2.98 13.547,1.707 19.559,1.707 29.124,0 58.247,0 87.371,0 18.337,0 36.675,0 55.013,0 10.112,0 26.842,3.156 28.269-11 .645-6.415-9.36-6.353-10.001,0z"/>
<path d="m274.563,146.775c-2.323,5.038-14.145-1.235-17.662-2.39-12.154-3.991-24.308-7.981-36.462-11.972-30.034-9.861-60.069-19.723-90.104-29.584-9.521-3.126-19.041-6.251-28.561-9.377-1.557-.511-3.114-1.022-4.671-1.534-3.229-1.061 0-7.578 .601-9.407 .659-2.006 1.722-3.871 4.287-3.029 19.651,6.452 39.302,12.904 58.953,19.356 27.074,8.889 54.147,17.779 81.222,26.668 8.915,2.927 17.83,5.854 26.745,8.781 1.989,.653 3.979,1.307 5.969,1.959 4.095,1.345 .188,8.758-.669,11.364-1.412,4.301 5.349,6.129 6.75,1.861 2.25-6.853 5.902-15.414-2.838-19.443-1.459-.672-3.057-1.082-4.578-1.582-9.084-2.982-18.168-5.965-27.252-8.948-29.914-9.822-59.828-19.644-89.742-29.466-17.708-5.814-35.417-11.628-53.125-17.442-9.408-3.089-12.164,7.121-14.319,13.684-1.859,5.662 1.335,10.816 6.781,12.604 6.848,2.249 13.697,4.498 20.545,6.746 50.384,16.543 100.769,33.086 151.153,49.629 5.207,1.71 10.546,.421 13.021-4.946 1.876-4.069-4.156-7.627-6.044-3.532z"/>
<g  stroke="#000">
<path d="m107.453,95.137-11.91-3.911 13.984-9.092 11.91,3.911z"/>
<path d="m132.789,103.455-11.91-3.911 13.984-9.091 11.909,3.911z"/>
<path d="m157.388,111.882-11.91-3.91 13.983-9.092 11.911,3.911z"/>
<path d="m182.827,119.885-11.91-3.911 13.983-9.091 11.911,3.91z"/>
<path d="m207.424,127.785-11.91-3.91 13.983-9.092 11.91,3.911z"/>
<path d="m232.97,135.998-11.91-3.911 13.983-9.091 11.91,3.91z"/>
<path d="m260.629,145.254-11.91-3.91 13.983-9.092 11.91,3.911z"/>
</g>
<path d="m271,173.084c-.367,3.325-4.354,2.5-6.358,2.5-3.957,0-7.914,0-11.871,0-13.274,0-26.548,0-39.821,0-31.123,0-62.246,0-93.369,0-8.216,0-16.431,0-24.647,0-4.86,0-3.683-6.351-3.683-9.707 0-4.043 2.808-3.626 5.42-3.626 24.661,0 49.321,0 73.982,0 24.006,0 48.012,0 72.018,0 7.212,0 14.423,0 21.634,0 1.394,0 2.787,0 4.181,0 3.848-.001 2.514,8.727 2.514,10.833 0,4.514 7,4.514 7,0 0-6.56 1.056-16.594-7.929-17.675-1.81-.218-3.606-.159-5.43-.159-9.901,0-19.803,0-29.704,0-31.605,0-63.21,0-94.815,0-12.069,0-24.139,0-36.208,0-7.415,0-16.363-1.64-19.388,7.194-.944,2.757-.277,6.671-.277,9.513 0,4.117 1.626,8.338 5.789,9.891 2.307,.861 4.529,.735 6.931,.735 9.58,0 19.16,0 28.74,0 31.539,0 63.079,0 94.618,0 12.326,0 24.651,0 36.977,0 6.807,0 15.517,1.668 19.634-5.095 .804-1.319 .898-2.92 1.063-4.405 .494-4.483-6.512-4.435-7.001,.001z"/>
<g  stroke="#000">
<path d="m99.949,175.417-12.536,0 10.45-13 12.535,0z"/>
<path d="m126.615,175.417-12.535,0 10.449-13 12.536,0z"/>
<path d="m152.615,175.75-12.535,0 10.449-13 12.536,0z"/>
<path d="m179.282,175.417-12.536,0 10.45-13 12.535,0z"/>
<path d="m205.115,175.25-12.535,0 10.449-13 12.535,0z"/>
<path d="m231.948,175.084-12.536,0 10.45-13 12.536,0z"/>
<path d="m261.115,175.25-12.536,0 10.45-13 12.535,0z"/>
</g>
</g>
</svg>
