<svg xmlns="http://www.w3.org/2000/svg" viewBox="20 20 321 321">
<path fill="none"  stroke="#000" stroke-width="10" d="m114.321,182.378c0-3.098 2.69-5.609 6.009-5.609h121.828c3.318,0 6.008,2.512 6.008,5.609v98.959c0,3.098-2.689,5.609-6.008,5.609h-121.828c-3.318,0-6.009-2.512-6.009-5.609v-98.959z"/>
<g fill="#000">
<path d="m115.958,266.805c22.558,0 45.117,0 67.675,0 6.448,0 6.448-10 0-10-22.558,0-45.117,0-67.675,0-6.449,0-6.449,10 0,10z"/>
<path d="m119.13,239.693c21.501,0 43.002,0 64.503,0 6.448,0 6.448-10 0-10-21.501,0-43.002,0-64.503,0-6.449,0-6.449,10 0,10z"/>
<path d="m119.13,212.582c21.501,0 43.002,0 64.503,0 6.448,0 6.448-10 0-10-21.501,0-43.002,0-64.503,0-6.449,0-6.449,10 0,10z"/>
<path d="m139.873,171.967c0-5.637 0-11.274 0-16.911 0-3.558 0-7.116 0-10.673 0-1.095 0-2.19 0-3.285 0-2.169-.348,.856-.006-.216-.526,1.652 1.163-1.928 1.58-2.602 1.036-1.673 2.187-3.274 3.344-4.863 2.471-3.395 5.246-6.607 8.157-9.63 .566-.587 1.158-1.148 1.754-1.705 1.662-1.551-1.083,.676 .409-.375 1.178-.83-3.44,.461-2.142,.461 1.873,0 3.746,0 5.619,0 14.594,0 29.188,0 43.781,0 1.661,0 3.323,0 4.984,0 1.392,0-3.292-1.238-1.986-.436-1.627-1 .129,.149 .419,.407 .834,.741 1.606,1.552 2.38,2.355 2.702,2.805 5.18,5.845 7.499,8.97 1.173,1.58 2.282,3.207 3.344,4.863 .441,.688 .849,1.395 1.251,2.105 .222,.4 .432,.808 .629,1.221-.372-.964-.436-1.086-.191-.364-.523-1.642-.141-1.409-.141-.301 0,1.095 0,2.19 0,3.285 0,3.558 0,7.115 0,10.673 0,5.637 0,11.274 0,16.911 0,9.686 15.004,9.772 15.004,.108 0-5.637 0-11.274 0-16.911 0-5.484 .918-11.836-.287-17.254-1.662-7.47-8.481-14.613-13.226-20.249-3.717-4.415-8.481-10.389-14.791-10.389-13.32,0-26.642,0-39.963,0-4.792,0-9.585,0-14.377,0-6.781,0-12.089,7.406-15.963,12.093-3.794,4.59-7.72,9.484-10.375,14.849-1.695,3.425-1.707,6.491-1.707,10.168 0,9.194 0,18.389 0,27.583-.002,9.69 15.001,9.776 15.001,.112z"/>
</g>
</svg>
