<svg xmlns="http://www.w3.org/2000/svg" viewBox="20 20 321 321">
<g fill="#000">
<path d="m180.744,155.583-.244-81 106.801,81z"/>
<path d="m185.744,155.583c-.081-27-.163-54-.244-81-2.508,1.439-5.016,2.878-7.523,4.317 35.59,26.992 71.18,53.984 106.77,80.976 .011,.008 .021,.016 .031,.024 .841-3.106 1.683-6.211 2.523-9.317-35.519,0-71.038,0-106.557,0-6.449,0-6.449,10 0,10 35.519,0 71.038,0 106.557,0 5.402,0 6.252-6.489 2.523-9.317-35.59-26.992-71.18-53.984-106.77-80.976-.011-.008-.021-.016-.031-.024-3.125-2.371-7.534,.868-7.523,4.317 .082,27 .163,54 .244,81 .02,6.448 10.02,6.45 10,0z"/>
<path d="m180.256,155.583 .244-80.999-106.801,80.999z"/>
<path d="m185.256,155.583c.081-27 .163-54 .244-81 .011-3.45-4.397-6.688-7.523-4.317-35.59,26.992-71.18,53.984-106.77,80.976-.011,.008-.021,.016-.031,.023-3.729,2.828-2.879,9.317 2.523,9.317 35.519,0 71.038,0 106.557,0 6.448,0 6.448-10 0-10-35.519,0-71.038,0-106.557,0 .841,3.106 1.683,6.211 2.523,9.317 35.59-26.992 71.18-53.984 106.77-80.976 .011-.008 .021-.016 .031-.023-2.508-1.439-5.016-2.878-7.523-4.317-.082,27-.163,54-.244,81-.02,6.45 9.98,6.448 10,0z"/>
</g>
<path fill="none"  stroke="#000" stroke-width="10" d="m268.5,278.988c0,3.919-3.927,7.096-8.771,7.096h-157.791c-4.844,0-8.771-3.177-8.771-7.096v-129.381c0-3.918 175.333-3.918 175.333,0v129.381z"/>
<g fill="#000">
<path d="m223.579,232.146c.454-1.167-1.264,1.553-1.789,2.145-1.674,1.884-3.587,3.548-5.536,5.136-6.084,4.958-13.542,8.214-21.056,10.248-8.529,2.309-17.691,2.919-26.466,2.026-3.993-.406-11.583-1.666-13.313-6.087-1.832-4.681 4.841-8.597 8.029-10.421 7.522-4.303 16.668-6.124 25.22-6.787 7.92-.614 16.027-.188 23.833,1.271 2.896,.541 5.745,1.321 8.503,2.356 .886,.332 1.715,.859 2.51,1.362 1.145,.725-.225-.06 .065-1.249-1.525,6.265 8.117,8.922 9.643,2.658 4.011-16.468-31.402-16.744-40.178-16.601-15.773,.258-46.003,5.395-47.914,25.488-.703,7.397 5.77,12.912 11.937,15.34 10.119,3.982 21.475,3.401 32.036,1.981 11.318-1.521 22.147-5.67 31.417-12.357 4.894-3.531 10.447-8.056 12.702-13.852 2.341-6.018-7.331-8.599-9.643-2.657z"/>
<path d="m137.458,270.336c.019-11.392 16.976-18.05 25.523-21.306 20.313-7.737 42.541-10.396 64.135-10.997 6.435-.179 6.452-10.18 0-10-23.756,.66-48.271,3.753-70.42,12.783-12.349,5.035-29.213,14.064-29.239,29.52-.009,6.449 9.991,6.448 10.001,0z"/>
<path d="m139.234,209.688v-37.14h22.5v6.12h-15.12v8.34h13.14v6.119h-13.14v10.44h16.44v6.12h-23.82z"/>
<path d="m183.215,210.467c-5.241,0-9.24-1.68-12-5.039-2.76-3.36-4.14-8.14-4.14-14.34 0-3.08 .42-5.82 1.26-8.221 .84-2.4 2.01-4.429 3.51-6.09 1.5-1.659 3.279-2.919 5.34-3.78 2.06-.86 4.31-1.29 6.75-1.29 1.319,0 2.51,.111 3.569,.33 1.061,.22 1.99,.471 2.791,.75 .799,.28 1.47,.58 2.01,.9 .54,.321 .949,.561 1.23,.72l-1.92,5.88c-.922-.6-2.031-1.11-3.33-1.53-1.301-.42-2.791-.63-4.471-.63-1.16,0-2.29,.21-3.39,.63-1.101,.42-2.081,1.121-2.94,2.1-.86,.98-1.56,2.291-2.1,3.93-.54,1.641-.81,3.682-.81,6.121 0,4.24 .729,7.49 2.19,9.75 1.459,2.26 3.849,3.389 7.17,3.389 1.92,0 3.511-.219 4.771-.659s2.27-.88 3.029-1.32l1.86,5.82c-1.04,.64-2.45,1.229-4.229,1.771-1.781,.538-3.831,.808-6.15,.808z"/>
<path d="m197.074,191.088c0-6.4 1.18-11.23 3.541-14.49 2.359-3.26 5.639-4.89 9.84-4.89 4.359,0 7.68,1.63 9.959,4.89 2.281,3.26 3.42,8.09 3.42,14.49s-1.16,11.23-3.479,14.49c-2.32,3.26-5.601,4.889-9.84,4.889-4.36,0-7.69-1.629-9.99-4.889s-3.451-8.09-3.451-14.49zm7.5,0c0,1.8 .07,3.49 .211,5.07 .139,1.58 .42,2.949 .84,4.109s1.01,2.08 1.77,2.76c.76,.681 1.779,1.02 3.061,1.02 1.238,0 2.25-.339 3.029-1.02 .78-.68 1.381-1.609 1.801-2.79 .42-1.179 .699-2.55 .84-4.11 .139-1.56 .209-3.239 .209-5.039 0-1.801-.07-3.49-.209-5.07-.141-1.58-.42-2.949-.84-4.109s-1.012-2.08-1.771-2.761c-.761-.68-1.78-1.02-3.06-1.02-1.281,0-2.301,.34-3.061,1.02-.76,.681-1.35,1.611-1.77,2.79-.42,1.18-.701,2.55-.84,4.109-.139,1.56-.21,3.24-.21,5.041z"/>
</g>
</svg>
