<svg xmlns="http://www.w3.org/2000/svg" viewBox="20 20 321 321">
<g fill="#000">
<path d="m180.744,155.583-.244-81 106.801,81z"/>
<path d="m185.744,155.583c-.081-27-.163-54-.244-81-2.508,1.439-5.016,2.878-7.523,4.317 35.59,26.992 71.18,53.984 106.77,80.976 .011,.008 .021,.016 .031,.024 .841-3.106 1.683-6.211 2.523-9.317-35.519,0-71.038,0-106.557,0-6.449,0-6.449,10 0,10 35.519,0 71.038,0 106.557,0 5.402,0 6.252-6.489 2.523-9.317-35.59-26.992-71.18-53.984-106.77-80.976-.011-.008-.021-.016-.031-.024-3.125-2.371-7.534,.868-7.523,4.317 .082,27 .163,54 .244,81 .02,6.448 10.02,6.45 10,0z"/>
<path d="m180.256,155.583 .244-80.999-106.801,80.999z"/>
<path d="m185.256,155.583c.081-27 .163-54 .244-81 .011-3.45-4.397-6.688-7.523-4.317-35.59,26.992-71.18,53.984-106.77,80.976-.011,.008-.021,.016-.031,.023-3.729,2.828-2.879,9.317 2.523,9.317 35.519,0 71.038,0 106.557,0 6.448,0 6.448-10 0-10-35.519,0-71.038,0-106.557,0 .841,3.106 1.683,6.211 2.523,9.317 35.59-26.992 71.18-53.984 106.77-80.976 .011-.008 .021-.016 .031-.023-2.508-1.439-5.016-2.878-7.523-4.317-.082,27-.163,54-.244,81-.02,6.45 9.98,6.448 10,0z"/>
</g>
<path fill="none"  stroke="#000" stroke-width="10" d="m268.5,278.988c0,3.919-3.927,7.096-8.771,7.096h-157.791c-4.844,0-8.771-3.177-8.771-7.096v-129.381c0-3.918 175.333-3.918 175.333,0v129.381z"/>
<g fill="#000">
<circle cx="180.982" cy="176.576" r="9.53"/>
<path d="m180.982,186.33c-5.379,0-9.755-4.376-9.755-9.754s4.376-9.755 9.755-9.755 9.754,4.376 9.754,9.755-4.375,9.754-9.754,9.754zm0-19.058c-5.13,0-9.304,4.174-9.304,9.304 0,5.129 4.173,9.303 9.304,9.303 5.13,0 9.303-4.174 9.303-9.303 0-5.13-4.173-9.304-9.303-9.304z"/>
<path d="m170.875,230.65c0,13.086 0,26.173 0,39.26 0,5.243 8.122,5.289 8.122,.058 0-13.087 0-26.173 0-39.259 0-5.244-8.122-5.289-8.122-.059z"/>
<path d="m183.055,230.65c0,13.086 0,26.173 0,39.26 0,5.243 8.122,5.289 8.122,.058 0-13.087 0-26.173 0-39.259-0-5.244-8.122-5.289-8.122-.059z"/>
<path d="m191.215,231.396c0,2.609-2.115,4.723-4.723,4.723h-11.021c-2.608,0-4.723-2.113-4.723-4.723v-37.918c0-2.608 2.114-4.723 4.723-4.723h11.021c2.607,0 4.723,2.114 4.723,4.723v37.918z"/>
<path d="m192.305,193.943c0,5.545 0,11.088 0,16.633 0,3.781 5.864,3.781 5.864,0 0-5.545 0-11.088 0-16.633 0-3.781-5.864-3.781-5.864,0z"/>
<path d="m192.305,210.576c0,5.545 0,11.089 0,16.633 0,3.781 5.864,3.781 5.864,0 0-5.544 0-11.088 0-16.633 0-3.781-5.864-3.781-5.864,0z"/>
<path d="m163.795,193.943c0,5.545 0,11.088 0,16.633 0,3.781 5.864,3.781 5.864,0 0-5.545 0-11.088 0-16.633 0-3.781-5.864-3.781-5.864,0z"/>
<path d="m163.795,210.576c0,5.545 0,11.089 0,16.633 0,3.781 5.864,3.781 5.864,0 0-5.544 0-11.088 0-16.633 0-3.782-5.864-3.782-5.864,0z"/>
</g>
</svg>
