<svg xmlns="http://www.w3.org/2000/svg" viewBox="20 20 321 321">
<g fill="#000">
<path d="m226.951,186.014c0,14.32 0,28.641 0,42.961 0,6.448 10,6.448 10,0 0-14.32 0-28.641 0-42.961 0-6.449-10-6.449-10,0z"/>
<path d="m216.926,194.655c4.175,2.41 8.35,4.821 12.524,7.231 5.595,3.23 10.628-5.412 5.047-8.635-4.175-2.41-8.35-4.821-12.524-7.231-5.595-3.23-10.628,5.413-5.047,8.635z"/>
<path d="m241.785,186.021c-4.175,2.41-8.35,4.821-12.523,7.231-5.581,3.223-.548,11.865 5.047,8.635 4.175-2.41 8.35-4.821 12.523-7.231 5.581-3.223 .548-11.866-5.047-8.635z"/>
<path d="m192.072,211.316c12.402,7.16 24.804,14.321 37.206,21.481 5.595,3.23 10.628-5.412 5.047-8.635-12.401-7.16-24.804-14.321-37.206-21.481-5.595-3.23-10.628,5.413-5.047,8.635z"/>
<path d="m194.614,224.306c4.175-2.41 8.35-4.821 12.524-7.231 5.581-3.223 .548-11.865-5.047-8.635-4.175,2.41-8.35,4.821-12.524,7.231-5.581,3.223-.547,11.865 5.047,8.635z"/>
<path d="m199.521,198.459c0,4.82 0,9.642 0,14.462 0,6.448 10,6.448 10,0 0-4.82 0-9.642 0-14.462 0-6.448-10-6.448-10,0z"/>
<path d="m197.214,254.249c12.402-7.16 24.804-14.321 37.206-21.481 5.581-3.223 .548-11.865-5.047-8.635-12.402,7.16-24.805,14.321-37.206,21.481-5.581,3.223-.548,11.865 5.047,8.635z"/>
<path d="m209.687,258.594c0-4.82 0-9.641 0-14.461 0-6.448-10-6.448-10,0 0,4.82 0,9.641 0,14.461 0,6.448 10,6.448 10,0z"/>
<path d="m189.732,241.382c4.175,2.411 8.35,4.821 12.525,7.232 5.595,3.23 10.628-5.412 5.047-8.635-4.175-2.411-8.35-4.821-12.525-7.232-5.594-3.23-10.628,5.412-5.047,8.635z"/>
<path d="m236.902,271.566c0-14.32 0-28.641 0-42.961 0-6.448-10-6.448-10,0 0,14.32 0,28.641 0,42.961 0,6.449 10,6.449 10,0z"/>
<path d="m246.928,262.925c-4.175-2.411-8.35-4.821-12.525-7.232-5.595-3.23-10.628,5.412-5.047,8.635 4.175,2.411 8.35,4.821 12.525,7.232 5.595,3.23 10.628-5.413 5.047-8.635z"/>
<path d="m222.067,271.56c4.175-2.411 8.35-4.821 12.524-7.232 5.581-3.223 .548-11.865-5.047-8.635-4.175,2.411-8.35,4.821-12.524,7.232-5.581,3.222-.547,11.865 5.047,8.635z"/>
<path d="m271.78,245.937c-12.401-7.16-24.804-14.321-37.206-21.481-5.595-3.23-10.628,5.412-5.047,8.635 12.402,7.16 24.804,14.321 37.206,21.481 5.595,3.23 10.628-5.413 5.047-8.635z"/>
<path d="m269.238,232.947c-4.175,2.41-8.35,4.821-12.523,7.231-5.581,3.223-.548,11.865 5.047,8.635 4.175-2.41 8.35-4.821 12.523-7.231 5.581-3.223 .548-11.865-5.047-8.635z"/>
<path d="m264.332,258.794c0-4.82 0-9.642 0-14.462 0-6.448-10-6.448-10,0 0,4.82 0,9.642 0,14.462 0,6.448 10,6.448 10,0z"/>
<path d="m266.639,203.005c-12.402,7.16-24.804,14.32-37.205,21.48-5.581,3.223-.548,11.865 5.047,8.635 12.402-7.16 24.804-14.32 37.205-21.48 5.581-3.223 .547-11.866-5.047-8.635z"/>
<path d="m254.166,198.658c0,4.82 0,9.642 0,14.462 0,6.448 10,6.448 10,0 0-4.82 0-9.642 0-14.462 0-6.448-10-6.448-10,0z"/>
<path d="m274.12,215.87c-4.175-2.41-8.35-4.821-12.524-7.231-5.595-3.23-10.628,5.412-5.047,8.635 4.175,2.41 8.35,4.821 12.524,7.231 5.595,3.23 10.628-5.412 5.047-8.635z"/>
</g>
<path fill="none"  stroke="#000" stroke-width="10" d="m135.5,234.127c0,3.06-2.687,5.54-6,5.54h-22c-3.313,0-6-2.48-6-5.54v-153.586c0-3.06 2.687-5.54 6-5.54h22c3.313,0 6,2.48 6,5.54v153.586z"/>
<g fill="#000">
<path  stroke="#000" stroke-width="10" d="m144.499,280.334c0,3.313-2.106,6-4.704,6h-42.592c-2.598,0-4.704-2.687-4.704-6v-34.666c0-3.314 2.106-6 4.704-6h42.592c2.598,0 4.704,2.686 4.704,6v34.666z"/>
<path d="m148.5,91.333c6,0 12,0 18,0 6.449,0 6.449-10 0-10-6,0-12,0-18,0-6.449,0-6.449,10 0,10z"/>
<path d="m148.5,131.333c6,0 12,0 18,0 6.449,0 6.449-10 0-10-6,0-12,0-18,0-6.449,0-6.449,10 0,10z"/>
<path d="m148.5,172.333c6,0 12,0 18,0 6.449,0 6.449-10 0-10-6,0-12,0-18,0-6.449,0-6.449,10 0,10z"/>
<path d="m148.5,215.334c6,0 12,0 18,0 6.449,0 6.449-10 0-10-6,0-12,0-18,0-6.449,0-6.449,10 0,10z"/>
<path  stroke="#000" stroke-width="10" d="m101.499,213.584h34v41.083h-34z"/>
</g>
</svg>
