<svg xmlns="http://www.w3.org/2000/svg" viewBox="20 20 321 321">
<path fill="none"  stroke="#000" stroke-width="10" d="m135.5,234.46c0,3.06-2.687,5.54-6,5.54h-22c-3.313,0-6-2.48-6-5.54v-153.586c0-3.06 2.687-5.54 6-5.54h22c3.313,0 6,2.48 6,5.54v153.586z"/>
<g fill="#000">
<path  stroke="#000" stroke-width="10" d="M144.5,280.667c0,3.313-2.106,6-4.704,6   H97.204c-2.598,0-4.704-2.687-4.704-6V246c0-3.313,2.106-6,4.704-6h42.592c2.598,0,4.704,2.688,4.704,6V280.667z"/>
<path d="m148.5,91.333c6,0 12,0 18,0 6.449,0 6.449-10 0-10-6,0-12,0-18,0-6.449,0-6.449,10 0,10z"/>
<path d="m148.5,131.333c6,0 12,0 18,0 6.449,0 6.449-10 0-10-6,0-12,0-18,0-6.449,0-6.449,10 0,10z"/>
<path d="m148.5,172.333c6,0 12,0 18,0 6.449,0 6.449-10 0-10-6,0-12,0-18,0-6.449,0-6.449,10 0,10z"/>
<path d="m148.5,215.334c6,0 12,0 18,0 6.449,0 6.449-10 0-10-6,0-12,0-18,0-6.449,0-6.449,10 0,10z"/>
<path  stroke="#000" stroke-width="10" d="m101.499,193.162h34v62.505h-34z"/>
<path d="m180.5,200.167c35.444,0 70.889,0 106.333,0 6.448,0 6.448-10 0-10-35.444,0-70.889,0-106.333,0-6.449,0-6.449,10 0,10z"/>
<path d="m192.172,130.403c.578,1.056 1.242,2.36 1.998,3.912 .753,1.553 1.539,3.232 2.357,5.04 .818,1.808 1.628,3.656 2.431,5.544 .802,1.889 1.556,3.665 2.263,5.328 .705-1.664 1.459-3.439 2.262-5.328 .801-1.888 1.611-3.736 2.43-5.544 .818-1.808 1.604-3.487 2.358-5.04 .754-1.552 1.42-2.856 1.997-3.912h6.816c.319,2.208 .615,4.68 .889,7.416 .271,2.736 .511,5.584 .719,8.544 .209,2.96 .4,5.928 .576,8.904s.328,5.776 .457,8.4h-7.297c-.096-3.232-.225-6.751-.384-10.56-.161-3.808-.4-7.647-.72-11.52-.578,1.344-1.221,2.832-1.926,4.464-.707,1.632-1.405,3.264-2.096,4.896-.689,1.632-1.355,3.192-1.998,4.68-.642,1.488-1.188,2.76-1.637,3.816h-5.232c-.449-1.056-.994-2.328-1.637-3.816-.643-1.488-1.309-3.048-1.999-4.68-.69-1.632-1.388-3.264-2.094-4.896-.706-1.632-1.349-3.12-1.927-4.464-.319,3.873-.56,7.712-.719,11.52-.161,3.809-.289,7.328-.385,10.56h-7.296c.128-2.624 .28-5.424 .456-8.4s.367-5.944 .576-8.904c.207-2.959 .447-5.808 .72-8.544 .271-2.736 .567-5.208 .888-7.416h7.154z"/>
<path d="m226.396,130.403h7.488v33.264h-7.488v-33.264z"/>
<path d="m263.884,163.667c-2.145-3.808-4.464-7.567-6.96-11.28-2.496-3.712-5.152-7.216-7.969-10.512v21.792h-7.392v-33.264h6.097c1.056,1.056 2.223,2.352 3.504,3.888 1.279,1.536 2.584,3.176 3.912,4.92 1.327,1.745 2.646,3.552 3.959,5.424 1.313,1.872 2.545,3.672 3.696,5.4v-19.632h7.44v33.264h-6.287z"/>
</g>
</svg>
