<svg xmlns="http://www.w3.org/2000/svg" viewBox="20 20 321 321">
<path fill="none"  stroke="#000" stroke-width="10" d="m186.5,234.46c0,3.06-2.687,5.54-6,5.54h-22c-3.313,0-6-2.48-6-5.54v-153.586c0-3.06 2.687-5.54 6-5.54h22c3.313,0 6,2.48 6,5.54v153.586z"/>
<g fill="#000">
<path  stroke="#000" stroke-width="10" d="m195.5,280.667c0,3.313-2.106,6-4.704,6h-42.592c-2.598,0-4.704-2.687-4.704-6v-34.667c0-3.313 2.106-6 4.704-6h42.592c2.598,0 4.704,2.688 4.704,6v34.667z"/>
<path d="m199.5,92.333c6,0 12,0 18,0 6.448,0 6.448-10 0-10-6,0-12,0-18,0-6.448,0-6.448,10 0,10z"/>
<path d="m199.5,132.333c6,0 12,0 18,0 6.448,0 6.448-10 0-10-6,0-12,0-18,0-6.448,0-6.448,10 0,10z"/>
<path d="m199.5,173.333c6,0 12,0 18,0 6.448,0 6.448-10 0-10-6,0-12,0-18,0-6.448,0-6.448,10 0,10z"/>
<path d="m199.5,216.334c6,0 12,0 18,0 6.448,0 6.448-10 0-10-6,0-12,0-18,0-6.448,0-6.448,10 0,10z"/>
<path  stroke="#000" stroke-width="10" d="m152.499,185.084h34.001v70.583h-34.001z"/>
</g>
</svg>
