<svg xmlns="http://www.w3.org/2000/svg" viewBox="20 20 321 321">
<g fill="#000">
<path d="m89.705,144.496c1.179,2.156 2.537,4.819 4.078,7.987 1.539,3.169 3.144,6.6 4.814,10.29 1.67,3.692 3.324,7.465 4.962,11.319 1.637,3.855 3.176,7.482 4.619,10.878 1.441-3.396 2.979-7.023 4.618-10.878 1.637-3.854 3.291-7.627 4.961-11.319 1.671-3.69 3.275-7.12 4.816-10.29 1.539-3.168 2.899-5.831 4.078-7.987h13.916c.652,4.508 1.257,9.555 1.813,15.141 .554,5.586 1.044,11.402 1.47,17.444 .424,6.044 .816,12.103 1.176,18.179 .358,6.076 .669,11.794 .931,17.15h-14.896c-.196-6.598-.458-13.784-.784-21.561-.328-7.773-.817-15.614-1.47-23.52-1.181,2.744-2.492,5.782-3.932,9.114-1.443,3.332-2.868,6.664-4.277,9.995-1.409,3.332-2.769,6.518-4.08,9.556-1.311,3.038-2.425,5.636-3.343,7.791h-10.682c-.919-2.155-2.032-4.753-3.343-7.791-1.311-3.038-2.672-6.224-4.081-9.556-1.409-3.331-2.834-6.663-4.275-9.995-1.442-3.332-2.753-6.37-3.933-9.114-.654,7.906-1.144,15.746-1.47,23.52-.328,7.776-.588,14.963-.784,21.561h-14.894c.26-5.356 .571-11.074 .931-17.15 .358-6.076 .75-12.135 1.176-18.179 .424-6.042 .915-11.858 1.47-17.444 .554-5.586 1.159-10.633 1.813-15.141h14.602z"/>
<path d="M179.212,144.496H194.5v67.914h-15.288V144.496z"/>
<path d="m275.27,212.41c-4.378-7.773-9.114-15.45-14.21-23.029-5.097-7.579-10.521-14.733-16.269-21.463v44.492h-15.092v-67.914h12.446c2.155,2.156 4.54,4.802 7.153,7.938 2.613,3.136 5.275,6.485 7.987,10.045 2.71,3.562 5.405,7.252 8.085,11.074 2.678,3.822 5.194,7.498 7.547,11.025v-40.082h15.189v67.914h-12.836z"/>
</g>
</svg>
