<svg xmlns="http://www.w3.org/2000/svg" viewBox="20 20 321 321">
<g fill="#000">
<path d="m89.705,144.496c1.179,2.156 2.537,4.819 4.078,7.987 1.539,3.169 3.144,6.6 4.814,10.29 1.67,3.692 3.324,7.465 4.962,11.319 1.637,3.855 3.176,7.482 4.619,10.878 1.441-3.396 2.979-7.023 4.618-10.878 1.637-3.854 3.291-7.627 4.961-11.319 1.671-3.69 3.275-7.12 4.816-10.29 1.539-3.168 2.899-5.831 4.078-7.987h13.916c.652,4.508 1.257,9.555 1.813,15.141 .554,5.586 1.044,11.402 1.47,17.444 .424,6.044 .816,12.103 1.176,18.179 .358,6.076 .669,11.794 .931,17.15h-14.896c-.196-6.598-.458-13.784-.784-21.561-.328-7.773-.817-15.614-1.47-23.52-1.181,2.744-2.492,5.782-3.932,9.114-1.443,3.332-2.868,6.664-4.277,9.995-1.409,3.332-2.769,6.518-4.08,9.556-1.311,3.038-2.425,5.636-3.343,7.791h-10.682c-.919-2.155-2.032-4.753-3.343-7.791-1.311-3.038-2.672-6.224-4.081-9.556-1.409-3.331-2.834-6.663-4.275-9.995-1.442-3.332-2.753-6.37-3.933-9.114-.654,7.906-1.144,15.746-1.47,23.52-.328,7.776-.588,14.963-.784,21.561h-14.894c.26-5.356 .571-11.074 .931-17.15 .358-6.076 .75-12.135 1.176-18.179 .424-6.042 .915-11.858 1.47-17.444 .554-5.586 1.159-10.633 1.813-15.141h14.602z"/>
<path d="m205.141,212.41c-.757-2.359-1.568-4.783-2.438-7.271s-1.736-4.964-2.599-7.43h-26.524c-.857,2.478-1.718,4.96-2.579,7.45-.862,2.489-1.665,4.907-2.407,7.25h-15.876c2.556-7.316 4.979-14.078 7.273-20.286 2.294-6.206 4.537-12.054 6.733-17.542 2.196-5.488 4.358-10.697 6.488-15.631 2.13-4.932 4.343-9.751 6.637-14.455h14.491c2.231,4.704 4.43,9.523 6.598,14.455 2.164,4.934 4.348,10.143 6.547,15.631 2.199,5.488 4.447,11.336 6.744,17.542 2.297,6.208 4.725,12.97 7.285,20.286h-16.373zm-18.368-52.527c-.342,.986-.842,2.329-1.498,4.025-.657,1.698-1.404,3.66-2.244,5.885-.838,2.225-1.777,4.675-2.814,7.35-1.037,2.675-2.09,5.48-3.16,8.416h19.421c-1.041-2.945-2.047-5.759-3.021-8.442-.974-2.683-1.899-5.137-2.776-7.364-.877-2.225-1.646-4.185-2.307-5.881-.661-1.695-1.195-3.024-1.601-3.989z"/>
<path d="m272.902,212.41c-1.913-3.782-4.006-7.613-6.28-11.494-2.274-3.879-4.885-7.161-7.832-9.841-.915,1.011-2.071,2.415-3.475,4.212-1.403,1.799-2.804,3.709-4.206,5.73s-2.717,4.117-3.938,6.285c-1.222,2.17-2.132,3.873-2.728,5.107h-17.443c2.857-5.303 6.23-10.778 10.121-16.426 3.889-5.646 8.229-11.643 13.019-17.987l-22.16-33.501h18.522l12.939,19.666 13.225-19.666h17.445l-22.041,32.778c5.779,7.242 10.539,13.879 14.275,19.914 3.735,6.035 6.685,11.109 8.844,15.223h-18.287z"/>
</g>
</svg>
