<svg xmlns="http://www.w3.org/2000/svg" viewBox="20 20 321 321">
<path fill="none"  stroke="#000" stroke-width="10" d="m75.833,81.328c0-3.402 2.758-6.161 6.161-6.161h198.178c3.402,0 6.161,2.759 6.161,6.161v198.178c0,3.402-2.759,6.161-6.161,6.161h-198.178c-3.403,0-6.161-2.759-6.161-6.161v-198.178z"/>
<g fill="#000">
<path d="m76.833,185.167c7.667,0 15.333,0 23,0 6.449,0 6.449-10 0-10-7.667,0-15.333,0-23,0-6.449,0-6.449,10 0,10z"/>
<path d="m261.833,185.167c7.5,0 15,0 22.5,0 6.448,0 6.448-10 0-10-7.5,0-15,0-22.5,0-6.448,0-6.448,10 0,10z"/>
<path d="m175.833,77.667c0,7.167 0,14.333 0,21.5 0,6.449 10,6.449 10,0 0-7.167 0-14.333 0-21.5 0-6.449-10-6.449-10,0z"/>
<path d="m175.833,261.167c0,7.333 0,14.667 0,22 0,6.448 10,6.448 10,0 0-7.333 0-14.667 0-22 0-6.448-10-6.448-10,0z"/>
<path d="m176.333,117.667c0,20.917 0,41.833 0,62.75 0,6.448 10,6.448 10,0 0-20.917 0-41.833 0-62.75 0-6.449-10-6.449-10,0z"/>
<path d="m178.297,184.202c9,9 18,18 27,27 4.563,4.564 11.635-2.507 7.07-7.07-9-9-18-18-27-27-4.562-4.564-11.633,2.507-7.07,7.07z"/>
</g>
</svg>
