<svg xmlns="http://www.w3.org/2000/svg" viewBox="20 20 321 321">
<g fill="none"  stroke="#000" stroke-width="10">
<path d="m157.116,146.943c-.497-1.854-2.006-3.064-3.371-2.697l-29.435,7.886c-1.363,.365-2.066,2.167-1.569,4.022l13.653,50.958c.499,1.855 2.007,3.064 3.373,2.698l29.435-7.888c1.363-.365 2.066-2.167 1.569-4.021l-13.655-50.958z"/>
<path d="m158.531,112.915c-1.357,1.358-1.651,3.27-.652,4.268l21.547,21.549c.998,.998 2.911,.707 4.269-.652l37.304-37.304c1.357-1.358 1.649-3.27 .65-4.269l-21.548-21.546c-.998-.999-2.91-.708-4.268,.65l-37.302,37.304z"/>
<path d="m128.355,128.829c1.855,.499 3.657-.206 4.022-1.57l7.888-29.436c.364-1.363-.843-2.873-2.697-3.369l-50.96-13.655c-1.856-.497-3.656,.207-4.022,1.57l-7.887,29.435c-.366,1.365 .841,2.875 2.697,3.372l50.959,13.653z"/>
</g>
<g fill="#000">
<path d="m149.938,133.278c.56-2.09 1.12-4.18 1.68-6.27-2.786,.735-5.571,1.471-8.357,2.207 1.53,1.53 3.06,3.06 4.59,4.59 .735-2.786 1.471-5.571 2.207-8.357-2.09,.56-4.18,1.12-6.27,1.68-2.631,.705-4.211,3.537-3.492,6.15 .726,2.639 3.52,4.197 6.15,3.492 2.09-.56 4.18-1.12 6.27-1.68 3.642-.976 4.853-5.71 2.207-8.357-1.53-1.53-3.06-3.06-4.59-4.59-2.647-2.646-7.381-1.436-8.357,2.207-.56,2.09-1.12,4.18-1.68,6.27-.705,2.631 .853,5.424 3.492,6.15 2.612,.719 5.444-.86 6.15-3.492z"/>
<path d="m241.275,228.957c0-9.88 0-19.76 0-29.64 0-6.245 0-12.491 0-18.736 0-1.511 0-3.021 0-4.532 0-2.692 3.229-1.898 5.123-1.898 1.231,0 4.694-.571 4.694,1.476 0,1.488 0,2.976 0,4.464 0,6.179 0,12.359 0,18.539 0,10.109 0,20.219 0,30.328 0,4.514 7,4.514 7,0 0-11.729 0-23.457 0-35.186 0-5.797 0-11.594 0-17.391 0-6.473-4.819-9.23-10.74-9.23-6.26,0-13.077,1.09-13.077,9.111 0,5.421 0,10.842 0,16.264 0,12.144 0,24.288 0,36.432 0,4.513 7,4.513 7-.001z"/>
<path d="m225.566,259.011c0-11.066 0-22.134 0-33.2 0-7.314 0-14.63 0-21.944 0-4.868-.457-10.225 .397-14.995 .455-2.54 5.475-1.3 7.748-1.3 2.685,0 .563-.036 .563-1.077 0,.646 0,1.294 0,1.941 0,6.184 0,12.368 0,18.552 0,11.797 0,23.595 0,35.392 0,4.514 7,4.514 7,0 0-11.797 0-23.595 0-35.392 0-6.184 0-12.368 0-18.552 0-1.515-.022-2.697-.428-4.196-1.079-3.989-5.771-3.668-8.954-3.668-3.148,0-6.249-.352-9.173,.963-4.433,1.992-4.11,9.637-4.152,13.472-.042,3.904-.002,7.811-.002,11.715 0,15.005 0,30.011 0,45.016 0,2.425 0,4.85 0,7.274 .001,4.512 7.001,4.512 7.001-.001z"/>
<path d="m258.093,238.867c0-9.843 0-19.686 0-29.529 0-6.469 0-12.938 0-19.406 0-1.919 0-3.838 0-5.757 0-.436 0-.871 0-1.306 0,.182-2.004,1.191-.732,1.191 .746,0 1.493,0 2.24,0 5.345,0 6.646,.553 6.646,5.336 0,6.075 0,12.149 0,18.224 0,10.416 0,20.831 0,31.247 0,4.514 7,4.514 7,0 0-12.002 0-24.003 0-36.005 0-10.291 3.011-25.802-11.811-25.802-5.726,0-10.344,.753-10.344,7.47 0,5.997 0,11.994 0,17.99 0,12.108 0,24.216 0,36.323 0,.008 0,.016 0,.023 .001,4.515 7.001,4.515 7.001,.001z"/>
<path d="m273.247,245.242c0-12.409 0-24.817 0-37.227 0-2.508 0-5.017 0-7.524 0-.523 0-1.046 0-1.569 0,.33-2.021,1.17-.597,1.17 1.112,0 2.225,0 3.337,0 3.474,0 2.642,5.424 2.642,8.125 0,26.146 0,52.29 0,78.435 0,.505 0,1.009 0,1.514 0,4.514 7,4.514 7,0 0-24.866 0-49.732 0-74.598 0-2.887 0-5.772 0-8.659 0-3.095-.473-6.744-2.596-9.154-2.607-2.96-6.063-2.662-9.661-2.662-6.621,0-7.125,4.733-7.125,9.928 0,7.328 0,14.656 0,21.984 0,6.746 0,13.492 0,20.238 0,4.513 7,4.513 7-.001z"/>
<path d="m213.084,288.343c-4.123-17.511-8.247-35.021-12.37-52.532-.769-3.265-1.662-4.899 2.263-6.16 1.466-.47 5.149-2.109 5.794-.105 .5,1.556 1,3.111 1.499,4.667 2.784,8.664 5.568,17.328 8.352,25.992 1.375,4.279 8.135,2.449 6.75-1.861-3.115-9.694-6.229-19.39-9.345-29.084-1.872-5.826-5.823-8.204-12.062-7.229-5.899,.922-12.522,4.937-10.902,11.815 4.424,18.786 8.848,37.573 13.271,56.359 1.034,4.392 7.784,2.528 6.75-1.862z"/>
</g>
</svg>
