<svg xmlns="http://www.w3.org/2000/svg" viewBox="20 20 321 321">
<g fill="#000">
<path d="m175.642,93.244c0,29.179 0,58.358 0,87.538 0,6.449 10,6.449 10,0 0-29.179 0-58.358 0-87.538 .001-6.449-10-6.449-10,0z"/>
<path d="m152.646,106.373c8.507,4.912 17.014,9.823 25.521,14.734 5.595,3.23 10.628-5.413 5.047-8.635-8.507-4.912-17.014-9.823-25.521-14.734-5.595-3.23-10.629,5.413-5.047,8.635z"/>
<path d="m203.301,97.738c-8.507,4.912-17.014,9.823-25.521,14.734-5.582,3.222-.548,11.865 5.047,8.635 8.507-4.912 17.014-9.823 25.521-14.734 5.581-3.222 .548-11.865-5.047-8.635z"/>
<path d="m102.005,140.322c25.27,14.59 50.54,29.18 75.81,43.769 5.595,3.23 10.628-5.412 5.047-8.634-25.27-14.59-50.54-29.18-75.81-43.77-5.594-3.23-10.628,5.412-5.047,8.635z"/>
<path d="m101.947,166.788c8.507-4.911 17.014-9.823 25.521-14.734 5.582-3.222 .548-11.865-5.047-8.635-8.507,4.911-17.014,9.823-25.521,14.734-5.581,3.222-.547,11.865 5.047,8.635z"/>
<path d="m119.752,118.602c0,9.823 0,19.646 0,29.468 0,6.449 10,6.449 10,0 0-9.823 0-19.646 0-29.468 0-6.449-10-6.449-10,0z"/>
<path d="m107.245,227.8c25.271-14.59 50.541-29.18 75.811-43.771 5.581-3.222 .548-11.865-5.047-8.634-25.271,14.59-50.541,29.18-75.811,43.77-5.582,3.223-.548,11.865 5.047,8.635z"/>
<path d="m130.089,241.135c0-9.823 0-19.646 0-29.469 0-6.448-10-6.448-10,0 0,9.823 0,19.646 0,29.469 0,6.448 10,6.448 10,0z"/>
<path d="m97.238,201.584c8.507,4.911 17.014,9.823 25.521,14.734 5.595,3.23 10.628-5.412 5.047-8.635-8.507-4.911-17.014-9.823-25.521-14.734-5.595-3.23-10.629,5.412-5.047,8.635z"/>
<path d="m185.545,267.566c0-29.18 0-58.359 0-87.539-.001-6.449-10-6.449-10,0 0,29.179 0,58.359 0,87.539 0,6.449 10,6.449 10,0z"/>
<path d="m208.541,254.437c-8.507-4.911-17.014-9.823-25.521-14.734-5.595-3.23-10.628,5.412-5.047,8.635 8.507,4.911 17.014,9.823 25.521,14.734 5.595,3.23 10.628-5.413 5.047-8.635z"/>
<path d="m157.886,263.071c8.507-4.911 17.014-9.823 25.521-14.734 5.581-3.223 .548-11.865-5.047-8.635-8.507,4.911-17.014,9.823-25.52,14.734-5.583,3.223-.549,11.866 5.046,8.635z"/>
<path d="m259.182,219.821c-25.271-14.59-50.541-29.18-75.811-43.769-5.595-3.23-10.629,5.413-5.047,8.634 25.27,14.59 50.541,29.18 75.811,43.77 5.594,3.231 10.628-5.412 5.047-8.635z"/>
<path d="m259.238,193.355c-8.507,4.911-17.014,9.823-25.52,14.734-5.581,3.223-.548,11.865 5.047,8.635 8.507-4.911 17.014-9.823 25.52-14.734 5.581-3.222 .548-11.865-5.047-8.635z"/>
<path d="m241.435,241.541c0-9.822 .001-19.645 .001-29.467 0-6.448-10-6.448-10,0 0,9.822-.001,19.645-.001,29.467 0,6.448 10,6.448 10,0z"/>
<path d="m253.941,132.344c-25.271,14.59-50.54,29.18-75.81,43.77-5.582,3.223-.548,11.865 5.047,8.634 25.27-14.589 50.54-29.179 75.81-43.769 5.581-3.223 .548-11.865-5.047-8.635z"/>
<path d="m231.098,119.007c0,9.823 0,19.646 0,29.469 0,6.449 10,6.449 10,0 0-9.823 0-19.646 0-29.469 0-6.448-10-6.448-10,0z"/>
<path d="m263.948,158.559c-8.507-4.912-17.014-9.823-25.521-14.735-5.595-3.23-10.628,5.412-5.047,8.635 8.507,4.912 17.014,9.823 25.521,14.735 5.595,3.23 10.628-5.412 5.047-8.635z"/>
</g>
</svg>
