<svg xmlns="http://www.w3.org/2000/svg" viewBox="20 20 321 321">
<g fill="#000">
<path d="m75.989,291.445c48.559,0 97.117,0 145.676,0 21.907,0 43.814,0 65.722,0 6.448,0 6.448-10 0-10-48.559,0-97.117,0-145.676,0-21.907,0-43.814,0-65.721,0-6.449,0-6.449,10-.001,10z"/>
<path d="m249.439,233.59c0,4.792 .577,9.971-.229,14.712-1.404,8.264-8.785,12.324-16.527,12.324-6.121,0-12.241,.001-18.362,.001-2.02,0-4.038-.008-6.058,.036-3.688,.079-11.366-2.859-11.644-7.431-.389-6.406-10.391-6.444-10,0 .718,11.831 13.443,17.395 23.76,17.395 7.435,0 14.869-.001 22.304-.001 10.128,0 19.018-4.443 23.955-13.532 3.84-7.069 2.801-15.753 2.801-23.504 0-6.448-10-6.448-10,0z"/>
<path d="m195.661,231.04c-.095-5.399-.893-11.247 .73-16.466 2.259-7.262 9.588-9.781 16.403-9.781 6.182,0 12.363,0 18.545,0 5.809,0 16.16-.428 16.646,7.395 .398,6.404 10.4,6.443 10,0-1.35-21.712-30.093-17.395-45.191-17.395-9.976,0-18.468,3.753-23.912,12.397-4.479,7.111-3.361,15.878-3.222,23.85 .113,6.441 10.114,6.452 10.001,0z"/>
<path d="m276.811,168.472c-6.131,6.13-12.262,12.261-18.393,18.392-3.195,3.194 1.755,8.144 4.949,4.949 6.131-6.13 12.262-12.26 18.393-18.391 3.195-3.195-1.755-8.145-4.949-4.95z"/>
<path d="m218.666,156.814c0,7.479 0,14.958 0,22.438 0,4.514 7,4.514 7,0 0-7.479 0-14.958 0-22.438 0-4.514-7-4.514-7,0z"/>
<path d="m141.939,234.54c9.612,0 19.225,0 28.837,0 4.514,0 4.514-7 0-7-9.612,0-19.225,0-28.837,0-4.514,0-4.514,7 0,7z"/>
<path d="m244.793,165.446c-1.898,4.584-3.797,9.167-5.695,13.751-.731,1.766 .777,3.847 2.444,4.305 2.013,.554 3.576-.683 4.306-2.444 1.898-4.583 3.797-9.167 5.695-13.75 .731-1.766-.777-3.847-2.444-4.306-2.013-.554-3.577,.683-4.306,2.444z"/>
<path d="m156.969,208c4.584,1.898 9.168,3.798 13.751,5.696 1.766,.731 3.847-.777 4.306-2.444 .554-2.013-.684-3.576-2.444-4.306-4.584-1.898-9.168-3.798-13.751-5.696-1.766-.731-3.847,.777-4.306,2.444-.554,2.013 .683,3.577 2.444,4.306z"/>
<path d="m158.83,260.438c4.583-1.898 9.167-3.797 13.751-5.695 1.761-.729 2.998-2.293 2.444-4.306-.459-1.667-2.54-3.176-4.306-2.444-4.583,1.898-9.167,3.797-13.751,5.695-1.761,.729-2.998,2.293-2.444,4.306 .459,1.666 2.54,3.175 4.306,2.444z"/>
<path d="m271.762,282.06c-3.482-3.483-6.966-6.967-10.449-10.449-3.194-3.194-8.145,1.755-4.949,4.949 3.482,3.483 6.966,6.967 10.449,10.449 3.194,3.194 8.144-1.755 4.949-4.949z"/>
<path d="m173.296,286.857c3.919-3.918 7.837-7.837 11.756-11.756 3.195-3.194-1.755-8.144-4.95-4.949-3.919,3.918-7.838,7.837-11.757,11.756-3.193,3.195 1.757,8.144 4.951,4.949z"/>
<path d="m286.025,229.406c-4.292,0-8.585,0-12.877,0-4.514,0-4.514,7 0,7 4.292,0 8.585,0 12.877,0 4.514,0 4.514-7 0-7z"/>
<path d="m285.095,203.115c-4.583,1.899-9.167,3.798-13.751,5.697-1.761,.729-2.998,2.293-2.444,4.306 .459,1.667 2.539,3.176 4.306,2.444 4.583-1.899 9.167-3.798 13.751-5.697 1.761-.729 2.998-2.293 2.444-4.306-.46-1.666-2.54-3.175-4.306-2.444z"/>
<path d="m286.956,255.553c-4.584-1.898-9.168-3.797-13.751-5.695-1.767-.731-3.847,.777-4.306,2.444-.554,2.013 .684,3.576 2.444,4.306 4.584,1.898 9.168,3.797 13.751,5.695 1.767,.731 3.847-.777 4.306-2.444 .554-2.013-.683-3.577-2.444-4.306z"/>
<path d="m226.926,286.445c0-.702 0-1.405 0-2.107 0-1.908-1.592-3.5-3.5-3.5s-3.5,1.592-3.5,3.5c0,.702 0,1.405 0,2.107 0,1.908 1.592,3.5 3.5,3.5s3.5-1.591 3.5-3.5z"/>
<path d="m247.685,284.04c-.36-.792-.721-1.583-1.08-2.375-.357-.785-1.293-1.389-2.092-1.608-.903-.248-1.889-.121-2.697,.353-.782,.459-1.368,1.217-1.608,2.092-.27,.979-.053,1.806 .353,2.697 .36,.792 .721,1.583 1.08,2.375 .357,.785 1.293,1.389 2.092,1.608 .903,.248 1.889,.121 2.697-.353 .782-.459 1.368-1.217 1.608-2.092 .269-.979 .052-1.805-.353-2.697z"/>
<path d="m202.715,287.416c.42-1.014 .84-2.027 1.26-3.041 .338-.817 .073-1.971-.353-2.697-.459-.782-1.217-1.368-2.092-1.608-.903-.248-1.889-.121-2.697,.353-.861,.505-1.241,1.206-1.608,2.092-.42,1.014-.84,2.027-1.26,3.041-.338,.817-.073,1.971 .353,2.697 .459,.782 1.217,1.368 2.092,1.608 .903,.248 1.889,.121 2.697-.353 .861-.505 1.241-1.206 1.608-2.092z"/>
<path d="m122.803,242.066c29.902,0 59.804,0 89.707,0 1.935,0 1.935-3 0-3-29.902,0-59.804,0-89.707,0-1.934,0-1.934,3 0,3z"/>
<path d="m104.908,246.652c17.095,0 34.189,0 51.284,0 1.935,0 1.935-3 0-3-17.095,0-34.189,0-51.284,0-1.934,0-1.934,3-0,3z"/>
<path d="m78.299,210.409c22.912,0 45.824,0 68.735,0 1.935,0 1.935-3 0-3-22.912,0-45.824,0-68.735,0-1.934,0-1.934,3 0,3z"/>
<path d="m71.677,215.994c19.703,0 39.406,0 59.108,0 1.935,0 1.935-3 0-3-19.703,0-39.406,0-59.108,0-1.934,0-1.934,3 0,3z"/>
<path d="m239.582,226.58c15.364,0 30.729,0 46.094,0 1.935,0 1.935-3 0-3-15.364,0-30.729,0-46.094,0-1.935,0-1.935,3 0,3z"/>
<path d="m235.645,221.994c13.761,0 27.522,0 41.283,0 1.935,0 1.935-3 0-3-13.761,0-27.522,0-41.283,0-1.935,0-1.935,3 0,3z"/>
<path d="m180.5,246.652c7.542-.081 15.083-.162 22.625-.243 1.934-.021 1.936-3.021 0-3-7.542,.081-15.083,.162-22.625,.243-1.934,.021-1.936,3.021 0,3z"/>
<path d="m98.674,133.304c34.146,0 68.293,0 102.439,0 1.935,0 1.935-3 0-3-34.146,0-68.293,0-102.439,0-1.935,0-1.935,3 0,3z"/>
<path d="m81.893,138.889c47.362,0 94.724,0 142.086,0 .933,0 1.866,0 2.8,0 1.935,0 1.935-3 0-3-47.362,0-94.724,0-142.086,0-.934,0-1.867,0-2.8,0-1.935,0-1.935,3-0,3z"/>
<path d="m74.431,158.888c22.57,0 45.141,0 67.711,0 1.935,0 1.935-3 0-3-22.57,0-45.141,0-67.711,0-1.935,0-1.935,3 0,3z"/>
<path d="m149.257,162.063c-16.861,0-33.722,0-50.583,0-1.935,0-1.935,3 0,3 16.861,0 33.722,0 50.583,0 1.934,0 1.934-3 0-3z"/>
<path d="m183.37,188.864c-6.131-6.131-12.261-12.262-18.392-18.393-3.195-3.194-8.145,1.755-4.95,4.95 6.131,6.13 12.261,12.261 18.392,18.392 3.194,3.196 8.144-1.754 4.95-4.949z"/>
<path d="m191.359,167.307c1.898,4.583 3.797,9.167 5.695,13.75 .729,1.762 2.293,2.998 4.306,2.444 1.667-.458 3.176-2.539 2.444-4.305-1.898-4.583-3.797-9.167-5.695-13.751-.729-1.761-2.293-2.998-4.306-2.444-1.666,.459-3.175,2.54-2.444,4.306z"/>
</g>
</svg>
