<svg xmlns="http://www.w3.org/2000/svg" viewBox="20 20 321 321">
<g fill="none"  stroke="#000" stroke-width="10">
<path d="m254.833,147.792c0,12.357-10.018,22.375-22.375,22.375s-22.375-10.018-22.375-22.375c0-4.726 1.659-8.584 3.134-12.723 2.625-7.363 11.609-33.311 19.241-33.311 7.649,0 17.032,26.988 19.271,33.353 1.451,4.13 3.104,7.973 3.104,12.681z"/>
<path d="m224.833,247.792c0,12.357-10.018,22.375-22.375,22.375s-22.375-10.018-22.375-22.375c0-4.726 1.659-8.584 3.134-12.723 2.625-7.362 11.609-33.311 19.241-33.311 7.649,0 17.032,26.988 19.271,33.353 1.451,4.129 3.104,7.973 3.104,12.681z"/>
<path d="m158.333,280.833c0,3.222-3.116,5.834-6.958,5.834h-55.084c-3.842,0-6.958-2.612-6.958-5.834v-199.831c0-3.223 3.116-5.835 6.958-5.835h55.084c3.842,0 6.958,2.612 6.958,5.835v199.831z"/>
</g>
<path fill="#000" d="m145.833,180.792c0,12.357-10.018,22.375-22.375,22.375s-22.375-10.018-22.375-22.375c0-4.726 1.659-8.584 3.134-12.723 2.625-7.363 11.61-33.311 19.241-33.311 7.649,0 17.033,26.988 19.27,33.353 1.451,4.13 3.105,7.973 3.105,12.681z"/>
</svg>
