<svg xmlns="http://www.w3.org/2000/svg" viewBox="20 20 321 321">
<path fill="#000" d="m262.148,96.03c0,49.764 0,99.527 0,149.291 0,13.782 0,27.563 0,41.346 0,6.448 10,6.448 10,0 0-49.764 0-99.527 0-149.291 0-13.782 0-27.564 0-41.346 0-6.448-10-6.448-10,0z"/>
<g fill="none"  stroke="#000" stroke-width="10">
<path d="m75.345,126.976 117.053-51.453"/>
<path d="m85.563,157.045 125.162-13.128"/>
</g>
<g fill="#000">
<path d="m192.398,75.523 64.685,19.32-46.358,49.074z"/>
<path d="m191.069,80.345c21.562,6.44 43.123,12.88 64.685,19.32-.735-2.786-1.471-5.571-2.206-8.357-15.453,16.358-30.906,32.716-46.358,49.074 2.785,.735 5.571,1.471 8.356,2.207-6.108-22.798-12.218-45.596-18.326-68.394-1.667-6.223-11.314-3.579-9.643,2.658 6.108,22.798 12.218,45.596 18.326,68.394 .955,3.565 5.765,4.951 8.356,2.207 15.453-16.358 30.906-32.716 46.358-49.074 2.606-2.758 1.455-7.264-2.206-8.357-21.562-6.44-43.123-12.88-64.685-19.32-6.193-1.851-8.82,7.801-2.657,9.642z"/>
<path d="m100.743,152.304c.902,3.603-1.41,7.288-5.165,8.228l-9.628,2.409c-3.753,.938-7.528-1.223-8.43-4.826l-7.281-29.096c-.903-3.604 1.41-7.289 5.164-8.228l9.629-2.409c3.754-.938 7.528,1.222 8.431,4.826l7.28,29.096z"/>
<path d="m140.762,145.611c1.11,4.44-1.033,8.802-4.788,9.742l-9.628,2.409c-3.753,.939-7.698-1.899-8.809-6.339l-8.97-35.847c-1.111-4.44 1.032-8.802 4.787-9.742l9.629-2.409c3.752-.939 7.697,1.899 8.808,6.34l8.971,35.846z"/>
<path d="m183.645,138.335c1.395,5.571-.518,10.853-4.272,11.791l-9.629,2.409c-3.754,.939-7.928-2.817-9.321-8.389l-11.258-44.987c-1.394-5.571 .519-10.853 4.273-11.791l9.629-2.409c3.753-.938 7.928,2.818 9.322,8.389l11.256,44.987z"/>
<path d="m90.681,258.246c0-3.457-.444-5.904-1.332-7.345-.889-1.44-2.412-2.159-4.572-2.159-.672,0-1.368,.035-2.088,.107-.72,.072-1.417,.156-2.088,.252v29.232h-10.728v-36.576c.911-.24 1.98-.492 3.204-.756 1.224-.264 2.52-.504 3.888-.721 1.368-.216 2.772-.383 4.212-.504 1.44-.119 2.855-.18 4.248-.18 2.736,0 4.956,.349 6.66,1.044 1.703,.696 3.107,1.524 4.212,2.483 1.536-1.104 3.3-1.967 5.292-2.592 1.991-.623 3.827-.936 5.508-.936 3.024,0 5.508,.42 7.452,1.26 1.944,.84 3.492,2.028 4.644,3.564 1.152,1.536 1.944,3.359 2.376,5.472 .432,2.112 .648,4.464 .648,7.056v21.385h-10.728v-20.088c0-3.457-.444-5.904-1.332-7.345-.889-1.44-2.412-2.159-4.572-2.159-.576,0-1.38,.143-2.412,.432-1.033,.287-1.884,.647-2.556,1.08 .335,1.104 .551,2.268 .648,3.492 .096,1.224 .144,2.531 .144,3.924v20.664h-10.728v-20.086z"/>
<path d="m136.113,291.653h-11.016l24.2-69.696h10.864l-24.048,69.696z"/>
<path d="m172.042,270.629c1.967,0 3.359-.19 4.176-.575 .816-.384 1.224-1.128 1.224-2.232 0-.864-.529-1.62-1.584-2.268-1.057-.648-2.664-1.38-4.824-2.196-1.681-.623-3.204-1.271-4.572-1.943s-2.532-1.477-3.492-2.412c-.96-.937-1.704-2.053-2.232-3.349-.529-1.296-.792-2.854-.792-4.68 0-3.552 1.32-6.36 3.96-8.425 2.639-2.063 6.264-3.096 10.872-3.096 2.304,0 4.511,.205 6.624,.612 2.112,.408 3.792,.853 5.04,1.332l-1.872,8.353c-1.249-.433-2.604-.816-4.068-1.152-1.465-.336-3.108-.504-4.932-.504-3.36,0-5.04,.936-5.04,2.808 0,.433 .072,.817 .216,1.152 .144,.336 .432,.66 .864,.972 .432,.313 1.019,.65 1.764,1.013 .744,.363 1.692,.763 2.844,1.196 2.352,.873 4.295,1.732 5.832,2.578 1.536,.848 2.748,1.762 3.637,2.742 .888,.982 1.512,2.072 1.872,3.27s.54,2.586 .54,4.166c0,3.736-1.404,6.563-4.213,8.479-2.807,1.914-6.78,2.873-11.916,2.873-3.36,0-6.156-.288-8.388-.864s-3.78-1.056-4.644-1.44l1.8-8.711c1.824,.719 3.696,1.284 5.616,1.691 1.918,.407 3.815,.61 5.688,.61z"/>
</g>
</svg>
