<svg xmlns="http://www.w3.org/2000/svg" viewBox="20 20 321 321">
<g fill="#000">
<path d="m107.279,162.323c0,9.449 0,18.898 0,28.347 0,4.514 7,4.514 7,0 0-9.449 0-18.898 0-28.347 0-4.514-7-4.514-7,0z"/>
<path d="m100.764,168.198c2.755,1.59 5.51,3.181 8.264,4.771 3.917,2.261 7.44-3.789 3.533-6.044-2.755-1.59-5.509-3.181-8.264-4.771-3.917-2.261-7.44,3.789-3.533,6.044z"/>
<path d="m117.167,162.154c-2.754,1.59-5.509,3.181-8.264,4.771-3.907,2.255-.383,8.305 3.533,6.044 2.755-1.59 5.509-3.181 8.264-4.771 3.906-2.255 .383-8.305-3.533-6.044z"/>
<path d="m84.365,179.191c8.183,4.725 16.366,9.449 24.548,14.174 3.917,2.261 7.44-3.789 3.533-6.045-8.183-4.725-16.366-9.449-24.548-14.173-3.916-2.261-7.44,3.789-3.533,6.044z"/>
<path d="m86.245,187.763c2.755-1.591 5.509-3.182 8.264-4.771 3.907-2.256 .383-8.306-3.533-6.044-2.754,1.59-5.509,3.181-8.264,4.771-3.907,2.255-.383,8.304 3.533,6.044z"/>
<path d="m89.181,170.534c0,3.181 0,6.362 0,9.542 0,4.514 7,4.514 7,0 0-3.181 0-6.362 0-9.542 0-4.514-7-4.514-7,0z"/>
<path d="m87.96,207.519c8.183-4.725 16.366-9.449 24.549-14.173 3.907-2.256 .383-8.306-3.533-6.045-8.183,4.725-16.366,9.449-24.549,14.173-3.906,2.255-.383,8.305 3.533,6.045z"/>
<path d="m96.29,210.213c0-3.181 0-6.362 0-9.543 0-4.514-7-4.514-7,0 0,3.181 0,6.362 0,9.543 0,4.514 7,4.514 7,0z"/>
<path d="m82.821,199.03c2.755,1.59 5.509,3.18 8.264,4.771 3.917,2.261 7.44-3.789 3.533-6.045-2.755-1.59-5.509-3.18-8.264-4.771-3.916-2.26-7.439,3.789-3.533,6.045z"/>
<path d="m114.248,218.771c0-9.448 0-18.897 0-28.346 0-4.514-7-4.514-7,0 0,9.448 0,18.897 0,28.346 0,4.514 7,4.514 7,0z"/>
<path d="m120.762,212.896c-2.755-1.59-5.509-3.18-8.264-4.771-3.917-2.261-7.44,3.789-3.533,6.045 2.755,1.59 5.51,3.18 8.264,4.771 3.917,2.26 7.44-3.79 3.533-6.045z"/>
<path d="m104.359,218.94c2.754-1.591 5.509-3.181 8.264-4.771 3.907-2.256 .383-8.306-3.533-6.045-2.754,1.591-5.509,3.181-8.264,4.771-3.907,2.256-.383,8.306 3.533,6.045z"/>
<path d="m137.161,201.687c-8.183-4.724-16.366-9.448-24.549-14.173-3.917-2.261-7.44,3.789-3.533,6.045 8.183,4.724 16.366,9.448 24.549,14.173 3.916,2.26 7.44-3.79 3.533-6.045z"/>
<path d="m135.281,193.116c-2.754,1.591-5.509,3.182-8.264,4.771-3.907,2.256-.383,8.306 3.533,6.045 2.755-1.591 5.509-3.182 8.264-4.771 3.907-2.256 .383-8.306-3.533-6.045z"/>
<path d="m132.346,210.345c0-3.181 0-6.361 0-9.542 0-4.514-7-4.514-7,0 0,3.181 0,6.361 0,9.542 0,4.513 7,4.513 7,0z"/>
<path d="m133.565,173.36c-8.183,4.724-16.366,9.448-24.549,14.173-3.907,2.256-.383,8.306 3.533,6.045 8.183-4.725 16.366-9.449 24.549-14.174 3.907-2.255 .383-8.305-3.533-6.044z"/>
<path d="m125.236,170.666c0,3.181 0,6.362 0,9.542 0,4.514 7,4.514 7,0 0-3.181 0-6.362 0-9.542 0-4.515-7-4.515-7,0z"/>
<path d="m138.705,181.849c-2.755-1.59-5.509-3.181-8.264-4.771-3.917-2.261-7.44,3.789-3.533,6.044 2.755,1.59 5.51,3.181 8.264,4.771 3.916,2.261 7.439-3.789 3.533-6.044z"/>
<g  stroke="#000" stroke-width="13.063">
<path d="m196.65,140.42c0,4.328-3.148,7.838-7.033,7.838h-54.511c-3.885,0-7.035-3.51-7.035-7.838v-56.823c0-4.329 3.15-7.838 7.035-7.838h54.511c3.885,0 7.033,3.509 7.033,7.838v56.823z"/>
<path d="m93.455,120.825c0,4.329 3.509,7.838 7.838,7.838h36.576c4.328,0 7.837-3.509 7.837-7.838v-22.206c0-4.329-3.51-7.838-7.837-7.838h-36.576c-4.329,0-7.838,3.509-7.838,7.838v22.206z"/>
<path d="m77.779,120.825c0-4.328 3.509-7.837 7.838-7.837h45.067c4.328,0 7.837,3.509 7.837,7.837v12.41c0,4.329-3.51,7.838-7.837,7.838h-45.067c-4.329,0-7.838-3.509-7.838-7.838v-12.41z"/>
<path d="m249.121,148.258c0,4.328-3.149,7.838-7.033,7.838h-54.514c-3.885,0-7.034-3.51-7.034-7.838v-56.823c0-4.329 3.149-7.838 7.034-7.838h54.514c3.884,0 7.033,3.509 7.033,7.838v56.823z"/>
<path d="m233.227,141.727c0,4.328 3.51,7.838 7.838,7.838h36.576c4.328,0 7.838-3.51 7.838-7.838v-22.208c0-4.328-3.51-7.837-7.838-7.837h-36.576c-4.328,0-7.838,3.51-7.838,7.837v22.208z"/>
<path d="m202.094,157.402c0,4.328-3.148,7.837-7.033,7.837h-54.512c-3.884,0-7.034-3.509-7.034-7.837v-56.824c0-4.329 3.149-7.838 7.034-7.838h54.512c3.885,0 7.033,3.509 7.033,7.838v56.824z"/>
<path d="m103.063,142.532c0-4.328 3.509-7.837 7.838-7.837h45.067c4.328,0 7.837,3.509 7.837,7.837v12.41c0,4.329-3.51,7.838-7.837,7.838h-45.067c-4.329,0-7.838-3.509-7.838-7.838v-12.41z"/>
</g>
<path d="m210.348,203.412c-6.682,6.681-13.363,13.362-20.045,20.044-3.195,3.194 1.755,8.144 4.949,4.949 6.682-6.681 13.363-13.362 20.045-20.044 3.195-3.194-1.755-8.143-4.949-4.949z"/>
<path d="m201.597,203.003c.823,3.072 1.646,6.145 2.47,9.217 1.167,4.355 7.92,2.505 6.75-1.861-.823-3.072-1.646-6.145-2.47-9.217-1.167-4.356-7.92-2.505-6.75,1.861z"/>
<path d="m217.501,210.295c-3.072-.823-6.145-1.646-9.217-2.47-4.366-1.17-6.217,5.583-1.861,6.75 3.072,.823 6.145,1.646 9.217,2.47 4.366,1.17 6.216-5.583 1.861-6.75z"/>
<path d="m182.228,199.181c2.445,9.126 4.892,18.253 7.337,27.38 1.167,4.355 7.92,2.505 6.75-1.861-2.445-9.126-4.892-18.253-7.337-27.38-1.167-4.356-7.92-2.506-6.75,1.861z"/>
<path d="m177.443,206.516c3.073,.823 6.145,1.646 9.217,2.47 4.366,1.17 6.217-5.583 1.861-6.75-3.072-.823-6.146-1.646-9.217-2.47-4.366-1.17-6.217,5.583-1.861,6.75z"/>
<path d="m191.744,196.421c-2.25,2.249-4.499,4.498-6.748,6.747-3.195,3.194 1.755,8.144 4.949,4.949 2.25-2.249 4.499-4.498 6.748-6.747 3.196-3.194-1.755-8.143-4.949-4.949z"/>
<path d="m164.686,221.698c9.127,2.445 18.253,4.892 27.38,7.337 4.366,1.17 6.217-5.583 1.861-6.75-9.127-2.445-18.254-4.892-27.38-7.337-4.366-1.17-6.217,5.583-1.861,6.75z"/>
<path d="m168.713,229.504c2.249-2.249 4.498-4.498 6.748-6.748 3.194-3.194-1.755-8.145-4.95-4.949-2.249,2.249-4.498,4.498-6.748,6.748-3.194,3.194 1.756,8.144 4.95,4.949z"/>
<path d="m167.108,212.116c.823,3.072 1.647,6.145 2.47,9.217 1.167,4.355 7.92,2.505 6.75-1.861-.823-3.072-1.647-6.145-2.47-9.217-1.168-4.356-7.92-2.505-6.75,1.861z"/>
<path d="m175.359,248.254c6.681-6.681 13.362-13.361 20.043-20.043 3.195-3.194-1.755-8.144-4.949-4.949-6.682,6.681-13.363,13.361-20.044,20.043-3.194,3.194 1.756,8.143 4.95,4.949z"/>
<path d="m184.108,248.663c-.823-3.072-1.646-6.145-2.47-9.217-1.167-4.355-7.919-2.505-6.75,1.861 .823,3.072 1.646,6.145 2.47,9.217 1.168,4.356 7.921,2.505 6.75-1.861z"/>
<path d="m168.205,241.371c3.072,.823 6.145,1.646 9.217,2.47 4.366,1.17 6.217-5.583 1.861-6.75-3.072-.823-6.145-1.646-9.217-2.47-4.366-1.17-6.217,5.583-1.861,6.75z"/>
<path d="m203.631,252.333c-2.445-9.127-4.892-18.254-7.337-27.381-1.167-4.355-7.92-2.505-6.75,1.861 2.445,9.127 4.892,18.254 7.337,27.381 1.167,4.356 7.92,2.505 6.75-1.861z"/>
<path d="m208.415,244.998c-3.072-.823-6.145-1.647-9.217-2.471-4.366-1.17-6.217,5.582-1.861,6.75 3.072,.823 6.145,1.647 9.217,2.471 4.366,1.17 6.217-5.582 1.861-6.75z"/>
<path d="m194.115,255.093c2.249-2.249 4.498-4.498 6.747-6.747 3.194-3.194-1.755-8.145-4.949-4.949-2.249,2.249-4.498,4.498-6.747,6.747-3.195,3.194 1.755,8.143 4.949,4.949z"/>
<path d="m221.173,229.814c-9.127-2.445-18.254-4.891-27.381-7.336-4.366-1.17-6.217,5.583-1.861,6.75 9.127,2.445 18.254,4.891 27.381,7.336 4.366,1.17 6.216-5.583 1.861-6.75z"/>
<path d="m217.146,222.009c-2.25,2.249-4.499,4.498-6.748,6.747-3.195,3.194 1.755,8.144 4.949,4.949 2.25-2.249 4.499-4.498 6.748-6.747 3.196-3.194-1.754-8.144-4.949-4.949z"/>
<path d="m218.75,239.397c-.823-3.072-1.646-6.145-2.47-9.218-1.167-4.355-7.92-2.505-6.75,1.861 .823,3.072 1.646,6.145 2.47,9.218 1.167,4.356 7.92,2.506 6.75-1.861z"/>
</g>
</svg>
