<?xml version="1.0" encoding="utf-8"?>
<!-- Generator: Adobe Illustrator 21.0.2, SVG Export Plug-In . SVG Version: 6.00 Build 0)  -->
<svg version="1.1" id="Layer_1" xmlns="http://www.w3.org/2000/svg" xmlns:xlink="http://www.w3.org/1999/xlink" x="0px" y="0px"
	 viewBox="0 0 321 321" enable-background="new 0 0 321 321" xml:space="preserve">
<g>
	<path fill="#FFF" d="M161.8,84.8c5-3.9,0.1-12.6-5-8.6c-35,26.8-70,53.5-105,80.3c-3.2,2.4-3.2,6.2,0,8.6c35,26.8,70,53.5,105,80.3
		c3.1,2.4,7.5-0.9,7.5-4.3c0-4.1,0-8.2,0-12.4c0-49.4,0-98.8,0-148.1c0-6.4-10-6.4-10,0c0,4.1,0,8.2,0,12.4c0,49.4,0,98.8,0,148.1
		c2.5-1.4,5-2.9,7.5-4.3c-35-26.8-70-53.5-105-80.3c0,2.9,0,5.8,0,8.6C91.8,138.3,126.8,111.5,161.8,84.8L161.8,84.8z"/>
	<path fill="#FFF" d="M232.5,84.8c5-3.9,0.1-12.6-5-8.6c-35,26.8-70,53.5-105,80.3c-3.2,2.4-3.2,6.2,0,8.6c35,26.8,70,53.5,105,80.3
		c3.1,2.4,7.5-0.9,7.5-4.3c0-4.1,0-8.2,0-12.4c0-51.4,0-96.8,0-148.1c0-6.4-10-6.4-10,0c0,4.1,0,8.2,0,12.4c0,59.6,0,88.6,0,148.1
		c2.5-1.4,5-2.9,7.5-4.3c-39.3-30-68-52-105-80.3c0,2.9,0,5.8,0,8.6C162.5,138.3,197.5,111.5,232.5,84.8L232.5,84.8z"/>
	<path fill="#FFF" d="M44.2,246.1L44.2,246.1c2.8,0,5.2-2.3,5.2-5.2V80.3c0-2.8-2.3-5.2-5.2-5.2h0c-2.8,0-5.2,2.3-5.2,5.2v160.6
		C39,243.7,41.3,246.1,44.2,246.1z"/>
</g>
</svg>
