<svg xmlns="http://www.w3.org/2000/svg" width="361" height="361" viewBox="0 0 361 361">
  <path d="M154.07 261.97c-.25 1.2-3.83.6-5.35.6h-20.56c-.88 0-.4.23-.4.12v-54c0-.9-.4-.3.1-.3h26.35c-.5 0-.2 2.1-.2 3.3v51.1c0 4.5 7 4.5 7 0v-53.3c0-5.6-3.4-8.1-8.7-8.1h-21.5c-5.1 0-10 1.2-10 7.5v40.2c0 7.4-2.6 20.22 8.3 20.22H148c5.1 0 11.55.84 12.9-5.76.9-4.4-5.87-6.25-6.76-1.8zm-83.3 24.27c.7 3.4 4.63 7.43 8.4 5.3 1.65-.9 3.28-1.83 4.9-2.75l20.26-11.4c3.67-2.1 10.57-4.6 12.82-8.4 1.65-2.8.62-8.5.62-11.5v-45.1c0-3 .93-8.4-.68-11.1-2-3.4-9.5-6.2-12.8-8L84 182.1l-4.8-2.7c-3.83-2.17-7.8 1.72-8.5 5.24-.5 2.46-.14 5.28-.14 7.77v92.9c0 4.5 7 4.5 7 0V190c0-1.52-.57-4 .67-4.26-.9-.1-1.8-.23-2.7-.35l31.9 17.9 1.63.9 1.4.7c1.95 1 .27.3.27-.4V266c0 .3-9.67 5.13-10.75 5.74l-20.1 11.3-4.3 2.4 2.7-.35-.8-.8c-.9-4.4-7.63-2.6-6.74 1.8zm131-131.42c1.5 7.35 10.03 5.75 15.6 5.75h17.77c6.72 0 6.68-6.6 6.68-11.4V105.8c0-4.77.84-9.5-3.67-12.55-1.62-1.08-4.46-.72-6.32-.72h-11.56c-4.43 0-14.2-1.78-17.2 2.66-1.97 2.9-1.42 6.6-1.42 9.9v48.7c0 4.5 7 4.5 7 0v-53.2c0-1.7-.54-1.1.78-1.1h24.6c1.08 0 .78-.1.78-.1v53.9c0 .7-.1.2.3.2h-21.2c-1.5 0-5.1.6-5.3-.6-.9-4.5-7.6-2.6-6.7 1.8zm83.3 20.55l-.8.8c.9.1 1.8.23 2.7.35l-31.9-17.92c-.56-.3-3.24-1.85-3.24-1.38V95.58c0-.48.03.37-.63.82.5-.33 1.73-.9 2.16-1.14l1.33-.74 7.8-4.43 20.1-11.3 4.3-2.4-2.7.3c1.2.2.6 2.3.6 3.8v95.7c0 4.5 7 4.5 7 0V76.6c0-3.82-4.6-8.48-8.5-6.26l-4.3 2.42-20 11.28c-3.5 1.98-10.4 4.43-13 7.7-2.1 2.63-1.2 7.97-1.2 11.1v45.08c0 3.75-.3 7.62.3 11.34.6 3.64 9.6 7.14 12.4 8.74 6.8 3.8 13.6 7.6 20.4 11.42l5.3 3c2.9 1.63 7.7-.56 8.4-3.93l.3-1.3c.9-4.4-5.9-6.3-6.8-1.9zm-100 8.4c-.43 3.3-4.3 2.24-6.5 2.24h-10.3c-1.04 0-5.5.8-5.5-1.4v-39.8c0-2.5 15.4-1.3 17.45-1.3 1.23 0 4.74-.6 4.74 1.6v39.7c0 4.6 7 4.6 7 0v-36.6c0-5.6-1.5-11.7-8.56-11.7h-18.8c-6.8 0-8.85 5.5-8.85 11.2v37.1c0 8.8 9.04 8.4 15.2 8.4 6.94 0 19.57 2.38 20.88-7.35.6-4.4-6.15-6.32-6.75-1.86z" fill="#FFF"/>
  <path d="M199.88 216.18c-.44 3.3-4.3 2.23-6.5 2.23h-10.3c-1.06 0-5.53.8-5.53-1.4v-39.8c0-2.5 14.7-1.3 16.67-1.3 1.28 0 5.54-.7 5.54 1.5v39.9c0 4.5 7 4.5 7 0v-37.1c0-5.7-2-11.2-8.85-11.2h-18.8c-7.1 0-8.5 6.2-8.5 11.85V203c0 4.9-.5 10.14.2 15 1.2 8.72 10.6 7.38 17 7.38 6.7 0 17.7 1.9 19-7.35.6-4.4-6.1-6.33-6.7-1.87z" fill="#FFF"/>
</svg>
