<svg xmlns="http://www.w3.org/2000/svg" viewBox="20 20 321 321">
<g fill="#fff">
<path d="m138.736,260.167c0,8.833 0,17.667 0,26.5 0,6.448 10,6.448 10,0 0-8.833 0-17.667 0-26.5 0-6.448-10-6.448-10,0z"/>
<path d="m102.486,291.667c27.5,0 55,0 82.5,0 6.448,0 6.448-10 0-10-27.5,0-55,0-82.5,0-6.449,0-6.449,10 0,10z"/>
<path d="m174.358,251.793c-5.708,3.928-11.55,3.374-18.193,3.374-5.776,0-11.552,0-17.328,0-4.396,0-8.825,.146-13.211-.188-8.758-.671-17.07-4.99-23.375-10.942-10.115-9.549-12.043-21.988-12.043-35.127 0-9.62 0-19.241 0-28.861 0-6.449-10-6.449-10,0 0,10.581 0,21.162 0,31.743 0,15.837 4.769,30.275 16.874,41.061 12.025,10.715 26.442,12.315 41.755,12.315 5.928,0 11.855,0 17.783,0 8.281,0 15.694,.141 22.785-4.739 5.275-3.631 .281-12.303-5.047-8.636z"/>
</g>
<path fill="none" stroke="#fff" stroke-width="10" d="m169.359,227.578c0-15.325 6.05-29.228 15.877-39.482v-81.208c0-17.795-14.427-32.22-32.221-32.22h-18.56c-17.795,0-32.22,14.425-32.22,32.22v104.561c0,17.794 14.425,32.221 32.22,32.221h18.56c6.415,0 12.387-1.883 17.408-5.115-.691-3.554-1.064-7.221-1.064-10.977z"/>
<g fill="#fff">
<path d="m275.771,227.263c-.264,21.84-14.327,41.069-35.273,47.55-20.997,6.497-44.063-2.393-55.993-20.61-12.03-18.37-9.942-43.151 4.398-59.601 14.373-16.484 38.712-21.485 58.469-12.159 17.335,8.182 28.17,25.79 28.399,44.82 .117,9.678 15.12,9.774 15.004,.107-.285-23.601-12.93-45.153-33.556-56.708-20.663-11.576-46.938-10.132-66.615,2.754-19.622,12.85-30.716,36.13-28.74,59.426 1.966,23.186 16.774,44.002 38.044,53.441 20.026,8.887 43.534,6.933 61.857-5.067 18.09-11.847 28.75-32.365 29.01-53.846 .118-9.691-14.886-9.766-15.004-.107z"/>
<path d="m191.149,272.959c26.912-26.912 53.824-53.824 80.735-80.736 6.836-6.835-3.813-17.403-10.665-10.551-26.912,26.912-53.824,53.824-80.736,80.736-6.835,6.835 3.814,17.404 10.666,10.551z"/>
</g>
</svg>
