<svg xmlns="http://www.w3.org/2000/svg" viewBox="20 20 321 321">
<g fill="#ffffff">
  <path
     d="m 239.81,222.017 c 15.039,11.495 30.079,22.989 45.118,34.484 0,-2.878 0,-5.757 0,-8.635 -15.039,11.494 -30.079,22.989 -45.118,34.483 2.508,1.439 5.016,2.878 7.523,4.317 0,-22.989 0,-45.979 0,-68.968 0,-6.448 -10,-6.448 -10,0 0,22.989 0,45.979 0,68.968 0,3.436 4.396,6.707 7.523,4.317 15.04,-11.494 30.079,-22.989 45.118,-34.483 3.178,-2.429 3.178,-6.206 0,-8.635 -15.039,-11.495 -30.078,-22.989 -45.118,-34.484 -5.125,-3.917 -10.096,4.776 -5.046,8.636 z" />
  <path
     d="m 244.904,147.916 c 15.04,-11.495 30.08,-22.99 45.119,-34.484 3.178,-2.429 3.178,-6.206 0,-8.635 -15.039,-11.495 -30.079,-22.989 -45.119,-34.484 -3.127,-2.39 -7.523,0.882 -7.523,4.317 0,22.989 0,45.979 0,68.968 0,6.449 10,6.449 10,0 0,-22.989 0,-45.979 0,-68.968 -2.508,1.439 -5.016,2.878 -7.523,4.317 15.039,11.495 30.079,22.989 45.119,34.484 0,-2.878 0,-5.756 0,-8.635 -15.04,11.495 -30.08,22.99 -45.119,34.484 -5.05,3.861 -0.079,12.553 5.046,8.636 z" />
  <path
     d="m 241.896,247.184 c -11.181,0 -26.316,2.707 -35.444,-5.123 -9.918,-8.509 -6.981,-24.71 -6.99,-36.361 -0.005,-6.448 -10.005,-6.449 -10,0 0.012,14.925 -2.22,30.756 8.971,42.53 11.118,11.698 28.898,8.954 43.464,8.954 6.448,0 6.448,-10 -0.001,-10 z" />
  <path
     d="m 144.963,185.527 c 9.685,0 19.71,0.79 29.325,-0.514 8.771,-1.189 16.371,-7.302 20.919,-14.627 3.575,-5.757 4.171,-12.339 4.177,-18.922 0.005,-5.389 0.01,-10.778 0.015,-16.167 0.008,-8.6 4.931,-15.537 12.532,-19.23 4.821,-2.342 11.095,-1.593 16.308,-1.593 4.715,0 9.429,0 14.143,0 6.448,0 6.448,-10 0,-10 -9.9,0 -20.847,-1.299 -30.539,1.092 -8.526,2.104 -15.707,8.618 -19.484,16.394 -2.83,5.824 -2.958,11.948 -2.964,18.247 -0.004,4.917 -0.009,9.834 -0.013,14.751 -0.008,9.35 -6.287,17.157 -15.102,19.834 -4.734,1.438 -10.533,0.735 -15.413,0.735 -4.634,0 -9.269,0 -13.903,0 -6.45,0 -6.45,10 -0.001,10 z" />
  <path
     d="m 75.423,257.021 c 10.055,0 21.52,1.477 31.26,-1.482 8.405,-2.553 15.331,-9.218 18.718,-17.226 2.538,-6.001 2.441,-12.123 2.446,-18.478 0.003,-4.767 0.007,-9.532 0.011,-14.298 0.007,-9.35 6.289,-17.158 15.102,-19.835 4.677,-1.421 10.394,-0.734 15.216,-0.734 4.889,0 9.777,0 14.666,0 6.449,0 6.449,-10 0,-10 -9.371,0 -19.226,-0.933 -28.529,0.329 -9.02,1.223 -16.449,6.296 -21.587,13.695 -4.079,5.873 -4.865,12.887 -4.87,19.813 -0.01,12.761 2.423,27.569 -10.202,35.407 -5.19,3.223 -11.126,2.809 -16.948,2.809 -5.094,0 -10.188,0 -15.283,0 -6.448,0 -6.448,10 0,10 z" />
  <path
     d="m 127.939,154.796 c -0.013,-15.461 2.173,-32.058 -10.913,-43.285 -11.428,-9.804 -28.131,-7.2 -42.087,-7.2 -6.449,0 -6.449,10 0,10 5.336,0 10.672,0 16.008,0 6.785,0 13.285,-0.153 19.008,4.271 10.82,8.365 7.974,24.192 7.984,36.213 0.005,6.45 10.005,6.45 10,0.001 z" />
  <path fill="none" stroke="#ffffff" stroke-width="10"
     d="m 79.073358,130.11969 c 100.000002,0 100.000002,0 100.000002,0 l 0,100.00001 -100.000002,0 z" />
</g>
</svg>
