<?xml version="1.0" encoding="utf-8"?>
<!-- Generator: Adobe Illustrator 21.0.2, SVG Export Plug-In . SVG Version: 6.00 Build 0)  -->
<svg version="1.1" id="Layer_1" xmlns="http://www.w3.org/2000/svg" xmlns:xlink="http://www.w3.org/1999/xlink" x="0px" y="0px"
	 viewBox="0 0 321 321" style="enable-background:new 0 0 321 321;" xml:space="preserve">
<g>
	<path fill="#FFF" d="M159.2,84.8c35,26.8,70,53.5,105,80.3c0-2.9,0-5.8,0-8.6c-35,26.8-70,53.5-105,80.3c2.5,1.4,5,2.9,7.5,4.3
		c0-49.4,0-98.8,0-148.1c0-4.1,0-8.2,0-12.4c0-6.4-10-6.4-10,0c0,49.4,0,98.8,0,148.1c0,4.1,0,8.2,0,12.4c0,3.4,4.4,6.7,7.5,4.3
		c35-26.8,70-53.5,105-80.3c3.2-2.4,3.2-6.2,0-8.6c-35-26.8-70-53.5-105-80.3C159.2,72.2,154.2,80.9,159.2,84.8L159.2,84.8z"/>
	<path fill="#FFF" d="M88.5,84.8c35,26.8,70,53.5,105,80.3c0-2.9,0-5.8,0-8.6c-37,28.3-65.7,50.2-105,80.3c2.5,1.4,5,2.9,7.5,4.3
		c0-59.6,0-88.6,0-148.1c0-4.1,0-8.2,0-12.4c0-6.4-10-6.4-10,0c0,51.4,0,96.8,0,148.1c0,4.1,0,8.2,0,12.4c0,3.4,4.4,6.7,7.5,4.3
		c35-26.8,70-53.5,105-80.3c3.2-2.4,3.2-6.2,0-8.6c-35-26.8-70-53.5-105-80.3C88.4,72.2,83.4,80.9,88.5,84.8L88.5,84.8z"/>
	<path fill="#FFF" d="M276.8,246.1L276.8,246.1c-2.8,0-5.2-2.3-5.2-5.2V80.3c0-2.8,2.3-5.2,5.2-5.2l0,0c2.8,0,5.2,2.3,5.2,5.2v160.6
		C282,243.7,279.7,246.1,276.8,246.1z"/>
</g>
</svg>
