<svg xmlns="http://www.w3.org/2000/svg" viewBox="20 20 321 321">
<g fill="#fff">
<path d="m177.896,80.364c30.108,22.835 60.217,45.67 90.326,68.505 .841-3.106 1.683-6.211 2.523-9.317-30.036,.154-60.072,.309-90.108,.463-6.447,.033-6.45,10.033 0,10 30.036-.154 60.072-.309 90.108-.463 5.393-.028 6.268-6.478 2.523-9.317-30.108-22.835-60.217-45.67-90.326-68.505-5.14-3.9-10.113,4.791-5.046,8.634z"/>
<path d="m273.106,140.234c-29.96-22.835-59.921-45.67-89.881-68.505-1.254-.956-3.794-.956-5.047,0-29.96,22.835-59.921,45.67-89.881,68.505-3.717,2.833-2.888,9.317 2.523,9.317 49.926,0 99.853,0 149.779,0 9.994,0 19.989,0 29.983,0 6.448,0 6.448-10 0-10-49.927,0-99.853,0-149.779,0-9.995,0-19.989,0-29.983,0 .841,3.106 1.683,6.211 2.523,9.317 29.96-22.835 59.921-45.67 89.882-68.505-1.683,0-3.365,0-5.047,0 29.96,22.835 59.92,45.67 89.881,68.505 5.131,3.912 10.104-4.78 5.047-8.634z"/>
<path d="m244.523,281.64c.119-.612 2.896-.431 .289-.431-1.465,0-2.931,0-4.396,0-5.081,0-10.163,0-15.244,0-15.325,0-30.651,0-45.977,0-15.068,0-30.137,0-45.206,0-4.76,0-9.52,0-14.279,0-1.186,0-2.373,0-3.559,0-2.266,0 .889,.446 .889,1.604 0-23.229 0-46.46 0-69.689 0-15.037 0-30.074 0-45.111 0-4.852 0-9.703 0-14.554 0-1.282 0-2.564 0-3.847 0-2.691 .264,.404-1.827,.404 22.99,0 45.98,0 68.97,0 14.88,0 29.76,0 44.64,0 4.537,0 9.074,0 13.611,0 1.049,0 2.098,0 3.146,0 1.829,0-1.236-2.634-1.236-1.414 0,44.79 0,89.579 0,134.368 0,6.448 10,6.448 10,0 0-44.875 0-89.751 0-134.626 0-10.524-13.427-8.327-20.264-8.327-13.988,0-27.978,0-41.966,0-25.321,0-50.642,0-75.963,0-9.931,0-9.111,9.228-9.111,16.197 0,12.772 0,25.546 0,38.318 0,27.881 0,55.762 0,83.643 0,2.542-.064,4.883 .425,7.387 .977,5.008 6.364,5.649 10.467,5.649 10.801,0 21.602,0 32.402,0 29.229,0 58.457,0 87.686,0 6.195,0 14.553,1.25 16.146-6.911 1.23-6.301-8.408-8.987-9.643-2.66z"/>
<path d="m119.521,215.75 122.469,0"/>
<path d="m119.521,217.25c40.823,0 81.646,0 122.47,0 1.935,0 1.935-3 0-3-40.823,0-81.646,0-122.47,0-1.935,0-1.935,3 0,3z"/>
<path d="m173.787,113.522c-.4-.773-.947-1.394-1.64-1.86-.694-.466-1.587-.7-2.68-.7-.214,0-.454,.007-.72,.02-.267,.015-.507,.047-.72,.101v16.641c.133,.027 .28,.041 .44,.041 .16,0 .306,0 .44,0 1.12,0 2.06-.214 2.82-.641 .761-.426 1.374-1.013 1.84-1.76s.8-1.633 1-2.66c.2-1.026 .3-2.154 .3-3.38 0-1.066-.08-2.106-.24-3.12-.159-1.015-.439-1.908-.84-2.682z"/>
<path d="m241.513,130.73l-58.455-44.038c-1.347-1.015-3.202-1.015-4.549,0l-58.455,44.038c-1.298,.978-1.826,2.677-1.311,4.218 .516,1.542 1.959,2.581 3.585,2.581h116.91c1.625,0 3.068-1.04 3.585-2.581 .516-1.541-.012-3.24-1.31-4.218zm-62.505-5.547c-.574,1.614-1.367,2.927-2.38,3.94-1.014,1.014-2.221,1.754-3.62,2.22-1.4,.466-2.94,.7-4.621,.7-.88,0-1.74-.047-2.581-.14-.84-.094-1.74-.247-2.7-.46v-24.162c1.12-.24 2.173-.4 3.16-.48 .986-.08 1.907-.12 2.761-.12 1.626,0 3.113,.24 4.46,.72s2.487,1.233 3.42,2.26c.933,1.027 1.66,2.334 2.18,3.92 .52,1.587 .78,3.5 .78,5.741 .001,2.295-.285,4.248-.859,5.861zm9.421,.68c.933,1.4 2.306,2.101 4.12,2.101 .293,0 .613-.014 .96-.041 .347-.026 .667-.066 .96-.12v-9.041h4.921v12.361c-.587,.214-1.501,.454-2.74,.72-1.24,.266-2.74,.4-4.5,.4-1.548,0-2.94-.274-4.181-.82-1.24-.546-2.301-1.36-3.181-2.44-.88-1.08-1.56-2.426-2.04-4.04s-.72-3.486-.72-5.621c0-2.106 .279-3.967 .84-5.581 .56-1.614 1.32-2.966 2.28-4.06s2.094-1.914 3.4-2.46c1.307-.546 2.706-.82 4.2-.82 .96,0 1.82,.074 2.58,.22 .761,.147 1.42,.314 1.979,.5 .561,.187 1.021,.387 1.381,.6 .359,.214 .633,.374 .82,.48l-1.28,3.92c-.587-.373-1.307-.706-2.16-1-.854-.293-1.733-.44-2.641-.44-1.174,0-2.16,.214-2.96,.64-.8,.427-1.46,1.02-1.98,1.78-.52,.76-.893,1.667-1.12,2.721-.227,1.053-.339,2.22-.339,3.5 .001,2.961 .467,5.141 1.401,6.541z"/>
<path d="m258.334,217.25c10.61,0 21.222,0 31.832,0 1.935,0 1.935-3 0-3-10.61,0-21.222,0-31.832,0-1.935,0-1.935,3 0,3z"/>
<path d="m279.25,268.445c3,0 6,0 9,0 4.514,0 4.514-7 0-7-3,0-6,0-9,0-4.514,0-4.514,7 0,7z"/>
<path d="m260.583,283.682c5.333,0 10.667,0 16,0 4.514,0 4.514-7 0-7-5.333,0-10.667,0-16,0-4.514,0-4.514,7 0,7z"/>
<path d="m260.917,272.445c2,0 4,0 6,0 1.908,0 3.5-1.592 3.5-3.5s-1.592-3.5-3.5-3.5c-2,0-4,0-6,0-1.908,0-3.5,1.592-3.5,3.5s1.592,3.5 3.5,3.5z"/>
<path d="m274.25,279.445c.667,0 1.333,0 2,0 1.908,0 3.5-1.592 3.5-3.5s-1.592-3.5-3.5-3.5c-.667,0-1.333,0-2,0-1.908,0-3.5,1.592-3.5,3.5s1.592,3.5 3.5,3.5z"/>
<path d="m268.417,256.445c-2,0-4,0-6,0-1.908,0-3.5,1.592-3.5,3.5s1.592,3.5 3.5,3.5c2,0 4,0 6,0 1.908,0 3.5-1.592 3.5-3.5s-1.592-3.5-3.5-3.5z"/>
<path d="m262.834,241.612c-.667,0-1.333,0-2,0-1.908,0-3.5,1.592-3.5,3.5s1.592,3.5 3.5,3.5c.667,0 1.333,0 2,0 1.908,0 3.5-1.592 3.5-3.5s-1.592-3.5-3.5-3.5z"/>
<path d="m286.5,244.612c-5.333,0-10.667,0-16,0-4.514,0-4.514,7 0,7 5.333,0 10.667,0 16,0 4.514,0 4.514-7 0-7z"/>
<path d="m277.5,252.612c-5.083,0-10.167,0-15.25,0-4.514,0-4.514,7 0,7 5.083,0 10.167,0 15.25,0 4.514,0 4.514-7 0-7z"/>
<path d="m283.834,239.612c-2,0-4,0-6,0-1.908,0-3.5,1.592-3.5,3.5s1.592,3.5 3.5,3.5c2,0 4,0 6,0 1.908,0 3.5-1.592 3.5-3.5s-1.592-3.5-3.5-3.5z"/>
<path d="m266.5,236.612c-2,0-4,0-6,0-1.908,0-3.5,1.592-3.5,3.5s1.592,3.5 3.5,3.5c2,0 4,0 6,0 1.908,0 3.5-1.592 3.5-3.5s-1.592-3.5-3.5-3.5z"/>
<path d="m262.916,284.736c-.667,0-1.333,0-2,0-1.908,0-3.5,1.592-3.5,3.5s1.592,3.5 3.5,3.5c.667,0 1.333,0 2,0 1.908,0 3.5-1.592 3.5-3.5s-1.592-3.5-3.5-3.5z"/>
<path d="m287.582,284.736c-5.333,0-10.667,0-16,0-4.514,0-4.514,7 0,7 5.333,0 10.667,0 16,0 4.514,0 4.514-7 0-7z"/>
<path d="m288.5,270.445c-2,0-4,0-6,0-1.908,0-3.5,1.592-3.5,3.5s1.592,3.5 3.5,3.5c2,0 4,0 6,0 1.908,0 3.5-1.592 3.5-3.5s-1.592-3.5-3.5-3.5z"/>
<path d="m287.834,236.612c-2,0-4,0-6,0-1.908,0-3.5,1.592-3.5,3.5s1.592,3.5 3.5,3.5c2,0 4,0 6,0 1.908,0 3.5-1.592 3.5-3.5s-1.592-3.5-3.5-3.5z"/>
<path d="m98.499,273.445c.667,0 1.333,0 2,0 1.908,0 3.5-1.592 3.5-3.5s-1.592-3.5-3.5-3.5c-.667,0-1.333,0-2,0-1.908,0-3.5,1.592-3.5,3.5s1.592,3.5 3.5,3.5z"/>
<path d="m73.833,279.445c5.333,0 10.667,0 16,0 4.514,0 4.514-7 0-7-5.333,0-10.667,0-16,0-4.514,0-4.514,7 0,7z"/>
<path d="m85.833,268.445c5.083,0 10.167,0 15.25,0 4.514,0 4.514-7 0-7-5.083,0-10.167,0-15.25,0-4.515,0-4.515,7 0,7z"/>
<path d="m73.458,291.736c2,0 4,0 6,0 1.908,0 3.5-1.592 3.5-3.5s-1.592-3.5-3.5-3.5c-2,0-4,0-6,0-1.908,0-3.5,1.592-3.5,3.5s1.592,3.5 3.5,3.5z"/>
<path d="m94.165,285.682c2,0 4,0 6,0 1.908,0 3.5-1.592 3.5-3.5s-1.592-3.5-3.5-3.5c-2,0-4,0-6,0-1.908,0-3.5,1.592-3.5,3.5s1.592,3.5 3.5,3.5z"/>
<path d="m88.083,252.612c-3,0-6,0-9,0-4.514,0-4.514,7 0,7 3,0 6,0 9,0 4.514,0 4.514-7 0-7z"/>
<path d="m101.083,236.612c-5.333,0-10.667,0-16,0-4.514,0-4.514,7 0,7 5.333,0 10.667,0 16,0 4.514,0 4.514-7 0-7z"/>
<path d="m100.416,241.612c-2,0-4,0-6,0-1.908,0-3.5,1.592-3.5,3.5s1.592,3.5 3.5,3.5c2,0 4,0 6,0 1.908,0 3.5-1.592 3.5-3.5s-1.592-3.5-3.5-3.5z"/>
<path d="m80.708,237.945c-1.083,0-2.167,0-3.25,0-1.908,0-3.5,1.592-3.5,3.5s1.592,3.5 3.5,3.5c1.083,0 2.167,0 3.25,0 1.908,0 3.5-1.592 3.5-3.5s-1.593-3.5-3.5-3.5z"/>
<path d="m98.25,259.612c.667,0 1.333,0 2,0 1.908,0 3.5-1.592 3.5-3.5s-1.592-3.5-3.5-3.5c-.667,0-1.333,0-2,0-1.908,0-3.5,1.592-3.5,3.5s1.592,3.5 3.5,3.5z"/>
<path d="m100.498,284.736c-2,0-4,0-6,0-1.908,0-3.5,1.592-3.5,3.5s1.592,3.5 3.5,3.5c2,0 4,0 6,0 1.908,0 3.5-1.592 3.5-3.5s-1.593-3.5-3.5-3.5z"/>
<path d="m84.583,281.167c-.667,0-1.333,0-2,0-1.908,0-3.5,1.592-3.5,3.5s1.592,3.5 3.5,3.5c.667,0 1.333,0 2,0 1.908,0 3.5-1.592 3.5-3.5s-1.592-3.5-3.5-3.5z"/>
<path d="m72.167,217.25c10.611,0 21.222,0 31.833,0 1.935,0 1.935-3 0-3-10.611,0-21.222,0-31.833,0-1.935,0-1.935,3 0,3z"/>
<path d="m79.832,244.167c-2,0-4,0-6,0-1.908,0-3.5,1.592-3.5,3.5s1.592,3.5 3.5,3.5c2,0 4,0 6,0 1.908,0 3.5-1.592 3.5-3.5s-1.593-3.5-3.5-3.5z"/>
<path d="m78.832,263.445c-1.833,0-3.667,0-5.5,0-1.908,0-3.5,1.592-3.5,3.5s1.592,3.5 3.5,3.5c1.833,0 3.667,0 5.5,0 1.908,0 3.5-1.592 3.5-3.5s-1.593-3.5-3.5-3.5z"/>
<path d="m101.437,226.889c-5.333,0-10.667,0-16,0-4.514,0-4.514,7 0,7 5.333,0 10.667,0 16,0 4.514,0 4.514-7 0-7z"/>
<path d="m78.769,228.125c-.667,0-1.333,0-2,0-1.908,0-3.5,1.592-3.5,3.5s1.592,3.5 3.5,3.5c.667,0 1.333,0 2,0 1.908,0 3.5-1.592 3.5-3.5s-1.592-3.5-3.5-3.5z"/>
<path d="m99.104,225.834c.667,0 1.333,0 2,0 1.908,0 3.5-1.592 3.5-3.5s-1.592-3.5-3.5-3.5c-.667,0-1.333,0-2,0-1.908,0-3.5,1.592-3.5,3.5s1.592,3.5 3.5,3.5z"/>
<path d="m74.438,224.834c5.333,0 10.667,0 16,0 4.514,0 4.514-7 0-7-5.333,0-10.667,0-16,0-4.514,0-4.514,7 0,7z"/>
<path d="m288.187,229.125c-5.333,0-10.667,0-16,0-4.514,0-4.514,7 0,7 5.333,0 10.667,0 16,0 4.513,0 4.513-7 0-7z"/>
<path d="m288.563,216.834c-2,0-4,0-6,0-1.908,0-3.5,1.592-3.5,3.5s1.592,3.5 3.5,3.5c2,0 4,0 6,0 1.908,0 3.5-1.592 3.5-3.5s-1.592-3.5-3.5-3.5z"/>
<path d="m267.854,224.889c-2,0-4,0-6,0-1.908,0-3.5,1.592-3.5,3.5s1.592,3.5 3.5,3.5c2,0 4,0 6,0 1.908,0 3.5-1.592 3.5-3.5s-1.591-3.5-3.5-3.5z"/>
<path d="m261.521,225.834c2,0 4,0 6,0 1.908,0 3.5-1.592 3.5-3.5s-1.592-3.5-3.5-3.5c-2,0-4,0-6,0-1.908,0-3.5,1.592-3.5,3.5s1.592,3.5 3.5,3.5z"/>
<path d="m277.437,229.404c.667,0 1.333,0 2,0 1.908,0 3.5-1.592 3.5-3.5s-1.592-3.5-3.5-3.5c-.667,0-1.333,0-2,0-1.908,0-3.5,1.592-3.5,3.5s1.591,3.5 3.5,3.5z"/>
</g>
</svg>
