<svg xmlns="http://www.w3.org/2000/svg" viewBox="20 20 321 321">
<g fill="none" stroke="#fff" stroke-width="10">
<path d="m81.581,287.417c-3.313,0-6-2.687-6-6v-201c0-3.313 2.687-6 6-6h199.5c3.313,0 6,2.687 6,6v201c0,3.313-2.687,6-6,6h-199.5z"/>
<path d="m81.581,235.334c-3.313,0-6-1.389-6-3.1v-103.802c0-1.711 2.687-3.099 6-3.099h199.5c3.313,0 6,1.388 6,3.099v103.802c0,1.711-2.687,3.1-6,3.1h-199.5z"/>
</g>
<g fill="#fff">
<path d="m157.22,209.713c-.527,2.608-9.921,1.27-11.886,1.27-1.101,0-4.13,.586-4.13-1.27 0-1.918 0-3.836 0-5.754 0-1.89 10.544-.977 11.833-.977 1.101,0 4.13-.586 4.13,1.27 0,1.953 0,3.906 0,5.859 0,1.935 3,1.935 3,0 0-2.505 .257-5.116-.24-7.579-.528-2.615-3.703-2.55-5.717-2.55-3.35,0-6.7,0-10.049,0-2.748,0-5.254,.259-5.903,3.473-.405,2.003-.405,5.052 0,7.055 .649,3.214 3.155,3.473 5.903,3.473 3.35,0 6.7,0 10.049,0 2.748,0 5.254-.259 5.903-3.473 .381-1.889-2.51-2.693-2.893-.797z"/>
<path d="m103.417,190.315c11.722,0 23.444,0 35.166,0 6.449,0 6.449-10 0-10-11.722,0-23.444,0-35.166,0-6.449,0-6.449,10 0,10z"/>
<path d="m134.127,180.877c0,1.209-.979,2.188-2.188,2.188h-21.877c-1.209,0-2.188-.979-2.188-2.188v-25.461c0-1.208 .979-2.188 2.188-2.188h21.877c1.209,0 2.188,.98 2.188,2.188v25.461z"/>
<path d="m271.948,217.117c0,1.967-1.595,3.561-3.562,3.561h-21.357c-1.967,0-3.563-1.594-3.563-3.561v-9.398c0-1.967 1.596-3.563 3.563-3.563h21.357c1.967,0 3.562,1.596 3.562,3.563v9.398z"/>
<path d="m270.502,216.719c-.563,3.487-5.403,2.459-7.652,2.459-3.708,0-7.417,0-11.125,0-1.933,0-6.758,.869-6.758-2.518 0-2.94 0-5.881 0-8.821 0-3.978 16.436-2.183 18.725-2.183 2.466,0 6.757-.851 6.757,3.04 0,2.807 0,5.614 0,8.421 0,1.935 3,1.935 3,0 0-3.606 .34-7.355-.235-10.923-.608-3.772-5.203-3.538-7.983-3.538-5.015,0-10.028,0-15.043,0-3.706,0-7.434,.125-8.166,4.664-.489,3.031-.489,7.164 0,10.195 .732,4.538 4.461,4.662 8.166,4.662 5.015,0 10.028,0 15.043,0 3.705,0 7.433-.124 8.165-4.662 .304-1.891-2.586-2.702-2.894-.796z"/>
<path d="m104.154,269.157c-7.717-.566-7.717-12.441 0-13.008 2.682-.196 5.444,0 8.134,0 7.831,0 7.591,12.451 0,13.008-2.682,.197-5.444,0-8.134,0-4.514,0-4.514,7 0,7 7.645,0 15.276,.64 19.565-7.097 4.933-8.895-1.985-19.218-11.432-19.911-7.495-.55-15.502-.231-19.565,7.097-4.933,8.895 1.985,19.218 11.432,19.911 4.506,.331 4.474-6.672 0-7z"/>
<path d="m152.465,269.157c-7.717-.566-7.717-12.441 0-13.008 2.682-.196 5.444,0 8.134,0 7.831,0 7.591,12.451 0,13.008-2.682,.197-5.444,0-8.134,0-4.514,0-4.514,7 0,7 7.645,0 15.276,.64 19.565-7.097 4.933-8.895-1.985-19.218-11.432-19.911-7.495-.55-15.502-.231-19.565,7.097-4.933,8.895 1.985,19.218 11.432,19.911 4.506,.331 4.474-6.672 0-7z"/>
<path d="m200.777,269.157c-7.717-.566-7.717-12.441 0-13.008 2.681-.196 5.443,0 8.133,0 7.831,0 7.591,12.451 0,13.008-2.681,.197-5.443,0-8.133,0-4.514,0-4.514,7 0,7 7.644,0 15.276,.64 19.564-7.097 4.932-8.896-1.984-19.218-11.432-19.911-7.494-.55-15.502-.231-19.564,7.097-4.932,8.896 1.984,19.218 11.432,19.911 4.506,.331 4.474-6.672 0-7z"/>
<path d="m249.088,269.157c-7.717-.566-7.717-12.441 0-13.008 2.682-.197 5.444,0 8.135,0 7.83,0 7.591,12.45 0,13.008-2.682,.197-5.445,0-8.135,0-4.514,0-4.514,7 0,7 7.645,0 15.276,.64 19.566-7.097 4.933-8.895-1.985-19.218-11.432-19.911-7.495-.55-15.503-.231-19.566,7.097-4.933,8.895 1.985,19.218 11.432,19.911 4.506,.331 4.474-6.672 0-7z"/>
<path d="m103.966,104.308c-7.717-.566-7.717-12.441 0-13.008 2.682-.197 5.444,0 8.134,0 7.831,0 7.591,12.451 0,13.008-2.682,.196-5.444,0-8.134,0-4.514,0-4.514,7 0,7 7.645,0 15.276,.639 19.565-7.097 4.933-8.895-1.985-19.218-11.432-19.911-7.494-.55-15.502-.231-19.565,7.097-4.933,8.895 1.985,19.218 11.432,19.911 4.506,.33 4.474-6.672 0-7z"/>
<path d="m152.277,104.308c-7.717-.566-7.717-12.441 0-13.008 2.682-.197 5.444,0 8.134,0 7.831,0 7.591,12.451 0,13.008-2.682,.196-5.444,0-8.134,0-4.514,0-4.514,7 0,7 7.645,0 15.276,.639 19.565-7.097 4.933-8.895-1.985-19.218-11.432-19.911-7.494-.55-15.502-.231-19.565,7.097-4.933,8.895 1.985,19.218 11.432,19.911 4.506,.33 4.474-6.672 0-7z"/>
<path d="m200.589,104.308c-7.717-.566-7.717-12.441 0-13.008 2.682-.197 5.444,0 8.134,0 7.831,0 7.591,12.451 0,13.008-2.682,.196-5.445,0-8.134,0-4.514,0-4.514,7 0,7 7.645,0 15.276,.639 19.565-7.097 4.933-8.895-1.985-19.218-11.432-19.911-7.494-.55-15.502-.231-19.565,7.097-4.933,8.895 1.985,19.218 11.432,19.911 4.506,.33 4.474-6.672 0-7z"/>
<path d="m248.9,104.308c-7.717-.566-7.717-12.441 0-13.008 2.682-.197 5.444,0 8.134,0 7.831,0 7.591,12.451 0,13.008-2.681,.196-5.444,0-8.134,0-4.514,0-4.514,7 0,7 7.645,0 15.276,.639 19.565-7.097 4.933-8.895-1.985-19.218-11.432-19.911-7.494-.55-15.502-.231-19.565,7.097-4.933,8.895 1.985,19.218 11.432,19.911 4.506,.33 4.474-6.672 0-7z"/>
</g>
</svg>
