<svg xmlns="http://www.w3.org/2000/svg" viewBox="20 20 321 321">
<g fill="#FFFFFF">
	<path d="M187.992,163.333H174.34c-6.065,0-11,4.935-11,11v13.334c0,6.065,4.935,11,11,11h13.652 c6.066,0,11-4.935,11-11v-13.334C198.992,168.268,194.059,163.333,187.992,163.333z"/>
	<path d="M174.34,143.667h13.652c6.066,0,11-4.935,11-11v-13.334c0-6.065-4.934-11-11-11H174.34 c-6.065,0-11,4.935-11,11v13.334C163.34,138.732,168.275,143.667,174.34,143.667z"/>
	<path d="M187.992,218.333H174.34c-6.065,0-11,4.935-11,11v13.334c0,6.065,4.935,11,11,11h13.652 c6.066,0,11-4.935,11-11v-13.334C198.992,223.268,194.059,218.333,187.992,218.333z"/>
</g>
</svg>
