<svg width="321" height="321" xmlns="http://www.w3.org/2000/svg">
 <g>
  <title>Layer 1</title>
  <path id="svg_1" d="m231.81599,140.54019c2.929,0 5.30301,0.90311 5.30301,2.01582v34.96594c0,1.11394 -2.37401,2.01703 -5.30301,2.01703h-103.39499c-2.92801,0 -5.302,-0.90309 -5.302,-2.01703v-34.96594c0,-1.11272 2.37399,-2.01582 5.302,-2.01582h103.39499l0,0z" stroke-width="10" stroke="#fff" fill="none"/>
  <path id="svg_2" d="m104.872,139.354c26.74999,-35 53.501,-70.00001 80.25199,-105.00001c-2.87799,0 -5.756,0 -8.63499,0c26.75,35 53.50101,70.00001 80.25099,105.00001c1.439,-2.50801 2.87802,-5.01601 4.31702,-7.52301c-49.38301,0 -98.765,0 -148.147,0c-4.119,0 -8.23701,0 -12.355,0c-6.449,0 -6.449,10 0,10c49.382,0 98.76501,0 148.147,0c4.11801,0 8.237,0 12.35501,0c3.436,0 6.707,-4.39699 4.31699,-7.52299c-26.75,-35 -53.50099,-70 -80.25099,-105c-2.429,-3.178 -6.20599,-3.178 -8.63499,0c-26.75,35 -53.50101,70 -80.25201,105c-3.916,5.125 4.776,10.09601 8.636,5.04601z" fill="#fff"/>
  <path transform="rotate(180, 181, 232)" id="svg_3" d="m105.12787,286.97705c26.75,-35 53.50098,-70 80.25201,-105c-2.87805,0 -5.75604,0 -8.63501,0c26.75,35 53.50098,70 80.25098,105c1.43896,-2.508 2.87805,-5.01599 4.31702,-7.52301c-49.383,0 -98.76501,0 -148.14697,0c-4.11902,0 -8.23706,0 -12.35504,0c-6.44897,0 -6.44897,10 0,10c49.38202,0 98.76501,0 148.14703,0c4.11798,0 8.23694,0 12.35498,0c3.43604,0 6.70703,-4.39697 4.31702,-7.52301c-26.75,-35 -53.50104,-70 -80.25104,-105c-2.42902,-3.17798 -6.20599,-3.17798 -8.63495,0c-26.75,35 -53.50104,70 -80.25201,105c-3.91602,5.125 4.776,10.09601 8.63599,5.04602z" fill="#fff"/>
 </g>
</svg>
