<svg xmlns="http://www.w3.org/2000/svg" viewBox="20 20 321 321">
<g stroke="#FFFF" fill="none" stroke-width="10" stroke-miterlimit="10">
	<path d="M193.5,187.493c0,3.313-2.688,6-6,6h-13.334 c-3.313,0-6-2.687-6-6v-13.652c0-3.314,2.687-6,6-6H187.5c3.313,0,6,2.686,6,6V187.493z"/>
	<path d="M248.5,187.493c0,3.313-2.688,6-6,6h-13.334 c-3.313,0-6-2.687-6-6v-13.652c0-3.314,2.687-6,6-6H242.5c3.313,0,6,2.686,6,6V187.493z"/>
	<path d="M138.5,187.493c0,3.313-2.688,6-6,6h-13.334 c-3.313,0-6-2.687-6-6v-13.652c0-3.314,2.687-6,6-6H132.5c3.313,0,6,2.686,6,6V187.493z"/>
</g>
</svg>
