<svg xmlns="http://www.w3.org/2000/svg" viewBox="20 20 321 321">
<g fill="#fff">
<path d="m213.037,247.725c-.454,8.987-8.134,9.646-15.023,9.646-7.472,0-14.943,0-22.415,0-6.002,0-12.004,0-18.006,0-7.156,0-10.591-5.121-10.591-11.709 0-13.709 0-27.418 0-41.126 0-6.43 1.92-13.201 9.889-13.201 5.277,0 10.555,0 15.832,0 9.038,0 18.076,0 27.113,0 2.808,0 5.422-.159 8.055,1.108 4.255,2.051 5.146,6.391 5.146,10.601 0,14.894 0,29.787 0,44.681 0,4.514 7,4.514 7,0 0-12.298 0-24.597 0-36.895 0-4.814 .494-9.982-.716-14.688-1.998-7.771-9.723-11.807-17.204-11.807-13.578,0-27.156,0-40.734,0-6.207,0-11.583,.401-16.506,4.876-4.8,4.362-4.875,10.588-4.875,16.506 0,12.424 0,24.849 0,37.272 0,4.529 .021,8.525 2.064,12.768 2.889,5.997 9.599,8.614 15.855,8.614 11.874,0 23.748,0 35.621,0 3.283,0 6.565,0 9.849,0 9.394,0 16.19-7.612 16.646-16.646 .228-4.514-6.773-4.492-7,0z"/>
<path d="m176.723,209.818c0,10.444 0,20.889 0,31.333 0,4.514 7,4.514 7,0 0-10.444 0-20.889 0-31.333 0-4.513-7-4.513-7,0z"/>
<path d="m181.079,156.583-.244-81 106.801,81z"/>
<path d="m186.079,156.583c-.081-27-.163-54-.244-81-2.508,1.439-5.016,2.878-7.523,4.317 35.59,26.992 71.18,53.984 106.77,80.976 .011,.008 .021,.016 .031,.024 .841-3.106 1.683-6.211 2.523-9.317-35.519,0-71.038,0-106.557,0-6.449,0-6.449,10 0,10 35.519,0 71.038,0 106.557,0 5.402,0 6.252-6.489 2.523-9.317-35.59-26.992-71.18-53.984-106.77-80.976-.011-.008-.021-.016-.031-.024-3.125-2.371-7.534,.868-7.523,4.317 .082,27 .163,54 .244,81 .02,6.448 10.02,6.45 10,0z"/>
<path d="m180.591,156.583 .244-80.999-106.801,80.999z"/>
<path d="m185.591,156.583c.081-27 .163-54 .244-81 .011-3.45-4.397-6.688-7.523-4.317-35.59,26.992-71.18,53.984-106.77,80.976-.011,.008-.021,.016-.031,.023-3.729,2.828-2.879,9.317 2.523,9.317 35.519,0 71.038,0 106.557,0 6.448,0 6.448-10 0-10-35.519,0-71.038,0-106.557,0 .841,3.106 1.683,6.211 2.523,9.317 35.59-26.992 71.18-53.984 106.77-80.976 .011-.008 .021-.016 .031-.023-2.508-1.439-5.016-2.878-7.523-4.317-.082,27-.163,54-.244,81-.02,6.45 9.98,6.448 10,0z"/>
</g>
<path fill="none" stroke="#fff" stroke-width="10" d="m268.835,279.988c0,3.919-3.927,7.096-8.771,7.096h-157.792c-4.844,0-8.771-3.177-8.771-7.096v-129.381c0-3.918 175.333-3.918 175.333,0v129.381z"/>
</svg>
