<svg xmlns="http://www.w3.org/2000/svg" viewBox="20 20 321 321">
<g fill="#FFFFFF">
	<path d="M281.335,163.333H81.665c-6.065,0-11,4.935-11,11v13.334c0,6.065,4.935,11,11,11h199.67 c6.065,0,11-4.935,11-11v-13.334C292.335,168.268,287.4,163.333,281.335,163.333z"/>
	<path d="M81.165,143.667h199.67c6.065,0,11-4.935,11-11v-13.334c0-6.065-4.935-11-11-11H81.165 c-6.065,0-11,4.935-11,11v13.334C70.165,138.732,75.1,143.667,81.165,143.667z"/>
	<path d="M280.835,218.333H81.165c-6.065,0-11,4.935-11,11v13.334c0,6.065,4.935,11,11,11h199.67 c6.065,0,11-4.935,11-11v-13.334C291.835,223.268,286.9,218.333,280.835,218.333z"/>
</g>
</svg>
