<svg xmlns="http://www.w3.org/2000/svg" viewBox="20 20 321 321">
<g fill="#fff">
<path d="m103.254,124.002v149.945c0,2.716 2.131,4.919 4.761,4.919h138.842c2.629,0 4.761-2.203 4.761-4.919v-161.945c0-2.716-2.132-4.919-4.761-4.919l-138.842,12c-2.629,0-4.761,2.203-4.761,4.919z"/>
<path d="m90.042,283.981c1.507,9.67 13.562,7.561 20.607,7.561 13.053,0 26.105,0 39.158,0 30.174,0 60.349,0 90.523,0 6.024,0 14.784,1.54 20.345-1.433 5.767-3.085 4.016-14.013 4.016-19.349 .001-28.154 .002-56.309 .003-84.462 .001-29.461 .002-58.921 .003-88.382 0-2.543-2.281-5.242-5-5-49.242,4.375-98.484,8.751-147.726,13.126-5.176,.46-17.919-.306-20.699,5.255-2.775,5.551-1.408,13.681-1.408,19.661 0,29.737 0,59.475 0,89.212 0,20.827 0,41.654 0,62.481 0,6.448 10,6.448 10,0 0-49.738 0-99.477 0-149.214 0-4.219 0-8.438 0-12.656 0-1.12 0-2.239 0-3.359 0-2.128 .295-.33-1.231-.194 6.1-.542 12.199-1.084 18.298-1.626 30.328-2.695 60.656-5.39 90.984-8.084 17.261-1.534 34.521-3.067 51.781-4.601-1.667-1.667-3.333-3.333-5-5-.002,49.756-.003,99.512-.005,149.268 0,10.074 0,20.148-.001,30.224 0,1.727 0,3.453 0,5.18 0-1.123 2.133-1.046 .416-1.046-1.123,0-2.245,0-3.368,0-26.485,0-52.972,0-79.458,0-16.854,0-33.707,0-50.561,0-5.518,0-11.036,0-16.554,0-1.572,0-3.144,0-4.716,0-.432,0-.864,0-1.296,0-1.216,0 .565,.001 .531-.219-.99-6.357-10.625-3.649-9.642,2.657z"/>
<path d="m283.363,90.667c-48.87,4.25-97.74,8.501-146.61,12.752-19.529,1.699-39.057,3.397-58.586,5.096-6.373,.554-6.427,10.559 0,10 48.87-4.25 97.74-8.501 146.61-12.752 19.528-1.699 39.058-3.397 58.586-5.096 6.373-.554 6.428-10.559 0-10z"/>
</g>
</svg>
