<svg xmlns="http://www.w3.org/2000/svg" viewBox="20 20 321 321">
<g fill="#fff">
<path d="m167.671,142.722c-.338-.933-.813-1.673-1.424-2.22-.612-.547-1.433-.821-2.462-.821s-1.851,.274-2.462,.821c-.612,.547-1.086,1.296-1.424,2.245-.337,.95-.563,2.052-.675,3.307-.113,1.254-.169,2.606-.169,4.055 0,1.448 .056,2.808 .169,4.079 .112,1.272 .338,2.374 .675,3.307 .338,.934 .813,1.674 1.424,2.221 .611,.547 1.432,.821 2.462,.821 .998,0 1.811-.273 2.438-.821 .628-.547 1.11-1.295 1.449-2.245 .337-.95 .562-2.052 .675-3.307 .112-1.255 .169-2.607 .169-4.055 0-1.448-.057-2.807-.169-4.079-.114-1.272-.339-2.374-.676-3.308z"/>
<path d="m103.254,130.002v43.945c0,2.716 2.131,4.919 4.761,4.919h138.842c2.629,0 4.761-2.203 4.761-4.919v-55.945c0-2.716-2.132-4.919-4.761-4.919l-138.842,12c-2.629-0-4.761,2.203-4.761,4.919zm68.496,31.764c-1.867,2.624-4.506,3.935-7.917,3.935-3.508,0-6.188-1.311-8.038-3.935-1.851-2.623-2.776-6.509-2.776-11.658 0-5.148 .949-9.035 2.848-11.659 1.899-2.622 4.538-3.934 7.917-3.934 3.508,0 6.18,1.312 8.014,3.934 1.834,2.624 2.751,6.51 2.751,11.659 .001,5.149-.933,9.036-2.799,11.658zm13.131-3.765c1.126,1.689 2.783,2.535 4.973,2.535 .354,0 .739-.016 1.158-.048 .418-.032 .804-.08 1.158-.145v-10.91h5.938v14.917c-.708,.258-1.811,.547-3.307,.869-1.496,.321-3.307,.482-5.43,.482-1.867,0-3.549-.331-5.045-.989-1.498-.66-2.776-1.642-3.839-2.945-1.062-1.303-1.883-2.928-2.462-4.875-.579-1.947-.869-4.208-.869-6.783 0-2.542 .337-4.787 1.014-6.734 .676-1.947 1.593-3.58 2.752-4.9 1.159-1.319 2.526-2.309 4.103-2.969 1.576-.66 3.266-.99 5.068-.99 1.158,0 2.197,.089 3.114,.265 .917,.178 1.714,.379 2.39,.604 .676,.226 1.23,.467 1.666,.724 .434,.258 .764,.451 .989,.58l-1.546,4.731c-.707-.45-1.576-.853-2.605-1.207-1.031-.354-2.093-.531-3.187-.531-1.417,0-2.606,.258-3.572,.772-.966,.515-1.763,1.231-2.39,2.148-.627,.917-1.078,2.012-1.352,3.283-.273,1.272-.41,2.679-.41,4.224 .001,3.571 .564,6.203 1.691,7.892z"/>
<path d="m90.042,249.981c1.507,9.67 13.562,7.561 20.607,7.561 13.053,0 26.105,0 39.158,0 30.174,0 60.349,0 90.523,0 6.024,0 14.784,1.54 20.345-1.433 6.176-3.304 4.016-16.539 4.017-22.129 .001-30.152 .002-60.305 .003-90.458 .001-13.202 .001-26.404 .002-39.606 0-2.543-2.281-5.242-5-5-49.242,4.375-98.484,8.751-147.726,13.126-5.176,.46-17.919-.306-20.699,5.255-1.553,3.106-1.408,5.811-1.408,9.116 0,4.788 0,9.576 0,14.364 0,30.22 0,60.44 0,90.66 0,5.738 0,11.477 0,17.215 0,6.448 10,6.448 10,0 0-22.752 0-45.505 0-68.257 0-14.604 0-29.209 0-43.814 0-4.074 0-8.147 0-12.222 0-.716 0-1.432 0-2.147 0,.994-2.17,1.099-.279,.931 50.822-4.516 101.645-9.032 152.468-13.547 2.548-.227 5.096-.453 7.644-.679-1.667-1.667-3.333-3.333-5-5-.002,47.313-.004,94.625-.006,141.938 0,.824 0,1.649 0,2.474 0,.91 2.074-.787 .709-.787-2.612,0-5.225,0-7.837,0-12.105,0-24.212,0-36.318,0-30.794,0-61.588,0-92.383,0-4.844,0-9.688,0-14.532,0-1.37,0-2.74,0-4.11,0-2.392,0-.5-.002-.535-.219-.991-6.356-10.626-3.648-9.643,2.658z"/>
<path d="m250.312,182.371-147.02,0"/>
<path d="m250.312,180.871c-47.763,0-95.526,0-143.29,0-1.243,0-2.487,0-3.73,0-1.935,0-1.935,3 0,3 47.763,0 95.526,0 143.289,0 1.244,0 2.487,0 3.73,0 1.935,0 1.935-3 .001-3z"/>
<path d="m283.363,96.667c-48.87,4.25-97.74,8.501-146.61,12.752-19.529,1.699-39.057,3.397-58.586,5.096-6.373,.554-6.427,10.559 0,10 48.87-4.25 97.74-8.501 146.61-12.752 19.528-1.699 39.058-3.397 58.586-5.096 6.373-.554 6.428-10.559 0-10z"/>
<path d="m268.833,250.592c7.208,0 14.417,0 21.625,0 1.935,0 1.935-3 0-3-7.208,0-14.417,0-21.625,0-1.935,0-1.935,3 0,3z"/>
<path d="m283.391,281.786c1.531,0 3.063,0 4.595,0 1.908,0 3.5-1.592 3.5-3.5s-1.592-3.5-3.5-3.5c-1.531,0-3.063,0-4.595,0-1.908,0-3.5,1.592-3.5,3.5s1.591,3.5 3.5,3.5z"/>
<path d="m256.666,291.786c5.333,0 10.667,0 16,0 4.514,0 4.514-7 0-7-5.333,0-10.667,0-16,0-4.514,0-4.514,7 0,7z"/>
<path d="m268.25,285.786c2,0 4,0 6,0 1.908,0 3.5-1.592 3.5-3.5s-1.592-3.5-3.5-3.5c-2,0-4,0-6,0-1.908,0-3.5,1.592-3.5,3.5s1.592,3.5 3.5,3.5z"/>
<path d="m286.584,291.786c.667,0 1.333,0 2,0 1.908,0 3.5-1.592 3.5-3.5s-1.592-3.5-3.5-3.5c-.667,0-1.333,0-2,0-1.908,0-3.5,1.592-3.5,3.5s1.592,3.5 3.5,3.5z"/>
<path d="m267.666,271.474c-2,0-4,0-6,0-1.908,0-3.5,1.592-3.5,3.5s1.592,3.5 3.5,3.5c2,0 4,0 6,0 1.908,0 3.5-1.592 3.5-3.5s-1.592-3.5-3.5-3.5z"/>
<path d="m265.666,259.453c-.667,0-1.333,0-2,0-1.908,0-3.5,1.592-3.5,3.5s1.592,3.5 3.5,3.5c.667,0 1.333,0 2,0 1.908,0 3.5-1.592 3.5-3.5s-1.592-3.5-3.5-3.5z"/>
<path d="m288.5,257.953c-5.222,0-10.444,0-15.666,0-4.514,0-4.514,7 0,7 5.222,0 10.444,0 15.666,0 4.514,0 4.514-7 0-7z"/>
<path d="m284.834,265.953c-5.083,0-10.167,0-15.25,0-4.514,0-4.514,7 0,7 5.083,0 10.167,0 15.25,0 4.514,0 4.514-7 0-7z"/>
<path d="m288.168,251.953c-1.89,0-3.778,0-5.668,0-1.908,0-3.5,1.592-3.5,3.5s1.592,3.5 3.5,3.5c1.89,0 3.778,0 5.668,0 1.908,0 3.5-1.592 3.5-3.5s-1.592-3.5-3.5-3.5z"/>
<path d="m273.501,253.62c-2,0-4,0-6,0-1.908,0-3.5,1.592-3.5,3.5s1.592,3.5 3.5,3.5c2,0 4,0 6,0 1.908,0 3.5-1.592 3.5-3.5s-1.592-3.5-3.5-3.5z"/>
<path d="m256.104,263.89c-2,0-4,0-6,0-1.908,0-3.5,1.592-3.5,3.5s1.592,3.5 3.5,3.5c2,0 4,0 6,0 1.908,0 3.5-1.592 3.5-3.5s-1.592-3.5-3.5-3.5z"/>
<path d="m287.833,269.953c-.222,0-.443,0-.665,0-1.908,0-3.5,1.592-3.5,3.5s1.592,3.5 3.5,3.5c.222,0 .443,0 .665,0 1.908,0 3.5-1.592 3.5-3.5s-1.592-3.5-3.5-3.5z"/>
<path d="m73.75,282.89c2.337,0 4.673,0 7.01,0 4.514,0 4.514-7 0-7-2.337,0-4.673,0-7.01,0-4.515,0-4.515,7 0,7z"/>
<path d="m100.271,279.89c2.581,0 5.161,0 7.741,0 4.514,0 4.514-7 0-7-2.581,0-5.161,0-7.741,0-4.515,0-4.515,7 0,7z"/>
<path d="m96.834,268.89c5.083,0 10.167,0 15.25,0 4.514,0 4.514-7 0-7-5.083,0-10.167,0-15.25,0-4.514,0-4.514,7 0,7z"/>
<path d="m122.069,291.786c2,0 4,0 6,0 1.908,0 3.5-1.592 3.5-3.5s-1.592-3.5-3.5-3.5c-2,0-4,0-6,0-1.908,0-3.5,1.592-3.5,3.5s1.592,3.5 3.5,3.5z"/>
<path d="m246.238,284.277c-3,0-6.001,0-9.001,0-4.514,0-4.514,7 0,7 3,0 6.001,0 9.001,0 4.514,0 4.514-7 0-7z"/>
<path d="m259.237,268.277c-5.333,0-10.667,0-16,0-4.514,0-4.514,7 0,7 5.333,0 10.667,0 16,0 4.514,0 4.514-7 0-7z"/>
<path d="m79.874,251.578c-2,0-4,0-6,0-1.908,0-3.5,1.592-3.5,3.5s1.592,3.5 3.5,3.5c2,0 4,0 6,0 1.908,0 3.5-1.592 3.5-3.5s-1.592-3.5-3.5-3.5z"/>
<path d="m240.487,260.536c-1.083,0-2.167,0-3.25,0-1.908,0-3.5,1.592-3.5,3.5s1.592,3.5 3.5,3.5c1.083,0 2.167,0 3.25,0 1.908,0 3.5-1.592 3.5-3.5s-1.591-3.5-3.5-3.5z"/>
<path d="m76.583,272.953c.667,0 1.333,0 2,0 1.908,0 3.5-1.592 3.5-3.5s-1.592-3.5-3.5-3.5c-.667,0-1.333,0-2,0-1.908,0-3.5,1.592-3.5,3.5s1.592,3.5 3.5,3.5z"/>
<path d="m93.584,276.277c-.667,0-1.333,0-2,0-1.908,0-3.5,1.592-3.5,3.5s1.592,3.5 3.5,3.5c.667,0 1.333,0 2,0 1.908,0 3.5-1.592 3.5-3.5s-1.592-3.5-3.5-3.5z"/>
<path d="m71.416,250.592c4.917,0 9.833,0 14.75,0 1.935,0 1.935-3 0-3-4.917,0-9.833,0-14.75,0-1.935,0-1.935,3 0,3z"/>
<path d="m196.164,284.786c-2,0-4,0-6,0-1.908,0-3.5,1.592-3.5,3.5s1.592,3.5 3.5,3.5c2,0 4,0 6,0 1.908,0 3.5-1.592 3.5-3.5s-1.592-3.5-3.5-3.5z"/>
<path d="m87.833,263.89c-1.833,0-3.667,0-5.5,0-1.908,0-3.5,1.592-3.5,3.5s1.592,3.5 3.5,3.5c1.833,0 3.667,0 5.5,0 1.908,0 3.5-1.592 3.5-3.5s-1.592-3.5-3.5-3.5z"/>
<path d="m172.5,266.953c3,0 6,0 9,0 4.514,0 4.514-7 0-7-3,0-6,0-9,0-4.514,0-4.514,7 0,7z"/>
<path d="m205.916,291.82c5.333,0 10.667,0 16,0 4.514,0 4.514-7 0-7-5.333,0-10.667,0-16,0-4.514,0-4.514,7 0,7z"/>
<path d="m221.375,277.729c2,0 4,0 6,0 1.908,0 3.5-1.592 3.5-3.5s-1.592-3.5-3.5-3.5c-2,0-4,0-6,0-1.908,0-3.5,1.592-3.5,3.5s1.592,3.5 3.5,3.5z"/>
<path d="m215.209,288.035c.667,0 1.333,0 2,0 1.908,0 3.5-1.592 3.5-3.5s-1.592-3.5-3.5-3.5c-.667,0-1.333,0-2,0-1.908,0-3.5,1.592-3.5,3.5s1.592,3.5 3.5,3.5z"/>
<path d="m213.75,264.584c-2,0-4,0-6,0-1.908,0-3.5,1.592-3.5,3.5s1.592,3.5 3.5,3.5c2,0 4,0 6,0 1.908,0 3.5-1.592 3.5-3.5s-1.592-3.5-3.5-3.5z"/>
<path d="m222.834,260.751c-5.083,0-10.167,0-15.25,0-4.514,0-4.514,7 0,7 5.083,0 10.167,0 15.25,0 4.514,0 4.514-7 0-7z"/>
<path d="m233.834,278.584c-2,0-4,0-6,0-1.908,0-3.5,1.592-3.5,3.5s1.592,3.5 3.5,3.5c2,0 4,0 6,0 1.908,0 3.5-1.592 3.5-3.5s-1.592-3.5-3.5-3.5z"/>
<path d="m135.882,271.917c-3,0-6,0-9,0-4.514,0-4.514,7 0,7 3,0 6,0 9,0 4.514,0 4.514-7 0-7z"/>
<path d="m152.736,260.549c-5.333,0-10.667,0-16,0-4.514,0-4.514,7 0,7 5.333,0 10.667,0 16,0 4.514,0 4.514-7 0-7z"/>
<path d="m152.402,271.786c-2,0-4,0-6,0-1.908,0-3.5,1.592-3.5,3.5s1.592,3.5 3.5,3.5c2,0 4,0 6,0 1.908,0 3.5-1.592 3.5-3.5s-1.592-3.5-3.5-3.5z"/>
<path d="m139.069,265.786c-.667,0-1.333,0-2,0-1.908,0-3.5,1.592-3.5,3.5s1.592,3.5 3.5,3.5c.667,0 1.333,0 2,0 1.908,0 3.5-1.592 3.5-3.5s-1.592-3.5-3.5-3.5z"/>
<path d="m144.902,291.786c2,0 4,0 6,0 1.908,0 3.5-1.592 3.5-3.5s-1.592-3.5-3.5-3.5c-2,0-4,0-6,0-1.908,0-3.5,1.592-3.5,3.5s1.593,3.5 3.5,3.5z"/>
<path d="m85.819,291.619c5.083,0 10.167,0 15.25,0 4.514,0 4.514-7 0-7-5.083,0-10.167,0-15.25,0-4.514,0-4.514,7 0,7z"/>
<path d="m124.569,271.786c2,0 4,0 6,0 1.908,0 3.5-1.592 3.5-3.5s-1.592-3.5-3.5-3.5c-2,0-4,0-6,0-1.908,0-3.5,1.592-3.5,3.5s1.593,3.5 3.5,3.5z"/>
<path d="m178.251,276.584c3,0 6.001,0 9.001,0 4.514,0 4.514-7 0-7-3,0-6.001,0-9.001,0-4.514,0-4.514,7 0,7z"/>
<path d="m159.584,291.82c5.333,0 10.667,0 16,0 4.514,0 4.514-7 0-7-5.333,0-10.667,0-16,0-4.514,0-4.514,7 0,7z"/>
<path d="m154.902,283.786c2,0 4,0 6,0 1.908,0 3.5-1.592 3.5-3.5s-1.592-3.5-3.5-3.5c-2,0-4,0-6,0-1.908,0-3.5,1.592-3.5,3.5s1.593,3.5 3.5,3.5z"/>
<path d="m173.251,287.584c.667,0 1.333,0 2,0 1.908,0 3.5-1.592 3.5-3.5s-1.592-3.5-3.5-3.5c-.667,0-1.333,0-2,0-1.908,0-3.5,1.592-3.5,3.5s1.593,3.5 3.5,3.5z"/>
<path d="m167.584,264.584c-3.722,0-7.444,0-11.166,0-4.514,0-4.514,7 0,7 3.722,0 7.444,0 11.166,0 4.514,0 4.514-7 0-7z"/>
<path d="m210.666,267.786c-3.902,0-7.806,0-11.708,0-4.514,0-4.514,7 0,7 3.902,0 7.806,0 11.708,0 4.514,0 4.514-7 0-7z"/>
<path d="m192.001,278.584c-2,0-4,0-6,0-1.908,0-3.5,1.592-3.5,3.5s1.592,3.5 3.5,3.5c2,0 4,0 6,0 1.908,0 3.5-1.592 3.5-3.5s-1.592-3.5-3.5-3.5z"/>
<path d="m146.902,279.786c5.333,0 10.667,0 16,0 4.514,0 4.514-7 0-7-5.333,0-10.667,0-16,0-4.514,0-4.514,7 0,7z"/>
<path d="m118.012,275.203c-3,0-6,0-9,0-4.514,0-4.514,7 0,7 3,0 6,0 9,0 4.514,0 4.514-7 0-7z"/>
<path d="m123.636,260.536c-1.083,0-2.167,0-3.25,0-1.908,0-3.5,1.592-3.5,3.5s1.592,3.5 3.5,3.5c1.083,0 2.167,0 3.25,0 1.908,0 3.5-1.592 3.5-3.5s-1.592-3.5-3.5-3.5z"/>
<path d="m99.584,265.167c-2,0-4,0-6,0-1.908,0-3.5,1.592-3.5,3.5s1.592,3.5 3.5,3.5c2,0 4,0 6,0 1.908,0 3.5-1.592 3.5-3.5s-1.592-3.5-3.5-3.5z"/>
<path d="m87.26,281.035c-1.833,0-3.667,0-5.5,0-1.908,0-3.5,1.592-3.5,3.5s1.592,3.5 3.5,3.5c1.833,0 3.667,0 5.5,0 1.908,0 3.5-1.592 3.5-3.5s-1.592-3.5-3.5-3.5z"/>
<path d="m189.416,270.89c5.083,0 10.167,0 15.25,0 4.514,0 4.514-7 0-7-5.083,0-10.167,0-15.25,0-4.514,0-4.514,7 0,7z"/>
<path d="m143.083,281.917c-.667,0-1.333,0-2,0-1.908,0-3.5,1.592-3.5,3.5s1.592,3.5 3.5,3.5c.667,0 1.333,0 2,0 1.908,0 3.5-1.592 3.5-3.5s-1.592-3.5-3.5-3.5z"/>
<path d="m146.833,271.723c-.667,0-1.333,0-2,0-1.908,0-3.5,1.592-3.5,3.5s1.592,3.5 3.5,3.5c.667,0 1.333,0 2,0 1.908,0 3.5-1.592 3.5-3.5s-1.592-3.5-3.5-3.5z"/>
<path d="m105.261,291.619c1.833,0 3.667,0 5.5,0 1.908,0 3.5-1.592 3.5-3.5s-1.592-3.5-3.5-3.5c-1.833,0-3.667,0-5.5,0-1.908,0-3.5,1.592-3.5,3.5s1.593,3.5 3.5,3.5z"/>
<path d="m73.332,290.667c.667,0 1.333,0 2,0 1.908,0 3.5-1.592 3.5-3.5s-1.592-3.5-3.5-3.5c-.667,0-1.333,0-2,0-1.908,0-3.5,1.592-3.5,3.5s1.592,3.5 3.5,3.5z"/>
<path d="m92.583,281.953c.667,0 1.333,0 2,0 1.908,0 3.5-1.592 3.5-3.5s-1.592-3.5-3.5-3.5c-.667,0-1.333,0-2,0-1.908,0-3.5,1.592-3.5,3.5s1.592,3.5 3.5,3.5z"/>
<path d="m103.833,272.89c-1.833,0-3.667,0-5.5,0-1.908,0-3.5,1.592-3.5,3.5s1.592,3.5 3.5,3.5c1.833,0 3.667,0 5.5,0 1.908,0 3.5-1.592 3.5-3.5s-1.592-3.5-3.5-3.5z"/>
<path d="m250.834,283.292c.667,0 1.333,0 2,0 1.908,0 3.5-1.592 3.5-3.5s-1.592-3.5-3.5-3.5c-.667,0-1.333,0-2,0-1.908,0-3.5,1.592-3.5,3.5s1.592,3.5 3.5,3.5z"/>
<path d="m211.5,272.89c-3.722,0-7.444,0-11.166,0-4.514,0-4.514,7 0,7 3.722,0 7.444,0 11.166,0 4.514,0 4.514-7 0-7z"/>
<path d="m83.166,259.953c-3.278,0-6.556,0-9.833,0-4.514,0-4.514,7 0,7 3.278,0 6.556,0 9.833,0 4.514,0 4.514-7 0-7z"/>
<path d="m140.46,280.584c-3.722,0-7.444,0-11.166,0-4.514,0-4.514,7 0,7 3.722,0 7.444,0 11.166,0 4.515,0 4.515-7 0-7z"/>
</g>
</svg>
