<svg width="321" height="321" viewBox="20 20 321 321" xmlns="http://www.w3.org/2000/svg">
 <g>
  <path d="m184.33543,231.86501c0,2.92799 -1.04202,5.302 -2.32735,5.302h-40.34529c-1.28531,0 -2.32738,-2.37401 -2.32738,-5.302v-103.39601c0,-2.92799 1.04205,-5.30199 2.32738,-5.30199h40.34529c1.28531,0 2.32735,2.374 2.32735,5.30199v103.39601l0,0z" stroke-width="10" stroke="#fff" fill="none"/>
  <path d="m185.519,104.92c34.99901,26.75 69.99901,53.50101 104.99901,80.25101c0,-2.87801 0,-5.75601 0,-8.63501c-35,26.75 -70,53.50101 -104.99901,80.25099c2.508,1.43903 5.01601,2.87802 7.52301,4.31702c0,-49.38301 0,-98.765 0,-148.147c0,-4.119 0,-8.237 0,-12.355c0,-6.449 -10,-6.449 -10,0c0,49.382 0,98.76501 0,148.147c0,4.11801 0,8.237 0,12.35501c0,3.436 4.396,6.707 7.52299,4.31699c35,-26.74998 69.99899,-53.50099 104.99899,-80.25099c3.17801,-2.429 3.17801,-6.20599 0,-8.63499c-35,-26.75 -69.99899,-53.50101 -104.99899,-80.25101c-5.125,-3.916 -10.09601,4.777 -5.04601,8.636l0,0l0,0z" fill="#fff"/>
  <path d="m28.0248,106.129c34.9991,26.75 69.9991,53.50101 104.9992,80.25101c0,-2.87801 0,-5.75601 0,-8.63501c-35.0001,26.75 -70.0001,53.50101 -104.9992,80.25101c2.508,1.439 5.0161,2.87799 7.5231,4.31699c0,-49.383 0,-98.76498 0,-148.14699c0,-4.119 0,-8.237 0,-12.355c0,-6.449 -10.0001,-6.449 -10.0001,0c0,49.382 0,98.76501 0,148.147c0,4.11801 0,8.23701 0,12.355c0,3.436 4.396,6.707 7.5231,4.31702c35,-26.75 69.9991,-53.50101 104.99911,-80.25101c3.17799,-2.429 3.17799,-6.20599 0,-8.63499c-35.00001,-26.75 -69.99911,-53.50101 -104.99911,-80.25101c-5.125,-3.91599 -10.0961,4.777 -5.0461,8.636l0,0l0,0z" fill="#fff" transform="rotate(-180.0, 83, 182)"/>
 </g>
</svg>