<svg xmlns="http://www.w3.org/2000/svg" viewBox="20 20 321 321">
<g fill="#FFFFFF">
	<path d="M77.782,133.501c48.905,0,97.811,0,146.715,0c20.096,0,40.19,0,60.285,0
		c9.686,0,9.771-15.003,0.107-15.003c-48.905,0-97.811,0-146.715,0c-20.095,0-40.189,0-60.284,0
		C68.204,118.499,68.118,133.501,77.782,133.501L77.782,133.501z"/>
	<path d="M77.782,243.502c48.905,0,97.811,0,146.715,0c20.096,0,40.19,0,60.285,0
		c9.686,0,9.771-15.004,0.107-15.004c-48.905,0-97.811,0-146.715,0c-20.095,0-40.189,0-60.284,0
		C68.204,228.498,68.118,243.502,77.782,243.502L77.782,243.502z"/>
	<path d="M77.782,187.458c48.905,0,97.811,0,146.715,0c20.096,0,40.19,0,60.285,0
		c9.686,0,9.771-15.003,0.107-15.003c-48.905,0-97.811,0-146.715,0c-20.095,0-40.189,0-60.284,0
		C68.204,172.455,68.118,187.458,77.782,187.458L77.782,187.458z"/>
</g>
</svg>
