<svg xmlns="http://www.w3.org/2000/svg" viewBox="20 20 321 321">
<g stroke="#FFFFFF" fill="none" stroke-width="10" stroke-miterlimit="10">
	<path d="M187.67,168c3.314,0,6,2.688,6,6v13.334 c0,3.313-2.686,6-6,6h-13.652c-3.314,0-6-2.687-6-6V174c0-3.313,2.686-6,6-6H187.67z"/>
	<path d="M187.67,114c3.314,0,6,2.688,6,6v13.334 c0,3.313-2.686,6-6,6h-13.652c-3.314,0-6-2.687-6-6V120c0-3.313,2.686-6,6-6H187.67z"/>
	<path d="M187.67,224c3.314,0,6,2.688,6,6v13.334 c0,3.313-2.686,6-6,6h-13.652c-3.314,0-6-2.687-6-6V230c0-3.313,2.686-6,6-6H187.67z"/>
</g>
</svg>
