<svg xmlns="http://www.w3.org/2000/svg" viewBox="20 20 321 321">
<g fill="#fff">
	<path d="M172.518,169.203c-0.338-0.933-0.813-1.673-1.424-2.22c-0.612-0.547-1.433-0.821-2.462-0.821 s-1.851,0.274-2.462,0.821c-0.612,0.547-1.086,1.296-1.424,2.245c-0.337,0.95-0.563,2.052-0.675,3.307 c-0.113,1.254-0.169,2.606-0.169,4.055c0,1.448,0.056,2.808,0.169,4.079c0.112,1.272,0.338,2.374,0.675,3.307
		c0.338,0.934,0.813,1.674,1.424,2.221c0.611,0.548,1.432,0.821,2.462,0.821c0.998,0,1.811-0.273,2.438-0.821 c0.628-0.547,1.11-1.296,1.449-2.245c0.337-0.949,0.562-2.052,0.675-3.307c0.112-1.255,0.169-2.607,0.169-4.055 c0-1.448-0.057-2.807-0.169-4.079C173.08,171.239,172.855,170.137,172.518,169.203z"/>
	<path d="M267.105,146.563H94.261c-2.629,0-4.761,2.203-4.761,4.919v48.946c0,2.716,2.131,4.919,4.761,4.919 h172.845c2.63,0,4.762-2.203,4.762-4.919v-48.946C271.867,148.766,269.735,146.563,267.105,146.563z M176.598,188.248 c-1.867,2.623-4.506,3.934-7.917,3.934c-3.508,0-6.188-1.311-8.038-3.934c-1.851-2.623-2.776-6.51-2.776-11.659
		c0-5.148,0.949-9.035,2.848-11.659c1.899-2.622,4.538-3.934,7.917-3.934c3.508,0,6.18,1.312,8.014,3.934 c1.834,2.624,2.751,6.51,2.751,11.659C179.397,181.738,178.464,185.625,176.598,188.248z M189.729,184.482 c1.126,1.689,2.783,2.535,4.973,2.535c0.354,0,0.739-0.017,1.158-0.049c0.418-0.031,0.804-0.08,1.158-0.145v-10.911h5.938v14.917
		c-0.708,0.258-1.811,0.548-3.307,0.869s-3.307,0.482-5.43,0.482c-1.867,0-3.549-0.33-5.045-0.988 c-1.498-0.66-2.776-1.643-3.839-2.945c-1.062-1.304-1.883-2.928-2.462-4.876c-0.579-1.946-0.869-4.208-0.869-6.783 c0-2.542,0.338-4.787,1.014-6.734c0.676-1.947,1.594-3.58,2.752-4.9c1.159-1.319,2.526-2.309,4.104-2.969
		c1.576-0.66,3.266-0.99,5.068-0.99c1.158,0,2.197,0.089,3.114,0.265c0.917,0.178,1.714,0.379,2.39,0.604 c0.676,0.226,1.23,0.467,1.666,0.724c0.434,0.258,0.764,0.451,0.989,0.58l-1.546,4.731c-0.707-0.45-1.576-0.853-2.605-1.207 c-1.031-0.354-2.093-0.531-3.187-0.531c-1.417,0-2.606,0.258-3.572,0.772c-0.966,0.515-1.763,1.231-2.39,2.148
		c-0.627,0.917-1.078,2.012-1.352,3.283c-0.273,1.272-0.41,2.679-0.41,4.224C188.039,180.162,188.602,182.793,189.729,184.482z"/>
	<path d="M76.973,124.712c21.382-14.327,42.764-28.655,64.146-42.982 c5.327-3.569,0.327-12.236-5.047-8.635c-21.382,14.327-42.764,28.655-64.146,42.982 C66.599,119.646,71.599,128.313,76.973,124.712L76.973,124.712z"/>
	<path d="M276.718,278.947c0.05-0.382,0.463-0.231-0.573-0.231c-1.03,0-2.06,0-3.09,0 c-3.723,0-7.445,0-11.169,0c-12.585,0-25.171,0-37.757,0c-31.892,0-63.784,0-95.677,0c-11.399,0-22.799,0-34.199,0 c-2.833,0-5.667,0-8.5,0c-1.684,0-1.105,0.535-1.105-0.566c0-22.843,0-45.687,0-68.529c0-30.729,0-61.459,0-92.189
		c-0.826,1.439-1.651,2.878-2.477,4.317c19.946-13.339,39.893-26.679,59.838-40.018c-1.284,0.168-2.568,0.336-3.853,0.504 c45.156,13.664,90.311,27.327,135.467,40.991c0.824,0.25,3.093,0.533,3.093,1.135c0,2.639,0,5.278,0,7.917 c0,12.192,0,24.384,0,36.576c0,30.577,0,61.153,0,91.73C276.718,266.704,276.718,272.826,276.718,278.947c0,6.448,10,6.448,10,0
		c0-48.891,0-97.78,0-146.67c0-7.945,0.884-15.27-8.594-18.138c-7.547-2.284-15.095-4.567-22.642-6.851 c-29.569-8.947-59.14-17.895-88.709-26.842c-8.367-2.531-16.733-5.063-25.1-7.595c-2.708-0.819-4.598,0.169-6.763,1.617 c-4.735,3.167-9.47,6.333-14.206,9.5c-12.558,8.398-25.116,16.796-37.673,25.195c-2.79,1.866-8.384,4.381-8.384,8.268
		c0,1.592,0,3.185,0,4.777c0,51.404,0,102.808,0,154.212c0,3.869,0.424,7.525,3.748,10.181c2.583,2.063,5.429,2.115,8.488,2.115 c8.553,0,17.106,0,25.659,0c30.943,0,61.887,0,92.83,0c18.055,0,36.109,0,54.165,0c4.894,0,9.788,0,14.682,0 c6.506,0,11.551-2.471,12.498-9.769C287.546,272.565,277.536,272.646,276.718,278.947z"/>
	<line x1="90.564" y1="209.949" x2="270.803" y2="209.949"/>
	<path d="M90.564,211.449c49.869,0,99.738,0,149.607,0c10.21,0,20.421,0,30.632,0c1.935,0,1.935-3,0-3 c-49.869,0-99.738,0-149.606,0c-10.211,0-20.421,0-30.632,0C88.629,208.449,88.629,211.449,90.564,211.449L90.564,211.449z"/> 
	<line x1="90.564" y1="142.746" x2="270.803" y2="142.746"/>
	<path d="M90.564,144.246c49.869,0,99.738,0,149.607,0c10.21,0,20.421,0,30.632,0c1.935,0,1.935-3,0-3 c-49.869,0-99.738,0-149.606,0c-10.211,0-20.421,0-30.632,0C88.629,141.246,88.629,144.246,90.564,144.246L90.564,144.246z"/>
	<path d="M137.828,82.027c46.735,13.889,93.469,27.777,140.205,41.666 c2.418,0.719,4.836,1.438,7.254,2.156c6.197,1.842,8.825-7.81,2.658-9.643c-46.734-13.889-93.47-27.777-140.204-41.666 c-2.418-0.719-4.836-1.438-7.254-2.156C134.289,70.542,131.661,80.194,137.828,82.027L137.828,82.027z"/>
</g>
</svg>
