<svg xmlns="http://www.w3.org/2000/svg" viewBox="20 20 321 321">
<g fill="#fff">
<path d="m103.255,204.83v69.564c0,2.76 2.136,4.997 4.77,4.997h139.096c2.634,0 4.77-2.237 4.77-4.997v-69.564c0-2.759-2.136-4.997-4.77-4.997h-139.096c-2.634-0-4.77,2.238-4.77,4.997zm71.059,49.796h-19.2v-30.357h18.136v5.002h-12.187v6.817h10.592v5.003h-10.592v8.533h13.251v5.002zm10.979-7.185c1.128,1.716 2.788,2.574 4.981,2.574 .354,0 .741-.016 1.16-.049 .419-.032 .806-.081 1.161-.146v-11.084h5.949v15.154c-.71,.262-1.814,.556-3.313,.883-1.499,.326-3.313,.49-5.44,.49-1.871,0-3.555-.336-5.055-1.005-1.5-.67-2.78-1.669-3.844-2.992-1.064-1.324-1.887-2.975-2.467-4.953s-.87-4.274-.87-6.891c0-2.583 .338-4.863 1.016-6.842 .677-1.978 1.596-3.637 2.757-4.978s2.53-2.346 4.11-3.017c1.58-.67 3.271-1.005 5.078-1.005 1.161,0 2.201,.09 3.119,.27 .92,.18 1.717,.385 2.395,.612 .677,.229 1.233,.476 1.669,.736 .435,.263 .765,.459 .991,.588l-1.549,4.807c-.708-.457-1.578-.865-2.61-1.226-1.032-.359-2.097-.539-3.192-.539-1.419,0-2.611,.262-3.578,.784-.967,.523-1.766,1.251-2.395,2.182-.629,.933-1.08,2.045-1.354,3.336-.274,1.292-.412,2.722-.412,4.291 0,3.631 .564,6.305 1.693,8.02z"/>
<path d="m90.179,283.981c1.507,9.67 13.562,7.561 20.607,7.561 13.053,0 26.105,0 39.158,0 30.174,0 60.349,0 90.523,0 6.024,0 14.784,1.54 20.345-1.433 5.767-3.085 4.016-14.013 4.016-19.349 .001-28.154 .002-56.309 .003-84.462 .001-29.461 .002-58.921 .003-88.382 0-2.543-2.281-5.242-5-5-49.242,4.375-98.484,8.751-147.726,13.126-5.176,.46-17.919-.306-20.699,5.255-2.776,5.552-1.409,13.682-1.409,19.661 0,29.737 0,59.475 0,89.212 0,20.827 0,41.654 0,62.481 0,6.448 10,6.448 10,0 0-49.738 0-99.477 0-149.214 0-4.219 0-8.438 0-12.656 0-1.12 0-2.239 0-3.359 0-2.128 .295-.33-1.231-.194 6.1-.542 12.199-1.084 18.298-1.626 30.328-2.695 60.656-5.39 90.984-8.084 17.261-1.534 34.521-3.067 51.781-4.601-1.667-1.667-3.333-3.333-5-5-.002,49.756-.003,99.512-.005,149.268 0,10.074 0,20.148-.001,30.224 0,1.727 0,3.453 0,5.18 0-1.123 2.133-1.046 .416-1.046-1.123,0-2.245,0-3.368,0-26.485,0-52.972,0-79.458,0-16.854,0-33.707,0-50.561,0-5.518,0-11.036,0-16.554,0-1.572,0-3.144,0-4.716,0-.432,0-.864,0-1.296,0-1.216,0 .565,.001 .531-.219-.989-6.357-10.625-3.649-9.641,2.657z"/>
<path d="m250.448,196.371-147.019,0"/>
<path d="m250.448,194.871c-47.763,0-95.526,0-143.29,0-1.243,0-2.487,0-3.73,0-1.935,0-1.935,3 0,3 47.763,0 95.526,0 143.289,0 1.244,0 2.487,0 3.73,0 1.936,0 1.936-3 .001-3z"/>
<path d="m283.166,91c-48.744,4.128-97.488,8.256-146.232,12.385-19.478,1.649-38.957,3.299-58.435,4.949-6.376,.54-6.429,10.544 0,10 48.744-4.128 97.488-8.256 146.232-12.385 19.479-1.649 38.956-3.299 58.435-4.949 6.376-.54 6.429-10.544 0-10z"/>
</g>
</svg>
