<svg xmlns="http://www.w3.org/2000/svg" viewBox="20 20 321 321">
<g fill="#fff">
<path d="m256.519,157.38c.001-14.862 2.035-30.803-7.709-43.32-7.002-8.994-17.524-13.928-28.854-14.175-3.012-.066-6.033,0-9.046,0-15.194,0-30.39,0-45.584,0-10.683,0-22.604-1.316-33.094,1.247-15.179,3.709-25.288,17.49-26.938,32.52-.863,7.863-.122,16.117-.122,24.019 0,6.449 10,6.449 10,0 0-15.061-2.608-31.337 10.212-42.199 9.092-7.703 23.526-5.587 34.599-5.587 15.538,0 31.075,0 46.613,0 13.141,0 26.403-.908 35.123,11.303 7.136,9.993 4.8,24.587 4.799,36.192 .001,6.449 10.001,6.449 10.001-0z"/>
<path d="m212.718,161.153c11.495,15.04 22.989,30.08 34.484,45.119 2.429,3.178 6.206,3.178 8.635,0 11.495-15.039 22.989-30.079 34.484-45.119 2.39-3.126-.882-7.523-4.317-7.523-22.989,0-45.979,0-68.969,0-6.448,0-6.448,10 0,10 22.989,0 45.979,0 68.969,0-1.439-2.508-2.878-5.016-4.317-7.523-11.495,15.04-22.989,30.079-34.484,45.119 2.878,0 5.757,0 8.635,0-11.495-15.04-22.989-30.079-34.484-45.119-3.861-5.051-12.554-.08-8.636,5.046z"/>
<path d="m148.321,201.225c-11.495-15.04-22.99-30.079-34.484-45.119-2.429-3.178-6.206-3.178-8.635,0-11.495,15.04-22.99,30.079-34.484,45.119-2.39,3.127 .882,7.523 4.317,7.523 22.99,0 45.979,0 68.969,0 6.449,0 6.449-10 0-10-22.99,0-45.979,0-68.969,0 1.439,2.508 2.878,5.016 4.317,7.523 11.495-15.039 22.99-30.079 34.484-45.119-2.878,0-5.756,0-8.635,0 11.495,15.04 22.99,30.08 34.484,45.119 3.861,5.05 12.554,.079 8.636-5.046z"/>
<path d="m246.519,203.925c.001,14.99 2.55,31.098-10.211,41.908-9.092,7.702-23.527,5.587-34.601,5.587-15.538,0-31.076,0-46.613,0-13.141,0-26.402,.907-35.121-11.304-7.178-10.051-4.801-24.811-4.801-36.481 0-6.448-10-6.448-10,0 0,14.938-2.083,31.03 7.711,43.609 7.001,8.993 17.522,13.928 28.852,14.176 3.012,.065 6.033,0 9.045,0 15.195,0 30.39,0 45.584,0 10.684,0 22.605,1.315 33.095-1.247 15.181-3.709 25.288-17.49 26.938-32.52 .853-7.769 .121-15.922 .121-23.729 .001-6.447-9.999-6.447-9.999,.001z"/>
</g>
</svg>
