<svg xmlns="http://www.w3.org/2000/svg" viewBox="20 20 321 321">
<g fill="#fff">
<path d="m178.833,70.667c0,14.222 0,28.445 0,42.667 0,1.935 3,1.935 3,0 0-14.222 0-28.445 0-42.667 0-1.935-3-1.935-3,0z"/>
<path d="m179,154c0,16.938 0,33.876 0,50.814 0,1.935 3,1.935 3,0 0-16.938 0-33.876 0-50.814 0-1.934-3-1.934-3,0z"/>
<path d="m179,247.334c0,14.111 0,28.222 0,42.333 0,1.935 3,1.935 3,0 0-14.111 0-28.222 0-42.333 0-1.935-3-1.935-3-0z"/>
<path d="m79.428,195.371c52.889-55.17 133.386-75.281 206.016-51.484 6.146,2.014 8.758-7.644 2.658-9.643-75.875-24.86-160.528-3.542-215.746,54.057-4.46,4.652 2.602,11.733 7.072,7.07z"/>
<path d="m75.977,185.979c-.945,.944-1.89,1.89-2.835,2.834-2.102,2.101-2.101,5.612 0,7.713 2.102,2.102 5.611,2.101 7.713,0 .945-.944 1.89-1.89 2.835-2.834 2.102-2.101 2.101-5.612 0-7.713-2.102-2.101-5.612-2.1-7.713,0z"/>
<path d="m287.679,134.875c-1.305-.288-2.609-.576-3.914-.864-2.9-.64-5.892,.835-6.709,3.81-.758,2.753 .905,6.068 3.809,6.709 1.305,.288 2.609,.576 3.914,.864 2.9,.64 5.892-.835 6.709-3.81 .757-2.753-.906-6.068-3.809-6.709z"/>
<path d="m79.428,289.367c52.89-55.17 133.386-75.28 206.016-51.483 6.146,2.014 8.758-7.645 2.658-9.643-75.874-24.86-160.528-3.543-215.746,54.056-4.46,4.652 2.602,11.733 7.072,7.07z"/>
<path d="m75.977,279.976c-.945,.945-1.89,1.89-2.835,2.835-2.102,2.102-2.102,5.611 0,7.713 2.101,2.102 5.612,2.102 7.713,0 .945-.945 1.89-1.89 2.835-2.835 2.102-2.102 2.102-5.611 0-7.713-2.102-2.102-5.612-2.102-7.713,0z"/>
<path d="m287.679,228.872c-1.305-.288-2.609-.576-3.914-.863-2.901-.641-5.892,.834-6.709,3.809-.758,2.753 .905,6.069 3.809,6.709 1.305,.288 2.609,.576 3.914,.863 2.901,.641 5.892-.834 6.709-3.809 .757-2.753-.906-6.069-3.809-6.709z"/>
</g>
</svg>
