<svg xmlns="http://www.w3.org/2000/svg" viewBox="20 20 321 321">
<g fill="#fff">
<path d="m273.833,288.834c-49.291,0-98.583,0-147.874,0-16.987,0-33.973,0-50.959,0-1.935,0-1.935,3 0,3 49.292,0 98.583,0 147.875,0 16.986,0 33.973,0 50.959,0 1.934,0 1.934-3-.001-3z"/>
<path d="m243.004,77.28c0,48.227 0,96.453 0,144.68 0,1.835 0,3.67 0,5.506 0,9.686 15.004,9.771 15.004,.107 0-48.226 0-96.453 0-144.679 0-1.835 0-3.671 0-5.506 0-9.686-15.004-9.772-15.004-.108z"/>
<path d="m261.631,240.395c0,1.656-1.344,3-3,3h-16.25c-1.656,0-3-1.344-3-3v-25.75c0-1.656 1.344-3 3-3h16.25c1.656,0 3,1.344 3,3v25.75z"/>
<path d="m70,204.457c0,27.486 0,54.974 0,82.46 0,6.448 10,6.448 10,0 0-27.486 0-54.974 0-82.46 0-6.448-10-6.448-10,0z"/>
</g>
<path fill="none" stroke="#fff" stroke-width="7" d="m275.791,284.295c0,2.193-2.122,3.973-4.738,3.973h-37.507c-2.615,0-4.737-1.779-4.737-3.973v-75.865c0-2.192 2.122-3.973 4.737-3.973h37.507c2.616,0 4.738,1.78 4.738,3.973v75.865z"/>
</svg>
