<svg xmlns="http://www.w3.org/2000/svg" viewBox="20 20 321 321">
<path fill="none" stroke="#fff" stroke-width="10" d="m239.016,187.987c0,2.916-2.363,5.28-5.279,5.28h-147.841c-2.917,0-5.28-2.364-5.28-5.28v-95.04c0-2.916 2.364-5.28 5.28-5.28h147.84c2.916,0 5.279,2.364 5.279,5.28v95.04z"/>
<path fill="#fff" d="m155.373,145.343c3.148,0 6.296,0 9.444,0 6.449,0 6.449-10 0-10-3.148,0-6.296,0-9.444,0-6.449,0-6.449,10 0,10z"/>
<path fill="none" stroke="#fff" stroke-width="10" d="m159.992,87.916 0,102.736"/>
<g fill="#fff">
<path stroke="#fff" stroke-width="10" d="m244.749,88.771c0,.407-2.53,.738-5.653,.738h-158.293c-3.122,0-5.653-.331-5.653-.738v-13.275c0-.407 2.531-.738 5.653-.738h158.293c3.123,0 5.653,.331 5.653,.738v13.275z"/>
<path d="m75.416,103.166c49.739,0 99.478,.001 149.217,.002 6.75,0 13.5,0 20.25,0 4.514,0 4.514-7 0-7-49.739,0-99.478-.001-149.216-.002-6.75,0-13.5,0-20.25,0-4.515,0-4.515,7-.001,7z"/>
<path d="m75.416,113.566c49.739,0 99.478,.001 149.217,.002 6.75,0 13.5,0 20.25,0 4.514,0 4.514-7 0-7-49.739,0-99.478-.001-149.216-.002-6.75,0-13.5,0-20.25,0-4.515,0-4.515,7-.001,7z"/>
<path d="m75.416,123.966c49.739,0 99.478,.001 149.217,.002 6.75,0 13.5,0 20.25,0 4.514,0 4.514-7 0-7-49.739,0-99.478-.001-149.216-.002-6.75,0-13.5,0-20.25,0-4.515,0-4.515,7-.001,7z"/>
<path d="m75.416,134.366c49.739,0 99.478,.001 149.217,.002 6.75,0 13.5,0 20.25,0 4.514,0 4.514-7 0-7-49.739,0-99.478-.001-149.216-.002-6.75,0-13.5,0-20.25,0-4.515-0-4.515,7-.001,7z"/>
<path d="m228.408,242.704c-.04,.186-1.233,.097 .114,.097 .782,0 1.564,0 2.347,0 3.001,0 6.002,0 9.003,0 7.98,0 15.96,0 23.939,0 5.58,0 11.159,0 16.738,0 1.303,0-.011-1.841-.011,.341 0,2.741 0,5.481 0,8.223 0,7.865 0,15.73 0,23.597 0,2.742 0,5.484 0,8.227 0,.65 0,1.301 0,1.951 0,.366 1.5-.765 .263-.765-13.357,0-26.714,0-40.071,0-4.223,0-8.446,0-12.669,0-.954,0 .472,.857 .472,.908 0-.55 0-1.1 0-1.649 0-2.607 0-5.215 0-7.823 0-11.345 0-22.69 0-34.036 0-4.514-7-4.514-7,0 0,12.393 0,24.785 0,37.179 0,4.736-.992,11.126 5.218,12.297 3.892,.733 8.352,.125 12.282,.125 13.741,0 27.482,0 41.224,0 4.933,0 7.282-3.076 7.282-7.741 0-6.682 0-13.364 0-20.046 0-7.271 0-14.542 0-21.813 0-7.948-11.705-5.973-16.681-5.973-10.328,0-20.657,0-30.986,0-5.358,0-16.649-2.188-18.214,5.042-.952,4.399 5.796,6.27 6.75,1.859z"/>
<path d="m225.754,280.29c9.945,0 19.891,0 29.836,0 4.514,0 4.514-7 0-7-9.945,0-19.891,0-29.836,0-4.514,0-4.514,7 0,7z"/>
<path d="m227.153,268.338c9.479,0 18.958,0 28.437,0 4.514,0 4.514-7 0-7-9.479,0-18.958,0-28.437,0-4.513,0-4.513,7 0,7z"/>
<path d="m227.153,256.385c9.479,0 18.958,0 28.437,0 4.514,0 4.514-7 0-7-9.479,0-18.958,0-28.437,0-4.513,0-4.513,7 0,7z"/>
<path d="m237.99,237.16c0-2.97 0-5.939 0-8.909 0-1.471 0-2.941 0-4.412 0-.49 .177-1.372-.111,.243 .052-.29 1.08-1.658 1.419-2.156 1.134-1.667 2.466-3.193 3.841-4.662 1.651-1.763 1.529-.34-1.156-.34 .386,0 .772,0 1.159,0 3.482,0 6.965,0 10.448,0 3.645,0 7.289,0 10.935,0 2.531,0 1.084,.608-.652-.763 1.689,1.334 3.106,3.212 4.389,4.92 .676,.9 1.913,4.278 1.913,2.13 0,1.378 0,2.756 0,4.134 0,3.271 0,6.544 0,9.815 0,6.448 10,6.448 10,0 0-3.823 0-7.647 0-11.471 0-4.287-1.326-7.053-3.926-10.518-2.385-3.178-5.732-8.248-10.219-8.248-3.818,0-7.637,0-11.455,0-4.063,0-8.127,0-12.191,0-4.339,0-7.269,4.146-9.686,7.236-2.672,3.417-4.707,6.408-4.707,10.812 0,4.063 0,8.126 0,12.188-.001,6.449 9.999,6.449 9.999,.001z"/>
</g>
</svg>
