<svg xmlns="http://www.w3.org/2000/svg" viewBox="20 20 321 321">
<g fill="#fff">
<path d="m250.07,82.114c0-6.644-5.102-12.049-11.373-12.049h-114.751c-6.272,0-11.375,5.405-11.375,12.05l.019,197.885c0,6.644 5.103,12.05 11.375,12.05h114.75c6.271,0 11.375-5.406 11.375-12.051l-.02-197.885zm-4.167,69.216c1.657,2.258 .438,4.089-2.725,4.089h-3.101l.002,28.298 5.823,7.924c1.657,2.258 .438,4.089-2.725,4.089h-3.097l.002,28.303 5.819,7.918c1.657,2.259 .438,4.09-2.725,4.09h-3.094l.003,28.308 5.815,7.913c1.657,2.259 .438,4.089-2.725,4.089h-3.09l.001,3.649c0,1.173-.727,2.05-1.375,2.05h-114.75c-.649,0-1.375-.877-1.375-2.051l-.002-19.686-6.325-8.607c-1.657-2.258-.436-4.088 2.725-4.088h3.599l-.003-27.62-6.321-8.602c-1.657-2.258-.436-4.089 2.725-4.089h3.595l-.002-27.625-6.317-8.596c-1.657-2.258-.436-4.089 2.725-4.089h3.591l-.002-27.63-6.313-8.591c-1.657-2.258-.436-4.089 2.725-4.089h3.587l-.002-27.635-6.31-8.586c-1.657-2.258-.436-4.089 2.725-4.089h3.583v-4.262c0-1.173 .726-2.049 1.375-2.049h114.751c.648,0 1.373,.876 1.373,2.05l.002,20.972 5.831,7.934c1.657,2.258 .438,4.089-2.725,4.089h-3.104l.002,28.292 5.829,7.927z"/>
<path d="m221.82,87.18c7.905,.613 12.231,9.877 16.429,15.589 1.81,2.461 3.619,4.923 5.428,7.385 .926,1.259 .308,2.759-1.359,2.759-10.319,0-20.638,0-30.956,0-15.993,0-31.987,0-47.98,0-5.799,0-11.599,0-17.398,0-3.824,0-7.388,.352-10.972-1.327-2.478-1.161-3.972-3.889-5.525-6.002-2.212-3.011-4.425-6.021-6.637-9.032-.92-1.252-8.584-9.372-3.316-9.372 10.257,0 20.515,0 30.772,0 23.838-0 47.676-0 71.514-0 1.935,0 1.935-3 0-3-24.452,0-48.904,0-73.355,0-9.804,0-19.608,0-29.412,0-5.395,0-6.115,3.925-3.373,7.656 4.166,5.668 8.331,11.337 12.497,17.005 5.895,8.021 13.545,7.072 22.391,7.072 14.77,0 29.54,0 44.309,0 13.801,0 27.603,0 41.403,0 2.685,0 5.392,.13 8.063-.146 7.221-.746 1.108-8.237-.806-10.841-5.564-7.572-11.221-19.932-21.718-20.747-1.929-.149-1.915,2.852 .001,3.001z"/>
<path d="m221.82,127.49c7.905,.613 12.231,9.877 16.429,15.589 1.81,2.462 3.619,4.923 5.428,7.385 .926,1.259 .308,2.759-1.359,2.759-10.319,0-20.638,0-30.956,0-15.993,0-31.987,0-47.98,0-5.799,0-11.599,0-17.398,0-3.824,0-7.388,.352-10.972-1.327-2.479-1.161-3.972-3.889-5.525-6.002-2.212-3.011-4.425-6.021-6.637-9.032-.92-1.252-8.584-9.372-3.316-9.372 10.257,0 20.515,0 30.772,0 23.838,0 47.676,0 71.514,0 1.935,0 1.935-3 0-3-24.452,0-48.904,0-73.355,0-9.804,0-19.608,0-29.412,0-5.395,0-6.115,3.925-3.373,7.656 4.166,5.668 8.331,11.337 12.497,17.006 5.895,8.021 13.545,7.072 22.391,7.072 14.77,0 29.54,0 44.309,0 13.801,0 27.603,0 41.403,0 2.685,0 5.392,.13 8.063-.146 7.22-.746 1.108-8.236-.806-10.841-5.564-7.572-11.22-19.932-21.718-20.747-1.929-.15-1.915,2.851 .001,3z"/>
<path d="m221.82,167.8c7.905,.613 12.231,9.877 16.429,15.589 1.81,2.462 3.619,4.923 5.428,7.385 .926,1.259 .308,2.759-1.359,2.759-10.319,0-20.638,0-30.956,0-15.993,0-31.987,0-47.98,0-5.799,0-11.599,0-17.398,0-3.823,0-7.388,.352-10.972-1.326-2.478-1.161-3.972-3.89-5.525-6.003-2.212-3.011-4.425-6.021-6.637-9.032-.92-1.252-8.584-9.372-3.316-9.372 10.257,0 20.515,0 30.772,0 23.838,0 47.676,0 71.514,0 1.935,0 1.935-3 0-3-24.452,0-48.904,0-73.355,0-9.804,0-19.608,0-29.412,0-5.395,0-6.115,3.925-3.373,7.656 4.166,5.668 8.331,11.337 12.497,17.006 5.895,8.021 13.545,7.071 22.391,7.071 14.77,0 29.54,0 44.309,0 13.801,0 27.603,0 41.403,0 2.685,0 5.392,.13 8.063-.146 7.221-.744 1.108-8.236-.806-10.84-5.564-7.572-11.221-19.932-21.718-20.747-1.929-.15-1.915,2.852 .001,3z"/>
<path d="m221.82,208.111c7.906,.613 12.231,9.876 16.429,15.588 1.81,2.462 3.619,4.923 5.428,7.385 .926,1.26 .308,2.76-1.359,2.76-10.319,0-20.638,0-30.956,0-15.993,0-31.987,0-47.98,0-5.799,0-11.599,0-17.398,0-3.823,0-7.388,.352-10.972-1.326-2.478-1.161-3.972-3.891-5.525-6.004-2.212-3.011-4.425-6.021-6.637-9.031-.92-1.253-8.583-9.371-3.316-9.371 10.257,0 20.515,0 30.772,0 23.838-.001 47.676-.001 71.514-.001 1.935,0 1.935-3 0-3-24.452,0-48.904,0-73.355,0-9.804,0-19.608,0-29.412,0-5.394,0-6.115,3.924-3.373,7.654 4.166,5.669 8.331,11.337 12.497,17.006 5.896,8.021 13.544,7.072 22.391,7.072 14.77,0 29.54,0 44.309,0 13.801,0 27.603,0 41.403,0 2.685,0 5.392,.13 8.063-.146 7.221-.744 1.108-8.236-.806-10.841-5.565-7.572-11.22-19.931-21.718-20.745-1.929-.149-1.915,2.852 .001,3z"/>
<path d="m221.82,248.421c7.905,.613 12.231,9.877 16.429,15.589 1.81,2.462 3.619,4.923 5.428,7.385 .926,1.26 .308,2.76-1.359,2.76-10.319,0-20.638,0-30.956,0-15.993,0-31.987,0-47.98,0-5.799,0-11.599,0-17.398,0-3.824,0-7.388,.352-10.972-1.327-2.478-1.161-3.972-3.89-5.525-6.003-2.212-3.011-4.425-6.021-6.637-9.031-.92-1.252-8.584-9.372-3.316-9.372 10.257,0 20.515,0 30.772,0 23.838-.001 47.676-.001 71.514-.001 1.935,0 1.935-3 0-3-24.452,0-48.904,0-73.355,0-9.804,0-19.608,0-29.412,0-5.395,0-6.115,3.925-3.373,7.655 4.166,5.669 8.331,11.337 12.497,17.006 5.896,8.021 13.544,7.072 22.391,7.072 14.77,0 29.54,0 44.309,0 13.801,0 27.603,0 41.403,0 2.685,0 5.392,.13 8.063-.146 7.221-.745 1.108-8.236-.806-10.841-5.564-7.571-11.221-19.932-21.718-20.746-1.929-.15-1.915,2.851 .001,3z"/>
<path d="m240.068,95.833c0,49.782 0,99.564 0,149.346 0,10.885 0,21.77 0,32.654 0,6.448 10,6.448 10,0 0-49.782 0-99.564 0-149.346 0-10.885 0-21.77 0-32.655 0-6.447-10-6.447-10,.001z"/>
</g>
</svg>
