<svg xmlns="http://www.w3.org/2000/svg" viewBox="20 20 321 321">
<g fill="#fff">
<path d="m223.093,281.921c-23.105,0-46.21,0-69.315,0 .443,3.273 .886,6.548 1.329,9.821 5.561-1.064 11.122-2.13 16.683-3.195 3.911-.749 7.822-1.498 11.733-2.246 1.428-.274 2.855-.548 4.283-.821 2.068-.396 2.173,.287-.984-.307 11.647,2.189 23.295,4.38 34.942,6.569 6.302,1.185 8.991-8.452 2.658-9.643-11.659-2.192-23.318-4.384-34.978-6.576-2.09-.394-4.42,.337-6.481,.732-3.963,.759-7.926,1.518-11.89,2.276-6.208,1.189-12.417,2.378-18.625,3.567-5.654,1.083-4.188,9.821 1.329,9.821 23.105,0 46.21,0 69.315,0 6.449,.002 6.449-9.998 .001-9.998z"/>
<path d="m170.403,83.895c-12.45,43.403-24.899,86.806-37.349,130.208-.014,.05-.028,.099-.042,.148-1.782,6.212 7.868,8.846 9.643,2.658 12.45-43.403 24.899-86.806 37.349-130.208 .014-.049 .028-.099 .042-.148 1.781-6.212-7.869-8.845-9.643-2.658z"/>
<path d="m194.728,280.306c-7.907-47.61-15.815-95.222-23.723-142.832-.281-1.691-.562-3.382-.843-5.072-1.055-6.351-10.69-3.648-9.643,2.658 7.908,47.611 15.815,95.221 23.723,142.832 .281,1.69 .562,3.382 .843,5.072 1.055,6.35 10.69,3.647 9.643-2.658z"/>
<path d="m145.954,192.543c7.767-12.552 15.533-25.104 23.3-37.655 1.021-1.65-1.575-3.155-2.591-1.514-7.767,12.552-15.533,25.104-23.3,37.655-1.021,1.65 1.575,3.156 2.591,1.514z"/>
<path d="m173.211,92.722c9.429,37.137 18.858,74.274 28.287,111.412 1.11,4.373 7.861,2.517 6.75-1.861-9.429-37.137-18.857-74.274-28.287-111.412-1.11-4.373-7.861-2.517-6.75,1.861z"/>
<path d="m174.051,92.389c13.612,35.873 27.224,71.745 40.836,107.618 1.585,4.178 8.354,2.367 6.75-1.861-13.612-35.873-27.224-71.745-40.836-107.618-1.586-4.177-8.355-2.367-6.75,1.861z"/>
<path d="m173.086,91.792c4.519,37.806 9.038,75.612 13.556,113.417 .529,4.425 7.535,4.477 7,0-4.519-37.806-9.037-75.612-13.556-113.417-.528-4.425-7.535-4.477-7,0z"/>
<path d="m174.404,93.225c18.298,34.017 36.597,68.034 54.895,102.051 2.14,3.977 8.183,.441 6.045-3.533-18.299-34.017-36.598-68.034-54.896-102.051-2.139-3.976-8.182-.442-6.044,3.533z"/>
<path d="m190.73,206.703c8.7-.136 17.282-2.19 25.512-4.898 5.232-1.722 13.117-3.896 16.795-8.373 2.841-3.457-2.082-8.44-4.949-4.949-2.933,3.569-9.562,5.15-13.707,6.572-7.583,2.602-15.609,4.523-23.65,4.648-4.51,.07-4.517,7.07-.001,7z"/>
</g>
</svg>
