<svg xmlns="http://www.w3.org/2000/svg" viewBox="20 20 321 321">
<g fill="#fff">
	<path d="M280.15,198.487c0,29.552,0,59.103,0,88.654c0,6.47,10.031,6.47,10.031,0 c0-29.552,0-59.103,0-88.654C290.182,192.018,280.15,192.018,280.15,198.487L280.15,198.487z"/>
	<path d="M70.483,198.582c0,29.552,0,59.104,0,88.655c0,6.47,10.032,6.47,10.032,0 c0-29.552,0-59.104,0-88.655C80.515,192.112,70.483,192.112,70.483,198.582L70.483,198.582z"/>
	<path d="M285.166,282.126c-48.745,0-97.491,0-146.236,0c-21.144,0-42.287,0-63.431,0 c-6.469,0-6.469,10.031,0,10.031c48.746,0,97.491,0,146.236,0c21.144,0,42.287,0,63.431,0 C291.636,292.157,291.636,282.126,285.166,282.126L285.166,282.126z"/>
	<path d="M285.166,192.799c-48.745,0-97.491,0-146.236,0c-21.144,0-42.287,0-63.431,0 c-6.469,0-6.469,10.031,0,10.031c48.746,0,97.491,0,146.236,0c21.144,0,42.287,0,63.431,0 C291.636,202.83,291.636,192.799,285.166,192.799L285.166,192.799z"/>
	<g fill="none" stroke="#fff" stroke-width="7.2343" stroke-miterlimit="10">
		<line x1="266.833" y1="197.101" x2="266.833" y2="288.723"/>
		<line x1="247.555" y1="197.09" x2="247.555" y2="288.712"/>
		<line x1="228.277" y1="197.078" x2="228.277" y2="288.701"/>
		<line x1="209" y1="197.068" x2="209" y2="288.689"/>
		<line x1="189.722" y1="197.057" x2="189.722" y2="288.679"/>
		<line x1="170.444" y1="197.046" x2="170.444" y2="288.668"/>
		<line x1="151.166" y1="197.035" x2="151.166" y2="288.657"/>
		<line x1="131.889" y1="197.023" x2="131.889" y2="288.646"/>
		<line x1="112.611" y1="197.013" x2="112.611" y2="288.636"/>
		<line x1="93.333" y1="197.002" x2="93.333" y2="288.625"/>
	</g>
	<path d="M129.83,180.667c3.333,0,6.667,0,10,0c6.449,0,6.449-10,0-10c-3.333,0-6.667,0-10,0 C123.381,170.667,123.381,180.667,129.83,180.667L129.83,180.667z"/>
	<path fill="none" stroke="#fff" stroke-width="10" stroke-miterlimit="10" d="M127.83,197.814V80.816 c0-3.406,2.712-6.167,6.058-6.167h92.89c3.346,0,6.059,2.761,6.059,6.167v116.999"/>
	<polyline fill="none" stroke="#fff" stroke-width="3" stroke-linejoin="round" stroke-miterlimit="10" points="135.404,197.814 135.404,82.667 224.833,82.667 224.833,197.814 	"/>
</g>
</svg>
