<svg xmlns="http://www.w3.org/2000/svg" viewBox="20 20 321 321">
<path fill="none" stroke="#fff" stroke-width="10" d="m267.826,263.303c0,3.91-3.156,7.082-7.05,7.082l-157.885,.021c-3.894,0-7.05-3.171-7.05-7.083v-157.5c0-3.911 3.156-7.083 7.05-7.083l157.885-.021c3.894,0 7.05,3.172 7.05,7.083v157.501z"/>
<path fill="#fff" d="m258.5,185.584c2.213,0 4.426,0 6.639,0 2.726,0 5-2.274 5-5s-2.274-5-5-5c-2.213,0-4.426,0-6.639,0-2.726,0-5,2.274-5,5s2.274,5 5,5z"/>
<path fill="none" stroke="#fff" stroke-width="10" d="m267.826,103.208c0,2.485-2.711,4.5-6.053,4.5l-159.88,.021c-3.342,0-6.052-2.015-6.052-4.5v-9c0-2.485 2.71-4.5 6.052-4.5l159.88-.021c3.342,0 6.053,2.015 6.053,4.5v9z"/>
</svg>
