<svg xmlns="http://www.w3.org/2000/svg" viewBox="20 20 321 321">
<path fill="none" stroke="#fff" stroke-width="10" d="m255.924,280.473c0,3.313-2.687,6-6,6h-163.046c-3.313,0-6-2.687-6-6v-95.841c0-3.313 2.687-6 6-6h163.045c3.313,0 6,2.687 6,6v95.841z"/>
<g fill="#fff">
<path d="m231.63,179.731c13.893-34.818 27.785-69.636 41.678-104.454 2.393-5.995-7.283-8.572-9.643-2.658-13.893,34.818-27.785,69.636-41.678,104.454-2.392,5.995 7.284,8.573 9.643,2.658z"/>
<path d="m174.931,224.543c17.279,0 34.558,0 51.837,0 6.448,0 6.448-10 0-10-17.279,0-34.558,0-51.837,0-6.449,0-6.449,10-0,10z"/>
<path d="m163.64,238.543c24.398,0 48.798,0 73.196,0 6.448,0 6.448-10 0-10-24.398,0-48.798,0-73.196,0-6.449,0-6.449,10 0,10z"/>
<path d="m163.64,252.543c24.398,0 48.798,0 73.196,0 6.448,0 6.448-10 0-10-24.398,0-48.798,0-73.196,0-6.449,0-6.449,10 0,10z"/>
<path d="m174.931,266.543c17.279,0 34.558,0 51.837,0 6.448,0 6.448-10 0-10-17.279,0-34.558,0-51.837,0-6.449,0-6.449,10-0,10z"/>
<g stroke="#fff">
<path d="m112.964,174.434c0,2.517-2.041,4.558-4.558,4.558h-10.159c-2.518,0-4.559-2.041-4.559-4.558 0-2.518 2.041-4.559 4.559-4.559h10.159c2.517,0 4.558,2.041 4.558,4.559z"/>
<path d="m141.964,174.434c0,2.517-2.041,4.558-4.558,4.558h-10.159c-2.518,0-4.559-2.041-4.559-4.558 0-2.518 2.041-4.559 4.559-4.559h10.159c2.517,0 4.558,2.041 4.558,4.559z"/>
</g>
<path d="m98.483,199.469c45.907,0 91.813,0 137.72,0 .199,0 .398,0 .598,0 6.448,0 6.448-10 0-10-45.906,0-91.813,0-137.72,0-.199,0-.399,0-.598,0-6.449,0-6.449,10-0,10z"/>
</g>
</svg>
