<svg xmlns="http://www.w3.org/2000/svg" viewBox="20 20 321 321">
<g fill="#FFF" stroke="#FFF" stroke-width="10">
<path d="M149.889,207.529c17.499-17.018,45.04-16.941,62.518,0.057 c6.914,6.724,17.495-3.912,10.551-10.665c-23.369-22.726-60.388-22.648-83.734,0.057
	C132.303,203.709,142.954,214.273,149.889,207.529L149.889,207.529z"/>
<path d="M112.623,179.189c18.251-18,42.746-28.378,68.442-28.378c25.785,0,50.293,10.371,68.607,28.434 c6.869,6.775,17.446-3.865,10.551-10.665c-21.014-20.726-49.46-32.773-79.051-32.773c-29.679,0-58.137,12.041-79.216,32.83
	C95.085,175.416,105.733,185.984,112.623,179.189L112.623,179.189z"/>
<path d="M83.41,147.37c40.362-39.964,102.935-52.089,154.87-28.183 c15.149,6.973,28.765,16.515,40.606,28.24c6.856,6.789,17.432-3.853,10.551-10.665c-45.464-45.015-114.905-57.294-173.026-30.539
	c-16.239,7.475-30.978,18.033-43.666,30.596C65.886,143.61,76.533,154.179,83.41,147.37L83.41,147.37z"/>
<path fill="none" stroke-width="15" stroke-miterlimit="10" d="M188.63,257.476h-15.021c-2.761,0-5-2.239-5-5
	v-15.021c0-2.761,2.239-5,5-5h15.021c2.761,0,5,2.239,5,5v15.021C193.63,255.237,191.391,257.476,188.63,257.476z"/>
</g>
</svg>
