<svg version="1.1" id="Layer_1" xmlns="http://www.w3.org/2000/svg" xmlns:xlink="http://www.w3.org/1999/xlink" viewBox="-7 -7 28 28" stroke-width="0" xml:space="preserve"><path fill="#FFF" d="M5,4h8c0.553,0,1-0.447,1-1s-0.447-1-1-1H5C4.447,2,4,2.447,4,3S4.447,4,5,4z M13,6H5 C4.447,6,4,6.447,4,7c0,0.553,0.447,1,1,1h8c0.553,0,1-0.447,1-1C14,6.447,13.553,6,13,6z M13,10H5c-0.553,0-1,0.447-1,1 s0.447,1,1,1h8c0.553,0,1-0.447,1-1S13.553,10,13,10z M1,2C0.447,2,0,2.447,0,3s0.447,1,1,1s1-0.447,1-1S1.553,2,1,2z M1,6 C0.447,6,0,6.447,0,7c0,0.553,0.447,1,1,1s1-0.447,1-1C2,6.447,1.553,6,1,6z M1,10c-0.553,0-1,0.447-1,1s0.447,1,1,1s1-0.447,1-1 S1.553,10,1,10z"/></svg>
