<svg version="1.1" id="Layer_1" xmlns="http://www.w3.org/2000/svg" xmlns:xlink="http://www.w3.org/1999/xlink" viewBox="-7 -7 28 28" stroke-width="0" xml:space="preserve"><path fill="#FFF" d="M7,0C3.134,0,0,3.134,0,7s3.134,7,7,7s7-3.134,7-7S10.866,0,7,0z M7,12c-2.762,0-5-2.238-5-5s2.238-5,5-5s5,2.238,5,5 S9.762,12,7,12z M9,6H8V4c0-0.553-0.447-1-1-1S6,3.447,6,4v3c0,0.553,0.447,1,1,1h2c0.553,0,1-0.447,1-1S9.553,6,9,6z"/><g></g><g></g><g></g><g></g><g></g><g></g><g></g><g></g><g></g><g></g><g></g><g></g><g></g><g></g><g></g></svg>
