<svg xmlns="http://www.w3.org/2000/svg" viewBox="20 20 321 321">
<g fill="#fff">
<path d="m83.84,260.422c8.917,1.522 17.833,3.046 26.749,4.568 4.414,.754 6.304-5.991 1.861-6.75-8.917-1.522-17.833-3.046-26.749-4.568-4.414-.754-6.304,5.991-1.861,6.75z"/>
<path d="m84.114,270.038c8.917,1.522 17.833,3.045 26.749,4.567 4.414,.754 6.304-5.991 1.861-6.75-8.917-1.522-17.833-3.045-26.749-4.567-4.413-.754-6.304,5.991-1.861,6.75z"/>
<path d="m84.114,279.379c8.917,1.522 17.833,3.046 26.749,4.568 4.414,.754 6.304-5.991 1.861-6.75-8.917-1.522-17.833-3.046-26.749-4.568-4.413-.754-6.304,5.991-1.861,6.75z"/>
<path d="m89.808,289.351c5.004,.854 10.008,1.709 15.012,2.563 4.414,.754 6.304-5.991 1.861-6.75-5.004-.854-10.008-1.709-15.012-2.563-4.414-.754-6.304,5.991-1.861,6.75z"/>
</g>
<path fill="none" stroke="#fff" stroke-width="10" d="m120.784,234.482c0,7.545-6.116,13.66-13.66,13.66h-18.214c-7.544,0-13.66-6.115-13.66-13.66v-48.568c0-7.544 6.116-13.661 13.66-13.661h18.213c7.544,0 13.66,6.116 13.66,13.661v48.568z"/>
<g fill="#fff">
<path d="m95.092,88.224c-5.352,0-10.704-.004-16.056,0-2.941,.002-3.41-11.391 .771-11.391 6.758,0 13.516,0 20.274,0 29.573,0 59.146,0 88.72,0 25.677,0 51.354,0 77.03,0 5.457,0 10.914,0 16.371,0 3.621,0 3.428,11.391 .331,11.391-5.176,0-10.351,0-15.526,0-4.514,0-4.514,7 0,7 5.552,0 11.324,.493 16.841-.143 8.51-.98 8.249-11.185 7.511-17.595-1.033-8.97-10.966-7.653-17.385-7.653-26.076,0-52.152,0-78.229,0-30.339,0-60.678,0-91.017,0-7.887,0-15.774,0-23.661,0-3.328,0-6.177,.511-8.71,3.043-4.249,4.25-3.072,16.231 .834,20.138 2.738,2.737 7.075,2.209 10.59,2.209 3.771,0 7.541,0 11.312,0 4.513,.001 4.513-6.999-.001-6.999z"/>
<path d="m223.494,88.225c-6.679,0-13.358,0-20.037,0-4.514,0-4.514,7 0,7 6.679,0 13.358,0 20.037,0 4.514,0 4.514-7 0-7z"/>
<path d="m205.795,216.092h10.67v76.229h-10.67v-76.229z"/>
<path d="m272.675,260.422c1.173,1.467 2.657,3.393 4.455,5.774 1.796,2.384 3.647,5.024 5.555,7.92 1.906,2.897 3.796,5.923 5.665,9.075 1.87,3.154 3.465,6.197 4.785,9.13h-11.66c-1.468-2.786-3.063-5.61-4.785-8.47-1.724-2.86-3.465-5.592-5.225-8.195-1.76-2.602-3.503-5.041-5.225-7.314-1.725-2.272-3.283-4.253-4.676-5.94-.953,.073-1.925,.11-2.914,.11-.99,0-2,0-3.025,0h-9.57v29.81h-10.67v-75.13c3.006-.732 6.361-1.228 10.064-1.485 3.703-.256 7.096-.385 10.176-.385 10.706,0 18.865,2.018 24.475,6.05 5.61,4.034 8.415,10.048 8.415,18.04 0,5.06-1.339,9.388-4.015,12.979-2.678,3.594-6.619,6.27-11.825,8.031zm-16.17-35.75c-4.548,0-8.03,.109-10.45,.33v28.709h7.59c3.666,0 6.967-.182 9.9-.55 2.932-.366 5.407-1.062 7.425-2.09 2.017-1.026 3.575-2.476 4.675-4.345 1.1-1.87 1.65-4.346 1.65-7.426 0-2.859-.551-5.242-1.65-7.149-1.1-1.906-2.585-3.41-4.455-4.511-1.869-1.1-4.07-1.869-6.6-2.31-2.53-.439-5.225-.658-8.085-.658z"/>
<path d="m264.8,88.268c-.598,2.959-5.531,1.899-7.517,1.899-4.632,0-9.264,0-13.896,0-4.016,0-8.031,0-12.047,0-3.842,0-5.347-.159-5.347-4.741 0-3.466 19.163-1.759 21.358-1.759 4.224,0 8.446,0 12.67,0 3.766,0 4.724,.825 4.724,5 0,1.935 3,1.935 3,0 0-3.585-.007-8-4.818-8-4.538,0-9.076,0-13.614,0-5.991,0-11.982,0-17.973,0-3.58,0-7.395-.346-8.293,4.101-.735,3.639 .271,8.399 4.765,8.399 4.538,0 9.076,0 13.614,0 5.991,0 11.982,0 17.973,0 3.58,0 7.395,.346 8.293-4.101 .382-1.889-2.509-2.693-2.892-.798z"/>
<path d="m201.011,88.268c-.598,2.959-5.532,1.899-7.517,1.899-4.632,0-9.264,0-13.895,0-4.016,0-8.031,0-12.046,0-3.842,0-5.346-.159-5.346-4.741 0-3.466 19.162-1.759 21.358-1.759 4.223,0 8.445,0 12.669,0 3.766,0 4.724,.825 4.724,5 0,1.935 3,1.935 3,0 0-3.585-.006-8-4.818-8-4.538,0-9.076,0-13.613,0-5.991,0-11.982,0-17.973,0-3.58,0-7.395-.346-8.292,4.101-.735,3.639 .27,8.399 4.765,8.399 4.538,0 9.075,0 13.613,0 5.99,0 11.981,0 17.973,0 3.579,0 7.395,.346 8.292-4.101 .38-1.889-2.511-2.693-2.894-.798z"/>
<path d="m137.223,88.268c-.598,2.959-5.532,1.899-7.517,1.899-4.632,0-9.264,0-13.895,0-4.016,0-8.031,0-12.047,0-3.842,0-5.346-.159-5.346-4.741 0-3.466 19.162-1.759 21.358-1.759 4.223,0 8.446,0 12.669,0 3.766,0 4.724,.825 4.724,5 0,1.935 3,1.935 3,0 0-3.585-.006-8-4.819-8-4.538,0-9.076,0-13.613,0-5.991,0-11.982,0-17.973,0-3.58,0-7.395-.346-8.292,4.101-.735,3.639 .27,8.399 4.765,8.399 4.538,0 9.076,0 13.613,0 5.991,0 11.982,0 17.973,0 3.58,0 7.395,.346 8.292-4.101 .382-1.889-2.509-2.693-2.892-.798z"/>
<path d="m160.497,88.167c-6.679,0-13.358,0-20.037,0-4.514,0-4.514,7 0,7 6.679,0 13.358,0 20.037,0 4.514,0 4.514-7 0-7z"/>
<path d="m236.678,140.255c-2.311-2.069-4.82-4.898-5.094-8.112-.258-3.025 3.121-6.353 5.197-8.206 6.569-5.865 9.062-13.665 4.003-21.333-2.474-3.749-8.539-.247-6.045,3.533 3.338,5.058 1.337,8.731-2.621,12.584-1.873,1.824-3.552,3.7-5.037,5.868-4.961,7.241-1.28,15.307 4.647,20.616 3.351,3.002 8.319-1.932 4.95-4.95z"/>
<path d="m253.012,140.255c-2.311-2.069-4.822-4.897-5.096-8.112-.258-3.026 3.123-6.353 5.199-8.206 6.568-5.866 9.06-13.666 4.001-21.333-2.474-3.749-8.539-.247-6.045,3.533 3.337,5.058 1.338,8.73-2.619,12.584-1.874,1.825-3.553,3.7-5.038,5.868-4.963,7.241-1.28,15.308 4.648,20.616 3.352,3.002 8.32-1.933 4.95-4.95z"/>
<path d="m172.891,140.255c-2.311-2.069-4.821-4.897-5.095-8.112-.258-3.025 3.123-6.353 5.198-8.206 6.569-5.865 9.061-13.665 4.001-21.333-2.474-3.749-8.538-.247-6.044,3.533 3.337,5.058 1.336,8.73-2.621,12.584-1.874,1.824-3.552,3.7-5.038,5.868-4.962,7.241-1.28,15.307 4.647,20.616 3.353,3.002 8.321-1.932 4.952-4.95z"/>
<path d="m189.223,140.255c-2.311-2.069-4.82-4.897-5.094-8.112-.258-3.025 3.121-6.353 5.197-8.206 6.57-5.865 9.062-13.665 4.002-21.333-2.475-3.749-8.539-.247-6.045,3.533 3.338,5.059 1.338,8.73-2.62,12.584-1.874,1.824-3.552,3.7-5.038,5.868-4.961,7.241-1.28,15.307 4.648,20.616 3.352,3.002 8.319-1.932 4.95-4.95z"/>
<path d="m109.103,140.255c-2.311-2.069-4.821-4.897-5.095-8.112-.258-3.025 3.123-6.353 5.198-8.206 6.569-5.865 9.061-13.665 4.001-21.333-2.474-3.749-8.538-.247-6.044,3.533 3.337,5.058 1.336,8.73-2.621,12.584-1.874,1.824-3.552,3.7-5.038,5.868-4.962,7.241-1.28,15.307 4.647,20.616 3.353,3.002 8.321-1.932 4.952-4.95z"/>
<path d="m125.436,140.255c-2.311-2.069-4.821-4.897-5.095-8.112-.258-3.025 3.123-6.353 5.198-8.206 6.569-5.866 9.061-13.665 4.001-21.333-2.474-3.749-8.538-.247-6.044,3.533 3.337,5.058 1.337,8.73-2.62,12.584-1.874,1.824-3.552,3.7-5.038,5.868-4.962,7.241-1.28,15.307 4.647,20.616 3.352,3.002 8.32-1.932 4.951-4.95z"/>
</g>
</svg>
