<svg xmlns="http://www.w3.org/2000/svg" viewBox="20 20 321 321">
<g fill="#fff">
<path d="m83.84,163.013c8.917,1.522 17.833,3.045 26.749,4.567 4.414,.754 6.304-5.991 1.861-6.75-8.917-1.522-17.833-3.045-26.749-4.567-4.414-.754-6.304,5.991-1.861,6.75z"/>
<path d="m84.114,172.628c8.917,1.522 17.833,3.045 26.749,4.567 4.414,.753 6.304-5.991 1.861-6.75-8.917-1.522-17.833-3.045-26.749-4.567-4.413-.753-6.304,5.992-1.861,6.75z"/>
<path d="m84.114,181.97c8.917,1.522 17.833,3.045 26.749,4.567 4.414,.754 6.304-5.991 1.861-6.75-8.917-1.522-17.833-3.045-26.749-4.567-4.413-.754-6.304,5.991-1.861,6.75z"/>
<path d="m89.808,191.941c5.004,.854 10.008,1.708 15.012,2.563 4.414,.754 6.304-5.991 1.861-6.75-5.004-.854-10.008-1.708-15.012-2.563-4.414-.753-6.304,5.992-1.861,6.75z"/>
</g>
<g stroke="#fff">
<path fill="none" stroke-width="10" d="m120.784,137.073c0,7.544-6.116,13.66-13.66,13.66h-18.214c-7.544,0-13.66-6.116-13.66-13.66v-48.569c0-7.544 6.116-13.66 13.66-13.66h18.213c7.544,0 13.66,6.116 13.66,13.66v48.569z"/>
<g stroke-linecap="round">
<g fill="none" stroke-width="10">
<path d="m134.833,203.667 99.077-40"/>
<path d="m287.083,203.917-52.727-40.25"/>
</g>
<g stroke-linejoin="round" stroke-width="7">
<g fill="none">
<path d="m262.238,256.167c-.305,19.466 14.513,32.167 7.333,32.167-1.329,0-13.648-.045-17.167-.167-5.307-.185-15.133,1.058-16.333-2.167-2.325-6.242 5.454-19.547 6.5-22.833 1.167-3.667 1.911-3.017 1.042-5.625-.875-2.625-.494-6.739 .75-8.5 1.5-2.125 1.768-6.636 2.041-8.042 .526-2.705-4.166-9-2.833-13.833 1.993-7.224 8.849-6.5 12.667-6.5 4.916,0 7.619,7.843 11.404,18.319 2.596,7.181-5.238,6.514-5.404,17.181z"/>
<path d="m159.238,232.667c-.496,2.603-4.301,42.997-4.5,48.5-.188,5.214 2.937,7.167 4.777,7.167 1.329,0 7.648-.045 11.167-.167 5.308-.185 7.523,.89 8.723-2.333 2.325-6.244-1.667-28.469-1.667-31.917 0-2.22 1.361-3.644 1-6.25-.291-2.1-1.779-3.077-2.167-5.167-.399-2.156-1.132-8.107-1.5-10-.526-2.705 2.458-5.221 1.667-10.5-1-6.666-4.277-9.166-9.667-8.666-4.896,.453-6.753,4.546-7.5,7.833-.833,3.667 .477,7.243-.333,11.5z"/>
</g>
<g fill="#fff">
<path d="m213.092,267.329c.049-.208 .077-.424 .077-.645 0-1.822-1.739-3.3-3.886-3.3s-3.885,1.478-3.885,3.3c0,.221 .027,.437 .076,.645h-6.986l9.961,12.519h1.668l9.961-12.519h-6.986z"/>
<path d="m222.895,270.143-20.053,17.824"/>
<path d="m195.673,270.143 20.052,17.824"/>
</g>
</g>
</g>
</g>
</svg>
