<svg xmlns="http://www.w3.org/2000/svg" viewBox="20 20 321 321">
<g fill="#fff">
<path d="m83.84,163.013c8.917,1.522 17.833,3.045 26.749,4.567 4.414,.754 6.304-5.991 1.861-6.75-8.917-1.522-17.833-3.045-26.749-4.567-4.414-.754-6.304,5.991-1.861,6.75z"/>
<path d="m84.114,172.628c8.917,1.522 17.833,3.045 26.749,4.567 4.414,.753 6.304-5.991 1.861-6.75-8.917-1.522-17.833-3.045-26.749-4.567-4.413-.753-6.304,5.992-1.861,6.75z"/>
<path d="m84.114,181.97c8.917,1.522 17.833,3.045 26.749,4.567 4.414,.754 6.304-5.991 1.861-6.75-8.917-1.522-17.833-3.045-26.749-4.567-4.413-.754-6.304,5.991-1.861,6.75z"/>
<path d="m89.808,191.941c5.004,.854 10.008,1.708 15.012,2.563 4.414,.754 6.304-5.991 1.861-6.75-5.004-.854-10.008-1.708-15.012-2.563-4.414-.753-6.304,5.992-1.861,6.75z"/>
</g>
<g fill="none" stroke="#fff" stroke-width="10">
<path d="m120.784,137.073c0,7.544-6.116,13.66-13.66,13.66h-18.214c-7.544,0-13.66-6.116-13.66-13.66v-48.569c0-7.544 6.116-13.66 13.66-13.66h18.213c7.544,0 13.66,6.116 13.66,13.66v48.569z"/>
<g stroke-linecap="round">
<path d="m286.291,286.618c0-38.799-39.547-70.251-88.332-70.251-48.786,0-88.333,31.452-88.333,70.251"/>
<path d="m266.174,286.618c0-29.962-30.541-54.251-68.215-54.251-37.675,0-68.215,24.289-68.215,54.251"/>
<path d="m109.625,286.618 20.119,0"/>
<path d="m266.375,286.618 20.119,0"/>
</g>
</g>
<path fill="#fff" d="m206.896,219.535c0,2.695-2.186,4.882-4.882,4.882h-8.238c-2.696,0-4.882-2.187-4.882-4.882v-24.736c0-2.695 2.186-4.882 4.882-4.882h8.238c2.696,0 4.882,2.187 4.882,4.882v24.736z"/>
<ellipse fill="none" cx="197.895" cy="181.542" rx="7.375" ry="18.375" stroke="#fff" stroke-width="7"/>
<path fill="#fff" d="m247.209,228.035c0,2.695-2.187,4.882-4.883,4.882h-8.238c-2.695,0-4.882-2.187-4.882-4.882v-24.736c0-2.695 2.187-4.882 4.882-4.882h8.238c2.696,0 4.883,2.187 4.883,4.882v24.736z"/>
<ellipse fill="none" cx="238.207" cy="190.042" rx="7.375" ry="18.375" stroke="#fff" stroke-width="7"/>
<path fill="#fff" d="m282.521,257.91c0,2.695-2.187,4.882-4.883,4.882h-8.238c-2.695,0-4.882-2.187-4.882-4.882v-24.736c0-2.695 2.187-4.882 4.882-4.882h8.238c2.696,0 4.883,2.187 4.883,4.882v24.736z"/>
<ellipse fill="none" cx="273.52" cy="219.917" rx="7.375" ry="18.375" stroke="#fff" stroke-width="7"/>
<path fill="#fff" d="m148.581,227.285c0,2.695 2.186,4.882 4.882,4.882h8.239c2.696,0 4.882-2.187 4.882-4.882v-24.736c0-2.695-2.186-4.882-4.882-4.882h-8.239c-2.696,0-4.882,2.187-4.882,4.882v24.736z"/>
<ellipse fill="none" cx="157.582" cy="189.292" rx="7.375" ry="18.375" stroke="#fff" stroke-width="7"/>
<path fill="#fff" d="m113.268,257.91c0,2.695 2.186,4.882 4.882,4.882h8.239c2.696,0 4.882-2.187 4.882-4.882v-24.736c0-2.695-2.186-4.882-4.882-4.882h-8.239c-2.696,0-4.882,2.187-4.882,4.882v24.736z"/>
<ellipse fill="none" cx="122.269" cy="219.917" rx="7.375" ry="18.375" stroke="#fff" stroke-width="7"/>
</svg>
