<svg xmlns="http://www.w3.org/2000/svg" viewBox="20 20 321 321">
<g fill="#fff">
<path d="m83.84,162.833c8.917,1.522 17.833,3.045 26.749,4.567 4.414,.754 6.304-5.991 1.861-6.75-8.917-1.522-17.833-3.045-26.749-4.567-4.414-.754-6.304,5.991-1.861,6.75z"/>
<path d="m84.114,172.449c8.917,1.522 17.833,3.045 26.749,4.567 4.414,.753 6.304-5.991 1.861-6.75-8.917-1.522-17.833-3.045-26.749-4.567-4.413-.754-6.304,5.991-1.861,6.75z"/>
<path d="m84.114,181.79c8.917,1.522 17.833,3.045 26.749,4.567 4.414,.754 6.304-5.991 1.861-6.75-8.917-1.522-17.833-3.045-26.749-4.567-4.413-.754-6.304,5.991-1.861,6.75z"/>
<path d="m89.808,191.762c5.004,.854 10.008,1.708 15.012,2.563 4.414,.754 6.304-5.991 1.861-6.75-5.004-.854-10.008-1.708-15.012-2.563-4.414-.754-6.304,5.991-1.861,6.75z"/>
</g>
<path fill="none" stroke="#fff" stroke-width="10" d="m120.784,136.894c0,7.544-6.116,13.66-13.66,13.66h-18.214c-7.544,0-13.66-6.116-13.66-13.66v-48.57c0-7.544 6.116-13.66 13.66-13.66h18.213c7.544,0 13.66,6.116 13.66,13.66v48.57z"/>
<g fill="#fff">
<path d="m208.512,190.181-.182-60.147 79.305,60.147z"/>
<path d="m213.512,190.181c-.061-20.049-.121-40.098-.182-60.146-2.508,1.439-5.016,2.878-7.523,4.317 26.435,20.049 52.869,40.098 79.305,60.146 .841-3.105 1.683-6.212 2.523-9.317-26.374,0-52.749,0-79.123,0-6.448,0-6.448,10 0,10 26.374,0 52.749,0 79.123,0 5.402,0 6.252-6.489 2.523-9.317-26.435-20.049-52.869-40.098-79.305-60.146-3.125-2.371-7.534,.868-7.523,4.317 .061,20.049 .121,40.098 .182,60.146 .019,6.447 10.019,6.449 10-0z"/>
<path d="m208.148,190.181 .182-60.146-79.305,60.146z"/>
<path d="m213.148,190.181c.061-20.049 .121-40.097 .182-60.146 .011-3.45-4.397-6.688-7.523-4.317-26.435,20.049-52.87,40.097-79.305,60.146-3.729,2.828-2.879,9.317 2.523,9.317 26.375,0 52.749,0 79.124,0 6.448,0 6.448-10 0-10-26.375,0-52.749,0-79.124,0 .841,3.105 1.683,6.212 2.523,9.317 26.435-20.049 52.871-40.097 79.305-60.146-2.508-1.439-5.016-2.878-7.523-4.317-.061,20.049-.121,40.097-.182,60.146-.019,6.449 9.981,6.447 10-0z"/>
</g>
<path fill="none" stroke="#fff" stroke-width="10" d="m273.674,281.814c0,2.91-2.916,5.27-6.513,5.27h-117.168c-3.597,0-6.512-2.359-6.512-5.27v-96.072c0-2.908 130.193-2.908 130.193,0v96.072z"/>
<g fill="#fff">
<path d="M182.109,254.982v-37.141h22.5v6.121H189.49v8.34h13.139v6.119H189.49v10.44h16.439v6.12H182.109z"/>
<path d="m227.05,223.422c-1.761,0-3.24,.321-4.44,.961-1.199,.641-2.189,1.529-2.97,2.67-.78,1.14-1.341,2.5-1.681,4.08s-.51,3.33-.51,5.25c0,4.439 .699,7.709 2.101,9.81 1.399,2.101 3.459,3.149 6.18,3.149 .44,0 .92-.02 1.44-.06 .52-.039 .999-.099 1.439-.18v-13.56h7.381v18.539c-.881,.32-2.25,.682-4.111,1.08-1.859,.4-4.109,.6-6.75,.6-2.32,0-4.409-.41-6.27-1.229-1.859-.819-3.449-2.04-4.77-3.659-1.32-1.621-2.34-3.641-3.061-6.061-.72-2.42-1.08-5.229-1.08-8.43 0-3.16 .42-5.949 1.26-8.371 .841-2.419 1.98-4.449 3.42-6.09 1.441-1.639 3.141-2.869 5.101-3.689 1.96-.819 4.06-1.23 6.3-1.23 1.44,0 2.73,.111 3.87,.33 1.14,.221 2.13,.471 2.97,.75 .84,.281 1.53,.58 2.07,.9s.949,.561 1.23,.721l-1.92,5.879c-.881-.559-1.961-1.059-3.24-1.5-1.28-.439-2.6-.66-3.959-.66z"/>
</g>
</svg>
