<svg xmlns="http://www.w3.org/2000/svg" viewBox="20 20 321 321">
<g fill="#fff" stroke="#fff">
  <path d="m84.089996,168.513c8.917023,1.522003 17.833,3.044998 26.749001,4.567001c4.414001,0.753998 6.304001,-5.990997 1.861,-6.75c-8.917,-1.522003 -17.833,-3.044998 -26.749001,-4.567001c-4.413986,-0.753998 -6.303986,5.990997 -1.861,6.75z" id="svg_2"/>
  <path d="m84.363998,178.128006c8.917,1.522003 17.833,3.044998 26.749001,4.567001c4.414001,0.753006 6.304001,-5.990997 1.861,-6.75c-8.917,-1.522003 -17.833,-3.044998 -26.749001,-4.567001c-4.413002,-0.752991 -6.304001,5.992004 -1.861,6.75z" id="svg_3"/>
  <path d="m84.363998,187.470001c8.917,1.522003 17.833,3.044998 26.749001,4.567001c4.414001,0.753998 6.304001,-5.990997 1.861,-6.75c-8.917,-1.522003 -17.833,-3.044998 -26.749001,-4.567001c-4.413002,-0.753998 -6.304001,5.990997 -1.861,6.75z" id="svg_4"/>
  <path d="m90.057999,197.440994c5.003998,0.853989 10.008003,1.707993 15.012001,2.562988c4.414001,0.754013 6.304001,-5.990997 1.861,-6.75c-5.003998,-0.853989 -10.008003,-1.707993 -15.012001,-2.562988c-4.414001,-0.753021 -6.304001,5.991989 -1.861,6.75z" id="svg_5"/>
  <path fill="none" stroke-width="10" d="m120.033997,137.572998c0,7.544006 -6.115997,13.660004 -13.659996,13.660004h-18.213997c-7.544014,0 -13.660004,-6.115997 -13.660004,-13.660004v-48.569c0,-7.543999 6.115997,-13.659996 13.660004,-13.659996h18.212997c7.543999,0 13.659996,6.115997 13.659996,13.659996v48.569l0.000999,0z" id="svg_6"/>
  <path d="m221.917007,113.843002c-0.158005,2.482994 -2.379013,5.505997 -6.994003,5.505997c-2.100006,0 -4.201004,0 -6.30101,0c-2.099991,0 -4.200989,0 -6.300995,0c-4.615005,0 -6.835999,-3.024002 -6.994003,-5.505997c-0.132996,-2.087006 -5.321991,-2.096001 -5.187988,0c0.213989,3.362999 2.669998,6.848999 7.928986,8.198997c3.270004,0.838997 7.09201,0.556 10.554001,0.556c3.462006,0 7.284012,0.282997 10.554001,-0.556c5.258011,-1.349998 7.715012,-4.835999 7.929001,-8.198997c0.133011,-2.096001 -5.056,-2.087006 -5.187988,0l0,0z" id="svg_11"/>
  <path fill="none" stroke-width="5" id="svg_12" d="m172.074432,234.445526c0,-5.540359 16.150909,-10.028046 36.090286,-10.028046c19.939377,0 36.090286,4.487686 36.090286,10.028046c0,5.540344 -16.150909,10.02803 -36.090286,10.02803c-19.939377,0 -36.090286,-4.487686 -36.090286,-10.02803z" stroke-linecap="null" stroke-linejoin="null"/>
  <path d="m206.116928,135.328583c0,31.836319 0,63.672623 0,95.508957c0,4.904907 5.015152,4.904907 5.015152,0c0,-31.836334 0,-63.672638 0,-95.508957c0,-4.90567 -5.015152,-4.90567 -5.015152,0z" id="svg_9" stroke-width="0"/>
  <path d="m204.116867,54.360596c0,32.467987 0,64.935959 0,97.403961c0,5.002228 6.01506,5.002228 6.01506,0c0,-32.468002 0,-64.935974 0,-97.403961c0,-5.002991 -6.01506,-5.002991 -6.01506,0z" id="svg_16" transform="rotate(90, 207.125, 104.115)"/>
  <path d="m175.616867,55.079056c0,18.621628 0,37.243248 0,55.864883c0,2.868965 6.01506,2.868965 6.01506,0c0,-18.621635 0,-37.243256 0,-55.864883c0,-2.869404 -6.01506,-2.869404 -6.01506,0z" transform="rotate(45, 178.625, 83.6133)" id="svg_17"/>
  <path d="m235.616867,55.079056c0,18.621628 0,37.243248 0,55.864883c0,2.868958 6.01506,2.868958 6.01506,0c0,-18.621635 0,-37.243256 0,-55.864883c0,-2.8694 -6.01506,-2.8694 -6.01506,0z" transform="rotate(-45, 238.625, 83.613)" id="svg_18"/>
  <path d="m205.116135,53.047768c0,6.569595 0,13.139183 0,19.708778c0,1.012161 6.01506,1.012161 6.01506,0c0,-6.569595 0,-13.139183 0,-19.708778c0,-1.012306 -6.01506,-1.012306 -6.01506,0z" transform="rotate(90, 208.125, 63.1152)" id="svg_19"/>
 </g>
</svg>
