<svg xmlns="http://www.w3.org/2000/svg" viewBox="20 20 321 321">
<g fill="#fff">
<path d="m84.09,162.513c8.917,1.522 17.833,3.045 26.749,4.567 4.414,.754 6.304-5.991 1.861-6.75-8.917-1.522-17.833-3.045-26.749-4.567-4.414-.754-6.304,5.991-1.861,6.75z"/>
<path d="m84.364,172.128c8.917,1.522 17.833,3.045 26.749,4.567 4.414,.753 6.304-5.991 1.861-6.75-8.917-1.522-17.833-3.045-26.749-4.567-4.413-.753-6.304,5.992-1.861,6.75z"/>
<path d="m84.364,181.47c8.917,1.522 17.833,3.045 26.749,4.567 4.414,.754 6.304-5.991 1.861-6.75-8.917-1.522-17.833-3.045-26.749-4.567-4.413-.754-6.304,5.991-1.861,6.75z"/>
<path d="m90.058,191.441c5.004,.854 10.008,1.708 15.012,2.563 4.414,.754 6.304-5.991 1.861-6.75-5.004-.854-10.008-1.708-15.012-2.563-4.414-.753-6.304,5.992-1.861,6.75z"/>
</g>
<path fill="none" stroke="#fff" stroke-width="10" d="m121.034,136.573c0,7.544-6.116,13.66-13.66,13.66h-18.214c-7.544,0-13.66-6.116-13.66-13.66v-48.569c0-7.544 6.116-13.66 13.66-13.66h18.213c7.544,0 13.66,6.116 13.66,13.66v48.569z"/>
<g fill="#fff">
<path d="m134.333,206.803c5.647-1.371 11.094-2.057 16.34-2.057 4.195,0 7.989,.483 11.377,1.452 3.389,.968 6.294,2.502 8.715,4.599 2.421,2.1 4.297,4.803 5.628,8.109 1.332,3.311 1.997,7.305 1.997,11.983 0,5.81-1.11,10.511-3.328,14.101-2.221,3.592-5.226,6.314-9.017,8.17 .968,1.615 2.197,3.813 3.691,6.596 1.492,2.784 3.026,5.852 4.599,9.199 1.574,3.35 3.106,6.799 4.6,10.349 1.493,3.552 2.762,6.94 3.813,10.167h-10.975c-.883-2.42-1.988-5.163-3.312-8.23-1.324-3.066-2.71-6.112-4.155-9.139-1.445-3.025-2.89-5.93-4.334-8.715-1.445-2.783-2.729-5.144-3.852-7.08-1.292,.163-2.623,.283-3.995,.363-1.373,.082-2.744,.121-4.115,.121h-3.026v32.68h-10.651v-82.668zm10.651,41.031h4.6c5.567,0 9.843-1.271 12.829-3.813 2.985-2.541 4.479-6.918 4.479-13.132 0-3.147-.384-5.789-1.15-7.929-.768-2.137-1.857-3.831-3.268-5.083-1.412-1.251-3.107-2.157-5.083-2.724-1.978-.563-4.176-.848-6.597-.848-2.099,0-4.035,.121-5.81,.363v33.166z"/>
<path d="m184.229,247.471c0-7.906 .726-14.645 2.179-20.213 1.452-5.567 3.529-10.105 6.232-13.616s5.971-6.052 9.805-7.626c3.832-1.572 8.129-2.359 12.891-2.359 3.631,0 6.938,.505 9.924,1.513 2.984,1.011 5.405,2.159 7.262,3.449l-3.389,9.078c-1.856-1.29-3.873-2.36-6.051-3.208-2.18-.847-4.682-1.27-7.504-1.27-7.021,0-12.064,2.844-15.131,8.532s-4.599,14.263-4.599,25.72c0,6.134 .463,11.378 1.392,15.736 .928,4.355 2.24,7.908 3.934,10.65 1.694,2.744 3.752,4.762 6.174,6.052 2.42,1.292 5.123,1.937 8.109,1.937 2.5,0 4.639-.282 6.414-.848v-32.801h10.894v39.458c-2.179,1.05-4.884,1.937-8.109,2.663-3.228,.726-6.618,1.089-10.167,1.089-4.357,0-8.394-.868-12.104-2.603-3.713-1.734-6.92-4.396-9.623-7.988-2.704-3.589-4.801-8.148-6.294-13.678-1.493-5.525-2.239-12.081-2.239-19.667z"/>
<path d="m244.266,206.803c2.824-.645 5.707-1.15 8.654-1.513 2.944-.363 5.87-.544 8.775-.544 3.631,0 7.08,.344 10.348,1.028 3.268,.687 6.152,1.856 8.654,3.51 2.5,1.655 4.497,3.833 5.992,6.536 1.491,2.705 2.238,6.072 2.238,10.106 0,5.005-1.049,9.099-3.146,12.286-2.1,3.188-4.802,5.547-8.109,7.08 4.115,1.615 7.504,4.075 10.166,7.383 2.664,3.309 3.995,7.867 3.995,13.677 0,4.357-.708,8.03-2.118,11.015-1.412,2.986-3.409,5.428-5.991,7.322-2.583,1.896-5.669,3.268-9.26,4.115s-7.524,1.271-11.801,1.271c-2.825,0-5.771-.163-8.835-.484-3.068-.322-6.254-.807-9.563-1.452v-81.336zm10.894,34.496h7.504c10.005,0 15.009-4.519 15.009-13.557 0-2.823-.424-5.145-1.271-6.959-.847-1.816-1.957-3.227-3.328-4.236-1.373-1.008-2.965-1.713-4.781-2.119-1.814-.402-3.732-.605-5.749-.605-1.21,0-2.441,.043-3.691,.122-1.252,.081-2.481,.202-3.691,.362v26.992zm-.002,8.715v30.258c1.532,.242 3.044,.445 4.538,.605 1.492,.162 2.966,.242 4.418,.242 2.258,0 4.397-.242 6.415-.727 2.017-.483 3.771-1.289 5.265-2.42 1.493-1.13 2.664-2.682 3.511-4.66 .847-1.977 1.271-4.418 1.271-7.322 0-5.002-1.352-8.916-4.055-11.741-2.704-2.823-6.92-4.235-12.648-4.235h-8.715z"/>
</g>
</svg>
