<svg xmlns="http://www.w3.org/2000/svg" viewBox="20 20 321 321">
<g fill="#fff">
<path d="m84.09,163.513c8.917,1.522 17.833,3.045 26.749,4.567 4.414,.754 6.304-5.991 1.861-6.75-8.917-1.522-17.833-3.045-26.749-4.567-4.414-.754-6.304,5.991-1.861,6.75z"/>
<path d="m84.364,173.128c8.917,1.522 17.833,3.045 26.749,4.567 4.414,.753 6.304-5.991 1.861-6.75-8.917-1.522-17.833-3.045-26.749-4.567-4.413-.753-6.304,5.992-1.861,6.75z"/>
<path d="m84.364,182.47c8.917,1.522 17.833,3.045 26.749,4.567 4.414,.754 6.304-5.991 1.861-6.75-8.917-1.522-17.833-3.045-26.749-4.567-4.413-.754-6.304,5.991-1.861,6.75z"/>
<path d="m90.058,192.441c5.004,.854 10.008,1.708 15.012,2.563 4.414,.754 6.304-5.991 1.861-6.75-5.004-.854-10.008-1.708-15.012-2.563-4.414-.753-6.304,5.992-1.861,6.75z"/>
</g>
<path fill="none" stroke="#fff" stroke-width="10" d="m121.034,137.573c0,7.544-6.116,13.66-13.66,13.66h-18.214c-7.544,0-13.66-6.116-13.66-13.66v-48.569c0-7.544 6.116-13.66 13.66-13.66h18.213c7.544,0 13.66,6.116 13.66,13.66v48.569z"/>
<g fill="#fff">
<path d="m200.362,290.525c-.023-10.17 .575-21.824-3.268-31.49-1.93-4.853-5.807-7.762-9.65-11.04-1.463-1.248-3.596,.864-2.121,2.121 3.611,3.081 7.298,5.742 9.112,10.306 3.641,9.155 2.904,20.479 2.927,30.104 .005,1.934 3.005,1.934 3-.001z"/>
<path d="m207.955,290.525c-.042-10.173 .157-22.225-5.374-31.238-3.49-5.688-9.904-8.324-15.44-11.526-1.678-.971-3.188,1.622-1.514,2.59 4.923,2.849 10.562,5.123 13.986,9.883 5.889,8.186 5.303,20.782 5.342,30.292 .008,1.934 3.008,1.934 3-.001z"/>
<path d="m187.458,290.525c-.053-8.972-.021-19.793-4.991-27.704-.975-1.552-2.273-2.817-3.752-3.88-.439-.315-2.111-.993-2.168-1.598-.18-1.909-3.182-1.927-3,0 .267,2.838 3.278,3.63 5.065,5.407 6.461,6.426 5.798,19.599 5.846,27.774 .012,1.935 3.012,1.937 3,.001z"/>
<path d="m194.997,290.127c-1.431-7.634-2.04-18.403-7.068-24.835-2.973-3.803-8.238-5.787-11.821-9.009-1.434-1.29-3.563,.825-2.121,2.121 3.443,3.097 8.138,5.022 11.276,8.345 1.73,1.831 2.44,4.607 3.126,6.949 1.647,5.628 2.637,11.472 3.716,17.226 .356,1.9 3.247,1.094 2.892-.797z"/>
<path d="m213.596,290.667c.046-5.955-.378-14.77 4.093-19.514 1.385-1.47 3.415-1.8 3.669-4.09 .213-1.921-2.789-1.9-3,0 .013-.11-3.593,2.868-4.147,3.67-3.746,5.416-3.565,13.716-3.614,19.934-.016,1.936 2.984,1.934 2.999-0z"/>
<path d="m208.141,291.065c.94-5 1.277-12.771 4.689-16.931 2.008-2.449 5.695-3.872 8.088-6.011 1.445-1.292-.684-3.406-2.121-2.121-2.549,2.277-6.179,3.681-8.347,6.325-3.742,4.563-4.171,12.454-5.202,17.94-.355,1.891 2.535,2.699 2.893,.798z"/>
<path d="m274.051,290.667c.048-9.742-.126-21.342 5.427-29.844 2.745-4.203 7.565-6.453 11.313-9.608 1.482-1.247-.651-3.358-2.121-2.121-4.248,3.576-9.03,6.002-12.15,10.778-5.628,8.616-5.42,20.985-5.469,30.795-.01,1.935 2.99,1.935 3,0z"/>
<path d="m266.459,290.667c.065-9.873 .352-21.82 7.521-29.497 4.379-4.688 11.067-6.602 16.507-9.721 1.678-.962 .167-3.554-1.514-2.59-5.998,3.438-12.788,5.558-17.62,10.73-7.459,7.986-7.826,20.855-7.895,31.077-.012,1.937 2.988,1.935 3.001,.001z"/>
<path d="m283.998,290.351c.043-5.978-.479-14.893 3.784-19.817 1.292-1.492 3.223-1.916 3.448-4.134 .195-1.924-2.807-1.905-3,0-.036,.352-3.382,2.997-3.851,3.734-3.566,5.616-3.337,13.895-3.382,20.217-.013,1.935 2.987,1.933 3.001,0z"/>
<path d="m278.912,290.749c.922-5.341 1.235-12.494 4.337-17.175 1.621-2.447 5.418-4.047 7.542-6.114 1.389-1.351-.734-3.471-2.121-2.121-2.351,2.287-5.799,3.783-7.771,6.401-3.599,4.779-3.911,12.6-4.88,18.212-.326,1.892 2.565,2.701 2.893,.797z"/>
<path d="m258.771,290.49c-.028-7.675 1.654-20.66-5.583-25.713-1.591-1.11-3.088,1.491-1.514,2.59 1.162,.812 1.732,1.005 2.289,2.515 2.315,6.281 1.783,14.061 1.808,20.608 .007,1.935 3.007,1.935 3,0z"/>
<path d="m266.405,290.092c-.995-5.754-1.389-13.189-4.735-18.232-1.903-2.868-5.729-4.469-8.178-6.848-1.388-1.349-3.511,.771-2.121,2.121 2.28,2.216 5.266,3.666 7.442,5.921 1.23,1.273 1.672,3.308 2.128,4.949 1.168,4.212 1.827,8.586 2.571,12.886 .33,1.904 3.22,1.094 2.893-.797z"/>
<path d="m291.833,183.344c0,2.648-2.046,4.794-4.571,4.794h-61.505c-2.525,0-4.571-2.146-4.571-4.794v-31.765c0-2.648 2.046-4.794 4.571-4.794h61.505c2.525,0 4.571,2.146 4.571,4.794v31.765z"/>
<path d="m283.186,153.585c0,2.087-1.691,3.779-3.779,3.779h-47.078c-2.088,0-3.779-1.692-3.779-3.779v-21.255c0-2.087 1.691-3.779 3.779-3.779h47.078c2.088,0 3.779,1.692 3.779,3.779v21.255z"/>
<path d="m255.658,158.392c0,1.716-1.846,3.107-4.121,3.107h-39.322c-2.274,0-4.12-1.392-4.12-3.107v-37.683c0-1.715 1.846-3.107 4.12-3.107h39.322c2.275,0 4.121,1.392 4.121,3.107v37.683z"/>
<path d="m270.696,149.741c0,3.708-3.007,6.714-6.714,6.714h-11.051c-3.707,0-6.713-3.006-6.713-6.714v-21.681c0-3.708 3.006-6.714 6.713-6.714h11.051c3.707,0 6.714,3.006 6.714,6.714v21.681z"/>
<path d="m231.391,186.459c0,3.708-3.006,6.715-6.713,6.715h-17.625c-3.708,0-6.714-3.007-6.714-6.715v-17.624c0-3.708 3.006-6.714 6.714-6.714h17.625c3.707,0 6.713,3.006 6.713,6.714v17.624z"/>
<path d="m232.826,159.514c0,3.708-4.068,6.714-9.088,6.714h-15.524c-5.019,0-9.088-3.006-9.088-6.714v-25.458c0-3.708 4.069-6.714 9.088-6.714h15.524c5.02,0 9.088,3.006 9.088,6.714v25.458z"/>
<path d="m208.729,203.066c0,3.708-3.006,6.715-6.714,6.715h-11.19c-3.707,0-6.714-3.007-6.714-6.715v-45.133c0-3.708 3.007-6.714 6.714-6.714h11.19c3.708,0 6.714,3.006 6.714,6.714v45.133z"/>
<path d="m259.49,194.288c0,2.757-2.236,4.993-4.994,4.993h-58.535c-2.758,0-4.994-2.236-4.994-4.993v-6.659c0-2.757 2.236-4.992 4.994-4.992h58.535c2.758,0 4.994,2.235 4.994,4.992v6.659z"/>
<path d="m227.895,206.741c0,2.936-2.38,5.315-5.315,5.315h-13.43c-2.936,0-5.314-2.38-5.314-5.315 0-2.936 2.379-5.315 5.314-5.315h13.429c2.936-0 5.316,2.38 5.316,5.315z"/>
<path d="m269.98,197.271c0,2.758-2.236,4.994-4.993,4.994h-58.536c-2.758,0-4.994-2.236-4.994-4.994v-6.658c0-2.758 2.236-4.993 4.994-4.993h58.536c2.757,0 4.993,2.235 4.993,4.993v6.658z"/>
<path d="m285.811,208.636c0,1.609-1.731,2.915-3.867,2.915h-25.701c-2.135,0-3.865-1.306-3.865-2.915v-35.354c0-1.609 1.73-2.916 3.865-2.916h25.701c2.136,0 3.867,1.306 3.867,2.916v35.354z"/>
<path d="m275.908,220.998c0,3.203-2.336,5.8-5.217,5.8h-48.295c-2.881,0-5.216-2.597-5.216-5.8v-7.734c0-3.203 2.335-5.8 5.216-5.8h48.295c2.881,0 5.217,2.597 5.217,5.8v7.734z"/>
<path d="m225.229,200.571 11.296,47.05"/>
<path d="m220.407,201.9c3.766,15.684 7.531,31.366 11.297,47.05 1.505,6.269 11.147,3.609 9.643-2.658-3.766-15.684-7.531-31.366-11.297-47.05-1.505-6.268-11.148-3.609-9.643,2.658z"/>
<path d="m237.564,234.802 17.307-17.204"/>
<path d="m241.1,238.337c5.77-5.734 11.538-11.469 17.307-17.204 4.578-4.551-2.494-11.62-7.07-7.07-5.77,5.734-11.538,11.469-17.307,17.204-4.579,4.55 2.493,11.62 7.07,7.07z"/>
<path d="m263.505,213.922-13.989,45.294"/>
<path d="m258.684,212.593c-4.663,15.098-9.326,30.196-13.989,45.294-1.908,6.179 7.746,8.8 9.643,2.658 4.663-15.098 9.326-30.196 13.989-45.294 1.907-6.179-7.747-8.8-9.643-2.658z"/>
<path d="m238.525,286.564-2-36.943"/>
<path d="m243.525,286.564c-.667-12.314-1.333-24.629-2-36.943-.348-6.413-10.349-6.446-10,0 .667,12.314 1.333,24.629 2,36.943 .348,6.414 10.349,6.447 10,0z"/>
<path d="m246.55,286.564 2.503-28.468"/>
<path d="m251.55,286.564c.834-9.489 1.669-18.979 2.503-28.469 .565-6.427-9.439-6.372-10,0-.834,9.489-1.669,18.979-2.503,28.469-.566,6.427 9.439,6.373 10,0z"/>
<path d="m210.053,226.18c0,4.346-3.682,7.869-8.223,7.869h-21.585c-4.541,0-8.223-3.523-8.223-7.869v-20.654c0-4.346 3.682-7.869 8.223-7.869h21.585c4.541,0 8.223,3.523 8.223,7.869v20.654z"/>
<path d="m183.911,223.865c0,3.307-2.681,5.986-5.987,5.986h-9.979c-3.306,0-5.987-2.68-5.987-5.986v-40.247c0-3.307 2.681-5.987 5.987-5.987h9.979c3.306,0 5.987,2.68 5.987,5.987v40.247z"/>
<path d="m231.174,235.163c0,2.757-1.931,4.993-4.311,4.993h-50.531c-2.381,0-4.311-2.236-4.311-4.993v-6.659c0-2.757 1.93-4.992 4.311-4.992h50.531c2.38,0 4.311,2.235 4.311,4.992v6.659z"/>
<path d="m215.865,240.156c0,2.936-2.38,5.315-5.315,5.315h-13.429c-2.936,0-5.314-2.38-5.314-5.315 0-2.936 2.379-5.315 5.314-5.315h13.429c2.935,0 5.315,2.38 5.315,5.315z"/>
<path d="m203.074,187.796c0,3.708-3.006,6.714-6.714,6.714h-17.625c-3.708,0-6.714-3.006-6.714-6.714v-17.625c0-3.708 3.006-6.714 6.714-6.714h17.625c3.708,0 6.714,3.006 6.714,6.714v17.625z"/>
<path d="m192.632,211.575 25.778,41.792"/>
<path d="m188.314,214.099c8.593,13.931 17.186,27.861 25.778,41.792 3.378,5.477 12.03,.458 8.635-5.047-8.593-13.931-17.186-27.861-25.778-41.792-3.378-5.477-12.03-.458-8.635,5.047z"/>
<path d="m223.586,286.797-5.176-33.43"/>
<path d="m228.407,285.468c-1.726-11.144-3.45-22.286-5.176-33.43-.984-6.357-10.619-3.648-9.643,2.658 1.726,11.144 3.45,22.286 5.176,33.43 .985,6.357 10.62,3.648 9.643-2.658z"/>
<path d="m164.107,290.566c-.023-7.185 .333-15.226-2.234-22.087-1.349-3.607-4.16-5.766-6.993-8.175-1.464-1.245-3.597,.866-2.121,2.121 2.375,2.021 4.765,3.762 6.136,6.648 2.956,6.228 2.19,14.841 2.212,21.492 .007,1.936 3.007,1.936 3,.001z"/>
<path d="m169.455,290.566c-.042-7.27 .051-15.66-3.792-22.137-2.453-4.134-7.105-6.065-11.086-8.359-1.679-.968-3.189,1.625-1.514,2.59 3.37,1.942 7.248,3.508 9.634,6.721 4.196,5.65 3.718,14.574 3.757,21.186 .012,1.933 3.012,1.935 3.001-.001z"/>
<path d="m157.716,290.566c-.035-5.027-.074-10.624-2.391-15.228-.466-.926-1.163-1.776-1.961-2.434-.477-.392-1.122-1.144-1.065-.575-.19-1.906-3.192-1.925-3,0 .169,1.693 1.411,2.137 2.5,3.195 3.438,3.337 2.888,10.811 2.917,15.041 .013,1.935 3.013,1.937 3,.001z"/>
<path d="m161.432,290.168c-.736-4.337-1.026-9.893-3.514-13.708-1.415-2.171-4.233-3.384-6.06-5.19-1.376-1.361-3.498,.759-2.121,2.121 1.67,1.652 3.865,2.741 5.458,4.421 .853,.899 1.146,2.383 1.458,3.529 .858,3.147 1.341,6.413 1.886,9.624 .324,1.904 3.214,1.095 2.893-.797z"/>
<path d="m173.426,290.667c.031-4.05-.298-10.191 2.752-13.428 1.092-1.158 2.511-1.366 2.713-3.193 .212-1.922-2.79-1.901-3,0 .081-.731-.027-.323-.775,.196-.848,.588-1.5,1.319-2.084,2.164-2.684,3.88-2.571,9.803-2.606,14.261-.015,1.936 2.985,1.934 3-0z"/>
<path d="m169.569,291.065c.641-3.411 .855-8.882 3.188-11.727 1.409-1.718 4.016-2.731 5.695-4.232 1.445-1.292-.684-3.406-2.121-2.121-1.798,1.606-4.347,2.587-5.877,4.454-2.701,3.294-3.031,8.859-3.777,12.829-.356,1.89 2.535,2.698 2.892,.797z"/>
</g>
</svg>
