<svg xmlns="http://www.w3.org/2000/svg" viewBox="20 20 321 321">
<g fill="#fff">
<path d="m163.064,229.134c0-12.637-.434-132.479 .435-132.479 12.263,0 24.527,0 36.79,0 6.394,0 12.786,0 19.18,0 2.6,0 3.275-.333 3.275,2.285 0,26.165 0,52.33 0,78.494 0,17.233 0,34.466 0,51.7 0,4.514 7,4.514 7,0 0-22.177 0-44.353 0-66.529 0-15.152 0-30.304 0-45.456 0-6.771 .939-14.29-.125-21.008-1.015-6.404-6.628-6.485-11.685-6.485-6.857,0-13.715,0-20.572,0-7.799,0-15.598,0-23.396,0-3.722,0-7.792-.481-11.485,.125-8.884,1.458-6.417,14.739-6.417,21.153 0,14.247 0,28.494 0,42.741 0,25.153 0,50.306 0,75.459 0,4.513 7,4.513 7,0z"/>
<path d="m218.834,165.098c2.116,0 4.233,0 6.35,0 4.514,0 4.514-7 0-7-2.116,0-4.233,0-6.35,0-4.514,0-4.514,7 0,7z"/>
<path d="m121,233.504c49.871,0 99.743,0 149.614,0 6.567,0 13.136,0 19.704,0 1.935,0 1.935-3 0-3-49.871,0-99.742,0-149.613,0-6.568,0-13.136,0-19.705,0-1.935,0-1.935,3-0,3z"/>
<path d="m226.244,227.171c21.442,0 42.886,0 64.328,0 1.935,0 1.935-3 0-3-21.442,0-42.886,0-64.328,0-1.934,0-1.934,3 0,3z"/>
<path d="m121,227.171c13.278,0 26.557,0 39.835,0 1.935,0 1.935-3 0-3-13.278,0-26.557,0-39.835,0-1.935,0-1.935,3 0,3z"/>
<path d="m153.333,252.667c36.556,0 73.112,0 109.668,0 1.935,0 1.935-3 0-3-36.556,0-73.112,0-109.668,0-1.935,0-1.935,3 0,3z"/>
<path d="m161,291.834c38.723,0 77.446,0 116.168,0 1.935,0 1.935-3 0-3-38.723,0-77.445,0-116.168,0-1.935,0-1.935,3 0,3z"/>
<path d="m140.167,257.02c3.167,0 6.333,0 9.5,0 1.935,0 1.935-3 0-3-3.167,0-6.333,0-9.5,0-1.935,0-1.935,3 0,3z"/>
<path d="m140.167,252.667c3.167,0 6.333,0 9.5,0 1.935,0 1.935-3 0-3-3.167,0-6.333,0-9.5,0-1.935,0-1.935,3 0,3z"/>
<path d="m142.167,265.723c3.167,0 6.333,0 9.5,0 1.935,0 1.935-3 0-3-3.167,0-6.333,0-9.5,0-1.935,0-1.935,3 0,3z"/>
<path d="m142.167,261.371c3.167,0 6.333,0 9.5,0 1.935,0 1.935-3 0-3-3.167,0-6.333,0-9.5,0-1.935,0-1.935,3 0,3z"/>
<path d="m142.167,274.426c3.167,0 6.333,0 9.5,0 1.935,0 1.935-3 0-3-3.167,0-6.333,0-9.5,0-1.935,0-1.935,3 0,3z"/>
<path d="m143.167,270.074c3.167,0 6.333,0 9.5,0 1.935,0 1.935-3 0-3-3.167,0-6.333,0-9.5,0-1.935,0-1.935,3 0,3z"/>
<path d="m145.167,283.13c3.167,0 6.333,0 9.5,0 1.935,0 1.935-3 0-3-3.167,0-6.333,0-9.5,0-1.935,0-1.935,3 0,3z"/>
<path d="m143.167,278.777c3.167,0 6.333,0 9.5,0 1.935,0 1.935-3 0-3-3.167,0-6.333,0-9.5,0-1.935,0-1.935,3 0,3z"/>
<path d="m147.167,291.834c3.167,0 6.333,0 9.5,0 1.935,0 1.935-3 0-3-3.167,0-6.333,0-9.5,0-1.935,0-1.935,3 0,3z"/>
<path d="m146.167,287.481c3.167,0 6.333,0 9.5,0 1.935,0 1.935-3 0-3-3.167,0-6.333,0-9.5,0-1.935,0-1.935,3 0,3z"/>
<path d="m269.333,257.02c3.167,0 6.333,0 9.5,0 1.935,0 1.935-3 0-3-3.167,0-6.333,0-9.5,0-1.935,0-1.935,3 0,3z"/>
<path d="m267.333,252.667c3.167,0 6.333,0 9.5,0 1.935,0 1.935-3 0-3-3.167,0-6.333,0-9.5,0-1.935,0-1.935,3 0,3z"/>
<path d="m273.333,265.723c3.167,0 6.333,0 9.5,0 1.935,0 1.935-3 0-3-3.167,0-6.333,0-9.5,0-1.935,0-1.935,3 0,3z"/>
<path d="m272.333,261.371c3.167,0 6.333,0 9.5,0 1.935,0 1.935-3 0-3-3.167,0-6.333,0-9.5,0-1.935,0-1.935,3 0,3z"/>
<path d="m276.333,274.426c3.167,0 6.333,0 9.5,0 1.935,0 1.935-3 0-3-3.167,0-6.333,0-9.5,0-1.935,0-1.935,3 0,3z"/>
<path d="m274.333,270.074c3.167,0 6.333,0 9.5,0 1.935,0 1.935-3 0-3-3.167,0-6.333,0-9.5,0-1.935,0-1.935,3 0,3z"/>
<path d="m279.333,283.13c3.167,0 6.333,0 9.5,0 1.935,0 1.935-3 0-3-3.167,0-6.333,0-9.5,0-1.935,0-1.935,3 0,3z"/>
<path d="m277.333,278.777c3.167,0 6.333,0 9.5,0 1.935,0 1.935-3 0-3-3.167,0-6.333,0-9.5,0-1.935,0-1.935,3 0,3z"/>
<path d="m281.333,291.834c3.167,0 6.333,0 9.5,0 1.935,0 1.935-3 0-3-3.167,0-6.333,0-9.5,0-1.935,0-1.935,3 0,3z"/>
<path d="m280.333,287.481c3.167,0 6.333,0 9.5,0 1.935,0 1.935-3 0-3-3.167,0-6.333,0-9.5,0-1.935,0-1.935,3 0,3z"/>
<path d="m156.667,72.503c44.66,0 89.319,0 133.978,0 .003,0 .007,0 .01,0 1.935,0 1.935-3 0-3-44.659,0-89.318,0-133.978,0-.003,0-.006,0-.01,0-1.935,0-1.935,3 0,3z"/>
<path d="m84.09,163.192c8.917,1.522 17.833,3.045 26.749,4.567 4.414,.754 6.304-5.991 1.861-6.75-8.917-1.522-17.833-3.045-26.749-4.567-4.414-.754-6.304,5.992-1.861,6.75z"/>
<path d="m84.364,172.808c8.917,1.522 17.833,3.045 26.749,4.567 4.414,.753 6.304-5.991 1.861-6.75-8.917-1.522-17.833-3.045-26.749-4.567-4.413-.753-6.304,5.991-1.861,6.75z"/>
<path d="m84.364,182.149c8.917,1.522 17.833,3.045 26.749,4.567 4.414,.754 6.304-5.991 1.861-6.75-8.917-1.522-17.833-3.045-26.749-4.567-4.413-.753-6.304,5.992-1.861,6.75z"/>
<path d="m90.058,192.121c5.004,.854 10.008,1.708 15.012,2.563 4.414,.754 6.304-5.991 1.861-6.75-5.004-.854-10.008-1.708-15.012-2.563-4.414-.754-6.304,5.991-1.861,6.75z"/>
</g>
<path fill="none" stroke="#fff" stroke-width="10" d="m121.034,137.253c0,7.544-6.116,13.66-13.66,13.66h-18.214c-7.544,0-13.66-6.116-13.66-13.66v-48.569c0-7.544 6.116-13.66 13.66-13.66h18.213c7.544,0 13.66,6.116 13.66,13.66v48.569z"/>
</svg>
