<svg xmlns="http://www.w3.org/2000/svg" viewBox="20 20 321 321">
<g fill="#fff">
<path d="m84.09,162.513c8.917,1.522 17.833,3.045 26.749,4.567 4.414,.754 6.304-5.991 1.861-6.75-8.917-1.522-17.833-3.045-26.749-4.567-4.414-.754-6.304,5.991-1.861,6.75z"/>
<path d="m84.364,172.128c8.917,1.522 17.833,3.045 26.749,4.567 4.414,.753 6.304-5.991 1.861-6.75-8.917-1.522-17.833-3.045-26.749-4.567-4.413-.753-6.304,5.992-1.861,6.75z"/>
<path d="m84.364,181.47c8.917,1.522 17.833,3.045 26.749,4.567 4.414,.754 6.304-5.991 1.861-6.75-8.917-1.522-17.833-3.045-26.749-4.567-4.413-.754-6.304,5.991-1.861,6.75z"/>
<path d="m90.058,191.441c5.004,.854 10.008,1.708 15.012,2.563 4.414,.754 6.304-5.991 1.861-6.75-5.004-.854-10.008-1.708-15.012-2.563-4.414-.753-6.304,5.992-1.861,6.75z"/>
</g>
<path fill="none" stroke="#fff" stroke-width="10" d="m121.034,136.573c0,7.544-6.116,13.66-13.66,13.66h-18.214c-7.544,0-13.66-6.116-13.66-13.66v-48.569c0-7.544 6.116-13.66 13.66-13.66h18.213c7.544,0 13.66,6.116 13.66,13.66v48.569z"/>
<g fill="#fff">
<path d="m165.606,138.146c0,3.725 0,7.45 0,11.174 0,1.935 3,1.935 3,0 0-3.725 0-7.45 0-11.174 0-1.935-3-1.935-3,0z"/>
<path d="m148.033,146.576c2.633,2.634 5.267,5.268 7.901,7.901 1.369,1.369 3.49-.752 2.121-2.121-2.633-2.634-5.267-5.268-7.901-7.901-1.369-1.369-3.49,.752-2.121,2.121z"/>
<path d="m140.646,165.027c3.725,0 7.45,0 11.174,0 1.935,0 1.935-3 0-3-3.725,0-7.45,0-11.174,0-1.935,0-1.935,3 0,3z"/>
<path d="m291.833,281.734c-12.714,0-25.427,0-38.14,0v-8.511h38.14v-20.191h-121.079l.035-83.933 121.044,.032v-10.032h-121.044c-5.535,0-10.039,4.503-10.039,10.039v94.048c0,5.535 4.503,10.038 10.039,10.038h63.586v8.511c-13.99,0-27.979,0-41.968,0-6.448,0-6.448,10 0,10 33.142,0 66.284,0 99.426,0v-10.001z"/>
<path d="m140.685,269.939c3.725,0 7.45,0 11.174,0 1.935,0 1.935-3 0-3-3.725,0-7.45,0-11.174,0-1.935,0-1.935,3 0,3z"/>
<path d="m150.116,287.512c2.634-2.634 5.268-5.267 7.901-7.9 1.369-1.369-.752-3.49-2.121-2.121-2.634,2.634-5.268,5.267-7.901,7.9-1.37,1.369 .752,3.49 2.121,2.121z"/>
<path d="m168.567,290.167c0-2.147 0-4.294 0-6.441 0-1.935-3-1.935-3,0 0,2.147 0,4.294 0,6.441 0,1.935 3,1.935 3,0z"/>
<path d="m236.877,139.513c-2.634,2.634-5.268,5.268-7.901,7.901-1.369,1.369 .752,3.49 2.121,2.121 2.634-2.634 5.268-5.268 7.901-7.901 1.369-1.369-.752-3.49-2.121-2.121z"/>
<path d="m219.904,137.3c0,3.725-.001,7.45-.001,11.175 0,1.935 3,1.935 3,0 0-3.725 .001-7.45 .001-11.175 0-1.935-3-1.935-3,0z"/>
<path d="m203.754,141.634c2.634,2.634 5.269,5.268 7.902,7.901 1.369,1.369 3.49-.752 2.121-2.121-2.634-2.634-5.269-5.268-7.902-7.901-1.369-1.369-3.49,.752-2.121,2.121z"/>
<path d="m143.002,200.012c2.634,2.634 5.268,5.268 7.901,7.901 1.369,1.369 3.49-.752 2.121-2.121-2.634-2.634-5.268-5.268-7.901-7.901-1.369-1.37-3.49,.752-2.121,2.121z"/>
<path d="m140.789,216.985c3.725,0 7.45,0 11.175,0 1.935,0 1.935-3 0-3-3.725,0-7.45,0-11.175,0-1.935,0-1.935,3 0,3z"/>
<path d="m145.123,233.135c2.634-2.634 5.268-5.268 7.901-7.901 1.369-1.369-.752-3.49-2.121-2.121-2.634,2.634-5.268,5.268-7.901,7.901-1.369,1.369 .752,3.49 2.121,2.121z"/>
<path d="m286.195,137.3c0,3.725 0,7.45 0,11.175 0,1.935 3,1.935 3,0 0-3.725 0-7.45 0-11.175 0-1.935-3-1.935-3,0z"/>
<path d="m270.046,141.634c2.634,2.634 5.268,5.268 7.901,7.901 1.369,1.369 3.49-.752 2.121-2.121-2.634-2.634-5.268-5.268-7.901-7.901-1.369-1.369-3.49,.752-2.121,2.121z"/>
</g>
</svg>
