<svg xmlns="http://www.w3.org/2000/svg" viewBox="20 20 321 321">
  <g fill="#fff">
    <path
       d="m 180.50001,69.981074 c -61.5231,0 -111.351883,49.301636 -111.351883,110.173876 0,51.77702 35.907423,94.74953 84.352603,106.86398 -0.55913,-1.37836 -0.83395,-3.30991 -0.83395,-5.23209 v -18.73426 h -13.92137 c -7.51505,0 -14.48048,-3.30053 -17.54146,-9.36713 -3.62013,-6.61042 -4.17926,-16.80268 -13.36223,-23.1412 -2.78617,-2.20347 -0.55913,-4.40695 2.50186,-4.13503 5.84716,1.65026 10.57606,5.51338 15.03015,11.28931 4.45406,5.7853 6.40628,7.16365 14.7553,7.16365 3.89493,0 10.01692,-0.27192 15.58925,-1.10643 3.061,-7.71686 8.34904,-14.59921 14.75531,-17.89974 -37.3005,-4.40695 -55.11681,-22.58798 -55.11681,-47.37946 0,-10.74547 4.72891,-20.93771 12.52829,-29.75163 -2.50188,-8.54199 -5.84717,-26.16981 1.11824,-33.05216 16.70751,0 26.72445,10.74547 29.22633,13.49278 8.34902,-2.7567 17.54147,-4.40695 26.99927,-4.40695 9.74211,0 18.65024,1.65025 26.99927,4.40695 2.50186,-2.7567 12.52827,-13.49278 29.22631,-13.49278 6.68112,6.61043 3.62012,24.51017 0.83397,33.05216 7.79936,8.54199 12.25343,19.00616 12.25343,29.75163 0,24.79148 -17.54147,42.97251 -54.55767,46.82625 10.30122,5.23208 17.54147,20.10322 17.54147,31.1206 v 25.09152 c 0,0.82511 -0.27482,1.65026 -0.27482,2.47539 43.42249,-14.87113 74.601,-55.63078 74.601,-103.83536 0,-60.87224 -49.82877,-110.173876 -111.35186,-110.173876 z"/>
  </g>
</svg>
