<svg xmlns="http://www.w3.org/2000/svg" viewBox="20 20 321 321">
<g fill="#fff">
<path d="m80.49,77.167c48.841,0 97.682,0 146.523,0 20.347,0 40.692,0 61.038,0 4.514,0 4.514-7 0-7-48.841,0-97.683,0-146.523,0-20.346,0-40.692,0-61.038,0-4.514,0-4.514,7 0,7z"/>
<path d="m80.49,86.119c6.892,0 13.785,0 20.677,0 4.514,0 4.514-7 0-7-6.892,0-13.785,0-20.677,0-4.514,0-4.514,7-0,7z"/>
<path d="m117.867,86.119c6.892,0 13.785,0 20.677,0 4.514,0 4.514-7 0-7-6.892,0-13.785,0-20.677,0-4.514,0-4.514,7-0,7z"/>
<path d="m155.244,86.119c6.892,0 13.785,0 20.677,0 4.514,0 4.514-7 0-7-6.892,0-13.785,0-20.677,0-4.515,0-4.515,7 0,7z"/>
<path d="m192.62,86.119c6.893,0 13.784,0 20.677,0 4.514,0 4.514-7 0-7-6.893,0-13.784,0-20.677,0-4.514,0-4.514,7 0,7z"/>
<path d="m229.997,86.119c6.893,0 13.784,0 20.677,0 4.514,0 4.514-7 0-7-6.893,0-13.784,0-20.677,0-4.514,0-4.514,7 0,7z"/>
<path d="m69.833,71.667c0,48.178 0,96.356 0,144.534 0,24.6 0,49.199 0,73.799 0,1.935 3,1.935 3,0 0-48.178 0-96.356 0-144.534 0-24.6 0-49.199 0-73.799 0-1.935-3-1.935-3,0z"/>
<path d="m74.333,181.667c44.736,0 89.473,0 134.209,0 .013,0 .026,0 .039,0 1.935,0 1.935-3 0-3-44.736,0-89.473,0-134.209,0-.013,0-.026,0-.039,0-1.935,0-1.935,3 0,3z"/>
<path d="m78.171,181.765c3.006-8.949 6.538-17.749 10.296-26.404 6.707-15.446 14.309-31.341 25.187-44.331 3.982-4.756 8.86-9.669 15.006-11.371 5.432-1.503 10.691,1.777 14.646,5.175 12.366,10.624 20.2,26.907 27.052,41.37 5.468,11.54 10.377,23.45 14.446,35.561 1.43,4.256 8.191,2.431 6.75-1.861-8.249-24.553-18.895-50.42-34.936-70.921-7.438-9.505-18.61-20.148-31.696-15.479-13.712,4.894-22.828,20.379-29.644,32.284-9.747,17.022-17.612,35.522-23.859,54.116-1.44,4.291 5.322,6.117 6.752,1.861z"/>
<path d="m74.909,269.373c13.888-.31 23.876-14.2 30.77-24.625 9.251-13.991 16.219-29.516 22.525-45.011 7.253-17.821 13.015-36.069 21.219-53.534 6.873-14.631 14.808-30.453 27.052-41.37 5.079-4.528 11.133-7.114 17.688-4.056 12.564,5.862 20.623,21.667 26.88,33.226 2.149,3.97 8.193,.437 6.045-3.533-8.007-14.792-24.529-45.216-45.982-36.72-13.686,5.42-22.669,20.805-29.54,32.956-10.554,18.664-17.968,38.671-25.305,58.73-5.533,15.128-11.954,29.994-19.675,44.14-4.311,7.896-9.112,15.656-15.066,22.429-4.188,4.764-9.858,10.218-16.611,10.368-4.507,.101-4.516,7.101 0,7z"/>
<path d="m72.936,181.765c8.274,24.553 18.933,50.411 34.974,70.921 7.42,9.488 18.577,20.152 31.643,15.479 13.7-4.9 22.808-20.387 29.623-32.283 10.743-18.751 18.331-38.924 25.68-59.163 4.954-13.644 10.662-27.042 17.322-39.941 6.616-12.814 15.036-29.207 28.473-36.063 6.296-3.213 12.572-.1 17.559,4.122 8.859,7.5 14.986,18.29 20.481,28.336 2.167,3.96 8.212,.429 6.045-3.533-8.192-14.977-24.848-44.89-46.371-35.535-13.518,5.875-22.373,21.27-29.22,33.527-10.374,18.574-17.664,38.42-24.974,58.312-5.131,13.961-11.032,27.673-17.977,40.83-3.98,7.539-8.369,14.983-13.629,21.709-3.934,5.029-8.787,10.518-14.873,12.934-12.626,5.011-23.667-11.509-29.414-20.2-9.219-13.942-16.225-29.42-22.445-44.891-2.179-5.419-4.281-10.885-6.147-16.421-1.434-4.256-8.196-2.43-6.75,1.86z"/>
<path d="m267.374,86.119c6.893,0 13.784,0 20.677,0 4.514,0 4.514-7 0-7-6.893,0-13.784,0-20.677,0-4.514,0-4.514,7 0,7z"/>
<path d="M241.967,153.067h18v138.601h-18V153.067z"/>
</g>
</svg>
