<svg xmlns="http://www.w3.org/2000/svg" viewBox="20 20 321 321">
<g fill="#fff">
	<path d="M170.879,81.501L116.002,70.24c-3.137-0.644-6.237,1.504-6.911,4.788L87.8,178.783
		c-0.674,3.284,1.33,6.479,4.466,7.123l54.877,11.262c3.137,0.644,6.237-1.504,6.911-4.788l21.291-103.754
		C176.02,85.34,174.016,82.145,170.879,81.501z M152.206,174.769c-0.05-0.013-0.101-0.029-0.152-0.04l-55.618-11.413l14.252-69.449
		c0.439,0.235,0.915,0.415,1.423,0.52l53.465,10.971c0.285,0.06,0.57,0.086,0.854,0.098L152.206,174.769z M153.864,90.027
		l-0.287,1.398c-0.069,0.335-0.279,0.472-0.317,0.48l-23.888-4.899c-0.045-0.029-0.185-0.237-0.116-0.573l0.286-1.397
		c0.067-0.325,0.265-0.463,0.326-0.479l23.878,4.897C153.794,89.483,153.934,89.691,153.864,90.027z M118.798,180.211l0.933-4.544
		c0.153-0.747,0.884-1.229,1.631-1.076l4.543,0.932c0.748,0.153,1.229,0.885,1.076,1.632l-0.933,4.544
		c-0.153,0.746-0.883,1.229-1.631,1.074l-4.543-0.932C119.127,181.688,118.645,180.958,118.798,180.211z"/>
	<g fill="none" stroke="#fff" stroke-width="3" stroke-miterlimit="10">
		<circle cx="131.292" cy="135.421" r="23.976"/>
		<ellipse cx="131.292" cy="135.421" rx="11.856" ry="23.976"/>
		<line  x1="107.053" y1="136.036" x2="155.708" y2="136.036"/>
		<path d="M266.212,276.662 c0,7.662-6.244,13.87-13.945,13.87H220.73c-7.701,0-13.943-6.208-13.943-13.87v-69.627c0-7.66,6.242-13.868,13.943-13.868h31.536 c7.701,0,13.945,6.208,13.945,13.868V276.662z"/>
		<path d="M274.745,204.99c0,16.305,0,60.795,0,77.101 c0,11.123,15.609,11.123,15.609,0c0-16.306,0-60.796,0-77.101C290.354,193.867,274.745,193.867,274.745,204.99L274.745,204.99z"/>
		<path d="M182.473,204.99c0,16.305,0,60.795,0,77.101 c0,11.123,15.607,11.123,15.607,0c0-16.306,0-60.796,0-77.101C198.08,193.867,182.473,193.867,182.473,204.99L182.473,204.99z"/>
		<circle cx="236.5" cy="156.564" r="28"/>
	</g>
</g>
</svg>
