<svg xmlns="http://www.w3.org/2000/svg" viewBox="20 20 321 321">
<g fill="#fff">
<circle cx="165.322" cy="258.605" r="33.186"/>
<path d="m115.789,107.815c0-3.228-2.619-5.847-5.848-5.847h-39.228v100.114h39.228c3.229,0 5.848-2.617 5.848-5.846v-88.421z"/>
<path d="m70.713,226.039v32.566h57.283c.001-20.662 16.75-37.411 37.412-37.411 20.626,0 37.351,16.691 37.409,37.306 7.124-.541 9.017-3.393 9.017-11.923 0,0 0-39.946 0-63.216 0-.531-.128-1.721-.287-2.617h-.016c.03-.961-.179-1.941-.688-2.838l-26.662-46.774c-.824-1.445-2.219-2.342-3.737-2.617-.497-.129-1.008-.221-1.545-.221h-52.984c-3.386,0-6.131,2.746-6.131,6.131v45.218c0,.377 .046,.743 .111,1.102h-.125v-.049l-.225,46.246-48.832-.903zm57.196-84.699c0-2.909 2.359-5.27 5.27-5.27h45.542c.461,0 .901,.08 1.327,.19 1.306,.236 2.503,1.007 3.211,2.249l17.155,30.095h-.018c.422,.746 .885,1.559 1.379,2.428 2.207,3.879-.581,6.704-3.874,6.704-16.899,0-64.723,0-64.723,0-2.823,0-5.107-2.227-5.244-5.014l-.026,.001v-.257-8.137-22.989z"/>
<path d="m115.623,211.148c0-3.228-2.619-5.847-5.848-5.847h-39.229v17.114h39.228c3.229,0 5.848-2.617 5.848-5.847v-5.42z"/>
<path d="m256.863,265.647c9.663,8.331 19.326,16.661 28.99,24.991 3.4,2.932 8.374-1.997 4.949-4.949-9.663-8.331-19.326-16.661-28.99-24.991-3.4-2.931-8.374,1.997-4.949,4.949z"/>
<path d="m251.889,268.16c6.021,7.322 12.042,14.645 18.063,21.966 2.869,3.489 7.792-1.493 4.949-4.949-6.021-7.322-12.042-14.645-18.063-21.966-2.869-3.489-7.792,1.493-4.949,4.949z"/>
<path d="m247.383,266.981c2.036,7.078 4.073,14.156 6.109,21.234 1.246,4.33 8.001,2.486 6.75-1.861-2.036-7.078-4.073-14.156-6.109-21.234-1.246-4.33-8.001-2.486-6.75,1.861z"/>
<path d="m234.523,260.698c-9.664,8.33-19.327,16.66-28.99,24.991-3.425,2.952 1.549,7.881 4.949,4.949 9.664-8.33 19.327-16.66 28.99-24.991 3.425-2.952-1.548-7.88-4.949-4.949z"/>
<path d="m239.498,263.211c-6.021,7.321-12.043,14.644-18.063,21.966-2.843,3.456 2.08,8.438 4.949,4.949 6.021-7.321 12.043-14.644 18.063-21.966 2.843-3.456-2.08-8.438-4.949-4.949z"/>
<path d="m242.203,265.12c-2.036,7.078-4.073,14.156-6.109,21.234-1.251,4.348 5.504,6.191 6.75,1.861 2.036-7.078 4.073-14.156 6.109-21.234 1.251-4.347-5.504-6.191-6.75-1.861z"/>
<path d="m261.583,263.895c0,2.222-1.801,4.022-4.022,4.022h-18.352c-2.221,0-4.021-1.801-4.021-4.022v-2.765c0-2.222 1.801-4.022 4.021-4.022h18.352c2.222,0 4.022,1.801 4.022,4.022v2.765z"/>
<path d="m213.268,220.814c2.222,0 4.022,1.801 4.022,4.021v28.352c0,2.222-1.801,4.022-4.022,4.022h-2.765c-2.222,0-4.022-1.801-4.022-4.022v-28.352c0-2.221 1.801-4.021 4.022-4.021h2.765z"/>
<path d="m212.314,236.8c15.713,6.083 31.426,12.166 47.139,18.249 4.216,1.632 6.024-5.139 1.861-6.75-15.713-6.083-31.426-12.166-47.139-18.249-4.215-1.632-6.024,5.138-1.861,6.75z"/>
<path d="m235.583,258.167c8.25,0 16.5,0 24.75,0 6.448,0 6.448-10 0-10-8.25,0-16.5,0-24.75,0-6.448,0-6.448,10 0,10z"/>
<path d="m215.247,247.129c7.867,3.046 15.734,6.092 23.601,9.138 4.216,1.632 6.023-5.139 1.861-6.75-7.867-3.046-15.734-6.092-23.601-9.138-4.215-1.632-6.023,5.139-1.861,6.75z"/>
</g>
</svg>
