<svg xmlns="http://www.w3.org/2000/svg" viewBox="20 20 321 321">
<g fill="#fff">
	<circle cx="236.5" cy="156.564" r="28.836"/>
	<path d="M236.501,186.084c-16.276,0-29.52-13.244-29.52-29.52s13.243-29.52,29.52-29.52 s29.517,13.244,29.517,29.52S252.777,186.084,236.501,186.084z M236.501,128.41c-15.524,0-28.154,12.63-28.154,28.154 c0,15.522,12.63,28.154,28.154,28.154c15.523,0,28.151-12.632,28.151-28.154C264.652,141.041,252.024,128.41,236.501,128.41z"/>
	<path d="M267.465,277.459c0,7.895-6.398,14.291-14.292,14.291h-33.349c-7.893,0-14.291-6.396-14.291-14.291 v-71.745c0-7.894,6.398-14.291,14.291-14.291h33.349c7.894,0,14.292,6.397,14.292,14.291V277.459z"/>
	<path d="M273.764,204.122c0,16.776,0,62.553,0,79.331c0,11.443,17.746,11.443,17.746,0 c0-16.778,0-62.555,0-79.331C291.51,192.678,273.764,192.678,273.764,204.122L273.764,204.122z"/>
	<path d="M181.49,204.12c0,16.778,0,62.554,0,79.331c0,11.443,17.746,11.443,17.746,0 c0-16.777,0-62.553,0-79.331C199.236,192.677,181.49,192.677,181.49,204.12L181.49,204.12z"/>
	<path d="M170.879,81.501L116.002,70.24c-3.137-0.644-6.237,1.504-6.911,4.788L87.8,178.783
		c-0.674,3.284,1.33,6.479,4.466,7.123l54.877,11.262c3.137,0.644,6.237-1.504,6.911-4.788l21.291-103.754
		C176.02,85.34,174.016,82.145,170.879,81.501z M152.206,174.769c-0.05-0.013-0.101-0.029-0.152-0.04l-55.618-11.413l14.252-69.449
		c0.439,0.235,0.915,0.415,1.423,0.52l53.465,10.971c0.285,0.06,0.57,0.086,0.854,0.098L152.206,174.769z M153.864,90.027
		l-0.287,1.398c-0.069,0.335-0.279,0.472-0.317,0.48l-23.888-4.899c-0.045-0.029-0.185-0.237-0.116-0.573l0.286-1.397
		c0.067-0.325,0.265-0.463,0.326-0.479l23.878,4.897C153.794,89.483,153.934,89.691,153.864,90.027z M118.798,180.211l0.933-4.544
		c0.153-0.747,0.884-1.229,1.631-1.076l4.543,0.932c0.748,0.153,1.229,0.885,1.076,1.632l-0.933,4.544
		c-0.153,0.746-0.883,1.229-1.631,1.074l-4.543-0.932C119.127,181.688,118.645,180.958,118.798,180.211z"/>
	<g fill="none" stroke="#fff" stroke-width="3" stroke-miterlimit="10">
		<circle  cx="131.292" cy="135.421" r="23.976"/>
		<ellipse  cx="131.292" cy="135.421" rx="11.856" ry="23.976"/>
		<line x1="107.053" y1="136.036" x2="155.708" y2="136.036"/>
	</g>
</g>
</svg>
