<svg xmlns="http://www.w3.org/2000/svg" viewBox="20 20 321 321">
<g fill="#fff">
<path d="m260.743,70.103c-49.377,0-98.755,0-148.132,0-7.991,0-16.426-.756-23.975,2.324-10.101,4.122-17.324,13.512-18.742,24.32-.46,3.504-.315,7.06-.315,10.588 0,26.499 0,52.998 0,79.496 0,17.464 13.074,31.397 30.677,31.856 7.887,.206 15.807,0 23.695,0 22.947,0 45.893,0 68.84,0-1.179-.488-2.357-.977-3.535-1.465 20.531,24.182 41.063,48.362 61.594,72.543 3.618,4.263 9.017-.484 8.356-4.864-3.644-24.181-7.287-48.362-10.931-72.543-1.607,2.109-3.214,4.22-4.821,6.329 5.737,0 11.476,0 17.213,0 10.761,0 20.23-5.629 26.121-14.466 6.291-9.438 4.632-22.364 4.632-33.157 0-15.791 0-31.582 0-47.373 0-9.932 1.291-21.087-1.039-30.856-3.225-13.527-16.193-22.381-29.638-22.732-6.452-.168-6.437,9.832 0,10 11.505,.3 20.378,9.173 20.678,20.678 .072,2.769 0,5.549 0,8.318 0,14.906 0,29.813 0,44.719 0,11.22 0,22.44 0,33.66 0,8.574-4.854,16.442-12.912,19.731-6.562,2.678-15.046,1.479-21.969,1.479-1.028,0-2.057,0-3.085,0-3.542,0-5.297,3.173-4.821,6.329 3.644,24.181 7.287,48.362 10.931,72.543 2.785-1.621 5.571-3.243 8.356-4.864-16.078-18.937-32.156-37.873-48.234-56.811-3.56-4.191-7.118-8.383-10.677-12.574-1.803-2.122-3.287-4.623-6.443-4.623-10.273,0-20.547,0-30.821,0-15.614,0-31.228,0-46.842,0-11.15,0-23.759,1.799-31.35-8.451-6.138-8.287-3.974-21.955-3.974-31.658 0-15.837 0-31.675 0-47.512 0-9.829-1.982-22.658 3.266-31.45 5.839-9.782 16.318-9.513 26.092-9.513 28.33,0 56.66,0 84.991,0 22.271,0 44.543,0 66.814,0 6.448-.001 6.448-10.001-0-10.001z"/>
<path d="m192.847,179.384c0,3.815-1.235,6.76-3.705,8.84-2.471,2.08-5.266,3.119-8.386,3.119-3.12,0-5.915-1.039-8.385-3.119-2.47-2.08-3.705-5.025-3.705-8.84 0-3.813 1.235-6.76 3.705-8.84 2.47-2.08 5.265-3.12 8.385-3.12 3.12,0 5.915,1.04 8.386,3.12 2.469,2.081 3.705,5.028 3.705,8.84zm-1.691-56.55c0,7.02-.26,13.564-.78,19.63-.52,6.067-1.215,12.22-2.08,18.46h-14.82c-.867-6.24-1.583-12.393-2.145-18.46-.565-6.065-.845-12.61-.845-19.63v-23.27h20.67v23.27z"/>
</g>
</svg>
