<svg xmlns="http://www.w3.org/2000/svg" viewBox="20 20 321 321">
<g fill="#fff">
<path d="m198.484,245.925c.188-.586 1.316-.445 .176-.445-.85,0-1.699,0-2.549,0-2.498,0-4.996,0-7.494,0-1.551,0-3.101,0-4.651,0-.838,0 .667,2.139 .667,.943 0-.583 0-1.167 0-1.751 0-7.809 0-15.618 0-23.428 0,1.479-1.653,1.327-.302,1.327 .85,0 1.699,0 2.549,0 2.498,0 4.996,0 7.494,0 1.627,0 3.254,0 4.881,0-1.013,0-.896-2.243-.896-.622 0,.68 0,1.36 0,2.041 0,7.622 0,15.243 0,22.865 0,4.514 7,4.514 7,0 0-4.441 0-8.883 0-13.324 0-3.889 1.089-9.495-.125-13.268-1.939-6.028-8.692-4.692-13.738-4.692-5.047,0-11.799-1.336-13.738,4.692-1.214,3.772-.125,9.379-.125,13.268 0,4.441 0,8.883 0,13.324 0,6.741 8.491,5.624 12.886,5.624 5.196,0 12.706,1.554 14.716-4.693 1.386-4.309-5.374-6.14-6.751-1.861z"/>
<path d="m227.125,245.158c-.064,.367 1.441,.321-.311,.321-1.267,0-2.533,0-3.8,0-2.756,0-5.512,0-8.268,0-.713,0-1.427,0-2.141,0-.28,0 .667,1.114 .667,.043 0-1.819 0-3.639 0-5.458 0-9.623 0-19.246 0-28.869 0,.734-1.64,.572 .186,.572 1.267,0 2.533,0 3.8,0 2.986,0 5.973,0 8.959,0 .56,0 1.119,0 1.679,0-1.095,0-.896-1.074-.896,.265 0,1.979 0,3.957 0,5.937 0,9.373 0,18.746 0,28.12 0,4.514 7,4.514 7,0 0-11.353 0-22.704 0-34.057 0-7.04-5.566-7.265-10.985-7.265-5.5,0-15.295-2.032-16.616,5.46-.839,4.756-.125,10.152-.125,14.956 0,6.555 0,13.109 0,19.664 0,6.644 4.577,7.632 10.089,7.632 5.598,0 16.159,2.213 17.513-5.46 .777-4.413-5.968-6.3-6.751-1.861z"/>
<path d="m255.799,245.131c.685,.242 .799,.344 .345,.307-.51,0-1.021,0-1.53,0-1.768,0-3.535,0-5.304,0-2.691,0-5.383,0-8.075,0 .854,0 .713,1.093 .713-.054 0-.802 0-1.604 0-2.406 0-2.893 0-5.785 0-8.678 0-11.57 0-23.142 0-34.712 0,.875-.98,.596 1.061,.596 1.768,0 3.535,0 5.304,0 1.858,0 3.717,0 5.575,0 .623,0 1.247,0 1.87,0 1.247,0-.083,.122-.083-.596 0,4.207 0,8.415 0,12.622 0,11.284 0,22.567 0,33.852 0,4.514 7,4.514 7,0 0-12.428 0-24.855 0-37.283 0-3.797 1.207-10.702-1.817-13.727-2.152-2.152-5.013-1.868-7.779-1.868-3.737,0-7.476,0-11.213,0-6.244,0-6.917,5.165-6.917,10.007 0,7.204 0,14.407 0,21.611 0,6.525 0,13.051 0,19.576 0,6.331 3.902,8.06 9.597,8.06 5.661,0 16.541,2.264 18.005-5.445 .836-4.412-5.91-6.294-6.752-1.862z"/>
<path d="m284.401,245.183c-.044,.231 1.256,.214 .066,.214-.583,0-1.166,0-1.749,0-1.769,0-3.537,0-5.306,0s-3.537,0-5.306,0c-.583,0-1.166,0-1.749,0-1.229,0 .191,.091 .191,.632 0-4.189 0-8.379 0-12.569 0-14.634 0-29.269 0-43.902 0-1.38 0-2.759 0-4.138 0,.335-1.441,.528 .289,.528 1.87,0 3.741,0 5.611,0 2.868,0 5.735,0 8.603,0-.928,0-.776-1.265-.776,.024 0,.854 0,1.707 0,2.561 0,14.415 0,28.831 0,43.246 0,4.778 0,9.557 0,14.335 0,4.514 7,4.514 7,0 0-11.468 0-22.936 0-34.403 0-7.004 0-14.009 0-21.013 0-3.735 .831-10.341-4.186-11.406-5.501-1.168-11.713-.344-17.317-.344-5.965,0-6.224,5.725-6.224,10.082 0,14.532 0,29.065 0,43.598 0,5.674-1.961,15.306 3.35,19.073 2.923,2.073 10.102,.696 13.348,.696 4.557,0 9.804,.381 10.904-5.353 .848-4.41-5.898-6.291-6.749-1.861z"/>
<path d="m199.264,290.906l-1.644-7.081h-9.347l-1.586,7.081h-7.251c1.662-6.041 3.342-11.545 5.042-16.514 1.699-4.967 3.342-9.68 4.928-14.136h7.591c1.661,4.489 3.313,9.251 4.957,14.284 1.643,5.035 3.237,10.49 4.786,16.365h-7.476zm-6.233-24.707c-.377,1.155-.727,2.253-1.047,3.293-.322,1.04-.623,2.063-.906,3.069-.284,1.008-.549,2.022-.794,3.045-.246,1.023-.481,2.08-.708,3.17h6.854c-.227-1.09-.453-2.146-.68-3.17-.227-1.022-.481-2.037-.765-3.045-.283-1.006-.586-2.029-.906-3.069-.321-1.04-.671-2.137-1.048-3.293z"/>
<path d="m221.299,291.549c-2.266,0-4.163-.271-5.693-.816-1.529-.545-2.746-1.328-3.653-2.352-.906-1.023-1.549-2.261-1.926-3.714-.378-1.452-.566-3.069-.566-4.853v-19.558h7.024v19.161c0,1.288 .075,2.369 .227,3.244 .15,.875 .405,1.576 .765,2.104 .358,.529 .858,.908 1.501,1.139 .643,.232 1.453,.348 2.436,.348s1.794-.115 2.437-.348c.642-.23 1.151-.618 1.529-1.163 .378-.544 .642-1.254 .794-2.129 .15-.874 .227-1.956 .227-3.243v-19.112h6.967v19.558c0,1.783-.189,3.4-.566,4.853-.378,1.453-1.039,2.69-1.982,3.714-.944,1.023-2.191,1.807-3.738,2.352-1.554,.543-3.479,.815-5.783,.815z"/>
<path d="m262.482,260.257v5.05h-9.233v25.6h-7.024v-25.6h-9.234v-5.05h25.491z"/>
<path d="m265.428,275.557c0-5.281 1.114-9.268 3.343-11.957 2.228-2.691 5.325-4.036 9.29-4.036 4.116,0 7.252,1.345 9.404,4.036 2.152,2.689 3.229,6.676 3.229,11.957s-1.096,9.268-3.285,11.957c-2.191,2.691-5.288,4.035-9.291,4.035-4.116,0-7.26-1.344-9.432-4.035-2.172-2.69-3.258-6.676-3.258-11.957zm7.082,0c0,1.485 .065,2.881 .198,4.184 .132,1.305 .396,2.436 .793,3.393s.953,1.716 1.671,2.277c.717,.561 1.68,.842 2.889,.842 1.171,0 2.125-.281 2.861-.842 .736-.562 1.303-1.328 1.699-2.303 .396-.973 .66-2.104 .793-3.392 .133-1.288 .199-2.674 .199-4.159s-.066-2.88-.199-4.184c-.133-1.305-.396-2.435-.793-3.393-.396-.957-.954-1.715-1.671-2.277-.718-.561-1.681-.842-2.89-.842s-2.172,.281-2.889,.842c-.718,.563-1.274,1.329-1.671,2.303s-.661,2.104-.793,3.392c-.132,1.287-.197,2.673-.197,4.159z"/>
<path d="m130.509,75.071c0,15.074 0,30.148 0,45.222 0,6.449 10,6.449 10,0 0-15.074 0-30.148 0-45.222 0-6.449-10-6.449-10,0z"/>
<path d="m119.826,83.94c4.395,2.537 8.789,5.075 13.184,7.612 5.595,3.23 10.628-5.413 5.047-8.635-4.395-2.537-8.789-5.075-13.184-7.612-5.595-3.23-10.628,5.413-5.047,8.635z"/>
<path d="m145.995,75.306c-4.395,2.537-8.789,5.075-13.184,7.612-5.582,3.223-.548,11.865 5.047,8.635 4.395-2.537 8.789-5.075 13.184-7.612 5.581-3.223 .547-11.866-5.047-8.635z"/>
<path d="m93.666,101.478c13.054,7.537 26.108,15.074 39.163,22.611 5.595,3.23 10.628-5.412 5.047-8.635-13.054-7.537-26.108-15.074-39.163-22.611-5.595-3.23-10.629,5.412-5.047,8.635z"/>
<path d="m96.076,115.151c4.395-2.538 8.789-5.075 13.183-7.612 5.581-3.223 .548-11.865-5.047-8.635-4.395,2.538-8.789,5.075-13.183,7.612-5.581,3.223-.548,11.865 5.047,8.635z"/>
<path d="m101.636,88.17c0,5.075 0,10.149 0,15.224 0,6.449 10,6.449 10,0 0-5.075 0-10.149 0-15.224 0-6.448-10-6.448-10,0z"/>
<path d="m98.812,146.669c13.055-7.537 26.109-15.074 39.164-22.611 5.582-3.222 .548-11.865-5.047-8.635-13.055,7.537-26.109,15.074-39.164,22.611-5.581,3.223-.548,11.866 5.047,8.635z"/>
<path d="m111.811,151.471c0-5.074 0-10.148 0-15.223 0-6.449-10-6.449-10,0 0,5.074 0,10.148 0,15.223 0,6.449 10,6.449 10,0z"/>
<path d="m91.203,133.126c4.395,2.538 8.789,5.075 13.184,7.612 5.595,3.23 10.628-5.412 5.047-8.635-4.395-2.538-8.789-5.075-13.184-7.612-5.595-3.23-10.629,5.412-5.047,8.635z"/>
<path d="m140.459,165.126c0-15.074 0-30.148 0-45.222 0-6.449-10-6.449-10,0 0,15.074 0,30.148 0,45.222 0,6.449 10,6.449 10,0z"/>
<path d="m151.142,156.256c-4.395-2.537-8.789-5.074-13.184-7.611-5.595-3.23-10.628,5.413-5.047,8.635 4.395,2.537 8.789,5.074 13.184,7.611 5.595,3.23 10.628-5.413 5.047-8.635z"/>
<path d="m124.973,164.891c4.395-2.537 8.789-5.074 13.183-7.611 5.582-3.222 .548-11.865-5.047-8.635-4.395,2.537-8.789,5.074-13.183,7.611-5.581,3.222-.548,11.865 5.047,8.635z"/>
<path d="m177.302,138.374c-13.055-7.537-26.109-15.074-39.164-22.611-5.595-3.23-10.628,5.413-5.047,8.635 13.055,7.537 26.109,15.074 39.164,22.611 5.595,3.23 10.629-5.413 5.047-8.635z"/>
<path d="m174.893,124.702c-4.395,2.537-8.79,5.075-13.184,7.612-5.582,3.222-.548,11.865 5.047,8.635 4.395-2.537 8.79-5.075 13.184-7.612 5.581-3.223 .547-11.866-5.047-8.635z"/>
<path d="m169.332,151.682c0-5.075 0-10.149 0-15.224 0-6.449-10-6.449-10,0 0,5.075 0,10.149 0,15.224 0,6.449 10,6.449 10,0z"/>
<path d="m172.156,93.183c-13.055,7.537-26.109,15.075-39.164,22.612-5.582,3.223-.548,11.865 5.047,8.635 13.055-7.537 26.109-15.075 39.164-22.612 5.581-3.223 .548-11.865-5.047-8.635z"/>
<path d="m159.157,88.38c0,5.075 0,10.149 0,15.224 0,6.449 10,6.449 10,0 0-5.075 0-10.149 0-15.224 0-6.449-10-6.449-10,0z"/>
<path d="m179.765,106.726c-4.395-2.537-8.789-5.075-13.184-7.612-5.595-3.23-10.628,5.412-5.047,8.635 4.395,2.537 8.789,5.075 13.184,7.612 5.595,3.23 10.628-5.413 5.047-8.635z"/>
<path d="m71.478,186.5c5.103-1.521 10.277-2.848 15.505-3.858 7.1-1.372 13.251,.714 19.897,3.136 9.258,3.375 18.697,8.882 28.688,9.268 5.96,.23 12.572-2.904 18.003-5.008 3.237-1.254 6.416-2.644 9.662-3.878 6.432-2.446 12.845-4.821 19.784-3.72 5.621,.893 11.192,2.437 16.643,4.061 1.858,.554 2.646-2.342 .797-2.893-5.103-1.521-10.276-2.849-15.505-3.859-6.542-1.264-11.919-.128-18.195,1.966-10.039,3.35-20.494,9.917-31.188,10.33-6.14,.237-13.21-3.3-18.796-5.531-3.748-1.497-7.458-3.058-11.265-4.41-6.148-2.185-11.703-3.586-18.185-2.557-5.621,.893-11.192,2.437-16.642,4.061-1.85,.55-1.062,3.446 .797,2.892z"/>
<path d="m77.818,193.686c5.242-1.89 11.354-3.85 16.952-3.007 5.688,.856 11.29,3.203 16.602,5.324 7.693,3.073 15.8,7.21 24.196,7.534 8.107,.313 16.809-4.544 24.197-7.534 5.369-2.173 10.897-4.242 16.602-5.324 5.468-1.037 11.827,1.159 16.953,3.007 1.824,.658 2.603-2.242 .797-2.893-4.979-1.795-10.248-3.147-15.554-3.32-5.685-.185-11.898,2.679-17.096,4.655-8.287,3.153-16.927,8.063-25.898,8.409-5.631,.218-12.063-2.908-17.206-4.9-2.914-1.128-5.777-2.38-8.691-3.509-5.231-2.025-10.691-4.054-16.306-4.625-5.32-.541-11.404,1.509-16.345,3.29-1.806,.65-1.027,3.551 .797,2.893z"/>
<path d="m77.916,176.756c5.242-1.89 11.354-3.85 16.953-3.007 5.688,.856 11.289,3.203 16.601,5.324 7.694,3.073 15.801,7.21 24.196,7.535 8.108,.313 16.809-4.544 24.197-7.535 5.369-2.173 10.897-4.243 16.602-5.324 5.468-1.037 11.826,1.159 16.952,3.007 1.824,.658 2.603-2.242 .797-2.893-4.979-1.795-10.248-3.148-15.553-3.32-5.685-.185-11.899,2.679-17.096,4.656-8.287,3.152-16.926,8.063-25.897,8.409-5.632,.218-12.064-2.909-17.207-4.9-2.914-1.128-5.776-2.38-8.69-3.509-5.231-2.026-10.691-4.055-16.305-4.625-5.32-.541-11.405,1.508-16.346,3.29-1.807,.651-1.029,3.55 .796,2.892z"/>
</g>
</svg>
