<svg xmlns="http://www.w3.org/2000/svg" viewBox="20 20 321 321">
<g fill="#fff">
<path d="m142.113,112.044c1.535,11.694 16.755,9.071 25.261,9.071 15.403,0 30.807,0 46.21,0 11.97,0 23.94,0 35.91,0 5.5,0 10.365-1.476 12.604-7.018 .999-2.472 .272-6.358 .272-8.943 0-4.886-3.979-7.953-8.36-8.997-2.257-.538-4.961-.238-7.253-.238-4.752,0-9.504,0-14.256,0-13.867,0-27.734,0-41.603,0-11.208,0-22.417,0-33.626,0-2.789,0-5.418-.091-8.161,.563-7.629,1.819-6.998,9.517-6.998,15.562 0,4.514 7,4.514 7,0 0-2.587-1.201-7.537 1.86-8.813 1.067-.445 2.555-.313 3.71-.313 4.475,0 8.951,0 13.426,0 15.48,0 30.962,0 46.442,0 11.75,0 23.499,0 35.248,0 .606,0 1.212,0 1.818,0 5.179,0 3.753,5.728 3.753,9.125 0,2.883-8.53,2.071-10.086,2.071-18.451,0-36.902,0-55.354,0-8.89,0-17.779,0-26.668,0-1.833,0-13.708,1.302-14.15-2.071-.578-4.408-7.586-4.464-6.999,.001z"/>
<path d="m171.841,118.083c0,6.417 0,12.833 0,19.25 0,4.514 7,4.514 7,0 0-6.417 0-12.833 0-19.25 0-4.514-7-4.514-7,0z"/>
<path d="m157.007,118.833c0,6.444 0,12.889 0,19.333 0,4.514 7,4.514 7,0 0-6.444 0-12.889 0-19.333 0-4.514-7-4.514-7,0z"/>
<path d="m281.131,186.209c0,10.871 0,21.742 0,32.613 0,4.891 0,9.78 0,14.67 0,3.258-8.427,1.805-10.479,1.805-6.519,0-13.037,0-19.556,0-3.735,0-2.524-4.631-2.524-7.445 0-11.312 .001-22.623 .001-33.935 0-2.726-2.274-5-5-5-13.182,0-26.362,0-39.544,0-2.726,0-5,2.274-5,5 0,1.062 .585,5.808-.723,5.808-2.069,0-4.14,0-6.21,0-7.925,0-15.849,0-23.773,0s-15.849,0-23.773,0c-1.996,0-3.991,0-5.987,0-1.752,0-.947-4.46-.947-5.808 0-2.726-2.274-5-5-5-11.908,0-23.815,0-35.723,0-5.041,0-10.082,0-15.122,0-4.286,0-2.479-12.064-2.479-14.592 0-2.423-1.817-15.579 2.354-15.579 4.783,0 9.566,0 14.349,0 12.226,0 24.452,0 36.678,0 0-3.333 0-6.667 0-10-.019,0-.038,0-.057,0 1.667,1.667 3.333,3.333 5,5 0-.629-.15-8.913 .224-8.913 1.624,0 3.249,0 4.873,0 8.537,0 17.074,0 25.611,0 8.342,0 16.684,0 25.025,0 1.798,0 3.596,0 5.395,0 .485,0 .286,8.208 .286,8.913 0,2.709 2.274,5.021 5,5 18.969-.15 37.944,0 56.913,0 4.456,0 8.911,0 13.367,0 2.111,0 6.545-.831 6.821,2.253 .754,8.416 0,17.21 0,25.666 0,6.448 10,6.448 10,0 0-4.771 0-9.541 0-14.311 0-4.9 .682-10.429-.632-15.215-2.896-10.547-16.419-8.393-24.636-8.393-20.609,0-41.226-.163-61.834,0 1.667,1.667 3.333,3.333 5,5 0-4.965 .539-10.013-2.207-14.419-2.256-3.621-6.088-4.494-10-4.494-9.5,0-19,0-28.499,0-9.366,0-18.731,0-28.097,0-3.716,0-6.919,.53-9.622,3.482-3.778,4.128-2.988,10.284-2.988,15.431 0,2.708 2.274,5.023 5,5 .019,0 .038,0 .057,0 6.446-.055 6.451-10 0-10-12.226,0-24.452,0-36.678,0-4.783,0-9.566,0-14.349,0-8.766,0-12.354,7.456-12.354,15.05 0,7.078 0,14.155 0,21.233 0,7.508 4.602,13.889 12.651,13.889 13.242,0 26.483,0 39.725,0 3.649,0 7.299,0 10.948,0-1.667-1.667-3.333-3.333-5-5 0,5.893 .501,10.88 5.654,14.584 2.141,1.539 5.34,1.224 7.858,1.224 9.065,0 18.13,0 27.195,0s18.13,0 27.194,0c2.264,0 4.523,.16 6.664-.72 6.331-2.604 6.848-9.146 6.848-15.088-1.667,1.667-3.333,3.333-5,5 13.182,0 26.362,0 39.544,0-1.667-1.667-3.333-3.333-5-5 0,12.189-.001,24.379-.001,36.567 0,7.563 2.575,13.914 11.11,14.813 5.581,.587 11.535,0 17.143,0 5.054,0 13.422,1.465 18.098-1.184 6.195-3.511 6.208-9.383 6.208-15.545 0-13.698 0-27.396 0-41.094 0-.422 0-.844 0-1.266 0-6.449-10-6.449-10,0z"/>
</g>
</svg>
