<svg xmlns="http://www.w3.org/2000/svg" viewBox="20 20 321 321">
<path fill="none" stroke="#fff" stroke-width="10" d="m243.067,283.394c0,2.084-1.689,3.773-3.772,3.773h-150.689c-2.084,0-3.773-1.689-3.773-3.773v-173.816c0-2.083 1.689-3.773 3.773-3.773h150.688c2.083,0 3.772,1.689 3.772,3.773v173.816z"/>
<g fill="#fff">
<path d="m152.458,218.112c-.216,10.692-5.292,22.036-16.085,25.64-10.628,3.549-21.84-4.04-26.421-13.276-2.502-5.044-2.751-11.782-.513-16.928 2.026-4.659 5.948-8.396 8.635-12.67 2.592-4.122 4.015-9.114 5.478-13.714 .834-2.625 1.538-8.653 3.774-10.46-1.135,.3-2.271,.6-3.406,.9-1.206-.173-.589-.173 .142,.896 .663,.969 1.205,2.019 1.751,3.055 1.741,3.296 2.517,6.884 3.107,10.527 .438,2.702 2.354,7.255 5.886,6.812 3.208-.402 5-2.487 6.782-5.022 1.002-1.427 1.828-2.983 2.653-4.517 .29-.54 .574-1.084 .862-1.625 1.031-1.942 .645-.074-1.171,.186-1.135-.3-2.271-.601-3.406-.9 8.224,8.38 11.751,19.487 11.932,31.096 .07,4.51 7.07,4.517 7,0-.193-12.37-3.789-24.818-12.16-34.15-6.272-6.992-8.644,1.666-11.754,6.376-.348,.527-.726,.966-1.153,1.426-.496,.533 2.368,1.948 1.771,.414-.964-2.479-1.032-5.357-1.761-7.925-1.219-4.292-3.449-9.083-6.642-12.282-6.562-6.572-10.396,11.566-11.36,14.6-1.621,5.098-3.5,9.775-6.635,14.137-3.23,4.495-6.51,8.433-8.048,13.867-3.001,10.604 1.885,22.339 9.827,29.384 7.448,6.606 18.319,9.339 27.829,6.164 9.906-3.308 16.306-12.761 18.919-22.444 .835-3.095 1.104-6.376 1.168-9.566 .091-4.517-6.91-4.509-7.001-.001z"/>
<path d="m140.483,229.71c-.218,6.209-3.079,12.344-9.492,14.021-6.259,1.638-12.127-4.226-13.627-9.675-1.691-6.143 3.384-9.957 6.013-14.745 1.151-2.096 1.877-4.481 2.62-6.741 .51-1.554 .89-5.136 2.098-6.291-1.135,.301-2.271,.601-3.406,.9-2.05-.781-.165,.862 .47,2.1 .937,1.823 1.217,3.907 1.574,5.896 .374,2.078 2.209,4.82 4.65,4.614 2.31-.195 3.825-1.447 5.106-3.313 .574-.835 1.086-1.694 1.578-2.58 .814-1.469 1.945-2.095 .034-.983-1.414-.183-2.828-.365-4.242-.548 4.599,4.74 6.458,10.824 6.624,17.345 .115,4.506 7.115,4.517 7,0-.213-8.376-2.78-16.22-8.673-22.294-1.095-1.129-2.896-1.329-4.242-.548-1.12,.651-1.637,1.788-2.214,2.88-.346,.652-.708,1.295-1.081,1.933-.225,.374-.461,.741-.708,1.102-1.257,1.114-.285,1.291 2.917,.531-1.252-4.259-2.051-11.024-6.933-12.884-1.155-.439-2.564,.096-3.406,.9-2.078,1.987-2.686,5.507-3.504,8.136-1.346,4.325-3.027,7.777-5.783,11.372-5.082,6.629-4.915,15.967 .383,22.485 5,6.151 13.335,9.243 20.956,6.42 8.177-3.029 12.002-11.883 12.288-20.033 .158-4.517-6.842-4.501-7-0z"/>
</g>
<path fill="none" stroke="#fff" stroke-width="10" d="m234.227,101.805c0,2.209-1.791,4-4,4h-95.894c-2.209,0-4-1.791-4-4v-22.638c0-2.209 1.791-4 4-4h95.894c2.209,0 4,1.791 4,4v22.638z"/>
<g fill="#fff">
<path d="m143.515,95.486c6.788,0 13.575,0 20.362,0 6.449,0 6.449-10 0-10-6.788,0-13.575,0-20.362,0-6.449,0-6.449,10 0,10z"/>
<path d="m177.599,95.486c1.312,0 2.623,0 3.935,0 2.726,0 5-2.274 5-5s-2.274-5-5-5c-1.312,0-2.623,0-3.935,0-2.726,0-5,2.274-5,5s2.274,5 5,5z"/>
<path d="m203.494,127.621c0,.833-.676,1.508-1.508,1.508h-28.95c-.833,0-1.508-.675-1.508-1.508v-8.215c0-.833 .675-1.508 1.508-1.508h28.95c.832,0 1.508,.675 1.508,1.508v8.215z"/>
<path d="m225.388,171.349c-.477,5.908-8.924,4.332-12.985,4.332-7.706,0-15.412,0-23.119,0-6.9,0-13.801,0-20.701,0-4.707,0-8.431-.488-8.431-6.279 0-7.309 0-14.619 0-21.928 0-4.78-.709-10.381 5.741-10.381 13.888,0 27.776,0 41.665,0 4.029,0 8.06,0 12.089,0 4.055,0 5.741,2.427 5.741,6.279-0,9.325-0,18.651-0,27.977 0,4.514 7,4.514 7,0 0-5.815 0-11.63 0-17.446 0-5.776 .943-12.413-1.353-17.845-2.427-5.743-8.845-5.966-14.078-5.966-6.9,0-13.801,0-20.701,0-7.707,0-15.413,0-23.12,0-3.995,0-9.115-.72-12.895,.877-7.237,3.059-7.09,9.906-7.09,16.504 0,7.31 0,14.619 0,21.928 0,7.883 4.627,13.28 12.741,13.28 7.797,0 15.594,0 23.391,0 9.036,0 18.072,0 27.109,0 1.554,0 3.108,0 4.663,0 6.516,0 10.838-5.208 11.332-11.333 .364-4.501-6.639-4.466-6.999,.001z"/>
<path d="m245.887,167.235c0,3.135-2.542,5.678-5.678,5.678h-6.176c-3.137,0-5.679-2.543-5.679-5.678v-21.696c0-3.136 2.542-5.678 5.679-5.678h6.176c3.136,0 5.678,2.542 5.678,5.678v21.696z"/>
<path d="m233.814,183.721c0,1.643-1.021,2.974-2.283,2.974h-4.1c-1.261,0-2.283-1.331-2.283-2.974v-53.917c0-1.642 1.022-2.973 2.283-2.973h4.1c1.262,0 2.283,1.332 2.283,2.973v53.917z"/>
<path d="m229.359,145.442c-19.881,0-39.761,0-59.641,0-1.935,0-1.935,3 0,3 19.88,0 39.76,0 59.641,0 1.935,0 1.935-3 0-3z"/>
<path d="m229.359,151.803c-19.881,0-39.761,0-59.641,0-1.935,0-1.935,3 0,3 19.88,0 39.76,0 59.641,0 1.935,0 1.935-3 0-3z"/>
<path d="m229.359,158.164c-19.881,0-39.761,0-59.641,0-1.935,0-1.935,3 0,3 19.88,0 39.76,0 59.641,0 1.935,0 1.935-3 0-3z"/>
<path d="m229.359,164.526c-19.881,0-39.761,0-59.641,0-1.935,0-1.935,3 0,3 19.88,0 39.76,0 59.641,0 1.935,0 1.935-3 0-3z"/>
<path d="m227.852,139.08c-18.567,0-37.136,0-55.703,0-1.935,0-1.935,3 0,3 18.567,0 37.136,0 55.703,0 1.934,0 1.934-3 0-3z"/>
<path d="m227.852,170.888c-18.567,0-37.136,0-55.703,0-1.935,0-1.935,3 0,3 18.567,0 37.136,0 55.703,0 1.934,0 1.934-3 0-3z"/>
<path d="m175.457,228.63c16.842-2.864 33.683-5.728 50.524-8.592 6.348-1.079 3.647-10.715-2.658-9.643-16.842,2.864-33.683,5.728-50.524,8.592-6.348,1.079-3.648,10.715 2.658,9.643z"/>
<path d="m225.981,227.987c-16.842-2.864-33.683-5.728-50.524-8.592-6.306-1.072-9.006,8.563-2.658,9.643 16.842,2.864 33.683,5.728 50.524,8.592 6.306,1.072 9.006-8.564 2.658-9.643z"/>
<path d="m225.981,239.987c-16.842-2.864-33.683-5.728-50.524-8.592-6.306-1.072-9.006,8.563-2.658,9.643 16.842,2.864 33.683,5.728 50.524,8.592 6.306,1.072 9.006-8.564 2.658-9.643z"/>
<path d="m225.981,251.987c-16.842-2.864-33.683-5.728-50.524-8.592-6.306-1.072-9.006,8.563-2.658,9.643 16.842,2.864 33.683,5.728 50.524,8.592 6.306,1.072 9.006-8.564 2.658-9.643z"/>
<path d="m227.266,220.264c18,0 36,0 54,0 6.448,0 6.448-10 0-10-18,0-36,0-54,0-6.449,0-6.449,10 0,10z"/>
<path d="m227.266,262.014c18,0 36,0 54,0 6.448,0 6.448-10 0-10-18,0-36,0-54,0-6.449,0-6.449,10 0,10z"/>
<path d="m280.727,168.757-17.696,17.111 6.022-23.868z"/>
<path d="m278.912,166.942c-5.898,5.704-11.797,11.407-17.695,17.111 1.43,.832 2.859,1.664 4.289,2.497 2.007-7.957 4.015-15.913 6.021-23.869-1.257,.511-2.514,1.022-3.77,1.534 3.891,2.252 7.782,4.504 11.674,6.757 2.87,1.661 5.453-2.775 2.59-4.432-3.891-2.252-7.782-4.504-11.674-6.757-1.411-.817-3.361-.085-3.77,1.534-2.007,7.956-4.015,15.912-6.021,23.868-.63,2.499 2.427,4.298 4.289,2.497 5.898-5.704 11.797-11.407 17.695-17.111 2.384-2.304-1.249-5.929-3.628-3.629z"/>
<path d="m280.452,119.245c-4.886,8.43-9.771,16.859-14.658,25.288-2.268,3.913 3.782,7.436 6.045,3.533 4.886-8.43 9.771-16.859 14.658-25.288 2.268-3.913-3.782-7.436-6.045-3.533z"/>
<path d="m267.886,149.675c5.15,.969 10.3,1.937 15.449,2.906 4.411,.83 6.294-5.916 1.861-6.75-5.15-.969-10.3-1.937-15.449-2.906-4.411-.83-6.294,5.916-1.861,6.75z"/>
<path d="m281.243,147.439c-4.886,8.429-9.771,16.858-14.658,25.288-2.268,3.913 3.782,7.436 6.045,3.533 4.886-8.429 9.771-16.858 14.658-25.288 2.268-3.913-3.782-7.436-6.045-3.533z"/>
</g>
</svg>
