<svg xmlns="http://www.w3.org/2000/svg" viewBox="20 20 321 321">
<path fill="none" stroke="#fff" stroke-width="10" d="m177.084,281.383c0,2.918-12.255,5.284-27.372,5.284h-46.758c-15.116,0-27.372-2.366-27.372-5.284v-201.485c0-2.918 12.256-5.285 27.372-5.285h46.758c15.116,0 27.372,2.366 27.372,5.285v201.485z"/>
<g fill="#fff">
<path d="m97.987,217.075c19.596-3.332 39.191-6.664 58.786-9.996 6.348-1.079 3.647-10.715-2.658-9.643-19.596,3.332-39.191,6.664-58.786,9.996-6.348,1.08-3.647,10.715 2.658,9.643z"/>
<path d="m156.773,217.905c-19.595-3.332-39.19-6.665-58.786-9.997-6.306-1.072-9.006,8.563-2.658,9.643 19.595,3.332 39.19,6.665 58.786,9.997 6.306,1.072 9.006-8.564 2.658-9.643z"/>
<path d="m156.773,231.867c-19.595-3.332-39.19-6.665-58.786-9.997-6.306-1.072-9.006,8.563-2.658,9.643 19.595,3.332 39.19,6.665 58.786,9.997 6.306,1.072 9.006-8.564 2.658-9.643z"/>
<path d="m156.773,245.829c-19.595-3.332-39.19-6.664-58.786-9.996-6.306-1.072-9.006,8.563-2.658,9.643 19.595,3.332 39.19,6.664 58.786,9.996 6.306,1.072 9.006-8.564 2.658-9.643z"/>
<path d="m156.773,259.792c-19.595-3.332-39.19-6.664-58.786-9.996-6.306-1.072-9.006,8.563-2.658,9.643 19.595,3.332 39.19,6.664 58.786,9.996 6.306,1.072 9.006-8.564 2.658-9.643z"/>
<path d="m158.484,207.311c13.732,0 27.464,0 41.195,0 6.448,0 6.448-10 0-10-13.731,0-27.463,0-41.195,0-6.448,0-6.448,10 0,10z"/>
<path d="m158.484,269.851c13.732,0 27.464,0 41.195,0 6.448,0 6.448-10 0-10-13.731,0-27.463,0-41.195,0-6.448,0-6.448,10 0,10z"/>
</g>
<path fill="none" stroke="#fff" stroke-width="10" d="m268.648,215.92c0,1.859-1.634,3.368-3.648,3.368h-13.379c-2.014,0-3.648-1.509-3.648-3.368v-93.397c0-1.861 1.635-3.369 3.648-3.369h13.379c2.015,0 3.648,1.508 3.648,3.369v93.397z"/>
<g fill="#fff">
<path stroke="#fff" stroke-width="10" d="m274.121,244.018c0,2.016-1.28,3.649-2.859,3.649h-25.902c-1.579,0-2.86-1.634-2.86-3.649v-21.08c0-2.015 1.281-3.648 2.86-3.648h25.901c1.579,0 2.859,1.634 2.859,3.648v21.08z"/>
<path d="m276.555,131.451c3.648,0 7.297,0 10.945,0 6.448,0 6.448-10 0-10-3.648,0-7.297,0-10.945,0-6.449,0-6.449,10 0,10z"/>
<path d="m276.555,155.775c3.648,0 7.297,0 10.945,0 6.448,0 6.448-10 0-10-3.648,0-7.297,0-10.945,0-6.449,0-6.449,10 0,10z"/>
<path d="m276.555,180.708c3.648,0 7.297,0 10.945,0 6.448,0 6.448-10 0-10-3.648,0-7.297,0-10.945,0-6.449,0-6.449,10 0,10z"/>
<path d="m276.555,206.855c3.648,0 7.297,0 10.945,0 6.448,0 6.448-10 0-10-3.648,0-7.297,0-10.945,0-6.449,0-6.449,10 0,10z"/>
<path stroke="#fff" stroke-width="10" d="m247.973,185.894h20.676v42.922h-20.676z"/>
<path d="m97.987,120.557c19.596-3.332 39.191-6.664 58.786-9.997 6.348-1.079 3.647-10.715-2.658-9.643-19.596,3.332-39.191,6.664-58.786,9.997-6.348,1.079-3.647,10.715 2.658,9.643z"/>
<path d="m156.773,121.386c-19.595-3.333-39.19-6.665-58.786-9.998-6.306-1.072-9.006,8.563-2.658,9.643 19.595,3.333 39.19,6.665 58.786,9.998 6.306,1.072 9.006-8.564 2.658-9.643z"/>
<path d="m156.773,135.348c-19.595-3.332-39.19-6.664-58.786-9.996-6.306-1.072-9.006,8.563-2.658,9.643 19.595,3.332 39.19,6.664 58.786,9.996 6.306,1.072 9.006-8.564 2.658-9.643z"/>
<path d="m156.773,149.31c-19.595-3.333-39.19-6.665-58.786-9.997-6.306-1.072-9.006,8.563-2.658,9.643 19.595,3.333 39.19,6.665 58.786,9.997 6.306,1.072 9.006-8.564 2.658-9.643z"/>
<path d="m156.773,163.272c-19.595-3.332-39.19-6.664-58.786-9.996-6.306-1.072-9.006,8.563-2.658,9.643 19.595,3.332 39.19,6.664 58.786,9.996 6.306,1.072 9.006-8.564 2.658-9.643z"/>
<path d="m158.484,110.792c13.732,0 27.464,0 41.195,0 6.448,0 6.448-10 0-10-13.731,0-27.463,0-41.195,0-6.448,0-6.448,10 0,10z"/>
<path d="m158.484,173.332c13.732,0 27.464,0 41.195,0 6.448,0 6.448-10 0-10-13.731,0-27.463,0-41.195,0-6.448,0-6.448,10 0,10z"/>
</g>
</svg>
