<svg xmlns="http://www.w3.org/2000/svg" viewBox="20 20 321 321">
  <g fill="none" stroke="#fff">
    <path stroke-width="16.698" d="M263.06 155.797v119.537c-82.007-.467-80.856-.278-157.372 0V155.797"/>
    <path stroke-width="4.667" d="M201.304 234.521c-.074 7.942 0 24.053 0 24.053h-10.055s.317-44.02 0-71.156c-5.62-.032.231 32.76-5.248 32.749-.05-27.968-.273-36.268-.142-48.784 4.396-10.39 21.074-10.022 21.074-10.022s16.677-.368 21.073 10.022c.13 12.516-.092 20.816-.142 48.784-5.48.012.371-32.781-5.248-32.749-.317 27.137 0 71.156 0 71.156h-10.054s.074-16.11 0-24.053c.398-4.957-5.63-5.542-5.63-5.542s-6.027.245-5.63 5.542z"/>
    <path stroke-width="4.073" d="M195.84 152.04c-3.154-5.654-1.142-12.795 4.5-15.97 5.642-3.176 12.79-1.19 15.987 4.44 3.196 5.631 1.237 12.786-4.48 16.004-5.718 3.218-12.851 1.18-16.006-4.474z"/>
    <path stroke-width="16.7" d="M83.688 174.53L186.22 85.083l102.532 89.446"/>
  </g>
</svg>
