<svg xmlns="http://www.w3.org/2000/svg" viewBox="20 20 321 321">
<g fill="#fff">
<path d="m239.986,137.957c0-2.219-1.641-4.017-3.663-4.017h-17.097c-2.023,0-3.663,1.798-3.663,4.017v8.704c0,2.218 1.64,4.017 3.663,4.017h17.097c2.022,0 3.663-1.799 3.663-4.017v-8.704z"/>
<path d="m242.832,131.572c0-2.42-1.202-4.383-2.684-4.383h-24.902c-1.482,0-2.685,1.963-2.685,4.383v1.218c0,2.421 1.202,4.384 2.685,4.384h24.902c1.481,0 2.684-1.963 2.684-4.384v-1.218z"/>
<path d="m148.69,134.985c0,1.313-1.064,2.377-2.377,2.377h-45.646c-1.313,0-2.377-1.064-2.377-2.377v-12.954c0-1.313 1.064-2.377 2.377-2.377h45.646c1.313,0 2.377,1.064 2.377,2.377v12.954z"/>
<path d="m183.73,203.932c-.352,6.529-5.755,7.35-10.861,7.35-5.477,0-10.954,0-16.43,0-15.866,0-31.731,0-47.597,0-5.755,0-11.51,0-17.265,0-4.431,0-9.29,.333-11.293-4.775-1.565-3.99-.451-10.094-.451-14.221 0-7.963 0-15.927 0-23.89 0-4.507-.76-9.814 .451-14.22 1.428-5.193 7.142-4.775 11.293-4.775 13.734,0 27.468,0 41.202,0 13.363,0 26.727,0 40.09,0 5.105,0 10.509,.82 10.861,7.349 .239,4.449 0,8.977 0,13.43 0,11.25 0,22.501 0,33.752 0,6.448 10,6.448 10,0 0-12.414 0-24.828 0-37.241 0-4.967 .522-10.334-.809-15.173-2.125-7.73-9.854-12.117-17.457-12.117-26.504,0-53.008,0-79.512,0-2.919,0-5.838,0-8.757,0-9.623,0-17.363,8.068-17.363,17.594 0,13.125 0,26.251 0,39.376 0,5.728-.372,11.029 2.369,16.317 3.215,6.204 10.151,8.593 16.685,8.593 12.307,0 24.613,0 36.92,0 13.935,0 27.869,0 41.803,0 2.88,0 5.76,0 8.639,0 9.859,0 16.969-7.838 17.481-17.35 .349-6.447-9.653-6.412-9.999,.001z"/>
<path d="m282.354,201.721c0,6.181-5.011,11.192-11.191,11.192h-72.173c-6.18,0-11.191-5.012-11.191-11.192v-42.76c0-6.181 5.012-11.191 11.191-11.191h72.172c6.181,0 11.191,5.011 11.191,11.191v42.76z"/>
<path d="m196.5,223.439c0,2.589-1.613,4.688-3.602,4.688h-6.463c-1.989,0-3.602-2.099-3.602-4.688v-85.012c0-2.589 1.612-4.688 3.602-4.688h6.463c1.988,0 3.602,2.099 3.602,4.688v85.012z"/>
<path d="m189.475,161.949c-31.346,0-62.692,0-94.038,0-4.514,0-4.514,7 0,7 31.346,0 62.692,0 94.038,0 4.513,0 4.513-7 0-7z"/>
<path d="m189.475,171.979c-31.346,0-62.692,0-94.038,0-4.514,0-4.514,7 0,7 31.346,0 62.692,0 94.038,0 4.513,0 4.513-7 0-7z"/>
<path d="m189.475,182.009c-31.346,0-62.692,0-94.038,0-4.514,0-4.514,7 0,7 31.346,0 62.692,0 94.038,0 4.513,0 4.513-7 0-7z"/>
<path d="m189.475,192.039c-31.346,0-62.692,0-94.038,0-4.514,0-4.514,7 0,7 31.346,0 62.692,0 94.038,0 4.513,0 4.513-7 0-7z"/>
<path d="m187.097,151.918c-29.276,0-58.552,0-87.829,0-4.514,0-4.514,7 0,7 29.276,0 58.552,0 87.829,0 4.513,0 4.513-7 0-7z"/>
<path d="m187.097,202.069c-29.276,0-58.552,0-87.829,0-4.514,0-4.514,7 0,7 29.276,0 58.552,0 87.829,0 4.513,0 4.513-7 0-7z"/>
<path d="m287.508,202.42c2.137,0 3.869-1.483 3.869-3.313v-15.454c0-1.829-1.732-3.313-3.869-3.313h-8.387c-2.137,0-3.869,1.483-3.869,3.313v15.454c0,1.829 1.732,3.313 3.869,3.313h8.387z"/>
<path d="m185.24,240.529c0,1.414-1.146,2.561-2.562,2.561h-53.284c-1.415,0-2.562-1.146-2.562-2.561v-12.218c0-1.415 1.146-2.562 2.562-2.562h53.284c1.415,0 2.562,1.146 2.562,2.562v12.218z"/>
<path d="m173.879,215.448h11.623v25.358h-11.623z"/>
</g>
</svg>
