<svg xmlns="http://www.w3.org/2000/svg" viewBox="20 20 321 321">
<g stroke="#fff">
<circle fill="none" cx="181.295" cy="180.777" r="106.019" stroke-width="10"/>
<g fill="#fff" stroke-linejoin="round" stroke-linecap="round" stroke-width="7">
<path d="m194.533,100.13c-2.639-11.519-3.851-16.243-5.995-22.342 10.317-1.158 14.739-.506 20.553,3.831 10.188,4.369 15.306,6.583 25.465,11.019 7.142,1.269 10.642,4.045 16.862,12.358-5.914,2.613-10.186,4.963-20.387,10.926-12.039-5.551-24.21-10.818-36.498-15.792z"/>
<path d="m97.858,170.698c-.189-12.405 .144-24.817 .913-37.199 8.89-9.22 18.295-17.953 28.309-25.944 11.941,3.065 23.679,6.875 35.263,11.084 1.331,13.723 2.775,27.433 4.247,41.141-11.89,8.841-23.675,17.797-35.365,26.9-11.235-5.096-22.37-10.392-33.367-15.982z"/>
<path d="m211.451,221.391c-1.367-14.751-2.904-29.471-4.598-44.187 10.995-8.31 21.976-16.637 32.879-25.067 10.983,5.558 21.784,11.503 32.176,18.11 1.021,12.764 1.092,25.59 .446,38.374-8.483,9.039-17.302,17.768-26.457,26.125-11.587-4.182-23.055-8.663-34.446-13.355z"/>
<path d="m116.104,264.955c-2.593-5.308-4.703-10.81-6.866-16.476 9.091-6.295 18.201-12.56 27.29-18.857 13.165,6.036 26.409,11.769 39.822,17.231 1.63,10.936 3.299,21.864 4.933,32.799-4.906,2.015-9.693,3.973-14.593,5.598-4.268,1.416-48.935-16.916-50.586-20.295z"/>
</g>
</g>
</svg>
