<svg xmlns="http://www.w3.org/2000/svg" viewBox="20 20 321 321">
<path fill="none" stroke="#fff" d="m153.914,172.627"/>
<g fill="#fff">
<path d="m123.474,216.601c0-22.041 0-44.082 0-66.123 0-4.509-.271-8.72-4.11-11.888-4.587-3.785-12.307-2.489-17.832-2.489-5.664,0-12.642-1.092-17.799,1.708-6.462,3.508-5.122,12.216-5.122,18.292 0,6.449 10,6.449 10,0 0-1.959-1.277-10 1.475-10 5.39,0 10.779,0 16.168,0 1.856,0 7.22-1.134 7.22,1.655 0,3.34 0,6.679 0,10.019 0,19.609 0,39.218 0,58.826 0,6.448 10,6.448 10,0z"/>
<path d="m149.157,186.666c0-22.041 0-44.082 0-66.123 0-4.509-.271-8.72-4.11-11.888-4.587-3.785-12.307-2.489-17.832-2.489-5.664,0-12.642-1.092-17.799,1.708-6.462,3.508-5.122,12.216-5.122,18.292 0,6.449 10,6.449 10,0 0-1.959-1.277-10 1.475-10 5.39,0 10.779,0 16.168,0 1.856,0 7.22-1.134 7.22,1.655 0,3.34 0,6.679 0,10.019 0,19.608 0,39.217 0,58.826 0,6.448 10,6.448 10,0z"/>
<path d="m72.379,219.11c14.259-20.364 28.519-40.729 42.778-61.093 2.423-3.46 4.845-6.92 7.268-10.38 1.87-2.67 4.38-4.585 7.476-5.688 1.47-.524 10.916-1.357 10.475,1.444-.337,2.14-3.151,5.031-4.316,6.695-3.028,4.325-6.056,8.65-9.084,12.975-19.015,27.156-38.029,54.311-57.044,81.467-1.112,1.589 1.49,3.086 2.591,1.514 13.283-18.97 26.566-37.94 39.849-56.911 7.966-11.376 15.932-22.753 23.898-34.13 2.618-3.738 13.127-16.375 1.98-16.375-6.227,0-10.773,.059-15.812,4.346-1.631,1.388-2.87,3.531-4.096,5.282-5.591,7.984-11.182,15.969-16.773,23.954-10.594,15.129-21.187,30.259-31.781,45.388-1.112,1.588 1.49,3.085 2.591,1.512z"/>
<path d="m165.597,244.638c-7.797-1.508-14.692-1.216-22.432,.327-6.313,1.259-12.635,3.177-19.098,3.368-6.003,.178-12.222-1.923-18.084-3.16-8.076-1.703-15.292-2.111-23.445-.535-1.898,.367-1.092,3.258 .798,2.893 8.263-1.598 15.422-.855 23.56,.9 5.65,1.219 11.371,2.73 17.172,2.902 5.47,.162 11.212-1.572 16.519-2.759 8.329-1.863 15.743-2.682 24.213-1.044 1.889,.366 2.695-2.525 .797-2.892z"/>
<path d="m145.793,247.521c8.263-1.598 15.422-.855 23.559,.899 5.65,1.218 11.371,2.73 17.173,2.902 5.47,.162 11.212-1.572 16.518-2.759 8.329-1.862 15.743-2.681 24.215-1.043 1.89,.365 2.695-2.525 .797-2.893-7.797-1.508-14.692-1.216-22.433,.327-6.313,1.258-12.635,3.176-19.097,3.367-6.003,.178-12.222-1.924-18.084-3.159-8.076-1.703-15.292-2.112-23.445-.535-1.898,.368-1.093,3.259 .797,2.894z"/>
<path d="m208.025,247.509c8.264-1.597 15.423-.854 23.56,.9 5.65,1.218 11.371,2.731 17.173,2.903 5.471,.162 11.213-1.573 16.52-2.76 8.329-1.862 15.742-2.681 24.213-1.044 1.89,.365 2.695-2.526 .797-2.893-7.796-1.507-14.691-1.215-22.431,.328-6.313,1.258-12.636,3.177-19.099,3.368-6.003,.178-12.222-1.925-18.084-3.16-8.076-1.703-15.293-2.111-23.445-.536-1.899,.367-1.093,3.259 .796,2.894z"/>
<path d="m180.597,227.138c-7.797-1.508-14.692-1.216-22.432,.327-6.313,1.259-12.635,3.177-19.098,3.368-6.003,.178-12.222-1.923-18.084-3.16-8.076-1.703-15.292-2.111-23.445-.535-1.898,.367-1.092,3.258 .798,2.893 8.263-1.598 15.422-.855 23.56,.9 5.65,1.219 11.371,2.73 17.172,2.902 5.47,.162 11.212-1.572 16.519-2.759 8.329-1.863 15.743-2.682 24.213-1.044 1.889,.366 2.695-2.525 .797-2.892z"/>
<path d="m160.793,230.021c8.263-1.598 15.422-.855 23.559,.899 5.65,1.218 11.371,2.73 17.173,2.902 5.47,.162 11.212-1.572 16.518-2.759 8.329-1.862 15.743-2.681 24.215-1.043 1.89,.365 2.695-2.525 .797-2.893-7.797-1.508-14.692-1.216-22.433,.327-6.313,1.258-12.635,3.176-19.097,3.367-6.003,.178-12.222-1.924-18.084-3.159-8.076-1.703-15.293-2.112-23.446-.535-1.897,.368-1.092,3.259 .798,2.894z"/>
<path d="m223.025,230.009c11.508-2.224 21.653,.771 32.836,2.827 11.851,2.18 22.42-2.109 34.027-3.626 1.89-.247 1.914-3.25 0-3-5.279,.689-10.409,2.009-15.613,3.079-7.482,1.537-13.552,1.491-21.033,0-4.406-.879-8.765-1.938-13.193-2.708-6.043-1.051-11.815-.625-17.82,.535-1.899,.366-1.093,3.258 .796,2.893z"/>
<path d="m189.193,209.765c-9.021-1.743-16.916-.911-25.808,1.044-8.25,1.813-16.049,3.575-24.461,1.479-1.878-.468-2.674,2.425-.798,2.893 8.562,2.134 16.595,.668 25.034-1.247 8.659-1.966 16.408-2.981 25.236-1.275 1.89,.363 2.696-2.528 .797-2.894z"/>
<path d="m169.39,212.647c8.263-1.597 15.422-.854 23.559,.9 5.65,1.218 11.371,2.73 17.173,2.902 5.47,.162 11.212-1.572 16.518-2.759 8.329-1.861 15.743-2.681 24.214-1.044 1.89,.365 2.695-2.525 .797-2.893-7.796-1.507-14.691-1.215-22.432,.328-6.313,1.258-12.635,3.176-19.097,3.367-6.003,.178-12.222-1.924-18.084-3.159-8.076-1.703-15.293-2.111-23.446-.536-1.898,.368-1.092,3.26 .798,2.894z"/>
<path d="m231.623,212.637c10.316-1.993 19.391,.111 29.419,2.172 5.007,1.029 9.934,1.971 15.031,1.255 4.786-.672 9.537-1.868 14.214-3.072 1.873-.481 1.078-3.375-.797-2.893-4.361,1.122-8.759,2.131-13.194,2.909-5.771,1.012-11.539-.448-17.178-1.664-9.734-2.099-18.359-3.519-28.292-1.6-1.898,.366-1.093,3.258 .797,2.893z"/>
<path d="m236.574,153.74c-7.797-1.507-14.692-1.215-22.432,.328-6.313,1.258-12.635,3.177-19.098,3.368-6.003,.178-12.222-1.924-18.084-3.16-8.076-1.703-15.292-2.111-23.445-.536-1.898,.367-1.092,3.258 .798,2.893 8.263-1.596 15.422-.854 23.56,.9 5.65,1.218 11.371,2.731 17.172,2.903 5.471,.162 11.212-1.573 16.519-2.759 8.329-1.862 15.743-2.681 24.214-1.044 1.889,.365 2.695-2.526 .796-2.893z"/>
<path d="m216.771,156.623c7.659-1.48 14.278-1.02 21.851,.536 4.842,.995 9.636,2.141 14.532,2.863 11.752,1.735 23.094-4.249 34.761-4.594 1.93-.057 1.936-3.057 0-3-12.331,.365-23.875,6.354-36.313,4.337-5.183-.84-10.276-2.154-15.431-3.145-6.911-1.328-13.275-1.228-20.196,.11-1.9,.367-1.094,3.258 .796,2.893z"/>
<path d="m279.004,156.612c3.489-.686 6.781-1.21 10.321-1.196 1.935,.008 1.935-2.992 0-3-3.801-.016-7.378,.567-11.118,1.303-1.897,.374-1.092,3.265 .797,2.893z"/>
<path d="m221.838,171.432c-10.523-2.034-19.725-.203-30.001,1.964-5.854,1.234-11.248,1.925-17.188,1.284-5.011-.541-10.006-1.259-14.99-2.008-1.892-.285-2.706,2.606-.798,2.893 9.818,1.476 19.472,3.306 29.344,1.587 4.026-.701 7.996-1.677 11.998-2.499 7.203-1.48 13.57-1.732 20.838-.328 1.89,.364 2.695-2.527 .797-2.893z"/>
<path d="m202.033,174.314c8.263-1.596 15.423-.854 23.56,.9 5.65,1.218 11.371,2.731 17.173,2.903 5.47,.162 11.212-1.573 16.518-2.759 8.329-1.861 15.744-2.68 24.215-1.043 1.89,.365 2.695-2.526 .797-2.893-7.797-1.507-14.692-1.215-22.432,.327-6.313,1.258-12.635,3.177-19.098,3.368-6.003,.178-12.222-1.924-18.084-3.16-8.076-1.702-15.293-2.11-23.445-.535-1.899,.367-1.093,3.258 .796,2.892z"/>
<path d="m264.267,174.304c8.777-1.696 16.518-.728 25.129,1.25 1.883,.433 2.683-2.459 .797-2.893-9.165-2.105-17.405-3.051-26.723-1.25-1.899,.367-1.093,3.258 .797,2.893z"/>
<path d="m208.021,190.182c-9.021-1.743-16.916-.911-25.809,1.044-8.72,1.917-16.584,3.422-25.469,1.281-1.88-.453-2.678,2.439-.798,2.893 8.932,2.152 16.905,.993 25.731-.979 8.774-1.961 16.594-3.075 25.548-1.346 1.889,.364 2.695-2.527 .797-2.893z"/>
<path d="m188.217,193.064c8.263-1.597 15.423-.854 23.56,.899 5.65,1.218 11.371,2.731 17.173,2.903 5.47,.162 11.212-1.573 16.518-2.76 8.329-1.861 15.744-2.68 24.215-1.043 1.89,.365 2.695-2.526 .797-2.893-7.797-1.507-14.692-1.215-22.433,.327-6.313,1.258-12.635,3.177-19.097,3.368-6.003,.178-12.222-1.925-18.084-3.16-8.076-1.702-15.293-2.11-23.445-.535-1.9,.368-1.094,3.26 .796,2.894z"/>
<path d="m250.449,193.054c7.985-1.544 14.887-.934 22.765,.729 5.529,1.166 10.989,2.901 16.675,3.095 1.936,.065 1.93-2.935 0-3-6.034-.205-11.914-2.178-17.804-3.389-7.719-1.587-14.658-1.831-22.433-.327-1.898,.366-1.092,3.257 .797,2.892z"/>
</g>
</svg>
