<svg xmlns="http://www.w3.org/2000/svg" viewBox="20 20 321 321">
<g fill="#fff">
<path d="m268.551,261.68c.493,4.288 2.939,8.121 7.579,8.655 3.017,.348 7.827,.826 10.504-.876 3.729-2.372 4.699-5.741 4.699-9.818 0-9.195 0-18.392 0-27.587 0-31.239 0-62.478 0-93.716 0-10.417 0-20.833 0-31.25 0-1.83 .367-4.504-.265-6.271-1.401-3.921-4.402-6.649-8.753-6.649-3.544,0-7.989-.581-10.757,2.188-4.705,4.706-3.008,14.104-3.008,20.17 0,13.276 0,26.553 0,39.83 .001,35.108 .001,70.215 .001,105.324 0,4.514 7,4.514 7,0 0-49.14 0-98.279 0-147.419 0-3.243 0-6.486 0-9.73 0-4.418 8.782-4.652 8.782-1.562 0,6.196 0,12.393 0,18.589 0,30.471 0,60.943 0,91.414 0,12.47 0,24.939 0,37.408 0,3.168 0,6.335 0,9.503 0,.574 0,1.148 0,1.723 0,2.81-8.461,2.868-8.782,.074-.51-4.43-7.516-4.48-7,0z"/>
<path d="m187.568,79.667c33.088,0 66.177,0 99.265,0 6.448,0 6.448-10 0-10-33.088,0-66.177,0-99.265,0-6.448,0-6.448,10-0,10z"/>
<path d="m75.235,79.667c5.088,0 10.177,0 15.265,0 6.449,0 6.449-10 0-10-5.088,0-10.177,0-15.265,0-6.449,0-6.449,10 0,10z"/>
<path d="m84.329,76.667c37.556,0 75.111,0 112.667,0 4.514,0 4.514-7 0-7-37.556,0-75.111,0-112.667,0-4.514,0-4.514,7 0,7z"/>
<path d="m134.402,276.541c-.513,8.886-9.127,7.96-15.471,7.96-7.75,0-15.501,0-23.252,0-5.377,0-13.058,1.416-16.638-3.583-2.708-3.781-1.306-11.851-1.306-16.127 0-7.666 0-15.331 0-22.996 0-5.901-.268-13.962 8.084-13.962 12.595,0 25.189,0 37.784,0 5.227,0 10.798,1.603 10.798,8.085 0,3.876 0,7.751 0,11.626 .001,9.666 .001,19.331 .001,28.997 0,4.514 7,4.514 7,0 0-12.253 0-24.506 0-36.759 0-6.784-1.089-12.418-7.05-16.688-4.412-3.159-11.093-2.262-16.219-2.262-7.768,0-15.535,0-23.303,0-5.455,0-10.815-.524-15.941,1.643-6.807,2.878-8.153,10.219-8.153,16.711 0,7.289 0,14.578 0,21.867 0,7.145-1.202,15.564 1.643,22.293 3.744,8.856 13.781,8.154 21.626,8.154 9.483,0 18.966,0 28.449,0 3.009,0 5.848,.074 8.784-.793 6.274-1.854 9.808-7.985 10.165-14.167 .259-4.511-6.742-4.485-7.001,.001z"/>
<path d="m102.745,237.626c0,12.361 0,24.722 0,37.083 0,4.514 7,4.514 7,0 0-12.361 0-24.722 0-37.083 0-4.514-7-4.514-7,0z"/>
<path d="m94.436,84.333c30.818,0 61.635,0 92.453,0 6.448,0 6.448-10 0-10-30.818,0-61.635,0-92.453,0-6.449,0-6.449,10 0,10z"/>
</g>
</svg>
