<svg xmlns="http://www.w3.org/2000/svg" viewBox="20 20 321 321">
<g fill="#fff">
<circle cx="244.923" cy="130.845" stroke="#fff" r="21.125"/>
<path d="m250.637,175.363c-1.865-4.405-.903-9.024 2.148-10.316l2.302-.975c3.052-1.292 7.038,1.232 8.903,5.637l26.879,63.477c1.865,4.405 .903,9.024-2.148,10.315l-2.302,.975c-3.052,1.293-7.037-1.231-8.903-5.637l-26.879-63.476z"/>
<path d="m149.633,226.322c-13.959,14.823-27.918,29.646-41.878,44.471-9.924,10.538 6.021,26.422 15.998,15.826 13.959-14.823 27.918-29.646 41.878-44.471 9.924-10.538-6.021-26.42-15.998-15.826z"/>
<path d="m164.376,228.61c-7.014,14.701-14.028,29.401-21.042,44.103-2.638,5.529-1.502,12.123 4.118,15.368 4.997,2.885 12.725,1.421 15.368-4.118 7.014-14.701 14.028-29.401 21.042-44.103 2.638-5.529 1.501-12.123-4.118-15.368-4.996-2.885-12.725-1.421-15.368,4.118z"/>
<path d="m244.781,269.5c-16.094,0-32.188,0-48.281,0 .5,.5 1,1 1.5,1.5-1.17-9.324-2.34-18.647-3.509-27.972-.126-1.004-.915-1.733-1.508-2.516-1.834-2.423-3.667-4.845-5.501-7.267-3.063-4.046-6.125-8.092-9.188-12.138-.299,.734-.598,1.469-.896,2.203 6.646-2.234 13.14-4.832 19.908-6.702 4.568-1.263 5.487-.989 9.644,.581 9.491,3.586 18.982,7.172 28.473,10.757 1.491,.563 2.982,1.127 4.473,1.69 .418,.157 .836,.315 1.254,.474 .93,.351-.353-.052-.277,.193 1.474,4.834 2.075,9.866 2.169,14.892 .161,8.6 .196,17.203 .24,25.804 .01,1.934 3.01,1.935 3,0-.046-9.074-.081-18.151-.268-27.224-.106-5.176-1.068-10.397-2.576-15.343-.499-1.637-4.596-2.389-5.889-2.877-9.934-3.753-19.867-7.506-29.801-11.259-3.405-1.287-4.744-2.058-8.377-1.288-7.826,1.655-15.216,4.869-22.771,7.409-.825,.277-1.516,1.385-.896,2.203 2.665,3.52 5.329,7.04 7.993,10.56 1.832,2.42 3.663,4.839 5.495,7.259 .604,.798 1.207,1.595 1.811,2.393 .617,.814 .589,1 .505,.326 1.164,9.28 2.328,18.561 3.492,27.841 .102,.812 .605,1.5 1.5,1.5 16.094,0 32.188,0 48.281,0 1.935,.001 1.935-2.999-0-2.999z"/>
<path d="m255.063,159.71c-9.543-5.51-23.457-2.5-28.687,7.687-7.922,15.43-15.842,30.859-23.764,46.288-.039,.075-.068,.154-.105,.23l39.483,14.917c6.919-13.479 13.839-26.957 20.759-40.436 5.225-10.174 2.589-22.754-7.686-28.686z"/>
<path d="m175.646,221.865c-8.147,.27-9.126,.302-17.273,.57-13.173,.436-13.328,22.941-.147,22.506 11.587-.383 23.174-.766 34.761-1.148l-17.341-21.928z"/>
<path d="m194.597,249.167c-1.332,0-2.665,0-3.997,0-6.448,0-6.448,10 0,10 1.482,0 2.964,0 4.445,0l-.448-10z"/>
<path d="m287.245,249.167c-14.107,0-28.215,0-42.322,0v10c14.107,0 28.215,0 42.322,0 6.448-0 6.448-10 0-10z"/>
</g>
<path fill="none" d="m199,237.667h41.166v11.5h-41.166z"/>
<g fill="#fff">
<path d="m74.833,215.667c21.5,0 43,0 64.5,0 6.449,0 6.449-10 0-10-21.5,0-43,0-64.5,0-6.449,0-6.449,10 0,10z"/>
<path d="m107.208,188.598c1.5-4.667 3-9.333 4.5-14 1.385-4.31-5.375-6.141-6.75-1.861-1.5,4.667-3,9.334-4.5,14-1.385,4.31 5.375,6.14 6.75,1.861z"/>
<path d="m111.208,170.236c-1.333-5.833-2.667-11.667-4-17.5-1.006-4.4-7.754-2.534-6.75,1.861 1.333,5.833 2.667,11.667 4,17.5 1.006,4.401 7.754,2.534 6.75-1.861z"/>
<path d="m107.208,154.598c1.5-4.667 3-9.333 4.5-14 1.385-4.31-5.375-6.141-6.75-1.861-1.5,4.667-3,9.333-4.5,14-1.385,4.309 5.375,6.14 6.75,1.861z"/>
<path d="m111.208,136.236c-1.333-5.833-2.667-11.667-4-17.5-1.006-4.4-7.754-2.534-6.75,1.861 1.333,5.833 2.667,11.667 4,17.5 1.006,4.401 7.754,2.534 6.75-1.861z"/>
<path d="m107.208,120.598c1.5-4.667 3-9.333 4.5-14 1.385-4.31-5.375-6.141-6.75-1.861-1.5,4.667-3,9.333-4.5,14-1.385,4.309 5.375,6.14 6.75,1.861z"/>
<path d="m131.708,196.736c-1.5-4.666-3-9.333-4.5-14-1.375-4.279-8.135-2.449-6.75,1.861 1.5,4.666 3,9.333 4.5,14 1.375,4.28 8.135,2.45 6.75-1.861z"/>
<path d="m127.708,182.098c1.333-5.833 2.667-11.667 4-17.5 1.004-4.395-5.744-6.261-6.75-1.861-1.333,5.833-2.667,11.667-4,17.5-1.004,4.394 5.744,6.26 6.75,1.861z"/>
<path d="m131.708,162.736c-1.5-4.667-3-9.333-4.5-14-1.375-4.279-8.135-2.449-6.75,1.861 1.5,4.667 3,9.333 4.5,14 1.375,4.28 8.135,2.449 6.75-1.861z"/>
<path d="m127.708,148.098c1.333-5.833 2.667-11.667 4-17.5 1.004-4.395-5.744-6.261-6.75-1.861-1.333,5.833-2.667,11.667-4,17.5-1.004,4.394 5.744,6.261 6.75,1.861z"/>
<path d="m131.708,128.736c-1.5-4.667-3-9.333-4.5-14-1.375-4.279-8.135-2.449-6.75,1.861 1.5,4.667 3,9.333 4.5,14 1.375,4.28 8.135,2.449 6.75-1.861z"/>
<path d="m88.208,198.901c1.5-4.667 3-9.334 4.5-14 1.385-4.31-5.375-6.141-6.75-1.861-1.5,4.667-3,9.334-4.5,14-1.385,4.311 5.375,6.141 6.75,1.861z"/>
<path d="m92.208,180.54c-1.333-5.833-2.667-11.667-4-17.5-1.006-4.4-7.754-2.534-6.75,1.861 1.333,5.833 2.667,11.667 4,17.5 1.006,4.4 7.754,2.534 6.75-1.861z"/>
<path d="m88.208,164.901c1.5-4.667 3-9.333 4.5-14 1.385-4.31-5.375-6.141-6.75-1.861-1.5,4.667-3,9.333-4.5,14-1.385,4.31 5.375,6.14 6.75,1.861z"/>
<path d="m92.208,146.54c-1.333-5.833-2.667-11.667-4-17.5-1.006-4.4-7.754-2.534-6.75,1.861 1.333,5.833 2.667,11.667 4,17.5 1.006,4.4 7.754,2.534 6.75-1.861z"/>
<path d="m88.208,130.901c1.5-4.667 3-9.333 4.5-14 1.385-4.31-5.375-6.141-6.75-1.861-1.5,4.667-3,9.333-4.5,14-1.385,4.31 5.375,6.14 6.75,1.861z"/>
</g>
</svg>
