<svg xmlns="http://www.w3.org/2000/svg" viewBox="20 20 321 321">
<g fill="#fff">
	<path d="M158.167,179.449c-2.11,0-4.22,0-6.33,0c1.167,1.167,2.333,2.333,3.5,3.5
		c0-7.004-0.272-14.71-9.389-14.71c-3.937,0-7.767,1.01-9.445,4.987c-1.259,2.983-0.791,6.545-0.791,9.723
		c1.167-1.167,2.333-2.333,3.5-3.5c-6.995,0-14.71,0.238-14.71,9.389c0,3.935,1.007,7.767,4.987,9.445
		c2.983,1.259,6.545,0.791,9.724,0.791c-1.167-1.167-2.333-2.333-3.5-3.5c0,7.006,0.258,14.711,9.389,14.711
		c3.934,0,7.772-1.021,9.445-4.986c1.258-2.984,0.791-6.546,0.791-9.725c-1.167,1.167-2.333,2.333-3.5,3.5
		c5.421,0,11.526,0.684,14.058-5.315c2.388-5.658-0.291-13.31-6.797-14.185c-4.412-0.593-6.317,6.151-1.861,6.75
		c2.579,0.347,3.607,5.75,0.753,5.75c-2.051,0-4.102,0-6.153,0c-1.908,0-3.5,1.592-3.5,3.5c0,2.412,1.206,7.711-2.389,7.711
		c-4.47,0-3.236-4.359-3.236-7.711c0-1.908-1.592-3.5-3.5-3.5c-2.412,0-7.71,1.205-7.71-2.388c0-2.1,0.338-3.237,2.748-3.237
		c1.654,0,3.309,0,4.963,0c1.908,0,3.5-1.592,3.5-3.5c0-2.412-1.206-7.71,2.389-7.71c4.469,0,3.236,4.358,3.236,7.71
		c0,1.908,1.592,3.5,3.5,3.5c2.11,0,4.22,0,6.33,0C162.682,186.449,162.682,179.449,158.167,179.449z"/>
	<path d="M129.999,147.5c-0.659,15.479-23.341,15.48-24,0c-0.287-6.749,5.677-11.731,12-12
		C124.747,135.213,129.729,141.178,129.999,147.5c0.191,4.497,7.192,4.515,7,0c-0.454-10.661-8.339-18.546-19-19
		c-10.648-0.453-18.575,9.021-19,19c-0.453,10.648,9.021,18.575,19,19c10.648,0.453,18.576-9.02,19-19
		C137.19,142.985,130.19,143.004,129.999,147.5z"/>
	<path d="M278.155,143.357c-2.059-8.583-3.783-18.9-9.516-25.979c-3.778-4.665-10.231-8.681-15.639-10.932
		c-5.546-2.309-12.316-1.98-18.197-2.044c-4.874-0.052-9.776,0.224-14.568,1.149c-4.811,0.929-8.746,3.306-11.446,7.388
		c-0.342,0.516-0.666,1.041-1.024,1.545c0.62-0.872-0.479,0.293-0.079,0.02c-0.886,0.607-3.597,1.016-5.929,1.081
		c-7.95,0.223-15.937,0.009-23.891-0.004c-7.036-0.011-15.526,1.246-22.307-0.554c-1.265-0.336-0.255,0.095-1.455-0.727
		c0.801,0.549-0.377-0.651,0.04-0.066c-1.002-1.408-1.859-2.874-3.057-4.144c-4.256-4.509-11.43-5.13-17.205-5.527
		c-11.007-0.755-23.043-0.777-32.219,6.053c-4.573,3.404-8.716,6.296-11.243,11.591c-3.542,7.423-5.11,15.685-7.098,23.61
		c-3.662,14.595-7.02,29.269-9.55,44.106c-1.526,8.946-2.764,17.985-3.201,27.057c-0.313,6.488-0.377,13.785,2.102,19.906
		c3.957,9.77,14.311,19.201,25.041,19.897c8.585,0.558,17.441-9.016,23.762-13.784c8.066-6.085,16.238-12.324,25.167-17.107
		c6.859-3.676,15.783-3.04,23.331-3.137c12.606-0.161,25.833-0.872,38.3,0.86c8.164,1.135,15.325,7.061,21.859,11.682
		c7.87,5.565,15.419,11.559,23.16,17.297c13.631,10.104,30.557-1.963,36.124-15.708c3.843-9.487,2.271-21.397,1.156-31.259
		C288.186,184.533,283.095,163.956,278.155,143.357c-1.503-6.27-11.146-3.61-9.643,2.658c3.006,12.536,6.104,25.022,8.553,37.685
		c1.743,9.012,3.22,18.084,4.047,27.229c0.62,6.859,1.202,14.274-0.553,21.016c-0.903,3.468-3.982,6.764-6.748,9.612
		c-4.841,4.986-9.733,6.618-15.474,2.403c-7.768-5.704-15.313-11.698-23.159-17.297c-6.718-4.793-14.242-10.667-22.5-12.393
		c-8.562-1.789-17.692-1.579-26.395-1.521c-12.676,0.085-26.014-1.139-38.41,1.866c-8.374,2.03-16.263,8.658-23.092,13.571
		c-7.506,5.399-14.716,11.194-22.198,16.624c-8.657,6.282-19.607-6.548-21.373-14.15c-1.621-6.979-0.72-14.788-0.042-21.828
		c1.666-17.275,5.502-34.392,9.546-51.244c1.221-5.085,2.5-10.157,3.747-15.236c1.614-6.579,3.194-15.758,8.09-20.002
		c1.039-0.901,4.525-3.44,6.588-4.822c5.25-3.517,12.097-3.06,18.142-3.125c4.215-0.045,8.515,0.043,12.646,0.954
		c1.103,0.243,2.243,0.631,2.756,0.885c1.479,0.729,0.588,0.134,1.574,1.179c0.815,0.864-0.616-0.887,0.047,0.039
		c0.185,0.257,0.354,0.525,0.526,0.791c0.335,0.519,0.668,1.035,1.04,1.528c1.558,2.064,3.323,3.434,5.716,4.423
		c6.119,2.527,14.123,1.386,20.558,1.38c8.602-0.007,17.204-0.002,25.806,0.009c5.588,0.007,11.86,0.208,16.362-3.648
		c1.119-0.958,1.977-2.199,2.771-3.432c0.949-1.473,0.811-1.337,1.512-1.808c5.353-3.586,16.193-2.391,22.793-2.128
		c7.676,0.306,14.567,4.186,19.185,8.737c4.729,4.662,6.323,15.972,7.938,22.703C270.017,152.285,279.659,149.625,278.155,143.357
		z"/>
	<path d="M226,189.262c-0.658,15.48-23.342,15.48-24,0c-0.287-6.749,5.677-11.731,12-12
		C220.749,176.975,225.731,182.938,226,189.262c0.191,4.497,7.192,4.516,7,0c-0.453-10.661-8.339-18.546-19-19
		c-10.648-0.453-18.575,9.021-19,19c-0.453,10.648,9.021,18.575,19,19c10.648,0.453,18.575-9.021,19-19
		C233.192,184.746,226.191,184.765,226,189.262z"/>
	<circle cx="227.602" cy="149.151" r="6.267"/>
	<circle cx="255.066" cy="149.151" r="6.267"/>
	<circle cx="241.335" cy="135.417" r="6.267"/>
	<circle cx="241.335" cy="162.883" r="6.267"/>
	<path d="M96.084,131.233c3.247-10.129,19.258-9.017,27.616-8.811c4.458,0.109,8.167-0.4,10.951,3.572
		c2.38,3.396,3.834,7.451,5.729,11.121c2.592,5.02,5.946,8.903,11.861,8.881c7.637-0.028,15.274-0.054,22.911-0.067
		c11.877-0.021,23.755,0.029,35.633,0.073c6.748,0.025,10.13-8.369,12.502-13.364c1.534-3.229,3.069-7.277,6.119-9.383
		c1.566-1.082,4.244-0.688,6.05-0.757c2.793-0.107,5.585-0.155,8.38-0.123c7.229,0.082,18.883,0.534,21.551,8.858
		c0.588,1.834,3.484,1.05,2.893-0.798c-2.537-7.917-10.92-9.908-18.311-10.726c-4.807-0.531-9.69-0.381-14.513-0.212
		c-3.433,0.12-6.263-0.037-8.982,2.253c-5.841,4.918-6.502,14.036-11.866,19.463c-1.89,1.912-4.104,1.786-6.526,1.777
		c-3.951-0.014-7.901-0.027-11.852-0.039c-13.555-0.041-27.109-0.015-40.664,0.032c-1.978,0.007-4.116,0.258-6.064-0.179
		c-4.026-0.904-6.271-6.594-7.865-9.872c-2.702-5.557-5.179-13.021-12.354-13.306c-10.951-0.433-31.734-2.785-36.091,10.808
		C92.6,132.283,95.497,133.067,96.084,131.233L96.084,131.233z"/>
</g>
</svg>
