<svg xmlns="http://www.w3.org/2000/svg" viewBox="20 20 321 321">
<g fill="#fff">
<path d="m206.859,103.664c-1.048,1.047-2.746,1.047-3.794,0l-12.963-12.964c-1.048-1.048-1.048-2.747 0-3.795l2.846-2.845c1.047-1.048 2.746-1.048 3.795,0l12.963,12.964c1.048,1.048 1.048,2.747 0,3.794l-2.847,2.846z"/>
<path d="m205.093,100.642c-.025,.017 .781,.881-.233-.134-.588-.588-1.176-1.176-1.765-1.764-1.88-1.881-3.761-3.762-5.642-5.643-1.398-1.399-2.797-2.797-4.196-4.196-1.095-1.095 .012-.218-.559,.352 .867-.867 1.734-1.734 2.602-2.601-.57,.57-1.446-.536-.352,.559 .588,.588 1.176,1.176 1.764,1.764 1.881,1.881 3.762,3.762 5.643,5.643 1.477,1.477 2.954,2.955 4.432,4.432 .852,.852 .618-.885-.001-.266-.8,.801-1.601,1.601-2.4,2.401-3.194,3.195 1.755,8.145 4.949,4.95 2.767-2.767 5.168-4.878 4.336-9.159-.449-2.308-3.806-4.748-5.34-6.283-3.999-3.999-10.647-13.982-17.149-9.66-3.318,2.206-5.83,5.664-5.044,9.705 .449,2.308 3.806,4.748 5.341,6.283 4.001,4.001 10.643,13.978 17.148,9.661 3.741-2.482 .239-8.548-3.534-6.044z"/>
<path d="m202.383,69.885c-4.778,4.778-9.557,9.556-14.334,14.334-3.195,3.195 1.755,8.145 4.949,4.95 4.778-4.778 9.557-9.556 14.334-14.334 3.195-3.194-1.755-8.144-4.949-4.95z"/>
<path d="m218.316,87.468c-4.082,4.082-8.163,8.164-12.244,12.245-3.194,3.195 1.755,8.145 4.949,4.95 4.082-4.082 8.163-8.164 12.244-12.245 3.195-3.195-1.754-8.145-4.949-4.95z"/>
<path d="m206.902,163.127c-.077,.425 2.348,.392 .009,.392-.921,0-1.842,0-2.763,0-.691,0-1.382,0-2.073,0 1.383,0 1.335,1.035 1.335,.355 0-1.517 0-3.034 0-4.551 0-6.736 0-13.473 0-20.209 0-12.468 0-24.936 0-37.404 0-.521-2.478,.215-.132,.215 1.611,0 3.224,0 4.836,0-1.524,0-1.337-1.071-1.337,.18 0,.827 0,1.654 0,2.481 0,6.287 0,12.574 0,18.861 0,13.213 0,26.427 0,39.64 0,.324 0,.647 0,.971 0,4.514 7,4.514 7,0 0-11.269 0-22.538 0-33.807 0-7.234 0-14.467 0-21.701 0-3.725 .89-9.298-2.008-12.196-2.191-2.191-6.444-1.429-9.208-1.429-3.695,0-6.151,2.882-6.151,6.543 0,4.076 0,8.152 0,12.228 0,14.821 0,29.643 0,44.465 0,3.431-.535,7.243 1.461,10.22 1.792,2.671 5.402,2.138 8.17,2.138 4.02,0 6.818-1.161 7.611-5.53 .8-4.413-5.945-6.299-6.75-1.862z"/>
<path d="m212.673,160.964c-.206-2.807-1.646-5.128-4.344-6.155-1.438-.548-3.04-.41-4.552-.41-2.801,0-5.225,1.755-6.211,4.343-.536,1.406-.41,2.96-.41,4.438 0,2.776 1.79,5.182 4.343,6.156 1.437,.548 3.04,.41 4.551,.41 2.801,0 5.226-1.755 6.213-4.343 .536-1.407 .41-2.961 .41-4.439 0-4.514-7-4.514-7,0 0,.579 0,1.158 0,1.737 0,.891-.115,.084 .433,.044-.643,.047-1.305,0-1.948,0-.83,0-.04-.103-.001,.434-.042-.572 0-1.163 0-1.737 0-.891 .115-.084-.435-.044 .643-.047 1.305,0 1.948,0 .829,0 .042,.103 .003-.435 .14,1.902 1.486,3.5 3.5,3.5 1.802,.001 3.64-1.593 3.5-3.499z"/>
<path d="m200.207,108.297c2.981,0 5.962,0 8.943,0 4.514,0 4.514-7 0-7-2.981,0-5.962,0-8.943,0-4.514,0-4.514,7 0,7z"/>
<path d="m266.305,163.259c-.125,.926 1.941,.765-.176,.765-.926,0-1.851,0-2.775,0-.828,0-1.656,0-2.483,0-1.339,0 .636,.15 .636,.092 0-1.255 0-2.51 0-3.765 0-6.24 0-12.481 0-18.722 0-14.555 0-29.109 0-43.664 0-1.348 0-2.696 0-4.044 0-.575-2.071-.128 .051-.128 1.906,0 3.813,0 5.719,0-1.663,0-1.096,.637-1.096,2.342 0,2.472 0,4.943 0,7.416 0,15.354 0,30.709 0,46.063 0,4.859 0,9.717 0,14.576 0,4.514 7,4.514 7,0 0-23.303 0-46.607 0-69.91 0-7.929-6.381-7.487-12.31-7.487-5.713,0-6.364,5.331-6.364,9.758 0,14.075 0,28.149 0,42.225 0,8.177 0,16.354 0,24.532 0,3.61 1.683,7.716 5.904,7.716 5.287,0 11.704,1.038 12.645-5.903 .596-4.413-6.148-6.317-6.751-1.862z"/>
<path d="m284.8,84.989c-.364,2.028-6.575,1.161-7.622,1.161-4.827,0-9.654,0-14.481,0-4.913,0-9.826,0-14.739,0-1.629,0-3.258,0-4.888,0-2.54,0-1.572-.015 .522-1.467 4.77-3.306 9.181-6.864 15.232-7.139 3.552-.161 7.147,0 10.701,0 4.288,0 8.576,0 12.864,0 1.793,0 2.285,.21 2.285,2.069 0,2.102 0,4.204 0,6.306 0,4.514 7,4.514 7,0 0-5.155 1.357-12.723-5.042-14.741-4.924-1.553-11.051-.634-16.123-.634-5.302,0-10.744-.394-15.989,.517-3.408,.592-6.353,2.104-9.186,3.99-3.263,2.173-9.121,4.662-10.574,8.497-4.96,13.084 20.13,9.602 25.938,9.602 6.363,0 12.728,0 19.092,0 4.829,0 10.7-.412 11.759-6.3 .795-4.412-5.951-6.299-6.749-1.861z"/>
<path d="m167.13,126.961c-1.589-5.875-9.208-5.824-14.162-4.484-4.667,1.263-3.739,7.584-3.739,11.178 0,10.374 0,20.748 0,31.122 0,6.898 9.596,6.684 14.287,5.415 4.667-1.262 3.739-7.584 3.739-11.178 0-10.374 0-20.748 0-31.122 0-4.514-7-4.514-7,0 0,7.456 0,14.912 0,22.368 0,4.158 0,8.316 0,12.474 0,2.764-.339,.906 .961,.906-1.983,0-3.965,0-5.948,0 1.3,0 .961,1.858 .961-.906 0-1.756 0-3.513 0-5.269 0-5.019 0-10.037 0-15.055 0-4.158 0-8.316 0-12.475 0-2.764 .339-.905-.961-.905 .992,0 1.983,0 2.974,0 .597,0 1.193,0 1.79,0 1.864,0 .456,.187 .349-.207 1.177,4.352 7.93,2.502 6.749-1.862z"/>
<path d="m154.446,81.88c0,13.961 0,27.923 0,41.884 0,4.514 7,4.514 7,0 0-13.961 0-27.923 0-41.884 0-4.514-7-4.514-7,0z"/>
<path d="m152.946,74.707c0,4.179 0,8.359 0,12.538 0,6.449 10,6.449 10,0 0-4.179 0-8.359 0-12.538 0-6.449-10-6.449-10,0z"/>
<path d="m86.582,202.387c0,28.26 0,56.521 0,84.78 0,6.448 10,6.448 10,0 0-28.26 0-56.521 0-84.78 0-6.449-10-6.449-10-0z"/>
<path d="m85.258,292.167c4.215,0 8.43,0 12.645,0 6.449,0 6.449-10 0-10-4.215,0-8.43,0-12.645,0-6.448,0-6.448,10 0,10z"/>
<path d="m86.231,242.904c37.537,0 75.074,0 112.611,0 4.514,0 4.514-7 0-7-37.537,0-75.074,0-112.611,0-4.514,0-4.514,7 0,7z"/>
<path d="m74.833,200.188c48.739,0 97.479,0 146.218,0 21.705,0 43.41,0 65.115,0 6.448,0 6.448-10 0-10-48.739,0-97.479,0-146.218,0-21.705,0-43.41,0-65.115,0-6.449,0-6.449,10-0,10z"/>
<path d="m264.434,194.947c0,30.665 0,61.331 0,91.996 0,6.448 10,6.448 10,0 0-30.665 0-61.331 0-91.996 0-6.448-10-6.448-10,0z"/>
<path d="m262.572,291.943c4.574,0 9.147,0 13.722,0 6.448,0 6.448-10 0-10-4.574,0-9.147,0-13.722,0-6.448,0-6.448,10 0,10z"/>
<path d="m260.05,220.156c-.79,2.388-11.298,.989-13.04,.989-7.617,0-15.234,0-22.852,0-4.785,0-9.571,0-14.357,0-2.519,0-1.287-13.436-1.287-15.731 0-1.4 33.165-.675 35.839-.675 4.785,0 9.571,0 14.357,0 2.517,0 1.286,13.502 1.286,15.815 0,1.935 3,1.935 3,0 0-5.146 1.221-11.768-.402-16.679-1.088-3.29-8.39-2.137-10.819-2.137-13.665,0-27.329,0-40.994,0-5.718,0-5.267,4.286-5.267,8.76 0,3.755-2.031,13.646 4.16,13.646 12.729,0 25.457,0 38.186,0 4.092,0 13.403,1.888 15.083-3.192 .609-1.841-2.289-2.624-2.893-.796z"/>
<path d="m260.05,244.763c-.79,2.388-11.298,.989-13.04,.989-7.617,0-15.234,0-22.852,0-4.785,0-9.571,0-14.357,0-2.519,0-1.287-13.436-1.287-15.731 0-1.4 33.165-.675 35.839-.675 4.785,0 9.571,0 14.357,0 2.517,0 1.286,13.502 1.286,15.815 0,1.935 3,1.935 3,0 0-5.146 1.221-11.768-.402-16.679-1.088-3.29-8.39-2.137-10.819-2.137-13.665,0-27.329,0-40.994,0-5.718,0-5.267,4.286-5.267,8.76 0,3.755-2.031,13.646 4.16,13.646 12.729,0 25.457,0 38.186,0 4.092,0 13.403,1.888 15.083-3.192 .609-1.841-2.289-2.624-2.893-.796z"/>
<path d="m260.05,269.613c-.79,2.389-11.297,.99-13.04,.99-7.617,0-15.234,0-22.852,0-4.785,0-9.571,0-14.357,0-2.518,0-1.287-13.438-1.287-15.732 0-1.398 33.166-.674 35.839-.674 4.785,0 9.571,0 14.357,0 2.517,0 1.286,13.501 1.286,15.814 0,1.935 3,1.935 3,0 0-5.145 1.222-11.769-.402-16.678-1.089-3.29-8.389-2.137-10.819-2.137-13.665,0-27.329,0-40.994,0-5.718,0-5.267,4.285-5.267,8.759 0,3.755-2.031,13.647 4.16,13.647 12.729,0 25.457,0 38.186,0 4.092,0 13.404,1.888 15.083-3.193 .608-1.841-2.29-2.624-2.893-.796z"/>
<path d="m268.895,242.904c1.85,0 3.699,0 5.549,0 1.908,0 3.5-1.592 3.5-3.5s-1.592-3.5-3.5-3.5c-1.85,0-3.699,0-5.549,0-1.908,0-3.5,1.592-3.5,3.5s1.591,3.5 3.5,3.5z"/>
<path d="m223.227,211.465c7.353,0 14.706,0 22.059,0 1.935,0 1.935-3 0-3-7.353,0-14.706,0-22.059,0-1.935,0-1.935,3 0,3z"/>
<path d="m223.227,235.674c7.353,0 14.706,0 22.059,0 1.935,0 1.935-3 0-3-7.353,0-14.706,0-22.059,0-1.935,0-1.935,3 0,3z"/>
<path d="m223.227,259.884c7.353,0 14.706,0 22.059,0 1.935,0 1.935-3 0-3-7.353,0-14.706,0-22.059,0-1.935,0-1.935,3 0,3z"/>
<path d="m264.913,274.042c-.661,3.276-10.53,1.672-12.677,1.672-7.863,0-15.727,0-23.589,0-6.713,0-13.425,0-20.138,0-3.304,0-5.194,.196-5.194-3.549 0-24.898 0-49.796 0-74.694 0-2.898 7.997-1.686 9.578-1.686 7.562,0 15.123,0 22.686,0 7.248,0 14.495,0 21.743,0 2.316,0 7.537-1.164 7.537,2.31 0,25.014 0,50.028 0,75.043 0,.434 0,.868 0,1.303 0,1.935 3,1.935 3,0 0-24.318 0-48.637 0-72.956 0-2.539 .731-7.716-2.795-8.428-3.62-.73-7.593-.271-11.262-.271-14.727,0-29.452,0-44.179,0-3.647,0-8.31-.809-9.255,3.875-.556,2.75-.054,6.049-.054,8.831 0,15.092 0,30.184 0,45.275 0,6.248 0,12.495 0,18.743 0,3.299-.669,6.688 2.438,8.781 2.348,1.582 8.35,.423 10.869,.423 7.649,0 15.3,0 22.949,0 7.126,0 14.253,0 21.38,0 3.748,0 8.877,.971 9.854-3.875 .383-1.889-2.508-2.693-2.891-.797z"/>
</g>
</svg>
