<svg version="1.1" viewBox="20 20 321 321" xmlns="http://www.w3.org/2000/svg">
 <g fill="#fff" transform="translate(0,-62)">
  <path d="m180.82 193.85c0.158-0.518 1.522-0.391 0.307-0.391h-77.361c1.205 0 1.054 2.219 1.054 0.492v-11.252c0-1.727 0.151 0.492-1.054 0.492h77.362c1.467 0-0.437-2.131-0.437-0.492v12.121c0 4.714 7.308 4.714 7.308 0 0-4.945 2.079-15.098-3.088-18.125-2.809-1.646-7.826-0.813-10.867-0.813h-66.048c-4.26 0-10.484-0.098-10.484 5.947 0 4.945-2.08 15.099 3.088 18.125 2.809 1.646 7.826 0.813 10.868 0.813h65.531c4.532 0 9.223 0.436 10.871-4.975 1.374-4.521-5.68-6.439-7.05-1.942z"/>
  <path d="m253.21 196.24c0 10.102-8.187 18.289-18.288 18.289s-18.288-8.188-18.288-18.289z"/>
  <path d="m281.89 195.65c-0.114 0.988-15.102 0.332-16.169 0.332h-158.42c-2.087 0-2.231 0.052-1.929-2.223 0.914-6.881 1.828-13.763 2.742-20.644l2.301-17.328c0.152-1.146 2.889-0.613 3.67-0.613h164.13c1.34 0 1.179 7.766 1.255 8.755 0.805 10.574 1.613 21.148 2.421 31.721 0.487 6.388 10.491 6.435 10 0-0.935-12.233-1.868-24.466-2.803-36.699-0.5-6.55-2.41-13.777-10.602-13.777h-167.7c-8.259 0-9.936 7.278-10.798 13.777-1.625 12.233-3.25 24.466-4.874 36.699-0.844 6.358 6.009 10.332 11.382 10.332h167.54c8.034 0 16.624 0.266 17.845-10.332 0.737-6.399-9.271-6.329-10 0z"/>
  <path d="m109.54 209.44h21.684c4.514 0 4.514-7 0-7h-21.684c-4.514 0-4.514 7 0 7z"/>
  <path d="m110.91 207.48c-0.363 3.009-11.12 4.207-13.181 4.562-8.247 1.417-16.71 1.72-25.061 1.759-1.934 9e-3 -1.935 3.009 0 3 10.341-0.048 20.81-0.584 30.928-2.863 3.441-0.775 9.789-2.11 10.313-6.457 0.232-1.919-2.77-1.896-2.999-1e-3z"/>
  <path d="m110.16 207.16c0.064 3.306-10.041 5.796-12.206 6.489-8.1 2.594-16.558 4.118-24.959 5.339-1.908 0.277-1.094 3.168 0.798 2.893 10.103-1.468 20.261-3.413 29.84-7.032 3.13-1.183 9.61-3.413 9.527-7.688-0.037-1.932-3.037-1.936-3-1e-3z"/>
  <path d="m110.9 207.18c0.473 2.883-8.868 6.789-10.706 7.694-7.734 3.809-16.034 6.523-24.293 8.933-1.853 0.54-1.064 3.436 0.798 2.893 9.722-2.836 19.407-6.168 28.361-10.953 3.174-1.696 9.469-4.874 8.732-9.363-0.312-1.907-3.203-1.096-2.892 0.796z"/>
  <path d="m122.03 208.54c1.822 0.121-5.325 22.414-5.874 23.861-0.688 1.812 2.214 2.588 2.893 0.797 1.117-2.944 11.242-27.109 2.981-27.658-1.932-0.129-1.92 2.872 0 3z"/>
  <path d="m123.73 210.12c2.821-0.169-1.188 21.13-1.502 22.518-0.426 1.884 2.466 2.684 2.893 0.797 0.737-3.26 6.783-26.804-1.39-26.314-1.922 0.114-1.934 3.114-1e-3 2.999z"/>
  <path d="m125.1 211.77c3.159-0.584 2.52 19.491 2.415 21.151-0.122 1.933 2.879 1.921 3 0 0.235-3.744 2.21-25.603-6.213-24.044-1.9 0.352-1.093 3.243 0.798 2.893z"/>
  <path d="m132.26 208.96c7.944-1.192 16.302 3.889 21.556 9.402 1.337 1.403 3.455-0.722 2.121-2.121-6.101-6.402-15.387-11.538-24.475-10.174-1.907 0.286-1.094 3.177 0.798 2.893z"/>
  <path d="m131.96 209.29c9.705-1.805 21.452 3.216 29.831 7.558 1.715 0.889 3.232-1.7 1.514-2.59-9.268-4.804-21.475-9.844-32.142-7.86-1.901 0.353-1.093 3.244 0.797 2.892z"/>
  <path d="m131.2 209.19c5.049-1.138 10.708-0.206 15.745 0.514 7.383 1.056 14.671 2.831 21.81 4.968 1.858 0.557 2.646-2.34 0.798-2.893-7.657-2.292-15.438-4.057-23.352-5.188-5.122-0.732-10.684-1.447-15.799-0.294-1.887 0.426-1.087 3.318 0.798 2.893z"/>
  <path d="m102.32 182.49h181.5c1.935 0 1.935-3 0-3h-181.5c-1.934 1e-3 -1.934 3 1e-3 3z"/>
  <path d="m124.64 150.02h57.308c4.514 0 4.514-7 0-7h-57.308c-4.515 0-4.515 7 0 7z"/>
 </g>
 <g fill="#fff">
  <path d="m277.81 274.64c0.158-2.4963 1.522-1.8843 0.307-1.8843h-9.13l-5.0127-0.25039-4.0396 0.25039-0.78544-49.77 7.0806 0.0365 9.6641 0.25039h2.224c1.467 0-0.437-10.27-0.437-2.371v58.413c0 22.718 7.308 22.718 7.308 0 0-23.831-0.66531-70.636-1.0519-85.931 0.0238-3.152 0.75841-7.0545-1.7488-7.1935-5.1068-0.28302-15.341 0.31203-21.034 0.35671l-10.097 1.0016c-4.2392 0.4205 1.011 72.146 1.5347 101.27 0.25039 13.926-128.33 9.0517-154.32 9.2691-22.634 0.18931-7.5688 7.6903-10.857 9.4719-16.721 0.42069 44.383 0.41254 121.04 0.41254h65.531c4.532 0 9.223 2.1012 10.871-23.975 1.374-21.788-5.68-31.031-7.05-9.3589z"/>
  <path d="m91.697 239.87 86.766-0.32373-8.791-14.371 45.632 19.182-45.678 20.233 9.4541-14.816-87.469 0.32373z"/>
 </g>
</svg>
