<svg xmlns="http://www.w3.org/2000/svg" viewBox="20 20 321 321">
<g fill="#fff">
<circle cx="139.385" cy="102.309" r="19.638"/>
<path d="m90.382,179.54c12.926,10.368 25.853,20.735 38.779,31.102 3.182,2.552 7.51,3.08 10.608-.058 2.647-2.681 3.14-8.044-.057-10.608-12.926-10.367-25.853-20.734-38.779-31.101-3.182-2.552-7.51-3.081-10.608,.057-2.648,2.68-3.14,8.044 .057,10.608z"/>
<path d="m112.723,137.985c-7.93,10.643-15.86,21.285-23.79,31.927-2.447,3.284-.484,8.38 2.745,10.245 3.847,2.221 7.805,.53 10.245-2.745 7.93-10.643 15.86-21.285 23.79-31.927 2.447-3.284 .484-8.38-2.745-10.245-3.847-2.221-7.805-.53-10.245,2.745z"/>
<path d="m222.258,224.969c2.62,13.964 5.24,27.928 7.86,41.893 1.785,9.515 16.261,5.562 14.488-3.883-2.62-13.964-5.24-27.928-7.86-41.893-1.785-9.515-16.261-5.562-14.488,3.883z"/>
<path d="m237.309,273.959c15.43,1.11 30.859,2.221 46.29,3.331 9.674,.696 9.693-14.313 .107-15.004-15.43-1.11-30.859-2.221-46.29-3.331-9.674-.696-9.693,14.314-.107,15.004z"/>
<circle cx="258.627" cy="212.219" r="18.259"/>
<ellipse cx="207.154" cy="239.586" rx="9.313" ry="13.177" transform="matrix(.9671 .2544 -.2544 .9671 67.7656 -44.817)"/>
<path d="m118.961,209.49c6.252,19.788 12.503,39.576 18.755,59.365 4.357,13.792 26.109,8.027 21.733-5.824-6.252-19.788-12.503-39.576-18.755-59.365-4.357-13.792-26.109-8.027-21.733,5.824z"/>
<path d="m104.36,277.041c14.547-.225 29.094-.448 43.641-.672 14.514-.224 14.663-22.729 .162-22.506-14.547,.225-29.094,.448-43.641,.672-14.514,.224-14.663,22.729-.162,22.506z"/>
<path d="m119.841,243.956c15.634-8.922 31.267-17.845 46.9-26.768 12.592-7.187 1.223-26.608-11.393-19.408-15.634,8.922-31.267,17.845-46.9,26.768-12.592,7.186-1.222,26.608 11.393,19.408z"/>
<path d="m127.79,126.164c-10.424,0-18.874,8.45-18.874,18.874v62.83c0,10.424 8.45,18.873 18.874,18.873 10.423,0 18.872-8.449 18.873-18.873v-62.83c-.001-10.424-8.451-18.874-18.873-18.874z"/>
<path d="m141.889,206.636c-2.411,9.421 3.677,19.116 13.596,21.655l59.794,15.304c9.92,2.538 19.916-3.04 22.327-12.46 2.41-9.421-3.677-19.116-13.595-21.656l-59.795-15.303c-9.919-2.539-19.915,3.04-22.327,12.46z"/>
<path d="m74.509,222.802c10.949,7.48 21.899,14.962 32.848,22.443 5.067,3.462 12.477,.889 15.368-4.118 3.239-5.609 .941-11.912-4.118-15.368-10.949-7.48-21.899-14.962-32.848-22.443-5.067-3.462-12.477-.889-15.368,4.118-3.239,5.609-.941,11.912 4.118,15.368z"/>
</g>
</svg>
