<svg xmlns="http://www.w3.org/2000/svg" viewBox="20 20 321 321">
<g fill="none" stroke="#fff" stroke-width="10">
<path stroke-linejoin="round" d="m281.058,163.07h-21.341c-3.264,0-5.908,3.396-5.908,7.586v11.259l-145.716,.2v-11.459c0-4.19-2.646-7.586-5.91-7.586h-21.34c-3.262,0-5.908,3.396-5.908,7.586v19.81c0,4.189 2.646,7.585 5.908,7.585h10.494v17.438c0,7.388 4.664,13.375 10.418,13.375h158.037c5.754,0 10.418-5.987 10.418-13.375v-17.438h10.849c3.263,0 5.907-3.396 5.907-7.585v-19.81c-.001-4.189-2.646-7.586-5.908-7.586z"/>
<path d="m256.259,152.811c0-.176-.004-16.314-.011-16.491-.234-5.618-4.168-10.091-8.987-10.091h-133.742c-4.969,0-8.998,4.755-8.998,10.621v15.961"/>
</g>
<g fill="#fff">
<path d="m104.037,230.84c0,1.275 0,2.552 0,3.827 0,2.726 2.274,5 5,5s5-2.274 5-5c0-1.275 0-2.552 0-3.827 0-2.726-2.274-5-5-5s-5,2.274-5,5z"/>
<path d="m247.615,230.84c0,1.275 0,2.552 0,3.827 0,2.726 2.274,5 5,5s5-2.274 5-5c0-1.275 0-2.552 0-3.827 0-2.726-2.274-5-5-5s-5,2.274-5,5z"/>
</g>
</svg>
