<svg xmlns="http://www.w3.org/2000/svg" viewBox="20 20 321 321">
<g fill="#fff">
<path d="m218.163,148.309c17.768,0 35.536,0 53.304,0 1.935,0 1.935-3 0-3-17.768,0-35.536,0-53.304,0-1.934,0-1.934,3 0,3z"/>
<path d="m208.441,158.184c21.009,0 42.017,0 63.025,0 1.935,0 1.935-3 0-3-21.009,0-42.017,0-63.025,0-1.934,0-1.934,3 0,3z"/>
<path d="m197.753,168.059c24.571,0 49.143,0 73.714,0 1.935,0 1.935-3 0-3-24.571,0-49.143,0-73.714,0-1.935,0-1.935,3 0,3z"/>
<path d="m197.753,177.935c24.571,0 49.143,0 73.714,0 1.935,0 1.935-3 0-3-24.571,0-49.143,0-73.714,0-1.935,0-1.935,3 0,3z"/>
<path d="m197.753,187.81c24.571,0 49.143,0 73.714,0 1.935,0 1.935-3 0-3-24.571,0-49.143,0-73.714,0-1.935,0-1.935,3 0,3z"/>
<path d="m197.753,197.685c24.571,0 49.143,0 73.714,0 1.935,0 1.935-3 0-3-24.571,0-49.143,0-73.714,0-1.935,0-1.935,3 0,3z"/>
<path d="m197.753,207.56c24.571,0 49.143,0 73.714,0 1.935,0 1.935-3 0-3-24.571,0-49.143,0-73.714,0-1.935,0-1.935,3 0,3z"/>
<path d="m197.753,217.436c24.571,0 49.143,0 73.714,0 1.935,0 1.935-3 0-3-24.571,0-49.143,0-73.714,0-1.935,0-1.935,3 0,3z"/>
<path d="m280.5,241.5h-200c-6.065,0-11-4.935-11-11v-100c0-6.065 4.935-11 11-11h200c6.065,0 11,4.935 11,11v100c0,6.065-4.935,11-11,11zm-200-112c-.551,0-1,.449-1,1v100c0,.551 .449,1 1,1h200c.551,0 1-.449 1-1v-100c0-.551-.449-1-1-1h-200z"/>
<path d="m144.638,156.499c-.378,7.024-10.521,7.024-10.899,0-.379-7.029 10.523-6.993 10.899,0 .104,1.924 3.104,1.934 3,0-.257-4.78-3.669-8.193-8.45-8.45-4.77-.257-8.213,4.057-8.45,8.45-.257,4.77 4.057,8.213 8.45,8.449 4.77,.257 8.213-4.057 8.45-8.449 .104-1.935-2.896-1.924-3,0z"/>
<path d="m203.741,136.549c4.116,.222 4.116,6.163 0,6.385-4.119,.221-4.096-6.164 0-6.385 1.924-.104 1.934-3.104 0-3-3.501,.188-6.004,2.692-6.192,6.193-.188,3.493 2.976,6.019 6.192,6.192 3.492,.188 6.02-2.975 6.192-6.192 .188-3.493-2.975-6.02-6.192-6.193-1.933-.104-1.924,2.896 0,3z"/>
<path d="m205.38,144.484c-.137-3.123-.273-6.245-.41-9.367-.084-1.927-3.085-1.935-3,0 .137,3.123 .273,6.245 .41,9.367 .084,1.927 3.085,1.935 3,0z"/>
<path d="m193.852,141.269c.002-.03 .005-.061 .008-.091 .166-1.928-.89-4.067-2.227-5.387-1.383-1.365-3.277-2.156-5.222-2.169-2.007-.014-3.976,.797-5.387,2.226-.387,.508-.774,1.017-1.162,1.525-.656,1.145-.991,2.376-1.006,3.696-.003,.03-.005,.061-.008,.091-.166,1.928 .89,4.067 2.226,5.387 1.383,1.365 3.277,2.156 5.222,2.169 2.007,.014 3.976-.797 5.387-2.226 .387-.508 .774-1.017 1.162-1.525 .655-1.145 .991-2.377 1.007-3.696z"/>
<path d="m185.381,167.483c-3.718-.751-1.898-12.482-1.898-15.02 0-2.881 0-5.763 0-8.644 0-2.973 .438-4.354 3.966-4.354 3.342,0 1.786,14.06 1.786,15.945 0,2.763 0,5.526 0,8.289 0,2.919-1.212,3.729-4.252,3.729-1.935,0-1.935,3 0,3 3.148,0 7.252-.264 7.252-4.5 0-3.184 0-6.367 0-9.55 0-4.395 0-8.79 0-13.184 0-3.19-.431-5.935-4.102-6.676-8.971-1.812-7.65,7.244-7.65,13.045 0,4.712 0,9.424 0,14.136 0,3.19 .431,5.935 4.102,6.676 1.888,.383 2.691-2.509 .796-2.892z"/>
<path d="m172.638,160.837l-3.5,3.5c0,4.395 0,8.79 0,13.184 0,10.717 0,21.434 0,32.15-.456,8.456-7.644,9.002-14.086,9.002-7.036,0-14.072,0-21.108,0-7.678,0-15.356,0-23.034,0-4.283,0-9.733,.805-13.66-1.229-5.453-2.825-4.458-9.681-4.458-14.758 0-7.396 0-14.791 0-22.187 0-7.395 0-14.791 0-22.186 0-5.474-.863-11.262 4.458-14.758 3.126-2.054 8.667-1.229 12.214-1.229 7.167,0 14.333,0 21.5,0 6.93,0 13.859,0 20.789,0 4.109,0 9.164-.72 12.925,1.229 4.371,2.265 4.534,6.914 4.483,11.208l6.437-6.437c-.719-3.619-2.307-6.876-5.604-9.563-4.415-3.596-9.642-3.437-14.943-3.437-7.036,0-14.072,0-21.108,0-7.678,0-15.356,0-23.034,0-4.233,0-8.539-.269-12.729,.414-15.363,2.502-12.39,22.096-12.39,33.122 0,13.345 0,26.688 0,40.032 0,8.278 5.413,15.229 13.709,16.58 3.931,.641 8.21,.199 12.166,.199 14.654,0 29.308,0 43.962,0 2.76,0 5.381,.032 8.12-.414 7.459-1.215 12.013-8.595 12.39-15.588 0-11.701 0-23.401 0-35.102 0-5.744 0-11.488 0-17.233l-3.499,3.501z"/>
<path d="m180.922,149.432c-5.343,5.343-10.687,10.686-16.029,16.029-4.113,4.113-8.226,8.226-12.339,12.338-.865,.865-1.729,1.729-2.594,2.594-1.912,1.912-3.668-1.639-2.421-2.886 .336-.336 .673-.673 1.01-1.009 7.103-7.103 14.206-14.207 21.309-21.31 3.864-3.864 7.729-7.729 11.594-11.593 1.396-1.396 4.902-6.603 7.344-4.159 1.368,1.37 3.489-.751 2.121-2.121-3.08-3.083-5.918-1.51-8.452,1.025-3.997,3.996-7.993,7.993-11.989,11.989-8.353,8.352-16.705,16.705-25.057,25.057-3.876,3.875 .28,9.115 4.979,8.202 1.237-.24 2.548-1.938 3.391-2.78 2.327-2.327 4.654-4.654 6.981-6.981 7.424-7.425 14.849-14.85 22.274-22.274 1.368-1.369-.753-3.49-2.122-2.121z"/>
</g>
</svg>
