<svg version="1.1" viewBox="20 20 321 321" xmlns="http://www.w3.org/2000/svg">
 <g transform="translate(24.037 26.541)" fill="#fff">
  <path d="m115.83 217.91h149.88 27.979c6.448 0 6.448-10 0-10h-149.88-27.979c-6.449 0-6.449 10 0 10z"/>
  <path d="m288.56 295.99c0 3.052-2.474 5.525-5.525 5.525h-156.54c-3.051 0-5.525-2.474-5.525-5.525v-77.557c0-3.051 2.475-5.525 5.525-5.525h156.54c3.052 0 5.525 2.475 5.525 5.525v77.557z" fill="none" stroke="#fff" stroke-width="10"/>
  <path d="m189.69 183.66h30.18c9.686 0 9.771-15.003 0.107-15.003h-30.179c-9.686 0-9.772 15.003-0.108 15.003z"/>
  <path d="m202.96 90.715c3.411 3.031 6.406 6.828 7.659 11.259 1.488 5.266-4.036 11.148-7.58 14.384-3.122 2.851-5.805 6.183-7.817 9.904-3.584 6.626-1.973 13.292 2.039 19.291 2.495 3.731 8.562 0.231 6.044-3.533-2.646-3.958-4.132-7.697-2.038-12.225 1.292-2.792 3.384-5.19 5.525-7.361 2.416-2.45 4.768-4.784 6.832-7.576 7.535-10.192 2.982-21.365-5.714-29.094-3.362-2.987-8.331 1.946-4.95 4.951z"/>
  <path d="m236.68 97.333c3.14 2.797 6.478 6.677 6.781 11.029 0.286 4.098-3.941 8.5-6.781 11.031-8.075 7.197-11.428 16.676-5.085 26.161 2.496 3.731 8.563 0.231 6.045-3.533-4.32-6.459-2.221-11.327 2.77-16.512 2.237-2.325 4.466-4.479 6.398-7.107 6.687-9.092 2.532-19.149-5.179-26.02-3.357-2.991-8.326 1.942-4.949 4.951z"/>
  <path d="m167.37 97.333c3.14 2.797 6.478 6.677 6.782 11.029 0.286 4.098-3.942 8.5-6.782 11.031-8.075 7.197-11.427 16.676-5.084 26.161 2.495 3.731 8.562 0.231 6.044-3.533-4.319-6.459-2.22-11.327 2.771-16.512 2.238-2.325 4.466-4.479 6.398-7.107 6.687-9.092 2.532-19.149-5.178-26.02-3.36-2.991-8.328 1.942-4.951 4.951z"/>
  <path d="m125.46 207.8c0.129-3.297 3.749-5.594 6.239-7.136 5.47-3.388 11.834-5.287 18-6.94 17.868-4.792 36.703-6.051 55.13-6.11 4.514-0.015 4.515-7.015 0-7-20.745 0.066-42.048 1.714-61.987 7.788-8.981 2.736-23.934 7.985-24.382 19.398-0.177 4.516 6.823 4.499 7 0z"/>
  <path d="m291.2 207.8c-0.451-11.491-15.411-16.546-24.383-19.398-19.778-6.287-41.369-7.721-61.987-7.788-4.515-0.015-4.513 6.985 0 7 18.507 0.06 37.159 1.491 55.131 6.11 5.944 1.527 11.836 3.497 17.217 6.481 2.719 1.509 6.884 4.065 7.022 7.595 0.177 4.499 7.178 4.516 7 0z"/>
  <path d="m306.59 223.19h-12.848c-4.085 0-7.528 3.342-7.556 7.448-0.026 4.065 3.361 7.556 7.448 7.556h12.848c4.085 0 7.528-3.342 7.556-7.448 0.026-4.066-3.361-7.556-7.448-7.556z"/>
  <path d="m115.88 223.19h-12.847c-4.086 0-7.529 3.342-7.556 7.448-0.027 4.065 3.361 7.556 7.447 7.556h12.847c4.086 0 7.529-3.342 7.556-7.448 0.027-4.066-3.361-7.556-7.447-7.556z"/>
 </g>
 <g transform="translate(22.034 20.031)" fill="#fff">
  <path d="m109.32 12.793c-15.711 46.928-31.423 93.856-47.135 140.78-1.475 4.405-2.95 8.812-4.425 13.217-3.081 9.202 11.415 13.087 14.47 3.961 15.712-46.928 31.424-93.856 47.135-140.78 1.476-4.406 2.95-8.812 4.426-13.217 3.081-9.203-11.415-13.087-14.471-3.962z"/>
  <path d="m113.49 20.017 48.078 30.699c8.169 5.216 15.634-7.797 7.5-12.99l-48.078-30.699c-8.169-5.217-15.634 7.796-7.5 12.99z"/>
  <path d="m9 196.67c0.453 7.968 5.067 14.191 12.78 16.505 2.473 0.741 5.394 0.495 7.961 0.495h29.71 30.196c2.357 0 4.806 0.154 7.138-0.26 8.403-1.49 13.641-8.457 14.111-16.74 0.366-6.445-9.636-6.41-10 0-0.46 8.104-8.466 7-14.175 7h-26.276-26.614c-5.815 0-14.359 1.307-14.832-7-0.363-6.41-10.365-6.445-9.999 0z"/>
  <path d="m102.44 170.49c0.177 4-6.111 3.999-8.518 4.496-3.954 0.815-7.908 1.632-11.862 2.447-5.962 1.23-6.354-12.63-7.16-16.535-0.887-4.292 17.835-6.095 20.416-6.627 5.971-1.232 6.369 12.698 7.178 16.617 0.391 1.895 3.282 1.091 2.893-0.797-0.902-4.375-1.805-8.749-2.707-13.123-0.793-3.843-2.92-6.672-7.299-5.769-5.101 1.053-10.2 2.104-15.3 3.157-4.117 0.849-8.379 1.551-8.145 6.857 0.196 4.435 1.865 9.178 2.762 13.521 0.793 3.843 2.919 6.672 7.298 5.769 5.101-1.053 10.2-2.105 15.3-3.157 4.117-0.85 8.379-1.551 8.145-6.857-0.086-1.926-3.086-1.933-3.001 1e-3z"/>
  <path d="m22.111 198.04c-3.74-1.246-1.306-7.761-0.907-10.196 0.628-3.834 1.257-7.667 1.885-11.5 0.925-5.642 14.1-1.183 17.8-0.576 4.574 0.75-0.497 18.762-0.978 21.695-0.925 5.642-14.099 1.184-17.8 0.577-1.892-0.31-2.703 2.581-0.798 2.893 4.614 0.756 9.227 1.512 13.84 2.268 3.914 0.641 6.968-0.774 7.65-4.939 0.863-5.267 1.727-10.533 2.589-15.799 0.677-4.127 1.121-7.98-3.707-9.587-4.262-1.419-9.404-1.541-13.84-2.269-3.914-0.641-6.968 0.774-7.65 4.939-0.863 5.267-1.727 10.533-2.589 15.799-0.677 4.128-1.121 7.979 3.707 9.588 1.841 0.613 2.624-2.285 0.798-2.893z"/>
  <path d="m93.27 195.08c0.399 3.903-5.948 4.325-8.331 4.969-3.673 0.992-7.347 1.984-11.021 2.977-5.844 1.578-6.939-11.347-8.005-15.294-1.097-4.064 17.268-7.053 19.874-7.757 5.173-1.396 6.621 12.114 7.537 15.504 0.504 1.866 3.397 1.073 2.893-0.797-1.441-5.338-2.373-19.99-10.832-17.706-4.839 1.307-9.678 2.613-14.517 3.92-3.949 1.066-8.457 1.936-7.922 7.156 0.414 4.043 2.18 8.271 3.238 12.188 0.978 3.622 2.81 7.223 7.355 5.995 4.937-1.333 9.873-2.666 14.81-3.999 3.949-1.066 8.455-1.937 7.922-7.156-0.196-1.905-3.198-1.924-3.001 0z"/>
  <path d="m44.991 198.82c-3.656-1.317-1.059-7.87-0.611-10.239 0.722-3.817 1.444-7.634 2.167-11.451 1.051-5.557 14.193-0.782 17.834-0.094 4.483 0.849-1.011 18.816-1.555 21.691-1.052 5.556-14.195 0.782-17.835 0.093-1.891-0.357-2.697 2.533-0.798 2.893 4.594 0.869 9.187 1.738 13.78 2.607 3.903 0.739 6.967-0.687 7.745-4.796 0.992-5.243 1.984-10.487 2.976-15.73 0.78-4.122 1.272-7.926-3.516-9.65-4.226-1.522-9.363-1.771-13.78-2.607-3.904-0.739-6.967 0.688-7.745 4.797-0.992 5.243-1.984 10.487-2.976 15.73-0.78 4.122-1.272 7.925 3.516 9.649 1.825 0.657 2.604-2.242 0.798-2.893z"/>
  <path d="m47.078 157.17c-0.473-3.297 5.715-4.213 7.738-4.93 3.129-1.108 6.258-2.217 9.387-3.325 4.784-1.694 6.879 10.31 8.018 13.525 1.269 3.582-14.777 7.423-17.125 8.255-4.785 1.695-6.879-10.308-8.018-13.525-0.641-1.811-3.54-1.031-2.893 0.797 1.691 4.775 3.67 18.468 11.309 15.763 4.371-1.549 8.742-3.097 13.113-4.646 3.868-1.37 7.21-2.53 6.506-7.44-0.546-3.812-2.815-7.948-4.102-11.582-1.156-3.266-3.546-5.478-7.207-4.181-4.371 1.549-8.742 3.097-13.113 4.646-3.868 1.37-7.21 2.53-6.506 7.44 0.273 1.909 3.164 1.094 2.893-0.797z"/>
  <path d="m18.773 161.84c-3.156-2.688 1.583-7.862 2.93-10.08 1.934-3.181 3.867-6.361 5.8-9.542 3.156-5.192 13.478 3.815 16.954 5.929 3.769 2.29-7.542 17.094-8.962 19.43-3.161 5.199-13.537-3.851-17.025-5.971-1.658-1.008-3.164 1.587-1.514 2.59 3.816 2.32 7.633 4.641 11.45 6.96 3.315 2.016 6.904 2.502 9.223-1.313 2.705-4.45 5.41-8.899 8.114-13.35 2.163-3.558 4.632-7.231 0.604-10.659-3.381-2.877-7.962-4.891-11.753-7.194-3.315-2.016-6.904-2.503-9.223 1.312-2.705 4.45-5.409 8.899-8.114 13.35-2.163 3.558-4.631 7.231-0.604 10.66 1.463 1.246 3.596-0.866 2.12-2.122z"/>
  <path d="m100.9 217.69c-0.081 0.6-27.405 0-29.18 0h-45.096-8.621v-5.102-33.498-91.95-19.462c0-0.018 26.574-9e-3 28.228-9e-3h45.401 9.252c0.033 0 0.016 4.462 0.016 4.716v81.213 64.092c0 6.448 10 6.448 10 0v-144.52-5.491c0-6.993-6.095-10.009-12.146-10.009h-38.805-39.442c-6.138 0-12.503 2.754-12.503 10v5.101 144.91c0 10.558 10.648 10.009 17.994 10.009h32.957 32.678c8.367 0 17.788 1.01 19.268-10 0.856-6.376-9.155-6.293-10.001 0z"/>
  <path d="m18.459 111.67h85.562c1.935 0 1.935-3 0-3h-85.562c-1.935 0-1.935 3 0 3z"/>
 </g>
</svg>
