<svg xmlns="http://www.w3.org/2000/svg" viewBox="20 20 321 321">
<g fill="#fff">
<path d="m215.253,142.695c5.888-1.038 11.775-2.075 17.664-3.113 8.45-1.489 8.609,11.82 9.553,17.179 1.52,8.639 3.04,17.278 4.56,25.917 .423,2.401 .845,4.802 1.268,7.202 1.103,6.268-4.445,7.697-9.154,8.525-.814,.143-1.239,1.112-1.048,1.845 2.546,9.781 3.639,20.138 5.389,30.083 2.493,14.171 4.986,28.343 7.48,42.515 1.009,5.733 1.58,11.199-6.121,12.554-4.692,.825-10.679,1.687-11.81-4.741-.198-1.125-.396-2.251-.594-3.376-2.408-13.686-4.815-27.371-7.224-41.057-1.893-10.758-4.635-21.714-5.655-32.597-.097-1.03-.879-1.626-1.898-1.446-1.582,.278-3.164,.558-4.746,.836-1.903,.335-1.094,3.226 .797,2.893 1.582-.278 3.164-.558 4.746-.836-.633-.482-1.266-.964-1.898-1.446 .927,9.884 3.371,19.797 5.089,29.564 2.519,14.314 5.037,28.629 7.556,42.943 .677,3.848 .935,7.372 3.672,10.433 4.299,4.808 15.121,2.504 19.343-1.271 3.511-3.141 2.596-7.799 1.887-11.828-1.01-5.74-2.021-11.481-3.03-17.222-2.154-12.247-4.31-24.493-6.464-36.74-1.169-6.64-1.925-13.525-3.625-20.057-.349,.614-.698,1.229-1.048,1.845 4.224-.742 8.811-1.528 10.626-6.059 1.222-3.047 .697-5.739 .158-8.805-1.735-9.862-3.471-19.725-5.205-29.587-1.034-5.876-.947-16.796-7.615-19.469-3.881-1.556-7.827-.33-11.777,.367-3.89,.686-7.78,1.371-11.67,2.057-1.906,.335-1.097,3.225 .794,2.892z"/>
<path d="m233.373,213.984c1.547,8.795 3.095,17.59 4.642,26.385 .335,1.903 3.226,1.095 2.893-.797-1.547-8.795-3.095-17.59-4.642-26.385-.335-1.903-3.226-1.094-2.893,.797z"/>
<path d="m229.099,219.986c2.205,12.534 4.41,25.067 6.615,37.601 .335,1.903 3.226,1.095 2.893-.797-2.205-12.534-4.41-25.067-6.615-37.601-.336-1.903-3.226-1.093-2.893,.797z"/>
<path d="m222.837,218.188c.544,2.346 2.715,3.98 5.138,3.688 2.541-.307 4.396-2.644 4.087-5.191-.308-2.54-2.644-4.396-5.191-4.087-2.54,.308-4.395,2.645-4.087,5.192 .229,1.896 3.231,1.918 3,0-.116-.966 .154-1.82 1.146-2.167 .899-.314 1.812,.275 2.106,1.121 .771,2.209-2.756,3.021-3.307,.647-.436-1.885-3.329-1.085-2.892,.797z"/>
<path d="m235.205,244.896c.591,2.547 2.932,4.301 5.56,3.983 2.746-.332 4.714-2.877 4.383-5.613-.332-2.746-2.877-4.715-5.614-4.384-2.746,.332-4.714,2.879-4.382,5.615 .229,1.896 3.232,1.918 3,0-.141-1.156 .229-2.171 1.403-2.581 1.094-.382 2.201,.345 2.559,1.371 .931,2.668-3.352,3.674-4.016,.812-.438-1.884-3.329-1.084-2.893,.797z"/>
<path d="m231.589,261.92c.591,2.547 2.931,4.302 5.56,3.984 2.746-.332 4.715-2.877 4.384-5.614-.332-2.746-2.878-4.714-5.614-4.383-2.746,.332-4.714,2.878-4.383,5.614 .229,1.896 3.231,1.918 3,0-.14-1.156 .229-2.171 1.404-2.58 1.093-.382 2.201,.345 2.559,1.37 .932,2.669-3.353,3.675-4.017,.812-.437-1.885-3.33-1.085-2.893,.797z"/>
<path d="m237.766,276.522c.422,1.822 2.149,3.148 4.039,2.919 2.005-.243 3.567-2.038 3.318-4.094-.243-2.006-2.038-3.565-4.094-3.317-2.005,.242-3.566,2.039-3.317,4.094 .099,.812 .607,1.5 1.5,1.5 .743,0 1.599-.687 1.5-1.5-.057-.468-.035-.913 .479-1.092 .395-.138 .798,.094 .931,.476 .353,1.011-1.206,1.325-1.463,.218-.437-1.885-3.33-1.085-2.893,.796z"/>
<path d="m236.944,264.584c.559,3.176 1.118,6.352 1.677,9.526 .335,1.903 3.226,1.095 2.893-.797-.559-3.176-1.118-6.352-1.677-9.526-.335-1.903-3.226-1.094-2.893,.797z"/>
<path d="m240.144,279.759c.414,2.355 .828,4.71 1.242,7.064 .335,1.903 3.226,1.095 2.893-.797-.414-2.355-.828-4.71-1.242-7.064-.336-1.903-3.226-1.095-2.893,.797z"/>
<path d="m239.319,247.778c2.241,12.742 4.483,25.484 6.725,38.226 .335,1.903 3.226,1.094 2.893-.797-2.241-12.742-4.483-25.484-6.725-38.226-.335-1.903-3.226-1.094-2.893,.797z"/>
<path d="m228.77,142.563c-6.766-1.382-13.532-2.764-20.298-4.146-6.491-1.326-13.884-1.392-15.56,6.817-1.565,7.663-3.13,15.325-4.694,22.988-1.446,7.081-1.379,14.261 7.396,16.042-.35-.615-.699-1.23-1.048-1.845-1.186,3.563-1.632,6.409-.375,9.851 .408,1.117 .816,2.234 1.225,3.352 .675,1.849 1.334-.904-.017,.512-1.461,1.532-2.922,3.063-4.383,4.596-.354,.372-.559,.952-.386,1.459 .585,1.718 1.169,3.436 1.754,5.153 .368,1.081 .735,2.162 1.104,3.242 .568,1.67 1.284-1.151-.153,.541-1.859,2.19-5.521,5.815-4.372,9.222 .628,1.861 1.256,3.723 1.884,5.583 .244,.723 .288,2.135 .599,1.319-.456,1.199-.912,2.397-1.367,3.597-1.668,4.386 .585,7.819 3.313,11.401 .499,.656 1.275,.98 2.052,.538 2.925-1.664 7.457-4.151 7.607-7.942 .045-1.125 .09-2.249 .134-3.374 .021-.513 .041-1.025 .062-1.538 .054-1.367-.87,.928-.021-.023 1.599-1.794 3.198-3.587 4.797-5.38 2.313-2.595 .986-6.682 .119-9.472-.611-1.969 .039-1.832-.952-.728 .748-.833 1.495-1.667 2.242-2.5 1.428-1.592 2.854-3.184 4.282-4.775 .337-.376 .576-.951 .386-1.459-.743-1.982-1.487-3.964-2.23-5.946-.685-1.825-.841,.403-.412-.054 .957-1.021 1.913-2.041 2.87-3.061 2.615-2.791 3.04-5.286 3.624-9.131-.615,.35-1.23,.699-1.845,1.048 5.25,1.072 12.026,.986 13.886-5.43 1.208-4.168 1.852-8.54 2.719-12.788 1.739-8.529 8.269-24.133-3.942-27.669-1.862-.54-2.651,2.355-.797,2.893 6.044,1.75 5.366,6.733 4.408,11.422-.854,4.186-1.71,8.372-2.564,12.558-.715,3.498-1.429,6.995-2.144,10.493-1.19,5.831-5.655,6.675-10.771,5.63-.725-.148-1.716,.201-1.845,1.048-.131,.86-.323,1.711-.498,2.564-.16,.783-1.038,3.836-.494,3.257-1.706,1.819-3.412,3.639-5.117,5.458-.344,.366-.573,.959-.386,1.459 .743,1.982 1.487,3.964 2.23,5.946 .699,1.864 1.313-.932 .111,.408-.982,1.095-1.965,2.19-2.946,3.286-.938,1.045-2.966,2.545-3.36,3.979-.459,1.667 1.169,4.561 1.655,6.126 .179,.574 .163-.036-.133,1.411-.112,.55-.225,1.1-.337,1.649-.279,1.363 .533-.21-.171,.579-1.634,1.832-3.268,3.665-4.901,5.497-1.112,1.247-.572,4.413-.633,5.922-.115,2.91-3.823,4.725-6.148,6.048 .684,.179 1.368,.358 2.052,.538-1.096-1.439-4.432-5.352-3.726-7.211 .663-1.744 2.197-4.157 2.197-6.037 0-1.876-1.347-4.229-1.938-5.981-.449-1.332-.719-3.946-.105-4.668 1.306-1.538 2.612-3.077 3.918-4.615 1.066-1.255-.306-3.491-.736-4.758-.503-1.476-1.005-2.952-1.508-4.428-.135-.396-.27-.792-.404-1.188-.368-1.082-1.044,1.531-.156,.601 1.604-1.681 3.206-3.362 4.81-5.043 .349-.365 .568-.959 .386-1.459-2.058-5.634-3.146-7.055-1.259-12.729 .245-.737-.275-1.688-1.048-1.845-8.979-1.823-5.705-10.367-4.447-16.527 1.261-6.174 2.521-12.348 3.782-18.522 1.747-8.554 10.355-5.334 16.17-4.146 5.353,1.093 10.705,2.187 16.058,3.279 1.885,.384 2.69-2.507 .795-2.894z"/>
<path d="m217.242,149.303c4.01,1.232 2.246,8.12-1.865,7.28-1.613-.33-3.227-.659-4.84-.988-4.084-.834-2.25-8.121 1.866-7.28 1.613,.33 3.226,.659 4.839,.988 1.888,.386 2.692-2.506 .797-2.893-3.27-.668-6.876-2.122-9.891-.063-4.442,3.033-3.544,10.562 1.592,12.141 3.043,.936 7.102,1.969 9.892,.063 4.441-3.033 3.542-10.563-1.593-12.141-1.853-.569-2.641,2.327-.797,2.893z"/>
<path d="m119.057,145.987c-7.379,0-14.758,0-22.137,0-7.795,0-16.231,2.496-16.231,12.022 0,8.125 0,16.25 0,24.375 0,7.528-.879,15.761 7.746,18.766-.367-.482-.734-.964-1.101-1.446 0,14.873 0,29.745 0,44.618 0,9.032 0,18.064 0,27.097 0,2.283 0,4.565 0,6.849 0,2.148 1.539,4.012 2.53,5.852 .249,.461 .781,.743 1.295,.743 2.591,0 4.018,.21 6.113-1.231 1.799-1.237 5.441-2.754 6.576-4.691 1.098-1.875 .205-6.115 .205-8.198 0-2.045-.309-.884 .484-2.397 .656-1.253 1.313-2.505 1.969-3.758 .619-1.182 .732-5.24 0-6.371-.748-1.153-1.495-2.308-2.243-3.461-.839-1.294-.678,1.456-.189,.371 .314-.699 .629-1.398 .943-2.097 .673-1.496 3.219-5.042 2.375-6.792-1.181-2.447-2.362-4.894-3.543-7.34-.079,.605-.157,1.212-.235,1.817 2.137-2.147 7.527-5.6 7.527-8.856 0-1.921 .633-4.926-.274-6.694-1.158-2.257-2.316-4.514-3.474-6.771-.079,.605-.157,1.212-.235,1.817 1.88-1.985 5.679-4.483 5.781-7.405 .158-4.564 .316-9.128 .475-13.692-.5,.5-1,1-1.5,1.5 7.345,0 14.886,1.76 18.437-6.47 1.888-4.374 .839-10.816 .839-15.402-.002-11.022 4.085-31.773-12.133-32.755-1.933-.117-1.922,2.884 0,3 7.904,.479 9.132,6.8 9.132,13.125 0,5.542 0,11.085 0,16.628 0,3.67 0,7.341 0,11.012 0,1.875-.597,3.45-1.519,5.036-2.216,3.812-5.614,2.823-9.113,2.823-1.881,0-3.763,0-5.645,0-.839,0-1.472,.683-1.5,1.5-.136,3.93-.272,7.86-.409,11.79-.026,.767-.053,1.532-.08,2.298-.004,.118 .793-1.11-.403,.152-1.495,1.579-2.99,3.157-4.485,4.736-.485,.512-.551,1.2-.235,1.817 .997,1.942 1.994,3.885 2.99,5.827 .534,1.041 .349,3 .349,5.399 0,1.852 .299,.479 .135,.644-.859,.864-1.719,1.728-2.578,2.591-1.401,1.408-2.803,2.817-4.205,4.226-.504,.506-.532,1.202-.235,1.817 1.162,2.405 2.323,4.812 3.484,7.217-.478-.989 .243-1.797-.419-.326-.363,.807-.726,1.613-1.088,2.42-.659,1.464-1.317,2.929-1.976,4.393-.39,.866-.058,1.425 .416,2.155 .468,.723 2.038,3.405 2.038,2.912 0,4.245-.102,4.477-2.118,8.323-1.072,2.047-.54,4.785-.54,7.025 0,.853 0,1.705 0,2.558 0,1.546-.296,.516 .633-.124-1.486,1.021-2.972,2.044-4.457,3.065-.644,.443-3.047,1.834-2.493,1.834-.858,0-1.717,0-2.576,0-1.718,0 .56,1.236-.07,.068-.409-.759-.817-1.518-1.226-2.276-.262-.486-.531-1.819-.531-.625 0-.331 0-.663 0-.994 0-25.37 0-50.739 0-76.109 0-.74 0-1.481 0-2.222 0-.701-.465-1.225-1.101-1.446-7.459-2.599-5.543-13.146-5.543-19.517 0-6.754 0-13.509 0-20.264 0-10.009 9.448-9.489 16.523-9.489 6.282,0 12.563,0 18.845,0 1.934,.001 1.934-2.999 0-2.999z"/>
<path d="m92.535,201.107c0,27.418 0,54.836 0,82.254 0,1.935 3,1.935 3,0 0-27.418 0-54.836 0-82.254 0-1.934-3-1.934-3,0z"/>
<path d="m102.173,165.913c-.689,6.048-10.88,5.31-10.88-.716 0-2.057 0-4.113 0-6.17 0-5.978 10.88-5.366 10.88,.716 0,2.056 0,4.113 0,6.17 0,1.935 3,1.935 3,0 0-4.344 .852-8.827-2.69-12.024-4.928-4.449-13.445-1.401-14.19,5.138-.468,4.106-.553,9.097 2.69,12.024 4.928,4.449 13.445,1.402 14.19-5.138 .219-1.921-2.783-1.9-3,0z"/>
<path d="m194.973,188.167-65.285,0 0-10 59.653,0 3.159,2.5 2.473,3.125z"/>
<path d="m83.479,177.376c-4.339-2.751-3.645-7.257-3.645-11.65 0-6.161 0-12.322 0-18.482 0-15.552 0-31.104 0-46.656 0-6.524-2.616-20.867 7.391-20.867 6.85,0 13.699,0 20.549,0 54.355,0 108.711,0 163.067,0 1.701,0 3.523-.161 5.211,.135 5.824,1.022 5.449,6.886 5.449,11.302 0,13.917 0,27.833 0,41.75 0,12.301 0,24.603 0,36.904 0,5.696-3.504,8.354-8.975,8.354-7.167,0-14.334,0-21.502,0-.914,0-1.829,0-2.744,0-3.145,0-.682,2.501-.759,4.938-.082,2.561-.063,5.073 .759,5.063 6.013-.079 12.025,0 18.039,0 7.482,0 14.228,.479 20.251-4.945 7.558-6.806 4.931-22.553 4.931-31.579 0-15.693 0-31.386 0-47.08 0-10.139 2.545-24.748-6.908-31.549-6.049-4.351-14.057-3.293-21.118-3.293-11.831,0-23.663,0-35.493,0-31.834,0-63.667,0-95.499,0-11.707,0-23.414,0-35.121,0-7.22,0-15.825-1.152-21.63,4.075-8.344,7.513-5.896,21.479-5.896,31.602 0,15.697 0,31.394 0,47.091 0,11.543-2.732,26.339 8.598,33.522 1.194,.757 3.063,1.668 4.11,1.447 0,0-.392-3.242 .292-4.625 .594-1.201 .37-1.639 .458-2.667 .03-.374-.008-2.912 .185-2.79z"/>
<path d="m120.573,108.338c-12.222,5.43-24.444,10.859-36.667,16.289-5.883,2.614-.791,11.229 5.047,8.635 12.222-5.43 24.444-10.859 36.667-16.289 5.883-2.614 .791-11.229-5.047-8.635z"/>
<path d="m179.582,108.338c-12.223,5.43-24.445,10.859-36.667,16.289-5.883,2.614-.791,11.229 5.047,8.635 12.223-5.43 24.445-10.859 36.667-16.289 5.884-2.614 .791-11.229-5.047-8.635z"/>
<path d="m238.59,108.338c-12.223,5.43-24.444,10.859-36.666,16.289-5.884,2.614-.791,11.229 5.047,8.635 12.223-5.43 24.444-10.859 36.666-16.289 5.884-2.614 .791-11.229-5.047-8.635z"/>
<path d="m92.366,147.26c-1.239-5.281-1.413-10.586-.937-15.973 .265-2.997 3.188-17.017 7.667-10.105 3.121,4.816 3.153,11.825 3.057,17.327-.034,1.978-1.501,18.392-6.745,15.212-1.659-1.005-3.166,1.589-1.515,2.591 6.026,3.653 9.026-4.574 10.17-9.085 2.182-8.605 1.839-19.594-2.377-27.559-2.607-4.926-7.3-4.226-10.038,0-4.978,7.684-4.155,19.948-2.175,28.39 .442,1.882 3.335,1.084 2.893-.798z"/>
<path d="m210.016,139.04c-1.135-5.232-.761-10.743 1.35-15.687 2.533-5.937 8.033-6.75 11.525-1.188 3.087,4.917 3.034,11.726 1.895,17.185-1.073,5.138-6.101,12.948-11.57,6.755-1.283-1.453-3.396,.677-2.121,2.121 4.372,4.95 10.001,3.536 13.709-1.324 5.177-6.783 4.443-17.684 1.294-25.063-2.175-5.098-8.421-9.312-13.438-5.077-6.386,5.391-7.195,15.424-5.536,23.075 .409,1.891 3.301,1.089 2.892-.797z"/>
</g>
</svg>
