<svg xmlns="http://www.w3.org/2000/svg" viewBox="20 20 321 321">
<path fill="#fff" d="m286.121,132.167c-48.549,0-97.099,0-145.648,0-21.903,0-43.806,0-65.708,0-1.935,0-1.935,3 0,3 48.549,0 97.099,0 145.647,0 21.903,0 43.806,0 65.709,0 1.935,0 1.935-3 0-3z"/>
<path fill="none" stroke="#fff" d="m44.239,121.792"/>
<g fill="#fff">
<path d="m102.77,240.466c1.206,7.479 13.026,5.167 18.415,5.167 13.66,0 27.32,0 40.98,0 28.097,0 56.195,0 84.292,0 2.036,0 4.073,0 6.11,0 4.699,0 5.602-4.198 5.602-7.875 0-13.382 0-26.763 0-40.144 0-11.132 0-22.265 0-33.397 0-7.7-11.283-5.717-16.164-5.717-29.47,0-58.94,0-88.41,0-12.44,0-24.88,0-37.32,0-5.528,0-13.56-1.351-13.56,6.617 0,24.983 0,49.967 0,74.95 0,1.935 3,1.935 3,0 0-24.153 0-48.307 0-72.46 0-2.655-.126-6.106 3.64-6.106 3.174,0 6.349,0 9.523,0 13.146,0 26.292,0 39.438,0 28.764,0 57.528,0 86.292,0 2.556,0 5.112,0 7.669,0 3.996,0 2.891,6.476 2.891,8.661 0,14.701 0,29.401 0,44.101 0,6.569 0,13.139 0,19.708 0,2.186 1.105,8.662-2.891,8.662-7.85,0-15.699,0-23.549,0-30.883,0-61.765,0-92.647,0-6.603,0-13.205,0-19.807,0-2.781,0-9.899,1.466-10.613-2.964-.306-1.906-3.196-1.095-2.891,.797z"/>
<path d="m225.022,120.91c3.307,0 6.613,0 9.92,0 1.935,0 1.935-3 0-3-3.307,0-6.613,0-9.92,0-1.934,0-1.934,3 0,3z"/>
<path d="m225.022,115.834c3.307,0 6.613,0 9.92,0 1.935,0 1.935-3 0-3-3.307,0-6.613,0-9.92,0-1.934,0-1.934,3 0,3z"/>
<path d="m225.022,125.986c3.307,0 6.613,0 9.92,0 1.935,0 1.935-3 0-3-3.307,0-6.613,0-9.92,0-1.934,0-1.934,3 0,3z"/>
<path d="m147.314,133.167c3.307,0 6.613,0 9.92,0 1.935,0 1.935-3 0-3-3.307,0-6.613,0-9.92,0-1.934,0-1.934,3 0,3z"/>
<path d="m175.483,133.167c3.307,0 6.613,0 9.919,0 1.935,0 1.935-3 0-3-3.307,0-6.613,0-9.919,0-1.935,0-1.935,3 0,3z"/>
<path d="m204.432,133.167c3.307,0 6.613,0 9.92,0 1.935,0 1.935-3 0-3-3.307,0-6.613,0-9.92,0-1.935,0-1.935,3 0,3z"/>
<path d="m212.905,123.471c-.627,1.514-9.344,.515-10.896,.515-7.723,0-15.445,0-23.168,0-7.362,0-14.724,0-22.086,0-2.082,0-4.164,0-6.247,0-2.125,0-1.693-.469-1.693-2.716 0-.848-.487-6.436 .439-6.436 1.657,0 3.314,0 4.971,0 6.886,0 13.772,0 20.659,0 12.51,0 25.021,0 37.53,0 .91,0 .438,7.83 .438,9.036 0,1.935 3,1.935 3,0 0-3.012 1.764-12.036-3.298-12.036-4.312,0-8.623,0-12.935,0-14.934,0-29.867,0-44.801,0-3.404,0-7.415-.988-8.95,2.717-.873,2.105-.054,6.007-.054,8.266 0,2.018 .755,4.169 3.198,4.169 11.933,0 23.866,0 35.799,0 7.139,0 14.277,0 21.416,0 3.497,0 7.988,1.105 9.57-2.717 .741-1.788-2.163-2.559-2.892-.798z"/>
<path d="m127.356,120.91c3.307,0 6.613,0 9.92,0 1.935,0 1.935-3 0-3-3.307,0-6.613,0-9.92,0-1.935,0-1.935,3 0,3z"/>
<path d="m127.356,115.834c3.307,0 6.613,0 9.92,0 1.935,0 1.935-3 0-3-3.307,0-6.613,0-9.92,0-1.935,0-1.935,3 0,3z"/>
<path d="m127.356,125.986c3.307,0 6.613,0 9.92,0 1.935,0 1.935-3 0-3-3.307,0-6.613,0-9.92,0-1.935,0-1.935,3 0,3z"/>
<path d="m121.722,152c39.147,0 78.295,0 117.442,0 6.448,0 6.448-10 0-10-39.147,0-78.295,0-117.442,0-6.449,0-6.449,10 0,10z"/>
<path d="m225.478,231.802c-.506,1.102-15.009,.032-16.371,.032-11.879,0-23.758,0-35.637,0-10.429,0-20.859,0-31.288,0-2.212,0-4.424,0-6.636,0-.445,0-.213-.075 .101,.693-.407-.997-.814-1.994-1.221-2.991-.912-2.233-1.823-4.467-2.734-6.701-.118,.899-.235,1.798-.353,2.697 .475-1.032 14.048-.032 15.319-.032 11.25,0 22.5,0 33.751,0 11.25,0 22.5,0 33.751,0 1.271,0 14.844-1 15.318,.032-.117-.899-.235-1.798-.353-2.697-1.333,3.268-2.667,6.535-4,9.803-1.706,4.182 5.068,5.982 6.75,1.861 2.157-5.286 7.968-14.375-1.444-15.874-2.544-.405-5.276-.125-7.839-.125-14.062,0-28.123,0-42.184,0-14.062,0-28.123,0-42.184,0-2.562,0-5.295-.28-7.839,.125-9.412,1.499-3.601,10.588-1.444,15.874 2.469,6.05 11.587,4.335 16.928,4.335 11.181,0 22.363,0 33.544,0 11.388,0 22.777,0 34.166,0 4.688,0 15.499,1.814 17.943-3.499 1.873-4.071-4.16-7.63-6.044-3.533z"/>
<path d="m84.95,252.988c-7.91-.532-5.186-16.387-5.186-21.503 0-14.594 0-29.187 0-43.779 0-24.468 0-48.936 0-73.403 0-7.307 8.537-5.8 13.447-5.8 10.969,0 21.938,0 32.908,0 31.835,0 63.671,0 95.506,0 18.102,0 36.202,0 54.304,0 7.788,0 5.192,16.192 5.192,20.83 0,14.487 0,28.975 0,43.462 0,24.744 0,49.488 0,74.232 0,7.356-8.011,5.961-13.014,5.961-10.835,0-21.671,0-32.506,0-50.208,0-100.416,0-150.624,0-.008-0-.018-0-.027-0-6.449,0-6.449,10 0,10 49.659,0 99.317,0 148.976,0 11.102,0 22.204,0 33.306,0 8.689,0 17.717,.648 22.406-8.697 3.187-6.351 1.483-16.718 1.483-23.49 0-14.695 0-29.392 0-44.087 0-24.185 0-48.369 0-72.553 0-8.85-6.593-15.08-15.186-15.658-1.352-.091-2.741,0-4.095,0-9.405,0-18.811,0-28.216,0-52.567,0-105.134,0-157.701,0-6.304,0-11.797,2.96-14.676,8.697-1.622,3.232-1.483,6.694-1.483,10.172 0,11.157 0,22.313 0,33.47 0,29.31 0,58.62 0,87.93 0,2.853 0,5.705 0,8.559 0,8.85 6.592,15.079 15.186,15.657 6.441,.434 6.399-9.569 0-10z"/>
<path d="m177.725,169.596c5.257,6.948 5.257,14.27 0,21.218-5.501,7.27-6.534,15.341-2.825,23.619 1.842,4.113 7.873,.55 6.044-3.533-3.993-8.915 2.261-14.351 5.856-21.664 3.867-7.865 2.144-16.334-3.031-23.173-2.687-3.551-8.77-.069-6.044,3.533z"/>
<path d="m196.215,174.938c4.546,6.023 4.546,12.247 0,18.27-4.953,6.563-5.764,13.756-2.489,21.227 1.809,4.126 7.839,.56 6.045-3.533-3.503-7.991 2.477-12.783 5.482-19.398 3.121-6.866 1.448-14.212-2.993-20.098-2.684-3.556-8.767-.075-6.045,3.532z"/>
<path d="m158.215,174.938c4.545,6.023 4.545,12.247 0,18.27-4.954,6.563-5.766,13.756-2.489,21.227 1.809,4.126 7.839,.559 6.044-3.533-3.504-7.99 2.477-12.783 5.483-19.398 3.12-6.866 1.448-14.212-2.994-20.098-2.682-3.556-8.765-.075-6.044,3.532z"/>
</g>
</svg>
