<svg xmlns="http://www.w3.org/2000/svg" viewBox="20 20 321 321">
<g fill="#fff">
<path d="m180.818,193.854c.158-.518 1.522-.391 .307-.391-.606,0-1.211,0-1.817,0-2.438,0-4.875,0-7.313,0-7.513,0-15.027,0-22.54,0-14.283,0-28.566,0-42.85,0-.947,0-1.894,0-2.841,0 1.205,0 1.054,2.219 1.054,.492 0-.732 0-1.467 0-2.199 0-2.284 0-4.568 0-6.854 0-.732 0-1.467 0-2.199 0-1.727 .151,.492-1.054,.492 .28,0 .561,0 .843,0 1.868,0 3.736,0 5.605,0 15.419,0 30.838,0 46.256,0 7.478,0 14.955,0 22.434,0 .74,0 1.482,0 2.224,0 1.467,0-.437-2.131-.437-.492 0,4.041 0,8.08 0,12.121 0,4.714 7.308,4.714 7.308,0 0-4.945 2.079-15.098-3.088-18.125-2.809-1.646-7.826-.813-10.867-.813-15.646,0-31.292,0-46.937,0-6.371,0-12.741,0-19.111,0-4.26,0-10.484-.098-10.484,5.947 0,4.945-2.08,15.099 3.088,18.125 2.809,1.646 7.826,.813 10.868,.813 15.325,0 30.65,0 45.975,0 6.519,0 13.037,0 19.556,0 4.532,0 9.223,.436 10.871-4.975 1.374-4.521-5.68-6.439-7.05-1.942z"/>
<path d="m253.208,196.236c0,10.102-8.187,18.289-18.288,18.289s-18.288-8.188-18.288-18.289h36.576z"/>
<path d="m281.894,195.65c-.114,.988-15.102,.332-16.169,.332-13.179,0-26.356,0-39.535,0-31.136,0-62.271,0-93.407,0-8.494,0-16.988,0-25.482,0-2.087,0-2.231,.052-1.929-2.223 .914-6.881 1.828-13.763 2.742-20.644 .767-5.776 1.534-11.552 2.301-17.328 .152-1.146 2.889-.613 3.67-.613 9.712,0 19.425,0 29.138,0 31.477,0 62.954,0 94.432,0 11.284,0 22.568,0 33.854,0 2.236,0 4.473,0 6.709,0 1.34,0 1.179,7.766 1.255,8.755 .805,10.574 1.613,21.148 2.421,31.721 .487,6.388 10.491,6.435 10,0-.935-12.233-1.868-24.466-2.803-36.699-.5-6.55-2.41-13.777-10.602-13.777-1.66,0-3.319,0-4.979,0-26.29,0-52.579,0-78.869,0-26.289,0-52.579,0-78.868,0-1.66,0-3.319,0-4.979,0-8.259,0-9.936,7.278-10.798,13.777-1.625,12.233-3.25,24.466-4.874,36.699-.844,6.358 6.009,10.332 11.382,10.332 2.763,0 5.527,0 8.29,0 11.713,0 23.427,0 35.14,0 31.613,0 63.225,0 94.838,0 9.759,0 19.518,0 29.277,0 8.034,0 16.624,.266 17.845-10.332 .737-6.399-9.271-6.329-10-0z"/>
<path d="m109.545,209.439c7.228,0 14.456,0 21.684,0 4.514,0 4.514-7 0-7-7.228,0-14.456,0-21.684,0-4.514,0-4.514,7-0,7z"/>
<path d="m110.908,207.485c-.363,3.009-11.12,4.207-13.181,4.562-8.247,1.417-16.71,1.72-25.061,1.759-1.934,.009-1.935,3.009 0,3 10.341-.048 20.81-.584 30.928-2.863 3.441-.775 9.789-2.11 10.313-6.457 .232-1.919-2.77-1.896-2.999-.001z"/>
<path d="m110.162,207.158c.064,3.306-10.041,5.796-12.206,6.489-8.1,2.594-16.558,4.118-24.959,5.339-1.908,.277-1.094,3.168 .798,2.893 10.103-1.468 20.261-3.413 29.84-7.032 3.13-1.183 9.61-3.413 9.527-7.688-.037-1.932-3.037-1.936-3-.001z"/>
<path d="m110.9,207.182c.473,2.883-8.868,6.789-10.706,7.694-7.734,3.809-16.034,6.523-24.293,8.933-1.853,.54-1.064,3.436 .798,2.893 9.722-2.836 19.407-6.168 28.361-10.953 3.174-1.696 9.469-4.874 8.732-9.363-.312-1.907-3.203-1.096-2.892,.796z"/>
<path d="m122.03,208.539c1.822,.121-5.325,22.414-5.874,23.861-.688,1.812 2.214,2.588 2.893,.797 1.117-2.944 11.242-27.109 2.981-27.658-1.932-.129-1.92,2.872 0,3z"/>
<path d="m123.731,210.121c2.821-.169-1.188,21.13-1.502,22.518-.426,1.884 2.466,2.684 2.893,.797 .737-3.26 6.783-26.804-1.39-26.314-1.922,.114-1.934,3.114-.001,2.999z"/>
<path d="m125.097,211.773c3.159-.584 2.52,19.491 2.415,21.151-.122,1.933 2.879,1.921 3,0 .235-3.744 2.21-25.603-6.213-24.044-1.9,.352-1.093,3.243 .798,2.893z"/>
<path d="m132.26,208.964c7.944-1.192 16.302,3.889 21.556,9.402 1.337,1.403 3.455-.722 2.121-2.121-6.101-6.402-15.387-11.538-24.475-10.174-1.907,.286-1.094,3.177 .798,2.893z"/>
<path d="m131.961,209.29c9.705-1.805 21.452,3.216 29.831,7.558 1.715,.889 3.232-1.7 1.514-2.59-9.268-4.804-21.475-9.844-32.142-7.86-1.901,.353-1.093,3.244 .797,2.892z"/>
<path d="m131.198,209.193c5.049-1.138 10.708-.206 15.745,.514 7.383,1.056 14.671,2.831 21.81,4.968 1.858,.557 2.646-2.34 .798-2.893-7.657-2.292-15.438-4.057-23.352-5.188-5.122-.732-10.684-1.447-15.799-.294-1.887,.426-1.087,3.318 .798,2.893z"/>
<path d="m102.323,182.488c49.837,0 99.674,0 149.512,0 10.664,0 21.329,0 31.993,0 1.935,0 1.935-3 0-3-49.837,0-99.675,0-149.512,0-10.665,0-21.329,0-31.994,0-1.934,.001-1.934,3 .001,3z"/>
<path d="m124.64,150.016c19.103,0 38.205,0 57.308,0 4.514,0 4.514-7 0-7-19.103,0-38.205,0-57.308,0-4.515,0-4.515,7-0,7z"/>
</g>
</svg>
