<svg xmlns="http://www.w3.org/2000/svg" viewBox="20 20 321 321">
<path fill="#fff" d="m244.121,135.03c3.304,0 5.991,2.688 5.992,5.992l-.001,71.332c0,.139 .01,.277 .028,.415l2.384,17.077 2.349,16.831c.034,.243 .099,.482 .19,.71l6.357,15.711 6.96,17.201c.614,1.519 .521,2.889-.275,4.071-.948,1.406-2.782,2.352-4.563,2.352-1.265,0-2.966-.48-3.892-2.769l-4.207-10.395-4.921-12.162-4.627-11.438c-.246-.607-.373-1.189-.388-1.781-.003-.113-.012-.227-.027-.34l-2.417-17.308-1.219-8.735c-.207-1.481-1.475-2.585-2.972-2.585h-2.553c-1.521,0-2.802,1.139-2.979,2.649l-4.36,37.099-3.091,26.294c-.435,3.696-3.621,3.983-4.588,3.983-1.559,0-3.021-.597-3.91-1.598-.769-.863-1.076-2.002-.914-3.381l4.531-38.547 3.746-31.869c.017-.138 .022-.276 .02-.414-.001-.083-.006-.165-.013-.265v-31.52c0-.953-.453-1.85-1.221-2.415-.521-.385-1.146-.585-1.779-.585-.298,0-.597,.044-.889,.135l-29.106,9.021c-.312,.097-.607,.146-.878,.146-1.416,0-2.148-1.44-2.295-2.408-.143-.942 .027-2.171 1.644-2.672l21.096-6.537 6.356-1.97c.94-.292 1.679-1.026 1.974-1.965l3.44-10.939 .03-.095c.301-.958 .103-2.003-.528-2.784l-5.243-6.496-10.383-12.862c-.645-.798-.769-1.583-.378-2.399 .487-1.02 1.637-1.788 2.674-1.788 .647,0 1.211,.309 1.723,.943l4.037,5.001 4.393,5.442c.581,.719 1.446,1.116 2.336,1.116 .333,0 .671-.056 .998-.171 1.199-.423 2.001-1.557 2.001-2.829v-3.51c0-1.6 .623-3.105 1.755-4.237 1.132-1.131 2.636-1.755 4.236-1.755h13.367m0-2.997h-13.367c-4.965,0-8.992,4.026-8.991,8.992v3.51c-2.81-3.481-5.62-6.962-8.43-10.443-1.174-1.454-2.627-2.059-4.058-2.059-4.083,0-7.978,4.923-4.631,9.071 5.21,6.452 10.418,12.905 15.627,19.358-1.156,3.678-2.313,7.355-3.47,11.033-9.151,2.836-18.302,5.672-27.452,8.507-6.258,1.939-4.084,10.946 1.539,10.946 .557,0 1.146-.089 1.766-.28 9.703-3.007 19.404-6.014 29.107-9.021v31.576c0,.092 .012,.18 .014,.271-2.822,24.003-5.443,46.318-8.277,70.416-.631,5.368 3.609,8.329 7.804,8.329 3.534,0 7.035-2.101 7.567-6.634 2.555-21.732 4.938-42.013 7.451-63.392h2.553c1.588,11.376 .867,6.208 3.636,26.043 .022,.897 .206,1.845 .606,2.833 9.345,23.098 4.406,10.893 13.754,33.992 1.322,3.27 3.971,4.644 6.673,4.644 4.93,0 10.039-4.569 7.62-10.548-9.191-22.721-4.578-11.311-13.317-32.912-3.297-23.623-1.714-12.275-4.732-33.908l.001-71.332c-.002-4.966-4.026-8.992-8.993-8.992z"/>
<path fill="none" stroke="#fff" stroke-width="10" d="m75.163,280.715c0,3.408 2.712,6.168 6.058,6.168h92.89c3.346,0 6.058-2.76 6.058-6.168v-200.096c0-3.406-2.712-6.167-6.058-6.167h-92.89c-3.346,0-6.058,2.761-6.058,6.167v200.096z"/>
<path fill="#fff" d="m178.169,175.47c-3.333,0-6.667,0-10,0-6.449,0-6.449,10 0,10 3.333,0 6.667,0 10,0 6.448,.001 6.448-10 0-10z"/>
<path fill="none" stroke="#fff" stroke-width="10" d="m76.835,279.805c0-3.314 2.687-6 6-6h91.333c3.313,0 6,2.686 6,6v.666c0,3.313-2.687,6-6,6h-91.333c-3.313,0-6-2.688-6-6v-.666z"/>
<g fill="#fff">
<path d="m218.36,125.355c-2.806-1.167-9.454-5.606-12.526-2.663-4.449,4.262-.75,10.486-2.883,15.591-2.641,6.322-5.237,12.664-7.854,18.996-4.021,9.738-8.043,19.476-12.063,29.214-2.235,5.413-4.143,10.202-7.112,14.786-1.055,1.629 1.543,3.131 2.591,1.514 2.563-3.958 4.184-7.678 5.983-12.037 3.625-8.779 7.25-17.558 10.875-26.337 3.088-7.477 6.176-14.954 9.268-22.429 .826-1.996 1.993-4.201 2.151-6.363 .166-2.262-1.806-10.564 1.644-10.889 2.779-.262 6.589,2.453 9.13,3.509 1.786,.744 2.556-2.16 .796-2.892z"/>
<path d="m217.004,114.975c.023,.192-.027-.192 0,0 1.442,9.691 10.297,15.417 19.987,13.975 9.692-1.442 16.379-10.466 14.938-20.158-.029-.192-.08-.375-.115-.565l-34.81,6.748z"/>
<path d="m247.971,100.012c-3.77-5.126-9.47-7.158-16.202-6.156-6.731,1.002-11.175,3.702-13.289,9.702l29.491-3.546z"/>
<path d="m226.289,108.625c.145,.967-.367,1.845-1.141,1.961l-3.817,.571c-.774,.116-1.519-.574-1.664-1.541-.144-.968 .366-1.846 1.14-1.961l3.818-.57c.773-.118 1.519,.573 1.664,1.54z"/>
</g>
</svg>
