<svg xmlns="http://www.w3.org/2000/svg" viewBox="20 20 321 321">
<path fill="none" stroke="#fff" stroke-width="10" d="m217.649,205.808c0,2.269-1.841,4.11-4.11,4.11h-68.041c-2.27,0-4.109-1.842-4.109-4.11v-75.348c0-2.27 1.84-4.11 4.109-4.11h68.041c2.27,0 4.11,1.84 4.11,4.11v75.348z"/>
<g fill="#fff">
<path d="m206.491,194.785c-18.201,0-36.402,0-54.604,0-4.514,0-4.514,7 0,7 18.201,0 36.402,0 54.604,0 4.514,0 4.514-7 0-7z"/>
<path d="m206.491,185.525c-18.201,0-36.402,0-54.604,0-4.514,0-4.514,7 0,7 18.201,0 36.402,0 54.604,0 4.514,0 4.514-7 0-7z"/>
<path d="m206.491,175.555c-18.201,0-36.402,0-54.604,0-4.514,0-4.514,7 0,7 18.201,0 36.402,0 54.604,0 4.514,0 4.514-7 0-7z"/>
<path d="m206.491,166.296c-18.201,0-36.402,0-54.604,0-4.514,0-4.514,7 0,7 18.201,0 36.402,0 54.604,0 4.514,0 4.514-7 0-7z"/>
<path d="m206.491,157.037c-18.201,0-36.402,0-54.604,0-4.514,0-4.514,7 0,7 18.201,0 36.402,0 54.604,0 4.514,0 4.514-7 0-7z"/>
<path d="m206.491,147.066c-18.201,0-36.402,0-54.604,0-4.514,0-4.514,7 0,7 18.201,0 36.402,0 54.604,0 4.514,0 4.514-7 0-7z"/>
</g>
<path fill="none" stroke="#fff" stroke-width="10" d="m204.592,122.012c0,2.396-1.689,4.339-3.774,4.339h-42.781c-2.084,0-3.774-1.943-3.774-4.339l3.774-42.428c0-2.396 1.69-4.339 3.775-4.339h35.23c2.085,0 3.775,1.943 3.775,4.339l3.775,42.428z"/>
<g fill="#fff">
<path d="m156.874,119.642c15.194,0 30.388,0 45.582,0 4.514,0 4.514-7 0-7-15.193,0-30.388,0-45.582,0-4.515,0-4.515,7 0,7z"/>
<path d="m113.742,128.887c-17.101,17.727-17.101,45.38 0,63.107 4.484,4.648 11.547-2.431 7.071-7.07-13.303-13.79-13.303-35.176 0-48.965 4.477-4.641-2.586-11.72-7.071-7.072z"/>
<path d="m102.734,117.724c-23.149,23.761-23.15,61.518 0,85.279 4.506,4.626 11.572-2.451 7.071-7.07-19.345-19.857-19.345-51.281 0-71.137 4.501-4.62-2.565-11.697-7.071-7.072z"/>
<path d="m91.504,107.378c-28.878,29.476-28.878,76.806 0,106.282 4.519,4.612 11.585-2.463 7.071-7.07-25.071-25.59-25.071-66.551 0-92.14 4.515-4.608-2.552-11.684-7.071-7.072z"/>
<path d="m223.388,288.417c22.579-32.703 45.159-65.407 67.738-98.11 5.504-7.972-7.529-15.41-12.99-7.5-22.579,32.703-45.159,65.407-67.738,98.11-5.504,7.972 7.529,15.41 12.99,7.5z"/>
<path d="m220.643,278.172c-9.786-7.022-19.571-14.046-29.357-21.068-3.325-2.387-8.354-.532-10.245,2.745-2.194,3.8-.573,7.864 2.745,10.245 9.786,7.022 19.571,14.046 29.357,21.068 3.325,2.387 8.354,.532 10.245-2.745 2.194-3.8 .573-7.864-2.745-10.245z"/>
</g>
</svg>
