<svg xmlns="http://www.w3.org/2000/svg" viewBox="20 20 321 321">
<path fill="none" stroke="#fff" stroke-width="10" d="m114.321,182.378c0-3.098 2.69-5.609 6.009-5.609h121.828c3.318,0 6.008,2.512 6.008,5.609v98.959c0,3.098-2.689,5.609-6.008,5.609h-121.828c-3.318,0-6.009-2.512-6.009-5.609v-98.959z"/>
<g fill="#fff">
<path d="m115.958,266.805c22.558,0 45.117,0 67.675,0 6.448,0 6.448-10 0-10-22.558,0-45.117,0-67.675,0-6.449,0-6.449,10 0,10z"/>
<path d="m119.13,239.693c21.501,0 43.002,0 64.503,0 6.448,0 6.448-10 0-10-21.501,0-43.002,0-64.503,0-6.449,0-6.449,10 0,10z"/>
<path d="m119.13,212.582c21.501,0 43.002,0 64.503,0 6.448,0 6.448-10 0-10-21.501,0-43.002,0-64.503,0-6.449,0-6.449,10 0,10z"/>
<path d="m165.477,110.976c3.986-3.986 7.972-7.972 11.958-11.958 2.516-2.516 5.032-5.031 7.547-7.547 .774-.774 1.548-1.548 2.322-2.323 1.539-1.539-.845,.385 .164-.137-1.844,.953 .084,.055 .502-.072 .78-.238 1.579-.418 2.373-.604 1.914-.451 3.861-.769 5.803-1.074 4.12-.649 8.314-.963 12.482-1.042 .74-.014 4.853,.353 3.004,.033 1.431,.248-2.602-2.016-1.683-1.097 1.324,1.325 2.648,2.649 3.973,3.974 10.319,10.319 20.639,20.639 30.958,30.958 1.175,1.175 2.35,2.35 3.524,3.524 .972,.972-1.523-3.285-1.164-1.779-.476-1.995-.02,.023 .008,.489 .065,1.114 .039,2.234 .019,3.349-.074,3.886-.446,7.805-1.016,11.648-.288,1.947-.654,3.881-1.074,5.803-.174,.798-.387,1.586-.604,2.373-.126,.44-.266,.876-.419,1.308 .391-.855 .423-.956 .097-.302 .766-1.481 .779-.977 .047-.245-.774,.774-1.548,1.548-2.322,2.323-2.516,2.516-5.031,5.031-7.547,7.547-3.986,3.986-7.972,7.972-11.958,11.958-6.835,6.835 3.813,17.403 10.666,10.551 3.985-3.986 7.971-7.972 11.957-11.958 3.858-3.859 8.967-7.677 11.931-12.336 4.091-6.429 4.339-16.261 4.967-23.575 .502-5.841 1.341-13.444-3.18-17.964-9.419-9.42-18.838-18.839-28.258-28.259-3.389-3.389-6.777-6.778-10.166-10.167-4.72-4.719-13.731-3.235-19.678-2.671-5.958,.565-12.229,1.238-17.93,3.165-3.65,1.233-5.844,3.43-8.463,6.05-6.501,6.501-13.003,13.003-19.505,19.504-6.836,6.837 3.813,17.405 10.665,10.553z"/>
</g>
</svg>
