<svg xmlns="http://www.w3.org/2000/svg" viewBox="20 20 321 321">
<g fill="#fff">
<path d="m180.744,155.583-.244-81 106.801,81z"/>
<path d="m185.744,155.583c-.081-27-.163-54-.244-81-2.508,1.439-5.016,2.878-7.523,4.317 35.59,26.992 71.18,53.984 106.77,80.976 .011,.008 .021,.016 .031,.024 .841-3.106 1.683-6.211 2.523-9.317-35.519,0-71.038,0-106.557,0-6.449,0-6.449,10 0,10 35.519,0 71.038,0 106.557,0 5.402,0 6.252-6.489 2.523-9.317-35.59-26.992-71.18-53.984-106.77-80.976-.011-.008-.021-.016-.031-.024-3.125-2.371-7.534,.868-7.523,4.317 .082,27 .163,54 .244,81 .02,6.448 10.02,6.45 10,0z"/>
<path d="m180.256,155.583 .244-80.999-106.801,80.999z"/>
<path d="m185.256,155.583c.081-27 .163-54 .244-81 .011-3.45-4.397-6.688-7.523-4.317-35.59,26.992-71.18,53.984-106.77,80.976-.011,.008-.021,.016-.031,.023-3.729,2.828-2.879,9.317 2.523,9.317 35.519,0 71.038,0 106.557,0 6.448,0 6.448-10 0-10-35.519,0-71.038,0-106.557,0 .841,3.106 1.683,6.211 2.523,9.317 35.59-26.992 71.18-53.984 106.77-80.976 .011-.008 .021-.016 .031-.023-2.508-1.439-5.016-2.878-7.523-4.317-.082,27-.163,54-.244,81-.02,6.45 9.98,6.448 10,0z"/>
</g>
<path fill="none" stroke="#fff" stroke-width="10" d="m268.5,278.988c0,3.919-3.927,7.096-8.771,7.096h-157.791c-4.844,0-8.771-3.177-8.771-7.096v-129.381c0-3.918 175.333-3.918 175.333,0v129.381z"/>
<g fill="#fff">
<path d="m145.018,230.775c.213-.662 1.432-.511 .219-.511-.886,0-1.772,0-2.658,0-2.224,0-4.448,0-6.671,0-1.612,0-3.224,0-4.835,0-.898,0 .728,2.24 .728,1.001 0-.594 0-1.188 0-1.781 0-7.535 0-15.069 0-22.604 0,1.549-1.775,1.391-.344,1.391 .886,0 1.772,0 2.658,0 2.532,0 5.063,0 7.595,0 1.384,0 2.769,0 4.153,0-1.09,0-.969-2.343-.969-.673 0,.691 0,1.384 0,2.075 0,7.345 0,14.688 0,22.033 0,4.514 7,4.514 7,0 0-4.146 0-8.292 0-12.438 0-3.919 1.098-9.568-.125-13.369-1.864-5.794-8.055-4.628-12.926-4.628-5.035,0-11.977-1.403-13.917,4.628-1.136,3.531-.125,8.752-.125,12.388 0,4.474 0,8.946 0,13.42 0,6.759 8.678,5.559 13.051,5.559 5.035,0 11.977,1.403 13.917-4.628 1.386-4.311-5.374-6.142-6.751-1.863z"/>
<path d="m172.783,230.032c-.042,.242 1.561,.232-.292,.232-1.313,0-2.627,0-3.941,0-2.731,0-5.463,0-8.195,0-.586,0-1.172,0-1.759,0 1.172,0 .969,1.232 .969-.215 0-1.78 0-3.561 0-5.341 0-9.19 0-18.381 0-27.571 0,.84-1.772,.66 .167,.66 1.313,0 2.627,0 3.941,0 2.731,0 5.463,0 8.195,0 .586,0 1.172,0 1.759,0-1.173,0-.969-1.232-.969,.215 0,1.78 0,3.561 0,5.341 0,9.203 0,18.406 0,27.609 0,4.514 7,4.514 7,0 0-10.983 0-21.967 0-32.95 0-6.587-4.939-7.215-10.184-7.215-5.453,0-15.468-2.089-16.784,5.371-.808,4.581-.125,9.771-.125,14.398 0,6.494 0,12.988 0,19.482 0,6.588 4.939,7.215 10.185,7.215 5.453,0 15.467,2.089 16.783-5.371 .778-4.412-5.967-6.299-6.75-1.86z"/>
<path d="m200.58,230.005c.76,.171 .905,.244 .438,.22-.494,0-.989,0-1.483,0-1.714,0-3.428,0-5.142,0-2.609,0-5.219,0-7.828,0 .942,0 .798,1.241 .798,.016 0-.82 0-1.642 0-2.462 0-2.648 0-5.297 0-7.945 0-11.316 0-22.633 0-33.948 0,.968-1.244,.684 .921,.684 1.714,0 3.428,0 5.142,0 2.609,0 5.219,0 7.828,0-.942,0-.798-1.244-.798-.018 0,.82 0,1.642 0,2.462 0,2.942 0,5.884 0,8.826 0,11.032 0,22.064 0,33.097 0,4.514 7,4.514 7,0 0-12.426 0-24.851 0-37.276 0-4.817 1.08-10.228-3.334-13.394-1.836-1.316-5.763-.697-7.829-.697-3.242,0-6.485,0-9.728,0-6.507,0-6.202,6.676-6.202,11.232 0,7.511 0,15.021 0,22.531 0,5.718 0,11.436 0,17.154 0,7.647 7.736,6.738 13.063,6.738 5.1,0 12.628,1.372 13.905-5.358 .836-4.412-5.91-6.294-6.751-1.862z"/>
<path d="m228.309,230.057c-.023,.12 1.377,.127 .112,.127-.608,0-1.218,0-1.826,0-1.815,0-3.631,0-5.445,0-1.727,0-3.453,0-5.181,0-.498,0-.996,0-1.494,0-.824,0 .615,1.275 .615,.607 0-4.552 0-9.103 0-13.654 0-14.23 0-28.461 0-42.691 0-.648 0-1.296 0-1.944 0-1.137-.938,.266-.615,.266 3.491,0 6.981,0 10.472,0 1.284,0 2.568,0 3.853,0 .323,0-.615-1.403-.615-.266 0,1.909 0,3.819 0,5.728 0,14.816 0,29.634 0,44.45 0,2.77 0,5.538 0,8.308 0,4.514 7,4.514 7,0 0-11.651 0-23.304 0-34.955 0-6.716 0-13.432 0-20.147 0-4.339-.167-10.118-6.147-10.118-2.952,0-5.903,0-8.854,0-2.264,0-6.756-.753-8.792,.689-4.103,2.907-3.3,7.341-3.3,11.773 0,14.816 0,29.634 0,44.45 0,4.881-1.472,14.504 6.065,14.504 5.854,0 19.358,2.776 20.903-5.266 .845-4.41-5.901-6.291-6.751-1.861z"/>
<path d="m145.878,274.41l-1.593-6.863h-9.062l-1.538,6.863h-7.029c1.611-5.855 3.24-11.191 4.888-16.008 1.647-4.815 3.24-9.384 4.778-13.703h7.359c1.61,4.352 3.212,8.968 4.805,13.848 1.593,4.881 3.139,10.168 4.641,15.863h-7.249zm-6.041-23.951c-.366,1.12-.706,2.184-1.016,3.191-.312,1.008-.604,2-.878,2.977-.275,.977-.531,1.961-.769,2.951-.238,.992-.467,2.016-.687,3.072h6.645c-.22-1.057-.439-2.08-.659-3.072-.219-.99-.467-1.975-.741-2.951s-.568-1.969-.878-2.977c-.312-1.007-.651-2.071-1.017-3.191z"/>
<path d="m167.24,275.035c-2.196,0-4.036-.264-5.519-.793-1.482-.527-2.664-1.287-3.542-2.279-.879-.992-1.501-2.191-1.867-3.6-.366-1.408-.549-2.977-.549-4.705v-18.959h6.81v18.576c0,1.248 .073,2.295 .219,3.143 .146,.85 .393,1.529 .742,2.041 .347,.512 .832,.881 1.455,1.104 .622,.225 1.409,.336 2.361,.336 .952,0 1.739-.111 2.362-.336 .622-.223 1.116-.6 1.482-1.127 .366-.529 .622-1.217 .769-2.064 .146-.848 .22-1.896 .22-3.145v-18.527h6.754v18.959c0,1.729-.184,3.297-.549,4.705-.367,1.408-1.007,2.607-1.922,3.6-.916,.992-2.124,1.752-3.625,2.279-1.501,.528-3.368,.792-5.601,.792z"/>
<path d="m207.165,244.699v4.896h-8.951v24.815h-6.81v-24.815h-8.951v-4.896h24.712z"/>
<path d="m210.021,259.531c0-5.12 1.078-8.984 3.239-11.593 2.16-2.607 5.163-3.911 9.007-3.911 3.99,0 7.029,1.304 9.115,3.911 2.088,2.608 3.131,6.473 3.131,11.593 0,5.119-1.063,8.984-3.186,11.592s-5.125,3.912-9.006,3.912c-3.991,0-7.039-1.305-9.144-3.912-2.105-2.607-3.156-6.473-3.156-11.592zm6.864,0c0,1.439 .064,2.791 .193,4.055 .127,1.266 .384,2.361 .769,3.289 .384,.928 .924,1.664 1.62,2.207 .695,.545 1.629,.816 2.801,.816 1.135,0 2.059-.271 2.773-.816 .713-.543 1.263-1.287 1.646-2.23 .385-.945 .641-2.041 .77-3.289 .128-1.248 .191-2.592 .191-4.031 0-1.44-.063-2.792-.191-4.057-.129-1.264-.385-2.359-.77-3.288-.384-.928-.924-1.663-1.619-2.208-.696-.543-1.63-.816-2.801-.816-1.172,0-2.105,.273-2.801,.816-.696,.545-1.236,1.289-1.62,2.232-.385,.943-.642,2.039-.769,3.287-.128,1.248-.192,2.593-.192,4.033z"/>
</g>
</svg>
