<svg xmlns="http://www.w3.org/2000/svg" viewBox="20 20 321 321">
<g fill="#fff">
	<path d="M180.942,110.035c-11.13,0-20.184-9.055-20.184-20.184c0-11.128,9.054-20.184,20.184-20.184 c11.128,0,20.181,9.056,20.181,20.184C201.123,100.979,192.07,110.035,180.942,110.035z"/>
	<path d="M160.03,201.737c0,27.075,0,54.153,0,81.231c0,10.85,16.805,10.943,16.805,0.119 c0-27.078,0-54.152,0-81.229C176.834,191.008,160.03,190.914,160.03,201.737L160.03,201.737z"/>
	<path d="M185.229,201.737c0,27.075,0,54.153,0,81.231c0,10.85,16.806,10.943,16.806,0.119 c0-27.078,0-54.152,0-81.229C202.035,191.008,185.229,190.914,185.229,201.737L185.229,201.737z"/>
	<path d="M202.114,203.281c0,5.398-4.376,9.772-9.772,9.772H169.54c-5.397,0-9.771-4.374-9.771-9.772 v-78.457c0-5.397,4.375-9.772,9.771-9.772h22.802c5.396,0,9.772,4.375,9.772,9.772V203.281z"/>
	<path d="M204.369,125.787c0,11.471,0,22.942,0,34.414c0,7.825,12.133,7.825,12.133,0 c0-11.472,0-22.943,0-34.414C216.502,117.963,204.369,117.963,204.369,125.787L204.369,125.787z"/>
	<path d="M204.369,160.201c0,11.472,0,22.943,0,34.415c0,7.823,12.133,7.823,12.133,0 c0-11.472,0-22.943,0-34.415C216.502,152.377,204.369,152.377,204.369,160.201L204.369,160.201z"/>
	<path d="M145.379,125.786c0,11.472,0,22.942,0,34.415c0,7.824,12.133,7.824,12.133,0 c0-11.472,0-22.942,0-34.415C157.513,117.962,145.379,117.962,145.379,125.786L145.379,125.786z"/>
	<path d="M145.379,160.201c0,11.472,0,22.944,0,34.416c0,7.823,12.133,7.823,12.133,0 c0-11.472,0-22.943,0-34.416C157.513,152.375,145.379,152.375,145.379,160.201L145.379,160.201z"/>
</g>
</svg>
