<svg xmlns="http://www.w3.org/2000/svg" viewBox="20 20 321 321">
  <path d="m263.592,237.195c-.254,11.588-7.394,21.571-18.427,25.297-3.953,1.335-7.983,1.266-12.072,1.266-12.303,0-24.605,0-36.909,0-23.792,0-47.584,0-71.376,0-11.548,0-21.632-7.571-25.297-18.426-1.334-3.954-1.265-7.984-1.265-12.073 0-12.303 0-24.606 0-36.909 0-23.792 0-47.584 0-71.377 0-11.548 7.571-21.632 18.426-25.297 3.954-1.335 7.984-1.266 12.073-1.266 12.303,0 24.606,0 36.909,0 23.792,0 47.585,0 71.377,0 11.548,0 21.632,7.572 25.297,18.426 1.335,3.954 1.266,7.984 1.266,12.073 0,12.303 0,24.606 0,36.909-.002,23.792-.002,47.585-.002,71.377 0,6.448 10,6.448 10,0 0-23.792 0-47.585 0-71.377 0-12.303 0-24.606 0-36.909 0-15.611-6.131-29.773-20.843-36.934-9.375-4.563-20.073-3.565-30.189-3.565-15.042,0-30.084,0-45.125,0-14.228,0-28.456,0-42.684,0-3.176,0-6.353,0-9.528,0-8.913,0-16.864,3.087-23.837,8.516-11.256,8.764-13.14,22.028-13.14,35.198 0,13.507 0,27.015 0,40.522 0,15.484 0,30.967 0,46.451 0,9.007-.909,18.776 1.247,27.602 4.215,17.247 20.607,27.06 37.498,27.06 11.303,0 22.607,0 33.91,0 25.28,0 50.56,0 75.84,0 20.338,0 36.411-16.445 36.852-36.563 .14-6.453-9.861-6.439-10.001-.001z"
     style="fill:#F4F4F4; stroke:#F4F4F4;" />
  <path style="fill:#00000;stroke-width:0.283319"
     d="m 100.53323,243.2381 c -5.567876,-1.01925 -10.314979,-3.50482 -14.294935,-7.48478 -3.470018,-3.47002 -5.927297,-7.77607 -7.213204,-12.64016 -0.500504,-1.89321 -0.528463,-4.63123 -0.617673,-60.48827 -0.06525,-40.85406 -9.1e-4,-59.21278 0.213251,-60.85026 1.150486,-8.796663 6.628884,-16.442651 14.637281,-20.42869 3.073816,-1.529938 5.531227,-2.230078 9.09207,-2.59042 2.11804,-0.214336 20.58945,-0.279998 60.69985,-0.215772 l 57.65534,0.09232 2.26655,0.613562 c 8.0746,2.185822 14.13113,7.036136 17.67392,14.153981 1.52974,3.073425 2.22998,5.530885 2.59075,9.092069 0.21508,2.12317 0.27773,20.44935 0.20699,60.55819 -0.11015,62.45953 -0.004,58.22592 -1.57921,62.76144 -2.4498,7.05209 -8.55508,13.4193 -15.32957,15.98726 -4.84202,1.83544 0.53647,1.68982 -64.75971,1.75326 -47.801,0.0464 -59.60448,-0.014 -61.2417,-0.31373 z"
     transform="translate(20,20)" />
  <path d="m 100.83553,243.07354 c -2.01348,-0.26286 -5.471918,-1.37637 -7.56907,-2.43703 -6.229075,-3.15039 -11.122353,-8.83132 -13.507313,-15.68152 -0.465757,-1.33777 -0.71026,-2.93309 -0.893746,-5.83147 -0.138922,-2.19444 -0.218503,-29.79676 -0.176846,-61.33848 l 0.07574,-57.34859 0.648171,-2.124888 C 82.191041,89.202606 89.367033,82.07721 98.311562,79.545718 l 2.266548,-0.641481 60.0272,-0.07596 60.0272,-0.07596 2.12826,0.597191 c 8.68183,2.436123 15.00944,7.788462 18.3979,15.562227 2.08154,4.775458 1.92871,-0.433115 1.92871,65.729925 0,46.9127 -0.0759,59.7933 -0.36224,61.44489 -0.77631,4.4783 -3.76829,9.95427 -7.45105,13.63703 -2.8985,2.8985 -5.67872,4.69708 -9.5956,6.20759 -2.20887,0.85183 -2.74151,0.93654 -7.36038,1.17052 -6.13246,0.31066 -115.08731,0.28455 -117.48258,-0.0281 z"
     transform="translate(20,20)" />
</svg>
