<svg xmlns="http://www.w3.org/2000/svg" viewBox="20 20 321 321">
<g fill="#fff">
	<path d="M180.849,166.101c-8.986,0-16.299-7.313-16.299-16.299s7.313-16.299,16.299-16.299 c8.987,0,16.297,7.313,16.297,16.299S189.836,166.101,180.849,166.101z"/>
	<path d="M166.165,228.367c0,19.013,0,38.026,0,57.039c0,7.619,11.8,7.685,11.8,0.084 c0-19.014,0-38.025,0-57.037C177.964,220.834,166.165,220.768,166.165,228.367L166.165,228.367z"/>
	<path d="M183.859,228.367c0,19.013,0,38.026,0,57.039c0,7.619,11.801,7.685,11.801,0.084 c0-19.014,0-38.025,0-57.037C195.66,220.834,183.859,220.768,183.859,228.367L183.859,228.367z"/>
	<path d="M195.716,229.451c0,3.791-3.073,6.862-6.862,6.862h-16.011c-3.79,0-6.861-3.071-6.861-6.862V174.36 c0-3.79,3.072-6.862,6.861-6.862h16.011c3.789,0,6.862,3.072,6.862,6.862V229.451z"/>
	<path d="M197.299,175.036c0,8.055,0,16.11,0,24.165c0,5.494,8.52,5.494,8.52,0c0-8.055,0-16.11,0-24.165 C205.818,169.542,197.299,169.542,197.299,175.036L197.299,175.036z"/>
	<path d="M197.553,200.764c2.346,7.707,4.692,15.412,7.039,23.118c1.6,5.255,9.75,2.772,8.15-2.481 c-2.347-7.706-4.693-15.412-7.04-23.118C204.103,193.026,195.951,195.508,197.553,200.764L197.553,200.764z"/>
	<path d="M155.877,175.036c0,8.055,0,16.11,0,24.166c0,5.494,8.52,5.494,8.52,0c0-8.056,0-16.11,0-24.166 C164.397,169.542,155.877,169.542,155.877,175.036L155.877,175.036z"/>
	<path d="M155.947,198.282c-2.341,7.708-4.682,15.416-7.024,23.123c-1.596,5.257,6.556,7.731,8.152,2.477 c2.341-7.708,4.683-15.416,7.024-23.124C165.696,195.501,157.544,193.025,155.947,198.282L155.947,198.282z"/>
	<path d="M207.968,242.232c0,1.552-1.258,2.81-2.81,2.81h-48.62c-1.551,0-2.809-1.258-2.809-2.81 l12.022-42.132c0-1.552,1.258-2.81,2.809-2.81h24.576c1.551,0,2.809,1.258,2.809,2.81L207.968,242.232z"/>
</g>
</svg>
