<svg xmlns="http://www.w3.org/2000/svg" viewBox="20 20 321 321">
<g fill="#fff">
	<path d="M180.849,166.101c-8.986,0-16.299-7.313-16.299-16.299s7.313-16.299,16.299-16.299 c8.987,0,16.297,7.313,16.297,16.299S189.836,166.101,180.849,166.101z"/>
	<path d="M166.165,228.367c0,19.013,0,38.026,0,57.039c0,7.619,11.8,7.685,11.8,0.084 c0-19.014,0-38.025,0-57.037C177.964,220.834,166.165,220.768,166.165,228.367L166.165,228.367z"/>
	<path d="M183.859,228.367c0,19.013,0,38.026,0,57.039c0,7.619,11.801,7.685,11.801,0.084 c0-19.014,0-38.025,0-57.037C195.66,220.834,183.859,220.768,183.859,228.367L183.859,228.367z"/>
	<path d="M195.716,229.451c0,3.791-3.073,6.862-6.862,6.862h-16.011c-3.79,0-6.861-3.071-6.861-6.862V174.36 c0-3.79,3.072-6.862,6.861-6.862h16.011c3.789,0,6.862,3.072,6.862,6.862V229.451z"/>
	<path d="M197.299,175.036c0,8.055,0,16.11,0,24.165c0,5.494,8.52,5.494,8.52,0c0-8.055,0-16.11,0-24.165 C205.818,169.542,197.299,169.542,197.299,175.036L197.299,175.036z"/>
	<path d="M197.387,200.512c1.509,7.912,3.018,15.825,4.526,23.738c1.029,5.396,9.397,3.799,8.37-1.597 c-1.51-7.912-3.019-15.825-4.528-23.738C204.727,193.519,196.357,195.114,197.387,200.512L197.387,200.512z"/>
	<path d="M155.877,175.036c0,8.055,0,16.11,0,24.166c0,5.494,8.52,5.494,8.52,0c0-8.056,0-16.11,0-24.166 C164.397,169.542,155.877,169.542,155.877,175.036L155.877,175.036z"/>
	<path d="M155.943,198.914c-1.51,7.913-3.02,15.826-4.53,23.738c-1.029,5.396,7.339,6.992,8.369,1.598 c1.51-7.912,3.02-15.826,4.529-23.738C165.343,195.115,156.973,193.518,155.943,198.914L155.943,198.914z"/>
</g>
</svg>
