<svg xmlns="http://www.w3.org/2000/svg" viewBox="20 20 321 321">
<g fill="#fff">
<path d="m180.744,155.583-.244-81 106.801,81z"/>
<path d="m185.744,155.583c-.081-27-.163-54-.244-81-2.508,1.439-5.016,2.878-7.523,4.317 35.59,26.992 71.18,53.984 106.77,80.976 .011,.008 .021,.016 .031,.024 .841-3.106 1.683-6.211 2.523-9.317-35.519,0-71.038,0-106.557,0-6.449,0-6.449,10 0,10 35.519,0 71.038,0 106.557,0 5.402,0 6.252-6.489 2.523-9.317-35.59-26.992-71.18-53.984-106.77-80.976-.011-.008-.021-.016-.031-.024-3.125-2.371-7.534,.868-7.523,4.317 .082,27 .163,54 .244,81 .02,6.448 10.02,6.45 10,0z"/>
<path d="m180.256,155.583 .244-80.999-106.801,80.999z"/>
<path d="m185.256,155.583c.081-27 .163-54 .244-81 .011-3.45-4.397-6.688-7.523-4.317-35.59,26.992-71.18,53.984-106.77,80.976-.011,.008-.021,.016-.031,.023-3.729,2.828-2.879,9.317 2.523,9.317 35.519,0 71.038,0 106.557,0 6.448,0 6.448-10 0-10-35.519,0-71.038,0-106.557,0 .841,3.106 1.683,6.211 2.523,9.317 35.59-26.992 71.18-53.984 106.77-80.976 .011-.008 .021-.016 .031-.023-2.508-1.439-5.016-2.878-7.523-4.317-.082,27-.163,54-.244,81-.02,6.45 9.98,6.448 10,0z"/>
</g>
<path fill="none" stroke="#fff" stroke-width="10" d="m268.5,278.988c0,3.919-3.927,7.096-8.771,7.096h-157.791c-4.844,0-8.771-3.177-8.771-7.096v-129.381c0-3.918 175.333-3.918 175.333,0v129.381z"/>
<path fill="#fff" d="m143.607,205.954h77.04v15.522h-77.04z" transform="matrix(.7071 -.7071 .7071 .7071 -97.7751 191.3781)"/>
<path fill="none" stroke="#fff" stroke-width="10" d="m215.15,210.838c0,25.922-16.406,53.415-33.979,53.415-17.573,0-33.979-27.493-33.979-53.415 0-9.452-.266-18.252 2.993-25.617 0,0 19.82-6.634 30.986-6.634 11.149,0 30.961,6.577 30.961,6.577 3.274,7.378 3.018,16.198 3.018,25.674z"/>
</svg>
