<svg xmlns="http://www.w3.org/2000/svg" viewBox="20 20 321 321">
<g stroke="#fff" stroke-width="10">
<path fill="#fff" d="m210.541,191.987c0,9.992-8.027,18.093-17.928,18.093h-23.905c-9.901,0-17.928-8.101-17.928-18.093v-23.575c0-9.992 8.027-18.093 17.928-18.093h23.905c9.9,0 17.928,8.101 17.928,18.093v23.575z"/>
<path fill="none" d="m210.541,191.987c0,9.992-8.027,18.093-17.928,18.093h-23.905c-9.901,0-17.928-8.101-17.928-18.093v-23.575c0-9.992 8.027-18.093 17.928-18.093h23.905c9.9,0 17.928,8.101 17.928,18.093v23.575z"/>
</g>
<g fill="#fff">
<path d="m109.321,185.607c7.71,0 15.42,0 23.13,0 6.449,0 6.449-10 0-10-7.71,0-15.42,0-23.13,0-6.449,0-6.449,10 0,10z"/>
<path d="m125.173,131.965c5.452,5.452 10.904,10.903 16.355,16.355 4.564,4.563 11.635-2.507 7.071-7.071-5.452-5.452-10.904-10.903-16.355-16.355-4.564-4.564-11.635,2.507-7.071,7.071z"/>
<path d="m185.887,132.172c0-7.71 0-15.42 0-23.13 0-6.449-10-6.449-10,0 0,7.71 0,15.42 0,23.13-.001,6.449 10,6.449 10,0z"/>
<path d="m229.563,124.894c-5.452,5.452-10.904,10.904-16.355,16.355-4.564,4.564 2.507,11.635 7.07,7.071 5.452-5.452 10.904-10.904 16.355-16.355 4.565-4.564-2.506-11.635-7.07-7.071z"/>
<path d="m229.355,185.607c7.71,0 15.421,0 23.131,0 6.448,0 6.448-10 0-10-7.71,0-15.421,0-23.131,0-6.448,0-6.448,10 0,10z"/>
<path d="m236.634,229.584c-5.451-5.452-10.903-10.904-16.355-16.355-4.563-4.564-11.635,2.507-7.07,7.07 5.451,5.452 10.903,10.904 16.355,16.355 4.563,4.565 11.634-2.507 7.07-7.07z"/>
<path d="m175.921,229.377c0,7.71 0,15.42 0,23.13 0,6.448 10,6.448 10,0 0-7.71 0-15.42 0-23.13 0-6.448-10-6.448-10,0z"/>
<path d="m132.111,236.889c5.452-5.451 10.903-10.903 16.355-16.355 4.563-4.563-2.507-11.635-7.071-7.07-5.452,5.451-10.903,10.903-16.355,16.355-4.564,4.563 2.507,11.634 7.071,7.07z"/>
</g>
</svg>
