<svg xmlns="http://www.w3.org/2000/svg" viewBox="20 20 321 321">
<g fill="#fff">
	<path d="M180.942,110.035c-11.13,0-20.184-9.055-20.184-20.184c0-11.128,9.054-20.184,20.184-20.184 c11.128,0,20.181,9.056,20.181,20.184C201.123,100.979,192.07,110.035,180.942,110.035z"/>
	<path d="M160.03,201.737c0,27.075,0,54.153,0,81.231c0,10.85,16.805,10.943,16.805,0.119 c0-27.078,0-54.152,0-81.229C176.834,191.008,160.03,190.914,160.03,201.737L160.03,201.737z"/>
	<path d="M185.229,201.737c0,27.075,0,54.153,0,81.231c0,10.85,16.806,10.943,16.806,0.119 c0-27.078,0-54.152,0-81.229C202.035,191.008,185.229,190.914,185.229,201.737L185.229,201.737z"/>
	<path d="M202.114,203.281c0,5.398-4.376,9.772-9.772,9.772H169.54c-5.397,0-9.771-4.374-9.771-9.772 v-78.457c0-5.397,4.375-9.772,9.771-9.772h22.802c5.396,0,9.772,4.375,9.772,9.772V203.281z"/>
	<path d="M204.369,125.787c0,11.471,0,22.942,0,34.414c0,7.825,12.133,7.825,12.133,0 c0-11.472,0-22.943,0-34.414C216.502,117.963,204.369,117.963,204.369,125.787L204.369,125.787z"/>
	<path d="M204.449,160.53c2.01,11.294,4.02,22.589,6.029,33.883c1.371,7.702,13.316,5.576,11.945-2.126 c-2.01-11.294-4.02-22.588-6.029-33.883C215.023,150.702,203.078,152.828,204.449,160.53L204.449,160.53z"/>
	<path d="M145.379,125.786c0,11.472,0,22.942,0,34.415c0,7.824,12.133,7.824,12.133,0 c0-11.472,0-22.942,0-34.415C157.513,117.962,145.379,117.962,145.379,125.786L145.379,125.786z"/>
	<path d="M145.533,158.396c-2.038,11.29-4.077,22.579-6.115,33.868c-1.39,7.698,10.55,9.854,11.94,2.155 c2.038-11.288,4.077-22.578,6.115-33.868C158.864,152.852,146.924,150.696,145.533,158.396L145.533,158.396z"/>
	<path d="M212.441,221.483c0,2.209-1.791,4-4,4h-55c-2.209,0-4-1.791-4-4l10.001-60.002c0-2.209,1.791-4,4-4 h35c2.209,0,4,1.791,4,4L212.441,221.483z"/>
</g>
</svg>
