<svg xmlns="http://www.w3.org/2000/svg" viewBox="20 20 321 321">
<g fill="#fff">
	<path d="m56.04 51.32c-5.808 0-11 4.552-11 10.539v99.21h-.002v5 49.961c-2.722.229-5.069 1.734-6.555 3.629-1.613 2.058-2.443 4.61-2.443 7.326v34.668c0 2.716.83 5.269 2.443 7.326 1.613 2.058 4.237 3.674 7.26 3.674h42.594c3.02 0 5.647-1.616 7.26-3.674 1.613-2.058 2.443-4.61 2.443-7.326v-34.668c0-2.716-.831-5.269-2.443-7.326-1.485-1.895-3.834-3.401-6.557-3.629v-.586-54.37-99.21c0-5.987-5.192-10.539-11-10.539h-22m0 10h22c.818 0 1 .406 1 .539v99.21h-24v-99.21c0-.133.182-.539 1-.539" transform="translate(20 20)"/>
	<g transform="translate(-82.46.982)">
		<path d="m199.5 92.33c6 0 12 0 18 0 6.448 0 6.448-10 0-10-6 0-12 0-18 0-6.448 0-6.448 10 0 10"/>
		<path d="m199.5 132.33c6 0 12 0 18 0 6.448 0 6.448-10 0-10-6 0-12 0-18 0-6.448 0-6.448 10 0 10"/>
		<path d="m199.5 173.33c6 0 12 0 18 0 6.448 0 6.448-10 0-10-6 0-12 0-18 0-6.448 0-6.448 10 0 10"/>
		<path d="m199.5 216.33c6 0 12 0 18 0 6.448 0 6.448-10 0-10-6 0-12 0-18 0-6.448 0-6.448 10 0 10"/>
	</g>
	<path d="m209.96875 103.4375a2.50025 2.50025 0 0 0 -.25 .0312A2.50025 2.50025 0 0 0 207.5 106v20.06c.829-.034 1.663-.063 2.5-.063.837 0 1.671.029 2.5.063V106a2.50025 2.50025 0 0 0 -2.53125 -2.5625m-20.875 2.75a2.50025 2.50025 0 0 0 -2.21875 3.1875l5.188 19.344c1.586-.496 3.204-.916 4.844-1.281l-5.188-19.344a2.50025 2.50025 0 0 0 -2.625 -1.90625m41.5 0a2.50025 2.50025 0 0 0 -2.3125 1.90625l-5.188 19.344c1.64.365 3.257.785 4.844 1.281L233.12 109.37a2.50025 2.50025 0 0 0 -2.53125 -3.1875m-60.71875 8a2.50025 2.50025 0 0 0 -2.03125 3.78125l10.03 17.375c1.398-.889 2.839-1.727 4.313-2.5l-10.03-17.375A2.50025 2.50025 0 0 0 169.875 114.1875m79.90625 0a2.50025 2.50025 0 0 0 -1.9375 1.28125l-10.03 17.375c1.474.773 2.914 1.611 4.313 2.5l10.03-17.375a2.50025 2.50025 0 0 0 -2.375 -3.78125m-96.625 12.71875a2.50025 2.50025 0 0 0 -1.5 4.28125l14.188 14.188c1.13-1.228 2.304-2.401 3.531-3.531l-14.188-14.188a2.50025 2.50025 0 0 0 -2.03125 -.75m113.375 0a2.50025 2.50025 0 0 0 -1.71875 .75l-14.188 14.188c1.228 1.13 2.401 2.304 3.531 3.531l14.188-14.188a2.50025 2.50025 0 0 0 -1.8125 -4.28125m-126 16.5625a2.50025 2.50025 0 0 0 -1.0625 4.6875l17.375 10.03c.773-1.474 1.611-2.914 2.5-4.313l-17.375-10.03a2.50025 2.50025 0 0 0 -1.1875 -.375 2.50025 2.50025 0 0 0 -.25 0m138.625 0a2.50025 2.50025 0 0 0 -1.125 .375l-17.375 10.03c.889 1.398 1.727 2.839 2.5 4.313l17.375-10.03a2.50025 2.50025 0 0 0 -1.125 -4.6875 2.50025 2.50025 0 0 0 -.25 0M132.375 162.78125a2.50025 2.50025 0 0 0 -.28125 4.9375l19.344 5.188c.365-1.64.785-3.257 1.281-4.844L133.37 162.87a2.50025 2.50025 0 0 0 -.75 -.0937 2.50025 2.50025 0 0 0 -.25 0m154.65625-.00005a2.50025 2.50025 0 0 0 -.40625 .0937l-19.344 5.188c.496 1.586.916 3.204 1.281 4.844l19.344-5.188a2.50025 2.50025 0 0 0 -.625 -4.9375 2.50025 2.50025 0 0 0 -.25 0" transform="translate(20 20)"/>
	<path d="m231.6 204.8c.645.837.459 2.189-.387 2.822-.846.633-2.196.428-2.816-.427 0 0-32.1-37.861-32.1-37.861 0 0-4.578-14.337-4.578-14.337 0 0 12.283 8.253 12.283 8.253zm-44.602-55.802c0 0 7.156 22.19 7.156 22.19-8.745 9-14.156 21.269-14.156 34.812 0 27.614 22.386 50 50 50 27.614 0 50-22.386 50-50 0-27.614-22.386-50-50-50-8.43 0-16.376 2.097-23.344 5.781z"/>
</g>
</svg>