<svg xmlns="http://www.w3.org/2000/svg" viewBox="20 20 321 321">
<g fill="#fff">
	<path d="M204.276,236.553c0,7.042-2.28,12.479-6.841,16.319c-4.559,3.841-9.719,5.761-15.479,5.761
		c-5.76,0-10.92-1.92-15.48-5.761c-4.56-3.84-6.84-9.277-6.84-16.319c0-7.039,2.28-12.48,6.84-16.32s9.72-5.76,15.48-5.76
		c5.761,0,10.921,1.92,15.479,5.76C201.996,224.072,204.276,229.514,204.276,236.553z M201.156,132.152
		c0,12.96-0.48,25.042-1.439,36.24c-0.961,11.201-2.243,22.56-3.84,34.081h-27.361c-1.601-11.521-2.921-22.879-3.96-34.081
		c-1.042-11.197-1.56-23.28-1.56-36.24v-42.96h38.16V132.152z"/>
</g>
</svg>
