<svg xmlns="http://www.w3.org/2000/svg" viewBox="20 20 321 321">
<g fill="#fff">
<path d="m166.221,137.838c3.44,17.98 6.881,35.959 10.321,53.939 1.211,6.33 10.849,3.642 9.643-2.658-3.44-17.98-6.881-35.959-10.321-53.939-1.212-6.329-10.849-3.642-9.643,2.658z"/>
<path d="m177.56,186.826c-7.077,8.603-14.153,17.205-21.23,25.808-4.062,4.938 2.971,12.055 7.071,7.07 7.077-8.603 14.153-17.205 21.23-25.808 4.062-4.937-2.971-12.054-7.071-7.07z"/>
<path d="m286.539,113.451c-8.844-8.844-17.688-17.688-26.531-26.532-6.306-6.306-14.327-8.708-22.576-4.22-5.169,2.812-9.455,8.776-13.557,12.877-1.927,1.926-1.927,5.145 0,7.071 15.072,15.073 30.146,30.146 45.219,45.219 1.926,1.926 5.145,1.926 7.07,0 3.385-3.384 6.77-6.769 10.153-10.153 6.899-6.897 6.523-17.19 .222-24.262-4.298-4.824-11.345,2.273-7.07,7.071 6.539,7.341-5.684,15.583-10.375,20.273 2.356,0 4.714,0 7.07,0-15.072-15.073-30.146-30.146-45.219-45.219 0,2.357 0,4.714 0,7.071 3.439-3.439 6.879-6.878 10.318-10.317 5.25-5.25 10.165,.151 13.853,3.839 8.117,8.117 16.235,16.235 24.353,24.352 4.563,4.564 11.635-2.506 7.07-7.07z"/>
<path d="m103.305,85.118c-8.844,8.844-17.688,17.688-26.532,26.532-6.306,6.306-8.708,14.327-4.22,22.576 2.812,5.168 8.776,9.455 12.877,13.556 1.926,1.926 5.145,1.926 7.071,0 15.073-15.073 30.146-30.146 45.219-45.219 1.926-1.926 1.926-5.145 0-7.071-3.384-3.384-6.769-6.769-10.153-10.153-6.897-6.897-17.19-6.522-24.262-.221-4.824,4.298 2.273,11.345 7.071,7.071 7.34-6.54 15.582,5.683 20.273,10.375 0-2.357 0-4.714 0-7.071-15.073,15.073-30.146,30.146-45.219,45.219 2.357,0 4.714,0 7.071,0-3.439-3.439-6.878-6.878-10.317-10.317-5.25-5.25 .151-10.165 3.839-13.853 8.117-8.117 16.235-16.234 24.352-24.352 4.564-4.565-2.506-11.635-7.07-7.072z"/>
<path d="m214.741,118.183l38.099,38.1v67.984l-38.098,38.1h-67.985l-38.099-38.1v-67.984l38.099-38.099 67.984-.001m0-10h-67.984c-2.652,0-5.196,1.054-7.071,2.929l-38.099,38.099c-1.875,1.875-2.929,4.419-2.929,7.071v67.984c0,2.652 1.054,5.195 2.929,7.071l38.099,38.1c1.875,1.875 4.419,2.929 7.071,2.929h67.985c2.652,0 5.196-1.054 7.071-2.929l38.098-38.1c1.875-1.876 2.929-4.419 2.929-7.071v-67.984c0-2.652-1.054-5.196-2.929-7.071l-38.099-38.1c-1.875-1.875-4.418-2.928-7.071-2.928z"/>
<path d="m125.22,249.131c-7.731,7.731-15.463,15.463-23.195,23.194-4.563,4.563 2.507,11.635 7.071,7.07 7.731-7.731 15.463-15.463 23.195-23.194 4.564-4.563-2.507-11.635-7.071-7.07z"/>
<path d="m229.207,256.201c7.731,7.731 15.463,15.463 23.194,23.194 4.563,4.564 11.635-2.507 7.07-7.07-7.731-7.731-15.463-15.463-23.194-23.194-4.563-4.565-11.634,2.507-7.07,7.07z"/>
<path d="m191.98,108.593c-.479,3.655-13.839,1.983-15.889,1.983-1.554,0-6.23,.639-6.574-1.983-.264-2.012 0-4.218 0-6.25 0-3.444 14.248-1.983 15.89-1.983 1.555,0 6.229-.639 6.573,1.983 .264,2.012 0,4.219 0,6.25 0,4.514 7,4.514 7,0 0-3.936 .583-8.084-1.849-11.446-2.817-3.896-7.446-3.787-11.725-3.787-8.38,0-21.398-2.395-22.89,8.983-.476,3.631-.327,8.438 1.849,11.446 2.818,3.896 7.447,3.787 11.725,3.787 8.38,0 21.398,2.395 22.889-8.983 .586-4.466-6.42-4.409-6.999,0z"/>
</g>
</svg>
