<svg xmlns="http://www.w3.org/2000/svg" viewBox="20 20 321 321">
<path fill="none" stroke="#fff" stroke-width="10" d="m286.936,279.902c0,3.46-2.706,6.265-6.043,6.265h-199.913c-3.337,0-6.043-2.805-6.043-6.265v-198.54c0-3.459 2.706-6.264 6.043-6.264h199.913c3.337,0 6.043,2.805 6.043,6.264v198.54z"/>
<g fill="#fff">
<path d="m108.709,113.784c1.701-.675 3.41-1.54 5.126-2.596s3.234-2.302 4.554-3.74h3.74v30.492h-5.324v-23.364c-.792,.616-1.79,1.217-2.992,1.804-1.203,.587-2.361,1.071-3.476,1.452l-1.628-4.048z"/>
<path d="m146.549,125.356c-.704,.323-1.481,.572-2.332,.748-.851,.176-1.672,.264-2.464,.264-1.819,0-3.366-.242-4.642-.726-1.276-.484-2.318-1.159-3.124-2.024-.807-.865-1.401-1.87-1.782-3.014-.381-1.144-.572-2.376-.572-3.696 0-1.144 .19-2.31 .572-3.498 .381-1.188 .982-2.281 1.804-3.278 .821-.997 1.862-1.811 3.124-2.442 1.261-.63 2.757-.946 4.488-.946 3.579,0 6.285,1.151 8.118,3.454 1.833,2.303 2.75,5.552 2.75,9.746 0,5.926-1.525,10.414-4.576,13.464-3.051,3.051-7.729,4.591-14.036,4.62l-.22-4.444c1.76,0 3.351-.146 4.774-.44 1.422-.293 2.669-.763 3.74-1.408 1.07-.645 1.972-1.488 2.706-2.53 .733-1.041 1.29-2.325 1.672-3.85zm-4.18-3.212c.851,0 1.687-.081 2.508-.242 .821-.161 1.524-.403 2.112-.726 .029-.322 .044-.601 .044-.836 0-.234 0-.44 0-.616 0-1.173-.081-2.281-.242-3.322-.161-1.041-.44-1.95-.836-2.728-.396-.777-.939-1.393-1.628-1.848-.689-.455-1.547-.682-2.574-.682-.852,0-1.577,.176-2.178,.528-.602,.352-1.093,.807-1.474,1.364-.381,.557-.66,1.159-.836,1.804-.176,.646-.264,1.276-.264,1.892 0,1.79 .433,3.139 1.298,4.048 .865,.909 2.222,1.364 4.07,1.364z"/>
<path d="m192.088,129.228c0-.968-.191-1.833-.572-2.596-.381-.762-1.049-1.408-2.002-1.936-.953-.528-2.229-.924-3.828-1.188-1.599-.264-3.615-.396-6.05-.396 .323-2.816 .572-5.492 .748-8.03 .176-2.537 .322-5.082 .44-7.634h15.576v4.488h-11.045c-.029,.499-.065,1.063-.109,1.694-.045,.631-.088,1.269-.133,1.914-.043,.646-.096,1.262-.153,1.848-.06,.587-.118,1.085-.177,1.496 4.342,.235 7.547,1.225 9.615,2.97 2.067,1.746 3.102,4.129 3.102,7.15 0,1.379-.235,2.655-.704,3.828-.47,1.173-1.188,2.186-2.156,3.036-.968,.851-2.186,1.518-3.651,2.002-1.468,.484-3.184,.726-5.148,.726-.792,0-1.6-.059-2.42-.176-.822-.118-1.605-.257-2.354-.418-.749-.161-1.416-.33-2.002-.506-.587-.176-1.027-.337-1.32-.484l1.012-4.488c.616,.293 1.503,.609 2.662,.946 1.158,.337 2.574,.506 4.246,.506 1.144,0 2.126-.125 2.947-.374 .821-.249 1.488-.594 2.002-1.034s.887-.946 1.123-1.518c.234-.572 .351-1.18 .351-1.826z"/>
<path d="m207.004,137.94c.176-2.229 .572-4.576 1.188-7.04 .616-2.464 1.371-4.862 2.266-7.194s1.877-4.517 2.949-6.556c1.07-2.039 2.133-3.747 3.189-5.126h-14.036v-4.576h20.372v4.048c-.969,1.085-2.023,2.567-3.168,4.444-1.145,1.877-2.229,3.997-3.256,6.358-1.027,2.362-1.914,4.892-2.662,7.59s-1.21,5.383-1.387,8.052h-5.455z"/>
<path d="m170.289,114.307c0,1.027-.345,1.863-1.034,2.508-.689,.646-1.518,.968-2.486,.968-.998,0-1.833-.323-2.508-.968-.675-.645-1.012-1.481-1.012-2.508 0-1.026 .337-1.87 1.012-2.53 .674-.66 1.51-.99 2.508-.99 .968,0 1.796,.33 2.486,.99 .688,.66 1.034,1.504 1.034,2.53zm0,16.456c0,1.027-.345,1.863-1.034,2.508-.689,.645-1.518,.968-2.486,.968-.998,0-1.833-.323-2.508-.968-.675-.645-1.012-1.481-1.012-2.508s.337-1.87 1.012-2.53c.674-.66 1.51-.99 2.508-.99 .968,0 1.796,.33 2.486,.99 .688,.66 1.034,1.503 1.034,2.53z"/>
<path d="m267.741,175.382c-.587,2.246-3.831,1.411-5.528,1.411-4.129,0-8.258,0-12.386,0-13.557,0-27.113,0-40.669,0-30.561,0-61.122,0-91.683,0-6.862,0-13.725,0-20.588,0-2.517,0-1.199-24.026-1.199-26.198 0-15.164 0-30.327 0-45.49 0-.838-.861-9.937 .931-9.937 1.634,0 3.267,0 4.901,0 52.927,0 105.854,0 158.781,0 2.204,0 7.386-1.211 7.386,2.026 0,8.058 0,16.115 0,24.172 0,18.139 0,36.277 0,54.416 0,1.935 3,1.935 3,0 0-24.568 0-49.137 0-73.706 0-3.141 .698-6.704-1.641-9.126-1.141-1.183-4.052-.782-5.53-.782-9.586,0-19.172,0-28.757,0-31.443,0-62.887,0-94.33,0-11.715,0-23.431,0-35.146,0-4.094,0-12.595-1.66-12.595,4.589 0,25.342 0,50.685 0,76.027 0,2.857-.133,7.009 3.954,7.009 1.75,0 3.499,0 5.248,0 10.547,0 21.094,0 31.642,0 29.509,0 59.018,0 88.526,0 11.354,0 22.707,0 34.062,0 4.287,0 13.089,1.841 14.514-3.613 .489-1.874-2.405-2.668-2.893-.798z"/>
<path d="m114.5,168.833c4,0 8,0 12,0 4.514,0 4.514-7 0-7-4,0-8,0-12,0-4.514,0-4.514,7 0,7z"/>
<path d="m249.833,132.167c2.667,0 5.334,0 8.001,0 4.514,0 4.514-7 0-7-2.667,0-5.334,0-8.001,0-4.514,0-4.514,7 0,7z"/>
<path d="m243.854,144.417c4.917,0 9.834,0 14.751,0 4.514,0 4.514-7 0-7-4.917,0-9.834,0-14.751,0-4.513,0-4.513,7 0,7z"/>
<path d="m240.5,168.833c5.778,0 11.556,0 17.334,0 4.514,0 4.514-7 0-7-5.778,0-11.556,0-17.334,0-4.514,0-4.514,7 0,7z"/>
<path d="m105.177,235.599c6.702-11.608 13.404-23.216 20.106-34.824-2.015,0-4.029,0-6.044,0 6.702,11.608 13.403,23.216 20.105,34.824 1.007-1.756 2.015-3.511 3.022-5.267-13.404,0-26.808,0-40.211,0-4.514,0-4.514,7 0,7 13.404,0 26.808,0 40.211,0 2.664,0 4.348-2.971 3.022-5.267-6.702-11.608-13.403-23.216-20.105-34.824-1.311-2.271-4.733-2.271-6.044,0-6.702,11.608-13.404,23.216-20.106,34.824-2.261,3.917 3.789,7.441 6.044,3.534z"/>
<path d="m256.583,197.241c-6.702,11.608-13.404,23.216-20.107,34.824 2.015,0 4.03,0 6.045,0-6.701-11.608-13.402-23.216-20.104-34.824-1.008,1.756-2.015,3.511-3.022,5.267 13.403,0 26.808,0 40.211,0 4.514,0 4.514-7 0-7-13.403,0-26.808,0-40.211,0-2.664,0-4.348,2.971-3.022,5.267 6.701,11.608 13.402,23.216 20.104,34.824 1.312,2.271 4.733,2.271 6.045,0 6.702-11.608 13.404-23.216 20.107-34.824 2.26-3.918-3.79-7.441-6.046-3.534z"/>
<path d="m187.541,228.735c-.353,2.621-4.518,1.597-6.633,1.597-2.219,0-4.438,0-6.657,0-.952,0-.254-1.333 .267-1.333 .416,0 .832,0 1.248,0 1.442,0 2.885,0 4.327,0 .87,0 7.139-.706 7.323,.667 .592,4.405 7.6,4.463 7,0-1.044-7.771-7.277-7.667-13.508-7.667-5.46,0-13.19-.771-14.175,6.56-.554,4.124 1.869,6.977 5.479,8.5 1.899,.801 5.103,.273 7.072,.273 5.757,0 13.964,1.023 15.007-6.735 .593-4.412-6.151-6.318-6.75-1.862z"/>
<path d="m187.416,203.174c-.185,1.373-6.453,.667-7.323,.667-1.442,0-2.885,0-4.327,0-.416,0-.832,0-1.248,0 .172,0-5.139-.679-.267-1.333 2.136-.287 4.505,0 6.657,0 2.096,0 6.276-1.062 6.633,1.597 .599,4.456 7.343,2.551 6.75-1.861-1.004-7.47-8.583-6.735-14.198-6.735-1.947,0-3.895,0-5.842,0-3.713,0-8.217,3.57-7.667,7.666 1.044,7.772 7.273,7.667 13.509,7.667 6.415,0 13.229,.474 14.323-7.667 .6-4.464-6.408-4.406-7-.001z"/>
</g>
</svg>
