<svg xmlns="http://www.w3.org/2000/svg" viewBox="20 20 321 321">
<g fill="#fff">
<path d="m282.515,204.413c-.359,.998 .535-1.114-.011,.001-.182,.372-.395,.729-.604,1.086-.53,.906-1.145,1.762-1.763,2.608-1.799,2.463-3.995,4.694-6.144,6.855-6.521,6.561-13.982,12.087-21.843,16.93-23.196,14.294-50.467,20.206-77.483,20.865-11.433,.278-22.96-.694-33.97-3.893-6.407-1.86-13.968-4.9-17.895-10.637-10.724-15.664 9.56-29.464 21.531-35.581 26.887-13.741 58.948-16.143 88.583-13.888 12.419,.944 24.946,2.922 36.774,6.915 3.584,1.211 7.484,2.725 10.492,5.084 1.113,.874 1.704,1.473 2.28,2.428 .323,.535 .261,.514 .053,1.227-1.813,6.204 7.839,8.835 9.643,2.658 4.281-14.659-18.265-20.956-28.165-23.496-22.253-5.709-46.25-6.698-69.05-4.633-23.635,2.14-49.385,8.519-68.604,23.076-13.084,9.909-21.926,25.815-12.17,41.259 7.552,11.954 24.154,16.144 37.151,18.075 22.458,3.34 46.22,.944 68.11-4.72 18.859-4.879 36.472-13.953 51.79-25.909 7.702-6.011 17.504-14.101 20.938-23.651 2.188-6.084-7.478-8.679-9.643-2.659z"/>
<path d="m80.864,286.99c-.142-11.393 7.241-20.589 15.359-27.808 12.44-11.063 28.333-18.429 43.724-24.354 45.703-17.595 95.892-23.797 144.562-25.058 6.437-.167 6.452-10.167 0-10-51.242,1.327-104.253,8.037-152.091,27.334-24.563,9.908-61.945,28.457-61.554,59.886 .08,6.444 10.08,6.451 10-0z"/>
<path d="m98.863,154.304v-83.16h37.32v9.24h-26.52v25.8h24v9h-24v29.88h28.44v9.24h-39.24z"/>
<path d="m178.423,156.104c-9.761,0-17.24-3.639-22.44-10.92-5.201-7.279-7.8-18.519-7.8-33.72 0-7.759 .739-14.319 2.22-19.68 1.479-5.359 3.54-9.72 6.18-13.08s5.76-5.779 9.36-7.26c3.6-1.479 7.519-2.22 11.76-2.22 3.52,0 6.799,.461 9.84,1.38 3.039,.921 5.52,2.061 7.439,3.42l-3.239,9c-1.92-1.279-3.981-2.32-6.181-3.12-2.201-.799-4.739-1.2-7.62-1.2-6.401,0-11.04,2.661-13.92,7.98-2.88,5.321-4.32,13.581-4.32,24.78 0,11.28 1.519,19.961 4.56,26.04 3.039,6.081 7.999,9.12 14.88,9.12 3.279,0 5.94-.399 7.98-1.2 2.04-.799 4.02-1.839 5.939-3.12l3,8.52c-1.841,1.44-4.26,2.681-7.26,3.72-2.998,1.039-6.459,1.56-10.378,1.56z"/>
<path d="m262.543,112.784c0,6.48-.581,12.381-1.74,17.7-1.16,5.321-2.961,9.881-5.399,13.68-2.441,3.801-5.521,6.741-9.24,8.82-3.72,2.079-8.101,3.12-13.14,3.12-5.041,0-9.42-1.041-13.141-3.12-3.72-2.08-6.801-5.02-9.24-8.82-2.441-3.799-4.26-8.358-5.459-13.68-1.201-5.319-1.801-11.22-1.801-17.7s.6-12.399 1.801-17.76c1.199-5.359 3.018-9.939 5.459-13.74 2.439-3.799 5.521-6.759 9.24-8.88 3.721-2.119 8.1-3.18 13.141-3.18 5.039,0 9.42,1.062 13.14,3.18 3.72,2.121 6.799,5.081 9.24,8.88 2.438,3.801 4.239,8.381 5.399,13.74 1.159,5.361 1.74,11.28 1.74,17.76zm-11.52,0c0-5.04-.32-9.639-.961-13.8-.641-4.159-1.68-7.74-3.119-10.74-1.44-3-3.301-5.34-5.58-7.02-2.28-1.68-5.061-2.52-8.34-2.52-3.281,0-6.061,.84-8.34,2.52-2.28,1.68-4.141,4.02-5.58,7.02-1.44,3-2.502,6.582-3.181,10.74-.681,4.161-1.02,8.76-1.02,13.8s.339,9.641 1.02,13.8c.679,4.161 1.74,7.722 3.181,10.68 1.439,2.96 3.3,5.261 5.58,6.9 2.279,1.641 5.059,2.46 8.34,2.46 3.279,0 6.06-.819 8.34-2.46 2.279-1.639 4.14-3.939 5.58-6.9 1.439-2.958 2.479-6.52 3.119-10.68 .641-4.159 .961-8.76 .961-13.8z"/>
</g>
</svg>
