<svg xmlns="http://www.w3.org/2000/svg" viewBox="20 20 321 321">
<g fill="#fff">
<circle cx="236.593" cy="156.564" r="28.837"/>
<path d="m236.594,186.084c-16.276,0-29.52-13.244-29.52-29.52s13.243-29.52 29.52-29.52c16.275,0 29.517,13.244 29.517,29.52s-13.242,29.52-29.517,29.52zm0-57.674c-15.525,0-28.154,12.63-28.154,28.154 0,15.522 12.629,28.154 28.154,28.154 15.523,0 28.15-12.632 28.15-28.154 0-15.523-12.627-28.154-28.15-28.154z"/>
<path d="m267.559,277.459c0,7.895-6.4,14.291-14.293,14.291h-33.348c-7.893,0-14.291-6.396-14.291-14.291v-71.745c0-7.894 6.398-14.291 14.291-14.291h33.348c7.893,0 14.293,6.397 14.293,14.291v71.745z"/>
<path d="m273.856,204.122c0,16.776 0,62.553 0,79.331 0,11.443 17.745,11.443 17.745,0 0-16.778 0-62.555 0-79.331 .001-11.444-17.745-11.444-17.745,0z"/>
<path d="m181.583,204.12c0,16.778 0,62.554 0,79.331 0,11.443 17.745,11.443 17.745,0 0-16.777 0-62.553 0-79.331 0-11.443-17.745-11.443-17.745,0z"/>
<path d="m77.085,77.474c.135-.669 .073-.452 1.508-.452 1.904,0 3.808,0 5.711,0 6.272,0 12.544,0 18.816,0 15.979,0 31.958,0 47.938,0 5.803,0 11.607,0 17.411,0 1.463,0 2.927,0 4.391,0 1.404,0 .584-.323 .584-.145 0,10.218 0,20.435 0,30.652 0,15.838 0,31.677 0,47.516 0,5.147 0,10.295 0,15.443 0,1.011 0,2.021 0,3.031 0,.533 .683-.264 .357-.264-.395,0-.789,0-1.184,0-27.024,0-54.049,0-81.073,0-4.101,0-8.203,0-12.304,0-.796,0-1.592,0-2.388,0 .471,0 .357,.649 .357-.827 0-9.894 0-19.788 0-29.681 0-22.068 0-44.137 0-66.205 0-4.514-7-4.514-7,0 0,24.776 0,49.551 0,74.327 0,5.803 0,11.607 0,17.411 0,3.167-.49,6.608 1.363,9.357 2.15,3.188 6.35,2.618 9.668,2.618 5.55,0 11.101,0 16.651,0 25.326,0 50.651,0 75.976,0 9.515,0 6.576-17.093 6.576-22.846 0-15.679 0-31.359 0-47.038 0-10.995 0-21.99 0-32.985 0-9.625-12.08-7.364-18.482-7.364-27.574,0-55.147,0-82.721,0-4.083,0-7.944,.829-8.906,5.59-.889,4.408 5.857,6.284 6.751,1.862z"/>
<path d="m74.2,128.516c3.76,0 7.52,0 11.28,0 4.514,0 4.514-7 0-7-3.76,0-7.52,0-11.28,0-4.514,0-4.514,7 0,7z"/>
<path d="m164.929,128.516c3.678,0 7.356,0 11.035,0 4.514,0 4.514-7 0-7-3.678,0-7.356,0-11.035,0-4.514,0-4.514,7 0,7z"/>
<path d="m121.704,74.748c0,3.515 0,7.029 0,10.544 0,4.514 7,4.514 7,0 0-3.515 0-7.029 0-10.544 0-4.514-7-4.514-7,0z"/>
<path d="m121.704,164.741c0,3.596 0,7.193 0,10.789 0,4.514 7,4.514 7,0 0-3.596 0-7.193 0-10.789 0-4.514-7-4.514-7,0z"/>
<path d="m121.95,94.365c0,10.258 0,20.516 0,30.774 0,4.514 7,4.514 7,0 0-10.258 0-20.516 0-30.774 0-4.514-7-4.514-7,0z"/>
<path d="m123.22,127.737c4.414,4.414 8.828,8.827 13.242,13.241 3.195,3.194 8.145-1.755 4.95-4.95-4.414-4.414-8.828-8.827-13.242-13.241-3.195-3.195-8.145,1.755-4.95,4.95z"/>
</g>
</svg>
