<svg xmlns="http://www.w3.org/2000/svg" viewBox="20 20 321 321">
<g fill="#fff">
<circle cx="236.593" cy="156.564" r="28.837"/>
<path d="m236.594,186.084c-16.276,0-29.52-13.244-29.52-29.52s13.243-29.52 29.52-29.52c16.275,0 29.517,13.244 29.517,29.52s-13.242,29.52-29.517,29.52zm0-57.674c-15.525,0-28.154,12.63-28.154,28.154 0,15.522 12.629,28.154 28.154,28.154 15.523,0 28.15-12.632 28.15-28.154 0-15.523-12.627-28.154-28.15-28.154z"/>
<path d="m267.559,277.459c0,7.895-6.4,14.291-14.293,14.291h-33.348c-7.893,0-14.291-6.396-14.291-14.291v-71.745c0-7.894 6.398-14.291 14.291-14.291h33.348c7.893,0 14.293,6.397 14.293,14.291v71.745z"/>
<path d="m273.856,204.122c0,16.776 0,62.553 0,79.331 0,11.443 17.745,11.443 17.745,0 0-16.778 0-62.555 0-79.331 .001-11.444-17.745-11.444-17.745,0z"/>
<path d="m181.583,204.12c0,16.778 0,62.554 0,79.331 0,11.443 17.745,11.443 17.745,0 0-16.777 0-62.553 0-79.331 0-11.443-17.745-11.443-17.745,0z"/>
<path d="m108.66,172.531-30.959-30.958"/>
<path d="m113.936,167.199c-10.32-10.319-20.639-20.639-30.959-30.958-6.835-6.835-17.403,3.813-10.551,10.665 10.319,10.319 20.639,20.639 30.958,30.958 6.836,6.835 17.404-3.813 10.552-10.665z"/>
<path d="m172.583,77.424-63.923,95.107"/>
<path d="m166.088,73.674c-21.308,31.702-42.616,63.405-63.923,95.107-5.406,8.042 7.62,15.489 12.99,7.5 21.308-31.702 42.616-63.405 63.923-95.107 5.405-8.042-7.62-15.489-12.99-7.5z"/>
</g>
</svg>
