<svg xmlns="http://www.w3.org/2000/svg" viewBox="20 20 321 321">
<g fill="#fff" stroke="none">
	<path d="M217.17,215.95c-0.461,6.854-10.536,5-15.189,5c-9.831,0-19.661,0-29.492,0 c-21.168,0-42.336,0-63.504,0c-4.735,0-11.237,1.181-11.81-5.357c-0.431-4.906,0-10.047,0-14.967c0-22.16,0-44.32,0-66.48	c0-16.079-0.702-32.334,0-48.401c0.275-6.304,5.5-5.795,10.118-5.795c8.7,0,17.4,0,26.101,0c22.23,0,44.46,0,66.69,0
		c3.797,0,11.788-1.494,15.116,1.074c3.3,2.546,1.97,10.139,1.97,13.723c0,39.374,0,78.749,0,118.123 C217.17,213.896,217.17,214.923,217.17,215.95c0,6.435,10,6.445,10,0c0-38.669,0-77.339,0-116.008c0-4.959,0.214-9.972,0-14.927 c-0.334-7.732-5.757-14.201-13.643-14.974c-1.657-0.162-3.337-0.091-4.998-0.091c-21.578,0-43.157,0-64.735,0
		c-10.677,0-21.355,0-32.032,0c-6.741,0-14.33-1.015-19.713,3.971c-5.588,5.176-4.874,12.139-4.874,18.964 c0,9.372,0,18.743,0,28.115c0,24.386,0,48.772,0,73.157c0,6.796-0.082,13.598,0,20.394c0.114,9.4,6.235,16.21,15.848,16.399 c19.2,0.378,38.444,0,57.647,0c17.103,0,34.398,0.761,51.488,0c8.56-0.381,14.446-6.584,15.012-15
		C227.602,209.526,217.6,209.552,217.17,215.95z"/>
	<path d="M193.423,204.171c4.485-31.298,8.97-62.596,13.455-93.894c0.639-4.463,1.279-8.925,1.918-13.388 c0.631-4.406-6.112-6.31-6.75-1.861c-4.485,31.298-8.97,62.596-13.455,93.895c-0.639,4.463-1.279,8.925-1.918,13.388 C186.041,206.717,192.785,208.62,193.423,204.171L193.423,204.171z"/>
	<path d="M126.788,202.311c-4.485-31.298-8.97-62.596-13.455-93.895 c-0.639-4.463-1.279-8.925-1.918-13.388c-0.636-4.442-7.382-2.552-6.75,1.861c4.485,31.298,8.97,62.596,13.455,93.895	c0.639,4.463,1.279,8.925,1.918,13.388C120.674,208.613,127.42,206.724,126.788,202.311L126.788,202.311z"/>
</g>
<g stroke="#fff" fill="none">
	<path style="stroke-width:10;" d="M157.172,225.95c0,59.847,14.12,60.435,58.679,60.435 c35.844,0,54.25-29.186,47.25-83.444c-2.446-18.957-3.46-22.676-3.46-22.676"/>
	<path style="stroke-width:7;stroke-miterlimit:10;" d="M173.422,197.21c0,3.165-2.566,5.73-5.73,5.73 h-20.373c-3.165,0-5.73-2.566-5.73-5.73v-20.373c0-3.165,2.565-5.73,5.73-5.73h20.373c3.165,0,5.73,2.566,5.73,5.73V197.21z"/>
	<line style="stroke-width:7;stroke-linecap:round;stroke-miterlimit:10;" x1="157.594" y1="182.22" x2="157.594" y2="193.294"/>
	<polygon style="stroke-width:10;stroke-linecap:round;stroke-linejoin:round;" points="249.726,180.264 236.101,138.794 222.17,132.667 222.17,93.539 252.987,110.927 268.833,180.264"/>
</g>
</svg>
