<svg xmlns="http://www.w3.org/2000/svg" viewBox="20 20 321 321">
<path fill="#fff" d="m157.712,136.266h120.136v21.951h-120.136z" transform="matrix(.7071 -.7071 .7071 .7071 -40.3289 197.1197)"/>
<path fill="none" stroke="#fff" stroke-width="10" d="m269.214,142.306c0,40.706-25.761,83.874-53.353,83.874-27.594,0-53.354-43.168-53.354-83.874 0-14.843-.418-28.659 4.699-40.225 0,0 31.122-10.416 48.655-10.416 17.508,0 48.615,10.33 48.615,10.33 5.141,11.584 4.738,25.432 4.738,40.311z"/>
<g fill="#fff">
<path d="m145.702,257.161c3.076,0 5.438,.542 7.085,1.622 1.647,1.082 2.471,2.854 2.471,5.314 0,2.48-.834,4.271-2.5,5.373-1.667,1.102-4.049,1.652-7.145,1.652h-1.458v6.906h-4.645v-20.332c1.012-.198 2.084-.338 3.215-.418 1.131-.077 2.124-.117 2.977-.117zm.298,3.959c-.338,0-.67,.011-.997,.03-.328,.02-.61,.04-.848,.06v5.953h1.458c1.607,0 2.817-.218 3.632-.655 .813-.436 1.22-1.249 1.22-2.441 0-.574-.104-1.051-.313-1.428s-.506-.68-.893-.908c-.387-.228-.858-.387-1.414-.477-.555-.09-1.171-.134-1.845-.134z"/>
<path d="m163.415,261.954c1.31,0 2.401,.149 3.275,.446 .873,.297 1.572,.725 2.098,1.28s.898,1.23 1.117,2.024c.218,.793 .328,1.678 .328,2.65v9.228c-.636,.14-1.518,.303-2.649,.491-1.131,.188-2.501,.283-4.108,.283-1.013,0-1.93-.09-2.754-.269s-1.533-.472-2.128-.878c-.596-.406-1.052-.938-1.37-1.592-.317-.656-.476-1.459-.476-2.412 0-.912 .183-1.687 .55-2.322 .367-.635 .859-1.141 1.474-1.519 .615-.376 1.32-.649 2.113-.818 .794-.168 1.617-.253 2.471-.253 .575,0 1.086,.025 1.533,.074 .447,.051 .808,.115 1.086,.193v-.416c0-.754-.228-1.359-.685-1.816s-1.25-.685-2.381-.685c-.754,0-1.499,.055-2.233,.164-.734,.108-1.369,.263-1.905,.461l-.566-3.573c.257-.078 .58-.162 .968-.252 .387-.09 .809-.169 1.265-.238 .457-.068 .938-.129 1.444-.179 .506-.047 1.017-.072 1.533-.072zm.357,12.98c.436,0 .853-.01 1.25-.029 .396-.02 .714-.05 .952-.09v-3.364c-.178-.04-.447-.079-.803-.118-.357-.04-.685-.061-.983-.061-.417,0-.809,.025-1.176,.074-.368,.051-.689,.145-.968,.283-.278,.14-.496,.327-.655,.566-.159,.238-.238,.535-.238,.893 0,.694 .233,1.176 .7,1.443 .468,.268 1.107,.403 1.921,.403z"/>
<path d="m130.725,205.723c-16.53,16.53-33.06,33.06-49.589,49.59-1.369,1.369 .752,3.49 2.121,2.121 16.53-16.53 33.06-33.06 49.589-49.59 1.369-1.369-.752-3.49-2.121-2.121z"/>
<path d="m130.481,203.139c-5.305,5.454-15.069,16.971-8.558,24.748 2.901,3.466 7.827-1.514 4.95-4.949-.783-.936 .931-4.354 1.397-5.315 1.746-3.6 4.393-6.688 7.161-9.534 3.148-3.237-1.798-8.191-4.95-4.95z"/>
<path d="m130.481,203.139c-2.625,2.553-5.388,4.787-8.553,6.635-1.066,.622-5.174,2.861-6.295,1.923-3.436-2.877-8.415,2.048-4.95,4.949 7.777,6.512 19.294-3.254 24.749-8.558 3.239-3.151-1.715-8.097-4.951-4.949z"/>
<path stroke="#fff" d="m99.527,243.607c-1.1,1.101-2.883,1.101-3.982,0l-.584-.583c-1.1-1.1-1.1-2.883 0-3.983l.759-.758c1.101-1.102 2.883-1.102 3.983,0l.583,.583c1.1,1.1 1.1,2.882 0,3.983l-.759,.758z"/>
<path d="m136.422,182.627c-2.442,3.486-4.885,6.975-7.327,10.461-.483,.695 .692,1.541 1.196,.859 2.52-3.431 5.039-6.862 7.558-10.293 .511-.689-.937-1.73-1.427-1.027z"/>
<path d="m135.774,182.248c-2.442,3.487-4.884,6.975-7.327,10.461-.992,1.416 1.221,2.922 2.374,1.769 1.394-1.394 2.477-3.364 3.645-4.955 1.344-1.83 2.688-3.66 4.031-5.489 1.041-1.417-1.254-2.886-2.453-2.054-.789,.547-.04,1.848 .757,1.295-.034,.229-.068,.458-.103,.688-.336,.457-.672,.915-1.008,1.372-.672,.915-1.344,1.83-2.015,2.745-1.176,1.602-2.352,3.202-3.527,4.804 2.377-3.238 4.617-6.587 6.922-9.877 .556-.796-.745-1.544-1.296-.759z"/>
<path d="m146.295,190.832c-1.95,1.994-3.9,3.988-5.85,5.981-.59,.607 .501,1.698 1.109,1.108 1.994-1.95 3.987-3.899 5.981-5.85 .616-.596-.643-1.854-1.24-1.239z"/>
<path d="m145.765,190.302c-1.17,1.196-2.34,2.393-3.51,3.589-.759,.776-2.373,1.861-2.67,2.94-.373,1.355 1.416,2.682 2.5,1.621 1.196-1.17 2.393-2.34 3.589-3.51 .531-.52 1.063-1.04 1.595-1.56 .323-.316 1.043-.795 1.122-1.308 .201-1.314-1.186-2.748-2.473-1.891-.801,.533-.051,1.833 .757,1.295 .505-.337-.59,.964-.466,.843-.532,.52-1.063,1.04-1.595,1.56-1.063,1.04-2.126,2.08-3.19,3.12 1.741-1.702 3.607-3.803 5.403-5.64 .674-.69-.385-1.752-1.062-1.059z"/>
<path d="m141.528,186.532c-1.781,2.146-3.562,4.292-5.343,6.438-.538,.654 .638,1.652 1.195,1.016 1.828-2.105 3.657-4.211 5.484-6.316 .566-.647-.791-1.8-1.336-1.138z"/>
<path d="m140.998,186.002c-.95,1.145-1.9,2.289-2.85,3.434-.882,1.063-2.129,2.172-2.736,3.414-.662,1.354 1.487,2.832 2.499,1.667 .975-1.123 1.95-2.246 2.925-3.369 .902-1.038 2.159-2.11 2.797-3.33 .71-1.355-1.363-2.776-2.484-1.933-.763,.574-.017,1.878 .757,1.295 .021,.127 .042,.254 .063,.381-.244,.281-.487,.562-.731,.843-.487,.562-.975,1.122-1.462,1.684-.854,.982-1.707,1.966-2.56,2.948 .332-.383 1.378-1.799 1.993-2.539 .95-1.145 1.9-2.289 2.85-3.434 .612-.739-.443-1.806-1.061-1.061z"/>
<path d="m154.713,200.518c-3.431,2.52-6.862,5.039-10.293,7.559-.681,.504 .164,1.679 .86,1.196 3.487-2.442 6.974-4.885 10.46-7.327 .703-.49-.338-1.938-1.027-1.428z"/>
<path d="m154.334,199.87c-1.83,1.344-3.66,2.688-5.49,4.031-1.591,1.168-3.562,2.251-4.956,3.645-1.153,1.152 .354,3.365 1.769,2.374 1.86-1.303 3.719-2.605 5.579-3.907 1.599-1.12 3.655-2.159 5.033-3.537 1.22-1.22-.271-3.11-1.756-2.682-.928,.269-.533,1.716 .398,1.447-.083,.182-.166,.363-.248,.545-.465,.326-.93,.651-1.395,.977-.93,.651-1.859,1.303-2.79,1.954-1.627,1.14-3.254,2.28-4.881,3.42 2.75-1.927 6.407-4.705 9.493-6.972 .772-.566 .025-1.868-.756-1.295z"/>
<path d="m158.316,205.855c-2.376,1.461-4.752,2.923-7.127,4.385-.72,.445 .08,1.774 .813,1.351 2.408-1.409 4.815-2.817 7.223-4.226 .742-.429-.18-1.963-.909-1.51z"/>
<path d="m157.938,205.208c-1.358,.835-2.715,1.67-4.073,2.505-1,.615-2.913,1.309-3.524,2.353-.708,1.207 .765,2.92 2.041,2.173 1.376-.805 2.751-1.61 4.127-2.415 .989-.578 2.955-1.239 3.553-2.26 .718-1.226-.632-2.864-1.944-2.432-.914,.302-.522,1.751 .398,1.447-.062,.146-.123,.293-.185,.44-.344,.201-.688,.402-1.032,.604-.516,.302-1.032,.604-1.548,.905-1.204,.704-2.407,1.408-3.611,2.113 2.031-1.188 4.393-2.809 6.555-4.139 .822-.505 .069-1.803-.757-1.294z"/>
<path d="m168.108,229.926c-2.722,.609-5.444,1.218-8.167,1.827-.826,.188-.496,1.751 .334,1.589 2.735-.545 5.472-1.092 8.207-1.638 .844-.165 .463-1.97-.374-1.778z"/>
<path d="m167.909,229.202c-1.675,.375-3.351,.75-5.026,1.125-1.019,.228-2.955,.249-3.729,1.024-1.003,1.003-.151,3.007 1.321,2.714 1.684-.336 3.367-.672 5.051-1.008 .998-.199 2.967-.177 3.724-.934 1.014-1.015 .268-2.921-1.141-2.948-.968-.02-.966,1.481 0,1.5-.152,.144-.304,.287-.457,.431-.421,.084-.842,.169-1.263,.253-.631,.126-1.263,.252-1.894,.378-1.263,.252-2.525,.504-3.788,.756 2.394-.478 5.095-1.283 7.601-1.844 .943-.211 .543-1.658-.399-1.447z"/>
<path d="m166.402,223.549c-4.063,1.273-8.126,2.549-12.19,3.822-.807,.256-.38,1.674 .435,1.442 4.091-1.181 8.182-2.362 12.273-3.544 .826-.234 .3-1.981-.518-1.72z"/>
<path d="m166.203,222.825c-2.188,.687-4.376,1.372-6.564,2.059-1.699,.533-4.563,.857-5.957,1.957-1.147,.905-.475,3.169 1.164,2.696 2.203-.636 4.406-1.272 6.609-1.908 1.837-.53 4.61-.796 6.149-1.938 1.274-.947 .063-2.823-1.202-2.892-.967-.053-.962,1.447 0,1.5-.208,.174-.417,.347-.626,.521-.629,.182-1.259,.363-1.888,.545-.944,.272-1.888,.546-2.832,.818-1.888,.545-3.776,1.09-5.665,1.635 3.606-1.041 7.5-2.382 11.21-3.545 .92-.29 .527-1.738-.398-1.448z"/>
<path d="m150.698,195.502c-2.106,1.828-4.211,3.656-6.317,5.485-.637,.558 .362,1.733 1.016,1.195 2.146-1.781 4.292-3.562 6.438-5.344 .662-.543-.492-1.9-1.137-1.336z"/>
<path d="m150.167,194.972c-1.123,.975-2.246,1.95-3.369,2.925-1.057,.918-2.419,1.803-3.231,2.946-.918,1.292 1.239,2.8 2.36,1.87 1.145-.95 2.289-1.899 3.434-2.85 1.073-.89 2.438-1.74 3.278-2.854 .975-1.293-1.18-2.752-2.319-2.155-.857,.448-.099,1.743 .757,1.295-.067,.172-.134,.344-.201,.516-.286,.237-.572,.475-.858,.713-.572,.475-1.145,.95-1.717,1.425-1.001,.831-2.003,1.662-3.004,2.493 1.985-1.647 3.949-3.542 5.933-5.264 .73-.635-.336-1.691-1.063-1.06z"/>
<path d="m161.48,211.488c-2.487,1.262-4.974,2.524-7.462,3.787-.754,.385-.063,1.781 .702,1.419 2.516-1.206 5.031-2.411 7.547-3.617 .775-.369-.023-1.979-.787-1.589z"/>
<path d="m161.102,210.841c-1.531,.776-3.062,1.554-4.592,2.33-.925,.47-2.807,.972-3.357,1.912-.72,1.229 .6,2.904 1.946,2.259 1.548-.742 3.096-1.483 4.645-2.226 .803-.385 2.993-.94 3.374-1.825 .544-1.263-.344-2.882-1.836-2.526-.941,.225-.542,1.671 .398,1.447-.124,.165-.248,.33-.372,.496-.387,.186-.774,.371-1.161,.557-.581,.278-1.161,.557-1.742,.834-1.161,.557-2.322,1.113-3.483,1.67 2.271-1.089 4.63-2.462 6.937-3.633 .862-.438 .103-1.732-.757-1.295z"/>
<path d="m164.184,217.395c-2.583,1.053-5.167,2.105-7.75,3.159-.783,.322-.207,1.78 .586,1.481 2.607-.994 5.212-1.988 7.819-2.982 .804-.303 .139-1.987-.655-1.658z"/>
<path d="m163.985,216.671c-1.59,.648-3.18,1.296-4.769,1.944-1.061,.433-2.717,.749-3.544,1.576-.977,.978 .176,3.09 1.547,2.567 1.604-.612 3.208-1.224 4.812-1.836 .901-.344 3.174-.701 3.671-1.639 .676-1.275-.253-2.836-1.717-2.612-.954,.146-.547,1.592 .398,1.447 .406-.063-1.087,.724-.946,.67-.602,.229-1.203,.459-1.805,.688-1.403,.535-2.807,1.07-4.21,1.606-.696,.265 1.101-.576 1-.535 .596-.243 1.192-.486 1.789-.729 1.391-.566 2.782-1.134 4.173-1.7 .883-.36 .497-1.812-.399-1.447z"/>
<path d="m169.28,236.502c-2.764,.375-5.528,.752-8.292,1.127-.838,.117-.641,1.725 .201,1.635 2.772-.312 5.543-.623 8.315-.934 .852-.094 .626-1.949-.224-1.828z"/>
<path d="m169.081,235.778c-1.701,.231-3.402,.463-5.103,.694-.892,.121-3.164-.018-3.787,.733-1.204,1.452-.032,2.923 1.637,2.735 1.706-.191 3.412-.383 5.117-.574 .818-.092 2.718,.1 3.334-.598 .947-1.073 .498-2.857-.999-3.018-.961-.103-.952,1.398 0,1.5 .485,.052-1.218,.49-1.056,.472-.64,.071-1.279,.144-1.919,.215-1.493,.168-2.985,.336-4.478,.503-1.684,.189 .424-.233 .635-.263 .851-.115 1.701-.231 2.552-.347 1.488-.202 2.977-.405 4.465-.606 .955-.128 .547-1.574-.398-1.446z"/>
<path d="m169.918,250.151c-4.253-.164-8.506-.328-12.76-.493-.846-.029-.925,1.541-.082,1.599 4.248,.269 8.496,.536 12.744,.804 .858,.054 .957-1.882 .098-1.91z"/>
<path d="m169.918,249.401c-2.29-.088-4.58-.177-6.871-.266-1.959-.075-4.56-.646-6.447-.097-1.456,.424-.953,2.878 .476,2.968 2.287,.145 4.575,.289 6.862,.434 1.929,.121 4.533,.765 6.401,.256 1.569-.427 .959-2.821-.223-3.269-.906-.343-1.294,1.108-.398,1.447-.293,.124-.585,.249-.878,.374-.653-.041-1.307-.083-1.96-.124-.98-.062-1.961-.123-2.941-.185-1.961-.124-3.921-.248-5.882-.372 3.791,.24 7.945,.182 11.861,.333 .968,.038 .964-1.462 0-1.499z"/>
<path d="m169.892,243.252c-2.786,.137-5.572,.273-8.357,.41-.845,.045-.786,1.689 .06,1.673 2.788-.071 5.576-.142 8.364-.212 .857-.019 .79-1.919-.067-1.871z"/>
<path d="m169.892,242.502c-1.714,.084-3.429,.168-5.143,.252-1.041,.052-3.149-.3-3.993,.447-.939,.832-.667,2.922 .839,2.884 1.716-.044 3.432-.087 5.147-.131 1.047-.026 3.114,.372 3.977-.359 .975-.825 .752-2.828-.627-3.066-.946-.163-1.351,1.283-.398,1.447 .763,.131-1.177,.434-1.021,.43-.644,.017-1.287,.032-1.93,.049-1.501,.038-3.002,.076-4.503,.114-.021-.063-.041-.125-.061-.188 .428-.021 .857-.042 1.286-.063 .643-.031 1.286-.063 1.928-.095 1.5-.073 3-.147 4.5-.221 .961-.047 .966-1.548-.001-1.5z"/>
<path d="m86.308,168.546c.267,4.248 .534,8.496 .801,12.744 .059,.844 1.629,.765 1.599-.082-.164-4.253-.328-8.506-.492-12.76-.028-.858-1.964-.759-1.908,.098z"/>
<path d="m85.558,168.546c.144,2.288 .288,4.575 .431,6.862 .122,1.938-.196,4.626 .538,6.427 .547,1.342 2.99,.874 2.932-.627-.088-2.29-.177-4.58-.265-6.871-.074-1.921 .311-4.599-.371-6.398-.557-1.469-2.889-.883-3.237,.408-.253,.935 1.194,1.332 1.446,.398 .158,.229 .315,.457 .473,.685 .025,.654 .05,1.309 .076,1.963 .038,.981 .076,1.963 .113,2.944 .076,1.963 .151,3.926 .227,5.889-.132-3.438-.623-7.872-.862-11.681-.061-.96-1.561-.965-1.501,.001z"/>
<path d="m93.244,168.41c-.071,2.788-.142,5.576-.212,8.364-.017,.846 1.629,.904 1.673,.06 .137-2.786 .274-5.571 .41-8.357 .048-.859-1.852-.926-1.871-.067z"/>
<path d="m92.494,168.41c-.043,1.716-.087,3.431-.13,5.147-.029,1.126-.516,3.079 .22,4.041 .798,1.044 2.802,.641 2.871-.765 .084-1.714 .168-3.429 .252-5.143 .055-1.115 .584-3.04-.119-4.011-.778-1.074-2.743-.747-3.067,.532-.238,.938 1.209,1.336 1.446,.398 .163-.644 .331,1.244 .335,1.152-.031,.643-.063,1.286-.095,1.929-.073,1.5-.147,3-.221,4.5-.063-.02-.125-.04-.188-.06 .011-.429 .022-.858 .033-1.287 .016-.644 .033-1.287 .049-1.93 .038-1.501 .076-3.002 .114-4.503 .025-.968-1.475-.966-1.5,0z"/>
<path d="m119.314,173.527c-.994,2.607-1.988,5.213-2.982,7.82-.298,.793 1.159,1.369 1.482,.586 1.053-2.584 2.105-5.167 3.159-7.751 .327-.792-1.356-1.457-1.659-.655z"/>
<path d="m118.591,173.328c-.611,1.604-1.223,3.208-1.835,4.813-.324,.851-1.534,2.765-1.182,3.691 .482,1.268 2.358,1.787 2.963,.301 .648-1.59 1.296-3.18 1.944-4.77 .347-.851 1.577-2.701 1.254-3.637-.457-1.327-2.226-1.806-3.069-.577-.549,.8 .751,1.549 1.295,.757 .026,.009 .052,.018 .077,.027 .376,.017 .366,.233-.032,.647-.243,.596-.486,1.192-.729,1.789-.567,1.391-1.134,2.782-1.701,4.173-.575,1.412-.142,.011-.063-.198 .306-.802 .612-1.604 .917-2.406 .535-1.403 1.07-2.807 1.605-4.211 .347-.906-1.103-1.293-1.444-.399z"/>
<path d="m113.097,171.447c-1.181,4.091-2.362,8.182-3.543,12.273-.231,.814 1.186,1.241 1.442,.434 1.274-4.063 2.549-8.125 3.823-12.189 .261-.818-1.487-1.343-1.722-.518z"/>
<path d="m112.374,171.248c-.636,2.203-1.272,4.406-1.908,6.608-.54,1.87-1.789,4.353-1.625,6.3 .122,1.458 2.459,1.534 2.878,.197 .687-2.188 1.373-4.375 2.059-6.563 .575-1.834 1.875-4.279 1.771-6.205-.088-1.623-2.372-1.493-3.099-.517-.579,.776 .724,1.523 1.295,.757 .019,.293 .039,.585 .058,.878-.196,.625-.392,1.25-.588,1.875-.294,.938-.588,1.875-.882,2.813-.588,1.875-1.176,3.751-1.765,5.626 1.172-3.737 2.162-7.592 3.253-11.371 .268-.931-1.18-1.326-1.447-.398z"/>
<path d="m100.037,168.864c-.311,2.771-.622,5.543-.933,8.315-.09,.841 1.517,1.038 1.634,.201 .375-2.765 .752-5.529 1.128-8.292 .12-.851-1.736-1.078-1.829-.224z"/>
<path d="m99.287,168.864c-.191,1.706-.383,3.411-.574,5.117-.1,.891-.797,3.072-.217,3.861 1.107,1.507 2.825,.771 3.052-.901 .231-1.701 .462-3.402 .694-5.104 .11-.81 .766-2.626 .244-3.389-.799-1.167-2.646-1.196-3.171,.215-.338,.908 1.112,1.297 1.446,.398 .182-.489 .165,1.42 .208,1.101-.086,.638-.173,1.276-.26,1.914-.203,1.488-.405,2.977-.607,4.465-.228,1.675-.13-.402-.104-.643 .096-.853 .191-1.706 .287-2.559 .167-1.493 .335-2.985 .502-4.478 .108-.958-1.393-.947-1.5,.003z"/>
<path d="m106.663,169.884c-.545,2.736-1.091,5.472-1.637,8.208-.162,.831 1.401,1.16 1.589,.334 .609-2.722 1.218-5.445 1.827-8.167 .191-.837-1.613-1.217-1.779-.375z"/>
<path d="m105.939,169.685c-.336,1.684-.671,3.367-1.007,5.051-.217,1.088-.919,2.738-.616,3.842 .365,1.326 2.699,1.49 3.021,.047 .375-1.675 .75-3.351 1.125-5.026 .236-1.057 .994-2.721 .697-3.801-.373-1.354-2.561-1.536-3.145-.292-.409,.87 .884,1.632 1.295,.757 .089,.142 .179,.283 .268,.425-.093,.419-.187,.838-.281,1.257-.141,.628-.281,1.256-.421,1.885-.281,1.257-.563,2.513-.843,3.77-.115,.512 .105-1.255 .094-1.202 .126-.631 .252-1.263 .378-1.894 .294-1.473 .588-2.946 .881-4.419 .189-.946-1.257-1.348-1.446-.4z"/>
<path d="m125.291,176.101c-1.206,2.516-2.412,5.03-3.617,7.547-.363,.765 1.033,1.456 1.419,.702 1.262-2.488 2.524-4.976 3.786-7.463 .391-.764-1.22-1.561-1.588-.786z"/>
<path d="m124.643,175.722c-.742,1.548-1.484,3.096-2.227,4.644-.483,1.008-1.552,2.412-1.552,3.562 0,1.378 2.21,2.113 2.876,.801 .776-1.531 1.553-3.063 2.33-4.593 .494-.973 1.619-2.375 1.619-3.502 0-1.401-2.065-2.126-2.929-1.063-.604,.744 .45,1.812 1.061,1.061 .04,.15 .08,.301 .119,.451-.194,.383-.388,.766-.583,1.148-.291,.574-.583,1.148-.874,1.722-.583,1.148-1.165,2.297-1.748,3.444-.266,.525 .477-1.233 .419-1.112 .278-.581 .557-1.161 .835-1.742 .649-1.354 1.298-2.709 1.948-4.063 .417-.869-.876-1.63-1.294-.758z"/>
<path d="m131.001,179.142c-1.408,2.407-2.816,4.815-4.224,7.223-.424,.732 .904,1.533 1.35,.813 1.462-2.375 2.924-4.75 4.385-7.126 .453-.729-1.08-1.652-1.511-.91z"/>
<path d="m130.354,178.764c-.805,1.375-1.609,2.751-2.414,4.127-.58,.991-1.995,2.559-1.995,3.749 0,1.396 2.051,2.181 2.83,.917 .836-1.357 1.671-2.715 2.506-4.072 .587-.954 2.063-2.518 2.063-3.681 0-1.417-1.91-2.199-2.873-1.192-.668,.699 .391,1.761 1.061,1.061 .007,.17 .014,.34 .02,.51-.208,.339-.417,.679-.626,1.018-.313,.509-.626,1.019-.94,1.527-.73,1.188-1.461,2.375-2.193,3.563 1.282-2.081 2.561-4.556 3.856-6.77 .489-.837-.808-1.592-1.295-.757z"/>
<path d="m281.975,277.074c-.459,6.251-12.567,4.159-16.677,4.159-12.039,0-24.079,0-36.119,0-32.006,0-64.011,0-96.016,0-12.04,0-24.08,0-36.12,0-4.108,0-16.219,2.091-16.677-4.159-.367-5.004 0-10.174 0-15.188 0-12.568 0-25.136 0-37.704 0-31.934 0-63.867 0-95.801 0-11.507 0-23.014 0-34.521 0-3.787-1.809-14.609 4.269-14.609 50.756,0 101.512,0 152.268,0 10.906,0 21.812,0 32.718,0 4.147,0 12.354-1.513 12.354,4.704 0,20.205 0,40.41 0,60.615 0,44.168 0,88.336 0,132.504 0,6.448 10,6.448 10,0 0-49.564 0-99.128 0-148.693 0-11.507 0-23.014 0-34.521 0-7.382 1.123-15.16-4.614-20.898-5.024-5.025-14.029-3.711-20.532-3.711-11.677,0-23.353,0-35.028,0-31.991,0-63.982,0-95.973,0-12.39,0-24.779,0-37.168,0-5.304,0-11.561-.896-16.816,.278-11.321,2.528-11.477,12.5-11.477,21.612 0,10.729 0,21.458 0,32.187 0,31.792 0,63.585 0,95.377 0,19.375 0,38.75 0,58.126 0,7.791 6.305,14.402 14.187,14.402 1.563,0 3.125,0 4.687,0 9.644,0 19.287,0 28.93,0 52.839,0 105.677,0 158.516,0 8.505,0 14.664-5.634 15.289-14.159 .471-6.436-9.533-6.391-10.001,0z"/>
</g>
</svg>
