<svg xmlns="http://www.w3.org/2000/svg" viewBox="20 20 321 321">
<g fill="#fff">
<path d="m251.833,286.334c0-36.111 0-72.223 0-108.333 0-6.449-10-6.449-10,0 0,36.111 0,72.222 0,108.333 0,6.448 10,6.448 10,0z"/>
<path d="m251.833,120.001c0-6.956 0-13.911 0-20.866 0-6.449-10-6.449-10,0 0,6.956 0,13.911 0,20.866 0,6.449 10,6.449 10,0z"/>
<path d="m288.759,113.632c-28.202-14.46-56.405-28.92-84.608-43.38-5.727-2.936-10.787,5.692-5.047,8.635 28.203,14.46 56.405,28.92 84.608,43.38 5.726,2.936 10.787-5.692 5.047-8.635z"/>
<path d="m136.833,150.984c6.2-1.85 12.492-3.471 18.851-4.672 8.5-1.605 15.959,.971 23.905,3.886 10.954,4.018 22.235,10.623 34.065,11.009 7.296,.238 15.346-3.587 21.991-6.186 4.038-1.579 8.011-3.305 12.074-4.823 7.977-2.98 15.38-5.382 23.906-3.886 6.361,1.116 12.664,2.827 18.851,4.672 1.858,.555 2.646-2.341 .797-2.893-6.2-1.85-12.491-3.471-18.851-4.673-7.98-1.507-14.637,.111-22.247,2.718-11.71,4.011-24.009,11.662-36.521,12.07-7.452,.243-15.945-3.972-22.727-6.689-4.586-1.838-9.129-3.741-13.794-5.38-7.143-2.51-13.599-4.118-21.125-2.915-6.746,1.079-13.432,2.918-19.974,4.87-1.848,.551-1.06,3.447 .799,2.892z"/>
<path d="m144.425,159.588c6.024-2.177 12.932-4.321 19.379-3.757 6.911,.605 13.977,3.766 20.365,6.296 9.375,3.713 19.262,8.915 29.485,9.248 6.396,.208 13.369-2.933 19.231-5.123 3.208-1.198 6.352-2.547 9.524-3.832 6.354-2.575 12.89-5.027 19.629-6.363 6.764-1.341 14.501,1.237 20.846,3.53 1.823,.659 2.602-2.24 .797-2.893-5.921-2.14-12.23-3.792-18.546-3.964-6.732-.185-14.043,3.152-20.203,5.492-9.988,3.794-20.465,9.8-31.278,10.152-6.682,.218-14.219-3.385-20.328-5.741-3.364-1.297-6.668-2.743-10.026-4.056-6.488-2.538-13.35-5.21-20.343-5.822-6.329-.554-13.449,1.813-19.33,3.939-1.805,.654-1.026,3.553 .798,2.894z"/>
<path d="m144.542,139.316c6.024-2.177 12.932-4.322 19.379-3.758 6.912,.605 13.978,3.767 20.365,6.297 9.375,3.713 19.262,8.914 29.485,9.248 6.396,.208 13.369-2.933 19.231-5.122 3.207-1.198 6.351-2.547 9.523-3.832 6.354-2.575 12.89-5.027 19.63-6.363 6.764-1.341 14.502,1.238 20.846,3.531 1.823,.659 2.602-2.24 .797-2.893-5.921-2.141-12.23-3.792-18.546-3.965-6.732-.185-14.043,3.152-20.203,5.492-9.988,3.794-20.465,9.799-31.278,10.152-6.682,.218-14.219-3.384-20.328-5.74-3.364-1.297-6.668-2.743-10.026-4.056-6.488-2.537-13.35-5.21-20.343-5.822-6.329-.554-13.449,1.814-19.33,3.939-1.805,.652-1.026,3.552 .798,2.892z"/>
<path d="m77.519,107.922c18.877-9.678 37.754-19.357 56.631-29.035 5.74-2.943 .68-11.571-5.047-8.635-18.877,9.678-37.754,19.357-56.631,29.035-5.741,2.943-.68,11.571 5.047,8.635z"/>
</g>
<g fill="none" stroke="#fff">
<g stroke-width="3">
<path d="m142.37,201.952c0,3.278-2.658,5.936-5.936,5.936s-5.935-2.657-5.935-5.936c0-1.253 .44-2.277 .831-3.375 .697-1.953 3.081-8.837 5.104-8.837 2.029,0 4.519,7.16 5.112,8.848 .385,1.096 .824,2.115 .824,3.364z"/>
<path d="m131.332,220.989c0,3.278-2.658,5.937-5.936,5.937-3.278,0-5.936-2.658-5.936-5.937 0-1.253 .44-2.276 .832-3.374 .696-1.953 3.08-8.837 5.104-8.837 2.029,0 4.519,7.159 5.112,8.849 .386,1.094 .824,2.114 .824,3.362z"/>
</g>
<path stroke-width="7" d="m189.137,249c1.822,0 3.301,1.764 3.301,3.936v31.156c0,2.172-1.479,3.934-3.301,3.934h-113.021c-1.821,0-3.3-1.762-3.3-3.934v-31.156c0-2.172 1.479-3.936 3.3-3.936h113.021z"/>
</g>
<g fill="#fff">
<path d="m90.61,122.285c3.255,10.628 1.836,20.408-2.95,30.318-2.589,5.361-5.073,10.538-6.553,16.372-2.423,9.548-.638,19.26 3.193,28.178 2.616,6.09 5.729,11.606 7.397,18.127 1.118,4.37 7.869,2.516 6.75-1.861-1.492-5.833-3.911-11.095-6.583-16.438-5.314-10.621-6.04-21.286-2.091-32.444 1.667-4.71 4.347-9.038 6.248-13.659 4.113-9.997 4.494-20.153 1.339-30.455-1.318-4.302-8.075-2.466-6.75,1.862z"/>
<path d="m102.458,133.417c.123,3.463 .688,7.191-.136,10.6-.846,3.497-2.253,7.039-3.879,10.25-3.837,7.576-6.627,15.483-6.874,24.055-.242,8.407 3.109,17.134 7.064,24.422 5.719,10.539 6.938,21.602 3.115,32.975-1.442,4.291 5.319,6.116 6.75,1.861 3.852-11.457 3.145-22.224-1.472-33.339-2.974-7.163-6.625-13.49-8.098-21.295-1.688-8.939 1.939-17.779 5.794-25.622 1.899-3.865 3.524-8.034 4.536-12.216 .911-3.764 .335-7.88 .2-11.69-.16-4.501-7.16-4.517-7-.001z"/>
</g>
<path fill="none" stroke="#fff" stroke-width="3" d="m125.396,192.879c0,3.277-2.658,5.936-5.936,5.936s-5.935-2.658-5.935-5.936c0-1.254 .44-2.277 .831-3.375 .697-1.953 3.081-8.837 5.104-8.837 2.029,0 4.519,7.159 5.112,8.848 .386,1.095 .824,2.114 .824,3.364z"/>
</svg>
