<svg xmlns="http://www.w3.org/2000/svg" viewBox="20 20 321 321">
<g fill="#fff">
<path d="m174.833,160.042 8.952-38.063 8.382,38.063z"/>
<path d="m176.28,160.441c2.984-12.688 5.968-25.375 8.952-38.063-.964,0-1.929,0-2.893,0 2.794,12.688 5.588,25.375 8.382,38.063 .482-.633 .964-1.266 1.446-1.899-5.778,0-11.556,0-17.333,0-1.935,0-1.935,3 0,3 5.778,0 11.555,0 17.333,0 1.014,0 1.654-.954 1.446-1.899-2.794-12.688-5.588-25.375-8.382-38.063-.318-1.448-2.558-1.423-2.893,0-2.984,12.688-5.968,25.375-8.952,38.063-.442,1.882 2.451,2.681 2.894,.798z"/>
<path d="m239.118,177.189c-10.674-2.415-21.348-4.83-32.021-7.245 .856,1.125 1.713,2.25 2.569,3.375 0-4.834 .81-10.292-1.102-14.821-2.332-5.526-11.34-3.998-15.96-3.998 1.125,.856 2.25,1.713 3.375,2.569-3.035-13.414-6.069-26.827-9.104-40.241-.758-3.35-5.992-3.35-6.75,0-3.035,13.414-6.069,26.828-9.104,40.241 1.125-.856 2.25-1.713 3.375-2.569-5.112,0-11.876-1.289-15.413,3.29-2.98,3.857-1.649,10.975-1.649,15.53 .856-1.125 1.713-2.25 2.569-3.375-10.673,2.415-21.347,4.83-32.02,7.244-3.35,.758-3.35,5.992 0,6.75 10.673,2.415 21.347,4.829 32.02,7.244-.856-1.125-1.713-2.25-2.569-3.375 0,3.867-1.472,11.696 1.102,15.028 3.981,5.154 9.991,3.998 15.849,3.998-1.125-.856-2.25-1.713-3.375-2.569 3.072,13.078 6.144,26.157 9.215,39.236 .784,3.34 5.978,3.359 6.75,0 3.007-13.079 6.015-26.158 9.021-39.236-1.125,.856-2.25,1.713-3.375,2.569 4.878,0 11.929,1.328 15.328-3.072 3.141-4.067 1.816-11.128 1.816-15.953-.856,1.125-1.713,2.25-2.569,3.375 10.674-2.415 21.348-4.83 32.021-7.245 4.402-.995 2.535-7.744-1.861-6.75-10.674,2.415-21.348,4.83-32.021,7.245-1.509,.342-2.569,1.873-2.569,3.375 0,3.512 0,7.022 0,10.534 0,2.603-8.361,1.491-10.145,1.491-1.506,0-3.028,1.062-3.375,2.569-3.007,13.079-6.015,26.158-9.021,39.236 2.25,0 4.5,0 6.75,0-3.072-13.078-6.144-26.157-9.215-39.236-.354-1.508-1.863-2.569-3.375-2.569-1.41,0-9.951,.923-9.951-1.182 0-3.615 0-7.229 0-10.845 0-1.502-1.061-3.033-2.569-3.375-10.673-2.414-21.347-4.829-32.02-7.244 0,2.25 0,4.5 0,6.75 10.673-2.414 21.347-4.829 32.02-7.244 1.509-.341 2.569-1.873 2.569-3.375 0-3.446 0-6.891 0-10.337 0-2.632 8.13-1.482 10.063-1.482 1.502,0 3.034-1.061 3.375-2.569 3.035-13.414 6.069-26.828 9.104-40.241-2.25,0-4.5,0-6.75,0 3.035,13.414 6.069,26.827 9.104,40.241 .342,1.509 1.873,2.569 3.375,2.569 1.563,0 10.062-.938 10.062,1.179 0,3.546 0,7.093 0,10.64 0,1.502 1.061,3.034 2.569,3.375 10.674,2.415 21.348,4.83 32.021,7.244 4.396,.996 6.264-5.753 1.861-6.749z"/>
<path d="m123.67,261.906c.383,1.313 .806,2.793 1.27,4.44 .463,1.648 .958,3.353 1.486,5.112 .526,1.76 1.062,3.52 1.605,5.279 .543,1.761 1.07,3.393 1.582,4.896 .417-1.633 .844-3.408 1.278-5.328 .434-1.92 .844-3.904 1.229-5.952 .386-2.048 .764-4.087 1.133-6.12 .37-2.031 .716-3.991 1.038-5.88h7.778c-1.126,5.568-2.422,11.216-3.887,16.944-1.464,5.729-3.05,11.168-4.755,16.32h-6.849c-1.118-3.072-2.205-6.296-3.258-9.672-1.054-3.377-2.092-6.76-3.114-10.152-1.025,3.393-2.05,6.775-3.076,10.152-1.025,3.376-2.099,6.6-3.22,9.672h-6.844c-1.704-5.152-3.287-10.592-4.749-16.32-1.462-5.729-2.755-11.376-3.88-16.944h8.112c.321,1.889 .675,3.849 1.062,5.88 .385,2.033 .788,4.072 1.206,6.12 .417,2.048 .844,4.032 1.278,5.952s.877,3.695 1.327,5.328c.577-1.567 1.138-3.232 1.683-4.992 .544-1.76 1.074-3.52 1.587-5.279 .513-1.76 .986-3.457 1.418-5.089s.826-3.087 1.178-4.368h6.382z"/>
<path d="m81.063,285.283c1.056,0 1.927-.088 2.616-.265 .688-.175 1.24-.415 1.656-.719 .416-.305 .704-.664 .864-1.08 .16-.416 .24-.881 .24-1.393 0-1.088-.512-1.992-1.536-2.712-1.024-.72-2.784-1.495-5.28-2.328-1.088-.384-2.177-.823-3.264-1.319-1.088-.496-2.064-1.121-2.928-1.873-.864-.751-1.568-1.663-2.112-2.736-.544-1.07-.816-2.375-.816-3.911s.288-2.92 .864-4.152c.576-1.231 1.392-2.28 2.448-3.144 1.056-.864 2.335-1.527 3.84-1.992 1.504-.463 3.2-.696 5.088-.696 2.24,0 4.176,.24 5.808,.72 1.632,.48 2.976,1.008 4.032,1.584l-2.16,5.904c-.929-.48-1.96-.903-3.096-1.271-1.136-.367-2.504-.553-4.104-.553-1.792,0-3.08,.248-3.864,.744-.785,.496-1.176,1.256-1.176,2.28 0,.608 .144,1.12 .432,1.536s.696,.792 1.224,1.128 1.136,.641 1.824,.912c.688,.272 1.447,.552 2.28,.84 1.728,.641 3.232,1.272 4.512,1.896 1.279,.625 2.344,1.353 3.192,2.185 .847,.833 1.479,1.808 1.896,2.928 .416,1.12 .624,2.48 .624,4.08 0,3.104-1.088,5.513-3.264,7.224-2.176,1.713-5.456,2.568-9.84,2.568-1.472,0-2.801-.088-3.984-.264-1.185-.176-2.232-.393-3.144-.648-.912-.256-1.697-.527-2.352-.816-.656-.287-1.208-.559-1.656-.815l2.112-5.952c.991,.545 2.215,1.032 3.672,1.465 1.456,.429 3.24,.645 5.352,.645z"/>
</g>
</svg>
