<svg xmlns="http://www.w3.org/2000/svg" viewBox="20 20 321 321">
<path fill="#fff" d="m282.148,96.03c0,49.764 0,99.527 0,149.291 0,13.782 0,27.563 0,41.346 0,6.448 10,6.448 10,0 0-49.764 0-99.527 0-149.291 0-13.782 0-27.564 0-41.346 0-6.448-10-6.448-10,0z"/>
<g fill="none" stroke="#fff" stroke-width="10">
<path d="m95.345,126.976 117.053-51.453"/>
<path d="m105.563,157.045 125.162-13.128"/>
</g>
<g fill="#fff">
<path d="m212.398,75.523 64.685,19.32-46.358,49.074z"/>
<path d="m211.069,80.345c21.562,6.44 43.123,12.88 64.685,19.32-.735-2.786-1.471-5.571-2.206-8.357-15.453,16.358-30.906,32.716-46.358,49.074 2.785,.735 5.571,1.471 8.356,2.207-6.108-22.798-12.218-45.596-18.326-68.394-1.667-6.223-11.314-3.579-9.643,2.658 6.108,22.798 12.218,45.596 18.326,68.394 .955,3.565 5.765,4.951 8.356,2.207 15.453-16.358 30.906-32.716 46.358-49.074 2.606-2.758 1.455-7.264-2.206-8.357-21.562-6.44-43.123-12.88-64.685-19.32-6.193-1.851-8.82,7.801-2.657,9.642z"/>
<path d="m120.743,152.304c.902,3.603-1.41,7.288-5.165,8.228l-9.628,2.409c-3.753,.938-7.528-1.223-8.43-4.826l-7.281-29.096c-.903-3.604 1.41-7.289 5.164-8.228l9.629-2.409c3.754-.938 7.528,1.222 8.431,4.826l7.28,29.096z"/>
<path d="m160.762,145.611c1.11,4.44-1.033,8.802-4.788,9.742l-9.628,2.409c-3.753,.939-7.698-1.899-8.809-6.339l-8.97-35.847c-1.111-4.44 1.032-8.802 4.787-9.742l9.629-2.409c3.752-.939 7.697,1.899 8.808,6.34l8.971,35.846z"/>
<path d="m203.645,138.335c1.395,5.571-.518,10.853-4.271,11.791l-9.629,2.409c-3.754,.939-7.928-2.817-9.322-8.389l-11.258-44.987c-1.394-5.571 .519-10.853 4.273-11.791l9.629-2.409c3.753-.938 7.928,2.818 9.322,8.389l11.256,44.987z"/>
</g>
<path fill="none" stroke="#fff" stroke-width="10" d="m92.934,212.156c0-1.65-.418-2.988-.933-2.988h-16.163c-.515,0-.933,1.338-.933,2.988v58.252c0,1.649 .417,2.986 .933,2.986h16.163c.515,0 .933-1.337 .933-2.986v-58.252z"/>
<path fill="#fff" d="m95.856,290.425c19.719-15.071 39.438-30.142 59.156-45.213 3.178-2.429 3.178-6.206 0-8.635-19.719-15.071-39.438-30.142-59.156-45.213-3.126-2.39-7.523,.882-7.523,4.317 0,30.142 0,60.284 0,90.426 0,6.448 10,6.448 10,0 0-30.142 0-60.284 0-90.426-2.508,1.439-5.016,2.878-7.523,4.317 19.719,15.071 39.438,30.142 59.156,45.213 0-2.878 0-5.757 0-8.635-19.719,15.071-39.438,30.142-59.156,45.213-5.05,3.86-.079,12.553 5.046,8.636z"/>
</svg>
