<svg xmlns="http://www.w3.org/2000/svg" viewBox="20 20 321 321">
<g fill="#fff">
<path d="m183.078,285.955c1.057,0 1.928-.088 2.616-.264s1.239-.416 1.656-.721c.415-.303 .704-.664 .864-1.08 .159-.415 .24-.879 .24-1.392 0-1.087-.513-1.992-1.537-2.712-1.023-.721-2.783-1.496-5.279-2.328-1.088-.384-2.177-.824-3.264-1.32-1.088-.496-2.064-1.119-2.928-1.871-.864-.752-1.568-1.664-2.112-2.736-.544-1.072-.816-2.377-.816-3.912 0-1.536 .288-2.92 .864-4.152 .576-1.231 1.392-2.279 2.448-3.145 1.056-.863 2.335-1.527 3.84-1.991 1.503-.464 3.2-.696 5.087-.696 2.24,0 4.177,.24 5.809,.721 1.633,.479 2.977,1.008 4.032,1.584l-2.16,5.903c-.929-.479-1.96-.903-3.097-1.272-1.136-.367-2.504-.551-4.104-.551-1.793,0-3.08,.248-3.863,.744-.785,.496-1.176,1.256-1.176,2.279 0,.608 .144,1.121 .432,1.536 .288,.416 .696,.792 1.224,1.128s1.136,.641 1.824,.912c.688,.271 1.447,.552 2.28,.84 1.728,.641 3.231,1.271 4.512,1.896 1.279,.623 2.344,1.352 3.191,2.184s1.48,1.809 1.896,2.928c.416,1.121 .624,2.48 .624,4.08 0,3.104-1.089,5.513-3.265,7.225s-5.455,2.567-9.84,2.567c-1.472,0-2.8-.089-3.983-.264-1.185-.177-2.232-.393-3.144-.648-.912-.255-1.697-.528-2.352-.815-.656-.289-1.208-.561-1.656-.816l2.112-5.952c.991,.545 2.215,1.032 3.672,1.464 1.457,.43 3.241,.647 5.353,.647z"/>
<path d="m174.833,160.042 8.952-38.063 8.382,38.063z"/>
<path d="m176.28,160.441c2.984-12.688 5.968-25.375 8.952-38.063-.964,0-1.929,0-2.893,0 2.794,12.688 5.588,25.375 8.382,38.063 .482-.633 .964-1.266 1.446-1.899-5.778,0-11.556,0-17.333,0-1.935,0-1.935,3 0,3 5.778,0 11.555,0 17.333,0 1.014,0 1.654-.954 1.446-1.899-2.794-12.688-5.588-25.375-8.382-38.063-.318-1.448-2.558-1.423-2.893,0-2.984,12.688-5.968,25.375-8.952,38.063-.442,1.882 2.451,2.681 2.894,.798z"/>
<path d="m239.118,177.189c-10.674-2.415-21.348-4.83-32.021-7.245 .856,1.125 1.713,2.25 2.569,3.375 0-4.834 .81-10.292-1.102-14.821-2.332-5.526-11.34-3.998-15.96-3.998 1.125,.856 2.25,1.713 3.375,2.569-3.035-13.414-6.069-26.827-9.104-40.241-.758-3.35-5.992-3.35-6.75,0-3.035,13.414-6.069,26.828-9.104,40.241 1.125-.856 2.25-1.713 3.375-2.569-5.112,0-11.876-1.289-15.413,3.29-2.98,3.857-1.649,10.975-1.649,15.53 .856-1.125 1.713-2.25 2.569-3.375-10.673,2.415-21.347,4.83-32.02,7.244-3.35,.758-3.35,5.992 0,6.75 10.673,2.415 21.347,4.829 32.02,7.244-.856-1.125-1.713-2.25-2.569-3.375 0,3.867-1.472,11.696 1.102,15.028 3.981,5.154 9.991,3.998 15.849,3.998-1.125-.856-2.25-1.713-3.375-2.569 3.072,13.078 6.144,26.157 9.215,39.236 .784,3.34 5.978,3.359 6.75,0 3.007-13.079 6.015-26.158 9.021-39.236-1.125,.856-2.25,1.713-3.375,2.569 4.878,0 11.929,1.328 15.328-3.072 3.141-4.067 1.816-11.128 1.816-15.953-.856,1.125-1.713,2.25-2.569,3.375 10.674-2.415 21.348-4.83 32.021-7.245 4.402-.995 2.535-7.744-1.861-6.75-10.674,2.415-21.348,4.83-32.021,7.245-1.509,.342-2.569,1.873-2.569,3.375 0,3.512 0,7.022 0,10.534 0,2.603-8.361,1.491-10.145,1.491-1.506,0-3.028,1.062-3.375,2.569-3.007,13.079-6.015,26.158-9.021,39.236 2.25,0 4.5,0 6.75,0-3.072-13.078-6.144-26.157-9.215-39.236-.354-1.508-1.863-2.569-3.375-2.569-1.41,0-9.951,.923-9.951-1.182 0-3.615 0-7.229 0-10.845 0-1.502-1.061-3.033-2.569-3.375-10.673-2.414-21.347-4.829-32.02-7.244 0,2.25 0,4.5 0,6.75 10.673-2.414 21.347-4.829 32.02-7.244 1.509-.341 2.569-1.873 2.569-3.375 0-3.446 0-6.891 0-10.337 0-2.632 8.13-1.482 10.063-1.482 1.502,0 3.034-1.061 3.375-2.569 3.035-13.414 6.069-26.828 9.104-40.241-2.25,0-4.5,0-6.75,0 3.035,13.414 6.069,26.827 9.104,40.241 .342,1.509 1.873,2.569 3.375,2.569 1.563,0 10.062-.938 10.062,1.179 0,3.546 0,7.093 0,10.64 0,1.502 1.061,3.034 2.569,3.375 10.674,2.415 21.348,4.83 32.021,7.244 4.396,.996 6.264-5.753 1.861-6.749z"/>
</g>
</svg>
