<svg xmlns="http://www.w3.org/2000/svg" viewBox="20 20 321 321">
<g fill="#fff">
<path d="m127.302,208.033c-5.5,9.526-11,19.053-16.5,28.579-3.23,5.595 5.412,10.628 8.635,5.047 5.5-9.526 11-19.053 16.5-28.579 3.23-5.595-5.413-10.628-8.635-5.047z"/>
<path d="m134.42,169.894c-5.883,10.19-11.766,20.38-17.649,30.57-3.23,5.595 5.413,10.628 8.635,5.047 5.883-10.19 11.766-20.38 17.649-30.57 3.231-5.595-5.412-10.629-8.635-5.047z"/>
<path d="m130.687,144.27c-5.883,10.19-11.767,20.38-17.65,30.571-3.23,5.595 5.412,10.628 8.635,5.047 5.883-10.19 11.767-20.38 17.65-30.571 3.23-5.595-5.412-10.629-8.635-5.047z"/>
<path d="m101.321,193.033c-5.5,9.526-11,19.053-16.5,28.579-3.23,5.595 5.413,10.628 8.635,5.047 5.5-9.526 11-19.053 16.5-28.579 3.23-5.595-5.413-10.628-8.635-5.047z"/>
<path d="m105.312,216.122c-5.5,9.526-11,19.053-16.5,28.579-3.23,5.595 5.412,10.628 8.635,5.047 5.5-9.526 11-19.053 16.5-28.579 3.23-5.595-5.413-10.628-8.635-5.047z"/>
<path d="m262.792,175.955c-5.5,9.526-11,19.052-16.5,28.579-3.23,5.595 5.412,10.628 8.635,5.047 5.5-9.526 11-19.053 16.5-28.578 3.23-5.596-5.412-10.63-8.635-5.048z"/>
<path d="m262.122,145.385c-5.883,10.19-11.767,20.38-17.649,30.57-3.23,5.595 5.412,10.628 8.635,5.047 5.883-10.19 11.767-20.38 17.649-30.57 3.23-5.595-5.412-10.629-8.635-5.047z"/>
<path d="m230.302,198.033c-5.5,9.526-11,19.053-16.5,28.579-3.23,5.595 5.412,10.628 8.635,5.047 5.5-9.526 11-19.053 16.5-28.579 3.23-5.595-5.413-10.628-8.635-5.047z"/>
<path d="m238.064,154.963c-5.883,10.19-11.767,20.38-17.649,30.57-3.23,5.595 5.412,10.628 8.635,5.047 5.883-10.19 11.767-20.38 17.649-30.57 3.231-5.595-5.412-10.629-8.635-5.047z"/>
<path d="m237.312,220.122c-5.5,9.526-11,19.053-16.5,28.579-3.23,5.595 5.412,10.628 8.635,5.047 5.5-9.526 11-19.053 16.5-28.579 3.23-5.595-5.413-10.628-8.635-5.047z"/>
<path d="m182.487,198.003c6.12,3.213 12.24,6.427 18.36,9.64 5.703,2.994 10.758-5.636 5.047-8.635-6.12-3.213-12.24-6.427-18.36-9.64-5.703-2.994-10.758,5.636-5.047,8.635z"/>
<path d="m188.765,171.292c2.97,10.591 5.94,21.183 8.91,31.775 1.738,6.2 11.388,3.563 9.643-2.658-2.97-10.592-5.94-21.184-8.91-31.775-1.739-6.199-11.388-3.563-9.643,2.658z"/>
<path d="m180.543,196.382c4.337,10.108 8.674,20.218 13.011,30.326 2.536,5.911 11.148,.812 8.635-5.047-4.337-10.108-8.674-20.218-13.011-30.326-2.536-5.911-11.148-.812-8.635,5.047z"/>
<path d="m187.856,227.961c2.743,.537 5.485,1.075 8.229,1.612 2.672,.523 5.388-.719 6.15-3.492 .682-2.476-.816-5.626-3.492-6.15-2.743-.537-5.485-1.075-8.229-1.612-2.672-.523-5.388,.719-6.15,3.492-.681,2.476 .817,5.626 3.492,6.15z"/>
<path d="m181.761,223.903c2.969,10.592 5.938,21.184 8.907,31.775 1.738,6.2 11.387,3.563 9.643-2.658-2.969-10.592-5.938-21.184-8.907-31.775-1.739-6.2-11.387-3.563-9.643,2.658z"/>
<path d="m150.958,200.238c4.957,4.504 9.914,9.007 14.871,13.51 4.761,4.325 11.854-2.726 7.071-7.07-4.957-4.504-9.914-9.007-14.871-13.51-4.761-4.325-11.854,2.726-7.071,7.07z"/>
<path d="m157.558,176.822c2.104,10.992 4.208,21.984 6.313,32.977 1.211,6.329 10.849,3.642 9.643-2.658-2.104-10.992-4.208-21.984-6.313-32.977-1.212-6.33-10.849-3.642-9.643,2.658z"/>
<path d="m149.542,198.167c3.252,10.827 6.504,21.655 9.756,32.482 1.85,6.16 11.502,3.534 9.643-2.658-3.252-10.827-6.504-21.655-9.756-32.482-1.851-6.16-11.503-3.534-9.643,2.658z"/>
<g stroke="#fff">
<path stroke-width="13.255" d="m177.941,152.994c0,4.756 3.762,8.614 8.401,8.614h39.207c4.641,0 8.402-3.857 8.402-8.614v-24.406c0-4.756-3.762-8.614-8.402-8.614h-39.207c-4.639,0-8.401,3.857-8.401,8.614v24.406z"/>
<path stroke-width="11.477" d="m133.384,145.341c0-4.068 3.298-7.367 7.366-7.367h42.357c4.067,0 7.365,3.298 7.365,7.367v11.663c0,4.068-3.298,7.367-7.365,7.367h-42.357c-4.068,0-7.366-3.299-7.366-7.367v-11.663z"/>
<path stroke-width="9.983" d="m153.233,138.267c0,3.667-2.484,6.64-5.549,6.64h-43.009c-3.064,0-5.549-2.973-5.549-6.64v-48.133c0-3.667 2.485-6.64 5.549-6.64h43.009c3.065,0 5.549,2.973 5.549,6.64v48.133z"/>
<g stroke-width="11.477">
<path d="m237.078,137.667c0,4.068 3.297,7.366 7.365,7.366h34.377c4.068,0 7.366-3.298 7.366-7.366v-20.872c0-4.068-3.298-7.366-7.366-7.366h-34.377c-4.068,0-7.365,3.298-7.365,7.366v20.872z"/>
<path d="m121.088,130.608c0,4.067 3.298,7.366 7.366,7.366h34.376c4.068,0 7.366-3.299 7.366-7.366v-20.872c0-4.067-3.298-7.366-7.366-7.366h-34.376c-4.068,0-7.366,3.299-7.366,7.366v20.872z"/>
<path d="m187.52,83.495c4.068,0 7.367,3.298 7.367,7.367v42.356c0,4.068-3.299,7.366-7.367,7.366h-11.663c-4.068,0-7.367-3.298-7.367-7.366v-42.357c0-4.068 3.299-7.366 7.367-7.366h11.663z"/>
<path d="m185.011,99.608c0-4.068 3.298-7.367 7.366-7.367h42.357c4.067,0 7.365,3.298 7.365,7.367v11.663c0,4.068-3.298,7.367-7.365,7.367h-42.357c-4.068,0-7.366-3.299-7.366-7.367v-11.663z"/>
<path d="m156.914,159.025c0,4.068-3.298,7.366-7.367,7.366h-42.357c-4.068,0-7.366-3.298-7.366-7.367v-11.663c0-4.068 3.298-7.367 7.366-7.367h42.357c4.068,0 7.366,3.299 7.366,7.367v11.664z"/>
<path d="m248.995,151.961c-4.068,0-7.366-3.298-7.366-7.367v-42.356c0-4.068 3.299-7.366 7.367-7.366h11.662c4.068,0 7.367,3.298 7.367,7.366v42.357c0,4.068-3.299,7.366-7.367,7.366h-11.663z"/>
<path d="m267.109,159.025c0,4.068-3.299,7.366-7.367,7.366h-42.355c-4.068,0-7.367-3.298-7.367-7.367v-11.663c0-4.068 3.299-7.367 7.367-7.367h42.356c4.067,0 7.366,3.299 7.366,7.367v11.664z"/>
<path d="m214.95,75.895c4.068,0 7.367,3.298 7.367,7.366v42.357c0,4.067-3.299,7.366-7.367,7.366h-11.663c-4.068,0-7.367-3.299-7.367-7.366v-42.357c0-4.068 3.299-7.366 7.367-7.366h11.663z"/>
<path d="m77.094,134.163c0-4.068 3.298-7.367 7.366-7.367h42.357c4.068,0 7.366,3.298 7.366,7.367v11.663c0,4.068-3.298,7.367-7.366,7.367h-42.357c-4.068,0-7.366-3.299-7.366-7.367v-11.663z"/>
<path d="m86.574,108.369c0-4.068 3.298-7.367 7.366-7.367h42.357c4.068,0 7.366,3.298 7.366,7.367v11.663c0,4.068-3.298,7.367-7.366,7.367h-42.357c-4.068,0-7.366-3.299-7.366-7.367v-11.663z"/>
<path d="m132.011,75.825c4.068,0 7.367,3.298 7.367,7.366v42.357c0,4.067-3.299,7.366-7.367,7.366h-11.663c-4.068,0-7.367-3.299-7.367-7.366v-42.357c0-4.068 3.299-7.366 7.367-7.366h11.663z"/>
</g>
</g>
</g>
</svg>
