<svg xmlns="http://www.w3.org/2000/svg" viewBox="20 20 321 321">
<g fill="#fff">
<g stroke="#fff" stroke-width="13.063">
<path d="m196.65,140.42c0,4.328-3.148,7.838-7.033,7.838h-54.511c-3.885,0-7.035-3.51-7.035-7.838v-56.823c0-4.329 3.15-7.838 7.035-7.838h54.511c3.885,0 7.033,3.509 7.033,7.838v56.823z"/>
<path d="m93.455,120.825c0,4.329 3.509,7.838 7.838,7.838h36.576c4.328,0 7.837-3.509 7.837-7.838v-22.206c0-4.329-3.51-7.838-7.837-7.838h-36.576c-4.329,0-7.838,3.509-7.838,7.838v22.206z"/>
<path d="m77.779,120.825c0-4.328 3.509-7.837 7.838-7.837h45.067c4.328,0 7.837,3.509 7.837,7.837v12.41c0,4.329-3.51,7.838-7.837,7.838h-45.067c-4.329,0-7.838-3.509-7.838-7.838v-12.41z"/>
<path d="m249.121,148.258c0,4.328-3.149,7.838-7.033,7.838h-54.514c-3.885,0-7.034-3.51-7.034-7.838v-56.823c0-4.329 3.149-7.838 7.034-7.838h54.514c3.884,0 7.033,3.509 7.033,7.838v56.823z"/>
<path d="m233.227,141.727c0,4.328 3.51,7.838 7.838,7.838h36.576c4.328,0 7.838-3.51 7.838-7.838v-22.208c0-4.328-3.51-7.837-7.838-7.837h-36.576c-4.328,0-7.838,3.51-7.838,7.837v22.208z"/>
<path d="m202.094,157.402c0,4.328-3.148,7.837-7.033,7.837h-54.512c-3.884,0-7.034-3.509-7.034-7.837v-56.824c0-4.329 3.149-7.838 7.034-7.838h54.512c3.885,0 7.033,3.509 7.033,7.838v56.824z"/>
<path d="m103.063,142.532c0-4.328 3.509-7.837 7.838-7.837h45.067c4.328,0 7.837,3.509 7.837,7.837v12.41c0,4.329-3.51,7.838-7.837,7.838h-45.067c-4.329,0-7.838-3.509-7.838-7.838v-12.41z"/>
</g>
<path d="m186.213,164.492c-2.649,9.07-5.299,18.14-7.949,27.209-1.269,4.344 5.486,6.185 6.75,1.861 2.649-9.07 5.3-18.14 7.949-27.209 1.268-4.343-5.486-6.185-6.75-1.861z"/>
<path d="m178.395,168.324c2.198,2.299 4.397,4.598 6.595,6.896 3.125,3.268 8.067-1.689 4.949-4.95-2.198-2.299-4.396-4.598-6.595-6.896-3.124-3.268-8.067,1.689-4.949,4.95z"/>
<path d="m195.684,167.073c-3.09,.754-6.18,1.508-9.27,2.263-4.384,1.07-2.523,7.82 1.861,6.75 3.09-.754 6.18-1.508 9.27-2.263 4.384-1.071 2.523-7.821-1.861-6.75z"/>
<path d="m159.572,174.278c6.53,6.83 13.06,13.659 19.59,20.488 3.125,3.269 8.068-1.688 4.95-4.949-6.53-6.83-13.06-13.659-19.589-20.489-3.126-3.268-8.069,1.689-4.951,4.95z"/>
<path d="m158.987,182.94c3.09-.754 6.18-1.509 9.271-2.263 4.384-1.07 2.524-7.82-1.861-6.75-3.09,.754-6.18,1.508-9.271,2.263-4.384,1.07-2.524,7.821 1.861,6.75z"/>
<path d="m166.538,167.299c-.892,3.053-1.784,6.106-2.676,9.16-1.269,4.343 5.487,6.185 6.75,1.861 .892-3.053 1.784-6.106 2.676-9.16 1.269-4.343-5.487-6.184-6.75-1.861z"/>
<path d="m155.094,202.385c9.179-2.24 18.358-4.48 27.538-6.721 4.384-1.07 2.523-7.82-1.861-6.75-9.179,2.24-18.358,4.48-27.538,6.721-4.384,1.07-2.524,7.82 1.861,6.75z"/>
<path d="m162.267,207.277c.892-3.054 1.784-6.106 2.676-9.159 1.269-4.344-5.487-6.185-6.75-1.861-.892,3.054-1.784,6.106-2.676,9.159-1.269,4.344 5.486,6.185 6.75,1.861z"/>
<path d="m152.527,192.887c2.198,2.299 4.396,4.598 6.595,6.896 3.125,3.269 8.068-1.688 4.95-4.949-2.198-2.299-4.396-4.598-6.595-6.896-3.125-3.269-8.068,1.688-4.95,4.949z"/>
<path d="m177.104,220.528c2.649-9.07 5.299-18.14 7.949-27.209 1.269-4.344-5.487-6.185-6.75-1.861-2.649,9.07-5.299,18.14-7.949,27.209-1.269,4.344 5.487,6.185 6.75,1.861z"/>
<path d="m184.92,216.697c-2.197-2.299-4.396-4.598-6.593-6.896-3.125-3.269-8.068,1.688-4.95,4.949 2.198,2.299 4.396,4.598 6.594,6.896 3.124,3.269 8.067-1.688 4.949-4.949z"/>
<path d="m167.632,217.947c3.09-.754 6.18-1.508 9.27-2.262 4.384-1.069 2.524-7.819-1.861-6.75-3.09,.754-6.18,1.508-9.27,2.262-4.384,1.07-2.524,7.82 1.861,6.75z"/>
<path d="m203.805,210.536c-6.529-6.83-13.06-13.659-19.59-20.488-3.124-3.269-8.067,1.688-4.95,4.949 6.53,6.83 13.06,13.659 19.59,20.488 3.124,3.269 8.068-1.688 4.95-4.949z"/>
<path d="m204.39,201.873c-3.09,.754-6.18,1.508-9.271,2.262-4.384,1.069-2.523,7.819 1.861,6.75 3.09-.754 6.18-1.508 9.271-2.262 4.384-1.069 2.523-7.819-1.861-6.75z"/>
<path d="m196.84,217.515c.892-3.054 1.783-6.107 2.675-9.16 1.269-4.344-5.487-6.185-6.75-1.861-.892,3.054-1.783,6.107-2.675,9.16-1.269,4.343 5.487,6.184 6.75,1.861z"/>
<path d="m208.282,182.428c-9.179,2.24-18.358,4.48-27.538,6.721-4.384,1.07-2.524,7.82 1.861,6.75 9.179-2.24 18.358-4.48 27.538-6.721 4.384-1.071 2.524-7.821-1.861-6.75z"/>
<path d="m201.11,177.535c-.892,3.053-1.784,6.106-2.676,9.159-1.269,4.344 5.487,6.185 6.75,1.861 .892-3.054 1.784-6.106 2.676-9.159 1.269-4.343-5.487-6.184-6.75-1.861z"/>
<path d="m210.85,191.927c-2.198-2.3-4.396-4.599-6.596-6.897-3.125-3.269-8.067,1.688-4.949,4.949 2.198,2.3 4.396,4.599 6.596,6.897 3.124,3.269 8.067-1.688 4.949-4.949z"/>
<path d="m102.772,134.555c0,9.449 0,18.898 0,28.347 0,4.514 7,4.514 7,0 0-9.449 0-18.898 0-28.347 0-4.514-7-4.514-7,0z"/>
<path d="m96.257,140.431c2.755,1.59 5.509,3.181 8.264,4.771 3.917,2.261 7.44-3.789 3.533-6.044-2.755-1.59-5.51-3.181-8.264-4.771-3.916-2.262-7.439,3.788-3.533,6.044z"/>
<path d="m112.66,134.387c-2.755,1.59-5.509,3.181-8.264,4.771-3.907,2.255-.383,8.305 3.533,6.044 2.754-1.59 5.509-3.181 8.264-4.771 3.907-2.256 .384-8.306-3.533-6.044z"/>
<path d="m79.859,151.424c8.183,4.725 16.366,9.449 24.548,14.173 3.917,2.261 7.44-3.789 3.533-6.044-8.183-4.725-16.366-9.449-24.548-14.173-3.916-2.261-7.44,3.788-3.533,6.044z"/>
<path d="m81.739,159.994c2.754-1.59 5.509-3.181 8.264-4.771 3.907-2.255 .383-8.305-3.533-6.044-2.755,1.59-5.509,3.181-8.264,4.771-3.907,2.256-.384,8.305 3.533,6.044z"/>
<path d="m84.674,142.767c0,3.181 0,6.362 0,9.542 0,4.514 7,4.514 7,0 0-3.181 0-6.362 0-9.542 0-4.515-7-4.515-7,0z"/>
<path d="m83.454,179.75c8.183-4.724 16.366-9.448 24.549-14.173 3.907-2.255 .383-8.305-3.533-6.044-8.183,4.724-16.366,9.448-24.549,14.173-3.907,2.256-.383,8.306 3.533,6.044z"/>
<path d="m91.783,182.445c0-3.181 0-6.362 0-9.542 0-4.514-7-4.514-7,0 0,3.181 0,6.362 0,9.542 0,4.514 7,4.514 7,0z"/>
<path d="m78.315,171.262c2.754,1.59 5.509,3.181 8.264,4.771 3.917,2.261 7.44-3.789 3.533-6.044-2.754-1.59-5.509-3.181-8.264-4.771-3.916-2.261-7.44,3.789-3.533,6.044z"/>
<path d="m109.741,191.004c0-9.448 0-18.897 0-28.346 0-4.514-7-4.514-7,0 0,9.449 0,18.897 0,28.346 0,4.514 7,4.514 7,0z"/>
<path d="m116.256,185.128c-2.755-1.59-5.51-3.18-8.264-4.77-3.917-2.261-7.44,3.789-3.533,6.044 2.755,1.59 5.509,3.18 8.264,4.771 3.917,2.261 7.44-3.789 3.533-6.045z"/>
<path d="m99.853,191.173c2.754-1.591 5.509-3.181 8.264-4.771 3.907-2.256 .383-8.306-3.533-6.044-2.754,1.59-5.509,3.18-8.264,4.77-3.907,2.256-.383,8.306 3.533,6.045z"/>
<path d="m132.655,173.919c-8.183-4.725-16.366-9.449-24.549-14.173-3.917-2.261-7.44,3.789-3.533,6.044 8.183,4.725 16.366,9.449 24.549,14.173 3.916,2.262 7.44-3.788 3.533-6.044z"/>
<path d="m130.774,165.35c-2.755,1.59-5.509,3.181-8.264,4.771-3.907,2.255-.383,8.305 3.533,6.044 2.754-1.59 5.509-3.181 8.264-4.771 3.907-2.256 .384-8.306-3.533-6.044z"/>
<path d="m127.839,182.577c0-3.181 0-6.362 0-9.542 0-4.514-7-4.514-7,0 0,3.181 0,6.362 0,9.542 0,4.514 7,4.514 7,0z"/>
<path d="m129.059,145.593c-8.183,4.724-16.366,9.449-24.549,14.173-3.907,2.255-.383,8.305 3.533,6.044 8.183-4.724 16.366-9.449 24.549-14.173 3.907-2.256 .383-8.305-3.533-6.044z"/>
<path d="m120.73,142.898c0,3.181 0,6.362 0,9.542 0,4.514 7,4.514 7,0 0-3.181 0-6.362 0-9.542 0-4.514-7-4.514-7,0z"/>
<path d="m134.198,154.082c-2.755-1.591-5.51-3.181-8.264-4.771-3.917-2.261-7.44,3.789-3.533,6.044 2.755,1.591 5.509,3.181 8.264,4.771 3.917,2.261 7.44-3.789 3.533-6.044z"/>
<path d="m135.87,216.102c-6.681,6.682-13.362,13.363-20.044,20.045-3.194,3.194 1.755,8.145 4.95,4.949 6.681-6.682 13.362-13.363 20.044-20.045 3.194-3.195-1.756-8.145-4.95-4.949z"/>
<path d="m127.12,215.692c.823,3.072 1.646,6.145 2.47,9.217 1.167,4.355 7.92,2.505 6.75-1.861-.823-3.072-1.646-6.145-2.47-9.217-1.168-4.355-7.92-2.505-6.75,1.861z"/>
<path d="m143.023,222.985c-3.072-.823-6.145-1.646-9.217-2.47-4.367-1.17-6.217,5.583-1.861,6.75 3.072,.823 6.145,1.646 9.217,2.47 4.367,1.17 6.217-5.583 1.861-6.75z"/>
<path d="m107.75,211.87c2.445,9.127 4.891,18.254 7.336,27.381 1.167,4.355 7.92,2.505 6.75-1.861-2.445-9.127-4.891-18.254-7.336-27.381-1.167-4.356-7.919-2.505-6.75,1.861z"/>
<path d="m102.966,219.206c3.073,.823 6.145,1.646 9.217,2.47 4.367,1.17 6.217-5.583 1.861-6.75-3.073-.823-6.145-1.646-9.217-2.47-4.367-1.17-6.217,5.583-1.861,6.75z"/>
<path d="m117.266,209.111c-2.249,2.249-4.499,4.498-6.748,6.747-3.195,3.194 1.755,8.144 4.95,4.949 2.249-2.249 4.499-4.498 6.748-6.747 3.195-3.194-1.755-8.143-4.95-4.949z"/>
<path d="m90.209,234.389c9.127,2.446 18.254,4.892 27.38,7.338 4.366,1.17 6.217-5.583 1.861-6.75-9.127-2.446-18.254-4.892-27.38-7.338-4.366-1.17-6.217,5.583-1.861,6.75z"/>
<path d="m94.236,242.194c2.249-2.249 4.498-4.498 6.748-6.747 3.194-3.194-1.755-8.144-4.95-4.949-2.249,2.249-4.498,4.498-6.748,6.747-3.194,3.194 1.756,8.144 4.95,4.949z"/>
<path d="m92.631,224.807c.823,3.072 1.647,6.145 2.47,9.217 1.167,4.355 7.92,2.505 6.75-1.861-.823-3.072-1.647-6.145-2.47-9.217-1.168-4.356-7.921-2.506-6.75,1.861z"/>
<path d="m100.882,260.945c6.681-6.682 13.362-13.363 20.043-20.045 3.194-3.194-1.755-8.145-4.95-4.949-6.681,6.682-13.362,13.363-20.043,20.045-3.194,3.194 1.756,8.145 4.95,4.949z"/>
<path d="m109.632,261.354c-.823-3.072-1.646-6.145-2.47-9.218-1.167-4.355-7.92-2.505-6.75,1.861 .823,3.072 1.646,6.145 2.47,9.218 1.167,4.356 7.92,2.506 6.75-1.861z"/>
<path d="m93.728,254.062c3.072,.823 6.145,1.646 9.217,2.47 4.367,1.17 6.217-5.583 1.861-6.75-3.072-.823-6.145-1.646-9.217-2.47-4.366-1.17-6.217,5.583-1.861,6.75z"/>
<path d="m129.154,265.024c-2.446-9.127-4.892-18.254-7.337-27.381-1.167-4.355-7.92-2.505-6.75,1.861 2.446,9.127 4.892,18.254 7.337,27.381 1.168,4.356 7.92,2.506 6.75-1.861z"/>
<path d="m133.938,257.688c-3.073-.823-6.145-1.646-9.217-2.47-4.367-1.17-6.217,5.583-1.861,6.75 3.073,.823 6.145,1.646 9.217,2.47 4.367,1.17 6.217-5.583 1.861-6.75z"/>
<path d="m119.639,267.783c2.249-2.249 4.498-4.498 6.747-6.748 3.194-3.194-1.756-8.145-4.95-4.949-2.249,2.249-4.498,4.498-6.747,6.748-3.195,3.194 1.755,8.145 4.95,4.949z"/>
<path d="m146.695,242.505c-9.127-2.445-18.254-4.892-27.381-7.337-4.367-1.17-6.217,5.583-1.861,6.75 9.127,2.445 18.254,4.892 27.381,7.337 4.367,1.17 6.217-5.583 1.861-6.75z"/>
<path d="m142.668,234.699c-2.249,2.249-4.498,4.498-6.748,6.748-3.194,3.194 1.755,8.145 4.95,4.949 2.249-2.249 4.498-4.498 6.748-6.748 3.195-3.194-1.755-8.144-4.95-4.949z"/>
<path d="m144.273,252.087c-.823-3.072-1.646-6.145-2.47-9.217-1.167-4.355-7.92-2.505-6.75,1.861 .823,3.072 1.646,6.145 2.47,9.217 1.167,4.356 7.92,2.505 6.75-1.861z"/>
<path d="m185.609,289.829c17.651-30.573 35.304-61.147 52.955-91.722-2.878,0-5.757,0-8.635,0 17.652,30.574 35.304,61.148 52.956,91.722 1.439-2.508 2.878-5.016 4.317-7.523-35.304,0-70.607,0-105.911,0-6.449,0-6.449,10 0,10 35.304,0 70.607,0 105.911,0 3.806,0 6.211-4.243 4.317-7.523-17.652-30.574-35.304-61.147-52.956-91.722-1.873-3.244-6.762-3.244-8.635,0-17.651,30.574-35.304,61.147-52.955,91.722-3.229,5.594 5.414,10.627 8.636,5.046z"/>
<path d="m229.313,222.399c0,10.854 0,21.709 0,32.563 0,6.448 10,6.448 10,0 0-10.854 0-21.709 0-32.563 0-6.448-10-6.448-10,0z"/>
<path d="m229.313,269.648c0,1.234 0,2.469 0,3.703 0,2.726 2.274,5 5,5s5-2.274 5-5c0-1.234 0-2.469 0-3.703 0-2.726-2.274-5-5-5s-5,2.275-5,5z"/>
</g>
</svg>
