<svg xmlns="http://www.w3.org/2000/svg" viewBox="20 20 321 321">
<g fill="#fff">
<g stroke="#fff" stroke-width="13.063">
<path d="m196.204,141.073c0,4.329-3.148,7.838-7.032,7.838h-54.512c-3.885,0-7.035-3.51-7.035-7.838v-56.823c0-4.329 3.15-7.838 7.035-7.838h54.512c3.884,0 7.032,3.509 7.032,7.838v56.823z"/>
<path d="m93.008,121.479c0,4.329 3.509,7.838 7.838,7.838h36.576c4.328,0 7.837-3.509 7.837-7.838v-22.207c0-4.329-3.51-7.838-7.837-7.838h-36.576c-4.329,0-7.838,3.509-7.838,7.838v22.207z"/>
<path d="m77.333,121.479c0-4.328 3.509-7.837 7.838-7.837h45.067c4.328,0 7.837,3.509 7.837,7.837v12.41c0,4.329-3.51,7.838-7.837,7.838h-45.067c-4.329,0-7.838-3.509-7.838-7.838v-12.41z"/>
</g>
<path d="m173.792,170.955c-5.5,9.526-11,19.052-16.5,28.579-3.23,5.595 5.412,10.628 8.635,5.047 5.5-9.526 11-19.053 16.5-28.579 3.23-5.595-5.412-10.629-8.635-5.047z"/>
<path d="m170.302,147c-5.5,9.526-11,19.052-16.5,28.579-3.23,5.595 5.412,10.628 8.635,5.047 5.5-9.526 11-19.052 16.5-28.579 3.23-5.595-5.413-10.629-8.635-5.047z"/>
<path d="m144.302,192.033c-5.5,9.526-11,19.053-16.5,28.579-3.23,5.595 5.412,10.628 8.635,5.047 5.5-9.526 11-19.053 16.5-28.579 3.23-5.595-5.413-10.628-8.635-5.047z"/>
<path d="m147.811,155.955c-5.5,9.526-11,19.052-16.5,28.579-3.23,5.595 5.413,10.628 8.635,5.047 5.5-9.526 11-19.052 16.5-28.579 3.23-5.595-5.413-10.629-8.635-5.047z"/>
<path d="m144.321,132c-5.5,9.526-11,19.053-16.5,28.579-3.23,5.595 5.412,10.628 8.635,5.047 5.5-9.526 11-19.053 16.5-28.579 3.23-5.595-5.413-10.629-8.635-5.047z"/>
<path d="m111.948,218.073c-2.045,3.542-4.091,7.085-6.137,10.628-3.23,5.595 5.412,10.628 8.635,5.047 2.045-3.543 4.091-7.085 6.137-10.628 3.23-5.595-5.413-10.628-8.635-5.047z"/>
<path d="m149.312,214.122c-5.5,9.526-11,19.053-16.5,28.579-3.23,5.595 5.412,10.628 8.635,5.047 5.5-9.526 11-19.053 16.5-28.579 3.23-5.595-5.413-10.628-8.635-5.047z"/>
<path d="m229.792,171.955c-5.5,9.526-11,19.052-16.5,28.579-3.23,5.595 5.412,10.628 8.635,5.047 5.5-9.526 11-19.053 16.5-28.579 3.23-5.595-5.412-10.629-8.635-5.047z"/>
<path d="m226.302,148c-5.5,9.526-11,19.052-16.5,28.579-3.23,5.595 5.412,10.628 8.635,5.047 5.5-9.526 11-19.053 16.5-28.579 3.23-5.595-5.413-10.629-8.635-5.047z"/>
<path d="m202.335,190.243c-1.688,2.925-3.377,5.849-5.065,8.773-3.23,5.595 5.412,10.628 8.635,5.047 1.688-2.925 3.377-5.849 5.065-8.773 3.23-5.595-5.412-10.628-8.635-5.047z"/>
<path d="m203.812,156.955c-5.5,9.526-11,19.052-16.5,28.579-3.23,5.595 5.412,10.628 8.635,5.047 5.5-9.526 11-19.052 16.5-28.579 3.23-5.595-5.413-10.629-8.635-5.047z"/>
<path d="m150.199,252.602c-1.491,2.582-2.983,5.165-4.474,7.748-1.363,2.361-.565,5.459 1.794,6.841 2.341,1.372 5.48,.563 6.841-1.794 1.491-2.582 2.983-5.165 4.474-7.748 1.363-2.361 .565-5.459-1.794-6.841-2.341-1.372-5.48-.563-6.841,1.794z"/>
<g stroke="#fff" stroke-width="13.063">
<path d="m248.674,148.912c0,4.328-3.148,7.837-7.033,7.837h-54.512c-3.885,0-7.035-3.509-7.035-7.837v-56.824c0-4.329 3.15-7.838 7.035-7.838h54.512c3.885,0 7.033,3.509 7.033,7.838v56.824z"/>
<path d="m232.781,142.379c0,4.329 3.51,7.838 7.837,7.838h36.576c4.329,0 7.838-3.509 7.838-7.838v-22.207c0-4.328-3.509-7.837-7.838-7.837h-36.576c-4.327,0-7.837,3.51-7.837,7.837v22.207z"/>
<path d="m201.648,158.056c0,4.328-3.149,7.837-7.033,7.837h-54.513c-3.884,0-7.034-3.509-7.034-7.837v-56.824c0-4.329 3.149-7.838 7.034-7.838h54.513c3.884,0 7.033,3.509 7.033,7.838v56.824z"/>
</g>
<path d="m193.349,210.342c-2.649,9.07-5.299,18.141-7.948,27.21-1.269,4.344 5.487,6.185 6.75,1.861 2.649-9.07 5.299-18.141 7.948-27.21 1.268-4.344-5.488-6.184-6.75-1.861z"/>
<path d="m185.531,214.174c2.198,2.299 4.396,4.598 6.595,6.896 3.125,3.269 8.067-1.688 4.949-4.949-2.198-2.299-4.396-4.598-6.595-6.896-3.125-3.269-8.067,1.688-4.949,4.949z"/>
<path d="m202.819,212.923c-3.09,.754-6.18,1.509-9.27,2.263-4.384,1.07-2.523,7.82 1.861,6.75 3.09-.754 6.18-1.509 9.27-2.263 4.384-1.07 2.524-7.82-1.861-6.75z"/>
<path d="m166.708,220.127c6.53,6.83 13.06,13.659 19.59,20.488 3.124,3.269 8.067-1.688 4.949-4.949-6.529-6.83-13.059-13.659-19.589-20.488-3.125-3.269-8.068,1.688-4.95,4.949z"/>
<path d="m166.124,228.791c3.09-.755 6.18-1.509 9.271-2.264 4.384-1.07 2.523-7.82-1.861-6.75-3.09,.755-6.18,1.509-9.271,2.264-4.385,1.07-2.524,7.82 1.861,6.75z"/>
<path d="m173.674,213.149c-.892,3.054-1.784,6.106-2.676,9.159-1.269,4.344 5.487,6.185 6.75,1.861 .892-3.054 1.784-6.106 2.676-9.159 1.269-4.343-5.486-6.184-6.75-1.861z"/>
<path d="m162.23,248.234c9.179-2.24 18.358-4.479 27.538-6.72 4.384-1.069 2.523-7.82-1.861-6.75-9.179,2.24-18.358,4.479-27.538,6.72-4.384,1.07-2.524,7.821 1.861,6.75z"/>
<path d="m169.403,253.128c.892-3.054 1.784-6.107 2.676-9.16 1.269-4.344-5.487-6.185-6.75-1.861-.892,3.054-1.784,6.107-2.676,9.16-1.269,4.343 5.487,6.184 6.75,1.861z"/>
<path d="m159.663,238.736c2.198,2.299 4.396,4.598 6.595,6.896 3.125,3.269 8.068-1.688 4.95-4.949-2.198-2.299-4.396-4.598-6.595-6.896-3.125-3.268-8.068,1.689-4.95,4.949z"/>
<path d="m184.24,266.379c2.649-9.07 5.299-18.14 7.948-27.209 1.269-4.344-5.487-6.185-6.75-1.861-2.649,9.07-5.299,18.14-7.948,27.209-1.268,4.343 5.488,6.184 6.75,1.861z"/>
<path d="m192.057,262.547c-2.197-2.299-4.396-4.598-6.594-6.896-3.124-3.269-8.067,1.688-4.95,4.949 2.198,2.299 4.396,4.598 6.594,6.896 3.124,3.269 8.068-1.688 4.95-4.949z"/>
<path d="m174.769,263.798c3.09-.754 6.18-1.509 9.27-2.263 4.384-1.07 2.523-7.82-1.861-6.75-3.09,.754-6.18,1.509-9.27,2.263-4.385,1.07-2.525,7.82 1.861,6.75z"/>
<path d="m210.941,256.387c-6.529-6.83-13.06-13.659-19.59-20.488-3.124-3.269-8.067,1.688-4.949,4.949 6.529,6.83 13.06,13.659 19.59,20.488 3.124,3.268 8.068-1.689 4.949-4.949z"/>
<path d="m211.526,247.723c-3.09,.754-6.181,1.509-9.271,2.263-4.384,1.07-2.523,7.82 1.861,6.75 3.09-.754 6.181-1.509 9.271-2.263 4.384-1.071 2.524-7.821-1.861-6.75z"/>
<path d="m203.976,263.364c.892-3.054 1.783-6.106 2.675-9.159 1.269-4.344-5.487-6.185-6.75-1.861-.892,3.054-1.783,6.106-2.675,9.159-1.269,4.344 5.487,6.185 6.75,1.861z"/>
<path d="m215.419,228.277c-9.18,2.24-18.359,4.481-27.539,6.722-4.384,1.07-2.523,7.82 1.861,6.75 9.18-2.24 18.359-4.481 27.539-6.722 4.384-1.07 2.524-7.82-1.861-6.75z"/>
<path d="m208.246,223.386c-.892,3.054-1.784,6.106-2.676,9.159-1.269,4.344 5.487,6.185 6.75,1.861 .892-3.054 1.784-6.106 2.676-9.159 1.269-4.344-5.487-6.184-6.75-1.861z"/>
<path d="m217.985,237.777c-2.198-2.3-4.396-4.6-6.595-6.898-3.124-3.269-8.067,1.688-4.949,4.949 2.198,2.3 4.396,4.6 6.595,6.898 3.124,3.269 8.068-1.688 4.949-4.949z"/>
<path d="m96.708,173.735c0,9.449 0,18.898 0,28.347 0,4.514 7,4.514 7,0 0-9.449 0-18.898 0-28.347 0-4.514-7-4.514-7,0z"/>
<path d="m90.193,179.61c2.755,1.591 5.509,3.181 8.264,4.771 3.917,2.261 7.44-3.789 3.533-6.044-2.755-1.59-5.51-3.181-8.264-4.771-3.916-2.261-7.44,3.789-3.533,6.044z"/>
<path d="m106.596,173.566c-2.755,1.59-5.509,3.181-8.264,4.771-3.907,2.255-.383,8.305 3.533,6.044 2.754-1.591 5.509-3.181 8.264-4.771 3.907-2.255 .383-8.305-3.533-6.044z"/>
<path d="m73.794,190.604c8.183,4.724 16.366,9.448 24.548,14.173 3.917,2.261 7.44-3.789 3.533-6.045-8.183-4.724-16.366-9.448-24.548-14.173-3.916-2.26-7.439,3.79-3.533,6.045z"/>
<path d="m75.674,199.175c2.754-1.591 5.509-3.182 8.264-4.771 3.907-2.256 .383-8.306-3.533-6.045-2.755,1.591-5.509,3.182-8.264,4.771-3.907,2.256-.383,8.306 3.533,6.045z"/>
<path d="m78.61,181.946c0,3.181 0,6.361 0,9.542 0,4.514 7,4.514 7,0 0-3.181 0-6.361 0-9.542 0-4.514-7-4.514-7,0z"/>
<path d="m77.39,218.931c8.183-4.725 16.366-9.449 24.549-14.173 3.907-2.256 .383-8.306-3.533-6.045-8.183,4.725-16.366,9.449-24.549,14.173-3.907,2.256-.384,8.305 3.533,6.045z"/>
<path d="m85.719,221.625c0-3.181 0-6.362 0-9.543 0-4.514-7-4.514-7,0 0,3.181 0,6.362 0,9.543 0,4.514 7,4.514 7,0z"/>
<path d="m72.25,210.442c2.754,1.59 5.509,3.18 8.264,4.771 3.917,2.261 7.44-3.789 3.533-6.045-2.754-1.59-5.509-3.18-8.264-4.771-3.916-2.26-7.439,3.79-3.533,6.045z"/>
<path d="m103.677,230.184c0-9.448 0-18.897 0-28.346 0-4.514-7-4.514-7,0 0,9.448 0,18.897 0,28.346 0,4.513 7,4.513 7,0z"/>
<path d="m110.191,224.308c-2.755-1.59-5.51-3.18-8.264-4.771-3.917-2.261-7.44,3.789-3.533,6.045 2.755,1.59 5.509,3.18 8.264,4.771 3.917,2.26 7.441-3.79 3.533-6.045z"/>
<path d="m93.789,230.353c2.754-1.591 5.509-3.181 8.264-4.771 3.907-2.256 .383-8.306-3.533-6.045-2.754,1.591-5.509,3.181-8.264,4.771-3.907,2.255-.384,8.305 3.533,6.045z"/>
<path d="m126.59,213.099c-8.183-4.724-16.366-9.448-24.549-14.173-3.917-2.261-7.44,3.789-3.533,6.045 8.183,4.724 16.366,9.448 24.549,14.173 3.917,2.26 7.44-3.79 3.533-6.045z"/>
<path d="m124.71,204.528c-2.755,1.591-5.509,3.182-8.264,4.771-3.907,2.256-.383,8.306 3.533,6.045 2.754-1.591 5.509-3.182 8.264-4.771 3.907-2.256 .383-8.305-3.533-6.045z"/>
<path d="m121.775,221.757c0-3.181 0-6.361 0-9.542 0-4.514-7-4.514-7,0 0,3.181 0,6.361 0,9.542 0,4.514 7,4.514 7,0z"/>
<path d="m122.994,184.772c-8.183,4.725-16.366,9.449-24.549,14.173-3.907,2.256-.383,8.306 3.533,6.045 8.183-4.725 16.366-9.449 24.549-14.173 3.907-2.255 .384-8.305-3.533-6.045z"/>
<path d="m114.666,182.078c0,3.181 0,6.361 0,9.542 0,4.514 7,4.514 7,0 0-3.181 0-6.361 0-9.542 0-4.514-7-4.514-7,0z"/>
<path d="m128.134,193.261c-2.755-1.59-5.51-3.181-8.264-4.771-3.917-2.261-7.44,3.789-3.533,6.045 2.755,1.59 5.509,3.181 8.264,4.771 3.916,2.26 7.44-3.789 3.533-6.045z"/>
<path d="m117.129,236.547c-4.581,7.934-9.162,15.868-13.743,23.803-3.23,5.595 5.412,10.628 8.635,5.047 4.581-7.934 9.162-15.868 13.743-23.803 3.231-5.595-5.412-10.628-8.635-5.047z"/>
<path d="m134.528,136.687c-5.5,9.526-11,19.053-16.5,28.579-3.23,5.595 5.412,10.628 8.635,5.047 5.5-9.526 11-19.053 16.5-28.579 3.23-5.595-5.413-10.629-8.635-5.047z"/>
<path d="m80.029,232.674c-.869,1.504-1.738,3.009-2.606,4.514-1.363,2.361-.565,5.459 1.794,6.841 2.341,1.372 5.48,.563 6.841-1.794 .869-1.504 1.738-3.009 2.606-4.514 1.363-2.361 .565-5.459-1.794-6.841-2.342-1.372-5.48-.563-6.841,1.794z"/>
</g>
</svg>
