<svg xmlns="http://www.w3.org/2000/svg" viewBox="20 20 321 321">
<g fill="#fff">
<path d="m183.172,138.491c-22.002-2.052-44.003-4.105-66.005-6.157-1.807-.168-3.366,1.104-4.317,2.477-12.617,18.194-25.234,36.388-37.851,54.583-3.134,4.52 2.739,8.753 6.841,6.841 34.619-16.142 69.238-32.284 103.856-48.425 5.841-2.723 .759-11.342-5.047-8.635-34.619,16.142-69.238,32.284-103.856,48.425 2.28,2.28 4.561,4.561 6.841,6.841 12.617-18.194 25.234-36.388 37.851-54.583-1.439,.826-2.878,1.651-4.317,2.477 22.002,2.052 44.003,4.105 66.005,6.157 6.421,.598 6.363-9.408-.001-10.001z"/>
<path d="m128.849,173.857c7.008,15.118 14.017,30.235 21.025,45.352 2.71,5.846 11.328,.763 8.635-5.047-7.008-15.117-14.017-30.234-21.025-45.352-2.71-5.846-11.328-.763-8.635,5.047z"/>
<path d="m149.631,218.882c1.501,22.58 3.002,45.159 4.504,67.739 .425,6.399 10.428,6.441 10,0-1.501-22.58-3.002-45.159-4.504-67.739-.425-6.4-10.428-6.442-10,0z"/>
</g>
<path fill="none" stroke="#fff" stroke-width="10" d="m270.333,119.103c0,2.245-1.819,4.064-4.064,4.064h-23.371c-2.245,0-4.064-1.82-4.064-4.064v-23.372c0-2.245 1.819-4.064 4.064-4.064h23.371c2.245,0 4.064,1.82 4.064,4.064v23.372z"/>
<g fill="#fff">
<path d="m216.173,78.328c2.406,2.406 4.813,4.813 7.22,7.219 1.926,1.926 5.145,1.926 7.07,0 1.927-1.926 1.927-5.145 0-7.071-2.406-2.406-4.813-4.813-7.22-7.219-1.926-1.926-5.145-1.926-7.07,0-1.927,1.926-1.927,5.144 0,7.071z"/>
<path d="m185.333,112.167c11.167,0 22.333,0 33.5,0 6.448,0 6.448-10 0-10-11.167,0-22.333,0-33.5,0-6.449,0-6.449,10 0,10z"/>
<path d="m289.742,136.756c-1.989-1.99-3.979-3.979-5.969-5.969-1.926-1.926-5.145-1.926-7.07,0-1.927,1.926-1.927,5.145 0,7.071 1.989,1.99 3.979,3.979 5.969,5.969 1.926,1.926 5.145,1.926 7.07,0 1.927-1.927 1.927-5.144 0-7.071z"/>
<path d="m259.083,175.917c0-11.167 0-22.333 0-33.5 0-6.449-10-6.449-10,0 0,11.167 0,22.333 0,33.5-0,6.448 10,6.448 10,0z"/>
<path d="m207.773,161.547c7.896-7.896 15.793-15.792 23.689-23.688 4.564-4.563-2.507-11.635-7.07-7.071-7.896,7.896-15.793,15.792-23.689,23.688-4.564,4.563 2.507,11.634 7.07,7.071z"/>
<path d="m115.742,142.462c8.745,6.396 17.489,12.792 26.234,19.189 5.214,3.814 10.195-4.87 5.047-8.635-8.745-6.396-17.489-12.792-26.234-19.189-5.214-3.814-10.195,4.87-5.047,8.635z"/>
<path d="m119.5,174.667c.444-9.778 .889-19.556 1.333-29.333 .293-6.45-9.708-6.421-10,0-.444,9.778-.889,19.556-1.333,29.333-.293,6.449 9.708,6.421 10,0z"/>
<path d="m182.181,231.169c4.833,18.89 9.667,37.778 14.5,56.668 1.224,4.78 8.419,4.78 9.643,0 4.834-18.89 9.668-37.778 14.502-56.668 .805-3.143-1.526-6.329-4.821-6.329-9.667,0-19.335,0-29.002,0-6.449,0-6.449,10 0,10 9.667,0 19.335,0 29.002,0-1.607-2.109-3.214-4.22-4.821-6.329-4.834,18.89-9.668,37.778-14.502,56.668 3.214,0 6.429,0 9.643,0-4.833-18.89-9.667-37.778-14.5-56.668-1.599-6.244-11.244-3.594-9.644,2.658z"/>
</g>
<g fill="none" stroke="#fff" stroke-width="10">
<path d="m214.058,213.344c-.785-.615-1.923-.477-2.537,.311l-6.403,8.188c-.615,.786-.477,1.923 .311,2.537l8.188,6.403c.786,.615 1.923,.477 2.537-.311l6.404-8.188c.615-.786 .477-1.923-.311-2.537l-8.189-6.403z"/>
<path d="m195.349,227.24c.953-.297 1.485-1.311 1.189-2.264l-3.087-9.927c-.297-.952-1.31-1.485-2.262-1.188l-9.928,3.086c-.953,.297-1.485,1.311-1.189,2.264l3.087,9.926c.295,.953 1.309,1.486 2.263,1.189l9.927-3.086z"/>
<path d="m208.801,209.991c.436-.897 .063-1.98-.834-2.417l-9.346-4.553c-.896-.437-1.98-.063-2.417,.834l-4.552,9.346c-.437,.897-.064,1.98 .834,2.418l9.346,4.551c.896,.438 1.979,.064 2.416-.834l4.553-9.345z"/>
</g>
</svg>
