<svg xmlns="http://www.w3.org/2000/svg" viewBox="20 20 321 321">
<g fill="#000">
<path d="m286.941,264.838c-12.027,0-24.055,0-36.081,0-6.614,0-13.012-.964-18.198-5.392-7.015-5.989-11.036-15.368-15.163-23.39-12.911-25.095-26.004-50.102-38.88-75.219-3.687-7.191-7.374-14.383-11.061-21.575-7.559-14.744-13.659-32.505-26.557-43.607-9.873-8.498-21.762-8.443-33.966-8.443-10.662,0-21.323,0-31.985,0-6.449,0-6.449,10 0,10 12.456,0 24.912,0 37.368,0 6.297,0 12.347,.106 18.067,3.202 8.756,4.739 13.767,14.759 18.144,23.23 13.032,25.227 25.677,50.671 38.632,75.941 3.921,7.647 7.842,15.296 11.763,22.944 3.613,7.049 7.47,13.985 11.105,21.028 3.679,7.126 7.482,14.234 12.793,20.302 8.356,9.549 19.91,10.979 31.84,10.979 10.727,0 21.453,0 32.18,0 6.448,0 6.448-10-.001-10z"/>
<path d="m74.554,274.165c12.027,0 24.054,0 36.082,0 7.238,0 14.268-1.088 20.583-4.811 7.506-4.425 12.399-12.26 16.534-19.668 14.219-25.477 27.031-51.844 40.339-77.803 4.554-8.882 9.107-17.764 13.66-26.646 6.558-12.791 11.854-27.272 21.082-38.445 5.247-6.352 12.037-9.838 20.271-10.233 3.771-.181 7.583-.021 11.355-.021 10.661,0 21.323,0 31.984,0 6.448,0 6.448-10 0-10-12.456,0-24.912,0-37.368,0-6.478,0-12.846,.168-18.97,2.612-9.206,3.672-15.588,11.219-20.706,19.438-7.547,12.122-13.161,25.512-19.68,38.226-6.883,13.427-13.766,26.853-20.649,40.279-4.741,9.249-9.482,18.497-14.224,27.745-6.285,12.26-12.306,25.102-19.833,36.652-3.585,5.502-8.188,9.85-14.594,11.682-4.426,1.266-9.13,.993-13.688,.993-10.727,0-21.454,0-32.18,0-6.447,0-6.447,10 .002,10z"/>
</g>
</svg>
