<svg xmlns="http://www.w3.org/2000/svg" viewBox="20 20 321 321">
<g fill="#000">
<path d="m163.81,222.017c15.039,11.495 30.079,22.989 45.118,34.484 0-2.878 0-5.757 0-8.635-15.039,11.494-30.079,22.989-45.118,34.483 2.508,1.439 5.016,2.878 7.523,4.317 0-22.989 0-45.979 0-68.968 0-6.448-10-6.448-10,0 0,22.989 0,45.979 0,68.968 0,3.436 4.397,6.707 7.523,4.317 15.04-11.494 30.079-22.989 45.118-34.483 3.178-2.429 3.178-6.206 0-8.635-15.039-11.495-30.078-22.989-45.118-34.484-5.125-3.917-10.096,4.776-5.046,8.636z"/>
<path d="m197.717,115.129c11.307,0 22.612,0 33.919,0 7.367,0 14.734,0 22.102,0 4.419,0 8.98-.33 13.297,.735 9.109,2.247 15.102,11.064 15.102,20.189 0,3.605 0,7.21 0,10.814 0,15.209 0,30.419 0,45.628 0,10.817 0,21.635 0,32.453 0,6.19-1.67,11.626-6.024,16.209-5.983,6.296-14.011,6.025-21.959,6.025-6.448,0-6.448,10 0,10 8.552,0 16.411-.18 23.96-4.868 8.719-5.413 14.023-15.583 14.023-25.76 0-9.765 0-19.528 0-29.293 0-15.599 0-31.196 0-46.794 0-11.644 1.223-23.548-6.398-33.406-11.175-14.457-29.208-11.933-45.313-11.933-14.235,0-28.472,0-42.707,0-6.45,.001-6.45,10.001-.002,10.001z"/>
<path d="m193.977,70.313c-15.04,11.495-30.079,22.99-45.119,34.484-3.178,2.429-3.178,6.206 0,8.635 15.04,11.495 30.079,22.989 45.119,34.484 3.127,2.39 7.523-.882 7.523-4.317 0-22.989 0-45.979 0-68.968 0-6.449-10-6.449-10,0 0,22.989 0,45.979 0,68.968 2.508-1.439 5.016-2.878 7.523-4.317-15.039-11.495-30.079-22.989-45.119-34.484 0,2.878 0,5.756 0,8.635 15.04-11.495 30.08-22.99 45.119-34.484 5.05-3.861 .079-12.553-5.046-8.636z"/>
<path d="m164.136,246.184c-11.306,0-22.612,0-33.918,0-7.367,0-14.734,0-22.101,0-4.419,0-8.981,.33-13.297-.734-9.109-2.247-15.102-11.065-15.102-20.19 0-3.604 0-7.21 0-10.814 0-15.209 0-30.419 0-45.628 0-10.817 0-21.635 0-32.453 0-6.19 1.67-11.626 6.025-16.209 5.983-6.295 14.011-6.025 21.958-6.025 6.449,0 6.449-10 0-10-8.552,0-16.41,.18-23.96,4.868-8.718,5.413-14.023,15.583-14.023,25.76 0,9.764 0,19.528 0,29.293 0,15.598 0,31.196 0,46.794 0,11.644-1.223,23.549 6.398,33.406 11.176,14.457 29.208,11.934 45.314,11.934 14.235,0 28.471,0 42.706,0 6.449-.002 6.449-10.002 0-10.002z"/>
</g>
</svg>
