<svg xmlns="http://www.w3.org/2000/svg" viewBox="20 20 321 321">
<g fill="#000">
<path d="m70.713,262.929c1.48,7.332 10.343,5.624 15.891,5.624 5.974,0 12.56,.824 18.45-.365 5.432-1.097 4.435-8.474 4.435-12.449 0-7.512 0-15.023 0-22.536 0-6.845 0-13.69 0-20.535 0-4.736-.925-9.826-6.989-9.826-6.786,0-13.573,0-20.359,0-5.083,0-11.553-.038-11.553,6.944 0,17.404 0,34.809 0,52.213 0,4.514 7,4.514 7,0 0-12.181 0-24.361 0-36.542 0-5.224 0-10.447 0-15.671 0-.7-.71,.056-.011,.056 1.017,0 2.035,0 3.052,0 3.958,0 7.917,0 11.875,0 3.089,0 6.178,0 9.267,0 1.267,0 .718,.117 .718-.347 0,.598 0,1.195 0,1.793 0,6.317 0,12.634 0,18.951 0,7.784 0,15.568 0,23.353 0,2.299 0,4.599 0,6.898 0,1.937 .736,1.063-1.198,1.063-4.573,0-9.146,0-13.719,0-2.314,0-4.629,0-6.943,0-1.437,0-2.994,.368-3.167-.485-.892-4.423-7.639-2.547-6.749,1.861z"/>
<path d="m150.832,282.622c-.223,.224-.447,.446-.67,.67 .899,.117 1.798,.235 2.697,.353-10.442-5.862-20.884-11.725-31.326-17.588-.345-.193-.69-.387-1.035-.581-1.884-1.058-1.381,.3-1.381-.624 0-1.888 0-3.774 0-5.662 0-7.2 0-14.4 0-21.601 0-7.608 0-15.217 0-22.825 0-2.298 0-4.596 0-6.894 0-2.703-.369-1.151 1.412-2.151 10.534-5.914 21.068-11.829 31.602-17.743 .243-.136 .485-.272 .728-.408-.899,.117-1.798,.235-2.697,.353 1.002,.202 .545,2.331 .545,3.859 0,3.621 0,7.242 0,10.863 0,10.987 0,21.976 0,32.963 0,15.982 0,31.965 0,47.947 0,4.514 7,4.514 7,0 0-24.835 0-49.671 0-74.506 0-5.606 0-11.213 0-16.82 0-3.354 .579-7.619-2.646-9.792-4.855-3.272-10.114,1.546-14.383,3.943-6.631,3.723-13.261,7.445-19.892,11.169-3.562,1.999-8.669,3.598-8.669,8.368 0,3.716 0,7.431 0,11.146 0,14.043 0,28.086 0,42.129 0,3.696-.627,7.458 1.849,10.483 1.027,1.254 3.318,2.026 4.792,2.854 2.547,1.431 5.095,2.86 7.642,4.291 6.168,3.463 12.336,6.926 18.504,10.389 1.464,.822 2.928,1.644 4.392,2.466 3.711,2.084 7.604-1.81 8.287-5.188 .888-4.409-5.858-6.286-6.751-1.863z"/>
</g>
<g transform="translate(-11401.102 142.51387)">
<path fill="#000" d="m11665.422,41.797 0-112.512"/>
</g>
<g transform="translate(-11401.102 142.51387)">
<path fill="#000" d="m11666.922,41.797c0-37.504 0-75.007 0-112.511 0-1.935-3-1.935-3,0 0,37.504 0,75.007 0,112.511 0,1.934 3,1.934 3,0z"/>
</g>
<g transform="translate(-11401.102 142.51387)">
<path fill="#000" d="m11619.198,41.797 0-112.512"/>
</g>
<g transform="translate(-11401.102 142.51387)">
<path fill="#000" d="m11620.698,41.797c0-37.504 0-75.007 0-112.511 0-1.935-3-1.935-3,0 0,37.504 0,75.007 0,112.511 0,1.934 3,1.934 3,0z"/>
</g>
<g transform="translate(-11401.102 142.51387)">
<path fill="#000" d="m11650.895,41.797 0-112.512"/>
</g>
<g transform="translate(-11401.102 142.51387)">
<path fill="#000" d="m11652.395,41.797c0-37.504 0-75.007 0-112.511 0-1.935-3-1.935-3,0 0,37.504 0,75.007 0,112.511 0,1.934 3,1.934 3,0z"/>
</g>
<g fill="#000">
<path d="m72.945,166.935 218.053,0"/>
<path d="m72.945,168.435c48.116,0 96.232,0 144.349,0 24.568,0 49.136,0 73.704,0 1.935,0 1.935-3 0-3-48.116,0-96.232,0-144.349,0-24.568,0-49.136,0-73.704,0-1.934,0-1.934,3-0,3z"/>
</g>
<g transform="translate(0 -1000.8117)">
<path fill="#000" d="m72.945,128.046 218.053,0"/>
</g>
<g transform="translate(0 -1000.8117)">
<path fill="#000" d="m72.945,129.546c48.116,0 96.232,0 144.349,0 24.568,0 49.136,0 73.704,0 1.935,0 1.935-3 0-3-48.116,0-96.232,0-144.349,0-24.568,0-49.136,0-73.704,0-1.934,0-1.934,3-0,3z"/>
</g>
<g fill="#000">
<path d="m276.851,107.459c-7.754-5.016-15.192-3.751-22.107,1.795-5.077,4.071-8.941,9.554-13.782,13.915-3.667,3.303-6.134,4.932-11.095,4.042-3.102-.557-6.181-1.562-8.977-3.008-2.536-1.312-4.604-3.318-7.281-4.412-6.658-2.722-11.86,2.192-17.641,2.521-14.348,.818-28.777-4.979-41.188-11.717-18.07-9.812-33.822-24.766-48.515-39.022-3.24-3.143-8.194,1.802-4.95,4.95 25.068,24.322 52.248,48.319 88.198,52.531 5.467,.641 10.557,.323 15.483-2.061 6.184-2.992 11.311,3.084 16.913,5.27 4.281,1.669 10.238,3.344 14.794,1.943 6.169-1.896 11.622-7.954 15.77-12.657 2.774-3.146 5.543-6.156 8.938-8.668 3.786-2.801 8.198-1.776 11.905,.622 3.804,2.46 7.309-3.602 3.535-6.044z"/>
<path d="m95.519,83.082c6.65,7.773 13.3,15.546 19.946,23.324 14.232,16.655 31.245,30.07 51.629,38.48 6.143,2.534 12.484,4.27 18.951,5.766 5.396,1.249 11.974,2.695 17.403,.896 4.052-1.342 4.662-2 8.456-.31 5.99,2.668 10.503,6.705 17.229,7.641 .539,.075 4.516,.578 2.609,.125 .724,.172 1.495,.229 2.238,.26 3.398,.144 6.77-1.244 9.636-2.928 4.997-2.937 8.427-7.844 11.584-12.55 2.529-3.771 6.121-8.188 10.748-9.361 2.744-.695 5.371,.804 8.011,2.105 4.033,1.989 7.582-4.048 3.533-6.044-4.925-2.429-9.81-4.278-15.166-2.251-10.812,4.092-13.632,16.996-23.167,22.598-1.246,.732-2.752,1.261-4.195,1.403-.616,.061-2.151-.145-1.36,.017-4.676-.954-8.387-1.183-12.713-3.896-3.412-2.14-7.11-4.526-11.187-5.14-4.256-.64-7.569,1.952-11.659,2.082-6.713,.215-13.808-2.185-20.2-3.98-7.182-2.019-13.877-5.338-20.29-9.094-5.291-3.099-10.768-5.83-15.63-9.597-4.613-3.573-8.836-7.657-12.922-11.811-8.54-8.683-16.21-18.28-24.119-27.525-1.472-1.721-2.944-3.441-4.416-5.162-2.938-3.434-7.865,1.541-4.949,4.952z"/>
<path d="m87.7,95.431c5.907,8.261 11.884,16.472 18.043,24.547 4.934,6.47 9.833,12.989 15.96,18.373 7.798,6.852 15.011,13.787 23.877,19.322 7.551,4.714 15.634,8.646 24.081,11.458 9.848,3.278 20.614,5.643 31.022,4.434 3.197-.372 6.306-1.558 9.422-.163 2.472,1.106 4.394,3.412 6.616,4.94 4.51,3.101 9.299,5.064 14.829,5.291 17.989,.739 24.828-33.509 43.373-22.7 3.908,2.278 7.43-3.772 3.533-6.044-7.738-4.511-16.322-3.618-23.154,1.936-6.756,5.492-11.383,14.532-19.131,18.686-9.909,5.313-17.365-6.738-25.696-9.395-4.536-1.447-9.439,.721-14.022,.782-6.392,.086-12.625-1.084-18.788-2.688-19.011-4.948-35.287-15.827-49.347-29.267-13.353-12.764-23.846-28.041-34.576-43.045-2.598-3.638-8.674-.148-6.042,3.533z"/>
<path d="m71.807,89.157 218.052,0"/>
<path d="m71.807,90.657c48.116,0 96.232,0 144.349,0 24.568,0 49.136,0 73.704,0 1.935,0 1.935-3 0-3-48.116,0-96.232,0-144.349,0-24.568,0-49.136,0-73.704,0-1.935,0-1.935,3-0,3z"/>
<path d="m177.759,212.635c11.894,12.397 11.894,31.431 0,43.828-3.124,3.256 1.82,8.212 4.95,4.949 14.549-15.165 14.549-38.562 0-53.727-3.13-3.262-8.074,1.694-4.95,4.95z"/>
<path d="m188.271,203.847c17.154,17.676 17.153,45.452 0,63.128-3.144,3.239 1.801,8.193 4.949,4.949 19.814-20.418 19.815-52.609 0-73.026-3.149-3.245-8.093,1.709-4.949,4.949z"/>
<path d="m199.439,195.307c21.631,22.16 21.631,57.391 0,79.551-3.154,3.23 1.792,8.184 4.949,4.949 24.295-24.889 24.296-64.561 0-89.449-3.157-3.235-8.103,1.718-4.949,4.949z"/>
</g>
</svg>
