<svg xmlns="http://www.w3.org/2000/svg" viewBox="20 20 321 321">
<g fill="#000">
<path d="m177.977,78.901c35.59,26.992 71.18,53.984 106.77,80.976 .011,.008 .021,.016 .031,.024 .841-3.106 1.683-6.211 2.523-9.317-35.519,0-71.038,0-106.557,0-6.449,0-6.449,10 0,10 35.519,0 71.038,0 106.557,0 5.402,0 6.252-6.489 2.523-9.317-35.59-26.992-71.18-53.984-106.77-80.976-.011-.008-.021-.016-.031-.024-5.141-3.9-10.114,4.791-5.046,8.634z"/>
<path d="M287.107,155.583 180.833,74.584 74.56,155.583z"/>
<path d="m289.631,151.266c-35.422-26.998-70.844-53.996-106.266-80.994-.003-.002-.006-.004-.008-.006-1.254-.956-3.794-.956-5.047,0-35.422,26.998-70.844,53.996-106.266,80.994-.003,.002-.005,.004-.008,.006-3.717,2.833-2.888,9.317 2.523,9.317 48.627,0 97.254,0 145.882,0 22.222,0 44.444,0 66.666,0 6.448,0 6.448-10 0-10-48.627,0-97.254,0-145.881,0-22.222,0-44.444,0-66.667,0 .841,3.106 1.683,6.211 2.523,9.317 35.422-26.998 70.844-53.996 106.267-80.994 .002-.002 .005-.004 .008-.006-1.683,0-3.365,0-5.047,0 35.421,26.998 70.844,53.996 106.266,80.994 .002,.002 .005,.004 .008,.006 5.131,3.912 10.104-4.78 5.047-8.634z"/>
<path d="m263.679,280.616c-.087,.557 1.509,.468-.29,.468-1.179,0-2.358,0-3.538,0-4.208,0-8.417,0-12.625,0-13.748,0-27.495,0-41.243,0-30.299,0-60.599,0-90.898,0-5.97,0-11.939,0-17.91,0 1.289,0 .992,1.503 .992-.631 0-1.555 0-3.109 0-4.664 0-5.338 0-10.676 0-16.015 0-29.691 0-59.384 0-89.076 0-3.376 0-6.752 0-10.129 0-1.542-.106,.014-.874,.014 .691,0 1.382,0 2.073,0 9.068,0 18.137,0 27.205,0 31.417,0 62.833,0 94.25,0 11.768,0 23.534,0 35.301,0 2.583,0 5.166,0 7.749,0 1.35,0-.37-.523-.37-.692 0,.922 0,1.844 0,2.766 0,27.49 0,54.981 0,82.472 0,12.271 0,24.544 0,36.815 0,6.448 10,6.448 10,0 0-23.021 0-46.042 0-69.063 0-14.061 0-28.122 0-42.183 0-7.317 1.835-20.115-9.196-20.115-50.779,0-101.558,0-152.336,0-5.911,0-14.248-1.429-19.687,1.481-6.598,3.53-4.114,18.674-4.114,24.562 0,29.939 0,59.878 0,89.818 0,6.114-2.59,22.748 6.407,24.25 6.053,1.011 12.502,.39 18.611,.39 29.969,0 59.938,0 89.908,0 15.334,0 30.669,0 46.003,0 7.599,0 22.583,2.726 24.226-7.81 .982-6.306-8.653-9.014-9.644-2.658z"/>
<g  stroke="#000" stroke-linejoin="round" stroke-width="3">
<path d="m203.449,203.93l4.115-.428-.416-3.967-4.111,.436-2.193-4.92 3.077-2.765-2.669-2.964-3.071,2.771-4.664-2.697 .864-4.041-3.902-.83-.855,4.047-5.357,.561-1.678-3.777-3.644,1.621 1.687,3.776-4.002,3.605-3.581-2.072-1.995,3.454 3.582,2.063-1.123,5.112-4.109,.587 .417,3.967 4.111-.438 2.193,4.922-3.077,2.764 2.669,2.965 3.071-2.772 4.664,2.696-.864,4.043 3.902,.829 .855-4.048 5.357-.56 1.678,3.778 3.644-1.623-1.661-3.791 3.979-3.59 3.579,2.072 1.995-3.455-3.582-2.063 1.115-5.268zm-14.965,11.252c-6.451,0-11.68-5.229-11.68-11.68 0-6.451 5.229-11.681 11.68-11.681s11.681,5.229 11.681,11.681c-0,6.45-5.229,11.68-11.681,11.68z"/>
<path d="m179.281,233.934l4.132-.199-.196-3.983-4.129,.208-1.917-5.034 3.225-2.59-2.501-3.107-3.22,2.598-4.508-2.95 1.086-3.988-3.85-1.044-1.078,3.994-5.381,.263-1.465-3.865-3.729,1.418 1.475,3.864-4.195,3.378-3.46-2.267-2.183,3.339 3.463,2.258-1.404,5.042-4.135,.358 .197,3.983 4.129-.208 1.918,5.034-3.226,2.59 2.501,3.107 3.22-2.599 4.507,2.951-1.086,3.988 3.85,1.044 1.077-3.994 5.381-.263 1.466,3.865 3.728-1.419-1.449-3.878 4.17-3.363 3.459,2.267 2.183-3.339-3.463-2.258 1.408-5.201zm-14.919,10.426c-6.451,0-11.68-5.23-11.68-11.681 0-6.451 5.229-11.681 11.68-11.681 6.451,0 11.681,5.229 11.681,11.681-.001,6.451-5.23,11.681-11.681,11.681z"/>
<path d="m199.66,238.912l2.521-.32c-.423-1.279-1.143-2.452-2.118-3.412l-1.374,2.227 .971,1.505z"/>
<path d="m200.063,235.18l1.854-3.006-3.058-1.873-1.807,2.971c.117,.043 .235,.079 .352,.128 1.023,.432 1.912,1.045 2.659,1.78z"/>
<path d="m195.665,235.555l1.388-2.283c-1.35-.503-2.749-.645-4.093-.465l.921,2.566 1.784,.182z"/>
<path d="m202.576,242.131l3.624-.438-.442-3.559-3.577,.457c.372,1.127 .518,2.331 .395,3.54z"/>
<path d="m190.549,236.582l-.946-2.582c-1.174,.721-2.181,1.729-2.905,2.979l2.598,.885 1.253-1.282z"/>
<path d="m191.805,229.588l-3.371,1.223 1.169,3.189c1.021-.628 2.165-1.035 3.357-1.193l-1.155-3.219z"/>
<path d="m199.524,244.131l1.759,1.707c.248-.393 .476-.803 .662-1.244 .341-.807 .547-1.635 .631-2.463l-2.479,.301-.573,1.699z"/>
<path d="m186.146,244.434l-2.942,1.883 1.943,3.014 2.986-1.938c-.868-.844-1.544-1.854-1.987-2.959z"/>
<path d="m195.36,247.277l-.241,2.461c1.314-.163 2.574-.625 3.675-1.353l-1.748-1.72-1.686,.612z"/>
<path d="m191.57,249.433l-.376,3.603 3.567,.359 .357-3.656c-1.164,.144-2.37,.057-3.548-.306z"/>
<path d="m186.697,236.979l-3.221-1.098-1.146,3.397 3.253,1.086c.087-.815 .291-1.631 .626-2.424 .143-.336 .311-.653 .488-.961z"/>
<path d="m198.794,248.386l2.634,2.592 2.507-2.565-2.651-2.574c-.657,1.035-1.507,1.897-2.49,2.547z"/>
<path d="m188.162,241.225l-2.578-.859c-.148,1.398 .055,2.795 .563,4.068l2.237-1.43-.222-1.779z"/>
<path d="m190.304,245.984l-2.17,1.408c.739,.717 1.613,1.316 2.618,1.742 .271,.113 .544,.213 .818,.298l.263-2.512-1.529-.936z"/>
</g>
</g>
<circle fill="none" cx="194.05" cy="241.471"  stroke="#000" stroke-linejoin="round" r="5.917" stroke-width="5"/>
</svg>
