<svg xmlns="http://www.w3.org/2000/svg" viewBox="20 20 321 321">
<g fill="#000">
<path d="m165.929,157.972c-.338-.933-.813-1.673-1.424-2.22-.612-.547-1.433-.821-2.462-.821s-1.851,.274-2.462,.821c-.612,.547-1.086,1.296-1.424,2.245-.337,.95-.563,2.052-.675,3.307-.113,1.254-.169,2.606-.169,4.055 0,1.448 .056,2.808 .169,4.079 .112,1.272 .338,2.374 .675,3.307 .338,.934 .813,1.674 1.424,2.221 .611,.547 1.432,.821 2.462,.821 .998,0 1.811-.273 2.438-.821 .628-.547 1.11-1.295 1.449-2.245 .337-.95 .562-2.052 .675-3.307 .112-1.255 .169-2.607 .169-4.055 0-1.448-.057-2.807-.169-4.079-.114-1.272-.339-2.374-.676-3.308z"/>
<path d="m243.514,140.333h-138.842c-2.629,0-4.761,2.203-4.761,4.919v38.945c0,2.716 2.131,4.919 4.761,4.919h138.842c2.63,0 4.762-2.203 4.762-4.919v-38.945c-.001-2.716-2.132-4.919-4.762-4.919zm-73.506,36.683c-1.867,2.624-4.506,3.935-7.917,3.935-3.508,0-6.188-1.311-8.038-3.935-1.851-2.623-2.776-6.509-2.776-11.658 0-5.148 .949-9.035 2.848-11.659 1.899-2.622 4.538-3.934 7.917-3.934 3.508,0 6.18,1.312 8.014,3.934 1.834,2.624 2.751,6.51 2.751,11.659 .001,5.149-.933,9.036-2.799,11.658zm13.131-3.765c1.126,1.689 2.783,2.535 4.973,2.535 .354,0 .739-.016 1.158-.048 .418-.032 .804-.08 1.158-.145v-10.91h5.938v14.917c-.708,.258-1.811,.547-3.307,.869-1.496,.321-3.307,.482-5.43,.482-1.867,0-3.549-.331-5.045-.989-1.498-.66-2.776-1.642-3.839-2.945-1.062-1.303-1.883-2.928-2.462-4.875-.579-1.947-.869-4.208-.869-6.783 0-2.542 .337-4.787 1.014-6.734 .676-1.947 1.593-3.58 2.752-4.9 1.159-1.319 2.526-2.309 4.103-2.969 1.576-.66 3.266-.99 5.068-.99 1.158,0 2.197,.089 3.114,.265 .917,.178 1.714,.379 2.39,.604 .676,.226 1.23,.467 1.666,.724 .434,.258 .764,.451 .989,.58l-1.546,4.731c-.707-.45-1.576-.853-2.605-1.207-1.031-.354-2.093-.531-3.187-.531-1.417,0-2.606,.258-3.572,.772-.966,.515-1.763,1.231-2.39,2.148-.627,.917-1.078,2.012-1.352,3.283-.273,1.272-.41,2.679-.41,4.224 .001,3.571 .564,6.203 1.691,7.892z"/>
<path d="m243.641,195.833h-139.096c-2.634,0-4.77,2.237-4.77,4.997v39.564c0,2.76 2.136,4.997 4.77,4.997h139.095c2.635,0 4.77-2.237 4.77-4.997v-39.564c0-2.76-2.135-4.997-4.769-4.997zm-71.464,39.792h-19.2v-30.356h18.136v5.002h-12.187v6.817h10.592v5.002h-10.592v8.533h13.251v5.002zm10.978-7.184c1.128,1.716 2.788,2.574 4.981,2.574 .354,0 .74-.016 1.16-.049 .42-.032 .806-.081 1.161-.146v-11.084h5.948v15.154c-.709,.262-1.813,.556-3.313,.883-1.499,.326-3.313,.49-5.441,.49-1.869,0-3.555-.336-5.053-1.006-1.5-.67-2.781-1.668-3.845-2.992-1.064-1.323-1.887-2.975-2.467-4.952-.581-1.979-.87-4.274-.87-6.891 0-2.583 .338-4.863 1.016-6.842 .677-1.978 1.596-3.637 2.757-4.978s2.531-2.346 4.111-3.017c1.579-.67 3.271-1.005 5.078-1.005 1.16,0 2.2,.09 3.119,.27s1.717,.385 2.394,.612c.677,.229 1.233,.476 1.669,.736 .435,.263 .766,.458 .991,.588l-1.548,4.807c-.709-.458-1.58-.866-2.611-1.226-1.033-.359-2.096-.539-3.192-.539-1.419,0-2.612,.262-3.579,.783-.967,.523-1.765,1.252-2.394,2.183-.628,.933-1.08,2.044-1.354,3.335-.273,1.293-.41,2.723-.41,4.292 0,3.631 .563,6.304 1.692,8.02z"/>
<path d="m251.845,247.323c-.034,.221 1.911,.219-.118,.219-1.248,0-2.495,0-3.743,0-4.423,0-8.846,0-13.269,0-14.202,0-28.403,0-42.605,0-28.881,0-57.764,0-86.646,0-2.957,0-5.914,0-8.871,0-1.925,0 .246-.169 .246,1.07 0-.705 0-1.409 0-2.114 0-10.373 0-20.746 0-31.119 0-29.571 0-59.144 0-88.715 0-3.253 0-6.506 0-9.759-.826,1.439-1.651,2.878-2.477,4.317 16.27-10.881 32.54-21.762 48.81-32.643-1.284,.168-2.568,.336-3.853,.504 22.513,6.812 45.025,13.624 67.538,20.436 12.697,3.842 25.396,7.685 38.093,11.526 2.205,.667 4.41,1.334 6.615,2.001 .012,.004 .101-1.634 .101,.295 0,1.441 0,2.882 0,4.324 0,40.329 0,80.658 0,120.987 0,6.448 10,6.448 10,0 0-22.752 0-45.505 0-68.257 0-14.604 0-29.209 0-43.814 0-7.245 2.557-21.508-7.432-23.174-7.365-1.229-14.902-4.509-22.032-6.667-15.169-4.59-30.337-9.18-45.506-13.77-12.698-3.842-25.396-7.685-38.093-11.526-2.205-.667-4.41-1.334-6.615-2.002-3.545-1.072-8.092,3.329-10.733,5.096-12.252,8.194-24.505,16.388-36.758,24.583-2.774,1.855-7.658,4.032-7.658,7.873 0,2.356 0,4.713 0,7.069 0,28.944 0,57.888 0,86.833 0,11.332 0,22.664 0,33.996 0,3.298-.321,6.996 2.19,9.594 2.778,2.873 5.862,3.057 9.465,3.057 25.586,0 51.172,0 76.758,0 18.905,0 37.809,0 56.714,0 5.697,0 11.395,0 17.093,0 5.491,0 11.367-.757 12.428-7.561 .984-6.307-8.651-9.015-9.642-2.659z"/>
<path d="m101.218,192.371 147.019,0"/>
<path d="m101.218,193.871c47.763,0 95.526,0 143.289,0 1.244,0 2.487,0 3.73,0 1.935,0 1.935-3 0-3-47.763,0-95.526,0-143.29,0-1.243,0-2.487,0-3.73,0-1.934,0-1.934,3 .001,3z"/>
<path d="m101.218,137.553 147.019,0"/>
<path d="m101.218,139.053c47.763,0 95.526,0 143.289,0 1.244,0 2.487,0 3.73,0 1.935,0 1.935-3 0-3-47.763,0-95.526,0-143.29,0-1.243,0-2.487,0-3.73,0-1.934,0-1.934,3 .001,3z"/>
<path d="m77.606,132.183c26.285-17.613 52.57-35.226 78.855-52.838 5.327-3.569 .327-12.236-5.047-8.635-26.285,17.613-52.57,35.226-78.855,52.838-5.327,3.569-.327,12.236 5.047,8.635z"/>
<path d="m143.681,90.22c45.313,13.466 90.625,26.932 135.938,40.398 .805,.239 1.609,.478 2.414,.717 6.197,1.842 8.824-7.81 2.658-9.643-45.313-13.466-90.625-26.932-135.938-40.398-.805-.239-1.61-.478-2.415-.717-6.196-1.841-8.824,7.811-2.657,9.643z"/>
<path d="m141.446,109.76c-.457-.881-1.08-1.588-1.871-2.121-.791-.532-1.81-.798-3.056-.798-.244,0-.518,.008-.821,.023-.305,.016-.578,.053-.821,.114v18.977c.152,.03 .319,.045 .501,.045 .183,0 .35,0 .502,0 1.277,0 2.349-.243 3.216-.73 .866-.486 1.565-1.155 2.098-2.007 .532-.851 .913-1.862 1.141-3.033s.342-2.456 .342-3.855c0-1.216-.091-2.402-.273-3.559-.182-1.155-.502-2.173-.958-3.056z"/>
<path d="m244.13,122.813c0,0-97.925-29.367-99.308-29.78-1.738-.52-3.973-.219-4.746,.3-.904,.607-35.364,23.479-35.364,23.479-4.802,3.201-4.802,3.35-4.802,6.002v6.803c0,2.651 2.15,4.802 4.802,4.802h139.418c2.651,0 4.802-2.15 4.802-4.802v-2.001c0-2.652-1.395-3.479-4.802-4.803zm-96.731,.245c-.655,1.84-1.559,3.337-2.714,4.493-1.156,1.157-2.532,2.001-4.128,2.532-1.597,.532-3.353,.798-5.269,.798-1.003,0-1.984-.054-2.942-.16-.958-.107-1.985-.281-3.08-.525v-27.552c1.278-.274 2.479-.457 3.604-.548 1.125-.091 2.174-.137 3.147-.137 1.854,0 3.55,.273 5.086,.821 1.535,.548 2.835,1.407 3.9,2.578 1.064,1.171 1.893,2.662 2.486,4.471 .593,1.81 .89,3.991 .89,6.546 .001,2.616-.326,4.843-.98,6.683zm10.743,.775c1.064,1.597 2.63,2.395 4.699,2.395 .334,0 .699-.015 1.095-.046 .395-.03 .76-.075 1.095-.137v-10.31h5.611v14.096c-.669,.244-1.711,.517-3.125,.82-1.415,.304-3.125,.457-5.132,.457-1.765,0-3.353-.313-4.768-.936-1.414-.622-2.623-1.551-3.626-2.782s-1.779-2.767-2.327-4.607c-.547-1.84-.821-3.976-.821-6.409 0-2.402 .319-4.523 .958-6.364 .639-1.839 1.505-3.383 2.601-4.63 1.094-1.247 2.387-2.182 3.877-2.806 1.489-.623 3.086-.936 4.79-.936 1.095,0 2.075,.084 2.942,.251 .866,.167 1.619,.358 2.258,.57 .639,.213 1.164,.441 1.574,.685 .411,.244 .722,.426 .935,.547l-1.459,4.471c-.669-.425-1.491-.805-2.464-1.14-.974-.334-1.977-.501-3.01-.501-1.339,0-2.463,.243-3.376,.729-.912,.487-1.665,1.163-2.258,2.03-.593,.867-1.019,1.901-1.277,3.102-.259,1.202-.388,2.532-.388,3.992-.001,3.377 .531,5.863 1.596,7.459z"/>
<path d="m265.667,250.592c8.264,0 16.527,0 24.791,0 1.935,0 1.935-3 0-3-8.264,0-16.527,0-24.791,0-1.935,0-1.935,3 0,3z"/>
<path d="m283.391,281.786c1.531,0 3.063,0 4.595,0 1.908,0 3.5-1.592 3.5-3.5s-1.592-3.5-3.5-3.5c-1.531,0-3.063,0-4.595,0-1.908,0-3.5,1.592-3.5,3.5s1.591,3.5 3.5,3.5z"/>
<path d="m256.666,291.786c5.333,0 10.667,0 16,0 4.514,0 4.514-7 0-7-5.333,0-10.667,0-16,0-4.514,0-4.514,7 0,7z"/>
<path d="m268.25,285.786c2,0 4,0 6,0 1.908,0 3.5-1.592 3.5-3.5s-1.592-3.5-3.5-3.5c-2,0-4,0-6,0-1.908,0-3.5,1.592-3.5,3.5s1.592,3.5 3.5,3.5z"/>
<path d="m286.584,291.786c.667,0 1.333,0 2,0 1.908,0 3.5-1.592 3.5-3.5s-1.592-3.5-3.5-3.5c-.667,0-1.333,0-2,0-1.908,0-3.5,1.592-3.5,3.5s1.592,3.5 3.5,3.5z"/>
<path d="m267.666,271.474c-2,0-4,0-6,0-1.908,0-3.5,1.592-3.5,3.5s1.592,3.5 3.5,3.5c2,0 4,0 6,0 1.908,0 3.5-1.592 3.5-3.5s-1.592-3.5-3.5-3.5z"/>
<path d="m265.666,257.453c-.667,0-1.333,0-2,0-1.908,0-3.5,1.592-3.5,3.5s1.592,3.5 3.5,3.5c.667,0 1.333,0 2,0 1.908,0 3.5-1.592 3.5-3.5s-1.592-3.5-3.5-3.5z"/>
<path d="m288.834,257.953c-5.333,0-10.667,0-16,0-4.514,0-4.514,7 0,7 5.333,0 10.667,0 16,0 4.514,0 4.514-7 0-7z"/>
<path d="m284.834,265.953c-5.083,0-10.167,0-15.25,0-4.514,0-4.514,7 0,7 5.083,0 10.167,0 15.25,0 4.514,0 4.514-7 0-7z"/>
<path d="m288.168,251.953c-2,0-4,0-6,0-1.908,0-3.5,1.592-3.5,3.5s1.592,3.5 3.5,3.5c2,0 4,0 6,0 1.908,0 3.5-1.592 3.5-3.5s-1.592-3.5-3.5-3.5z"/>
<path d="m273.834,249.953c-2,0-4,0-6,0-1.908,0-3.5,1.592-3.5,3.5s1.592,3.5 3.5,3.5c2,0 4,0 6,0 1.908,0 3.5-1.592 3.5-3.5s-1.592-3.5-3.5-3.5z"/>
<path d="m256.104,263.89c-2,0-4,0-6,0-1.908,0-3.5,1.592-3.5,3.5s1.592,3.5 3.5,3.5c2,0 4,0 6,0 1.908,0 3.5-1.592 3.5-3.5s-1.592-3.5-3.5-3.5z"/>
<path d="m287.833,269.953c-.222,0-.443,0-.665,0-1.908,0-3.5,1.592-3.5,3.5s1.592,3.5 3.5,3.5c.222,0 .443,0 .665,0 1.908,0 3.5-1.592 3.5-3.5s-1.592-3.5-3.5-3.5z"/>
<path d="m73.75,282.89c2.337,0 4.673,0 7.01,0 4.514,0 4.514-7 0-7-2.337,0-4.673,0-7.01,0-4.515,0-4.515,7 0,7z"/>
<path d="m100.271,279.89c2.581,0 5.161,0 7.741,0 4.514,0 4.514-7 0-7-2.581,0-5.161,0-7.741,0-4.515,0-4.515,7 0,7z"/>
<path d="m96.834,268.89c5.083,0 10.167,0 15.25,0 4.514,0 4.514-7 0-7-5.083,0-10.167,0-15.25,0-4.514,0-4.514,7 0,7z"/>
<path d="m122.069,291.786c2,0 4,0 6,0 1.908,0 3.5-1.592 3.5-3.5s-1.592-3.5-3.5-3.5c-2,0-4,0-6,0-1.908,0-3.5,1.592-3.5,3.5s1.592,3.5 3.5,3.5z"/>
<path d="m246.238,284.277c-3,0-6.001,0-9.001,0-4.514,0-4.514,7 0,7 3,0 6.001,0 9.001,0 4.514,0 4.514-7 0-7z"/>
<path d="m259.237,268.277c-5.333,0-10.667,0-16,0-4.514,0-4.514,7 0,7 5.333,0 10.667,0 16,0 4.514,0 4.514-7 0-7z"/>
<path d="m79.874,251.578c-2,0-4,0-6,0-1.908,0-3.5,1.592-3.5,3.5s1.592,3.5 3.5,3.5c2,0 4,0 6,0 1.908,0 3.5-1.592 3.5-3.5s-1.592-3.5-3.5-3.5z"/>
<path d="m240.487,260.536c-1.083,0-2.167,0-3.25,0-1.908,0-3.5,1.592-3.5,3.5s1.592,3.5 3.5,3.5c1.083,0 2.167,0 3.25,0 1.908,0 3.5-1.592 3.5-3.5s-1.591-3.5-3.5-3.5z"/>
<path d="m76.583,272.953c.667,0 1.333,0 2,0 1.908,0 3.5-1.592 3.5-3.5s-1.592-3.5-3.5-3.5c-.667,0-1.333,0-2,0-1.908,0-3.5,1.592-3.5,3.5s1.592,3.5 3.5,3.5z"/>
<path d="m93.584,276.277c-.667,0-1.333,0-2,0-1.908,0-3.5,1.592-3.5,3.5s1.592,3.5 3.5,3.5c.667,0 1.333,0 2,0 1.908,0 3.5-1.592 3.5-3.5s-1.592-3.5-3.5-3.5z"/>
<path d="m71.416,250.592c3.639,0 7.278,0 10.917,0 1.935,0 1.935-3 0-3-3.639,0-7.278,0-10.917,0-1.935,0-1.935,3 0,3z"/>
<path d="m196.164,284.786c-2,0-4,0-6,0-1.908,0-3.5,1.592-3.5,3.5s1.592,3.5 3.5,3.5c2,0 4,0 6,0 1.908,0 3.5-1.592 3.5-3.5s-1.592-3.5-3.5-3.5z"/>
<path d="m87.833,263.89c-1.833,0-3.667,0-5.5,0-1.908,0-3.5,1.592-3.5,3.5s1.592,3.5 3.5,3.5c1.833,0 3.667,0 5.5,0 1.908,0 3.5-1.592 3.5-3.5s-1.592-3.5-3.5-3.5z"/>
<path d="m172.5,266.953c3,0 6,0 9,0 4.514,0 4.514-7 0-7-3,0-6,0-9,0-4.514,0-4.514,7 0,7z"/>
<path d="m205.916,291.82c5.333,0 10.667,0 16,0 4.514,0 4.514-7 0-7-5.333,0-10.667,0-16,0-4.514,0-4.514,7 0,7z"/>
<path d="m221.375,277.729c2,0 4,0 6,0 1.908,0 3.5-1.592 3.5-3.5s-1.592-3.5-3.5-3.5c-2,0-4,0-6,0-1.908,0-3.5,1.592-3.5,3.5s1.592,3.5 3.5,3.5z"/>
<path d="m215.209,288.035c.667,0 1.333,0 2,0 1.908,0 3.5-1.592 3.5-3.5s-1.592-3.5-3.5-3.5c-.667,0-1.333,0-2,0-1.908,0-3.5,1.592-3.5,3.5s1.592,3.5 3.5,3.5z"/>
<path d="m213.75,264.584c-2,0-4,0-6,0-1.908,0-3.5,1.592-3.5,3.5s1.592,3.5 3.5,3.5c2,0 4,0 6,0 1.908,0 3.5-1.592 3.5-3.5s-1.592-3.5-3.5-3.5z"/>
<path d="m222.834,260.751c-5.083,0-10.167,0-15.25,0-4.514,0-4.514,7 0,7 5.083,0 10.167,0 15.25,0 4.514,0 4.514-7 0-7z"/>
<path d="m233.834,278.584c-2,0-4,0-6,0-1.908,0-3.5,1.592-3.5,3.5s1.592,3.5 3.5,3.5c2,0 4,0 6,0 1.908,0 3.5-1.592 3.5-3.5s-1.592-3.5-3.5-3.5z"/>
<path d="m135.882,271.917c-3,0-6,0-9,0-4.514,0-4.514,7 0,7 3,0 6,0 9,0 4.514,0 4.514-7 0-7z"/>
<path d="m152.736,260.549c-5.333,0-10.667,0-16,0-4.514,0-4.514,7 0,7 5.333,0 10.667,0 16,0 4.514,0 4.514-7 0-7z"/>
<path d="m152.402,271.786c-2,0-4,0-6,0-1.908,0-3.5,1.592-3.5,3.5s1.592,3.5 3.5,3.5c2,0 4,0 6,0 1.908,0 3.5-1.592 3.5-3.5s-1.592-3.5-3.5-3.5z"/>
<path d="m139.069,265.786c-.667,0-1.333,0-2,0-1.908,0-3.5,1.592-3.5,3.5s1.592,3.5 3.5,3.5c.667,0 1.333,0 2,0 1.908,0 3.5-1.592 3.5-3.5s-1.592-3.5-3.5-3.5z"/>
<path d="m144.902,291.786c2,0 4,0 6,0 1.908,0 3.5-1.592 3.5-3.5s-1.592-3.5-3.5-3.5c-2,0-4,0-6,0-1.908,0-3.5,1.592-3.5,3.5s1.593,3.5 3.5,3.5z"/>
<path d="m85.819,291.619c5.083,0 10.167,0 15.25,0 4.514,0 4.514-7 0-7-5.083,0-10.167,0-15.25,0-4.514,0-4.514,7 0,7z"/>
<path d="m124.569,271.786c2,0 4,0 6,0 1.908,0 3.5-1.592 3.5-3.5s-1.592-3.5-3.5-3.5c-2,0-4,0-6,0-1.908,0-3.5,1.592-3.5,3.5s1.593,3.5 3.5,3.5z"/>
<path d="m178.251,276.584c3,0 6.001,0 9.001,0 4.514,0 4.514-7 0-7-3,0-6.001,0-9.001,0-4.514,0-4.514,7 0,7z"/>
<path d="m159.584,291.82c5.333,0 10.667,0 16,0 4.514,0 4.514-7 0-7-5.333,0-10.667,0-16,0-4.514,0-4.514,7 0,7z"/>
<path d="m154.902,283.786c2,0 4,0 6,0 1.908,0 3.5-1.592 3.5-3.5s-1.592-3.5-3.5-3.5c-2,0-4,0-6,0-1.908,0-3.5,1.592-3.5,3.5s1.593,3.5 3.5,3.5z"/>
<path d="m173.251,287.584c.667,0 1.333,0 2,0 1.908,0 3.5-1.592 3.5-3.5s-1.592-3.5-3.5-3.5c-.667,0-1.333,0-2,0-1.908,0-3.5,1.592-3.5,3.5s1.593,3.5 3.5,3.5z"/>
<path d="m167.584,264.584c-3.722,0-7.444,0-11.166,0-4.514,0-4.514,7 0,7 3.722,0 7.444,0 11.166,0 4.514,0 4.514-7 0-7z"/>
<path d="m210.666,267.786c-3.902,0-7.806,0-11.708,0-4.514,0-4.514,7 0,7 3.902,0 7.806,0 11.708,0 4.514,0 4.514-7 0-7z"/>
<path d="m192.001,278.584c-2,0-4,0-6,0-1.908,0-3.5,1.592-3.5,3.5s1.592,3.5 3.5,3.5c2,0 4,0 6,0 1.908,0 3.5-1.592 3.5-3.5s-1.592-3.5-3.5-3.5z"/>
<path d="m146.902,279.786c5.333,0 10.667,0 16,0 4.514,0 4.514-7 0-7-5.333,0-10.667,0-16,0-4.514,0-4.514,7 0,7z"/>
<path d="m118.012,275.203c-3,0-6,0-9,0-4.514,0-4.514,7 0,7 3,0 6,0 9,0 4.514,0 4.514-7 0-7z"/>
<path d="m123.636,260.536c-1.083,0-2.167,0-3.25,0-1.908,0-3.5,1.592-3.5,3.5s1.592,3.5 3.5,3.5c1.083,0 2.167,0 3.25,0 1.908,0 3.5-1.592 3.5-3.5s-1.592-3.5-3.5-3.5z"/>
<path d="m99.584,265.167c-2,0-4,0-6,0-1.908,0-3.5,1.592-3.5,3.5s1.592,3.5 3.5,3.5c2,0 4,0 6,0 1.908,0 3.5-1.592 3.5-3.5s-1.592-3.5-3.5-3.5z"/>
<path d="m87.26,281.035c-1.833,0-3.667,0-5.5,0-1.908,0-3.5,1.592-3.5,3.5s1.592,3.5 3.5,3.5c1.833,0 3.667,0 5.5,0 1.908,0 3.5-1.592 3.5-3.5s-1.592-3.5-3.5-3.5z"/>
<path d="m189.416,270.89c5.083,0 10.167,0 15.25,0 4.514,0 4.514-7 0-7-5.083,0-10.167,0-15.25,0-4.514,0-4.514,7 0,7z"/>
<path d="m143.083,281.917c-.667,0-1.333,0-2,0-1.908,0-3.5,1.592-3.5,3.5s1.592,3.5 3.5,3.5c.667,0 1.333,0 2,0 1.908,0 3.5-1.592 3.5-3.5s-1.592-3.5-3.5-3.5z"/>
<path d="m146.833,271.723c-.667,0-1.333,0-2,0-1.908,0-3.5,1.592-3.5,3.5s1.592,3.5 3.5,3.5c.667,0 1.333,0 2,0 1.908,0 3.5-1.592 3.5-3.5s-1.592-3.5-3.5-3.5z"/>
<path d="m105.261,291.619c1.833,0 3.667,0 5.5,0 1.908,0 3.5-1.592 3.5-3.5s-1.592-3.5-3.5-3.5c-1.833,0-3.667,0-5.5,0-1.908,0-3.5,1.592-3.5,3.5s1.593,3.5 3.5,3.5z"/>
<path d="m73.332,290.667c.667,0 1.333,0 2,0 1.908,0 3.5-1.592 3.5-3.5s-1.592-3.5-3.5-3.5c-.667,0-1.333,0-2,0-1.908,0-3.5,1.592-3.5,3.5s1.592,3.5 3.5,3.5z"/>
<path d="m92.583,281.953c.667,0 1.333,0 2,0 1.908,0 3.5-1.592 3.5-3.5s-1.592-3.5-3.5-3.5c-.667,0-1.333,0-2,0-1.908,0-3.5,1.592-3.5,3.5s1.592,3.5 3.5,3.5z"/>
<path d="m103.833,272.89c-1.833,0-3.667,0-5.5,0-1.908,0-3.5,1.592-3.5,3.5s1.592,3.5 3.5,3.5c1.833,0 3.667,0 5.5,0 1.908,0 3.5-1.592 3.5-3.5s-1.592-3.5-3.5-3.5z"/>
<path d="m250.834,283.292c.667,0 1.333,0 2,0 1.908,0 3.5-1.592 3.5-3.5s-1.592-3.5-3.5-3.5c-.667,0-1.333,0-2,0-1.908,0-3.5,1.592-3.5,3.5s1.592,3.5 3.5,3.5z"/>
<path d="m211.5,272.89c-3.722,0-7.444,0-11.166,0-4.514,0-4.514,7 0,7 3.722,0 7.444,0 11.166,0 4.514,0 4.514-7 0-7z"/>
<path d="m83.166,259.953c-3.278,0-6.556,0-9.833,0-4.514,0-4.514,7 0,7 3.278,0 6.556,0 9.833,0 4.514,0 4.514-7 0-7z"/>
<path d="m140.46,280.584c-3.722,0-7.444,0-11.166,0-4.514,0-4.514,7 0,7 3.722,0 7.444,0 11.166,0 4.515,0 4.515-7 0-7z"/>
</g>
</svg>
