<svg xmlns="http://www.w3.org/2000/svg" viewBox="20 20 321 321">
<path fill="none"  stroke="#000" stroke-width="10" d="m175.835,157.738c0,10.04-8.14,18.18-18.18,18.18h-64.641c-10.041,0-18.18-8.14-18.18-18.18v-64.641c0-10.041 8.139-18.18 18.18-18.18h64.641c10.04,0 18.18,8.14 18.18,18.18v64.641z"/>
<g fill="#000">
<path d="m120.616,96.119c0,19.344 0,38.689 0,58.033 0,6.449 10,6.449 10,0 0-19.344 0-38.689 0-58.033 0-6.449-10-6.449-10,0z"/>
<path d="m144.568,257.158c24.178,0 48.356,0 72.535,.001 10.999,0 21.999,0 32.999,0 18.335,0 34.021-10.83 39.916-28.317 1.881-5.578 1.815-11.432 1.815-17.229 0-7.157 0-14.314 0-21.473 0-12.348 1.311-25.582-.83-37.817-3.433-19.622-21.957-32.187-41.028-32.187-13.891,0-27.781,0-41.671,0-2.38,0-4.759,0-7.138,0-6.448,0-6.448,10 0,10 12.238,0 24.477,0 36.715,0 4.541,0 9.083,0 13.624,0 10.862,0 20.577,5.818 26.19,15.009 6.59,10.788 4.138,26.959 4.138,39.04 0,7.764 0,15.527 0,23.291 0,4.426 .356,9.11-.241,13.514-2.265,16.698-16.785,26.171-32.673,26.171-11.552,0-23.104,0-34.656,0-23.231-.001-46.463-.001-69.695-.001-6.449-.002-6.449,9.998-0,9.998z"/>
<path d="m147.091,281.85c-14.832-11.336-29.664-22.673-44.496-34.009 0,2.878 0,5.757 0,8.635 14.832-11.336 29.664-22.672 44.496-34.008-2.508-1.439-5.016-2.878-7.523-4.317 0,22.672 0,45.345 0,68.017 0,6.448 10,6.448 10,0 0-22.672 0-45.345 0-68.017 0-3.436-4.397-6.707-7.523-4.317-14.832,11.336-29.664,22.672-44.496,34.008-3.178,2.429-3.178,6.206 0,8.635 14.832,11.336 29.664,22.673 44.496,34.009 5.125,3.916 10.096-4.777 5.046-8.636z"/>
</g>
</svg>
