<svg xmlns="http://www.w3.org/2000/svg" viewBox="20 20 321 321">
<g fill="#000">
<path d="m129.119,175.256c-4.182,.21-10.306,1.283-10.306,6.721 0,2.935 0,5.869 0,8.804 0,7.383-1.506,15.897 8.629,16.407 8.597,.434 17.281,.085 25.885,.085 26.212,0 52.425,.001 78.637,.001 6.867,0 10.909-2.542 10.909-9.4 0-3.607 0-7.215 0-10.822 0-2.81 .371-5.621-.953-8.186-2.17-4.201-8.633-3.609-12.768-3.609-5.014,0-10.026,0-15.04,0-27.548,0-55.096,0-82.643,0-.783-.001-1.567-.001-2.35-.001-6.449,0-6.449,10 0,10 24.343,0 48.686,0 73.029,0 9.991,0 19.983,0 29.975,0 .149,0 .298,0 .447,0 3.902-.001 .303,.072 .303-3.089 0,.407 0,.814 0,1.222 0,3.731 0,7.464 0,11.196 0,1.518 0,3.036 0,4.555 0,.407 0,.814 0,1.222 0-2.803 3.623-3.287-.303-3.088-.675,.034-1.36,0-2.035,0-23.665,0-47.329,0-70.994-.001-9.462,0-18.924,0-28.386,0-.662,0-1.323,0-1.985,0-3.972,0-.357-.132-.357,3.089 0-1.076 0-2.153 0-3.23 0-3.36 0-6.721 0-10.081 0-1.221 0-2.441 0-3.662 0-.407 0-.814 0-1.222 0,2.807-3.623,3.288 .306,3.09 6.417-.324 6.448-10.326 0-10.001z"/>
<path d="m265.46,177.022c-26.765-35.019-53.529-70.037-80.294-105.055-2.429-3.178-6.206-3.178-8.635,0-26.765,35.018-53.529,70.037-80.293,105.055-2.39,3.126 .882,7.524 4.317,7.524 49.409-.001 98.817-.001 148.225-.001 4.121,0 8.241,0 12.362,0 6.448,0 6.448-10 0-10-49.408,0-98.817,0-148.226,0-4.121,0-8.241,0-12.362,0 1.439,2.508 2.878,5.016 4.317,7.524 26.765-35.019 53.529-70.037 80.293-105.056-2.878,0-5.756,0-8.635,0 26.765,35.019 53.529,70.037 80.294,105.055 3.862,5.051 12.555,.079 8.637-5.046z"/>
<path d="m129.119,218.159c-4.182,.211-10.306,1.284-10.306,6.721 0,2.935 0,5.869 0,8.804 0,7.383-1.506,15.896 8.629,16.407 8.597,.433 17.281,.084 25.885,.084 26.212,0 52.425,.001 78.637,.001 6.867,0 10.909-2.541 10.909-9.399 0-3.608 0-7.216 0-10.823 0-2.808 .372-5.622-.953-8.185-2.173-4.2-8.631-3.61-12.768-3.61-5.014,0-10.026,0-15.04,0-27.548,0-55.096,.001-82.643,.001-.783-.001-1.567-.001-2.35-.001-6.449,0-6.449,10 0,10 24.343,0 48.686,0 73.029-.001 9.991,0 19.983,0 29.975,0 .149,0 .298,0 .447,0 3.902,0 .303,.074 .303-3.089 0,.407 0,.814 0,1.222 0,3.732 0,7.464 0,11.196 0,1.519 0,3.037 0,4.556 0,.407 0,.814 0,1.222 0-2.803 3.623-3.287-.303-3.089-.675,.034-1.36,0-2.035,0-23.665,0-47.329,0-70.994-.001-9.462,0-18.924,0-28.386,0-.662,0-1.323,0-1.985,0-3.972,0-.357-.131-.357,3.09 0-1.076 0-2.153 0-3.23 0-3.36 0-6.721 0-10.081 0-1.221 0-2.441 0-3.662 0-.407 0-.814 0-1.222 0,2.808-3.623,3.288 .306,3.09 6.417-.324 6.448-10.326 0-10.001z"/>
<path d="m129.124,259.884c-4.182,.211-10.305,1.286-10.305,6.723 0,2.935 0,5.868 0,8.803 0,7.383-1.506,15.896 8.628,16.406 8.597,.434 17.28,.085 25.884,.085 26.212,.001 52.424,.001 78.636,.002 6.868,0 10.911-2.54 10.911-9.4 0-3.607 0-7.215 0-10.822 0-2.811 .371-5.621-.953-8.187-2.168-4.202-8.635-3.609-12.77-3.609-5.014,0-10.026,0-15.04,0-27.548,0-55.095,0-82.642,0-.782-.001-1.566-.001-2.349-.001-6.449,0-6.449,10 0,10 24.343,0 48.686,0 73.028,0 9.991,0 19.983,0 29.975,0 .149,0 .298,0 .447,0 3.904,0 .305,.073 .305-3.088 0,.407 0,.814 0,1.222 0,3.731 0,7.464 0,11.195 0,1.519 0,3.037 0,4.556 0,.407 0,.814 0,1.222 0-2.804 3.623-3.285-.305-3.088-.675,.034-1.36,0-2.035,0-23.665,0-47.329-.001-70.993-.001-9.462-.001-18.924-.001-28.386-.001-.662,0-1.323,0-1.985,0-3.97,0-.356-.131-.356,3.09 0-1.076 0-2.153 0-3.229 0-3.36 0-6.721 0-10.081 0-1.221 0-2.441 0-3.662 0-.407 0-.814 0-1.222 0,2.806-3.623,3.286 .305,3.088 6.417-.325 6.448-10.326 0-10.001z"/>
</g>
</svg>
