<svg xmlns="http://www.w3.org/2000/svg" viewBox="20 20 321 321">
<g fill="#000">
<path d="m187.066,221.706c28.319-41.017 56.639-82.033 84.958-123.05 4.19-6.069 8.38-12.138 12.57-18.207 5.504-7.972-7.529-15.41-12.99-7.5-28.319,41.017-56.639,82.033-84.958,123.049-4.19,6.069-8.381,12.138-12.571,18.207-5.503,7.973 7.529,15.411 12.991,7.501z"/>
<path d="m184.32,211.461c-14.089-10.111-28.179-20.222-42.269-30.333-3.326-2.387-8.353-.532-10.245,2.745-2.194,3.8-.573,7.864 2.745,10.245 14.09,10.111 28.179,20.222 42.269,30.333 3.326,2.387 8.353,.532 10.246-2.745 2.194-3.8 .573-7.864-2.746-10.245z"/>
<path d="m263.507,133.845c0,24.444 0,48.888 0,73.331 0,9.563 0,19.126 0,28.689 0,16.498-13.553,26.766-29.058,26.766-27.559,0-55.117,0-82.676,0-8.955,0-17.91,0-26.865,0-16.492,0-26.748-13.566-26.748-29.058 0-27.56 0-55.118 0-82.677 0-8.956 0-17.911 0-26.866 0-9.79 5.193-18.375 13.537-23.341 4.854-2.889 10.26-3.407 15.747-3.407 33.167,0 66.334,0 99.501,0 6.448,0 6.448-10 0-10-24.443,0-48.887,0-73.33,0-9.563,0-19.125,0-28.688,0-20.058,0-36.766,16.568-36.766,36.667 0,24.713 0,49.426 0,74.14 0,11.717 0,23.434 0,35.151 0,16.891 8.372,31.115 24.499,37.339 8.607,3.321 19.604,2.051 28.674,2.051 15.32,0 30.641,0 45.962,0 13.81,0 27.619,0 41.429,0 2.705,0 5.41,0 8.116,0 10.016,0 19.373-4.135 26.416-11.178 8.525-8.525 10.251-19.637 10.251-31.047 0-11.524 0-23.048 0-34.571 0-20.664 0-41.327 0-61.99-.001-6.448-10.001-6.448-10.001,.001z"/>
</g>
</svg>
