<svg xmlns="http://www.w3.org/2000/svg" viewBox="20 20 321 321">
<g fill="#000">
<path d="m226.932,157.01c0-11.869 0-23.738 0-35.607 0-13.097 2.063-27.965-5.963-39.25-5.842-8.216-15.609-13.153-25.672-13.153-2.965,0-5.93,0-8.895,0-14.759,0-29.517,0-44.275,0-12.778,0-25.557,0-38.334,0-16.759,0-31.972,9.898-34.212,27.53-1.173,9.229-.306,18.982-.306,28.252 0,15.947 0,31.894 0,47.84 0,7.481 0,14.961 0,22.443 0,17.755 14.841,31.592 32.3,31.592 20.78,0 41.559,0 62.339,0 6.449,0 6.449-10 0-10-11.339,0-22.679,0-34.018,0-7.279,0-14.557,0-21.836,0-4.66,0-9.249,.271-13.782-1.017-9.044-2.568-15.004-11.627-15.004-20.782 0-3.331 0-6.662 0-9.994 0-14.996 0-29.992 0-44.988 0-12.356 0-24.712 0-37.068 0-13.797 9.105-23.808 23.191-23.808 27.114,0 54.229,0 81.343,0 5.479,0 11.48-.583 16.858,.658 12.125,2.798 16.266,13.938 16.266,25.008 0,17.448 0,34.896 0,52.343 0,6.449 10,6.449 10,.001z"/>
<path d="m188.213,140.235c-26.574,0-53.148,0-79.722,0-9.687,0-9.772,15.003-.108,15.003 26.574,0 53.148,0 79.723,0 9.685,0 9.771-15.003 .107-15.003z"/>
</g>
<path fill="none"  stroke="#000" stroke-width="10" d="m190.478,263.127c-2.141,0-3.876,.543-3.876,1.21v20.97c0,.667 1.735,1.209 3.876,1.209h75.571c2.141,0 3.875-.541 3.875-1.209v-20.97c0-.668-1.735-1.21-3.875-1.21h-75.571z"/>
<path fill="#000" d="m290.733,260.085c-19.552-25.581-39.104-51.162-58.655-76.743-2.429-3.178-6.206-3.178-8.635,0-19.552,25.581-39.104,51.162-58.656,76.744-2.39,3.126 .882,7.523 4.317,7.523 39.104,0 78.208-.001 117.312-.001 6.448,0 6.448-10 0-10-39.104,0-78.208,.001-117.312,.001 1.439,2.508 2.878,5.016 4.317,7.523 19.552-25.581 39.104-51.162 58.656-76.744-2.878,0-5.757,0-8.635,0 19.552,25.581 39.104,51.162 58.655,76.743 3.861,5.051 12.554,.079 8.636-5.046z"/>
</svg>
