<svg xmlns="http://www.w3.org/2000/svg" viewBox="20 20 321 321">
<path fill="none"  stroke="#000" stroke-width="10" d="m286.732,146.84c0-2.44-1.979-4.418-4.418-4.418h-103.806c-2.44,0-4.418,1.978-4.418,4.418v135.834c0,2.438 1.978,4.416 4.418,4.416h103.807c2.439,0 4.418-1.978 4.418-4.416v-135.834z"/>
<g fill="#000">
<path d="m191.189,169.002c26.147,0 52.296,0 78.443,0 6.448,0 6.448-10 0-10-26.147,0-52.296,0-78.443,0-6.448,0-6.448,10-0,10z"/>
<path d="m191.189,206.819c26.147,0 52.296,0 78.443,0 6.448,0 6.448-10 0-10-26.147,0-52.296,0-78.443,0-6.448,0-6.448,10-0,10z"/>
<path d="m191.189,187.91c26.147,0 52.296,0 78.443,0 6.448,0 6.448-10 0-10-26.147,0-52.296,0-78.443,0-6.448,0-6.448,10-0,10z"/>
<path d="m191.189,225.727c26.147,0 52.296,0 78.443,0 6.448,0 6.448-10 0-10-26.147,0-52.296,0-78.443,0-6.448,0-6.448,10-0,10z"/>
<path d="m191.646,244.635c25.843,0 51.687,0 77.529,0 6.448,0 6.448-10 0-10-25.843,0-51.687,0-77.529,0-6.448,0-6.448,10 0,10z"/>
<path d="m191.762,263.543c25.767,0 51.532,0 77.299,0 6.448,0 6.448-10 0-10-25.767,0-51.532,0-77.299,0-6.449,0-6.449,10-0,10z"/>
<path d="m172.167,276.16c-24.858,0-49.717,0-74.575,0-4.369,0-8.737,0-13.106,0-2.892,0-4.652-1.625-4.652-4.525 0-7.603 0-15.206 0-22.81 0-52.267 0-104.534 0-156.801 0-6.351 10.297-4.364 14.521-4.364 13.782,0 27.563,0 41.346,0 25.381,0 50.762,0 76.143,0 3.201,0 4.49,2.085 4.49,5.073 0,5.286 0,10.571 0,15.856 0,10.693 0,21.385 0,32.078 0,6.449 10,6.449 10,0 0-12.223 0-24.446 0-36.669 0-4.278 0-8.556 0-12.834 0-7.945-6.703-13.504-14.306-13.504-25.115,0-50.231,0-75.346,0-13.911,0-27.822,0-41.733,0-9.712,0-21.792-1.524-24.825,10.795-1.331,5.403-.29,12.104-.29,17.567 0,12.838 0,25.675 0,38.513 0,31.518 0,63.036 0,94.553 0,9.76 0,19.521 0,29.28 0,1.429 0,2.858 0,4.287 0,8.208 6.938,13.504 14.652,13.504 29.227,0 58.454,0 87.681,0 6.448,.001 6.448-9.999 0-9.999z"/>
<path d="m107.333,73.167c27.167,0 54.333,0 81.5,0 1.935,0 1.935-3 0-3-27.167,0-54.333,0-81.5,0-1.935,0-1.935,3 0,3z"/>
<path d="m191.458,92.998c0,3.131-2.394,5.669-5.346,5.669h-76.059c-2.953,0-5.346-2.538-5.346-5.669v-12.162c0-3.131 2.393-5.669 5.346-5.669h76.059c2.952,0 5.346,2.538 5.346,5.669v12.162z"/>
</g>
</svg>
