<svg xmlns="http://www.w3.org/2000/svg" viewBox="20 20 321 321">
<g fill="#000">
<path d="m252.481,165.846c0,3.491 2.831,6.321 6.321,6.321h12.116c3.491,0 6.321-2.831 6.321-6.321v-11.589c0-3.491-2.83-6.321-6.321-6.321h-12.116c-3.49,0-6.321,2.83-6.321,6.321v11.589z"/>
<path d="m138.699,165.846c0,3.491 2.831,6.321 6.321,6.321h12.116c3.491,0 6.321-2.831 6.321-6.321v-11.589c0-3.491-2.83-6.321-6.321-6.321h-12.116c-3.491,0-6.321,2.83-6.321,6.321v11.589z"/>
<path d="m142.123,104.002v-.664l5.007-19.54c.488-7.432 8.013-13.655 14.21-13.655h93.9c6.197,0 13.721,6.223 14.209,13.655l5.007,19.54v.664c0,8.084-4.939,14.417-11.245,14.417h-109.843c-6.305-.001-11.245-6.333-11.245-14.417zm121.779,.591l-4.963-19.368v-.665c0-1.655-2.627-3.735-3.699-3.881l-93.813-.004c-1.159,.149-3.787,2.229-3.787,3.885v.665l-4.963,19.368c.115,1.777 .732,2.894 1.09,3.29h109.045c.358-.396 .974-1.512 1.09-3.29z"/>
<path d="m134.134,118.42c0-3.086 2.928-5.589 6.538-5.589h135.123c3.61,0 6.538,2.502 6.538,5.589v29.194c0,3.085-2.928,5.589-6.538,5.589h-135.123c-3.61,0-6.538-2.503-6.538-5.589v-29.194zm113.344,11.748c0,2.735 2.83,4.953 6.321,4.953h18.174c3.491,0 6.321-2.217 6.321-4.953v-5.16c0-2.735-2.83-4.953-6.321-4.953h-18.174c-3.491,0-6.321,2.218-6.321,4.953v5.16zm-109.042,0c0,2.735 2.831,4.953 6.321,4.953h18.174c3.491,0 6.321-2.217 6.321-4.953v-5.16c0-2.735-2.831-4.953-6.321-4.953h-18.174c-3.491,0-6.321,2.218-6.321,4.953v5.16zm42.405,5.238c0,5.319 2.83,9.633 6.321,9.633h42.668c3.491,0 6.322-4.313 6.322-9.633v-6.02c0-5.32-2.831-9.633-6.322-9.633h-42.668c-3.491,0-6.321,4.313-6.321,9.633v6.02z"/>
<path d="m173.729,122.65h69.534v10.536h-69.534z"/>
<path d="m172.676,136.346h69.534v10.536h-69.534z"/>
<path d="m83.498,179.472c0,35.047 0,70.094 0,105.141 0,9.686 15.003,9.771 15.003,.107 0-35.047 0-70.094 0-105.14-.001-9.686-15.003-9.771-15.003-.108z"/>
<path d="m88.999,291.834c49.292,0 98.583,0 147.874,0 16.986,0 33.973,0 50.959,0 1.935,0 1.935-3 0-3-49.291,0-98.583,0-147.874,0-16.986,0-33.973,0-50.959,0-1.935,0-1.935,3 0,3z"/>
<path d="m269.749,192.198c0,29.552 0,59.103 0,88.654 0,6.448 10,6.448 10,0 0-29.552 0-59.103 0-88.654 0-6.448-10-6.448-10,0z"/>
<path d="m245.832,192.293c0,29.552 0,59.104 0,88.655 0,6.448 10,6.448 10,0 0-29.552 0-59.104 0-88.655 0-6.448-10-6.448-10,0z"/>
<path d="m221.916,192.293c0,29.552 0,59.104 0,88.655 0,6.448 10,6.448 10,0 0-29.552 0-59.104 0-88.655 0-6.448-10-6.448-10,0z"/>
<path d="m174.082,192.293c0,29.552 0,59.104 0,88.655 0,6.448 10,6.448 10,0 0-29.552 0-59.104 0-88.655 0-6.448-10-6.448-10,0z"/>
<path d="m150.166,192.198c0,29.552 0,59.103 0,88.654 0,6.448 10,6.448 10,0 0-29.552 0-59.103 0-88.654 0-6.448-10-6.448-10,0z"/>
<path d="m126.249,192.293c0,29.552 0,59.104 0,88.655 0,6.448 10,6.448 10,0 0-29.552 0-59.104 0-88.655 0-6.448-10-6.448-10,0z"/>
<path d="m102.332,192.293c0,29.552 0,59.104 0,88.655 0,6.448 10,6.448 10,0 0-29.552 0-59.104 0-88.655 0-6.448-10-6.448-10,0z"/>
<path d="m274.749,275.853c-49.657,0-99.315,0-148.973,0-6.148,0-12.296,0-18.444,0-6.449,0-6.449,10 0,10 49.658,0 99.315,0 148.973,0 6.148,0 12.297,0 18.444,0 6.448,0 6.448-10 0-10z"/>
<path d="m274.749,186.525c-49.657,0-99.315,0-148.973,0-6.148,0-12.296,0-18.444,0-6.449,0-6.449,10 0,10 49.658,0 99.315,0 148.973,0 6.148,0 12.297,0 18.444,0 6.448,0 6.448-10 0-10z"/>
<path d="m197.999,192.293c0,29.552 0,59.104 0,88.655 0,6.448 10,6.448 10,0 0-29.552 0-59.104 0-88.655 0-6.448-10-6.448-10,0z"/>
<path d="m282.832,191.525c0,31.797 0,63.595 0,95.392 0,6.448 10,6.448 10,0 0-31.797 0-63.595 0-95.392 0-6.448-10-6.448-10-0z"/>
</g>
</svg>
