<svg xmlns="http://www.w3.org/2000/svg" viewBox="20 20 321 321">
<g fill="#000">
<path d="m209.467,214.675c8.73-29.31 33.197-50.547 63.265-55.642 6.349-1.075 3.647-10.711-2.658-9.643-33.44,5.666-60.599,30.228-70.249,62.626-1.846,6.196 7.806,8.824 9.642,2.659z"/>
<path d="m200.442,210.422c-.166,.523-.331,1.046-.496,1.568-.897,2.835 1.025,5.943 3.809,6.709 2.948,.812 5.813-.977 6.709-3.809 .166-.523 .331-1.046 .496-1.568 .897-2.835-1.025-5.943-3.809-6.709-2.948-.811-5.813,.977-6.709,3.809z"/>
<path d="m269.957,149.445c-.529,.142-1.059,.285-1.589,.427-2.869,.771-4.594,3.857-3.809,6.709 .791,2.878 3.839,4.58 6.709,3.81 .529-.142 1.059-.285 1.589-.427 2.869-.771 4.594-3.857 3.809-6.709-.791-2.879-3.839-4.581-6.709-3.81z"/>
<path d="m209.467,279.56c8.73-29.31 33.197-50.547 63.265-55.642 6.349-1.075 3.647-10.711-2.658-9.643-33.44,5.666-60.599,30.228-70.249,62.626-1.846,6.196 7.806,8.824 9.642,2.659z"/>
<path d="m200.442,275.307c-.166,.523-.331,1.046-.496,1.568-.897,2.835 1.025,5.943 3.809,6.709 2.948,.812 5.813-.977 6.709-3.809 .166-.523 .331-1.046 .496-1.568 .897-2.835-1.025-5.943-3.809-6.709-2.948-.811-5.813,.977-6.709,3.809z"/>
<path d="m269.957,214.33c-.529,.142-1.059,.284-1.589,.427-2.869,.771-4.594,3.856-3.809,6.709 .791,2.877 3.839,4.58 6.709,3.809 .529-.142 1.059-.284 1.589-.427 2.869-.771 4.594-3.856 3.809-6.709-.791-2.877-3.839-4.58-6.709-3.809z"/>
<path d="m209.467,149.79c8.73-29.31 33.197-50.547 63.265-55.642 6.349-1.075 3.647-10.711-2.658-9.643-33.44,5.666-60.599,30.228-70.249,62.626-1.846,6.196 7.806,8.824 9.642,2.659z"/>
<path d="m200.442,145.537c-.166,.522-.331,1.045-.496,1.568-.897,2.834 1.025,5.943 3.809,6.709 2.948,.811 5.813-.978 6.709-3.81 .166-.522 .331-1.045 .496-1.568 .897-2.834-1.025-5.943-3.809-6.709-2.948-.81-5.813,.978-6.709,3.81z"/>
<path d="m269.957,84.56c-.529,.143-1.059,.285-1.589,.427-2.869,.771-4.594,3.857-3.809,6.709 .791,2.878 3.839,4.58 6.709,3.81 .529-.143 1.059-.285 1.589-.427 2.869-.771 4.594-3.857 3.809-6.709-.791-2.879-3.839-4.581-6.709-3.81z"/>
<path d="m231.869,71.292c0,6.884 0,13.768 0,20.651 0,1.935 3,1.935 3,0 0-6.884 0-13.768 0-20.651 0-1.934-3-1.934-3,0z"/>
<path d="m231.869,120.804c0,12.408 0,24.816 0,37.225 0,1.935 3,1.935 3,0 0-12.408 0-24.816 0-37.225 0-1.935-3-1.935-3,0z"/>
<path d="m231.869,184.779c0,12.408 0,24.816 0,37.225 0,1.935 3,1.935 3,0 0-12.408 0-24.816 0-37.225 0-1.934-3-1.934-3,0z"/>
<path d="m231.869,248.664c0,13.657 0,27.313 0,40.971 0,1.935 3,1.935 3,0 0-13.657 0-27.313 0-40.971 0-1.935-3-1.935-3,0z"/>
</g>
<path fill="none"  stroke="#000" stroke-width="10" d="m90.708,118.603c0,2.245 1.82,4.064 4.064,4.064h23.371c2.245,0 4.064-1.82 4.064-4.064v-23.372c0-2.245-1.82-4.064-4.064-4.064h-23.371c-2.245,0-4.064,1.82-4.064,4.064v23.372z"/>
<g fill="#000">
<path d="m137.797,70.756c-2.406,2.407-4.813,4.813-7.219,7.219-1.926,1.926-1.926,5.145 0,7.071s5.145,1.926 7.071,0c2.406-2.407 4.813-4.813 7.219-7.219 1.926-1.926 1.926-5.145 0-7.071s-5.145-1.926-7.071,0z"/>
<path d="m175.708,101.667c-11.167,0-22.333,0-33.5,0-6.449,0-6.449,10 0,10 11.167,0 22.333,0 33.5,0 6.448,0 6.448-10 0-10z"/>
<path d="m78.369,143.327c1.99-1.99 3.979-3.979 5.969-5.969 1.926-1.926 1.926-5.145 0-7.071s-5.145-1.926-7.071,0c-1.99,1.99-3.979,3.979-5.969,5.969-1.926,1.926-1.926,5.145 0,7.071s5.144,1.926 7.071,0z"/>
<path d="m111.958,175.417c0-11.167 0-22.333 0-33.5 0-6.449-10-6.449-10,0 0,11.167 0,22.333 0,33.5 0,6.448 10,6.448 10,0z"/>
<path d="m160.337,153.976c-7.896-7.896-15.792-15.792-23.688-23.688-4.564-4.563-11.635,2.507-7.071,7.071 7.896,7.896 15.792,15.792 23.688,23.688 4.564,4.563 11.635-2.507 7.071-7.071z"/>
</g>
</svg>
