<svg xmlns="http://www.w3.org/2000/svg" viewBox="20 20 321 321">
<g fill="#000">
<path d="m271.556,233.755c-.294,2.184-2.15,1.357-4.162,1.357-3.82,0-7.642,0-11.462,0-12.941,0-25.882,0-38.822,0-31.557,0-63.114,0-94.671,0-9.748,0-19.496,0-29.244,0-1.097,0-3.254,.435-4.293-.004 .332,.141-.453,2.111 .401-.456 .509-1.531 .996-3.07 1.475-4.611 1.537-4.938 2.902-9.93 4.029-14.977 2.141-9.594 1.791-19.449 2.423-29.212 .078-1.202 .668-15.391 1.394-15.391 6.885,0 13.769,0 20.653,0 30.674,0 61.348,0 92.021,0 12.812,0 25.624,0 38.437,0 3.373,0 6.747,0 10.12,0 2.653,0 2.034,.234 2.266,3.18 .893,11.381 .62,23.025 1.939,34.337 1.131,9.69 4.186,19.284 7.495,28.435 2.175,6.016 11.841,3.421 9.643-2.658-2.521-6.971-4.673-14.112-6.29-21.346-2.065-9.235-1.427-19.171-2.049-28.591-.415-6.283 .596-16.924-4.946-21.206-2.81-2.171-5.849-2.151-9.138-2.151-25.219,0-50.437,0-75.654,0-26.536,0-53.071,0-79.606,0-1.694,0-3.388,0-5.082,0-9.776,0-10.057,9.94-10.609,17.087-.749,9.683-.544,19.552-1.606,29.185-.961,8.721-3.97,17.484-6.73,25.778-2.137,6.419 3.241,12.6 9.779,12.6 2.178,0 4.355,0 6.533,0 10.785,0 21.569,0 32.354,0 31.768,0 63.537,0 95.304,0 12.286,0 24.572,0 36.858,0 7.614,0 19.471,1.807 20.883-8.699 .846-6.302-8.788-9.023-9.643-2.657z"/>
<path d="m248.757,75.527c-5.568-9.665-23.518-5.22-31.87-3.41-22.898,4.96-44.921,15.052-65.496,26.012-19.14,10.196-38.009,22.13-53.8,37.109-5.977,5.669-17.959,17.029-13.473,26.497 .828,1.748 3.414,.224 2.591-1.514-1.79-3.776 .995-8.303 2.997-11.393 3.659-5.647 8.734-10.424 13.714-14.883 14.792-13.245 32.07-23.831 49.486-33.226 18.831-10.158 38.734-18.895 59.444-24.416 7.101-1.893 14.422-3.345 21.791-3.437 3.986-.05 9.777,.271 12.026,4.175 .965,1.676 3.558,.166 2.59-1.514z"/>
<path d="m87,169.187c44.133-23.065 88.266-46.131 132.398-69.197 11.128-5.816 22.256-11.632 33.384-17.448 5.717-2.988 .661-11.618-5.047-8.635-44.133,23.065-88.266,46.131-132.398,69.197-11.128,5.816-22.256,11.632-33.384,17.448-5.717,2.988-.661,11.618 5.047,8.635z"/>
<path d="m79.655,166.199c.839,4.085 1.679,8.17 2.519,12.254 .549,2.671 3.656,4.179 6.15,3.492 2.755-.758 4.041-3.483 3.492-6.15-.839-4.085-1.679-8.17-2.519-12.254-.549-2.671-3.656-4.179-6.15-3.492-2.755,.757-4.041,3.483-3.492,6.15z"/>
<path d="m246.723,81.761c2.874,3.021 5.748,6.042 8.623,9.063 4.452,4.68 11.513-2.402 7.07-7.071-2.874-3.021-5.748-6.042-8.623-9.063-4.452-4.68-11.513,2.402-7.07,7.071z"/>
<path d="m80.387,223.502c-.09,4.467-1.548,13.804-7.554,14.112-4.491,.231-4.513,7.232 0,7 10.441-.537 14.375-12.264 14.554-21.112 .092-4.517-6.908-4.508-7,0z"/>
<path d="m273.617,223.683c.18,8.849 4.113,20.574 14.555,21.111 4.514,.232 4.491-6.769 0-7-6.006-.309-7.464-9.644-7.555-14.111-.092-4.508-7.092-4.517-7,0z"/>
<path d="m83.887,227.002c49.65,0 99.299,0 148.95,0 14.76,0 29.521,0 44.28,0 4.514,0 4.514-7 0-7-49.649,0-99.299,0-148.949,0-14.76,0-29.521,0-44.281,0-4.514,0-4.514,7 0,7z"/>
<path d="m72.833,246.122c48.286,0 96.572,0 144.858,0 23.493,0 46.987,0 70.48,0 4.514,0 4.514-7 0-7-48.286,0-96.572,0-144.858,0-23.494,0-46.987,0-70.48,0-4.514,0-4.514,7 0,7z"/>
<path d="m245.764,85.6c1.835,25.148 3.669,50.297 5.504,75.445 .14,1.917 3.141,1.931 3,0-1.835-25.148-3.669-50.297-5.504-75.445-.14-1.917-3.141-1.931-3,0z"/>
</g>
</svg>
