<svg xmlns="http://www.w3.org/2000/svg" viewBox="20 20 321 321">
<g fill="#000">
<path d="m207.301,128.667c0,10.423 0,20.846 0,31.27 0,1.935 3,1.935 3,0 0-10.423 0-20.846 0-31.27 0-1.935-3-1.935-3,0z"/>
<path d="m207.423,189.74c0,12.413 0,24.827 0,37.24 0,1.935 3,1.935 3,0 0-12.413 0-24.827 0-37.24 0-1.934-3-1.934-3,0z"/>
<path d="m207.423,258.143c0,10.342 0,20.683 0,31.024 0,1.935 3,1.935 3,0 0-10.342 0-20.683 0-31.024 0-1.935-3-1.935-3,0z"/>
<path d="m135.795,289.586c12.864-13.543 25.527-27.3 43.144-34.623 11.229-4.668 22.992-6.167 34.941-7.727 11.033-1.439 21.638-4.227 31.866-8.604 11.968-5.12 22.45-13.134 30.854-23.027 .892-1.05 1.757-2.124 2.684-3.145 .392-.431 1.669-1.318 .104-.242-1.726,1.188-5.673-.622-6.188-2.335 2.563,8.518 1.59,23.111 13.313,24.339 6.411,.671 6.347-9.336 0-10 .995,.104 .033-.794-.219-1.446-.489-1.271-.779-2.629-1.099-3.948-.774-3.191-1.289-6.452-1.936-9.671-.446-2.225-1.042-4.544-3.21-5.721-3.815-2.07-6.846,.735-9.146,3.463-8.209,9.731-17.479,17.28-29.142,22.628-21.58,9.896-46.123,7.364-67.894,16.804-18.298,7.933-31.654,21.982-45.144,36.185-4.437,4.672 2.623,11.754 7.072,7.07z"/>
<path d="m132.435,280.873c-.692,.692-1.385,1.385-2.078,2.077-2.023,2.021-2.022,5.402 0,7.424 2.023,2.023 5.401,2.022 7.425,0 .692-.692 1.385-1.385 2.078-2.077 2.023-2.021 2.022-5.402 0-7.424-2.024-2.023-5.402-2.022-7.425,0z"/>
<path d="m286.512,226.755c-.979-.021-1.958-.043-2.938-.065-2.29-.051-4.2,1.949-4.2,4.2 0,2.328 1.912,4.149 4.2,4.2 .979,.021 1.958,.043 2.938,.065 2.29,.051 4.2-1.949 4.2-4.2 0-2.328-1.912-4.149-4.2-4.2z"/>
<path d="m136.484,220.576c12.864-13.543 25.528-27.3 43.144-34.623 11.229-4.668 22.992-6.167 34.941-7.726 11.033-1.439 21.638-4.228 31.866-8.604 11.968-5.121 22.45-13.134 30.854-23.028 .892-1.05 1.757-2.124 2.684-3.144 .392-.432 1.669-1.319 .104-.243-1.726,1.188-5.673-.622-6.188-2.335 2.563,8.519 1.588,23.112 13.313,24.339 6.411,.671 6.347-9.336 0-10 .994,.104 .032-.794-.22-1.446-.489-1.27-.779-2.629-1.099-3.947-.775-3.191-1.289-6.453-1.935-9.671-.446-2.225-1.042-4.544-3.21-5.721-3.815-2.07-6.846,.736-9.146,3.463-8.209,9.732-17.479,17.28-29.142,22.628-21.58,9.896-46.123,7.364-67.895,16.803-18.298,7.933-31.654,21.983-45.144,36.185-4.436,4.672 2.624,11.754 7.073,7.07z"/>
<path d="m133.124,211.863c-.692,.692-1.385,1.385-2.078,2.077-2.023,2.022-2.022,5.401 0,7.424 2.023,2.023 5.402,2.022 7.425,0 .692-.692 1.385-1.385 2.078-2.077 2.023-2.022 2.022-5.401 0-7.424-2.024-2.023-5.403-2.022-7.425,0z"/>
<path d="m287.201,157.746c-.979-.022-1.958-.044-2.938-.066-2.29-.051-4.2,1.95-4.2,4.2 0,2.328 1.912,4.148 4.2,4.2 .979,.022 1.958,.044 2.938,.066 2.29,.051 4.2-1.95 4.2-4.2 0-2.329-1.912-4.149-4.2-4.2z"/>
</g>
<path fill="none"  stroke="#000" stroke-width="10" d="m90.708,118.978c0,2.245 1.82,4.064 4.064,4.064h23.371c2.245,0 4.064-1.82 4.064-4.064v-23.372c0-2.245-1.82-4.064-4.064-4.064h-23.371c-2.245,0-4.064,1.82-4.064,4.064v23.372z"/>
<g fill="#000">
<path d="m137.797,71.131c-2.406,2.407-4.813,4.813-7.219,7.219-1.926,1.926-1.926,5.145 0,7.071s5.145,1.926 7.071,0c2.406-2.407 4.813-4.813 7.219-7.219 1.926-1.926 1.926-5.145 0-7.071s-5.145-1.926-7.071,0z"/>
<path d="m175.708,102.042c-11.167,0-22.333,0-33.5,0-6.449,0-6.449,10 0,10 11.167,0 22.333,0 33.5,0 6.448,0 6.448-10 0-10z"/>
<path d="m78.369,143.702c1.99-1.99 3.979-3.979 5.969-5.969 1.926-1.926 1.926-5.145 0-7.071s-5.145-1.926-7.071,0c-1.99,1.99-3.979,3.979-5.969,5.969-1.926,1.926-1.926,5.145 0,7.071s5.144,1.926 7.071,0z"/>
<path d="m111.958,175.792c0-11.167 0-22.333 0-33.5 0-6.449-10-6.449-10,0 0,11.167 0,22.333 0,33.5 0,6.448 10,6.448 10,0z"/>
<path d="m160.337,154.351c-7.896-7.896-15.792-15.792-23.688-23.688-4.564-4.563-11.635,2.507-7.071,7.071 7.896,7.896 15.792,15.792 23.688,23.688 4.564,4.563 11.635-2.507 7.071-7.071z"/>
</g>
</svg>
