<svg xmlns="http://www.w3.org/2000/svg" viewBox="20 20 321 321">
<g fill="none"  stroke="#000" stroke-width="10">
<path d="m232.836,280.912c0,3.406-2.713,6.168-6.059,6.168h-92.89c-3.346,0-6.058-2.762-6.058-6.168v-200.096c0-3.406 2.712-6.167 6.058-6.167h92.89c3.346,0 6.059,2.761 6.059,6.167v200.096z"/>
<path d="m231.163,280c0-3.313-2.687-6-6-6h-91.333c-3.313,0-6,2.687-6,6v.667c0,3.313 2.687,6 6,6h91.333c3.313,0 6-2.687 6-6v-.667z"/>
</g>
<g fill="#000">
<path d="m127.83,185.667c3.861,0 7.723,0 11.584,0 6.449,0 6.449-10 0-10-3.861,0-7.723,0-11.584,0-6.449,0-6.449,10 0,10z"/>
<path d="m158.837,183.58c-.14,.484-1.605,.325-.063,.325 .84,0 1.68,0 2.52,0 3.167,0 6.333,0 9.499,0 7.917,0 15.834,0 23.751,0 2.875,0 5.749,0 8.624,0 .84,0 1.68,0 2.52,0 1.737,0-.188-.016-.188-1.127 0,5.568 0,11.136 0,16.704 0,6.942 0,13.884 0,20.826 0,.599 0,1.196 0,1.795 0-.755 1.869-1.127 .459-1.127-2.203,0-4.406,0-6.609,0-13.525,0-27.05,0-40.575,0-1.76,0 .188,.84 .188,.969 0-1.072 0-2.145 0-3.217 0-4.442 0-8.886 0-13.329 0-7.583 0-15.167 0-22.75 0-4.514-7-4.514-7,0 0,12.217 0,24.434 0,36.651 0,4.629 1.24,8.676 6.813,8.676 5.86,0 11.721,0 17.582,0 7.665,0 15.329,0 22.994,0 3.784,0 11.276,1.221 12.697-3.681 1.34-4.626 .453-10.308 .453-15.054 0-7.492 0-14.984 0-22.477 0-4.524-.189-9.86-6.315-9.86-5.707,0-11.414,0-17.121,0-7.984,0-15.967,0-23.951,0-4.912,0-11.284-1.196-13.025,4.813-1.262,4.347 5.493,6.19 6.747,1.863z"/>
<path d="m156.117,217.92c9.023,0 18.046,0 27.07,0 4.514,0 4.514-7 0-7-9.023,0-18.046,0-27.07,0-4.514,0-4.514,7 0,7z"/>
<path d="m157.386,207.075c8.6,0 17.201,0 25.801,0 4.514,0 4.514-7 0-7-8.6,0-17.201,0-25.801,0-4.514,0-4.514,7 0,7z"/>
<path d="m157.386,196.23c8.6,0 17.201,0 25.801,0 4.514,0 4.514-7 0-7-8.6,0-17.201,0-25.801,0-4.514,0-4.514,7 0,7z"/>
<path d="m177.327,155.513c1.945-1.945 3.889-3.89 5.834-5.834 .973-.972 1.944-1.945 2.917-2.917 .569-.569-.287,.337-.536,.416 .831-.265 1.717-.396 2.572-.551 1.824-.331 3.704-.425 5.555-.442 1.95-.018-2.724-2.365-.573-.215 2.294,2.294 4.589,4.589 6.884,6.884 2.294,2.294 4.589,4.589 6.883,6.884 2.175,2.174-.286-2.576-.215-.573 .066,1.843-.158,3.738-.441,5.555-.136,.868-.334,1.721-.552,2.572 .062-.24 .99-1.11 .416-.536-.972,.972-1.944,1.945-2.916,2.917-1.945,1.945-3.89,3.89-5.834,5.834-4.563,4.564 2.507,11.635 7.07,7.071 2.532-2.532 5.064-5.064 7.597-7.597 2.891-2.891 3.658-5.901 4.196-9.935 .487-3.65 1.418-8.711-1.493-11.622-2.547-2.547-5.094-5.094-7.641-7.641s-5.093-5.094-7.64-7.641c-2.911-2.911-7.973-1.979-11.623-1.492-4.033,.538-7.043,1.305-9.935,4.196-2.532,2.532-5.065,5.064-7.597,7.597-4.563,4.562 2.508,11.634 7.072,7.07z"/>
</g>
</svg>
