<svg xmlns="http://www.w3.org/2000/svg" viewBox="20 20 321 321">
<g fill="#000">
<path d="m110.35,165.846c0,3.491-2.831,6.321-6.322,6.321h-12.115c-3.491,0-6.321-2.831-6.321-6.321v-11.589c0-3.491 2.831-6.321 6.321-6.321h12.116c3.491,0 6.322,2.83 6.322,6.321v11.589z"/>
<path d="m224.133,165.846c0,3.491-2.83,6.321-6.321,6.321h-12.116c-3.49,0-6.32-2.831-6.32-6.321v-11.589c0-3.491 2.83-6.321 6.32-6.321h12.116c3.491,0 6.321,2.83 6.321,6.321v11.589z"/>
<path d="m209.463,118.418h-109.842c-6.306,0-11.246-6.332-11.246-14.417v-.664l5.007-19.54c.488-7.432 8.012-13.655 14.209-13.655h93.901c6.197,0 13.721,6.223 14.209,13.655l5.008,19.54v.664c-0,8.085-4.939,14.417-11.246,14.417zm-109.443-10.535h109.045c.357-.396 .975-1.512 1.09-3.29l-4.963-19.368v-.665c0-1.656-2.627-3.736-3.787-3.885l-93.813,.004c-1.072,.146-3.699,2.226-3.699,3.881v.665l-4.963,19.368c.115,1.778 .731,2.894 1.09,3.29z"/>
<path d="m228.697,147.614c0,3.085-2.928,5.589-6.537,5.589h-135.123c-3.61,0-6.538-2.503-6.538-5.589v-29.194c0-3.086 2.928-5.589 6.538-5.589h135.123c3.609,0 6.537,2.502 6.537,5.589v29.194zm-113.343-22.606c0-2.735-2.83-4.953-6.321-4.953h-18.174c-3.492,0-6.322,2.218-6.322,4.953v5.16c0,2.735 2.83,4.953 6.322,4.953h18.173c3.491,0 6.321-2.217 6.321-4.953v-5.16zm109.043,0c0-2.735-2.831-4.953-6.322-4.953h-18.174c-3.49,0-6.32,2.218-6.32,4.953v5.16c0,2.735 2.83,4.953 6.32,4.953h18.174c3.491,0 6.322-2.217 6.322-4.953v-5.16zm-42.406,4.378c0-5.32-2.83-9.633-6.32-9.633h-42.669c-3.491,0-6.321,4.313-6.321,9.633v6.02c0,5.319 2.831,9.633 6.321,9.633h42.669c3.491,0 6.32-4.313 6.32-9.633v-6.02z"/>
<path d="m119.568,122.65h69.533v10.536h-69.533z"/>
<path d="m120.622,136.346h69.535v10.536h-69.535z"/>
<path d="m276.83,179.472c0,35.047 0,70.094 0,105.141 0,9.686 15.004,9.771 15.004,.107 0-35.047 0-70.094 0-105.14 0-9.686-15.004-9.771-15.004-.108z"/>
<path d="m284.332,288.834c-48.944,0-97.888,0-146.832,0-19.834,0-39.667,0-59.501,0-1.935,0-1.935,3 0,3 48.944,0 97.888,0 146.832,0 19.833,0 39.667,0 59.501,0 1.935,0 1.935-3 0-3z"/>
<path d="m90.083,189.198c0,29.552 0,59.103 0,88.654 0,6.448 10,6.448 10,0 0-29.552 0-59.103 0-88.654 0-6.448-10-6.448-10,0z"/>
<path d="m113.999,189.293c0,29.552 0,59.104 0,88.655 0,6.448 10,6.448 10,0 0-29.552 0-59.104 0-88.655 0-6.448-10-6.448-10,0z"/>
<path d="m137.916,189.293c0,29.552 0,59.104 0,88.655 0,6.448 10,6.448 10,0 0-29.552 0-59.104 0-88.655 0-6.448-10-6.448-10,0z"/>
<path d="m95.083,282.853c26.583,0 53.167,0 79.75,0 6.449,0 6.449-10 0-10-26.583,0-53.167,0-79.75,0-6.449,0-6.449,10 0,10z"/>
<path d="m95.083,193.525c26.583,0 53.167,0 79.75,0 6.449,0 6.449-10 0-10-26.583,0-53.167,0-79.75,0-6.449,0-6.449,10 0,10z"/>
<path d="m161.833,189.293c0,29.552 0,59.104 0,88.655 0,6.448 10,6.448 10,0 0-29.552 0-59.104 0-88.655 0-6.448-10-6.448-10,0z"/>
<path d="m70.498,179.472c0,35.047 0,70.094 0,105.141 0,9.686 15.003,9.771 15.003,.107 0-35.047 0-70.094 0-105.14-.001-9.686-15.003-9.771-15.003-.108z"/>
<path d="m271.572,277.275c0-29.552 0-59.103 0-88.654 0-6.448-10-6.448-10,0 0,29.552 0,59.103 0,88.654 0,6.449 10,6.449 10,0z"/>
<path d="m247.656,277.18c0-29.552 0-59.103 0-88.654 0-6.448-10-6.448-10,0 0,29.552 0,59.103 0,88.654 0,6.448 10,6.448 10,0z"/>
<path d="m223.739,277.18c0-29.552 0-59.103 0-88.654 0-6.448-10-6.448-10,0 0,29.552 0,59.103 0,88.654 0,6.448 10,6.448 10,0z"/>
<path d="m266.572,183.621c-26.583,0-53.167,0-79.75,0-6.449,0-6.449,10 0,10 26.583,0 53.167,0 79.75,0 6.449,0 6.449-10 0-10z"/>
<path d="m266.572,272.948c-26.583,0-53.167,0-79.75,0-6.449,0-6.449,10 0,10 26.583,0 53.167,0 79.75,0 6.449,0 6.449-10 0-10z"/>
<path d="m199.822,277.18c0-29.552 0-59.103 0-88.654 0-6.448-10-6.448-10,0 0,29.552 0,59.103 0,88.654 0,6.448 10,6.448 10,0z"/>
</g>
</svg>
