<svg xmlns="http://www.w3.org/2000/svg" viewBox="20 20 321 321">
<path fill="none"  stroke="#000" stroke-width="10" d="m238.607,265.46c0,3.147-2.506,6.14-5.598,6.685l-85.813,15.131c-3.091,.545-5.596-1.563-5.596-4.71v-184.853c0-3.146 2.505-6.139 5.596-6.684l85.813-15.131c3.092-.545 5.598,1.564 5.598,4.71v184.852z"/>
<path fill="#000" d="m144.777,194.453c3.08-.543 6.159-1.087 9.238-1.63 2.687-.474 4.163-3.712 3.492-6.15-.773-2.811-3.469-3.966-6.15-3.492-3.08,.543-6.159,1.087-9.238,1.63-2.687,.474-4.163,3.712-3.492,6.15 .772,2.81 3.469,3.966 6.15,3.492z"/>
<path fill="none"  stroke="#000" stroke-width="10" d="m238.607,265.698c0,3.147-2.936,5.698-6.557,5.698h-100.522c-3.621,0-6.556-2.551-6.556-5.698v-184.852c0-3.146 2.936-5.697 6.556-5.697h100.523c3.621,0 6.557,2.551 6.557,5.697v184.852z"/>
</svg>
