<svg xmlns="http://www.w3.org/2000/svg" viewBox="20 20 321 321">
<path fill="none"  stroke="#000" stroke-width="10" d="m264.166,180.5v77.738c0,3.437-2.783,6.223-6.221,6.223h-174.213c-3.436,0-6.222-2.786-6.222-6.223v-111.994c0-3.436 2.786-6.222 6.222-6.222h29.987"/>
<path fill="#000" d="m165.563,199.169c3.709,0 7.418,0 11.128,0 6.448,0 6.448-10 0-10-3.709,0-7.418,0-11.128,0-6.448,0-6.448,10 0,10z"/>
<path fill="none"  stroke="#000" stroke-width="10" d="m171.006,180.574 0,82.843"/>
<g fill="#000">
<path d="m225.543,106.203c19.433,19.434 38.866,38.867 58.3,58.301 4.563,4.563 11.635-2.507 7.07-7.071-19.433-19.434-38.866-38.867-58.3-58.301-4.563-4.564-11.634,2.507-7.07,7.071z"/>
<path d="m282.378,161.484c0,4.644 0,9.287 0,13.93 0,6.448 10,6.448 10,0 0-4.644 0-9.287 0-13.93 0-6.449-10-6.449-10,0z"/>
<path d="m195.359,106.203c19.434,19.434 38.867,38.867 58.302,58.301 4.563,4.563 11.635-2.507 7.07-7.071-19.434-19.434-38.867-38.867-58.302-58.301-4.563-4.564-11.634,2.507-7.07,7.071z"/>
<path d="m252.196,161.484c0,4.644 0,9.287 0,13.93 0,6.448 10,6.448 10,0 0-4.644 0-9.287 0-13.93 0-6.449-10-6.449-10,0z"/>
<path d="m165.693,106.203c19.434,19.434 38.868,38.867 58.301,58.301 4.563,4.563 11.635-2.507 7.07-7.071-19.434-19.434-38.867-38.867-58.3-58.301-4.564-4.564-11.635,2.507-7.071,7.071z"/>
<path d="m222.529,161.484c0,4.644 0,9.287 0,13.93 0,6.448 10,6.448 10,0 0-4.644 0-9.287 0-13.93 0-6.449-10-6.449-10,0z"/>
<path d="m135.511,106.203c19.434,19.434 38.868,38.867 58.302,58.301 4.563,4.563 11.635-2.507 7.07-7.071-19.434-19.434-38.867-38.867-58.301-58.301-4.564-4.564-11.635,2.507-7.071,7.071z"/>
<path d="m192.348,161.484c0,4.644 0,9.287 0,13.93 0,6.448 10,6.448 10,0 0-4.644 0-9.287 0-13.93 0-6.449-10-6.449-10,0z"/>
<path d="m102.749,106.203c19.434,19.434 38.867,38.867 58.301,58.301 4.564,4.563 11.635-2.507 7.071-7.071-19.434-19.434-38.867-38.867-58.301-58.301-4.564-4.564-11.635,2.507-7.071,7.071z"/>
<path d="m159.585,161.484c0,4.644 0,9.287 0,13.93 0,6.448 10,6.448 10,0 0-4.644 0-9.287 0-13.93 0-6.449-10-6.449-10,0z"/>
<path d="m71.566,106.203c19.434,19.434 38.867,38.867 58.301,58.301 4.564,4.563 11.635-2.507 7.071-7.071-19.434-19.434-38.867-38.867-58.301-58.301-4.563-4.564-11.634,2.507-7.071,7.071z"/>
<path d="m128.403,161.484c0,4.644 0,9.287 0,13.93 0,6.448 10,6.448 10,0 0-4.644 0-9.287 0-13.93 0-6.449-10-6.449-10,0z"/>
</g>
</svg>
