<svg xmlns="http://www.w3.org/2000/svg" viewBox="20 20 321 321">
<g fill="#000">
<path d="m257.977,287.765c7.69-48.071 15.381-96.142 23.071-144.213 3.424-21.407 6.849-42.815 10.273-64.222 1.009-6.306-8.626-9.013-9.643-2.658-7.69,48.071-15.381,96.142-23.071,144.213-3.424,21.407-6.849,42.814-10.273,64.222-1.009,6.306 8.626,9.012 9.643,2.658z"/>
<path d="m257.378,105.522c-4.406,7.701-11.093,14.065-17.673,19.896-10.529,9.329-22.294,17.233-34.426,24.312-34.515,20.14-73.316,32.503-112.741,38.357-4.452,.661-2.553,7.405 1.861,6.75 40.498-6.013 80.062-19.019 115.486-39.689 12.295-7.174 24.056-15.395 34.769-24.78 7.037-6.166 14.084-13.126 18.769-21.312 2.245-3.925-3.804-7.45-6.045-3.534z"/>
<path d="m259.112,102.929c-17.545,8.662-37.351,12.831-56.598,15.512-35.809,4.988-72.522,3.237-108.255-1.418-4.467-.582-4.411,6.425 0,7 36.048,4.696 72.791,6.208 108.907,1.331 20.314-2.743 40.984-7.25 59.479-16.381 4.048-1.998 .5-8.035-3.533-6.044z"/>
<path d="m70.5,110.085c0,49.817 0,99.635 0,149.452 0,9.3 0,18.599 0,27.898 0,6.448 10,6.448 10,0 0-49.817 0-99.635 0-149.453 0-9.299 0-18.599 0-27.898 0-6.448-10-6.448-10,.001z"/>
<path d="m90.76,120.523c1.644,14.575 1.449,29.352 .966,43.989-.196,5.952-.5,11.901-.897,17.843-.131,1.954-.281,3.908-.453,5.859-.145,1.636-.772,2.631 .071,1.481-2.676,3.645 3.403,7.131 6.044,3.533 1.283-1.748 .942-5.6 1.102-7.625 .487-6.17 .794-12.355 1.041-18.539 .615-15.47 .864-31.134-.874-46.542-.5-4.432-7.506-4.481-7,.001z"/>
<path d="m284.782,81.048c-8.321,7.947-16.643,15.895-24.964,23.842-1.401,1.338 .723,3.457 2.121,2.121 8.321-7.947 16.643-15.895 24.964-23.842 1.402-1.338-.722-3.456-2.121-2.121z"/>
<path d="m74.743,111.38c6.253,3.479 12.506,6.958 18.76,10.438 1.692,.941 3.204-1.65 1.514-2.591-6.253-3.479-12.506-6.958-18.76-10.438-1.692-.941-3.204,1.65-1.514,2.591z"/>
<path d="m93.469,189.962c-5.99,.735-11.979,1.47-17.969,2.205-1.895,.232-1.917,3.235 0,3 5.99-.735 11.979-1.47 17.969-2.205 1.895-.233 1.918-3.235 0-3z"/>
</g>
</svg>
