<svg xmlns="http://www.w3.org/2000/svg" viewBox="20 20 321 321">
<path fill="none"  stroke="#000" stroke-width="10" d="m238.75,187.987c0,2.916-2.364,5.28-5.28,5.28h-147.84c-2.916,0-5.28-2.364-5.28-5.28v-95.04c0-2.916 2.364-5.28 5.28-5.28h147.84c2.916,0 5.28,2.364 5.28,5.28v95.04z"/>
<path fill="#000" d="m155.106,145.343c3.148,0 6.295,0 9.443,0 6.449,0 6.449-10 0-10-3.148,0-6.295,0-9.443,0-6.448,0-6.448,10 0,10z"/>
<path fill="none"  stroke="#000" stroke-width="10" d="m159.726,87.916 0,102.736"/>
<g fill="#000">
<path  stroke="#000" stroke-width="10" d="m244.482,88.771c0,.407-2.53,.738-5.652,.738h-158.294c-3.122,0-5.653-.331-5.653-.738v-13.275c0-.407 2.531-.738 5.653-.738h158.294c3.122,0 5.652,.331 5.652,.738v13.275z"/>
<path d="m75.149,103.166c49.739,0 99.478,.001 149.217,.002 6.75,0 13.5,0 20.25,0 4.514,0 4.514-7 0-7-49.739,0-99.478-.001-149.216-.002-6.75,0-13.5,0-20.25,0-4.515,0-4.515,7-.001,7z"/>
<path d="m75.149,113.566c49.739,0 99.478,.001 149.217,.002 6.75,0 13.5,0 20.25,0 4.514,0 4.514-7 0-7-49.739,0-99.478-.001-149.216-.002-6.75,0-13.5,0-20.25,0-4.515,0-4.515,7-.001,7z"/>
</g>
<path fill="none"  stroke="#000" stroke-width="10" d="m220.978,233.758c-1.464,0-2.651-.37-2.651-.826v-14.346c0-.457 1.188-.828 2.651-.828h51.698c1.464,0 2.65,.371 2.65,.828v14.346c0,.456-1.187,.826-2.65,.826h-51.698z"/>
<path fill="#000" d="m282.291,231.59c-13.375,17.5-26.751,35-40.126,52.5 2.878,0 5.757,0 8.635,0-13.375-17.5-26.75-35-40.125-52.5-1.439,2.508-2.878,5.016-4.317,7.523 26.75,0 53.501,0 80.251,0 6.448,0 6.448-10 0-10-26.75,0-53.501,0-80.251,0-3.436,0-6.707,4.396-4.317,7.523 13.375,17.5 26.75,35 40.125,52.5 2.429,3.178 6.206,3.178 8.635,0 13.375-17.5 26.751-35 40.126-52.5 3.917-5.124-4.777-10.096-8.636-5.046z"/>
</svg>
