<svg xmlns="http://www.w3.org/2000/svg" viewBox="20 20 321 321">
<path fill="none"  stroke="#000" stroke-width="10" d="m182.773,241.17c-3.02,3.637-8.404,6.586-12.024,6.586l-91.039,.02c-3.621,0-4.107-2.949-1.087-6.587l103.161-121.862c3.019-3.636 8.404-6.585 12.024-6.585l84.344-.019-14.59,31.144-80.789,97.303z"/>
<path fill="#000" d="m129.036,234.268c-1.708,2.058-3.417,4.115-5.126,6.173-1.739,2.094-2.059,5.012 0,7.07 1.793,1.794 5.328,2.1 7.071,0 1.708-2.058 3.417-4.115 5.126-6.173 1.739-2.094 2.059-5.012 0-7.07-1.793-1.794-5.328-2.1-7.071,0z"/>
<path fill="none"  stroke="#000" stroke-width="10" d="m207.642,264.366c-2.093,4.487-7.409,8.124-11.876,8.124l-116.093,.023c-4.467,0-6.391-3.639-4.299-8.125l78.017-167.31c2.092-4.486 7.411-8.125 11.876-8.125l116.094-.023c4.466,0 6.39,3.639 4.299,8.125l-4.508,9.667-16.977,36.406-56.533,121.238z"/>
<g fill="#000">
<path d="m277.912,104.284-127.667,0 8.781-17.269 127.667,0z"/>
<path d="m76.11,262.81h127.618v6.44h-127.618z"/>
</g>
</svg>
