<svg xmlns="http://www.w3.org/2000/svg" viewBox="20 20 321 321">
<g fill="#000">
<path d="m144.093,281.921c-23.105,0-46.21,0-69.315,0 .443,3.273 .886,6.548 1.329,9.821 5.561-1.064 11.122-2.13 16.683-3.195 3.911-.749 7.822-1.498 11.732-2.246 1.428-.274 2.855-.548 4.283-.821 2.069-.396 2.172,.287-.984-.307 11.647,2.189 23.295,4.38 34.942,6.569 6.301,1.185 8.991-8.452 2.658-9.643-11.659-2.192-23.318-4.384-34.978-6.576-2.09-.394-4.42,.337-6.481,.732-3.963,.759-7.926,1.518-11.889,2.276-6.208,1.189-12.417,2.378-18.625,3.567-5.654,1.083-4.188,9.821 1.329,9.821 23.105,0 46.21,0 69.315,0 6.45,.002 6.45-9.998 .001-9.998z"/>
<path d="m104.002,149.598c28.912-18.223 57.823-36.446 86.735-54.669-.899,.118-1.798,.235-2.697,.353 33.207,8.077 66.414,16.154 99.621,24.231 0-2.25 0-4.5 0-6.75-49.03,8.008-98.061,16.016-147.091,24.024-13.088,2.138-26.177,4.275-39.265,6.413-4.446,.726-2.553,7.471 1.861,6.75 49.03-8.008 98.061-16.016 147.091-24.024 13.088-2.138 26.176-4.275 39.265-6.413 3.493-.57 3.204-5.971 0-6.75-23.821-5.794-47.644-11.588-71.465-17.383-9.319-2.267-18.639-4.534-27.958-6.8-2.366-.576-4.297,1.188-6.173,2.371-4.411,2.78-8.822,5.56-13.233,8.34-23.408,14.754-46.816,29.508-70.225,44.263-3.806,2.4-.297,8.459 3.534,6.044z"/>
<path d="m183.659,90.141c-6.209,13.775-12.418,27.55-18.627,41.324-1.839,4.081 4.191,7.643 6.044,3.533 6.209-13.775 12.418-27.55 18.628-41.324 1.839-4.081-4.192-7.643-6.045-3.533z"/>
<path d="m187.642,80.959c-37.92,14.887-75.84,29.774-113.76,44.662-5.932,2.329-3.352,12.002 2.658,9.643 37.92-14.887 75.84-29.774 113.76-44.662 5.931-2.329 3.351-12.003-2.658-9.643z"/>
<path d="m115.728,280.306c-7.786-48.066-15.571-96.133-23.357-144.2-.403-2.487-.806-4.974-1.208-7.461-1.029-6.353-10.664-3.648-9.643,2.658 7.786,48.067 15.571,96.133 23.357,144.2 .403,2.487 .806,4.974 1.208,7.461 1.029,6.353 10.664,3.648 9.643-2.658z"/>
<path d="m72.869,131.125c6.681,14.058 13.361,28.115 20.041,42.173 .83,1.747 3.417,.224 2.591-1.514-6.681-14.058-13.361-28.115-20.041-42.173-.83-1.747-3.417-.223-2.591,1.514z"/>
<path d="m186.907,96.366c10.613,10.754 21.227,21.508 31.841,32.262 3.174,3.216 8.122-1.735 4.949-4.95-10.613-10.754-21.227-21.508-31.841-32.262-3.173-3.216-8.122,1.735-4.949,4.95z"/>
</g>
</svg>
