<svg xmlns="http://www.w3.org/2000/svg" viewBox="20 20 321 321">
<g fill="#000">
<path d="m83.84,163.013c8.917,1.522 17.833,3.045 26.749,4.567 4.414,.754 6.304-5.991 1.861-6.75-8.917-1.522-17.833-3.045-26.749-4.567-4.414-.754-6.304,5.991-1.861,6.75z"/>
<path d="m84.114,172.628c8.917,1.522 17.833,3.045 26.749,4.567 4.414,.753 6.304-5.991 1.861-6.75-8.917-1.522-17.833-3.045-26.749-4.567-4.413-.753-6.304,5.992-1.861,6.75z"/>
<path d="m84.114,181.97c8.917,1.522 17.833,3.045 26.749,4.567 4.414,.754 6.304-5.991 1.861-6.75-8.917-1.522-17.833-3.045-26.749-4.567-4.413-.754-6.304,5.991-1.861,6.75z"/>
<path d="m89.808,191.941c5.004,.854 10.008,1.708 15.012,2.563 4.414,.754 6.304-5.991 1.861-6.75-5.004-.854-10.008-1.708-15.012-2.563-4.414-.753-6.304,5.992-1.861,6.75z"/>
</g>
<path fill="none"  stroke="#000" stroke-width="10" d="m120.784,137.073c0,7.544-6.116,13.66-13.66,13.66h-18.214c-7.544,0-13.66-6.116-13.66-13.66v-48.569c0-7.544 6.116-13.66 13.66-13.66h18.213c7.544,0 13.66,6.116 13.66,13.66v48.569z"/>
<g fill="#000">
<path d="m276.998,76.613c0,48.807 0,97.613 0,146.42 0,20.61 0,41.22 0,61.83 0,9.686 15.004,9.771 15.004,.107 0-48.807 0-97.613 0-146.419 0-20.61 0-41.22 0-61.83 0-9.686-15.004-9.771-15.004-.108z"/>
<path d="m269.333,203.667c0,15.158 0,30.317 0,45.476 0,6.448 10,6.448 10,0 0-15.158 0-30.317 0-45.476 0-6.448-10-6.448-10,0z"/>
</g>
<path fill="none"  stroke="#000" stroke-width="10" d="m253.833,193.105c0,8.843-8.528,16.011-19.05,16.011h-25.4c-10.521,0-19.05-7.168-19.05-16.011v-56.928c0-8.842 8.528-16.011 19.05-16.011h25.4c10.521,0 19.05,7.169 19.05,16.011v56.928z"/>
<g fill="#000">
<path d="m215.779,233.169c18.666,0 37.333,0 56,0 9.686,0 9.771-15.004 .107-15.004-18.666,0-37.333,0-56,0-9.685-0-9.771,15.004-.107,15.004z"/>
<path d="m214.811,211.613c0,3.159 0,6.319 0,9.479 0,4.085 3.342,7.528 7.448,7.556 4.065,.026 7.556-3.361 7.556-7.448 0-3.159 0-6.319 0-9.479 0-4.086-3.342-7.528-7.448-7.556-4.066-.026-7.556,3.362-7.556,7.448z"/>
</g>
</svg>
