<svg xmlns="http://www.w3.org/2000/svg" viewBox="20 20 321 321">
<g fill="#000">
<path d="m162.583,255.31c10.315,1.762 20.629,3.522 30.944,5.284 4.414,.754 6.304-5.991 1.861-6.75-10.314-1.762-20.629-3.522-30.944-5.284-4.414-.754-6.304,5.991-1.861,6.75z"/>
<path d="m162.9,266.434c10.315,1.762 20.63,3.522 30.944,5.284 4.414,.754 6.304-5.991 1.861-6.75-10.315-1.762-20.63-3.522-30.944-5.284-4.413-.754-6.303,5.991-1.861,6.75z"/>
<path d="m162.9,277.24c10.315,1.761 20.63,3.522 30.944,5.283 4.414,.754 6.304-5.991 1.861-6.75-10.315-1.761-20.63-3.522-30.944-5.283-4.413-.754-6.303,5.991-1.861,6.75z"/>
<path d="m169.487,288.774c5.789,.988 11.578,1.978 17.366,2.966 4.414,.754 6.304-5.991 1.861-6.75-5.789-.988-11.577-1.978-17.366-2.966-4.414-.753-6.304,5.992-1.861,6.75z"/>
</g>
<path fill="none"  stroke="#000" stroke-width="10" d="m205.174,225.832c0,8.729-7.074,15.803-15.802,15.803h-21.07c-8.728,0-15.802-7.074-15.802-15.803v-56.186c0-8.727 7.075-15.802 15.802-15.802h21.07c8.728,0 15.802,7.075 15.802,15.802v56.186z"/>
<g fill="#000">
<path d="m79.873,161.084c15.77-35.481 45.484-61.806 82.354-73.811 39.982-13.018 84.019-7.971 122.167,8.59 5.852,2.541 10.949-6.073 5.047-8.635-40.863-17.74-86.938-23.159-129.873-9.598-39.156,12.367-71.634,40.84-88.331,78.406-2.593,5.839 6.021,10.932 8.636,5.048z"/>
<path d="m79.038,162.129c26.971-26.788 63.205-41.83 101.209-42.087 38.527-.261 75.737,15.62 103.048,42.59 4.59,4.533 11.664-2.535 7.07-7.071-29.012-28.651-67.952-45.045-108.745-45.515-40.924-.472-80.707,16.263-109.654,45.012-4.58,4.548 2.493,11.618 7.072,7.071z"/>
<path d="m281.918,92.442c0,22.218 0,44.436 0,66.654 0,6.449 10,6.449 10,0 0-22.218 0-44.436 0-66.654 0-6.449-10-6.449-10-0z"/>
<path d="m231.636,179.343c.812-.336 1.659-.72 2.541-1.155 .882-.434 1.743-.91 2.583-1.428 .84-.518 1.645-1.063 2.415-1.638 .771-.574 1.463-1.183 2.079-1.827h4.367v29.105h-6.258v-20.957c-.84,.561-1.777,1.07-2.813,1.533-1.036,.461-2.044,.86-3.024,1.196l-1.89-4.829z"/>
<path d="m268.979,187.785c0,4.9-.932,8.659-2.794,11.277-1.861,2.617-4.43,3.926-7.706,3.926s-5.845-1.309-7.707-3.926c-1.862-2.618-2.793-6.377-2.793-11.277 0-2.436 .245-4.592 .735-6.469 .488-1.875 1.196-3.458 2.121-4.746 .924-1.288 2.029-2.268 3.317-2.94s2.729-1.008 4.326-1.008c3.276,0 5.845,1.309 7.706,3.927 1.864,2.619 2.795,6.364 2.795,11.236zm-6.383,0c0-1.456-.07-2.779-.211-3.969-.141-1.19-.363-2.219-.672-3.087-.309-.868-.729-1.54-1.26-2.016-.532-.476-1.19-.714-1.974-.714-.784,0-1.436,.238-1.953,.714-.519,.477-.938,1.148-1.261,2.016-.322,.869-.553,1.897-.692,3.087-.141,1.189-.21,2.513-.21,3.969s.069,2.786 .21,3.99c.14,1.203 .37,2.24 .692,3.107 .322,.868 .742,1.541 1.261,2.016 .518,.477 1.169,.715 1.953,.715 .783,0 1.441-.238 1.974-.715 .531-.475 .951-1.147 1.26-2.016 .309-.867 .531-1.904 .672-3.107 .14-1.204 .211-2.534 .211-3.99z"/>
<path d="m291.836,187.785c0,4.9-.932,8.659-2.794,11.277-1.862,2.617-4.431,3.926-7.706,3.926-3.277,0-5.846-1.309-7.707-3.926-1.863-2.618-2.793-6.377-2.793-11.277 0-2.436 .244-4.592 .734-6.469 .489-1.875 1.197-3.458 2.121-4.746 .924-1.288 2.029-2.268 3.318-2.94 1.287-.672 2.729-1.008 4.326-1.008 3.275,0 5.844,1.309 7.706,3.927 1.863,2.619 2.795,6.364 2.795,11.236zm-6.385,0c0-1.456-.07-2.779-.21-3.969-.141-1.19-.364-2.219-.672-3.087-.309-.868-.729-1.54-1.261-2.016-.531-.476-1.189-.714-1.973-.714-.785,0-1.436,.238-1.953,.714-.52,.477-.939,1.148-1.261,2.016-.322,.869-.554,1.897-.692,3.087-.141,1.189-.211,2.513-.211,3.969s.07,2.786 .211,3.99c.139,1.203 .37,2.24 .692,3.107 .321,.868 .741,1.541 1.261,2.016 .518,.477 1.168,.715 1.953,.715 .783,0 1.441-.238 1.973-.715 .532-.475 .952-1.147 1.261-2.016 .308-.867 .531-1.904 .672-3.107 .14-1.204 .21-2.534 .21-3.99z"/>
<path d="m91.004,186.99c0,4.9-.932,8.66-2.793,11.277-1.862,2.619-4.431,3.928-7.707,3.928-3.276,0-5.845-1.309-7.707-3.928-1.863-2.617-2.793-6.377-2.793-11.277 0-2.436 .245-4.592 .735-6.467 .489-1.875 1.197-3.458 2.121-4.746 .924-1.288 2.03-2.268 3.318-2.94 1.288-.672 2.73-1.008 4.326-1.008 3.276,0 5.844,1.309 7.707,3.927 1.861,2.619 2.793,6.363 2.793,11.234zm-6.384,0c0-1.455-.07-2.777-.21-3.969-.141-1.189-.364-2.218-.672-3.086-.309-.868-.729-1.54-1.26-2.016-.532-.476-1.19-.714-1.974-.714-.785,0-1.436,.238-1.953,.714-.519,.477-.938,1.148-1.26,2.016-.322,.868-.553,1.897-.693,3.086-.141,1.191-.21,2.514-.21,3.969 0,1.457 .069,2.787 .21,3.99 .14,1.205 .371,2.24 .693,3.108 .322,.868 .742,1.54 1.26,2.017 .518,.477 1.168,.713 1.953,.713 .783,0 1.441-.236 1.974-.713 .532-.477 .952-1.148 1.26-2.017 .308-.868 .531-1.903 .672-3.108 .139-1.203 .21-2.533 .21-3.99z"/>
</g>
</svg>
