<svg xmlns="http://www.w3.org/2000/svg" viewBox="20 20 321 321">
<g fill="#000">
<path d="m83.84,163.013c8.917,1.522 17.833,3.045 26.749,4.567 4.414,.754 6.304-5.991 1.861-6.75-8.917-1.522-17.833-3.045-26.749-4.567-4.414-.754-6.304,5.991-1.861,6.75z"/>
<path d="m84.114,172.628c8.917,1.522 17.833,3.045 26.749,4.567 4.414,.753 6.304-5.991 1.861-6.75-8.917-1.522-17.833-3.045-26.749-4.567-4.413-.753-6.304,5.992-1.861,6.75z"/>
<path d="m84.114,181.97c8.917,1.522 17.833,3.045 26.749,4.567 4.414,.754 6.304-5.991 1.861-6.75-8.917-1.522-17.833-3.045-26.749-4.567-4.413-.754-6.304,5.991-1.861,6.75z"/>
<path d="m89.808,191.941c5.004,.854 10.008,1.708 15.012,2.563 4.414,.754 6.304-5.991 1.861-6.75-5.004-.854-10.008-1.708-15.012-2.563-4.414-.753-6.304,5.992-1.861,6.75z"/>
</g>
<g fill="none"  stroke="#000" stroke-width="10">
<path d="m120.784,137.073c0,7.544-6.116,13.66-13.66,13.66h-18.214c-7.544,0-13.66-6.116-13.66-13.66v-48.569c0-7.544 6.116-13.66 13.66-13.66h18.213c7.544,0 13.66,6.116 13.66,13.66v48.569z"/>
<path d="m254.602,203.584"/>
<path d="m237.102,149.738"/>
</g>
<g fill="#000">
<path d="m250.126,269.964c4.98,2.323 9.962,4.646 14.943,6.969 1.741,.813 3.266-1.773 1.514-2.59-4.98-2.323-9.962-4.646-14.943-6.969-1.742-.812-3.266,1.773-1.514,2.59z"/>
<path d="m213.41,252.843c5.315,2.479 10.631,4.957 15.946,7.436 1.741,.813 3.266-1.773 1.514-2.59-5.315-2.479-10.631-4.957-15.946-7.436-1.741-.813-3.266,1.773-1.514,2.59z"/>
<path d="m245.543,282.598c-7.245-3.378-14.49-6.756-21.735-10.135-4.064-1.895-7.621,4.139-3.533,6.045 7.245,3.378 14.49,6.756 21.735,10.135 4.064,1.894 7.621-4.139 3.533-6.045z"/>
<path d="m235.531,262.235c-2.916-1.359-6.229-.432-7.396,2.074l-3.896,8.354c-1.168,2.506 .25,5.64 3.166,6.999l9.311,4.342c2.916,1.36 6.228,.431 7.396-2.074l3.895-8.354c1.169-2.506-.248-5.64-3.164-6.999l-9.312-4.342z"/>
<path d="m248.507,258.463c-2.705-1.261-5.411-2.522-8.116-3.784-1.729-.806-3.759-.502-4.789,1.256-.896,1.53-.473,3.982 1.256,4.789 2.705,1.261 5.411,2.522 8.116,3.784 1.729,.806 3.759,.502 4.789-1.256 .895-1.53 .472-3.982-1.256-4.789z"/>
<path d="m250.427,182.297c4.98,2.323 9.962,4.646 14.943,6.969 1.741,.813 3.266-1.773 1.514-2.59-4.98-2.323-9.962-4.646-14.943-6.969-1.742-.812-3.266,1.773-1.514,2.59z"/>
<path d="m213.711,165.177c5.315,2.479 10.631,4.957 15.946,7.436 1.741,.812 3.266-1.773 1.514-2.591-5.315-2.479-10.631-4.957-15.946-7.436-1.742-.812-3.266,1.774-1.514,2.591z"/>
<path d="m245.844,194.932c-7.245-3.378-14.49-6.757-21.735-10.136-4.064-1.895-7.621,4.138-3.533,6.045 7.245,3.378 14.49,6.757 21.735,10.136 4.064,1.894 7.621-4.138 3.533-6.045z"/>
<path d="m235.832,174.569c-2.916-1.36-6.229-.432-7.396,2.074l-3.896,8.354c-1.168,2.506 .25,5.64 3.166,7l9.311,4.342c2.916,1.359 6.228,.431 7.396-2.075l3.895-8.354c1.169-2.506-.248-5.64-3.164-7l-9.312-4.341z"/>
<path d="m248.808,170.797c-2.705-1.262-5.411-2.523-8.116-3.785-1.729-.807-3.759-.502-4.789,1.255-.896,1.53-.473,3.982 1.256,4.789 2.705,1.262 5.411,2.523 8.116,3.785 1.729,.807 3.759,.502 4.789-1.255 .895-1.53 .472-3.982-1.256-4.789z"/>
<path d="m250.87,96.703c4.98,2.323 9.962,4.646 14.943,6.969 1.741,.812 3.266-1.773 1.514-2.591-4.98-2.323-9.962-4.646-14.943-6.969-1.741-.812-3.266,1.773-1.514,2.591z"/>
<path d="m214.154,79.582c5.315,2.479 10.631,4.957 15.946,7.436 1.741,.812 3.266-1.773 1.514-2.591-5.315-2.479-10.631-4.957-15.946-7.436-1.741-.812-3.266,1.774-1.514,2.591z"/>
<path d="m246.287,109.337c-7.245-3.378-14.49-6.757-21.735-10.135-4.064-1.896-7.621,4.138-3.533,6.044 7.245,3.378 14.49,6.757 21.735,10.135 4.064,1.895 7.621-4.138 3.533-6.044z"/>
<path d="m236.275,88.974c-2.916-1.36-6.229-.432-7.396,2.074l-3.896,8.354c-1.169,2.506 .249,5.64 3.165,7l9.311,4.341c2.916,1.36 6.229,.431 7.396-2.074l3.896-8.354c1.168-2.505-.249-5.639-3.165-6.999l-9.311-4.342z"/>
<path d="m249.251,85.202c-2.705-1.262-5.41-2.523-8.115-3.785-1.729-.807-3.759-.502-4.789,1.255-.896,1.53-.473,3.982 1.256,4.789 2.705,1.262 5.41,2.523 8.115,3.785 1.729,.807 3.759,.502 4.789-1.255 .895-1.531 .472-3.983-1.256-4.789z"/>
<path d="m265.873,71.667c0,48.104 0,96.208 0,144.312 0,24.854 0,49.707 0,74.561 0,1.935 3,1.935 3,0 0-48.104 0-96.208 0-144.312 0-24.854 0-49.707 0-74.561 0-1.935-3-1.935-3,0z"/>
<path d="m212.873,71.064c0,48.104 0,96.208 0,144.311 0,24.854 0,49.707 0,74.561 0,1.935 3,1.935 3,0 0-48.104 0-96.207 0-144.311 0-24.854 0-49.707 0-74.561 0-1.935-3-1.935-3-0z"/>
</g>
</svg>
