<svg xmlns="http://www.w3.org/2000/svg" viewBox="20 20 321 321">
<g fill="#000">
<path d="m83.84,260.422c8.917,1.522 17.833,3.046 26.749,4.568 4.414,.754 6.304-5.991 1.861-6.75-8.917-1.522-17.833-3.046-26.749-4.568-4.414-.754-6.304,5.991-1.861,6.75z"/>
<path d="m84.114,270.038c8.917,1.522 17.833,3.045 26.749,4.567 4.414,.754 6.304-5.991 1.861-6.75-8.917-1.522-17.833-3.045-26.749-4.567-4.413-.754-6.304,5.991-1.861,6.75z"/>
<path d="m84.114,279.379c8.917,1.522 17.833,3.046 26.749,4.568 4.414,.754 6.304-5.991 1.861-6.75-8.917-1.522-17.833-3.046-26.749-4.568-4.413-.754-6.304,5.991-1.861,6.75z"/>
<path d="m89.808,289.351c5.004,.854 10.008,1.709 15.012,2.563 4.414,.754 6.304-5.991 1.861-6.75-5.004-.854-10.008-1.709-15.012-2.563-4.414-.754-6.304,5.991-1.861,6.75z"/>
</g>
<path fill="none"  stroke="#000" stroke-width="10" d="m120.784,234.482c0,7.545-6.116,13.66-13.66,13.66h-18.214c-7.544,0-13.66-6.115-13.66-13.66v-48.568c0-7.544 6.116-13.661 13.66-13.661h18.213c7.544,0 13.66,6.116 13.66,13.661v48.568z"/>
<g fill="#000">
<path d="m284.5,86.335c-.381,3.306-9.176,1.889-10.99,1.889-1.128,0-2.257,0-3.385,0-1.431,0-1.755-.55-1.327,.636-.647-1.795-.296-4.138-.452-6.025-.699-8.416-8.298-6.987-14.646-6.987-19.676,0-39.352,0-59.027,0-8.348,0-16.696,0-25.043,0-2.866,0-5.735-.38-7.957,1.777-2.658,2.58-1.766,7.219-2.266,10.496-.157,1.026-.157,.104-1.691,.104-1.406,0-2.811,0-4.217,0-2.917,0-5.833,0-8.75,0-6.504,0-13.007,0-19.511,0-10.913,0-21.826,0-32.739,0-1.931,0-14.926,1.804-15.352-1.889-.305-2.643-1.178-9.502 2.803-9.502 6.924,0 13.847,0 20.771,0 29.691,0 59.382,0 89.073,0 22.831,0 45.661,0 68.491,0 6.617,0 13.234,0 19.852,0 1.387,0 2.773,0 4.16,0 3.467-.001 2.203,7.533 2.203,9.501 0,4.514 7,4.514 7,0 0-7.369 .502-15.42-8.889-16.502-1.249-.144-2.6,0-3.854,0-8.946,0-17.893,0-26.839,0-30.966,0-61.932,0-92.897,0-24.713,0-49.427,0-74.14,0-1.871,0-3.742,0-5.613,0-7.592,0-9.121,6.596-9.121,12.695 0,6.699 1.934,12.695 9.837,12.695 6.801,0 13.601,0 20.402,0 11.789,0 23.579,0 35.368,0 5.915,0 11.83,0 17.745,0 4.186,0 9.366,1.135 11.883-3.021 1.771-2.923 .809-6.813 1.572-9.991-.238,.993-.938,.636 .597,.636 .693,0 1.385,0 2.078,0 1.92,0 3.841,0 5.762,0 9.298,0 18.597,0 27.896,0 18.666,0 37.333,0 55.999,0 .665,0 1.329,0 1.994,0 1.205,0-.269-1.439 .077,.104 .374,1.666 .146,3.582 .286,5.286 .282,3.396 1.963,6.987 5.884,6.987 6.02,0 18.388,2.42 22.312-3.752 1.062-1.67 1.437-3.188 1.661-5.137 .516-4.48-6.49-4.43-7,0z"/>
<path d="m249.406,144.862c-1.759-5.764-3.518-11.528-5.276-17.292-1.313-4.305-8.071-2.468-6.75,1.861 1.759,5.764 3.518,11.528 5.276,17.292 1.314,4.305 8.072,2.468 6.75-1.861z"/>
<path d="m217.854,148.223c0-5.915 0-11.829 0-17.743 0-4.514-7-4.514-7,0 0,5.915 0,11.829 0,17.743 0,4.514 7,4.514 7,0z"/>
<path d="m186.045,146.723c1.762-5.764 3.523-11.527 5.285-17.291 1.323-4.329-5.435-6.165-6.75-1.861-1.762,5.764-3.523,11.527-5.285,17.291-1.323,4.328 5.434,6.164 6.75,1.861z"/>
<path d="m155.114,137.623c3.922-5.125 7.845-10.25 11.767-15.375 2.745-3.586-3.34-7.066-6.044-3.533-3.922,5.125-7.845,10.25-11.767,15.375-2.745,3.585 3.34,7.065 6.044,3.533z"/>
<path d="m279.64,134.088c-3.925-5.124-7.85-10.248-11.773-15.372-2.705-3.531-8.79-.052-6.045,3.533 3.925,5.124 7.85,10.248 11.773,15.372 2.705,3.532 8.79,.052 6.045-3.533z"/>
<path d="m158.762,96.76c3.715,0 7.43,0 11.145,0 1.935,0 1.935-3 0-3-3.715,0-7.43,0-11.145,0-1.935,0-1.935,3 0,3z"/>
<path d="m208.756,96.76c3.715,0 7.43,0 11.145,0 1.935,0 1.935-3 0-3-3.715,0-7.43,0-11.145,0-1.935,0-1.935,3 0,3z"/>
<path d="m258.908,96.76c3.715,0 7.43,0 11.145,0 1.935,0 1.935-3 0-3-3.715,0-7.43,0-11.145,0-1.934,0-1.934,3 0,3z"/>
<path d="m253.884,103.739c-1.414,4.573-11.121,3.288-14.425,2.826-4.337-.607-10.047-2.176-12.74-5.896-3.432-4.738 12.899-4.126 14.043-3.967 3.563,.499 13.195,2.582 13.068,7.436-.051,1.936 2.949,1.931 3,0 .18-6.866-10.248-9.376-15.271-10.328-5.176-.981-16.071-1.687-18.115,4.92-2.078,6.717 11.374,9.999 15.219,10.727 5.176,.98 16.07,1.688 18.114-4.92 .573-1.854-2.324-2.641-2.893-.798z"/>
<path d="m253.226,98.593l.557-3.382c.573-3.485-1.786-6.775-5.272-7.349l-11.943-1.966c-3.484-.573-6.775,1.788-7.35,5.272l-.557,3.382"/>
<path d="m254.672,98.992c.527-3.203 1.454-6.863-.943-9.608-2.742-3.142-6.46-3.239-10.32-3.874-3.581-.589-7.407-1.792-10.946-.563-4.034,1.401-4.654,5.595-5.248,9.205-.312,1.892 2.579,2.703 2.893,.798 .518-3.142 .692-6.255 4.321-7.515 1.946-.676 5.319,.497 7.24,.813 2.116,.349 4.231,.697 6.348,1.045 5.012,.825 4.354,5.318 3.764,8.902-.313,1.891 2.577,2.702 2.891,.797z"/>
<path d="m203.884,103.739c-1.414,4.573-11.121,3.288-14.425,2.826-4.337-.607-10.047-2.175-12.741-5.896-3.431-4.738 12.9-4.126 14.043-3.967 3.563,.499 13.195,2.582 13.068,7.436-.051,1.936 2.949,1.931 3,0 .18-6.866-10.248-9.376-15.271-10.328-5.176-.981-16.071-1.687-18.115,4.92-2.078,6.718 11.373,9.999 15.219,10.727 5.176,.98 16.07,1.688 18.114-4.92 .574-1.854-2.323-2.641-2.892-.798z"/>
<path d="m203.226,98.593l.557-3.382c.573-3.485-1.786-6.775-5.272-7.349l-11.943-1.966c-3.484-.573-6.776,1.788-7.349,5.272l-.557,3.382"/>
<path d="m204.672,98.992c.527-3.203 1.454-6.863-.943-9.608-2.742-3.142-6.46-3.239-10.32-3.874-3.581-.589-7.407-1.792-10.946-.563-4.034,1.401-4.654,5.595-5.248,9.205-.312,1.892 2.579,2.703 2.893,.798 .517-3.142 .692-6.255 4.321-7.515 1.946-.676 5.319,.497 7.24,.813 2.116,.349 4.231,.697 6.348,1.045 5.012,.825 4.354,5.318 3.764,8.902-.313,1.891 2.577,2.702 2.891,.797z"/>
</g>
</svg>
