<svg xmlns="http://www.w3.org/2000/svg" viewBox="20 20 321 321">
<g fill="#000">
<path d="m84.09,163.513c8.917,1.522 17.833,3.045 26.749,4.567 4.414,.754 6.304-5.991 1.861-6.75-8.917-1.522-17.833-3.045-26.749-4.567-4.414-.754-6.304,5.991-1.861,6.75z"/>
<path d="m84.364,173.128c8.917,1.522 17.833,3.045 26.749,4.567 4.414,.753 6.304-5.991 1.861-6.75-8.917-1.522-17.833-3.045-26.749-4.567-4.413-.753-6.304,5.992-1.861,6.75z"/>
<path d="m84.364,182.47c8.917,1.522 17.833,3.045 26.749,4.567 4.414,.754 6.304-5.991 1.861-6.75-8.917-1.522-17.833-3.045-26.749-4.567-4.413-.754-6.304,5.991-1.861,6.75z"/>
<path d="m90.058,192.441c5.004,.854 10.008,1.708 15.012,2.563 4.414,.754 6.304-5.991 1.861-6.75-5.004-.854-10.008-1.708-15.012-2.563-4.414-.753-6.304,5.992-1.861,6.75z"/>
</g>
<path fill="none"  stroke="#000" stroke-width="10" d="m121.034,137.573c0,7.544-6.116,13.66-13.66,13.66h-18.214c-7.544,0-13.66-6.116-13.66-13.66v-48.569c0-7.544 6.116-13.66 13.66-13.66h18.213c7.544,0 13.66,6.116 13.66,13.66v48.569z"/>
<g fill="#000">
<path  stroke="#000" d="m205.223,75.259c0,2.904-2.354,5.259-5.258,5.259h-14.85c-2.904,0-5.259-2.354-5.259-5.259 0-2.904 2.354-5.259 5.259-5.259h14.85c2.904,0 5.258,2.355 5.258,5.259z"/>
<path d="m186.959,82.67c0,41.852 0,83.704 0,125.556 0,6.448 10,6.448 10,0 0-41.852 0-83.704 0-125.556 0-6.449-10-6.449-10,0z"/>
<path d="m99.654,271.673c31.61-20.196 63.219-40.393 94.829-60.589-1.683,0-3.364,0-5.047,0 31.608,20.196 63.217,40.393 94.826,60.589 .841-3.105 1.683-6.212 2.523-9.317-49.702,0-99.405,0-149.108,0-13.516,0-27.031,0-40.547,0-6.449,0-6.449,10 0,10 49.703,0 99.405,0 149.108,0 13.516,0 27.031,0 40.547,0 5.113,0 6.642-6.687 2.523-9.317-31.608-20.196-63.217-40.393-94.826-60.589-1.445-.924-3.602-.924-5.047,0-31.61,20.196-63.219,40.393-94.829,60.589-5.414,3.459-.404,12.117 5.048,8.634z"/>
<path d="m209.895,272.537c-.213,5.349-3.209,11.862-9.436,11.862-2.833,0-5.667,0-8.5,0-2.834,0-5.668,0-8.501,0-6.227,0-9.223-6.514-9.436-11.862-.179-4.498-7.18-4.516-7,0 .289,7.246 3.603,14.756 10.698,17.664 4.412,1.808 9.568,1.198 14.239,1.198 4.67,0 9.826,.609 14.238-1.198 7.094-2.908 10.409-10.418 10.697-17.664 .18-4.516-6.821-4.498-6.999,0z"/>
</g>
</svg>
