<svg xmlns="http://www.w3.org/2000/svg" viewBox="20 20 321 321">
<g fill="#000">
<path d="m286.879,156.167 .245-81-106.801,81z"/>
<path d="m291.879,156.167c.082-27 .163-54 .245-81 .011-3.45-4.397-6.688-7.523-4.317-35.59,26.992-71.181,53.984-106.77,80.977-.011,.008-.021,.016-.031,.023-3.729,2.828-2.879,9.317 2.523,9.317 35.519,0 71.038,0 106.556,0 6.448,0 6.448-10 0-10-35.519,0-71.037,0-106.556,0 .841,3.106 1.682,6.211 2.524,9.317 35.59-26.992 71.18-53.984 106.77-80.977 .011-.008 .021-.016 .031-.023-2.508-1.439-5.016-2.878-7.523-4.317-.082,27-.163,54-.245,81-.021,6.45 9.979,6.448 9.999,0z"/>
</g>
<g fill="none"  stroke="#000" stroke-width="10">
<path d="m234.124,280.988c0,3.137 2.687,5.679 6,5.679h23.5c3.313,0 6-2.542 6-5.679v-68.143c0-3.137-2.687-5.679-6-5.679h-23.5c-3.313,0-6,2.542-6,5.679v68.143z"/>
<path d="m198.724,281.5c0,3.223 4.727,5.834 10.558,5.834h66.885c5.831,0 10.558-2.611 10.558-5.834v-122.5c0-3.222-4.727-5.833-10.558-5.833h-66.885c-5.831,0-10.558,2.612-10.558,5.833v122.5z"/>
</g>
<g fill="#000">
<path d="m168.37,233.144c0,18.044 0,36.088 0,54.132 0,4.514 7,4.514 7,0 0-18.044 0-36.088 0-54.132 0-4.514-7-4.514-7,0z"/>
<path d="m157.019,233.202c0,18.044 0,36.088 0,54.132 0,4.514 7,4.514 7,0 0-18.044 0-36.088 0-54.132 0-4.514-7-4.514-7,0z"/>
<path d="m145.669,233.202c0,18.044 0,36.088 0,54.132 0,4.514 7,4.514 7,0 0-18.044 0-36.088 0-54.132 0-4.514-7-4.514-7,0z"/>
<path d="m134.319,233.202c0,18.044 0,36.088 0,54.132 0,4.514 7,4.514 7,0 0-18.044 0-36.088 0-54.132 0-4.514-7-4.514-7,0z"/>
<path d="m122.969,233.144c0,18.044 0,36.088 0,54.132 0,4.514 7,4.514 7,0 0-18.044 0-36.088 0-54.132 0-4.514-7-4.514-7,0z"/>
<path d="m111.618,233.202c0,18.044 0,36.088 0,54.132 0,4.514 7,4.514 7,0 0-18.044 0-36.088 0-54.132 0-4.514-7-4.514-7,0z"/>
<path d="m100.268,233.202c0,18.044 0,36.088 0,54.132 0,4.514 7,4.514 7,0 0-18.044 0-36.088 0-54.132 0-4.514-7-4.514-7,0z"/>
<path d="m88.918,233.202c0,18.044 0,36.088 0,54.132 0,4.514 7,4.514 7,0 0-18.044 0-36.088 0-54.132 0-4.514-7-4.514-7,0z"/>
<path d="m77.567,233.144c0,18.044 0,36.088 0,54.132 0,4.514 7,4.514 7,0 0-18.044 0-36.088 0-54.132 0-4.514-7-4.514-7,0z"/>
<path d="m176.269,240.18c-33.868,0-67.736,0-101.604,0-4.514,0-4.514,7 0,7 33.868,0 67.736,0 101.604,0 4.514,0 4.514-7 0-7z"/>
<path d="m176.592,273.008c-34.053,0-68.107,0-102.16,0-4.514,0-4.514,7 0,7 34.053,0 68.107,0 102.16,0 4.514,0 4.514-7 0-7z"/>
<path d="m83.84,162.833c8.917,1.522 17.833,3.045 26.749,4.567 4.414,.754 6.304-5.991 1.861-6.75-8.917-1.522-17.833-3.045-26.749-4.567-4.414-.754-6.304,5.991-1.861,6.75z"/>
<path d="m84.114,172.449c8.917,1.522 17.833,3.045 26.749,4.567 4.414,.753 6.304-5.991 1.861-6.75-8.917-1.522-17.833-3.045-26.749-4.567-4.413-.754-6.304,5.991-1.861,6.75z"/>
<path d="m84.114,181.79c8.917,1.522 17.833,3.045 26.749,4.567 4.414,.754 6.304-5.991 1.861-6.75-8.917-1.522-17.833-3.045-26.749-4.567-4.413-.754-6.304,5.991-1.861,6.75z"/>
<path d="m89.808,191.762c5.004,.854 10.008,1.708 15.012,2.563 4.414,.754 6.304-5.991 1.861-6.75-5.004-.854-10.008-1.708-15.012-2.563-4.414-.754-6.304,5.991-1.861,6.75z"/>
</g>
<path fill="none"  stroke="#000" stroke-width="10" d="m120.784,136.894c0,7.544-6.116,13.66-13.66,13.66h-18.214c-7.544,0-13.66-6.116-13.66-13.66v-48.57c0-7.544 6.116-13.66 13.66-13.66h18.213c7.544,0 13.66,6.116 13.66,13.66v48.57z"/>
</svg>
