<svg xmlns="http://www.w3.org/2000/svg" viewBox="20 20 321 321">
<g fill="#000">
<path d="m83.84,260.422c8.917,1.522 17.833,3.046 26.749,4.568 4.414,.754 6.304-5.991 1.861-6.75-8.917-1.522-17.833-3.046-26.749-4.568-4.414-.754-6.304,5.991-1.861,6.75z"/>
<path d="m84.114,270.038c8.917,1.522 17.833,3.045 26.749,4.567 4.414,.754 6.304-5.991 1.861-6.75-8.917-1.522-17.833-3.045-26.749-4.567-4.413-.754-6.304,5.991-1.861,6.75z"/>
<path d="m84.114,279.379c8.917,1.522 17.833,3.046 26.749,4.568 4.414,.754 6.304-5.991 1.861-6.75-8.917-1.522-17.833-3.046-26.749-4.568-4.413-.754-6.304,5.991-1.861,6.75z"/>
<path d="m89.808,289.351c5.004,.854 10.008,1.709 15.012,2.563 4.414,.754 6.304-5.991 1.861-6.75-5.004-.854-10.008-1.709-15.012-2.563-4.414-.754-6.304,5.991-1.861,6.75z"/>
</g>
<path fill="none"  stroke="#000" stroke-width="10" d="m120.784,234.482c0,7.545-6.116,13.66-13.66,13.66h-18.214c-7.544,0-13.66-6.115-13.66-13.66v-48.568c0-7.544 6.116-13.661 13.66-13.661h18.213c7.544,0 13.66,6.116 13.66,13.661v48.568z"/>
<g fill="#000">
<path d="m266.396,88.193c-.261,8.709-10.961,14.113-17.844,16.986-13.303,5.553-28.053,7.303-42.354,7.39-14.382,.087-28.948-2.072-42.355-7.39-6.899-2.736-17.585-8.369-17.844-16.986-.193-6.434-10.193-6.452-10,0 .357,11.917 10.543,19.753 20.408,24.55 15.283,7.433 32.975,9.723 49.791,9.825 16.939,.103 34.347-2.688 49.79-9.825 9.906-4.579 20.055-12.788 20.407-24.55 .195-6.452-9.806-6.433-9.999,0z"/>
<path d="m141,93.193c43.465,0 86.931,0 130.396,0 6.448,0 6.448-10 0-10-43.465,0-86.931,0-130.396,0-6.448,0-6.448,10 0,10z"/>
<path d="m252.625,82.909c-.406,3.027-6.055,1.785-8.369,1.785-6.392,0-12.783,0-19.175,0-15.743,0-31.487,0-47.23,0-4.934,0-9.867,0-14.8,0-.762,0-1.523,0-2.285,0-1.436,0-1.49-7.86 .043-7.86 9.762,0 19.524,0 29.287,0 14.816,0 29.634,0 44.451,0 4.815,0 9.631,0 14.446,0 .865,0 1.73,0 2.596,0 1.67,0 .911,5.921 .911,7.006 0,4.514 7,4.514 7,0 0-5.866 .164-14.006-7.982-14.006-3.236,0-6.473,0-9.71,0-15.001,0-30.002,0-45.003,0-11.643,0-23.286,0-34.928,0-6.195,0-8.979,4.203-8.979,10.02 0,5.92 1.266,11.84 8.542,11.84 17.726,0 35.451,0 53.176,0 9.686,0 19.371,0 29.057,0 5.955,0 14.612,1.201 15.704-6.923 .591-4.413-6.153-6.318-6.752-1.862z"/>
<path d="m251.506,154.076c-2.328-7.63-4.656-15.261-6.984-22.891-1.313-4.305-8.071-2.468-6.75,1.861 2.328,7.63 4.656,15.261 6.984,22.891 1.313,4.305 8.071,2.468 6.75-1.861z"/>
<path d="m209.697,158.223c0-7.829 0-15.658 0-23.487 0-4.514-7-4.514-7,0 0,7.829 0,15.658 0,23.487 0,4.514 7,4.514 7,0z"/>
<path d="m167.632,155.937c2.332-7.63 4.664-15.26 6.996-22.889 1.323-4.329-5.435-6.165-6.75-1.861-2.332,7.63-4.664,15.26-6.996,22.889-1.322,4.328 5.435,6.164 6.75,1.861z"/>
<path d="m126.803,143.619c5.192-6.784 10.385-13.568 15.577-20.352 2.745-3.586-3.34-7.066-6.044-3.533-5.192,6.784-10.385,13.568-15.577,20.352-2.745,3.585 3.34,7.065 6.044,3.533z"/>
<path d="m291.64,140.084c-5.195-6.783-10.39-13.565-15.584-20.348-2.705-3.532-8.79-.052-6.045,3.533 5.195,6.783 10.39,13.565 15.584,20.348 2.705,3.532 8.79,.052 6.045-3.533z"/>
</g>
</svg>
