<svg xmlns="http://www.w3.org/2000/svg" viewBox="20 20 321 321">
<g fill="#000">
<path d="m84.09,162.513c8.917,1.522 17.833,3.045 26.749,4.567 4.414,.754 6.304-5.991 1.861-6.75-8.917-1.522-17.833-3.045-26.749-4.567-4.414-.754-6.304,5.991-1.861,6.75z"/>
<path d="m84.364,172.128c8.917,1.522 17.833,3.045 26.749,4.567 4.414,.753 6.304-5.991 1.861-6.75-8.917-1.522-17.833-3.045-26.749-4.567-4.413-.753-6.304,5.992-1.861,6.75z"/>
<path d="m84.364,181.47c8.917,1.522 17.833,3.045 26.749,4.567 4.414,.754 6.304-5.991 1.861-6.75-8.917-1.522-17.833-3.045-26.749-4.567-4.413-.754-6.304,5.991-1.861,6.75z"/>
<path d="m90.058,191.441c5.004,.854 10.008,1.708 15.012,2.563 4.414,.754 6.304-5.991 1.861-6.75-5.004-.854-10.008-1.708-15.012-2.563-4.414-.753-6.304,5.992-1.861,6.75z"/>
</g>
<path fill="none"  stroke="#000" stroke-width="10" d="m121.034,136.573c0,7.544-6.116,13.66-13.66,13.66h-18.214c-7.544,0-13.66-6.116-13.66-13.66v-48.569c0-7.544 6.116-13.66 13.66-13.66h18.213c7.544,0 13.66,6.116 13.66,13.66v48.569z"/>
<g fill="#000">
<path d="m169.502,237.304c-5.447-.627-4.169-7.514-4.169-10.774 0-5.884 0-11.768 0-17.651 0-16 0-32 0-48 0-10.266 0-20.532 0-30.797 0-4.905 4.284-4.777 7.287-4.777 4.65,0 9.3,0 13.949,0 29.442,0 58.885,0 88.327,0 3.12,0 6.241,0 9.361,0 5.232,0 4.575,5.01 4.575,7.991 0,12.699 0,25.397 0,38.096 0,15.429 0,30.859 0,46.288 0,4.751 2.782,19.625-5.507,19.625-26.684,0-53.368,0-80.053,0-11.255-.001-22.512-.001-33.77-.001-1.935,0-1.935,3 0,3 23.651,0 47.301,0 70.952,0 12.881,0 25.763,0 38.645,0 2.084,0 5.22,.527 7.264-.203 4.511-1.612 5.471-5.06 5.471-9.32 0-27.604 0-55.208 0-82.812 0-5.023 0-10.047 0-15.071 0-3.228 .306-7.127-2.866-9.144-2.727-1.733-5.497-1.45-8.564-1.45-5.02,0-10.04,0-15.061,0-29.255,0-58.511,0-87.766,0-6.491,0-15.243-1.056-15.243,8.165 0,10.757 0,21.515 0,32.272 0,17.3 0,34.6 0,51.898 0,5.269 0,10.537 0,15.805 0,4.994 1.384,9.194 7.169,9.86 1.919,.22 1.898-2.782-.001-3z"/>
<path d="m175.583,116.167c11.167,0 22.333,0 33.5,0 4.514,0 4.514-7 0-7-11.167,0-22.333,0-33.5,0-4.514,0-4.514,7 0,7z"/>
<path d="m192.333,123.304c-.161-7.275-5.318-12.001-12.5-12.137-1.936-.037-1.932,2.963 0,3 5.523,.104 9.375,3.506 9.5,9.137 .043,1.932 3.043,1.936 3,0z"/>
<path d="m241.583,115.985c11.167,0 22.333,0 33.5,0 4.514,0 4.514-7 0-7-11.167,0-22.333,0-33.5,0-4.514,0-4.514,7 0,7z"/>
<path d="m265.333,123.123c-.161-7.275-5.318-12.001-12.5-12.137-1.936-.037-1.933,2.963 0,3 5.523,.104 9.375,3.506 9.5,9.137 .043,1.931 3.043,1.935 3,0z"/>
<path d="m227.095,201.072c12.015-11.399 24.029-22.798 36.044-34.198 1.406-1.334-.719-3.452-2.121-2.121-12.015,11.399-24.029,22.798-36.044,34.198-1.407,1.334 .718,3.452 2.121,2.121z"/>
<path d="m216.232,226.33c22.244-21.104 44.489-42.209 66.733-63.313 1.406-1.334-.719-3.452-2.121-2.121-22.244,21.104-44.489,42.209-66.733,63.313-1.406,1.334 .719,3.452 2.121,2.121z"/>
<path d="m233.515,226.383c13.024-12.356 26.048-24.714 39.072-37.07 1.406-1.334-.719-3.452-2.121-2.121-13.024,12.356-26.048,24.714-39.072,37.07-1.407,1.334 .718,3.452 2.121,2.121z"/>
</g>
</svg>
