<svg xmlns="http://www.w3.org/2000/svg" viewBox="20 20 321 321">
<g fill="#000">
<path d="m79.087,256.178c0-3.468 .153-6.383 .459-8.746 .306-2.363 .799-4.259 1.479-5.687 .68-1.429 1.538-2.456 2.576-3.086 1.037-.629 2.303-.943 3.799-.943 1.461,0 2.72,.314 3.774,.943 1.054,.63 1.921,1.657 2.601,3.086 .68,1.428 1.173,3.323 1.479,5.687 .306,2.363 .459,5.278 .459,8.746s-.153,6.384-.459,8.746c-.306,2.363-.799,4.259-1.479,5.687-.68,1.429-1.547,2.457-2.601,3.085-1.054,.629-2.313,.944-3.774,.944-1.497,0-2.763-.315-3.799-.944-1.038-.628-1.896-1.656-2.576-3.085-.68-1.428-1.173-3.323-1.479-5.687-.306-2.362-.459-5.278-.459-8.746zm12.036,0c0-2.787-.068-5.117-.204-6.987-.136-1.869-.349-3.365-.637-4.487-.29-1.122-.672-1.921-1.147-2.397-.477-.476-1.055-.714-1.734-.714-.68,0-1.258,.238-1.734,.714-.477,.477-.859,1.275-1.147,2.397-.289,1.122-.502,2.618-.638,4.487-.136,1.87-.204,4.2-.204,6.987 0,2.788 .067,5.117 .204,6.987 .136,1.87 .349,3.365 .638,4.487 .289,1.122 .671,1.922 1.147,2.396 .476,.477 1.054,.715 1.734,.715 .68,0 1.258-.238 1.734-.715 .476-.475 .858-1.274 1.147-2.396 .288-1.122 .501-2.617 .637-4.487 .136-1.87 .204-4.199 .204-6.987z"/>
<path d="m126.058,242c-1.292,.17-2.474,.451-3.544,.841-1.071,.392-2.032,1.004-2.882,1.837-.85,.833-1.555,1.93-2.116,3.289-.561,1.36-.978,3.06-1.25,5.1 .714-.306 1.402-.526 2.065-.663 .663-.135 1.283-.203 1.861-.203 2.448,0 4.343,.961 5.687,2.881 1.343,1.922 2.015,4.564 2.015,7.931 0,3.604-.638,6.443-1.913,8.517-1.275,2.074-3.29,3.111-6.043,3.111-1.395,0-2.619-.272-3.672-.815-1.054-.544-1.93-1.437-2.626-2.678-.697-1.241-1.224-2.873-1.581-4.896-.357-2.022-.536-4.496-.536-7.42 0-2.551 .247-5.032 .74-7.446 .492-2.414 1.292-4.564 2.397-6.451 1.104-1.888 2.55-3.426 4.335-4.616 1.785-1.189 3.986-1.836 6.604-1.938l.459,3.619zm-6.936,13.77c-.544,0-1.088,.095-1.632,.28-.544,.188-1.054,.417-1.53,.688-.034,.408-.051,.825-.051,1.25 0,.426 0,.859 0,1.301 0,1.563 .042,3.052 .127,4.462 .084,1.411 .263,2.651 .536,3.724 .271,1.07 .671,1.921 1.198,2.549 .527,.63 1.232,.943 2.117,.943 1.326,0 2.252-.705 2.779-2.115 .527-1.411 .791-3.29 .791-5.636 0-2.55-.349-4.429-1.045-5.636-.698-1.206-1.795-1.81-3.29-1.81z"/>
<path d="m134.676,270.254c1.292-.136 2.49-.399 3.596-.791 1.104-.391 2.082-.994 2.932-1.811 .85-.816 1.572-1.895 2.167-3.238 .595-1.343 1.028-3.034 1.301-5.074-1.326,.544-2.568,.815-3.723,.815-2.448,0-4.36-.96-5.737-2.881s-2.065-4.564-2.065-7.931c0-3.604 .637-6.442 1.912-8.517 1.275-2.074 3.29-3.111 6.043-3.111 1.394,0 2.618,.272 3.672,.816 1.053,.544 1.929,1.437 2.626,2.677 .696,1.242 1.224,2.874 1.581,4.896 .357,2.023 .535,4.496 .535,7.42 0,2.585-.247,5.084-.739,7.497-.493,2.415-1.301,4.564-2.422,6.452-1.122,1.887-2.601,3.416-4.437,4.59-1.836,1.172-4.098,1.811-6.783,1.912l-.459-3.721zm7.344-13.668c1.02,0 2.023-.307 3.009-.918 0-.408 .008-.824 .025-1.25 .017-.425 .025-.875 .025-1.352 0-1.563-.034-3.051-.102-4.462-.068-1.411-.238-2.652-.51-3.724-.272-1.07-.672-1.92-1.199-2.55-.527-.629-1.232-.943-2.116-.943-1.326,0-2.253,.706-2.78,2.116-.527,1.411-.79,3.29-.79,5.636 0,2.55 .365,4.429 1.096,5.636 .733,1.207 1.846,1.811 3.342,1.811z"/>
<path d="m154.413,240.725c2.005-2.006 4.454-3.009 7.344-3.009 2.754,0 4.862,.723 6.324,2.167 1.461,1.446 2.193,3.698 2.193,6.758 0,1.428-.238,2.788-.714,4.08-.477,1.293-1.071,2.542-1.785,3.749s-1.497,2.405-2.346,3.595c-.85,1.19-1.666,2.406-2.448,3.646-.783,1.242-1.462,2.533-2.04,3.876-.579,1.344-.936,2.78-1.071,4.31h11.118v3.979h-15.81v-.97c0-2.277 .263-4.3 .791-6.069 .527-1.767 1.173-3.365 1.938-4.793 .765-1.428 1.607-2.754 2.525-3.979 .918-1.224 1.759-2.422 2.524-3.595 .765-1.174 1.41-2.38 1.938-3.621 .527-1.241 .791-2.609 .791-4.105 0-1.802-.357-3.103-1.071-3.902-.714-.798-1.785-1.198-3.213-1.198-.986,0-1.879,.196-2.677,.587-.799,.391-1.522,.893-2.167,1.504l-2.144-3.01z"/>
<path d="m186.287,240.725c2.006-2.006 4.454-3.009 7.344-3.009 2.754,0 4.862,.723 6.324,2.167 1.462,1.446 2.193,3.698 2.193,6.758 0,1.428-.238,2.788-.714,4.08-.477,1.293-1.071,2.542-1.785,3.749s-1.497,2.405-2.347,3.595c-.85,1.19-1.666,2.406-2.447,3.646-.783,1.242-1.463,2.533-2.04,3.876-.579,1.344-.936,2.78-1.071,4.31h11.118v3.979h-15.81v-.97c0-2.277 .263-4.3 .79-6.069 .526-1.767 1.173-3.365 1.938-4.793 .765-1.428 1.606-2.754 2.524-3.979 .918-1.224 1.759-2.422 2.524-3.595 .765-1.174 1.41-2.38 1.938-3.621s.791-2.609 .791-4.105c0-1.802-.357-3.103-1.071-3.902-.714-.798-1.784-1.198-3.213-1.198-.986,0-1.879,.196-2.677,.587-.8,.391-1.523,.893-2.168,1.504l-2.141-3.01z"/>
<path d="m208.625,256.178c0-3.468 .153-6.383 .459-8.746 .307-2.363 .799-4.259 1.479-5.687 .68-1.429 1.539-2.456 2.576-3.086 1.037-.629 2.303-.943 3.799-.943 1.462,0 2.721,.314 3.774,.943 1.054,.63 1.921,1.657 2.601,3.086 .68,1.428 1.174,3.323 1.479,5.687s.459,5.278 .459,8.746-.153,6.384-.459,8.746c-.306,2.363-.8,4.259-1.479,5.687-.68,1.429-1.547,2.457-2.601,3.085-1.054,.629-2.313,.944-3.774,.944-1.496,0-2.762-.315-3.799-.944-1.037-.628-1.896-1.656-2.576-3.085-.68-1.428-1.172-3.323-1.479-5.687-.306-2.362-.459-5.278-.459-8.746zm12.036,0c0-2.787-.068-5.117-.204-6.987-.137-1.869-.35-3.365-.637-4.487-.29-1.122-.672-1.921-1.148-2.397-.477-.476-1.055-.714-1.734-.714s-1.258,.238-1.733,.714c-.477,.477-.858,1.275-1.147,2.397s-.502,2.618-.638,4.487c-.136,1.87-.204,4.2-.204,6.987 0,2.788 .068,5.117 .204,6.987s.349,3.365 .638,4.487 .671,1.922 1.147,2.396c.476,.477 1.054,.715 1.733,.715s1.258-.238 1.734-.715c.477-.475 .858-1.274 1.148-2.396 .287-1.122 .5-2.617 .637-4.487 .136-1.87 .204-4.199 .204-6.987z"/>
<path d="m230.555,256.178c0-3.468 .153-6.383 .459-8.746 .307-2.363 .799-4.259 1.479-5.687 .68-1.429 1.539-2.456 2.576-3.086 1.037-.629 2.303-.943 3.799-.943 1.462,0 2.721,.314 3.774,.943 1.054,.63 1.921,1.657 2.601,3.086 .68,1.428 1.174,3.323 1.479,5.687s.459,5.278 .459,8.746-.153,6.384-.459,8.746c-.306,2.363-.8,4.259-1.479,5.687-.68,1.429-1.547,2.457-2.601,3.085-1.054,.629-2.313,.944-3.774,.944-1.496,0-2.762-.315-3.799-.944-1.037-.628-1.896-1.656-2.576-3.085-.68-1.428-1.172-3.323-1.479-5.687-.306-2.362-.459-5.278-.459-8.746zm12.036,0c0-2.787-.068-5.117-.204-6.987-.137-1.869-.35-3.365-.637-4.487-.29-1.122-.672-1.921-1.148-2.397-.477-.476-1.055-.714-1.734-.714s-1.258,.238-1.733,.714c-.477,.477-.858,1.275-1.147,2.397s-.502,2.618-.638,4.487c-.136,1.87-.204,4.2-.204,6.987 0,2.788 .068,5.117 .204,6.987s.349,3.365 .638,4.487 .671,1.922 1.147,2.396c.476,.477 1.054,.715 1.733,.715s1.258-.238 1.734-.715c.477-.475 .858-1.274 1.148-2.396 .287-1.122 .5-2.617 .637-4.487 .135-1.87 .204-4.199 .204-6.987z"/>
<path d="m258.248,268.061c.033,.272 .051,.535 .051,.791 0,.254 0,.518 0,.79 0,2.177-.307,4.267-.918,6.272-.612,2.006-1.445,3.944-2.5,5.814l-3.11-.918c.85-1.734 1.411-3.494 1.683-5.278 .271-1.785 .408-3.46 .408-5.024 0-.441-.009-.866-.025-1.274-.018-.407-.043-.798-.076-1.173h4.487z"/>
<path d="m279.412,242c-1.293,.17-2.474,.451-3.545,.841-1.07,.392-2.031,1.004-2.881,1.837-.851,.833-1.556,1.93-2.117,3.289-.561,1.36-.978,3.06-1.249,5.1 .714-.306 1.402-.526 2.065-.663 .663-.135 1.283-.203 1.861-.203 2.448,0 4.344,.961 5.687,2.881 1.343,1.922 2.015,4.564 2.015,7.931 0,3.604-.638,6.443-1.912,8.517-1.275,2.074-3.29,3.111-6.044,3.111-1.395,0-2.618-.272-3.672-.815-1.054-.544-1.931-1.437-2.626-2.678-.697-1.241-1.225-2.873-1.582-4.896-.356-2.022-.535-4.496-.535-7.42 0-2.551 .246-5.032 .74-7.446 .492-2.414 1.291-4.564 2.396-6.451 1.104-1.888 2.55-3.426 4.335-4.616 1.785-1.189 3.985-1.836 6.604-1.938l.46,3.619zm-6.935,13.77c-.545,0-1.089,.095-1.633,.28-.544,.188-1.054,.417-1.529,.688-.035,.408-.051,.825-.051,1.25 0,.426 0,.859 0,1.301 0,1.563 .041,3.052 .127,4.462 .084,1.411 .263,2.651 .535,3.724 .271,1.07 .672,1.921 1.199,2.549 .526,.63 1.231,.943 2.116,.943 1.325,0 2.252-.705 2.779-2.115 .526-1.411 .79-3.29 .79-5.636 0-2.55-.349-4.429-1.045-5.636-.697-1.206-1.793-1.81-3.288-1.81z"/>
<path d="m284.701,282.402c-.492,4.237-14.117,2.265-16.289,2.265-12.04,0-24.08,0-36.12,0-32.031,0-64.063,0-96.094,0-18.969,0-37.937,0-56.906,0-3.785,0-2.626-6.545-2.626-8.563 0-7.512 0-15.023 0-22.536 0-6.694 0-13.389 0-20.083 0-2.415 .318-5.061 3.382-5.061 52.465,0 104.93,0 157.395,0 14.877,0 29.754,0 44.631,0 3.353,0 2.627,4.188 2.627,6.096 0,6.021 0,12.041 0,18.062-0,9.939-0,19.88-0,29.82 0,4.514 7,4.514 7,0 0-12.169 0-24.338 0-36.506 0-8.307 2.865-24.473-9.83-24.473-19.508,0-39.017,0-58.524,0-32.003,0-64.005,0-96.008,0-11.813,0-23.625,0-35.438,0-5.051,0-11.526-1.02-16.408,.711-6.048,2.145-5.826,8.359-5.826,13.556 0,7.283 0,14.566 0,21.85 0,7.011 0,14.021 0,21.031 0,5.637 .972,12.143 7.979,12.943 5.023,.574 10.265,.152 15.31,.152 12.04,0 24.08,0 36.12,0 51,0 101.999,0 152.999,0 5.593,0 9.018-4.016 9.627-9.265 .52-4.478-6.486-4.427-7.001,.001z"/>
<path d="m95.688,286c0,1.104-.896,2-2,2h-11.5c-1.104,0-2-.896-2-2v-5c0-1.104 .896-2 2-2h11.5c1.104,0 2,.896 2,2v5z"/>
<path d="m126.813,286c0,1.104-.896,2-2,2h-11.5c-1.104,0-2-.896-2-2v-5c0-1.104 .896-2 2-2h11.5c1.104,0 2,.896 2,2v5z"/>
<path d="m149.938,286c0,1.104-.896,2-2,2h-11.5c-1.104,0-2-.896-2-2v-5c0-1.104 .896-2 2-2h11.5c1.104,0 2,.896 2,2v5z"/>
<path d="m173.063,286c0,1.104-.896,2-2,2h-11.5c-1.104,0-2-.896-2-2v-5c0-1.104 .896-2 2-2h11.5c1.104,0 2,.896 2,2v5z"/>
<path d="m201.188,286c0,1.104-.895,2-2,2h-11.5c-1.104,0-2-.896-2-2v-5c0-1.104 .896-2 2-2h11.5c1.105,0 2,.896 2,2v5z"/>
<path d="m224.313,286c0,1.104-.895,2-2,2h-11.5c-1.104,0-2-.896-2-2v-5c0-1.104 .896-2 2-2h11.5c1.105,0 2,.896 2,2v5z"/>
<path d="m247.438,286c0,1.104-.895,2-2,2h-11.5c-1.104,0-2-.896-2-2v-5c0-1.104 .896-2 2-2h11.5c1.105,0 2,.896 2,2v5z"/>
<path d="m281.188,286c0,1.104-.895,2-2,2h-11.5c-1.104,0-2-.896-2-2v-5c0-1.104 .896-2 2-2h11.5c1.105,0 2,.896 2,2v5z"/>
<path d="m95.5,231.834c0,1.104-.896,2-2,2h-11.5c-1.104,0-2-.896-2-2v-5c0-1.104 .896-2 2-2h11.5c1.104,0 2,.896 2,2v5z"/>
<path d="m126.625,231.834c0,1.104-.896,2-2,2h-11.5c-1.104,0-2-.896-2-2v-5c0-1.104 .896-2 2-2h11.5c1.104,0 2,.896 2,2v5z"/>
<path d="m149.75,231.834c0,1.104-.896,2-2,2h-11.5c-1.104,0-2-.896-2-2v-5c0-1.104 .896-2 2-2h11.5c1.104,0 2,.896 2,2v5z"/>
<path d="m172.875,231.834c0,1.104-.896,2-2,2h-11.5c-1.104,0-2-.896-2-2v-5c0-1.104 .896-2 2-2h11.5c1.104,0 2,.896 2,2v5z"/>
<path d="m201,231.834c0,1.104-.896,2-2,2h-11.5c-1.104,0-2-.896-2-2v-5c0-1.104 .896-2 2-2h11.5c1.104,0 2,.896 2,2v5z"/>
<path d="m224.125,231.834c0,1.104-.896,2-2,2h-11.5c-1.104,0-2-.896-2-2v-5c0-1.104 .896-2 2-2h11.5c1.104,0 2,.896 2,2v5z"/>
<path d="m247.25,231.834c0,1.104-.896,2-2,2h-11.5c-1.104,0-2-.896-2-2v-5c0-1.104 .896-2 2-2h11.5c1.104,0 2,.896 2,2v5z"/>
<path d="m281,231.834c0,1.104-.896,2-2,2h-11.5c-1.104,0-2-.896-2-2v-5c0-1.104 .896-2 2-2h11.5c1.104,0 2,.896 2,2v5z"/>
<path d="m145.641,86.139c1.601,10.669 19.825,7.635 27.309,7.635 15.794,0 31.588,0 47.383,0 6.231,0 12.464,0 18.695,0 3.412,0 6.889,.271 10.208-.64 3.866-1.062 6.264-4.742 6.264-8.593 0-3.418 .65-7.617-1.695-10.45-3.243-3.919-7.746-3.863-12.313-3.863-19.966,0-39.932,0-59.898,0-7.881,0-15.763,0-23.645,0-2.934,0-5.487,.252-8.229,1.591-5.077,2.479-4.204,8.788-4.204,13.389 0,4.514 7,4.514 7,0 0-2.931-1.273-7.98 3.11-7.98 .894,0 1.788,0 2.682,0 5.152,0 10.303,0 15.455,0 15.824,0 31.647,0 47.47,0 6.11,0 12.22,0 18.329,0 2.792,0 8.938-1 8.938,2.951 0,2.959 .968,6.595-3.326,6.595-1.228,0-2.454,0-3.682,0-5.584,0-11.168,0-16.753,0-14.985,0-29.971,0-44.957,0-5.931,0-11.863,0-17.794,0-2.544,0-9.071,1.014-9.597-2.497-.668-4.451-7.412-2.552-6.75,1.862z"/>
<path d="m172.548,90.699c0,5.834 0,11.669 0,17.504 0,4.514 7,4.514 7,0 0-5.834 0-11.669 0-17.504 0-4.514-7-4.514-7,0z"/>
<path d="m159.06,91.381c0,5.86 0,11.72 0,17.58 0,4.514 7,4.514 7,0 0-5.86 0-11.72 0-17.58 0-4.514-7-4.514-7,0z"/>
<path d="m271.787,152.645c0,9.808 0,19.616 0,29.424 0,4.416 0,8.833 0,13.249 0,2.834-6.714,1.509-8.599,1.509-5.833,0-11.666,0-17.5,0-3.682,0-2.599-2.808-2.599-5.936 0-10.412 0-20.825 0-31.237 0-2.726-2.274-5-5-5-11.985,0-23.972,0-35.957,0-2.726,0-5,2.274-5,5 0,1.188 0,2.376 0,3.564 0,1.898 .438,1.263-.295,1.263-1.776,0-3.554,0-5.33,0-7.28,0-14.561,0-21.841,0-7.063,0-14.125,0-21.187,0-1.914,0-3.828,0-5.742,0-1.076,0-.438-.208-.182,.13-.82-1.085-.357-3.713-.357-4.957 0-2.726-2.274-5-5-5-10.966,0-21.933,0-32.899,0-4.43,0-8.86,0-13.291,0-3.365,0-1.843-11.246-1.843-13.263 0-1.836-1.44-13.264 1.707-13.264 4.48,0 8.961,0 13.442,0 10.979,0 21.958,0 32.936,0 0-3.333 0-6.667 0-10-.017,0-.035,0-.052,0 1.667,1.667 3.333,3.333 5,5 0-1.38 0-2.759 0-4.139 0-.69 0-1.38 0-2.07 0-1.515 .877-1.442-.177-1.442 1.527,0 3.055,0 4.583,0 7.687,0 15.375,0 23.062,0 7.489,0 14.978,0 22.466,0 1.688,0 3.376,0 5.064,0-.44,0-.064,1.397-.064,2.643 0,1.669 0,3.339 0,5.008 0,2.708 2.274,5.023 5,5 17.194-.148 34.396,0 51.591,0 2.158,0 17.727-1.747 18.063,1.595 .768,7.62 0,15.673 0,23.338 0,6.449 10,6.449 10,0 0-4.213 0-8.427 0-12.64 0-4.021 .912-9.412-.313-13.356-3.31-10.662-14.078-8.937-22.851-8.937-18.828,0-37.664-.162-56.491,0 1.667,1.667 3.333,3.333 5,5 0-4.739 .577-9.784-2.454-13.798-2.296-3.042-5.468-3.853-9.049-3.853-8.654,0-17.309,0-25.963,0-8.522,0-17.044,0-25.566,0-3.348,0-5.962,.565-8.665,2.841-4.083,3.438-3.237,10.084-3.237,14.81 0,2.706 2.274,5.026 5,5 .017,0 .035,0 .052,0 6.446-.061 6.451-10 0-10-12.424,0-24.849,0-37.273,0-5.16,0-10.744-.733-15.427,1.809-6.834,3.709-5.384,13.094-5.384,19.518 0,6.233-1.274,14.137 1.809,19.816 3.233,5.956 10.263,5.384 15.955,5.384 13.277,0 26.554,0 39.832,0 .146,0 .292,0 .438,0-1.667-1.667-3.333-3.333-5-5 0,4.661 .137,11.146 5.127,13.507 2.481,1.175 4.588,1.319 7.208,1.319 8.377,0 16.755,0 25.132,0 8.222,0 16.443,0 24.664,0 2.276,0 4.558,.157 6.681-.848 5.62-2.661 6.121-8.497 6.121-13.979-1.667,1.667-3.333,3.333-5,5 11.985,0 23.972,0 35.957,0-1.667-1.667-3.333-3.333-5-5 0,11.429 0,22.858 0,34.288 0,6.531 3.299,12.885 10.737,12.885 6.148,0 12.296,0 18.444,0 5.896,0 12.349,1.042 16.831-3.637 3.635-3.795 2.685-10.271 2.685-15.083 0-11.821 0-23.642 0-35.462 .001-6.448-9.999-6.448-9.999,.001z"/>
</g>
</svg>
