<svg xmlns="http://www.w3.org/2000/svg" viewBox="20 20 321 321">
<g  stroke="#000">
<g fill="none" stroke-width="10">
<path d="m236.141,280.167c0,3.313-2.688,6-6,6h-95.5c-3.313,0-6-2.687-6-6v-180c0-3.313 2.687-6 6-6h95.5c3.313,0 6,2.687 6,6v180z"/>
<path d="m163.64,94.667v-14c0-3.313 2.687-6 6-6h25.5c3.313,0 6,2.687 6,6v14"/>
</g>
<g fill="#000" stroke-width="3">
<path d="m221.141,266.334c0,3.313-2.688,6-6,6h-65.5c-3.313,0-6-2.688-6-6v-6c0-3.314 2.687-6 6-6l65.5-20c3.313,0 6,2.686 6,6v26z"/>
<path d="m221.141,166.667c0,3.313-2.688,6-6,6l-65.5,20c-3.313,0-6-2.687-6-6v-20c0-3.313 2.687-6 6-6l65.5-20c3.313,0 6,2.687 6,6v20z"/>
<path d="m221.141,120c0,3.313-2.688,6-6,6l-65.5,20c-3.313,0-6-2.687-6-6v-26c0-3.313 2.687-6 6-6h65.5c3.313,0 6,2.687 6,6v6z"/>
<path d="m221.141,213.667c0,3.313-2.688,6-6,6l-65.5,20c-3.313,0-6-2.687-6-6v-20c0-3.313 2.687-6 6-6l65.5-20c3.313,0 6,2.687 6,6v20z"/>
</g>
</g>
</svg>
