<svg xmlns="http://www.w3.org/2000/svg" viewBox="20 20 321 321">
<path fill="none"  stroke="#000" stroke-width="10" d="m282.436,281.116c0,3.314-2.688,6.001-6.001,6.001h-190.685c-3.314,0-6-2.687-6-6.001v-110.411c0-3.314 2.687-6 6-6h190.685c3.313,0 6.001,2.686 6.001,6v110.411z"/>
<g fill="#000">
<path d="m124.828,151.971c-11.729,0-23.457,0-35.186,0-1.773,0-9.375,1.245-9.375-1.667 0-6.379 0-12.759 0-19.138 0-3.145-1.305-7.707 2.76-7.707 5.801,0 11.601,0 17.401,0 11.241,0 22.481,0 33.722,0 6.449,0 6.449-10 0-10-12.188,0-24.375,0-36.563,0-5.227,0-10.453,0-15.679,0-7.846,0-11.642,6.282-11.642,13.361 0,7.065 0,14.13 0,21.196 0,7.141 3.298,13.956 11.519,13.956 13.053,0 26.106,0 39.159,0 1.294,0 2.589,0 3.883,0 6.449-.001 6.449-10.001 .001-10.001z"/>
<path d="m237.096,123.458c12.41,0 24.821,0 37.231,0 1.852,0 3.702,0 5.554,0 2.037,0 1.518,2.624 1.518,3.956 0,7.065 0,14.13 0,21.196 0,4.19-2.522,3.361-6.034,3.361-6.806,0-13.611,0-20.417,0-12.596,0-25.192,0-37.788,0-.109,0-.218,0-.327,0-6.448,0-6.448,10 0,10 11.385,0 22.77,0 34.154,0 7.309,0 14.616,0 21.924,0 4.566,0 9.098,.507 13.256-1.75 6.576-3.568 5.232-12.469 5.232-18.657 0-5.978 .474-12.161-.127-18.115-.827-8.208-8.184-9.991-14.984-9.991-7.369,0-14.738,0-22.107,0-5.695,0-11.39,0-17.084,0-6.45,0-6.45,10-.001,10z"/>
<path d="m186.391,196.28c-.208,3.463-2.295,4.113-5.169,4.113-3.025,0-5.481-.285-5.71-4.113-.209-3.481 2.52-4.113 5.169-4.113 3.024,0 5.48,.285 5.71,4.113 .115,1.922 3.116,1.934 3,0-.135-2.251-.86-4.666-2.833-6.004-1.696-1.15-3.38-1.109-5.336-1.109-1.895,0-3.554-.094-5.313,.727-2.356,1.099-3.256,4.03-3.397,6.387-.13,2.163 1.023,4.777 2.833,6.004 1.697,1.15 3.38,1.109 5.336,1.109 1.895,0 3.554,.094 5.313-.727 2.356-1.099 3.256-4.03 3.397-6.387 .116-1.933-2.885-1.922-3,0z"/>
</g>
<path fill="none"  stroke="#000" stroke-width="10" d="m132.27,164.706l-18.166-29.403c-.928-1.502-.449-3.482 1.071-4.421l90.567-55.955c1.52-.939 3.505-.483 4.433,1.02l34.907,56.5c.928,1.502 .449,3.481-1.071,4.421l-46.302,28.606"/>
<path fill="#000" d="m203.42,71.96c-9.766,19.207-19.531,38.414-29.297,57.621 1.439-.826 2.878-1.651 4.317-2.477-21.547,.139-43.093,.277-64.64,.416 .841,3.106 1.683,6.211 2.523,9.317 31.313-19.346 62.625-38.691 93.937-58.037 5.474-3.382 .455-12.034-5.047-8.635-31.313,19.346-62.625,38.691-93.937,58.037-4.169,2.576-2.551,9.35 2.523,9.317 21.547-.139 43.093-.277 64.64-.416 1.684-.011 3.529-.926 4.317-2.477 9.766-19.207 19.531-38.414 29.297-57.621 2.918-5.732-5.709-10.795-8.633-5.045z"/>
</svg>
