<svg xmlns="http://www.w3.org/2000/svg" viewBox="20 20 321 321">
<path fill="none"  stroke="#000" stroke-width="10" d="m203.844,150.36c0,7.845-6.361,14.206-14.206,14.206h-18.275c-7.845,0-14.206-6.36-14.206-14.206v-17.363c0-7.846 6.36-14.206 14.206-14.206h18.275c7.845,0 14.206,6.36 14.206,14.206v17.363z"/>
<g fill="#000">
<path d="m247.376,136.679c-7.764,0-15.526,0-23.29,0-6.448,0-6.448,10 0,10 7.764,0 15.526,0 23.29,0 6.448,0 6.448-10 0-10z"/>
<path d="m185.5,98.093c0-7.764 0-15.527 0-23.291 0-6.449-10-6.449-10,0 0,7.764 0,15.527 0,23.291 0,6.449 10,6.449 10,0z"/>
<path d="m148.086,102.192c-5.49-5.489-10.979-10.979-16.469-16.469-4.564-4.563-11.635,2.507-7.071,7.071 5.49,5.489 10.979,10.979 16.469,16.469 4.564,4.564 11.634-2.507 7.071-7.071z"/>
<path d="m219.985,109.264c5.49-5.49 10.979-10.979 16.469-16.469 4.564-4.564-2.507-11.635-7.07-7.071-5.49,5.49-10.979,10.979-16.469,16.469-4.564,4.564 2.507,11.635 7.07,7.071z"/>
<path d="m185.5,208.555c0-7.764 0-15.527 0-23.291 0-6.449-10-6.449-10,0 0,7.764 0,15.527 0,23.291 0,6.448 10,6.448 10,0z"/>
<path d="m113.625,146.678c7.764,0 15.527,0 23.291,0 6.449,0 6.449-10 0-10-7.764,0-15.527,0-23.291,0-6.449,0-6.449,10 0,10z"/>
<path d="m212.915,181.164c5.489,5.489 10.979,10.979 16.469,16.469 4.563,4.564 11.635-2.507 7.07-7.07-5.489-5.49-10.979-10.98-16.469-16.47-4.563-4.564-11.634,2.507-7.07,7.071z"/>
<path d="m141.015,174.092c-5.489,5.49-10.979,10.979-16.469,16.469-4.563,4.563 2.507,11.635 7.071,7.07 5.489-5.489 10.979-10.979 16.469-16.469 4.563-4.562-2.507-11.633-7.071-7.07z"/>
<path d="m77.857,288.5c-6.658-.767-4.169-15.326-4.169-19.04 0-6.644 0-13.286 0-19.93 0-7.123 11.418-5.03 15.395-5.03 26.883,0 53.766,0 80.648,0 30.165,0 60.33,0 90.495,0 7.767,0 15.533,0 23.299,0 3.083,0 6.163,1.649 6.163,5.393 0,6.848 0,13.694 0,20.541 0,3.016 2.263,18.066-4.176,18.066-1.359,0-2.719,0-4.079,0-8.959,0-17.918,0-26.876,0-30.909,0-61.818,0-92.727,0-27.991,0-55.982,0-83.973,0-1.935,0-1.935,3 0,3 48.865,0 97.729,0 146.594,0 20.057,0 40.113,0 60.17,0 11.22,0 8.066-15.738 8.066-23.021 0-6.417 0-12.834 0-19.251 0-4.408-3.102-7.728-7.571-7.728-51.141,0-102.28,0-153.421,0-17.646,0-35.293,0-52.94,0-10.323,0-8.067,12.199-8.067,19.155 0,6.819 0,13.64 0,20.46 0,5.201 1.076,9.684 7.169,10.385 1.92,.221 1.899-2.781 0-3z"/>
<path d="m79.927,254.027c0,8.304 0,16.606 0,24.91 0,6.448 10,6.448 10,0 0-8.304 0-16.606 0-24.91 0-6.448-10-6.448-10-0z"/>
<path d="m94.667,254.027c0,8.304 0,16.606 0,24.91 0,6.448 10,6.448 10,0 0-8.304 0-16.606 0-24.91 0-6.448-10-6.448-10-0z"/>
<path d="m109.405,254.027c0,8.304 0,16.606 0,24.91 0,6.448 10,6.448 10,0 0-8.304 0-16.606 0-24.91 0-6.448-10-6.448-10-0z"/>
<path d="m124.145,254.027c0,8.304 0,16.606 0,24.91 0,6.448 10,6.448 10,0 0-8.304 0-16.606 0-24.91 0-6.448-10-6.448-10-0z"/>
<path d="m138.884,254.027c0,8.304 0,16.606 0,24.91 0,6.448 10,6.448 10,0 0-8.304 0-16.606 0-24.91 0-6.448-10-6.448-10-0z"/>
<path d="m153.623,254.027c0,8.304 0,16.606 0,24.91 0,6.448 10,6.448 10,0 0-8.304 0-16.606 0-24.91 0-6.448-10-6.448-10-0z"/>
<path d="m168.362,254.027c0,8.304 0,16.606 0,24.91 0,6.448 10,6.448 10,0 0-8.304 0-16.606 0-24.91 0-6.448-10-6.448-10-0z"/>
<path d="m183.102,254.027c0,8.304 0,16.606 0,24.91 0,6.448 10,6.448 10,0 0-8.304 0-16.606 0-24.91 0-6.448-10-6.448-10-0z"/>
<path d="m197.84,254.027c0,8.304 0,16.606 0,24.91 0,6.448 10,6.448 10,0 0-8.304 0-16.606 0-24.91 0-6.448-10-6.448-10-0z"/>
</g>
</svg>
