<svg xmlns="http://www.w3.org/2000/svg" viewBox="20 20 321 321">
<g fill="#000">
<path d="m143.766,277.73c-20.053-20.005-40.104-40.01-60.157-60.015 .742,1.796 1.484,3.592 2.226,5.387 0-28.291 0-56.583 0-84.875-.723,1.74-1.446,3.481-2.169,5.221 20.052-20.005 40.104-40.01 60.157-60.015-1.795,.742-3.591,1.484-5.387,2.226 28.358,0 56.717,0 85.075,0-1.741-.723-3.481-1.446-5.222-2.169 20.052,20.005 40.104,40.01 60.156,60.015-.742-1.795-1.484-3.591-2.227-5.387 0,28.292 0,56.583 0,84.875 .724-1.741 1.446-3.481 2.17-5.222-20.053,20.004-40.104,40.009-60.157,60.014 1.796-.742 3.592-1.484 5.387-2.227-28.357,0-56.716,0-85.074,0-9.687,0-9.772,15.004-.108,15.004 24.881,0 49.762,0 74.643,0 3.432,0 6.863,0 10.294,0 4.063,0 6.503-3.202 9.107-5.801 10.005-9.98 20.009-19.961 30.014-29.941 8.569-8.55 17.14-17.1 25.71-25.649 2.457-2.451 3.02-5.231 3.02-8.519 0-5.184 0-10.367 0-15.551 0-15.73 0-31.46 0-47.19 0-5.487 0-10.975 0-16.461 0-3.454-.037-6.426-2.746-9.129-18.437-18.393-36.874-36.787-55.311-55.18-2.629-2.623-5.496-6.485-9.563-6.485-3.029,0-6.059,0-9.089,0-15.085,0-30.171,0-45.256,0-10.217,0-20.435,0-30.652,0-4.104,0-6.749,3.523-9.396,6.164-4.376,4.367-8.753,8.733-13.13,13.1-11.048,11.022-22.097,22.045-33.146,33.067-3.086,3.079-6.172,6.158-9.258,9.236-2.559,2.552-2.845,5.39-2.845,8.72 0,26.409 0,52.818 0,79.227 0,3.394 .295,6.284 2.901,8.885 3.086,3.078 6.172,6.157 9.258,9.235 11.048,11.022 22.097,22.045 33.146,33.067 5.692,5.679 11.385,11.357 17.077,17.036 6.844,6.83 17.412-3.818 10.552-10.663z"/>
<path d="m111.125,195.075c1.496,0 2.73-.124 3.706-.374 .974-.249 1.756-.589 2.346-1.02 .588-.432 .997-.941 1.224-1.531 .227-.588 .34-1.246 .34-1.971 0-1.541-.726-2.822-2.176-3.843-1.451-1.021-3.944-2.118-7.48-3.298-1.542-.544-3.083-1.166-4.624-1.87-1.542-.702-2.924-1.586-4.148-2.652-1.224-1.065-2.222-2.357-2.992-3.876-.771-1.519-1.156-3.366-1.156-5.542 0-2.176 .408-4.136 1.224-5.882 .816-1.745 1.972-3.23 3.468-4.454 1.496-1.224 3.309-2.165 5.44-2.822 2.13-.657 4.533-.986 7.208-.986 3.173,0 5.916,.34 8.228,1.02 2.312,.68 4.216,1.428 5.712,2.244l-3.06,8.364c-1.315-.68-2.777-1.28-4.386-1.802-1.61-.521-3.548-.782-5.814-.782-2.54,0-4.364,.352-5.474,1.054-1.111,.703-1.666,1.779-1.666,3.23 0,.861 .204,1.587 .612,2.176 .408,.59 .986,1.122 1.734,1.598s1.608,.907 2.584,1.292c.974,.386 2.05,.782 3.23,1.19 2.448,.907 4.578,1.802 6.392,2.686 1.813,.884 3.32,1.916 4.522,3.094 1.201,1.179 2.096,2.562 2.686,4.148 .588,1.588 .884,3.514 .884,5.78 0,4.397-1.542,7.81-4.624,10.233-3.083,2.426-7.729,3.639-13.94,3.639-2.085,0-3.967-.125-5.644-.374-1.678-.25-3.162-.556-4.454-.918s-2.403-.748-3.332-1.156c-.93-.407-1.711-.792-2.346-1.155l2.992-8.433c1.405,.771 3.139,1.462 5.202,2.074 2.062,.614 4.59,.919 7.582,.919z"/>
<path d="m171.441,156.043v9.044h-14.212v38.08h-10.608v-38.08h-14.212v-9.044h39.032z"/>
<path d="m221.557,179.571c0,4.036-.601,7.582-1.801,10.642-1.202,3.061-2.846,5.621-4.931,7.684-2.085,2.064-4.567,3.616-7.446,4.658-2.879,1.043-5.973,1.564-9.281,1.564-3.22,0-6.256-.521-9.112-1.564-2.856-1.042-5.35-2.594-7.479-4.658-2.132-2.063-3.809-4.623-5.033-7.684-1.224-3.061-1.836-6.606-1.836-10.642 0-4.034 .634-7.582 1.904-10.642 1.269-3.06 2.98-5.632 5.134-7.718 2.152-2.084 4.646-3.648 7.479-4.692 2.833-1.042 5.813-1.564 8.942-1.564 3.218,0 6.256,.521 9.111,1.564 2.856,1.043 5.35,2.607 7.48,4.692 2.131,2.086 3.808,4.658 5.031,7.718 1.226,3.06 1.838,6.608 1.838,10.642zm-35.971,0c0,2.312 .282,4.398 .85,6.256 .566,1.859 1.382,3.457 2.447,4.794 1.064,1.338 2.369,2.369 3.91,3.094 1.541,.727 3.309,1.088 5.305,1.088 1.948,0 3.705-.361 5.27-1.088 1.564-.725 2.879-1.756 3.944-3.094 1.064-1.337 1.88-2.935 2.448-4.794 .566-1.858 .85-3.944 .85-6.256s-.283-4.408-.85-6.29c-.568-1.88-1.384-3.49-2.448-4.828-1.065-1.337-2.38-2.369-3.944-3.094-1.564-.725-3.321-1.088-5.27-1.088-1.996,0-3.764,.374-5.305,1.122s-2.846,1.792-3.91,3.128c-1.065,1.338-1.881,2.947-2.447,4.828-.568,1.881-.85,3.956-.85,6.222z"/>
<path d="m244.541,155.499c7.026,0 12.42,1.236 16.184,3.706 3.763,2.471 5.645,6.517 5.645,12.138 0,5.667-1.904,9.759-5.712,12.274s-9.248,3.773-16.32,3.773h-3.332v15.776h-10.608v-46.444c2.313-.453 4.761-.771 7.345-.952 2.582-.18 4.849-.271 6.798-.271zm.68,9.044c-.771,0-1.529,.023-2.277,.068-.748,.046-1.395,.091-1.938,.136v13.6h3.332c3.672,0 6.437-.499 8.296-1.496 1.858-.997 2.788-2.856 2.788-5.576 0-1.314-.237-2.402-.714-3.264-.477-.861-1.156-1.553-2.04-2.074-.884-.521-1.962-.884-3.229-1.088-1.271-.204-2.677-.306-4.218-.306z"/>
</g>
</svg>
