<svg xmlns="http://www.w3.org/2000/svg" viewBox="20 20 321 321">
<path fill="none"  stroke="#000" stroke-width="10" d="m74.622,99.285c3.311,15.667 9.358,33.123 14.437,47.916 3.022,8.803 16.089,39.094 19.039,45.906h-.002c0,0 .104,.241 .298,.686 .193,.445 .298,.686 .298,.686h.002c2.967,6.803 16.196,37.024 20.569,45.241 7.35,13.806 15.985,30.136 25.18,43.246 1.842,2.627 4.33,4.511 6.79,3.442l35.834-15.572c2.459-1.069 3.406-4.342 2.116-7.313l-17.526-40.331c-6.233-11.243-18.702-2.153-26.258-5.846-2.563-1.253-4.453-6.05-5.695-8.907-2.748-6.323-9.158-21.073-11.484-26.426-.542-1.249-.864-1.988-.864-1.988-2.326-5.353-8.736-20.103-11.484-26.426-1.241-2.857-3.458-7.513-2.626-10.24 2.457-8.043 17.61-10.957 13.643-23.185l-17.526-40.332c-1.291-2.97-4.331-4.51-6.79-3.442l-35.835,15.573c-2.46,1.069-2.78,4.173-2.116,7.312z"/>
<g fill="#000">
<path d="m231.4,223.434c11.66,12.167 11.659,30.808 0,42.975-3.122,3.258 1.821,8.214 4.949,4.949 14.316-14.938 14.316-37.935 0-52.873-3.127-3.265-8.071,1.691-4.949,4.949z"/>
<path d="m249.672,214.799c16.828,17.351 16.828,44.586 0,61.937-3.143,3.24 1.802,8.194 4.949,4.949 19.49-20.095 19.491-51.741 0-71.835-3.147-3.246-8.092,1.709-4.949,4.949z"/>
<path d="m268.588,206.408c21.229,21.755 21.229,56.317 0,78.072-3.153,3.231 1.793,8.185 4.949,4.949 23.892-24.484 23.893-63.487 0-87.971-3.156-3.234-8.102,1.719-4.949,4.95z"/>
<path d="m214.363,89.353c24.414-3.261 48.828-6.522 73.242-9.784-1.667-1.667-3.333-3.333-5-5-3.262,24.414-6.522,48.829-9.784,73.243 2.845-1.179 5.69-2.357 8.535-3.536-21.152-21.153-42.305-42.306-63.458-63.459-4.563-4.563-11.635,2.507-7.07,7.071 21.152,21.153 42.305,42.306 63.458,63.459 3.398,3.399 7.99,.542 8.535-3.536 3.262-24.414 6.522-48.829 9.784-73.243 .329-2.463-2.537-5.329-5-5-24.414,3.261-48.828,6.522-73.242,9.784-6.295,.842-6.377,10.853-0,10.001z"/>
<path d="m196.116,183.611c5.806,4.195 10.148-.661 14.051-4.563 3.824-3.825 7.649-7.65 11.474-11.475 5.481-5.481-.122-10.866-4.015-14.759-3.825-3.825-7.65-7.65-11.476-11.476-5.481-5.481-10.866,.124-14.759,4.017-3.825,3.825-7.65,7.65-11.476,11.475-5.48,5.481 .125,10.866 4.017,14.759 3.825,3.825 7.65,7.65 11.476,11.475 3.194,3.194 8.145-1.756 4.949-4.95-5.149-5.149-10.3-10.299-15.449-15.449-.938-.938 13.751-14.678 15.407-16.334 .938-.938 14.679,13.752 16.335,15.408 .937,.937-6.678,7.603-7.353,8.278-1.574,1.574-7.215,9.308-9.648,7.55-3.667-2.649-7.155,3.428-3.533,6.044z"/>
<path d="m231.631,148.096c5.807,4.194 10.148-.662 14.051-4.563 3.825-3.825 7.649-7.65 11.475-11.475 5.481-5.481-.124-10.866-4.016-14.758-3.825-3.825-7.65-7.65-11.476-11.476-5.48-5.481-10.866,.125-14.759,4.017-3.825,3.825-7.649,7.65-11.475,11.475-5.481,5.481 .123,10.866 4.016,14.759 3.825,3.825 7.65,7.65 11.476,11.475 3.194,3.194 8.144-1.755 4.949-4.95-5.149-5.149-10.3-10.299-15.449-15.449-.938-.938 13.751-14.678 15.407-16.334 .938-.938 14.679,13.752 16.335,15.409 .937,.937-6.677,7.602-7.352,8.277-1.574,1.574-7.216,9.308-9.649,7.55-3.667-2.65-7.155,3.427-3.533,6.043z"/>
</g>
</svg>
