<svg xmlns="http://www.w3.org/2000/svg" viewBox="20 20 321 321">
<g fill="#000">
<path d="m93.333,73.667c0,48.486 0,96.972 0,145.457 0,23.015 0,46.028 0,69.043 0,4.514 7,4.514 7,0 0-48.485 0-96.972 0-145.458 0-23.014 0-46.028 0-69.042 0-4.514-7-4.514-7-0z"/>
<path d="m168.792,282.098c.445,3.405 2.331,4.803 5.551,5.665 2.625,.702 5.327,.979 7.946,1.748 2.72,.799 5.171,1.823 8.025,2.177 6.282,.776 12.607,.425 18.911,.135 7.635-.353 15.272-.271 22.905-.588 9.347-.388 18.035-2.408 26.761-5.719 4.507-1.71 16.901-5.353 13.598-12.335-3.65-7.714-16.244-9.309-23.488-10.614-4.565-.822-9.143-1.827-13.729-.84-5.145,1.107-10.074,3.276-15.079,4.866-10.719,3.403-25.819-1.583-35.125,4.646-4.833,3.234-15.582,2.585-16.276,10.859-.162,1.929 2.839,1.913 3,0 .546-6.499 11.689-5.536 15.479-8.801 1.834-1.581 5.821-1.634 8.328-1.844 8.945-.748 17.891,.414 26.535-2.331 4.32-1.372 8.54-3.035 12.912-4.247 5.353-1.484 11.054,.155 16.377,1.186 4.953,.959 9.998,2.24 14.458,4.653 1.511,.818 2.812,1.89 3.72,3.352 1.642,2.645-2.189,4.235-3.946,5.204-7.224,3.981-15.802,6.693-23.92,8.063-11.763,1.982-24.104,1.122-35.988,1.646-5.882,.26-11.847,.472-17.646-.715-2.688-.55-5.19-1.767-7.865-2.404-2.247-.535-8.014-.479-8.443-3.762-.249-1.89-3.251-1.914-3.001,0z"/>
<path d="m149.917,278.354c.313,3.034 1.664,5.359 4.654,6.451 5.39,1.969 11.173,2.269 16.581,4.354 11.218,4.325 24.926,2.383 36.599,1.851 13.336-.607 26.759,.054 40.027-1.654 8.784-1.131 17.17-3.812 25.415-6.968 4.405-1.687 8.756-3.572 12.85-5.922 2.153-1.235 6.054-3.587 5.915-6.563-.322-6.938-7.125-10.399-12.801-12.717-5.217-2.131-10.813-3.355-16.32-4.456-5.714-1.144-12.332-2.864-18.19-2.465-9.329,.636-18.439,5.653-27.359,8.154-5.407,1.517-11.011,1.043-16.573,1.138-4.916,.084-9.833,.263-14.736,.639-3.948,.303-8.443,.516-12.063,2.318-2.439,1.214-2.338,1.586-5.462,2.529-6.476,1.956-18.086,4.951-18.537,13.311-.104,1.934 2.896,1.924 3,0 .463-8.57 15.253-8.494 20.633-11.869 1.562-.979 2.361-1.712 4.43-2.211 7.807-1.885 16.38-1.607 24.34-1.743 4.981-.085 9.852,.217 14.722-.944 5.186-1.237 10.21-3.224 15.243-4.952 4.227-1.452 8.66-3.116 13.153-3.422 6.682-.455 14.681,1.93 21.212,3.385 5.282,1.176 10.564,2.713 15.401,5.173 2.595,1.319 9.198,5.769 6.181,9.352-3.122,3.706-9.311,5.726-13.641,7.504-4.429,1.82-8.968,3.411-13.544,4.814-10.162,3.115-20.69,3.871-31.262,4.104-14.479,.318-29.103,1.39-43.578,1.012-5.896-.153-11.357-1.196-16.854-3.28-4.226-1.602-15.835-1.106-16.436-6.921-.197-1.906-3.199-1.925-3-.002z"/>
<path d="m189.483,164.834c16.885-29.245 33.771-58.49 50.655-87.735-2.878,0-5.757,0-8.635,0 16.885,29.245 33.769,58.49 50.653,87.735 1.439-2.508 2.878-5.016 4.317-7.523-33.77,0-67.539,0-101.309,0-6.449,0-6.449,10 0,10 33.77,0 67.539,0 101.309,0 3.806,0 6.211-4.243 4.317-7.523-16.885-29.245-33.769-58.49-50.653-87.735-1.873-3.244-6.762-3.244-8.635,0-16.885,29.245-33.771,58.49-50.655,87.735-3.229,5.594 5.414,10.628 8.636,5.046z"/>
<path d="m232.383,100.226c0,10.382 0,20.765 0,31.147 0,4.514 7,4.514 7,0 0-10.382 0-20.765 0-31.147 0-4.514-7-4.514-7,0z"/>
<path d="m232.383,145.42c0,1.181 0,2.362 0,3.543 0,1.908 1.592,3.5 3.5,3.5s3.5-1.592 3.5-3.5c0-1.181 0-2.362 0-3.543 0-1.908-1.592-3.5-3.5-3.5s-3.5,1.592-3.5,3.5z"/>
<path d="m72.387,212.172c-.019,.729-.037,1.46-.055,2.189-.021,.817 .698,1.5 1.5,1.5 .833,0 1.479-.683 1.5-1.5 .019-.729 .037-1.46 .055-2.189 .021-.817-.698-1.5-1.5-1.5-.833,0-1.479,.682-1.5,1.5z"/>
<path d="m75.094,213.088c2.099-1.478 4.197-2.955 6.296-4.434 1.568-1.104 .071-3.707-1.515-2.59-2.099,1.478-4.197,2.955-6.296,4.434-1.568,1.105-.071,3.707 1.515,2.59z"/>
<path d="m80.233,208.806c1.961,.759 3.923,1.518 5.884,2.276 1.807,.699 2.582-2.202 .798-2.893-1.961-.759-3.923-1.518-5.884-2.276-1.807-.699-2.582,2.202-.798,2.893z"/>
<path d="m88.337,211.005c2.536-3.77 5.072-7.54 7.608-11.311 1.083-1.61-1.517-3.109-2.591-1.514-2.536,3.77-5.072,7.54-7.608,11.311-1.083,1.611 1.517,3.11 2.591,1.514z"/>
<path d="m77.95,218.856c-.831-1.375-1.661-2.75-2.491-4.124-.999-1.653-3.593-.146-2.591,1.514 .831,1.375 1.661,2.75 2.491,4.124 .999,1.653 3.594,.147 2.591-1.514z"/>
<path d="m74.922,219.108c-1.527,2.063-3.054,4.125-4.582,6.188-1.152,1.557 1.453,3.051 2.591,1.514 1.527-2.063 3.054-4.125 4.582-6.188 1.153-1.557-1.453-3.05-2.591-1.514z"/>
<path d="m141.556,179.779c2.619-.352 5.238-.705 7.857-1.057 1.895-.255 2.898-2.656 2.444-4.306-.557-2.023-2.416-2.698-4.306-2.444-2.619,.352-5.238,.705-7.857,1.057-1.895,.255-2.898,2.656-2.444,4.306 .557,2.023 2.417,2.698 4.306,2.444z"/>
<path d="m160.813,180.279c1.02,.563 2.04,1.125 3.06,1.687 1.671,.921 3.807,.42 4.789-1.255 .946-1.614 .413-3.869-1.255-4.789-1.02-.563-2.04-1.125-3.06-1.687-1.671-.921-3.807-.42-4.789,1.255-.946,1.615-.413,3.87 1.255,4.789z"/>
<path d="m173.933,190.358c.649,.967 1.298,1.934 1.947,2.9 1.061,1.58 3.065,2.265 4.789,1.256 1.568-.919 2.321-3.203 1.255-4.789-.648-.967-1.298-1.934-1.947-2.9-1.061-1.58-3.065-2.265-4.789-1.256-1.568,.919-2.32,3.203-1.255,4.789z"/>
<path d="m182.695,207.139c.479,1.062 .957,2.123 1.436,3.185 .784,1.739 3.275,2.143 4.789,1.256 .782-.459 1.368-1.217 1.608-2.092 .271-.982 .05-1.804-.353-2.697-.479-1.062-.957-2.123-1.436-3.185-.784-1.739-3.275-2.143-4.789-1.256-.782,.459-1.368,1.217-1.608,2.092-.27,.982-.049,1.803 .353,2.697z"/>
<path d="m188.432,224.98c.212,1.145 .423,2.289 .635,3.435 .347,1.877 2.587,2.917 4.306,2.444 1.956-.538 2.791-2.432 2.444-4.306-.212-1.145-.423-2.289-.635-3.435-.347-1.877-2.587-2.917-4.306-2.444-1.956,.539-2.791,2.432-2.444,4.306z"/>
<path d="m124.295,187.456c2.322-1.261 4.645-2.522 6.967-3.783 3.968-2.154 .435-8.198-3.533-6.044-2.322,1.261-4.645,2.521-6.967,3.782-3.968,2.154-.435,8.198 3.533,6.045z"/>
<path d="m190.156,243.641c.021,1.165 .042,2.329 .063,3.494 .034,1.907 1.566,3.5 3.5,3.5 1.882,0 3.534-1.592 3.5-3.5-.021-1.165-.042-2.329-.063-3.494-.034-1.907-1.566-3.5-3.5-3.5-1.882,0-3.534,1.591-3.5,3.5z"/>
<path d="m108.711,199.668c1.934-1.801 3.868-3.602 5.802-5.402 1.396-1.3 1.312-3.637 0-4.949-1.385-1.385-3.555-1.299-4.95,0-1.934,1.801-3.868,3.602-5.802,5.402-1.396,1.3-1.312,3.637 0,4.949 1.385,1.385 3.555,1.299 4.95,0z"/>
</g>
</svg>
