<svg xmlns="http://www.w3.org/2000/svg" viewBox="20 20 321 321">
<g fill="#000">
<path d="m113.064,229.134c0-12.637-.434-132.479 .435-132.479 12.264,0 24.527,0 36.79,0 6.393,0 12.787,0 19.18,0 2.6,0 3.275-.333 3.275,2.285 0,26.165 0,52.33 0,78.494 0,17.233 0,34.466 0,51.7 0,4.514 7,4.514 7,0 0-22.177 0-44.353 0-66.529 0-15.152 0-30.304 0-45.456 0-6.771 .94-14.29-.125-21.008-1.015-6.404-6.627-6.485-11.685-6.485-6.857,0-13.715,0-20.572,0-7.799,0-15.598,0-23.396,0-3.722,0-7.792-.481-11.485,.125-8.884,1.458-6.417,14.739-6.417,21.153 0,14.247 0,28.494 0,42.741 0,25.153 0,50.306 0,75.459 0,4.513 7,4.513 7,0z"/>
<path d="m168.834,165.098c2.117,0 4.233,0 6.35,0 4.514,0 4.514-7 0-7-2.117,0-4.233,0-6.35,0-4.514,0-4.514,7 0,7z"/>
<path d="m71,233.504c48.049,0 96.099,0 144.148,0 25.117,0 50.235,0 75.354,0 1.935,0 1.935-3 0-3-48.049,0-96.099,0-144.147,0-25.118,0-50.236,0-75.354,0-1.936,0-1.936,3-.001,3z"/>
<path d="m176.245,227.171c38.196,0 76.392,0 114.587,0 1.935,0 1.935-3 0-3-38.195,0-76.392,0-114.587,0-1.935,0-1.935,3 0,3z"/>
<path d="m71,227.171c13.278,0 26.557,0 39.835,0 1.935,0 1.935-3 0-3-13.278,0-26.557,0-39.835,0-1.935,0-1.935,3 0,3z"/>
<path d="m103.333,252.667c36.556,0 73.112,0 109.668,0 1.935,0 1.935-3 0-3-36.556,0-73.112,0-109.668,0-1.935,0-1.935,3 0,3z"/>
<path d="m111,291.834c38.723,0 77.446,0 116.168,0 1.935,0 1.935-3 0-3-38.723,0-77.446,0-116.168,0-1.935,0-1.935,3 0,3z"/>
<path d="m90.167,257.02c3.167,0 6.333,0 9.5,0 1.935,0 1.935-3 0-3-3.167,0-6.333,0-9.5,0-1.935,0-1.935,3 0,3z"/>
<path d="m90.167,252.667c3.167,0 6.333,0 9.5,0 1.935,0 1.935-3 0-3-3.167,0-6.333,0-9.5,0-1.935,0-1.935,3 0,3z"/>
<path d="m92.167,265.723c3.167,0 6.333,0 9.5,0 1.935,0 1.935-3 0-3-3.167,0-6.333,0-9.5,0-1.935,0-1.935,3 0,3z"/>
<path d="m92.167,261.371c3.167,0 6.333,0 9.5,0 1.935,0 1.935-3 0-3-3.167,0-6.333,0-9.5,0-1.935,0-1.935,3 0,3z"/>
<path d="m92.167,274.426c3.167,0 6.333,0 9.5,0 1.935,0 1.935-3 0-3-3.167,0-6.333,0-9.5,0-1.935,0-1.935,3 0,3z"/>
<path d="m93.167,270.074c3.167,0 6.333,0 9.5,0 1.935,0 1.935-3 0-3-3.167,0-6.333,0-9.5,0-1.935,0-1.935,3 0,3z"/>
<path d="m95.167,283.13c3.167,0 6.333,0 9.5,0 1.935,0 1.935-3 0-3-3.167,0-6.333,0-9.5,0-1.935,0-1.935,3 0,3z"/>
<path d="m93.167,278.777c3.167,0 6.333,0 9.5,0 1.935,0 1.935-3 0-3-3.167,0-6.333,0-9.5,0-1.935,0-1.935,3 0,3z"/>
<path d="m97.167,291.834c3.167,0 6.333,0 9.5,0 1.935,0 1.935-3 0-3-3.167,0-6.333,0-9.5,0-1.935,0-1.935,3 0,3z"/>
<path d="m96.167,287.481c3.167,0 6.333,0 9.5,0 1.935,0 1.935-3 0-3-3.167,0-6.333,0-9.5,0-1.935,0-1.935,3 0,3z"/>
<path d="m219.333,257.02c3.167,0 6.333,0 9.5,0 1.935,0 1.935-3 0-3-3.167,0-6.333,0-9.5,0-1.935,0-1.935,3 0,3z"/>
<path d="m217.333,252.667c3.167,0 6.333,0 9.5,0 1.935,0 1.935-3 0-3-3.167,0-6.333,0-9.5,0-1.935,0-1.935,3 0,3z"/>
<path d="m223.333,265.723c3.167,0 6.333,0 9.5,0 1.935,0 1.935-3 0-3-3.167,0-6.333,0-9.5,0-1.935,0-1.935,3 0,3z"/>
<path d="m222.333,261.371c3.167,0 6.333,0 9.5,0 1.935,0 1.935-3 0-3-3.167,0-6.333,0-9.5,0-1.935,0-1.935,3 0,3z"/>
<path d="m226.333,274.426c3.167,0 6.333,0 9.5,0 1.935,0 1.935-3 0-3-3.167,0-6.333,0-9.5,0-1.935,0-1.935,3 0,3z"/>
<path d="m224.333,270.074c3.167,0 6.333,0 9.5,0 1.935,0 1.935-3 0-3-3.167,0-6.333,0-9.5,0-1.935,0-1.935,3 0,3z"/>
<path d="m229.333,283.13c3.167,0 6.333,0 9.5,0 1.935,0 1.935-3 0-3-3.167,0-6.333,0-9.5,0-1.935,0-1.935,3 0,3z"/>
<path d="m227.333,278.777c3.167,0 6.333,0 9.5,0 1.935,0 1.935-3 0-3-3.167,0-6.333,0-9.5,0-1.935,0-1.935,3 0,3z"/>
<path d="m231.333,291.834c3.167,0 6.333,0 9.5,0 1.935,0 1.935-3 0-3-3.167,0-6.333,0-9.5,0-1.935,0-1.935,3 0,3z"/>
<path d="m230.333,287.481c3.167,0 6.333,0 9.5,0 1.935,0 1.935-3 0-3-3.167,0-6.333,0-9.5,0-1.935,0-1.935,3 0,3z"/>
<path d="m70.749,72.503c48.049,0 96.098,0 144.147,0 25.118,0 50.235,0 75.354,0 1.935,0 1.935-3 0-3-48.049,0-96.099,0-144.147,0-25.118,0-50.236,0-75.354,0-1.935,0-1.935,3-0,3z"/>
<path d="m280.242,172.681c-.798,3.23-12.674,1.486-15.162,1.486-7.697,0-15.395,0-23.091,0-3.864,0-6.698,.997-6.698-3.482 0-6.068 0-12.137 0-18.206 0-13.111 0-26.223 0-39.333 0-3.302 8.498-1.828 10.608-1.828 7.894,0 15.787,0 23.681,0 2.858,0 10.608-1.728 10.608,2.384 0,6.435 0,12.87 0,19.304 0,13.358 0,26.716 0,40.074 0,1.935 3,1.935 3,0 0-11.428 0-22.856 0-34.285 0-6.98 0-13.96 0-20.94 0-3.642 .919-8.185-3.463-9.483-3.907-1.159-9.689-.054-13.71-.054-7.768,0-15.535,0-23.303,0-3.371,0-10.422-1.245-10.422,4.087 0,3.668 0,7.337 0,11.006 0,11.507 0,23.014 0,34.521 0,4.106 0,8.213 0,12.32 0,2.117-.385,5.721 2.271,6.508 2.595,.769 5.469,.407 8.151,.407 5.837,0 11.675,0 17.513,0 5.271,0 10.54,0 15.811,0 3.264,0 6.139,.2 7.099-3.688 .464-1.879-2.429-2.676-2.893-.798z"/>
<path d="m270.127,154.237c1.332,4.257 2.665,8.514 3.997,12.771 .575,1.84 3.472,1.054 2.893-.798-1.332-4.257-2.665-8.514-3.997-12.771-.577-1.839-3.473-1.053-2.893,.798z"/>
<path d="m237.029,158.328c3.124-3.434 6.249-6.869 9.373-10.303 1.299-1.427-.816-3.555-2.121-2.121-3.124,3.434-6.249,6.869-9.373,10.303-1.299,1.427 .817,3.555 2.121,2.121z"/>
<path d="m251.742,150.764c1.203,2.555 2.407,5.109 3.611,7.664 .824,1.749 3.41,.225 2.59-1.515-1.203-2.555-2.407-5.109-3.611-7.664-.824-1.749-3.41-.225-2.59,1.515z"/>
<path d="m257.564,162.686c2.198-3.353 4.396-6.706 6.593-10.059 1.064-1.624-1.534-3.125-2.59-1.515-2.198,3.354-4.396,6.706-6.593,10.06-1.064,1.623 1.535,3.124 2.59,1.514z"/>
<path d="m263.742,147.154c2.198,2.716 4.396,5.432 6.594,8.148 1.218,1.504 3.326-.632 2.121-2.121-2.198-2.716-4.396-5.432-6.594-8.148-1.217-1.504-3.326,.632-2.121,2.121z"/>
<path d="m240.776,150.179c2.396-1.596 4.791-3.192 7.187-4.789 1.602-1.067 .102-3.667-1.514-2.591-2.396,1.596-4.791,3.192-7.187,4.789-1.601,1.068-.101,3.667 1.514,2.591z"/>
<path d="m249.856,125.348c3.14-.535 6.279-1.069 9.419-1.604 1.904-.324 1.095-3.215-.797-2.893-3.14,.535-6.279,1.069-9.419,1.604-1.904,.324-1.094,3.215 .797,2.893z"/>
<path d="m258.859,122.86c2.163,1.223 4.327,2.447 6.491,3.67 1.687,.953 3.197-1.639 1.514-2.591-2.163-1.223-4.327-2.447-6.491-3.67-1.685-.953-3.197,1.639-1.514,2.591z"/>
<path d="m264.586,129.394c-.039,1.012-.078,2.024-.117,3.036-.031,.817 .706,1.5 1.5,1.5 .842,0 1.469-.683 1.5-1.5 .039-1.012 .078-2.024 .117-3.036 .031-.817-.706-1.5-1.5-1.5-.842,0-1.469,.683-1.5,1.5z"/>
<path d="m235.498,159.232c1.719,0 3.438,0 5.156,0 1.935,0 1.935-3 0-3-1.719,0-3.438,0-5.156,0-1.935,0-1.935,3 0,3z"/>
<path d="m235.942,160.438c4.373,1.494 8.746,2.988 13.119,4.482 1.836,.627 2.617-2.271 .797-2.893-4.373-1.494-8.746-2.988-13.119-4.482-1.836-.627-2.617,2.271-.797,2.893z"/>
<path d="m235.969,170.809c2.451,0 4.902,0 7.354,0 1.935,0 1.935-3 0-3-2.451,0-4.902,0-7.354,0-1.935,0-1.935,3 0,3z"/>
<path d="m251.945,166.368c1.932,0 3.863,0 5.795,0 1.935,0 1.935-3 0-3-1.932,0-3.863,0-5.795,0-1.934,0-1.934,3-0,3z"/>
<path d="m241.711,170.809c1.832,0 3.663,0 5.495,0 1.935,0 1.935-3 0-3-1.832,0-3.663,0-5.495,0-1.935,0-1.935,3 0,3z"/>
<path d="m263.303,137.773c-.468,4.245-11.971,4.099-11.971-.258 0-3.289 0-6.578 0-9.866 0-4.167 11.971-4.164 11.971,.258 0,3.289 0,6.577 0,9.866 0,1.935 3,1.935 3,0 0-4.797 1.599-12.166-3.019-15.236-2.099-1.396-6.243-.637-8.581-.637-3.673,0-5.971,2.108-6.371,5.749-.29,2.637 0,5.464 0,8.117 0,2.982 .331,5.332 3.019,7.119 2.099,1.396 6.243,.637 8.581,.637 3.673,0 5.97-2.108 6.371-5.748 .212-1.922-2.791-1.902-3-.001z"/>
<path d="m252.533,141.361c.657,.261 1.315,.522 1.974,.783 .761,.302 1.646-.324 1.845-1.047 .235-.854-.288-1.544-1.048-1.845-.657-.261-1.315-.522-1.974-.783-.761-.302-1.646,.324-1.845,1.047-.235,.854 .288,1.544 1.048,1.845z"/>
<path d="m237.622,117.384c13.678,0 27.354,0 41.032,0 1.935,0 1.935-3 0-3-13.678,0-27.354,0-41.032,0-1.934,0-1.934,3 0,3z"/>
<path d="m239.044,121.854c2.721,0 5.441,0 8.162,0 1.935,0 1.935-3 0-3-2.721,0-5.441,0-8.162,0-1.935,0-1.935,3 0,3z"/>
<path d="m270.326,121.854c1.761,0 3.521,0 5.281,0 1.935,0 1.935-3 0-3-1.761,0-3.521,0-5.281,0-1.934,0-1.934,3 0,3z"/>
<path d="m238.445,129.369c2.024,0 4.048,0 6.072,0 1.935,0 1.935-3 0-3-2.024,0-4.048,0-6.072,0-1.934,0-1.934,3 0,3z"/>
<path d="m272.256,130.894c2.031,0 4.063,0 6.094,0 1.935,0 1.935-3 0-3-2.031,0-4.063,0-6.094,0-1.935,0-1.935,3 0,3z"/>
<path d="m238.701,135.667c2.396,0 4.791,0 7.187,0 1.935,0 1.935-3 0-3-2.396,0-4.791,0-7.187,0-1.934,0-1.934,3 0,3z"/>
<path d="m238.813,141.807c2.184,0 4.367,0 6.551,0 1.935,0 1.935-3 0-3-2.184,0-4.367,0-6.551,0-1.935,0-1.935,3 0,3z"/>
<path d="m269.941,141.415c2.42,0 4.84,0 7.26,0 1.935,0 1.935-3 0-3-2.42,0-4.84,0-7.26,0-1.934,0-1.934,3 0,3z"/>
<path d="m272.219,135.667c1.243,0 2.487,0 3.73,0 1.935,0 1.935-3 0-3-1.243,0-2.487,0-3.73,0-1.935,0-1.935,3 0,3z"/>
<path d="m272.561,148.464c1.016,0 2.031,0 3.047,0 1.935,0 1.935-3 0-3-1.016,0-2.031,0-3.047,0-1.935,0-1.935,3 0,3z"/>
<path d="m283.005,176.714c-.668,3.627-11.731,1.832-14.206,1.832-7.947,0-15.895,0-23.842,0-1.534,0-13.273,1.362-13.273-1.508 0-3.807 0-7.613 0-11.419 0-15.252 0-30.504 0-45.756 0-3.806 0-7.612 0-11.419 0-2.866 11.741-1.506 13.273-1.506 11.126,0 22.251,0 33.377,0 2.28,0 4.617-.419 4.617,2.588 0,3.445 0,6.891 0,10.336 0,19.083 0,38.167 0,57.25 0,1.935 3,1.935 3,0 0-22.815 0-45.631 0-68.447 0-4.481-3.73-4.728-7.097-4.728-6.849,0-13.697,0-20.546,0-7.15,0-14.301,0-21.451,0-3.39,0-8.174-.374-8.174,4.506 0,22.736 0,45.472 0,68.208 0,3.958 2.892,4.894 6.17,4.894 6.498,0 12.997,0 19.495,0 7.186,0 14.37,0 21.555,0 3.887,0 9.063,1.023 9.994-4.034 .349-1.89-2.543-2.698-2.892-.797z"/>
</g>
</svg>
