<svg xmlns="http://www.w3.org/2000/svg" viewBox="20 20 321 321">
<g fill="#000">
<path d="m278.878,284.736c-.702,5.227-8.171,3.748-11.771,3.748-6.957,0-13.914,0-20.871,0-14.679,0-29.356,0-44.035,0-2.734,0-10.728,.934-8.962-4.1 2.307-6.574 4.613-13.149 6.921-19.725 .847-2.413 1.167-5.91 4.424-5.91 1.375,0 2.751,0 4.127,0 6.084,0 12.169,0 18.254,0 16.877,0 33.755,0 50.632,0 1.792,0 3.585,0 5.378,0 4.813,0 3.9,3.197 3.017,5.716-2.372,6.758-4.743,13.514-7.114,20.271-.643,1.83 2.257,2.61 2.893,.797 2.028-5.779 4.056-11.559 6.084-17.338 .666-1.898 1.333-3.798 1.999-5.697 1.213-3.457-3.398-6.748-6.296-6.748-10.07,0-20.141,0-30.211,0-14.537,0-29.074,0-43.611,0-3.608,0-6.88-.478-9.904,1.86-1.714,1.323-1.875,4.285-2.565,6.252-1.258,3.585-2.515,7.169-3.772,10.754-1.31,3.73-3.918,8.186-3.378,12.206 .504,3.745 4.631,4.662 7.708,4.662 9.542,0 19.084,0 28.626,0 12.4,0 24.802,0 37.202,0 5.822,0 17.021,2.216 18.119-5.951 .252-1.89-2.637-2.707-2.894-.797z"/>
<path d="m269.752,274.983c.067-.266 .137-.595 .208-.986 .071-.393 .149-.827 .239-1.304s.182-.986 .273-1.533c.094-.547 .199-1.107 .313-1.682-.34,.729-.685,1.51-1.039,2.344-.35,.833-.708,1.684-1.078,2.552-.365,.869-.738,1.749-1.117,2.639-.377,.888-.758,1.747-1.143,2.574h-2.606c.538-1.065 1.091-2.162 1.659-3.29 .568-1.127 1.14-2.247 1.715-3.361 .576-1.113 1.154-2.211 1.734-3.289 .581-1.079 1.144-2.101 1.692-3.068h2.144c-.104,.883-.236,1.832-.402,2.848s-.311,1.985-.435,2.911c.722-.882 1.491-1.843 2.312-2.88 .818-1.035 1.574-1.996 2.266-2.879h2.143c-.338,.968-.719,1.993-1.139,3.079-.424,1.087-.863,2.185-1.32,3.3-.456,1.113-.925,2.234-1.41,3.361-.482,1.128-.956,2.218-1.417,3.269h-2.396c.399-.827 .812-1.681 1.237-2.564 .427-.882 .85-1.761 1.273-2.636 .42-.877 .833-1.731 1.235-2.564 .404-.834 .774-1.615 1.114-2.344-.334,.448-.707,.939-1.115,1.471-.409,.532-.809,1.057-1.197,1.576-.391,.52-.748,.994-1.078,1.43-.328,.434-.586,.777-.773,1.028h-1.892z"/>
<path d="m268.059,266.578l-6.064,13.009h-7.881l1-2.144h5.296l1.362-2.922h-4.602l1-2.143h4.602l1.704-3.656h-5.759l1-2.145h8.342z"/>
<path d="m249.209,266.578h8.176l-6.064,13.009h-2.607l5.066-10.864h-5.569l.998-2.145z"/>
<path d="m242.277,266.305c1.834,0 2.962,.588 3.379,1.766 .418,1.177 .122,2.851-.891,5.021-.504,1.08-1.099,2.039-1.785,2.881-.686,.84-1.428,1.551-2.224,2.132-.798,.583-1.624,1.022-2.489,1.324-.859,.301-1.719,.452-2.572,.452-.463,0-.862-.039-1.197-.115-.334-.078-.621-.164-.854-.264-.236-.098-.42-.203-.558-.314-.138-.113-.242-.195-.313-.252l1.633-2.061c.225,.211 .529,.39 .916,.537 .387,.146 .875,.221 1.463,.221 .406,0 .836-.074 1.291-.221 .454-.147 .91-.394 1.371-.735 .463-.343 .921-.803 1.378-1.376 .458-.576 .886-1.289 1.284-2.145 .692-1.486 .967-2.623 .825-3.414-.142-.793-.795-1.188-1.958-1.188-.673,0-1.266,.076-1.777,.23-.515,.154-.94,.309-1.278,.462l.3-2.037c.469-.226 1.058-.431 1.77-.622 .711-.187 1.474-.282 2.286-.282z"/>
<path d="m234.258,273.092c-1.045,2.243-2.247,3.934-3.607,5.076-1.358,1.143-2.772,1.713-4.244,1.713-1.526,0-2.424-.57-2.69-1.713s.124-2.833 1.169-5.076c1.045-2.239 2.242-3.933 3.586-5.074s2.76-1.713 4.246-1.713c1.525,0 2.426,.571 2.699,1.713 .273,1.141-.113,2.835-1.159,5.074zm-2.626,0c.294-.629 .544-1.221 .753-1.774 .21-.554 .336-1.033 .379-1.44 .041-.406-.014-.727-.17-.967-.156-.236-.457-.355-.906-.355-.434,0-.843,.119-1.227,.355-.385,.24-.746,.564-1.086,.978-.341,.413-.663,.895-.967,1.44-.303,.545-.604,1.135-.896,1.764-.294,.632-.545,1.225-.754,1.776-.209,.554-.334,1.032-.378,1.44-.041,.406 .016,.729 .171,.965 .154,.24 .455,.359 .904,.359 .447,0 .859-.119 1.238-.359 .378-.236 .734-.563 1.076-.977 .34-.412 .66-.893 .965-1.439 .304-.545 .604-1.134 .898-1.766z"/>
<path d="m217.907,279.587c.04-.296 .093-.673 .161-1.136 .068-.461 .143-.959 .223-1.491s.162-1.071 .251-1.618c.085-.547 .159-1.051 .223-1.514-.411,.52-.837,1.055-1.275,1.607-.44,.555-.864,1.086-1.271,1.598s-.785,.99-1.135,1.439c-.348,.449-.646,.818-.896,1.114h-2.144c.431-1.136 .852-2.243 1.264-3.321 .41-1.078 .832-2.146 1.264-3.205 .431-1.057 .873-2.121 1.331-3.192 .457-1.071 .934-2.169 1.428-3.29h2.374l-4.838,10.109 4.164-5.506h1.891l-1.033,5.506 4.609-10.109h2.374c-.538,1.064-1.101,2.172-1.686,3.32-.585,1.15-1.169,2.291-1.755,3.426-.584,1.135-1.164,2.234-1.737,3.299s-1.12,2.053-1.644,2.964h-2.143z"/>
<path d="m215.523,266.578l-6.064,13.009h-7.881l1-2.144h5.296l1.362-2.922h-4.602l.999-2.143h4.602l1.705-3.656h-5.759l.999-2.145h8.343z"/>
</g>
<path fill="none"  stroke="#000" stroke-width="10" d="m286.894,241.774c0,2.761-2.197,4.997-4.908,4.997h-75.257c-2.711,0-4.908-2.236-4.908-4.997v-162.111c0-2.759 2.197-4.996 4.908-4.996h75.257c2.711,0 4.908,2.237 4.908,4.996v162.111z"/>
<g fill="#000">
<path d="m203.441,165.559c2.7,0 5.401,0 8.102,0 2.726,0 5-2.274 5-5s-2.274-5-5-5c-2.7,0-5.401,0-8.102,0-2.726,0-5,2.274-5,5s2.275,5 5,5z"/>
<path d="m291.782,240.104c-.87-6.262-6.281-7.43-11.529-7.43-5.77,0-11.539,0-17.309,0-15.377,0-30.753,0-46.13,0-3.316,0-6.633,0-9.949,0-4.335,0-7.836,3.234-8.42,7.43-.639,4.591 2.065,7.872 6.136,9.534 2.757,1.126 7.399,.299 10.226,.299 6.971,0 13.94,0 20.91,0 12.329,0 24.658,0 36.988,0 7.185,0 19.202,1.784 19.202-8.902 0-4.514-7-4.514-7,0 0,3.184-7.88,1.902-9.486,1.902-6.971,0-13.94,0-20.91,0-14.38,0-28.76,0-43.141,0-1.367,0-2.734,0-4.101,0-2.588,0-2.05-3.263 .182-3.263 4.36,0 8.722,0 13.082,0 15.578,0 31.155,0 46.733,0 3.863,0 7.727,0 11.591,0 2.115,0 5.726-.943 6.175,2.291 .619,4.456 7.364,2.553 6.75-1.861z"/>
<path d="m203.444,165.606c2.704,0 5.408,0 8.112,0 4.514,0 4.514-7 0-7-2.704,0-5.408,0-8.112,0-4.513,0-4.513,7 0,7z"/>
<path d="m252.292,113.054c-.35,1.294-13.533,.371-15.553,.371-.298,0-.148-13.351-.148-14.894 0-.038 14.158-.019 15.631-.019 .033,0 .017,13.528 .017,14.94 0,1.935 3,1.935 3,0 0-3.55 0-7.101 0-10.651 0-2.392 .79-7.29-2.972-7.29-3.578,0-7.157,0-10.735,0-2.804,0-6.944-.912-7.887,2.574-.824,3.048-.054,7.241-.054,10.374 0,2.806-.917,6.967 2.573,7.911 3.064,.829 7.284,.054 10.433,.054 2.887,0 7.608,1.056 8.588-2.573 .504-1.87-2.39-2.663-2.893-.797z"/>
<path d="m252.292,146.967c-.35,1.294-13.533,.371-15.553,.371-.298,0-.148-13.351-.148-14.893 0-.039 14.158-.02 15.631-.02 .033,0 .017,13.528 .017,14.94 0,1.935 3,1.935 3,0 0-3.55 0-7.101 0-10.651 0-2.391 .79-7.29-2.972-7.29-3.578,0-7.157,0-10.735,0-2.804,0-6.944-.912-7.887,2.575-.824,3.049-.054,7.241-.054,10.374 0,2.806-.917,6.966 2.573,7.91 3.064,.829 7.284,.054 10.433,.054 2.887,0 7.608,1.056 8.588-2.573 .504-1.869-2.39-2.662-2.893-.797z"/>
<path d="m252.292,178.92c-.35,1.293-13.533,.371-15.553,.371-.298,0-.148-13.351-.148-14.893 0-.038 14.158-.019 15.631-.019 .033,0 .017,13.528 .017,14.94 0,1.935 3,1.935 3,0 0-3.55 0-7.101 0-10.651 0-2.392 .791-7.29-2.972-7.29-3.578,0-7.157,0-10.735,0-2.804,0-6.944-.912-7.887,2.574-.824,3.048-.054,7.241-.054,10.374 0,2.806-.917,6.967 2.573,7.91 3.064,.829 7.284,.054 10.433,.054 2.887,0 7.608,1.057 8.588-2.573 .504-1.869-2.389-2.662-2.893-.797z"/>
<path d="m252.292,212.834c-.35,1.295-13.532,.371-15.553,.371-.298,0-.148-13.352-.148-14.894 0-.04 14.157-.021 15.631-.021 .033,0 .017,13.529 .017,14.941 0,1.935 3,1.935 3,0 0-3.55 0-7.101 0-10.65 0-2.392 .79-7.291-2.972-7.291-3.578,0-7.157,0-10.735,0-2.805,0-6.945-.912-7.887,2.576-.823,3.049-.054,7.239-.054,10.373 0,2.807-.917,6.966 2.573,7.911 3.063,.83 7.285,.054 10.433,.054 2.888,0 7.608,1.057 8.588-2.574 .504-1.869-2.389-2.662-2.893-.796z"/>
<path d="m109.782,191.755c9.361-8.565 18.723-17.13 28.083-25.696 1.43-1.309-.697-3.424-2.121-2.121-9.361,8.565-18.723,17.13-28.083,25.696-1.43,1.308 .697,3.424 2.121,2.121z"/>
<path d="m106.378,206.977c14.081-13.359 28.161-26.718 42.242-40.077 1.406-1.334-.719-3.452-2.121-2.121-14.081,13.359-28.161,26.718-42.242,40.077-1.406,1.333 .719,3.452 2.121,2.121z"/>
<path d="m115.606,210.773c9.787-9.285 19.573-18.57 29.359-27.855 1.406-1.334-.719-3.452-2.121-2.121-9.787,9.285-19.573,18.57-29.359,27.855-1.406,1.334 .719,3.452 2.121,2.121z"/>
<path d="m101.425,114.787c7.015-6.655 14.029-13.31 21.043-19.965 1.406-1.334-.719-3.452-2.121-2.121-7.015,6.655-14.029,13.31-21.043,19.965-1.407,1.334 .718,3.451 2.121,2.121z"/>
<path d="m102.002,128.614c10.94-10.38 21.881-20.76 32.821-31.14 1.406-1.334-.719-3.452-2.121-2.121-10.94,10.38-21.881,20.76-32.821,31.14-1.406,1.334 .719,3.452 2.121,2.121z"/>
<path d="m115.173,128.563c7.604-7.214 15.208-14.428 22.812-21.643 1.406-1.334-.719-3.452-2.121-2.121-7.604,7.214-15.208,14.428-22.812,21.643-1.406,1.334 .719,3.452 2.121,2.121z"/>
<path d="m154,218.128c-.623,6.175-9.75,4.5-13.943,4.5-7.62,0-15.24,0-22.86,0-7.333,0-14.666,0-21.999,0-3.7,0-11.825,1.329-11.825-4.59 0-23.303 0-46.605 0-69.908 0-14.882 0-29.764 0-44.646 0-4.173-2.667-21.855 4.688-21.855 12.348,0 24.696,0 37.044,0 6.701,0 13.401,0 20.102,0 3.77,0 8.792-.439 8.792,5.129 .001,43.789 .001,87.579 .001,131.37 0,1.935 3,1.935 3,0 0-22.333 0-44.667 0-67 0-15.163 0-30.326 0-45.488 0-4.861 0-9.722 0-14.582 0-1.943 .418-4.624-.175-6.538-1.65-5.313-5.859-5.892-10.601-5.892-6.395,0-12.789,0-19.183,0-12.885,0-25.769,0-38.653,0-9.356,0-8.015,9.822-8.015,16.194 0,13.168 0,26.336 0,39.504 0,27.017 0,54.033 0,81.05 0,3.428 .138,6.356 3.085,8.788 2.743,2.263 7.793,1.464 11.081,1.464 14.922,0 29.845,0 44.767,0 6.724,0 16.756,1.808 17.694-7.5 .193-1.925-2.809-1.905-3,0z"/>
<path d="m159.96,225.667c-.384,3.806-7.858,2.5-10.32,2.5-6.885,0-13.771,0-20.656,0-14.558,0-29.116,0-43.674,0-2.232,0-7.977,.983-7.977-2.643 0-2.263 0-4.524 0-6.787 0-11.997 0-23.995 0-35.993 0-30.056 0-60.111 0-90.167 0-3.104-2.097-16.41 3.091-16.41 11.912,0 23.824,0 35.736,0 13.124,0 26.247,0 39.37,0 2.606,0 4.43,.923 4.43,3.753 0,3.243 0,6.486 0,9.729 0,29.484 0,58.968 0,88.452 0,15.855 0,31.711 0,47.566 0,4.514 7,4.514 7,0 0-47.757 0-95.514 0-143.271 0-2.546 .302-5.526-.949-7.832-2.679-4.936-7.124-5.398-12.051-5.398-13.918,0-27.837,0-41.755,0-10.768,0-21.536,0-32.304,0-10.828,0-9.567,11.543-9.567,18.867 0,29.076 0,58.151 0,87.226 0,13.142 0,26.284 0,39.425 0,7.106-1.862,19.336 8.291,20.359 5.083,.513 10.353,.122 15.453,.122 10.337,0 20.674,0 31.012,0 8.965,0 17.93,0 26.895,0 7.042,0 14.083-.631 14.977-9.5 .451-4.488-6.554-4.445-7.002,.002z"/>
</g>
</svg>
