<svg xmlns="http://www.w3.org/2000/svg" viewBox="20 20 321 321">
<g fill="#000">
<path d="m203.268,183.674c5.324-4.228 5.694,5.563 5.846,8.319 .24,4.383 .472,8.767 .695,13.15 .236,4.644 .461,9.287 .643,13.933 .091,2.341 1.258,7.287-.715,8.35 .752,.432 1.505,.863 2.257,1.295-.147-4.766-.313-9.529-.474-14.295-.08-2.377-.921-8.32-.378-9.719-.982-.133-1.964-.266-2.946-.398 .416,6.912 .388,13.877 .567,20.799 .099,3.794 .197,7.588 .294,11.382 .02,.743 .039,1.486 .058,2.229 .048,1.883 .493,1.399-1.214,1.72-.871,.163-1.742,.327-2.613,.49-1.9,.356-1.094,3.247 .797,2.893 3.706-.695 6.146-.613 6.03-5.103-.083-3.256-.167-6.513-.252-9.769-.212-8.2-.175-16.453-.667-24.642-.105-1.753-2.338-1.963-2.946-.398-.931,2.393 .149,6.914 .233,9.406 .173,5.135 .352,10.27 .511,15.404 .036,1.156 1.241,1.842 2.257,1.295 3.722-2.004 2.359-6.348 2.234-10.022-.237-6.982-.624-13.96-.991-20.936-.229-4.344-.244-8.755-.899-13.059-.89-5.833-5.987-7.988-10.447-4.446-1.516,1.204 .622,3.311 2.12,2.122z"/>
<path d="m212.184,192.674c-.137-4.428-4.182-7.868-8.523-7.979-1.936-.049-1.931,2.951 0,3 2.673,.068 5.438,2.219 5.523,4.979 .059,1.93 3.059,1.935 3,0z"/>
<path d="m285.273,280.704c-.557,6.133-13.232,4.02-17.246,4.02-11.962,0-23.924,0-35.886,0-32.044,0-64.087,0-96.13,0-18.376,0-36.753,0-55.129,0-6.099,0-4.22-11.427-4.22-15.152 0-11.515 0-23.029 0-34.544 0-51.237 0-102.474 0-153.711 0-6.025 9.963-4.342 13.791-4.342 11.118,0 22.237,0 33.355,0 31.899,0 63.798,0 95.698,0 20.29,0 40.579,0 60.869,0 6.354,0 4.898,7.672 4.898,11.958 0,10.63 0,21.259 0,31.889 0,52.873 0,105.746 0,158.619 0,.42 0,.842 0,1.263 0,4.514 7,4.514 7,0 0-49.311 0-98.622 0-147.933 0-17.259 0-34.518 0-51.776 0-11.111-10.744-11.021-18.613-11.021-10.472,0-20.943,0-31.415,0-53.276,0-106.553,0-159.83,0-8.205,0-12.753,5.455-12.753,13.322 0,8.177 0,16.355 0,24.532 0,30.63 0,61.261 0,91.892 0,25.009 0,50.018 0,75.026 0,7.666 .881,16.977 11.22,16.977 5.643,0 11.286,0 16.929,0 56.739,0 113.477,0 170.216,0 9.453,0 23.048,2.178 24.246-11.02 .409-4.496-6.595-4.456-7,.001z"/>
<path d="m105.032,73.475c0,48.348 0,96.695 0,145.043 0,23.235 0,46.471 0,69.706 0,4.514 7,4.514 7,0 0-48.348 0-96.695 0-145.042 0-23.236 0-46.471 0-69.707 0-4.515-7-4.515-7,0z"/>
<path d="m219.965,73.475c0,48.348 0,96.695 0,145.043 0,23.235 0,46.471 0,69.706 0,4.514 7,4.514 7,0 0-48.348 0-96.695 0-145.042 0-23.236 0-46.471 0-69.707 0-4.515-7-4.515-7,0z"/>
<path d="m108.532,160.359c38.311,0 76.623,0 114.933,0 4.514,0 4.514-7 0-7-38.311,0-76.622,0-114.933,0-4.514,0-4.514,7 0,7z"/>
<path d="m108.532,260.833c38.311,0 76.623,0 114.933,0 4.514,0 4.514-7 0-7-38.311,0-76.622,0-114.933,0-4.514-0-4.514,7 0,7z"/>
<path d="m74.532,242.879c11.333,0 22.667,0 34,0 4.514,0 4.514-7 0-7-11.333,0-22.667,0-34,0-4.514,0-4.514,7 0,7z"/>
<path d="m223.465,222.879c20.789,0 41.579,0 62.368,0 4.514,0 4.514-7 0-7-20.789,0-41.579,0-62.368,0-4.514,0-4.514,7-0,7z"/>
<path d="m108.532,173.886c38.311,0 76.623,0 114.933,0 1.935,0 1.935-3 0-3-38.311,0-76.622,0-114.933,0-1.935,0-1.935,3 0,3z"/>
<path d="m76.606,146.917c9.951,0 19.901,0 29.852,0 4.514,0 4.514-7 0-7-9.951,0-19.901,0-29.852,0-4.514,0-4.514,7 0,7z"/>
<path d="m76.606,108.294c9.951,0 19.901,0 29.852,0 4.514,0 4.514-7 0-7-9.951,0-19.901,0-29.852,0-4.514,0-4.514,7 0,7z"/>
<path d="m224.377,146.917c21.466,0 42.931,0 64.396,0 4.514,0 4.514-7 0-7-21.466,0-42.931,0-64.396,0-4.514,0-4.514,7 0,7z"/>
<path d="m224.377,108.294c21.466,0 42.931,0 64.396,0 4.514,0 4.514-7 0-7-21.466,0-42.931,0-64.396,0-4.514,0-4.514,7 0,7z"/>
<path d="m98.672,224.625c-.292,2.808-7.231,1.561-9.083,1.561-2.637,0-8.276,1.397-8.276-2.421 0-1.462 8.038-.921 8.841-.921 1.854-0 8.518-1.015 8.518,1.781 0,1.935 3,1.935 3,0 0-6.096-6.321-4.781-10.721-4.781-3.475,0-12.638-1.537-12.638,3.921 0,6.602 5.618,5.421 10.474,5.421 4.741,0 12.218,1.852 12.886-4.561 .199-1.924-2.803-1.904-3.001,0z"/>
<path d="m81.873,216c.292-2.811 7.228-1.563 9.083-1.563 2.638,0 8.276-1.398 8.276,2.422 0,1.462-8.039,.921-8.841,.921-1.854,0-8.518,1.015-8.518-1.78 0-1.935-3-1.935-3,0 0,6.095 6.322,4.78 10.72,4.78 3.475,0 12.639,1.536 12.639-3.921 0-6.603-5.617-5.422-10.474-5.422-4.743,0-12.218-1.852-12.885,4.563-.2,1.924 2.802,1.904 3,0z"/>
<path d="m82.433,230.107c.25-1.924 7.14-.956 8.277-.956 1.203,0 8.827-1.015 9.083,.956 .219,1.686-6.867,1.133-8.05,1.133-1.186,0-9.31,.782-9.31-1.133 0-1.935-3-1.935-3,0 0,5.523 6.882,4.133 10.721,4.133 3.371,0 12.639,1.557 12.639-3.667 0-5.956-7.263-4.422-11.276-4.422-4.144,0-11.353-1.671-12.083,3.956-.249,1.915 2.754,1.891 2.999,0z"/>
<path d="m81.873,208.75c.25-1.926 7.138-.957 8.276-.957 1.204,0 8.827-1.016 9.083,.957 .219,1.686-6.867,1.133-8.05,1.133-1.185,0-9.309,.782-9.309-1.133 0-1.935-3-1.935-3,0 0,5.523 6.882,4.133 10.72,4.133 3.371,0 12.639,1.556 12.639-3.667 0-5.957-7.262-4.423-11.276-4.423-4.145,0-11.353-1.671-12.083,3.957-.248,1.915 2.755,1.891 3,0z"/>
<path d="m279.576,197.512c-.428,4.832-6.022,3.849-9.214,3.849-4.726,0-9.451,0-14.177,0s-9.451,0-14.177,0c-3.225,0-9.214,.996-9.214-4.165 0-4.932 7.21-3.915 10.832-3.915 4.146,0 8.29,0 12.436,0 4.649,0 9.299,0 13.947,0 3.775-.001 9.567-.953 9.567,4.231 0,1.935 3,1.935 3,0 0-6.477-4.304-7.231-10.11-7.231-5.136,0-10.272,0-15.408,0-4.819,0-9.638,0-14.456,0s-12.807-.319-12.807,6.218c0,5.514 3.194,7.862 8.466,7.862 5.646,0 11.293,0 16.939,0 6.024,0 12.049,0 18.073,0 4.942,0 8.811-1.281 9.303-6.849 .171-1.928-2.831-1.911-3,0z"/>
<path d="m234.166,182.445c.427-4.832 6.021-3.848 9.212-3.848 4.726,0 9.451,0 14.177,0s9.451,0 14.177,0c3.225,0 9.214-.997 9.214,4.165 0,4.932-7.21,3.914-10.832,3.914-4.146,0-8.29,0-12.436,0-4.648,0-9.298,0-13.946,0-3.775,0-9.566,.953-9.566-4.231 0-1.935-3-1.935-3,0 0,6.477 4.303,7.23 10.109,7.23 5.136,0 10.271,0 15.408,0 4.818,0 9.637,0 14.455,0s12.807,.32 12.807-6.217c0-5.515-3.193-7.862-8.466-7.862-5.646,0-11.293,0-16.939,0-6.024,0-12.049,0-18.073,0-4.942,0-8.809,1.281-9.301,6.848-.17,1.929 2.831,1.912 3,.001z"/>
<path d="m232.795,207.092c.463-3.65 6.678-2.792 9.214-2.792 4.726,0 9.451,0 14.177,0s9.451,0 14.177,0c2.661,0 9.214-.886 9.214,3.214 0,3.656-8.035,2.677-10.832,2.677-4.146,0-8.29,0-12.436,0-4.649,0-9.299,0-13.947,0-3.305-.001-9.567,1.186-9.567-3.099 0-1.935-3-1.935-3,0 0,6.072 5.206,6.099 10.238,6.099 5.094,0 10.188,0 15.28,0 4.805,0 9.608,0 14.412,0 4.616,0 12.851,.693 12.851-5.677 0-5.19-4.554-6.214-8.858-6.214-5.516,0-11.031,0-16.547,0-5.86,0-11.72,0-17.58,0-4.533,0-9.113,.408-9.796,5.792-.243,1.916 2.76,1.892 3,0z"/>
<path d="m232.795,169.78c.463-3.65 6.678-2.792 9.214-2.792 4.726,0 9.451,0 14.177,0s9.451,0 14.177,0c2.661,0 9.214-.886 9.214,3.214 0,3.657-8.035,2.678-10.832,2.678-4.146,0-8.29,0-12.436,0-4.649,0-9.299,0-13.947,0-3.305,0-9.567,1.186-9.567-3.1 0-1.935-3-1.935-3,0 0,6.072 5.206,6.1 10.238,6.1 5.094,0 10.188,0 15.28,0 4.805,0 9.608,0 14.412,0 4.616,0 12.851,.692 12.851-5.678 0-5.19-4.554-6.214-8.858-6.214-5.516,0-11.031,0-16.547,0-5.86,0-11.72,0-17.58,0-4.533,0-9.113,.409-9.796,5.792-.243,1.916 2.76,1.892 3,0z"/>
<path d="m186.881,274.799c-.493,5.509-6.955,4.326-10.813,4.326-1.66,0-3.201,.158-4.778-.591-2.428-1.152-2.143-4.063-2.143-6.241 0-5.508 7.276-4.326 10.812-4.326 1.661,0 3.202-.158 4.779,.591 2.428,1.152 2.143,4.062 2.143,6.241 0,1.935 3,1.935 3,0 0-6.848-3.186-9.832-9.921-9.832-5.994,0-13.107-.535-13.812,7.326-.617,6.877 3.614,9.832 9.921,9.832 5.994,0 13.108,.536 13.813-7.326 .172-1.928-2.83-1.911-3.001,0z"/>
<path d="m211.771,274.799c-.493,5.509-6.955,4.326-10.813,4.326-1.66,0-3.201,.158-4.778-.591-2.428-1.152-2.143-4.063-2.143-6.241 0-5.508 7.275-4.326 10.812-4.326 1.66,0 3.202-.158 4.779,.591 2.429,1.152 2.143,4.062 2.143,6.241 0,1.935 3,1.935 3,0 0-6.848-3.186-9.832-9.922-9.832-5.993,0-13.106-.535-13.812,7.326-.616,6.877 3.613,9.832 9.921,9.832 5.994,0 13.108,.536 13.813-7.326 .173-1.928-2.829-1.911-3,0z"/>
<path d="m159.149,143.651c-.577,2.755-4.642,3.159-6.944,3.979-4.185,1.492-8.679,1.949-13.086,2.141-6.55,.286-13.177-.86-18.743-3.701-4.368-2.229 .325-5.592 2.512-6.194 .542-.149 1.092-.462 1.617-.657 4.994-1.859 10.434-2.279 15.714-2.292 2.915-.007 18.875,1.488 18.875,7.123 0,1.935 3,1.935 3,0 0-8.376-16.396-9.957-21.875-10.123-5.966-.181-24.438,.648-24.438,9.768 0,1.714 .779,3.29 2.177,4.308 1.286,.937 3.4,1.323 3.884,1.684 3.278,2.446 8.124,2.738 12.025,3.019 6.657,.479 13.938-.169 20.216-2.582 3.106-1.193 7.121-1.68 7.958-5.675 .396-1.887-2.496-2.691-2.892-.798z"/>
<path d="m159.149,127.917c-1.069,3.965-15.401,5.025-18.286,5.21-4.955,.318-10.149,.139-14.957-1.18-1.619-.444-2.275-1.234-3.417-1.378-8.175-1.03-1.528-4.95 .757-5.922 .163-.069 1.457-.49 1.962-.643 4.847-1.471 9.978-1.794 15.012-1.805 2.166-.005 18.875,1.136 18.875,6.116 0,1.935 3,1.935 3,0 0-7.375-15.345-8.8-20.159-9.071-6.35-.356-13.228,.294-19.259,2.431-3.14,1.113-6.895,1.811-6.895,6.035 0,4.421 4.003,4.4 6.236,5.85 3.701,2.405 9.186,2.469 13.39,2.634 6.187,.243 12.779-.343 18.677-2.344 3.07-1.042 6.948-1.388 7.958-5.136 .503-1.87-2.391-2.663-2.894-.797z"/>
<path d="m139.23,181.167c.641,.182 .2-.212 .063-.791-.233-.992-.278-2.033-.348-3.046-.143-2.061-.117-4.139-.024-6.201-1,0-2,0-3,0 0,.208 0,.417 0,.625 0,1.944 2.905,1.921 3,0 .02-.405 .001-2.694 .758-2.897-.633-.482-1.266-.964-1.899-1.446 0,.012 0,.025 0,.037 0,.687 .461,1.243 1.101,1.446 .838,.266 .676,3.304 .625,4.013-.14,1.931 2.861,1.918 3,0 .167-2.32-.188-6.068-2.827-6.906 .367,.482 .734,.964 1.101,1.446 0-.012 0-.025 0-.037 0-.979-.957-1.699-1.899-1.446-2.475,.665-2.853,3.608-2.96,5.79 1,0 2,0 3,0 0-.208 0-.417 0-.625 0-1.943-2.914-1.923-3,0-.122,2.717-1.222,11.873 2.511,12.931 1.866,.528 2.656-2.367 .798-2.893z"/>
<path d="m137.287,184.711c-.081,.354-.777,.828-.581,.775 .306-.082 .135-.04 .369-.065 .458-.05 .919-.059 1.379-.062s.92,.021 1.379,.062c.545,.049-.227-.049 .238,.036 .083,.017 .166,.037 .248,.061-.347-.132-.579-.4-.698-.807 .433,1.886 3.325,1.086 2.893-.797-.373-1.627-2.788-1.547-4.06-1.555-1.269-.008-3.689-.061-4.06,1.555-.433,1.883 2.46,2.683 2.893,.797z"/>
<path d="m126.577,181.167c.64,.182 .199-.212 .063-.791-.233-.992-.277-2.033-.348-3.046-.143-2.061-.116-4.139-.024-6.201-1,0-2,0-3,0 0,.208 0,.417 0,.625 0,1.944 2.905,1.921 3,0 .02-.404 .001-2.694 .757-2.897-.633-.482-1.266-.964-1.899-1.446 0,.012 0,.025 0,.037 0,.687 .461,1.244 1.101,1.446 .839,.267 .678,3.303 .626,4.013-.139,1.931 2.862,1.918 3,0 .167-2.321-.189-6.068-2.829-6.906 .367,.482 .734,.964 1.101,1.446 0-.012 0-.025 0-.037 0-.979-.957-1.7-1.899-1.446-2.475,.665-2.852,3.608-2.959,5.79 1,0 2,0 3,0 0-.208 0-.417 0-.625 0-1.943-2.914-1.923-3,0-.122,2.717-1.223,11.873 2.511,12.931 1.866,.528 2.657-2.367 .799-2.893z"/>
<path d="m124.632,184.711c-.081,.354-.777,.828-.581,.775 .306-.082 .135-.04 .369-.065 .458-.05 .919-.059 1.379-.062 .46-.003 .92,.021 1.379,.062 .545,.049-.227-.049 .238,.036 .083,.017 .166,.037 .248,.061-.347-.132-.579-.4-.698-.807 .433,1.886 3.325,1.086 2.893-.797-.373-1.627-2.788-1.547-4.06-1.555-1.269-.008-3.689-.061-4.06,1.555-.432,1.883 2.461,2.683 2.893,.797z"/>
<path d="m118.526,181.167c.64,.182 .199-.212 .063-.791-.233-.992-.277-2.033-.348-3.046-.143-2.061-.116-4.139-.024-6.201-1,0-2,0-3,0 0,.208 0,.417 0,.625 0,1.944 2.905,1.921 3,0 .02-.404 .001-2.694 .757-2.897-.633-.482-1.266-.964-1.899-1.446 0,.012 0,.025 0,.037 0,.687 .461,1.244 1.101,1.446 .84,.267 .677,3.303 .626,4.013-.14,1.931 2.861,1.918 3,0 .168-2.321-.188-6.068-2.828-6.906 .367,.482 .734,.964 1.101,1.446 0-.012 0-.025 0-.037 0-.979-.957-1.7-1.899-1.446-2.474,.666-2.852,3.608-2.959,5.79 1,0 2,0 3,0 0-.208 0-.417 0-.625 0-1.943-2.914-1.923-3,0-.122,2.717-1.223,11.873 2.511,12.931 1.866,.528 2.657-2.367 .798-2.893z"/>
<path d="m116.583,184.711c-.081,.354-.777,.828-.581,.775 .306-.082 .135-.04 .369-.065 .458-.05 .919-.059 1.379-.062s.92,.021 1.379,.062c.545,.049-.227-.049 .238,.036 .083,.017 .166,.037 .248,.061-.347-.132-.579-.4-.698-.807 .433,1.886 3.325,1.086 2.893-.797-.373-1.627-2.788-1.547-4.06-1.555-1.269-.008-3.689-.061-4.06,1.555-.433,1.883 2.46,2.683 2.893,.797z"/>
<path d="m193.639,185.373c4.007-4.852 7.203,1.721 7.408,5.618 .217,4.116 .426,8.233 .63,12.352 .26,5.235 .507,10.471 .723,15.708 .099,2.409 1.541,10.585-.602,11.801 .752,.432 1.505,.863 2.257,1.295-.251-8.575-.697-17.157-.8-25.736-.367,.482-.734,.965-1.101,1.447 .001-.001 .002-.001 .003-.001-.634-.482-1.267-.965-1.899-1.446 .4,7.066 .376,14.18 .551,21.254 .103,4.13 .203,8.26 .304,12.39 .021,.88 .043,1.759 .064,2.638 .05,2.04 .557,1.537-1.214,1.887-.872,.172-1.744,.345-2.615,.517-1.897,.374-1.092,3.266 .797,2.893 3.908-.771 6.144-.733 6.029-5.403-.082-3.375-.164-6.749-.247-10.123-.213-8.671-.179-17.391-.669-26.051-.057-1.002-.911-1.667-1.898-1.446-.001,0-.002,0-.003,0-.642,.144-1.109,.806-1.102,1.446 .103,8.579 .549,17.161 .8,25.736 .033,1.138 1.248,1.867 2.257,1.295 4.093-2.321 2.317-8.265 2.169-12.32-.273-7.472-.658-14.939-1.035-22.406-.188-3.737 .479-9.368-1.444-12.821-2.833-5.085-7.096-7.955-11.483-2.642-1.223,1.476 .886,3.611 2.12,2.118z"/>
<path d="m155.36,183.654c-2.143-2.735-5.121-2.219-7.516-.054-1.513,1.367-1.415,4.055-1.506,5.907-.388,7.844-.771,15.688-1.146,23.532-.292,6.144-.612,12.286-.901,18.43-.165,3.49-2.487,13.084 2.069,14.826 .652,.25 1.339-.171 1.694-.689 .959-1.398 .702-4.16 .808-5.745 .286-4.258 .433-8.526 .591-12.791 .169-4.565 .31-9.133 .458-13.699 .057-1.761 .116-3.522 .183-5.282 .021-.557 .046-1.113 .074-1.669 .068-1.344 .26-.018-.654,.377-.735-.299-1.469-.598-2.204-.896 .256,1.237-.142,5.336-.199,7.34-.148,5.193-.315,10.386-.482,15.579-.171,5.309-2.262,14.707 6.107,13.428 1.907-.291 1.094-3.182-.798-2.893-3.545,.542-2.541-3.443-2.467-5.698 .128-3.892 .253-7.783 .375-11.676 .164-5.229 1.427-11.711 .356-16.878-.216-1.041-1.377-1.253-2.203-.896-1.242,.535-.888,3.412-.927,4.413-.163,4.229-.28,8.461-.42,12.691-.164,4.94-.339,9.88-.581,14.816-.091,1.872 .175,6.821-.609,7.966 .565-.23 1.129-.46 1.694-.689-1.222-.467 .118-11.625 .181-12.953 .195-4.147 .43-8.293 .62-12.441 .304-6.637 .631-13.273 .956-19.91 .125-2.544 .25-5.088 .375-7.633 .025-.521 .051-1.041 .077-1.563 .028-.561 .569-7.342 3.871-3.128 1.195,1.522 3.303-.618 2.124-2.122z"/>
<path d="m150.918,185.777c3.276-4.188 3.834,2.411 3.861,2.97 .029,.573 .057,1.146 .085,1.719 .125,2.545 .25,5.089 .375,7.633 .326,6.637 .649,13.273 .958,19.91 .192,4.148 .42,8.294 .62,12.441 .063,1.327 1.401,12.487 .18,12.953 .565,.229 1.129,.459 1.694,.689-.68-.992-.478-5.466-.568-7.161-.261-4.887-.424-9.778-.59-14.669-.147-4.357-.275-8.715-.431-13.071-.038-1.05 .377-4.41-.948-4.985-.826-.358-1.988-.144-2.203,.896-1.071,5.167 .193,11.649 .357,16.878 .122,3.893 .248,7.784 .375,11.676 .074,2.255 1.079,6.24-2.467,5.698-1.892-.289-2.705,2.602-.798,2.893 8.369,1.279 6.279-8.12 6.107-13.428-.158-4.895-.313-9.789-.457-14.685-.067-2.278-.538-6.727-.225-8.234-.734,.299-1.469,.598-2.204,.896-1.16-.504-.692-1.367-.6,.805 .071,1.664 .123,3.329 .177,4.994 .149,4.504 .288,9.009 .449,13.514 .155,4.356 .324,8.715 .582,13.067 .104,1.74-.204,4.891 .852,6.43 .355,.519 1.042,.938 1.694,.689 4.402-1.682 2.269-10.41 2.117-13.803-.275-6.128-.608-12.252-.897-18.379-.381-8.057-.778-16.113-1.176-24.169-.1-2.021-.009-4.357-1.292-6.04-2.063-2.704-5.68-2.895-7.75-.249-1.175,1.506 .933,3.645 2.123,2.122z"/>
<path d="m207.564,181.167c.641,.182 .2-.212 .063-.791-.232-.992-.277-2.033-.348-3.046-.144-2.061-.117-4.139-.025-6.201-1,0-2,0-3,0 0,.208 0,.417 0,.625 0,1.944 2.905,1.921 3,0 .02-.405 .001-2.694 .758-2.897-.633-.482-1.266-.964-1.898-1.446 0,.012 0,.025 0,.037 0,.687 .462,1.243 1.102,1.446 .839,.267 .677,3.303 .626,4.013-.139,1.931 2.862,1.918 3,0 .167-2.321-.189-6.068-2.829-6.906 .367,.482 .734,.964 1.102,1.446 0-.012 0-.025 0-.037 0-.979-.957-1.7-1.898-1.446-2.476,.665-2.854,3.608-2.961,5.79 1,0 2,0 3,0 0-.208 0-.417 0-.625 0-1.943-2.914-1.923-3,0-.121,2.717-1.221,11.873 2.513,12.931 1.864,.528 2.654-2.367 .795-2.893z"/>
<path d="m175.887,184.528c.951-1.372 3.913-.535 5.157-.21 1.802,.471 1.529,2.498 1.582,3.93 .075,2.056 .15,4.111 .226,6.167 .257,7.027 .513,14.056 .758,21.083 .155,4.43 .33,8.858 .49,13.288 .059,1.605 1.593,13.343 .095,14.114 .684,.179 1.368,.358 2.052,.538-.555-1.085-.3-5.392-.37-7.16-.194-4.888-.315-9.779-.438-14.669-.11-4.357-.205-8.715-.32-13.072-.033-1.224 .426-4.214-.896-4.985-.763-.445-2.053-.08-2.203,.896-.778,5.048 .11,10.783 .228,15.865 .026,1.154 1.388,18.757-1.046,18.387-1.892-.288-2.705,2.603-.798,2.893 7.271,1.107 5.135-9.052 5.029-13.428-.118-4.895-.232-9.789-.34-14.685-.051-2.336-.423-6.664-.181-8.234-.734,.299-1.469,.598-2.203,.896-1.229-.718-.701-1.22-.637,.805 .053,1.665 .091,3.33 .132,4.994 .11,4.505 .214,9.01 .333,13.514 .115,4.357 .241,8.714 .434,13.067 .084,1.897-.213,4.672 .687,6.43 .386,.756 1.358,.896 2.052,.538 1.587-.816 1.742-2.655 1.741-4.229-.001-3.821-.18-7.647-.313-11.466-.242-6.933-.509-13.865-.756-20.798-.25-6.987-.505-13.974-.762-20.96-.121-3.302-.591-5.382-3.776-6.613-2.728-1.053-6.766-.977-8.545,1.59-1.108,1.594 1.494,3.092 2.588,1.514z"/>
<path d="m187.766,184.207c1.121-2.029 1.916,3.77 1.951,4.854 .082,2.553 .165,5.106 .246,7.659 .231,7.192 .461,14.385 .683,21.577 .138,4.473 .5,8.852 .931,13.306 .18,1.86 2.548,14.434 1.038,15.317 .684,.179 1.368,.358 2.052,.538-.516-1.063-.43-5.056-.551-6.805-.332-4.774-.598-9.554-.866-14.332-.259-4.588-.505-9.175-.772-13.762-.11-1.889 .138-4.367-.479-6.191-.359-1.061-1.667-1.482-2.507-.661-.961,.938-.458,3.459-.44,4.595 .072,4.658 .171,9.316 .266,13.975 .093,4.545 .188,9.089 .286,13.634 .028,1.354 .058,2.708 .087,4.063 .004,.192 .009,.384 .013,.576 1.158,1.139 1.168,1.638 .026,1.497-.959,.074-1.89-.076-2.792-.451-1.839-.617-2.621,2.28-.797,2.893 4.225,1.418 6.659,.516 6.56-4.086-.075-3.426-.147-6.852-.22-10.277-.116-5.5-.229-11-.334-16.501-.038-1.972-.073-3.943-.104-5.916-.009-.616-.017-1.233-.023-1.851-.011-1.136 .293-.71-.405-.028-.836-.221-1.672-.441-2.507-.662 .477,1.409 .343,4.883 .455,6.829 .274,4.746 .528,9.492 .797,14.238 .263,4.629 .531,9.258 .861,13.882 .147,2.066-.074,4.937 .858,6.856 .356,.735 1.388,.927 2.052,.538 1.579-.924 1.737-2.781 1.643-4.419-.222-3.834-.638-7.662-1.002-11.484-.625-6.564-1.051-13.01-1.257-19.603-.259-8.314-.526-16.629-.795-24.943-.07-2.163-.008-4.451-.994-6.43-1.628-3.269-4.994-2.751-6.547,.062-.94,1.694 1.651,3.206 2.587,1.513z"/>
<path d="m168.444,185.373c3.759-3.409 5.543,2.219 5.721,4.572 .154,2.03 .307,4.062 .459,6.092 .479,6.372 .955,12.744 1.416,19.117 .631,8.716 1.535,17.438 1.791,26.175 .026,.899 .878,3.876 .458,1.84-.319-1.543-.419-3.144-.562-4.71-.461-5.068-.714-10.157-.982-15.238-.246-4.676-.454-9.354-.709-14.028-.072-1.321 .325-4.643-1.414-5.137-.809-.229-1.6,.274-1.845,1.048-.456,1.439-.026,3.449 .032,4.909 .172,4.328 .384,8.654 .592,12.98 .182,3.773 .37,7.546 .559,11.318 .202,4.006 .061,5.61-5.223,4.989-1.919-.226-1.897,2.777 0,3 4.278,.503 7.913-.356 8.377-4.938 .277-2.731-.293-5.808-.429-8.542-.243-4.895-.479-9.789-.7-14.685-.099-2.188-.825-6.628-.316-8.234-.615,.349-1.23,.698-1.845,1.047-1.232-.35-1.063-1.784-.938-.183 .063,.809 .104,1.618 .15,2.427 .142,2.509 .258,5.02 .382,7.53 .305,6.194 .612,12.391 1.057,18.577 .215,2.989-.108,7.519 1.44,10.235 .956,1.677 2.915,.393 3.888-.479 1.311-1.176 1.057-2.77 1.009-4.391-.348-11.9-1.64-23.853-2.521-35.726-.401-5.398-.807-10.796-1.216-16.193-.408-5.384-6.121-9.696-10.751-5.495-1.437,1.305 .692,3.42 2.12,2.123z"/>
<path d="m158.694,185.801c3.204-3.147 8.25-1.369 8.589,3.103 .132,1.75 .265,3.499 .396,5.248 .475,6.296 .945,12.592 1.404,18.889 .671,9.2 1.574,18.407 1.925,27.626 .027,.725 .037,1.448 .019,2.172-.008,.336 .85,1.986 .531,.681-.401-1.641-.481-3.385-.633-5.06-.461-5.068-.714-10.157-.982-15.238-.246-4.676-.454-9.354-.71-14.028-.072-1.32 .325-4.644-1.415-5.137-.81-.229-1.599,.273-1.845,1.048-.457,1.438-.026,3.449 .032,4.909 .173,4.328 .385,8.654 .593,12.98 .182,3.773 .369,7.546 .559,11.318 .202,4.006 .06,5.61-5.223,4.989-1.919-.226-1.897,2.777 0,3 4.277,.503 7.913-.356 8.377-4.938 .277-2.731-.293-5.808-.429-8.542-.243-4.895-.479-9.789-.701-14.685-.099-2.188-.827-6.63-.316-8.234-.615,.349-1.23,.698-1.845,1.047-1.232-.349-1.063-1.785-.939-.183 .063,.809 .105,1.618 .151,2.427 .142,2.509 .259,5.02 .382,7.53 .319,6.471 .635,12.944 1.119,19.405 .177,2.361-.258,7.934 1.688,9.782 1.29,1.226 3.727-.376 4.3-1.675 .662-1.5 .294-3.511 .224-5.092-.565-12.573-1.782-25.159-2.719-37.71-.372-4.979 .014-10.916-1.541-15.725-1.77-5.474-9.598-5.482-13.112-2.029-1.382,1.358 .74,3.478 2.121,2.122z"/>
<path d="m198.524,181.167c.641,.182 .2-.212 .063-.791-.233-.992-.278-2.033-.349-3.046-.144-2.061-.117-4.139-.024-6.201-1,0-2,0-3,0 0,.208 0,.417 0,.625 0,1.944 2.905,1.921 3,0 .02-.405 .001-2.694 .758-2.897-.633-.482-1.266-.964-1.898-1.446 0,.012 0,.025 0,.037 0,.687 .462,1.243 1.102,1.446 .839,.267 .677,3.303 .625,4.013-.14,1.931 2.861,1.918 3,0 .168-2.32-.188-6.068-2.828-6.906 .367,.482 .734,.964 1.102,1.446 0-.012 0-.025 0-.037 0-.979-.957-1.7-1.898-1.446-2.476,.665-2.854,3.608-2.961,5.79 1,0 2,0 3,0 0-.208 0-.417 0-.625 0-1.943-2.914-1.923-3,0-.122,2.717-1.222,11.873 2.513,12.931 1.864,.528 2.654-2.367 .795-2.893z"/>
<path d="m187.592,181.167c.641,.181 .199-.212 .063-.791-.233-.992-.278-2.033-.349-3.046-.144-2.061-.117-4.139-.025-6.201-1,0-2,0-3,0 0,.208 0,.417 0,.625 0,1.944 2.905,1.921 3,0 .02-.406 .001-2.694 .759-2.897-.633-.482-1.266-.964-1.898-1.446 0,.012 0,.025 0,.037 0,.687 .462,1.243 1.102,1.446 .838,.266 .677,3.304 .626,4.013-.139,1.932 2.862,1.918 3,0 .166-2.32-.189-6.067-2.829-6.906 .367,.482 .734,.964 1.102,1.446 0-.012 0-.025 0-.037 0-.98-.957-1.699-1.898-1.446-2.476,.665-2.854,3.607-2.962,5.79 1,0 2,0 3,0 0-.208 0-.417 0-.625 0-1.943-2.914-1.923-3,0-.121,2.717-1.221,11.874 2.514,12.931 1.863,.528 2.653-2.367 .795-2.893z"/>
<path d="m185.646,184.711c-.081,.354-.776,.828-.581,.775 .306-.082 .136-.04 .369-.065 .458-.05 .92-.059 1.38-.062s.92,.021 1.379,.062c.545,.049-.227-.049 .238,.036 .083,.017 .166,.037 .247,.061-.346-.132-.579-.4-.697-.807 .433,1.886 3.325,1.086 2.893-.797-.373-1.627-2.788-1.547-4.06-1.555-1.27-.008-3.689-.061-4.061,1.555-.432,1.883 2.461,2.683 2.893,.797z"/>
<path d="m180.121,180.296c.61,.163 .222-.046 .063-.686-.231-.926-.279-1.901-.349-2.849-.144-1.943-.117-3.902-.024-5.846-1,0-2,0-3,0 0,.197 0,.393 0,.59 0,1.946 2.9,1.92 3,0 .022-.429 .004-2.458 .759-2.649-.633-.482-1.266-.964-1.899-1.446 0,.012 0,.023 0,.035 0,.679 .46,1.254 1.101,1.446 .817,.245 .667,3.155 .625,3.699-.148,1.93 2.853,1.916 3,0 .174-2.264-.255-5.822-2.827-6.591 .367,.482 .734,.964 1.101,1.446 0-.012 0-.023 0-.035 0-.99-.956-1.685-1.898-1.446-2.415,.611-2.85,3.412-2.961,5.542 1,0 2,0 3,0 0-.197 0-.393 0-.59 0-1.944-2.909-1.922-3,0-.125,2.626-1.138,11.299 2.513,12.273 1.87,.499 2.663-2.395 .796-2.893z"/>
<path d="m170.703,181.167c.64,.181 .199-.212 .063-.791-.233-.992-.278-2.033-.348-3.046-.143-2.061-.116-4.139-.024-6.201-1,0-2,0-3,0 0,.208 0,.417 0,.625 0,1.944 2.905,1.921 3,0 .02-.405 .001-2.694 .758-2.897-.633-.482-1.266-.964-1.899-1.446 0,.012 0,.025 0,.037 0,.687 .461,1.243 1.101,1.446 .839,.267 .676,3.303 .625,4.013-.14,1.931 2.861,1.917 3,0 .168-2.32-.188-6.067-2.827-6.906 .367,.482 .734,.964 1.101,1.446 0-.012 0-.025 0-.037 0-.979-.957-1.699-1.899-1.446-2.475,.665-2.853,3.608-2.96,5.79 1,0 2,0 3,0 0-.208 0-.417 0-.625 0-1.943-2.914-1.923-3,0-.122,2.717-1.223,11.874 2.512,12.931 1.865,.528 2.655-2.368 .797-2.893z"/>
<path d="m162.322,180.798c.628,.173 .208-.142 .063-.747-.232-.964-.278-1.977-.349-2.962-.143-2.011-.117-4.039-.024-6.051-1,0-2,0-3,0 0,.204 0,.408 0,.611 0,1.945 2.903,1.921 3,0 .021-.413 .002-2.594 .758-2.792-.633-.482-1.266-.964-1.899-1.446 0,.012 0,.024 0,.037 0,.683 .461,1.248 1.101,1.446 .837,.259 .678,3.185 .626,3.878-.143,1.931 2.858,1.917 3,0 .169-2.293-.218-5.963-2.829-6.771 .367,.482 .734,.964 1.101,1.446 0-.012 0-.024 0-.037 0-.984-.957-1.693-1.899-1.446-2.45,.642-2.851,3.525-2.96,5.685 1,0 2,0 3,0 0-.204 0-.408 0-.611 0-1.943-2.912-1.923-3,0-.123,2.678-1.187,11.631 2.512,12.653 1.869,.516 2.661-2.378 .799-2.893z"/>
<path d="m152.463,181.167c.64,.181 .199-.212 .063-.791-.233-.992-.278-2.033-.348-3.046-.144-2.061-.117-4.139-.025-6.201-1,0-2,0-3,0 0,.208 0,.417 0,.625 0,1.944 2.905,1.921 3,0 .02-.406 0-2.694 .759-2.897-.633-.482-1.266-.964-1.899-1.446 0,.012 0,.025 0,.037 0,.687 .461,1.243 1.101,1.446 .839,.267 .676,3.304 .625,4.013-.14,1.931 2.861,1.918 3,0 .168-2.32-.188-6.068-2.827-6.906 .367,.482 .734,.964 1.101,1.446 0-.012 0-.025 0-.037 0-.98-.957-1.699-1.899-1.446-2.476,.665-2.854,3.608-2.961,5.79 1,0 2,0 3,0 0-.208 0-.417 0-.625 0-1.943-2.914-1.923-3,0-.121,2.717-1.222,11.874 2.512,12.931 1.865,.528 2.656-2.367 .798-2.893z"/>
<path d="m213.147,145.313c-.506,3.517-6.24,2.681-8.37,2.681-3.936,0-7.87,0-11.806,0-2.875,0-19.132,2.183-19.132-3.343 0-2.291 17.592-1.491 19.328-1.491 3.797,0 7.593,0 11.39,0 2.699,0 8.536-.949 8.536,2.553 0,1.935 3,1.935 3,0 0-5.311-4.314-5.553-8.818-5.553-4.378,0-8.756,0-13.134,0-3.981,0-23.302-2.223-23.302,4.12 0,4.432 2.263,6.715 6.794,6.715 4.455,0 8.91,0 13.365,0 5.448,0 10.896,0 16.344,0 3.844,0 8.028-.229 8.697-4.883 .274-1.893-2.617-2.708-2.892-.799z"/>
<path d="m174.949,135.457c.506-3.517 6.241-2.681 8.372-2.681 3.935,0 7.87,0 11.805,0 2.876,0 19.133-2.184 19.133,3.344 0,2.289-17.593,1.49-19.328,1.49-3.797,0-7.593,0-11.39,0-2.699,0-8.538,.949-8.538-2.552 0-1.935-3-1.935-3,0 0,5.312 4.316,5.552 8.821,5.552 4.377,0 8.755,0 13.133,0 3.981,0 23.302,2.223 23.302-4.118 0-4.432-2.263-6.716-6.794-6.716-4.455,0-8.91,0-13.365,0-5.448,0-10.896,0-16.345,0-3.844,0-8.028,.229-8.698,4.883-.273,1.892 2.617,2.707 2.892,.798z"/>
<path d="m174.949,126.501c.665-3.71 16.794-1.933 19.186-1.933 6.027,0 12.81-.901 18.774,.246 4.892,.94-1.261,2.844-1.494,2.873-1.13,.139-2.284,.138-3.42,.162-.992,.021-1.986,.005-2.979,.005-3.362,0-6.725,0-10.087,0-1.896,0-19.927,1.094-19.927-1.752 0-1.935-3-1.935-3,0 0,5.019 5.035,4.752 8.965,4.752 4.33,0 8.659,0 12.989,0 4.386,0 23.302,2.354 23.302-4.177 0-7.798-16.391-5.109-21.144-5.109-5.12,0-10.24,0-15.36,0-3.463,0-7.939-.096-8.698,4.135-.339,1.892 2.552,2.7 2.893,.798z"/>
<path d="m233.311,116.417c.176-2.593 1.061-2.077 2.802-2.077 1.816,0 3.632,0 5.447,0 1.74,0 3.48,0 5.222,0 2.017,0 2.285,.897 2.285,3.081 0,2.075-7.801,1.328-8.762,1.328-2.459-0-6.994,1.035-6.994-2.332 0-1.935-3-1.935-3,0 0,6.347 5.188,5.332 9.994,5.332 3.773,0 11.762,1.398 11.762-4.328 0-2.484-.308-5.589-3.297-6.027-2.09-.307-4.365-.054-6.471-.054-2.699,0-5.398,0-8.098,0-2.933,0-3.724,2.612-3.891,5.077-.13,1.932 2.871,1.919 3.001,0z"/>
<path d="m248.551,126.492c-.175,2.594-1.061,2.077-2.802,2.077-1.816,0-3.632,0-5.447,0-1.74,0-3.48,0-5.222,0-2.017,0-2.285-.897-2.285-3.081 0-2.074 7.801-1.328 8.761-1.328 2.458-0 6.995-1.035 6.995,2.332 0,1.935 3,1.935 3,0 0-6.346-5.19-5.332-9.995-5.332-3.771,0-11.761-1.397-11.761,4.328 0,2.484 .307,5.589 3.297,6.027 2.09,.307 4.365,.054 6.471,.054 2.699,0 5.398,0 8.098,0 2.934,0 3.725-2.612 3.891-5.077 .13-1.932-2.871-1.92-3.001-0z"/>
<path d="m248.551,134.962c-.256,2.501-6.552,1.371-8.249,1.371-2.45,0-7.507,1.293-7.507-2.177 0-1.235 7.351-.77 8.026-.77 1.691,0 7.73-.932 7.73,1.576 0,1.935 3,1.935 3,0 0-5.759-5.825-4.576-9.995-4.576-3.321,0-11.761-1.416-11.761,3.77 0,6.225 5.174,5.177 9.768,5.177 4.5,0 11.367,1.698 11.988-4.371 .197-1.924-2.805-1.905-3,0z"/>
<path d="m259.571,117.815c.175-2.593 1.063-2.077 2.803-2.077 1.815,0 3.631,0 5.446,0 1.74,0 3.48,0 5.221,0 2.017,0 2.286,.898 2.286,3.081 0,2.076-7.801,1.329-8.762,1.328-2.46,0-6.994,1.036-6.994-2.332 0-1.935-3-1.935-3,0 0,6.347 5.188,5.333 9.994,5.333 3.772,0 11.762,1.398 11.762-4.328 0-2.484-.308-5.589-3.298-6.027-2.09-.307-4.364-.054-6.47-.054-2.699,0-5.397,0-8.097,0-2.934,0-3.725,2.611-3.892,5.077-.13,1.931 2.871,1.918 3.001-.001z"/>
<path d="m274.811,126.521c-.175,2.594-1.061,2.077-2.802,2.077-1.815,0-3.632,0-5.447,0-1.74,0-3.48,0-5.221,0-2.018,0-2.285-.898-2.285-3.082 0-2.075 7.8-1.328 8.761-1.328 2.458-0 6.994-1.036 6.994,2.333 0,1.935 3,1.935 3,0 0-6.347-5.188-5.333-9.994-5.333-3.772,0-11.761-1.397-11.761,4.328 0,2.484 .307,5.59 3.297,6.028 2.09,.307 4.364,.054 6.47,.054 2.699,0 5.398,0 8.098,0 2.934,0 3.725-2.612 3.891-5.077 .129-1.933-2.872-1.92-3.001-0z"/>
<path d="m274.811,134.991c-.256,2.5-6.553,1.37-8.249,1.37-2.449,0-7.506,1.293-7.506-2.176 0-1.235 7.35-.77 8.025-.77 1.691-0 7.73-.934 7.73,1.576 0,1.935 3,1.935 3,0 0-5.759-5.824-4.576-9.994-4.576-3.322,0-11.761-1.416-11.761,3.77 0,6.224 5.174,5.176 9.767,5.176 4.5,0 11.368,1.698 11.988-4.37 .197-1.925-2.805-1.906-3,0z"/>
<path d="m85.507,115.904c.106-2.234 .271-2.077 2.074-2.077 1.712,0 3.425,0 5.138,0 1.367,0 2.734,0 4.101,0 1.714,0 1.265,1.811 1.265,3.221 0,1.91-5.859,1.188-7.022,1.188-1.392,0-2.783,0-4.174,0-1.565,0-1.382-1.022-1.382-2.332 0-1.935-3-1.935-3,0 0,2.27 .143,4.258 2.492,5.176 1.476,.578 3.942,.156 5.458,.156 3.604,0 10.627,1.24 10.627-4.188 0-1.831 .05-5.722-2.506-6.104-1.918-.287-3.926-.116-5.86-.116-2.242,0-4.483,0-6.725,0-2.795,0-3.379,2.822-3.486,5.077-.092,1.933 2.909,1.925 3-.001z"/>
<path d="m97.656,125.979c-.106,2.234-.271,2.077-2.073,2.077-1.712,0-3.425,0-5.138,0-1.367,0-2.734,0-4.101,0-1.715,0-1.265-1.812-1.265-3.222 0-1.908 5.86-1.188 7.021-1.188 1.392,0 2.783,0 4.174,0 1.565-0 1.382,1.022 1.382,2.333 0,1.935 3,1.935 3,0 0-2.27-.143-4.257-2.492-5.176-1.477-.578-3.941-.156-5.458-.156-3.603,0-10.627-1.24-10.627,4.188 0,1.831-.051,5.723 2.506,6.105 1.918,.287 3.926,.116 5.86,.116 2.242,0 4.484,0 6.726,0 2.795,0 3.378-2.823 3.486-5.077 .092-1.935-2.909-1.926-3.001-0z"/>
<path d="m97.656,134.449c-.125,1.794-.739,1.37-2.073,1.37-1.508,0-3.016,0-4.524,0-1.445,0-2.891,0-4.336,0-1.574,0-1.644-.479-1.644-2.176 0-1.262 6.47-.77 7.021-.77 1.313,0 2.625,0 3.938,0 1.239-0 1.618,.318 1.618,1.576 0,1.935 3,1.935 3,0 0-5.387-4.508-4.576-8.556-4.576-3.249,0-10.021-1.146-10.021,3.77 0,2.151 .359,4.759 2.924,5.122 1.766,.25 3.664,.054 5.442,.054 4.279,0 9.809,1.385 10.211-4.37 .135-1.932-2.865-1.919-3-0z"/>
<path d="m258.423,282.586c-.141-3.219-.282-6.438-.423-9.657-.084-1.927-3.085-1.935-3,0 .141,3.219 .282,6.438 .423,9.657 .084,1.927 3.085,1.935 3,0z"/>
<path d="m256.854,266.601c-.017,2.035 .256,4.476-1.625,5.763-1.289,.882-2.414,1.176-3.356,2.479-1.056,1.461-1.534,3.472-2.295,5.085-1.23,2.609-3.059,2.482-5.617,2.294-1.931-.143-1.917,2.858 0,3 2.437,.18 4.442,.403 6.408-1.195 1.883-1.532 2.586-4.475 3.524-6.6 .912-2.064 3.311-2.247 4.604-4.03 1.41-1.943 1.339-4.5 1.357-6.796 .015-1.936-2.985-1.934-3,0z"/>
<path d="m256.904,266.574c-1.479,4.097-1.727-2.674-4.635-.849-2.048,1.287-3.001,4.429-4.061,6.461-.869,1.669-1.813,3.321-3.041,4.755-.927,1.083-2.227,1.558-2.801,2.935-.758,1.818-1.135,5.944 1.991,5.292 1.894-.395 1.091-3.286-.797-2.893-.096,.02-.191,.04-.287,.06 .486,.129 .974,.257 1.46,.386-.771-.653 3.791-5.204 4.344-6.029 1.544-2.307 2.62-4.893 3.969-7.311 .192-.345 .398-.694 .654-.997-.398-.008-.797-.016-1.195-.023 .104,.438 .225,.872 .362,1.302 .294,.999 1.092,1.979 2.123,2.263 2.659,.731 4.12-2.654 4.806-4.554 .659-1.825-2.24-2.603-2.892-.798z"/>
<path d="m258.423,282.586c.361-4.056 .724-8.111 1.085-12.167 .172-1.928-2.83-1.911-3,0-.361,4.056-.724,8.111-1.085,12.167-.172,1.928 2.829,1.911 3,0z"/>
<path d="m244.408,282.13c-.142-3.219-.282-6.438-.424-9.657-.085-1.927-3.085-1.935-3,0 .142,3.219 .282,6.438 .424,9.657 .085,1.927 3.085,1.934 3,0z"/>
<path d="m242.838,266.145c-.017,2.035 .256,4.477-1.624,5.763-1.29,.883-2.415,1.177-3.356,2.479-1.056,1.461-1.534,3.472-2.296,5.085-1.23,2.609-3.059,2.481-5.617,2.293-1.931-.143-1.917,2.858 0,3 2.437,.18 4.442,.404 6.408-1.195 1.882-1.531 2.586-4.474 3.525-6.599 .912-2.063 3.31-2.247 4.603-4.03 1.41-1.943 1.339-4.5 1.357-6.796 .016-1.936-2.984-1.934-3,0z"/>
<path d="m242.889,266.118c-1.478,4.095-1.729-2.675-4.635-.849-2.048,1.287-3.001,4.428-4.061,6.461-.869,1.669-1.814,3.321-3.041,4.755-.927,1.082-2.227,1.557-2.801,2.934-.757,1.814-1.135,5.949 1.991,5.292 1.894-.397 1.09-3.289-.797-2.893-.096,.02-.191,.04-.287,.061 .486,.128 .974,.257 1.46,.386-.771-.653 3.791-5.204 4.344-6.03 1.544-2.306 2.62-4.892 3.969-7.31 .192-.346 .398-.694 .654-.997-.398-.008-.797-.017-1.195-.024 .104,.438 .225,.873 .362,1.302 .293,1 1.092,1.979 2.123,2.264 2.659,.73 4.12-2.653 4.806-4.554 .658-1.825-2.241-2.603-2.892-.798z"/>
<path d="m244.408,282.13c.361-4.056 .724-8.111 1.085-12.167 .172-1.928-2.829-1.911-3,0-.361,4.056-.724,8.111-1.085,12.167-.172,1.928 2.83,1.911 3,0z"/>
<path d="m280.138,281.095c-.063-3.885-.124-7.77-.187-11.654-.031-1.933-3.031-1.936-3,0 .063,3.885 .124,7.77 .187,11.654 .031,1.932 3.031,1.935 3,0z"/>
<path d="m278.32,248.52c-.029,6.481-.206,13.096-1.27,19.499-.32,1.928-3.06,13.092-3.583,12.999-1.891-.337-2.699,2.554-.797,2.893 6.276,1.119 4.948-8.483 6.537-12.39 2.741-6.741 2.08-15.864 2.112-23.001 .01-1.935-2.99-1.935-2.999,0z"/>
<path d="m280.219,247.073c-2.125-.398-4.389-.312-4.671,2.341-.422,3.963-.284,8.008-.668,11.992-.443,4.6-1.008,9.303-2.37,13.734-.8,2.605-1.907,4.906-1.166,7.766 .202,.784 1.068,1.272 1.845,1.048 .051-.015 .102-.029 .151-.044 1.855-.536 1.065-3.432-.797-2.893-.051,.015-.102,.029-.152,.044 .615,.349 1.23,.698 1.846,1.048-.566-2.188 .456-4.191 1.166-6.171 1.06-2.951 1.425-6.22 1.858-9.307 .402-2.865 .688-5.745 .921-8.629 .105-1.319-.192-8.306 1.24-8.037 1.891,.355 2.697-2.535 .797-2.892z"/>
<path d="m280.138,281.866c.159-5.152 .317-10.304 .477-15.456 .06-1.936-2.94-1.93-3,0-.159,5.152-.317,10.304-.477,15.456-.06,1.936 2.94,1.93 3,0z"/>
<path d="m270.383,280.313c-.073-3.886-.147-7.771-.221-11.656-.036-1.933-3.037-1.936-3,0 .073,3.886 .147,7.771 .221,11.656 .036,1.933 3.037,1.936 3,0z"/>
<path d="m268.787,247.737c-.034,6.479-.261,13.13-1.518,19.499-.345,1.749-1.335,3.102-1.781,4.804-.461,1.757-.67,8.563-2.82,8.196-1.892-.322-2.701,2.568-.797,2.893 7.224,1.229 4.484-8.134 7.268-12.031 1.623-2.273 1.585-6.255 1.885-8.917 .54-4.785 .738-9.63 .764-14.443 .009-1.935-2.991-1.934-3.001-.001z"/>
<path d="m270.686,246.291c-7.556-1.228-5.311,8.017-5.851,13.162-.498,4.743-1.218,9.565-2.672,14.12-.921,2.887-2.673,5.298-1.673,8.552 .246,.8 1.033,1.244 1.846,1.048 .06-.015 .12-.029 .18-.044 1.88-.454 1.083-3.348-.797-2.893-.061,.015-.12,.029-.181,.044 .615,.349 1.23,.698 1.845,1.047-.714-2.323 .647-4.145 1.387-6.17 1.098-3.008 1.682-6.158 2.207-9.309 .477-2.858 .807-5.744 1.083-8.629 .158-1.656-.452-8.406 1.829-8.036 1.891,.308 2.703-2.582 .797-2.892z"/>
<path d="m270.383,281.085c.188-5.152 .378-10.305 .566-15.457 .071-1.936-2.93-1.929-3,0-.188,5.152-.378,10.305-.566,15.457-.071,1.936 2.93,1.929 3,0z"/>
<path d="m100.011,282.194c-.062-1.359-.124-2.72-.186-4.079-.088-1.927-3.088-1.935-3,0 .062,1.359 .124,2.72 .186,4.079 .088,1.927 3.088,1.935 3,0z"/>
<path d="m98.193,270.792c-.035,2.151-.234,4.628-1.306,6.538-.339,.604-1.093,.95-1.457,1.634-.715,1.343-.704,2.339-2.488,2.211-1.931-.139-1.918,2.862 0,3 1.481,.106 2.607,.07 3.679-1.052 1.002-1.049 1.237-2.519 2.134-3.404 2.147-2.118 2.392-6.087 2.438-8.927 .032-1.936-2.968-1.933-3,0z"/>
<path d="m99.693,269.292c-1.352-.096-3.048-.332-3.959,.914-.704,.963-.431,2.597-.675,3.727-.402,1.862-1.083,3.917-2.38,5.351-1.002,1.106-2.148,2.057-1.5,3.775 .253,.672 .724,1.047 1.446,1.102 .063,.005 .127,.01 .191,.015 1.931,.147 1.916-2.854 0-3-.063-.005-.127-.01-.191-.015 .482,.367 .964,.734 1.447,1.102-.097-.258 1.657-2.022 1.88-2.365 .699-1.072 1.146-2.352 1.554-3.556 .366-1.084 .636-2.234 .751-3.374 .046-.457 .045-.907 .055-1.366-.656,.547-.648,.752 .023,.614 .454,.012 .906,.038 1.358,.077 1.932,.135 1.919-2.866-0-3.001z"/>
<path d="m100.011,282.465c.159-1.804 .318-3.607 .477-5.411 .17-1.928-2.832-1.911-3,0-.159,1.804-.318,3.607-.477,5.411-.17,1.928 2.831,1.911 3,0z"/>
<path d="m90.256,281.921c-.074-1.359-.147-2.72-.221-4.079-.104-1.924-3.104-1.934-3,0 .074,1.359 .147,2.72 .221,4.079 .104,1.924 3.104,1.933 3,0z"/>
<path d="m88.661,270.519c-.034,1.748-.156,5.8-1.954,6.74-.715,.374-1.141,1.03-1.521,1.717-.243,.44-.455,.896-.701,1.335-.497,.889-1.481,.643-2.343,.591-1.933-.117-1.922,2.884 0,3 1.631,.099 2.817,.089 4.104-.981 1.152-.958 1.443-2.512 2.602-3.475 2.36-1.961 2.758-6.07 2.813-8.927 .037-1.936-2.963-1.932-3,0z"/>
<path d="m90.161,269.019c-1.397-.085-3.25-.384-4.341,.732-.876,.896-.575,2.644-.858,3.782-.475,1.913-1.399,4.342-3.047,5.552-1.399,1.028-2.232,2.298-1.446,4.059 .218,.489 .805,.712 1.295,.743 .076,.005 .151,.01 .227,.015 1.933,.124 1.92-2.876 0-3-.076-.005-.151-.01-.227-.015 .432,.248 .864,.495 1.295,.743 .256,.574 2.194-1.699 2.329-1.892 .85-1.209 1.455-2.518 1.985-3.893 .44-1.141 .705-2.326 .845-3.537 .136-1.188 .083-.416-.423-.349 .768-.102 1.599,.012 2.366,.059 1.933,.118 1.922-2.882 0-2.999z"/>
<path d="m90.256,282.19c.189-1.803 .378-3.606 .567-5.409 .202-1.923-2.8-1.904-3,0-.189,1.803-.378,3.606-.567,5.409-.202,1.923 2.8,1.905 3,0z"/>
<path d="m212.638,116.1c-.506,3.517-6.241,2.681-8.371,2.681-3.936,0-7.87,0-11.806,0-2.875,0-19.132,2.183-19.132-3.343 0-2.291 17.593-1.491 19.329-1.491 3.796,0 7.593,0 11.389,0 2.699,0 8.537-.949 8.537,2.553 0,1.935 3,1.935 3,0 0-5.311-4.315-5.553-8.819-5.553-4.378,0-8.756,0-13.133,0-3.982,0-23.303-2.223-23.303,4.12 0,4.432 2.263,6.715 6.794,6.715 4.455,0 8.91,0 13.365,0 5.448,0 10.896,0 16.344,0 3.844,0 8.028-.229 8.698-4.883 .273-1.893-2.618-2.708-2.892-.799z"/>
<path d="m174.438,106.245c.506-3.517 6.241-2.681 8.372-2.681 3.935,0 7.87,0 11.805,0 2.876,0 19.133-2.184 19.133,3.344 0,2.289-17.593,1.49-19.328,1.49-3.797,0-7.593,0-11.39,0-2.699,0-8.538,.949-8.538-2.552 0-1.935-3-1.935-3,0 0,5.312 4.316,5.552 8.821,5.552 4.377,0 8.755,0 13.133,0 3.981,0 23.302,2.223 23.302-4.118 0-4.433-2.263-6.716-6.794-6.716-4.455,0-8.91,0-13.365,0-5.448,0-10.896,0-16.345,0-3.844,0-8.028,.229-8.698,4.883-.273,1.891 2.618,2.706 2.892,.798z"/>
<path d="m174.438,97.289c.665-3.71 16.794-1.933 19.186-1.933 6.027,0 12.81-.9 18.775,.246 4.892,.94-1.263,2.844-1.495,2.873-1.13,.139-2.284,.138-3.421,.162-.991,.021-1.985,.005-2.978,.005-3.362,0-6.725,0-10.087,0-1.896,0-19.927,1.094-19.927-1.752 0-1.935-3-1.935-3,0 0,5.019 5.035,4.752 8.965,4.752 4.33,0 8.659,0 12.989,0 4.386,0 23.302,2.354 23.302-4.177 0-7.798-16.39-5.109-21.144-5.109-5.12,0-10.24,0-15.36,0-3.463,0-7.939-.096-8.698,4.135-.338,1.891 2.552,2.699 2.893,.798z"/>
<path d="m74.113,186.693c11.333,0 22.667,0 34,0 4.514,0 4.514-7 0-7-11.333,0-22.667,0-34,0-4.514,0-4.514,7 0,7z"/>
</g>
</svg>
