<svg xmlns="http://www.w3.org/2000/svg" viewBox="20 20 321 321">
<g fill="#000">
<path d="m236.166,282.08c-35.09,0-70.18,0-105.27,0-6.449,0-6.449,10 0,10 35.09,0 70.18,0 105.27,0 6.448,0 6.448-10 0-10z"/>
<path d="m236.166,277.917c-10.5,0-21,0-31.5,0-6.448,0-6.448,10 0,10 10.5,0 21,0 31.5,0 6.448,0 6.448-10 0-10z"/>
<path d="m231.166,74.667c0,48.707 0,97.413 0,146.12 0,21.126 0,42.253 0,63.38 0,6.448 10,6.448 10,0 0-48.707 0-97.413 0-146.12 0-21.127 0-42.253 0-63.38 0-6.449-10-6.449-10-0z"/>
<path d="m144.09,277.917c-4.398,0-8.795,0-13.193,0-6.449,0-6.449,10 0,10 4.398,0 8.795,0 13.193,0 6.449,0 6.449-10 0-10z"/>
<path d="m125.896,282.916c0,1.388 0,2.775 0,4.163 0,2.726 2.274,5 5,5s5-2.274 5-5c0-1.388 0-2.775 0-4.163 0-2.726-2.274-5-5-5s-5,2.274-5,5z"/>
<path d="m192.949,82.76c13.64,3.655 27.28,7.31 40.92,10.964 6.237,1.671 8.881-7.975 2.658-9.643-13.64-3.655-27.28-7.31-40.92-10.964-6.237-1.671-8.88,7.976-2.658,9.643z"/>
<path d="m189.397,76.831c-1.21,4.515-2.419,9.03-3.629,13.545-1.671,6.237 7.976,8.881 9.643,2.658 1.21-4.515 2.419-9.03 3.629-13.545 1.671-6.237-7.976-8.881-9.643-2.658z"/>
<path d="m167.164,92.7c14.157,3.793 28.313,7.587 42.471,11.38 6.237,1.671 8.881-7.975 2.658-9.643-14.157-3.793-28.313-7.587-42.471-11.38-6.237-1.671-8.881,7.975-2.658,9.643z"/>
<path d="m163.535,87.156c-.575,2.146-1.15,4.293-1.725,6.44-.705,2.631 .853,5.424 3.492,6.15 2.613,.719 5.446-.861 6.15-3.492 .575-2.146 1.15-4.293 1.725-6.44 .705-2.631-.853-5.424-3.492-6.15-2.613-.719-5.446,.861-6.15,3.492z"/>
<path d="m206.005,98.93c-.575,2.146-1.149,4.293-1.725,6.44-.705,2.631 .853,5.424 3.492,6.15 2.613,.719 5.446-.861 6.15-3.492 .575-2.146 1.149-4.293 1.725-6.44 .705-2.631-.853-5.424-3.492-6.15-2.613-.719-5.446,.86-6.15,3.492z"/>
<path d="m190.033,124.927c-1.297,4.841-2.594,9.681-3.891,14.521-1.17,4.367 5.583,6.217 6.75,1.861 1.297-4.841 2.594-9.681 3.891-14.521 1.17-4.366-5.583-6.217-6.75-1.861z"/>
<path d="m181.02,112.196c-1.101,4.11-2.202,8.221-3.303,12.331-1.169,4.367 5.583,6.217 6.75,1.861 1.101-4.11 2.202-8.221 3.303-12.331 1.169-4.366-5.583-6.217-6.75-1.861z"/>
<path d="m174.551,136.344c-1.833,6.841-3.665,13.682-5.498,20.523-1.169,4.367 5.583,6.217 6.75,1.861 1.833-6.841 3.665-13.682 5.497-20.523 1.171-4.367-5.582-6.217-6.749-1.861z"/>
<path d="m166.85,118.717c-1.296,4.841-2.593,9.682-3.89,14.522-1.169,4.367 5.583,6.217 6.75,1.861 1.296-4.841 2.593-9.682 3.89-14.522 1.17-4.367-5.583-6.217-6.75-1.861z"/>
<path d="m159.961,144.434c-1.833,6.841-3.665,13.682-5.498,20.523-1.169,4.367 5.583,6.217 6.75,1.861 1.833-6.841 3.665-13.682 5.498-20.523 1.17-4.367-5.583-6.217-6.75-1.861z"/>
<path d="m183.742,149.887c-1.832,6.841-3.665,13.682-5.497,20.523-1.169,4.367 5.583,6.217 6.75,1.861 1.832-6.841 3.665-13.682 5.497-20.523 1.17-4.367-5.583-6.217-6.75-1.861z"/>
<path d="m199.34,137.424c-1.345,5.022-2.69,10.045-4.035,15.067-1.169,4.367 5.583,6.217 6.75,1.861 1.345-5.022 2.69-10.045 4.035-15.067 1.169-4.366-5.583-6.217-6.75-1.861z"/>
<path d="m191.65,165.867c-1.833,6.841-3.665,13.682-5.498,20.523-1.17,4.366 5.583,6.217 6.75,1.861 1.833-6.841 3.665-13.682 5.498-20.523 1.17-4.367-5.583-6.217-6.75-1.861z"/>
<path d="m152.682,124.622c-1.345,5.022-2.691,10.044-4.036,15.066-1.169,4.367 5.583,6.217 6.75,1.861 1.345-5.022 2.691-10.044 4.036-15.066 1.17-4.367-5.583-6.217-6.75-1.861z"/>
<path d="m145.02,152.961c-1.833,6.841-3.666,13.682-5.498,20.523-1.17,4.367 5.583,6.217 6.75,1.861 1.833-6.841 3.666-13.682 5.498-20.523 1.169-4.366-5.583-6.217-6.75-1.861z"/>
<path d="m194.559,108.768c-.582,2.172-1.164,4.345-1.746,6.517-1.17,4.367 5.583,6.217 6.75,1.861 .582-2.172 1.164-4.345 1.746-6.517 1.17-4.366-5.583-6.217-6.75-1.861z"/>
<path d="m171.803,102.585c-.582,2.172-1.164,4.345-1.746,6.517-1.169,4.367 5.583,6.217 6.75,1.861 .582-2.172 1.164-4.345 1.746-6.517 1.169-4.366-5.583-6.217-6.75-1.861z"/>
<path d="m164.981,169.37c-1.345,5.021-2.69,10.042-4.035,15.063-1.169,4.366 5.583,6.217 6.75,1.861 1.345-5.021 2.69-10.042 4.035-15.063 1.169-4.366-5.583-6.217-6.75-1.861z"/>
<path d="m203.413,122.992c-.354,1.324-.709,2.648-1.063,3.973-.493,1.842 .597,3.797 2.444,4.306 1.829,.503 3.813-.603 4.306-2.444 .354-1.324 .709-2.648 1.063-3.973 .493-1.842-.597-3.797-2.444-4.306-1.829-.504-3.813,.602-4.306,2.444z"/>
<path d="m157.212,110.21c-.354,1.324-.709,2.648-1.063,3.973-.493,1.842 .597,3.797 2.444,4.306 1.829,.503 3.813-.603 4.306-2.444 .354-1.324 .709-2.648 1.063-3.973 .493-1.842-.597-3.797-2.444-4.306-1.829-.503-3.812,.602-4.306,2.444z"/>
</g>
</svg>
