<svg xmlns="http://www.w3.org/2000/svg" viewBox="20 20 321 321">
<g fill="#000">
<path d="m278.071,163.479c-8.515-9.796-17.03-19.593-25.545-29.39-5.438-6.256-10.875-12.511-16.313-18.767-4.313-4.963-6.634-7.956-13.813-8.613 0,3.333 0,6.667 0,10 .551-.021 1.115-.085 1.646-.208 3.463-.796 5.093-5.963 2.206-8.357-3.273-2.713-10.78-2.357-14.419-.799-3.792,1.623-6.288,5.846-8.593,9.043-7.539,10.458-17.526,18.173-31.064,13.464-10.373-3.608-12.403-15.292-20.154-21.571-4.27-3.458-10.234-2.481-15.328-1.671-5.431,.862-5.235,8.339-.417,9.92 0-3.214 0-6.428 0-9.643-4.715,.667-7.317,4.724-10.241,8.087-4.332,4.984-8.665,9.969-12.997,14.953-9.282,10.679-18.563,21.358-27.845,32.037-3.843,4.421-7.351,10.336-2.547,15.736 4.051,4.554 9.35,8.276 13.964,12.241 4.89,4.203 10.946,11.4 18.125,7.83 5.337-2.654 9.833-8.806 13.997-12.913 2.44-2.407 4.881-4.814 7.321-7.221-2.845-1.179-5.69-2.357-8.536-3.536 0,24.1 0,48.2 0,72.299 0,11.166 0,22.331 0,33.496 0,5.973 3.395,11.77 10.103,11.77 3.02,0 6.039,0 9.059,0 25.219,0 50.438,0 75.658,0 12.481,0 10.148-15.269 10.148-23.455 0-14.961 0-29.922 0-44.883 0-17.094 0-34.188 0-51.283-2.845,1.179-5.69,2.357-8.535,3.536 4.452,4.392 8.905,8.784 13.358,13.175 5.259,5.187 11.027,12.288 19.058,7.067 5.313-3.454 9.992-8.5 14.786-12.62 5.679-4.881 13.135-10.35 7.699-18.713-3.499-5.384-12.16-.378-8.635,5.047 1.238,1.905-7.774,8.004-9.08,9.126-2.365,2.033-4.73,4.066-7.096,6.099-1.033,.888-3.123,3.302-3.838,2.667-6.682-5.945-12.813-12.638-19.183-18.919-3.098-3.055-8.535-.848-8.535,3.536 0,23.977 0,47.954 0,71.931 0,11.684 0,23.368 0,35.052 0,2.045 .55,2.639-1.559,2.639-4.693,0-9.388,0-14.081,0-15.654,0-31.309,0-46.963,0-5.907,0-11.813,0-17.72,0-1.055,0-4.646,.727-4.646-.673 0-26.046 0-52.093 0-78.139 0-9.585 0-19.169 0-28.753 0-4.384-5.438-6.591-8.536-3.536-3.821,3.769-7.643,7.538-11.464,11.307-2.036,2.009-4.073,4.017-6.109,6.025-1.247,1.229-1.173,.606-2.731-.733-5.151-4.427-10.302-8.854-15.453-13.281-.304-.261-2.911-2.606-3.035-2.463 .793-.913 1.586-1.825 2.379-2.737 8.759-10.077 17.518-20.154 26.277-30.231 4.365-5.022 8.729-10.043 13.094-15.065 1.54-1.772 4.484-6.502 6.994-6.857 5.28-.747 4.233-8.253 0-9.643 1.222,.349 2.182,1.088 2.879,2.218 0,1.682 0,3.365 0,5.047-1.596,2.964-2.229,2.076-2.892,2.156 1.282-.155 2.583-.192 3.872-.255 .783-.038 4.588,.561 2.387-.411 .5,.22 .176,.005 .929,.775 2.48,2.538 4.152,6.034 6.204,8.917 6.545,9.2 15.159,15.2 26.651,15.937 11.451,.734 21.409-5.354 28.441-13.919 2.536-3.089 4.644-6.519 7.23-9.561 1.024-1.205 2.235-1.406 .957-1.346 1.724-.081 3.496,.072 5.223,.123 2.813,.083 .903,.752-1.636-1.353 .735-2.786 1.471-5.571 2.207-8.357 1.751-.403 1.521-.169 1.013-.15-6.531,.25-6.344,9.419 0,10 3.713,.34 6.198,5.058 8.502,7.709 5.285,6.08 10.569,12.16 15.854,18.24 8.081,9.298 16.162,18.595 24.244,27.893 4.241,4.873 11.284-2.231 7.074-7.073z"/>
<path d="m183.892,111.655c1.763-11.333-11.251-17.053-11.631-27.762-.228-6.424-10-6.467-10,0 0,.529 0,1.059 0,1.588 0,6.498 9.607,6.383 10,0 .23-3.746 3.255-5.848 6.803-6.039-1.667-1.667-3.333-3.333-5-5 0,.031 0,.063 0,.094 0,2.875 2.283,4.803 5,5 3.427,.249 7,4.021 6.137,7.546-1.535,6.263 8.108,8.919 9.643,2.658 2.485-10.142-5.815-19.481-15.779-20.205 1.667,1.667 3.333,3.333 5,5 0-.031 0-.063 0-.094 0-2.615-2.276-5.147-5-5-9.222,.497-16.226,6.657-16.803,16.039 3.333,0 6.667,0 10,0 0-.529 0-1.059 0-1.588-3.333,0-6.667,0-10,0 .197,5.559 2.345,10.325 5.409,14.886 1.418,2.111 7.006,7.475 6.58,10.218-.983,6.307 8.651,9.016 9.641,2.659z"/>
<path d="m152.577,119.687c9.235-2.153 18.608-2.963 28.079-3.022 6.446-.041 6.45-10.041 0-10-10.336,.065-20.658,1.03-30.737,3.38-6.28,1.463-3.616,11.104 2.658,9.642z"/>
<path d="m211.972,109.977c-9.746-1.59-19.692-3.012-29.579-3.107-6.451-.062-6.445,9.938 0,10 9.004,.086 18.043,1.301 26.921,2.75 6.306,1.028 9.01-8.607 2.658-9.643z"/>
</g>
</svg>
