<svg xmlns="http://www.w3.org/2000/svg" viewBox="20 20 321 321">
<g fill="#000">
<path d="m257.686,115.265c-48.647,0-97.294,0-145.942,0-2.517,0-5.034,0-7.551,0-6.449,0-6.449,10 0,10 48.647,0 97.294,0 145.942,0 2.517,0 5.034,0 7.551,0 6.448,0 6.448-10 0-10z"/>
<path d="m252.686,276.238c-.532,7.91-16.387,5.186-21.503,5.186-14.594,0-29.187,0-43.779,0-24.468,0-48.936,0-73.403,0-7.307,0-5.8-8.537-5.8-13.446 0-10.97 0-21.938 0-32.908 0-31.835 0-63.67 0-95.506 0-18.101 0-36.202 0-54.303 0-7.789 16.191-5.193 20.83-5.193 14.487,0 28.975,0 43.462,0 24.744,0 49.488,0 74.232,0 7.356,0 5.961,8.011 5.961,13.014 0,10.835 0,21.67 0,32.506 0,50.208 0,100.416 0,150.624 0,.008 0,.017 0,.026 0,6.448 10,6.448 10,0 0-49.658 0-99.317 0-148.975 0-11.102 0-22.204 0-33.306 0-8.689 .648-17.717-8.697-22.407-6.351-3.187-16.718-1.483-23.49-1.483-14.695,0-29.392,0-44.087,0-24.185,0-48.369,0-72.553,0-8.85,0-15.08,6.593-15.658,15.186-.091,1.352 0,2.741 0,4.095 0,9.405 0,18.81 0,28.215 0,52.567 0,105.133 0,157.701 0,6.304 2.96,11.797 8.697,14.676 3.232,1.622 6.694,1.483 10.172,1.483 11.157,0 22.313,0 33.47,0 29.31,0 58.62,0 87.93,0 2.853,0 5.705,0 8.559,0 8.85,0 15.079-6.593 15.657-15.186 .433-6.439-9.57-6.397-10,.001z"/>
<path d="m169.634,102.167c8.715,0 17.43,0 26.146,0 9.686,0 9.771-15.003 .107-15.003-8.715,0-17.43,0-26.145,0-9.686,.001-9.772,15.003-.108,15.003z"/>
</g>
<path fill="none"  stroke="#000" d="m44.239,121.792"/>
<g fill="#000">
<path d="m238.213,97.59c1.543,0 3.086,0 4.629,0 2.726,0 5-2.274 5-5s-2.274-5-5-5c-1.543,0-3.086,0-4.629,0-2.726,0-5,2.274-5,5s2.274,5 5,5z"/>
<path d="m134.728,110.667c3.307,0 6.613,0 9.92,0 1.935,0 1.935-3 0-3-3.307,0-6.613,0-9.92,0-1.935,0-1.935,3 0,3z"/>
<path d="m160.644,110.667c3.307,0 6.613,0 9.92,0 1.935,0 1.935-3 0-3-3.307,0-6.613,0-9.92,0-1.935,0-1.935,3 0,3z"/>
<path d="m186.561,110.667c3.307,0 6.613,0 9.92,0 1.935,0 1.935-3 0-3-3.307,0-6.613,0-9.92,0-1.935,0-1.935,3 0,3z"/>
<path d="m212.477,110.667c3.307,0 6.613,0 9.92,0 1.935,0 1.935-3 0-3-3.307,0-6.613,0-9.92,0-1.935,0-1.935,3 0,3z"/>
<path d="m134.728,99.304c3.307,0 6.613,0 9.92,0 1.935,0 1.935-3 0-3-3.307,0-6.613,0-9.92,0-1.935,0-1.935,3 0,3z"/>
<path d="m230.162,243.507c-.085,.741-23.723,.144-25.269,.144-15.931,0-31.862,0-47.792,0-1.546,0-25.183,.598-25.268-.144-.979-8.496 0-17.682 0-26.219 0-5.285-.204-71.621 .197-71.621 25.154,0 50.308,0 75.462,0 1.33,0 22.67-.175 22.67,.158 0,8.735 0,17.47 0,26.206-0,23.824-0,47.651-0,71.476 0,6.448 10,6.448 10,0 0-24.707 0-49.414 0-74.121 0-5.888 0-11.777 0-17.665 0-3.106 .359-6.532-.701-9.501-3.381-9.458-19.36-6.553-27.057-6.553-26.533,0-53.066,0-79.599,0-12.081,0-10.973,11.627-10.973,20.05 0,14.805 0,29.61 0,44.415 0,13.113 0,26.227 0,39.339 0,4.361-.021,8.174 3.392,11.585 2.992,2.991 7.34,2.595 11.185,2.595 27.93,0 55.86,0 83.791,0 8.465,0 18.652,1.227 19.962-10.144 .737-6.4-9.271-6.329-10-0z"/>
</g>
</svg>
