<svg xmlns="http://www.w3.org/2000/svg" viewBox="20 20 321 321">
<g fill="#000">
<path d="m103.236,160.427c3.213,1.219 6.427,2.438 9.641,3.656 1.203,.456 1.658,.387 2.828-.288 3.246-1.872 6.892-3.082 10.447-4.211 7.825-2.487 15.488-2.982 23.583-1.612 5.844,.99 17.903,4.038 18.45,11.517 .502,6.873-12.141,10.096-16.835,11.193-8.551,1.998-16.824,1.186-25.144-1.275-3.267-.966-6.458-2.214-9.518-3.707-1.149-.561-1.988-1.423-3.274-.936-3.393,1.287-6.785,2.573-10.177,3.86 .633,.482 1.266,.964 1.899,1.446 0-7.03 0-14.06 0-21.09 0-1.935-3-1.935-3,0 0,7.03 0,14.06 0,21.09 0,.906 .972,1.798 1.899,1.447 1.608-.61 3.216-1.22 4.825-1.83 1.183-.449 2.366-.897 3.549-1.346 .987-.374 1.83-.543 1.858-.527 6.382,3.653 14.381,6.018 21.653,6.802 10.045,1.083 34.25-1.234 35.265-15.127 .396-5.416-5.894-9.176-9.958-11.123-7.593-3.637-17.004-4.899-25.325-4.002-7.163,.772-14.354,3.195-20.802,6.361-1.323,.65-.275,.901-1.424,.466-1.308-.496-2.616-.992-3.924-1.488-1.905-.723-3.811-1.445-5.716-2.167-1.814-.689-2.59,2.213-.8,2.891z"/>
<path d="m149.235,163.631c.156,1.352 .928,2.415 2.354,2.579 .57,.066 1.154,.029 1.727,.029 .56,0 1.119,0 1.679,0 1.535,0 2.446-1.204 2.608-2.608 .154-1.334-1.159-2.44-2.354-2.578-.57-.066-1.154-.029-1.727-.029-.56,0-1.119,0-1.679,0-1.535,0-2.447,1.204-2.608,2.607-.094,.814 .753,1.5 1.5,1.5 .889,0 1.406-.688 1.5-1.5-.056,.481-.702,.393-.01,.393 .363,0 .727,0 1.091,0 .382,0 .765,0 1.147,0 .128,0 .257,0 .385,0 .398,0-.196,.036-.245-.393-.053-.458 .755-.392 .01-.392-.363,0-.727,0-1.091,0-.382,0-.765,0-1.147,0-.128,0-.257,0-.385,0-.399,0 .196-.036 .246,.392-.093-.812-.612-1.5-1.5-1.5-.748,0-1.595,.686-1.501,1.5z"/>
<path d="m148.111,154.489c-2.641-2.19-4.231-4.066-7.631-4.365-3.986-.351-7.972-.702-11.958-1.053-1.324-.117-1.96,1.708-1.061,2.561 1.904,1.807 4.28,5.418 7.097,5.418 4.164,0 8.329,0 12.493,0 1.935,0 1.935-3 0-3-3.688,0-7.377,0-11.065,0-.669,0-1.338,0-2.007,0 .537,0 1.101,.675-.068-.434-1.442-1.368-2.885-2.737-4.328-4.105-.354,.854-.707,1.707-1.061,2.561 3.601,.317 7.201,.634 10.802,.951 .829,.073 1.657,.146 2.485,.219 1.522,.134-.613-.606 0-.098 1.394,1.156 2.787,2.312 4.181,3.468 1.477,1.223 3.612-.887 2.121-2.123z"/>
<path d="m142.916,182.328c-1.032,.958-2.063,1.915-3.095,2.873-1.064,.988 1.135-.045 .245,.042-.579,.058-1.158,.114-1.737,.172-3.012,.296-6.023,.593-9.035,.89 .354,.854 .707,1.707 1.061,2.561 .948-1.006 1.895-2.013 2.843-3.019 .423-.449 .846-.898 1.269-1.348-.48,.51-1.43,.39-.653,.39 .322,0 .645,0 .967,0 3.065,0 6.13,0 9.196,0 1.935,0 1.935-3 0-3-3.3,0-6.6,0-9.899,0-2.436,0-4.307,3.224-5.843,4.855-.82,.87-.319,2.696 1.061,2.561 3.158-.312 6.317-.622 9.475-.934 .895-.088 2.053-.009 2.75-.655 1.173-1.089 2.345-2.178 3.518-3.267 1.418-1.318-.708-3.435-2.123-2.121z"/>
<path d="m288.766,247.966c-.696,6.926-13.408,4.702-17.979,4.702-11.826,0-23.652,0-35.479,0-32.024,0-64.049,0-96.073,0-20.124,0-40.248,0-60.371,0-7.623,0-5.586-11.042-5.586-16.002 0-13.704 0-27.407 0-41.11 0-26.591 0-53.182 0-79.772 0-3.255 .303-7.102 4.994-7.102 1.942,0 3.883,0 5.825,0 9.833,0 19.667,0 29.5,0 55.248,0 110.496,0 165.743,0 1.562,0 3.122,0 4.684,0 5.257,0 4.741,5.037 4.741,8.399 0,11.195 0,22.391 0,33.586 0,29.412 0,58.824 0,88.236 .001,3.022 .001,6.042 .001,9.063 0,1.935 3,1.935 3,0 0-44.848 0-89.695 0-134.542 0-8.518-8.758-7.742-14.578-7.742-10.102,0-20.204,0-30.306,0-31.482,0-62.964,0-94.446,0-23.456,0-46.912,0-70.368,0-5.923,0-11.79,1.135-11.79,8.66 0,9.203 0,18.407 0,27.61 0,30.326 0,60.653 0,90.979 0,5.965-2.073,16.903 3.166,21.239 3.494,2.891 11.716,1.498 15.796,1.498 56.93,0 113.86,0 170.791,0 6.648,0 13.296,0 19.944,0 5.585,0 11.081-.652 11.79-7.702 .194-1.925-2.808-1.906-2.999,0z"/>
<path d="m100.14,247.922c1.501-8.044 2.739-16.821 6.43-24.231 1.79-3.593 4.821-5.469 8.007-7.673 1.579-1.093 .081-3.694-1.515-2.59-3.251,2.249-6.332,4.212-8.467,7.642-4.652,7.472-5.774,17.625-7.347,26.056-.354,1.89 2.537,2.696 2.892,.796z"/>
<path d="m95.753,241.725c1.272-6.691 2.49-14.734 7.138-20.06 2.833-3.246 7.448-4.12 11.327-5.496 1.81-.642 1.03-3.541-.798-2.893-4.3,1.525-8.746,2.581-12.172,5.773-5.635,5.249-7.039,14.784-8.387,21.878-.36,1.89 2.531,2.697 2.892,.798z"/>
<path d="m84.27,238.709c-.036-4.676-.104-9.962-2.447-14.168-.521-.935-1.27-1.74-2.125-2.375-.278-.206-.565-.395-.859-.578-.456-.286-.184-.293-.127,.219-.209-1.901-3.212-1.922-3,0 .188,1.704 1.418,2.044 2.553,3.04 3.403,2.984 2.974,9.896 3.004,13.862 .016,1.934 3.016,1.936 3.001,0z"/>
<path d="m88.084,238.311c-.753-4.009-1.117-9.289-3.6-12.731-1.508-2.09-4.309-3.133-6.211-4.833-1.438-1.285-3.566,.829-2.121,2.121 1.727,1.543 3.95,2.526 5.6,4.099 .853,.813 1.179,2.14 1.505,3.223 .876,2.905 1.375,5.942 1.935,8.919 .356,1.899 3.247,1.092 2.892-.798z"/>
<path d="m90.744,242.223c-.021-6.788 .338-14.309-1.911-20.839-1.065-3.092-3.336-5.133-5.603-7.354-1.382-1.355-3.504,.765-2.121,2.121 2.081,2.041 4.055,3.779 5.032,6.615 2.071,6.014 1.583,13.213 1.602,19.457 .007,1.934 3.007,1.934 3.001,0z"/>
<path d="m93.646,244.842c-.03-7.15 .325-15.489-2.602-22.223-1.667-3.836-4.696-5.998-7.813-8.59-1.476-1.228-3.61,.883-2.121,2.121 2.517,2.094 5.197,3.862 6.801,6.804 3.389,6.217 2.707,15.101 2.735,21.888 .008,1.934 3.008,1.934 3-0z"/>
<path d="m249.266,252.802c5.253,0 10.507,0 15.76,0 4.514,0 4.514-7 0-7-5.253,0-10.507,0-15.76,0-4.514,0-4.514,7-0,7z"/>
<path d="m78.949,249.023c2.302,0 4.603,0 6.905,0 4.514,0 4.514-7 0-7-2.302,0-4.603,0-6.905,0-4.514,0-4.514,7 0,7z"/>
<path d="m105.071,246.068c2.542,0 5.083,0 7.625,0 4.514,0 4.514-7 0-7-2.542,0-5.083,0-7.625,0-4.514,0-4.514,7 0,7z"/>
<path d="m126.542,253.787c1.97,0 3.94,0 5.91,0 4.514,0 4.514-7 0-7-1.97,0-3.94,0-5.91,0-4.514,0-4.514,7 0,7z"/>
<path d="m276.256,243.961c-2.955,0-5.91,0-8.865,0-4.514,0-4.514,7 0,7 2.955,0 5.91,0 8.865,0 4.514,0 4.514-7 0-7z"/>
<path d="m81.739,243.236c.657,0 1.313,0 1.97,0 1.908,0 3.5-1.592 3.5-3.5s-1.592-3.5-3.5-3.5c-.657,0-1.313,0-1.97,0-1.908,0-3.5,1.592-3.5,3.5s1.593,3.5 3.5,3.5z"/>
<path d="m98.486,242.406c-.657,0-1.313,0-1.97,0-1.908,0-3.5,1.592-3.5,3.5s1.592,3.5 3.5,3.5c.657,0 1.313,0 1.97,0 1.908,0 3.5-1.592 3.5-3.5s-1.592-3.5-3.5-3.5z"/>
<path d="m199.523,246.787c-1.97,0-3.94,0-5.91,0-4.514,0-4.514,7 0,7 1.97,0 3.94,0 5.91,0 4.514,0 4.514-7 0-7z"/>
<path d="m209.129,253.82c5.253,0 10.507,0 15.76,0 4.514,0 4.514-7 0-7-5.253,0-10.507,0-15.76,0-4.514,0-4.514,7 0,7z"/>
<path d="m218.281,250.093c.657,0 1.313,0 1.971,0 1.908,0 3.5-1.592 3.5-3.5s-1.592-3.5-3.5-3.5c-.657,0-1.313,0-1.971,0-1.908,0-3.5,1.592-3.5,3.5s1.592,3.5 3.5,3.5z"/>
<path d="m236.627,244.678c-1.97,0-3.94,0-5.91,0-4.514,0-4.514,7 0,7 1.97,0 3.94,0 5.91,0 4.514,0 4.514-7 0-7z"/>
<path d="m140.147,238.111c-2.955,0-5.91,0-8.865,0-4.514,0-4.514,7 0,7 2.955,0 5.91,0 8.865,0 4.514,0 4.514-7 0-7z"/>
<path d="m156.419,237.982c-1.97,0-3.94,0-5.91,0-4.514,0-4.514,7 0,7 1.97,0 3.94,0 5.91,0 4.515,0 4.515-7 0-7z"/>
<path d="m143.286,236.072c-.657,0-1.313,0-1.97,0-1.908,0-3.5,1.592-3.5,3.5s1.592,3.5 3.5,3.5c.657,0 1.313,0 1.97,0 1.908,0 3.5-1.592 3.5-3.5s-1.592-3.5-3.5-3.5z"/>
<path d="m149.032,253.787c1.97,0 3.94,0 5.91,0 4.514,0 4.514-7 0-7-1.97,0-3.94,0-5.91,0-4.514,0-4.514,7 0,7z"/>
<path d="m90.837,253.622c5.007,0 10.014,0 15.021,0 4.514,0 4.514-7 0-7-5.007,0-10.014,0-15.021,0-4.514,0-4.514,7 0,7z"/>
<path d="m181.879,246.813c2.955,0 5.91,0 8.865,0 4.514,0 4.514-7 0-7-2.955,0-5.91,0-8.865,0-4.514,0-4.514,7 0,7z"/>
<path d="m163.493,253.82c5.253,0 10.506,0 15.759,0 4.514,0 4.514-7 0-7-5.253,0-10.506,0-15.759,0-4.514,0-4.514,7 0,7z"/>
<path d="m158.882,249.906c1.97,0 3.94,0 5.91,0 4.514,0 4.514-7 0-7-1.97,0-3.94,0-5.91,0-4.514,0-4.514,7 0,7z"/>
<path d="m176.955,249.647c.657,0 1.313,0 1.97,0 1.908,0 3.5-1.592 3.5-3.5s-1.592-3.5-3.5-3.5c-.657,0-1.313,0-1.97,0-1.908,0-3.5,1.592-3.5,3.5s1.592,3.5 3.5,3.5z"/>
<path d="m195.423,244.678c-1.97,0-3.94,0-5.91,0-4.514,0-4.514,7 0,7 1.97,0 3.94,0 5.91,0 4.514,0 4.514-7 0-7z"/>
<path d="m151.002,245.967c5.253,0 10.506,0 15.76,0 4.514,0 4.514-7 0-7-5.253,0-10.506,0-15.76,0-4.514,0-4.514,7 0,7z"/>
<path d="m122.546,241.348c-2.955,0-5.91,0-8.865,0-4.514,0-4.514,7 0,7 2.955,0 5.91,0 8.865,0 4.514,0 4.514-7 0-7z"/>
<path d="m92.256,243.093c-1.806,0-3.612,0-5.417,0-1.908,0-3.5,1.592-3.5,3.5s1.592,3.5 3.5,3.5c1.806,0 3.612,0 5.417,0 1.908,0 3.5-1.592 3.5-3.5s-1.592-3.5-3.5-3.5z"/>
<path d="m147.24,243.961c-.657,0-1.313,0-1.97,0-1.908,0-3.5,1.592-3.5,3.5s1.592,3.5 3.5,3.5c.657,0 1.313,0 1.97,0 1.908,0 3.5-1.592 3.5-3.5s-1.592-3.5-3.5-3.5z"/>
<path d="m150.934,237.92c-.657,0-1.313,0-1.97,0-1.908,0-3.5,1.592-3.5,3.5s1.592,3.5 3.5,3.5c.657,0 1.313,0 1.97,0 1.908,0 3.5-1.592 3.5-3.5s-1.593-3.5-3.5-3.5z"/>
<path d="m109.987,253.622c1.806,0 3.612,0 5.418,0 1.908,0 3.5-1.592 3.5-3.5s-1.592-3.5-3.5-3.5c-1.806,0-3.612,0-5.418,0-1.908,0-3.5,1.592-3.5,3.5s1.592,3.5 3.5,3.5z"/>
<path d="m76.776,253.622c.657,0 1.313,0 1.97,0 1.908,0 3.5-1.592 3.5-3.5s-1.592-3.5-3.5-3.5c-.657,0-1.313,0-1.97,0-1.908,0-3.5,1.592-3.5,3.5s1.593,3.5 3.5,3.5z"/>
<path d="m97.499,248.102c.657,0 1.313,0 1.97,0 1.908,0 3.5-1.592 3.5-3.5s-1.592-3.5-3.5-3.5c-.657,0-1.313,0-1.97,0-1.908,0-3.5,1.592-3.5,3.5s1.592,3.5 3.5,3.5z"/>
<path d="m108.58,239.068c-1.806,0-3.612,0-5.418,0-1.908,0-3.5,1.592-3.5,3.5s1.592,3.5 3.5,3.5c1.806,0 3.612,0 5.418,0 1.908,0 3.5-1.592 3.5-3.5s-1.592-3.5-3.5-3.5z"/>
<path d="m253.371,249.42c.657,0 1.313,0 1.971,0 1.908,0 3.5-1.592 3.5-3.5s-1.592-3.5-3.5-3.5c-.657,0-1.313,0-1.971,0-1.908,0-3.5,1.592-3.5,3.5s1.592,3.5 3.5,3.5z"/>
<path d="m214.628,239.068c-3.666,0-7.332,0-10.998,0-4.514,0-4.514,7 0,7 3.666,0 7.332,0 10.998,0 4.514,0 4.514-7 0-7z"/>
<path d="m144.657,242.647c-3.666,0-7.333,0-10.999,0-4.514,0-4.514,7 0,7 3.666,0 7.333,0 10.999,0 4.514,0 4.514-7 0-7z"/>
<path d="m179.524,246.709c2,0 4,0 6,0 1.908,0 3.5-1.592 3.5-3.5s-1.592-3.5-3.5-3.5c-2,0-4,0-6,0-1.908,0-3.5,1.592-3.5,3.5s1.592,3.5 3.5,3.5z"/>
<path d="m175.586,220.834c-.667,0-1.333,0-2,0-1.908,0-3.5,1.592-3.5,3.5s1.592,3.5 3.5,3.5c.667,0 1.333,0 2,0 1.908,0 3.5-1.592 3.5-3.5s-1.592-3.5-3.5-3.5z"/>
<path d="m171.565,234.397c1.833,0 3.667,0 5.5,0 1.908,0 3.5-1.592 3.5-3.5s-1.592-3.5-3.5-3.5c-1.833,0-3.667,0-5.5,0-1.908,0-3.5,1.592-3.5,3.5s1.592,3.5 3.5,3.5z"/>
<path d="m158.563,229.541c-3,0-6,0-9,0-4.514,0-4.514,7 0,7 3,0 6,0 9,0 4.514,0 4.514-7 0-7z"/>
<path d="m170.514,242.909c-3.366,0-6.731,0-10.097,0-4.514,0-4.514,7 0,7 3.366,0 6.731,0 10.097,0 4.514,0 4.514-7 0-7z"/>
<path d="m161.75,235.672c-.667,0-1.333,0-2,0-1.908,0-3.5,1.592-3.5,3.5s1.592,3.5 3.5,3.5c.667,0 1.333,0 2,0 1.908,0 3.5-1.592 3.5-3.5s-1.593-3.5-3.5-3.5z"/>
<path d="m147.25,243.672c2,0 4,0 6,0 1.908,0 3.5-1.592 3.5-3.5s-1.592-3.5-3.5-3.5c-2,0-4,0-6,0-1.908,0-3.5,1.592-3.5,3.5s1.592,3.5 3.5,3.5z"/>
<path d="m169.347,221.466c-3.722,0-7.444,0-11.166,0-4.514,0-4.514,7 0,7 3.722,0 7.444,0 11.166,0 4.514,0 4.514-7 0-7z"/>
<path d="m170.356,223.828c1.083,0 2.167,0 3.25,0 1.908,0 3.5-1.592 3.5-3.5s-1.592-3.5-3.5-3.5c-1.083,0-2.167,0-3.25,0-1.908,0-3.5,1.592-3.5,3.5s1.593,3.5 3.5,3.5z"/>
<path d="m171.315,242.453c3.278,0 6.555,0 9.833,0 4.514,0 4.514-7 0-7-3.278,0-6.555,0-9.833,0-4.514,0-4.514,7 0,7z"/>
<path d="m192.629,244.92c.657,0 1.313,0 1.971,0 1.908,0 3.5-1.592 3.5-3.5s-1.592-3.5-3.5-3.5c-.657,0-1.313,0-1.971,0-1.908,0-3.5,1.592-3.5,3.5s1.592,3.5 3.5,3.5z"/>
<path d="m220.252,248.348c.656,0 1.313,0 1.97,0 1.908,0 3.5-1.592 3.5-3.5s-1.592-3.5-3.5-3.5c-.656,0-1.313,0-1.97,0-1.908,0-3.5,1.592-3.5,3.5s1.592,3.5 3.5,3.5z"/>
<path d="m262.235,250.893c.656,0 1.313,0 1.97,0 1.908,0 3.5-1.592 3.5-3.5s-1.592-3.5-3.5-3.5c-.656,0-1.313,0-1.97,0-1.908,0-3.5,1.592-3.5,3.5s1.592,3.5 3.5,3.5z"/>
<path d="m243.426,250.893c.657,0 1.313,0 1.971,0 1.908,0 3.5-1.592 3.5-3.5s-1.592-3.5-3.5-3.5c-.657,0-1.313,0-1.971,0-1.908,0-3.5,1.592-3.5,3.5s1.592,3.5 3.5,3.5z"/>
<path d="m78.977,240.099c-.657,0-1.313,0-1.97,0-1.908,0-3.5,1.592-3.5,3.5s1.592,3.5 3.5,3.5c.657,0 1.313,0 1.97,0 1.908,0 3.5-1.592 3.5-3.5s-1.593-3.5-3.5-3.5z"/>
<path d="m235.642,253.82c.656,0 1.313,0 1.97,0 1.908,0 3.5-1.592 3.5-3.5s-1.592-3.5-3.5-3.5c-.656,0-1.313,0-1.97,0-1.908,0-3.5,1.592-3.5,3.5s1.591,3.5 3.5,3.5z"/>
<path d="m280.613,253.82c.656,0 1.313,0 1.97,0 1.908,0 3.5-1.592 3.5-3.5s-1.592-3.5-3.5-3.5c-.656,0-1.313,0-1.97,0-1.908,0-3.5,1.592-3.5,3.5s1.592,3.5 3.5,3.5z"/>
<path d="m278.24,247.678c3.406,0 6.813,0 10.22,0 4.514,0 4.514-7 0-7-3.406,0-6.813,0-10.22,0-4.513,0-4.513,7 0,7z"/>
<path d="m258.486,244.781c.041-18.201 1.041-36.575 4.806-54.423 1.881-8.918 5.863-28.303 17.828-28.721 1.929-.067 1.936-3.068 0-3-12.171,.425-16.866,16.024-19.441,25.563-5.273,19.531-6.147,40.46-6.192,60.58-.005,1.936 2.995,1.936 2.999,.001z"/>
<path d="m254.431,234.729c.06-16.473 1.363-33.155 6.113-49.001 2.878-9.602 8.689-23.762 20.576-24.091 1.931-.053 1.936-3.054 0-3-11.287,.312-17.537,10.891-21.345,20.219-7.079,17.346-8.278,37.367-8.345,55.873-.006,1.935 2.994,1.935 3.001,0z"/>
<path d="m250.154,246.863c-.023-11.965-.321-23.968-1.805-35.852-.729-5.851-1.456-13.031-5.025-17.976-1.121-1.553-3.725-.058-2.59,1.514 3.725,5.16 4.227,12.997 4.93,19.077 1.273,11.013 1.469,22.161 1.49,33.236 .004,1.936 3.004,1.936 3,.001z"/>
<path d="m254.261,249.918c-.044-12.21-.759-24.434-2.935-36.463-1.238-6.847-2.932-15.691-8.236-20.723-1.402-1.33-3.527,.787-2.121,2.121 4.924,4.67 6.237,13.063 7.464,19.399 2.267,11.702 2.785,23.772 2.828,35.665 .007,1.936 3.007,1.936 3,.001z"/>
<path d="m244.374,244.928c-.036-4.676-.104-9.962-2.447-14.169-.521-.935-1.271-1.739-2.125-2.374-.277-.207-.565-.395-.858-.579-.456-.285-.184-.292-.127,.22-.21-1.901-3.212-1.922-3,0 .188,1.703 1.418,2.043 2.554,3.039 3.402,2.984 2.973,9.897 3.004,13.863 .014,1.933 3.014,1.935 2.999,0z"/>
<path d="m248.188,244.529c-.754-4.009-1.117-9.289-3.601-12.732-1.508-2.09-4.309-3.133-6.211-4.832-1.438-1.284-3.566,.83-2.121,2.121 1.727,1.543 3.95,2.525 5.6,4.098 .854,.813 1.179,2.14 1.506,3.223 .876,2.906 1.375,5.943 1.935,8.92 .357,1.9 3.248,1.093 2.892-.798z"/>
<path d="m71.778,137.167c7.833,.842 15.132,.929 22.988,.254 9.597-.823 19.122,1.253 28.71,.499 4.373-.344 8.676-.897 13.066-.618 4.406,.28 8.79,.865 13.209,.865 10.385,0 20.787,.221 31.16-.336 9.936-.534 19.595-.567 29.533-.047 9.914,.52 19.669-.921 29.535-.525 5.065,.204 10.118,.661 15.185,.865 4.805,.193 9.592-.528 14.376-.87 6.855-.49 13.854-.087 20.726-.087 1.935,0 1.935-3 0-3-6.499,0-13.009-.118-19.506,.023-4.834,.105-9.615,1.018-14.459,.965-5.443-.059-10.886-.63-16.321-.896-9.361-.459-18.656,1.063-28.063,.601-10.437-.513-20.571-.609-31.006-.029-9.957,.554-19.943,.336-29.911,.336-4.434,0-8.816-.419-13.232-.774-4.813-.387-9.495,.111-14.292,.528-9.146,.794-18.247-1.27-27.398-.605-8.326,.604-15.992,.745-24.3-.148-1.923-.208-1.903,2.794 0,2.999z"/>
<path d="m184.47,190.691c2.485,1.7 4.971,3.399 7.457,5.099 .427,.292 1.084,.265 1.514,0 2.87-1.765 5.628-3.464 8.873-4.478 4.226-1.319 9.283-.372 13.47,.609 3.525,.827 7.584,2.4 9.746,5.471 2.206,3.133-1.756,6.357-4.061,7.689-5.945,3.435-15.062,3.04-21.554,1.589-2.81-.629-4.147-2.708-6.422-4.179-.422-.273-1.094-.287-1.514,0-2.504,1.706-5.007,3.413-7.51,5.12 .752,.432 1.505,.863 2.257,1.295 0-6.504 0-13.007 0-19.511 0-1.935-3-1.935-3,0 0,6.504 0,13.007 0,19.511 0,1.077 1.297,1.95 2.257,1.295 1.252-.854 2.504-1.706 3.755-2.56 .756-.516 1.511-1.03 2.267-1.545 1.671-1.14 1.096-.29 .396-.743 1.922,1.243 3.073,2.871 5.296,3.775 4.994,2.033 11.758,1.633 16.935,1.043 4.458-.507 10.207-2.263 12.833-6.265 6.517-9.932-8.764-15.066-16.012-15.83-6.638-.7-11.82,.438-17.512,3.878-1.281,.774-.694,1.11-.913,.962-.841-.575-1.681-1.15-2.521-1.725-1.508-1.031-3.015-2.062-4.522-3.092-1.603-1.093-3.102,1.508-1.515,2.592z"/>
<path d="m211.477,196.104c.141,1.218 .837,2.12 2.106,2.267 .404,.047 .818,.021 1.226,.021 .397,0 .794,0 1.191,0 1.347,0 2.145-1.056 2.287-2.287 .139-1.202-1.046-2.143-2.107-2.265-.404-.046-.818-.021-1.226-.021-.397,0-.794,0-1.191,0-1.347-.001-2.144,1.053-2.286,2.285-.094,.814 .754,1.5 1.5,1.5 .889,0 1.406-.688 1.5-1.5-.091,.782-1.166,.715-.442,.715 .258,0 .516,0 .774,0 .271,0 .543,0 .814,0 .091,0 .182,0 .272,0 .49,0-.522,.028-.608-.715-.088-.76 1.203-.713 .441-.713-.258,0-.516,0-.774,0-.271,0-.543,0-.814,0-.091,0-.182,0-.272,0-.49,0 .524-.028 .609,.713-.094-.813-.611-1.5-1.5-1.5-.748,0-1.594,.685-1.5,1.5z"/>
<path d="m217.336,188.476c-2.438-4.608-5.481-9.921-9.87-12.905-1.982-1.348-5.657-1.35-5.78,1.782-.081,2.081 .866,4 .896,6.057 .027,1.807-.396,3.674-.821,5.424-.229,.943 .449,1.898 1.446,1.898 4.278,0 8.556,0 12.834,0 1.935,0 1.935-3 0-3-4.278,0-8.556,0-12.834,0 .482,.633 .964,1.266 1.446,1.898 .636-2.615 1.225-5.479 .742-8.159-.11-.617-.906-3.818-.822-3.827 .991-.109 2.055,.999 2.701,1.602 3.134,2.928 5.478,6.975 7.472,10.743 .904,1.711 3.494,.195 2.59-1.513z"/>
<path d="m213.548,209.729c-.916,2.54-1.966,5.084-3.4,7.377-1.371,2.191-5.573,1.564-7.846,1.469 .482,.633 .964,1.266 1.446,1.898 .605-3.315 1.21-6.631 1.815-9.947-.482,.367-.964,.734-1.446,1.102 3.626,0 7.251,0 10.877,0 1.935,0 1.935-3 0-3-3.626,0-7.251,0-10.877,0-.622,0-1.328,.453-1.446,1.102-.605,3.315-1.21,6.631-1.815,9.947-.179,.979 .412,1.854 1.446,1.898 2.881,.122 7.186,.534 9.431-1.637 2.384-2.306 3.606-6.356 4.708-9.412 .658-1.825-2.243-2.603-2.893-.797z"/>
<path d="m76.217,152.542c1.654-.111 3.308-.222 4.962-.333 1.919-.129 1.932-3.13 0-3-1.654,.111-3.308,.222-4.962,.333-1.919,.129-1.932,3.13 0,3z"/>
<path d="m262.235,158.882c1.453,.111 2.906,.222 4.359,.333 1.931,.147 1.916-2.854 0-3-1.453-.111-2.906-.222-4.359-.333-1.93-.147-1.916,2.854 0,3z"/>
<path d="m112.437,230.156c.989,0 1.979,0 2.968,0 1.935,0 1.935-3 0-3-.989,0-1.979,0-2.968,0-1.935,0-1.935,3 0,3z"/>
<path d="m112.467,234.837c2.184-.197 4.368-.394 6.552-.591 1.911-.172 1.927-3.174 0-3-2.184,.197-4.368,.394-6.552,.591-1.911,.172-1.927,3.174-0,3z"/>
<path d="m228.228,142.639c1.654-.111 3.308-.222 4.962-.333 1.92-.129 1.933-3.13 0-3-1.654,.111-3.308,.222-4.962,.333-1.92,.129-1.933,3.13 0,3z"/>
<path d="m85.025,205.1c2.122-.019 4.243-.037 6.365-.056 1.934-.017 1.935-3.017 0-3-2.122,.019-4.243,.037-6.365,.056-1.933,.016-1.935,3.016 0,3z"/>
</g>
</svg>
