<svg xmlns="http://www.w3.org/2000/svg" viewBox="20 20 321 321">
<g fill="#000">
<path  stroke="#000" stroke-width="10" d="m286.833,238.73c0,1.622-2.595,2.937-5.795,2.937h-200.41c-3.2,0-5.795-1.314-5.795-2.937v-17.127c0-1.622 2.595-2.937 5.795-2.937h200.41c3.2,0 5.795,1.314 5.795,2.937v17.127z"/>
<path d="m69.833,97.667c0,49.694 0,99.388 0,149.082 0,5.392 0,10.784 0,16.176 0,6.448 10,6.448 10,0 0-49.694 0-99.388 0-149.082 0-5.392 0-10.784 0-16.176 0-6.449-10-6.449-10-0z"/>
<path d="m281.833,97.667c0,49.628 0,99.257 0,148.886 0,5.761 0,11.521 0,17.281 0,6.448 10,6.448 10,0 0-49.629 0-99.257 0-148.886 0-5.76 0-11.521 0-17.281 0-6.449-10-6.449-10,0z"/>
<path d="m207.025,145.667c-23.5,0-47,0-70.5,0-13.254,0-26.509,0-39.764,0-2.302,0-4.604,0-6.905,0-11.193,0-9.497-11.75-9.497-19.271 0-7.596-2.208-18.245 7.183-20.977 2.456-.714 5.748-.252 8.246-.252 12.928,0 25.855,0 38.784,0 24.136,0 48.272,0 72.409,0 11.222,0 9.53,11.721 9.53,19.271 0,8.208 2.254,20.563-9.486,21.229-1.923,.109-1.934,3.109 0,3 7.753-.439 12.485-5.632 12.485-13.232 0-6.848 0-13.695 0-20.542 0-7.131-5.122-12.725-12.497-12.725-2.301,0-4.603,0-6.904,0-29.089,0-58.177,0-87.266,0-7.666,0-15.333,0-22.999,0-7.771,0-12.486,5.94-12.486,13.232 0,6.848 0,13.695 0,20.542 0,7.131 5.122,12.725 12.497,12.725 2.302,0 4.604,0 6.905,0 13.254,0 26.509,0 39.764,0 23.5,0 47,0 70.5,0 1.936,0 1.936-3 .001-3z"/>
<path d="m206.576,204.732c-23.5,0-47,0-70.5,0-13.254,0-26.509,0-39.764,0-2.302,0-4.604,0-6.905,0-11.193,0-9.497-11.75-9.497-19.271 0-7.596-2.208-18.245 7.183-20.977 2.456-.714 5.748-.252 8.246-.252 12.928,0 25.855,0 38.784,0 24.136,0 48.272,0 72.409,0 11.222,0 9.53,11.721 9.53,19.271 0,8.209 2.253,20.564-9.486,21.229-1.923,.109-1.934,3.109 0,3 7.753-.439 12.485-5.633 12.485-13.232 0-6.848 0-13.695 0-20.542 0-7.131-5.122-12.725-12.497-12.725-2.301,0-4.603,0-6.904,0-29.089,0-58.177,0-87.266,0-7.666,0-15.333,0-22.999,0-7.771,0-12.486,5.94-12.486,13.232 0,6.848 0,13.695 0,20.542 0,7.132 5.123,12.726 12.497,12.726 2.302,0 4.604,0 6.905,0 13.254,0 26.509,0 39.764,0 23.5,0 47,0 70.5,0 1.936-.001 1.936-3.001 .001-3.001z"/>
<path d="m265.525,145.667c-8.448,0-16.896,0-25.344,0-5.961,0-12.803-.912-13.322-8.49-.486-7.103 .701-14.512 9.485-15.01 8.391-.476 16.939,0 25.344,0 5.961,0 12.803,.912 13.322,8.49 .487,7.103-.7,14.512-9.485,15.01-1.923,.109-1.934,3.109 0,3 8.175-.463 12.485-5.967 12.485-13.785 0-7.694-2.099-14.104-10.711-15.583-4.904-.842-10.428-.131-15.371-.131-5.194,0-10.39,0-15.584,0-8.194,0-12.485,6.298-12.485,13.785 0,7.694 2.099,14.104 10.711,15.583 4.904,.842 10.428,.131 15.371,.131 5.194,0 10.39,0 15.584,0 1.935,0 1.935-3 0-3z"/>
<path d="m265.525,204.732c-8.448,0-16.896,0-25.344,0-5.961,0-12.803-.912-13.322-8.49-.486-7.103 .701-14.512 9.485-15.01 8.391-.476 16.939,0 25.344,0 5.961,0 12.803,.912 13.322,8.49 .487,7.103-.7,14.512-9.485,15.01-1.923,.109-1.934,3.109 0,3 8.175-.463 12.485-5.967 12.485-13.785 0-7.694-2.099-14.104-10.711-15.583-4.904-.842-10.428-.131-15.371-.131-5.194,0-10.39,0-15.584,0-8.194,0-12.485,6.298-12.485,13.785 0,7.694 2.099,14.104 10.711,15.583 4.904,.843 10.428,.132 15.371,.132 5.194,0 10.39,0 15.584,0 1.935-.001 1.935-3.001 0-3.001z"/>
</g>
</svg>
