<svg xmlns="http://www.w3.org/2000/svg" viewBox="20 20 321 321">
<g fill="#000">
<path d="m271.265,199.77c.41-.397 .82-.796 1.229-1.194 1.926-.255 3.853-.51 5.778-.765 2.493,.929 3.122,2.233 1.801,.896-.778-.788-1.557-1.577-2.336-2.365-1.237-1.252-2.475-2.505-3.712-3.758 .742,1.796 1.484,3.592 2.227,5.387 .992-8.38 2.592-23.765-7.516-27.159-4.414-1.482-10.357-.577-14.898-.454-5.869,.159-11.745,.471-17.618,.391-13.406-.182-27.585,7.902-33.82,19.924-4.331,8.35-6.871,17.924-8.802,27.097 2.43-1.84 4.859-3.681 7.289-5.521-23.923,0-47.846,0-71.77,0-11.841,0-23.683,0-35.524,0-.895,0-1.79,0-2.685,0-2.376,0 4.259,6.92 4.259,3.998 0-1.535 0-3.07 0-4.605 0-3.753 0-7.506 0-11.259 0-1.08 0-2.16 0-3.24 0-.963-.503,2.577 .086,.08 .273-1.159 .659-2.29 1.051-3.413 5.255-15.065 20.234-25.454 35.077-29.423 13.053-3.49 26.37-6.084 39.606-8.766 30.711-6.222 61.532-11.915 92.368-17.481 3.361-.607 6.724-1.212 10.087-1.81-1.308-.003-2.614-.006-3.922-.01-2.491-.503-2.635-6.26-2.483-3.632 .044,.761 .087,1.522 .131,2.283 .148,2.587 .297,5.173 .445,7.76 .453,7.878 .905,15.757 1.357,23.636 .676,11.777 1.353,23.554 2.028,35.331 .553,9.624 15.558,9.762 15.004,.107-1.325-23.069-2.649-46.138-3.974-69.208-.421-7.327-6.001-11.911-13.237-10.621-3.107,.554-6.213,1.113-9.319,1.673-13.617,2.457-27.226,4.958-40.827,7.504-30.411,5.692-61.21,10.838-91.146,18.744-17.535,4.631-32.927,15.819-41.943,31.682-3.721,6.546-5.391,12.958-5.391,20.365 0,6.402-1.956,17.264 3.104,22.261 4.85,4.789 15.166,3.048 21.323,3.048 12.706,0 25.412,0 38.119,0 19.356,0 38.712,0 58.069,0 3.211,0 6.599-2.244 7.289-5.521 1.901-9.035 4.13-19.049 9.23-26.856 2.422-3.707 9.454-7.704 14.451-8.845 5.984-1.365 13.415-.405 19.556-.597 3.037-.094 6.074-.176 9.112-.201 1.178-.01 2.354,.007 3.531,.041 .452,.016 .904,.041 1.355,.076-.998-.067-2.509-.004-3.831-2.242 1.128,1.909 .242,10.007-.104,13.631-.491,5.146 3.839,8.267 7.105,11.573 2.153,2.181 4.468,4.215 7.764,4.236 4.859,.032 8.685-4.328 9.497-8.816 1.713-9.463-12.748-13.476-14.47-3.962z"/>
<path d="m276.081,160.363c.201,6.18 .402,12.359 .603,18.538 .314,9.659 15.317,9.774 15.004,.108-.201-6.18-.402-12.359-.603-18.538-.314-9.658-15.317-9.774-15.004-.108z"/>
<path d="m273.064,203.794l-1.838-.46c-.443-2.883-1.219-5.642-2.287-8.241l1.435-1.389c-1.16-2.705-2.632-5.244-4.376-7.567l-1.948,.557c-1.75-2.232-3.763-4.242-5.993-5.993l.557-1.949c-2.324-1.744-4.863-3.216-7.568-4.375l-1.382,1.428c-2.602-1.071-5.364-1.847-8.25-2.291l-.457-1.828c-1.436-.17-2.893-.268-4.373-.268-1.481,0-2.938,.098-4.374,.268l-.413,1.653c-2.972,.374-5.813,1.148-8.484,2.27l-1.191-1.23c-2.705,1.159-5.244,2.631-7.568,4.374l.518,1.812c-2.214,1.795-4.211,3.857-5.95,6.132l-1.952-.558c-1.744,2.324-3.216,4.863-4.375,7.568l1.473,1.425c-1.078,2.617-1.863,5.369-2.315,8.201l-1.849,.463c-.17,1.435-.268,2.893-.268,4.373s.098,2.938 .268,4.373l1.656,.415c.374,2.97 1.147,5.811 2.269,8.48l-1.233,1.193c1.159,2.705 2.632,5.244 4.375,7.568l1.813-.518c1.795,2.214 3.856,4.211 6.13,5.951l-.558,1.951c2.324,1.744 4.863,3.216 7.568,4.376l1.425-1.473c2.617,1.079 5.369,1.865 8.202,2.317l.462,1.846c1.436,.17 2.893,.269 4.374,.269 1.48,0 2.938-.099 4.373-.269l.413-1.651c2.972-.373 5.816-1.146 8.487-2.268l1.188,1.229c2.704-1.16 5.243-2.632 7.568-4.375l-.518-1.811c2.215-1.795 4.213-3.857 5.952-6.132l1.95,.557c1.744-2.324 3.216-4.863 4.375-7.568l-1.477-1.429c1.077-2.615 1.86-5.365 2.313-8.195l1.855-.465c.171-1.436 .269-2.893 .269-4.373s-.1-2.938-.271-4.373zm-36.481,21.415c-9.412,0-17.042-7.63-17.042-17.042s7.63-17.042 17.042-17.042c9.411,0 17.041,7.63 17.041,17.042s-7.63,17.042-17.041,17.042z"/>
<circle cx="236.583" cy="208.167" r="14.333"/>
<path d="m193.125,230.457c.15-.494 1.457-.373 .293-.373-.58,0-1.16,0-1.74,0-2.334,0-4.67,0-7.004,0-7.196,0-14.393,0-21.588,0-13.68,0-27.36,0-41.041,0-.907,0-1.814,0-2.722,0 1.154,0 1.01,2.125 1.01,.472 0-.702 0-1.404 0-2.106 0-2.188 0-4.377 0-6.564 0-.702 0-1.404 0-2.106 0-1.653 .145,.472-1.01,.472 .269,0 .538,0 .807,0 1.79,0 3.579,0 5.369,0 14.768,0 29.536,0 44.303,0 7.162,0 14.324,0 21.486,0 .71,0 1.42,0 2.13,0 1.405,0-.418-2.042-.418-.472 0,3.87 0,7.739 0,11.61 0,4.514 7,4.514 7,0 0-4.736 1.99-14.461-2.959-17.36-2.689-1.576-7.495-.778-10.408-.778-14.984,0-29.97,0-44.955,0-6.101,0-12.202,0-18.303,0-4.08,0-10.042-.094-10.042,5.695 0,4.736-1.991,14.462 2.958,17.361 2.69,1.576 7.496,.777 10.409,.777 14.678,0 29.355,0 44.033,0 6.243,0 12.486,0 18.73,0 4.34,0 8.834,.416 10.412-4.766 1.318-4.331-5.439-6.167-6.75-1.862z"/>
<path d="m156.667,216.75c.259-12.743 11.174-21.491 21.479-27.068 15.228-8.241 33.288-10.991 50.396-11.098 4.513-.028 4.516-7.028 0-7-19.369,.12-39.182,3.7-56.201,13.31-11.767,6.644-22.385,17.639-22.673,31.856-.093,4.517 6.907,4.508 6.999,0z"/>
<circle cx="104.894" cy="231.648" r="12.436"/>
<path d="m98.979,289.912c-.069-19.183-1.412-50.086-27.042-50.507-1.936-.032-1.933,2.969 0,3 23.526,.386 23.979,30.271 24.042,47.507 .007,1.935 3.007,1.935 3,0z"/>
<path d="m104.937,289.912c-.137-21.652-6.396-50.1-33-50.507-1.936-.029-1.933,2.971 0,3 24.768,.379 29.874,27.679 30,47.507 .012,1.934 3.012,1.936 3,0z"/>
<path d="m84.647,289.912c-.02-9.495 .501-20.042-2.584-29.192-1.448-4.295-4.544-7.124-7.648-10.244-1.365-1.373-3.486,.749-2.121,2.121 2.927,2.942 5.711,5.464 7.075,9.511 2.91,8.63 2.259,18.857 2.278,27.805 .004,1.934 3.004,1.934 3-.001z"/>
<path d="m90.604,289.912c-.037-9.505 .256-20.587-4.408-29.23-2.631-4.876-7.686-7.441-12.085-10.44-1.603-1.093-3.102,1.508-1.514,2.59 4.054,2.764 8.439,5.002 11.009,9.365 4.614,7.835 3.964,19.02 3.998,27.716 .008,1.934 3.008,1.934 3-.001z"/>
<path d="m112.917,289.912c.042-7.714-.653-18.977 4.436-25.553 1.432-1.851 3.908-2.56 4.127-5.154 .163-1.929-2.839-1.913-3,0-.084,1.004-3.84,3.729-4.52,4.868-4.347,7.282-3.998,17.748-4.042,25.839-.012,1.936 2.988,1.934 2.999,0z"/>
<path d="m106.905,290.311c1.093-6.873 1.367-16.049 5.186-22.155 1.954-3.125 6.399-5.191 8.948-7.89 1.328-1.405-.79-3.53-2.121-2.121-2.805,2.969-6.699,4.942-9.181,8.156-1.353,1.753-1.976,4.122-2.543,6.214-1.505,5.55-2.28,11.331-3.181,16.999-.302,1.891 2.589,2.704 2.892,.797z"/>
<path d="m138.311,289.912c.022-7.597-.307-15.865 2.149-23.169 1.249-3.712 4.352-5.884 7.204-8.313 1.476-1.256-.657-3.367-2.121-2.121-2.96,2.52-5.959,4.772-7.511,8.468-3.213,7.653-2.697,17.041-2.721,25.135-.006,1.935 2.994,1.935 3-0z"/>
<path d="m132.354,289.912c.04-7.537-.21-16.395 3.811-23.099 2.419-4.034 7.304-5.902 11.196-8.148 1.675-.966 .165-3.559-1.514-2.59-4.34,2.504-8.849,4.513-11.894,8.655-4.957,6.742-4.558,17.328-4.599,25.182-.011,1.936 2.989,1.934 3,0z"/>
<path d="m148.437,289.912c.049-6.599-.401-16.325 4.525-21.601 1.479-1.584 3.773-1.983 4.037-4.438 .207-1.923-2.795-1.902-3,0-.014,.133-3.935,3.174-4.574,4.095-4.139,5.953-3.938,15.099-3.988,21.944-.014,1.936 2.986,1.934 3-0z"/>
<path d="m142.426,290.311c1.042-5.548 1.42-14.122 5.206-18.738 2.219-2.705 6.288-4.275 8.929-6.639 1.444-1.293-.685-3.407-2.121-2.121-2.806,2.511-6.811,4.057-9.2,6.97-4.108,5.01-4.575,13.71-5.706,19.731-.356,1.89 2.535,2.697 2.892,.797z"/>
<path d="m127.928,290.021c-.04-5.097-.108-10.867-2.662-15.452-.558-1.002-1.361-1.87-2.276-2.551-.647-.48-1.229-1.219-1.152-.519-.21-1.901-3.212-1.922-3,0 .199,1.805 1.552,2.173 2.756,3.229 3.762,3.3 3.3,10.903 3.334,15.292 .015,1.935 3.015,1.937 3,.001z"/>
<path d="m132.112,289.623c-.823-4.38-1.216-10.154-3.93-13.916-1.64-2.273-4.714-3.418-6.784-5.268-1.437-1.285-3.566,.829-2.121,2.121 1.893,1.691 4.327,2.768 6.136,4.491 .954,.909 1.321,2.383 1.687,3.595 .96,3.184 1.506,6.512 2.12,9.773 .356,1.901 3.247,1.095 2.892-.796z"/>
<path d="m170.787,290.021c.047-7.559-.078-16.375 4.069-23.036 2.11-3.39 5.992-5.196 8.972-7.692 1.485-1.243-.648-3.354-2.121-2.121-3.296,2.761-6.954,4.666-9.441,8.3-4.63,6.764-4.43,16.777-4.479,24.55-.012,1.935 2.988,1.933 3-.001z"/>
<path d="m164.83,290.021c.066-7.716 .262-16.977 5.863-22.974 3.381-3.621 8.623-5.12 12.832-7.521 1.68-.958 .169-3.55-1.514-2.59-4.771,2.721-10.11,4.424-13.947,8.532-5.891,6.308-6.166,16.484-6.234,24.552-.017,1.937 2.983,1.935 3,.001z"/>
<path d="m178.592,289.773c.033-4.581-.399-11.539 2.875-15.321 1.091-1.261 2.609-1.587 2.801-3.473 .195-1.924-2.807-1.905-3,0 .057-.554-2.553,2.101-2.977,2.768-2.832,4.458-2.663,11.005-2.698,16.026-.014,1.936 2.986,1.934 2.999,0z"/>
<path d="m174.59,290.172c.718-4.159 .955-9.753 3.371-13.398 1.249-1.885 4.229-3.139 5.868-4.733 1.389-1.352-.734-3.471-2.121-2.121-1.872,1.821-4.577,3.003-6.148,5.09-2.841,3.772-3.097,9.935-3.862,14.366-.327,1.891 2.563,2.7 2.892,.796z"/>
<path d="m158.796,289.885c-.023-6.19 1.277-16.4-4.54-20.456-1.591-1.11-3.089,1.492-1.515,2.59 .888,.619 1.206,.58 1.647,1.779 1.808,4.904 1.388,10.975 1.407,16.087 .009,1.934 3.009,1.934 3.001,0z"/>
<path d="m164.776,289.486c-.786-4.545-1.104-10.401-3.748-14.385-1.517-2.284-4.518-3.544-6.468-5.438-1.388-1.349-3.511,.771-2.121,2.121 1.789,1.738 4.133,2.878 5.84,4.646 .921,.954 1.246,2.514 1.586,3.741 .917,3.305 1.434,6.737 2.018,10.111 .329,1.906 3.22,1.096 2.893-.796z"/>
</g>
</svg>
