<svg xmlns="http://www.w3.org/2000/svg" viewBox="20 20 321 321">
<g fill="#000">
<path d="m213.188,180.873c0,35.833 0,71.667 0,107.5 0,4.514 7,4.514 7,0 0-35.834 0-71.667 0-107.5 0-4.515-7-4.515-7,0z"/>
<path d="m284.043,180.873c0,35.833 0,71.667 0,107.5 0,4.514 7,4.514 7,0 0-35.834 0-71.667 0-107.5 0-4.515-7-4.515-7,0z"/>
<path d="m69.478,81.54c0,48.866 0,97.732 0,146.597 0,20.079 0,40.158 0,60.236 0,4.514 7,4.514 7,0 0-48.866 0-97.731 0-146.598 0-20.079 0-40.157 0-60.236 0-4.514-7-4.514-7,.001z"/>
<path d="m169.333,81.54c0,48.866 0,97.732 0,146.597 0,20.079 0,40.158 0,60.236 0,4.514 7,4.514 7,0 0-48.866 0-97.731 0-146.598 0-20.079 0-40.157 0-60.236 0-4.514-7-4.514-7,.001z"/>
<path d="m169.365,84.195c-31.833,0-63.667,0-95.5,0-4.514,0-4.514,7 0,7 31.833,0 63.667,0 95.5,0 4.514,0 4.514-7 0-7z"/>
<path d="m169.365,139.015c-31.833,0-63.667,0-95.5,0-4.514,0-4.514,7 0,7 31.833,0 63.667,0 95.5,0 4.514,0 4.514-7 0-7z"/>
<path d="m169.365,193.834c-31.833,0-63.667,0-95.5,0-4.514,0-4.514,7 0,7 31.833,0 63.667,0 95.5,0 4.514,0 4.514-7 0-7z"/>
<path d="m169.365,265.834c-31.833,0-63.667,0-95.5,0-4.514,0-4.514,7 0,7 31.833,0 63.667,0 95.5,0 4.514,0 4.514-7 0-7z"/>
<path d="m128.392,190.377c.133-.322 .851-.209-.009-.209-.735,0-1.469,0-2.204,0-2.385,0-4.771,0-7.156,0-2.286,0-4.572,0-6.858,0-.611,0-1.222,0-1.833,0-.336,0 .352,1.024 .352,.132 0-7.451 0-14.902 0-22.353 0,.661-1.02,.553-.044,.553 .735,0 1.469,0 2.204,0 2.386,0 4.771,0 7.156,0 2.286,0 4.572,0 6.858,0 .611,0 1.222,0 1.833,0 .336,0-.352-1.026-.352-.133 0,7.469 0,14.938 0,22.408 0,1.935 3,1.935 3,0 0-4.303 0-8.606 0-12.909 0-2.504 1.377-9.588-.701-11.665-.948-.949-2.582-.701-3.78-.701-2.935,0-5.87,0-8.805,0-2.923,0-8.913-1.39-10.315,1.993-.452,1.09-.054,3.032-.054,4.16 0,3.049 0,6.099 0,9.148 0,2.503-1.377,9.588 .701,11.666 .949,.949 2.581,.701 3.78,.701 2.935,0 5.87,0 8.805,0 2.923,0 8.914,1.391 10.315-1.994 .74-1.787-2.164-2.559-2.893-.797z"/>
<path d="m109.184,162.987c6.885,0 13.77,0 20.655,0 1.935,0 1.935-3 0-3-6.885,0-13.77,0-20.655,0-1.935,0-1.935,3 0,3z"/>
<path d="m101.047,190.377c.133-.322 .851-.209-.009-.209-.735,0-1.469,0-2.204,0-2.385,0-4.771,0-7.156,0-2.286,0-4.572,0-6.858,0-.611,0-1.222,0-1.833,0-.336,0 .352,1.024 .352,.132 0-7.451 0-14.902 0-22.353 0,.661-1.02,.553-.044,.553 .735,0 1.469,0 2.204,0 2.386,0 4.771,0 7.156,0 2.286,0 4.572,0 6.858,0 .611,0 1.222,0 1.833,0 .336,0-.352-1.026-.352-.133 0,7.469 0,14.938 0,22.408 0,1.935 3,1.935 3,0 0-4.303 0-8.606 0-12.909 0-2.504 1.377-9.588-.701-11.665-.948-.949-2.582-.701-3.78-.701-2.935,0-5.87,0-8.805,0-2.923,0-8.913-1.39-10.315,1.993-.452,1.09-.054,3.032-.054,4.16 0,3.049 0,6.099 0,9.148 0,2.503-1.377,9.588 .701,11.666 .949,.949 2.581,.701 3.78,.701 2.935,0 5.87,0 8.805,0 2.923,0 8.914,1.391 10.315-1.994 .74-1.787-2.164-2.559-2.893-.797z"/>
<path d="m81.839,162.987c6.885,0 13.77,0 20.655,0 1.935,0 1.935-3 0-3-6.885,0-13.77,0-20.655,0-1.935,0-1.935,3 0,3z"/>
<path d="m153.725,190.65c-.061,.146-.121,.291-.182,.438 .35-.35 .699-.698 1.048-1.048-1.575,.653-4.492,.128-6.248,.128-1.935,0-5.186,.594-6.925-.128 .349,.35 .698,.698 1.048,1.048-.791-1.908-.128-5.521-.128-7.639 0-2.297-.732-6.246 .128-8.318-.35,.349-.699,.698-1.048,1.048 1.575-.653 4.491-.128 6.248-.128 1.935,0 5.185-.594 6.925,.128-.349-.35-.698-.699-1.048-1.048 .791,1.907 .128,5.521 .128,7.638 0,2.761 0,5.521 0,8.28 0,1.935 3,1.935 3,0 0-2.986 0-5.972 0-8.958 0-1.907 .962-6.837-.621-8.419-1.671-1.671-7.025-.621-9.058-.621-2.369,0-6.484-.972-7.6,1.72-.332,.8-.054,2.187-.054,3.009 0,2.116 0,4.232 0,6.349 0,1.906-.962,6.837 .621,8.419 1.671,1.672 7.024,.621 9.058,.621 2.369,0 6.485,.972 7.6-1.721 .741-1.788-2.163-2.558-2.892-.798z"/>
<path d="m140.838,171.225c4.777,0 9.555,0 14.333,0 1.935,0 1.935-3 0-3-4.777,0-9.555,0-14.333,0-1.934,0-1.934,3 0,3z"/>
<path d="m160.583,133.722c.021,3.816-5.51,2.377-8.228,2.377-1.475,0-.9-7.913-.9-8.601 0-3.851 0-7.701 0-11.552 0-3.71 1.477-6.334 3.045-9.606 .779-1.627 1.324-3.422 1.528-5.216 .033-.285-.241-2.94-.08-1.308 .148,1.5 .536,2.938 .988,4.368 1.214,3.839 3.646,6.578 3.646,10.816 .001,6.242 .001,12.482 .001,18.722 0,1.935 3,1.935 3,0 0-4.04 0-8.08 0-12.12 0-4.245 .498-8.786-1.165-12.79-1.119-2.692-2.582-5.027-3.275-7.91-.686-2.854 .009-4.304-3.137-4.722-2.374-.316-2.743,1.769-2.816,3.53-.159,3.802-2.331,6.769-3.789,10.118-1.438,3.299-.945,7.314-.945,10.819 0,4.358 0,8.716 0,13.075 0,5.231 2.476,5.377 7.065,5.377 4.81,0 8.093,.366 8.062-5.377-.011-1.934-3.011-1.935-3,0z"/>
<path d="m155.062,97.216c.638,0 1.276,0 1.914,0 1.935,0 1.935-3 0-3-.638,0-1.276,0-1.914,0-1.935,0-1.935,3 0,3z"/>
<path d="m142.711,133.722c.021,3.816-5.509,2.377-8.227,2.377-1.476,0-.9-7.913-.9-8.601 0-3.851 0-7.701 0-11.552 0-3.71 1.477-6.334 3.045-9.606 .779-1.627 1.324-3.422 1.528-5.216 .033-.285-.241-2.94-.08-1.308 .148,1.5 .536,2.938 .988,4.368 1.214,3.839 3.646,6.578 3.646,10.816 0,6.242 0,12.482 0,18.722 0,1.935 3,1.935 3,0 0-4.04 0-8.08 0-12.12 0-4.245 .498-8.786-1.165-12.79-1.119-2.692-2.582-5.027-3.275-7.91-.686-2.854 .009-4.304-3.137-4.722-2.374-.316-2.743,1.769-2.816,3.53-.159,3.802-2.331,6.769-3.789,10.118-1.438,3.299-.945,7.314-.945,10.819 0,4.358 0,8.716 0,13.075 0,5.232 2.476,5.377 7.066,5.377 4.81,0 8.092,.366 8.062-5.377-.011-1.934-3.011-1.935-3.001,0z"/>
<path d="m137.191,97.216c.638,0 1.276,0 1.914,0 1.935,0 1.935-3 0-3-.638,0-1.276,0-1.914,0-1.935,0-1.935,3 0,3z"/>
<path d="m90.662,134.827c-.002,2.021-5.379,2.021-5.381,0-.002-1.799 0-3.598 0-5.396 0-2.519 0-5.037 0-7.556 0-2.627 1.357-4.415 2.245-6.763 .485-1.283 .907-2.598 .984-3.981-.841-.325-1.155-.19-.94,.403 .246,1.228 .547,2.325 1.009,3.486 .943,2.373 2.083,4.187 2.083,6.854 0,4.318 0,8.636 0,12.953 0,1.935 3,1.935 3,0 0-5.274 1.367-12.622-.743-17.609-1.112-2.627-2.26-4.747-2.574-7.673-.102-.944-.972-1.79-1.965-1.79-1.038,0-2.394,.175-2.728,1.391-.83,3.016-1.24,5.389-2.569,8.269-1.153,2.498-.802,5.481-.802,8.154 0,3.486-.003,6.972 .001,10.458 .004,3.332 3.279,3.054 5.689,3.054 3.547,0 5.685-.164 5.69-4.255 .004-1.933-2.996-1.933-2.999,.001z"/>
<path d="m87.31,109.323c.441,0 .882,0 1.323,0 1.935,0 1.935-3 0-3-.441,0-.882,0-1.323,0-1.935,0-1.935,3 0,3z"/>
<path d="m103.488,134.827c-.002,2.021-5.379,2.021-5.381,0-.002-1.799 0-3.598 0-5.396 0-2.519 0-5.037 0-7.556 0-2.627 1.357-4.415 2.245-6.763 .485-1.283 .907-2.598 .984-3.981-.841-.325-1.155-.19-.94,.403 .246,1.228 .547,2.325 1.009,3.486 .943,2.373 2.083,4.187 2.083,6.854 0,4.318 0,8.636 0,12.953 0,1.935 3,1.935 3,0 0-5.274 1.367-12.622-.743-17.609-1.112-2.627-2.26-4.747-2.574-7.673-.102-.944-.972-1.79-1.965-1.79-1.038,0-2.394,.175-2.728,1.391-.83,3.016-1.24,5.389-2.569,8.269-1.153,2.498-.802,5.481-.802,8.154 0,3.486-.003,6.972 .001,10.458 .004,3.332 3.279,3.054 5.689,3.054 3.547,0 5.685-.164 5.69-4.255 .004-1.933-2.996-1.933-2.999,.001z"/>
<path d="m100.136,109.323c.441,0 .882,0 1.323,0 1.935,0 1.935-3 0-3-.441,0-.882,0-1.323,0-1.934,0-1.934,3 0,3z"/>
<path d="m287.543,178.609c-23.618,0-47.237,0-70.855,0-4.514,0-4.514,7 0,7 23.618,0 47.237,0 70.855,0 4.514,0 4.514-7 0-7z"/>
<path d="m287.543,276.168c-23.618,0-47.237,0-70.855,0-4.514,0-4.514,7 0,7 23.618,0 47.237,0 70.855,0 4.514,0 4.514-7 0-7z"/>
<path d="m216.688,202.501c4.514,0 4.514-7 0-7s-4.514,7 0,7z"/>
<path d="m287.543,202.501c4.514,0 4.514-7 0-7s-4.514,7 0,7z"/>
<path d="m115,259.885c-.544,4.727-5.888,3.738-8.728,3.738-4.087,0-8.174,0-12.262,0-4.988,0-12.235,1.27-12.235-5.933 0-13.525 0-27.051 0-40.576 0-7.174 8.53-5.491 13.184-5.491 2.969,0 20.041-2.416 20.041,3.768 0,12.696 0,25.394 0,38.09 0,2.134 0,4.269 0,6.404 0,1.935 3,1.935 3,0 0-12.46 0-24.919 0-37.379 0-3.764 1.09-10.115-2.705-12.527-4.508-2.866-12.366-1.355-17.402-1.355-4.03,0-13.402-1.724-16.716,1.59-3.383,3.383-2.401,8.667-2.401,13.063 0,7.854 0,15.709 0,23.563 0,4.692-.4,9.575 .138,14.247 .929,8.066 14.77,5.537 19.969,5.537 6.547,0 18.062,2.425 19.117-6.738 .221-1.921-2.781-1.9-3-.001z"/>
<path d="m129.733,262.793c-4.272-.689-2.452-11.412-2.452-14.16 0-1.78 0-3.562 0-5.342 0-2.691 3.62-2.124 5.069-2.124 9.048,0 18.096,0 27.144,0 3.648,0 2.095,13.056 2.095,14.99 0,1.483 .785,6.582-2.095,6.582-1.207,0-2.413,0-3.619,0-8.847,0-17.694,0-26.541,0-1.935,0-1.935,3 0,3 5.034,0 10.067,0 15.101,0 4.974,0 10.575,.741 15.5-.054 6.229-1.005 4.654-8.67 4.654-13.247 0-4.681 1.788-13.179-4.654-14.218-4.615-.744-9.856-.054-14.516-.054-5.362,0-10.723,0-16.085,0-6.646,0-5.053,9.139-5.053,13.301 0,4.681-1.788,13.179 4.654,14.218 1.892,.306 2.704-2.584 .798-2.892z"/>
<path d="m132.733,238.221c-4.272-.689-2.452-11.412-2.452-14.16 0-1.78 0-3.562 0-5.342 0-2.691 3.62-2.124 5.069-2.124 9.048,0 18.096,0 27.144,0 3.648,0 2.095,13.056 2.095,14.99 0,1.483 .785,6.582-2.095,6.582-1.207,0-2.413,0-3.619,0-8.847,0-17.694,0-26.541,0-1.935,0-1.935,3 0,3 5.034,0 10.067,0 15.101,0 4.974,0 10.575,.741 15.5-.054 6.229-1.005 4.654-8.67 4.654-13.247 0-4.681 1.788-13.179-4.654-14.218-4.615-.744-9.856-.054-14.516-.054-5.362,0-10.723,0-16.085,0-6.646,0-5.053,9.139-5.053,13.301 0,4.681-1.788,13.179 4.654,14.218 1.892,.306 2.704-2.585 .798-2.892z"/>
<path d="m246.219,198.24c-.27-4.998-3.836-8.564-8.834-8.834-4.987-.269-8.586,4.241-8.833,8.834-.269,4.986 4.24,8.587 8.833,8.834 4.987,.269 8.587-4.241 8.834-8.834 .104-1.934-2.896-1.924-3,0-.405,7.52-11.262,7.52-11.667,0-.405-7.524 11.264-7.484 11.667,0 .103,1.924 3.104,1.934 3,0z"/>
<path d="m265.238,198.24c-.27-4.997-3.835-8.564-8.833-8.834-4.987-.269-8.586,4.241-8.833,8.834-.269,4.986 4.24,8.587 8.833,8.834 4.987,.269 8.586-4.242 8.833-8.834 .104-1.934-2.896-1.924-3,0-.405,7.52-11.261,7.52-11.666,0-.405-7.523 11.263-7.484 11.666,0 .104,1.924 3.105,1.934 3,0z"/>
<path d="m284.26,198.24c-.27-4.998-3.836-8.564-8.834-8.834-4.987-.269-8.586,4.241-8.833,8.834-.269,4.986 4.24,8.587 8.833,8.834 4.987,.269 8.587-4.241 8.834-8.834 .104-1.934-2.896-1.924-3,0-.405,7.52-11.262,7.52-11.667,0-.405-7.524 11.264-7.484 11.667,0 .103,1.924 3.104,1.934 3,0z"/>
<path d="m237.393,220.461c-.27-4.997-3.836-8.563-8.833-8.833-4.986-.269-8.586,4.24-8.833,8.833-.269,4.986 4.24,8.587 8.833,8.834 4.987,.268 8.586-4.241 8.833-8.834 .104-1.934-2.896-1.924-3,0-.405,7.52-11.261,7.52-11.666,0-.405-7.522 11.263-7.483 11.666,0 .103,1.924 3.104,1.934 3,0z"/>
<path d="m256.414,220.461c-.27-4.997-3.837-8.563-8.834-8.833-4.986-.269-8.586,4.24-8.833,8.833-.269,4.986 4.24,8.587 8.833,8.834 4.987,.268 8.587-4.241 8.834-8.834 .104-1.934-2.896-1.924-3,0-.405,7.52-11.262,7.52-11.667,0-.405-7.522 11.264-7.482 11.667,0 .104,1.924 3.105,1.934 3,0z"/>
<path d="m275.434,220.461c-.27-4.997-3.836-8.563-8.833-8.833-4.986-.269-8.586,4.24-8.833,8.833-.269,4.986 4.24,8.587 8.833,8.834 4.987,.268 8.586-4.241 8.833-8.834 .104-1.934-2.896-1.924-3,0-.405,7.52-11.261,7.52-11.666,0-.405-7.522 11.263-7.483 11.666,0 .103,1.924 3.104,1.934 3,0z"/>
<path d="m246.797,242.541c-.27-4.998-3.836-8.564-8.834-8.834-4.986-.269-8.585,4.242-8.832,8.834-.269,4.986 4.24,8.586 8.832,8.833 4.986,.269 8.587-4.24 8.834-8.833 .104-1.934-2.896-1.924-3,0-.405,7.519-11.261,7.519-11.666,0-.405-7.524 11.263-7.484 11.666,0 .103,1.924 3.104,1.934 3,0z"/>
<path d="m265.817,242.541c-.27-4.997-3.835-8.564-8.833-8.834-4.987-.269-8.586,4.241-8.833,8.834-.269,4.986 4.24,8.586 8.833,8.833 4.987,.269 8.586-4.24 8.833-8.833 .104-1.934-2.896-1.924-3,0-.405,7.519-11.261,7.519-11.666,0-.405-7.523 11.263-7.484 11.666,0 .104,1.924 3.105,1.934 3,0z"/>
<path d="m284.838,242.541c-.27-4.997-3.835-8.564-8.833-8.834-4.987-.269-8.586,4.241-8.833,8.834-.269,4.986 4.24,8.586 8.833,8.833 4.986,.269 8.586-4.24 8.833-8.833 .104-1.934-2.896-1.924-3,0-.405,7.519-11.261,7.519-11.666,0-.405-7.523 11.263-7.484 11.666,0 .103,1.924 3.104,1.934 3,0z"/>
<path d="m237.972,264.762c-.27-4.997-3.836-8.564-8.833-8.834-4.987-.269-8.587,4.241-8.834,8.834-.269,4.987 4.241,8.587 8.834,8.834 4.987,.268 8.586-4.242 8.833-8.834 .104-1.934-2.896-1.924-3,0-.405,7.52-11.262,7.52-11.667,0-.405-7.523 11.264-7.484 11.667,0 .103,1.924 3.104,1.933 3,0z"/>
<path d="m256.992,264.762c-.27-4.998-3.836-8.564-8.834-8.834-4.986-.269-8.585,4.242-8.832,8.834-.269,4.986 4.239,8.587 8.832,8.834 4.988,.268 8.587-4.242 8.834-8.834 .104-1.934-2.896-1.924-3,0-.405,7.52-11.261,7.52-11.666,0-.405-7.523 11.263-7.483 11.666,0 .104,1.924 3.105,1.933 3,0z"/>
<path d="m276.013,264.762c-.27-4.997-3.836-8.564-8.833-8.834-4.987-.269-8.587,4.241-8.834,8.834-.269,4.987 4.241,8.587 8.834,8.834 4.987,.268 8.586-4.242 8.833-8.834 .104-1.934-2.896-1.924-3,0-.405,7.52-11.262,7.52-11.667,0-.405-7.523 11.264-7.484 11.667,0 .103,1.924 3.104,1.933 3,0z"/>
<path d="m278.105,171.974c-.14,.337-.279,.674-.419,1.011 .814-.814 1.63-1.629 2.444-2.444-1.152,.477-3.008,.293-4.477,.293-3.616,0-7.231,0-10.848,0-3.367,0-6.734,0-10.103,0-1.658,0-3.89,.258-5.223-.293 .815,.815 1.63,1.63 2.445,2.444-1.426-3.441-.294-9.964-.294-13.872 0-4.17-1.232-11.185 .294-14.868-.815,.814-1.63,1.629-2.445,2.444 1.153-.477 3.009-.293 4.478-.293 3.616,0 7.231,0 10.848,0 3.367,0 6.734,0 10.103,0 1.658,0 3.89-.258 5.222,.293-.814-.815-1.63-1.63-2.444-2.444 1.426,3.439 .294,9.965 .294,13.872 0,4.93 0,9.859 0,14.789 0,4.514 7,4.514 7,0 0-5.917 0-11.833 0-17.749 0-5.236 1.849-13.214-3.999-15.635-1.427-.59-3.864-.125-5.327-.125-3.947,0-7.895,0-11.841,0-3.519,0-7.037,0-10.555,0-2.224,0-4.463-.282-6.474,.896-4.056,2.375-2.152,13.198-2.152,16.83 0,3.709 0,7.419 0,11.129 0,2.199-.311,4.533 .544,6.595 1.992,4.813 11.692,2.988 15.693,2.988 6.338,0 12.675,0 19.013,0 2.727,0 4.038-1.745 4.973-3.999 1.729-4.17-5.046-5.97-6.75-1.862z"/>
<path d="m279.966,133.775c.595-1.016 2.3-.667 .194-.667-1.169,0-2.338,0-3.507,0-3.936,0-7.871,0-11.807,0s-7.871,0-11.807,0c-1.169,0-2.338,0-3.507,0-2.832,0 .67,2.679 .67,1.073 0,2.219-3.389,1.958-.67,1.958 1.419,0 2.837,0 4.256,0 4.019,0 8.037,0 12.056,0 3.838,0 7.677,0 11.516,0 1.063,0 2.127,0 3.19,0 2.246,0-1.063-3.538-1.063-.597 0,4.514 7,4.514 7,0 0-4.279-2.066-6.403-6.328-6.403-4.44,0-8.881,0-13.321,0-5.056,0-10.112,0-15.168,0-3.213,0-7.256-.316-8.343,3.636-2.75,10 13.328,7.334 18.538,7.334 5.165,0 10.329,0 15.494,0 3.293,0 6.72,.499 8.65-2.8 2.286-3.905-3.765-7.426-6.043-3.534z"/>
<path d="m216.688,211.167c23.618,0 47.237,0 70.855,0 1.935,0 1.935-3 0-3-23.618,0-47.237,0-70.855,0-1.935,0-1.935,3 0,3z"/>
<path d="m216.486,233.167c23.618,0 47.237,0 70.855,0 1.935,0 1.935-3 0-3-23.618,0-47.237,0-70.855,0-1.934,0-1.934,3 0,3z"/>
<path d="m216.688,254.834c23.618,0 47.237,0 70.855,0 1.935,0 1.935-3 0-3-23.618,0-47.237,0-70.855,0-1.935,0-1.935,3 0,3z"/>
</g>
</svg>
