<svg xmlns="http://www.w3.org/2000/svg" viewBox="20 20 321 321">
<g fill="none"  stroke="#000" stroke-width="10">
<path d="m219.415,90.74c0,1.566-1.271,2.835-2.837,2.835h-70.909c-1.567,0-2.836-1.27-2.836-2.835v-13.237c0-1.566 1.27-2.836 2.836-2.836h70.909c1.566,0 2.837,1.271 2.837,2.836v13.237z"/>
<path d="m217.333,240.254c0,25.633-17.118,46.413-38.233,46.413-21.117,0-42.558-17.894-41.659-43.511 .539-15.34 9.655-21.203 16.396-32.395 7.01-11.641 11.553-36.533 15.211-38.624 .926-.529 9.354,10.756 11.243,24.338 3.266,23.474 16.138-9.127 16.932-8.334 2.572,2.573 6.209,6.492 8.2,9.656 7.407,11.774 11.91,26.435 11.91,42.457z"/>
<path d="m198.744,258.256c0,15.133-10.105,27.4-22.571,27.4-12.466,0-25.124-10.563-24.593-25.687 .318-9.056 5.7-12.517 9.68-19.124 4.138-6.871 6.82-21.566 8.979-22.801 .547-.313 5.522,6.351 6.637,14.367 1.929,13.857 9.527-5.388 9.995-4.919 1.52,1.52 3.666,3.832 4.842,5.7 4.373,6.951 7.031,15.607 7.031,25.064z"/>
</g>
<g fill="#000">
<path d="m232.192,96.631c-28.237,27.711-73.587,27.711-101.824,0-4.604-4.518-11.679,2.549-7.071,7.071 32.117,31.519 83.848,31.519 115.965,0 4.609-4.522-2.466-11.589-7.07-7.071z"/>
<path d="m253.798,107.631c-19.602,19.342-45.674,30.18-73.215,30.352-27.409,.171-53.795-11.188-73.214-30.352-4.592-4.532-11.667,2.537-7.071,7.071 21.452,21.169 50.141,33.092 80.286,33.281 29.999,.188 59.031-12.307 80.285-33.281 4.595-4.534-2.479-11.602-7.071-7.071z"/>
</g>
</svg>
