<svg xmlns="http://www.w3.org/2000/svg" viewBox="20 20 321 321">
<g fill="#000">
<path d="m180.744,155.583-.244-81 106.801,81z"/>
<path d="m185.744,155.583c-.081-27-.163-54-.244-81-2.508,1.439-5.016,2.878-7.523,4.317 35.59,26.992 71.18,53.984 106.77,80.976 .011,.008 .021,.016 .031,.024 .841-3.106 1.683-6.211 2.523-9.317-35.519,0-71.038,0-106.557,0-6.449,0-6.449,10 0,10 35.519,0 71.038,0 106.557,0 5.402,0 6.252-6.489 2.523-9.317-35.59-26.992-71.18-53.984-106.77-80.976-.011-.008-.021-.016-.031-.024-3.125-2.371-7.534,.868-7.523,4.317 .082,27 .163,54 .244,81 .02,6.448 10.02,6.45 10,0z"/>
<path d="m180.256,155.583 .244-80.999-106.801,80.999z"/>
<path d="m185.256,155.583c.081-27 .163-54 .244-81 .011-3.45-4.397-6.688-7.523-4.317-35.59,26.992-71.18,53.984-106.77,80.976-.011,.008-.021,.016-.031,.023-3.729,2.828-2.879,9.317 2.523,9.317 35.519,0 71.038,0 106.557,0 6.448,0 6.448-10 0-10-35.519,0-71.038,0-106.557,0 .841,3.106 1.683,6.211 2.523,9.317 35.59-26.992 71.18-53.984 106.77-80.976 .011-.008 .021-.016 .031-.023-2.508-1.439-5.016-2.878-7.523-4.317-.082,27-.163,54-.244,81-.02,6.45 9.98,6.448 10,0z"/>
</g>
<path fill="none"  stroke="#000" stroke-width="10" d="m268.5,278.988c0,3.919-3.927,7.096-8.771,7.096h-157.791c-4.844,0-8.771-3.177-8.771-7.096v-129.381c0-3.918 175.333-3.918 175.333,0v129.381z"/>
<g fill="#000">
<path d="m150.747,222.513c.081-.373 1.206-.235 2.468-.235 2.737,0 5.474,0 8.21,0 7.79,0 15.58,0 23.37,0 7.008,0 14.016,0 21.023,0 1.65,0 3.3,0 4.95,0 .916,0 .025-.1 .025-.592 0,.621 0,1.242 0,1.863 0,13.906 0,27.813 0,41.719 0,1.796 0,3.592 0,5.388 0,.868 .665-.288 .305-.288-.604,0-1.208,0-1.813,0-5.912,0-11.825,0-17.737,0-10.041,0-20.083,0-30.124,0-3.138,0-6.276,0-9.415,0-.538,0-1.076,0-1.613,0 .539,0 .474,1.143 .474,.288 0-.52 0-1.04 0-1.56 0-15.838 0-31.676 0-47.514 0-4.514-7-4.514-7,0 0,12.218 0,24.435 0,36.652 0,4.276 0,8.552 0,12.828 0,6.302 6.341,6.305 10.834,6.305 14.642,0 29.283,0 43.924,0 4.191,0 8.384,0 12.575,0 6.223,0 6.59-5.658 6.59-10.249 0-12.54 0-25.079 0-37.618 0-3.279 .336-6.716-.361-9.94-.988-4.568-6.404-4.282-9.946-4.282-12.457,0-24.913,0-37.371,0-5.479,0-10.957,0-16.435,0-4.221,0-8.585,.29-9.685,5.374-.95,4.401 5.798,6.272 6.752,1.861z"/>
<path d="m148.19,264.796c11.279,0 22.559,0 33.838,0 4.514,0 4.514-7 0-7-11.279,0-22.559,0-33.838,0-4.514,0-4.514,7 0,7z"/>
<path d="m149.776,251.24c10.75,0 21.501,0 32.252,0 4.514,0 4.514-7 0-7-10.75,0-21.501,0-32.252,0-4.514,0-4.514,7 0,7z"/>
<path d="m149.776,237.685c10.75,0 21.501,0 32.252,0 4.514,0 4.514-7 0-7-10.75,0-21.501,0-32.252,0-4.514,0-4.514,7 0,7z"/>
<path d="m161.397,216.35c0-3.627 0-7.253 0-10.88 0-1.574 0-3.148 0-4.723 0-.552-.754,1.849 .134,.219 .583-1.07 1.32-2.063 2.026-3.053 1.301-1.82 2.802-3.513 4.371-5.104 1.249-1.268-2.972-.082 .135-.082 4.085,0 8.17,0 12.255,0s8.17,0 12.255,0c2.338,0 .699,.515-.419-.441 1.873,1.602 3.462,3.659 4.926,5.628 .568,.765 1.092,1.559 1.608,2.358 .713,1.102 .552,1.918 .552,.243 0,1.651 0,3.303 0,4.955 0,3.627 0,7.253 0,10.88 0,6.448 10,6.448 10,0 0-4.477 0-8.953 0-13.429 0-4.81-1.866-7.933-4.795-11.731-2.598-3.371-5.978-8.463-10.746-8.463-4.461,0-8.921,0-13.381,0s-8.92,0-13.38,0c-4.769,0-8.147,5.093-10.746,8.463-2.928,3.799-4.795,6.922-4.795,11.731 0,4.476 0,8.952 0,13.429 0,6.448 10,6.448 10,0z"/>
</g>
</svg>
