<svg xmlns="http://www.w3.org/2000/svg" viewBox="20 20 321 321">
<g fill="#000">
<path d="m64.677,155.583-.244-81 106.801,81z"/>
<path d="m69.677,155.583c-.082-27-.163-54-.245-81-2.508,1.439-5.016,2.878-7.523,4.317 35.59,26.992 71.18,53.984 106.77,80.976 .01,.008 .021,.016 .031,.024 .841-3.106 1.682-6.211 2.523-9.317-35.519,0-71.038,0-106.557,0-6.449,0-6.449,10 0,10 35.519,0 71.038,0 106.557,0 5.402,0 6.252-6.489 2.523-9.317-35.59-26.992-71.18-53.984-106.77-80.976-.01-.008-.021-.016-.031-.024-3.125-2.371-7.534,.868-7.523,4.317 .082,27 .163,54 .245,81 .02,6.448 10.02,6.45 10,0z"/>
</g>
<g fill="none"  stroke="#000" stroke-width="10">
<path d="m152.433,280.916c0,3.223-4.727,5.834-10.558,5.834h-66.884c-5.832,0-10.558-2.611-10.558-5.834v-122.499c0-3.222 4.727-5.833 10.558-5.833h66.884c5.832,0 10.558,2.612 10.558,5.833v122.499z"/>
<path d="m117.433,280.404c0,3.137-2.687,5.68-6,5.68h-23.5c-3.313,0-6-2.543-6-5.68v-68.143c0-3.136 2.687-5.678 6-5.678h23.5c3.313,0 6,2.542 6,5.678v68.143z"/>
</g>
<g fill="#000">
<circle cx="274.833" cy="193.955" r="9.529"/>
<path d="m274.834,203.71c-5.379,0-9.756-4.376-9.756-9.755s4.377-9.755 9.756-9.755c5.378,0 9.754,4.376 9.754,9.755s-4.376,9.755-9.754,9.755zm0-19.059c-5.131,0-9.305,4.174-9.305,9.304 0,5.129 4.174,9.304 9.305,9.304 5.129,0 9.303-4.175 9.303-9.304 0-5.13-4.174-9.304-9.303-9.304z"/>
<path d="m264.727,248.03c0,13.085 0,26.173 0,39.259 0,5.244 8.121,5.289 8.121,.059 0-13.088 0-26.173 0-39.26 0-5.243-8.121-5.289-8.121-.058z"/>
<path d="m276.906,248.03c0,13.085 0,26.173 0,39.259 0,5.244 8.121,5.289 8.121,.059 0-13.088 0-26.173 0-39.26 0-5.243-8.121-5.289-8.121-.058z"/>
<path d="m285.066,248.776c0,2.608-2.115,4.723-4.724,4.723h-11.021c-2.607,0-4.723-2.114-4.723-4.723v-37.919c0-2.607 2.115-4.723 4.723-4.723h11.021c2.608,0 4.724,2.115 4.724,4.723v37.919z"/>
<path d="m286.156,211.323c0,5.544 0,11.088 0,16.632 0,3.782 5.863,3.782 5.863,0 0-5.544 0-11.088 0-16.632 .001-3.782-5.863-3.782-5.863,0z"/>
<path d="m286.156,227.955c0,5.545 0,11.09 0,16.633 0,3.781 5.863,3.781 5.863,0 0-5.543 0-11.088 0-16.633 .001-3.781-5.863-3.781-5.863,0z"/>
<path d="m257.646,211.322c0,5.545 0,11.088 0,16.633 0,3.781 5.863,3.781 5.863,0 0-5.545 0-11.088 0-16.633 .001-3.781-5.863-3.781-5.863,0z"/>
<path d="m257.646,227.955c0,5.545 0,11.09 0,16.633 0,3.781 5.863,3.781 5.863,0 0-5.543 0-11.088 0-16.633 .001-3.781-5.863-3.781-5.863,0z"/>
<path d="m248.698,285.252c-.15,.363-.301,.727-.451,1.09 .814-.814 1.63-1.629 2.444-2.444-1.93,.8-5.177,.327-7.446,.327-5.736,0-11.474,0-17.21,0-5.488,0-10.977,0-16.465,0-2.461,0-6.081,.548-8.191-.327 .815,.815 1.63,1.63 2.444,2.444-1.575-3.802-.326-10.823-.326-15.085 0-3.635 0-7.271 0-10.905 0-1.686-.248-3.776 .326-5.164-.814,.815-1.629,1.63-2.444,2.444 1.93-.799 5.178-.326 7.446-.326 5.736,0 11.474,0 17.21,0 5.488,0 10.977,0 16.465,0 2.461,0 6.08-.548 8.191,.326-.814-.814-1.63-1.629-2.444-2.444 1.574,3.805 .326,10.823 .326,15.086 0,5.303 0,10.606 0,15.909 0,4.514 7,4.514 7,0 0-5.631 0-11.261 0-16.892 0-3.45 0-6.899 0-10.35 0-2.241 .26-4.421-.929-6.45-2.048-3.495-9.687-2.186-12.915-2.186-7.838,0-15.677,0-23.516,0-5.42,0-10.841,0-16.261,0-6.246,0-5.456,6.534-5.456,10.814 0,7.367 0,14.735 0,22.104 0,4.662 1.381,8.001 6.636,8.001 9.924,0 19.848,0 29.771,0 4.727,0 9.453,0 14.18,0 3.805,0 6.663-.003 8.364-4.111 1.728-4.171-5.048-5.969-6.749-1.861z"/>
<path d="m231.551,250.28c.035-.062 0,.025-.53,.025-.639,0-1.277,0-1.916,0-1.734,0-3.469,0-5.203,0-1.172,0-2.344,0-3.516,0-.332-.027-.231,.187 .302,.642 0-.354 0-.71 0-1.065 0-.866 0-1.732 0-2.599 0,.81-.729,.641 .325,.641 .639,0 1.277,0 1.916,0 1.899,0 3.8,0 5.7,0 1.038,0 2.076,0 3.114,0-.308-.748-.44-.88-.397-.396 0,.441 0,.884 0,1.325 0,.729 0,1.456 0,2.184 0,1.935 3,1.935 3,0 0-1.701 .354-3.629-.518-5.145-.791-1.374-3.422-.969-4.724-.969-2.35,0-4.698,0-7.048,0-1.663,0-3.755-.166-4.315,1.871-.314,1.141-.457,3.945 .151,4.999 1.023,1.774 2.801,1.512 4.585,1.512 2.359,0 4.719,0 7.078,0 1.784,0 3.563,.263 4.585-1.512 .968-1.678-1.624-3.189-2.589-1.513z"/>
<path d="m205.726,254.672c0,10.634 0,21.267 0,31.9 0,1.935 3,1.935 3,0 0-10.634 0-21.267 0-31.9 0-1.935-3-1.935-3,0z"/>
<path d="m243.463,254.426c0,10.634 0,21.268 0,31.901 0,1.935 3,1.935 3,0 0-10.634 0-21.268 0-31.901 0-1.935-3-1.935-3,0z"/>
<path d="m221.79,264.246c.173,1.015-5.168,2.193-6.09,2.498-1.551,.514-2.052-3.317-2.439-4.489-.287-.867 5.278-2.229 6.09-2.497 1.551-.514 2.051,3.315 2.439,4.488 .604,1.828 3.502,1.045 2.893-.797-.921-2.786-1.749-8.033-5.909-6.657-3.232,1.068-9.186,1.677-8.405,6.26 .493,2.897 2.096,7.921 5.909,6.658 3.23-1.069 9.186-1.68 8.405-6.261-.325-1.904-3.215-1.095-2.893,.797z"/>
</g>
</svg>
