<svg xmlns="http://www.w3.org/2000/svg" viewBox="20 20 321 321">
<g fill="#000">
<path d="m180.744,155.583-.244-81 106.801,81z"/>
<path d="m185.744,155.583c-.081-27-.163-54-.244-81-2.508,1.439-5.016,2.878-7.523,4.317 35.59,26.992 71.18,53.984 106.77,80.976 .011,.008 .021,.016 .031,.024 .841-3.106 1.683-6.211 2.523-9.317-35.519,0-71.038,0-106.557,0-6.449,0-6.449,10 0,10 35.519,0 71.038,0 106.557,0 5.402,0 6.252-6.489 2.523-9.317-35.59-26.992-71.18-53.984-106.77-80.976-.011-.008-.021-.016-.031-.024-3.125-2.371-7.534,.868-7.523,4.317 .082,27 .163,54 .244,81 .02,6.448 10.02,6.45 10,0z"/>
<path d="m180.256,155.583 .244-80.999-106.801,80.999z"/>
<path d="m185.256,155.583c.081-27 .163-54 .244-81 .011-3.45-4.397-6.688-7.523-4.317-35.59,26.992-71.18,53.984-106.77,80.976-.011,.008-.021,.016-.031,.023-3.729,2.828-2.879,9.317 2.523,9.317 35.519,0 71.038,0 106.557,0 6.448,0 6.448-10 0-10-35.519,0-71.038,0-106.557,0 .841,3.106 1.683,6.211 2.523,9.317 35.59-26.992 71.18-53.984 106.77-80.976 .011-.008 .021-.016 .031-.023-2.508-1.439-5.016-2.878-7.523-4.317-.082,27-.163,54-.244,81-.02,6.45 9.98,6.448 10,0z"/>
</g>
<path fill="none"  stroke="#000" stroke-width="10" d="m268.5,278.988c0,3.919-3.927,7.096-8.771,7.096h-157.791c-4.844,0-8.771-3.177-8.771-7.096v-129.381c0-3.918 175.333-3.918 175.333,0v129.381z"/>
<g fill="#000">
<path d="m148.839,207.426c-.564,6.99-12.401,4.803-17.112,4.803-5.736,0-11.472,0-17.208,0-6.958,0-4.802-12.865-4.802-17.111 0-5.736 0-11.473 0-17.208 0-6.958 12.864-4.802 17.111-4.802 5.736,0 11.472,0 17.208,0 6.959,0 4.803,12.863 4.803,17.111 0,5.735 0,11.47 0,17.207 0,4.514 7,4.514 7,0 0-5.736 0-11.472 0-17.208 0-5.827 .91-12.416-1.405-17.891-2.917-6.901-11.121-6.22-17.191-6.22-7.096,0-14.193,0-21.29,0-7.185,0-13.236,4.531-13.236,12.178 0,6.562 0,13.125 0,19.686 0,6.317-.955,12.657 3.457,17.801 4.075,4.752 12.267,3.457 17.8,3.457 10.888,0 30.602,3.853 31.865-11.803 .364-4.502-6.639-4.468-7,0z"/>
<path d="m116.198,197.668c8.72,0 17.44,0 26.161,0 6.449,0 6.449-10 0-10-8.72,0-17.44,0-26.161,0-6.448,0-6.448,10 0,10z"/>
<path d="m180.982,170.046c3.601,0 6.529,2.929 6.529,6.529 0,3.601-2.929,6.53-6.529,6.53s-6.53-2.929-6.53-6.53c.001-3.599 2.93-6.529 6.53-6.529m0-3c-5.263,0-9.53,4.266-9.53,9.529s4.267,9.53 9.53,9.53c5.263,0 9.529-4.267 9.529-9.53s-4.266-9.529-9.529-9.529z"/>
<path d="m180.982,166.821c-5.379,0-9.755,4.376-9.755,9.755s4.376,9.754 9.755,9.754 9.754-4.376 9.754-9.754-4.375-9.755-9.754-9.755zm0,19.058c-5.13,0-9.304-4.174-9.304-9.303 0-5.13 4.173-9.304 9.304-9.304 5.13,0 9.303,4.174 9.303,9.304 0,5.129-4.173,9.303-9.303,9.303z"/>
<path d="m186.492,191.756c.95,0 1.723,.772 1.723,1.723v37.797c-.011,.082-.021,.164-.027,.247-.007,.084-.011,.169-.011,.253v38.192c0,.27 0,.899-1.031,.899-1.091,0-1.091-.721-1.091-.957v-33.791c0-1.657-1.343-3-3-3h-4.058c-1.657,0-3,1.343-3,3v33.849c0,.27 0,.899-1.031,.899-1.091,0-1.091-.721-1.091-.957v-37.463c0-.225-.025-.447-.075-.666-.035-.152-.052-.278-.052-.385v-37.918c0-.95 .773-1.723 1.723-1.723h11.021m0-2.999h-11.021c-2.608,0-4.723,2.114-4.723,4.723v37.918c0,.363 .049,.712 .126,1.051 0,12.486 0,24.975 0,37.463 0,2.635 2.051,3.957 4.091,3.957 2.021,0 4.031-1.297 4.031-3.899 0-11.283 0-22.565 0-33.849h4.058c0,11.264 0,22.527 0,33.791 0,2.635 2.051,3.957 4.091,3.957 2.021,0 4.031-1.297 4.031-3.899 0-12.731 0-25.462 0-38.192 .011-.127 .038-.249 .038-.379v-37.918c.001-2.61-2.114-4.724-4.722-4.724z"/>
<path d="m195.236,191.107c-1.466,0-2.932,.945-2.932,2.836 0,5.545 0,11.088 0,16.633s0,11.089 0,16.633c0,1.891 1.466,2.836 2.932,2.836 1.467,0 2.933-.945 2.933-2.836 0-5.544 0-11.088 0-16.633s0-11.088 0-16.633c0-1.89-1.466-2.836-2.933-2.836z"/>
<path d="m166.727,191.107c-1.466,0-2.932,.945-2.932,2.836 0,5.545 0,11.088 0,16.633s0,11.089 0,16.633c0,1.891 1.466,2.836 2.932,2.836s2.932-.945 2.932-2.836c0-5.544 0-11.088 0-16.633s0-11.088 0-16.633c0-1.89-1.466-2.836-2.932-2.836z"/>
</g>
</svg>
