<svg xmlns="http://www.w3.org/2000/svg" viewBox="20 20 321 321">
<g fill="#000">
<path d="m79.873,161.084c15.77-35.481 45.484-61.806 82.354-73.811 39.982-13.018 84.019-7.971 122.167,8.59 5.852,2.541 10.949-6.073 5.047-8.635-40.863-17.74-86.938-23.159-129.873-9.598-39.156,12.367-71.634,40.84-88.331,78.406-2.593,5.839 6.021,10.932 8.636,5.048z"/>
<path d="m79.038,162.129c26.971-26.788 63.205-41.83 101.209-42.087 38.527-.261 75.737,15.62 103.048,42.59 4.59,4.533 11.664-2.535 7.07-7.071-29.012-28.651-67.952-45.045-108.745-45.515-40.924-.472-80.707,16.263-109.654,45.012-4.58,4.548 2.493,11.618 7.072,7.071z"/>
<path d="m281.918,92.442c0,22.218 0,44.436 0,66.654 0,6.449 10,6.449 10,0 0-22.218 0-44.436 0-66.654 0-6.449-10-6.449-10-0z"/>
<path d="m87.617,194.69c-4.742,0-9.484,0-14.227,0 1.167,1.167 2.333,2.333 3.5,3.5 0-7.452 0-14.904 0-22.356-1.167,1.167-2.333,2.333-3.5,3.5 4.742,0 9.484,0 14.227,0-1.167-1.167-2.333-2.333-3.5-3.5 0,7.452 0,14.904 0,22.356 0,4.514 7,4.514 7,0 0-7.452 0-14.904 0-22.356 0-1.908-1.592-3.5-3.5-3.5-4.742,0-9.484,0-14.227,0-1.908,0-3.5,1.592-3.5,3.5 0,7.452 0,14.904 0,22.356 0,1.908 1.592,3.5 3.5,3.5 4.742,0 9.484,0 14.227,0 4.514,0 4.514-7 0-7z"/>
<path d="m289,195.453c-4.742,0-9.484,0-14.227,0 1.167,1.167 2.333,2.333 3.5,3.5 0-7.452 0-14.904 0-22.357-1.167,1.167-2.333,2.333-3.5,3.5 4.742,0 9.484,0 14.227,0-1.167-1.167-2.333-2.333-3.5-3.5 0,7.453 0,14.905 0,22.357 0,4.514 7,4.514 7,0 0-7.452 0-14.904 0-22.357 0-1.908-1.592-3.5-3.5-3.5-4.742,0-9.484,0-14.227,0-1.908,0-3.5,1.592-3.5,3.5 0,7.453 0,14.905 0,22.357 0,1.908 1.592,3.5 3.5,3.5 4.742,0 9.484,0 14.227,0 4.514,0 4.514-7 0-7z"/>
<path d="m266.135,195.453c-4.742,0-9.484,0-14.227,0 1.167,1.167 2.333,2.333 3.5,3.5 0-7.452 0-14.904 0-22.357-1.167,1.167-2.333,2.333-3.5,3.5 4.742,0 9.484,0 14.227,0-1.167-1.167-2.333-2.333-3.5-3.5 0,7.453 0,14.905 0,22.357 0,4.514 7,4.514 7,0 0-7.452 0-14.904 0-22.357 0-1.908-1.592-3.5-3.5-3.5-4.742,0-9.484,0-14.227,0-1.908,0-3.5,1.592-3.5,3.5 0,7.453 0,14.905 0,22.357 0,1.908 1.592,3.5 3.5,3.5 4.742,0 9.484,0 14.227,0 4.513,0 4.513-7 0-7z"/>
<path d="m239.77,176.278c0,7.686 0,15.37 0,23.056 0,4.514 7,4.514 7,0 0-7.686 0-15.37 0-23.056 0-4.514-7-4.514-7,0z"/>
</g>
<path fill="none"  stroke="#000" stroke-width="10" d="m178.171,253.709c0,1.932-1.696,3.497-3.788,3.497h-13.888c-2.092,0-3.788-1.565-3.788-3.497v-96.958c0-1.931 1.696-3.497 3.788-3.497h13.888c2.092,0 3.788,1.566 3.788,3.497v96.958z"/>
<g fill="#000">
<path  stroke="#000" stroke-width="10" d="m183.852,282.879c0,2.094-1.329,3.788-2.969,3.788h-26.888c-1.64,0-2.969-1.694-2.969-3.788v-21.885c0-2.092 1.329-3.787 2.969-3.787h26.888c1.64,0 2.969,1.695 2.969,3.787v21.885z"/>
<path d="m193.301,165.83c3.788,0 7.576,0 11.364,0 6.448,0 6.448-10 0-10-3.788,0-7.576,0-11.364,0-6.448,0-6.448,10 0,10z"/>
<path d="m193.301,191.081c3.788,0 7.576,0 11.364,0 6.448,0 6.448-10 0-10-3.788,0-7.576,0-11.364,0-6.448,0-6.448,10 0,10z"/>
<path d="m193.301,216.964c3.788,0 7.576,0 11.364,0 6.448,0 6.448-10 0-10-3.788,0-7.576,0-11.364,0-6.448,0-6.448,10 0,10z"/>
<path d="m193.301,244.109c3.788,0 7.576,0 11.364,0 6.448,0 6.448-10 0-10-3.788,0-7.576,0-11.364,0-6.448,0-6.448,10 0,10z"/>
<path  stroke="#000" stroke-width="10" d="m156.706,222.539h21.464v44.559h-21.464z"/>
</g>
</svg>
