<svg xmlns="http://www.w3.org/2000/svg" viewBox="20 20 321 321">
<g fill="#000">
<path d="m219.609,242.712c-12.438-15.899-24.877-31.799-37.315-47.698-2.779-3.553-7.696,1.438-4.95,4.949 12.439,15.899 24.877,31.799 37.316,47.698 2.779,3.553 7.696-1.438 4.949-4.949z"/>
<path d="m115.234,150.121c26.712-36.986 80.69-43.749 115.845-14.792 35.518,29.256 38.264,83.495 7.041,116.85-28.386,30.323-77.125,32.855-109.005,6.595-32.56-26.821-37.727-74.506-13.881-108.653 5.545-7.941-7.491-15.375-12.99-7.5-27.152,38.88-20.883,93.17 14.211,124.995 35.608,32.291 90.287,31.72 126.388,.799 36.061-30.887 42.13-86.313 15.625-125.109-27.157-39.75-80.619-52.041-122.98-30.173-13.37,6.902-24.488,17.363-33.245,29.488-2.397,3.319-.524,8.358 2.745,10.245 3.809,2.199 7.855,.566 10.246-2.745z"/>
<path d="m98.698,200.322c6,0 11.999,0 17.998,0 4.514,0 4.514-7 0-7-6,0-11.999,0-17.998,0-4.514,0-4.514,7 0,7z"/>
<path d="m243.465,200.322c5.869,0 11.738,0 17.607,0 4.514,0 4.514-7 0-7-5.869,0-11.738,0-17.607,0-4.514,0-4.514,7 0,7z"/>
<path d="m176.58,116.613c0,5.608 0,11.216 0,16.825 0,4.514 7,4.514 7,0 0-5.608 0-11.216 0-16.825 0-4.514-7-4.514-7,0z"/>
<path d="m176.58,260.207c0,5.738 0,11.477 0,17.215 0,4.514 7,4.514 7,0 0-5.738 0-11.477 0-17.215 0-4.514-7-4.514-7,0z"/>
<path d="m120.14,141.947c4.243,4.242 8.485,8.484 12.727,12.727 3.195,3.194 8.145-1.755 4.95-4.95-4.243-4.242-8.485-8.484-12.727-12.727-3.195-3.195-8.145,1.755-4.95,4.95z"/>
<path d="m222.506,244.313c4.15,4.15 8.301,8.301 12.451,12.45 3.194,3.194 8.145-1.755 4.949-4.949-4.15-4.15-8.301-8.301-12.451-12.45-3.194-3.195-8.144,1.754-4.949,4.949z"/>
<path d="m234.402,137.827c-3.966,3.966-7.932,7.931-11.896,11.896-3.195,3.195 1.755,8.145 4.949,4.95 3.966-3.966 7.932-7.931 11.896-11.896 3.196-3.195-1.754-8.145-4.949-4.95z"/>
<path d="m132.867,239.363c-4.058,4.058-8.115,8.115-12.173,12.174-3.194,3.194 1.755,8.145 4.95,4.949 4.058-4.058 8.115-8.115 12.173-12.174 3.194-3.194-1.755-8.144-4.95-4.949z"/>
<path d="m96.756,234.975c6.206-2.57 12.411-5.141 18.617-7.711 4.108-1.702 2.31-8.478-1.861-6.75-6.206,2.57-12.411,5.141-18.617,7.711-4.109,1.702-2.31,8.477 1.861,6.75z"/>
<path d="m246.495,172.951c6.07-2.515 12.141-5.029 18.211-7.543 4.108-1.702 2.31-8.478-1.861-6.75-6.07,2.515-12.141,5.029-18.211,7.543-4.109,1.702-2.31,8.477 1.861,6.75z"/>
<path d="m142.263,114.699c2.403,5.801 4.806,11.602 7.209,17.402 1.702,4.108 8.478,2.309 6.75-1.861-2.403-5.801-4.806-11.602-7.209-17.402-1.702-4.109-8.477-2.309-6.75,1.861z"/>
<path d="m203.785,263.224c2.458,5.936 4.917,11.871 7.375,17.808 1.701,4.108 8.478,2.31 6.75-1.861-2.458-5.936-4.917-11.871-7.375-17.808-1.701-4.109-8.477-2.31-6.75,1.861z"/>
<path d="m95.063,165.407c6.206,2.57 12.411,5.141 18.616,7.711 4.171,1.728 5.97-5.048 1.861-6.75-6.206-2.57-12.411-5.141-18.616-7.711-4.171-1.727-5.97,5.049-1.861,6.75z"/>
<path d="m244.802,227.432c6.07,2.515 12.141,5.028 18.211,7.543 4.171,1.728 5.97-5.048 1.861-6.75-6.07-2.515-12.141-5.028-18.211-7.543-4.171-1.728-5.97,5.047-1.861,6.75z"/>
<path d="m211.16,113.005c-2.402,5.801-4.805,11.602-7.207,17.402-1.728,4.171 5.048,5.97 6.75,1.861 2.402-5.801 4.805-11.602 7.207-17.402 1.728-4.171-5.048-5.97-6.75-1.861z"/>
<path d="m149.639,261.53c-2.458,5.936-4.917,11.871-7.376,17.807-1.728,4.171 5.048,5.97 6.75,1.861 2.458-5.936 4.917-11.871 7.376-17.807 1.728-4.17-5.048-5.969-6.75-1.861z"/>
<path d="m176.326,196.031c1.413-1.812 3.202-2.877 5.43-1.709 1.879,.985 2.283,3.326 1.364,5.078-.985,1.879-3.326,2.284-5.079,1.365-2.307-1.209-2.148-3.862-.934-5.746 3.506-5.438-5.154-10.445-8.635-5.047-3.756,5.825-2.709,13.884 2.841,18.215 5.837,4.556 14.563,3.923 19.228-2.061 4.554-5.839 3.924-14.559-2.06-19.227-5.837-4.555-14.562-3.922-19.228,2.061-1.675,2.146-2.103,4.968 0,7.07 1.75,1.75 5.393,2.155 7.073,.001z"/>
<path d="m200.375,102.912c0,2.663-2.158,4.822-4.822,4.822h-28.298c-2.664,0-4.823-2.159-4.823-4.822v-1.227c0-2.663 2.159-4.822 4.823-4.822h28.298c2.664,0 4.822,2.159 4.822,4.822v1.227z"/>
<path d="m207.746,95.846c0,2.243-1.621,4.062-3.623,4.062h-45.86c-2.001,0-3.624-1.819-3.624-4.062v-5.487c0-2.243 1.623-4.061 3.624-4.061h45.86c2.002,0 3.623,1.818 3.623,4.061v5.487z"/>
<path d="m256.799,137.758c-2.082,2.083-5.459,2.083-7.543,0l-8.827-8.827c-2.083-2.083-2.083-5.459 0-7.542l.959-.959c2.083-2.083 5.46-2.083 7.544,0l8.826,8.827c2.083,2.083 2.084,5.459 .001,7.543l-.96,.958z"/>
<path d="m272.543,135.028c-1.754,1.754-4.444,1.908-6.01,.342l-22.562-22.563c-1.565-1.565-1.412-4.256 .341-6.011l4.293-4.291c1.754-1.754 4.445-1.907 6.01-.342l22.563,22.562c1.565,1.566 1.412,4.256-.342,6.011l-4.293,4.292z"/>
<path d="m121.508,121.692c2.083,2.083 2.083,5.46 0,7.543l-8.827,8.828c-2.083,2.083-5.459,2.083-7.543,0l-.958-.96c-2.083-2.083-2.083-5.459 0-7.543l8.826-8.827c2.083-2.083 5.46-2.083 7.543,0l.959,.959z"/>
<path d="m118.778,105.948c1.754,1.754 1.908,4.445 .342,6.009l-22.562,22.563c-1.565,1.565-4.256,1.412-6.01-.342l-4.292-4.292c-1.755-1.754-1.908-4.445-.342-6.01l22.563-22.563c1.565-1.566 4.256-1.413 6.01,.343l4.291,4.292z"/>
<path d="m211.833,87.434c-.441,3.832-11.021,2.169-13.039,2.169-7.885,0-15.77,0-23.654,0-6.537,0-13.073,0-19.609,0-1.009,0-2.019,0-3.028,0-3.488,0-2.169-8.986-2.169-10.762 0-4.248 9.223-2.673 11.478-2.673 7.75,0 15.5,0 23.249,0 6.852,0 13.702,0 20.553,0 1.32,0 2.641,0 3.96,0 3.477,0 2.261,7.707 2.261,9.463-.002,.6-.002,1.202-.002,1.803 0,4.514 7,4.514 7,0 0-7.127 1.27-15.058-6.938-17.992-3.473-1.241-8.764-.275-12.309-.275-14.521,0-29.04,0-43.56,0-5.501,0-11.763,1.099-12.543,7.87-.7,6.077-1.553,16.31 5.596,18.865 3.864,1.381 8.712,.701 12.732,.701 7.75,0 15.5,0 23.249,0 7.027,0 14.054,0 21.081,0 6.423,0 11.836-1.729 12.692-9.169 .516-4.48-6.489-4.431-7,0z"/>
</g>
</svg>
