<svg xmlns="http://www.w3.org/2000/svg" viewBox="20 20 321 321">
<g fill="#000">
<path d="m242.048,147.819c0,12.846 0,25.692 0,38.539 0,6.448 10,6.448 10,0 0-12.846 0-25.692 0-38.539 0-6.449-10-6.449-10-0z"/>
<path d="m233.311,156.016c3.744,2.162 7.489,4.324 11.234,6.486 5.595,3.23 10.628-5.412 5.047-8.635-3.744-2.162-7.489-4.324-11.234-6.486-5.595-3.231-10.629,5.412-5.047,8.635z"/>
<path d="m255.611,147.381c-3.745,2.162-7.49,4.324-11.235,6.486-5.581,3.222-.548,11.865 5.047,8.635 3.745-2.162 7.49-4.324 11.235-6.486 5.582-3.223 .548-11.865-5.047-8.635z"/>
<path d="m211.015,170.962c11.125,6.423 22.251,12.847 33.376,19.27 5.595,3.23 10.628-5.412 5.047-8.635-11.125-6.423-22.25-12.846-33.376-19.27-5.595-3.23-10.628,5.413-5.047,8.635z"/>
<path d="m213.814,182.613c3.746-2.162 7.491-4.324 11.236-6.486 5.582-3.222 .548-11.865-5.047-8.635-3.746,2.162-7.491,4.325-11.236,6.487-5.581,3.222-.547,11.865 5.047,8.634z"/>
<path d="m217.442,158.983c0,4.325-.001,8.649-.001,12.974 0,6.449 10,6.449 10,0 0-4.325 .001-8.649 .001-12.974 .001-6.449-9.999-6.449-10,0z"/>
<path d="m216.146,209.476c11.126-6.424 22.252-12.848 33.377-19.271 5.581-3.223 .548-11.865-5.047-8.635-11.126,6.424-22.252,12.848-33.377,19.271-5.58,3.222-.547,11.865 5.047,8.635z"/>
<path d="m227.59,212.929c0-4.324 0-8.648 0-12.973 0-6.448-10-6.448-10,0 0,4.324 0,8.648 0,12.973 0,6.448 10,6.448 10,0z"/>
<path d="m208.916,197.933c3.745,2.163 7.49,4.325 11.236,6.488 5.595,3.23 10.628-5.412 5.047-8.635-3.745-2.163-7.49-4.325-11.236-6.488-5.595-3.231-10.628,5.412-5.047,8.635z"/>
<path d="m252.006,224.566c0-12.847 0-25.693 0-38.54 0-6.449-10-6.449-10,0 0,12.847 0,25.693 0,38.54 0,6.449 10,6.449 10,0z"/>
<path d="m260.743,216.369c-3.745-2.162-7.49-4.325-11.235-6.487-5.595-3.23-10.628,5.412-5.047,8.635 3.745,2.162 7.49,4.325 11.235,6.487 5.595,3.23 10.628-5.412 5.047-8.635z"/>
<path d="m238.441,225.004c3.745-2.162 7.49-4.325 11.235-6.487 5.581-3.223 .548-11.865-5.047-8.635-3.745,2.162-7.49,4.325-11.235,6.487-5.581,3.223-.547,11.865 5.047,8.635z"/>
<path d="m283.038,201.13c-11.125-6.423-22.251-12.847-33.376-19.27-5.595-3.23-10.628,5.412-5.047,8.635 11.125,6.423 22.25,12.847 33.376,19.27 5.595,3.23 10.628-5.412 5.047-8.635z"/>
<path d="m280.238,189.478c-3.745,2.162-7.49,4.324-11.234,6.486-5.581,3.223-.548,11.865 5.047,8.635 3.745-2.162 7.49-4.324 11.234-6.486 5.581-3.223 .548-11.866-5.047-8.635z"/>
<path d="m276.611,213.108c0-4.324 0-8.649 0-12.974 0-6.448-10-6.448-10,0 0,4.324 0,8.649 0,12.974 0,6.449 10,6.449 10,0z"/>
<path d="m277.906,162.617c-11.125,6.423-22.251,12.847-33.376,19.27-5.581,3.223-.548,11.865 5.047,8.635 11.126-6.424 22.251-12.847 33.376-19.27 5.581-3.223 .548-11.866-5.047-8.635z"/>
<path d="m266.463,159.162c0,4.325 0,8.649 0,12.974 0,6.449 10,6.449 10,0 0-4.325 0-8.649 0-12.974 0-6.449-10-6.449-10,0z"/>
<path d="m285.137,174.159c-3.744-2.163-7.489-4.325-11.234-6.488-5.595-3.231-10.628,5.412-5.047,8.635 3.744,2.163 7.489,4.325 11.234,6.487 5.595,3.231 10.628-5.411 5.047-8.634z"/>
</g>
<g fill="none"  stroke="#000" stroke-width="10">
<path d="m176.333,281.188c0,2.89-2.344,5.233-5.234,5.233h-71.532c-2.89,0-5.234-2.344-5.234-5.233v-49.288c0-2.89 2.344-5.233 5.234-5.233h71.532c2.89,0 5.234,2.344 5.234,5.233v49.288z"/>
<path d="m166.738,217.262c0,2.985-2.42,5.405-5.405,5.405h-53.595c-2.985,0-5.405-2.42-5.405-5.405v-48.19c0-2.985 2.42-5.405 5.405-5.405h53.595c2.985,0 5.405,2.42 5.405,5.405v48.19z"/>
<path d="m149.833,152.741c0,2.997-2.429,5.426-5.426,5.426h-31.649c-2.996,0-5.425-2.429-5.425-5.426v-31.649c0-2.996 2.429-5.425 5.425-5.425h31.649c2.997,0 5.426,2.429 5.426,5.425v31.649z"/>
<path d="m142.583,98.042c.832,3.208-1.094,6.482-4.301,7.315l-22.748,5.899c-3.207,.832-6.482-1.094-7.314-4.301l-4.77-18.392c-.833-3.207 1.094-6.482 4.301-7.314l22.748-5.9c3.207-.832 6.482,1.094 7.314,4.301l4.77,18.392z"/>
<path d="m161.002,103.337c.659,2.54-1.299,5.244-4.373,6.042l-55.174,14.311c-3.074,.797-6.1-.615-6.758-3.154-.659-2.54 1.299-5.244 4.373-6.042l55.174-14.311c3.073-.797 6.099,.615 6.758,3.154z"/>
</g>
<g fill="#000">
<path d="m149.822,136.234c5.938,2.239 11.876,4.477 17.814,6.715 .443-3.274 .886-6.547 1.329-9.821-6.328-.48-12.655-.96-18.983-1.441 1.607,2.11 3.214,4.219 4.821,6.329 .39-1.758 .779-3.516 1.169-5.274 1.393-6.283-8.248-8.953-9.643-2.658-.39,1.758-.779,3.516-1.169,5.274-.74,3.34 1.489,6.076 4.821,6.329 6.328,.48 12.655,.96 18.983,1.441 6.011,.456 6.257-7.964 1.329-9.821-5.938-2.239-11.876-4.477-17.814-6.715-6.045-2.279-8.632,7.39-2.657,9.642z"/>
<path d="m139.167,129.8c0,2.135-1.731,3.867-3.867,3.867h-1.933c-2.135,0-3.867-1.731-3.867-3.867v-1.933c0-2.135 1.731-3.867 3.867-3.867h1.933c2.135,0 3.867,1.731 3.867,3.867v1.933z"/>
<path d="m137.124,193.146c-19.497-16.656-38.994-33.313-58.491-49.969-4.874-4.163-11.982,2.876-7.071,7.071 19.497,16.656 38.994,33.313 58.491,49.968 4.873,4.165 11.981-2.875 7.071-7.07z"/>
<path d="m95.637,157.479c1.058-5.949 2.115-11.897 3.172-17.847 1.121-6.304-8.516-9-9.643-2.658-1.058,5.949-2.115,11.897-3.172,17.847-1.12,6.304 8.516,9 9.643,2.658z"/>
<path d="m93.775,159.303c-6.331,.658-12.661,1.315-18.991,1.973-6.348,.659-6.412,10.666 0,10 6.331-.658 12.661-1.315 18.991-1.973 6.348-.659 6.412-10.666 0-10z"/>
<g  stroke="#000" stroke-width="10">
<path d="m286.333,123.667c0,3.313-2.411,6-5.384,6h-41.731c-2.974,0-5.385-2.687-5.385-6v-43.5c0-3.313 2.411-6 5.385-6h41.731c2.973,0 5.384,2.687 5.384,6v43.5z"/>
<path d="m207.333,108.667c0,3.313 2.687,6 6,6h28c3.313,0 6-2.687 6-6v-17c0-3.313-2.687-6-6-6h-28c-3.313,0-6,2.687-6,6v17z"/>
<path d="m195.333,108.667c0-3.313 2.687-6 6-6h34.5c3.313,0 6,2.687 6,6v9.5c0,3.313-2.687,6-6,6h-34.5c-3.313,0-6-2.687-6-6v-9.5z"/>
</g>
</g>
</svg>
