<svg xmlns="http://www.w3.org/2000/svg" viewBox="20 20 321 321">
<g fill="#000">
<path d="m189.73,78.854c4.969,4.97 9.938,9.939 14.908,14.909 4.563,4.563 11.634-2.507 7.07-7.071-4.969-4.97-9.938-9.939-14.908-14.909-4.563-4.564-11.633,2.507-7.07,7.071z"/>
<path d="m159.02,124.956c13.197,0 26.394,0 39.59,0 6.448,0 6.448-10 0-10-13.196,0-26.393,0-39.59,0-6.449,0-6.449,10 0,10z"/>
<path d="m289.748,163.548c-5.012-5.012-10.024-10.024-15.037-15.037-4.563-4.563-11.635,2.507-7.07,7.071 5.012,5.012 10.024,10.024 15.037,15.037 4.563,4.564 11.635-2.507 7.07-7.071z"/>
<path d="m245.266,202.201c0-13.196 0-26.392 0-39.588 0-6.449-10-6.449-10,0 0,13.196 0,26.392 0,39.588 0,6.448 10,6.448 10,0z"/>
<path d="m184.896,183.576c9.332-9.331 18.663-18.663 27.994-27.994 4.564-4.564-2.507-11.635-7.07-7.071-9.332,9.332-18.663,18.663-27.995,27.995-4.563,4.563 2.508,11.635 7.071,7.07z"/>
<path d="m159.02,124.956c13.197,0 26.394,0 39.59,0 6.448,0 6.448-10 0-10-13.196,0-26.393,0-39.59,0-6.449,0-6.449,10 0,10z"/>
<path d="m245.266,202.201c0-13.196 0-26.392 0-39.588 0-6.449-10-6.449-10,0 0,13.196 0,26.392 0,39.588 0,6.448 10,6.448 10,0z"/>
<path d="m184.896,183.576c9.332-9.331 18.663-18.663 27.994-27.994 4.564-4.564-2.507-11.635-7.07-7.071-9.332,9.332-18.663,18.663-27.995,27.995-4.563,4.563 2.508,11.635 7.071,7.07z"/>
<path d="m186.519,103.698c3.716,1.54 7.431,3.079 11.146,4.618 2.522,1.045 5.495-1.11 6.15-3.492 .791-2.875-.977-5.108-3.492-6.15-3.716-1.54-7.431-3.079-11.146-4.618-2.522-1.045-5.495,1.11-6.15,3.492-.792,2.874 .976,5.108 3.492,6.15z"/>
<path d="m189.515,147.896c3.716-1.539 7.431-3.078 11.146-4.617 2.516-1.042 4.283-3.275 3.492-6.15-.655-2.382-3.628-4.537-6.15-3.492-3.716,1.539-7.431,3.078-11.146,4.617-2.516,1.042-4.283,3.275-3.492,6.15 .655,2.383 3.627,4.537 6.15,3.492z"/>
<path d="m223.675,173.38c1.539-3.715 3.078-7.431 4.617-11.147 1.045-2.523-1.109-5.495-3.492-6.15-2.875-.791-5.108,.976-6.15,3.492-1.539,3.715-3.078,7.431-4.617,11.147-1.045,2.523 1.109,5.495 3.492,6.15 2.874,.792 5.108-.976 6.15-3.492z"/>
<path d="m266.182,170.722c-1.539-3.716-3.079-7.432-4.618-11.147-1.042-2.516-3.275-4.283-6.15-3.492-2.382,.655-4.537,3.628-3.492,6.15 1.539,3.716 3.079,7.432 4.618,11.147 1.042,2.516 3.275,4.283 6.15,3.492 2.381-.655 4.537-3.627 3.492-6.15z"/>
<path d="m214.063,76.547c.852,2.056 1.704,4.112 2.556,6.168 1.042,2.516 3.275,4.283 6.15,3.492 2.382-.655 4.537-3.628 3.492-6.15-.852-2.056-1.704-4.112-2.556-6.168-1.042-2.516-3.275-4.283-6.15-3.492-2.381,.655-4.536,3.628-3.492,6.15z"/>
<path d="m287.973,134.951c-2.146-.889-4.294-1.778-6.44-2.667-2.522-1.045-5.495,1.11-6.15,3.492-.791,2.875 .977,5.108 3.492,6.15 2.146,.889 4.294,1.778 6.44,2.667 2.522,1.045 5.495-1.11 6.15-3.492 .791-2.875-.977-5.108-3.492-6.15z"/>
<g  stroke="#000" stroke-width="10">
<path d="m87.833,221.44c0,4.429 3.591,8.019 8.019,8.019h37.421c4.428,0 8.019-3.59 8.019-8.019v-22.72c0-4.429-3.591-8.02-8.019-8.02h-37.421c-4.428,0-8.019,3.591-8.019,8.02v22.72z"/>
<path d="m74.795,223.111c0-4.428 3.59-8.019 8.019-8.019h46.108c4.428,0 8.019,3.591 8.019,8.019v12.696c0,4.429-3.591,8.02-8.019,8.02h-46.108c-4.429,0-8.019-3.591-8.019-8.02v-12.696z"/>
<path d="m249.672,235.387c0,3.624-2.635,6.561-5.887,6.561h-45.621c-3.251,0-5.887-2.937-5.887-6.561v-47.555c0-3.622 2.636-6.559 5.887-6.559h45.621c3.252,0 5.887,2.937 5.887,6.559v47.555z"/>
<path d="m233.744,225.103c0,4.428 3.59,8.02 8.019,8.02h37.421c4.43,0 8.02-3.592 8.02-8.02v-22.721c0-4.428-3.59-8.019-8.02-8.019h-37.421c-4.429,0-8.019,3.591-8.019,8.019v22.721z"/>
</g>
</g>
<g  stroke="#000" stroke-width="10">
<path fill="none" d="m264.783,128.638c0,7.845-6.361,14.206-14.206,14.206h-18.275c-7.845,0-14.206-6.36-14.206-14.206v-17.363c0-7.846 6.361-14.206 14.206-14.206h18.275c7.845,0 14.206,6.36 14.206,14.206v17.363z"/>
<g fill="#000">
<path d="m178.49,225.69c0,3.683 2.986,6.669 6.669,6.669h31.122c3.682,0 6.668-2.986 6.668-6.669v-18.896c0-3.683-2.986-6.668-6.668-6.668h-31.122c-3.683,0-6.669,2.985-6.669,6.668v18.896z"/>
<path d="m148.027,215.283c0-4.428-3.591-8.018-8.019-8.018h-37.421c-4.428,0-8.019,3.59-8.019,8.018v22.721c0,4.428 3.591,8.019 8.019,8.019h37.421c4.428,0 8.019-3.591 8.019-8.019v-22.721z"/>
<path d="m159.814,222.592c0,4.428-3.59,8.018-8.019,8.018h-46.108c-4.428,0-8.019-3.59-8.019-8.018v-12.697c0-4.428 3.591-8.02 8.019-8.02h46.108c4.429,0 8.019,3.592 8.019,8.02v12.697z"/>
<path d="m228.162,243.828c0,3.684 2.986,6.669 6.668,6.669h31.122c3.683,0 6.669-2.985 6.669-6.669v-18.895c0-3.684-2.986-6.669-6.669-6.669h-31.122c-3.682,0-6.668,2.985-6.668,6.669v18.895z"/>
</g>
</g>
</svg>
