<svg xmlns="http://www.w3.org/2000/svg" viewBox="20 20 321 321">
<g fill="#000">
<path d="m262.148,96.03c0,49.764 0,99.527 0,149.291 0,13.782 0,27.563 0,41.346 0,6.448 10,6.448 10,0 0-49.764 0-99.527 0-149.291 0-13.782 0-27.564 0-41.346 0-6.448-10-6.448-10,0z"/>
<path d="m172.773,257.665c14.601-39.646 29.202-79.291 43.802-118.937 2.233-6.065-7.434-8.656-9.643-2.658-14.601,39.646-29.202,79.292-43.802,118.937-2.234,6.064 7.434,8.656 9.643,2.658z"/>
<path d="m189.809,267.19c22.448-36.103 44.896-72.206 67.345-108.309 3.415-5.493-5.238-10.509-8.635-5.047-22.448,36.103-44.896,72.206-67.345,108.309-3.416,5.494 5.238,10.51 8.635,5.047z"/>
<path d="m211.754,137.399 45.584-42.251-4.502,61.21z"/>
<path d="m215.289,140.935c15.195-14.083 30.39-28.167 45.584-42.25-2.845-1.179-5.69-2.357-8.535-3.536-1.501,20.403-3.001,40.807-4.502,61.21 2.508-1.439 5.016-2.878 7.523-4.317-13.693-6.32-27.388-12.64-41.082-18.959-5.813-2.683-10.897,5.935-5.047,8.635 13.693,6.32 27.388,12.64 41.082,18.959 3.551,1.639 7.23-.333 7.523-4.317 1.501-20.403 3.001-40.807 4.502-61.21 .338-4.595-5.565-6.289-8.535-3.536-15.195,14.083-30.39,28.167-45.584,42.25-4.739,4.391 2.35,11.447 7.071,7.071z"/>
<path d="m193.793,248.467c2.127,1.051 2.457,4.711 .733,8.177l-4.419,8.887c-1.724,3.464-4.846,5.421-6.975,4.372l-17.182-8.479c-2.128-1.05-2.458-4.711-.734-8.176l4.419-8.888c1.724-3.464 4.846-5.423 6.975-4.372l17.183,8.479z"/>
<path d="m213.646,213.162c2.621,1.295 3.351,5.152 1.627,8.619l-4.42,8.887c-1.722,3.464-5.244,5.225-7.867,3.931l-21.168-10.445c-2.623-1.294-3.352-5.153-1.628-8.618l4.419-8.887c1.723-3.464 5.246-5.224 7.867-3.93l21.17,10.443z"/>
<path d="m234.875,175.278c3.289,1.623 4.563,5.749 2.838,9.214l-4.418,8.888c-1.725,3.465-5.788,4.958-9.078,3.333l-26.568-13.107c-3.289-1.623-4.561-5.75-2.838-9.214l4.42-8.888c1.723-3.464 5.789-4.958 9.078-3.334l26.566,13.108z"/>
</g>
</svg>
