<svg xmlns="http://www.w3.org/2000/svg" viewBox="20 20 321 321">
<g fill="#000">
<g  stroke="#000">
<path d="m131.086,126.638c0,1.519-1.231,2.75-2.75,2.75-1.519,0-2.75-1.231-2.75-2.75 0-1.519 1.231-2.75 2.75-2.75 1.519,0 2.75,1.232 2.75,2.75z"/>
<path d="m76.613,80.292c0,1.596-1.294,2.89-2.89,2.89-1.596,0-2.89-1.294-2.89-2.89 0-1.596 1.294-2.89 2.89-2.89 1.596-.001 2.89,1.293 2.89,2.89z"/>
<path d="m116.904,95.982c0,1.125-.912,2.037-2.037,2.037h-.679c-1.125,0-2.037-.912-2.037-2.037v-.679c0-1.126 .912-2.037 2.037-2.037h.679c1.125,0 2.037,.911 2.037,2.037v.679z"/>
<path d="m177.006,90.638c0,1.519-1.231,2.75-2.75,2.75-1.519,0-2.75-1.231-2.75-2.75 0-1.519 1.231-2.75 2.75-2.75 1.518,0 2.75,1.232 2.75,2.75z"/>
<path d="m171.592,126.638c0,2.319-1.881,4.2-4.2,4.2-2.319,0-4.2-1.881-4.2-4.2 0-2.319 1.881-4.2 4.2-4.2 2.319,0 4.2,1.881 4.2,4.2z"/>
</g>
<path d="m99.464,81.042c0,.744-.603,1.347-1.347,1.347h-.449c-.744,0-1.347-.603-1.347-1.347v-.449c0-.744 .603-1.347 1.347-1.347h.449c.744,0 1.347,.603 1.347,1.347v.449z"/>
<path d="m97.964,81.042c.006-.093 .049-.103 .1-.166-.201,.255-.1,.053-.014,.025 .142-.045-.292-.012-.382-.012 .091,0 .106,.052 .167,.1-.255-.202-.053-.1-.025-.014 .045,.141 .012-.292 .012-.382 0,.091-.052,.105-.1,.166 .201-.255 .1-.053 .014-.025-.142,.045 .292,.012 .382,.012-.091,0-.106-.052-.167-.1 .255,.202 .053,.1 .025,.014-.044-.141-.012,.292-.012,.382 0,1.935 3,1.935 3,0 0-.662-.082-1.227-.363-1.839-.431-.94-1.521-1.396-2.484-1.457-1.781-.111-3.184,1.05-3.296,2.847-.11,1.78 1.05,3.184 2.847,3.296 1.781,.111 3.184-1.05 3.296-2.847 .051-.817-.721-1.5-1.5-1.5-.856-0-1.449,.684-1.5,1.5z"/>
<g  stroke="#000">
<path d="m143.649,163.956c0,1.519-1.231,2.75-2.75,2.75-1.519,0-2.75-1.231-2.75-2.75 0-1.519 1.231-2.75 2.75-2.75 1.518,0 2.75,1.232 2.75,2.75z"/>
<path d="m94.583,147.732c0,.834-.675,1.51-1.508,1.51-.833,0-1.508-.676-1.508-1.51 0-.834 .675-1.51 1.508-1.51 .832,0 1.508,.676 1.508,1.51z"/>
<path d="m236.728,106.89c0,1.519-1.231,2.75-2.75,2.75-1.519,0-2.75-1.231-2.75-2.75 0-1.519 1.231-2.75 2.75-2.75 1.518,0 2.75,1.231 2.75,2.75z"/>
<path d="m103.143,237.508c0,2.898-2.351,5.25-5.25,5.25-2.899,0-5.25-2.352-5.25-5.25 0-2.9 2.351-5.25 5.25-5.25 2.899,0 5.25,2.349 5.25,5.25z"/>
<path d="m113.66,266.795c0,.834-.675,1.51-1.508,1.51-.833,0-1.508-.676-1.508-1.51 0-.834 .675-1.511 1.508-1.511 .832,0 1.508,.677 1.508,1.511z"/>
<path d="m273.941,91.315c0,2.246-1.885,4.067-4.209,4.067h-1.402c-2.324,0-4.209-1.821-4.209-4.067v-1.355c0-2.246 1.885-4.067 4.209-4.067h1.402c2.324,0 4.209,1.821 4.209,4.067v1.355z"/>
</g>
<path d="m281.918,245.595c-10.364,21.323-29.583,36.451-52.749,41.503-23.599,5.145-48.62-2.305-66.35-18.44-17.154-15.611-25.641-38.942-23.842-61.891 1.889-24.108 16.327-45.954 36.924-58.23 28.281-16.857 64.984-12.275 89.118,9.688 24.12,21.948 30.493,58.07 16.899,87.37-.809,1.742 1.776,3.268 2.59,1.514 18.846-40.616 .09-88.762-41.129-106.111-41.593-17.506-89.606,6.206-103.821,48.182-13.11,38.715 7.862,81.115 44.902,96.705 37.872,15.94 82.339-2.339 100.048-38.775 .842-1.733-1.744-3.256-2.59-1.515z"/>
<path d="m212.311,279.592c-36.433-.295-66.006-29.755-66.412-66.193-.072-6.444-10.072-6.451-10,0 .466,41.876 34.528,75.854 76.412,76.193 6.451,.052 6.445-9.948 0-10z"/>
<path d="m145.9,213.701c.295-36.432 29.756-66.005 66.193-66.412 6.444-.072 6.451-10.072 0-10-41.875,.467-75.854,34.53-76.193,76.412-.052,6.451 9.948,6.445 10,0z"/>
<path d="m210.765,147.11c1.452,.488-.634-.312 .31,.117 1.235,.563 2.419,1.234 3.575,1.943 3.875,2.376 7.062,5.423 10.204,9.134 12.257,14.479 15.171,35.14 15.24,53.413 .073,19.46-3.901,39.598-15.613,55.524-4.076,5.544-8.889,10.365-14.91,13.032-5.886,2.606-.793,11.222 5.047,8.635 6.599-2.923 12.335-8.796 16.738-14.329 12.309-15.468 17.231-35.078 18.489-54.495 1.373-21.207-1.499-44.374-13.239-62.568-5.073-7.862-12.354-15.412-21.079-19.188-.683-.295-1.391-.622-2.104-.861-6.13-2.059-8.738,7.601-2.658,9.643z"/>
</g>
</svg>
