<svg xmlns="http://www.w3.org/2000/svg" viewBox="20 20 321 321">
<path fill="none"  stroke="#000" stroke-width="10" d="m260.227,270.547c0,2.082-1.424,3.768-3.18,3.768h-26.846c-1.757,0-3.18-1.686-3.18-3.768v-64.876c0-2.081 1.423-3.767 3.18-3.767h26.846c1.756,0 3.18,1.686 3.18,3.767v64.876z"/>
<g fill="#000">
<path d="m291.688,238.109c0-34.018 1.808-68.956-10.823-101.252-6.528-16.691-16.839-31.697-31.123-42.657-13.115-10.063-28.807-16.038-45.043-18.705-7.607-1.25-15.307-1.802-23.012-1.829-6.45-.022-6.448,9.978 0,10 16.556,.057 33.233,2.694 48.237,9.965 15.127,7.33 27.104,19.18 35.429,33.699 18.642,32.511 16.335,71.294 16.335,107.439 0,1.113 0,2.226 0,3.339 0,6.45 10,6.45 10,.001z"/>
<path d="m268.833,216.359c0,14.5 0,29 0,43.5 0,6.448 10,6.448 10,0 0-14.5 0-29 0-43.5 0-6.448-10-6.448-10-0z"/>
</g>
<path fill="none"  stroke="#000" stroke-width="10" d="m101.962,270.547c0,2.081 1.423,3.768 3.18,3.768h26.846c1.756,0 3.179-1.687 3.179-3.768v-64.876c0-2.081-1.423-3.767-3.179-3.767h-26.846c-1.757,0-3.18,1.686-3.18,3.767v64.876z"/>
<g fill="#000">
<path d="m80.5,238.109c0-33.728-2.226-68.924 11.313-100.658 6.76-15.845 17.491-29.7 32.025-39.088 13.749-8.881 29.981-13.108 46.175-14.329 3.489-.263 6.989-.355 10.487-.367 6.447-.022 6.449-10.022 0-10-34.512,.118-67.427,12.323-87.733,41.326-22.426,32.029-22.267,72.354-22.267,109.809 0,4.436 0,8.872 0,13.308 0,6.448 10,6.448 10-.001z"/>
<path d="m83.355,216.359c0,14.5 0,29 0,43.5 0,6.448 10,6.448 10,0 0-14.5 0-29 0-43.5 0-6.448-10-6.448-10-0z"/>
</g>
</svg>
