<svg xmlns="http://www.w3.org/2000/svg" viewBox="20 20 321 321">
<path fill="none"  stroke="#000" stroke-width="10" d="m222.236,211.448c0,17.793-14.428,32.22-32.221,32.22h-18.56c-17.795,0-32.22-14.427-32.22-32.22v-104.561c0-17.795 14.425-32.22 32.22-32.22h18.56c17.793,0 32.221,14.425 32.221,32.22v104.561z"/>
<g fill="#000">
<path d="m175.736,260.167c0,8.833 0,17.667 0,26.5 0,6.448 10,6.448 10,0 0-8.833 0-17.667 0-26.5 0-6.448-10-6.448-10,0z"/>
<path d="m139.486,291.667c27.5,0 55,0 82.5,0 6.448,0 6.448-10 0-10-27.5,0-55,0-82.5,0-6.449,0-6.449,10 0,10z"/>
<path d="m234.264,180.048c0,11.671 0,23.343 0,35.014 0,21.428-16.708,39.1-38.161,40.084-6.092,.28-12.246,.021-18.342,.021-6.824,0-13.753,.423-20.445-1.132-10.741-2.496-19.672-9.772-25.138-19.209-4.016-6.933-4.969-14.572-4.969-22.416 0-10.787 0-21.575 0-32.362 0-6.449-10-6.449-10,0 0,11.671 0,23.343 0,35.014 0,21.146 12.904,39.296 32.401,47.037 13.3,5.28 29.998,3.068 44.011,3.068 20.506,0 39.433-11.895 47.09-31.183 3.802-9.573 3.554-19.325 3.554-29.39 0-8.183 0-16.364 0-24.547-.001-6.448-10.001-6.448-10.001,.001z"/>
</g>
</svg>
