<svg xmlns="http://www.w3.org/2000/svg" viewBox="20 20 321 321">
<g fill="#000">
<path d="m177.241,96.117c-35,26.75-70,53.501-105,80.252-3.178,2.429-3.178,6.206 0,8.634 35,26.751 70,53.501 105,80.252 3.126,2.39 7.523-.882 7.523-4.317 0-49.383 0-98.765 0-148.148 0-4.119 0-8.237 0-12.355 0-6.449-10-6.449-10,0 0,49.383 0,98.765 0,148.148 0,4.118 0,8.237 0,12.355 2.508-1.439 5.016-2.878 7.524-4.317-35-26.75-70-53.501-105-80.251 0,2.878 0,5.756 0,8.634 35-26.75 70-53.501 105-80.251 5.05-3.861 .078-12.554-5.047-8.636z"/>
<path d="m219.24,96.117c-35,26.75-70,53.501-105,80.252-3.178,2.429-3.178,6.206 0,8.634 35,26.751 70,53.501 105,80.252 3.127,2.39 7.523-.882 7.523-4.317 0-49.383 0-98.765 0-148.148 0-4.119 0-8.237 0-12.355 0-6.449-10-6.449-10,0 0,49.383 0,98.765 0,148.148 0,4.118 0,8.237 0,12.355 2.508-1.439 5.016-2.878 7.523-4.317-35-26.75-70-53.501-105-80.251 0,2.878 0,5.756 0,8.634 35-26.75 70-53.501 105-80.251 5.051-3.861 .079-12.554-5.046-8.636z"/>
</g>
</svg>
