<svg xmlns="http://www.w3.org/2000/svg" viewBox="20 20 321 321">
<g fill="#000">
<path d="m263.592,237.195c-.254,11.588-7.394,21.571-18.427,25.297-3.953,1.335-7.983,1.266-12.072,1.266-12.303,0-24.605,0-36.909,0-23.792,0-47.584,0-71.376,0-11.548,0-21.632-7.571-25.297-18.426-1.334-3.954-1.265-7.984-1.265-12.073 0-12.303 0-24.606 0-36.909 0-23.792 0-47.584 0-71.377 0-11.548 7.571-21.632 18.426-25.297 3.954-1.335 7.984-1.266 12.073-1.266 12.303,0 24.606,0 36.909,0 23.792,0 47.585,0 71.377,0 11.548,0 21.632,7.572 25.297,18.426 1.335,3.954 1.266,7.984 1.266,12.073 0,12.303 0,24.606 0,36.909-.002,23.792-.002,47.585-.002,71.377 0,6.448 10,6.448 10,0 0-23.792 0-47.585 0-71.377 0-12.303 0-24.606 0-36.909 0-15.611-6.131-29.773-20.843-36.934-9.375-4.563-20.073-3.565-30.189-3.565-15.042,0-30.084,0-45.125,0-14.228,0-28.456,0-42.684,0-3.176,0-6.353,0-9.528,0-8.913,0-16.864,3.087-23.837,8.516-11.256,8.764-13.14,22.028-13.14,35.198 0,13.507 0,27.015 0,40.522 0,15.484 0,30.967 0,46.451 0,9.007-.909,18.776 1.247,27.602 4.215,17.247 20.607,27.06 37.498,27.06 11.303,0 22.607,0 33.91,0 25.28,0 50.56,0 75.84,0 20.338,0 36.411-16.445 36.852-36.563 .14-6.453-9.861-6.439-10.001-.001z"/>
<path d="m109.445,178.937c0-6.407 .953-12.059 2.862-16.956 1.907-4.896 4.499-8.981 7.776-12.258 3.275-3.275 7.091-5.741 11.448-7.398 4.355-1.656 8.981-2.484 13.878-2.484 4.823,0 9.377,.828 13.662,2.484 4.283,1.657 8.046,4.123 11.286,7.398 3.24,3.277 5.813,7.362 7.722,12.258 1.907,4.897 2.862,10.549 2.862,16.956 0,6.409-.955,12.061-2.862,16.956-1.909,4.897-4.482,8.982-7.722,12.258-3.24,3.277-7.003,5.743-11.286,7.398-4.285,1.656-8.839,2.484-13.662,2.484-4.897,0-9.522-.828-13.878-2.484-4.357-1.655-8.173-4.121-11.448-7.398-3.277-3.275-5.869-7.36-7.776-12.258-1.909-4.895-2.862-10.547-2.862-16.956zm11.015,0c0,4.536 .576,8.659 1.728,12.366 1.151,3.709 2.79,6.858 4.914,9.45 2.123,2.593 4.715,4.591 7.776,5.994 3.059,1.403 6.497,2.106 10.314,2.106 3.815,0 7.236-.703 10.26-2.106s5.598-3.401 7.722-5.994c2.123-2.592 3.761-5.741 4.914-9.45 1.151-3.707 1.728-7.83 1.728-12.366 0-4.536-.577-8.657-1.728-12.366-1.153-3.708-2.792-6.858-4.914-9.45-2.125-2.592-4.698-4.59-7.722-5.994-3.024-1.404-6.444-2.106-10.26-2.106-3.817,0-7.255,.702-10.314,2.106-3.062,1.404-5.653,3.402-7.776,5.994-2.125,2.592-3.763,5.743-4.914,9.45-1.152,3.709-1.728,7.83-1.728,12.366z"/>
<path d="m251.896,141.569c-2.232,2.449-4.752,5.167-7.561,8.154-2.807,2.988-5.742,6.048-8.801,9.18-3.062,3.132-6.103,6.21-9.127,9.234-3.023,3.024-5.869,5.832-8.531,8.424 3.095,2.16 6.371,4.825 9.828,7.992 3.455,3.17 6.839,6.553 10.151,10.152 3.312,3.602 6.427,7.273 9.343,11.016 2.916,3.745 5.346,7.309 7.289,10.692h-12.312c-2.16-3.384-4.644-6.786-7.452-10.206-2.809-3.419-5.777-6.695-8.91-9.828-3.132-3.132-6.301-6.029-9.504-8.693-3.205-2.664-6.318-4.932-9.342-6.805v35.532h-10.477v-74.844h10.477v33.048c2.52-2.376 5.292-5.058 8.316-8.046 3.023-2.987 6.01-5.994 8.963-9.018 2.952-3.024 5.741-5.921 8.371-8.694 2.627-2.771 4.841-5.201 6.642-7.29h12.637z"/>
</g>
</svg>
