<svg xmlns="http://www.w3.org/2000/svg" viewBox="20 20 321 321">
<g fill="#000">
<path d="m175.534,75.881c0,.066 0,.132 0,.199 .004,1.765 .953,3.425 2.477,4.317 .78,.452 1.621,.68 2.523,.683 .903-.003 1.744-.23 2.524-.683 .043-.033 .087-.066 .13-.1 .752-.444 1.35-1.042 1.794-1.794 .452-.78 .68-1.621 .683-2.523-.003-.902-.23-1.744-.683-2.523-.444-.751-1.042-1.35-1.794-1.794-.044-.033-.087-.066-.131-.099-1.01-.765-2.689-.824-3.853-.504-1.25,.344-2.333,1.18-2.988,2.298-.676,1.155-.859,2.562-.504,3.853 .168,.398 .336,.796 .504,1.194 .444,.751 1.042,1.35 1.794,1.794 .043,.033 .087,.066 .131,.099 0-2.878 0-5.756 0-8.635-.043,.033-.087,.066-.13,.1 2.508,1.439 5.015,2.878 7.524,4.317-.001-.066-.001-.132-.001-.199-.007-2.726-2.27-5-5-5-2.721,0-5.007,2.274-5,5z"/>
<path d="m97.572,144.282c4.852,0 9.705,0 14.557,0-1.667-1.667-3.333-3.333-5-5 0,47.212 0,94.424 0,141.636 0,4.738 1.466,9.197 6.804,10.312 2.144,.447 4.523,.179 6.69,.179 12.072,0 24.145,0 36.217,0 28.172,0 56.345,0 84.518,0 2.568,0 4.966,.094 7.49-.434 4.861-1.015 5.584-6.285 5.584-10.338-.001-10.137-.002-20.273-.003-30.411-.002-30.696-.005-61.393-.007-92.089-.001-6.285-.001-12.57-.002-18.854-1.667,1.667-3.333,3.333-5,5 4.917,0 9.833,0 14.75,0 5.396,0 6.261-6.493 2.523-9.317-27.878-21.067-55.757-42.135-83.635-63.203-1.259-.951-3.79-.958-5.047,0-27.654,21.067-55.309,42.135-82.963,63.203-5.058,3.853-.085,12.544 5.047,8.635 27.654-21.067 55.309-42.135 82.963-63.203-1.683,0-3.365,0-5.047,0 27.878,21.067 55.756,42.135 83.635,63.203 .841-3.106 1.683-6.211 2.523-9.317-4.917,0-9.833,0-14.75,0-2.726,0-5,2.274-5,5 .004,47.212 .008,94.424 .012,141.636 0,.702 0,1.404 0,2.105 0-1.222 3.153-1.615 .889-1.615-3.32,0-6.641,0-9.96,0-13.731,0-27.464,0-41.195,0-25.834,0-51.669,0-77.504,0-2.787,0 .468-.271 .468,1.753 0-.576 0-1.151 0-1.727 0-3.548 0-7.096 0-10.644 0-13.592 0-27.184 0-40.775 0-28.184 0-56.367 0-84.551 0-2.061 0-4.122 0-6.183 0-2.726-2.274-5-5-5-4.852,0-9.705,0-14.557,0-6.449-.001-6.449,9.999-0,9.999z"/>
<path d="m266.693,134.965c-10.256-7.774-20.512-15.549-30.768-23.323-5.147-3.902-10.101,4.785-5.047,8.635 5.366,4.088 10.732,8.176 16.1,12.265 3.53,2.689 7.062,5.379 10.592,8.069 1.954,1.488 3.97,3.672 6.6,3.672 6.448,0 6.448-10 0-10 2.392,0 2.973,1.14 1.142-.254-1.086-.828-2.173-1.656-3.26-2.484-3.605-2.747-7.212-5.494-10.817-8.241-5.104-3.887-10.206-7.774-15.309-11.662-1.683,2.878-3.364,5.756-5.047,8.635 10.256,7.774 20.512,15.549 30.768,23.323 5.142,3.898 10.115-4.793 5.046-8.635z"/>
<path d="m178.271,71.564c-.043,.033-.087,.066-.13,.099-.337,.261-.675,.521-1.012,.782-.62,.624-1.048,1.359-1.286,2.207-.355,1.291-.172,2.698 .504,3.853 .655,1.118 1.738,1.954 2.988,2.298 1.163,.32 2.845,.262 3.853-.504 .044-.033 .087-.066 .13-.099 .338-.261 .675-.521 1.012-.782 .62-.624 1.049-1.359 1.286-2.207 .355-1.291 .173-2.698-.504-3.853-.654-1.118-1.738-1.954-2.988-2.298-1.163-.32-2.845-.262-3.853,.504z"/>
<path d="m238.225,228.902h-115.042c-2.179,0-3.945,1.824-3.945,4.075v42.27c0,2.251 1.766,4.075 3.945,4.075h115.042c2.18,0 3.945-1.824 3.945-4.075v-42.27c-0-2.25-1.766-4.075-3.945-4.075zm-63.536,38.646c-.294-.933-.714-1.94-1.26-3.021-.547-1.08-1.154-2.133-1.82-3.16-.667-1.025-1.367-1.985-2.1-2.879s-1.434-1.646-2.1-2.26v11.319h-4.92v-24.76h4.92v10.28c.586-.746 1.2-1.574 1.84-2.48s1.246-1.813 1.82-2.721c.573-.906 1.1-1.799 1.58-2.68 .48-.88 .88-1.68 1.2-2.399h5.56c-.374,.72-.82,1.54-1.34,2.46s-1.114,1.88-1.78,2.88c-.667,1-1.38,2.021-2.14,3.06-.76,1.041-1.554,2.041-2.38,3 .826,.801 1.666,1.721 2.52,2.76 .853,1.041 1.66,2.154 2.42,3.341 .76,1.187 1.446,2.399 2.06,3.64 .613,1.24 1.106,2.447 1.48,3.62h-5.56zm13.48-5.86c.933,1.4 2.306,2.101 4.12,2.101 .293,0 .613-.013 .96-.04 .347-.026 .666-.066 .96-.12v-9.04h4.92v12.359c-.587,.215-1.5,.454-2.74,.721-1.24,.266-2.74,.4-4.5,.4-1.547,0-2.939-.274-4.18-.82-1.24-.547-2.3-1.36-3.18-2.44-.881-1.079-1.561-2.426-2.041-4.04-.479-1.613-.719-3.486-.719-5.619 0-2.107 .279-3.967 .84-5.58 .56-1.613 1.32-2.967 2.279-4.061 .961-1.094 2.094-1.913 3.4-2.46 1.307-.546 2.706-.819 4.199-.819 .961,0 1.82,.073 2.58,.219 .761,.147 1.42,.314 1.98,.5 .561,.188 1.02,.388 1.381,.601 .359,.214 .633,.374 .819,.479l-1.28,3.92c-.586-.373-1.307-.705-2.16-1-.854-.293-1.733-.439-2.64-.439-1.174,0-2.16,.214-2.96,.641-.8,.426-1.46,1.02-1.98,1.779-.52,.76-.893,1.667-1.119,2.721-.227,1.053-.34,2.219-.34,3.5 .002,2.956 .467,5.137 1.401,6.537z"/>
<path d="m119.521,169.112 122.469,0"/>
<path d="m119.521,170.612c40.823,0 81.646,0 122.47,0 1.935,0 1.935-3 0-3-40.823,0-81.646,0-122.47,0-1.935,0-1.935,3 0,3z"/>
<path d="m119.521,225.75 122.469,0"/>
<path d="m119.521,227.25c40.823,0 81.646,0 122.47,0 1.935,0 1.935-3 0-3-40.823,0-81.646,0-122.47,0-1.935,0-1.935,3 0,3z"/>
<path d="m258.334,227.25c10.61,0 21.222,0 31.832,0 1.935,0 1.935-3 0-3-10.61,0-21.222,0-31.832,0-1.935,0-1.935,3 0,3z"/>
<path d="m72.167,227.25c10.611,0 21.222,0 31.833,0 1.935,0 1.935-3 0-3-10.611,0-21.222,0-31.833,0-1.935,0-1.935,3 0,3z"/>
</g>
</svg>
