<svg xmlns="http://www.w3.org/2000/svg" viewBox="20 20 321 321">
<g fill="#000">
<path d="m107.345,257.417c-2.824-.38-1.931-3.568-1.931-5.824 0-4.447 0-8.894 0-13.341 0-14.323 0-28.646 0-42.97 0-27.808 0-55.617 0-83.425 0-2.079 0-4.158 0-6.237 0-1.71 4.055-1.078 5.012-1.078 10.716,0 21.432,0 32.147,0 30.824,0 61.647,0 92.471,0 6.972,0 13.944,0 20.916,0 2.261,0 1.079,15.686 1.079,17.063 0,30.268 0,60.535 0,90.803 0,12.072 0,24.146 0,36.219 0,2.451 0,4.903 0,7.355 0,1.826-2.645,1.311-3.72,1.311-25.858,0-51.716,0-77.574,0-23.11,0-46.22,0-69.331,0-4.514,0-4.514,7 0,7 48.165,0 96.329,0 144.494,0 1.71,0 3.421,0 5.131,0 5.385,0 8-4.673 8-9.427 0-8.987 0-17.975 0-26.963 0-31.056 0-62.112 0-93.168 0-9.181 0-18.361 0-27.542 0-4.41-1.853-8.823-6.804-9.489-1.968-.264-3.956-.161-5.94-.161-27.166,0-54.333,0-81.5,0-21.124,0-42.248,0-63.372,0-9.894,0-8.009,12.246-8.009,18.709 0,12.916 0,25.832 0,38.748 0,23.763 0,47.527 0,71.29 0,8.038 0,16.075 0,24.112 0,5.652-.469,12.753 7.069,13.766 4.413,.592 6.318-6.152 1.862-6.751z"/>
<path d="m233.54,259.292c-34.979,0-69.958,0-104.937,0 .5,.5 1,1 1.5,1.5 0-49.306 0-98.611 0-147.917 0-3.945 0-7.889 0-11.833-.5,.5-1,1-1.5,1.5 34.979,0 69.958,0 104.937,0-.5-.5-1-1-1.5-1.5 0,49.306 0,98.611 0,147.917 0,3.944 0,7.889 0,11.833 0,1.935 3,1.935 3,0 0-49.306 0-98.611 0-147.917 0-3.945 0-7.889 0-11.833 0-.818-.683-1.5-1.5-1.5-34.979,0-69.958,0-104.937,0-.818,0-1.5,.682-1.5,1.5 0,49.306 0,98.611 0,147.917 0,3.944 0,7.889 0,11.833 0,.817 .682,1.5 1.5,1.5 34.979,0 69.958,0 104.937,0 1.935,0 1.935-3-0-3z"/>
<path d="m117.354,182.979c-.138,1.366-4.285,.75-5.25,.75-1.324,0-.75-4.395-.75-5.25 0-1.324 4.395-.75 5.25-.75 1.323,0 .75,4.395 .75,5.25 0,1.935 3,1.935 3,0 0-3.293 .714-7.8-3.75-8.25-3.266-.329-7.828-.434-8.25,3.75-.329,3.266-.434,7.828 3.75,8.25 3.266,.329 7.828,.435 8.25-3.75 .193-1.924-2.809-1.906-3,0z"/>
<path d="m249.854,182.979c-.138,1.366-4.284,.75-5.25,.75-1.323,0-.75-4.395-.75-5.25 0-1.324 4.395-.75 5.25-.75 1.323,0 .75,4.395 .75,5.25 0,1.935 3,1.935 3,0 0-3.293 .714-7.8-3.75-8.25-3.266-.329-7.828-.434-8.25,3.75-.329,3.266-.434,7.828 3.75,8.25 3.266,.329 7.828,.435 8.25-3.75 .193-1.924-2.808-1.906-3,0z"/>
</g>
<path fill="none"  stroke="#000" stroke-width="10" d="m81.636,286.582c-3.288,0-5.954-2.666-5.954-5.953v-199.424c0-3.288 2.666-5.953 5.954-5.953h197.936c3.285,0 5.952,2.665 5.952,5.953v199.424c0,3.287-2.667,5.953-5.952,5.953h-197.936z"/>
</svg>
