<svg xmlns="http://www.w3.org/2000/svg" viewBox="20 20 321 321">
<g fill="none"  stroke="#000" stroke-width="10">
<path d="m208.502,184.758c0,13.205-10.707,23.91-23.91,23.91h-85.014c-13.206,0-23.91-10.705-23.91-23.91v-85.015c0-13.205 10.704-23.91 23.91-23.91h85.014c13.203,0 23.91,10.705 23.91,23.91v85.015z"/>
<path d="m208.075,189.242l75.862,75.862c2.893,2.892 2.893,7.582 0,10.474l-8.728,8.728c-2.893,2.893-7.581,2.893-10.474,0l-76.004-76.003"/>
</g>
<path fill="#000" d="m105.996,149.668c23.906,0 47.813,0 71.718,0 9.687,0 9.771-15.003 .108-15.003-23.906,0-47.813,0-71.718,0-9.687,.001-9.772,15.003-.108,15.003z"/>
</svg>
