<svg xmlns="http://www.w3.org/2000/svg" viewBox="20 20 321 321">
<path fill="none"  stroke="#000" stroke-width="10" d="m238.697,75.064c3.52,0 6.373,3.156 6.373,7.049l.02,197.885c0,3.894-2.854,7.05-6.375,7.05h-114.75c-3.52,0-6.375-3.156-6.375-7.05l-.019-197.885c0-3.893 2.855-7.049 6.375-7.049h114.751z"/>
<g fill="#000">
<path d="m231.554,84.506c5.15,.533 4.115,5.367 4.117,8.465 .003,4.028 .005,8.057 .008,12.085 .002,4.111 1.571,11.923-5.129,11.923-10.946,0-21.893,0-32.838,0-15.838,0-31.676,0-47.514,0-5.257,0-10.514,0-15.771,0-3.56,0-8.028-.059-8.032-5.166-.004-6.537-.008-13.073-.013-19.61-.001-2.977-.895-7.178 4.111-7.697 .583-.061 1.205,0 1.79,0 10.689,0 21.379,0 32.069,0 22.401-0 44.801-0 67.202-0 1.935,0 1.935-3 0-3-24.557,0-49.113,0-73.67,0-9.113,0-18.226,0-27.338,0-6.587,0-7.167,5.69-7.164,10.697 .004,6.827 .009,13.654 .013,20.481 .006,9.624 13.029,7.295 19.337,7.295 15.09,0 30.179,0 45.27,0 13.075,0 26.15,0 39.226,0 2.844,0 6.633,.504 8.914-1.549 4.103-3.69 2.538-11.287 2.535-16.227-.005-7.049 2.803-19.669-7.123-20.697-1.924-.199-1.905,2.803-0,3z"/>
<path d="m231.554,205.437c5.15,.533 4.115,5.368 4.117,8.465 .003,4.028 .005,8.057 .008,12.085 .002,4.11 1.571,11.923-5.129,11.923-10.946,0-21.893,0-32.838,0-15.838,0-31.676,0-47.514,0-5.257,0-10.514,0-15.771,0-3.56,0-8.028-.06-8.032-5.166-.004-6.536-.008-13.073-.013-19.609-.001-2.977-.895-7.179 4.111-7.697 .583-.061 1.205,0 1.79,0 10.689,0 21.379,0 32.069,0 22.401-.001 44.801-.001 67.202-.001 1.935,0 1.935-3 0-3-24.557,0-49.113,0-73.67,0-9.113,0-18.226,0-27.338,0-6.587,0-7.167,5.691-7.164,10.697 .004,6.827 .009,13.653 .013,20.48 .006,9.624 13.029,7.295 19.337,7.295 15.09,0 30.179,0 45.27,0 13.075,0 26.15,0 39.226,0 2.844,0 6.633,.504 8.914-1.548 4.103-3.69 2.538-11.288 2.535-16.228-.005-7.049 2.802-19.669-7.123-20.697-1.924-.199-1.905,2.803-0,3.001z"/>
<path d="m231.554,165.126c5.15,.534 4.115,5.368 4.117,8.465 .003,4.028 .005,8.057 .008,12.085 .002,4.11 1.571,11.923-5.129,11.923-10.946,0-21.893,0-32.838,0-15.838,0-31.676,0-47.514,0-5.257,0-10.514,0-15.771,0-3.56,0-8.028-.06-8.032-5.166-.004-6.537-.008-13.073-.013-19.61-.001-2.977-.895-7.179 4.111-7.697 .583-.061 1.205,0 1.79,0 10.689,0 21.379,0 32.069,0 22.401-0 44.801-0 67.202-0 1.935,0 1.935-3 0-3-24.557,0-49.113,0-73.67,0-9.113,0-18.226,0-27.338,0-6.587,0-7.167,5.691-7.164,10.697 .004,6.827 .009,13.654 .013,20.481 .006,9.624 13.029,7.295 19.337,7.295 15.09,0 30.179,0 45.27,0 13.075,0 26.15,0 39.226,0 2.844,0 6.633,.504 8.914-1.549 4.103-3.69 2.538-11.287 2.535-16.228-.005-7.049 2.803-19.669-7.123-20.697-1.924-.198-1.905,2.804-0,3.001z"/>
<path d="m231.554,124.816c5.15,.534 4.115,5.368 4.117,8.465 .003,4.028 .005,8.057 .008,12.085 .002,4.111 1.571,11.923-5.129,11.923-10.946,0-21.893,0-32.838,0-15.838,0-31.676,0-47.514,0-5.257,0-10.514,0-15.771,0-3.56,0-8.028-.059-8.032-5.166-.004-6.537-.008-13.073-.013-19.61-.001-2.977-.895-7.179 4.111-7.698 .583-.061 1.205,0 1.79,0 10.689,0 21.379,0 32.069,0 22.401,.001 44.801,.001 67.202,.001 1.935,0 1.935-3 0-3-24.557,0-49.113,0-73.67,0-9.113,0-18.226,0-27.338,0-6.587,0-7.167,5.691-7.164,10.698 .004,6.827 .009,13.654 .013,20.481 .006,9.623 13.029,7.294 19.337,7.294 15.09,0 30.179,0 45.27,0 13.075,0 26.15,0 39.226,0 2.844,0 6.633,.504 8.914-1.548 4.103-3.69 2.538-11.288 2.535-16.228-.005-7.049 2.803-19.669-7.123-20.697-1.924-.199-1.905,2.803-0,3z"/>
<path d="m231.554,245.747c5.15,.533 4.115,5.368 4.117,8.465 .003,4.028 .005,8.057 .008,12.085 .002,4.11 1.571,11.923-5.129,11.923-10.946,0-21.893,0-32.838,0-15.838,0-31.676,0-47.514,0-5.257,0-10.514,0-15.771,0-3.56,0-8.028-.06-8.032-5.166-.004-6.536-.008-13.073-.013-19.609-.001-2.977-.895-7.179 4.111-7.697 .583-.061 1.205,0 1.79,0 10.689,0 21.379,0 32.069,0 22.401-.001 44.801-.001 67.202-.001 1.935,0 1.935-3 0-3-24.557,0-49.113,0-73.67,0-9.113,0-18.226,0-27.338,0-6.587,0-7.167,5.691-7.164,10.697 .004,6.827 .009,13.653 .013,20.48 .006,9.624 13.029,7.295 19.337,7.295 15.09,0 30.179,0 45.27,0 13.075,0 26.15,0 39.226,0 2.844,0 6.633,.504 8.914-1.549 4.103-3.69 2.538-11.287 2.535-16.227-.005-7.049 2.802-19.669-7.123-20.697-1.924-.198-1.905,2.804-0,3.001z"/>
</g>
</svg>
