<svg xmlns="http://www.w3.org/2000/svg" viewBox="20 20 321 321">
<path fill="none"  stroke="#000" stroke-width="10" d="m279.5,248.734c0,3.645-2.955,6.6-6.6,6.6h-184.8c-3.646,0-6.6-2.955-6.6-6.6v-118.8c0-3.645 2.955-6.6 6.6-6.6h184.8c3.645,0 6.6,2.956 6.6,6.6v118.8z"/>
<path fill="#000" d="m174.945,194.178c3.935,0 7.87,0 11.805,0 6.448,0 6.448-10 0-10-3.935,0-7.87,0-11.805,0-6.448,0-6.448,10 0,10z"/>
<path fill="none"  stroke="#000" stroke-width="10" d="m180.719,123.645 0,128.419"/>
<g fill="#000">
<path  stroke="#000" stroke-width="10" d="m286.666,124.713c0,.509-3.164,.922-7.066,.922h-197.867c-3.903,0-7.066-.414-7.066-.922v-16.593c0-.509 3.164-.922 7.066-.922h197.867c3.902,0 7.066,.414 7.066,.922v16.593z"/>
<path d="m101.482,255.382c.001-44.971 .002-89.942 .003-134.914 0-.029 0-.058 0-.087 0-4.514-7-4.514-7,0-.001,44.971-.002,89.942-.003,134.913 0,.029 0,.059 0,.088 0,4.514 7,4.514 7-0z"/>
<path d="m119.868,255.382c.001-44.971 .002-89.942 .003-134.914 0-.029 0-.058 0-.087 0-4.514-7-4.514-7,0-.001,44.971-.002,89.942-.003,134.913 0,.029 0,.059 0,.088 0,4.514 7,4.514 7-0z"/>
<path d="m138.254,255.382c.001-44.971 .002-89.942 .003-134.914 0-.029 0-.058 0-.087 0-4.514-7-4.514-7,0-.001,44.971-.002,89.942-.003,134.913 0,.029 0,.059 0,.088 0,4.514 7,4.514 7-0z"/>
<path d="m156.639,255.382c.001-44.971 .002-89.942 .003-134.914 0-.029 0-.058 0-.087 0-4.514-7-4.514-7,0-.001,44.971-.002,89.942-.003,134.913 0,.029 0,.059 0,.088 0,4.514 7,4.514 7-0z"/>
<path d="m175.024,255.382c.001-44.971 .002-89.942 .003-134.914 0-.029 0-.058 0-.087 0-4.514-7-4.514-7,0-.001,44.971-.002,89.942-.003,134.913 0,.029 0,.059 0,.088 0,4.514 7,4.514 7-0z"/>
<path d="m193.41,255.382c.001-44.971 .003-89.942 .004-134.914 0-.029 0-.058 0-.087 0-4.514-7-4.514-7,0-.001,44.971-.003,89.942-.004,134.913 0,.029 0,.059 0,.088 0,4.514 7,4.514 7-0z"/>
<path d="m211.796,255.382c.001-44.971 .002-89.942 .003-134.914 0-.029 0-.058 0-.087 0-4.514-7-4.514-7,0-.001,44.971-.002,89.942-.003,134.913 0,.029 0,.059 0,.088 0,4.514 7,4.514 7-0z"/>
</g>
</svg>
