<svg xmlns="http://www.w3.org/2000/svg" viewBox="20 20 321 321">
<g fill="#000">
<path d="m195.693,130.196c22.393-20.788 54.21-26.62 82.669-15.784 6.037,2.299 8.623-7.372 2.658-9.643-31.779-12.101-67.569-4.695-92.397,18.355-4.735,4.397 2.353,11.453 7.07,7.072z"/>
<path d="m189.959,122.07c-.407,.366-.815,.733-1.223,1.1-2.211,1.989-2.019,5.695 0,7.713 1.019,1.019 2.416,1.598 3.856,1.598 1.505,0 2.76-.611 3.856-1.598 .407-.366 .815-.733 1.223-1.1 2.211-1.989 2.019-5.695 0-7.713-1.019-1.019-2.416-1.598-3.856-1.598-1.504,.001-2.759,.611-3.856,1.598z"/>
<path d="m280.896,104.758c-.529-.146-1.058-.292-1.586-.438-2.864-.791-5.922,.947-6.709,3.81-.789,2.867 .945,5.918 3.809,6.709 .529,.146 1.058,.292 1.586,.438 2.864,.791 5.922-.947 6.709-3.81 .788-2.867-.946-5.918-3.809-6.709z"/>
<path d="m195.693,195.046c22.393-20.788 54.21-26.619 82.669-15.783 6.037,2.299 8.623-7.372 2.658-9.643-31.779-12.1-67.569-4.695-92.397,18.355-4.735,4.396 2.353,11.452 7.07,7.071z"/>
<path d="m189.959,186.921c-.407,.366-.815,.733-1.223,1.1-2.211,1.988-2.019,5.695 0,7.713 1.019,1.019 2.416,1.598 3.856,1.598 1.505,0 2.76-.611 3.856-1.598 .407-.366 .815-.733 1.223-1.1 2.211-1.988 2.019-5.695 0-7.713-1.019-1.019-2.416-1.598-3.856-1.598-1.504,0-2.759,.612-3.856,1.598z"/>
<path d="m280.896,169.609c-.529-.146-1.058-.292-1.586-.438-2.864-.792-5.922,.947-6.709,3.81-.789,2.868 .945,5.917 3.809,6.709 .529,.146 1.058,.292 1.586,.438 2.864,.792 5.922-.947 6.709-3.81 .788-2.868-.946-5.917-3.809-6.709z"/>
<path d="m195.693,259.896c22.393-20.787 54.21-26.619 82.669-15.783 6.037,2.299 8.623-7.372 2.658-9.643-31.779-12.1-67.569-4.695-92.397,18.355-4.735,4.397 2.353,11.452 7.07,7.071z"/>
<path d="m189.959,251.771c-.407,.366-.815,.733-1.223,1.1-2.211,1.988-2.019,5.695 0,7.713 1.019,1.019 2.416,1.598 3.856,1.598 1.505,0 2.76-.611 3.856-1.598 .407-.366 .815-.733 1.223-1.1 2.211-1.988 2.019-5.695 0-7.713-1.019-1.019-2.416-1.598-3.856-1.598-1.504,0-2.759,.611-3.856,1.598z"/>
<path d="m280.896,234.46c-.529-.146-1.058-.293-1.586-.438-2.864-.792-5.922,.947-6.709,3.809-.789,2.868 .945,5.918 3.809,6.709 .529,.146 1.058,.293 1.586,.438 2.864,.792 5.922-.947 6.709-3.809 .788-2.868-.946-5.918-3.809-6.709z"/>
<path d="m232,71.733c0,6.291 0,12.582 0,18.873 0,1.935 3,1.935 3,0 0-6.291 0-12.582 0-18.873 0-1.935-3-1.935-3,0z"/>
<path d="m232,118.791c0,13.178 0,26.355 0,39.533 0,1.935 3,1.935 3,0 0-13.178 0-26.355 0-39.533 0-1.935-3-1.935-3-0z"/>
<path d="m232,184.285c0,12.771 0,25.54 0,38.311 0,1.935 3,1.935 3,0 0-12.771 0-25.54 0-38.311 0-1.934-3-1.934-3,0z"/>
<path d="m232,248.305c0,13.636 0,27.272 0,40.908 0,1.935 3,1.935 3,0 0-13.636 0-27.272 0-40.908 0-1.935-3-1.935-3,0z"/>
</g>
<path fill="none"  stroke="#000" stroke-width="10" d="m90.708,118.603c0,2.245 1.82,4.064 4.064,4.064h23.371c2.245,0 4.064-1.82 4.064-4.064v-23.372c0-2.245-1.82-4.064-4.064-4.064h-23.371c-2.245,0-4.064,1.82-4.064,4.064v23.372z"/>
<g fill="#000">
<path d="m137.797,70.756c-2.406,2.407-4.813,4.813-7.219,7.219-1.926,1.926-1.926,5.145 0,7.071s5.145,1.926 7.071,0c2.406-2.407 4.813-4.813 7.219-7.219 1.926-1.926 1.926-5.145 0-7.071s-5.145-1.926-7.071,0z"/>
<path d="m175.708,101.667c-11.167,0-22.333,0-33.5,0-6.449,0-6.449,10 0,10 11.167,0 22.333,0 33.5,0 6.448,0 6.448-10 0-10z"/>
<path d="m78.369,143.327c1.99-1.99 3.979-3.979 5.969-5.969 1.926-1.926 1.926-5.145 0-7.071s-5.145-1.926-7.071,0c-1.99,1.99-3.979,3.979-5.969,5.969-1.926,1.926-1.926,5.145 0,7.071s5.144,1.926 7.071,0z"/>
<path d="m111.958,175.417c0-11.167 0-22.333 0-33.5 0-6.449-10-6.449-10,0 0,11.167 0,22.333 0,33.5 0,6.448 10,6.448 10,0z"/>
<path d="m160.337,153.976c-7.896-7.896-15.792-15.792-23.688-23.688-4.564-4.563-11.635,2.507-7.071,7.071 7.896,7.896 15.792,15.792 23.688,23.688 4.564,4.563 11.635-2.507 7.071-7.071z"/>
</g>
</svg>
