<svg xmlns="http://www.w3.org/2000/svg" viewBox="20 20 321 321">
<path fill="none"  stroke="#000" stroke-width="10" d="m203.833,251.27c0,2.98-2.687,5.397-6,5.397h-109c-3.313,0-6-2.417-6-5.397v-78.706c0-2.98 2.687-5.397 6-5.397h109c3.313,0 6,2.417 6,5.397v78.706z"/>
<path fill="#000" d="m109.333,274.167c21.5,0 43,0 64.5,0 6.449,0 6.449-10 0-10-21.5,0-43,0-64.5,0-6.449,0-6.449,10 0,10z"/>
<g fill="none"  stroke="#000" stroke-width="10">
<path d="m158.833,262.917c0,2.347-1.903,4.25-4.25,4.25h-26.5c-2.347,0-4.25-1.903-4.25-4.25 0-2.347 1.903-4.25 4.25-4.25h26.5c2.347,0 4.25,1.903 4.25,4.25z"/>
<path d="m287.333,262.167c0,3.313-2.687,6-6,6h-55.5c-3.313,0-6-2.687-6-6v-162c0-3.313 2.687-6 6-6h55.5c3.313,0 6,2.687 6,6v162z"/>
</g>
<g fill="#000">
<path d="m232.833,115.167c14,0 28,0 42,0 6.448,0 6.448-10 0-10-14,0-28,0-42,0-6.448,0-6.448,10 0,10z"/>
<path d="m232.833,138.167c14,0 28,0 42,0 6.448,0 6.448-10 0-10-14,0-28,0-42,0-6.448,0-6.448,10 0,10z"/>
<path d="m257.333,200.887c0,1.535-1.245,2.78-2.78,2.78h-3.939c-1.535,0-2.78-1.245-2.78-2.78v-3.939c0-1.535 1.245-2.78 2.78-2.78h3.939c1.535,0 2.78,1.245 2.78,2.78v3.939z"/>
<path d="m280.043,254.551c0,3.93-3.188,7.116-7.117,7.116h-39.139c-3.931,0-7.117-3.187-7.117-7.116v-36.768c0-3.93 3.187-7.116 7.117-7.116h39.139c3.93,0 7.117,3.187 7.117,7.116v36.768z"/>
</g>
</svg>
