<svg xmlns="http://www.w3.org/2000/svg" viewBox="20 20 321 321">
<g  stroke="#000" stroke-width="10">
<path fill="none" d="m287.333,231.578c0,3.733-3.026,6.76-6.759,6.76h-198.241c-3.732,0-6.758-3.026-6.758-6.76v-126.153c0-3.732 3.026-6.758 6.758-6.758h198.241c3.732,0 6.759,3.026 6.759,6.758v126.153z"/>
<g fill="#000">
<path d="m286.333,231.424c0,1.791-2.745,3.243-6.132,3.243h-198.237c-3.386,0-6.131-1.452-6.131-3.243v-3.514c0-1.791 2.746-3.243 6.131-3.243h198.237c3.387,0 6.132,1.452 6.132,3.243v3.514z"/>
<path d="m186.833,256.667c0,3.313-2.687,6-6,6h-.5c-3.313,0-6-2.687-6-6v-19c0-3.313 2.687-6 6-6h.5c3.313,0 6,2.687 6,6v19z"/>
</g>
</g>
<path fill="#000" d="m111.333,268.167c46.194,0 92.388,0 138.581,0 .307,0 .612,0 .919,0 6.448,0 6.448-10 0-10-46.193,0-92.387,0-138.581,0-.306,0-.613,0-.919,0-6.449,0-6.449,10-0,10z"/>
</svg>
