<svg xmlns="http://www.w3.org/2000/svg" viewBox="20 20 321 321">
<path fill="none"  stroke="#000" stroke-width="10" d="m192.592,163.529c0,2.285-1.854,4.138-4.139,4.138h-14.482c-2.285,0-4.138-1.853-4.138-4.138v-11.725c0-2.285 1.853-4.138 4.138-4.138h14.482c2.285,0 4.139,1.853 4.139,4.138v11.725z"/>
<g fill="#000">
<path d="m145.797,135.247c-11.839,12.518-11.839,31.323 0,43.841 4.439,4.693 11.499-2.39 7.071-7.071-8.05-8.511-8.05-21.188 0-29.698 4.428-4.682-2.632-11.766-7.071-7.072z"/>
<path d="m131.547,116.758c-22.069,22.682-22.069,58.635 0,81.317 4.503,4.629 11.568-2.448 7.071-7.07-18.266-18.773-18.266-48.403 0-67.175 4.498-4.623-2.567-11.7-7.071-7.072z"/>
<path d="m115.548,103.381c-30.082,30.681-30.082,80.015 0,110.695 4.521,4.61 11.587-2.465 7.071-7.07-26.273-26.797-26.274-69.757 0-96.554 4.516-4.606-2.551-11.681-7.071-7.071z"/>
<path d="m98.548,90.381c-17.888,18.174-27.934,42.342-28.125,67.848-.19,25.358 10.435,49.875 28.125,67.848 4.529,4.602 11.597-2.473 7.071-7.07-33.089-33.619-33.09-87.936 0-121.554 4.526-4.599-2.542-11.673-7.071-7.072z"/>
<path d="m209.888,142.318c8.049,8.511 8.049,21.188 0,29.698-4.428,4.681 2.632,11.764 7.07,7.071 11.84-12.518 11.84-31.323 0-43.841-4.438-4.693-11.498,2.391-7.07,7.072z"/>
<path d="m224.138,123.83c18.265,18.772 18.265,48.402 0,67.175-4.498,4.622 2.567,11.699 7.07,7.07 22.069-22.682 22.069-58.635 0-81.317-4.503-4.628-11.568,2.449-7.07,7.072z"/>
<path d="m240.137,110.452c26.274,26.797 26.273,69.756 0,96.554-4.517,4.605 2.551,11.681 7.07,7.07 30.082-30.681 30.083-80.014 0-110.695-4.52-4.61-11.587,2.465-7.07,7.071z"/>
<path d="m257.137,97.452c33.09,33.618 33.09,87.935 0,121.554-4.525,4.598 2.542,11.672 7.07,7.07 17.889-18.174 27.935-42.342 28.126-67.848 .189-25.359-10.435-49.875-28.126-67.848-4.528-4.6-11.597,2.474-7.07,7.072z"/>
<path d="m175.833,174.167c0,37.833 0,75.667 0,113.5 0,6.448 10,6.448 10,0 0-37.833 0-75.667 0-113.5 0-6.449-10-6.449-10-0z"/>
</g>
</svg>
