<svg xmlns="http://www.w3.org/2000/svg" viewBox="20 20 321 321">
<g fill="#000">
<path d="m83.84,162.833c8.917,1.522 17.833,3.045 26.749,4.567 4.414,.754 6.304-5.991 1.861-6.75-8.917-1.522-17.833-3.045-26.749-4.567-4.414-.754-6.304,5.991-1.861,6.75z"/>
<path d="m84.114,172.449c8.917,1.522 17.833,3.045 26.749,4.567 4.414,.753 6.304-5.991 1.861-6.75-8.917-1.522-17.833-3.045-26.749-4.567-4.413-.754-6.304,5.991-1.861,6.75z"/>
<path d="m84.114,181.79c8.917,1.522 17.833,3.045 26.749,4.567 4.414,.754 6.304-5.991 1.861-6.75-8.917-1.522-17.833-3.045-26.749-4.567-4.413-.754-6.304,5.991-1.861,6.75z"/>
<path d="m89.808,191.762c5.004,.854 10.008,1.708 15.012,2.563 4.414,.754 6.304-5.991 1.861-6.75-5.004-.854-10.008-1.708-15.012-2.563-4.414-.754-6.304,5.991-1.861,6.75z"/>
</g>
<path fill="none"  stroke="#000" stroke-width="10" d="m120.784,136.894c0,7.544-6.116,13.66-13.66,13.66h-18.214c-7.544,0-13.66-6.116-13.66-13.66v-48.57c0-7.544 6.116-13.66 13.66-13.66h18.213c7.544,0 13.66,6.116 13.66,13.66v48.57z"/>
<g fill="#000">
<path d="m208.512,190.181-.182-60.147 79.305,60.147z"/>
<path d="m213.512,190.181c-.061-20.049-.121-40.098-.182-60.146-2.508,1.439-5.016,2.878-7.523,4.317 26.435,20.049 52.869,40.098 79.305,60.146 .841-3.105 1.683-6.212 2.523-9.317-26.374,0-52.749,0-79.123,0-6.448,0-6.448,10 0,10 26.374,0 52.749,0 79.123,0 5.402,0 6.252-6.489 2.523-9.317-26.435-20.049-52.869-40.098-79.305-60.146-3.125-2.371-7.534,.868-7.523,4.317 .061,20.049 .121,40.098 .182,60.146 .019,6.447 10.019,6.449 10-0z"/>
<path d="m208.148,190.181 .182-60.146-79.305,60.146z"/>
<path d="m213.148,190.181c.061-20.049 .121-40.097 .182-60.146 .011-3.45-4.397-6.688-7.523-4.317-26.435,20.049-52.87,40.097-79.305,60.146-3.729,2.828-2.879,9.317 2.523,9.317 26.375,0 52.749,0 79.124,0 6.448,0 6.448-10 0-10-26.375,0-52.749,0-79.124,0 .841,3.105 1.683,6.212 2.523,9.317 26.435-20.049 52.871-40.097 79.305-60.146-2.508-1.439-5.016-2.878-7.523-4.317-.061,20.049-.121,40.097-.182,60.146-.019,6.449 9.981,6.447 10-0z"/>
</g>
<path fill="none"  stroke="#000" stroke-width="10" d="m273.674,281.814c0,2.91-2.916,5.27-6.513,5.27h-117.168c-3.597,0-6.512-2.359-6.512-5.27v-96.072c0-2.908 130.193-2.908 130.193,0v96.072z"/>
<g fill="#000">
<path d="m179.37,227.623c0,1.279-.24,2.51-.72,3.689s-1.12,2.33-1.92,3.449c-.8,1.121-1.701,2.201-2.7,3.24-1,1.041-2.021,2.041-3.06,3-.521,.48-1.121,1.051-1.8,1.711-.681,.66-1.32,1.34-1.92,2.039-.6,.701-1.11,1.41-1.53,2.131-.42,.72-.63,1.379-.63,1.979h15.96v6.12h-24.24c-.12-.399-.17-.9-.15-1.5 .02-.6 .03-1.02 .03-1.26 0-2 .37-3.84 1.11-5.52 .739-1.681 1.68-3.23 2.82-4.65s2.36-2.74 3.66-3.961c1.299-1.219 2.52-2.389 3.66-3.51 1.14-1.119 2.08-2.199 2.82-3.24 .74-1.039 1.11-2.1 1.11-3.18 0-1.52-.46-2.689-1.38-3.51-.921-.819-2.081-1.23-3.48-1.23-1.161,0-2.38,.281-3.66,.84-1.281,.562-2.541,1.5-3.78,2.82l-3.66-5.16c1.599-1.68 3.45-2.919 5.55-3.719 2.1-.801 4.19-1.201 6.27-1.201 1.52,0 2.979,.221 4.38,.66 1.4,.441 2.64,1.102 3.72,1.98 1.08,.881 1.939,1.99 2.58,3.33 .639,1.343 .96,2.893 .96,4.653z"/>
<path d="m198.729,250.242c0,1.761-.54,3.101-1.62,4.02-1.08,.92-2.32,1.381-3.72,1.381-.72,0-1.401-.12-2.04-.36-.641-.239-1.211-.589-1.71-1.05-.501-.459-.899-1.02-1.2-1.68-.3-.66-.449-1.43-.449-2.311 0-.84 .149-1.59 .449-2.25 .301-.66 .699-1.209 1.2-1.65 .499-.439 1.069-.779 1.71-1.02 .639-.24 1.32-.359 2.04-.359 1.399,0 2.64,.46 3.72,1.379 1.08,.922 1.62,2.221 1.62,3.9z"/>
<path d="m204.949,236.383c0-6.4 1.18-11.23 3.541-14.49 2.359-3.26 5.639-4.891 9.84-4.891 4.359,0 7.68,1.631 9.959,4.891 2.281,3.26 3.42,8.09 3.42,14.49s-1.16,11.23-3.479,14.49c-2.32,3.26-5.601,4.889-9.84,4.889-4.36,0-7.69-1.629-9.99-4.889s-3.451-8.09-3.451-14.49zm7.5,0c0,1.8 .07,3.49 .211,5.07 .139,1.58 .42,2.949 .84,4.109s1.01,2.08 1.77,2.76c.76,.681 1.779,1.02 3.061,1.02 1.238,0 2.25-.339 3.029-1.02 .78-.68 1.381-1.609 1.801-2.79 .42-1.179 .699-2.55 .84-4.11 .139-1.56 .209-3.239 .209-5.039 0-1.801-.07-3.49-.209-5.07-.141-1.58-.42-2.949-.84-4.109s-1.012-2.08-1.771-2.761c-.761-.68-1.78-1.021-3.06-1.021-1.281,0-2.301,.341-3.061,1.021-.76,.681-1.35,1.61-1.77,2.79s-.701,2.55-.84,4.109c-.139,1.56-.21,3.24-.21,5.041z"/>
<path d="m252.05,223.422c-1.761,0-3.24,.321-4.44,.961-1.199,.641-2.189,1.529-2.97,2.67-.78,1.14-1.341,2.5-1.681,4.08s-.51,3.33-.51,5.25c0,4.439 .699,7.709 2.101,9.81 1.399,2.101 3.459,3.149 6.18,3.149 .44,0 .92-.02 1.44-.06 .52-.039 .999-.099 1.439-.18v-13.56h7.381v18.539c-.881,.32-2.25,.682-4.111,1.08-1.859,.4-4.109,.6-6.75,.6-2.32,0-4.409-.41-6.27-1.229-1.859-.819-3.449-2.04-4.77-3.659-1.32-1.621-2.34-3.641-3.061-6.061-.72-2.42-1.08-5.229-1.08-8.43 0-3.16 .42-5.949 1.26-8.371 .841-2.419 1.98-4.449 3.42-6.09 1.441-1.639 3.141-2.869 5.101-3.689 1.96-.819 4.06-1.23 6.3-1.23 1.44,0 2.73,.111 3.87,.33 1.14,.221 2.13,.471 2.97,.75 .84,.281 1.53,.58 2.07,.9s.949,.561 1.23,.721l-1.92,5.879c-.881-.559-1.961-1.059-3.24-1.5-1.28-.439-2.6-.66-3.959-.66z"/>
</g>
</svg>
