<svg xmlns="http://www.w3.org/2000/svg" viewBox="20 20 321 321">
<g fill="#000">
<path d="m201.089,203.144c1.59,4.425 3.181,8.85 4.771,13.275 1.515,4.215 8.28,2.397 6.75-1.861-1.59-4.425-3.181-8.85-4.771-13.275-1.515-4.216-8.28-2.398-6.75,1.861z"/>
<path d="m183.759,177.809c4.226,5.984 8.451,11.97 12.677,17.954 2.581,3.655 8.655,.164 6.045-3.533-4.226-5.984-8.451-11.969-12.677-17.954-2.581-3.656-8.656-.165-6.045,3.533z"/>
<path d="m212.857,245.389c0,5.258 0,10.516 0,15.773 0,4.514 7,4.514 7,0 0-5.258 0-10.516 0-15.773 0-4.514-7-4.514-7-0z"/>
<path d="m219.793,287.213c-.098-4.542-.194-9.085-.292-13.627-.097-4.508-7.097-4.517-7,0 .098,4.542 .194,9.085 .292,13.627 .097,4.508 7.097,4.516 7,0z"/>
<path d="m208.53,223.95c.905,4.834 1.811,9.669 2.716,14.504 .83,4.434 7.576,2.55 6.75-1.861-.905-4.834-1.811-9.669-2.716-14.504-.83-4.434-7.576-2.55-6.75,1.861z"/>
<path d="m221.172,205.243c1.59,4.425 3.181,8.85 4.771,13.275 1.515,4.215 8.28,2.397 6.75-1.861-1.59-4.425-3.181-8.85-4.771-13.275-1.515-4.215-8.28-2.398-6.75,1.861z"/>
<path d="m202.464,177.809c5.322,7.321 10.645,14.643 15.967,21.964 2.627,3.612 8.704,.125 6.045-3.533-5.322-7.321-10.645-14.643-15.967-21.964-2.627-3.613-8.704-.126-6.045,3.533z"/>
<path d="m232.229,252.734c.072,3.964 .145,7.929 .217,11.893 .082,4.509 7.082,4.517 7,0-.072-3.964-.145-7.929-.217-11.893-.083-4.508-7.083-4.516-7,0z"/>
<path d="m239.631,281.662c.069-2.575 .14-5.151 .209-7.727 .122-4.517-6.878-4.505-7,0-.069,2.575-.14,5.151-.209,7.727-.122,4.517 6.878,4.505 7,0z"/>
<path d="m228.586,229.53c.905,4.834 1.81,9.668 2.715,14.503 .83,4.434 7.576,2.55 6.75-1.861-.905-4.834-1.81-9.668-2.715-14.503-.83-4.434-7.576-2.55-6.75,1.861z"/>
<path d="m240.096,208.926c1.57,3.415 3.141,6.831 4.711,10.246 .797,1.733 3.266,2.147 4.789,1.256 1.765-1.034 2.053-3.056 1.256-4.789-1.57-3.415-3.141-6.831-4.711-10.246-.797-1.733-3.266-2.147-4.789-1.256-1.765,1.034-2.053,3.055-1.256,4.789z"/>
<path d="m222.76,177.809c4.699,7.946 9.398,15.894 14.097,23.84 2.295,3.881 8.348,.361 6.045-3.533-4.699-7.946-9.398-15.894-14.097-23.84-2.295-3.882-8.348-.362-6.045,3.533z"/>
<path d="m251.538,250.001c.101,3.748 .201,7.497 .302,11.245 .121,4.505 7.121,4.517 7,0-.101-3.748-.201-7.497-.302-11.245-.121-4.505-7.121-4.517-7,0z"/>
<path d="m258.731,281.689c.011-2.466 .021-4.933 .032-7.398 .02-4.515-6.98-4.513-7,0-.011,2.466-.021,4.933-.032,7.398-.019,4.515 6.981,4.513 7,0z"/>
<path d="m247.359,228.51c.905,4.834 1.811,9.668 2.716,14.503 .83,4.434 7.576,2.55 6.75-1.861-.905-4.834-1.811-9.668-2.716-14.503-.83-4.434-7.576-2.55-6.75,1.861z"/>
<path d="m211.131,204.192c1.59,4.426 3.18,8.852 4.77,13.277 1.515,4.215 8.28,2.397 6.75-1.861-1.59-4.426-3.18-8.852-4.77-13.277-1.515-4.215-8.28-2.397-6.75,1.861z"/>
<path d="m193.112,177.809c4.819,6.606 9.639,13.212 14.458,19.818 2.632,3.607 8.71,.12 6.045-3.533-4.819-6.606-9.639-13.212-14.458-19.818-2.632-3.608-8.71-.121-6.045,3.533z"/>
<path d="m222.282,248.008c.36,6.257 .721,12.515 1.081,18.771 .259,4.486 7.26,4.512 7,0-.36-6.257-.721-12.515-1.081-18.771-.259-4.487-7.26-4.512-7,0z"/>
<path d="m230.454,284.118c-.002-2.943-.003-5.886-.005-8.829-.003-4.514-7.003-4.515-7,0 .002,2.943 .003,5.886 .005,8.829 .003,4.514 7.003,4.515 7,0z"/>
<path d="m219.199,225.203c.629,3.357 1.258,6.715 1.887,10.073 .352,1.876 2.584,2.918 4.306,2.444 1.952-.537 2.795-2.432 2.444-4.306-.629-3.357-1.258-6.715-1.887-10.073-.352-1.876-2.584-2.918-4.306-2.444-1.952,.538-2.794,2.432-2.444,4.306z"/>
<path d="m228.616,202.978c2.042,4.835 4.084,9.669 6.125,14.504 .743,1.759 3.305,2.125 4.789,1.256 1.803-1.056 1.998-3.031 1.256-4.789-2.042-4.835-4.084-9.669-6.125-14.504-.743-1.759-3.305-2.125-4.789-1.256-1.803,1.055-1.998,3.031-1.256,4.789z"/>
<path d="m213.124,177.809c3.883,6.053 7.766,12.105 11.647,18.158 2.429,3.785 8.49,.279 6.045-3.533-3.883-6.053-7.766-12.105-11.647-18.158-2.429-3.786-8.49-.279-6.045,3.533z"/>
<path d="m241.244,249.293c.243,4.813 .486,9.626 .729,14.439 .227,4.491 7.228,4.514 7,0-.243-4.813-.486-9.626-.729-14.439-.226-4.491-7.228-4.514-7-0z"/>
<path d="m249.354,285.126c.057-2.941 .113-5.884 .17-8.825 .087-4.517-6.913-4.508-7,0-.057,2.941-.113,5.884-.17,8.825-.087,4.517 6.913,4.508 7,0z"/>
<path d="m237.51,226.192c.866,4.417 1.733,8.834 2.6,13.252 .868,4.427 7.615,2.548 6.75-1.861-.866-4.417-1.733-8.834-2.6-13.252-.868-4.427-7.615-2.548-6.75,1.861z"/>
<path d="m247.321,205.231c2.074,4.379 4.148,8.757 6.223,13.136 1.932,4.077 7.966,.522 6.045-3.533-2.074-4.379-4.148-8.757-6.223-13.136-1.931-4.077-7.966-.522-6.045,3.533z"/>
<path d="m231.005,177.809c4.419,6.604 8.838,13.208 13.256,19.813 2.496,3.73 8.563,.23 6.045-3.533-4.419-6.604-8.838-13.208-13.256-19.813-2.496-3.731-8.563-.231-6.045,3.533z"/>
<path d="m260.678,253.901c.188,2.775 .375,5.552 .563,8.327 .129,1.902 1.495,3.5 3.5,3.5 1.811,0 3.629-1.595 3.5-3.5-.188-2.775-.375-5.552-.563-8.327-.129-1.902-1.495-3.5-3.5-3.5-1.811,0-3.629,1.595-3.5,3.5z"/>
<path d="m268.252,283.369c-.083-4.534-.165-9.069-.248-13.604-.082-4.509-7.082-4.517-7,0 .083,4.534 .165,9.069 .248,13.604 .082,4.509 7.082,4.517 7,0z"/>
<path d="m255.409,228.236c1.063,5.908 2.124,11.816 3.187,17.725 .798,4.438 7.543,2.552 6.75-1.861-1.063-5.908-2.124-11.816-3.187-17.725-.798-4.437-7.543-2.552-6.75,1.861z"/>
<path d="m259.413,209.241c1.59,4.425 3.181,8.85 4.771,13.275 1.515,4.215 8.28,2.397 6.75-1.861-1.59-4.425-3.181-8.85-4.771-13.275-1.515-4.215-8.28-2.398-6.75,1.861z"/>
<path d="m241.234,177.809c4.891,7.844 9.781,15.688 14.672,23.532 2.382,3.82 8.44,.31 6.045-3.533-4.891-7.844-9.781-15.688-14.672-23.532-2.382-3.821-8.44-.31-6.045,3.533z"/>
<path d="m269.773,248.58c.188,4.866 .374,9.733 .562,14.6 .173,4.499 7.174,4.516 7,0-.188-4.866-.374-9.733-.562-14.6-.172-4.499-7.173-4.516-7,0z"/>
<path d="m278.377,285.684c-.105-5.026-.211-10.054-.316-15.08-.095-4.508-7.095-4.517-7,0 .105,5.026 .211,10.054 .316,15.08 .095,4.507 7.095,4.516 7,0z"/>
<path d="m265.801,230.997c.689,3.176 1.379,6.352 2.068,9.528 .957,4.41 7.705,2.539 6.75-1.861-.689-3.176-1.379-6.352-2.068-9.528-.957-4.41-7.705-2.539-6.75,1.861z"/>
<path d="m281.18,146.855c-5.09,0-10.18,0-15.27,0-2.835,0-7.598-.748-10.107,.945-3.461,2.334-4.527,5.269-4.506,9.258 .034,6.43 .069,12.86 .104,19.29-.01-1.714 2.982-1.436-.515-1.436-2.415,0-4.831,0-7.246,0-15.28,0-30.56,0-45.839,0-4.31,0-8.62,0-12.93,0-1.224,0 1.354,2.652 1.362,1.164 .006-1.135 .012-2.27 .019-3.405 .021-3.978 .042-7.956 .063-11.933 .013-2.232 .298-4.663-.148-6.872-1.058-5.239-5.271-7.01-10.14-7.01-6.041,0-12.082,0-18.123,0-8.237,0-11.854,6.205-11.854,13.615 0,7.26 0,14.521 0,21.781 0,7.118 2.277,14.916 11.059,14.916 2.173,0 4.346,0 6.518,0 12.766,0 25.532,0 38.298,0 25.101,0 50.201,0 75.302,0 1.992,0 4.575,.297 6.502-.302 7.567-2.349 8.501-8.544 8.501-15.341 0-6.81 0-13.62 0-20.43-.001-7.451-2.783-13.407-11.05-14.24-6.415-.647-6.353,9.359 0,10 2.366,.239 1.049,14.799 1.049,16.63 0,1.514 1.165,13.682-1.144,13.682-8.053,0-16.104,0-24.157,0-29.672,0-59.345,0-89.017,0-3.326,0-6.653,0-9.979,0-3.187,0-1.882-5.9-1.882-8.073 0-6.834 0-13.668 0-20.503 0-3.374 11.625-1.736 14.227-1.736 2.527,0 5.054,0 7.58,0-1.861,0-1.503-2.885-1.521,.203-.01,1.825-.02,3.651-.029,5.476-.029,5.455-1.97,15.599 2.367,19.936 3.231,3.231 8.484,2.442 12.641,2.442 7.018,0 14.036,0 21.054,0 10.183,0 20.366,0 30.549,0 6.627,0 16.544,1.719 18.307-7.009 .678-3.355 .147-7.174 .129-10.565-.021-4.029-.043-8.057-.064-12.086 .011,1.939-2.809,1.603 .097,1.603 1.207,0 2.414,0 3.621,0 1.42,0 2.841,0 4.262,0 3.971,0 7.942,0 11.913,0 6.445,0 6.445-10-.003-10z"/>
<path d="m204.879,286.606c-10.07-1.823-18.513,1.989-28.383,2.364-4.259,.162-8.743-1.348-12.925-2.165-5.302-1.035-10.121-1.166-15.458-.199-1.901,.345-1.093,3.235 .798,2.893 9.701-1.757 18.052,2.109 27.584,2.472 3.726,.142 7.681-1.014 11.302-1.785 5.591-1.19 10.604-1.715 16.284-.687 1.892,.343 2.7-2.549 .798-2.893z"/>
<path d="m191.404,289.493c9.701-1.759 18.053,2.108 27.586,2.471 3.726,.142 7.68-1.014 11.301-1.785 5.591-1.19 10.603-1.716 16.283-.686 1.891,.343 2.699-2.548 .797-2.893-10.069-1.826-18.512,1.988-28.381,2.363-4.26,.162-8.743-1.348-12.926-2.165-5.303-1.035-10.121-1.166-15.457-.198-1.902,.345-1.093,3.236 .797,2.893z"/>
<path d="m233.745,289.485c9.701-1.759 18.054,2.109 27.586,2.472 3.725,.142 7.681-1.013 11.301-1.784 5.591-1.192 10.603-1.718 16.284-.688 1.891,.343 2.699-2.548 .797-2.893-10.07-1.826-18.512,1.989-28.382,2.364-4.26,.162-8.744-1.347-12.926-2.165-5.303-1.036-10.121-1.167-15.457-.199-1.902,.346-1.094,3.236 .797,2.893z"/>
<path d="m209.252,281.769c-5.497-.928-10.517-.832-15.993,.093-4.839,.818-9.652,2.109-14.576,2.271-4.488,.147-9.139-1.279-13.551-2.09-5.821-1.069-11.16-1.264-17.019-.274-1.904,.321-1.094,3.212 .798,2.893 10.398-1.755 19.532,2.135 29.771,2.472 3.979,.131 8.186-.998 12.07-1.768 6.059-1.201 11.565-1.739 17.702-.704 1.893,.318 2.703-2.572 .798-2.893z"/>
<path d="m194.726,284.655c10.399-1.757 19.532,2.135 29.771,2.472 3.979,.131 8.186-.999 12.068-1.769 6.06-1.201 11.567-1.74 17.704-.703 1.892,.319 2.702-2.571 .797-2.893-5.498-.93-10.518-.833-15.994,.092-4.839,.818-9.652,2.11-14.575,2.272-4.488,.147-9.139-1.28-13.551-2.091-5.821-1.069-11.16-1.264-17.018-.273-1.905,.322-1.094,3.213 .798,2.893z"/>
<path d="m240.375,284.647c8.021-1.354 15.297,.381 23.139,1.705 8.971,1.516 16.974-1.139 25.801-2.201 1.896-.229 1.918-3.23 0-3-3.775,.454-7.474,1.256-11.209,1.941-5.63,1.034-10.288,.996-15.917,0-7.729-1.367-14.73-2.668-22.61-1.338-1.906,.322-1.096,3.213 .796,2.893z"/>
<path d="m148.513,278.039c2.927,.026 5.867,.323 8.762,.751 1.892,.279 2.706-2.61 .798-2.893-3.161-.467-6.362-.83-9.56-.858-1.935-.018-1.934,2.982 0,3z"/>
<path d="m149.719,278.031c10.028,.25 19.813,3.994 29.888,2.941 10.466-1.094 20.22-3.734 30.846-2.189 1.892,.275 2.706-2.615 .797-2.893-10.524-1.53-20.142,.609-30.5,1.947-10.487,1.354-20.596-2.546-31.031-2.807-1.936-.047-1.931,2.953 0,3.001z"/>
<path d="m280.092,280.051c3.107-.912 6.012-.943 9.223-.752 1.934,.115 1.922-2.885 0-3-3.478-.208-6.656-.128-10.02,.859-1.853,.544-1.064,3.439 .797,2.893z"/>
<path d="m187.588,179.542c20.693,0 41.387,0 62.08,0 4.514,0 4.514-7 0-7-20.693,0-41.387,0-62.08,0-4.514,0-4.514,7-0,7z"/>
<path d="m84.067,163.013c8.917,1.522 17.833,3.045 26.749,4.567 4.414,.754 6.304-5.991 1.861-6.75-8.917-1.522-17.833-3.045-26.749-4.567-4.413-.754-6.303,5.991-1.861,6.75z"/>
<path d="m84.342,172.628c8.917,1.522 17.833,3.045 26.749,4.567 4.414,.753 6.304-5.991 1.861-6.75-8.917-1.522-17.833-3.045-26.749-4.567-4.414-.753-6.304,5.992-1.861,6.75z"/>
<path d="m84.342,181.97c8.917,1.522 17.833,3.045 26.749,4.567 4.414,.754 6.304-5.991 1.861-6.75-8.917-1.522-17.833-3.045-26.749-4.567-4.414-.754-6.304,5.991-1.861,6.75z"/>
<path d="m90.035,191.941c5.004,.854 10.008,1.708 15.012,2.563 4.414,.754 6.304-5.991 1.861-6.75-5.004-.854-10.008-1.708-15.012-2.563-4.414-.753-6.304,5.992-1.861,6.75z"/>
</g>
<path fill="none"  stroke="#000" stroke-width="10" d="m121.011,137.073c0,7.544-6.116,13.66-13.66,13.66h-18.213c-7.544,0-13.66-6.116-13.66-13.66v-48.569c0-7.544 6.116-13.66 13.66-13.66h18.213c7.544,0 13.66,6.116 13.66,13.66v48.569z"/>
</svg>
