<svg xmlns="http://www.w3.org/2000/svg" viewBox="20 20 321 321">
<path fill="none"  stroke="#000" d="m182.665,229.421"/>
<g fill="#000">
<path d="m159.571,264.279c0-17.629 0-35.258 0-52.888 0-3.898-.705-8.889-4.832-10.631-4.455-1.88-9.223-1.332-13.986-1.332s-9.532-.548-13.986,1.332c-5.846,2.468-4.832,10.534-4.832,15.559 0,6.448 10,6.448 10,0 0-1.663 0-3.326 0-4.99 0-1.949-.6-1.9 .76-1.9 4.235,0 8.471,0 12.706,0 1.383,0 2.766,0 4.149,0 .274,0 .021-.478 .021,.333 0,2.739 0,5.479 0,8.22 0,15.433 0,30.865 0,46.298 0,6.448 10,6.448 10-.001z"/>
<path d="m179.931,240.55c0-17.63 0-35.259 0-52.888 0-4.455-1.124-7.766-4.832-10.63-3.198-2.47-10.293-1.332-13.986-1.332s-10.789-1.138-13.986,1.332c-5.399,4.171-4.832,9.386-4.832,15.558 0,6.448 10,6.448 10,0 0-2.188-1.011-6.89 .76-6.89 4.236,0 8.471,0 12.707,0 1.383,0 2.767,0 4.15,0 .238,0 .02-.322 .02,.577 0,2.912 0,5.825 0,8.738 0,15.178 0,30.356 0,45.534-.001,6.449 9.999,6.449 9.999,.001z"/>
<path d="m118.299,266.426c13.275-18.959 26.551-37.918 39.826-56.878 2.29-3.27 5.582-4.39 9.37-4.39 1.036,0 5.591-.679 3.359,2.51-.161,.23-.322,.46-.483,.689-2.285,3.265-4.57,6.528-6.856,9.792-8.81,12.582-17.621,25.164-26.431,37.746-7.087,10.122-14.175,20.244-21.263,30.366-1.112,1.589 1.49,3.086 2.591,1.514 14.254-20.357 28.509-40.715 42.764-61.072 3.218-4.596 6.437-9.192 9.654-13.788 1.551-2.215 4.533-5.362 3.735-8.263-1.552-5.643-14.007-1.827-16.584,.609-2.679,2.533-4.622,5.88-6.725,8.883-11.85,16.922-23.699,33.845-35.548,50.768-1.112,1.589 1.49,3.086 2.591,1.514z"/>
<path d="m192.009,286.204c-6.155-1.182-11.592-.991-17.706,.211-5.065,.995-10.115,2.526-15.298,2.708-4.735,.166-9.68-1.53-14.307-2.506-6.443-1.359-12.191-1.662-18.696-.413-1.898,.364-1.092,3.256 .798,2.893 11.419-2.192 21.014,2.633 32.205,3.026 4.268,.15 8.801-1.212 12.937-2.146 6.619-1.494 12.526-2.176 19.27-.881 1.89,.364 2.696-2.528 .797-2.892z"/>
<path d="m176.311,289.089c11.418-2.192 21.014,2.633 32.206,3.026 4.268,.15 8.801-1.212 12.937-2.146 6.619-1.494 12.525-2.176 19.27-.881 1.89,.363 2.696-2.528 .797-2.893-6.154-1.182-11.592-.991-17.706,.211-5.064,.995-10.115,2.525-15.297,2.708-4.735,.166-9.682-1.53-14.309-2.506-6.443-1.359-12.19-1.662-18.695-.413-1.899,.366-1.093,3.257 .797,2.894z"/>
<path d="m225.644,289.08c11.418-2.194 21.016,2.633 32.206,3.025 4.268,.149 8.803-1.209 12.938-2.144 6.618-1.496 12.524-2.178 19.269-.882 1.89,.363 2.696-2.528 .797-2.893-6.155-1.183-11.592-.992-17.705,.211-5.065,.996-10.115,2.525-15.298,2.707-4.735,.166-9.682-1.527-14.309-2.505-6.443-1.36-12.19-1.663-18.694-.413-1.901,.366-1.094,3.257 .796,2.894z"/>
<path d="m203.899,272.331c-6.155-1.182-11.593-.991-17.706,.212-5.065,.996-10.115,2.525-15.297,2.707-4.735,.166-9.682-1.528-14.309-2.505-6.443-1.36-12.19-1.663-18.695-.414-1.898,.364-1.092,3.256 .798,2.893 11.418-2.191 21.015,2.634 32.206,3.026 4.267,.149 8.801-1.21 12.936-2.144 6.619-1.496 12.525-2.178 19.271-.883 1.889,.364 2.696-2.528 .796-2.892z"/>
<path d="m188.201,275.217c11.419-2.192 21.016,2.632 32.206,3.025 4.268,.15 8.801-1.211 12.936-2.145 6.619-1.494 12.526-2.176 19.271-.881 1.89,.363 2.696-2.528 .797-2.893-6.155-1.182-11.593-.991-17.706,.211-5.065,.995-10.115,2.525-15.297,2.707-4.735,.166-9.681-1.529-14.309-2.505-6.443-1.359-12.19-1.662-18.694-.413-1.9,.365-1.093,3.257 .796,2.894z"/>
<path d="m237.533,275.208c8.975-1.723 16.881,.56 25.595,2.192 9.541,1.786 17.98-1.56 27.326-2.814 1.888-.254 1.913-3.257 0-3-3.959,.531-7.812,1.475-11.712,2.297-6.033,1.273-10.964,1.393-17.015,.202-8.582-1.688-16.188-3.46-24.991-1.77-1.899,.365-1.092,3.256 .797,2.893z"/>
<path d="m210.715,258.561c-7.106-1.364-13.294-.763-20.305,.757-6.6,1.431-12.797,2.898-19.545,1.242-1.879-.461-2.676,2.432-.798,2.893 6.853,1.682 13.217,.546 19.97-.979 6.824-1.541 12.914-2.357 19.881-1.021 1.89,.363 2.696-2.528 .797-2.892z"/>
<path d="m195.016,261.444c11.419-2.192 21.016,2.633 32.206,3.026 4.268,.15 8.802-1.211 12.937-2.145 6.619-1.495 12.525-2.177 19.27-.882 1.89,.363 2.696-2.528 .797-2.893-6.155-1.182-11.592-.991-17.705,.211-5.065,.996-10.115,2.526-15.298,2.708-4.735,.166-9.682-1.529-14.309-2.506-6.443-1.359-12.19-1.662-18.694-.413-1.901,.366-1.094,3.258 .796,2.894z"/>
<path d="m244.35,261.437c8.209-1.576 15.426,.141 23.396,1.771 8.263,1.688 14.996,.595 23.107-1.491 1.873-.481 1.078-3.375-.797-2.893-3.475,.893-6.977,1.692-10.51,2.315-4.551,.803-9.156-.407-13.601-1.371-7.716-1.672-14.525-2.734-22.393-1.224-1.899,.364-1.092,3.256 .798,2.893z"/>
<path d="m248.273,214.148c-6.154-1.181-11.593-.99-17.706,.212-5.065,.995-10.115,2.526-15.298,2.708-4.735,.166-9.681-1.53-14.308-2.506-6.443-1.359-12.191-1.661-18.695-.414-1.899,.364-1.093,3.255 .797,2.893 11.42-2.189 21.015,2.634 32.206,3.027 4.269,.15 8.802-1.212 12.938-2.146 6.618-1.494 12.525-2.175 19.27-.882 1.889,.363 2.696-2.527 .796-2.892z"/>
<path d="m232.574,217.034c10.147-1.947 19.089,1.317 28.996,2.737 9.199,1.318 18.181-3.354 27.318-3.674 1.929-.067 1.936-3.068 0-3-9.752,.343-18.942,5.025-28.772,3.438-9.751-1.576-18.326-4.315-28.339-2.394-1.899,.365-1.092,3.256 .797,2.893z"/>
<path d="m281.908,217.024c2.741-.539 5.319-.948 8.1-.937 1.935,.008 1.935-2.992 0-3-3.04-.013-5.906,.456-8.896,1.044-1.898,.374-1.092,3.265 .796,2.893z"/>
<path d="m236.592,228.173c-8.113-1.558-15.185-.339-23.126,1.383-9.103,1.974-17.039,.971-26.165-.4-1.892-.284-2.705,2.606-.797,2.893 7.485,1.125 15.007,2.632 22.547,1.412 9.167-1.482 17.303-4.207 26.744-2.395 1.89,.363 2.696-2.529 .797-2.893z"/>
<path d="m220.893,231.058c11.419-2.191 21.016,2.632 32.207,3.025 4.268,.15 8.801-1.211 12.936-2.145 6.618-1.494 12.525-2.176 19.27-.881 1.89,.363 2.696-2.528 .797-2.893-6.154-1.182-11.592-.991-17.705,.211-5.065,.995-10.115,2.525-15.297,2.707-4.735,.166-9.681-1.529-14.308-2.505-6.444-1.359-12.192-1.662-18.696-.413-1.901,.365-1.094,3.257 .796,2.894z"/>
<path d="m270.226,231.05c6.9-1.335 12.985-.564 19.755,.99 1.883,.433 2.683-2.46 .797-2.893-7.321-1.682-13.905-2.431-21.349-.99-1.899,.367-1.093,3.258 .797,2.893z"/>
<path d="m225.639,243.036c-7.301-1.401-13.672-.713-20.864,.882-6.775,1.503-12.89,2.616-19.784,.962-1.88-.451-2.678,2.441-.797,2.893 13.854,3.325 26.733-4.515 40.648-1.844 1.889,.363 2.696-2.529 .797-2.893z"/>
<path d="m209.939,245.921c11.419-2.191 21.016,2.633 32.207,3.026 4.268,.15 8.801-1.211 12.936-2.145 6.619-1.495 12.526-2.177 19.271-.882 1.89,.363 2.696-2.528 .797-2.893-6.155-1.182-11.594-.991-17.708,.211-5.064,.996-10.114,2.526-15.296,2.708-4.735,.166-9.682-1.529-14.309-2.506-6.443-1.359-12.191-1.662-18.695-.413-1.899,.366-1.092,3.257 .797,2.894z"/>
<path d="m259.271,245.912c6.314-1.211 11.758-.713 17.978,.599 4.385,.925 8.699,2.258 13.205,2.444 1.936,.08 1.928-2.92 0-3-4.838-.2-9.546-1.758-14.271-2.724-6.093-1.245-11.575-1.388-17.708-.212-1.9,.365-1.093,3.255 .796,2.893z"/>
<path d="m83.84,163.013c8.917,1.522 17.833,3.045 26.749,4.567 4.414,.754 6.304-5.991 1.861-6.75-8.917-1.522-17.833-3.045-26.749-4.567-4.414-.754-6.304,5.991-1.861,6.75z"/>
<path d="m84.114,172.628c8.917,1.522 17.833,3.045 26.749,4.567 4.414,.753 6.304-5.991 1.861-6.75-8.917-1.522-17.833-3.045-26.749-4.567-4.413-.753-6.304,5.992-1.861,6.75z"/>
<path d="m84.114,181.97c8.917,1.522 17.833,3.045 26.749,4.567 4.414,.754 6.304-5.991 1.861-6.75-8.917-1.522-17.833-3.045-26.749-4.567-4.413-.754-6.304,5.991-1.861,6.75z"/>
<path d="m89.808,191.941c5.004,.854 10.008,1.708 15.012,2.563 4.414,.754 6.304-5.991 1.861-6.75-5.004-.854-10.008-1.708-15.012-2.563-4.414-.753-6.304,5.992-1.861,6.75z"/>
</g>
<g fill="none"  stroke="#000">
<path stroke-width="10" d="m120.784,137.073c0,7.544-6.116,13.66-13.66,13.66h-18.214c-7.544,0-13.66-6.116-13.66-13.66v-48.569c0-7.544 6.116-13.66 13.66-13.66h18.213c7.544,0 13.66,6.116 13.66,13.66v48.569z"/>
<path d="m182.665,229.299"/>
</g>
<g fill="#000">
<path d="m159.571,264.156c0-17.629 0-35.257 0-52.886 0-3.898-.705-8.889-4.832-10.632-4.454-1.88-9.223-1.332-13.986-1.332s-9.532-.549-13.986,1.332c-5.845,2.469-4.832,10.533-4.832,15.559 0,6.448 10,6.448 10,0 0-1.663 0-3.326 0-4.989 0-1.948-.6-1.901 .76-1.901 4.235,0 8.471,0 12.706,0 1.383,0 2.766,0 4.149,0 .102,0 .021-.352 .021,.58 0,2.912 0,5.825 0,8.737 0,15.178 0,30.354 0,45.532 0,6.448 10,6.448 10,0z"/>
<path d="m179.931,240.428c0-17.629 0-35.258 0-52.888 0-4.454-1.124-7.765-4.832-10.63-3.198-2.47-10.293-1.332-13.986-1.332s-10.789-1.138-13.986,1.332c-5.399,4.171-4.832,9.389-4.832,15.559 0,6.448 10,6.448 10,0 0-1.663 0-3.327 0-4.99 0-1.682-.511-1.9 .335-1.9 4.087,0 8.174,0 12.261,0 1.568,0 3.136,0 4.705,0 .805,0 .335-.432 .335,.332 0,2.739 0,5.479 0,8.22 0,15.433 0,30.865 0,46.298-0,6.447 10,6.447 10-.001z"/>
<path d="m118.299,266.304c13.275-18.959 26.551-37.918 39.826-56.877 2.29-3.271 5.581-4.39 9.37-4.39 1.036,0 5.591-.679 3.359,2.51-.161,.23-.322,.46-.483,.689-2.285,3.265-4.57,6.528-6.856,9.792-8.81,12.582-17.621,25.164-26.431,37.746-7.087,10.121-14.175,20.243-21.263,30.365-1.112,1.589 1.49,3.086 2.591,1.514 14.254-20.357 28.509-40.715 42.764-61.072 3.218-4.596 6.437-9.191 9.654-13.787 1.551-2.215 4.533-5.362 3.735-8.263-1.552-5.643-14.007-1.828-16.584,.609-2.679,2.532-4.622,5.88-6.725,8.883-11.85,16.922-23.699,33.844-35.548,50.767-1.112,1.589 1.49,3.086 2.591,1.514z"/>
<path d="m192.009,286.083c-6.155-1.182-11.592-.991-17.706,.211-5.065,.995-10.116,2.524-15.298,2.706-4.735,.166-9.68-1.528-14.307-2.504-6.443-1.359-12.191-1.662-18.696-.413-1.898,.364-1.092,3.256 .798,2.893 11.418-2.191 21.015,2.632 32.205,3.024 4.268,.149 8.802-1.21 12.937-2.144 6.619-1.494 12.526-2.176 19.27-.881 1.89,.364 2.696-2.528 .797-2.892z"/>
<path d="m176.311,288.968c11.417-2.191 21.015,2.632 32.206,3.024 4.268,.149 8.802-1.21 12.937-2.144 6.619-1.494 12.525-2.176 19.27-.881 1.89,.363 2.696-2.528 .797-2.893-6.154-1.182-11.592-.991-17.706,.211-5.064,.995-10.115,2.524-15.297,2.706-4.735,.166-9.681-1.528-14.309-2.504-6.443-1.359-12.19-1.662-18.695-.413-1.899,.365-1.093,3.257 .797,2.894z"/>
<path d="m225.644,288.958c11.418-2.191 21.016,2.634 32.206,3.026 4.268,.149 8.803-1.209 12.938-2.144 6.618-1.496 12.524-2.178 19.269-.883 1.89,.363 2.696-2.528 .797-2.893-6.155-1.182-11.592-.991-17.705,.212-5.065,.996-10.115,2.525-15.298,2.707-4.735,.166-9.682-1.527-14.309-2.505-6.443-1.36-12.19-1.663-18.694-.414-1.901,.366-1.094,3.257 .796,2.894z"/>
<path d="m203.899,272.21c-6.155-1.182-11.593-.991-17.706,.211-5.065,.995-10.115,2.525-15.297,2.708-4.735,.166-9.681-1.53-14.309-2.506-6.443-1.359-12.191-1.662-18.695-.413-1.898,.364-1.092,3.256 .798,2.893 11.419-2.192 21.015,2.633 32.206,3.026 4.268,.15 8.8-1.212 12.936-2.146 6.619-1.494 12.526-2.176 19.271-.881 1.889,.364 2.696-2.528 .796-2.892z"/>
<path d="m188.201,275.095c11.418-2.192 21.016,2.632 32.206,3.024 4.268,.149 8.801-1.211 12.936-2.144 6.619-1.494 12.526-2.176 19.271-.881 1.89,.363 2.696-2.528 .797-2.893-6.155-1.182-11.593-.991-17.706,.211-5.065,.995-10.115,2.524-15.297,2.706-4.735,.166-9.681-1.528-14.309-2.504-6.443-1.359-12.19-1.662-18.694-.413-1.9,.365-1.093,3.257 .796,2.894z"/>
<path d="m237.533,275.087c9.369-1.798 17.636,.792 26.745,2.394 9.116,1.603 17.632-1.866 26.574-3.071 1.91-.257 1.094-3.147-.797-2.893-4.157,.56-8.2,1.609-12.303,2.447-6.048,1.236-10.985,1.03-17.015-.202-8.25-1.686-15.553-3.189-24.002-1.567-1.898,.364-1.091,3.255 .798,2.892z"/>
<path d="m210.715,258.438c-7.106-1.364-13.294-.763-20.305,.757-6.6,1.431-12.796,2.899-19.545,1.243-1.879-.461-2.676,2.432-.798,2.893 6.853,1.682 13.217,.545 19.97-.979 6.824-1.541 12.914-2.357 19.881-1.021 1.89,.363 2.696-2.528 .797-2.893z"/>
<path d="m195.016,261.323c11.419-2.192 21.015,2.633 32.206,3.026 4.268,.15 8.801-1.212 12.937-2.146 6.618-1.494 12.525-2.176 19.27-.881 1.89,.363 2.696-2.528 .797-2.893-6.154-1.182-11.592-.991-17.705,.211-5.065,.995-10.115,2.525-15.298,2.708-4.735,.166-9.681-1.53-14.309-2.506-6.443-1.359-12.19-1.662-18.694-.413-1.901,.366-1.094,3.258 .796,2.894z"/>
<path d="m244.35,261.314c8.21-1.576 15.425,.142 23.396,1.771 8.263,1.688 14.996,.595 23.107-1.49 1.873-.481 1.078-3.375-.797-2.893-3.475,.893-6.977,1.691-10.51,2.314-4.551,.802-9.156-.407-13.601-1.37-7.717-1.671-14.524-2.735-22.393-1.225-1.899,.365-1.092,3.257 .798,2.893z"/>
<path d="m248.273,214.026c-6.155-1.181-11.593-.99-17.706,.212-5.065,.996-10.115,2.526-15.298,2.708-4.734,.166-9.681-1.529-14.308-2.506-6.443-1.359-12.191-1.661-18.695-.414-1.899,.364-1.093,3.255 .797,2.893 11.419-2.189 21.015,2.634 32.206,3.027 4.268,.15 8.802-1.211 12.938-2.145 6.618-1.495 12.525-2.176 19.27-.883 1.889,.363 2.696-2.527 .796-2.892z"/>
<path d="m232.574,216.913c10.147-1.947 19.089,1.317 28.996,2.737 9.199,1.318 18.181-3.354 27.318-3.674 1.929-.067 1.936-3.068 0-3-9.752,.343-18.942,5.025-28.772,3.438-9.751-1.576-18.326-4.315-28.339-2.394-1.899,.365-1.092,3.256 .797,2.893z"/>
<path d="m281.908,216.903c2.741-.539 5.319-.948 8.1-.937 1.935,.008 1.935-2.992 0-3-3.04-.013-5.906,.456-8.896,1.044-1.898,.374-1.092,3.265 .796,2.893z"/>
<path d="m236.592,228.052c-8.113-1.558-15.185-.338-23.126,1.383-9.103,1.973-17.04,.97-26.165-.4-1.892-.284-2.705,2.606-.797,2.893 7.485,1.125 15.007,2.63 22.547,1.412 9.167-1.482 17.303-4.206 26.744-2.395 1.89,.363 2.696-2.529 .797-2.893z"/>
<path d="m220.893,230.937c11.419-2.191 21.016,2.632 32.207,3.024 4.268,.149 8.801-1.21 12.936-2.144 6.618-1.494 12.525-2.176 19.27-.881 1.89,.363 2.696-2.528 .797-2.893-6.154-1.182-11.592-.991-17.705,.211-5.065,.995-10.115,2.524-15.297,2.706-4.735,.166-9.681-1.528-14.308-2.504-6.444-1.359-12.192-1.662-18.696-.413-1.901,.365-1.094,3.257 .796,2.894z"/>
<path d="m270.226,230.929c6.901-1.336 12.984-.565 19.755,.99 1.883,.433 2.683-2.46 .797-2.893-7.322-1.683-13.905-2.432-21.349-.99-1.899,.367-1.093,3.259 .797,2.893z"/>
<path d="m225.639,242.915c-7.3-1.401-13.672-.713-20.864,.881-6.776,1.502-12.889,2.616-19.784,.963-1.88-.451-2.678,2.441-.797,2.893 13.854,3.322 26.733-4.515 40.648-1.844 1.889,.363 2.696-2.529 .797-2.893z"/>
<path d="m209.939,245.8c11.42-2.191 21.016,2.633 32.207,3.026 4.268,.15 8.801-1.212 12.936-2.146 6.619-1.494 12.526-2.175 19.271-.881 1.89,.363 2.696-2.528 .797-2.893-6.155-1.182-11.594-.991-17.708,.211-5.064,.995-10.114,2.526-15.296,2.708-4.735,.166-9.682-1.53-14.309-2.506-6.443-1.359-12.191-1.662-18.695-.413-1.899,.365-1.092,3.257 .797,2.894z"/>
<path d="m259.271,245.79c6.314-1.211 11.758-.713 17.978,.6 4.385,.925 8.699,2.258 13.205,2.443 1.936,.08 1.928-2.921 0-3-4.838-.199-9.546-1.757-14.271-2.724-6.093-1.245-11.575-1.388-17.708-.212-1.9,.365-1.093,3.255 .796,2.893z"/>
<path d="m83.84,162.891c8.917,1.522 17.833,3.045 26.749,4.567 4.414,.753 6.304-5.991 1.861-6.75-8.917-1.522-17.833-3.045-26.749-4.567-4.414-.753-6.304,5.991-1.861,6.75z"/>
<path d="m84.114,172.507c8.917,1.522 17.833,3.045 26.749,4.567 4.414,.754 6.304-5.991 1.861-6.75-8.917-1.522-17.833-3.045-26.749-4.567-4.413-.754-6.304,5.991-1.861,6.75z"/>
<path d="m84.114,181.848c8.917,1.523 17.833,3.046 26.749,4.568 4.414,.754 6.304-5.991 1.861-6.75-8.917-1.522-17.833-3.045-26.749-4.568-4.413-.754-6.304,5.992-1.861,6.75z"/>
<path d="m89.808,191.819c5.004,.854 10.008,1.709 15.012,2.563 4.414,.754 6.304-5.991 1.861-6.75-5.004-.854-10.008-1.709-15.012-2.563-4.414-.754-6.304,5.992-1.861,6.75z"/>
</g>
<path fill="none"  stroke="#000" stroke-width="10" d="m120.784,136.952c0,7.544-6.116,13.66-13.66,13.66h-18.214c-7.544,0-13.66-6.116-13.66-13.66v-48.57c0-7.544 6.116-13.66 13.66-13.66h18.213c7.544,0 13.66,6.116 13.66,13.66v48.57z"/>
<g fill="#000">
<path d="m193.076,70.146c6.24,0 11.02,1.11 14.34,3.33 3.32,2.221 4.98,5.67 4.98,10.351 0,2.921-.67,5.29-2.01,7.11-1.342,1.82-3.271,3.25-5.791,4.289 .84,1.041 1.72,2.23 2.641,3.57 .92,1.341 1.83,2.74 2.73,4.2 .899,1.46 1.77,2.98 2.609,4.56 .84,1.581 1.62,3.131 2.34,4.65h-10.463c-.764-1.359-1.537-2.739-2.32-4.141-.782-1.398-1.585-2.76-2.408-4.08-.822-1.319-1.637-2.568-2.439-3.75-.803-1.179-1.606-2.25-2.409-3.209h-4.62v15.18h-9.36v-40.98c2.04-.398 4.149-.68 6.331-.84 2.179-.158 4.128-.24 5.849-.24zm.54,7.981c-.681,0-1.29,.021-1.83,.061s-1.05,.08-1.53,.119v11.28h2.641c3.52,0 6.039-.439 7.56-1.319s2.28-2.38 2.28-4.5c0-2.041-.771-3.49-2.311-4.351-1.54-.86-3.81-1.29-6.81-1.29z"/>
<path d="m239.116,77.827c-4.36,0-7.511,1.21-9.45,3.63-1.94,2.42-2.91,5.73-2.91,9.93 0,2.041 .24,3.891 .721,5.551 .479,1.66 1.199,3.09 2.16,4.289 .959,1.201 2.159,2.131 3.6,2.791 1.439,.66 3.119,.989 5.04,.989 1.04,0 1.929-.02 2.67-.06 .739-.039 1.39-.12 1.95-.24v-14.46h9.359v20.58c-1.12,.44-2.92,.91-5.4,1.409-2.48,.5-5.54,.75-9.18,.75-3.119,0-5.95-.479-8.49-1.439s-4.709-2.359-6.51-4.199c-1.8-1.84-3.189-4.1-4.17-6.781-.98-2.679-1.47-5.738-1.47-9.18 0-3.479 .54-6.56 1.62-9.24 1.08-2.679 2.559-4.949 4.439-6.81 1.88-1.86 4.09-3.271 6.631-4.229 2.539-.961 5.25-1.44 8.129-1.44 1.96,0 3.73,.13 5.311,.39 1.58,.262 2.939,.561 4.08,.9s2.08,.689 2.82,1.05c.739,.36 1.27,.641 1.59,.841l-2.7,7.5c-1.28-.68-2.751-1.27-4.41-1.771-1.66-.501-3.47-.751-5.43-.751z"/>
<path d="m272.816,112.747c-2.28,0-4.551-.07-6.811-.21-2.26-.141-4.61-.47-7.05-.99v-40.32c1.921-.359 4.021-.629 6.3-.81 2.28-.181 4.4-.271 6.36-.271 2.64,0 5.069,.191 7.29,.57 2.221,.381 4.13,1.031 5.73,1.95 1.6,.921 2.85,2.13 3.75,3.63 .899,1.5 1.35,3.351 1.35,5.551 0,3.32-1.601,5.939-4.801,7.859 2.641,1 4.441,2.361 5.4,4.08 .961,1.721 1.44,3.66 1.44,5.82 0,4.359-1.591,7.641-4.771,9.84-3.177,2.201-7.907,3.301-14.187,3.301zm-4.74-25.8h4.561c2.879,0 4.939-.369 6.18-1.11 1.239-.739 1.859-1.929 1.859-3.569 0-1.681-.64-2.859-1.92-3.541-1.28-.68-3.16-1.02-5.64-1.02-.801,0-1.66,.01-2.58,.029-.921,.021-1.739,.07-2.46,.15v9.061zm0,7.14v10.74c.68,.081 1.42,.141 2.221,.18 .799,.04 1.68,.06 2.639,.06 2.801,0 5.061-.398 6.781-1.199 1.719-.8 2.58-2.28 2.58-4.439 0-1.921-.721-3.291-2.16-4.111-1.44-.818-3.501-1.229-6.181-1.229h-5.88z"/>
</g>
</svg>
