<svg xmlns="http://www.w3.org/2000/svg" viewBox="20 20 321 321">
<g fill="#000">
<path d="m83.84,162.833c8.917,1.522 17.833,3.045 26.749,4.567 4.414,.754 6.304-5.991 1.861-6.75-8.917-1.522-17.833-3.045-26.749-4.567-4.414-.754-6.304,5.991-1.861,6.75z"/>
<path d="m84.114,172.449c8.917,1.522 17.833,3.045 26.749,4.567 4.414,.753 6.304-5.991 1.861-6.75-8.917-1.522-17.833-3.045-26.749-4.567-4.413-.754-6.304,5.991-1.861,6.75z"/>
<path d="m84.114,181.79c8.917,1.522 17.833,3.045 26.749,4.567 4.414,.754 6.304-5.991 1.861-6.75-8.917-1.522-17.833-3.045-26.749-4.567-4.413-.754-6.304,5.991-1.861,6.75z"/>
<path d="m89.808,191.762c5.004,.854 10.008,1.708 15.012,2.563 4.414,.754 6.304-5.991 1.861-6.75-5.004-.854-10.008-1.708-15.012-2.563-4.414-.754-6.304,5.991-1.861,6.75z"/>
</g>
<path fill="none"  stroke="#000" stroke-width="10" d="m120.784,136.894c0,7.544-6.116,13.66-13.66,13.66h-18.214c-7.544,0-13.66-6.116-13.66-13.66v-48.57c0-7.544 6.116-13.66 13.66-13.66h18.213c7.544,0 13.66,6.116 13.66,13.66v48.57z"/>
<g fill="#000">
<path d="m208.512,190.181-.182-60.147 79.305,60.147z"/>
<path d="m213.512,190.181c-.061-20.049-.121-40.098-.182-60.146-2.508,1.439-5.016,2.878-7.523,4.317 26.435,20.049 52.869,40.098 79.305,60.146 .841-3.105 1.683-6.212 2.523-9.317-26.374,0-52.749,0-79.123,0-6.448,0-6.448,10 0,10 26.374,0 52.749,0 79.123,0 5.402,0 6.252-6.489 2.523-9.317-26.435-20.049-52.869-40.098-79.305-60.146-3.125-2.371-7.534,.868-7.523,4.317 .061,20.049 .121,40.098 .182,60.146 .019,6.447 10.019,6.449 10-0z"/>
<path d="m208.148,190.181 .182-60.146-79.305,60.146z"/>
<path d="m213.148,190.181c.061-20.049 .121-40.097 .182-60.146 .011-3.45-4.397-6.688-7.523-4.317-26.435,20.049-52.87,40.097-79.305,60.146-3.729,2.828-2.879,9.317 2.523,9.317 26.375,0 52.749,0 79.124,0 6.448,0 6.448-10 0-10-26.375,0-52.749,0-79.124,0 .841,3.105 1.683,6.212 2.523,9.317 26.435-20.049 52.871-40.097 79.305-60.146-2.508-1.439-5.016-2.878-7.523-4.317-.061,20.049-.121,40.097-.182,60.146-.019,6.449 9.981,6.447 10-0z"/>
</g>
<path fill="none"  stroke="#000" stroke-width="10" d="m273.674,281.814c0,2.91-2.916,5.27-6.513,5.27h-117.168c-3.597,0-6.512-2.359-6.512-5.27v-96.072c0-2.908 130.193-2.908 130.193,0v96.072z"/>
</svg>
