<svg xmlns="http://www.w3.org/2000/svg" viewBox="20 20 321 321">
<g fill="#000">
<path d="m84.09,162.513c8.917,1.522 17.833,3.045 26.749,4.567 4.414,.754 6.304-5.991 1.861-6.75-8.917-1.522-17.833-3.045-26.749-4.567-4.414-.754-6.304,5.991-1.861,6.75z"/>
<path d="m84.364,172.128c8.917,1.522 17.833,3.045 26.749,4.567 4.414,.753 6.304-5.991 1.861-6.75-8.917-1.522-17.833-3.045-26.749-4.567-4.413-.753-6.304,5.992-1.861,6.75z"/>
<path d="m84.364,181.47c8.917,1.522 17.833,3.045 26.749,4.567 4.414,.754 6.304-5.991 1.861-6.75-8.917-1.522-17.833-3.045-26.749-4.567-4.413-.754-6.304,5.991-1.861,6.75z"/>
<path d="m90.058,191.441c5.004,.854 10.008,1.708 15.012,2.563 4.414,.754 6.304-5.991 1.861-6.75-5.004-.854-10.008-1.708-15.012-2.563-4.414-.753-6.304,5.992-1.861,6.75z"/>
</g>
<g fill="none"  stroke="#000" stroke-width="10">
<path d="m121.034,136.573c0,7.544-6.116,13.66-13.66,13.66h-18.214c-7.544,0-13.66-6.116-13.66-13.66v-48.569c0-7.544 6.116-13.66 13.66-13.66h18.213c7.544,0 13.66,6.116 13.66,13.66v48.569z"/>
<path d="m286.962,232.292c0,1.866-1.514,3.38-3.38,3.38h-162.167c-1.867,0-3.381-1.514-3.381-3.38v-13.847c0-1.867 1.514-3.38 3.381-3.38h162.167c1.866,0 3.38,1.513 3.38,3.38v13.847z"/>
<path stroke-linejoin="round" stroke-linecap="round" d="m156.604,215.201c-1.094,0-1.979-.887-1.979-1.98l32-32.556v-62.42c0-1.093 .885-1.979 1.979-1.979h27.788c1.093,0 1.979,.887 1.979,1.979v62.42l32,32.556c0,1.094-.887,1.98-1.979,1.98h-91.788z"/>
</g>
<g fill="#000">
<path d="m200.17,255.502c2.036,1.828 4.273,4.309 4.533,7.142 .244,2.657-2.82,5.607-4.643,7.239-6.091,5.451-8.271,12.622-3.669,19.749 2.439,3.777 8.501,.271 6.045-3.533-3.007-4.656-1.036-7.896 2.573-11.267 1.853-1.729 3.425-3.665 4.774-5.811 4.124-6.557 .54-13.797-4.665-18.469-3.347-3.005-8.314,1.928-4.948,4.95z"/>
<path d="m221.321,259.652c2.209,1.996 4.729,4.792 3.291,7.91-.841,1.82-2.373,3.203-3.801,4.559-5.24,4.973-6.917,11.266-2.885,17.511 2.439,3.777 8.501,.271 6.045-3.533-2.502-3.875-.83-6.542 2.162-9.381 1.771-1.681 3.269-3.523 4.522-5.622 3.487-5.837 .158-12.289-4.386-16.393-3.338-3.016-8.304,1.918-4.948,4.949z"/>
<path d="m177.854,259.652c2.21,1.996 4.73,4.792 3.291,7.91-.84,1.821-2.372,3.203-3.8,4.559-5.242,4.974-6.917,11.266-2.884,17.511 2.439,3.776 8.501,.271 6.044-3.533-2.503-3.875-.832-6.541 2.161-9.381 1.771-1.681 3.269-3.523 4.523-5.622 3.487-5.837 .158-12.289-4.386-16.393-3.339-3.016-8.305,1.918-4.949,4.949z"/>
<path d="m191.486,228.869c3.706,0 7.411,0 11.117,0 4.514,0 4.514-7 0-7-3.706,0-7.411,0-11.117,0-4.513,0-4.513,7 0,7z"/>
<path d="m217.697,228.869c.667,0 1.335,0 2.002,0 1.908,0 3.5-1.592 3.5-3.5s-1.592-3.5-3.5-3.5c-.667,0-1.335,0-2.002,0-1.908,0-3.5,1.592-3.5,3.5s1.592,3.5 3.5,3.5z"/>
<path d="m227.697,228.869c.599,0 1.196,0 1.795,0 1.908,0 3.5-1.592 3.5-3.5s-1.592-3.5-3.5-3.5c-.599,0-1.196,0-1.795,0-1.908,0-3.5,1.592-3.5,3.5s1.592,3.5 3.5,3.5z"/>
</g>
</svg>
