<svg xmlns="http://www.w3.org/2000/svg" viewBox="20 20 321 321">
<g fill="#000">
<path d="m84.09,162.513c8.917,1.522 17.833,3.045 26.749,4.567 4.414,.754 6.304-5.991 1.861-6.75-8.917-1.522-17.833-3.045-26.749-4.567-4.414-.754-6.304,5.991-1.861,6.75z"/>
<path d="m84.364,172.128c8.917,1.522 17.833,3.045 26.749,4.567 4.414,.753 6.304-5.991 1.861-6.75-8.917-1.522-17.833-3.045-26.749-4.567-4.413-.753-6.304,5.992-1.861,6.75z"/>
<path d="m84.364,181.47c8.917,1.522 17.833,3.045 26.749,4.567 4.414,.754 6.304-5.991 1.861-6.75-8.917-1.522-17.833-3.045-26.749-4.567-4.413-.754-6.304,5.991-1.861,6.75z"/>
<path d="m90.058,191.441c5.004,.854 10.008,1.708 15.012,2.563 4.414,.754 6.304-5.991 1.861-6.75-5.004-.854-10.008-1.708-15.012-2.563-4.414-.753-6.304,5.992-1.861,6.75z"/>
</g>
<path fill="none"  stroke="#000" stroke-width="10" d="m121.034,136.573c0,7.544-6.116,13.66-13.66,13.66h-18.214c-7.544,0-13.66-6.116-13.66-13.66v-48.569c0-7.544 6.116-13.66 13.66-13.66h18.213c7.544,0 13.66,6.116 13.66,13.66v48.569z"/>
<g fill="#000">
<path d="m288.664,278.417c-22.441,0-44.883,0-67.324,0-14.937,0-29.873,0-44.809,0-4.572,0-9.144,0-13.716,0-1.605,0-5.981,.729-5.981-2.283 0-50.891 0-101.782 0-152.673 0-9.491 0-18.982 0-28.473 0-1.727-.746-5.735 2.169-6.071 1.895-.218 3.944,0 5.847,0 28.562,0 57.123,0 85.685,0 12.71,0 25.42,0 38.13,0 4.514,0 4.514-7 0-7-22.441,0-44.883,0-67.324,0-14.937,0-29.873,0-44.809,0-4.572,0-9.144,0-13.716,0-3.285,0-6.17-.155-9.125,1.723-5.496,3.494-3.857,13.328-3.857,18.848 0,12.004 0,24.008 0,36.012 0,31.851 0,63.701 0,95.551 0,11.229 0,22.457 0,33.686 0,6.941-1.058,17.68 9.18,17.68 22.77,0 45.54,0 68.31,0 20.447,0 40.895,0 61.342,0 4.512,0 4.512-7-.002-7z"/>
<path d="m160.583,291.417c4.333,0 8.667,0 13,0 6.449,0 6.449-10 0-10-4.333,0-8.667,0-13,0-6.449,0-6.449,10 0,10z"/>
<path d="m252.449,239.294c9.361-8.565 18.722-17.131 28.083-25.696 1.431-1.309-.697-3.424-2.121-2.121-9.361,8.565-18.722,17.131-28.083,25.696-1.431,1.308 .697,3.424 2.121,2.121z"/>
<path d="m249.045,254.516c14.08-13.359 28.161-26.718 42.241-40.077 1.406-1.334-.719-3.452-2.121-2.121-14.08,13.359-28.161,26.718-42.241,40.077-1.406,1.334 .719,3.452 2.121,2.121z"/>
<path d="m258.272,258.313c9.786-9.285 19.572-18.57 29.358-27.855 1.406-1.334-.719-3.452-2.121-2.121-9.786,9.285-19.572,18.57-29.358,27.855-1.406,1.333 .719,3.452 2.121,2.121z"/>
<path d="m290.369,274.167c-11.51,0-23.019,0-34.528,0-6.902,0-13.804,0-20.706,0-3.181,0-9.096,.871-9.096-4.653 0-21.515 0-43.029 0-64.545 0-30.062 0-60.123 0-90.185 0-5.813 0-11.626 0-17.44 0-5.894 10.854-4.177 13.757-4.177 7.656,0 15.313,0 22.97,0 9.201,0 18.402,0 27.604,0 1.935,0 1.935-3 0-3-11.51,0-23.019,0-34.528,0-6.902,0-13.804,0-20.706,0-4.473,0-8.553-.425-11.314,3.919-1.104,1.735-.781,4.479-.781,6.472 0,3.728 0,7.456 0,11.184 0,13.058 0,26.116 0,39.174 0,31.135 0,62.27 0,93.405 0,8.139 0,16.277 0,24.416 0,10.139 10.407,8.431 17.517,8.431 16.604,0 33.209,0 49.813,0 1.933-.001 1.933-3.001-.002-3.001z"/>
<path d="m243.526,76.844c11.167,0 22.333,0 33.5,0 4.514,0 4.514-7 0-7-11.167,0-22.333,0-33.5,0-4.513,0-4.513,7 0,7z"/>
<path d="m260.276,83.981c-.161-7.275-5.318-12.001-12.5-12.137-1.936-.037-1.933,2.963 0,3 5.523,.104 9.375,3.506 9.5,9.137 .043,1.932 3.043,1.936 3,0z"/>
<path d="m244.092,126.326c7.015-6.655 14.028-13.31 21.043-19.965 1.406-1.334-.719-3.452-2.121-2.121-7.015,6.655-14.028,13.31-21.043,19.965-1.407,1.334 .718,3.451 2.121,2.121z"/>
<path d="m244.669,140.153c10.94-10.38 21.881-20.76 32.821-31.14 1.406-1.334-.719-3.452-2.121-2.121-10.94,10.38-21.881,20.76-32.821,31.14-1.406,1.334 .719,3.452 2.121,2.121z"/>
<path d="m257.84,140.103c7.604-7.214 15.207-14.428 22.811-21.643 1.406-1.334-.719-3.452-2.121-2.121-7.604,7.214-15.207,14.428-22.811,21.643-1.406,1.333 .719,3.451 2.121,2.121z"/>
<path d="m205.333,173.095c0,5.179 0,10.358 0,15.538 0,4.514 7,4.514 7,0 0-5.18 0-10.359 0-15.538 0-4.514-7-4.514-7,0z"/>
<path d="m214.498,88.667c0,49.662 0,99.325 0,148.987 0,14.004 0,28.009 0,42.013 0,4.514 7,4.514 7,0 0-49.662 0-99.325 0-148.987 0-14.004 0-28.008 0-42.013 0-4.514-7-4.514-7,0z"/>
</g>
</svg>
