<svg xmlns="http://www.w3.org/2000/svg" viewBox="20 20 321 321">
<g fill="#000">
<path d="m84.09,162.513c8.917,1.522 17.833,3.045 26.749,4.567 4.414,.754 6.304-5.991 1.861-6.75-8.917-1.522-17.833-3.045-26.749-4.567-4.414-.754-6.304,5.991-1.861,6.75z"/>
<path d="m84.364,172.128c8.917,1.522 17.833,3.045 26.749,4.567 4.414,.753 6.304-5.991 1.861-6.75-8.917-1.522-17.833-3.045-26.749-4.567-4.413-.753-6.304,5.992-1.861,6.75z"/>
<path d="m84.364,181.47c8.917,1.522 17.833,3.045 26.749,4.567 4.414,.754 6.304-5.991 1.861-6.75-8.917-1.522-17.833-3.045-26.749-4.567-4.413-.754-6.304,5.991-1.861,6.75z"/>
<path d="m90.058,191.441c5.004,.854 10.008,1.708 15.012,2.563 4.414,.754 6.304-5.991 1.861-6.75-5.004-.854-10.008-1.708-15.012-2.563-4.414-.753-6.304,5.992-1.861,6.75z"/>
</g>
<path fill="none"  stroke="#000" stroke-width="10" d="m121.034,136.573c0,7.544-6.116,13.66-13.66,13.66h-18.214c-7.544,0-13.66-6.116-13.66-13.66v-48.569c0-7.544 6.116-13.66 13.66-13.66h18.213c7.544,0 13.66,6.116 13.66,13.66v48.569z"/>
<g fill="#000">
<path d="m211.088,267.842c19.113,0 38.227,0 57.34,0 4.514,0 4.514-7 0-7-19.113,0-38.227,0-57.34,0-4.514,0-4.514,7 0,7z"/>
<path d="m268.983,262.985c0-46.345 0-92.69 0-139.035 0-14.833-17.258-11.821-27.245-11.821-9.667,0-31.206-3.934-31.206,11.171 0,23.704 0,47.407 0,71.111 0,22.857 0,45.716 0,68.574 0,6.448 10,6.448 10,0 0-46.345 0-92.69 0-139.035 0-2.854 3.66-1.821 5.776-1.821 7.647,0 15.296,0 22.943,0 1.249,0 9.731-1.045 9.731,1.052 0,2.618 0,5.235 0,7.853 0,28.931 0,57.862 0,86.792 0,15.053 0,30.106 0,45.159 .001,6.449 10.001,6.449 10.001,0z"/>
<path d="m126.772,275.786c2.083,0 4.166,0 6.249,0 1.908,0 3.5-1.592 3.5-3.5s-1.592-3.5-3.5-3.5c-2.083,0-4.166,0-6.249,0-1.908,0-3.5,1.592-3.5,3.5s1.593,3.5 3.5,3.5z"/>
<path d="m171.567,268.584c-3.876,0-7.752,0-11.628,0-4.514,0-4.514,7 0,7 3.876,0 7.752,0 11.628,0 4.515,0 4.515-7 0-7z"/>
<path d="m283.391,281.786c1.531,0 3.063,0 4.595,0 1.908,0 3.5-1.592 3.5-3.5s-1.592-3.5-3.5-3.5c-1.531,0-3.063,0-4.595,0-1.908,0-3.5,1.592-3.5,3.5s1.591,3.5 3.5,3.5z"/>
<path d="m256.666,291.786c5.333,0 10.667,0 16,0 4.514,0 4.514-7 0-7-5.333,0-10.667,0-16,0-4.514,0-4.514,7 0,7z"/>
<path d="m276.25,288.786c2,0 4,0 6,0 1.908,0 3.5-1.592 3.5-3.5s-1.592-3.5-3.5-3.5c-2,0-4,0-6,0-1.908,0-3.5,1.592-3.5,3.5s1.592,3.5 3.5,3.5z"/>
<path d="m286.584,291.786c.667,0 1.333,0 2,0 1.908,0 3.5-1.592 3.5-3.5s-1.592-3.5-3.5-3.5c-.667,0-1.333,0-2,0-1.908,0-3.5,1.592-3.5,3.5s1.592,3.5 3.5,3.5z"/>
<path d="m287.833,269.953c-.222,0-.443,0-.665,0-1.908,0-3.5,1.592-3.5,3.5s1.592,3.5 3.5,3.5c.222,0 .443,0 .665,0 1.908,0 3.5-1.592 3.5-3.5s-1.592-3.5-3.5-3.5z"/>
<path d="m73.75,282.89c2.337,0 4.673,0 7.01,0 4.514,0 4.514-7 0-7-2.337,0-4.673,0-7.01,0-4.515,0-4.515,7 0,7z"/>
<path d="m100.271,279.89c2.581,0 5.161,0 7.741,0 4.514,0 4.514-7 0-7-2.581,0-5.161,0-7.741,0-4.515,0-4.515,7 0,7z"/>
<path d="m122.069,291.786c2,0 4,0 6,0 1.908,0 3.5-1.592 3.5-3.5s-1.592-3.5-3.5-3.5c-2,0-4,0-6,0-1.908,0-3.5,1.592-3.5,3.5s1.592,3.5 3.5,3.5z"/>
<path d="m246.238,284.278c-3,0-6.001,0-9.001,0-4.514,0-4.514,7 0,7 3,0 6.001,0 9.001,0 4.514,0 4.514-7 0-7z"/>
<path d="m76.8,276.953c.694,0 1.389,0 2.083,0 1.908,0 3.5-1.592 3.5-3.5s-1.592-3.5-3.5-3.5c-.694,0-1.389,0-2.083,0-1.908,0-3.5,1.592-3.5,3.5s1.592,3.5 3.5,3.5z"/>
<path d="m93.584,276.277c-.667,0-1.333,0-2,0-1.908,0-3.5,1.592-3.5,3.5s1.592,3.5 3.5,3.5c.667,0 1.333,0 2,0 1.908,0 3.5-1.592 3.5-3.5s-1.592-3.5-3.5-3.5z"/>
<path d="m196.164,284.786c-2,0-4,0-6,0-1.908,0-3.5,1.592-3.5,3.5s1.592,3.5 3.5,3.5c2,0 4,0 6,0 1.908,0 3.5-1.592 3.5-3.5s-1.592-3.5-3.5-3.5z"/>
<path d="m205.916,291.821c5.333,0 10.667,0 16,0 4.514,0 4.514-7 0-7-5.333,0-10.667,0-16,0-4.514,0-4.514,7 0,7z"/>
<path d="m215.209,288.036c.667,0 1.333,0 2,0 1.908,0 3.5-1.592 3.5-3.5s-1.592-3.5-3.5-3.5c-.667,0-1.333,0-2,0-1.908,0-3.5,1.592-3.5,3.5s1.592,3.5 3.5,3.5z"/>
<path d="m135.882,271.917c-3,0-6,0-9,0-4.514,0-4.514,7 0,7 3,0 6,0 9,0 4.514,0 4.514-7 0-7z"/>
<path d="m152.402,271.786c-2,0-4,0-6,0-1.908,0-3.5,1.592-3.5,3.5s1.592,3.5 3.5,3.5c2,0 4,0 6,0 1.908,0 3.5-1.592 3.5-3.5s-1.592-3.5-3.5-3.5z"/>
<path d="m141.872,269.786c-.694,0-1.388,0-2.083,0-1.908,0-3.5,1.592-3.5,3.5s1.592,3.5 3.5,3.5c.694,0 1.388,0 2.083,0 1.908,0 3.5-1.592 3.5-3.5s-1.592-3.5-3.5-3.5z"/>
<path d="m144.902,291.786c2,0 4,0 6,0 1.908,0 3.5-1.592 3.5-3.5s-1.592-3.5-3.5-3.5c-2,0-4,0-6,0-1.908,0-3.5,1.592-3.5,3.5s1.593,3.5 3.5,3.5z"/>
<path d="m85.819,291.619c5.083,0 10.167,0 15.25,0 4.514,0 4.514-7 0-7-5.083,0-10.167,0-15.25,0-4.514,0-4.514,7 0,7z"/>
<path d="m178.251,276.584c3,0 6.001,0 9.001,0 4.514,0 4.514-7 0-7-3,0-6.001,0-9.001,0-4.514,0-4.514,7 0,7z"/>
<path d="m159.584,291.821c5.333,0 10.667,0 16,0 4.514,0 4.514-7 0-7-5.333,0-10.667,0-16,0-4.514,0-4.514,7 0,7z"/>
<path d="m154.902,283.786c2,0 4,0 6,0 1.908,0 3.5-1.592 3.5-3.5s-1.592-3.5-3.5-3.5c-2,0-4,0-6,0-1.908,0-3.5,1.592-3.5,3.5s1.593,3.5 3.5,3.5z"/>
<path d="m173.251,287.584c.667,0 1.333,0 2,0 1.908,0 3.5-1.592 3.5-3.5s-1.592-3.5-3.5-3.5c-.667,0-1.333,0-2,0-1.908,0-3.5,1.592-3.5,3.5s1.593,3.5 3.5,3.5z"/>
<path d="m213.432,269.786c-4.063,0-8.128,0-12.191,0-4.514,0-4.514,7 0,7 4.063,0 8.128,0 12.191,0 4.513,0 4.513-7 0-7z"/>
<path d="m192.001,278.584c-2,0-4,0-6,0-1.908,0-3.5,1.592-3.5,3.5s1.592,3.5 3.5,3.5c2,0 4,0 6,0 1.908,0 3.5-1.592 3.5-3.5s-1.592-3.5-3.5-3.5z"/>
<path d="m146.902,279.786c5.333,0 10.667,0 16,0 4.514,0 4.514-7 0-7-5.333,0-10.667,0-16,0-4.514,0-4.514,7 0,7z"/>
<path d="m118.012,275.203c-3,0-6,0-9,0-4.514,0-4.514,7 0,7 3,0 6,0 9,0 4.514,0 4.514-7 0-7z"/>
<path d="m100.754,269.167c-2.083,0-4.166,0-6.249,0-1.908,0-3.5,1.592-3.5,3.5s1.592,3.5 3.5,3.5c2.083,0 4.166,0 6.249,0 1.908,0 3.5-1.592 3.5-3.5s-1.592-3.5-3.5-3.5z"/>
<path d="m87.26,281.036c-1.833,0-3.667,0-5.5,0-1.908,0-3.5,1.592-3.5,3.5s1.592,3.5 3.5,3.5c1.833,0 3.667,0 5.5,0 1.908,0 3.5-1.592 3.5-3.5s-1.592-3.5-3.5-3.5z"/>
<path d="m143.083,281.917c-.667,0-1.333,0-2,0-1.908,0-3.5,1.592-3.5,3.5s1.592,3.5 3.5,3.5c.667,0 1.333,0 2,0 1.908,0 3.5-1.592 3.5-3.5s-1.592-3.5-3.5-3.5z"/>
<path d="m146.833,271.723c-.667,0-1.333,0-2,0-1.908,0-3.5,1.592-3.5,3.5s1.592,3.5 3.5,3.5c.667,0 1.333,0 2,0 1.908,0 3.5-1.592 3.5-3.5s-1.592-3.5-3.5-3.5z"/>
<path d="m105.261,291.619c1.833,0 3.667,0 5.5,0 1.908,0 3.5-1.592 3.5-3.5s-1.592-3.5-3.5-3.5c-1.833,0-3.667,0-5.5,0-1.908,0-3.5,1.592-3.5,3.5s1.593,3.5 3.5,3.5z"/>
<path d="m73.332,290.667c.667,0 1.333,0 2,0 1.908,0 3.5-1.592 3.5-3.5s-1.592-3.5-3.5-3.5c-.667,0-1.333,0-2,0-1.908,0-3.5,1.592-3.5,3.5s1.592,3.5 3.5,3.5z"/>
<path d="m92.583,281.953c.667,0 1.333,0 2,0 1.908,0 3.5-1.592 3.5-3.5s-1.592-3.5-3.5-3.5c-.667,0-1.333,0-2,0-1.908,0-3.5,1.592-3.5,3.5s1.592,3.5 3.5,3.5z"/>
<path d="m103.833,279.89c4.514,0 4.514-7 0-7s-4.514,7 0,7z"/>
<path d="m207.5,275.89c-3.722,0-7.444,0-11.166,0-4.514,0-4.514,7 0,7 3.722,0 7.444,0 11.166,0 4.514,0 4.514-7 0-7z"/>
<path d="m140.46,280.584c-3.722,0-7.444,0-11.166,0-4.514,0-4.514,7 0,7 3.722,0 7.444,0 11.166,0 4.515,0 4.515-7 0-7z"/>
<path d="m71.332,270.643c48.132,0 96.264,0 144.396,0 24.868,0 49.736,0 74.604,0 1.935,0 1.935-3 0-3-48.132,0-96.265,0-144.396,0-24.868,0-49.736,0-74.604,0-1.935,0-1.935,3-0,3z"/>
<path d="m284.211,272.723c-3,0-6,0-9,0-4.514,0-4.514,7 0,7 3,0 6,0 9,0 4.514,0 4.514-7 0-7z"/>
<path d="m255.289,278.65c-2,0-4,0-6,0-1.908,0-3.5,1.592-3.5,3.5s1.592,3.5 3.5,3.5c2,0 4,0 6,0 1.908,0 3.5-1.592 3.5-3.5s-1.592-3.5-3.5-3.5z"/>
<path d="m231.783,275.584c2,0 4,0 6,0 1.908,0 3.5-1.592 3.5-3.5s-1.592-3.5-3.5-3.5c-2,0-4,0-6,0-1.908,0-3.5,1.592-3.5,3.5s1.592,3.5 3.5,3.5z"/>
<path d="m222.116,289.804c5.333,0 10.667,0 16,0 4.514,0 4.514-7 0-7-5.333,0-10.667,0-16,0-4.513,0-4.513,7 0,7z"/>
<path d="m217.435,281.769c2,0 4,0 6,0 1.908,0 3.5-1.592 3.5-3.5s-1.592-3.5-3.5-3.5c-2,0-4,0-6,0-1.908,0-3.5,1.592-3.5,3.5s1.591,3.5 3.5,3.5z"/>
<path d="m235.783,285.566c.667,0 1.333,0 2,0 1.908,0 3.5-1.592 3.5-3.5s-1.592-3.5-3.5-3.5c-.667,0-1.333,0-2,0-1.908,0-3.5,1.592-3.5,3.5s1.592,3.5 3.5,3.5z"/>
<path d="m251.125,272.449c-2,0-4,0-6,0-1.908,0-3.5,1.592-3.5,3.5s1.592,3.5 3.5,3.5c2,0 4,0 6,0 1.908,0 3.5-1.592 3.5-3.5s-1.592-3.5-3.5-3.5z"/>
<path d="m181.833,275.89c-.667,0-1.333,0-2,0-1.908,0-3.5,1.592-3.5,3.5s1.592,3.5 3.5,3.5c.667,0 1.333,0 2,0 1.908,0 3.5-1.592 3.5-3.5s-1.592-3.5-3.5-3.5z"/>
<path d="m268.175,271.723c-3.722,0-7.444,0-11.166,0-4.514,0-4.514,7 0,7 3.722,0 7.444,0 11.166,0 4.513,0 4.513-7 0-7z"/>
<path d="m211.451,132.291c18.871,0 37.742,0 56.613,0 1.935,0 1.935-3 0-3-18.871,0-37.742,0-56.613,0-1.934,0-1.934,3 0,3z"/>
<path d="m207.139,136.525c1.791-1.558 3.582-3.116 5.373-4.674 1.462-1.272-.669-3.385-2.121-2.121-1.791,1.558-3.582,3.116-5.373,4.674-1.462,1.272 .669,3.385 2.121,2.121z"/>
<path d="m267.004,131.851c1.791,1.558 3.583,3.116 5.374,4.674 1.452,1.263 3.584-.85 2.121-2.121-1.791-1.558-3.583-3.116-5.374-4.674-1.452-1.263-3.584,.85-2.121,2.121z"/>
<path d="m206.078,136.964c22.453,0 44.907,0 67.36,0 1.935,0 1.935-3 0-3-22.453,0-44.907,0-67.36,0-1.934,0-1.934,3 0,3z"/>
<path d="m211.451,141.894c18.871,0 37.742,0 56.613,0 1.935,0 1.935-3 0-3-18.871,0-37.742,0-56.613,0-1.934,0-1.934,3 0,3z"/>
<path d="m207.139,146.128c1.791-1.558 3.582-3.116 5.373-4.674 1.462-1.272-.669-3.385-2.121-2.121-1.791,1.558-3.582,3.116-5.373,4.674-1.462,1.272 .669,3.385 2.121,2.121z"/>
<path d="m267.004,141.454c1.791,1.558 3.583,3.116 5.374,4.674 1.452,1.263 3.584-.85 2.121-2.121-1.791-1.558-3.583-3.116-5.374-4.674-1.452-1.263-3.584,.85-2.121,2.121z"/>
<path d="m206.078,146.567c22.453,0 44.907,0 67.36,0 1.935,0 1.935-3 0-3-22.453,0-44.907,0-67.36,0-1.934,0-1.934,3 0,3z"/>
<path d="m211.451,151.496c18.871,0 37.742,0 56.613,0 1.935,0 1.935-3 0-3-18.871,0-37.742,0-56.613,0-1.934,0-1.934,3 0,3z"/>
<path d="m207.139,155.73c1.791-1.558 3.582-3.116 5.373-4.674 1.462-1.272-.669-3.385-2.121-2.121-1.791,1.558-3.582,3.116-5.373,4.674-1.462,1.272 .669,3.385 2.121,2.121z"/>
<path d="m267.004,151.057c1.791,1.558 3.583,3.116 5.374,4.674 1.452,1.263 3.584-.85 2.121-2.121-1.791-1.558-3.583-3.116-5.374-4.674-1.452-1.264-3.584,.849-2.121,2.121z"/>
<path d="m206.078,156.17c22.453,0 44.907,0 67.36,0 1.935,0 1.935-3 0-3-22.453,0-44.907,0-67.36,0-1.934,0-1.934,3 0,3z"/>
<path d="m211.451,161.099c18.871,0 37.742,0 56.613,0 1.935,0 1.935-3 0-3-18.871,0-37.742,0-56.613,0-1.934,0-1.934,3 0,3z"/>
<path d="m207.139,165.333c1.791-1.558 3.582-3.116 5.373-4.674 1.462-1.272-.669-3.385-2.121-2.121-1.791,1.558-3.582,3.116-5.373,4.674-1.462,1.272 .669,3.385 2.121,2.121z"/>
<path d="m267.004,160.66c1.791,1.558 3.583,3.116 5.374,4.674 1.452,1.263 3.584-.85 2.121-2.121-1.791-1.558-3.583-3.116-5.374-4.674-1.452-1.264-3.584,.849-2.121,2.121z"/>
<path d="m206.078,165.773c22.453,0 44.907,0 67.36,0 1.935,0 1.935-3 0-3-22.453,0-44.907,0-67.36,0-1.934,0-1.934,3 0,3z"/>
<path d="m211.451,170.702c18.871,0 37.742,0 56.613,0 1.935,0 1.935-3 0-3-18.871,0-37.742,0-56.613,0-1.934,0-1.934,3 0,3z"/>
<path d="m207.139,174.937c1.791-1.558 3.582-3.116 5.373-4.674 1.462-1.272-.669-3.385-2.121-2.121-1.791,1.558-3.582,3.116-5.373,4.674-1.462,1.271 .669,3.384 2.121,2.121z"/>
<path d="m267.004,170.263c1.791,1.558 3.583,3.116 5.374,4.674 1.452,1.263 3.584-.85 2.121-2.121-1.791-1.558-3.583-3.116-5.374-4.674-1.452-1.264-3.584,.849-2.121,2.121z"/>
<path d="m206.078,175.376c22.453,0 44.907,0 67.36,0 1.935,0 1.935-3 0-3-22.453,0-44.907,0-67.36,0-1.934,0-1.934,3 0,3z"/>
</g>
</svg>
