<svg xmlns="http://www.w3.org/2000/svg" viewBox="20 20 321 321">
<g fill="#000">
<path d="m231.383,274.887c0,2.521-.371,4.801-1.11,6.84-.741,2.041-1.811,3.78-3.21,5.221-1.4,1.439-3.12,2.55-5.16,3.33-2.04,.779-4.36,1.17-6.96,1.17-1.08,0-2.211-.051-3.39-.15-1.181-.1-2.34-.23-3.48-.39-1.141-.161-2.23-.351-3.27-.57-1.041-.22-1.961-.45-2.76-.69v-44.1l8.939-1.439v15.72c.999-.44 2.04-.78 3.119-1.021 1.08-.24 2.24-.359 3.48-.359 2.24,0 4.22,.39 5.94,1.17 1.72,.779 3.159,1.89 4.319,3.33 1.16,1.439 2.041,3.17 2.641,5.189 .601,2.019 .902,4.269 .902,6.749zm-9.121-.241c0-5.76-2.12-8.64-6.359-8.64-.921,0-1.83,.12-2.73,.36-.899,.24-1.63,.54-2.189,.9v16.26c.439,.08 .999,.149 1.68,.209 .68,.061 1.42,.091 2.221,.091 2.439,0 4.279-.841 5.52-2.521 1.237-1.678 1.857-3.898 1.857-6.659z"/>
<path d="m249.621,258.268c2.641,0 4.84,.299 6.601,.899 1.76,.601 3.169,1.46 4.229,2.58 1.06,1.12 1.81,2.48 2.25,4.08 .439,1.601 .66,3.38 .66,5.34v18.601c-1.28,.279-3.06,.609-5.34,.989-2.279,.38-5.04,.57-8.279,.57-2.041,0-3.891-.181-5.551-.54-1.66-.36-3.09-.949-4.29-1.77s-2.12-1.891-2.76-3.211-.96-2.939-.96-4.859c0-1.84 .369-3.399 1.109-4.68s1.73-2.301 2.971-3.061c1.239-.76 2.66-1.31 4.26-1.65 1.6-.339 3.26-.51 4.98-.51 1.159,0 2.189,.051 3.09,.15s1.629,.23 2.189,.39v-.84c0-1.52-.46-2.739-1.38-3.66-.921-.919-2.521-1.38-4.8-1.38-1.521,0-3.021,.11-4.5,.33-1.48,.221-2.76,.53-3.84,.93l-1.141-7.199c.52-.16 1.17-.33 1.951-.511 .779-.18 1.629-.339 2.549-.479s1.891-.26 2.91-.36c1.023-.1 2.052-.149 3.092-.149zm.721,26.159c.879,0 1.719-.02 2.52-.06 .8-.039 1.44-.1 1.92-.18v-6.78c-.359-.08-.9-.159-1.619-.24-.721-.079-1.381-.12-1.98-.12-.84,0-1.631,.051-2.37,.15-.741,.1-1.39,.291-1.95,.57s-1,.659-1.32,1.14c-.32,.479-.479,1.079-.479,1.8 0,1.4 .47,2.37 1.41,2.91 .937,.54 2.227,.81 3.868,.81z"/>
<path d="m290.481,267.027c-.801-.2-1.74-.41-2.82-.631-1.08-.219-2.241-.33-3.479-.33-.561,0-1.23,.051-2.01,.15-.781,.101-1.371,.21-1.771,.33v24.12h-8.94v-29.88c1.6-.56 3.49-1.09 5.67-1.59s4.609-.75 7.291-.75c.479,0 1.059,.029 1.739,.09 .68,.061 1.359,.141 2.04,.24 .68,.1 1.359,.22 2.04,.359 .68,.141 1.261,.311 1.74,.51l-1.5,7.382z"/>
<path d="m116.808,241.434c-4.663,4.663-9.326,9.325-13.989,13.988-1.369,1.369 .752,3.49 2.121,2.121 4.663-4.663 9.326-9.325 13.989-13.988 1.369-1.369-.752-3.491-2.121-2.121z"/>
<path d="m129.125,229.023c-8.769,8.8-17.537,17.599-26.306,26.398-1.367,1.371 .754,3.493 2.121,2.121 8.769-8.8 17.537-17.599 26.306-26.398 1.367-1.371-.754-3.493-2.121-2.121z"/>
<path d="m110.251,172.247c-12.602-1.118-25.203-2.236-37.804-3.354-1.928-.171-1.911,2.831 0,3 12.602,1.118 25.203,2.236 37.804,3.354 1.928,.171 1.911-2.83 0-3z"/>
<path d="m142.021,120.745c-7.268-10.418-14.536-20.836-21.804-31.254-1.098-1.574-3.701-.077-2.591,1.515 7.268,10.418 14.536,20.836 21.804,31.254 1.098,1.573 3.7,.076 2.591-1.515z"/>
<path d="m200.342,111.566c3.125-12.215 6.249-24.43 9.374-36.644 .479-1.875-2.413-2.671-2.893-.798-3.125,12.215-6.249,24.43-9.374,36.644-.479,1.876 2.413,2.671 2.893,.798z"/>
<path d="m278.794,133.138c-11.617,5.293-23.234,10.586-34.852,15.878-1.759,.801-.232,3.386 1.514,2.591 11.617-5.293 23.234-10.586 34.852-15.878 1.758-.802 .232-3.387-1.514-2.591z"/>
<path d="m280.415,223.568c-11.494-5.272-22.988-10.545-34.482-15.816-1.745-.801-3.271,1.784-1.514,2.59 11.494,5.272 22.988,10.545 34.482,15.816 1.745,.801 3.271-1.784 1.514-2.59z"/>
<path d="m106.819,228.881c-5.42,3.755-10.841,7.51-16.262,11.266-1.578,1.093-.081,3.695 1.515,2.59 5.42-3.755 10.841-7.51 16.262-11.266 1.578-1.093 .081-3.696-1.515-2.59z"/>
<path d="m99.112,215.34c-5.997,2.742-11.994,5.485-17.991,8.229-1.757,.804-.231,3.389 1.515,2.59 5.997-2.742 11.994-5.485 17.991-8.229 1.757-.804 .231-3.389-1.515-2.59z"/>
<path d="m94.331,200.757c-6.38,1.667-12.76,3.333-19.141,5-1.87,.488-1.076,3.382 .798,2.893 6.38-1.667 12.76-3.333 19.141-5 1.87-.489 1.076-3.382-.798-2.893z"/>
<path d="m92.158,185.727c-6.57,.56-13.141,1.118-19.711,1.678-1.913,.163-1.929,3.164 0,3 6.57-.56 13.141-1.118 19.711-1.678 1.913-.164 1.929-3.164 0-3z"/>
<path d="m92.158,170.568c-6.57-.559-13.141-1.117-19.711-1.676-1.929-.164-1.913,2.837 0,3 6.57,.559 13.141,1.117 19.711,1.676 1.929,.164 1.913-2.837 0-3z"/>
<path d="m95.129,155.646c-6.38-1.667-12.761-3.333-19.141-5-1.874-.49-2.668,2.404-.798,2.893 6.38,1.667 12.761,3.333 19.141,5 1.874,.49 2.668-2.404 .798-2.893z"/>
<path d="m100.626,141.365c-5.997-2.743-11.993-5.485-17.99-8.228-1.746-.798-3.271,1.787-1.514,2.591 5.997,2.743 11.993,5.485 17.99,8.228 1.746,.798 3.272-1.787 1.514-2.591z"/>
<path d="m108.333,127.824c-5.42-3.755-10.841-7.51-16.261-11.266-1.595-1.104-3.093,1.497-1.515,2.591 5.421,3.755 10.841,7.51 16.262,11.266 1.595,1.105 3.093-1.497 1.514-2.591z"/>
<path d="m118.929,115.741c-4.663-4.663-9.325-9.326-13.988-13.988-1.369-1.369-3.49,.752-2.121,2.121 4.663,4.663 9.325,9.326 13.988,13.988 1.369,1.369 3.49-.752 2.121-2.121z"/>
<path d="m131.481,105.753c-3.755-5.421-7.51-10.841-11.265-16.262-1.094-1.578-3.695-.081-2.591,1.515 3.755,5.42 7.51,10.841 11.265,16.261 1.094,1.578 3.696,.081 2.591-1.514z"/>
<path d="m145.022,98.046c-2.743-5.997-5.485-11.994-8.228-17.991-.804-1.757-3.389-.231-2.591,1.515 2.743,5.997 5.485,11.994 8.228,17.991 .804,1.757 3.39,.231 2.591-1.515z"/>
<path d="m159.605,93.265c-1.667-6.38-3.333-12.76-5-19.14-.488-1.87-3.382-1.076-2.893,.798 1.667,6.38 3.333,12.76 5,19.14 .489,1.87 3.383,1.076 2.893-.798z"/>
<path d="m174.635,91.092c-.559-6.57-1.117-13.141-1.676-19.711-.163-1.913-3.164-1.929-3,0 .559,6.57 1.117,13.141 1.676,19.711 .163,1.912 3.164,1.929 3,0z"/>
<path d="m189.795,91.092c.559-6.57 1.117-13.141 1.676-19.711 .164-1.929-2.837-1.913-3,0-.559,6.57-1.117,13.141-1.676,19.711-.164,1.929 2.837,1.912 3,0z"/>
<path d="m204.717,94.062c1.666-6.38 3.333-12.76 4.999-19.14 .489-1.874-2.404-2.668-2.893-.798-1.666,6.38-3.333,12.76-4.999,19.14-.489,1.874 2.405,2.668 2.893,.798z"/>
<path d="m218.997,99.56c2.743-5.997 5.485-11.993 8.228-17.99 .799-1.746-1.786-3.271-2.59-1.514-2.743,5.997-5.485,11.993-8.228,17.99-.799,1.746 1.786,3.271 2.59,1.514z"/>
<path d="m232.538,107.267c3.756-5.42 7.511-10.841 11.266-16.261 1.105-1.595-1.497-3.093-2.59-1.515-3.756,5.42-7.511,10.841-11.266,16.261-1.105,1.595 1.497,3.093 2.59,1.515z"/>
<path d="m244.621,117.862c4.663-4.663 9.325-9.325 13.988-13.988 1.369-1.369-.752-3.49-2.121-2.121-4.663,4.663-9.325,9.325-13.988,13.988-1.369,1.369 .752,3.49 2.121,2.121z"/>
<path d="m254.61,130.415c5.421-3.755 10.842-7.51 16.262-11.265 1.579-1.094 .081-3.695-1.514-2.591-5.421,3.755-10.842,7.51-16.262,11.265-1.578,1.093-.08,3.695 1.514,2.591z"/>
<path d="m262.317,143.956c5.997-2.743 11.994-5.485 17.99-8.227 1.758-.804 .231-3.389-1.514-2.591-5.997,2.743-11.994,5.485-17.99,8.227-1.757,.803-.231,3.389 1.514,2.591z"/>
<path d="m267.098,158.539c6.381-1.666 12.761-3.333 19.141-4.999 1.871-.488 1.076-3.382-.797-2.893-6.381,1.666-12.761,3.333-19.141,4.999-1.871,.488-1.076,3.382 .797,2.893z"/>
<path d="m269.271,173.568c6.57-.559 13.141-1.117 19.711-1.675 1.913-.163 1.929-3.164 0-3-6.57,.559-13.141,1.117-19.711,1.675-1.913,.163-1.928,3.164 0,3z"/>
<path d="m269.271,188.728c6.57,.559 13.141,1.118 19.711,1.677 1.929,.164 1.913-2.837 0-3-6.57-.559-13.141-1.118-19.711-1.677-1.928-.165-1.913,2.836 0,3z"/>
<path d="m266.301,203.649c6.38,1.667 12.76,3.333 19.141,5 1.873,.489 2.668-2.404 .797-2.893-6.38-1.667-12.76-3.333-19.141-5-1.873-.488-2.668,2.405-.797,2.893z"/>
<path d="m260.804,217.931c5.996,2.743 11.992,5.485 17.989,8.228 1.745,.799 3.271-1.786 1.514-2.59-5.996-2.743-11.992-5.485-17.989-8.228-1.746-.799-3.272,1.786-1.514,2.59z"/>
</g>
<path fill="none"  stroke="#000" stroke-width="7" d="m224.37,192.854c-8.587-4.201-16.916,.557-24.764-5.277-.749-.559-7.579-5.542-7.579-5.542-.198-3.309-1.689-6.534-4.425-8.837-3.152-2.655-7.229-3.473-10.954-2.593-34.725-25.813-69.476-54.61-69.476-54.61-1.511-1.273-2.559-2.009-3.832-.497-1.272,1.511-.369,2.418 1.143,3.69 0,0 34.28,29.332 65.637,59.167-.232,3.821 1.268,7.698 4.42,10.352 2.735,2.303 6.167,3.225 9.461,2.855 0,0 6.181,5.985 6.857,6.629 7.059,6.715 3.735,15.679 9.309,23.401 1.158,1.603 4.191,1.229 5.955,.337 5.746-2.91 7.131-2.913 12.533-9.328 5.401-6.416 5.441-8.625 7.059-13.938 .576-1.89 .431-4.941-1.344-5.809z"/>
</svg>
