<svg xmlns="http://www.w3.org/2000/svg" viewBox="20 20 321 321">
<g fill="#000">
<path d="m74.588,281.875c14.183,0 28.366,0 42.549,0 6.449,0 6.449-10 0-10-14.183,0-28.366,0-42.549,0-6.448,0-6.448,10 0,10z"/>
<path d="m74.588,268.359c8.304,0 16.607,0 24.911,0 6.449,0 6.449-10 0-10-8.304,0-16.607,0-24.911,0-6.448,0-6.448,10 0,10z"/>
<path d="m74.588,241.33c8.304,0 16.607,0 24.911,0 6.449,0 6.449-10 0-10-8.304,0-16.607,0-24.911,0-6.448,0-6.448,10 0,10z"/>
<path d="m74.588,227.815c8.304,0 16.607,0 24.911,0 6.449,0 6.449-10 0-10-8.304,0-16.607,0-24.911,0-6.448,0-6.448,10 0,10z"/>
<path d="m74.588,214.301c8.304,0 16.607,0 24.911,0 6.449,0 6.449-10 0-10-8.304,0-16.607,0-24.911,0-6.448,0-6.448,10 0,10z"/>
<path d="m74.588,200.785c8.304,0 16.607,0 24.911,0 6.449,0 6.449-10 0-10-8.304,0-16.607,0-24.911,0-6.448,0-6.448,10 0,10z"/>
<path d="m74.588,187.271c14.183,0 28.366,0 42.549,0 6.449,0 6.449-10 0-10-14.183,0-28.366,0-42.549,0-6.448,0-6.448,10 0,10z"/>
<path d="m74.588,173.756c8.304,0 16.607,0 24.911,0 6.449,0 6.449-10 0-10-8.304,0-16.607,0-24.911,0-6.448,0-6.448,10 0,10z"/>
<path d="m74.588,146.726c8.304,0 16.607,0 24.911,0 6.449,0 6.449-10 0-10-8.304,0-16.607,0-24.911,0-6.448,0-6.448,10 0,10z"/>
<path d="m241.396,259.492c0,2.928-.359,5.592-1.08,7.992-.719,2.4-1.775,4.463-3.168,6.191s-3.12,3.072-5.184,4.031c-2.064,.961-4.44,1.441-7.128,1.441-1.488,0-2.88-.145-4.176-.433s-2.545-.695-3.744-1.224v14.256h-10.728v-49.896c.959-.287 2.063-.563 3.312-.828 1.247-.264 2.556-.491 3.924-.684 1.368-.191 2.76-.348 4.177-.469 1.414-.119 2.771-.18 4.067-.18 3.12,0 5.903,.469 8.353,1.404 2.447,.936 4.511,2.257 6.191,3.96 1.68,1.704 2.963,3.78 3.852,6.228 .889,2.451 1.332,5.187 1.332,8.211zm-10.943,.287c0-3.312-.745-5.963-2.232-7.955-1.488-1.992-3.696-2.988-6.623-2.988-.961,0-1.85,.035-2.664,.107-.817,.072-1.489,.156-2.017,.252v19.369c.671,.432 1.548,.791 2.628,1.079s2.172,.433 3.275,.433c5.088,0 7.633-3.431 7.633-10.297z"/>
<path d="m280.492,228.531h11.232v49.896h-11.232v-21.167h-18.863v21.168h-11.232v-49.896h11.232v19.08h18.863v-19.081z"/>
<path d="m74.588,160.241c8.304,0 16.607,0 24.911,0 6.449,0 6.449-10 0-10-8.304,0-16.607,0-24.911,0-6.448,0-6.448,10 0,10z"/>
<path d="m74.588,133.211c8.304,0 16.607,0 24.911,0 6.449,0 6.449-10 0-10-8.304,0-16.607,0-24.911,0-6.448-0-6.448,10 0,10z"/>
<path d="m74.588,119.697c8.304,0 16.607,0 24.911,0 6.449,0 6.449-10 0-10-8.304,0-16.607,0-24.911,0-6.448,0-6.448,10 0,10z"/>
<path d="m74.588,106.182c8.304,0 16.607,0 24.911,0 6.449,0 6.449-10 0-10-8.304,0-16.607,0-24.911,0-6.448,0-6.448,10 0,10z"/>
<path d="m74.588,92.667c14.183,0 28.366,0 42.549,0 6.449,0 6.449-10 0-10-14.183,0-28.366,0-42.549,0-6.448,0-6.448,10 0,10z"/>
<path d="m162.052,274.963c0,5.601-1.064,9.896-3.192,12.889-2.128,2.992-5.064,4.487-8.808,4.487-3.744,0-6.68-1.495-8.808-4.487-2.129-2.992-3.192-7.288-3.192-12.889 0-2.783 .28-5.248 .84-7.393 .56-2.143 1.368-3.951 2.424-5.424 1.056-1.471 2.32-2.592 3.792-3.359 1.472-.768 3.12-1.152 4.944-1.152 3.744,0 6.68,1.496 8.808,4.488 2.128,2.992 3.192,7.272 3.192,12.84zm-7.296,0c0-1.664-.08-3.176-.24-4.536-.161-1.359-.417-2.536-.768-3.528-.353-.99-.833-1.759-1.44-2.303-.608-.545-1.361-.816-2.256-.816-.896,0-1.64,.271-2.232,.816-.592,.544-1.072,1.313-1.44,2.303-.368,.992-.632,2.169-.792,3.528-.161,1.36-.24,2.872-.24,4.536s.079,3.185 .24,4.561c.16,1.376 .424,2.561 .792,3.552 .368,.992 .848,1.761 1.44,2.304 .592,.545 1.336,.816 2.232,.816 .896,0 1.648-.271 2.256-.816 .607-.543 1.087-1.312 1.44-2.304 .352-.991 .607-2.176 .768-3.552 .16-1.377 .24-2.897 .24-4.561z"/>
<path d="m143.236,204.463c.192-2.336 .592-4.768 1.2-7.297 .607-2.527 1.352-5.008 2.232-7.439 .88-2.432 1.864-4.729 2.952-6.889 1.087-2.16 2.191-4.023 3.312-5.591h-14.448v-6.096h23.28v5.184c-1.025,1.121-2.153,2.672-3.384,4.656-1.232,1.984-2.4,4.232-3.504,6.744-1.104,2.513-2.064,5.208-2.88,8.088-.816,2.881-1.32,5.76-1.512,8.641h-7.248z"/>
<path d="m126.148,76.1c.928-.384 1.896-.823 2.904-1.32 1.008-.496 1.992-1.04 2.952-1.632 .96-.591 1.88-1.215 2.76-1.872 .88-.656 1.672-1.352 2.376-2.088h4.992v33.264h-7.152v-23.952c-.96,.641-2.032,1.224-3.216,1.752-1.184,.528-2.336,.984-3.456,1.368l-2.16-5.52z"/>
<path d="m172.372,69.188v19.968h3.552v5.856h-3.552v7.44h-7.008v-7.44h-14.352v-5.232c.704-1.408 1.584-3 2.64-4.776 1.056-1.776 2.232-3.6 3.528-5.472s2.664-3.704 4.104-5.496c1.44-1.792 2.88-3.408 4.32-4.848h6.768zm-7.008,8.736c-1.248,1.632-2.576,3.408-3.984,5.328-1.409,1.92-2.592,3.888-3.552,5.904h7.536v-11.232z"/>
<path d="m74.588,254.845c8.304,0 16.607,0 24.911,0 6.449,0 6.449-10 0-10-8.304,0-16.607,0-24.911,0-6.448,0-6.448,10 0,10z"/>
</g>
</svg>
