<svg xmlns="http://www.w3.org/2000/svg" viewBox="20 20 321 321">
<g fill="#000">
<circle cx="165.322" cy="258.605" r="33.186"/>
<path d="m115.789,87.815c0-3.228-2.619-5.847-5.848-5.847h-39.228v140.114h39.228c3.229,0 5.848-2.617 5.848-5.846v-128.421z"/>
<path d="m70.713,226.039v32.566h57.283c.001-20.662 16.75-37.411 37.412-37.411 20.626,0 37.351,16.691 37.409,37.306 7.124-.541 9.017-3.393 9.017-11.923 0,0 0-39.946 0-63.216 0-.531-.128-1.721-.287-2.617h-.016c.03-.961-.179-1.941-.688-2.838l-26.662-46.774c-.824-1.445-2.219-2.342-3.737-2.617-.497-.129-1.008-.221-1.545-.221h-52.984c-3.386,0-6.131,2.746-6.131,6.131v45.218c0,.377 .046,.743 .111,1.102h-.125v-.049l-.225,46.246-48.832-.903zm57.196-84.699c0-2.909 2.359-5.27 5.27-5.27h45.542c.461,0 .901,.08 1.327,.19 1.306,.236 2.503,1.007 3.211,2.249l17.155,30.095h-.018c.422,.746 .885,1.559 1.379,2.428 2.207,3.879-.581,6.704-3.874,6.704-16.899,0-64.723,0-64.723,0-2.823,0-5.107-2.227-5.244-5.014l-.026,.001v-.257-8.137-22.989z"/>
<path d="m282.609,284.053c-12.317,0-24.636,0-36.953,0-1.837,0-3.675,0-5.512,0-1.631,0 3.31,4.065 2.91,1.864-.095-.524-.126-.882-.247-1.984-.702-6.362-1.165-12.754-1.666-19.134-1.051-13.365-2.004-26.737-2.926-40.111-.026-.386-.053-.771-.079-1.155 .014,.202-2.971,.366-1.308,.366 2.158,0 4.316,0 6.475,0 7.618,0 15.236,0 22.854,0 6.675,0 13.349,0 20.022,0-1.943,0-1.777-1.083-1.887,.506-.073,1.058-.146,2.114-.22,3.172-.263,3.777-.529,7.555-.799,11.332-.706,9.879-1.433,19.757-2.224,29.63-.336,4.202-.686,8.403-1.086,12.6-.132,1.378-.272,2.755-.437,4.129-.088,.742 .05-.237-.095,.65-.221,1.356-.546,.027 1.408-1.387-3.619,2.619-.132,8.696 3.533,6.045 2.899-2.099 2.415-7.563 2.712-10.735 .683-7.279 1.232-14.571 1.786-21.862 .874-11.498 1.696-23.001 2.484-34.506 .465-6.804-5.552-6.573-10.157-6.573-7.311,0-14.621,0-21.931,0-6.74,0-13.48,0-20.22,0-4.465,0-8.267,1.499-7.886,7.046 1.401,20.423 2.38,40.99 4.795,61.322 .317,2.674 .687,5.786 4.185,5.786 4.303,0 8.606,0 12.909,0 9.853,0 19.704,0 29.556,0 4.518-.001 4.518-7.001 .004-7.001z"/>
<path d="m271.021,198.849c-.139,1.362-12.843,2.925-14.304,3.219-.405,.081-4.632,1.227-4.742,.677-.487-2.424-.976-4.847-1.463-7.271-.024-.122 13.305-2.739 14.332-2.945 .864-.174 4.57-1.53 4.813-.324 .472,2.348 .944,4.695 1.417,7.043 .382,1.896 3.272,1.092 2.893-.797-.558-2.771-.689-6.091-2.053-8.593-1.157-2.125-4.649-.87-6.393-.52-4.133,.832-8.266,1.664-12.399,2.495-2.627,.529-5.257,.697-5.582,3.913-.205,2.022 .749,6.498 1.719,8.28 1.499,2.758 4.288,1.731 6.78,1.23 4.133-.832 8.266-1.663 12.398-2.494 2.629-.529 5.256-.697 5.583-3.914 .197-1.923-2.805-1.905-2.999,.001z"/>
<path d="m235.229,210.633c18.079-3.788 36.158-7.576 54.237-11.364 4.503-.943 2.593-7.821-1.896-6.881-18.079,3.788-36.158,7.576-54.237,11.364-4.503,.943-2.593,7.821 1.896,6.881z"/>
<path d="m257.721,230.874c.052,15.656 .103,31.313 .154,46.97 .015,4.514 7.015,4.515 7,0-.052-15.656-.103-31.313-.154-46.97-.015-4.514-7.015-4.515-7,0z"/>
<path d="m271.988,230.874c-.49,15.656-.98,31.313-1.471,46.97-.142,4.517 6.859,4.503 7,0 .49-15.656 .98-31.313 1.471-46.97 .142-4.517-6.859-4.503-7,0z"/>
<path d="m243.656,230.874c.525,15.656 1.051,31.313 1.576,46.97 .151,4.502 7.151,4.517 7,0-.525-15.656-1.051-31.313-1.576-46.97-.151-4.502-7.151-4.517-7,0z"/>
</g>
</svg>
