<svg xmlns="http://www.w3.org/2000/svg" viewBox="20 20 321 321">
<path fill="none"  stroke="#000" stroke-width="10" d="m158.492,198.563c0-2.918-2.366-5.283-5.284-5.283h-14.09c-2.918,0-5.284,2.365-5.284,5.283v82.488c0,2.918 2.366,5.283 5.284,5.283h14.09c2.918,0 5.284-2.365 5.284-5.283v-82.488z"/>
<g fill="#000">
<path d="m140.501,95.667c0,31.222 0,62.445 0,93.667 0,6.448 10,6.448 10,0 0-31.222 0-62.445 0-93.667 0-6.449-10-6.449-10,0z"/>
<path d="m153.242,97.4c0,3.829-3.104,6.934-6.933,6.934h-1.541c-3.829,0-6.934-3.104-6.934-6.934v-20.8c0-3.829 3.104-6.934 6.934-6.934h1.541c3.829,0 6.933,3.104 6.933,6.934v20.8z"/>
<path  stroke="#000" stroke-width="10" d="m224.709,144.381c-2.344,2.343-6.143,2.343-8.485,0l-28.991-28.991c-2.344-2.343-2.344-6.142 0-8.485l6.363-6.364c2.344-2.343 6.143-2.343 8.486,0l28.99,28.991c2.344,2.343 2.344,6.143 0,8.485l-6.363,6.364z"/>
<path d="m216.695,70.842c-10.686,10.686-21.37,21.371-32.055,32.056-4.564,4.564 2.507,11.635 7.07,7.071 10.686-10.686 21.37-21.371 32.055-32.056 4.565-4.563-2.506-11.634-7.07-7.071z"/>
<path d="m252.328,110.163c-9.128,9.128-18.256,18.256-27.383,27.384-4.564,4.564 2.507,11.635 7.07,7.071 9.128-9.128 18.256-18.256 27.383-27.384 4.565-4.564-2.506-11.635-7.07-7.071z"/>
</g>
<g fill="none"  stroke="#000" stroke-width="10">
<path d="m232.354,279.443c0,3.656-1.988,6.621-4.44,6.621h-14.306c-2.452,0-4.439-2.965-4.439-6.621v-140.153c0-3.658 1.987-6.622 4.439-6.622h14.306c2.452,0 4.44,2.964 4.44,6.622v140.153z"/>
<path d="m229.883,272.525c0-3.787-3.071-6.857-6.858-6.857h-5.333c-3.786,0-6.857,3.07-6.857,6.857v4.952c0,3.786 3.071,6.856 6.857,6.856h5.333c3.787,0 6.858-3.07 6.858-6.856v-4.952z"/>
<path d="m209.833,146.917 20,0"/>
</g>
</svg>
