<svg xmlns="http://www.w3.org/2000/svg" viewBox="20 20 321 321">
<g fill="#000">
<path d="m105.625,138.279c1.048,5.987 6.926,6.448 11.827,6.448 6.118,0 12.235,0 18.353,0 14.374,0 28.749,0 43.123,0 4.26,0 11.16,.092 12.124-5.417 1.146-6.549-.081-14.251-8.413-14.251-11.734,0-23.468,0-35.202,0-9.668,0-19.336,0-29.005,0-1.991,0-4.719-.364-6.654,.264-6.168,2-6.277,6.456-6.277,12.026 0,4.514 7,4.514 7,0 0-1.988-.946-5.29 1.847-5.29 1.538,0 3.076,0 4.613,0 6.558,0 13.115,0 19.673,0 13.879,0 27.758,0 41.637,0 .846,0 1.69,0 2.535,0 2.521,0 2.465,5.669-.462,5.669-4.467,0-8.934,0-13.401,0-15.2,0-30.399,0-45.598,0-1.335,0-10.523,1.239-10.969-1.31-.779-4.44-7.524-2.552-6.751,1.861z"/>
<path d="m126.198,141.554c0,4.467 0,8.935 0,13.402 0,4.514 7,4.514 7,0 0-4.467 0-8.935 0-13.402 0-4.514-7-4.514-7,0z"/>
<path d="m115.87,142.076c0,4.487 0,8.974 0,13.461 0,4.514 7,4.514 7,0 0-4.487 0-8.974 0-13.461 0-4.514-7-4.514-7,0z"/>
<path d="m201.835,188.984c0,7.491 0,14.982 0,22.474 0,3.381 0,6.761 0,10.142 0,1.092 1.225,.045-.162,.045-1.926,0-3.851,0-5.776,0-4.351,0-8.701,0-13.053,0-1.866,0-.641,.585-.641,.152 0-1.441 0-2.883 0-4.324 0-7.707 0-15.413 0-23.12 0-2.726-2.274-5-5-5-9.177,0-18.355,0-27.532,0-2.726,0-5,2.274-5,5 0,.814 0,1.63 0,2.444 0,.789 2.14,.08 .902,.08-1.356,0-2.712,0-4.069,0-5.564,0-11.129,0-16.693,0-5.343,0-10.687,0-16.03,0-1.49,0-2.981,0-4.471,0-1.596,0 .608-.062 .641,.204-.107-.883 0-1.838 0-2.729 0-2.726-2.274-5-5-5-5.456,0-10.911,0-16.366,0-.606,0-4.242,.393-4.242-.329 0-2.72 0-5.439 0-8.159 0-2.939 0-5.879 0-8.818 0-1.301 2.424-.663 3.457-.663 5.73,0 11.46,0 17.191,0 0-3.333 0-6.667 0-10-.013,0-.026,0-.04,.001 1.667,1.667 3.333,3.333 5,5 0-1.115 0-2.229 0-3.344 0-1.785 .31-1.344-1.256-1.344 1.266,0 2.532,0 3.798,0 5.773,0 11.546,0 17.319,0 5.773,0 11.546,0 17.319,0 1.266,0 2.532,0 3.798,0-1.567,0-1.257-.442-1.257,1.344 0,1.115 0,2.229 0,3.344 0,2.679 2.274,5.061 5,5 12.955-.291 25.948-.001 38.906-.001 .805,0 13.208-.324 13.258,.05 .771,5.743 0,12.067 0,17.87 0,6.448 10,6.448 10,0 0-3.144 0-6.287 0-9.431 0-3.083 .898-8.13-.359-11.11-3.483-8.255-10.587-7.378-18.013-7.378-14.585,0-29.21-.327-43.792,.001 1.667,1.667 3.333,3.333 5,5 0-6.888-.972-14.688-9.67-14.688-6.73,0-13.459,0-20.189,0-6.608,0-13.217,0-19.826,0-8.85,0-10.035,7.483-10.035,14.688 0,2.675 2.274,5.067 5,5 .013,0 .026,0 .04-.001 6.436-.159 6.458-10 0-10-6.686,0-13.371,0-20.057,0-11.02,0-10.591,10.576-10.591,18.488 0,7.818-.948,19.481 10.295,19.481 6.771,0 13.542,0 20.313,0-1.667-1.667-3.333-3.333-5-5 0,7.098 2.79,12.524 10.447,12.524 6.471,0 12.942,0 19.414,0 6.472,0 12.943,0 19.414,0 7.657,0 10.446-5.427 10.446-12.524-1.667,1.667-3.333,3.333-5,5 9.177,0 18.355,0 27.532,0-1.667-1.667-3.333-3.333-5-5 0,8.92 0,17.84 0,26.761 0,13.146 14.753,10.531 23.693,10.531 4.911,0 9.157,.518 13.228-2.766 3.423-2.761 2.711-8.357 2.711-12.245 0-9.216 0-18.433 0-27.649-.002-6.449-10.002-6.449-10.002-.001z"/>
</g>
<path fill="none"  stroke="#000" stroke-width="10" d="m268.648,215.92c0,1.859-1.634,3.368-3.648,3.368h-13.379c-2.014,0-3.648-1.509-3.648-3.368v-93.397c0-1.861 1.635-3.369 3.648-3.369h13.379c2.015,0 3.648,1.508 3.648,3.369v93.397z"/>
<g fill="#000">
<path  stroke="#000" stroke-width="10" d="m274.121,244.018c0,2.016-1.28,3.649-2.859,3.649h-25.902c-1.579,0-2.86-1.634-2.86-3.649v-21.08c0-2.015 1.281-3.648 2.86-3.648h25.901c1.579,0 2.859,1.634 2.859,3.648v21.08z"/>
<path d="m276.555,131.451c3.648,0 7.297,0 10.945,0 6.448,0 6.448-10 0-10-3.648,0-7.297,0-10.945,0-6.449,0-6.449,10 0,10z"/>
<path d="m276.555,155.775c3.648,0 7.297,0 10.945,0 6.448,0 6.448-10 0-10-3.648,0-7.297,0-10.945,0-6.449,0-6.449,10 0,10z"/>
<path d="m276.555,180.708c3.648,0 7.297,0 10.945,0 6.448,0 6.448-10 0-10-3.648,0-7.297,0-10.945,0-6.449,0-6.449,10 0,10z"/>
<path d="m276.555,206.855c3.648,0 7.297,0 10.945,0 6.448,0 6.448-10 0-10-3.648,0-7.297,0-10.945,0-6.449,0-6.449,10 0,10z"/>
<path  stroke="#000" stroke-width="10" d="m247.973,144.417h20.676v84.398h-20.676z"/>
</g>
</svg>
