<svg xmlns="http://www.w3.org/2000/svg" viewBox="20 20 321 321">
<path fill="none"  stroke="#000" stroke-width="10" d="m268.648,215.92c0,1.859-1.634,3.368-3.648,3.368h-13.379c-2.014,0-3.648-1.509-3.648-3.368v-93.397c0-1.861 1.635-3.369 3.648-3.369h13.379c2.015,0 3.648,1.508 3.648,3.369v93.397z"/>
<g fill="#000">
<path  stroke="#000" stroke-width="10" d="m274.121,244.018c0,2.016-1.28,3.649-2.859,3.649h-25.902c-1.579,0-2.86-1.634-2.86-3.649v-21.08c0-2.015 1.281-3.648 2.86-3.648h25.901c1.579,0 2.859,1.634 2.859,3.648v21.08z"/>
<path d="m276.555,131.451c3.648,0 7.297,0 10.945,0 6.448,0 6.448-10 0-10-3.648,0-7.297,0-10.945,0-6.449,0-6.449,10 0,10z"/>
<path d="m276.555,155.775c3.648,0 7.297,0 10.945,0 6.448,0 6.448-10 0-10-3.648,0-7.297,0-10.945,0-6.449,0-6.449,10 0,10z"/>
<path d="m276.555,180.708c3.648,0 7.297,0 10.945,0 6.448,0 6.448-10 0-10-3.648,0-7.297,0-10.945,0-6.449,0-6.449,10 0,10z"/>
<path d="m276.555,206.855c3.648,0 7.297,0 10.945,0 6.448,0 6.448-10 0-10-3.648,0-7.297,0-10.945,0-6.449,0-6.449,10 0,10z"/>
<path  stroke="#000" stroke-width="10" d="m247.973,144.417h20.676v84.398h-20.676z"/>
<path d="m76.175,114.063c6.866-1.167 13.732-2.335 20.599-3.502 6.348-1.079 3.647-10.715-2.658-9.643-6.866,1.167-13.732,2.335-20.599,3.502-6.348,1.079-3.648,10.715 2.658,9.643z"/>
<path d="m96.773,121.386c-6.872-1.169-13.745-2.338-20.617-3.506-6.306-1.073-9.006,8.563-2.658,9.643 6.872,1.169 13.745,2.338 20.617,3.506 6.306,1.072 9.006-8.564 2.658-9.643z"/>
<path d="m96.773,135.348c-6.861-1.167-13.722-2.333-20.583-3.5-6.306-1.072-9.006,8.563-2.658,9.643 6.861,1.167 13.722,2.333 20.583,3.5 6.306,1.072 9.006-8.564 2.658-9.643z"/>
<path d="m96.773,149.31c-6.868-1.168-13.736-2.336-20.604-3.504-6.306-1.072-9.006,8.563-2.658,9.643 6.868,1.168 13.736,2.336 20.604,3.504 6.306,1.072 9.006-8.563 2.658-9.643z"/>
<path d="m96.773,163.272c-6.821-1.16-13.642-2.32-20.463-3.479-6.306-1.072-9.006,8.563-2.658,9.643 6.821,1.16 13.642,2.32 20.463,3.479 6.306,1.072 9.006-8.564 2.658-9.643z"/>
<path d="m96.484,110.792c18.311,0 36.622,0 54.932,0 6.449,0 6.449-10 0-10-18.311,0-36.622,0-54.932,0-6.448,0-6.448,10 0,10z"/>
<path d="m96.484,173.332c13.732,0 27.463,0 41.195,0 6.449,0 6.449-10 0-10-13.732,0-27.463,0-41.195,0-6.448,0-6.448,10-0,10z"/>
<path d="m178.5,110.792c6.945,0 13.889,0 20.833,0 6.448,0 6.448-10 0-10-6.944,0-13.889,0-20.833,0-6.449,0-6.449,10 0,10z"/>
<path d="m151.362,88.731c8.758,6.694 17.517,13.388 26.274,20.082 0-2.015 0-4.029 0-6.044-8.758,6.694-17.516,13.388-26.274,20.082 1.755,1.007 3.511,2.015 5.267,3.022 0-13.388 0-26.776 0-40.164 0-4.514-7-4.514-7,0 0,13.388 0,26.776 0,40.164 0,2.405 3.078,4.695 5.267,3.022 8.758-6.694 17.516-13.388 26.274-20.082 2.225-1.7 2.225-4.344 0-6.044-8.758-6.694-17.517-13.388-26.274-20.082-3.588-2.742-7.068,3.343-3.534,6.044z"/>
</g>
<path fill="none"  stroke="#000" stroke-width="10" d="m69.952,74.641h16.758c15.116,0 27.372,2.366 27.372,5.285v201.484c0,2.918-12.255,5.283-27.372,5.283h-16.758"/>
</svg>
