<svg xmlns="http://www.w3.org/2000/svg" viewBox="20 20 321 321">
<path fill="none"  stroke="#000" stroke-linejoin="round" stroke-width="10" d="m98.564,219.33c0,0 11.903,.275 26.585,.275h38.415c14.682,0 26.585-.275 26.585-.275v-137.418c0-2.835-24.53-7.076-39.211-7.076-11.353,0-1.809,0-13.162,0-14.682,0-39.211,4.241-39.211,7.076v137.418z"/>
<g fill="#000">
<path d="m104.976,284.598c1.015,6.291 6.461,6.569 11.494,6.569 6.52,0 13.04,0 19.559,0 13.127,0 26.254,0 39.381,0 6.12,0 8.187-4.281 8.63-9.662 .703-8.55 1.405-17.099 2.104-25.648 .15-1.841 .301-3.683 .45-5.524 .145-1.771 1.771-3.345 2.356-5.078 1.307-3.868 .804-9.27 1.136-13.324 .487-5.955 2.779-16.949-6.742-16.949-24.368,0-48.735,0-73.102,0-3.95,0-7.515-.418-10.595,2.663-2.2,2.199-1.757,5.33-1.532,8.091 .386,4.74 .772,9.48 1.161,14.221 .132,1.616-.043,3.752 .484,5.299 .591,1.731 2.229,3.311 2.375,5.078 .367,4.463 .73,8.927 1.094,13.39 .542,6.648 1.082,13.297 1.622,19.945 .362,4.467 7.365,4.502 7,0-.54-6.648-1.08-13.297-1.622-19.945-.341-4.196-.684-8.392-1.028-12.588-.131-1.601-.087-3.374-.937-4.804-1.407-2.367-1.764-3.639-1.988-6.375-.364-4.445-.727-8.891-1.089-13.337-.096-1.182-1.126-4.638 .748-4.638 4.247,0 8.493,0 12.739,0 15.496,0 30.992,0 46.488,0 5.314,0 10.629,0 15.944,0 .369,0 2.824-.339 2.75,.577-.289,3.513-.576,7.026-.864,10.54-.265,3.239-.529,6.479-.793,9.719-.135,1.664-1.56,2.78-2.09,4.351-.436,1.291-.469,2.617-.579,3.967-.56,6.886-1.126,13.77-1.691,20.654-.083,1.019-.297,12.379-1.557,12.379-2.541,0-5.081,0-7.621,0-11.512,0-23.023,0-34.535,0-5.123,0-10.246,0-15.369,0-1.883,0-6.623,1.098-7.031-1.431-.718-4.449-7.462-2.555-6.75,1.86z"/>
<path d="m190.148,125.503c-30.528,0-61.056,0-91.584,0-1.935,0-1.935,3 0,3 30.528,0 61.056,0 91.584,0 1.935,0 1.935-3 0-3z"/>
<path d="m190.148,97.17c-30.528,0-61.056,0-91.584,0-1.935,0-1.935,3 0,3 30.528,0 61.056,0 91.584,0 1.935,0 1.935-3 0-3z"/>
<path d="m70.44,138.934c1.32,8.185 10.646,6.569 16.714,6.569 5.854,0 14.91,.874 14.91-7.648 0-11.395 0-22.79 0-34.185 0-9.062-10.883-7.5-16.838-7.5-5.854,0-14.91-.874-14.91,7.648 0,11.395 0,22.79 0,34.185 0,4.514 7,4.514 7,0 0-9.402 0-18.805 0-28.207 0-3.439-1.29-6.626 2.764-6.626 4.804,0 9.608,0 14.412,0 1.176,0 .572,26.249 .572,28.707 0,3.439 1.29,6.626-2.764,6.626-2.57,0-14.626,1.566-15.109-1.431-.718-4.447-7.462-2.553-6.751,1.862z"/>
<path d="m80.689,118.67c0,1.657 1.343,3 3,3h4c1.657,0 3-1.343 3-3v-8.333c0-1.657-1.343-3-3-3h-4c-1.657,0-3,1.343-3,3v8.333z"/>
<path d="m83.316,133.67c1.444,0 2.889,0 4.333,0 1.908,0 3.5-1.592 3.5-3.5 0-1.908-1.592-3.5-3.5-3.5-1.444,0-2.889,0-4.333,0-1.908,0-3.5,1.592-3.5,3.5 0,1.908 1.592,3.5 3.5,3.5z"/>
<path d="m197.9,211.563c-.077,4.753-1.012,17.397-7.845,17.874-1.919,.134-1.932,3.135 0,3 9.067-.632 10.733-14.026 10.845-20.874 .032-1.935-2.968-1.932-3,0z"/>
<path d="m187.148,211.854c0,1.657 1.344,3 3,3h6.688c1.656,0 3-1.343 3-3v-16.875c0-1.657-1.344-3-3-3h-6.688c-1.656,0-3,1.343-3,3v16.875z"/>
<path d="m198.734,190.375c-.557,7.098-1.113,14.195-1.67,21.293-.151,1.93 2.85,1.915 3,0 .557-7.098 1.113-14.195 1.67-21.293 .152-1.93-2.849-1.915-3,0z"/>
<path d="m88.072,211.563c.111,6.847 1.777,20.242 10.844,20.874 1.932,.135 1.919-2.866 0-3-6.833-.477-7.767-13.121-7.844-17.874-.031-1.932-3.031-1.935-3,0z"/>
<path d="m101.824,211.854c0,1.657-1.343,3-3,3h-6.688c-1.657,0-3-1.343-3-3v-16.875c0-1.657 1.343-3 3-3h6.688c1.657,0 3,1.343 3,3v16.875z"/>
<path d="m87.237,190.375c.557,7.098 1.114,14.195 1.67,21.293 .15,1.915 3.151,1.93 3,0-.557-7.098-1.114-14.195-1.67-21.293-.15-1.915-3.151-1.93-3,0z"/>
<path d="m260.815,161.299c16.534-.394 29.439-13.299 29.833-29.833 .046-1.936-2.954-1.931-3,0-.354,14.891-11.941,26.479-26.833,26.833-1.931,.046-1.935,3.046-0,3z"/>
<path d="m260.815,147.299c8.792-.237 15.596-7.042 15.833-15.833 .052-1.936-2.948-1.931-3,0-.192,7.141-5.692,12.641-12.833,12.833-1.93,.053-1.935,3.053 0,3z"/>
<path d="m272.822,129.083c.844,6.286 8.522,4.638 13.132,4.638 6.353,0 5.38-6.363 5.38-10.859 0-6.292-9.186-4.638-13.134-4.638-6.341,0-5.378,6.36-5.378,10.859 0,1.935 3,1.935 3,0 0-1.855-1.08-7.859 2.067-7.859 2.935,0 5.87,0 8.806,0 2.536,0 2.686,9.497-.431,9.497-1.844,0-10.058,1.224-10.442-1.638-.254-1.888-3.257-1.913-3,0z"/>
<path d="m290.648,131.463c0-20.099 0-40.197 0-60.296 0-1.935-3-1.935-3,0 0,20.099 0,40.197 0,60.296 0,1.934 3,1.934 3,0z"/>
<path d="m276.482,131.463c0-20.099 0-40.197 0-60.296 0-1.935-3-1.935-3,0 0,20.099 0,40.197 0,60.296 0,1.934 3,1.934 3,0z"/>
<path d="m261.076,161.946c5.942-.798 4.239-9.187 4.239-13.39 0-6.096-6.676-5.068-10.859-5.068-6.289,0-4.638,9.185-4.638,13.134 0,6.344 6.354,5.378 10.859,5.378 1.935,0 1.935-3 0-3-1.872,0-7.859,1.077-7.859-2.068 0-2.935 0-5.871 0-8.806 0-2.305 4.175-1.638 5.329-1.638 1.687,0 4.168-.471 4.168,2.068 0,2.528 1.32,10.046-2.036,10.497-1.91,.257-1.093,3.148 .797,2.893z"/>
<path d="m262.484,144.161c-23.833,0-47.666,0-71.499,0-1.935,0-1.935,3 0,3 23.833,0 47.666,0 71.499,0 1.935,0 1.935-3 0-3z"/>
<path d="m262.484,158.328c-23.833,0-47.666,0-71.499,0-1.935,0-1.935,3 0,3 23.833,0 47.666,0 71.499,0 1.935,0 1.935-3 0-3z"/>
<path d="m222.566,209.707c21.334,0 42.667,0 64.001,0 6.448,0 6.448-10 0-10-21.334,0-42.667,0-64.001,0-6.448,0-6.448,10 0,10z"/>
<path d="m223.4,205.128c0,27.18 0,54.358 0,81.538 0,1.935 3,1.935 3,0 0-27.18 0-54.358 0-81.538 0-1.935-3-1.935-3,0z"/>
<path d="m228.795,205.128c0,27.18 0,54.358 0,81.538 0,1.935 3,1.935 3,0 0-27.18 0-54.358 0-81.538 0-1.935-3-1.935-3,0z"/>
<path d="m234.189,205.128c0,27.18 0,54.358 0,81.538 0,1.935 3,1.935 3,0 0-27.18 0-54.358 0-81.538 0-1.935-3-1.935-3,0z"/>
<path d="m239.582,205.128c0,27.18 0,54.358 0,81.538 0,1.935 3,1.935 3,0 0-27.18 0-54.358 0-81.538 0-1.935-3-1.935-3,0z"/>
<path d="m244.977,205.128c0,27.18 0,54.358 0,81.538 0,1.935 3,1.935 3,0 0-27.18 0-54.358 0-81.538 0-1.935-3-1.935-3,0z"/>
<path d="m250.371,205.129c0,27.18 0,54.358 0,81.538 0,1.935 3,1.935 3,0 0-27.18 0-54.358 0-81.538 0-1.935-3-1.935-3,0z"/>
<path d="m255.764,205.129c0,27.179 0,54.358 0,81.537 0,1.935 3,1.935 3,0 0-27.179 0-54.358 0-81.537 0-1.935-3-1.935-3,0z"/>
<path d="m261.158,205.128c0,27.18 0,54.358 0,81.538 0,1.935 3,1.935 3,0 0-27.18 0-54.358 0-81.538 0-1.935-3-1.935-3,0z"/>
<path d="m266.553,205.129c0,27.179 0,54.358 0,81.537 0,1.935 3,1.935 3,0 0-27.179 0-54.358 0-81.537 0-1.935-3-1.935-3,0z"/>
<path d="m271.945,205.128c0,27.18 0,54.358 0,81.538 0,1.935 3,1.935 3,0 0-27.18 0-54.358 0-81.538 0-1.935-3-1.935-3,0z"/>
<path d="m277.34,205.129c0,27.179 0,54.358 0,81.537 0,1.935 3,1.935 3,0 0-27.179 0-54.358 0-81.537 0-1.935-3-1.935-3,0z"/>
<path d="m282.734,205.128c0,27.18 0,54.358 0,81.538 0,1.935 3,1.935 3,0 0-27.18 0-54.358 0-81.538 0-1.935-3-1.935-3,0z"/>
<path d="m222.566,291.667c21.334,0 42.667,0 64.001,0 6.448,0 6.448-10 0-10-21.334,0-42.667,0-64.001,0-6.448,0-6.448,10 0,10z"/>
</g>
</svg>
