<svg xmlns="http://www.w3.org/2000/svg" viewBox="20 20 321 321">
<g fill="#000">
<path d="m175.875,75.069c0,25.243 0,50.487 0,75.73 0,6.449 10,6.449 10,0 0-25.243 0-50.487 0-75.73 0-6.448-10-6.448-10,0z"/>
<path d="m156.315,87.01c7.359,4.249 14.719,8.498 22.078,12.747 5.595,3.23 10.628-5.412 5.047-8.635-7.36-4.249-14.719-8.498-22.079-12.747-5.594-3.23-10.628,5.412-5.046,8.635z"/>
<path d="m200.138,78.375c-7.359,4.249-14.719,8.498-22.078,12.747-5.582,3.223-.548,11.865 5.047,8.635 7.359-4.249 14.719-8.498 22.078-12.747 5.581-3.223 .547-11.865-5.047-8.635z"/>
<path d="m112.505,116.379c21.861,12.622 43.723,25.244 65.584,37.866 5.595,3.23 10.628-5.412 5.047-8.635-21.861-12.622-43.723-25.244-65.584-37.866-5.594-3.23-10.628,5.412-5.047,8.635z"/>
<path d="m113.136,139.275c7.359-4.249 14.719-8.498 22.078-12.747 5.582-3.222 .548-11.865-5.047-8.635-7.359,4.249-14.719,8.498-22.078,12.747-5.582,3.223-.548,11.866 5.047,8.635z"/>
<path d="m127.525,97.006c0,8.498 0,16.996 0,25.494 0,6.449 10,6.449 10,0 0-8.498 0-16.996 0-25.494 0-6.448-10-6.448-10,0z"/>
<path d="m117.719,192.058c21.862-12.622 43.724-25.244 65.585-37.866 5.581-3.222 .548-11.865-5.047-8.635-21.862,12.622-43.724,25.244-65.585,37.866-5.582,3.223-.548,11.865 5.047,8.635z"/>
<path d="m137.816,203.012c0-8.498 0-16.995 0-25.493 0-6.449-10-6.449-10,0 0,8.498 0,16.995 0,25.493 0,6.448 10,6.448 10,0z"/>
<path d="m108.381,169.378c7.359,4.249 14.719,8.498 22.078,12.747 5.595,3.23 10.628-5.413 5.047-8.635-7.359-4.249-14.719-8.498-22.078-12.747-5.595-3.23-10.629,5.413-5.047,8.635z"/>
<path d="m185.791,225.879c0-25.244 0-50.488 0-75.731 0-6.449-10-6.449-10,0 0,25.244 0,50.487 0,75.731 0,6.448 10,6.448 10,0z"/>
<path d="m205.352,213.937c-7.359-4.249-14.719-8.497-22.078-12.746-5.595-3.23-10.628,5.412-5.047,8.635 7.359,4.249 14.719,8.497 22.078,12.746 5.594,3.23 10.629-5.413 5.047-8.635z"/>
<path d="m161.529,222.571c7.36-4.249 14.719-8.497 22.079-12.746 5.582-3.223 .548-11.865-5.047-8.635-7.36,4.249-14.719,8.497-22.079,12.746-5.582,3.223-.548,11.866 5.047,8.635z"/>
<path d="m249.161,183.991c-21.861-12.622-43.724-25.244-65.585-37.865-5.595-3.23-10.628,5.413-5.047,8.635 21.861,12.622 43.723,25.244 65.585,37.865 5.595,3.23 10.628-5.412 5.047-8.635z"/>
<path d="m248.53,161.095c-7.359,4.249-14.718,8.498-22.077,12.747-5.581,3.223-.548,11.865 5.047,8.635 7.359-4.249 14.719-8.498 22.077-12.747 5.581-3.223 .548-11.865-5.047-8.635z"/>
<path d="m234.143,203.364c0-8.498 0-16.996 0-25.494 0-6.449-10-6.449-10,0 0,8.498 0,16.996 0,25.494 0,6.449 10,6.449 10,0z"/>
<path d="m243.947,108.313c-21.861,12.622-43.723,25.244-65.584,37.866-5.582,3.223-.548,11.865 5.047,8.635 21.861-12.622 43.723-25.244 65.584-37.866 5.581-3.223 .548-11.865-5.047-8.635z"/>
<path d="m223.851,97.357c0,8.498 0,16.996 0,25.494 0,6.449 10,6.449 10,0 0-8.498 0-16.996 0-25.494 0-6.448-10-6.448-10,0z"/>
<path d="m253.285,130.992c-7.359-4.249-14.719-8.499-22.078-12.748-5.595-3.23-10.628,5.412-5.047,8.635 7.359,4.249 14.719,8.499 22.078,12.748 5.595,3.23 10.628-5.412 5.047-8.635z"/>
<path d="m73.91,262.623c14.309-4.273 29.88-9.737 44.725-5.798 13.733,3.644 24.522,9.047 37.334,13.771 8.028,2.961 17.078,6.563 25.777,6.355 8.901-.211 18.075-4.049 26.295-7.12 12.568-4.695 23.734-10.115 37.465-13.573 8.333-2.1 16.198-.325 24.425,1.565 6.082,1.397 12.129,3.013 18.109,4.799 4.337,1.295 6.176-5.462 1.861-6.75-13.771-4.113-29.717-9.766-44.154-6.846-13.313,2.692-26.022,8.832-37.63,13.318-8.298,3.207-17.406,7.019-26.371,7.606-8.511,.559-18.18-3.957-25.978-6.87-11.988-4.479-24.062-10.198-37.463-13.573-15.134-3.813-31.75,2.032-46.257,6.364-4.314,1.29-2.475,8.047 1.862,6.752z"/>
<path d="m84.527,274.656c8.096-2.937 17.363-5.841 26.041-5.271 8.938,.586 18.205,4.713 26.467,7.906 4.698,1.815 6.854,2.816 11.538,4.694 8.487,3.401 17.205,6.659 26.187,8.475 8.451,1.709 16.538-.71 24.56-3.319 6.566-2.137 13.023-4.648 19.378-7.349 4.279-1.817 12.164-4.806 17.791-6.679 4.291-1.429 8.654-2.688 13.108-3.498 5.435-.986 11.162,.371 16.437,1.629 3.846,.918 7.67,2.063 11.389,3.412 4.254,1.543 6.07-5.224 1.861-6.75-8.368-3.034-17.38-5.407-26.312-5.594-8.72-.182-18.024,3.799-26.051,6.759-12.716,4.689-23.662,10.036-37.395,13.68-8.951,2.375-16.381,.455-25.037-2.36-5.634-1.833-13.519-4.856-17.791-6.679-14.845-6.336-30.659-13.172-47.027-10.42-5.764,.97-11.512,2.622-17.007,4.614-4.207,1.527-2.391,8.293 1.863,6.75z"/>
<path d="m84.691,246.307c8.096-2.937 17.363-5.842 26.041-5.272 8.938,.586 18.204,4.713 26.466,7.906 4.698,1.815 6.854,2.816 11.538,4.693 8.488,3.402 17.206,6.659 26.188,8.476 8.451,1.708 16.538-.711 24.56-3.32 6.566-2.136 13.023-4.648 19.378-7.348 4.279-1.817 12.164-4.806 17.791-6.679 4.292-1.429 8.655-2.688 13.109-3.498 5.435-.986 11.162,.371 16.436,1.63 3.846,.918 7.67,2.063 11.388,3.412 4.254,1.543 6.07-5.224 1.861-6.75-8.367-3.035-17.378-5.408-26.31-5.595-8.72-.182-18.025,3.799-26.051,6.759-12.716,4.689-23.662,10.036-37.395,13.679-8.951,2.375-16.382,.455-25.037-2.36-5.635-1.833-13.52-4.855-17.791-6.678-14.844-6.336-30.659-13.172-47.026-10.42-5.765,.97-11.513,2.623-17.007,4.615-4.208,1.526-2.392,8.293 1.861,6.75z"/>
</g>
</svg>
