<svg xmlns="http://www.w3.org/2000/svg" viewBox="20 20 321 321">
<g fill="#000">
<path d="m284.168,154.532c-1.137,2.348-4.997,.033-6.552-.478-4.663-1.531-9.325-3.062-13.987-4.593-14.369-4.718-28.738-9.436-43.106-14.153-21.329-7.003-42.659-14.006-63.988-21.01-1.062-.348 1.057-7.813 2.739-7.261 .586,.192 1.172,.385 1.758,.577 3.583,1.176 7.165,2.353 10.748,3.529 13.391,4.397 26.784,8.794 40.175,13.191 24.104,7.914 48.207,15.828 72.311,23.742 2.91,.956 .23,5.218-.45,7.292-1.412,4.301 5.349,6.129 6.75,1.861 1.854-5.646 4.301-13.033-3.421-15.569-2.213-.727-4.425-1.453-6.638-2.18-11.953-3.924-23.905-7.849-35.858-11.773-26.427-8.677-52.854-17.354-79.281-26.031-2.448-.804-4.821-1.854-7.444-1.638-5.885,.484-11.295,12.184-7.876,17.228 3.755,5.539 14.353,6.976 20.242,8.91 28.785,9.451 57.57,18.902 86.354,28.354 6.502,2.134 13.003,4.269 19.504,6.404 5.152,1.691 10.976,3.513 14.065-2.868 1.958-4.045-4.077-7.596-6.045-3.534z"/>
<g  stroke="#000">
<path d="m163.796,117.564-8.637-2.835 10.141-6.595 8.638,2.837z"/>
<path d="m182.173,123.598-8.639-2.836 10.142-6.594 8.638,2.836z"/>
<path d="m200.014,129.71-8.639-2.836 10.143-6.594 8.638,2.837z"/>
<path d="m218.465,135.515-8.639-2.837 10.143-6.594 8.637,2.836z"/>
<path d="m236.303,141.245-8.638-2.837 10.143-6.594 8.637,2.837z"/>
<path d="m254.832,147.2-8.639-2.836 10.142-6.594 8.639,2.837z"/>
<path d="m274.893,153.914-8.639-2.836 10.142-6.594 8.638,2.837z"/>
</g>
<path d="m279.228,251.644c.128-.953 .893-.647-.809-.647-1.521,0-3.041,0-4.561,0-5.241,0-10.482,0-15.724,0-15.533,0-31.065,0-46.599,0-14.509,0-29.018,0-43.527,0-3.961,0-7.921,0-11.882,0-.642,0-1.284,0-1.925,0 .896,0 .606,.896 .606-1.125 0-26.331 0-52.662 0-78.993 0-1.238 0-2.476 0-3.714 0-.445-1.156,.271 .008,.271 3.167,0 6.335,0 9.502,0 13.761,0 27.521,0 41.281,0 24.635,0 49.269,0 73.903,0 .818,0-.275-1.136-.275-.107 0,1.504 0,3.008 0,4.512 0,6.044 0,12.089 0,18.133 0,15.63 0,31.26 0,46.89 .002,4.925 .002,9.853 .002,14.78 0,6.448 10,6.448 10,0 0-24.817 0-49.636 0-74.453 0-8.185 1.394-19.756-10.371-19.756-9.648,0-19.298,0-28.946,0-29.26,0-58.52,0-87.779,0-2.602,0-5.203,0-7.805,0-6.014,0-9.518,4.991-9.518,10.551 0,12.089 0,24.178 0,36.267 0,14.112 0,28.225 0,42.338 0,3.755-.62,9.07 2.739,11.667 3.35,2.589 6.28,2.739 10.168,2.739 27.732,0 55.466,0 83.198,0 10.33,0 20.66,0 30.99,0 7.649,0 15.973,.698 17.323-9.353 .857-6.376-9.154-6.293-9.999,0z"/>
<path d="m281.578,173.168c-.451,2.92-4.559,1.783-6.756,1.783-5.203,0-10.406,0-15.609,0-15.49,0-30.981,0-46.473,0-14.67,0-29.34,0-44.01,0-4.177,0-8.354,0-12.531,0-.787,0-1.574,0-2.361,0-1.412,0-1.228-7.747-.155-7.747 22.678,0 45.357,0 68.035,0 14.67,0 29.341,0 44.011,0 4.177,0 8.354,0 12.53,0 .787,0 1.574,0 2.361,0 1.447,0 .833,5.92 .833,6.895 0,4.514 7,4.514 7,0 0-5.758 .213-13.895-7.833-13.895-2.579,0-5.157,0-7.736,0-13.115,0-26.231,0-39.348,0-26.14,0-52.28,0-78.421,0-5.119,0-9.11,2.955-9.11,8.479 0,5.827 .171,13.268 8.036,13.268 8.668,0 17.336,0 26.005,0 29.833,0 59.666,0 89.499,0 6.537,0 17.403,2.007 18.783-6.922 .683-4.414-6.062-6.311-6.75-1.861z"/>
<g  stroke="#000">
<path d="m161.354,175.791-9.092,0 7.579-9.428 9.092,0z"/>
<path d="m180.694,175.791-9.091,0 7.578-9.428 9.092,0z"/>
<path d="m199.553,176.032-9.093,0 7.579-9.429 9.092,0z"/>
<path d="m218.893,175.791-9.092,0 7.579-9.428 9.092,0z"/>
<path d="m237.629,175.67-9.092,0 7.579-9.429 9.092,0z"/>
<path d="m257.091,175.549-9.092,0 7.578-9.428 9.093,0z"/>
<path d="m275.244,175.67-9.092,0 7.58-9.429 9.092,0z"/>
</g>
<path d="m99.86,253.971c5.789,11.339 11.579,22.679 17.368,34.018 1.337,2.618 5.817,2.105 6.397-.836 2.463-12.491 4.926-24.982 7.389-37.474 .558-2.831-1.605-4.683-4.306-4.306-8.252,1.152-16.504,2.304-24.757,3.456-4.455,.622-2.552,7.366 1.861,6.75 8.252-1.152 16.504-2.304 24.757-3.456-1.436-1.436-2.871-2.87-4.306-4.306-2.463,12.491-4.926,24.982-7.389,37.474 2.132-.278 4.265-.558 6.397-.836-5.789-11.339-11.579-22.679-17.368-34.018-2.052-4.021-8.091-.478-6.043,3.534z"/>
<path d="m94.452,245.259c1.101,4.939 4.442,8.326 9.317,9.629 2.912,.778 6.609-.226 9.543-.635 7.375-1.029 16.141-.763 19.655-8.698 2.434-5.497-.367-14.719-1.155-20.364-4.09-29.296-8.179-58.592-12.269-87.889-2.852-20.431-5.704-40.862-8.556-61.292-1.141-8.172-9.875-7.293-15.944-6.446-5.817,.812-15.898,.522-20.591,4.558-5.058,4.349-1.873,14.442-1.07,20.193 7.01,50.22 14.021,100.44 21.031,150.66 .012,.094 .025,.189 .039,.284 .622,4.455 7.366,2.552 6.75-1.861-6.862-49.156-13.724-98.313-20.585-147.469-.549-3.935-1.098-7.87-1.647-11.805-.49-3.51-1.222-4.771 3.343-5.747 5.701-1.219 11.695-1.753 17.481-2.445 4.563-.546 4.43,1.835 4.9,5.199 3.52,25.218 7.041,50.437 10.561,75.655 3.187,22.827 6.373,45.654 9.56,68.481 .695,4.983 1.391,9.967 2.087,14.95 .751,5.382-5.033,5.831-8.794,6.356-5.323,.743-15.228,4.344-16.903-3.177-.985-4.404-7.733-2.536-6.753,1.863z"/>
<path d="m112.007,269.357 8.104,15.874 3.449-17.486z"/>
<path d="m108.985,271.124c2.701,5.291 5.403,10.583 8.104,15.874 1.337,2.618 5.817,2.105 6.397-.836 1.149-5.829 2.299-11.658 3.448-17.486 .558-2.831-1.605-4.683-4.306-4.306-3.851,.537-7.702,1.075-11.553,1.612-4.455,.622-2.552,7.366 1.861,6.75 3.851-.537 7.702-1.075 11.553-1.612-1.436-1.436-2.871-2.87-4.306-4.306-1.149,5.829-2.299,11.658-3.448,17.486 2.132-.278 4.265-.558 6.397-.836-2.701-5.291-5.403-10.583-8.104-15.874-2.052-4.021-8.091-.478-6.043,3.534z"/>
</g>
</svg>
