<svg xmlns="http://www.w3.org/2000/svg" viewBox="20 20 321 321">
<g fill="#000">
<g  stroke="#000" stroke-width="10">
<path d="m286.833,262.73c0,1.622-2.595,2.937-5.795,2.937h-200.41c-3.2,0-5.795-1.314-5.795-2.937v-17.127c0-1.622 2.595-2.937 5.795-2.937h200.41c3.2,0 5.795,1.314 5.795,2.937v17.127z"/>
<path d="m214.112,239.09c0,3.152-2.901,5.709-6.478,5.709h-119.297c-3.577,0-6.478-2.557-6.478-5.709v-25.214c0-3.153 2.901-5.709 6.478-5.709h119.298c3.576,0 6.478,2.556 6.478,5.709v25.214z"/>
<path d="m234.833,241.709c0,3.393 2.751,6.143 6.143,6.143h30.715c3.392,0 6.143-2.75 6.143-6.143v-15.869c0-3.393-2.751-6.143-6.143-6.143h-30.715c-3.392,0-6.143,2.75-6.143,6.143v15.869z"/>
</g>
<path d="m69.833,222.391c0,21.512 0,43.022 0,64.534 0,6.448 10,6.448 10,0 0-21.512 0-43.022 0-64.534 0-6.449-10-6.449-10-0z"/>
<path d="m281.833,194.667c0,31.056 0,62.111 0,93.167 0,6.448 10,6.448 10,0 0-31.056 0-62.111 0-93.167 0-6.448-10-6.448-10,0z"/>
<path d="m82.807,140.606c-10.909-19.745-4.202-44.221 15.175-55.727 3.876-2.302 .358-8.354-3.533-6.044-22.684,13.468-30.433,42.232-17.686,65.304 2.182,3.952 8.228,.422 6.044-3.533z"/>
<path d="m138.438,155.619c-19.745,10.908-44.222,4.201-55.727-15.176-2.302-3.876-8.354-.358-6.044,3.533 13.469,22.684 42.232,30.433 65.304,17.687 3.951-2.183 .421-8.228-3.533-6.044z"/>
<path d="m93.93,133.25c-4.229-7.669-5.632-16.662-5.551-25.329 .078-8.201 2.05-18.465 9.583-23.097 3.837-2.359 .324-8.416-3.533-6.044-18.052,11.099-15.396,41.949-6.543,58.003 2.179,3.954 8.225,.423 6.044-3.533z"/>
<path d="m138.438,155.619c-7.882,4.158-17.544,.053-24.635-3.91-7.846-4.385-15.253-10.78-19.883-18.548-2.308-3.873-8.361-.354-6.044,3.533 9.407,15.783 35.112,34.983 54.095,24.969 3.994-2.107 .456-8.148-3.533-6.044z"/>
<g  stroke="#000">
<path d="m120.306,95.711c0,.822-.667,1.49-1.49,1.49-.823,0-1.489-.667-1.489-1.49 0-.824 .666-1.49 1.489-1.49 .822,0 1.49,.666 1.49,1.49z"/>
<path d="m131.956,73.358c0,1.571-1.274,2.845-2.845,2.845-1.571,0-2.845-1.274-2.845-2.845 0-1.572 1.273-2.845 2.845-2.845 1.571,.001 2.845,1.274 2.845,2.845z"/>
<path d="m144.374,97.252c0,1.368-1.109,2.478-2.477,2.478h-.826c-1.367,0-2.477-1.109-2.477-2.478v-.826c0-1.368 1.109-2.477 2.477-2.477h.826c1.368,0 2.477,1.109 2.477,2.477v.826z"/>
<g stroke-width="10">
<path d="m188.582,139.097c0,2.388-1.736,4.323-3.881,4.323h-30.066c-2.142,0-3.88-1.936-3.88-4.323v-31.342c0-2.387 1.738-4.323 3.88-4.323h30.066c2.145,0 3.881,1.936 3.881,4.323v31.342z"/>
<path d="m131.661,128.29c0,2.387 1.937,4.323 4.324,4.323h20.174c2.387,0 4.323-1.936 4.323-4.323v-12.25c0-2.387-1.936-4.323-4.323-4.323h-20.174c-2.387,0-4.324,1.936-4.324,4.323v12.25z"/>
<path d="m123.015,128.29c0-2.388 1.936-4.324 4.323-4.324h24.858c2.387,0 4.323,1.936 4.323,4.324v6.844c0,2.387-1.936,4.323-4.323,4.323h-24.858c-2.387,0-4.323-1.936-4.323-4.323v-6.844z"/>
<path d="m174.171,135.134c0,2.387 1.936,4.323 4.324,4.323h20.173c2.389,0 4.324-1.936 4.324-4.323v-12.25c0-2.387-1.936-4.323-4.324-4.323h-20.173c-2.388,0-4.324,1.936-4.324,4.323v12.25z"/>
</g>
</g>
</g>
</svg>
