<svg xmlns="http://www.w3.org/2000/svg" viewBox="20 20 321 321">
<g fill="#000">
<path d="m77.112,291.169c13.25,0 26.499,0 39.748,0 9.687,0 9.772-15.004 .108-15.004-13.25,0-26.499,0-39.748,0-9.686,0-9.771,15.004-.108,15.004z"/>
<path d="m110.763,269.169c13.249,0 26.498,0 39.747,0 9.687,0 9.772-15.004 .108-15.004-13.249,0-26.498,0-39.747,0-9.686,0-9.771,15.004-.108,15.004z"/>
<path d="m144.413,247.169c13.25,0 26.499,0 39.748,0 9.686,0 9.771-15.004 .107-15.004-13.249,0-26.498,0-39.747,0-9.686-0-9.771,15.004-.108,15.004z"/>
<path d="m178.064,225.169c13.25,0 26.499,0 39.748,0 9.686,0 9.771-15.004 .107-15.004-13.249,0-26.498,0-39.747,0-9.686-0-9.772,15.004-.108,15.004z"/>
<path d="m211.715,203.169c13.249,0 26.498,0 39.747,0 9.686,0 9.771-15.004 .107-15.004-13.249,0-26.498,0-39.747,0-9.685-0-9.771,15.004-.107,15.004z"/>
<path d="m245.365,181.169c13.249,0 26.498,0 39.747,0 9.686,0 9.771-15.003 .107-15.003-13.249,0-26.498,0-39.747,0-9.685,0-9.771,15.003-.107,15.003z"/>
</g>
</svg>
