<svg xmlns="http://www.w3.org/2000/svg" viewBox="20 20 321 321">
<g fill="#000">
<path d="m178.789,210.172c0,8.928 0,17.856 0,26.784 0,1.935 3,1.935 3,0 0-8.928 0-17.856 0-26.784 0-1.935-3-1.935-3,0z"/>
<path d="m200.788,210.117c.956-3.101 1.913-6.201 2.869-9.303 .572-1.854-2.324-2.64-2.893-.797-.956,3.101-1.913,6.201-2.869,9.303-.572,1.854 2.325,2.64 2.893,.797z"/>
<path d="m194.3,237.05c.972-5.563 1.944-11.128 2.916-16.692 .331-1.892-2.561-2.7-2.893-.797-.972,5.563-1.944,11.128-2.916,16.692-.331,1.892 2.561,2.7 2.893,.797z"/>
<path d="m215.235,192.905c.603,.184 1.205,.367 1.808,.551 .781,.238 1.633-.275 1.845-1.048 .222-.804-.266-1.606-1.048-1.845-.603-.184-1.205-.367-1.808-.551-.781-.238-1.633,.275-1.845,1.048-.221,.804 .266,1.607 1.048,1.845z"/>
<path d="m221.428,199.222c.303,.471 .606,.94 .91,1.41 .442,.686 1.323,.966 2.052,.538 .682-.399 .982-1.364 .538-2.052-.303-.471-.606-.94-.91-1.41-.442-.686-1.323-.966-2.052-.538-.682,.399-.983,1.364-.538,2.052z"/>
<path d="m208.053,194.36c.546-.43 1.091-.86 1.637-1.29 .644-.507 .527-1.595 0-2.121-.629-.629-1.479-.506-2.121,0-.546,.43-1.091,.86-1.637,1.29-.644,.507-.527,1.595 0,2.121 .629,.629 1.479,.506 2.121,0z"/>
<path d="m163.104,209.32c-.956-3.102-1.912-6.202-2.869-9.303-.568-1.843-3.464-1.057-2.893,.797 .956,3.102 1.912,6.202 2.869,9.303 .568,1.843 3.464,1.057 2.893-.797z"/>
<path d="m169.592,236.253c-.972-5.564-1.943-11.129-2.915-16.692-.332-1.903-3.223-1.095-2.893,.797 .972,5.564 1.943,11.129 2.915,16.692 .333,1.903 3.224,1.095 2.893-.797z"/>
<path d="m144.967,190.013c-.603,.184-1.205,.367-1.808,.551-.781,.238-1.269,1.041-1.047,1.845 .212,.772 1.063,1.286 1.845,1.048 .603-.184 1.205-.367 1.808-.551 .781-.238 1.269-1.041 1.047-1.845-.212-.773-1.062-1.287-1.845-1.048z"/>
<path d="m136.981,197.708c-.303,.47-.606,.939-.91,1.41-.443,.688-.144,1.652 .539,2.052 .729,.427 1.61,.147 2.052-.538 .303-.47 .606-.939 .91-1.41 .443-.688 .144-1.652-.538-2.052-.729-.427-1.61-.148-2.053,.538z"/>
<path d="m155.068,192.239c-.545-.43-1.091-.86-1.637-1.29-.642-.506-1.493-.629-2.121,0-.527,.526-.644,1.614 0,2.121 .545,.43 1.091,.86 1.637,1.29 .642,.506 1.493,.629 2.121,0 .527-.526 .643-1.614 0-2.121z"/>
<path d="m192.184,172.827c.401-3.199 .802-6.398 1.203-9.598 .24-1.916-2.763-1.893-3,0-.401,3.199-.802,6.398-1.203,9.598-.241,1.916 2.762,1.893 3,0z"/>
<path d="m189.462,200.609c.407-5.74 .815-11.479 1.223-17.22 .137-1.932-2.864-1.918-3,0-.407,5.74-.815,11.479-1.223,17.22-.137,1.932 2.864,1.918 3,0z"/>
<path d="m196.759,155.285c.252,.189 .505,.379 .758,.568 .655,.492 1.675,.106 2.052-.538 .449-.767 .115-1.563-.538-2.053-.252-.189-.505-.379-.758-.568-.655-.492-1.675-.106-2.052,.538-.45,.767-.116,1.563 .538,2.053z"/>
<path d="m199.042,161.616c.128,.485 .255,.97 .383,1.456 .208,.79 1.063,1.262 1.845,1.047 .795-.218 1.256-1.055 1.048-1.845-.128-.485-.255-.97-.383-1.456-.208-.79-1.063-1.262-1.845-1.047-.795,.218-1.256,1.055-1.048,1.845z"/>
<path d="m195.187,156.646c.229-.443 .458-.887 .687-1.33 .375-.727 .194-1.624-.538-2.053-.677-.396-1.678-.188-2.052,.538-.229,.443-.458,.887-.687,1.33-.375,.727-.194,1.624 .538,2.053 .677,.396 1.678,.187 2.052-.538z"/>
<path d="m171.396,172.827c-.401-3.199-.802-6.398-1.204-9.598-.237-1.893-3.24-1.916-3,0 .401,3.199 .802,6.398 1.204,9.598 .237,1.893 3.24,1.916 3,0z"/>
<path d="m174.116,200.609c-.407-5.74-.815-11.479-1.222-17.22-.136-1.918-3.137-1.932-3,0 .407,5.74 .815,11.479 1.222,17.22 .136,1.918 3.137,1.932 3,0z"/>
<path d="m162.306,152.694c-.253,.189-.505,.379-.758,.568-.652,.49-.987,1.286-.538,2.053 .378,.645 1.397,1.03 2.053,.538 .252-.189 .505-.379 .757-.568 .653-.49 .987-1.286 .539-2.053-.379-.644-1.398-1.029-2.053-.538z"/>
<path d="m158.644,160.818c-.127,.485-.255,.971-.382,1.456-.208,.791 .253,1.627 1.047,1.845 .781,.215 1.638-.257 1.845-1.047 .127-.485 .255-.971 .382-1.456 .208-.791-.253-1.627-1.047-1.845-.781-.215-1.638,.257-1.845,1.047z"/>
<path d="m167.982,155.131c-.229-.443-.458-.887-.686-1.33-.375-.726-1.375-.935-2.053-.538-.732,.429-.913,1.326-.538,2.053 .229,.443 .458,.887 .686,1.33 .375,.726 1.375,.935 2.052,.538 .733-.43 .913-1.326 .539-2.053z"/>
<path d="m229.046,265.534c0-9.653-6.253-14.177-15.311-14.177-7.208,0-14.417,0-21.625,0 1.167,1.167 2.333,2.333 3.5,3.5-1.591-16.558-28.549-16.558-30.14,0 1.167-1.167 2.333-2.333 3.5-3.5-6.687,0-13.373,0-20.06,0-8.934,0-14.833,4.883-14.833,14.177 0,4.514 7,4.514 7,0 0-8.223 6.745-7.177 12.724-7.177 5.056,0 10.112,0 15.168,0 2.046,0 3.317-1.602 3.5-3.5 .701-7.293 15.438-7.293 16.14,0 .183,1.898 1.454,3.5 3.5,3.5 5.244,0 10.488,0 15.733,0 6.239,0 14.202-1.55 14.202,7.177 .002,4.514 7.002,4.514 7.002,0z"/>
<path d="m283.455,282.063c1.531,0 3.063,0 4.594,0 1.908,0 3.5-1.592 3.5-3.5s-1.592-3.5-3.5-3.5c-1.531,0-3.063,0-4.594,0-1.908,0-3.5,1.592-3.5,3.5s1.592,3.5 3.5,3.5z"/>
<path d="m256.729,292.063c5.333,0 10.667,0 16,0 4.514,0 4.514-7 0-7-5.333,0-10.667,0-16,0-4.513,0-4.513,7 0,7z"/>
<path d="m268.314,286.063c2,0 4,0 6,0 1.908,0 3.5-1.592 3.5-3.5s-1.592-3.5-3.5-3.5c-2,0-4,0-6,0-1.908,0-3.5,1.592-3.5,3.5s1.592,3.5 3.5,3.5z"/>
<path d="m286.647,292.063c.667,0 1.333,0 2,0 1.908,0 3.5-1.592 3.5-3.5s-1.592-3.5-3.5-3.5c-.667,0-1.333,0-2,0-1.908,0-3.5,1.592-3.5,3.5s1.592,3.5 3.5,3.5z"/>
<path d="m267.729,271.751c-2,0-4,0-6,0-1.908,0-3.5,1.592-3.5,3.5s1.592,3.5 3.5,3.5c2,0 4,0 6,0 1.908,0 3.5-1.592 3.5-3.5s-1.591-3.5-3.5-3.5z"/>
<path d="m288.896,258.23c-3.875,0-7.749,0-11.624,0-4.514,0-4.514,7 0,7 3.875,0 7.749,0 11.624,0 4.514,0 4.514-7 0-7z"/>
<path d="m284.897,266.23c-2.208,0-4.417,0-6.625,0-4.514,0-4.514,7 0,7 2.208,0 4.417,0 6.625,0 4.514,0 4.514-7 0-7z"/>
<path d="m288.23,252.23c-2,0-4,0-6,0-1.908,0-3.5,1.592-3.5,3.5s1.592,3.5 3.5,3.5c2,0 4,0 6,0 1.908,0 3.5-1.592 3.5-3.5s-1.591-3.5-3.5-3.5z"/>
<path d="m284.272,249.917c-2,0-4,0-6,0-1.908,0-3.5,1.592-3.5,3.5s1.592,3.5 3.5,3.5c2,0 4,0 6,0 1.908,0 3.5-1.592 3.5-3.5s-1.591-3.5-3.5-3.5z"/>
<path d="m287.896,270.23c-.222,0-.444,0-.666,0-1.908,0-3.5,1.592-3.5,3.5s1.592,3.5 3.5,3.5c.222,0 .444,0 .666,0 1.908,0 3.5-1.592 3.5-3.5s-1.591-3.5-3.5-3.5z"/>
<path d="m73.813,283.167c2.337,0 4.673,0 7.01,0 4.514,0 4.514-7 0-7-2.337,0-4.673,0-7.01,0-4.514,0-4.514,7 0,7z"/>
<path d="m100.334,280.167c2.581,0 5.161,0 7.741,0 4.514,0 4.514-7 0-7-2.581,0-5.161,0-7.741,0-4.514,0-4.514,7 0,7z"/>
<path d="m122.132,292.063c2,0 4,0 6,0 1.908,0 3.5-1.592 3.5-3.5s-1.592-3.5-3.5-3.5c-2,0-4,0-6,0-1.908,0-3.5,1.592-3.5,3.5s1.593,3.5 3.5,3.5z"/>
<path d="m246.301,284.555c-3,0-6,0-9,0-4.514,0-4.514,7 0,7 3,0 6,0 9,0 4.513,0 4.513-7 0-7z"/>
<path d="m259.301,275.555c-5.333,0-10.667,0-16,0-4.514,0-4.514,7 0,7 5.333,0 10.667,0 16,0 4.513,0 4.513-7 0-7z"/>
<path d="m79.938,249.855c-2,0-4,0-6,0-1.908,0-3.5,1.592-3.5,3.5s1.592,3.5 3.5,3.5c2,0 4,0 6,0 1.908,0 3.5-1.592 3.5-3.5s-1.593-3.5-3.5-3.5z"/>
<path d="m76.646,273.23c.667,0 1.333,0 2,0 1.908,0 3.5-1.592 3.5-3.5s-1.592-3.5-3.5-3.5c-.667,0-1.333,0-2,0-1.908,0-3.5,1.592-3.5,3.5s1.592,3.5 3.5,3.5z"/>
<path d="m93.648,276.555c-.667,0-1.333,0-2,0-1.908,0-3.5,1.592-3.5,3.5s1.592,3.5 3.5,3.5c.667,0 1.333,0 2,0 1.908,0 3.5-1.592 3.5-3.5s-1.592-3.5-3.5-3.5z"/>
<path d="m196.229,285.063c-2,0-4,0-6,0-1.908,0-3.5,1.592-3.5,3.5s1.592,3.5 3.5,3.5c2,0 4,0 6,0 1.908,0 3.5-1.592 3.5-3.5s-1.592-3.5-3.5-3.5z"/>
<path d="m87.896,264.167c-1.833,0-3.667,0-5.5,0-1.908,0-3.5,1.592-3.5,3.5s1.592,3.5 3.5,3.5c1.833,0 3.667,0 5.5,0 1.908,0 3.5-1.592 3.5-3.5s-1.592-3.5-3.5-3.5z"/>
<path d="m205.98,292.098c5.333,0 10.667,0 16,0 4.514,0 4.514-7 0-7-5.333,0-10.667,0-16,0-4.513,0-4.513,7 0,7z"/>
<path d="m221.439,278.007c2,0 4,0 6,0 1.908,0 3.5-1.592 3.5-3.5s-1.592-3.5-3.5-3.5c-2,0-4,0-6,0-1.908,0-3.5,1.592-3.5,3.5s1.592,3.5 3.5,3.5z"/>
<path d="m215.272,288.313c.667,0 1.333,0 2,0 1.908,0 3.5-1.592 3.5-3.5s-1.592-3.5-3.5-3.5c-.667,0-1.333,0-2,0-1.908,0-3.5,1.592-3.5,3.5s1.592,3.5 3.5,3.5z"/>
<path d="m233.896,278.861c-2,0-4,0-6,0-1.908,0-3.5,1.592-3.5,3.5s1.592,3.5 3.5,3.5c2,0 4,0 6,0 1.908,0 3.5-1.592 3.5-3.5s-1.591-3.5-3.5-3.5z"/>
<path d="m135.945,272.194c-3,0-6,0-9,0-4.514,0-4.514,7 0,7 3,0 6,0 9,0 4.514,0 4.514-7 0-7z"/>
<path d="m152.466,272.063c-2,0-4,0-6,0-1.908,0-3.5,1.592-3.5,3.5s1.592,3.5 3.5,3.5c2,0 4,0 6,0 1.908,0 3.5-1.592 3.5-3.5s-1.592-3.5-3.5-3.5z"/>
<path d="m144.966,292.063c2,0 4,0 6,0 1.908,0 3.5-1.592 3.5-3.5s-1.592-3.5-3.5-3.5c-2,0-4,0-6,0-1.908,0-3.5,1.592-3.5,3.5s1.592,3.5 3.5,3.5z"/>
<path d="m85.882,291.896c5.083,0 10.167,0 15.25,0 4.514,0 4.514-7 0-7-5.083,0-10.167,0-15.25,0-4.514,0-4.514,7 0,7z"/>
<path d="m178.314,276.861c3,0 6,0 9,0 4.514,0 4.514-7 0-7-3,0-6,0-9,0-4.514,0-4.514,7 0,7z"/>
<path d="m159.647,292.098c5.333,0 10.667,0 16,0 4.514,0 4.514-7 0-7-5.333,0-10.667,0-16,0-4.514,0-4.514,7 0,7z"/>
<path d="m154.966,284.063c2,0 4,0 6,0 1.908,0 3.5-1.592 3.5-3.5s-1.592-3.5-3.5-3.5c-2,0-4,0-6,0-1.908,0-3.5,1.592-3.5,3.5s1.592,3.5 3.5,3.5z"/>
<path d="m173.315,287.861c.667,0 1.333,0 2,0 1.908,0 3.5-1.592 3.5-3.5s-1.592-3.5-3.5-3.5c-.667,0-1.333,0-2,0-1.908,0-3.5,1.592-3.5,3.5s1.592,3.5 3.5,3.5z"/>
<path d="m210.729,268.063c-3.902,0-7.805,0-11.707,0-4.514,0-4.514,7 0,7 3.902,0 7.805,0 11.707,0 4.513,0 4.513-7 0-7z"/>
<path d="m192.064,278.861c-2,0-4,0-6,0-1.908,0-3.5,1.592-3.5,3.5s1.592,3.5 3.5,3.5c2,0 4,0 6,0 1.908,0 3.5-1.592 3.5-3.5s-1.591-3.5-3.5-3.5z"/>
<path d="m146.966,280.063c5.333,0 10.667,0 16,0 4.514,0 4.514-7 0-7-5.333,0-10.667,0-16,0-4.514,0-4.514,7 0,7z"/>
<path d="m118.075,275.48c-3,0-6,0-9,0-4.514,0-4.514,7 0,7 3,0 6,0 9,0 4.514,0 4.514-7 0-7z"/>
<path d="m87.324,281.313c-1.833,0-3.667,0-5.5,0-1.908,0-3.5,1.592-3.5,3.5s1.592,3.5 3.5,3.5c1.833,0 3.667,0 5.5,0 1.908,0 3.5-1.592 3.5-3.5s-1.593-3.5-3.5-3.5z"/>
<path d="m143.146,282.194c-.667,0-1.333,0-2,0-1.908,0-3.5,1.592-3.5,3.5s1.592,3.5 3.5,3.5c.667,0 1.333,0 2,0 1.908,0 3.5-1.592 3.5-3.5s-1.592-3.5-3.5-3.5z"/>
<path d="m146.896,272c-.667,0-1.333,0-2,0-1.908,0-3.5,1.592-3.5,3.5s1.592,3.5 3.5,3.5c.667,0 1.333,0 2,0 1.908,0 3.5-1.592 3.5-3.5s-1.592-3.5-3.5-3.5z"/>
<path d="m105.325,291.896c1.833,0 3.667,0 5.5,0 1.908,0 3.5-1.592 3.5-3.5s-1.592-3.5-3.5-3.5c-1.833,0-3.667,0-5.5,0-1.908,0-3.5,1.592-3.5,3.5s1.592,3.5 3.5,3.5z"/>
<path d="m73.396,290.944c.667,0 1.333,0 2,0 1.908,0 3.5-1.592 3.5-3.5s-1.592-3.5-3.5-3.5c-.667,0-1.333,0-2,0-1.908,0-3.5,1.592-3.5,3.5s1.592,3.5 3.5,3.5z"/>
<path d="m92.646,282.23c.667,0 1.333,0 2,0 1.908,0 3.5-1.592 3.5-3.5s-1.592-3.5-3.5-3.5c-.667,0-1.333,0-2,0-1.908,0-3.5,1.592-3.5,3.5s1.592,3.5 3.5,3.5z"/>
<path d="m103.896,273.167c-1.833,0-3.667,0-5.5,0-1.908,0-3.5,1.592-3.5,3.5s1.592,3.5 3.5,3.5c1.833,0 3.667,0 5.5,0 1.908,0 3.5-1.592 3.5-3.5s-1.592-3.5-3.5-3.5z"/>
<path d="m250.897,283.569c.667,0 1.333,0 2,0 1.908,0 3.5-1.592 3.5-3.5s-1.592-3.5-3.5-3.5c-.667,0-1.333,0-2,0-1.908,0-3.5,1.592-3.5,3.5s1.592,3.5 3.5,3.5z"/>
<path d="m211.563,273.167c-3.722,0-7.444,0-11.166,0-4.514,0-4.514,7 0,7 3.722,0 7.444,0 11.166,0 4.513,0 4.513-7 0-7z"/>
<path d="m83.229,256.23c-3.278,0-6.556,0-9.833,0-4.514,0-4.514,7 0,7 3.278,0 6.556,0 9.833,0 4.514,0 4.514-7 0-7z"/>
<path d="m140.524,280.861c-3.722,0-7.444,0-11.166,0-4.514,0-4.514,7 0,7 3.722,0 7.444,0 11.166,0 4.514,0 4.514-7 0-7z"/>
<path d="m75.144,248.144c2.85,0 5.7,0 8.549,0 3.976,0 3.399,3.918 3.399,6.736 0,3.426-.244,6.886 .581,10.236 1.391,5.648 6.975,8.643 12.317,9.074 5.793,.468 11.818,0 17.624,0 30.265,0 60.529,0 90.794,0 16.634,0 33.268,0 49.901,0 7.359,0 14.298-2.036 16.33-10.289 .989-4.017 .282-8.749 .282-12.858 0-4.494 9.189-2.899 11.948-2.899 6.448,0 6.448-10 0-10-7.83,0-15.643-.896-20.384,6.746-1.838,2.961-1.564,6.654-1.564,9.99 0,2.802 1.237,8.977-2.898,9.311-5.793,.468-11.817,0-17.623,0-30.266,0-60.53,0-90.795,0-16.634,0-33.267,0-49.901,0-1.195,0-2.39,0-3.585,0-4.411,0-3.028-7.41-3.028-10.154 0-6.264-1.546-12.13-7.877-14.807-4.266-1.804-9.535-1.086-14.071-1.086-6.448-0-6.448,10 .001,10z"/>
<path d="m178.537,155.006c0,6.307 0,12.613 0,18.92 0,1.935 3,1.935 3,0 0-6.307 0-12.613 0-18.92 0-1.934-3-1.934-3,0z"/>
<path d="m187.886,129.024c.325-2.26 .649-4.52 .975-6.78 .272-1.892-2.618-2.707-2.893-.798-.325,2.26-.649,4.52-.975,6.78-.272,1.892 2.618,2.707 2.893,.798z"/>
<path d="m185.735,148.251c.33-4.055 .661-8.11 .991-12.165 .157-1.93-2.844-1.914-3,0-.33,4.055-.661,8.11-.991,12.165-.157,1.93 2.844,1.914 3,0z"/>
<path d="m191.218,116.613c.204,.134 .408,.268 .613,.402 .685,.448 1.655,.14 2.052-.539 .43-.732 .145-1.605-.538-2.052-.204-.134-.408-.268-.613-.402-.685-.448-1.655-.14-2.052,.538-.43,.733-.145,1.606 .538,2.053z"/>
<path d="m192.937,120.823c.104,.343 .206,.686 .31,1.028 .235,.782 1.043,1.268 1.845,1.047 .774-.213 1.283-1.063 1.048-1.845-.104-.343-.206-.686-.31-1.028-.235-.782-1.043-1.268-1.845-1.047-.775,.212-1.284,1.062-1.048,1.845z"/>
<path d="m190.334,117.416c.186-.313 .371-.626 .556-.939 .987-1.669-1.606-3.177-2.59-1.514-.186,.313-.371,.626-.556,.939-.987,1.669 1.607,3.178 2.59,1.514z"/>
<path d="m175.083,128.227c-.325-2.26-.649-4.52-.975-6.78-.274-1.909-3.165-1.094-2.893,.798 .325,2.26 .649,4.52 .975,6.78 .274,1.908 3.164,1.093 2.893-.798z"/>
<path d="m177.341,148.251c-.33-4.055-.66-8.11-.99-12.165-.156-1.914-3.157-1.93-3,0 .33,4.055 .66,8.11 .99,12.165 .156,1.914 3.157,1.93 3,0z"/>
<path d="m167.345,114.022c-.205,.134-.409,.268-.614,.402-.683,.447-.967,1.32-.538,2.052 .397,.678 1.368,.987 2.053,.539 .204-.134 .409-.268 .613-.402 .683-.447 .967-1.32 .539-2.053-.398-.677-1.369-.986-2.053-.538z"/>
<path d="m164.247,120.025c-.104,.343-.207,.686-.31,1.028-.236,.783 .274,1.632 1.047,1.845 .803,.221 1.61-.265 1.845-1.047 .104-.343 .207-.686 .31-1.028 .236-.783-.274-1.632-1.047-1.845-.802-.221-1.61,.265-1.845,1.047z"/>
<path d="m172.333,115.902c-.186-.313-.371-.626-.556-.939-.984-1.663-3.579-.155-2.591,1.514 .186,.313 .371,.626 .556,.939 .985,1.663 3.578,.155 2.591-1.514z"/>
<path d="m95.5,249.834c49.899,0 99.798,0 149.698,0 7.177,0 14.354,0 21.532,0 1.935,0 1.935-3 0-3-49.899,0-99.798,0-149.697,0-7.178,0-14.355,0-21.533,0-1.935,0-1.935,3-0,3z"/>
</g>
</svg>
