<svg xmlns="http://www.w3.org/2000/svg" viewBox="20 20 321 321">
<path fill="none"  stroke="#000" stroke-linejoin="round" stroke-linecap="round" stroke-width="10" d="m273.515,176.254c7.536,0 13.647-6.11 13.647-13.646v-16.725c0-7.536-6.111-13.647-13.647-13.647h-21.609c-7.537,0-13.647,6.112-13.647,13.647v16.725c0,.181-2.198-.079-3.406-.079h-54.353-54.351c-1.178,0-3.331,.277-3.331,.119v-16.725c0-7.536-6.112-13.647-13.647-13.647h-21.61c-7.537,0-13.647,6.112-13.647,13.647v16.725c0,7.537 6.11,13.646 13.647,13.646v8.825c-7.537,0-13.647,6.112-13.647,13.648v16.725c0,7.537 6.11,13.646 13.647,13.646h21.609c7.536,0 13.647-6.109 13.647-13.646v-16.725c0-.301 2.145-.296 3.331-.296h54.352 54.352c1.215,0 3.406-.041 3.406,.255v16.726c0,7.536 6.11,13.646 13.647,13.646h21.609c7.536,0 13.647-6.11 13.647-13.646v-16.726c0-7.535-6.111-13.646-13.647-13.646v-8.826z"/>
</svg>
