<svg xmlns="http://www.w3.org/2000/svg" viewBox="20 20 321 321">
<path fill="#000" d="m138.806,157.44c15.5-26.847 31.001-53.695 46.502-80.542-2.878,0-5.756,0-8.635,0 15.501,26.848 31.001,53.695 46.502,80.542 1.439-2.508 2.878-5.016 4.317-7.523-31.001,0-62.002,0-93.004,0-6.449,0-6.449,10 0,10 31.001,0 62.003,0 93.004,0 3.806,0 6.211-4.243 4.317-7.523-15.501-26.848-31.001-53.695-46.502-80.542-1.873-3.244-6.762-3.244-8.635,0-15.5,26.847-31.001,53.695-46.502,80.542-3.23,5.594 5.413,10.628 8.636,5.046z"/>
<path fill="none"  stroke="#000" stroke-width="10" d="m193.885,280.504c0,3.127-2.914,5.663-6.51,5.663h-14.646c-3.595,0-6.51-2.536-6.51-5.663v-8.023c0-3.127 2.915-5.662 6.51-5.662h14.646c3.596,0 6.51,2.535 6.51,5.662v8.023z"/>
<g fill="#000">
<path d="m116.9,217.19c11.485-19.892 22.97-39.784 34.455-59.677-1.439,.826-2.878,1.651-4.317,2.477 22.634,.009 45.268,.018 67.902,.027-1.439-.826-2.878-1.651-4.317-2.477 11.48,19.883 22.961,39.767 34.441,59.65 1.439-2.508 2.878-5.016 4.317-7.523-45.485,0-90.971,0-136.457,0-.114,0-.228,0-.341,0-6.449,0-6.449,10 0,10 45.485,0 90.971,0 136.456,0 .114,0 .228,0 .342,0 3.805,0 6.211-4.243 4.317-7.523-11.431-19.798-22.861-39.595-34.293-59.392-1.993-3.454-6.123-2.735-9.495-2.736-6.677-.002-13.353-.005-20.028-.008-13.671-.005-27.343-.011-41.014-.017-.61,0-1.22,0-1.83,0-1.754,0-3.438,.954-4.317,2.477-11.485,19.892-22.97,39.784-34.455,59.677-3.231,5.593 5.412,10.626 8.634,5.045z"/>
<path d="m98.525,269.407c10.047-17.402 20.095-34.806 30.142-52.208-1.439,.825-2.878,1.651-4.317,2.477 37.094,.007 74.187,.013 111.281,.02-1.439-.825-2.878-1.651-4.317-2.477 10.044,17.396 20.087,34.793 30.131,52.188 1.439-2.508 2.878-5.016 4.317-7.523-49.814,0-99.628,0-149.442,0-7.371,0-14.741,0-22.112,0-6.449,0-6.449,10 0,10 49.814,0 99.628,0 149.442,0 7.37,0 14.741,0 22.111,0 3.806,0 6.211-4.243 4.317-7.523-5.765-9.984-11.528-19.969-17.293-29.953-3.457-5.987-6.914-11.976-10.371-17.963-1.686-2.919-3.088-6.748-7.077-6.749-25.454-.005-50.908-.009-76.362-.014-11.542-.002-23.083-.004-34.625-.006-1.754,0-3.438,.953-4.317,2.477-10.047,17.402-20.095,34.805-30.142,52.208-3.231,5.594 5.412,10.627 8.634,5.046z"/>
</g>
</svg>
