<svg xmlns="http://www.w3.org/2000/svg" viewBox="20 20 321 321">
<path fill="none"  stroke="#000" stroke-width="10" d="m286.492,248.742c0,3.912-3.156,7.084-7.049,7.084l-197.886,.02c-3.894,0-7.05-3.172-7.05-7.082v-127.5c0-3.911 3.156-7.083 7.05-7.083l197.886-.021c3.893,0 7.049,3.172 7.049,7.083v127.499z"/>
<path fill="#000" d="m174.195,190.025c4.203,0 8.406,0 12.609,0 6.448,0 6.448-10 0-10-4.203,0-8.406,0-12.609,0-6.448,0-6.448,10 0,10z"/>
<g fill="none"  stroke="#000" stroke-width="10">
<path d="m180.5,115.024 0,137.173"/>
<path d="m286.492,118.649c0,2.485-2.71,4.5-6.053,4.5l-199.879,.021c-3.342,0-6.052-2.015-6.052-4.5v-9c0-2.485 2.71-4.5 6.052-4.5l199.879-.021c3.343,0 6.053,2.015 6.053,4.5v9z"/>
</g>
<g fill="#000">
<path d="m109.743,182.574c10.333-9.804 20.667-19.607 31-29.412 1.209-1.147-.618-2.969-1.824-1.824-10.333,9.804-20.667,19.607-31,29.412-1.21,1.147 .618,2.969 1.824,1.824z"/>
<path d="m100.401,204.298c19.131-18.151 38.263-36.302 57.394-54.453 1.209-1.147-.618-2.969-1.824-1.824-19.131,18.151-38.263,36.302-57.394,54.453-1.209,1.147 .618,2.968 1.824,1.824z"/>
<path d="m115.265,204.342c11.202-10.627 22.403-21.255 33.604-31.882 1.209-1.147-.618-2.969-1.824-1.824-11.202,10.627-22.403,21.255-33.604,31.882-1.21,1.147 .618,2.968 1.824,1.824z"/>
<path d="m239.205,168.442c5.676-2.109 11.352-4.219 17.026-6.329-.633-.482-1.266-.964-1.898-1.446 .227,9.13 .452,18.26 .679,27.391 .024,1.005 .936,1.666 1.898,1.446 2.44-.556 4.881-1.111 7.321-1.667-.614-.615-1.229-1.23-1.845-1.845-2.223,5.925-4.444,11.851-6.667,17.776 .615-.35 1.23-.699 1.845-1.048-2.551-.686-5.103-1.372-7.654-2.058-.779-.21-1.641,.253-1.845,1.048-1.111,4.315-2.223,8.632-3.334,12.948 .734-.299 1.469-.598 2.203-.896-4.997-2.254-9.995-4.508-14.992-6.762-3.852-1.737-6.839,.063-10.829,1.277 .614,.349 1.229,.698 1.845,1.048-.389-1.262-.778-2.523-1.167-3.785-.236-.768-.938-4.142-1.148-3.082 .588-2.97 1.177-5.938 1.765-8.907 .35-1.768 .981-3.135-.12-4.658-2.084-2.884-4.168-5.768-6.251-8.651-.533-.737-.069,.875-.011,.075 .04-.537 .08-1.075 .119-1.612 .133-1.794 .265-3.588 .397-5.383 .124-1.688 .249-3.375 .374-5.063 .167-2.271-.936,.162-.146-.303 5.056-2.979 10.11-5.958 15.165-8.936-.605-.079-1.212-.157-1.817-.235 2.543,3.09 5.086,6.181 7.629,9.271 1.23,1.495 3.34-.64 2.121-2.121-2.543-3.09-5.086-6.181-7.629-9.271-.422-.513-1.279-.552-1.817-.235-5.146,3.033-10.292,6.065-15.438,9.097-1.509,.889-1.124,3.493-1.234,4.984-.247,3.355-.495,6.71-.742,10.066-.143,1.934 3.257,5.081 4.286,6.503 .895,1.238 1.789,2.476 2.683,3.714 .6,.829 .205-1.406 .018-.459-.16,.806-.319,1.612-.479,2.419-.594,3.001-1.188,6.001-1.782,9.002-.468,2.359 1.638,6.11 2.334,8.367 .235,.765 1.045,1.292 1.845,1.048 2.21-.673 4.42-1.346 6.63-2.019 1.813-.552-.641-.702 .424-.222 .942,.425 1.885,.851 2.827,1.275 4.543,2.049 9.086,4.098 13.63,6.146 .857,.387 1.942,.118 2.203-.896 1.111-4.315 2.223-8.632 3.334-12.948-.615,.35-1.23,.699-1.845,1.048 2.551,.686 5.103,1.372 7.654,2.058 .844,.227 1.557-.279 1.845-1.048 2.223-5.925 4.444-11.851 6.667-17.776 .426-1.136-.825-2.077-1.845-1.845-2.44,.556-4.881,1.111-7.321,1.667 .633,.482 1.266,.964 1.898,1.446-.227-9.13-.452-18.26-.679-27.391-.022-.905-.954-1.797-1.898-1.446-5.676,2.109-11.352,4.219-17.026,6.329-1.8,.669-1.023,3.57 .794,2.894z"/>
<path d="m220.878,214.022c.522-.957 1.045-1.914 1.567-2.871 .928-1.698-1.663-3.212-2.59-1.514-.522,.957-1.045,1.914-1.567,2.871-.928,1.699 1.663,3.213 2.59,1.514 .522-.957 1.045-1.914 1.567-2.871 .928-1.698-1.663-3.212-2.59-1.514-.522,.957-1.045,1.914-1.567,2.871-.928,1.699 1.663,3.213 2.59,1.514z"/>
<path d="m217.027,216.353c1.104-.597 2.209-1.194 3.313-1.792 1.702-.92 .188-3.511-1.514-2.59-1.104,.597-2.209,1.194-3.313,1.792-1.701,.92-.187,3.51 1.514,2.59z"/>
<path d="m219.295,200.954c-1.599,.182-3.196,.362-4.795,.544-.813,.092-1.5,.612-1.5,1.5 0,.748 .686,1.593 1.5,1.5 1.599-.182 3.196-.362 4.795-.544 .813-.092 1.5-.612 1.5-1.5 0-.748-.686-1.593-1.5-1.5z"/>
<path d="m256.894,161.728c1.458-1.292 2.917-2.583 4.375-3.875 1.451-1.285-.679-3.399-2.121-2.121-1.458,1.292-2.917,2.583-4.375,3.875-1.452,1.285 .678,3.398 2.121,2.121z"/>
<path d="m259.81,158.238c.625,.138 1.25,.275 1.875,.412 .798,.175 1.62-.229 1.845-1.047 .208-.757-.249-1.67-1.048-1.845-.625-.138-1.25-.275-1.875-.412-.798-.175-1.62,.229-1.845,1.047-.208,.757 .249,1.67 1.048,1.845z"/>
<path d="m240.54,149.982c-3.278,2.055-6.557,4.11-9.834,6.166-1.635,1.025-.13,3.622 1.514,2.591 3.278-2.055 6.557-4.11 9.834-6.166 1.634-1.025 .13-3.621-1.514-2.591z"/>
<path d="m242.923,151.677c.414-1.407 .829-2.814 1.243-4.221 .548-1.86-2.348-2.649-2.893-.798-.414,1.407-.829,2.814-1.243,4.221-.548,1.86 2.348,2.649 2.893,.798z"/>
</g>
</svg>
