<svg xmlns="http://www.w3.org/2000/svg" viewBox="20 20 321 321">
<g fill="#000">
<path d="m75.677,156.583-.244-81 106.801,81z"/>
<path d="m80.677,156.583c-.082-27-.163-54-.245-81-2.508,1.439-5.016,2.878-7.523,4.317 35.59,26.992 71.18,53.984 106.771,80.976 .01,.008 .021,.016 .031,.024 .841-3.106 1.683-6.211 2.523-9.317-35.519,0-71.038,0-106.557,0-6.449,0-6.449,10 0,10 35.519,0 71.038,0 106.557,0 5.402,0 6.252-6.489 2.523-9.317-35.59-26.992-71.18-53.984-106.771-80.976-.01-.008-.021-.016-.031-.024-3.125-2.371-7.534,.868-7.523,4.317 .082,27 .163,54 .245,81 .02,6.448 10.02,6.45 10,0z"/>
</g>
<g fill="none"  stroke="#000" stroke-width="10">
<path d="m163.433,281.916c0,3.223-4.727,5.834-10.558,5.834h-66.884c-5.832,0-10.558-2.611-10.558-5.834v-122.499c0-3.222 4.727-5.833 10.558-5.833h66.884c5.832,0 10.558,2.612 10.558,5.833v122.499z"/>
<path d="m128.433,281.404c0,3.137-2.687,5.68-6,5.68h-23.5c-3.313,0-6-2.543-6-5.68v-68.143c0-3.136 2.687-5.678 6-5.678h23.5c3.313,0 6,2.542 6,5.678v68.143z"/>
</g>
<g fill="#000">
<circle cx="231.982" cy="195.576" r="9.529"/>
<path d="m231.982,205.33c-5.379,0-9.755-4.376-9.755-9.754 0-5.379 4.376-9.756 9.755-9.756s9.754,4.377 9.754,9.756c0,5.378-4.375,9.754-9.754,9.754zm0-19.059c-5.131,0-9.304,4.174-9.304,9.305 0,5.129 4.173,9.303 9.304,9.303 5.13,0 9.303-4.174 9.303-9.303 0-5.131-4.173-9.305-9.303-9.305z"/>
<path d="m231.025,250.051c1.527,12.996 2.938,25 4.467,37.996 .611,5.208 8.684,4.305 8.072-.89-1.527-12.998-2.938-25.001-4.467-37.997-.611-5.208-8.683-4.306-8.072,.891z"/>
<path d="m239.225,250.031c0,2.609-2.115,4.723-4.723,4.723h-7.021c-2.608,0-4.724-2.113-4.723-4.723l-.001-37.919c.001-2.608 2.115-4.723 4.723-4.723h7.021c2.607,0 4.723,2.114 4.723,4.723v37.919z"/>
<path d="m232.497,210.67c.194,5.54 .388,11.08 .581,16.622 .131,3.779 5.992,3.575 5.86-.204-.193-5.542-.388-11.082-.581-16.623-.131-3.779-5.992-3.574-5.86,.205z"/>
<path d="m233.213,228.723c2.216,5.082 4.432,10.164 6.647,15.248 1.512,3.464 6.888,1.121 5.376-2.346-2.216-5.081-4.432-10.164-6.648-15.246-1.512-3.466-6.887-1.122-5.375,2.344z"/>
<path d="m223.768,209.896c-2.771,4.801-5.544,9.602-8.316,14.403-1.891,3.274 3.188,6.207 5.079,2.933 2.772-4.803 5.544-9.604 8.315-14.404 1.891-3.275-3.188-6.207-5.078-2.932z"/>
<path d="m216.115,228.119c4.311,3.488 8.62,6.977 12.93,10.463 2.94,2.379 6.629-2.18 3.689-4.559-4.311-3.486-8.621-6.975-12.931-10.463-2.939-2.378-6.627,2.18-3.688,4.559z"/>
<path d="m222.563,248.426c-.457,13.078-.216,6.169-.672,19.246-.184,5.241 7.932,5.57 8.115,.343 .456-13.079 .215-6.169 .672-19.247 .182-5.241-7.934-5.571-8.115-.342z"/>
<path d="m222.063,266.977c-3.623,12.572-1.71,5.93-5.334,18.504-1.453,5.039 6.338,7.332 7.787,2.307 3.626-12.575 1.711-5.931 5.336-18.505 1.452-5.039-6.34-7.334-7.789-2.306z"/>
</g>
</svg>
