<svg xmlns="http://www.w3.org/2000/svg" viewBox="20 20 321 321">
<g fill="#000">
<path d="m139.403,112.311c2.427,12.684 4.854,25.368 7.281,38.053 .848,4.431 7.594,2.549 6.75-1.861-2.427-12.684-4.854-25.368-7.281-38.053-.847-4.431-7.593-2.55-6.75,1.861z"/>
<path d="m147.396,146.896c-4.992,6.069-9.984,12.138-14.977,18.206-2.843,3.457 2.08,8.439 4.95,4.95 4.992-6.069 9.984-12.138 14.977-18.206 2.843-3.456-2.08-8.438-4.95-4.95z"/>
<path d="m224.24,95.132c-6.291-6.291-12.582-12.582-18.873-18.873-3.872-3.873-9.87-6.336-15.072-3.19-3.922,2.371-7.008,6.236-10.224,9.452-1.348,1.349-1.348,3.602 0,4.95 10.633,10.634 21.267,21.268 31.901,31.902 1.348,1.348 3.602,1.348 4.949,0 6.815-6.815 15.61-14.493 7.319-24.241-2.929-3.443-7.855,1.533-4.949,4.95 4.484,5.272-3.939,10.961-7.319,14.341 1.649,0 3.3,0 4.949,0-10.633-10.634-21.267-21.268-31.9-31.902 0,1.65 0,3.3 0,4.95 2.412-2.412 4.823-4.824 7.235-7.236 3.983-3.984 7.644,.456 10.352,3.163 5.561,5.561 11.122,11.122 16.684,16.684 3.193,3.194 8.144-1.755 4.948-4.95z"/>
<path d="m95.01,75.144c-6.291,6.291-12.582,12.582-18.872,18.873-3.872,3.872-6.336,9.871-3.19,15.073 2.372,3.921 6.236,7.008 9.453,10.225 1.349,1.348 3.602,1.348 4.95,0 10.633-10.634 21.267-21.267 31.9-31.9 1.348-1.349 1.348-3.602 0-4.95-6.815-6.818-14.493-15.612-24.241-7.321-3.443,2.929 1.533,7.856 4.95,4.95 5.273-4.485 10.96,3.938 14.341,7.319 0-1.65 0-3.3 0-4.95-10.633,10.634-21.267,21.267-31.9,31.9 1.65,0 3.3,0 4.95,0-2.413-2.412-4.825-4.824-7.237-7.236-3.983-3.983 .456-7.643 3.163-10.35 5.561-5.561 11.122-11.122 16.683-16.683 3.195-3.195-1.755-8.145-4.95-4.95z"/>
<path d="m173.607,98.45l26.878,26.879v47.962l-26.878,26.879h-47.962l-26.878-26.879 .001-47.962 26.877-26.878 47.962-.001m0-10h-47.961c-2.652,0-5.196,1.054-7.071,2.929l-26.877,26.878c-1.875,1.875-2.929,4.418-2.929,7.071l-.001,47.962c0,2.652 1.054,5.196 2.929,7.071l26.878,26.879c1.875,1.875 4.419,2.929 7.071,2.929h47.962c2.652,0 5.196-1.054 7.071-2.929l26.878-26.879c1.875-1.875 2.929-4.418 2.929-7.071v-47.962c0-2.652-1.054-5.196-2.929-7.071l-26.878-26.879c-1.876-1.874-4.42-2.928-7.072-2.928z"/>
<path d="m108.411,190.791c-5.455,5.454-10.909,10.908-16.364,16.363-4.563,4.563 2.507,11.635 7.071,7.07 5.455-5.454 10.909-10.908 16.364-16.363 4.564-4.563-2.507-11.634-7.071-7.07z"/>
<path d="m183.771,197.861c5.454,5.455 10.908,10.909 16.363,16.363 4.563,4.564 11.635-2.507 7.07-7.07-5.454-5.455-10.908-10.909-16.363-16.363-4.563-4.564-11.633,2.507-7.07,7.07z"/>
<path d="m156.644,89.81c-.384,2.515-7.772,1.299-9.407,1.299-1.176,0-2.353,0-3.529,0-1.633,0-.974-3.553-.974-4.588 0-1.113 8.553-.557 9.283-.557 1.2,0 2.401,0 3.601,0 1.543,0 .901,3.796 .901,4.776 0,4.514 7,4.514 7,0 0-2.947 .48-6.439-1.626-8.835-2.303-2.619-5.208-2.941-8.462-2.941-5.943,0-16.319-1.753-17.572,6.437-.454,2.968-.345,6.353 .954,9.059 1.616,3.366 5.797,3.649 9.011,3.649 5.944,0 16.318,1.753 17.571-6.438 .674-4.415-6.07-6.312-6.751-1.861z"/>
<path d="m275.278,273.637c.021,4.537-5.225,3.379-8.209,3.379-5.266,0-10.531,0-15.797,0-4.379,0-8.758,0-13.138,0-1.46,0-2.501,.233-3.623-1.314-2.11-2.912 2.232-11.983 3.258-14.883 1.481-4.188 3.071-8.328 4.376-12.577 .997-3.246 1.232-6.635 2.205-9.865 .876-2.908 2.43-5.944 4.294-8.345 1.309-1.686 10.063-2.087 11.551-.699 5.114,4.769 5.359,12.688 7.122,18.909 2.508,8.854 6.805,17.136 8.086,26.326 .621,4.455 7.365,2.552 6.75-1.861-1.634-11.714-8.082-22.108-9.716-33.822-.737-5.282-5.557-16.901-12.119-16.901-4.35,0-10.916-1.424-14.675,1.278-3.081,2.214-4.979,6.045-6.52,9.398-1.821,3.962-2.228,8.004-3.293,12.187-1.635,6.413-4.362,12.532-6.415,18.815-1.383,4.231-3.447,10.064-1.478,14.405 1.545,3.407 4.736,5.949 8.612,5.949 4.907,0 9.814,0 14.722,0 6.356,0 12.713,0 19.069,0 6.508,0 11.97-3.045 11.937-10.379-.019-4.513-7.019-4.515-6.999,0z"/>
<path d="m223.553,290.936c22.247-22.246 44.493-44.492 66.739-66.738 3.195-3.194-1.755-8.144-4.949-4.949-22.247,22.246-44.493,44.492-66.739,66.738-3.196,3.194 1.754,8.143 4.949,4.949z"/>
</g>
</svg>
