<svg xmlns="http://www.w3.org/2000/svg" viewBox="20 20 321 321">
<g fill="#000">
<circle cx="236.593" cy="156.564" r="28.837"/>
<path d="m236.594,186.084c-16.276,0-29.52-13.244-29.52-29.52s13.243-29.52 29.52-29.52c16.275,0 29.517,13.244 29.517,29.52s-13.242,29.52-29.517,29.52zm0-57.674c-15.525,0-28.154,12.63-28.154,28.154 0,15.522 12.629,28.154 28.154,28.154 15.523,0 28.15-12.632 28.15-28.154 0-15.523-12.627-28.154-28.15-28.154z"/>
<path d="m267.559,277.459c0,7.895-6.4,14.291-14.293,14.291h-33.348c-7.893,0-14.291-6.396-14.291-14.291v-71.745c0-7.894 6.398-14.291 14.291-14.291h33.348c7.893,0 14.293,6.397 14.293,14.291v71.745z"/>
<path d="m273.856,204.122c0,16.776 0,62.553 0,79.331 0,11.443 17.745,11.443 17.745,0 0-16.778 0-62.555 0-79.331 .001-11.444-17.745-11.444-17.745,0z"/>
<path d="m181.583,204.12c0,16.778 0,62.554 0,79.331 0,11.443 17.745,11.443 17.745,0 0-16.777 0-62.553 0-79.331 0-11.443-17.745-11.443-17.745,0z"/>
<path d="m170.959,157.688c-.602,16.38-20.151,13.09-31.255,13.09-14.331,0-28.662,0-42.993,0-6.572,0-11.992-1.599-15.246-7.987-1.769-3.474-.999-9.064-.999-12.841 0-15.064 0-30.127 0-45.191 0-3.789 0-7.577 0-11.365 0-8.113 6.742-13.109 14.329-13.109 13.415,0 26.83,0 40.244,0 6.399,0 12.798,0 19.197,0 6.193,0 11.609,.975 15.145,6.851 2.259,3.755 1.577,9.088 1.577,13.313 0,7.202 0,14.404 0,21.607 .001,11.877 .001,23.754 .001,35.632 0,6.449 10,6.449 10,0 0-11.216 0-22.432 0-33.648 0-7.414 0-14.828 0-22.241 0-4.054 .371-8.414-.375-12.426-2.074-11.169-11.536-18.676-22.715-19.086-3.528-.13-7.085,0-10.614,0-15.092,0-30.184,0-45.275,0-4.054,0-8.414-.37-12.427,.375-11.169,2.073-18.675,11.535-19.086,22.714-.411,11.184 0,22.458 0,33.648 0,7.414 0,14.828 0,22.241 0,4.055-.37,8.414 .375,12.427 2.073,11.17 11.534,18.676 22.714,19.087 3.528,.13 7.085,0 10.614,0 15.092,0 30.184,0 45.275,0 4.054,0 8.414,.37 12.426-.375 11.17-2.074 18.677-11.536 19.087-22.715 .238-6.453-9.762-6.43-9.999-.001z"/>
<path d="m97.16,133.033c19,0 38,0 57,0 9.687,0 9.772-15.003 .108-15.003-19,0-38,0-57,0-9.686,0-9.772,15.003-.108,15.003z"/>
</g>
</svg>
