<svg xmlns="http://www.w3.org/2000/svg" viewBox="20 20 321 321">
<g fill="#000">
<path d="m136.833,150.984c6.2-1.85 12.492-3.471 18.851-4.672 8.5-1.605 15.959,.971 23.905,3.886 10.954,4.018 22.235,10.623 34.065,11.009 7.296,.238 15.346-3.587 21.991-6.186 4.038-1.579 8.011-3.305 12.074-4.823 7.977-2.98 15.38-5.382 23.906-3.886 6.361,1.116 12.664,2.827 18.851,4.672 1.858,.555 2.646-2.341 .797-2.893-6.2-1.85-12.491-3.471-18.851-4.673-7.98-1.507-14.637,.111-22.247,2.718-11.71,4.011-24.009,11.662-36.521,12.07-7.452,.243-15.945-3.972-22.727-6.689-4.586-1.838-9.129-3.741-13.794-5.38-7.143-2.51-13.599-4.118-21.125-2.915-6.746,1.079-13.432,2.918-19.974,4.87-1.848,.551-1.06,3.447 .799,2.892z"/>
<path d="m144.425,159.588c6.024-2.177 12.932-4.321 19.379-3.757 6.911,.605 13.977,3.766 20.365,6.296 9.375,3.713 19.262,8.915 29.485,9.248 6.396,.208 13.369-2.933 19.231-5.123 3.208-1.198 6.352-2.547 9.524-3.832 6.354-2.575 12.89-5.027 19.629-6.363 6.764-1.341 14.501,1.237 20.846,3.53 1.823,.659 2.602-2.24 .797-2.893-5.921-2.14-12.23-3.792-18.546-3.964-6.732-.185-14.043,3.152-20.203,5.492-9.988,3.794-20.465,9.8-31.278,10.152-6.682,.218-14.219-3.385-20.328-5.741-3.364-1.297-6.668-2.743-10.026-4.056-6.488-2.538-13.35-5.21-20.343-5.822-6.329-.554-13.449,1.813-19.33,3.939-1.805,.654-1.026,3.553 .798,2.894z"/>
<path d="m144.542,139.316c6.024-2.177 12.932-4.322 19.379-3.758 6.912,.605 13.978,3.767 20.365,6.297 9.375,3.713 19.262,8.914 29.485,9.248 6.396,.208 13.369-2.933 19.231-5.122 3.207-1.198 6.351-2.547 9.523-3.832 6.354-2.575 12.89-5.027 19.63-6.363 6.764-1.341 14.502,1.238 20.846,3.531 1.823,.659 2.602-2.24 .797-2.893-5.921-2.141-12.23-3.792-18.546-3.965-6.732-.185-14.043,3.152-20.203,5.492-9.988,3.794-20.465,9.799-31.278,10.152-6.682,.218-14.219-3.384-20.328-5.74-3.364-1.297-6.668-2.743-10.026-4.056-6.488-2.537-13.35-5.21-20.343-5.822-6.329-.554-13.449,1.814-19.33,3.939-1.805,.652-1.026,3.552 .798,2.892z"/>
<path d="m240.448,169.661c-7.995,22.067-15.99,44.134-23.985,66.201-4.459,12.307-8.918,24.613-13.377,36.92-.727,2.006-1.366,4.164-2.255,6.075-1.734,3.729-8.934,2.367-12.069,2.367-15.074,0-30.148,0-45.223,0-2.235,0-4.47,0-6.705,0-.548,0-1.096,0-1.644,0-.925,0 .695,.09 .641,.239 .488-1.342 .977-2.685 1.465-4.026 7.972-21.903 15.944-43.807 23.916-65.709 10.883-29.901 21.767-59.802 32.649-89.704 3.734-10.259 7.468-20.519 11.202-30.778 1.226-3.368 2.609-11.871 7.416-11.871 20.262,0 40.524,0 60.786,0 2.172,0 .251-.083 .31-.236-.352,.925-.703,1.851-1.056,2.775-1.883,4.953-3.766,9.906-5.648,14.859-3.407,8.959-6.813,17.919-10.22,26.879-2.296,6.039 7.374,8.625 9.643,2.658 4.386-11.535 8.771-23.07 13.157-34.605 1.649-4.339 4.086-8.921 4.338-13.624 .39-7.243-7.008-8.706-12.5-8.706-14.464,0-28.929,0-43.393,0-10.486,0-24.563-2.527-29.104,9.947-17.237,47.36-34.475,94.72-51.712,142.079-6.85,18.819-13.699,37.639-20.549,56.459-1.769,4.859-.603,10.813 4.811,12.708 3.69,1.291 8.368,.655 12.197,.655 15.075,0 30.149,0 45.223,0 4.104,0 8.547,.459 12.544-.655 5.505-1.536 8.264-6.407 10.055-11.351 3.831-10.575 7.663-21.15 11.494-31.726 8.955-24.715 17.909-49.43 26.863-74.145 .125-.343 .249-.686 .373-1.029 2.202-6.075-7.464-8.67-9.643-2.656z"/>
<path d="m201.48,88.75c24.905,0 49.811,0 74.716,0 1.935,0 1.935-3 0-3-24.905,0-49.811,0-74.716,0-1.934,0-1.934,3 0,3z"/>
<path d="m195.59,104.932c24.905,0 49.812,0 74.717,0 1.935,0 1.935-3 0-3-24.905,0-49.812,0-74.717,0-1.935,0-1.935,3-0,3z"/>
<path d="m189.701,121.113c24.905,0 49.812,0 74.717,0 1.935,0 1.935-3 0-3-24.905,0-49.812,0-74.717,0-1.934,0-1.934,3-0,3z"/>
<path d="m177.922,153.475c13.572,0 27.144,0 40.716,0 1.935,0 1.935-3 0-3-13.572,0-27.145,0-40.716,0-1.934,0-1.934,3 0,3z"/>
<path d="m183.813,137.294c17.572,0 35.144,0 52.716,0 1.935,0 1.935-3 0-3-17.572,0-35.144,0-52.716,0-1.935,0-1.935,3 0,3z"/>
<path d="m172.033,169.657c17.361-.152 34.721-.304 52.082-.457 1.934-.017 1.936-3.017 0-3-17.36,.152-34.721,.304-52.082,.457-1.934,.017-1.935,3.017 0,3z"/>
<path d="m163.198,193.928c24.905,0 49.811,0 74.716,0 1.935,0 1.935-3 0-3-24.905,0-49.811,0-74.716,0-1.934,0-1.934,3 0,3z"/>
<path d="m151.419,226.291c24.906,0 49.812,0 74.717,0 1.935,0 1.935-3 0-3-24.905,0-49.811,0-74.717,0-1.935,0-1.935,3-0,3z"/>
<path d="m160.253,202.02c24.906,0 49.811,0 74.716,0 1.935,0 1.935-3 0-3-24.905,0-49.811,0-74.716,0-1.934,0-1.934,3 0,3z"/>
<path d="m148.475,234.381c24.906,0 49.812,0 74.717,0 1.935,0 1.935-3 0-3-24.905,0-49.811,0-74.717,0-1.935,0-1.935,3-0,3z"/>
<path d="m142.585,250.563c24.906,0 49.812,0 74.717,0 1.935,0 1.935-3 0-3-24.905,0-49.811,0-74.717,0-1.935,0-1.935,3-0,3z"/>
<path d="m136.695,266.744c24.906,0 49.812,0 74.717,0 1.935,0 1.935-3 0-3-24.905,0-49.811,0-74.717,0-1.934,0-1.934,3 0,3z"/>
<path d="m204.425,80.66c24.905,0 49.811,0 74.716,0 1.935,0 1.935-3 0-3-24.905,0-49.811,0-74.716,0-1.935,0-1.935,3 0,3z"/>
<path d="m198.535,96.841c24.905,0 49.812,0 74.717,0 1.935,0 1.935-3 0-3-24.905,0-49.812,0-74.717,0-1.934,0-1.934,3-0,3z"/>
<path d="m192.646,113.022c24.905,0 49.811,0 74.716,0 1.935,0 1.935-3 0-3-24.905,0-49.811,0-74.716,0-1.934,0-1.934,3 0,3z"/>
<path d="m180.867,145.385c13.572,0 27.144,0 40.716,0 1.935,0 1.935-3 0-3-13.572,0-27.145,0-40.716,0-1.935,0-1.935,3 0,3z"/>
<path d="m186.756,129.204c24.905,0 49.812,0 74.717,0 1.935,0 1.935-3 0-3-24.905,0-49.812,0-74.717,0-1.935-0-1.935,3-0,3z"/>
<path d="m174.978,161.566c13.572,0 27.144,0 40.716,0 1.935,0 1.935-3 0-3-13.572,0-27.144,0-40.716,0-1.935,0-1.935,3 0,3z"/>
<path d="m169.088,177.747c24.905,0 49.812,0 74.717,0 1.935,0 1.935-3 0-3-24.905,0-49.812,0-74.717,0-1.935,0-1.935,3-0,3z"/>
<path d="m157.309,210.109c24.905,0 49.812,0 74.717,0 1.935,0 1.935-3 0-3-24.905,0-49.812,0-74.717,0-1.935,0-1.935,3-0,3z"/>
<path d="m166.143,185.838c24.906,0 49.811,0 74.716,0 1.935,0 1.935-3 0-3-24.905,0-49.811,0-74.716,0-1.935,0-1.935,3 0,3z"/>
<path d="m154.364,218.2c24.905,0 49.811,0 74.716,0 1.935,0 1.935-3 0-3-24.905,0-49.811,0-74.716,0-1.935,0-1.935,3 0,3z"/>
<path d="m145.53,242.473c24.905,0 49.811,0 74.716,0 1.935,0 1.935-3 0-3-24.905,0-49.811,0-74.716,0-1.935,0-1.935,3 0,3z"/>
<path d="m139.64,258.653c24.906,0 49.811,0 74.717,0 1.935,0 1.935-3 0-3-24.906,0-49.812,0-74.717,0-1.934-0-1.934,3 0,3z"/>
<path d="m130.806,282.926c24.906,0 49.812,0 74.717,0 1.935,0 1.935-3 0-3-24.906,0-49.812,0-74.717,0-1.934,0-1.934,3-0,3z"/>
<path d="m133.751,274.834c24.906,0 49.812,0 74.717,0 1.935,0 1.935-3 0-3-24.905,0-49.811,0-74.717,0-1.935,0-1.935,3-0,3z"/>
<path d="m219.443,91c0,2.071-1.678,3.75-3.75,3.75-2.07,0-3.75-1.679-3.75-3.75 0-2.071 1.68-3.75 3.75-3.75 2.073,0 3.75,1.679 3.75,3.75z"/>
<path d="m205.23,127.704c0,2.071-1.68,3.75-3.75,3.75-2.072,0-3.75-1.679-3.75-3.75 0-2.071 1.678-3.75 3.75-3.75 2.071-0 3.75,1.678 3.75,3.75z"/>
<path d="m235.775,84.304c0,2.071-1.68,3.75-3.75,3.75-2.072,0-3.75-1.679-3.75-3.75 0-2.071 1.678-3.75 3.75-3.75 2.071,0 3.75,1.678 3.75,3.75z"/>
<path d="m195.139,167.929c0,2.071-1.68,3.75-3.75,3.75-2.072,0-3.75-1.679-3.75-3.75 0-2.071 1.678-3.75 3.75-3.75 2.07,0 3.75,1.678 3.75,3.75z"/>
<path d="m216.502,101.139c.115-2.068 1.884-3.651 3.952-3.537 2.067,.115 3.651,1.884 3.536,3.952-.114,2.068-1.883,3.651-3.951,3.537-2.068-.114-3.651-1.883-3.537-3.952z"/>
<path d="m260.674,87.846c.114-2.068 1.883-3.651 3.951-3.537 2.068,.114 3.651,1.883 3.537,3.952-.115,2.068-1.884,3.651-3.952,3.537-2.067-.115-3.651-1.884-3.536-3.952z"/>
<path d="m161.297,252.813c-2.071,0-3.75-1.678-3.75-3.75 0-2.07 1.679-3.75 3.75-3.75 2.071,0 3.75,1.68 3.75,3.75 0,2.072-1.678,3.75-3.75,3.75z"/>
<path d="m245.533,112.554c-2.071,0-3.75-1.679-3.75-3.75 0-2.071 1.679-3.75 3.75-3.75 2.071,0 3.75,1.679 3.75,3.75 0,2.071-1.679,3.75-3.75,3.75z"/>
<path d="m200.557,236.631c-2.072,0-3.75-1.678-3.75-3.75 0-2.07 1.678-3.75 3.75-3.75 2.07,0 3.75,1.68 3.75,3.75 0,2.072-1.68,3.75-3.75,3.75z"/>
<path d="m177.922,199.928c-2.071,0-3.75-1.678-3.75-3.75 0-2.07 1.679-3.75 3.75-3.75 2.071,0 3.75,1.68 3.75,3.75 0,2.072-1.678,3.75-3.75,3.75z"/>
<path d="m192.646,252.813c-2.072,0-3.75-1.678-3.75-3.75 0-2.07 1.678-3.75 3.75-3.75 2.07,0 3.75,1.68 3.75,3.75 0,2.072-1.679,3.75-3.75,3.75z"/>
<path d="m162.797,264.653c-2.071,0-3.75-1.679-3.75-3.75 0-2.071 1.679-3.75 3.75-3.75 2.071,0 3.75,1.679 3.75,3.75 0,2.072-1.678,3.75-3.75,3.75z"/>
<path d="m208.329,192.434c2.068,.115 3.651,1.885 3.536,3.952-.113,2.068-1.883,3.651-3.951,3.536-2.068-.113-3.651-1.883-3.537-3.951 .115-2.069 1.885-3.652 3.952-3.537z"/>
<path d="m229.969,111.314c.114-2.068 1.883-3.651 3.951-3.537 2.068,.114 3.651,1.883 3.537,3.952-.115,2.068-1.884,3.651-3.952,3.537-2.067-.115-3.651-1.884-3.536-3.952z"/>
<path d="m194.297,276.117c-2.07,0-3.75-1.68-3.75-3.75 0-2.072 1.68-3.75 3.75-3.75 2.072,0 3.75,1.678 3.75,3.75 0,2.071-1.678,3.75-3.75,3.75z"/>
<path d="m165.047,233.117c-2.071,0-3.75-1.68-3.75-3.75 0-2.072 1.679-3.75 3.75-3.75 2.071,0 3.75,1.678 3.75,3.75 0,2.071-1.678,3.75-3.75,3.75z"/>
<path d="m166.547,193.867c-2.071,0-3.75-1.68-3.75-3.75 0-2.072 1.679-3.75 3.75-3.75 2.071,0 3.75,1.678 3.75,3.75 0,2.071-1.678,3.75-3.75,3.75z"/>
<path d="m192.646,207.525c-2.072,0-3.75-1.678-3.75-3.75 0-2.07 1.678-3.75 3.75-3.75 2.07,0 3.75,1.68 3.75,3.75 0,2.073-1.679,3.75-3.75,3.75z"/>
<path d="m186.041,227.46c2.068,.114 3.65,1.884 3.536,3.952-.114,2.068-1.884,3.65-3.952,3.536-2.067-.114-3.65-1.884-3.536-3.952 .114-2.067 1.884-3.65 3.952-3.536z"/>
<path d="m206.446,216.109c-2.071,0-3.75-1.678-3.75-3.75 0-2.07 1.679-3.75 3.75-3.75 2.071,0 3.75,1.68 3.75,3.75 0,2.073-1.678,3.75-3.75,3.75z"/>
<path d="m228.621,172.521c-2.07,0-3.75-1.679-3.75-3.75 0-2.071 1.68-3.75 3.75-3.75 2.072,0 3.75,1.679 3.75,3.75 0,2.072-1.678,3.75-3.75,3.75z"/>
<path d="m225.621,138.397c-2.07,0-3.75-1.679-3.75-3.75 0-2.071 1.68-3.75 3.75-3.75 2.072,0 3.75,1.679 3.75,3.75 0,2.071-1.678,3.75-3.75,3.75z"/>
<path d="m204.371,155.685c-2.07,0-3.75-1.679-3.75-3.75 0-2.071 1.68-3.75 3.75-3.75 2.072,0 3.75,1.679 3.75,3.75 0,2.071-1.678,3.75-3.75,3.75z"/>
<path d="m192.191,257.21c0-2.071 1.678-3.75 3.75-3.75 2.07,0 3.75,1.679 3.75,3.75 0,2.071-1.68,3.75-3.75,3.75-2.072,0-3.75-1.679-3.75-3.75z"/>
<path d="m198.359,222.616c0-2.071 1.678-3.75 3.75-3.75 2.07,0 3.75,1.679 3.75,3.75 0,2.071-1.68,3.75-3.75,3.75-2.072,0-3.75-1.678-3.75-3.75z"/>
<path d="m175.86,263.906c0-2.07 1.679-3.75 3.75-3.75 2.072,0 3.75,1.68 3.75,3.75 0,2.072-1.678,3.75-3.75,3.75-2.071,0-3.75-1.677-3.75-3.75z"/>
<path d="m212.746,172.521c0-2.071 1.68-3.75 3.75-3.75 2.072,0 3.75,1.679 3.75,3.75 0,2.071-1.678,3.75-3.75,3.75-2.07,0-3.75-1.678-3.75-3.75z"/>
<path d="m181.666,253.668c-.113,2.067-1.883,3.65-3.951,3.536-2.068-.114-3.651-1.884-3.537-3.952 .115-2.068 1.884-3.65 3.952-3.537 2.068,.115 3.651,1.885 3.536,3.953z"/>
<path d="m150.961,260.364c-.115,2.068-1.884,3.651-3.952,3.536-2.068-.113-3.651-1.883-3.537-3.951 .114-2.068 1.883-3.651 3.952-3.537 2.069,.115 3.652,1.885 3.537,3.952z"/>
<path d="m250.338,95.397c2.07,0 3.75,1.679 3.75,3.75 0,2.071-1.68,3.75-3.75,3.75-2.072,0-3.75-1.679-3.75-3.75 0-2.071 1.678-3.75 3.75-3.75z"/>
<path d="m166.102,235.656c2.071,0 3.75,1.68 3.75,3.75 0,2.072-1.679,3.75-3.75,3.75-2.071,0-3.75-1.678-3.75-3.75 0-2.07 1.678-3.75 3.75-3.75z"/>
<path d="m211.078,111.579c2.072,0 3.75,1.679 3.75,3.75 0,2.071-1.678,3.75-3.75,3.75-2.07,0-3.75-1.679-3.75-3.75 0-2.071 1.68-3.75 3.75-3.75z"/>
<path d="m233.713,148.282c2.07,0 3.75,1.679 3.75,3.75 0,2.071-1.68,3.75-3.75,3.75-2.072,0-3.75-1.679-3.75-3.75 0-2.071 1.678-3.75 3.75-3.75z"/>
<path d="m207.264,99.147c2.07,0 3.75,1.679 3.75,3.75 0,2.071-1.68,3.75-3.75,3.75-2.072,0-3.75-1.679-3.75-3.75 0-2.071 1.677-3.75 3.75-3.75z"/>
<path d="m248.838,83.557c2.07,0 3.75,1.679 3.75,3.75 0,2.071-1.68,3.75-3.75,3.75-2.072,0-3.75-1.679-3.75-3.75 0-2.071 1.678-3.75 3.75-3.75z"/>
<path d="m203.306,155.776c-2.068-.115-3.651-1.884-3.536-3.952 .113-2.068 1.883-3.651 3.951-3.537 2.068,.114 3.651,1.883 3.537,3.952-.115,2.069-1.885,3.652-3.952,3.537z"/>
<path d="m179.604,224.998c-.115,2.068-1.884,3.652-3.952,3.537-2.068-.114-3.651-1.883-3.537-3.951 .114-2.068 1.883-3.652 3.952-3.537 2.068,.115 3.652,1.884 3.537,3.951z"/>
<path d="m217.338,72.094c2.07,0 3.75,1.679 3.75,3.75 0,2.071-1.68,3.75-3.75,3.75-2.072,0-3.75-1.679-3.75-3.75 0-2.072 1.678-3.75 3.75-3.75z"/>
<path d="m246.588,115.094c2.07,0 3.75,1.679 3.75,3.75 0,2.071-1.68,3.75-3.75,3.75-2.072,0-3.75-1.679-3.75-3.75 0-2.072 1.678-3.75 3.75-3.75z"/>
<path d="m217.302,138.031c2.071,0 3.75,1.679 3.75,3.75 0,2.071-1.679,3.75-3.75,3.75-2.071,0-3.75-1.679-3.75-3.75 0-2.072 1.678-3.75 3.75-3.75z"/>
<path d="m221.664,119.073c-2.068-.115-3.651-1.884-3.537-3.952 .115-2.068 1.884-3.651 3.952-3.537 2.067,.114 3.651,1.883 3.536,3.952-.114,2.068-1.883,3.652-3.951,3.537z"/>
<path d="m216.496,123.954c2.072,0 3.75,1.679 3.75,3.75 0,2.071-1.678,3.75-3.75,3.75-2.07,0-3.75-1.679-3.75-3.75 0-2.072 1.68-3.75 3.75-3.75z"/>
<path d="m183.014,175.689c2.07,0 3.75,1.679 3.75,3.75 0,2.071-1.68,3.75-3.75,3.75-2.072,0-3.75-1.68-3.75-3.75-.001-2.071 1.678-3.75 3.75-3.75z"/>
<path d="m186.014,209.813c2.07,0 3.75,1.679 3.75,3.75 0,2.071-1.68,3.75-3.75,3.75-2.072,0-3.75-1.679-3.75-3.75 0-2.071 1.677-3.75 3.75-3.75z"/>
<path d="m207.264,192.525c2.07,0 3.75,1.68 3.75,3.75 0,2.072-1.68,3.75-3.75,3.75-2.072,0-3.75-1.678-3.75-3.75 0-2.07 1.677-3.75 3.75-3.75z"/>
<path d="m220.017,182.796c1.103-1.753 3.417-2.281 5.171-1.179 1.753,1.104 2.281,3.418 1.178,5.171-1.103,1.753-3.417,2.281-5.17,1.179-1.755-1.104-2.282-3.418-1.179-5.171z"/>
<path d="m165.89,207.109c1.103-1.754 3.417-2.281 5.171-1.178 1.753,1.102 2.281,3.417 1.178,5.17-1.103,1.754-3.417,2.281-5.171,1.178-1.754-1.101-2.281-3.416-1.178-5.17z"/>
<path d="m186.041,198.002c1.754,1.102 2.281,3.417 1.178,5.17-1.103,1.754-3.417,2.281-5.17,1.178-1.754-1.102-2.281-3.416-1.179-5.17 1.103-1.754 3.417-2.282 5.171-1.178z"/>
<path d="m202.295,178.81c-1.69-1.198-2.089-3.539-.891-5.228 1.197-1.69 3.538-2.088 5.229-.89 1.689,1.198 2.088,3.538 .89,5.228-1.199,1.689-3.539,2.088-5.228,.89z"/>
<path d="m263.309,101.347c0,2.071-1.678,3.75-3.75,3.75-2.07,0-3.75-1.679-3.75-3.75 0-2.071 1.68-3.75 3.75-3.75 2.072,0 3.75,1.678 3.75,3.75z"/>
<path d="m176.565,243.156c2.071,0 3.75,1.68 3.75,3.75 0,2.072-1.679,3.75-3.75,3.75-2.071,0-3.75-1.678-3.75-3.75 0-2.07 1.679-3.75 3.75-3.75z"/>
<path d="m217.302,203.775c2.071,0 3.75,1.68 3.75,3.75 0,2.072-1.679,3.75-3.75,3.75-2.071,0-3.75-1.678-3.75-3.75 0-2.07 1.678-3.75 3.75-3.75z"/>
<path d="m189.583,180.588c2.071,0 3.75,1.679 3.75,3.75 0,2.071-1.679,3.75-3.75,3.75-2.071,0-3.75-1.679-3.75-3.75 0-2.071 1.679-3.75 3.75-3.75z"/>
<path d="m151.419,269.584c2.071,0 3.75,1.68 3.75,3.75 0,2.072-1.679,3.75-3.75,3.75-2.071,0-3.75-1.678-3.75-3.75 0-2.07 1.679-3.75 3.75-3.75z"/>
<path d="m233.354,99.351c1.104-1.753 3.418-2.281 5.172-1.178 1.752,1.103 2.28,3.417 1.178,5.17-1.104,1.753-3.418,2.281-5.171,1.178-1.754-1.103-2.281-3.417-1.179-5.17z"/>
<path d="m230.271,195.533c1.754,1.104 2.281,3.418 1.178,5.172-1.103,1.752-3.417,2.28-5.17,1.178-1.754-1.104-2.281-3.418-1.179-5.171 1.103-1.753 3.418-2.28 5.171-1.179z"/>
<path d="m196.475,80.735c0,2.071-1.678,3.75-3.75,3.75-2.07,0-3.75-1.679-3.75-3.75 0-2.071 1.68-3.75 3.75-3.75 2.072,0 3.75,1.679 3.75,3.75z"/>
<path d="m181.388,114.129c0,2.071-1.679,3.75-3.75,3.75-2.071,0-3.75-1.679-3.75-3.75 0-2.071 1.679-3.75 3.75-3.75 2.071,0 3.75,1.679 3.75,3.75z"/>
<path d="m183.888,88.379c0,2.071-1.679,3.75-3.75,3.75-2.071,0-3.75-1.679-3.75-3.75 0-2.071 1.679-3.75 3.75-3.75 2.071,0 3.75,1.679 3.75,3.75z"/>
<path d="m153.638,145.534c0,2.071-1.679,3.75-3.75,3.75-2.071,0-3.75-1.679-3.75-3.75 0-2.071 1.679-3.75 3.75-3.75 2.071,0 3.75,1.679 3.75,3.75z"/>
<path d="m154.399,105.214c.114-2.068 1.883-3.651 3.952-3.537 2.068,.115 3.651,1.884 3.537,3.952-.115,2.068-1.884,3.651-3.952,3.537-2.068-.115-3.651-1.884-3.537-3.952z"/>
<path d="m172.144,125.921c.115-2.068 1.884-3.651 3.952-3.537 2.068,.114 3.651,1.883 3.537,3.952-.114,2.068-1.883,3.651-3.952,3.537-2.069-.115-3.652-1.884-3.537-3.952z"/>
<path d="m122.138,275.779c-2.071,0-3.75-1.679-3.75-3.75 0-2.071 1.679-3.75 3.75-3.75 2.071,0 3.75,1.679 3.75,3.75 0,2.072-1.679,3.75-3.75,3.75z"/>
<path d="m141.138,230.116c-2.071,0-3.75-1.679-3.75-3.75 0-2.071 1.679-3.75 3.75-3.75 2.071,0 3.75,1.679 3.75,3.75 0,2.072-1.679,3.75-3.75,3.75z"/>
<path d="m122.888,232.779c-2.071,0-3.75-1.679-3.75-3.75 0-2.071 1.679-3.75 3.75-3.75 2.071,0 3.75,1.679 3.75,3.75 0,2.072-1.679,3.75-3.75,3.75z"/>
<path d="m134.388,193.529c-2.071,0-3.75-1.679-3.75-3.75 0-2.071 1.679-3.75 3.75-3.75 2.071,0 3.75,1.679 3.75,3.75 0,2.072-1.679,3.75-3.75,3.75z"/>
<path d="m148.138,195.992c-2.071,0-3.75-1.68-3.75-3.75 0-2.072 1.679-3.75 3.75-3.75 2.071,0 3.75,1.678 3.75,3.75 0,2.071-1.679,3.75-3.75,3.75z"/>
<path d="m146.888,213.279c-2.071,0-3.75-1.679-3.75-3.75 0-2.071 1.679-3.75 3.75-3.75 2.071,0 3.75,1.679 3.75,3.75 0,2.072-1.679,3.75-3.75,3.75z"/>
<path d="m139.595,166.785c2.068,.115 3.651,1.884 3.537,3.952-.114,2.068-1.883,3.651-3.952,3.537-2.068-.114-3.651-1.883-3.537-3.952 .115-2.068 1.884-3.652 3.952-3.537z"/>
<path d="m202.109,146.31c0,2.071-1.68,3.75-3.75,3.75-2.072,0-3.75-1.679-3.75-3.75 0-2.071 1.678-3.75 3.75-3.75 2.071,0 3.75,1.678 3.75,3.75z"/>
<path d="m232.654,102.91c0,2.071-1.68,3.75-3.75,3.75-2.072,0-3.75-1.679-3.75-3.75 0-2.071 1.678-3.75 3.75-3.75 2.071,0 3.75,1.678 3.75,3.75z"/>
<path d="m187.795,190.285c0,2.07-1.679,3.75-3.75,3.75-2.071,0-3.75-1.68-3.75-3.75 0-2.072 1.679-3.75 3.75-3.75 2.071,0 3.75,1.678 3.75,3.75z"/>
<path d="m257.553,106.452c.114-2.068 1.883-3.651 3.951-3.537 2.068,.114 3.651,1.883 3.537,3.952-.115,2.068-1.884,3.651-3.952,3.537-2.068-.115-3.651-1.884-3.536-3.952z"/>
<path d="m158.176,271.419c-2.071,0-3.75-1.679-3.75-3.75 0-2.071 1.679-3.75 3.75-3.75 2.071,0 3.75,1.679 3.75,3.75 0,2.071-1.678,3.75-3.75,3.75z"/>
<path d="m202.696,254.406c-2.071,0-3.75-1.678-3.75-3.75 0-2.07 1.679-3.75 3.75-3.75 2.071,0 3.75,1.68 3.75,3.75 0,2.073-1.678,3.75-3.75,3.75z"/>
<path d="m174.801,218.534c-2.071,0-3.75-1.679-3.75-3.75 0-2.071 1.679-3.75 3.75-3.75 2.071,0 3.75,1.679 3.75,3.75 0,2.071-1.678,3.75-3.75,3.75z"/>
<path d="m189.525,226.132c-2.072,0-3.75-1.679-3.75-3.75 0-2.071 1.678-3.75 3.75-3.75 2.07,0 3.75,1.679 3.75,3.75 0,2.071-1.679,3.75-3.75,3.75z"/>
<path d="m167.359,278.763c0-2.071 1.679-3.75 3.75-3.75 2.071,0 3.75,1.679 3.75,3.75 0,2.071-1.679,3.75-3.75,3.75-2.071,0-3.75-1.679-3.75-3.75z"/>
<path d="m209.625,191.127c0-2.07 1.68-3.75 3.75-3.75 2.072,0 3.75,1.68 3.75,3.75 0,2.072-1.678,3.75-3.75,3.75-2.07,0-3.75-1.678-3.75-3.75z"/>
<path d="m188.262,271.627c-.115,2.068-1.884,3.651-3.952,3.537-2.067-.115-3.651-1.885-3.537-3.952 .115-2.068 1.883-3.651 3.952-3.537 2.068,.114 3.651,1.884 3.537,3.952z"/>
<path d="m147.84,278.971c-.115,2.068-1.884,3.65-3.952,3.536-2.068-.114-3.651-1.884-3.537-3.952 .114-2.067 1.883-3.65 3.952-3.536 2.069,.114 3.652,1.883 3.537,3.952z"/>
<path d="m168.165,252.656c2.071,0 3.75,1.68 3.75,3.75 0,2.072-1.679,3.75-3.75,3.75-2.071,0-3.75-1.678-3.75-3.75 0-2.07 1.678-3.75 3.75-3.75z"/>
<path d="m200.185,174.382c-2.068-.115-3.651-1.884-3.536-3.952 .113-2.068 1.883-3.651 3.951-3.537 2.068,.114 3.651,1.883 3.537,3.952-.116,2.069-1.885,3.652-3.952,3.537z"/>
<path d="m186.008,239.614c-.115,2.068-1.885,3.651-3.952,3.536-2.068-.113-3.651-1.883-3.537-3.951 .114-2.068 1.883-3.651 3.952-3.537 2.068,.115 3.651,1.885 3.537,3.952z"/>
<path d="m214.181,156.637c2.071,0 3.75,1.679 3.75,3.75 0,2.071-1.679,3.75-3.75,3.75-2.071,0-3.75-1.679-3.75-3.75 0-2.072 1.678-3.75 3.75-3.75z"/>
<path d="m213.973,138.391c-2.068-.115-3.65-1.884-3.536-3.952 .114-2.068 1.884-3.651 3.952-3.537 2.067,.114 3.65,1.883 3.536,3.952-.114,2.068-1.884,3.652-3.952,3.537z"/>
<path d="m214.181,222.382c2.071,0 3.75,1.679 3.75,3.75 0,2.071-1.679,3.75-3.75,3.75-2.071,0-3.75-1.679-3.75-3.75 0-2.071 1.678-3.75 3.75-3.75z"/>
<path d="m194.667,191.207c2.071,0 3.75,1.68 3.75,3.75 0,2.072-1.679,3.75-3.75,3.75-2.071,0-3.75-1.678-3.75-3.75 0-2.07 1.679-3.75 3.75-3.75z"/>
<path d="m202.109,239.646c2.07,0 3.75,1.68 3.75,3.75 0,2.072-1.68,3.75-3.75,3.75-2.072,0-3.75-1.678-3.75-3.75 0-2.07 1.678-3.75 3.75-3.75z"/>
<path d="m230.232,117.957c1.104-1.753 3.418-2.281 5.172-1.178 1.752,1.103 2.28,3.417 1.178,5.17-1.104,1.753-3.418,2.281-5.171,1.178-1.753-1.103-2.28-3.418-1.179-5.17z"/>
</g>
</svg>
