<svg xmlns="http://www.w3.org/2000/svg" viewBox="20 20 321 321">
<g fill="#000">
<path d="m251.833,286.334c0-36.111 0-72.223 0-108.333 0-6.449-10-6.449-10,0 0,36.111 0,72.222 0,108.333 0,6.448 10,6.448 10,0z"/>
<path d="m251.833,120.001c0-6.956 0-13.911 0-20.866 0-6.449-10-6.449-10,0 0,6.956 0,13.911 0,20.866 0,6.449 10,6.449 10,0z"/>
<path d="m288.759,113.632c-28.202-14.46-56.405-28.92-84.608-43.38-5.727-2.936-10.787,5.692-5.047,8.635 28.203,14.46 56.405,28.92 84.608,43.38 5.726,2.936 10.787-5.692 5.047-8.635z"/>
<path d="m136.833,150.984c6.2-1.85 12.492-3.471 18.851-4.672 8.5-1.605 15.959,.971 23.905,3.886 10.954,4.018 22.235,10.623 34.065,11.009 7.296,.238 15.346-3.587 21.991-6.186 4.038-1.579 8.011-3.305 12.074-4.823 7.977-2.98 15.38-5.382 23.906-3.886 6.361,1.116 12.664,2.827 18.851,4.672 1.858,.555 2.646-2.341 .797-2.893-6.2-1.85-12.491-3.471-18.851-4.673-7.98-1.507-14.637,.111-22.247,2.718-11.71,4.011-24.009,11.662-36.521,12.07-7.452,.243-15.945-3.972-22.727-6.689-4.586-1.838-9.129-3.741-13.794-5.38-7.143-2.51-13.599-4.118-21.125-2.915-6.746,1.079-13.432,2.918-19.974,4.87-1.848,.551-1.06,3.447 .799,2.892z"/>
<path d="m144.425,159.588c6.024-2.177 12.932-4.321 19.379-3.757 6.911,.605 13.977,3.766 20.365,6.296 9.375,3.713 19.262,8.915 29.485,9.248 6.396,.208 13.369-2.933 19.231-5.123 3.208-1.198 6.352-2.547 9.524-3.832 6.354-2.575 12.89-5.027 19.629-6.363 6.764-1.341 14.501,1.237 20.846,3.53 1.823,.659 2.602-2.24 .797-2.893-5.921-2.14-12.23-3.792-18.546-3.964-6.732-.185-14.043,3.152-20.203,5.492-9.988,3.794-20.465,9.8-31.278,10.152-6.682,.218-14.219-3.385-20.328-5.741-3.364-1.297-6.668-2.743-10.026-4.056-6.488-2.538-13.35-5.21-20.343-5.822-6.329-.554-13.449,1.813-19.33,3.939-1.805,.654-1.026,3.553 .798,2.894z"/>
<path d="m144.542,139.316c6.024-2.177 12.932-4.322 19.379-3.758 6.912,.605 13.978,3.767 20.365,6.297 9.375,3.713 19.262,8.914 29.485,9.248 6.396,.208 13.369-2.933 19.231-5.122 3.207-1.198 6.351-2.547 9.523-3.832 6.354-2.575 12.89-5.027 19.63-6.363 6.764-1.341 14.502,1.238 20.846,3.531 1.823,.659 2.602-2.24 .797-2.893-5.921-2.141-12.23-3.792-18.546-3.965-6.732-.185-14.043,3.152-20.203,5.492-9.988,3.794-20.465,9.799-31.278,10.152-6.682,.218-14.219-3.384-20.328-5.74-3.364-1.297-6.668-2.743-10.026-4.056-6.488-2.537-13.35-5.21-20.343-5.822-6.329-.554-13.449,1.814-19.33,3.939-1.805,.652-1.026,3.552 .798,2.892z"/>
<path d="m77.519,107.922c18.877-9.678 37.754-19.357 56.631-29.035 5.74-2.943 .68-11.571-5.047-8.635-18.877,9.678-37.754,19.357-56.631,29.035-5.741,2.943-.68,11.571 5.047,8.635z"/>
<path d="m81.009,259.453c-.507-3.918-4.292-2.751-7.425-2.751-2.73,0-3.126,1.467-3.126,3.967 0,7.728 0,15.455 0,23.183 0,3.95 4.781,2.751 7.424,2.751 2.73,0 3.127-1.467 3.127-3.967 0-7.728 0-15.455 0-23.183 0-1.935-3-1.935-3,0 0,5.826 0,11.652 0,17.479 0,2.288 0,4.577 0,6.866 0-.051 1.749-.196 .519-.196-.778,0-1.557,0-2.334,0-.87,0-1.74,0-2.609,0-1.923,0-.175-.126-.126,.249-.728-5.624 0-11.812 0-17.479 0-2.288 0-4.577 0-6.866 0,.051-1.749,.196-.52,.196 .778,0 1.557,0 2.334,0 .87,0 1.74,0 2.609,0 1.922,0 .176,.126 .127-.249 .245,1.891 3.248,1.915 3,0z"/>
<path d="m80.434,291.722c8.259-6.312 16.518-12.624 24.776-18.937 .954-.729 .954-1.861 0-2.59-8.259-6.313-16.518-12.625-24.776-18.937-.938-.717-2.257,.265-2.257,1.295 0,12.624 0,25.249 0,37.873 0,1.935 3,1.935 3,0 0-12.624 0-25.249 0-37.873-.752,.432-1.505,.863-2.257,1.295 8.259,6.313 16.518,12.625 24.777,18.937 0-.863 0-1.727 0-2.59-8.259,6.312-16.518,12.624-24.777,18.937-1.516,1.157-.024,3.765 1.514,2.59z"/>
<path d="m209.924,227.144c-15.928,0-31.856-.001-47.785-.001 .825,.342 1.65,.684 2.475,1.025-4.354-5.155-11.58-14.281-18.929-14.28-8.416,0-15.215,8.273-20.287,14.28 .825-.342 1.65-.684 2.475-1.025-10.188,0-20.375,0-30.563,0-8.301,0-26.775-3.438-26.775,9.528 0,12.919 18.261,9.527 26.544,9.527 10.412,0 20.824,0 31.236,0-.825-.342-1.65-.684-2.475-1.025 4.466,4.94 11.196,13.718 18.487,13.718 8.387,0 14.62-7.944 19.845-13.718-.825,.342-1.65,.684-2.475,1.025 12.293,0 24.587-.001 36.88-.001 3.898,0 9.724,1.092 13.535-.27 10.056-3.59 8.351-17.573-2.188-18.783-4.48-.515-4.431,6.491 0,7 4.391,.504 1.089,5.054-1.61,5.054-2.688,0-5.378,0-8.066,0-7.879,0-15.759,.001-23.638,.001-4.935,0-9.87,0-14.805,0-2.176,0-3.69,2.188-5.105,3.604-2.407,2.406-4.814,4.813-7.221,7.221-6.186,6.186-14.13-5.188-18.104-9.161-2.782-2.781-8.193-1.663-11.824-1.663-13.204,0-26.408,0-39.613,0-3.214,0-3.191-5.056 .007-5.056 2.075,0 4.15,0 6.226,0 7.65,0 15.301,0 22.952,0 5.942,0 11.883,0 17.825,0 4.465,0 9.252-7.052 12.202-10.001 3.002-3.002 6.933-4.783 10.522-1.193 2.527,2.527 5.055,5.056 7.583,7.583 1.512,1.512 2.777,3.611 5.127,3.611 1.929,0 3.859,0 5.788,0 13.605,0 27.209,.001 40.814,.001 .313,0 .627,0 .94,0 4.514-.001 4.514-7.001 0-7.001z"/>
<path d="m208.822,213.277c.509,3.917 4.292,2.751 7.425,2.751 2.73,0 3.127-1.467 3.127-3.967 0-7.728 0-15.455 0-23.183 0-3.95-4.78-2.751-7.424-2.751-2.73,0-3.128,1.467-3.128,3.967 0,7.728 0,15.456 0,23.183 0,1.935 3,1.935 3,0 0-5.826 0-11.652 0-17.479 0-2.288 0-4.577 0-6.866 0,.051-1.748,.196-.519,.196 .778,0 1.557,0 2.335,0 .869,0 1.739,0 2.608,0 1.924,0 .176,.126 .127-.249 .728,5.625 0,11.812 0,17.479 0,2.288 0,4.577 0,6.866 0-.051 1.749-.196 .52-.196-.778,0-1.557,0-2.335,0-.869,0-1.739,0-2.608,0-1.923,0-.177-.127-.128,.249-.245-1.89-3.249-1.914-3,0z"/>
<path d="m209.399,181.009c-8.26,6.312-16.519,12.624-24.777,18.937-.953,.729-.953,1.861 0,2.59 8.259,6.313 16.518,12.625 24.777,18.937 .938,.717 2.257-.265 2.257-1.295 0-12.624 0-25.249 0-37.873 0-1.935-3-1.935-3,0 0,12.624 0,25.249 0,37.873 .752-.432 1.505-.863 2.257-1.295-8.259-6.313-16.518-12.625-24.777-18.937 0,.863 0,1.727 0,2.59 8.26-6.312 16.519-12.624 24.777-18.937 1.516-1.158 .024-3.766-1.514-2.59z"/>
</g>
</svg>
