<svg xmlns="http://www.w3.org/2000/svg" viewBox="20 20 321 321">
<g fill="#000">
<path d="m292.02,180.678c0,2.848-.424,5.352-1.271,7.512-.849,2.16-2.01,3.969-3.48,5.424-1.473,1.457-3.225,2.553-5.256,3.288-2.033,.735-4.217,1.104-6.553,1.104-2.271,0-4.416-.369-6.432-1.104s-3.775-1.831-5.279-3.288c-1.505-1.455-2.688-3.264-3.553-5.424-.863-2.16-1.296-4.664-1.296-7.512 0-2.848 .448-5.352 1.345-7.512 .895-2.16 2.104-3.976 3.623-5.448 1.52-1.471 3.28-2.575 5.28-3.312 1.999-.735 4.104-1.104 6.312-1.104 2.272,0 4.416,.369 6.433,1.104 2.017,.737 3.775,1.841 5.28,3.312 1.504,1.473 2.688,3.288 3.552,5.448s1.295,4.664 1.295,7.512zm-25.393,0c0,1.632 .2,3.104 .601,4.416 .399,1.313 .976,2.44 1.728,3.384 .752,.944 1.672,1.673 2.76,2.185s2.336,.768 3.744,.768c1.376,0 2.617-.256 3.721-.768s2.031-1.24 2.783-2.185c.752-.943 1.328-2.071 1.729-3.384s.6-2.784 .6-4.416c0-1.632-.199-3.112-.6-4.44-.4-1.327-.977-2.463-1.729-3.408-.752-.943-1.68-1.672-2.783-2.184-1.104-.512-2.345-.768-3.721-.768-1.408,0-2.656,.264-3.744,.792s-2.008,1.265-2.76,2.208c-.752,.944-1.328,2.081-1.728,3.408-.401,1.328-.601,2.792-.601,4.392z"/>
<path d="m174.833,160.042 8.952-38.063 8.382,38.063z"/>
<path d="m176.28,160.441c2.984-12.688 5.968-25.375 8.952-38.063-.964,0-1.929,0-2.893,0 2.794,12.688 5.588,25.375 8.382,38.063 .482-.633 .964-1.266 1.446-1.899-5.778,0-11.556,0-17.333,0-1.935,0-1.935,3 0,3 5.778,0 11.555,0 17.333,0 1.014,0 1.654-.954 1.446-1.899-2.794-12.688-5.588-25.375-8.382-38.063-.318-1.448-2.558-1.423-2.893,0-2.984,12.688-5.968,25.375-8.952,38.063-.442,1.882 2.451,2.681 2.894,.798z"/>
<path d="m239.118,177.189c-10.674-2.415-21.348-4.83-32.021-7.245 .856,1.125 1.713,2.25 2.569,3.375 0-4.834 .81-10.292-1.102-14.821-2.332-5.526-11.34-3.998-15.96-3.998 1.125,.856 2.25,1.713 3.375,2.569-3.035-13.414-6.069-26.827-9.104-40.241-.758-3.35-5.992-3.35-6.75,0-3.035,13.414-6.069,26.828-9.104,40.241 1.125-.856 2.25-1.713 3.375-2.569-5.112,0-11.876-1.289-15.413,3.29-2.98,3.857-1.649,10.975-1.649,15.53 .856-1.125 1.713-2.25 2.569-3.375-10.673,2.415-21.347,4.83-32.02,7.244-3.35,.758-3.35,5.992 0,6.75 10.673,2.415 21.347,4.829 32.02,7.244-.856-1.125-1.713-2.25-2.569-3.375 0,3.867-1.472,11.696 1.102,15.028 3.981,5.154 9.991,3.998 15.849,3.998-1.125-.856-2.25-1.713-3.375-2.569 3.072,13.078 6.144,26.157 9.215,39.236 .784,3.34 5.978,3.359 6.75,0 3.007-13.079 6.015-26.158 9.021-39.236-1.125,.856-2.25,1.713-3.375,2.569 4.878,0 11.929,1.328 15.328-3.072 3.141-4.067 1.816-11.128 1.816-15.953-.856,1.125-1.713,2.25-2.569,3.375 10.674-2.415 21.348-4.83 32.021-7.245 4.402-.995 2.535-7.744-1.861-6.75-10.674,2.415-21.348,4.83-32.021,7.245-1.509,.342-2.569,1.873-2.569,3.375 0,3.512 0,7.022 0,10.534 0,2.603-8.361,1.491-10.145,1.491-1.506,0-3.028,1.062-3.375,2.569-3.007,13.079-6.015,26.158-9.021,39.236 2.25,0 4.5,0 6.75,0-3.072-13.078-6.144-26.157-9.215-39.236-.354-1.508-1.863-2.569-3.375-2.569-1.41,0-9.951,.923-9.951-1.182 0-3.615 0-7.229 0-10.845 0-1.502-1.061-3.033-2.569-3.375-10.673-2.414-21.347-4.829-32.02-7.244 0,2.25 0,4.5 0,6.75 10.673-2.414 21.347-4.829 32.02-7.244 1.509-.341 2.569-1.873 2.569-3.375 0-3.446 0-6.891 0-10.337 0-2.632 8.13-1.482 10.063-1.482 1.502,0 3.034-1.061 3.375-2.569 3.035-13.414 6.069-26.828 9.104-40.241-2.25,0-4.5,0-6.75,0 3.035,13.414 6.069,26.827 9.104,40.241 .342,1.509 1.873,2.569 3.375,2.569 1.563,0 10.062-.938 10.062,1.179 0,3.546 0,7.093 0,10.64 0,1.502 1.061,3.034 2.569,3.375 10.674,2.415 21.348,4.83 32.021,7.244 4.396,.996 6.264-5.753 1.861-6.749z"/>
</g>
</svg>
