<svg xmlns="http://www.w3.org/2000/svg" viewBox="20 20 321 321">
<g fill="#000">
<path d="m174.833,160.042 8.952-38.063 8.382,38.063z"/>
<path d="m176.28,160.441c2.984-12.688 5.968-25.375 8.952-38.063-.964,0-1.929,0-2.893,0 2.794,12.688 5.588,25.375 8.382,38.063 .482-.633 .964-1.266 1.446-1.899-5.778,0-11.556,0-17.333,0-1.935,0-1.935,3 0,3 5.778,0 11.555,0 17.333,0 1.014,0 1.654-.954 1.446-1.899-2.794-12.688-5.588-25.375-8.382-38.063-.318-1.448-2.558-1.423-2.893,0-2.984,12.688-5.968,25.375-8.952,38.063-.442,1.882 2.451,2.681 2.894,.798z"/>
<path d="m239.118,177.189c-10.674-2.415-21.348-4.83-32.021-7.245 .856,1.125 1.713,2.25 2.569,3.375 0-4.834 .81-10.292-1.102-14.821-2.332-5.526-11.34-3.998-15.96-3.998 1.125,.856 2.25,1.713 3.375,2.569-3.035-13.414-6.069-26.827-9.104-40.241-.758-3.35-5.992-3.35-6.75,0-3.035,13.414-6.069,26.828-9.104,40.241 1.125-.856 2.25-1.713 3.375-2.569-5.112,0-11.876-1.289-15.413,3.29-2.98,3.857-1.649,10.975-1.649,15.53 .856-1.125 1.713-2.25 2.569-3.375-10.673,2.415-21.347,4.83-32.02,7.244-3.35,.758-3.35,5.992 0,6.75 10.673,2.415 21.347,4.829 32.02,7.244-.856-1.125-1.713-2.25-2.569-3.375 0,3.867-1.472,11.696 1.102,15.028 3.981,5.154 9.991,3.998 15.849,3.998-1.125-.856-2.25-1.713-3.375-2.569 3.072,13.078 6.144,26.157 9.215,39.236 .784,3.34 5.978,3.359 6.75,0 3.007-13.079 6.015-26.158 9.021-39.236-1.125,.856-2.25,1.713-3.375,2.569 4.878,0 11.929,1.328 15.328-3.072 3.141-4.067 1.816-11.128 1.816-15.953-.856,1.125-1.713,2.25-2.569,3.375 10.674-2.415 21.348-4.83 32.021-7.245 4.402-.995 2.535-7.744-1.861-6.75-10.674,2.415-21.348,4.83-32.021,7.245-1.509,.342-2.569,1.873-2.569,3.375 0,3.512 0,7.022 0,10.534 0,2.603-8.361,1.491-10.145,1.491-1.506,0-3.028,1.062-3.375,2.569-3.007,13.079-6.015,26.158-9.021,39.236 2.25,0 4.5,0 6.75,0-3.072-13.078-6.144-26.157-9.215-39.236-.354-1.508-1.863-2.569-3.375-2.569-1.41,0-9.951,.923-9.951-1.182 0-3.615 0-7.229 0-10.845 0-1.502-1.061-3.033-2.569-3.375-10.673-2.414-21.347-4.829-32.02-7.244 0,2.25 0,4.5 0,6.75 10.673-2.414 21.347-4.829 32.02-7.244 1.509-.341 2.569-1.873 2.569-3.375 0-3.446 0-6.891 0-10.337 0-2.632 8.13-1.482 10.063-1.482 1.502,0 3.034-1.061 3.375-2.569 3.035-13.414 6.069-26.828 9.104-40.241-2.25,0-4.5,0-6.75,0 3.035,13.414 6.069,26.827 9.104,40.241 .342,1.509 1.873,2.569 3.375,2.569 1.563,0 10.062-.938 10.062,1.179 0,3.546 0,7.093 0,10.64 0,1.502 1.061,3.034 2.569,3.375 10.674,2.415 21.348,4.83 32.021,7.244 4.396,.996 6.264-5.753 1.861-6.749z"/>
<path d="m240.203,285.283c1.056,0 1.928-.088 2.615-.265 .688-.175 1.24-.415 1.656-.719 .416-.305 .704-.664 .864-1.08 .159-.416 .24-.881 .24-1.393 0-1.088-.513-1.992-1.536-2.712-1.024-.72-2.784-1.495-5.279-2.328-1.089-.384-2.178-.823-3.265-1.319-1.089-.496-2.063-1.121-2.929-1.873-.863-.751-1.567-1.663-2.111-2.736-.545-1.07-.816-2.375-.816-3.911s.289-2.92 .864-4.152c.576-1.231 1.392-2.28 2.448-3.144 1.057-.864 2.336-1.527 3.84-1.992 1.504-.463 3.199-.696 5.088-.696 2.24,0 4.176,.24 5.809,.72 1.632,.48 2.976,1.008 4.031,1.584l-2.16,5.904c-.928-.48-1.96-.903-3.096-1.271-1.137-.367-2.504-.553-4.104-.553-1.793,0-3.08,.248-3.864,.744s-1.176,1.256-1.176,2.28c0,.608 .144,1.12 .432,1.536s.696,.792 1.224,1.128c.528,.336 1.137,.641 1.824,.912 .688,.272 1.447,.552 2.28,.84 1.728,.641 3.231,1.272 4.513,1.896 1.279,.625 2.344,1.353 3.191,2.185 .848,.833 1.479,1.808 1.896,2.928 .415,1.12 .623,2.48 .623,4.08 0,3.104-1.088,5.513-3.264,7.224-2.176,1.713-5.456,2.568-9.84,2.568-1.473,0-2.801-.088-3.984-.264s-2.232-.393-3.144-.648c-.912-.256-1.696-.527-2.353-.816-.656-.287-1.208-.559-1.656-.815l2.113-5.952c.99,.545 2.215,1.032 3.672,1.465 1.458,.429 3.242,.645 5.354,.645z"/>
<path d="m292.02,274.34c0,2.848-.424,5.352-1.271,7.512-.849,2.16-2.01,3.968-3.48,5.424-1.473,1.456-3.225,2.552-5.256,3.287-2.033,.736-4.217,1.104-6.553,1.104-2.271,0-4.416-.368-6.432-1.104-2.016-.735-3.775-1.831-5.279-3.287-1.505-1.456-2.688-3.264-3.553-5.424-.863-2.16-1.296-4.664-1.296-7.512 0-2.849 .448-5.353 1.345-7.513 .895-2.16 2.104-3.976 3.623-5.448 1.52-1.471 3.28-2.575 5.28-3.313 1.999-.734 4.104-1.104 6.312-1.104 2.272,0 4.416,.369 6.433,1.104 2.017,.737 3.775,1.842 5.28,3.313 1.504,1.473 2.688,3.288 3.552,5.448s1.295,4.664 1.295,7.513zm-25.393,0c0,1.631 .2,3.104 .601,4.415 .399,1.313 .976,2.44 1.728,3.384 .752,.945 1.672,1.673 2.76,2.185 1.088,.513 2.336,.769 3.744,.769 1.376,0 2.617-.256 3.721-.769 1.104-.512 2.031-1.239 2.783-2.185 .752-.943 1.328-2.071 1.729-3.384 .4-1.312 .6-2.784 .6-4.415 0-1.633-.199-3.112-.6-4.441-.4-1.326-.977-2.463-1.729-3.407-.752-.943-1.68-1.672-2.783-2.185-1.104-.512-2.345-.768-3.721-.768-1.408,0-2.656,.264-3.744,.792s-2.008,1.265-2.76,2.208c-.752,.944-1.328,2.08-1.728,3.408-.401,1.328-.601,2.792-.601,4.393z"/>
</g>
</svg>
