<svg xmlns="http://www.w3.org/2000/svg" viewBox="20 20 321 321">
<g fill="#000">
<path d="m247.473,291.387c-3.121-.049-5.652-.385-7.596-1.008-1.944-.623-3.481-1.5-4.608-2.628-1.128-1.128-1.897-2.495-2.304-4.104-.408-1.607-.612-3.42-.612-5.436v-41.688l10.728-1.729v41.256c0,.961 .072,1.825 .217,2.592 .144,.769 .42,1.417 .828,1.944 .406,.528 .995,.961 1.764,1.296 .768,.336 1.8,.553 3.096,.648l-1.513,8.857z"/>
<path d="m271.623,263.412l7.529-10.617h11.088l-13.145,18.416c3.012,3.461 5.688,6.898 8.026,10.316 2.338,3.418 4.212,6.465 5.622,9.14h-11.506c-.392-.722-.874-1.624-1.449-2.704-.576-1.079-1.223-2.209-1.941-3.386-.721-1.177-1.471-2.173-2.254-2.99-.783-.816-1.555-1.56-2.313-2.228-.726,.621-1.464,1.309-2.213,2.061s-1.462,1.691-2.137,2.818c-.675,1.125-1.337,2.239-1.987,3.342s-1.229,2.131-1.734,3.087h-10.913c.603-1.181 1.399-2.595 2.39-4.239s2.074-3.341 3.256-5.09c1.181-1.748 2.457-3.446 3.831-5.096s2.723-3.197 4.046-4.645c-2.355-3.346-4.618-6.561-6.791-9.647-2.174-3.087-4.32-6.138-6.443-9.155h11.592l7.446,10.617z"/>
<path d="m117.333,284.498c-.767,6.657-15.327,4.169-19.041,4.169-6.643,0-13.286,0-19.929,0-7.123,0-5.03-11.418-5.03-15.395 0-26.883 0-53.766 0-80.648 0-30.165 0-60.33 0-90.495 0-7.767 0-15.533 0-23.299 0-3.083 1.649-6.163 5.393-6.163 6.847,0 13.694,0 20.541,0 3.016,0 18.066-2.263 18.066,4.176 0,1.36 0,2.72 0,4.08 0,8.959 0,17.917 0,26.876 0,30.909 0,61.818 0,92.727 0,27.991 0,55.981 0,83.972 0,1.935 3,1.935 3,0 0-48.865 0-97.729 0-146.594 0-20.057 0-40.113 0-60.169 0-11.221-15.739-8.067-23.022-8.067-6.417,0-12.833,0-19.25,0-4.409,0-7.728,3.102-7.728,7.572 0,51.14 0,102.28 0,153.421 0,17.646 0,35.293 0,52.939 0,10.323 12.199,8.067 19.154,8.067 6.82,0 13.64,0 20.46,0 5.201,0 9.684-1.076 10.385-7.169 .222-1.92-2.78-1.898-2.999-0z"/>
<path d="m189.635,79.054c4.97,4.97 9.939,9.939 14.909,14.909 4.563,4.563 11.635-2.507 7.07-7.071-4.97-4.97-9.939-9.939-14.909-14.909-4.563-4.564-11.635,2.507-7.07,7.071z"/>
<path d="m158.924,125.156c13.196,0 26.393,0 39.589,0 6.448,0 6.448-10 0-10-13.196,0-26.393,0-39.589,0-6.448,0-6.448,10 0,10z"/>
<path d="m289.652,163.749c-5.012-5.012-10.024-10.024-15.037-15.037-4.563-4.563-11.635,2.507-7.07,7.071 5.012,5.012 10.024,10.024 15.037,15.037 4.564,4.563 11.635-2.507 7.07-7.071z"/>
<path d="m245.17,201.401c0-13.196 0-26.392 0-39.588 0-6.449-10-6.449-10,0 0,13.196 0,26.392 0,39.588 0,6.449 10,6.449 10,0z"/>
<path d="m184.802,183.776c9.332-9.331 18.663-18.663 27.994-27.994 4.564-4.564-2.507-11.635-7.07-7.071-9.332,9.332-18.663,18.663-27.995,27.995-4.564,4.564 2.507,11.635 7.071,7.07z"/>
<path d="m158.924,125.156c13.196,0 26.393,0 39.589,0 6.448,0 6.448-10 0-10-13.196,0-26.393,0-39.589,0-6.448,0-6.448,10 0,10z"/>
<path d="m245.17,201.401c0-13.196 0-26.392 0-39.588 0-6.449-10-6.449-10,0 0,13.196 0,26.392 0,39.588 0,6.449 10,6.449 10,0z"/>
<path d="m184.802,183.776c9.332-9.331 18.663-18.663 27.994-27.994 4.564-4.564-2.507-11.635-7.07-7.071-9.332,9.332-18.663,18.663-27.995,27.995-4.564,4.564 2.507,11.635 7.071,7.07z"/>
<path d="m186.423,103.898c3.716,1.54 7.432,3.079 11.147,4.618 2.522,1.045 5.495-1.11 6.15-3.492 .791-2.875-.977-5.108-3.492-6.15-3.716-1.54-7.432-3.079-11.147-4.618-2.522-1.045-5.495,1.11-6.15,3.492-.791,2.875 .976,5.108 3.492,6.15z"/>
<path d="m189.419,148.097c3.716-1.539 7.432-3.078 11.147-4.617 2.516-1.042 4.283-3.275 3.492-6.15-.655-2.382-3.628-4.537-6.15-3.492-3.716,1.539-7.432,3.078-11.147,4.617-2.516,1.042-4.283,3.275-3.492,6.15 .655,2.382 3.627,4.537 6.15,3.492z"/>
<path d="m223.579,173.581c1.539-3.715 3.078-7.431 4.617-11.147 1.045-2.523-1.109-5.495-3.492-6.15-2.875-.791-5.108,.976-6.15,3.492-1.539,3.715-3.078,7.431-4.617,11.147-1.045,2.523 1.109,5.495 3.492,6.15 2.875,.791 5.108-.976 6.15-3.492z"/>
<path d="m266.087,170.922c-1.539-3.716-3.079-7.432-4.618-11.147-1.042-2.516-3.275-4.283-6.15-3.492-2.382,.655-4.537,3.628-3.492,6.15 1.539,3.716 3.079,7.432 4.618,11.147 1.042,2.516 3.275,4.283 6.15,3.492 2.382-.655 4.537-3.627 3.492-6.15z"/>
<path d="m213.969,76.748c.852,2.056 1.704,4.112 2.556,6.168 1.042,2.516 3.275,4.283 6.15,3.492 2.382-.655 4.537-3.628 3.492-6.15-.852-2.056-1.704-4.112-2.556-6.168-1.042-2.516-3.275-4.283-6.15-3.492-2.382,.654-4.537,3.627-3.492,6.15z"/>
<path d="m287.878,135.151c-2.147-.889-4.294-1.778-6.441-2.667-2.522-1.045-5.495,1.109-6.15,3.492-.791,2.875 .976,5.108 3.492,6.15 2.147,.889 4.294,1.778 6.441,2.667 2.522,1.045 5.495-1.109 6.15-3.492 .791-2.874-.975-5.108-3.492-6.15z"/>
</g>
<path fill="none"  stroke="#000" stroke-width="10" d="m264.688,128.838c0,7.845-6.36,14.206-14.205,14.206h-18.275c-7.846,0-14.206-6.36-14.206-14.206v-17.363c0-7.846 6.36-14.206 14.206-14.206h18.275c7.845,0 14.205,6.36 14.205,14.206v17.363z"/>
<g fill="#000">
<path d="m82.859,282.428c8.304,0 16.607,0 24.911,0 6.449,0 6.449-10 0-10-8.304,0-16.607,0-24.911,0-6.448,0-6.448,10 0,10z"/>
<path d="m82.859,267.855c8.304,0 16.607,0 24.911,0 6.449,0 6.449-10 0-10-8.304,0-16.607,0-24.911,0-6.448,0-6.448,10 0,10z"/>
<path d="m82.859,253.283c8.304,0 16.607,0 24.911,0 6.449,0 6.449-10 0-10-8.304,0-16.607,0-24.911,0-6.448,0-6.448,10 0,10z"/>
<path d="m82.859,238.71c8.304,0 16.607,0 24.911,0 6.449,0 6.449-10 0-10-8.304,0-16.607,0-24.911,0-6.448,0-6.448,10 0,10z"/>
<path d="m82.859,224.138c8.304,0 16.607,0 24.911,0 6.449,0 6.449-10 0-10-8.304,0-16.607,0-24.911,0-6.448,0-6.448,10 0,10z"/>
<path d="m82.859,209.565c8.304,0 16.607,0 24.911,0 6.449,0 6.449-10 0-10-8.304,0-16.607,0-24.911,0-6.448,0-6.448,10 0,10z"/>
<path d="m82.859,194.993c8.304,0 16.607,0 24.911,0 6.449,0 6.449-10 0-10-8.304,0-16.607,0-24.911,0-6.448,0-6.448,10 0,10z"/>
<path d="m82.859,180.42c8.304,0 16.607,0 24.911,0 6.449,0 6.449-10 0-10-8.304,0-16.607,0-24.911,0-6.448,0-6.448,10 0,10z"/>
<path d="m82.859,165.848c8.304,0 16.607,0 24.911,0 6.449,0 6.449-10 0-10-8.304,0-16.607,0-24.911,0-6.448,0-6.448,10 0,10z"/>
</g>
</svg>
