<svg xmlns="http://www.w3.org/2000/svg" viewBox="20 20 321 321">
<g fill="#000">
<g  stroke="#000" stroke-width="13.063">
<path d="m196.204,141.073c0,4.329-3.148,7.838-7.032,7.838h-54.512c-3.885,0-7.035-3.51-7.035-7.838v-56.823c0-4.329 3.15-7.838 7.035-7.838h54.512c3.884,0 7.032,3.509 7.032,7.838v56.823z"/>
<path d="m93.008,121.479c0,4.329 3.509,7.838 7.838,7.838h36.576c4.328,0 7.837-3.509 7.837-7.838v-22.207c0-4.329-3.51-7.838-7.837-7.838h-36.576c-4.329,0-7.838,3.509-7.838,7.838v22.207z"/>
<path d="m77.333,121.479c0-4.328 3.509-7.837 7.838-7.837h45.067c4.328,0 7.837,3.509 7.837,7.837v12.41c0,4.329-3.51,7.838-7.837,7.838h-45.067c-4.329,0-7.838-3.509-7.838-7.838v-12.41z"/>
</g>
<path d="m144.321,132c-5.5,9.526-11,19.053-16.5,28.579-3.23,5.595 5.412,10.628 8.635,5.047 5.5-9.526 11-19.053 16.5-28.579 3.23-5.595-5.413-10.629-8.635-5.047z"/>
<g  stroke="#000" stroke-width="13.063">
<path d="m248.674,148.912c0,4.328-3.148,7.837-7.033,7.837h-54.512c-3.885,0-7.035-3.509-7.035-7.837v-56.824c0-4.329 3.15-7.838 7.035-7.838h54.512c3.885,0 7.033,3.509 7.033,7.838v56.824z"/>
<path d="m232.781,142.379c0,4.329 3.51,7.838 7.837,7.838h36.576c4.329,0 7.838-3.509 7.838-7.838v-22.207c0-4.328-3.509-7.837-7.838-7.837h-36.576c-4.327,0-7.837,3.51-7.837,7.837v22.207z"/>
<path d="m201.648,158.056c0,4.328-3.149,7.837-7.033,7.837h-54.513c-3.884,0-7.034-3.509-7.034-7.837v-56.824c0-4.329 3.149-7.838 7.034-7.838h54.513c3.884,0 7.033,3.509 7.033,7.838v56.824z"/>
</g>
<path d="m212.539,198.721c-4.629,7.951-9.258,15.902-13.887,23.854-3.251,5.584 5.393,10.616 8.635,5.047 4.629-7.951 9.258-15.903 13.887-23.854 3.251-5.584-5.393-10.617-8.635-5.047z"/>
<path d="m240.78,150.416c-4.629,7.951-9.258,15.903-13.887,23.854-3.251,5.584 5.393,10.616 8.635,5.047 4.629-7.951 9.258-15.903 13.887-23.854 3.251-5.585-5.393-10.616-8.635-5.047z"/>
<path d="m170.539,217.585c-4.629,7.951-9.258,15.903-13.887,23.854-3.251,5.584 5.393,10.616 8.635,5.047 4.629-7.951 9.258-15.902 13.887-23.854 3.251-5.584-5.393-10.616-8.635-5.047z"/>
<path d="m198.78,169.28c-4.629,7.951-9.258,15.903-13.887,23.854-3.251,5.584 5.393,10.616 8.635,5.047 4.629-7.951 9.258-15.902 13.887-23.854 3.251-5.584-5.393-10.616-8.635-5.047z"/>
<path d="m227.022,120.976c-4.629,7.951-9.258,15.903-13.887,23.854-3.251,5.584 5.393,10.616 8.635,5.047 4.629-7.951 9.258-15.903 13.887-23.854 3.251-5.585-5.392-10.616-8.635-5.047z"/>
<path d="m134.298,231.025c-2.902,4.984-5.803,9.969-8.705,14.953-3.251,5.584 5.393,10.616 8.635,5.047 2.902-4.984 5.803-9.969 8.705-14.953 3.251-5.584-5.393-10.616-8.635-5.047z"/>
<path d="m162.539,182.721c-4.629,7.951-9.258,15.902-13.887,23.854-3.251,5.584 5.393,10.616 8.635,5.047 4.629-7.951 9.258-15.903 13.887-23.854 3.251-5.584-5.393-10.616-8.635-5.047z"/>
<path d="m190.78,134.416c-4.629,7.951-9.258,15.903-13.887,23.854-3.251,5.584 5.393,10.616 8.635,5.047 4.629-7.951 9.258-15.903 13.887-23.854 3.251-5.585-5.393-10.616-8.635-5.047z"/>
<path d="m123.354,194.721c-4.629,7.951-9.258,15.902-13.887,23.854-3.251,5.584 5.393,10.616 8.635,5.047 4.629-7.951 9.258-15.903 13.887-23.854 3.251-5.584-5.393-10.617-8.635-5.047z"/>
<path d="m151.596,146.416c-4.629,7.951-9.258,15.903-13.887,23.854-3.251,5.584 5.393,10.616 8.635,5.047 4.629-7.951 9.258-15.903 13.887-23.854 3.25-5.585-5.394-10.616-8.635-5.047z"/>
</g>
</svg>
