<?xml version="1.0" encoding="UTF-8" standalone="no"?>
<svg
   xmlns:dc="http://purl.org/dc/elements/1.1/"
   xmlns:cc="http://creativecommons.org/ns#"
   xmlns:rdf="http://www.w3.org/1999/02/22-rdf-syntax-ns#"
   xmlns:svg="http://www.w3.org/2000/svg"
   xmlns="http://www.w3.org/2000/svg"
   xmlns:sodipodi="http://sodipodi.sourceforge.net/DTD/sodipodi-0.dtd"
   xmlns:inkscape="http://www.inkscape.org/namespaces/inkscape"
   viewBox="0 0 1920 1080"
   id="svg2"
   version="1.1"
   inkscape:version="0.48.4 r9939"
   width="100%"
   height="100%"
   sodipodi:docname="dg.svg">
  <metadata
     id="metadata142">
    <rdf:RDF>
      <cc:Work
         rdf:about="">
        <dc:format>image/svg+xml</dc:format>
        <dc:type
           rdf:resource="http://purl.org/dc/dcmitype/StillImage" />
      </cc:Work>
    </rdf:RDF>
  </metadata>
  <defs
     id="defs140" />
  <sodipodi:namedview
     pagecolor="#ffffff"
     bordercolor="#666666"
     borderopacity="1"
     objecttolerance="10"
     gridtolerance="10"
     guidetolerance="10"
     inkscape:pageopacity="0"
     inkscape:pageshadow="2"
     inkscape:window-width="1855"
     inkscape:window-height="1176"
     id="namedview138"
     showgrid="false"
     inkscape:zoom="0.76029472"
     inkscape:cx="960.00002"
     inkscape:cy="429.31638"
     inkscape:window-x="65"
     inkscape:window-y="24"
     inkscape:window-maximized="1"
     inkscape:current-layer="g16"
     inkscape:snap-bbox="true"
     inkscape:bbox-nodes="true"
     inkscape:bbox-paths="true" />
  <g
     fill="none"
     stroke="black"
     stroke-width="1"
     fill-rule="evenodd"
     stroke-linecap="square"
     stroke-linejoin="bevel"
     id="g10">
    <g
       fill="#ffffff"
       fill-opacity="1"
       stroke="none"
       transform="matrix(1,0,0,1,0,0)"
       font-family="Ubuntu"
       font-size="11"
       font-weight="400"
       font-style="normal"
       id="g12"
       style="fill:none">
      <path
         vector-effect="non-scaling-stroke"
         fill-rule="evenodd"
         d="M0,0 L1920,0 L1920,1080 L0,1080 L0,0"
         id="path14"
         style="fill:none" />
    </g>
    <g
       fill="none"
       stroke="#000000"
       stroke-opacity="1"
       stroke-width="1"
       stroke-linecap="round"
       stroke-linejoin="round"
       transform="matrix(1,0,0,1,0,0)"
       font-family="Ubuntu"
       font-size="11"
       font-weight="400"
       font-style="normal"
       id="g16"
       style="fill:#808080;opacity:1;stroke:#808080">
      <polyline
         fill="none"
         vector-effect="non-scaling-stroke"
         points="1178,616 1186,624 "
         id="polyline18"
         style="fill:#808080;stroke:#808080" />
      <polyline
         fill="none"
         vector-effect="non-scaling-stroke"
         points="1103,687 1178,616 "
         id="polyline20"
         style="fill:#808080;stroke:#808080" />
      <polyline
         fill="none"
         vector-effect="non-scaling-stroke"
         points="1111,695 1103,687 "
         id="polyline22"
         style="fill:#808080;stroke:#808080" />
      <polyline
         fill="none"
         vector-effect="non-scaling-stroke"
         points="1111,695 1103,687 "
         id="polyline24"
         style="fill:#808080;stroke:#808080" />
      <polyline
         fill="none"
         vector-effect="non-scaling-stroke"
         points="918,704 918,692 "
         id="polyline26"
         style="fill:#808080;stroke:#808080" />
      <polyline
         fill="none"
         vector-effect="non-scaling-stroke"
         points="1010,704 918,704 "
         id="polyline28"
         style="fill:#808080;stroke:#808080" />
      <polyline
         fill="none"
         vector-effect="non-scaling-stroke"
         points="1010,692 1010,704 "
         id="polyline30"
         style="fill:#808080;stroke:#808080" />
      <polyline
         fill="none"
         vector-effect="non-scaling-stroke"
         points="1010,692 1010,704 "
         id="polyline32"
         style="fill:#808080;stroke:#808080" />
      <polyline
         fill="none"
         vector-effect="non-scaling-stroke"
         points="751,588 751,600 "
         id="polyline34"
         style="fill:#808080;stroke:#808080" />
      <polyline
         fill="none"
         vector-effect="non-scaling-stroke"
         points="658,588 751,588 "
         id="polyline36"
         style="fill:#808080;stroke:#808080" />
      <polyline
         fill="none"
         vector-effect="non-scaling-stroke"
         points="658,600 658,588 "
         id="polyline38"
         style="fill:#808080;stroke:#808080" />
      <polyline
         fill="none"
         vector-effect="non-scaling-stroke"
         points="658,600 658,588 "
         id="polyline40"
         style="fill:#808080;stroke:#808080" />
      <polyline
         fill="none"
         vector-effect="non-scaling-stroke"
         points="1106,480 1115,471 "
         id="polyline42"
         style="fill:#808080;stroke:#808080" />
      <polyline
         fill="none"
         vector-effect="non-scaling-stroke"
         points="1178,553 1106,480 "
         id="polyline44"
         style="fill:#808080;stroke:#808080" />
      <polyline
         fill="none"
         vector-effect="non-scaling-stroke"
         points="1187,545 1178,553 "
         id="polyline46"
         style="fill:#808080;stroke:#808080" />
      <polyline
         fill="none"
         vector-effect="non-scaling-stroke"
         points="1187,545 1178,553 "
         id="polyline48"
         style="fill:#808080;stroke:#808080" />
      <polyline
         fill="none"
         vector-effect="non-scaling-stroke"
         points="907,460 907,472 "
         id="polyline50"
         style="fill:#808080;stroke:#808080" />
      <polyline
         fill="none"
         vector-effect="non-scaling-stroke"
         points="804,460 907,460 "
         id="polyline52"
         style="fill:#808080;stroke:#808080" />
      <polyline
         fill="none"
         vector-effect="non-scaling-stroke"
         points="804,472 804,460 "
         id="polyline54"
         style="fill:#808080;stroke:#808080" />
      <polyline
         fill="none"
         vector-effect="non-scaling-stroke"
         points="804,472 804,460 "
         id="polyline56"
         style="fill:#808080;stroke:#808080" />
      <polyline
         fill="none"
         vector-effect="non-scaling-stroke"
         points="773,582 761,582 "
         id="polyline58"
         style="fill:#808080;stroke:#808080" />
      <polyline
         fill="none"
         vector-effect="non-scaling-stroke"
         points="773,478 773,582 "
         id="polyline60"
         style="fill:#808080;stroke:#808080" />
      <polyline
         fill="none"
         vector-effect="non-scaling-stroke"
         points="761,478 773,478 "
         id="polyline62"
         style="fill:#808080;stroke:#808080" />
      <polyline
         fill="none"
         vector-effect="non-scaling-stroke"
         points="761,478 773,478 "
         id="polyline64"
         style="fill:#808080;stroke:#808080" />
      <polyline
         fill="none"
         vector-effect="non-scaling-stroke"
         points="1602,789 1554,789 "
         id="polyline66"
         style="fill:#808080;stroke:#808080" />
      <polyline
         fill="none"
         vector-effect="non-scaling-stroke"
         points="1602,648 1602,789 "
         id="polyline68"
         style="fill:#808080;stroke:#808080" />
      <polyline
         fill="none"
         vector-effect="non-scaling-stroke"
         points="1554,648 1602,648 "
         id="polyline70"
         style="fill:#808080;stroke:#808080" />
      <polyline
         fill="none"
         vector-effect="non-scaling-stroke"
         points="1554,648 1602,648 "
         id="polyline72"
         style="fill:#808080;stroke:#808080" />
      <polyline
         fill="none"
         vector-effect="non-scaling-stroke"
         points="1602,503 1554,503 "
         id="polyline74"
         style="fill:#808080;stroke:#808080" />
      <polyline
         fill="none"
         vector-effect="non-scaling-stroke"
         points="1602,362 1602,503 "
         id="polyline76"
         style="fill:#808080;stroke:#808080" />
      <polyline
         fill="none"
         vector-effect="non-scaling-stroke"
         points="1554,362 1602,362 "
         id="polyline78"
         style="fill:#808080;stroke:#808080" />
      <polyline
         fill="none"
         vector-effect="non-scaling-stroke"
         points="1554,362 1602,362 "
         id="polyline80"
         style="fill:#808080;stroke:#808080" />
      <polyline
         fill="none"
         vector-effect="non-scaling-stroke"
         points="1120,5 1120,46 "
         id="polyline82"
         style="fill:#808080;stroke:#808080" />
      <polyline
         fill="none"
         vector-effect="non-scaling-stroke"
         points="1042,5 1120,5 "
         id="polyline84"
         style="fill:#808080;stroke:#808080" />
      <polyline
         fill="none"
         vector-effect="non-scaling-stroke"
         points="1042,46 1042,5 "
         id="polyline86"
         style="fill:#808080;stroke:#808080" />
      <polyline
         fill="none"
         vector-effect="non-scaling-stroke"
         points="1042,46 1042,5 "
         id="polyline88"
         style="fill:#808080;stroke:#808080" />
      <polyline
         fill="none"
         vector-effect="non-scaling-stroke"
         points="998,5 998,46 "
         id="polyline90"
         style="fill:#808080;stroke:#808080" />
      <polyline
         fill="none"
         vector-effect="non-scaling-stroke"
         points="921,5 998,5 "
         id="polyline92"
         style="fill:#808080;stroke:#808080" />
      <polyline
         fill="none"
         vector-effect="non-scaling-stroke"
         points="921,46 921,5 "
         id="polyline94"
         style="fill:#808080;stroke:#808080" />
      <polyline
         fill="none"
         vector-effect="non-scaling-stroke"
         points="921,46 921,5 "
         id="polyline96"
         style="fill:#808080;stroke:#808080" />
      <polyline
         fill="none"
         vector-effect="non-scaling-stroke"
         points="877,5 877,46 "
         id="polyline98"
         style="fill:#808080;stroke:#808080" />
      <polyline
         fill="none"
         vector-effect="non-scaling-stroke"
         points="799,5 877,5 "
         id="polyline100"
         style="fill:#808080;stroke:#808080" />
      <polyline
         fill="none"
         vector-effect="non-scaling-stroke"
         points="799,46 799,5 "
         id="polyline102"
         style="fill:#808080;stroke:#808080" />
      <polyline
         fill="none"
         vector-effect="non-scaling-stroke"
         points="799,46 799,5 "
         id="polyline104"
         style="fill:#808080;stroke:#808080" />
      <polyline
         fill="none"
         vector-effect="non-scaling-stroke"
         points="317,366 365,366 "
         id="polyline106"
         style="fill:#808080;stroke:#808080" />
      <polyline
         fill="none"
         vector-effect="non-scaling-stroke"
         points="317,507 317,366 "
         id="polyline108"
         style="fill:#808080;stroke:#808080" />
      <polyline
         fill="none"
         vector-effect="non-scaling-stroke"
         points="365,507 317,507 "
         id="polyline110"
         style="fill:#808080;stroke:#808080" />
      <polyline
         fill="none"
         vector-effect="non-scaling-stroke"
         points="365,507 317,507 "
         id="polyline112"
         style="fill:#808080;stroke:#808080" />
      <polyline
         fill="none"
         vector-effect="non-scaling-stroke"
         points="317,644 365,644 "
         id="polyline114"
         style="fill:#808080;stroke:#808080" />
      <polyline
         fill="none"
         vector-effect="non-scaling-stroke"
         points="317,785 317,644 "
         id="polyline116"
         style="fill:#808080;stroke:#808080" />
      <polyline
         fill="none"
         vector-effect="non-scaling-stroke"
         points="365,785 317,785 "
         id="polyline118"
         style="fill:#808080;stroke:#808080" />
      <polyline
         fill="none"
         vector-effect="non-scaling-stroke"
         points="365,785 317,785 "
         id="polyline120"
         style="fill:#808080;stroke:#808080" />
      <polyline
         fill="none"
         vector-effect="non-scaling-stroke"
         points="902,966 902,704 "
         id="polyline122"
         style="fill:#808080;stroke:#808080" />
      <polyline
         fill="none"
         vector-effect="non-scaling-stroke"
         points="902,704 1094,704 "
         id="polyline124"
         style="fill:#808080;stroke:#808080" />
      <polyline
         fill="none"
         vector-effect="non-scaling-stroke"
         points="1094,704 1094,966 "
         id="polyline126"
         style="fill:#808080;stroke:#808080" />
      <polyline
         fill="none"
         vector-effect="non-scaling-stroke"
         points="1094,966 902,966 "
         id="polyline128"
         style="fill:#808080;stroke:#808080" />
      <polyline
         fill="none"
         vector-effect="non-scaling-stroke"
         points="773,693 773,472 "
         id="polyline130"
         style="fill:#808080;stroke:#808080" />
      <polyline
         fill="none"
         vector-effect="non-scaling-stroke"
         points="773,472 1099,472 "
         id="polyline132"
         style="fill:#808080;stroke:#808080" />
      <polyline
         fill="none"
         vector-effect="non-scaling-stroke"
         points="1099,472 1183,558 "
         id="polyline134"
         style="fill:#808080;stroke:#808080" />
      <polyline
         fill="none"
         vector-effect="non-scaling-stroke"
         points="1183,558 1183,611 "
         id="polyline136"
         style="fill:#808080;stroke:#808080" />
      <polyline
         fill="none"
         vector-effect="non-scaling-stroke"
         points="1183,611 1097,692 "
         id="polyline138"
         style="fill:#808080;stroke:#808080" />
      <polyline
         fill="none"
         vector-effect="non-scaling-stroke"
         points="1097,692 890,692 "
         id="polyline140"
         style="fill:#808080;stroke:#808080" />
      <polyline
         fill="none"
         vector-effect="non-scaling-stroke"
         points="890,1027 773,1027 "
         id="polyline144"
         style="fill:#808080;stroke:#808080" />
      <polyline
         fill="none"
         vector-effect="non-scaling-stroke"
         points="773,1027 773,966 "
         id="polyline146"
         style="fill:#808080;stroke:#808080" />
      <polyline
         fill="none"
         vector-effect="non-scaling-stroke"
         points="773,966 773,693 "
         id="polyline148"
         style="fill:#808080;stroke:#808080" />
      <polyline
         fill="none"
         vector-effect="non-scaling-stroke"
         points="890,692 890,1027 "
         id="polyline152"
         style="fill:#808080;stroke:#808080" />
      <polyline
         fill="none"
         vector-effect="non-scaling-stroke"
         points="1146,978 1146,1027 "
         id="polyline154"
         style="fill:#808080;stroke:#808080" />
      <polyline
         fill="none"
         vector-effect="non-scaling-stroke"
         points="1146,1027 902,1027 "
         id="polyline156"
         style="fill:#808080;stroke:#808080" />
      <polyline
         fill="none"
         vector-effect="non-scaling-stroke"
         points="902,1027 902,978 "
         id="polyline158"
         style="fill:#808080;stroke:#808080" />
      <polyline
         fill="none"
         vector-effect="non-scaling-stroke"
         points="902,978 1146,978 "
         id="polyline160"
         style="fill:#808080;stroke:#808080" />
      <polyline
         fill="none"
         vector-effect="non-scaling-stroke"
         points="1554,582 1554,966 "
         id="polyline162"
         style="fill:#808080;stroke:#808080" />
      <polyline
         fill="none"
         vector-effect="non-scaling-stroke"
         points="1554,966 1146,966 "
         id="polyline164"
         style="fill:#808080;stroke:#808080" />
      <polyline
         fill="none"
         vector-effect="non-scaling-stroke"
         points="1146,966 1106,966 "
         id="polyline166"
         style="fill:#808080;stroke:#808080" />
      <polyline
         fill="none"
         vector-effect="non-scaling-stroke"
         points="1106,966 1106,700 "
         id="polyline168"
         style="fill:#808080;stroke:#808080" />
      <polyline
         fill="none"
         vector-effect="non-scaling-stroke"
         points="1106,700 1195,616 "
         id="polyline170"
         style="fill:#808080;stroke:#808080" />
      <polyline
         fill="none"
         vector-effect="non-scaling-stroke"
         points="1195,616 1195,582 "
         id="polyline172"
         style="fill:#808080;stroke:#808080" />
      <polyline
         fill="none"
         vector-effect="non-scaling-stroke"
         points="1195,582 1554,582 "
         id="polyline174"
         style="fill:#808080;stroke:#808080" />
      <polyline
         fill="none"
         vector-effect="non-scaling-stroke"
         points="1158,186 1554,186 "
         id="polyline176"
         style="fill:#808080;stroke:#808080" />
      <polyline
         fill="none"
         vector-effect="non-scaling-stroke"
         points="1554,186 1554,570 "
         id="polyline178"
         style="fill:#808080;stroke:#808080" />
      <polyline
         fill="none"
         vector-effect="non-scaling-stroke"
         points="1554,570 1195,570 "
         id="polyline180"
         style="fill:#808080;stroke:#808080" />
      <polyline
         fill="none"
         vector-effect="non-scaling-stroke"
         points="1195,570 1195,553 "
         id="polyline182"
         style="fill:#808080;stroke:#808080" />
      <polyline
         fill="none"
         vector-effect="non-scaling-stroke"
         points="1195,553 1109,466 "
         id="polyline184"
         style="fill:#808080;stroke:#808080" />
      <polyline
         fill="none"
         vector-effect="non-scaling-stroke"
         points="1109,466 1158,428 "
         id="polyline186"
         style="fill:#808080;stroke:#808080" />
      <polyline
         fill="none"
         vector-effect="non-scaling-stroke"
         points="1158,428 1158,186 "
         id="polyline188"
         style="fill:#808080;stroke:#808080" />
      <polyline
         fill="none"
         vector-effect="non-scaling-stroke"
         points="773,186 773,46 "
         id="polyline190"
         style="fill:#808080;stroke:#808080" />
      <polyline
         fill="none"
         vector-effect="non-scaling-stroke"
         points="773,46 1146,46 "
         id="polyline192"
         style="fill:#808080;stroke:#808080" />
      <polyline
         fill="none"
         vector-effect="non-scaling-stroke"
         points="1146,46 1146,186 "
         id="polyline194"
         style="fill:#808080;stroke:#808080" />
      <polyline
         fill="none"
         vector-effect="non-scaling-stroke"
         points="1146,186 1146,422 "
         id="polyline196"
         style="fill:#808080;stroke:#808080" />
      <polyline
         fill="none"
         vector-effect="non-scaling-stroke"
         points="1146,422 1098,460 "
         id="polyline198"
         style="fill:#808080;stroke:#808080" />
      <polyline
         fill="none"
         vector-effect="non-scaling-stroke"
         points="1098,460 773,460 "
         id="polyline200"
         style="fill:#808080;stroke:#808080" />
      <polyline
         fill="none"
         vector-effect="non-scaling-stroke"
         points="773,460 773,186 "
         id="polyline202"
         style="fill:#808080;stroke:#808080" />
      <polyline
         fill="none"
         vector-effect="non-scaling-stroke"
         points="317,138 317,1014 "
         id="polyline204"
         style="fill:#808080;stroke:#808080" />
      <polyline
         fill="none"
         vector-effect="non-scaling-stroke"
         points="317,1014 725,1014 "
         id="polyline206"
         style="fill:#808080;stroke:#808080" />
      <polyline
         fill="none"
         vector-effect="non-scaling-stroke"
         points="725,1014 725,1075 "
         id="polyline208"
         style="fill:#808080;stroke:#808080" />
      <polyline
         fill="none"
         vector-effect="non-scaling-stroke"
         points="725,1075 1194,1075 "
         id="polyline210"
         style="fill:#808080;stroke:#808080" />
      <polyline
         fill="none"
         vector-effect="non-scaling-stroke"
         points="1194,1075 1194,1014 "
         id="polyline212"
         style="fill:#808080;stroke:#808080" />
      <polyline
         fill="none"
         vector-effect="non-scaling-stroke"
         points="1194,1014 1602,1014 "
         id="polyline214"
         style="fill:#808080;stroke:#808080" />
      <polyline
         fill="none"
         vector-effect="non-scaling-stroke"
         points="1602,1014 1602,138 "
         id="polyline216"
         style="fill:#808080;stroke:#808080" />
      <polyline
         fill="none"
         vector-effect="non-scaling-stroke"
         points="1602,138 1187,138 "
         id="polyline218"
         style="fill:#808080;stroke:#808080" />
      <polyline
         fill="none"
         vector-effect="non-scaling-stroke"
         points="1187,138 1187,5 "
         id="polyline220"
         style="fill:#808080;stroke:#808080" />
      <polyline
         fill="none"
         vector-effect="non-scaling-stroke"
         points="1187,5 732,5 "
         id="polyline222"
         style="fill:#808080;stroke:#808080" />
      <polyline
         fill="none"
         vector-effect="non-scaling-stroke"
         points="732,5 732,138 "
         id="polyline224"
         style="fill:#808080;stroke:#808080" />
      <polyline
         fill="none"
         vector-effect="non-scaling-stroke"
         points="732,138 317,138 "
         id="polyline226"
         style="fill:#808080;stroke:#808080" />
      <polyline
         fill="none"
         vector-effect="non-scaling-stroke"
         points="365,588 365,186 "
         id="polyline228"
         style="fill:#808080;stroke:#808080" />
      <polyline
         fill="none"
         vector-effect="non-scaling-stroke"
         points="365,186 761,186 "
         id="polyline230"
         style="fill:#808080;stroke:#808080" />
      <polyline
         fill="none"
         vector-effect="non-scaling-stroke"
         points="761,186 761,588 "
         id="polyline232"
         style="fill:#808080;stroke:#808080" />
      <polyline
         fill="none"
         vector-effect="non-scaling-stroke"
         points="761,588 365,588 "
         id="polyline234"
         style="fill:#808080;stroke:#808080" />
      <polyline
         fill="none"
         vector-effect="non-scaling-stroke"
         points="365,966 365,600 "
         id="polyline236"
         style="fill:#808080;stroke:#808080" />
      <polyline
         fill="none"
         vector-effect="non-scaling-stroke"
         points="365,600 507,600 "
         id="polyline238"
         style="fill:#808080;stroke:#808080" />
      <polyline
         fill="none"
         vector-effect="non-scaling-stroke"
         points="507,600 507,702 "
         id="polyline240"
         style="fill:#808080;stroke:#808080" />
      <polyline
         fill="none"
         vector-effect="non-scaling-stroke"
         points="507,702 430,702 "
         id="polyline242"
         style="fill:#808080;stroke:#808080" />
      <polyline
         fill="none"
         vector-effect="non-scaling-stroke"
         points="430,702 430,714 "
         id="polyline244"
         style="fill:#808080;stroke:#808080" />
      <polyline
         fill="none"
         vector-effect="non-scaling-stroke"
         points="430,714 632,714 "
         id="polyline246"
         style="fill:#808080;stroke:#808080" />
      <polyline
         fill="none"
         vector-effect="non-scaling-stroke"
         points="632,714 632,682 "
         id="polyline248"
         style="fill:#808080;stroke:#808080" />
      <polyline
         fill="none"
         vector-effect="non-scaling-stroke"
         points="632,682 620,682 "
         id="polyline250"
         style="fill:#808080;stroke:#808080" />
      <polyline
         fill="none"
         vector-effect="non-scaling-stroke"
         points="620,682 620,702 "
         id="polyline252"
         style="fill:#808080;stroke:#808080" />
      <polyline
         fill="none"
         vector-effect="non-scaling-stroke"
         points="620,702 519,702 "
         id="polyline254"
         style="fill:#808080;stroke:#808080" />
      <polyline
         fill="none"
         vector-effect="non-scaling-stroke"
         points="519,702 519,600 "
         id="polyline256"
         style="fill:#808080;stroke:#808080" />
      <polyline
         fill="none"
         vector-effect="non-scaling-stroke"
         points="519,600 761,600 "
         id="polyline258"
         style="fill:#808080;stroke:#808080" />
      <polyline
         fill="none"
         vector-effect="non-scaling-stroke"
         points="761,600 761,966 "
         id="polyline260"
         style="fill:#808080;stroke:#808080" />
      <polyline
         fill="none"
         vector-effect="non-scaling-stroke"
         points="761,966 365,966 "
         id="polyline262"
         style="fill:#808080;stroke:#808080" />
      <rect
         style="fill:none;stroke:#999999;stroke-width:0.76091254;stroke-opacity:1"
         id="rect3119"
         width="92.239082"
         height="11.239083"
         x="657.88043"
         y="588.88043" />
      <rect
         style="fill:none;stroke:#999999;stroke-width:0.76681519;stroke-opacity:1"
         id="rect3121"
         width="11.233189"
         height="103.23318"
         x="760.88342"
         y="477.88342" />
      <rect
         style="fill:none;stroke:#999999;stroke-width:0.67500359;stroke-opacity:1"
         id="rect3123"
         width="102.32499"
         height="12.324987"
         x="804.83752"
         y="459.83752" />
      <rect
         style="fill:none;stroke:#999999;stroke-width:0.954593;stroke-opacity:1"
         id="rect3125"
         width="76.045433"
         height="41.045406"
         x="799.97729"
         y="4.9772964" />
      <rect
         style="fill:none;stroke:#999999;stroke-width:1.05822527;stroke-opacity:1"
         id="rect3127"
         width="76.893822"
         height="39.302975"
         x="921.02911"
         y="6.667913" />
      <rect
         style="fill:none;stroke:#999999;stroke-width:1.02617025;stroke-opacity:1"
         id="rect3129"
         width="77.973885"
         height="39.973827"
         x="1042.0131"
         y="6.0130854" />
      <rect
         style="fill:none;stroke:#999999;stroke-width:0.9708913;stroke-opacity:1"
         id="rect3131"
         width="47.720509"
         height="140.34497"
         x="1553.9855"
         y="362.98544" />
      <rect
         style="fill:none;stroke:#999999;stroke-width:0.9742775;stroke-opacity:1"
         id="rect3133"
         width="48.0257"
         height="139.0257"
         x="1553.9872"
         y="648.98718" />
      <rect
         style="fill:none;stroke:#999999;stroke-width:0.75692791;stroke-opacity:1"
         id="rect3135"
         width="91.24308"
         height="11.243083"
         x="918.87848"
         y="691.87848" />
    </g>
    <path
       style="opacity:1;fill:#999999;stroke:#999999;stroke-width:1.69971585000000003;stroke-opacity:1"
       d="m 953.16373,413.90593 0,-182.71946 -249.00837,0 -249.00837,0 0,112.18125 0,112.18125 -28.89517,0 -28.89517,0 0,-141.07642 0,-141.07641 259.20667,0 259.20666,0 0,-82.436223 0,-82.4362192 40.79318,0 40.79318,0 0,23.7960222 0,23.796022 -16.1473,0 -16.1473,0 0,260.056528 0,260.05652 19.54674,0 19.54672,0 0,5.94901 0,5.949 -19.54672,0 -19.54674,0 0,4.24929 c 0,3.7232 -0.73653,4.24929 -5.949,4.24929 l -5.94901,0 0,-182.71945 z"
       id="path3122"
       inkscape:connector-curvature="0"
       transform="matrix(0.80000041,0,0,0.80000041,0,-2.7465834e-4)" />
    <path
       style="opacity:1;fill:#999999;stroke:#999999;stroke-width:1.69971585000000003;stroke-opacity:1"
       d="m 538.43306,884.72722 0,-5.94901 48.44191,0 48.4419,0 0,-65.43906 0,-65.43906 -90.08494,0 -90.08494,0 0,28.04531 0,28.04532 -28.89517,0 -28.89517,0 0,-84.13594 0,-84.13593 28.89517,0 28.89517,0 0,50.14161 0,50.14162 182.71945,0 182.71946,0 0,5.94901 0,5.949 -86.68551,0 -86.68551,0 0,65.43906 0,65.43906 64.5892,0 64.5892,0 0,-12.74787 0,-12.74786 5.94901,0 5.949,0 0,18.69687 0,18.69687 -124.92911,0 -124.92912,0 0,-5.949 z"
       id="path3124"
       inkscape:connector-curvature="0"
       transform="matrix(0.80000041,0,0,0.80000041,0,-2.7465834e-4)" />
    <path
       style="opacity:1;fill:#999999;stroke:#999999;stroke-width:1.69971585000000003;stroke-opacity:1"
       d="m 907.2714,1304.557 0,-38.2436 -254.95737,0 -254.95738,0 0,-141.9262 0,-141.92632 28.89517,0 28.89517,0 0,113.03112 0,113.0311 249.01449,0 249.01447,0 -0.43103,-229.88658 -0.43105,-229.88657 -6.37393,-0.52753 c -6.0278,-0.49889 -6.37393,-0.84502 -6.37393,-6.37394 0,-5.68765 0.1846,-5.8464 6.79886,-5.8464 5.66571,0 6.79886,-0.56657 6.79886,-3.39943 0,-2.75192 1.13315,-3.39943 5.94901,-3.39943 l 5.949,0 0,277.90358 0,277.9035 74.78746,0 74.7875,0 0,-209.065 0,-209.0651 15.2975,0 15.2974,0 0,5.94901 0,5.949 -9.3484,0 -9.3485,0 0,164.87249 0,164.8724 121.5297,0 121.5297,0 0,-164.8724 0,-164.87249 -52.6912,0 -52.6912,0 0,-5.949 0,-5.94901 53.8322,0 c 47.8296,0 54.1807,-0.31545 56.9583,-2.82912 2.9344,-2.65566 3.3911,-2.58016 7.4482,1.2313 3.7918,3.56213 3.9982,4.29735 1.6819,5.99101 -2.3562,1.72294 -2.6402,19.96269 -2.6402,169.59011 l 0,167.6596 281.303,0 281.303,0 0,-110.4815 0,-110.48157 28.8951,0 28.8952,0 0,139.37667 0,139.3767 -255.8072,0 -255.8073,0 0,38.2436 0,38.2436 -291.5012,0 -291.5013,0 0,-38.2436 z m 526.5245,-51.4164 -0.4624,-31.8696 -153.3994,-0.434 -153.3994,-0.434 0,32.3037 0,32.3036 153.8618,0 153.8618,0 -0.4624,-31.8697 z"
       id="path3126"
       inkscape:connector-curvature="0"
       transform="matrix(0.80000041,0,0,0.80000041,0,-2.7465834e-4)" />
    <path
       style="opacity:1;fill:#999999;stroke:#808080;stroke-width:1.69971585000000003;stroke-opacity:1"
       d="m 1944.0981,767.4406 0,-41.64926 -225.6373,0.43115 -225.6373,0.43115 -0.4737,21.40009 c -0.4631,20.92105 -0.5797,21.50168 -5.2109,25.93864 l -4.7372,4.53855 -3.9922,-4.24945 c -3.7464,-3.98791 -3.818,-4.44186 -1.163,-7.3756 4.1349,-4.56902 4.2544,-69.00449 0.1365,-73.55482 -2.4839,-2.74462 -2.3472,-3.20181 1.7629,-5.89482 4.3019,-2.81872 4.6,-2.78377 8.6417,1.01319 3.5926,3.37513 4.1861,5.4568 4.1861,14.68449 l 0,10.75187 226.0622,0 226.0622,0 0,-41.64304 0,-41.64304 28.8951,0 28.8952,0 0,89.23508 0,89.23508 -28.8952,0 -28.8951,0 0,-41.64926 0,0 z"
       id="path3128"
       inkscape:connector-curvature="0"
       transform="matrix(0.80000041,0,0,0.80000041,0,-2.7465834e-4)" />
    <path
       style="opacity:1;fill:#999999;stroke:#999999;stroke-width:1.69971585000000003;stroke-opacity:1"
       d="m 1378.0927,592.37609 -3.992,-4.24929 -119.5337,0 -119.5337,0 0,-5.949 0,-5.94901 119.4051,-0.0238 119.405,-0.0238 30.17,-23.89688 30.1699,-23.8969 0,-236.13585 0,-236.135828 -16.1473,0 -16.1473,0 0,-23.796022 0,-23.7960222 39.9433,0 39.9434,0 0,82.4362192 0,82.436223 260.0565,0 260.0565,0 0,138.52684 0,138.52684 -28.8952,0 -28.8951,0 0,-109.63167 0,-109.63168 -249.0084,0 -249.0084,0 -0.096,151.69964 -0.096,151.69964 -24.5455,18.69688 c -13.5001,10.28328 -27.4144,21.10389 -30.9209,24.04581 -6.3267,5.30813 -6.3506,5.37622 -3.1404,8.92351 3.1245,3.45255 3.13,3.69063 0.1586,6.974 -3.923,4.33494 -4.5294,4.27982 -9.3484,-0.84986 l -10e-5,0 z"
       id="path3130"
       inkscape:connector-curvature="0"
       transform="matrix(0.80000041,0,0,0.80000041,0,-2.7465834e-4)" />
    <path
       style="opacity:1;fill:#999999;stroke:#999999;stroke-width:1.69971585000000003;stroke-opacity:1"
       d="m 1248.9143,32.31972 0,-23.7960222 26.3456,0 26.3456,0 0,23.7960222 0,23.796022 -26.3456,0 -26.3456,0 0,-23.796022 z"
       id="path3132"
       inkscape:connector-curvature="0"
       transform="matrix(0.80000041,0,0,0.80000041,0,-2.7465834e-4)" />
    <path
       style="opacity:1;fill:#999999;stroke:#999999;stroke-width:1.69971585000000003;stroke-opacity:1"
       d="m 1097.6396,32.31972 0,-23.7960222 26.3456,0 26.3456,0 0,23.7960222 0,23.796022 -26.3456,0 -26.3456,0 0,-23.796022 z"
       id="path3134"
       inkscape:connector-curvature="0"
       transform="matrix(0.80000041,0,0,0.80000041,0,-2.7465834e-4)" />
    <rect
       style="fill:none;stroke:#999999;stroke-width:0.98572093;stroke-opacity:1"
       id="rect3115"
       width="48.014278"
       height="141.01427"
       x="316.99286"
       y="365.99286" />
    <rect
       style="fill:none;stroke:#999999;stroke-width:0.9942891;stroke-opacity:1"
       id="rect3117"
       width="47.005726"
       height="140.00569"
       x="317.99713"
       y="643.99713" />
  </g>
</svg>
