<?xml version="1.0" encoding="UTF-8" standalone="no"?>
<svg
   xmlns:dc="http://purl.org/dc/elements/1.1/"
   xmlns:cc="http://creativecommons.org/ns#"
   xmlns:rdf="http://www.w3.org/1999/02/22-rdf-syntax-ns#"
   xmlns:svg="http://www.w3.org/2000/svg"
   xmlns="http://www.w3.org/2000/svg"
   xmlns:sodipodi="http://sodipodi.sourceforge.net/DTD/sodipodi-0.dtd"
   xmlns:inkscape="http://www.inkscape.org/namespaces/inkscape"
   viewBox="0 0 1920 1080"
   id="svg2"
   version="1.1"
   inkscape:version="0.48.4 r9939"
   width="100%"
   height="100%"
   sodipodi:docname="eg.svg">
  <metadata
     id="metadata156">
    <rdf:RDF>
      <cc:Work
         rdf:about="">
        <dc:format>image/svg+xml</dc:format>
        <dc:type
           rdf:resource="http://purl.org/dc/dcmitype/StillImage" />
      </cc:Work>
    </rdf:RDF>
  </metadata>
  <defs
     id="defs154" />
  <sodipodi:namedview
     pagecolor="#ffffff"
     bordercolor="#666666"
     borderopacity="1"
     objecttolerance="10"
     gridtolerance="10"
     guidetolerance="10"
     inkscape:pageopacity="0"
     inkscape:pageshadow="2"
     inkscape:window-width="1855"
     inkscape:window-height="1176"
     id="namedview152"
     showgrid="false"
     inkscape:zoom="1.78"
     inkscape:cx="512.73618"
     inkscape:cy="1028.8998"
     inkscape:window-x="65"
     inkscape:window-y="24"
     inkscape:window-maximized="1"
     inkscape:current-layer="svg2"
     inkscape:snap-global="true"
     inkscape:snap-bbox="true"
     inkscape:bbox-paths="true"
     inkscape:bbox-nodes="true"
     inkscape:snap-nodes="true"
     inkscape:snap-grids="false"
     inkscape:snap-bbox-edge-midpoints="false"
     inkscape:snap-bbox-midpoints="false"
     inkscape:snap-to-guides="false" />
  <g
     style="font-size:11px;font-style:normal;font-weight:400;fill:none;stroke:none;filter:url(#filter3246);font-family:Ubuntu"
     transform="translate(-32.078104,96.234312)"
     id="g12"
     font-style="normal"
     font-weight="400"
     font-size="11">
    <path
       style="fill:none"
       inkscape:connector-curvature="0"
       id="path14"
       d="m 0,0 1920,0 0,1080 L 0,1080 0,0"
       vector-effect="non-scaling-stroke" />
  </g>
  <path
     style="fill:#808080;stroke:#666666;stroke-opacity:1;opacity:0.50000000000000000"
     d="m 397.75056,543.97667 0,-370.18686 66.59067,0 66.59067,0 0,28.64115 0,28.64115 -37.94952,0 -37.94952,0 0,273.52298 0,273.52298 298.58398,0 298.58396,0 0,9.28738 0,9.28737 -43.3197,0.37902 -43.31975,0.37901 -0.39437,22.5549 -0.39439,22.55491 -6.40789,0 -6.4079,0 0,-22.91696 0,-22.91697 -248.10396,0.36207 -248.10395,0.36205 -0.37408,58.35634 -0.37408,58.35634 -28.62509,0 -28.62508,0 0,-370.18686 z"
     id="path3231"
     inkscape:connector-curvature="0"
     transform="matrix(0.80000041,0,0,0.80000041,0,-2.7465834e-4)" />
  <path
     style="fill:#808080;stroke:#666666;stroke-opacity:1;opacity:0.50000000000000000"
     d="m 790.13431,202.43096 0,-28.64115 63.01053,0 63.01053,0 0,-5.0122 0,-5.0122 24.34497,0 24.34498,0 0,33.65335 0,33.65335 -87.35551,0 -87.3555,0 0,-28.64115 z"
     id="path3233"
     inkscape:connector-curvature="0"
     transform="matrix(0.80000041,0,0,0.80000041,0,-2.7465834e-4)" />
  <path
     style="fill:#808080;stroke:#666666;stroke-opacity:1;opacity:0.50000000000000000"
     d="m 916.15537,36.312294 0,-28.6411494 40.81364,0 40.81363,0 0,24.3449774 0,24.344977 -16.46866,0 -16.46866,0 0,4.296173 0,4.296172 -24.34498,0 -24.34497,0 0,-28.64115 z"
     id="path3235"
     inkscape:connector-curvature="0"
     transform="matrix(0.80000041,0,0,0.80000041,0,-2.7465834e-4)" />
  <path
     style="fill:#808080;stroke:#666666;stroke-opacity:1;opacity:0.50000000000000000"
     d="m 1433.1281,60.657272 0,-4.296173 -15.7526,0 -15.7526,0 0,-24.344977 0,-24.3449774 40.0976,0 40.0976,0 0,28.6411494 0,28.64115 -24.345,0 -24.345,0 0,-4.296172 z"
     id="path3237"
     inkscape:connector-curvature="0"
     transform="matrix(0.80000041,0,0,0.80000041,0,-2.7465834e-4)" />
  <path
     style="fill:#808080;stroke:#666666;stroke-opacity:1;opacity:0.50000000000000000"
     d="m 1433.1281,198.13479 0,-32.93732 24.345,0 24.345,0 0,4.29617 0,4.29617 74.467,0 74.467,0 0,28.64115 0,28.64115 -98.812,0 -98.812,0 0,-32.93732 z"
     id="path3239"
     inkscape:connector-curvature="0"
     transform="matrix(0.80000041,0,0,0.80000041,0,-2.7465834e-4)" />
  <path
     style="fill:#808080;stroke:#666666;stroke-opacity:1;opacity:0.50000000000000000"
     d="m 1944.0235,341.69855 -0.3669,-109.91041 -26.8511,-0.38961 -26.851,-0.38962 0,-28.60955 0,-28.60955 55.8502,0 55.8502,0 0,138.90958 0,138.90958 -28.6322,0 -28.6323,0 -0.3669,-109.91042 z"
     id="path3241"
     inkscape:connector-curvature="0"
     transform="matrix(0.80000041,0,0,0.80000041,0,-2.7465834e-4)" />
  <path
     style="fill:#808080;stroke:#666666;stroke-opacity:1;opacity:0.50000000000000000"
     d="m 1368.3929,807.11724 -0.4234,-9.66639 -47.6159,-0.37732 -47.6159,-0.37732 0,-9.26838 0,-9.26837 44.0357,-0.37871 44.0358,-0.37871 0.3839,-34.01136 0.384,-34.01137 291.3978,0 291.3977,0 0,-39.38158 0,-39.38158 28.6412,0 28.6411,0 0,88.78757 0,88.78756 -28.6181,0 -28.6181,0 -0.3811,-39.02357 -0.381,-39.02356 -281.0413,-0.3616 -281.0413,-0.36159 0,43.68133 0,43.68133 -6.3788,0 -6.3788,0 -0.4235,-9.66638 z"
     id="path3243"
     inkscape:connector-curvature="0"
     transform="matrix(0.80000041,0,0,0.80000041,0,-2.7465834e-4)" />
  <path
     style="fill:#808080;stroke:#666666;stroke-opacity:1;opacity:0.50000000000000000"
     d="m 1831.2401,1237.8252 0,-28.6246 56.2083,-0.3746 56.2082,-0.3747 0.3669,-110.6264 0.3668,-110.62644 28.6323,0 28.6323,0 0,139.62564 0,139.6256 -85.2074,0 -85.2074,0 0,-28.6245 z"
     id="path3245"
     inkscape:connector-curvature="0"
     transform="matrix(0.80000041,0,0,0.80000041,0,-2.7465834e-4)" />
  <path
     style="fill:#808080;stroke:#666666;stroke-opacity:1;opacity:0.50000000000000000"
     d="m 1410.2152,1313.7076 0,-28.6412 11.4565,0 11.4564,0 0,-37.9495 0,-37.9495 27.2191,0 27.219,0 -0.368,-97.7379 -0.3679,-97.738 -97.3799,0 -97.3799,0 -0.3728,64.0846 -0.3728,64.0846 -5.7134,0 -5.7135,0 0,-70.1708 0,-70.1709 44.3938,0 44.3937,0 0,-26.49302 0,-26.49307 6.4443,0 6.4442,0 0,26.49307 0,26.49302 58.7144,0 58.7144,0 0,103.8242 0,103.8242 68.7387,0 68.7388,0 0,28.6411 0,28.6412 -72.3189,0 -72.3189,0 0,37.9495 0,37.9495 -40.8137,0 -40.8136,0 0,-28.6411 z"
     id="path3247"
     inkscape:connector-curvature="0"
     transform="matrix(0.80000041,0,0,0.80000041,0,-2.7465834e-4)" />
  <path
     style="fill:#808080;stroke:#666666;stroke-opacity:1;opacity:0.50000000000000000"
     d="m 1277.0339,1313.7076 c 0,-18.1394 0.525,-28.6412 1.432,-28.6412 0.884,0 1.4321,-7.3989 1.4321,-19.3328 l 0,-19.3327 5.7282,0 5.7282,0 0,19.3327 0,19.3328 9.3084,0 9.3084,0 0,28.6412 0,28.6411 -16.4687,0 -16.4686,0 0,-28.6411 z"
     id="path3249"
     inkscape:connector-curvature="0"
     transform="matrix(0.80000041,0,0,0.80000041,0,-2.7465834e-4)" />
  <path
     style="fill:#808080;stroke:#666666;stroke-opacity:1;opacity:0.50000000000000000"
     d="m 1119.5075,1313.7076 0,-28.6412 13.6046,0 13.6045,0 0,28.6412 0,28.6411 -13.6045,0 -13.6046,0 0,-28.6411 z"
     id="path3253"
     inkscape:connector-curvature="0"
     transform="matrix(0.80000041,0,0,0.80000041,0,-2.7465834e-4)" />
  <path
     style="fill:#808080;stroke:#666666;stroke-opacity:1;opacity:0.50000000000000000"
     d="m 907.56302,1304.3992 0,-37.9495 -73.03493,0 -73.03493,0 0,-28.6412 0,-28.6411 95.23182,0 95.23182,0 0,-116.7127 0,-116.71269 6.44426,0 6.44426,0 0,154.66219 0,154.6622 27.92512,0 27.92516,0 0,28.6412 0,28.6411 -56.56631,0 -56.56627,0 0,-37.9495 z"
     id="path3255"
     inkscape:connector-curvature="0"
     transform="matrix(0.80000041,0,0,0.80000041,0,-2.7465834e-4)" />
  <path
     style="fill:#808080;stroke:#666666;stroke-opacity:1;opacity:0.50000000000000000"
     d="m 397.75056,1155.4652 0,-110.9844 28.64115,0 28.64115,0 0,82.3433 0,82.3433 55.85024,0 55.85024,0 0,28.6411 0,28.6412 -84.49139,0 -84.49139,0 0,-110.9845 z"
     id="path3257"
     inkscape:connector-curvature="0"
     transform="matrix(0.80000041,0,0,0.80000041,0,-2.7465834e-4)" />
  <path
     style="fill:#808080;stroke:#666666;stroke-opacity:1;opacity:0.50000000000000000"
     d="m 398.20358,543.6812 0,-369.47083 66.59067,0 66.59067,0 0,28.64115 0,28.64115 -37.94952,0 -37.94952,0 0,272.80695 0,272.80695 298.58398,0 298.58394,0 0,10.0244 0,10.0244 -43.6777,0 -43.67776,0 0,22.91292 0,22.91292 -6.44426,0 -6.44426,0 0,-22.91292 0,-22.91292 -248.46197,0 -248.46197,0 0,57.99833 0,57.99833 -28.64115,0 -28.64115,0 0,-369.47083 z"
     id="path3254"
     inkscape:connector-curvature="0"
     transform="matrix(0.80000041,0,0,0.80000041,0,-2.7465834e-4)" />
  <path
     style="fill:#808080;stroke:#666666;stroke-opacity:1;opacity:0.50000000000000000"
     d="m 790.58733,202.86657 0,-28.6261 62.65251,-0.37306 62.65252,-0.37307 0.44874,-4.65419 0.44875,-4.65418 24.25425,0 24.25424,0 0,33.65335 0,33.65335 -87.35551,0 -87.3555,0 0,-28.6261 z"
     id="path3256"
     inkscape:connector-curvature="0"
     transform="matrix(0.80000041,0,0,0.80000041,0,-2.7465834e-4)" />
  <path
     style="fill:#808080;stroke:#666666;stroke-opacity:1;opacity:0.50000000000000000"
     d="m 916.60839,36.732849 0,-28.6411498 40.09761,0 40.09761,0 0,24.3449768 0,24.344978 -15.75264,0 -15.75263,0 0,4.296172 0,4.296173 -24.34498,0 -24.34497,0 0,-28.64115 z"
     id="path3258"
     inkscape:connector-curvature="0"
     transform="matrix(0.80000041,0,0,0.80000041,0,-2.7465834e-4)" />
  <path
     style="fill:#808080;stroke:#666666;stroke-opacity:1;opacity:0.50000000000000000"
     d="m 1433.5811,61.077826 0,-4.296172 -16.4686,0 -16.4687,0 0,-24.344978 0,-24.3449768 40.8137,0 40.8136,0 0.179,14.3205748 c 0.099,7.876316 0.179,15.287214 0.179,16.468661 0,1.181448 -0.081,7.625706 -0.179,14.320575 l -0.179,12.172489 -24.345,0 -24.345,0 0,-4.296173 z"
     id="path3260"
     inkscape:connector-curvature="0"
     transform="matrix(0.80000041,0,0,0.80000041,0,-2.7465834e-4)" />
  <path
     style="fill:#808080;stroke:#666666;stroke-opacity:1;opacity:0.50000000000000000"
     d="m 1433.5811,198.55534 0,-32.93732 24.2499,0 24.2499,0 0.4531,3.93816 0.4531,3.93816 74.109,0.3709 74.109,0.3709 0,28.62827 0,28.62826 -98.812,0 -98.812,0 0,-32.93733 z"
     id="path3262"
     inkscape:connector-curvature="0"
     transform="matrix(0.80000041,0,0,0.80000041,0,-2.7465834e-4)" />
  <path
     style="fill:#808080;stroke:#666666;stroke-opacity:1;opacity:0.50000000000000000"
     d="m 1943.3936,341.04506 0,-109.55239 -26.4931,0 -26.493,0 0,-28.64115 0,-28.64115 55.1342,0 55.1342,0 0,138.19355 0,138.19354 -28.6411,0 -28.6412,0 0,-109.5524 z"
     id="path3264"
     inkscape:connector-curvature="0"
     transform="matrix(0.80000041,0,0,0.80000041,0,-2.7465834e-4)" />
  <path
     style="fill:#808080;stroke:#666666;stroke-opacity:1;opacity:0.50000000000000000"
     d="m 1368.846,807.53779 -0.4235,-9.66639 -47.6159,-0.37732 -47.6159,-0.37731 0,-10.0051 0,-10.0051 44.3938,0 44.3938,0 0,-33.65335 0,-33.65335 290.7076,0 290.7077,0 0,-40.09761 0,-40.09761 28.6412,0 28.6411,0 0,89.50359 0,89.50359 -28.6411,0 -28.6412,0 0,-39.38516 0,-39.38516 -281.0413,0.3616 -281.0413,0.36159 -0.379,43.31974 -0.379,43.31974 -5.6418,0 -5.6418,0 -0.4234,-9.66639 0,0 z"
     id="path3266"
     inkscape:connector-curvature="0"
     transform="matrix(0.80000041,0,0,0.80000041,0,-2.7465834e-4)" />
  <path
     style="fill:#808080;stroke:#666666;stroke-opacity:1;opacity:0.50000000000000000"
     d="m 1831.6931,1237.5131 0,-29.3572 55.8503,0 55.8502,0 0,-110.2685 0,-110.26838 28.6412,0 28.6411,0 0,139.62558 0,139.6256 -84.4914,0 -84.4914,0 0,-29.3571 z"
     id="path3268"
     inkscape:connector-curvature="0"
     transform="matrix(0.80000041,0,0,0.80000041,0,-2.7465834e-4)" />
  <path
     style="fill:#808080;stroke:#666666;stroke-opacity:1;opacity:0.50000000000000000"
     d="m 1410.6682,1314.1281 0,-28.6411 11.4565,0 11.4564,0 0,-38.6656 0,-38.6655 27.2191,0 27.2191,0 -0.368,-97.0219 -0.368,-97.0219 -97.7379,-0.368 -97.738,-0.3679 0,64.4525 0,64.4525 -5.7282,0 -5.7282,0 0,-70.1501 0,-70.1501 44.0358,-0.3787 44.0357,-0.3787 0.3903,-26.13508 0.3904,-26.13505 5.6636,0 5.6636,0 0.3903,26.13505 0.3903,26.13508 58.3564,0.374 58.3563,0.3741 0,103.0921 0,103.0921 68.7388,0 68.7387,0 0,29.3572 0,29.3571 -72.3189,0 -72.3189,0 0,37.9496 0,37.9495 -40.0976,0 -40.0976,0 0,-28.6412 z"
     id="path3270"
     inkscape:connector-curvature="0"
     transform="matrix(0.80000041,0,0,0.80000041,0,-2.7465834e-4)" />
  <path
     style="fill:#808080;stroke:#666666;stroke-opacity:1;opacity:0.50000000000000000"
     d="m 1277.4869,1314.2126 c 0,-17.493 0.5548,-28.8995 1.432,-29.4417 0.8354,-0.5162 1.4321,-8.6072 1.4321,-19.4172 l 0,-18.5323 5.7282,0 5.7282,0 0,19.3328 0,19.3328 9.3084,0 9.3084,0 0,28.6411 0,28.6412 -16.4687,0 -16.4686,0 0,-28.5567 z"
     id="path3272"
     inkscape:connector-curvature="0"
     transform="matrix(0.80000041,0,0,0.80000041,0,-2.7465834e-4)" />
  <path
     style="fill:#808080;stroke:#666666;stroke-opacity:1;opacity:0.50000000000000000"
     d="m 1119.9605,1314.1281 0,-28.6411 12.8886,0 12.8885,0 0,28.6411 0,28.6412 -12.8885,0 -12.8886,0 0,-28.6412 z"
     id="path3274"
     inkscape:connector-curvature="0"
     transform="matrix(0.80000041,0,0,0.80000041,0,-2.7465834e-4)" />
  <path
     style="fill:#808080;stroke:#666666;stroke-opacity:1;opacity:0.50000000000000000"
     d="m 908.01604,1304.8198 0,-37.9496 -73.03493,0 -73.03493,0 0,-29.3571 0,-29.3572 95.23182,0 95.23182,0 0,-116.7127 0,-116.7127 6.44426,0 6.44426,0 0,155.3782 0,155.3783 27.92512,0 27.92514,0 0,28.6411 0,28.6412 -56.56629,0 -56.56627,0 0,-37.9495 z"
     id="path3276"
     inkscape:connector-curvature="0"
     transform="matrix(0.80000041,0,0,0.80000041,0,-2.7465834e-4)" />
  <path
     style="fill:#808080;stroke:#666666;stroke-opacity:1;opacity:0.50000000000000000"
     d="m 398.20358,1155.8858 0,-110.9845 28.64115,0 28.64115,0 0,81.6273 0,81.6273 55.13421,0 55.13421,0 0,29.3572 0,29.3571 -83.77536,0 -83.77536,0 0,-110.9844 z"
     id="path3278"
     inkscape:connector-curvature="0"
     transform="matrix(0.80000041,0,0,0.80000041,0,-2.7465834e-4)" />
  <rect
     style="opacity:0.5;fill:none;stroke:#666666;stroke-width:0.97188413;stroke-opacity:1"
     id="rect4031"
     width="45.53373"
     height="102.95472"
     x="318.64899"
     y="731.74414" />
  <rect
     style="opacity:0.5;fill:none;stroke:#666666;stroke-width:0.97991985;stroke-opacity:1"
     id="rect4033"
     width="154.02803"
     height="47.21109"
     x="454.27686"
     y="965.85895" />
  <rect
     style="opacity:0.5;fill:none;stroke:#666666;stroke-width:0.93277943;stroke-opacity:1"
     id="rect4035"
     width="10.17958"
     height="105.3708"
     x="761.76416"
     y="674.35657" />
  <rect
     style="opacity:0.5;fill:none;stroke:#666666;stroke-width:0.97384155;stroke-opacity:1"
     id="rect4037"
     width="77.275711"
     height="45.652027"
     x="817.44385"
     y="1028.1403" />
  <rect
     style="opacity:0.5;fill:none;stroke:#666666;stroke-width:0.97879291;stroke-opacity:1"
     id="rect4039"
     width="102.47512"
     height="45.647133"
     x="918.26312"
     y="1028.1428" />
  <rect
     style="opacity:0.5;fill:none;stroke:#666666;stroke-width:0.99913436;stroke-opacity:1"
     id="rect4041"
     width="78.652557"
     height="45.506485"
     x="1048.877"
     y="1028.2732" />
  <rect
     style="opacity:0.5;fill:none;stroke:#666666;stroke-width:0.66436875;stroke-opacity:1"
     id="rect4043"
     width="9.4956694"
     height="81.95089"
     x="1023.8513"
     y="914.43787" />
  <rect
     style="opacity:0.5;fill:none;stroke:#666666;stroke-width:0.68377542;stroke-opacity:1"
     id="rect4045"
     width="10.428584"
     height="103.57923"
     x="1094.7858"
     y="654.50531" />
  <rect
     style="opacity:0.5;fill:none;stroke:#666666;stroke-width:0.87539643;stroke-opacity:1"
     id="rect4047"
     width="155.2782"
     height="45.630222"
     x="1309.2394"
     y="967.01636" />
  <rect
     style="opacity:0.5;fill:none;stroke:#666666;stroke-width:0.98087692;stroke-opacity:1"
     id="rect4049"
     width="175.01114"
     height="15.74946"
     x="842.65149"
     y="621.56348" />
  <rect
     style="opacity:0.5;fill:none;stroke:#666666;stroke-width:0.98832935;stroke-opacity:1"
     id="rect4051"
     width="46.640884"
     height="142.7083"
     x="1554.5897"
     y="646.15643" />
  <rect
     style="opacity:0.5;fill:none;stroke:#666666;stroke-width:0.99341446;stroke-opacity:1"
     id="rect4053"
     width="46.175156"
     height="142.2216"
     x="1555.0529"
     y="361.3746" />
  <rect
     style="opacity:0.5;fill:none;stroke:#666666;stroke-width:0.99437338;stroke-opacity:1"
     id="rect4055"
     width="205.93001"
     height="45.295048"
     x="1305.4995"
     y="139.46527" />
  <rect
     style="opacity:0.5;fill:none;stroke:#666666;stroke-width:0.98856127;stroke-opacity:1"
     id="rect4057"
     width="321.28372"
     height="38.439041"
     x="798.33759"
     y="6.5673685" />
  <rect
     style="opacity:0.5;fill:none;stroke:#666666;stroke-width:0.97893983;stroke-opacity:1"
     id="rect4059"
     width="38.448883"
     height="78.752762"
     x="1146.955"
     y="52.851974" />
  <rect
     style="opacity:0.5;fill:none;stroke:#666666;stroke-width:0.95186096;stroke-opacity:1"
     id="rect4061"
     width="38.800102"
     height="77.297752"
     x="733.36304"
     y="53.174881" />
  <rect
     style="opacity:0.5;fill:none;stroke:#666666;stroke-width:0.99887347;stroke-opacity:1"
     id="rect4063"
     width="206.18091"
     height="45.963436"
     x="425.38986"
     y="139.13109" />
</svg>
