<svg xmlns="http://www.w3.org/2000/svg" viewBox="20 20 321 321">
<g fill="none"  stroke="#000" stroke-width="10">
<path d="m75.486,215.572c0,2.246 1.82,4.065 4.065,4.065h34.323c2.245,0 4.065-1.819 4.065-4.065v-70.002c0-2.244-1.82-4.064-4.065-4.064h-34.323c-2.245,0-4.065,1.82-4.065,4.064v70.002z"/>
<path d="m177.959,248.4l-5.853-3.285-37.211-20.894c-2.604-1.376-4.145-1.856-4.145-4.146v-79.252c0-2.289 .426-2.168 4.145-4.145l43.063-24.179c2.29,0 4.145,1.855 4.145,4.145v74.977"/>
</g>
<g fill="#000">
<path d="m276.033,227.524c-.264,21.84-14.327,41.07-35.273,47.551-20.997,6.497-44.063-2.393-55.993-20.611-12.03-18.37-9.941-43.151 4.399-59.6 14.372-16.485 38.711-21.485 58.468-12.16 17.335,8.183 28.17,25.791 28.399,44.82 .117,9.678 15.12,9.774 15.004,.107-.285-23.601-12.93-45.152-33.556-56.708-20.663-11.576-46.938-10.132-66.614,2.754-19.622,12.85-30.717,36.129-28.741,59.425 1.966,23.186 16.774,44.003 38.044,53.442 20.025,8.888 43.533,6.932 61.856-5.067 18.09-11.847 28.75-32.366 29.01-53.847 .118-9.69-14.886-9.764-15.003-.106z"/>
<path d="m191.411,273.221c26.912-26.912 53.824-53.824 80.737-80.736 6.835-6.835-3.813-17.403-10.666-10.551-26.912,26.912-53.824,53.824-80.737,80.736-6.835,6.835 3.813,17.403 10.666,10.551z"/>
</g>
</svg>
