<svg xmlns="http://www.w3.org/2000/svg" viewBox="20 20 321 321">
<g fill="#000">
<path d="m292.333,131.072c0,3.447-2.796,6.243-6.243,6.243h-167.514c-3.447,0-6.243-2.795-6.243-6.243v-4.162c0-3.447 2.795-6.243 6.243-6.243h167.514c3.447,0 6.243,2.795 6.243,6.243v4.162z"/>
<path d="m97.333,131.167c0,3.313-2.687,6-6,6h-16c-3.313,0-6-2.687-6-6v-5c0-3.313 2.687-6 6-6h16c3.313,0 6,2.687 6,6v5z"/>
<path d="m292.333,166.072c0,3.447-2.796,6.243-6.243,6.243h-167.514c-3.447,0-6.243-2.795-6.243-6.243v-4.162c0-3.447 2.795-6.243 6.243-6.243h167.514c3.447,0 6.243,2.795 6.243,6.243v4.162z"/>
<path d="m97.333,166.167c0,3.313-2.687,6-6,6h-16c-3.313,0-6-2.687-6-6v-5c0-3.313 2.687-6 6-6h16c3.313,0 6,2.687 6,6v5z"/>
<path d="m292.333,200.072c0,3.447-2.796,6.242-6.243,6.242h-167.514c-3.447,0-6.243-2.795-6.243-6.242v-4.162c0-3.447 2.795-6.243 6.243-6.243h167.514c3.447,0 6.243,2.796 6.243,6.243v4.162z"/>
<path d="m97.333,200.167c0,3.313-2.687,6-6,6h-16c-3.313,0-6-2.687-6-6v-5c0-3.313 2.687-6 6-6h16c3.313,0 6,2.687 6,6v5z"/>
<path d="m292.333,234.072c0,3.447-2.796,6.242-6.243,6.242h-167.514c-3.447,0-6.243-2.795-6.243-6.242v-4.162c0-3.447 2.795-6.243 6.243-6.243h167.514c3.447,0 6.243,2.796 6.243,6.243v4.162z"/>
<path d="m97.333,234.167c0,3.313-2.687,6-6,6h-16c-3.313,0-6-2.687-6-6v-5c0-3.313 2.687-6 6-6h16c3.313,0 6,2.687 6,6v5z"/>
</g>
</svg>
