<svg xmlns="http://www.w3.org/2000/svg" viewBox="20 20 321 321">
<g fill="#000">
<path d="m142.335,135.276c24.862,0 49.725,0 74.587,0 12.158,0 24.141-.892 34.388,7.213 7.997,6.325 12.652,16.157 12.652,26.319 0,4.149 0,8.298 0,12.446 0,14.696 0,29.393 0,44.088 0,5.734-.22,11.108-2.127,16.644-3.571,10.371-12.927,17.879-23.283,20.664-7.496,2.016-16.551,.971-24.22,.971-14.554,0-29.106,0-43.66,0-25.6,0-51.199,0-76.799,0-6.449,0-6.449,10 0,10 45.467,0 90.933,0 136.4,0 20.361,0 38.072-14.27 42.66-34.044 1.177-5.072 1.028-10.258 1.028-15.418 0-7.083 0-14.165 0-21.248 0-11.396 0-22.791 0-34.187 0-23.043-18.164-41.363-40.703-43.352-4.905-.433-9.971-.097-14.884-.097-10.153,0-20.306,0-30.459,0-15.194,0-30.387,0-45.581,0-6.448,.001-6.448,10.001 .001,10.001z"/>
<path d="m139.812,88.919c-16.154,12.346-32.308,24.693-48.461,37.039-3.178,2.429-3.178,6.206 0,8.635 16.154,12.346 32.308,24.693 48.461,37.039 3.126,2.39 7.523-.882 7.523-4.317 0-24.693 0-49.385 0-74.078 0-6.449-10-6.449-10,0 0,24.693 0,49.385 0,74.078 2.508-1.439 5.016-2.878 7.523-4.317-16.154-12.346-32.308-24.693-48.461-37.039 0,2.878 0,5.756 0,8.635 16.154-12.346 32.308-24.693 48.461-37.039 5.05-3.861 .079-12.553-5.046-8.636z"/>
</g>
</svg>
