<svg xmlns="http://www.w3.org/2000/svg" viewBox="20 20 321 321">
<g fill="none"  stroke="#000" stroke-width="10">
<path d="m173.333,193.667h-67.833c-3.313,0-6-2.687-6-6v-13.333c0-3.313 2.687-6 6-6h67.833"/>
<path d="m167.833,193.667"/>
<path d="m188.666,168.333h70.167c3.313,0 6,2.687 6,6v13.333c0,3.313-2.687,6-6,6h-70.417"/>
<path d="m193.166,168.333"/>
<path d="m167.833,168.333"/>
<path d="m193.354,193.354v65.666c0,3.314-2.686,6-6,6h-13.333c-3.313,0-6-2.686-5.75-5.916v-65.666"/>
<path d="m168.271,168.521v-65.666c0-3.313 2.687-6 6-6h13.333c3.313,0 6,2.687 6,6v65.666"/>
</g>
</svg>
