<svg xmlns="http://www.w3.org/2000/svg" viewBox="20 20 321 321">
<g fill="#000">
<path d="m177.536,209.818c0,10.444 0,20.889 0,31.333 0,4.514 7,4.514 7,0 0-10.444 0-20.889 0-31.333 0-4.513-7-4.513-7,0z"/>
<path d="m181.079,156.583-.244-81 106.801,81z"/>
<path d="m186.079,156.583c-.081-27-.163-54-.244-81-2.508,1.439-5.016,2.878-7.523,4.317 35.59,26.992 71.18,53.984 106.77,80.976 .011,.008 .021,.016 .031,.024 .841-3.106 1.683-6.211 2.523-9.317-35.519,0-71.038,0-106.557,0-6.449,0-6.449,10 0,10 35.519,0 71.038,0 106.557,0 5.402,0 6.252-6.489 2.523-9.317-35.59-26.992-71.18-53.984-106.77-80.976-.011-.008-.021-.016-.031-.024-3.125-2.371-7.534,.868-7.523,4.317 .082,27 .163,54 .244,81 .02,6.448 10.02,6.45 10,0z"/>
<path d="m180.591,156.583 .244-80.999-106.801,80.999z"/>
<path d="m185.591,156.583c.081-27 .163-54 .244-81 .011-3.45-4.397-6.688-7.523-4.317-35.59,26.992-71.18,53.984-106.77,80.976-.011,.008-.021,.016-.031,.023-3.729,2.828-2.879,9.317 2.523,9.317 35.519,0 71.038,0 106.557,0 6.448,0 6.448-10 0-10-35.519,0-71.038,0-106.557,0 .841,3.106 1.683,6.211 2.523,9.317 35.59-26.992 71.18-53.984 106.77-80.976 .011-.008 .021-.016 .031-.023-2.508-1.439-5.016-2.878-7.523-4.317-.082,27-.163,54-.244,81-.02,6.45 9.98,6.448 10,0z"/>
</g>
<path fill="none"  stroke="#000" stroke-width="10" d="m268.835,279.988c0,3.919-3.927,7.096-8.771,7.096h-157.792c-4.844,0-8.771-3.177-8.771-7.096v-129.381c0-3.918 175.333-3.918 175.333,0v129.381z"/>
<path fill="#000" d="m214.02,248.594c-.479,8.883-8.28,8.945-14.891,8.945-7.553,0-15.104,0-22.656,0-6.155,0-12.31,0-18.465,0-6.805,0-10.192-4.573-10.192-10.968 0-13.881 0-27.762 0-41.643 0-6.182 .827-13.594 9.052-13.594 4.944,0 9.888,0 14.832,0 9.575,0 19.15,0 28.726,0 2.58,0 5.144-.181 7.652,.51 4.789,1.315 5.942,6.197 5.942,10.457 0,15.431 0,30.862 0,46.293 0,4.514 7,4.514 7,0 0-12.316 0-24.632 0-36.948 0-4.434 .52-9.247-.198-13.652-1.364-8.373-8.369-13.658-16.673-13.658-13.582,0-27.166,0-40.748,0-5.581,0-10.824-.361-15.756,2.879-5.821,3.824-6.829,10.203-6.829,16.553 0,12.729 0,25.458 0,38.187 0,4.288-.365,8.639 1.233,12.711 2.536,6.466 8.94,9.875 15.637,9.875 12.008,0 24.016,0 36.022,0 3.78,0 7.56,0 11.339,0 9.028,0 15.506-7.273 15.973-15.945 .243-4.515-6.758-4.492-7-.002z"/>
</svg>
