<svg xmlns="http://www.w3.org/2000/svg" viewBox="20 20 321 321">
<path fill="none"  stroke="#000" stroke-width="10" d="m157.081,287.417c-3.313,0-6-2.687-6-6v-201c0-3.313 2.687-6 6-6h47.5c3.313,0 6,2.687 6,6v201c0,3.313-2.687,6-6,6h-47.5z"/>
<path fill="#000" d="m176.765,104.512c-7.717-.566-7.717-12.441 0-13.008 2.682-.197 5.444,0 8.134,0 7.831,0 7.591,12.451 0,13.008-2.682,.196-5.444,0-8.134,0-4.514,0-4.514,7 0,7 7.645,0 15.276,.639 19.565-7.097 4.932-8.895-1.985-19.217-11.432-19.911-7.494-.55-15.502-.231-19.565,7.097-4.932,8.895 1.986,19.218 11.432,19.911 4.506,.33 4.473-6.672 0-7z"/>
<path fill="none"  stroke="#000" stroke-width="10" d="m157.081,235.334c-3.313,0-6-1.389-6-3.1v-103.802c0-1.711 2.687-3.099 6-3.099h47.5c3.313,0 6,1.388 6,3.099v103.802c0,1.711-2.687,3.1-6,3.1h-47.5z"/>
<g fill="#000">
<path d="m176.765,269.407c-7.717-.566-7.717-12.441 0-13.008 2.682-.196 5.444,0 8.134,0 7.831,0 7.591,12.451 0,13.008-2.682,.197-5.444,0-8.134,0-4.514,0-4.514,7 0,7 7.645,0 15.276,.64 19.565-7.097 4.933-8.895-1.985-19.218-11.432-19.911-7.494-.55-15.502-.231-19.565,7.097-4.933,8.895 1.985,19.218 11.432,19.911 4.506,.331 4.473-6.672 0-7z"/>
<path d="m198.72,217.713c-.526,2.608-9.921,1.27-11.886,1.27-1.102,0-4.13,.586-4.13-1.27 0-1.918 0-3.836 0-5.754 0-1.89 10.544-.977 11.832-.977 1.102,0 4.13-.586 4.13,1.27 0,1.953 0,3.906 0,5.859 0,1.935 3,1.935 3,0 0-2.505 .257-5.116-.24-7.579-.527-2.615-3.703-2.55-5.717-2.55-3.35,0-6.698,0-10.048,0-2.748,0-5.255,.259-5.903,3.473-.405,2.003-.405,5.052 0,7.055 .649,3.214 3.155,3.473 5.903,3.473 3.35,0 6.698,0 10.048,0 2.748,0 5.255-.259 5.903-3.473 .381-1.889-2.509-2.693-2.892-.797z"/>
<path d="m162.917,190.315c11.722,0 23.444,0 35.166,0 6.448,0 6.448-10 0-10-11.722,0-23.444,0-35.166,0-6.449,0-6.449,10 0,10z"/>
<path d="m193.627,180.877c0,1.209-.979,2.188-2.188,2.188h-21.877c-1.209,0-2.188-.979-2.188-2.188v-25.461c0-1.208 .979-2.188 2.188-2.188h21.877c1.209,0 2.188,.98 2.188,2.188v25.461z"/>
</g>
</svg>
