<svg xmlns="http://www.w3.org/2000/svg" viewBox="20 20 321 321">
<g fill="#000">
	<path d="M198.834,187.826v-13.652c0-6.065-4.936-11-11-11H174.5c-6.065,0-11,4.935-11,11v13.652
		c0,6.065,4.935,11,11,11h13.334C193.898,198.826,198.834,193.892,198.834,187.826z"/>
	<path d="M218.5,174.174v13.652c0,6.065,4.934,11,11,11h13.334c6.064,0,11-4.935,11-11v-13.652
		c0-6.065-4.936-11-11-11H229.5C223.434,163.174,218.5,168.108,218.5,174.174z"/>
	<path d="M143.833,187.826v-13.652c0-6.065-4.935-11-11-11H119.5c-6.065,0-11,4.935-11,11v13.652
		c0,6.065,4.935,11,11,11h13.334C138.899,198.826,143.833,193.892,143.833,187.826z"/>
</g>
</svg>
