<svg xmlns="http://www.w3.org/2000/svg" viewBox="20 20 321 321">
<g fill="#000">
<path d="m103.119,190.83v49.564c0,2.76 2.136,4.997 4.77,4.997h139.096c2.634,0 4.77-2.237 4.77-4.997v-49.564c0-2.76-2.136-4.997-4.77-4.997h-139.097c-2.634-0-4.769,2.237-4.769,4.997zm71.059,39.795h-19.2v-30.356h18.136v5.002h-12.187v6.817h10.592v5.002h-10.592v8.533h13.251v5.002zm10.978-7.184c1.128,1.716 2.788,2.574 4.981,2.574 .354,0 .741-.016 1.16-.049 .419-.032 .806-.081 1.161-.146v-11.084h5.949v15.154c-.71,.262-1.814,.556-3.313,.883-1.499,.326-3.313,.49-5.44,.49-1.871,0-3.555-.336-5.055-1.006s-2.78-1.668-3.844-2.992c-1.064-1.323-1.887-2.975-2.467-4.952-.581-1.979-.87-4.274-.87-6.891 0-2.583 .338-4.863 1.016-6.842 .677-1.978 1.596-3.637 2.757-4.978s2.53-2.346 4.11-3.017c1.58-.67 3.271-1.005 5.078-1.005 1.161,0 2.201,.09 3.119,.27 .92,.18 1.717,.385 2.395,.612 .677,.229 1.233,.476 1.669,.736 .435,.263 .765,.458 .991,.588l-1.549,4.807c-.708-.458-1.578-.866-2.61-1.226s-2.097-.539-3.192-.539c-1.419,0-2.611,.262-3.578,.783-.967,.523-1.766,1.252-2.395,2.183-.629,.933-1.08,2.044-1.354,3.335-.274,1.293-.412,2.723-.412,4.292 0,3.631 .564,6.304 1.693,8.02z"/>
<path d="m90.042,249.981c1.507,9.67 13.562,7.561 20.607,7.561 13.053,0 26.105,0 39.158,0 30.174,0 60.349,0 90.523,0 6.024,0 14.784,1.54 20.345-1.433 6.176-3.304 4.016-16.539 4.017-22.129 .001-30.152 .002-60.305 .003-90.458 .001-13.202 .001-26.404 .002-39.606 0-2.543-2.281-5.242-5-5-49.242,4.375-98.484,8.751-147.726,13.126-5.176,.46-17.919-.306-20.699,5.255-1.553,3.106-1.408,5.811-1.408,9.116 0,4.788 0,9.576 0,14.364 0,30.22 0,60.44 0,90.66 0,5.738 0,11.477 0,17.215 0,6.448 10,6.448 10,0 0-22.752 0-45.505 0-68.257 0-14.604 0-29.209 0-43.814 0-4.074 0-8.147 0-12.222 0-.716 0-1.432 0-2.147 0,.994-2.17,1.099-.279,.931 50.822-4.516 101.645-9.032 152.468-13.547 2.548-.227 5.096-.453 7.644-.679-1.667-1.667-3.333-3.333-5-5-.002,47.313-.004,94.625-.006,141.938 0,.824 0,1.649 0,2.474 0,.91 2.074-.787 .709-.787-2.612,0-5.225,0-7.837,0-12.105,0-24.212,0-36.318,0-30.794,0-61.588,0-92.383,0-4.844,0-9.688,0-14.532,0-1.37,0-2.74,0-4.11,0-2.392,0-.5-.002-.535-.219-.991-6.356-10.626-3.648-9.643,2.658z"/>
<path d="m250.312,182.371-147.02,0"/>
<path d="m250.312,180.871c-47.763,0-95.526,0-143.29,0-1.243,0-2.487,0-3.73,0-1.935,0-1.935,3 0,3 47.763,0 95.526,0 143.289,0 1.244,0 2.487,0 3.73,0 1.935,0 1.935-3 .001-3z"/>
<path d="m283.363,96.667c-48.87,4.25-97.74,8.501-146.61,12.752-19.529,1.699-39.057,3.397-58.586,5.096-6.373,.554-6.427,10.559 0,10 48.87-4.25 97.74-8.501 146.61-12.752 19.528-1.699 39.058-3.397 58.586-5.096 6.373-.554 6.428-10.559 0-10z"/>
<path d="m268.833,250.592c7.208,0 14.417,0 21.625,0 1.935,0 1.935-3 0-3-7.208,0-14.417,0-21.625,0-1.935,0-1.935,3 0,3z"/>
<path d="m283.391,281.786c1.531,0 3.063,0 4.595,0 1.908,0 3.5-1.592 3.5-3.5s-1.592-3.5-3.5-3.5c-1.531,0-3.063,0-4.595,0-1.908,0-3.5,1.592-3.5,3.5s1.591,3.5 3.5,3.5z"/>
<path d="m256.666,291.786c5.333,0 10.667,0 16,0 4.514,0 4.514-7 0-7-5.333,0-10.667,0-16,0-4.514,0-4.514,7 0,7z"/>
<path d="m268.25,285.786c2,0 4,0 6,0 1.908,0 3.5-1.592 3.5-3.5s-1.592-3.5-3.5-3.5c-2,0-4,0-6,0-1.908,0-3.5,1.592-3.5,3.5s1.592,3.5 3.5,3.5z"/>
<path d="m286.584,291.786c.667,0 1.333,0 2,0 1.908,0 3.5-1.592 3.5-3.5s-1.592-3.5-3.5-3.5c-.667,0-1.333,0-2,0-1.908,0-3.5,1.592-3.5,3.5s1.592,3.5 3.5,3.5z"/>
<path d="m267.666,271.474c-2,0-4,0-6,0-1.908,0-3.5,1.592-3.5,3.5s1.592,3.5 3.5,3.5c2,0 4,0 6,0 1.908,0 3.5-1.592 3.5-3.5s-1.592-3.5-3.5-3.5z"/>
<path d="m265.666,259.453c-.667,0-1.333,0-2,0-1.908,0-3.5,1.592-3.5,3.5s1.592,3.5 3.5,3.5c.667,0 1.333,0 2,0 1.908,0 3.5-1.592 3.5-3.5s-1.592-3.5-3.5-3.5z"/>
<path d="m288.5,257.953c-5.222,0-10.444,0-15.666,0-4.514,0-4.514,7 0,7 5.222,0 10.444,0 15.666,0 4.514,0 4.514-7 0-7z"/>
<path d="m284.834,265.953c-5.083,0-10.167,0-15.25,0-4.514,0-4.514,7 0,7 5.083,0 10.167,0 15.25,0 4.514,0 4.514-7 0-7z"/>
<path d="m288.168,251.953c-1.89,0-3.778,0-5.668,0-1.908,0-3.5,1.592-3.5,3.5s1.592,3.5 3.5,3.5c1.89,0 3.778,0 5.668,0 1.908,0 3.5-1.592 3.5-3.5s-1.592-3.5-3.5-3.5z"/>
<path d="m273.501,253.62c-2,0-4,0-6,0-1.908,0-3.5,1.592-3.5,3.5s1.592,3.5 3.5,3.5c2,0 4,0 6,0 1.908,0 3.5-1.592 3.5-3.5s-1.592-3.5-3.5-3.5z"/>
<path d="m256.104,263.89c-2,0-4,0-6,0-1.908,0-3.5,1.592-3.5,3.5s1.592,3.5 3.5,3.5c2,0 4,0 6,0 1.908,0 3.5-1.592 3.5-3.5s-1.592-3.5-3.5-3.5z"/>
<path d="m287.833,269.953c-.222,0-.443,0-.665,0-1.908,0-3.5,1.592-3.5,3.5s1.592,3.5 3.5,3.5c.222,0 .443,0 .665,0 1.908,0 3.5-1.592 3.5-3.5s-1.592-3.5-3.5-3.5z"/>
<path d="m73.75,282.89c2.337,0 4.673,0 7.01,0 4.514,0 4.514-7 0-7-2.337,0-4.673,0-7.01,0-4.515,0-4.515,7 0,7z"/>
<path d="m100.271,279.89c2.581,0 5.161,0 7.741,0 4.514,0 4.514-7 0-7-2.581,0-5.161,0-7.741,0-4.515,0-4.515,7 0,7z"/>
<path d="m96.834,268.89c5.083,0 10.167,0 15.25,0 4.514,0 4.514-7 0-7-5.083,0-10.167,0-15.25,0-4.514,0-4.514,7 0,7z"/>
<path d="m122.069,291.786c2,0 4,0 6,0 1.908,0 3.5-1.592 3.5-3.5s-1.592-3.5-3.5-3.5c-2,0-4,0-6,0-1.908,0-3.5,1.592-3.5,3.5s1.592,3.5 3.5,3.5z"/>
<path d="m246.238,284.277c-3,0-6.001,0-9.001,0-4.514,0-4.514,7 0,7 3,0 6.001,0 9.001,0 4.514,0 4.514-7 0-7z"/>
<path d="m259.237,268.277c-5.333,0-10.667,0-16,0-4.514,0-4.514,7 0,7 5.333,0 10.667,0 16,0 4.514,0 4.514-7 0-7z"/>
<path d="m79.874,251.578c-2,0-4,0-6,0-1.908,0-3.5,1.592-3.5,3.5s1.592,3.5 3.5,3.5c2,0 4,0 6,0 1.908,0 3.5-1.592 3.5-3.5s-1.592-3.5-3.5-3.5z"/>
<path d="m240.487,260.536c-1.083,0-2.167,0-3.25,0-1.908,0-3.5,1.592-3.5,3.5s1.592,3.5 3.5,3.5c1.083,0 2.167,0 3.25,0 1.908,0 3.5-1.592 3.5-3.5s-1.591-3.5-3.5-3.5z"/>
<path d="m76.583,272.953c.667,0 1.333,0 2,0 1.908,0 3.5-1.592 3.5-3.5s-1.592-3.5-3.5-3.5c-.667,0-1.333,0-2,0-1.908,0-3.5,1.592-3.5,3.5s1.592,3.5 3.5,3.5z"/>
<path d="m93.584,276.277c-.667,0-1.333,0-2,0-1.908,0-3.5,1.592-3.5,3.5s1.592,3.5 3.5,3.5c.667,0 1.333,0 2,0 1.908,0 3.5-1.592 3.5-3.5s-1.592-3.5-3.5-3.5z"/>
<path d="m71.416,250.592c4.917,0 9.833,0 14.75,0 1.935,0 1.935-3 0-3-4.917,0-9.833,0-14.75,0-1.935,0-1.935,3 0,3z"/>
<path d="m196.164,284.786c-2,0-4,0-6,0-1.908,0-3.5,1.592-3.5,3.5s1.592,3.5 3.5,3.5c2,0 4,0 6,0 1.908,0 3.5-1.592 3.5-3.5s-1.592-3.5-3.5-3.5z"/>
<path d="m87.833,263.89c-1.833,0-3.667,0-5.5,0-1.908,0-3.5,1.592-3.5,3.5s1.592,3.5 3.5,3.5c1.833,0 3.667,0 5.5,0 1.908,0 3.5-1.592 3.5-3.5s-1.592-3.5-3.5-3.5z"/>
<path d="m172.5,266.953c3,0 6,0 9,0 4.514,0 4.514-7 0-7-3,0-6,0-9,0-4.514,0-4.514,7 0,7z"/>
<path d="m205.916,291.82c5.333,0 10.667,0 16,0 4.514,0 4.514-7 0-7-5.333,0-10.667,0-16,0-4.514,0-4.514,7 0,7z"/>
<path d="m221.375,277.729c2,0 4,0 6,0 1.908,0 3.5-1.592 3.5-3.5s-1.592-3.5-3.5-3.5c-2,0-4,0-6,0-1.908,0-3.5,1.592-3.5,3.5s1.592,3.5 3.5,3.5z"/>
<path d="m215.209,288.035c.667,0 1.333,0 2,0 1.908,0 3.5-1.592 3.5-3.5s-1.592-3.5-3.5-3.5c-.667,0-1.333,0-2,0-1.908,0-3.5,1.592-3.5,3.5s1.592,3.5 3.5,3.5z"/>
<path d="m213.75,264.584c-2,0-4,0-6,0-1.908,0-3.5,1.592-3.5,3.5s1.592,3.5 3.5,3.5c2,0 4,0 6,0 1.908,0 3.5-1.592 3.5-3.5s-1.592-3.5-3.5-3.5z"/>
<path d="m222.834,260.751c-5.083,0-10.167,0-15.25,0-4.514,0-4.514,7 0,7 5.083,0 10.167,0 15.25,0 4.514,0 4.514-7 0-7z"/>
<path d="m233.834,278.584c-2,0-4,0-6,0-1.908,0-3.5,1.592-3.5,3.5s1.592,3.5 3.5,3.5c2,0 4,0 6,0 1.908,0 3.5-1.592 3.5-3.5s-1.592-3.5-3.5-3.5z"/>
<path d="m135.882,271.917c-3,0-6,0-9,0-4.514,0-4.514,7 0,7 3,0 6,0 9,0 4.514,0 4.514-7 0-7z"/>
<path d="m152.736,260.549c-5.333,0-10.667,0-16,0-4.514,0-4.514,7 0,7 5.333,0 10.667,0 16,0 4.514,0 4.514-7 0-7z"/>
<path d="m152.402,271.786c-2,0-4,0-6,0-1.908,0-3.5,1.592-3.5,3.5s1.592,3.5 3.5,3.5c2,0 4,0 6,0 1.908,0 3.5-1.592 3.5-3.5s-1.592-3.5-3.5-3.5z"/>
<path d="m139.069,265.786c-.667,0-1.333,0-2,0-1.908,0-3.5,1.592-3.5,3.5s1.592,3.5 3.5,3.5c.667,0 1.333,0 2,0 1.908,0 3.5-1.592 3.5-3.5s-1.592-3.5-3.5-3.5z"/>
<path d="m144.902,291.786c2,0 4,0 6,0 1.908,0 3.5-1.592 3.5-3.5s-1.592-3.5-3.5-3.5c-2,0-4,0-6,0-1.908,0-3.5,1.592-3.5,3.5s1.593,3.5 3.5,3.5z"/>
<path d="m85.819,291.619c5.083,0 10.167,0 15.25,0 4.514,0 4.514-7 0-7-5.083,0-10.167,0-15.25,0-4.514,0-4.514,7 0,7z"/>
<path d="m124.569,271.786c2,0 4,0 6,0 1.908,0 3.5-1.592 3.5-3.5s-1.592-3.5-3.5-3.5c-2,0-4,0-6,0-1.908,0-3.5,1.592-3.5,3.5s1.593,3.5 3.5,3.5z"/>
<path d="m178.251,276.584c3,0 6.001,0 9.001,0 4.514,0 4.514-7 0-7-3,0-6.001,0-9.001,0-4.514,0-4.514,7 0,7z"/>
<path d="m159.584,291.82c5.333,0 10.667,0 16,0 4.514,0 4.514-7 0-7-5.333,0-10.667,0-16,0-4.514,0-4.514,7 0,7z"/>
<path d="m154.902,283.786c2,0 4,0 6,0 1.908,0 3.5-1.592 3.5-3.5s-1.592-3.5-3.5-3.5c-2,0-4,0-6,0-1.908,0-3.5,1.592-3.5,3.5s1.593,3.5 3.5,3.5z"/>
<path d="m173.251,287.584c.667,0 1.333,0 2,0 1.908,0 3.5-1.592 3.5-3.5s-1.592-3.5-3.5-3.5c-.667,0-1.333,0-2,0-1.908,0-3.5,1.592-3.5,3.5s1.593,3.5 3.5,3.5z"/>
<path d="m167.584,264.584c-3.722,0-7.444,0-11.166,0-4.514,0-4.514,7 0,7 3.722,0 7.444,0 11.166,0 4.514,0 4.514-7 0-7z"/>
<path d="m210.666,267.786c-3.902,0-7.806,0-11.708,0-4.514,0-4.514,7 0,7 3.902,0 7.806,0 11.708,0 4.514,0 4.514-7 0-7z"/>
<path d="m192.001,278.584c-2,0-4,0-6,0-1.908,0-3.5,1.592-3.5,3.5s1.592,3.5 3.5,3.5c2,0 4,0 6,0 1.908,0 3.5-1.592 3.5-3.5s-1.592-3.5-3.5-3.5z"/>
<path d="m146.902,279.786c5.333,0 10.667,0 16,0 4.514,0 4.514-7 0-7-5.333,0-10.667,0-16,0-4.514,0-4.514,7 0,7z"/>
<path d="m118.012,275.203c-3,0-6,0-9,0-4.514,0-4.514,7 0,7 3,0 6,0 9,0 4.514,0 4.514-7 0-7z"/>
<path d="m123.636,260.536c-1.083,0-2.167,0-3.25,0-1.908,0-3.5,1.592-3.5,3.5s1.592,3.5 3.5,3.5c1.083,0 2.167,0 3.25,0 1.908,0 3.5-1.592 3.5-3.5s-1.592-3.5-3.5-3.5z"/>
<path d="m99.584,265.167c-2,0-4,0-6,0-1.908,0-3.5,1.592-3.5,3.5s1.592,3.5 3.5,3.5c2,0 4,0 6,0 1.908,0 3.5-1.592 3.5-3.5s-1.592-3.5-3.5-3.5z"/>
<path d="m87.26,281.035c-1.833,0-3.667,0-5.5,0-1.908,0-3.5,1.592-3.5,3.5s1.592,3.5 3.5,3.5c1.833,0 3.667,0 5.5,0 1.908,0 3.5-1.592 3.5-3.5s-1.592-3.5-3.5-3.5z"/>
<path d="m189.416,270.89c5.083,0 10.167,0 15.25,0 4.514,0 4.514-7 0-7-5.083,0-10.167,0-15.25,0-4.514,0-4.514,7 0,7z"/>
<path d="m143.083,281.917c-.667,0-1.333,0-2,0-1.908,0-3.5,1.592-3.5,3.5s1.592,3.5 3.5,3.5c.667,0 1.333,0 2,0 1.908,0 3.5-1.592 3.5-3.5s-1.592-3.5-3.5-3.5z"/>
<path d="m146.833,271.723c-.667,0-1.333,0-2,0-1.908,0-3.5,1.592-3.5,3.5s1.592,3.5 3.5,3.5c.667,0 1.333,0 2,0 1.908,0 3.5-1.592 3.5-3.5s-1.592-3.5-3.5-3.5z"/>
<path d="m105.261,291.619c1.833,0 3.667,0 5.5,0 1.908,0 3.5-1.592 3.5-3.5s-1.592-3.5-3.5-3.5c-1.833,0-3.667,0-5.5,0-1.908,0-3.5,1.592-3.5,3.5s1.593,3.5 3.5,3.5z"/>
<path d="m73.332,290.667c.667,0 1.333,0 2,0 1.908,0 3.5-1.592 3.5-3.5s-1.592-3.5-3.5-3.5c-.667,0-1.333,0-2,0-1.908,0-3.5,1.592-3.5,3.5s1.592,3.5 3.5,3.5z"/>
<path d="m92.583,281.953c.667,0 1.333,0 2,0 1.908,0 3.5-1.592 3.5-3.5s-1.592-3.5-3.5-3.5c-.667,0-1.333,0-2,0-1.908,0-3.5,1.592-3.5,3.5s1.592,3.5 3.5,3.5z"/>
<path d="m103.833,272.89c-1.833,0-3.667,0-5.5,0-1.908,0-3.5,1.592-3.5,3.5s1.592,3.5 3.5,3.5c1.833,0 3.667,0 5.5,0 1.908,0 3.5-1.592 3.5-3.5s-1.592-3.5-3.5-3.5z"/>
<path d="m250.834,283.292c.667,0 1.333,0 2,0 1.908,0 3.5-1.592 3.5-3.5s-1.592-3.5-3.5-3.5c-.667,0-1.333,0-2,0-1.908,0-3.5,1.592-3.5,3.5s1.592,3.5 3.5,3.5z"/>
<path d="m211.5,272.89c-3.722,0-7.444,0-11.166,0-4.514,0-4.514,7 0,7 3.722,0 7.444,0 11.166,0 4.514,0 4.514-7 0-7z"/>
<path d="m83.166,259.953c-3.278,0-6.556,0-9.833,0-4.514,0-4.514,7 0,7 3.278,0 6.556,0 9.833,0 4.514,0 4.514-7 0-7z"/>
<path d="m140.46,280.584c-3.722,0-7.444,0-11.166,0-4.514,0-4.514,7 0,7 3.722,0 7.444,0 11.166,0 4.515,0 4.515-7 0-7z"/>
</g>
</svg>
