<svg xmlns="http://www.w3.org/2000/svg" viewBox="20 20 321 321">
 <path stroke="none" fill="#000" d="M 89.470703 49.113281 L 89.470703 144.70312 L 42.169922 144.70312 L 42.169922 149.70312 L 42.169922 211.5 L 89.470703 211.5 L 89.470703 308.97461 L 99.470703 308.97461 L 99.470703 211.5 L 143.54492 211.5 L 143.54492 179.97852   L 150.08594 179.97852 L 150.08594 173.97852 L 143.54492 173.97852 L 143.54492 144.70312 L 99.470703 144.70312 L 99.470703 49.113281 L 89.470703 49.113281 z M 187.69141 49.113281 L 187.69141 149.57812 L 197.69141 149.57812 L 197.69141 49.113281 L 187.69141 49.113281
	z M 241.83398 49.113281 L 241.83398 149.57812 L 251.83398 149.57812 L 251.83398 49.113281 L 241.83398 49.113281 z M 295.57422 49.113281 L 295.57422 149.57812 L 305.57422 149.57812 L 305.57422 49.113281 L 295.57422 49.113281 z M 174.49805 147.7168 L 165.2168 151.43945 L 174.25781 173.97852 L 174.08594 173.97852 L 174.08594 179.97852 L 176.66602 179.97852 L 187.69141 207.46484 L 187.69141 308.97461 L 197.69141 308.97461 L 197.69141 205.5332 L 186.08594 176.60352 L 186.08594 173.97852 L 185.0332 173.97852 L 174.49805 147.7168 z
	M 228.64062 147.7168 L 219.35938 151.43945 L 228.40039 173.97852 L 228.08594 173.97852 L 228.08594 179.97852 L 230.80859 179.97852 L 241.83398 207.46484 L 241.83398 308.97461 L 251.83398 308.97461 L 251.83398 205.5332 L 240.08594 176.24805 L 240.08594 173.97852 L 239.17578 173.97852 L 228.64062 147.7168 z M 282.38086 147.7168 L 273.09961 151.43945 L 282.14062 173.97852 L 282.08594 173.97852 L 282.08594 179.97852 L 284.54883 179.97852 L 295.57422 207.46484 L 295.57422 308.97461 L 305.57422 308.97461 L 305.57422 205.5332 
	L 282.38086 147.7168 z M 52.169922 154.70312 L 133.54492 154.70312 L 133.54492 201.5 L 52.169922 201.5 L 52.169922 154.70312 z M 156.08594 173.97852 L 156.08594 179.97852 L 168.08594 179.97852 L 168.08594 173.97852 L 156.08594 173.97852 z M 192.08594 173.97852 L 192.08594 179.97852 L 204.08594 179.97852 L 204.08594 173.97852 L 192.08594 173.97852 z M 210.08594 173.97852 L 210.08594 179.97852 L 222.08594 179.97852 L 222.08594 173.97852 L 210.08594 173.97852 z M 246.08594 173.97852 L 246.08594 179.97852 L 258.08594 179.97852
	L 258.08594 173.97852 L 246.08594 173.97852 z M 264.08594 173.97852 L 264.08594 179.97852 L 276.08594 179.97852 L 276.08594 173.97852 L 264.08594 173.97852 z " />
</svg>
