<svg xmlns="http://www.w3.org/2000/svg" viewBox="20 20 321 321">
<g fill="#000">
	<path d="M76.973,124.712c21.382-14.327,42.764-28.655,64.146-42.982 c5.327-3.569,0.327-12.236-5.047-8.635c-21.382,14.327-42.764,28.655-64.146,42.982 C66.599,119.646,71.599,128.313,76.973,124.712L76.973,124.712z"/>
	<path d="M276.718,278.947c0.05-0.382,0.463-0.231-0.573-0.231c-1.03,0-2.06,0-3.09,0 c-3.723,0-7.445,0-11.169,0c-12.585,0-25.171,0-37.757,0c-31.892,0-63.784,0-95.677,0c-11.399,0-22.799,0-34.199,0 c-2.833,0-5.667,0-8.5,0c-1.684,0-1.105,0.535-1.105-0.566c0-22.843,0-45.687,0-68.529c0-30.729,0-61.459,0-92.189
		c-0.826,1.439-1.651,2.878-2.477,4.317c19.946-13.339,39.893-26.679,59.838-40.018c-1.284,0.168-2.568,0.336-3.853,0.504 c45.156,13.664,90.311,27.327,135.467,40.991c0.824,0.25,3.093,0.533,3.093,1.135c0,2.639,0,5.278,0,7.917 c0,12.192,0,24.384,0,36.576c0,30.577,0,61.153,0,91.73C276.718,266.704,276.718,272.826,276.718,278.947c0,6.448,10,6.448,10,0
		c0-48.891,0-97.78,0-146.67c0-7.945,0.884-15.27-8.594-18.138c-7.547-2.284-15.095-4.567-22.642-6.851 c-29.569-8.947-59.14-17.895-88.709-26.842c-8.367-2.531-16.733-5.063-25.1-7.595c-2.708-0.819-4.598,0.169-6.763,1.617 c-4.735,3.167-9.47,6.333-14.206,9.5c-12.558,8.398-25.116,16.796-37.673,25.195c-2.79,1.866-8.384,4.381-8.384,8.268
		c0,1.592,0,3.185,0,4.777c0,51.404,0,102.808,0,154.212c0,3.869,0.424,7.525,3.748,10.181c2.583,2.063,5.429,2.115,8.488,2.115 c8.553,0,17.106,0,25.659,0c30.943,0,61.887,0,92.83,0c18.055,0,36.109,0,54.165,0c4.894,0,9.788,0,14.682,0 c6.506,0,11.551-2.471,12.498-9.769C287.546,272.565,277.536,272.646,276.718,278.947z"/>
	<line x1="90.564" y1="209.949" x2="270.803" y2="209.949"/>
	<path d="M90.564,211.449c49.869,0,99.738,0,149.607,0c10.21,0,20.421,0,30.632,0c1.935,0,1.935-3,0-3 c-49.869,0-99.738,0-149.606,0c-10.211,0-20.421,0-30.632,0C88.629,208.449,88.629,211.449,90.564,211.449L90.564,211.449z"/>
	<line x1="90.564" y1="142.746" x2="270.803" y2="142.746"/>
	<path d="M90.564,144.246c49.869,0,99.738,0,149.607,0c10.21,0,20.421,0,30.632,0c1.935,0,1.935-3,0-3 c-49.869,0-99.738,0-149.606,0c-10.211,0-20.421,0-30.632,0C88.629,141.246,88.629,144.246,90.564,144.246L90.564,144.246z"/>
	<path d="M137.828,82.027c46.735,13.889,93.469,27.777,140.205,41.666 c2.418,0.719,4.836,1.438,7.254,2.156c6.197,1.842,8.825-7.81,2.658-9.643c-46.734-13.889-93.47-27.777-140.204-41.666 c-2.418-0.719-4.836-1.438-7.254-2.156C134.289,70.542,131.661,80.194,137.828,82.027L137.828,82.027z"/>
	<path d="M151.115,111.59c-0.457-0.881-1.08-1.588-1.871-2.121c-0.791-0.532-1.81-0.798-3.056-0.798 c-0.244,0-0.518,0.008-0.821,0.023c-0.305,0.016-0.578,0.053-0.821,0.114v18.977c0.152,0.03,0.319,0.045,0.501,0.045 c0.183,0,0.35,0,0.502,0c1.277,0,2.349-0.243,3.216-0.73c0.866-0.486,1.565-1.155,2.098-2.007
		c0.532-0.851,0.913-1.862,1.141-3.033s0.342-2.456,0.342-3.855c0-1.216-0.091-2.402-0.273-3.559 C151.89,113.491,151.571,112.473,151.115,111.59z"/>
	<path d="M266.678,125.699c0,0-121.175-35.737-122.558-36.15c-1.738-0.52-3.973-0.219-4.746,0.3 c-0.904,0.607-44.995,29.793-44.995,29.793c-4.802,3.201-4.802,3.35-4.802,6.002v6.803c0,2.651,2.15,4.802,4.802,4.802h172.095 c2.651,0,4.801-2.15,4.801-4.802l0.204-1.946C271.479,127.849,270.085,127.022,266.678,125.699z M157.068,124.888
		c-0.655,1.84-1.559,3.337-2.714,4.493c-1.156,1.157-2.532,2.001-4.128,2.532c-1.597,0.532-3.353,0.798-5.269,0.798 c-1.003,0-1.984-0.054-2.942-0.16c-0.958-0.107-1.985-0.281-3.08-0.525v-27.552c1.278-0.274,2.479-0.457,3.604-0.548 c1.125-0.091,2.174-0.137,3.147-0.137c1.854,0,3.55,0.273,5.086,0.821c1.535,0.548,2.835,1.407,3.9,2.578
		c1.064,1.171,1.893,2.662,2.486,4.471c0.593,1.81,0.89,3.991,0.89,6.546C158.048,120.821,157.721,123.048,157.068,124.888z M167.811,125.664c1.064,1.597,2.63,2.395,4.699,2.395c0.334,0,0.699-0.015,1.095-0.046c0.395-0.03,0.76-0.075,1.095-0.137v-10.31 h5.611v14.096c-0.669,0.244-1.711,0.517-3.125,0.82c-1.415,0.304-3.125,0.457-5.132,0.457c-1.765,0-3.353-0.313-4.768-0.936
		c-1.414-0.622-2.623-1.551-3.626-2.782s-1.779-2.767-2.327-4.607c-0.547-1.84-0.821-3.976-0.821-6.409 c0-2.402,0.319-4.523,0.958-6.364c0.639-1.839,1.505-3.383,2.601-4.63c1.094-1.247,2.387-2.182,3.877-2.806 c1.489-0.623,3.086-0.936,4.79-0.936c1.095,0,2.075,0.084,2.942,0.251c0.866,0.167,1.619,0.358,2.258,0.57
		c0.639,0.213,1.164,0.441,1.574,0.685c0.411,0.244,0.722,0.426,0.935,0.547l-1.459,4.471c-0.669-0.425-1.491-0.805-2.464-1.14 c-0.974-0.334-1.977-0.501-3.01-0.501c-1.339,0-2.463,0.243-3.376,0.729c-0.912,0.487-1.665,1.163-2.258,2.03 c-0.593,0.867-1.019,1.901-1.277,3.102c-0.259,1.202-0.388,2.532-0.388,3.992C166.214,121.581,166.746,124.067,167.811,125.664z"/>
</g>
</svg>
