<svg xmlns="http://www.w3.org/2000/svg" viewBox="20 20 321 321">
<g fill="#000">
<path d="m268.404,142.417c4.377,32.766 8.754,65.531 13.131,98.296 1.667-1.667 3.333-3.333 5-5-32.765-4.378-65.53-8.755-98.295-13.133 1.179,2.845 2.357,5.69 3.535,8.535 28.389-28.388 56.776-56.775 85.164-85.163 4.564-4.564-2.507-11.635-7.07-7.071-28.389,28.388-56.776,56.775-85.164,85.164-3.399,3.398-.542,7.99 3.535,8.535 32.765,4.378 65.53,8.755 98.295,13.133 2.463,.329 5.329-2.537 5-5-4.377-32.766-8.754-65.531-13.131-98.296-.841-6.295-10.851-6.377-10-0z"/>
<path d="m232.703,153.165c-1.107,.788-4.399-2.874-1.76-.234 1.038,1.038 2.076,2.076 3.114,3.114 2.835,2.835 5.67,5.669 8.505,8.504 .867,.867 1.734,1.734 2.602,2.602 1.841,1.84 .349-3.916-.281-3.285-1.276,1.276-2.552,2.552-3.828,3.828-10.086,10.086-20.173,20.173-30.26,30.26-.571,.571-1.143,1.144-1.715,1.715-1.756,1.756 .9-1.189 3.353,1.262-2.271-2.271-4.54-4.54-6.811-6.81-1.015-1.016-2.03-2.031-3.045-3.046-1.57-1.57 .301,3.483 1.13,2.351 1.054-1.439 2.107-2.878 3.161-4.317 8.464-11.561 16.929-23.122 25.393-34.683 .745-1.018 1.491-2.036 2.236-3.055 3.816-5.212-4.867-10.192-8.635-5.047-7.16,9.779-14.319,19.558-21.479,29.337-3.07,4.194-6.141,8.387-9.211,12.581-4.895,6.687 1.658,11.229 6.06,15.63 4.486,4.486 9.069,8.719 14.92,2.868 4.041-4.042 8.083-8.083 12.124-12.124 5.583-5.583 11.166-11.166 16.748-16.749 2.53-2.53 8.285-6.616 9.16-10.401 1.503-6.496-5.663-11.102-9.738-15.177-4.409-4.408-9.864-12.685-16.789-7.76-5.209,3.705-.221,12.383 5.046,8.636z"/>
<path d="m179.651,130.118c-.519,1.134-5.136-.312-2.035,.519 1.162,.312 2.324,.623 3.486,.934 3.812,1.021 7.623,2.043 11.435,3.064 3.318,.889 6.637,1.778 9.955,2.667 .95,.254 1.899,.509 2.849,.764 2.428,.65-.749-5.817-1.623-3.835-5.317,12.061-10.635,24.122-15.952,36.184-1.669,3.784-3.337,7.568-5.006,11.353 .463-1.049 4.759,.21 2.698-.343-.577-.154-1.155-.31-1.733-.464-1.723-.462-3.446-.924-5.169-1.385-1.639-.439-3.278-.879-4.917-1.318-3.583-.96 1.16,.221 1.045,1.272 1.373-12.619 2.746-25.237 4.119-37.856 .51-4.693 1.021-9.386 1.532-14.079 .697-6.407-9.31-6.339-10,0-1.311,12.049-2.622,24.097-3.933,36.146-.562,5.167-1.124,10.333-1.687,15.5-.893,8.209 7.039,8.866 13.026,10.471 5.997,1.607 11.07,2.962 14.121-3.959 2.373-5.382 4.746-10.764 7.119-16.146 3.176-7.204 6.352-14.407 9.527-21.611 1.815-4.117 4.385-8.43 4.812-12.949 .736-7.806-15.122-9.25-20.016-10.561-6.383-1.71-18.455-7.794-22.288,.586-2.662,5.819 5.956,10.905 8.635,5.046z"/>
<path d="m121.248,134.866c.121,1.272-4.506,2.299-1.433,1.475 1.162-.312 2.324-.623 3.486-.934 3.812-1.021 7.624-2.042 11.435-3.064 3.318-.889 6.637-1.778 9.955-2.667 .95-.254 1.899-.509 2.849-.763 2.444-.655-3.628-4.626-3.393-2.464 1.426,13.104 2.851,26.208 4.277,39.313 .447,4.111 .895,8.223 1.342,12.334-.127-1.168 4.134-2.2 2.095-1.654-.578,.155-1.156,.31-1.733,.464-1.723,.462-3.446,.923-5.169,1.385-1.639,.439-3.278,.878-4.917,1.317-3.614,.968 1.185-.401 1.598,.537-5.12-11.615-10.24-23.229-15.36-34.844-1.904-4.32-3.809-8.64-5.713-12.959-2.596-5.89-11.21-.796-8.635,5.047 4.889,11.09 9.778,22.18 14.667,33.271 2.096,4.756 4.193,9.512 6.29,14.268 3.324,7.54 10.6,4.113 16.574,2.513 6.002-1.608 10.998-2.977 10.179-10.498-.636-5.848-1.272-11.695-1.908-17.542-.852-7.827-1.703-15.653-2.555-23.479-.488-4.485-.426-9.48-2.32-13.616-3.248-7.092-17.799-.402-22.67,.903-6.405,1.716-19.813,2.452-18.938,11.659 .602,6.36 10.607,6.419 9.997-.002z"/>
<path d="m80.142,162.566c.788,1.107-2.874,4.4-.234,1.76 1.038-1.038 2.076-2.076 3.114-3.114 2.834-2.835 5.669-5.669 8.504-8.504 .867-.868 1.734-1.735 2.602-2.602 1.936-1.936-4.69-1.524-4.094-.71 1.054,1.439 2.107,2.878 3.161,4.317 8.464,11.561 16.928,23.121 25.391,34.682 .741,1.012 1.481,2.023 2.222,3.035-.776-1.061 2.87-4.362 .24-1.732-1.426,1.426-2.852,2.852-4.277,4.277-1.2,1.2-2.4,2.4-3.6,3.601-2.762,2.762 .982-1.227 2.694,.485-1.156-1.155-2.312-2.312-3.467-3.467-10.109-10.11-20.218-20.22-30.328-30.33-.903-.903-1.806-1.806-2.709-2.709-4.563-4.564-11.635,2.507-7.071,7.071 8.606,8.607 17.213,17.213 25.819,25.821 3.533,3.532 7.065,7.065 10.597,10.598 6.494,6.495 12.021-.883 16.486-5.349 4.408-4.408 8.064-8.104 3.58-14.229-3.475-4.746-6.95-9.492-10.424-14.238-4.65-6.352-9.301-12.704-13.951-19.057-2.644-3.611-5.076-7.964-8.759-10.582-5.926-4.211-12.937,5.801-16.371,9.235-4.408,4.408-12.686,9.864-7.759,16.788 3.703,5.207 12.382,.22 8.634-5.047z"/>
</g>
</svg>
