<svg xmlns="http://www.w3.org/2000/svg" viewBox="20 20 321 321">
<g fill="#000" transform="translate(-10,0)">
<path d="m 74.914,142.417 c -4.377,32.766 -8.754,65.531 -13.131,98.296 -0.329,2.463 2.537,5.329 5,5 32.765,-4.378 65.53,-8.755 98.295,-13.133 4.077,-0.545 6.935,-5.137 3.536,-8.535 -28.388,-28.389 -56.776,-56.776 -85.165,-85.164 -4.564,-4.563 -11.635,2.507 -7.071,7.071 28.388,28.388 56.776,56.775 85.165,85.163 1.179,-2.845 2.357,-5.69 3.536,-8.535 -32.765,4.378 -65.53,8.755 -98.295,13.133 1.667,1.667 3.333,3.333 5,5 4.377,-32.766 8.754,-65.531 13.131,-98.296 0.851,-6.377 -9.161,-6.295 -10.001,0 z" />
<path d="m 125.662,144.53 c -6.925,-4.925 -12.38,3.352 -16.789,7.76 -3.434,3.434 -13.446,10.445 -9.235,16.371 2.591,3.646 6.081,6.631 9.234,9.784 5.613,5.614 11.227,11.227 16.84,16.841 3.879,3.879 7.759,7.759 11.638,11.638 6.117,6.117 10.933,0.752 15.409,-3.725 4.408,-4.408 10.063,-8.569 5.26,-15.129 -3.211,-4.387 -6.423,-8.772 -9.634,-13.159 -6.977,-9.529 -13.953,-19.058 -20.93,-28.587 -3.767,-5.146 -12.451,-0.166 -8.635,5.047 7.16,9.779 14.319,19.559 21.479,29.338 3.07,4.193 6.141,8.387 9.211,12.581 1,1.365 2.495,-3.479 1.493,-2.478 -0.892,0.893 -1.784,1.784 -2.677,2.677 -2.425,2.426 -4.851,4.851 -7.277,7.276 -0.871,0.871 4.929,0.646 3.371,-0.912 -0.515,-0.516 -1.03,-1.03 -1.545,-1.546 -2.094,-2.094 -4.187,-4.187 -6.28,-6.28 -5.637,-5.637 -11.273,-11.273 -16.91,-16.91 -3.71,-3.71 -7.42,-7.42 -11.129,-11.13 -1.382,-1.382 -2.135,4.896 -0.65,3.412 0.769,-0.768 1.537,-1.537 2.305,-2.305 2.806,-2.806 5.611,-5.611 8.417,-8.417 1.11,-1.11 2.22,-2.22 3.33,-3.33 0.363,-0.363 0.726,-0.726 1.089,-1.088 1.671,-1.671 -1.429,1.62 -2.432,0.906 5.268,3.746 10.255,-4.932 5.047,-8.635 z" />
<path d="m 182.302,125.071 c -3.337,-7.299 -11.029,-3.603 -16.765,-2.066 -6.63,1.777 -13.26,3.553 -19.89,5.33 -6.432,1.724 -6.099,7.724 -3.908,12.695 2.611,5.921 5.221,11.843 7.832,17.764 3.092,7.014 6.185,14.028 9.277,21.042 1.736,3.936 3.445,10.681 8.351,11.409 5.21,0.772 11.858,-2.466 16.862,-3.807 6.295,-1.687 4.423,-9.3 3.911,-14.002 -1.663,-15.281 -3.325,-30.561 -4.988,-45.842 -0.689,-6.339 -10.697,-6.407 -10,0 1.312,12.049 2.622,24.097 3.934,36.146 0.562,5.167 1.124,10.333 1.687,15.5 0.181,1.665 3.845,-1.726 2.495,-1.364 -1.219,0.327 -2.438,0.653 -3.656,0.98 -3.313,0.888 -6.627,1.776 -9.941,2.665 3.033,-0.813 3.565,1.398 2.128,-1.862 -1.133,-2.569 -2.265,-5.138 -3.398,-7.707 -3.195,-7.247 -6.39,-14.495 -9.585,-21.742 -2.285,-5.183 -4.57,-10.366 -6.855,-15.549 -1.157,-2.625 1.273,2.577 -2.382,3.556 0.579,-0.155 1.159,-0.31 1.738,-0.465 3.254,-0.872 6.509,-1.744 9.764,-2.616 3.93,-1.053 7.861,-2.106 11.791,-3.16 1.517,-0.406 3.033,-0.813 4.55,-1.219 3.728,-0.999 -1.041,0.55 -1.585,-0.64 2.677,5.86 11.294,0.774 8.633,-5.046 z" />
<path d="m 242.07,134.866 c 0.76,-8.011 -7.664,-8.638 -13.416,-10.179 -6.63,-1.776 -13.26,-3.553 -19.89,-5.33 -6.458,-1.73 -9.208,3.544 -9.801,8.995 -0.7,6.434 -1.399,12.867 -2.1,19.3 -0.829,7.621 -1.658,15.241 -2.486,22.862 -0.47,4.311 -2.361,11.002 1.554,14.107 4.098,3.251 11.44,3.761 16.409,5.092 6.357,1.703 8.517,-5.751 10.446,-10.128 6.2,-14.065 12.4,-28.13 18.601,-42.195 2.576,-5.843 -6.038,-10.937 -8.635,-5.047 -4.889,11.09 -9.778,22.18 -14.667,33.27 -2.097,4.756 -4.192,9.512 -6.289,14.268 -0.682,1.544 4.269,0.476 2.898,0.108 -1.219,-0.327 -2.438,-0.653 -3.656,-0.979 -3.313,-0.888 -6.626,-1.775 -9.939,-2.664 2.964,0.794 2.317,3.002 2.702,-0.54 0.304,-2.791 0.607,-5.582 0.911,-8.373 0.856,-7.874 1.713,-15.748 2.569,-23.622 0.612,-5.631 1.226,-11.262 1.838,-16.894 0.311,-2.855 -0.181,2.842 -3.909,1.843 0.579,0.155 1.158,0.311 1.737,0.466 3.255,0.872 6.509,1.744 9.764,2.616 3.931,1.053 7.86,2.106 11.791,3.159 1.517,0.406 3.033,0.813 4.55,1.219 3.694,0.99 -1.109,-0.02 -0.982,-1.354 -0.608,6.421 9.397,6.362 10,0 z" />
<path d="m 281.812,167.613 c 4.923,-6.926 -3.352,-12.379 -7.76,-16.788 -3.435,-3.434 -10.445,-13.447 -16.371,-9.235 -3.683,2.617 -6.114,6.97 -8.758,10.582 -4.65,6.353 -9.301,12.705 -13.951,19.057 -3.475,4.746 -6.949,9.492 -10.424,14.238 -4.484,6.126 -0.829,9.821 3.579,14.229 4.466,4.466 9.992,11.844 16.486,5.349 3.533,-3.532 7.065,-7.065 10.598,-10.598 8.606,-8.607 17.213,-17.214 25.818,-25.821 4.563,-4.564 -2.507,-11.635 -7.07,-7.071 -8.606,8.607 -17.213,17.214 -25.819,25.821 -3.532,3.533 -7.064,7.065 -10.597,10.599 0.125,-0.126 5.217,2.213 3.031,0.027 -1.117,-1.117 -2.235,-2.235 -3.354,-3.354 -1.303,-1.303 -2.604,-2.605 -3.907,-3.908 -0.49,-0.489 -0.979,-0.979 -1.469,-1.469 -2.029,-2.029 1.394,1.138 0.652,2.179 7.022,-9.873 14.321,-19.561 21.478,-29.337 3.07,-4.194 6.141,-8.387 9.211,-12.581 1.299,-1.774 -5.855,-1.286 -4.243,0.327 0.769,0.769 1.537,1.537 2.306,2.305 2.806,2.806 5.61,5.611 8.416,8.417 1.11,1.11 2.22,2.22 3.33,3.33 0.362,0.363 0.726,0.726 1.088,1.089 1.672,1.671 -1.619,-1.429 -0.905,-2.433 -3.745,5.268 4.932,10.255 8.635,5.046 z" />
<path d="m 296.404,142.417 c 4.377,32.766 8.754,65.531 13.131,98.296 1.667,-1.667 3.333,-3.333 5,-5 -32.765,-4.378 -65.53,-8.755 -98.295,-13.133 1.179,2.845 2.357,5.69 3.535,8.535 28.389,-28.388 56.776,-56.775 85.164,-85.163 4.564,-4.564 -2.507,-11.635 -7.07,-7.071 -28.389,28.388 -56.776,56.775 -85.164,85.164 -3.399,3.398 -0.542,7.99 3.535,8.535 32.765,4.378 65.53,8.755 98.295,13.133 2.463,0.329 5.329,-2.537 5,-5 -4.377,-32.766 -8.754,-65.531 -13.131,-98.296 -0.841,-6.295 -10.851,-6.377 -10,0 z" />
</g>
</svg>
