<svg xmlns="http://www.w3.org/2000/svg" viewBox="20 20 321 321">
<g fill="none"  stroke="#000" stroke-width="10">
<path d="m93.174,279.236c0,4.164-3.378,7.541-7.541,7.541h-3.758c-4.165,0-7.542-3.377-7.542-7.541v-196.903c0-4.166 3.377-7.542 7.542-7.542h3.758c4.163,0 7.541,3.376 7.541,7.542v196.903z"/>
<path d="m222.396,279.237c0,4.164-3.379,7.541-7.541,7.541h-3.759c-4.165,0-7.542-3.377-7.542-7.541v-196.904c0-4.166 3.377-7.542 7.542-7.542h3.759c4.162,0 7.541,3.376 7.541,7.542v196.904z"/>
<path d="m157.785,278.952c0,4.164-3.378,7.541-7.541,7.541h-3.758c-4.165,0-7.542-3.377-7.542-7.541v-196.904c0-4.166 3.377-7.542 7.542-7.542h3.758c4.163,0 7.541,3.376 7.541,7.542v196.904z"/>
<path d="m287.008,279.236c0,4.164-3.379,7.541-7.541,7.541h-3.759c-4.165,0-7.542-3.377-7.542-7.541v-196.903c0-4.166 3.377-7.542 7.542-7.542h3.759c4.162,0 7.541,3.376 7.541,7.542v196.903z"/>
</g>
</svg>
