<svg xmlns="http://www.w3.org/2000/svg" viewBox="20 20 321 321">
<g fill="#000">
<path d="m177.977,78.901c35.59,26.992 71.18,53.984 106.77,80.976 .011,.008 .021,.016 .031,.024 .841-3.106 1.683-6.211 2.523-9.317-35.519,0-71.038,0-106.557,0-6.449,0-6.449,10 0,10 35.519,0 71.038,0 106.557,0 5.402,0 6.252-6.489 2.523-9.317-35.59-26.992-71.18-53.984-106.77-80.976-.011-.008-.021-.016-.031-.024-5.141-3.9-10.114,4.791-5.046,8.634z"/>
<path d="M287.107,155.583 180.833,74.584 74.56,155.583z"/>
<path d="m289.631,151.266c-35.422-26.998-70.844-53.996-106.266-80.994-.003-.002-.006-.004-.008-.006-1.254-.956-3.794-.956-5.047,0-35.422,26.998-70.844,53.996-106.266,80.994-.003,.002-.005,.004-.008,.006-3.717,2.833-2.888,9.317 2.523,9.317 48.627,0 97.254,0 145.882,0 22.222,0 44.444,0 66.666,0 6.448,0 6.448-10 0-10-48.627,0-97.254,0-145.881,0-22.222,0-44.444,0-66.667,0 .841,3.106 1.683,6.211 2.523,9.317 35.422-26.998 70.844-53.996 106.267-80.994 .002-.002 .005-.004 .008-.006-1.683,0-3.365,0-5.047,0 35.421,26.998 70.844,53.996 106.266,80.994 .002,.002 .005,.004 .008,.006 5.131,3.912 10.104-4.78 5.047-8.634z"/>
<path d="m263.679,280.616c-.087,.557 1.509,.468-.29,.468-1.179,0-2.358,0-3.538,0-4.208,0-8.417,0-12.625,0-13.748,0-27.495,0-41.243,0-30.299,0-60.599,0-90.898,0-5.97,0-11.939,0-17.91,0 1.289,0 .992,1.503 .992-.631 0-1.555 0-3.109 0-4.664 0-5.338 0-10.676 0-16.015 0-29.691 0-59.384 0-89.076 0-3.376 0-6.752 0-10.129 0-1.542-.106,.014-.874,.014 .691,0 1.382,0 2.073,0 9.068,0 18.137,0 27.205,0 31.417,0 62.833,0 94.25,0 11.768,0 23.534,0 35.301,0 2.583,0 5.166,0 7.749,0 1.35,0-.37-.523-.37-.692 0,.922 0,1.844 0,2.766 0,27.49 0,54.981 0,82.472 0,12.271 0,24.544 0,36.815 0,6.448 10,6.448 10,0 0-23.021 0-46.042 0-69.063 0-14.061 0-28.122 0-42.183 0-7.317 1.835-20.115-9.196-20.115-50.779,0-101.558,0-152.336,0-5.911,0-14.248-1.429-19.687,1.481-6.598,3.53-4.114,18.674-4.114,24.562 0,29.939 0,59.878 0,89.818 0,6.114-2.59,22.748 6.407,24.25 6.053,1.011 12.502,.39 18.611,.39 29.969,0 59.938,0 89.908,0 15.334,0 30.669,0 46.003,0 7.599,0 22.583,2.726 24.226-7.81 .982-6.306-8.653-9.014-9.644-2.658z"/>
<path  stroke="#000" stroke-linejoin="round" stroke-width="7" d="m104.18,166.167h153.5v109h-153.5z"/>
</g>
</svg>
