<svg xmlns="http://www.w3.org/2000/svg" viewBox="20 20 321 321">
<path fill="#000" d="m114.972,167.153c-1.553-.644-.485-10.813-.485-12.465 0-8.001 0-16.001 0-24.002 0-5.406 0-10.812 0-16.218 0-1.478 7.818-.682 9.081-.682 13.966,0 27.932,0 41.897,0 .634,0 1.938-.357 1.938,.47 0,1.931 0,3.863 0,5.794 0,7.461 0,14.922 0,22.383 0,7.571 0,15.142 0,22.713 0,1.226 .4,1.953-.932,1.953-2.716,0-5.433,0-8.149,0-14.583,0-29.167,0-43.75,0-1.935,0-1.935,3 0,3 12.019,0 24.038,0 36.056,0 5.366,0 10.731,0 16.097,0 3.922,0 3.678-3.461 3.678-6.315 0-14.351 0-28.702 0-43.053 0-3.521 1.174-8.294-2.687-9.892-.827-.342-2.267-.054-3.116-.054-2.892,0-5.784,0-8.676,0-11.28,0-22.56,0-33.84,0-2.504,0-5.008,0-7.512,0-3.31,0-3.086,3.564-3.086,5.823 0,10.883 0,21.766 0,32.649 0,4.842 0,9.684 0,14.526 0,2.816-.331,5.01 2.687,6.261 1.788,.743 2.559-2.161 .799-2.891z"/>
<path fill="none"  stroke="#000" stroke-width="10" d="M81,286.844c-3.302,0-5.979-2.678-5.979-5.979   V80.564c0-3.302,2.678-5.979,5.979-5.979h198.807c3.3,0,5.978,2.677,5.978,5.979v200.301c0,3.301-2.678,5.979-5.978,5.979H81z"/>
<g fill="#000">
<path d="m194.258,167.153c-1.553-.644-.484-10.813-.484-12.465 0-8.001 0-16.001 0-24.002 0-5.406 0-10.812 0-16.218 0-1.478 7.818-.682 9.081-.682 13.967,0 27.933,0 41.898,0 .635,0 1.938-.357 1.938,.47 0,1.931 0,3.863 0,5.794 0,7.461 0,14.922 0,22.383 0,7.571 0,15.142 0,22.713 0,1.226 .4,1.953-.931,1.953-2.717,0-5.434,0-8.149,0-14.584,0-29.167,0-43.751,0-1.935,0-1.935,3 0,3 12.019,0 24.038,0 36.057,0 5.366,0 10.731,0 16.097,0 3.922,0 3.678-3.461 3.678-6.315 0-14.351 0-28.702 0-43.053 0-3.521 1.174-8.293-2.687-9.892-.827-.343-2.267-.054-3.116-.054-2.892,0-5.783,0-8.676,0-11.28,0-22.56,0-33.84,0-2.505,0-5.009,0-7.513,0-3.31,0-3.086,3.564-3.086,5.823 0,10.883 0,21.766 0,32.649 0,4.842 0,9.684 0,14.526 0,2.816-.331,5.01 2.688,6.261 1.786,.742 2.557-2.162 .796-2.891z"/>
<path d="m115.01,246.941c-1.553-.645-.485-10.813-.485-12.466 0-8 0-16.001 0-24.001 0-5.406 0-10.812 0-16.218 0-1.479 7.817-.683 9.081-.683 13.965,0 27.931,0 41.896,0 .635,0 1.939-.357 1.939,.472 0,1.931 0,3.862 0,5.793 0,7.461 0,14.922 0,22.383 0,7.571 0,15.142 0,22.713 0,1.227 .4,1.953-.932,1.953-2.716,0-5.433,0-8.149,0-14.583,0-29.166,0-43.749,0-1.935,0-1.935,3 0,3 12.019,0 24.037,0 36.056,0 5.365,0 10.731,0 16.096,0 3.922,0 3.679-3.461 3.679-6.315 0-14.351 0-28.701 0-43.052 0-3.521 1.174-8.295-2.688-9.893-.828-.343-2.267-.054-3.116-.054-2.892,0-5.784,0-8.675,0-11.28,0-22.56,0-33.839,0-2.504,0-5.008,0-7.512,0-3.31,0-3.086,3.564-3.086,5.823 0,10.884 0,21.767 0,32.649 0,4.842 0,9.684 0,14.525 0,2.816-.331,5.01 2.687,6.262 1.787,.743 2.558-2.16 .797-2.891z"/>
<path d="m193.231,246.941c-1.553-.645-.484-10.813-.484-12.466 0-8 0-16.001 0-24.001 0-5.406 0-10.812 0-16.218 0-1.479 7.817-.683 9.081-.683 13.966,0 27.931,0 41.896,0 .635,0 1.939-.357 1.939,.472 0,1.931 0,3.862 0,5.793 0,7.461 0,14.922 0,22.383 0,7.571 0,15.142 0,22.713 0,1.227 .399,1.953-.933,1.953-2.717,0-5.433,0-8.149,0-14.583,0-29.166,0-43.749,0-1.935,0-1.935,3 0,3 12.019,0 24.037,0 36.056,0 5.365,0 10.73,0 16.096,0 3.923,0 3.68-3.461 3.68-6.315 0-14.351 0-28.701 0-43.052 0-3.521 1.174-8.296-2.688-9.893-.827-.343-2.267-.054-3.116-.054-2.892,0-5.783,0-8.675,0-11.28,0-22.56,0-33.84,0-2.504,0-5.008,0-7.512,0-3.31,0-3.086,3.565-3.086,5.823 0,10.884 0,21.767 0,32.649 0,4.842 0,9.684 0,14.525 0,2.816-.331,5.01 2.688,6.262 1.786,.744 2.557-2.16 .796-2.891z"/>
</g>
</svg>
