<svg xmlns="http://www.w3.org/2000/svg" viewBox="20 20 321 321">
<g fill="#000">
<path d="m282.091,248.793c-.342,19.011-15.57,33.223-34.364,33.223-9.349,0-18.696,0-28.045,0-30.382,0-60.764,0-91.146,0-8.193,0-17.079,.821-25.046-1.37-15.908-4.376-23.746-19.357-23.746-34.84 0-26.94 0-53.881 0-80.822 0-13.63 0-27.261 0-40.891 0-10.286-.432-19.816 5.218-29.091 5.9-9.688 16.872-15.134 28.005-15.334 1.873-.034 3.75,0 5.623,0 11.993,0 23.985,0 35.978,0 28.948,0 57.895,0 86.843,0 2.435,0 4.869,0 7.304,0 9.692,0 18.423,4.118 24.992,11.149 8.259,8.838 8.384,19.892 8.384,31.057 0,42.305 0,84.612 0,126.919 0,6.448 10,6.448 10,0 0-45.25 0-90.499 0-135.749 0-21.074-15.582-39.412-36.368-42.802-7.717-1.259-15.997-.575-23.774-.575-30.484,0-60.969,0-91.454,0-8.919,0-17.838,0-26.757,0-19.139,0-35.525,11.826-41.866,29.812-2.981,8.458-2.127,18.187-2.127,27.037 0,14.13 0,28.26 0,42.39 0,26.019 0,52.037 0,78.056 0,17.04 8.363,32.442 23.721,40.403 9.584,4.968 19.753,4.651 30.13,4.651 29.716,0 59.432,0 89.148,0 10.936,0 21.872,0 32.808,0 15.528,0 28.915-5.53 38.481-18.126 5.414-7.128 7.898-16.254 8.058-25.097 .116-6.452-9.884-6.441-10-0z"/>
<path d="m131.813,180.303c0-25.812 4.252-45.54 12.76-59.18 8.504-13.64 20.604-20.46 36.3-20.46 15.545,0 27.609,6.82 36.189,20.46 8.58,13.64 12.871,33.368 12.871,59.18 0,25.668-4.291,45.32-12.871,58.96s-20.645,20.46-36.189,20.46c-15.548,0-27.61-6.82-36.19-20.46s-12.87-33.292-12.87-58.96zm82.5,0c0-8.8-.549-17.194-1.649-25.19-1.101-7.992-2.97-15.07-5.61-21.23-2.64-6.16-6.088-11.072-10.34-14.74-4.256-3.665-9.535-5.5-15.84-5.5-6.456,0-11.808,1.835-16.06,5.5-4.255,3.667-7.666,8.58-10.23,14.74-2.568,6.16-4.4,13.238-5.5,21.23-1.1,7.996-1.65,16.39-1.65,25.19 0,8.801 .55,17.197 1.65,25.189 1.1,7.996 2.932,15.036 5.5,21.121 2.564,6.088 5.975,10.965 10.23,14.629 4.252,3.668 9.604,5.5 16.06,5.5 6.305,0 11.584-1.832 15.84-5.5 4.252-3.664 7.7-8.541 10.34-14.629 2.641-6.085 4.51-13.125 5.61-21.121 1.1-7.992 1.649-16.388 1.649-25.189z"/>
</g>
</svg>
