<svg xmlns="http://www.w3.org/2000/svg" viewBox="20 20 321 321">
<g fill="#000">
<path d="m282.091,248.793c-.342,19.011-15.57,33.223-34.364,33.223-9.349,0-18.696,0-28.045,0-30.382,0-60.764,0-91.146,0-8.193,0-17.079,.821-25.046-1.37-15.908-4.376-23.746-19.357-23.746-34.84 0-26.94 0-53.881 0-80.822 0-13.63 0-27.261 0-40.891 0-10.286-.432-19.816 5.218-29.091 5.9-9.688 16.872-15.134 28.005-15.334 1.873-.034 3.75,0 5.623,0 11.993,0 23.985,0 35.978,0 28.948,0 57.895,0 86.843,0 2.435,0 4.869,0 7.304,0 9.692,0 18.423,4.118 24.992,11.149 8.259,8.838 8.384,19.892 8.384,31.057 0,42.305 0,84.612 0,126.919 0,6.448 10,6.448 10,0 0-45.25 0-90.499 0-135.749 0-21.074-15.582-39.412-36.368-42.802-7.717-1.259-15.997-.575-23.774-.575-30.484,0-60.969,0-91.454,0-8.919,0-17.838,0-26.757,0-19.139,0-35.525,11.826-41.866,29.812-2.981,8.458-2.127,18.187-2.127,27.037 0,14.13 0,28.26 0,42.39 0,26.019 0,52.037 0,78.056 0,17.04 8.363,32.442 23.721,40.403 9.584,4.968 19.753,4.651 30.13,4.651 29.716,0 59.432,0 89.148,0 10.936,0 21.872,0 32.808,0 15.528,0 28.915-5.53 38.481-18.126 5.414-7.128 7.898-16.254 8.058-25.097 .116-6.452-9.884-6.441-10-0z"/>
<path d="m171.413,246.523c7.332,0 13.454-.843 18.37-2.531 4.912-1.684 8.834-3.994 11.77-6.93 2.933-2.932 5.022-6.342 6.271-10.229 1.244-3.885 1.87-8.103 1.87-12.65 0-5.864-.956-11.144-2.86-15.84-1.907-4.692-5.28-8.652-10.12-11.88-4.84-3.225-11.367-5.682-19.58-7.37-8.215-1.684-18.627-2.53-31.24-2.53 .88-7.48 1.612-14.334 2.2-20.57 .584-6.232 1.1-12.244 1.54-18.04 .44-5.792 .77-11.44 .99-16.94 .22-5.5 .402-11.182 .55-17.05h68.64v12.54h-56.1c-.147,2.788-.368,6.38-.66,10.78-.296,4.4-.588,8.91-.88,13.53-.295,4.62-.66,9.058-1.1,13.31-.44,4.255-.808,7.627-1.1,10.12 11.292,.296 21.044,1.688 29.259,4.18 8.213,2.496 14.961,5.868 20.24,10.12 5.28,4.256 9.203,9.388 11.771,15.4 2.564,6.016 3.85,12.688 3.85,20.02 0,6.455-1.065,12.468-3.19,18.04-2.127,5.575-5.389,10.415-9.789,14.521-4.4,4.107-9.977,7.335-16.721,9.68-6.748,2.344-14.74,3.52-23.979,3.52-4.696,0-9.058-.33-13.09-.99-4.036-.66-7.628-1.43-10.78-2.31-3.156-.88-5.83-1.76-8.03-2.64-2.2-.881-3.816-1.612-4.84-2.2l3.74-12.761c.88,.588 2.382,1.32 4.51,2.201 2.125,.879 4.62,1.725 7.48,2.529 2.86,.809 6.084,1.506 9.68,2.09 3.59,.587 7.368,.88 11.328,.88z"/>
</g>
</svg>
