<svg xmlns="http://www.w3.org/2000/svg" viewBox="20 20 321 321">
<g fill="#000">
<path d="m276.641,145.31c-.221,21.792-11.693,41.431-30.525,52.381-18.99,11.043-42.865,9.912-61.414-1.359-18.547-11.269-28.828-32.3-28.178-53.699 .657-21.622 13.938-40.85 32.767-50.842 18.554-9.847 41.418-8.146 59.116,2.608 17.629,10.71 28.028,30.501 28.234,50.911 .099,9.68 15.102,9.775 15.004,.108-.233-23.005-10.628-44.971-28.857-59.156-18.623-14.491-42.888-19.306-65.713-13.433-21.803,5.609-40.362,21.924-49.293,42.477-9.432,21.706-7.966,46.575 3.507,67.216 16.491,29.668 52.277,43.731 84.745,35.378 32.649-8.399 55.274-39.191 55.611-72.481 .097-9.692-14.907-9.768-15.004-.109z"/>
<path d="m174.093,198.432c31.841-31.841 63.682-63.682 95.523-95.522 .021-.021 .041-.042 .062-.063 6.836-6.835-3.813-17.403-10.665-10.551-31.841,31.841-63.682,63.682-95.522,95.522-.021,.021-.042,.042-.062,.063-6.836,6.835 3.812,17.403 10.664,10.551z"/>
</g>
<path fill="none"  stroke="#000" stroke-width="10" d="m162.056,105.384h-81.783c-3.05,0-5.522,2.473-5.522,5.522v169.792c0,3.049 2.473,5.521 5.522,5.521h129.759c3.05,0 5.521-2.472 5.521-5.521v-67.755"/>
<g fill="#000">
<path d="m96.126,137.359c18.03,0 36.06,0 54.089,0 6.449,0 6.449-10 0-10-18.03,0-36.06,0-54.089,0-6.449-0-6.449,10 0,10z"/>
<path d="m96.126,184.631c20.72,0 41.441,0 62.161,0 6.449,0 6.449-10 0-10-20.72,0-41.441,0-62.161,0-6.449,0-6.449,10 0,10z"/>
<path d="m96.126,160.995c17.891,0 35.781,0 53.671,0 6.449,0 6.449-10 0-10-17.891,0-35.781,0-53.671,0-6.449,0-6.449,10 0,10z"/>
<path d="m96.126,208.266c28.515,0 57.029,0 85.544,0 6.448,0 6.448-10 0-10-28.515,0-57.029,0-85.544,0-6.449,0-6.449,10-0,10z"/>
<path d="m96.697,231.9c32.304,0 64.607,0 96.911,0 6.448,0 6.448-10 0-10-32.304,0-64.607,0-96.911,0-6.449,0-6.449,10 0,10z"/>
<path d="m96.84,255.536c32.208,0 64.417,0 96.625,0 6.448,0 6.448-10 0-10-32.208,0-64.417,0-96.625,0-6.449,0-6.449,10 0,10z"/>
</g>
</svg>
