<svg xmlns="http://www.w3.org/2000/svg" viewBox="20 20 321 321">
<g fill="#000">
<path d="m79.56,255.227c11.275-21.844 22.55-43.688 33.825-65.531 1.692-3.278 4.35-7.221 4.455-10.983 .274-9.831-6.494-13.259-13.958-17.112-6.928-3.576-13.814-5.637-20.584-.172-1.865,1.505-2.945,4.354-4.022,6.441-1.875,3.632-3.749,7.263-5.624,10.895-.99,1.917-1.98,3.835-2.97,5.753-2.953,5.72 5.676,10.779 8.635,5.047 2.611-5.058 5.222-10.116 7.833-15.174 .97-1.878 1.793-4.281 3.22-5.891 1.575-1.778 4.642-.238 6.188,.56 2.837,1.465 13.755,4.814 11.064,10.027-1.536,2.976-3.072,5.951-4.608,8.927-10.696,20.723-21.392,41.444-32.088,62.167-2.954,5.718 5.675,10.778 8.634,5.046z"/>
<path d="m113.628,250.998c10.921-21.157 21.841-42.314 32.762-63.472 5.568-10.787 11.136-21.574 16.704-32.362 2.321-4.496 4.752-8.956 6.663-13.645 1.863-4.572 3.663-10.173 1.299-14.921-1.564-3.142-4.283-4.609-7.237-6.134-2.963-1.529-5.926-3.059-8.89-4.588-2.122-1.096-4.658-2.813-7.107-2.822-5.08-.018-7.665,2.996-9.741,7.019-4.906,9.505-9.813,19.011-14.719,28.516-9.977,19.329-19.954,38.657-29.931,57.986-2.953,5.72 5.676,10.779 8.635,5.047 11.248-21.79 22.495-43.581 33.743-65.372 4.057-7.859 8.114-15.719 12.17-23.578-.451,.874-2.232-.296-.022,.844 1.436,.742 2.873,1.483 4.309,2.224 2.972,1.534 5.944,3.068 8.917,4.603 3.898,2.013-4.106,14.703-5.611,17.618-16.86,32.663-33.719,65.326-50.579,97.989-2.952,5.721 5.677,10.78 8.635,5.048z"/>
<path d="m80.426,187.414c2.81-5.443 5.62-10.886 8.429-16.329 4.921-9.532-4.926-14.144-11.606-17.955-5.61-3.2-10.646,5.441-5.047,8.635 2.051,1.17 4.103,2.34 6.155,3.511 2.179,1.243 1.816,.854 .574,3.262-2.38,4.61-4.759,9.22-7.139,13.83-2.953,5.719 5.675,10.778 8.634,5.046z"/>
<path d="m125.885,289.254c4.964-7.764 9.927-15.527 14.891-23.291 2.991-4.679 5.981-9.356 8.972-14.034 2.485-3.887 5.09-7.861 3.864-12.785-1.613-6.477-6.569-9.581-11.577-13.291-6.675-4.945-16.583-6.374-22.142,.947-5.729,7.547-11.458,15.094-17.188,22.642-3.902,5.14 4.79,10.112 8.635,5.047 5.114-6.736 10.227-13.473 15.341-20.208 .643-.847 1.286-1.694 1.928-2.541 1.564-2.06 7.625,2.189 8.883,3.121 2.75,2.037 8.221,4.826 5.579,8.959-8.607,13.463-17.214,26.925-25.821,40.388-3.485,5.449 5.173,10.46 8.635,5.046z"/>
<path d="m154.14,91.016c2.014-.777 3.975-1.775 5.883-2.995 1.908-1.219 3.657-2.747 5.247-4.584h3.498v36.729h-4.929v-29.893c-.424,.389-.946,.795-1.563,1.219-.619,.424-1.29,.831-2.014,1.219-.725,.389-1.484,.76-2.279,1.113-.795,.354-1.563,.654-2.306,.901l-1.537-3.709z"/>
<path d="m223.727,92.817c0,1.272-.256,2.5-.768,3.684-.514,1.184-1.193,2.35-2.041,3.498-.848,1.148-1.802,2.279-2.861,3.392-1.061,1.113-2.121,2.199-3.181,3.259-.601,.602-1.298,1.308-2.093,2.12-.795,.813-1.547,1.661-2.253,2.544-.708,.884-1.299,1.731-1.776,2.544-.477,.813-.715,1.52-.715,2.12h16.907v4.187h-22.261c-.035-.212-.053-.424-.053-.636 0-.212 0-.406 0-.583 0-1.66 .273-3.206 .822-4.637 .547-1.431 1.262-2.783 2.146-4.055 .883-1.272 1.872-2.473 2.967-3.604 1.096-1.13 2.174-2.226 3.234-3.286 .883-.848 1.722-1.687 2.517-2.518 .796-.83 1.501-1.661 2.12-2.491 .617-.83 1.113-1.687 1.484-2.57 .371-.883 .557-1.819 .557-2.809 0-1.06-.168-1.961-.504-2.703-.336-.742-.787-1.36-1.352-1.855-.565-.494-1.229-.856-1.987-1.086-.761-.229-1.563-.345-2.411-.345-1.025,0-1.961,.142-2.81,.424-.849,.283-1.608,.609-2.278,.98-.672,.371-1.238,.76-1.697,1.166-.459,.407-.813,.715-1.06,.927l-2.438-3.498c.318-.353 .796-.786 1.432-1.298 .637-.512 1.396-.998 2.279-1.458 .883-.458 1.872-.848 2.968-1.166 1.095-.318 2.278-.477 3.551-.477 3.851,0 6.739,.893 8.665,2.677 1.927,1.786 2.89,4.303 2.89,7.553z"/>
<path d="m260.721,116.562c3.145,0 5.396-.618 6.757-1.855 1.36-1.236 2.04-2.897 2.04-4.982 0-1.342-.283-2.473-.848-3.392-.565-.918-1.307-1.651-2.226-2.2-.919-.547-1.987-.936-3.206-1.166-1.22-.229-2.465-.344-3.737-.344h-1.272v-4.028h1.75c.883,0 1.793-.088 2.729-.265 .937-.176 1.793-.495 2.571-.954 .776-.459 1.413-1.086 1.907-1.881 .495-.795 .742-1.793 .742-2.995 0-.989-.177-1.837-.529-2.544-.354-.707-.822-1.29-1.404-1.749-.584-.459-1.255-.786-2.015-.98-.761-.194-1.563-.292-2.411-.292-1.696,0-3.137,.248-4.32,.742-1.184,.495-2.182,1.007-2.994,1.537l-1.908-3.763c.424-.283 .963-.591 1.617-.928 .653-.335 1.387-.644 2.199-.927 .813-.283 1.688-.521 2.623-.716 .937-.194 1.917-.292 2.941-.292 1.943,0 3.622,.239 5.035,.716s2.579,1.148 3.498,2.014c.919,.866 1.607,1.891 2.067,3.074 .459,1.184 .688,2.464 .688,3.842 0,1.908-.548,3.543-1.643,4.903-1.096,1.36-2.42,2.394-3.975,3.1 .953,.283 1.872,.689 2.756,1.219 .883,.53 1.651,1.202 2.305,2.014 .654,.813 1.184,1.749 1.591,2.809 .405,1.06 .609,2.245 .609,3.551 0,1.59-.274,3.066-.821,4.425-.549,1.361-1.396,2.536-2.545,3.525s-2.588,1.767-4.318,2.332c-1.732,.565-3.781,.848-6.148,.848-.92,0-1.864-.071-2.836-.212-.972-.142-1.881-.318-2.729-.53-.849-.212-1.59-.424-2.227-.636-.636-.212-1.096-.388-1.378-.53l.954-4.293c.6,.283 1.598,.654 2.994,1.113 1.397,.46 3.102,.69 5.117,.69z"/>
<path d="m151.331,160.738c.671-1.554 1.59-3.365 2.756-5.432 1.166-2.067 2.482-4.195 3.949-6.387 1.465-2.19 3.038-4.346 4.717-6.466 1.678-2.12 3.366-4.028 5.062-5.724h4.717v23.32h4.346v4.028h-4.346v9.381h-4.77v-9.381h-16.43v-3.339zm16.428-18.179c-1.06,1.131-2.129,2.394-3.207,3.79-1.078,1.396-2.129,2.854-3.153,4.373-1.025,1.52-1.987,3.074-2.889,4.664-.901,1.59-1.705,3.146-2.411,4.664h11.66v-17.491z"/>
<path d="m209.523,150.88c5.334,.212 9.248,1.378 11.739,3.498s3.736,5 3.736,8.639c0,1.625-.274,3.127-.821,4.505-.549,1.378-1.378,2.562-2.491,3.551-1.112,.989-2.518,1.767-4.214,2.332-1.695,.565-3.709,.848-6.041,.848-.92,0-1.855-.071-2.81-.212-.954-.142-1.837-.318-2.649-.53-.814-.212-1.537-.424-2.174-.636-.636-.212-1.096-.388-1.378-.53l.954-4.293c.601,.283 1.581,.654 2.941,1.113 1.359,.459 3.029,.689 5.009,.689 1.59,0 2.923-.176 4.001-.53 1.078-.353 1.952-.83 2.624-1.431 .671-.601 1.157-1.298 1.458-2.094 .299-.795 .449-1.634 .449-2.517 0-1.343-.229-2.535-.688-3.578-.46-1.042-1.272-1.917-2.438-2.624-1.166-.707-2.721-1.246-4.664-1.617-1.943-.371-4.398-.556-7.366-.556 .212-1.731 .38-3.356 .503-4.876 .124-1.519 .238-3.003 .345-4.452 .106-1.448 .194-2.889 .265-4.319 .07-1.431 .141-2.942 .213-4.532h17.701v4.187h-13.408c-.036,.53-.089,1.246-.159,2.146-.071,.901-.142,1.837-.212,2.809-.071,.972-.142,1.917-.213,2.835-.071,.921-.141,1.645-.212,2.175z"/>
<path d="m252.081,158.724c0-3.568 .495-6.722 1.484-9.46 .989-2.738 2.394-5.043 4.214-6.917 1.818-1.873 4.027-3.294 6.625-4.267 2.596-.972 5.52-1.475 8.771-1.511l.371,4.134c-2.086,.036-3.984,.265-5.698,.689s-3.242,1.096-4.585,2.014c-1.343,.919-2.473,2.111-3.392,3.577-.919,1.467-1.608,3.278-2.067,5.433 .919-.424 1.952-.777 3.102-1.06 1.147-.282 2.34-.424 3.577-.424 2.084,0 3.851,.318 5.3,.954 1.448,.636 2.632,1.476 3.551,2.517 .918,1.043 1.581,2.245 1.988,3.604 .405,1.361 .609,2.783 .609,4.267 0,1.343-.23,2.721-.689,4.134-.459,1.414-1.158,2.703-2.094,3.869-.937,1.166-2.129,2.12-3.577,2.862-1.449,.742-3.163,1.113-5.142,1.113-4.027,0-7.094-1.378-9.195-4.134-2.102-2.755-3.153-6.553-3.153-11.394zm11.872-3.763c-1.237,0-2.385,.115-3.445,.345-1.06,.23-2.119,.575-3.18,1.033-.035,.389-.063,.787-.08,1.193s-.025,.804-.025,1.192c0,1.555 .105,3.021 .317,4.399s.591,2.589 1.14,3.63c.547,1.042 1.28,1.874 2.199,2.491 .918,.619 2.084,.927 3.498,.927 1.166,0 2.154-.247 2.969-.742 .813-.495 1.483-1.13 2.014-1.908 .529-.777 .909-1.617 1.139-2.518 .23-.901 .346-1.775 .346-2.624 0-2.402-.575-4.24-1.723-5.512-1.149-1.27-2.872-1.906-5.169-1.906z"/>
<path d="m157.85,226.75c.212-2.826 .715-5.803 1.51-8.93s1.775-6.166 2.941-9.116 2.446-5.688 3.843-8.216c1.396-2.525 2.764-4.584 4.107-6.174h-17.861v-4.293h23.373v4.081c-1.166,1.343-2.457,3.188-3.869,5.538-1.414,2.351-2.748,4.982-4.001,7.897-1.255,2.915-2.332,6.024-3.233,9.328-.901,3.304-1.458,6.599-1.67,9.884h-5.14z"/>
<path d="m225.953,217.211c0,1.483-.257,2.854-.769,4.107-.513,1.254-1.272,2.35-2.278,3.285-1.008,.938-2.271,1.662-3.79,2.174-1.52,.512-3.269,.768-5.247,.768-2.297,0-4.213-.326-5.75-.98-1.537-.652-2.766-1.475-3.684-2.464-.92-.989-1.573-2.075-1.961-3.26-.39-1.183-.584-2.306-.584-3.365 0-1.024 .168-2.005 .504-2.941s.777-1.811 1.325-2.624c.548-.813 1.183-1.545 1.907-2.199 .725-.653 1.492-1.227 2.307-1.723-3.464-1.979-5.194-4.893-5.194-8.744 0-1.344 .265-2.624 .795-3.844 .53-1.219 1.28-2.287 2.253-3.206 .971-.919 2.146-1.651 3.523-2.199 1.379-.548 2.916-.821 4.611-.821 1.979,0 3.675,.301 5.088,.9 1.413,.602 2.57,1.37 3.472,2.306 .901,.937 1.555,1.97 1.961,3.101 .405,1.131 .61,2.227 .61,3.286 0,1.024-.151,1.987-.451,2.888-.301,.902-.707,1.741-1.219,2.518-.513,.778-1.096,1.467-1.749,2.067-.654,.602-1.335,1.132-2.04,1.591 4.169,1.977 6.289,5.104 6.36,9.379zm-19.08,.317c0,.636 .114,1.299 .345,1.987 .229,.689 .626,1.325 1.192,1.908 .564,.583 1.289,1.069 2.173,1.457 .883,.39 1.995,.584 3.339,.584 1.201,0 2.253-.177 3.154-.53 .9-.353 1.633-.804 2.199-1.352 .564-.548 .988-1.175 1.271-1.882 .283-.706 .424-1.431 .424-2.173 0-1.13-.211-2.12-.636-2.968-.424-.848-1.033-1.59-1.829-2.227-.795-.635-1.748-1.174-2.861-1.616-1.113-.441-2.377-.821-3.789-1.14-1.59,.884-2.818,1.979-3.684,3.286-.866,1.31-1.298,2.865-1.298,4.666zm13.25-18.815c0-.529-.115-1.112-.344-1.748-.23-.637-.593-1.228-1.088-1.775-.494-.548-1.131-1.008-1.907-1.379-.778-.371-1.731-.557-2.862-.557s-2.094,.178-2.889,.531-1.439,.803-1.934,1.352c-.496,.547-.857,1.148-1.087,1.801-.23,.654-.345,1.299-.345,1.936 0,.777 .141,1.555 .424,2.332s.725,1.502 1.325,2.172c.601,.672 1.386,1.272 2.358,1.803 .972,.529 2.129,.953 3.472,1.271 1.483-.883 2.667-1.916 3.551-3.1 .884-1.184 1.326-2.731 1.326-4.639z"/>
<path d="m275.295,204.703c0,7.279-1.811,12.781-5.432,16.509-3.623,3.729-9.002,5.608-16.139,5.645l-.159-4.134c2.226,0 4.23-.213 6.015-.637s3.348-1.104 4.691-2.04c1.342-.936 2.465-2.146 3.365-3.63 .9-1.484 1.563-3.304 1.987-5.459-.919,.424-1.961,.768-3.127,1.033-1.166,.265-2.368,.397-3.604,.397-2.084,0-3.852-.31-5.299-.928-1.449-.618-2.633-1.448-3.552-2.491-.919-1.041-1.581-2.243-1.987-3.604-.406-1.359-.609-2.783-.609-4.267 0-1.308 .229-2.667 .689-4.081 .458-1.413 1.156-2.703 2.093-3.869s2.128-2.12 3.577-2.861c1.449-.742 3.162-1.113 5.142-1.113 2.014,0 3.79,.354 5.326,1.06 1.537,.708 2.827,1.731 3.869,3.074s1.829,2.978 2.358,4.902c.531,1.928 .796,4.092 .796,6.494zm-11.871,3.656c1.236,0 2.402-.114 3.498-.344 1.094-.23 2.154-.574 3.18-1.034 .034-.388 .053-.769 .053-1.14s0-.75 0-1.139c0-1.52-.105-2.977-.318-4.373-.212-1.396-.592-2.614-1.139-3.657-.549-1.042-1.281-1.872-2.2-2.491-.919-.617-2.085-.928-3.498-.928-1.166,0-2.155,.248-2.968,.742-.813,.496-1.484,1.123-2.014,1.882-.53,.761-.91,1.59-1.14,2.491-.23,.9-.345,1.775-.345,2.623 0,2.403 .574,4.232 1.723,5.486 1.147,1.255 2.87,1.882 5.168,1.882z"/>
<path d="m164.315,243.738c0,1.484-.132,2.906-.397,4.266-.265,1.361-.539,2.766-.821,4.214 1.272-.706 2.525-1.396 3.763-2.067 1.236-.67 2.579-1.254 4.028-1.748l.318-.106 1.484,4.452-.424,.158c-1.414,.531-2.828,.875-4.24,1.034-1.414,.159-2.862,.292-4.346,.397 1.166,.99 2.261,1.953 3.286,2.889 1.024,.937 1.979,2.023 2.862,3.26l.265,.371-3.869,2.703-.212-.318c-.848-1.272-1.582-2.535-2.199-3.789-.619-1.254-1.246-2.553-1.881-3.896-.636,1.344-1.264,2.643-1.882,3.896-.619,1.254-1.352,2.517-2.199,3.789l-.212,.318-3.869-2.703 .265-.371c.882-1.236 1.836-2.323 2.862-3.26 1.024-.936 2.12-1.898 3.286-2.889-1.484-.105-2.934-.238-4.346-.397-1.414-.159-2.827-.503-4.24-1.034l-.424-.158 1.484-4.452 .318,.106c1.448,.494 2.791,1.078 4.028,1.748 1.236,.672 2.491,1.361 3.763,2.067-.283-1.448-.557-2.853-.822-4.214-.265-1.359-.397-2.781-.397-4.266v-.424h4.77v.424z"/>
<path d="m143.306,125.001c0-12.372 0-24.744 0-37.115 0-4.305-.907-10.719 5.472-10.719 2.778,0 5.555,0 8.333,0 29.272,0 58.544,0 87.817,0 10.576,0 21.153,0 31.729,0 3.418,0 7.562,.411 7.562,5.083 0,1.823 0,3.647 0,5.47 0,24.91 0,49.82 0,74.729 0,30.487 0,60.973 0,91.46 0,7.914 0,15.828 0,23.743 0,3.333-.969,6.784-5.274,6.784-2.501,0-5.002,0-7.503,0-28.719,0-57.437,0-86.155,0-11.151,0-22.302,0-33.453,0-3.7,0-8.528,.134-8.528-5.197 0-5.858 0-11.716 0-17.574 0-4.514-7-4.514-7,0 0,10.528-3.288,29.771 12.599,29.771 8.669,0 17.338,0 26.007,0 30.072,0 60.144,0 90.216,0 7.268,0 19.363,2.042 23.95-5.18 3.269-5.145 2.141-12.617 2.141-18.454 0-27.506 0-55.011 0-82.517 0-28.861 0-57.723 0-86.585 0-5.52 0-11.039 0-16.558 0-12.285-12.134-11.977-20.805-11.977-29.272,0-58.545,0-87.817,0-10.576,0-21.153,0-31.729,0-4.568,0-8.651,.799-11.875,4.471-3.606,4.107-2.687,10.444-2.687,15.497 0,11.622 0,23.244 0,34.866 0,4.516 7,4.516 7,.002z"/>
<path d="m166.134,131.503c40.528,0 81.057,0 121.585,0 4.514,0 4.514-7 0-7-40.528,0-81.057,0-121.585,0-4.514,0-4.514,7-0,7z"/>
<path d="m145.806,184.302c46.396,0 92.793,0 139.188,0 .368,0 .736,0 1.104,0 4.514,0 4.514-7 0-7-46.396,0-92.793,0-139.189,0-.368,0-.736,0-1.104,0-4.513,0-4.513,7 .001,7z"/>
<path d="m148.482,240.179c46.162,0 92.323,0 138.485,0 .25,0 .501,0 .752,0 4.514,0 4.514-7 0-7-46.161,0-92.323,0-138.484,0-.251,0-.501,0-.752,0-4.515,0-4.515,7-.001,7z"/>
<path d="m184.243,73.667c0,48.434 0,96.868 0,145.302 0,22.989 0,45.979 0,68.969 0,4.514 7,4.514 7,0 0-48.434 0-96.868 0-145.302 0-22.99 0-45.979 0-68.969 0-4.514-7-4.514-7,0z"/>
<path d="m237.144,73.667c0,48.434 0,96.868 0,145.302 0,22.989 0,45.979 0,68.969 0,4.514 7,4.514 7,0 0-48.434 0-96.868 0-145.302 0-22.99 0-45.979 0-68.969 0-4.514-7-4.514-7,0z"/>
<path d="m202.482,261.775c0-6.147 1.087-10.882 3.26-14.203 2.174-3.321 5.186-4.982 9.037-4.982 3.851,0 6.863,1.661 9.036,4.982s3.26,8.056 3.26,14.203c0,6.148-1.087,10.884-3.26,14.205s-5.186,4.981-9.036,4.981c-3.852,0-6.863-1.66-9.037-4.981-2.173-3.321-3.26-8.056-3.26-14.205zm19.399,0c0-2.014-.115-3.922-.344-5.724-.23-1.802-.619-3.374-1.166-4.717-.549-1.343-1.281-2.411-2.2-3.206s-2.05-1.193-3.392-1.193c-1.344,0-2.475,.398-3.393,1.193-.919,.795-1.652,1.863-2.199,3.206-.549,1.343-.937,2.915-1.166,4.717-.23,1.802-.344,3.71-.344,5.724 0,2.015 .113,3.922 .344,5.725 .229,1.802 .617,3.375 1.166,4.717 .547,1.344 1.28,2.412 2.199,3.207 .918,.795 2.049,1.192 3.393,1.192 1.342,0 2.473-.397 3.392-1.192s1.651-1.863 2.2-3.207c.547-1.342 .936-2.915 1.166-4.717 .229-1.803 .344-3.71 .344-5.725z"/>
<path d="m261.885,253.137h8.586l1.855-9.699h4.451l-1.854,9.699h4.664v3.922h-5.459l-1.802,9.487h7.261v3.922h-8.003l-1.855,9.699h-4.451l1.854-9.699h-8.586l-1.854,9.699h-4.453l1.855-9.699h-4.664v-3.922h5.406l1.803-9.487h-7.209v-3.922h8.004l1.854-9.699h4.452l-1.855,9.699zm-2.597,13.409h8.586l1.854-9.487h-8.586l-1.854,9.487z"/>
<path d="m136.306,190.334c0,13.205 0,26.411 0,39.616 0,4.514 7,4.514 7,0 0-13.205 0-26.411 0-39.616 0-4.514-7-4.514-7,0z"/>
</g>
</svg>
