<svg xmlns="http://www.w3.org/2000/svg" viewBox="20 20 321 321">
<g fill="#000">
<path d="m178.833,70.667c0,14.222 0,28.445 0,42.667 0,1.935 3,1.935 3,0 0-14.222 0-28.445 0-42.667 0-1.935-3-1.935-3,0z"/>
<path d="m179,154c0,16.938 0,33.876 0,50.814 0,1.935 3,1.935 3,0 0-16.938 0-33.876 0-50.814 0-1.934-3-1.934-3,0z"/>
<path d="m179,247.334c0,14.111 0,28.222 0,42.333 0,1.935 3,1.935 3,0 0-14.111 0-28.222 0-42.333 0-1.935-3-1.935-3-0z"/>
<path d="m163.159,230.827c11.115,.113 22.23,.227 33.344,.34 6.451,.065 6.444-9.935 0-10-11.114-.113-22.229-.227-33.344-.34-6.451-.065-6.445,9.935 0,10z"/>
<path d="m200.031,230.505c29.418-19.387 58.835-38.773 88.252-58.161 5.358-3.531 .355-12.195-5.047-8.635-29.418,19.387-58.835,38.774-88.252,58.161-5.358,3.531-.355,12.195 5.047,8.635z"/>
<path d="m77.429,288.306c29.418-19.387 58.835-38.774 88.253-58.161 5.358-3.531 .355-12.195-5.047-8.635-29.418,19.387-58.835,38.774-88.253,58.161-5.358,3.531-.355,12.195 5.047,8.635z"/>
<path d="m76.886,278.175c-1.131,.711-2.262,1.422-3.393,2.134-2.512,1.579-3.496,4.834-1.957,7.462 1.465,2.501 4.943,3.541 7.462,1.956 1.131-.711 2.262-1.422 3.393-2.134 2.512-1.579 3.496-4.834 1.957-7.462-1.465-2.501-4.943-3.541-7.462-1.956z"/>
<path d="m283.007,164.058c-1.11,.743-2.221,1.486-3.331,2.229-1.207,.808-2.112,1.829-2.506,3.26-.388,1.408-.188,2.943 .55,4.203 1.433,2.447 4.987,3.612 7.462,1.957 1.11-.743 2.221-1.486 3.331-2.229 1.207-.808 2.112-1.829 2.506-3.26 .388-1.408 .188-2.943-.55-4.203-1.433-2.447-4.988-3.612-7.462-1.957z"/>
<path d="m163.49,137.917c11.115,.113 22.229,.227 33.344,.34 6.451,.066 6.445-9.934 0-10-11.115-.113-22.229-.227-33.344-.34-6.451-.066-6.445,9.934 0,10z"/>
<path d="m200.361,137.595c29.418-19.387 58.836-38.774 88.254-58.161 5.358-3.531 .355-12.195-5.047-8.635-29.418,19.387-58.836,38.774-88.254,58.161-5.358,3.531-.355,12.195 5.047,8.635z"/>
<path d="m77.76,195.396c29.418-19.387 58.835-38.774 88.253-58.161 5.358-3.531 .355-12.195-5.047-8.635-29.418,19.387-58.835,38.774-88.253,58.161-5.358,3.531-.355,12.195 5.047,8.635z"/>
<path d="m77.217,185.265c-1.131,.711-2.262,1.422-3.393,2.134-2.512,1.579-3.496,4.834-1.957,7.462 1.465,2.501 4.943,3.541 7.462,1.956 1.131-.711 2.262-1.422 3.393-2.134 2.512-1.579 3.496-4.834 1.957-7.462-1.465-2.501-4.943-3.541-7.462-1.956z"/>
<path d="m283.339,71.148c-1.11,.743-2.221,1.486-3.332,2.229-1.207,.808-2.112,1.829-2.506,3.26-.388,1.408-.188,2.943 .55,4.203 1.434,2.447 4.987,3.612 7.462,1.957 1.11-.743 2.221-1.486 3.332-2.229 1.207-.808 2.112-1.829 2.506-3.26 .388-1.408 .188-2.943-.55-4.203-1.434-2.447-4.988-3.612-7.462-1.957z"/>
</g>
</svg>
