<svg xmlns="http://www.w3.org/2000/svg" viewBox="20 20 321 321">
<g fill="#000">
<path d="m200.979,251.601c.305-.863 1.399-.69 .22-.69-.886,0-1.772,0-2.658,0-2.224,0-4.447,0-6.671,0-1.612,0-3.224,0-4.835,0 .675,0 .727,2.813 .727-.152 0-6.96 0-13.92 0-20.88 0,1.73-1.801,1.565-.344,1.565 .886,0 1.772,0 2.658,0 2.224,0 4.447,0 6.671,0 1.612,0 3.224,0 4.835,0-.676,0-.728-2.812-.728,.153 0,6.979 0,13.956 0,20.935 0,4.514 7,4.514 7,0 0-3.947 0-7.894 0-11.841 0-3.929 .873-8.965-.459-12.746-1.726-4.9-9.635-3.501-13.582-3.501-4.821,0-10.949-1.163-12.927,4.449-1.243,3.526-.125,9.113-.125,12.771 0,3.929-.874,8.965 .459,12.746 1.728,4.899 9.635,3.5 13.583,3.5 4.82,0 10.949,1.163 12.926-4.448 1.503-4.27-5.261-6.089-6.75-1.861z"/>
<path d="m228.744,250.921c.03-.118 1.505-.011-.291-.011-1.007,0-2.013,0-3.019,0-2.799,0-5.599,0-8.397,0-.746,0-1.492,0-2.238,0-.824,0 .727,1.54 .727,.58 0-1.552 0-3.104 0-4.654 0-8.618 0-17.235 0-25.854 0,1.122-1.779,.902 .167,.902 1.007,0 2.013,0 3.019,0 2.799,0 5.599,0 8.397,0 .746,0 1.492,0 2.238,0 .825,0-.728-1.543-.728-.582 0,1.552 0,3.104 0,4.654 0,8.632 0,17.263 0,25.895 0,4.514 7,4.514 7,0 0-10.092 0-20.185 0-30.276 0-6.839-6.078-6.69-11.107-6.69-5.524,0-14.057-1.839-15.861,5.126-1.084,4.185-.125,9.661-.125,13.929 0,5.76 0,11.52 0,17.278 0,6.84 6.077,6.692 11.108,6.692 5.524,0 14.059,1.839 15.86-5.128 1.131-4.374-5.62-6.228-6.75-1.861z"/>
<path d="m256.541,250.897c.752-.02 .897-.027 .438-.024-.494,0-.989,0-1.483,0-1.394,0-2.787,0-4.181,0-2.727,0-5.453,0-8.179,0-1.307,0 .188,1.18 .188,.676 0-.533 0-1.066 0-1.6 0-2.448 0-4.897 0-7.346 0-10.631 0-21.262 0-31.893 0,1.262-1.304,.923 .921,.923 1.394,0 2.787,0 4.181,0 2.852,0 5.702,0 8.554,0 .538,0-.563-1.589-.563-.463 0,.619 0,1.238 0,1.857 0,2.578 0,5.155 0,7.733 0,10.355 0,20.711 0,31.066 0,4.514 7,4.514 7,0 0-12.374 0-24.748 0-37.122 0-4.864-.438-10.072-6.813-10.072-3.34,0-6.68,0-10.02,0-2.863,0-6.234-.463-8.469,1.771-3.13,3.13-1.792,10.446-1.792,14.357 0,7.827 0,15.654 0,23.481 0,3.888-1.321,12.229 4.17,13.305 5.382,1.055 11.334,.325 16.803,.325 3.073,0 5.396-2.232 5.995-5.114 .916-4.403-5.831-6.278-6.75-1.86z"/>
<path d="m284.27,250.944c.054-.189 1.332-.108 .112-.108-.608,0-1.218,0-1.826,0-1.815,0-3.631,0-5.445,0-1.727,0-3.453,0-5.181,0-2.368,0-.879-.033-.879,.823 0-4.883 0-9.765 0-14.647 0-12.933 0-25.865 0-38.798 0,.488-1.608,.822 .266,.822 1.608,0 3.217,0 4.826,0 1.874,0 3.748,0 5.622,0 .705,0 1.409,0 2.114,0 1.849,0 .266,.243 .266-1.014 0,4.355 0,8.71 0,13.065 0,13.398 0,26.798 0,40.196 0,.197 0,.394 0,.591 0,4.514 7,4.514 7,0 0-12.081 0-24.162 0-36.243 0-5.597 0-11.193 0-16.791 0-7.299-6.788-6.805-12.092-6.805-5.071,0-15.002-1.641-15.002,6.178 0,4.883 0,9.765 0,14.647 0,12.933 0,25.865 0,38.798 0,6.496 6.559,6.177 11.146,6.177 5.5,0 13.9,1.79 15.823-5.03 1.227-4.353-5.528-6.199-6.75-1.861z"/>
<path d="m201.839,291.514l-1.593-6.266h-9.061l-1.539,6.266h-7.029c1.611-5.345 3.24-10.215 4.889-14.611 1.646-4.396 3.24-8.566 4.777-12.51h7.359c1.609,3.973 3.212,8.187 4.805,12.641 1.593,4.455 3.139,9.282 4.641,14.48h-7.249zm-6.041-21.864c-.366,1.023-.706,1.994-1.017,2.914s-.604,1.826-.878,2.717-.531,1.789-.769,2.693c-.238,.906-.467,1.841-.688,2.805h6.646c-.22-.964-.439-1.898-.659-2.805-.219-.904-.467-1.803-.741-2.693s-.567-1.797-.878-2.717c-.312-.919-.65-1.89-1.016-2.914z"/>
<path d="m223.201,292.084c-2.196,0-4.036-.241-5.52-.723-1.482-.482-2.662-1.176-3.541-2.082-.879-.904-1.502-2-1.867-3.285-.367-1.285-.55-2.717-.55-4.295v-17.307h6.81v16.957c0,1.139 .073,2.096 .22,2.869 .146,.774 .394,1.396 .741,1.862 .348,.468 .832,.804 1.455,1.008s1.41,.307 2.361,.307c.952,0 1.739-.103 2.362-.307 .622-.204 1.116-.548 1.482-1.03 .366-.481 .622-1.109 .769-1.883 .146-.774 .221-1.731 .221-2.871v-16.912h6.754v17.307c0,1.578-.184,3.01-.549,4.295-.366,1.285-1.008,2.381-1.922,3.285-.916,.906-2.124,1.6-3.625,2.082-1.501,.482-3.368,.723-5.601,.723z"/>
<path d="m263.126,264.393v4.469h-8.951v22.652h-6.81v-22.652h-8.951v-4.469h24.712z"/>
<path d="m265.982,277.932c0-4.674 1.078-8.2 3.239-10.582 2.16-2.38 5.163-3.57 9.007-3.57 3.99,0 7.029,1.19 9.116,3.57 2.087,2.382 3.13,5.908 3.13,10.582s-1.063,8.201-3.186,10.581c-2.123,2.382-5.125,3.571-9.006,3.571-3.99,0-7.039-1.189-9.144-3.571-2.105-2.38-3.156-5.908-3.156-10.581zm6.864,0c0,1.314 .064,2.549 .193,3.702 .127,1.154 .384,2.154 .769,3.001 .384,.848 .924,1.52 1.62,2.016 .695,.498 1.629,.745 2.801,.745 1.135,0 2.059-.247 2.773-.745 .713-.496 1.263-1.176 1.646-2.037 .385-.861 .641-1.862 .77-3.002 .128-1.139 .192-2.365 .192-3.68s-.064-2.549-.192-3.703c-.129-1.152-.385-2.153-.77-3.001-.384-.847-.924-1.519-1.619-2.015-.696-.497-1.63-.746-2.801-.746-1.172,0-2.105,.249-2.801,.746-.696,.496-1.236,1.176-1.62,2.037-.385,.861-.642,1.861-.769,3.001-.128,1.14-.192,2.366-.192,3.681z"/>
<path d="m138.152,71.779c0,8.86 0,17.719 0,26.579 0,1.935 3,1.935 3,0 0-8.86 0-17.719 0-26.579 0-1.934-3-1.934-3,0z"/>
<path d="m138.255,123.691c0,10.551 0,21.103 0,31.654 0,1.935 3,1.935 3,0 0-10.551 0-21.103 0-31.654 0-1.934-3-1.934-3,0z"/>
<path d="m138.255,181.834c0,8.79 0,17.58 0,26.37 0,1.935 3,1.935 3,0 0-8.79 0-17.58 0-26.37 0-1.935-3-1.935-3,0z"/>
<path d="m78.127,209.09c10.837-11.41 21.506-23.047 36.341-29.236 9.622-4.014 19.692-5.211 29.922-6.598 9.187-1.246 18.15-3.465 26.658-7.191 10.265-4.496 19.283-11.102 26.561-19.619 .825-.965 1.62-1.957 2.472-2.899 .365-.403 1.457-1.158-.057-.097-2.075,1.454-6.31-2.238-6.314-2.26 1.959,7.894 1.765,19.769 11.996,21.062 6.386,.807 6.309-9.203 0-10 1.329,.168-.426-4.175-.673-5.292-.618-2.796-1.088-5.625-1.681-8.427-.323-1.528-1.364-3.127-2.776-3.851-3.6-1.845-6.431,.418-8.65,3.046-7.013,8.306-14.89,14.691-24.859,19.237-18.325,8.356-39.185,6.164-57.658,14.255-15.522,6.799-26.886,18.727-38.353,30.801-4.438,4.67 2.622,11.753 7.071,7.069z"/>
<path d="m74.184,200.598c-.588,.588-1.177,1.177-1.766,1.766-2.023,2.022-2.022,5.401 0,7.424 2.023,2.023 5.402,2.022 7.425,0 .588-.588 1.177-1.177 1.766-1.766 2.023-2.022 2.022-5.401 0-7.424-2.024-2.024-5.402-2.023-7.425,0z"/>
<path d="m205.706,154.524c-.832-.019-1.665-.037-2.497-.056-2.29-.051-4.2,1.95-4.2,4.2 0,2.329 1.912,4.148 4.2,4.2 .832,.019 1.665,.037 2.497,.056 2.29,.051 4.2-1.95 4.2-4.2 0-2.328-1.912-4.148-4.2-4.2z"/>
<path d="m78.713,150.433c10.837-11.412 21.506-23.048 36.341-29.237 9.622-4.014 19.692-5.212 29.922-6.599 9.187-1.246 18.15-3.464 26.658-7.19 10.265-4.496 19.283-11.102 26.561-19.619 .824-.966 1.62-1.957 2.472-2.899 .365-.403 1.457-1.159-.058-.098 1.726-.959-.054-1.227-5.338-.801-1.344-1.167-1.26-2.603-.976-1.459 1.961,7.894 1.763,19.77 11.996,21.063 6.386,.807 6.309-9.203 0-10 1.328,.168-.426-4.175-.673-5.293-.619-2.796-1.089-5.625-1.681-8.428-.322-1.526-1.357-3.124-2.776-3.851-3.601-1.844-6.431,.418-8.65,3.046-7.014,8.306-14.89,14.692-24.859,19.238-18.325,8.356-39.185,6.163-57.657,14.254-15.523,6.8-26.887,18.728-38.354,30.802-4.436,4.673 2.623,11.755 7.072,7.071z"/>
<path d="m74.769,141.939c-.588,.589-1.177,1.177-1.766,1.766-2.022,2.023-2.022,5.402 0,7.425 2.023,2.022 5.402,2.022 7.425,0 .588-.589 1.177-1.177 1.766-1.766 2.022-2.023 2.022-5.402 0-7.425-2.023-2.022-5.402-2.022-7.425,0z"/>
<path d="m206.292,95.866c-.832-.019-1.664-.037-2.496-.056-2.29-.051-4.2,1.95-4.2,4.2 0,2.329 1.912,4.148 4.2,4.2 .832,.019 1.664,.037 2.496,.056 2.29,.051 4.2-1.95 4.2-4.2 0-2.328-1.912-4.148-4.2-4.2z"/>
</g>
</svg>
