<svg xmlns="http://www.w3.org/2000/svg" viewBox="20 20 321 321">
<g fill="none"  stroke="#000" stroke-width="10">
<path d="m267.654,250.303c0,3.91-2.583,7.082-5.768,7.082l-161.89,.021c-3.186,0-5.768-3.171-5.768-7.083v-127.5c0-3.911 2.582-7.083 5.768-7.083l161.89-.021c3.185,0 5.768,3.172 5.768,7.083v127.501z"/>
<path d="m180.941,116.583 0,137.175"/>
<path d="m267.654,120.208c0,2.485-2.218,4.5-4.952,4.5l-163.522,.021c-2.734,0-4.951-2.015-4.951-4.5v-9c0-2.485 2.217-4.5 4.951-4.5l163.522-.021c2.734,0 4.952,2.015 4.952,4.5v9z"/>
<path d="m94.229,252.104c0,3.217 1.833,6.3 4.096,6.884l48.892,21.691c2.262,.585 4.096-1.551 4.096-4.768v-122.014c0-3.217-1.833-6.299-4.096-6.884l-48.892-21.692c-2.262-.584-4.096,1.551-4.096,4.768v122.015z"/>
</g>
<path fill="#000" d="m152.196,210.446c-1.584-.399-3.169-.8-4.753-1.199-2.641-.666-5.417,.824-6.15,3.492-.711,2.584 .85,5.484 3.492,6.15 1.584,.399 3.169,.8 4.753,1.199 2.641,.666 5.417-.824 6.15-3.492 .711-2.583-.85-5.484-3.492-6.15z"/>
<g fill="none"  stroke="#000" stroke-width="10">
<path d="m266.898,251.773c.453,2.887-1.267,5.227-3.842,5.227h-73.315c-2.575,0-5.03-2.34-5.485-5.227l-16.445-104.545c-.454-2.887 1.266-5.228 3.841-5.228h73.315c2.576,0 5.031,2.34 5.486,5.228l16.445,104.545z"/>
<path d="m267.654,250.303c0,3.91-2.582,7.082-5.768,7.082l-161.89,.021c-3.186,0-5.768-3.171-5.768-7.083v-127.5c0-3.911 2.582-7.083 5.768-7.083l161.89-.021c3.186,0 5.768,3.172 5.768,7.083v127.501z"/>
</g>
<path fill="#000" d="m180.948,191.584c6.448,0 6.448-10 0-10-6.448,0-6.448,10 0,10z"/>
<g fill="none"  stroke="#000" stroke-width="10">
<path d="m180.941,116.583 0,137.175"/>
<path d="m267.654,120.208c0,2.485-2.217,4.5-4.952,4.5l-163.521,.021c-2.734,0-4.951-2.015-4.951-4.5v-9c0-2.485 2.217-4.5 4.951-4.5l163.521-.021c2.735,0 4.952,2.015 4.952,4.5v9z"/>
</g>
</svg>
