<svg xmlns="http://www.w3.org/2000/svg" viewBox="20 20 321 321">
<g fill="#000">
<path d="m80.833,130.417c0,45.143 0,90.286 0,135.429 0,.052 0,.103 0,.154 0,6.448 10,6.448 10,0 0-45.143 0-90.286 0-135.429 0-.051 0-.103 0-.154 0-6.449-10-6.449-10,0z"/>
<path d="m270.833,130.417c0,45.143 0,90.286 0,135.429 0,.052 0,.103 0,.154 0,6.448 10,6.448 10,0 0-45.143 0-90.286 0-135.429 0-.051 0-.103 0-.154 0-6.449-10-6.449-10,0z"/>
</g>
<path fill="none"  stroke="#000" stroke-width="10" d="m286.833,117.588c0,3.172-2.572,5.745-5.745,5.745h-199.801c-3.173,0-5.745-2.573-5.745-5.745v-9.575c0-3.173 2.572-5.745 5.745-5.745h199.801c3.173,0 5.745,2.572 5.745,5.745v9.575z"/>
<g fill="#000">
<path d="m272.459,145.736c-.33,1.658 .979,1.431-.631,1.431-1.073,0-2.146,0-3.22,0-3.865,0-7.73,0-11.596,0-12.936,0-25.87,0-38.806,0-31.541,0-63.083,0-94.624,0-9.949,0-19.897,0-29.846,0-1.625,0-3.25,0-4.875,0 .916,0 .471-7.707 .471-8.614 0-.934-2.839,.948-.436,.948 .212,0 .425,0 .638,0 21.101,0 42.201,0 63.302,0 28.416,0 56.832,0 85.247,0 9.317,0 18.634,0 27.95,0 2.077,0 4.153,0 6.229,0 .152,0 .305,0 .456,0 2.403,0-.386-.254-.386-1.354 0,2.84 0,5.68 0,8.521 0,4.514 7,4.514 7,0 0-6.1 1.498-14.167-6.528-14.167-1.625,0-3.25,0-4.875,0-9.949,0-19.897,0-29.847,0-31.541,0-63.082,0-94.623,0-12.936,0-25.871,0-38.806,0-4.82,0-11.462,1.13-16.059-.217-7.915-2.32-6.705,12.467-5.902,16.498 .77,3.865 4.732,5.386 8.133,5.386 8.364,0 16.729,0 25.093,0 52.071,0 104.141,0 156.211,0 3.563,0 6.415-3.249 7.077-6.569 .882-4.41-5.865-6.288-6.747-1.863z"/>
<path d="m272.459,160.156c-.33,1.658 .979,1.431-.631,1.431-1.073,0-2.146,0-3.22,0-3.865,0-7.73,0-11.596,0-12.936,0-25.87,0-38.806,0-31.541,0-63.083,0-94.624,0-9.949,0-19.897,0-29.846,0-1.625,0-3.25,0-4.875,0 .916,0 .471-7.707 .471-8.614 0-.934-2.839,.948-.436,.948 .212,0 .425,0 .638,0 21.101,0 42.201,0 63.302,0 28.416,0 56.832,0 85.247,0 9.317,0 18.634,0 27.95,0 2.077,0 4.153,0 6.229,0 .152,0 .305,0 .456,0 2.403,0-.386-.254-.386-1.354 0,2.84 0,5.68 0,8.521 0,4.514 7,4.514 7,0 0-6.1 1.498-14.167-6.528-14.167-1.625,0-3.25,0-4.875,0-9.949,0-19.897,0-29.847,0-31.541,0-63.082,0-94.623,0-12.936,0-25.871,0-38.806,0-4.82,0-11.462,1.13-16.059-.217-7.915-2.32-6.705,12.467-5.902,16.498 .77,3.865 4.732,5.386 8.133,5.386 8.364,0 16.729,0 25.093,0 52.071,0 104.141,0 156.211,0 3.563,0 6.415-3.249 7.077-6.569 .882-4.41-5.865-6.288-6.747-1.863z"/>
<path d="m272.459,174.822c-.33,1.658 .979,1.431-.631,1.431-1.073,0-2.146,0-3.22,0-3.865,0-7.73,0-11.596,0-12.936,0-25.87,0-38.806,0-31.541,0-63.083,0-94.624,0-9.949,0-19.897,0-29.846,0-1.625,0-3.25,0-4.875,0 .916,0 .471-7.707 .471-8.614 0-.934-2.839,.948-.436,.948 .212,0 .425,0 .638,0 21.101,0 42.201,0 63.302,0 28.416,0 56.832,0 85.247,0 9.317,0 18.634,0 27.95,0 2.077,0 4.153,0 6.229,0 .152,0 .305,0 .456,0 2.403,0-.386-.254-.386-1.354 0,2.84 0,5.68 0,8.521 0,4.514 7,4.514 7,0 0-6.1 1.498-14.167-6.528-14.167-1.625,0-3.25,0-4.875,0-9.949,0-19.897,0-29.847,0-31.541,0-63.082,0-94.623,0-12.936,0-25.871,0-38.806,0-4.82,0-11.462,1.13-16.059-.217-7.915-2.32-6.705,12.467-5.902,16.498 .77,3.865 4.732,5.386 8.133,5.386 8.364,0 16.729,0 25.093,0 52.071,0 104.141,0 156.211,0 3.563,0 6.415-3.249 7.077-6.569 .882-4.41-5.865-6.288-6.747-1.863z"/>
<path d="m272.459,189.407c-.33,1.658 .979,1.431-.631,1.431-1.073,0-2.146,0-3.22,0-3.865,0-7.73,0-11.596,0-12.936,0-25.87,0-38.806,0-31.541,0-63.083,0-94.624,0-9.949,0-19.897,0-29.846,0-1.625,0-3.25,0-4.875,0 .916,0 .471-7.308 .471-8.145 0-1.999-2.613,.477-.471,.477 .18,0 .361,0 .542,0 20.827,0 41.654,0 62.481,0 28.733,0 57.467,0 86.199,0 9.451,0 18.901,0 28.353,0 1.981,0 3.964,0 5.946,0 .129,0 .258,0 .387,0 2.412,0-.436-1.771-.436-1.02 0,2.729 0,5.458 0,8.188 0,4.514 7,4.514 7,0 0-6.063 1.501-14.167-6.507-14.167-1.518,0-3.035,0-4.552,0-9.798,0-19.597,0-29.395,0-31.499,0-62.999,0-94.499,0-18.514,0-37.028,0-55.542,0-8.008,0-6.507,8.104-6.507,14.167 0,4.41 3.992,7.5 8.06,7.5 8.027,0 16.054,0 24.08,0 52.452,0 104.903,0 157.354,0 3.696,0 6.672-3.012 7.381-6.569 .882-4.409-5.865-6.287-6.747-1.862z"/>
<path d="m85.833,139.5c49.793,0 99.586,0 149.379,0 13.541,0 27.081,0 40.621,0 4.514,0 4.514-7 0-7-49.793,0-99.586,0-149.379,0-13.54,0-27.081,0-40.621,0-4.514,0-4.514,7 0,7z"/>
<path d="m238.208,159.253c3.583,0 7.167,0 10.75,0 1.935,0 1.935-3 0-3-3.583,0-7.167,0-10.75,0-1.935,0-1.935,3 0,3z"/>
<path d="m251.208,161.156c-.122,.605 .261,.431-1.003,.431-1.164,0-2.328,0-3.492,0-3.464,0-6.928,0-10.392,0-1.267,0-2.533,0-3.8,0-1.434,0-1.438-.24-1.438,.354 0-2.792 0-5.583 0-8.375 0,.547-.461,.354 .878,.354 1.453,0 2.907,0 4.36,0 3.464,0 6.928,0 10.392,0 1.164,0 2.328,0 3.492,0 .381,0 .762,0 1.143,0 .267,0-.265-.816-.265,.052 0,2.705 0,5.41 0,8.114 0,4.514 7,4.514 7,0 0-3.056 1.122-8.878-.714-11.601-2.524-3.745-5.826-3.566-9.835-3.566-4.792,0-9.584,0-14.376,0-4.146,0-7.991,.817-8.95,5.569-.712,3.528-.476,8.169 .235,11.695 .888,4.398 5.985,4.402 9.421,4.402 4.813,0 9.625,0 14.438,0 4.333,0 8.618-.428 9.656-5.569 .89-4.406-5.857-6.283-6.75-1.86z"/>
</g>
</svg>
