<svg xmlns="http://www.w3.org/2000/svg" viewBox="20 20 321 321">
<g fill="none"  stroke="#000" stroke-width="10">
<path d="m232.836,280.912c0,3.406-2.713,6.168-6.059,6.168h-92.89c-3.346,0-6.058-2.762-6.058-6.168v-200.096c0-3.406 2.712-6.167 6.058-6.167h92.89c3.346,0 6.059,2.761 6.059,6.167v200.096z"/>
<path d="m231.163,280c0-3.313-2.687-6-6-6h-91.333c-3.313,0-6,2.687-6,6v.667c0,3.313 2.687,6 6,6h91.333c3.313,0 6-2.687 6-6v-.667z"/>
<path d="m232.836,280.912c0,3.408-2.712,6.168-6.058,6.168h-92.891c-3.346,0-6.058-2.76-6.058-6.168l-24-185.096c0-3.406 2.712-6.167 6.058-6.167h92.891c3.346,0 6.058,2.761 6.058,6.167l24,185.096z"/>
</g>
<path fill="#000" d="m116.83,196.668c3.333,0 6.667,0 10,0 6.449,0 6.449-10 0-10-3.333,0-6.667,0-10,0-6.449,0-6.449,10 0,10z"/>
</svg>
