<svg xmlns="http://www.w3.org/2000/svg" viewBox="20 20 321 321">
<path fill="none"  stroke="#000" stroke-width="10" d="m286.131,166.591c1.657,2.869 .674,6.539-2.196,8.196l-124.708,72c-2.87,1.656-6.54,.674-8.196-2.196l-30.75-53.261c-1.657-2.869-.673-6.539 2.196-8.195l124.709-72c2.869-1.657 6.539-.673 8.195,2.196l30.75,53.26z"/>
<g fill="#000">
<path d="m120.9,268.521c-12.104-20.965-24.208-41.93-36.313-62.895-1.439,2.508-2.878,5.016-4.317,7.523 16.563,0 33.125,0 49.688,0-1.439-.825-2.878-1.651-4.317-2.477 3.839,6.593 7.679,13.186 11.518,19.777 0-1.683 0-3.364 0-5.047-8.298,14.372-16.596,28.744-24.894,43.117-3.23,5.595 5.413,10.628 8.635,5.047 8.298-14.372 16.596-28.744 24.894-43.117 .896-1.553 .904-3.494 0-5.047-3.44-5.907-6.88-11.813-10.32-17.721-1.354-2.325-2.618-4.533-5.747-4.533-2.327,0-4.654,0-6.98,0-14.159,0-28.317,0-42.476,0-3.805,0-6.211,4.243-4.317,7.523 12.104,20.965 24.208,41.93 36.313,62.895 3.22,5.583 11.863,.55 8.633-5.045z"/>
<path d="m175.833,89.667c0,20 0,40 0,60 0,6.449 10,6.449 10,0 0-20 0-40 0-60 0-6.449-10-6.449-10,0z"/>
<path  stroke="#000" stroke-width="10" d="m287.333,84.167c0,3.313-2.659,6-5.938,6h-132.623c-3.28,0-5.939-2.687-5.939-6v-3.5c0-3.313 2.659-6 5.939-6h132.623c3.279,0 5.938,2.687 5.938,6v3.5z"/>
</g>
</svg>
