<svg xmlns="http://www.w3.org/2000/svg" viewBox="20 20 321 321">
<g  stroke="#000" stroke-width="10">
<path fill="#000" d="m164.167,281.684c0,2.569 2.083,4.652 4.651,4.652h24.032c2.568,0 4.65-2.083 4.65-4.652v-24.031c0-2.568-2.082-4.65-4.65-4.65h-24.032c-2.569,0-4.651,2.082-4.651,4.65v24.031z"/>
<g fill="none">
<path d="m253.5,171.351c0,2.569 2.082,4.651 4.651,4.651h24.031c2.569,0 4.651-2.083 4.651-4.651v-24.031c0-2.569-2.082-4.651-4.651-4.651h-24.031c-2.569,0-4.651,2.082-4.651,4.651v24.031z"/>
<path d="m74.5,171.351c0,2.569 2.083,4.651 4.651,4.651h24.031c2.569,0 4.651-2.083 4.651-4.651v-24.031c0-2.569-2.082-4.651-4.651-4.651h-24.031c-2.569,0-4.651,2.082-4.651,4.651v24.031z"/>
<path d="m163.833,116.018c0,2.569 2.083,4.651 4.651,4.651h24.031c2.569,0 4.651-2.083 4.651-4.651v-24.032c0-2.569-2.082-4.651-4.651-4.651h-24.031c-2.569,0-4.651,2.082-4.651,4.651v24.032z"/>
<path d="m180.501,250.668 0-129.667"/>
<path d="m162.834,252.002-75-75.001"/>
<path d="m197.834,252.002 75-75.001"/>
</g>
</g>
</svg>
