<svg xmlns="http://www.w3.org/2000/svg" viewBox="20 20 321 321">
<g fill="#000">
	<path fill="none" stroke="#000" stroke-width="10" d="M193.688,281.167c0,3.313-2.688,6-6,6H81.182c-3.313,0-6-2.687-6-6
		v-162c0-3.313,2.687-6,6-6h106.505c3.313,0,6,2.687,6,6V281.167z"/>
	<path d="M93.373,135.667c27.333,0,54.667,0,82,0c6.448,0,6.448-10,0-10c-27.333,0-54.667,0-82,0 C86.924,125.667,86.924,135.667,93.373,135.667L93.373,135.667z"/>
	<path d="M93.373,152.667c27.333,0,54.667,0,82,0c6.448,0,6.448-10,0-10c-27.333,0-54.667,0-82,0 C86.924,142.667,86.924,152.667,93.373,152.667L93.373,152.667z"/>
	<path d="M93.373,169.667c27.333,0,54.667,0,82,0c6.448,0,6.448-10,0-10c-27.333,0-54.667,0-82,0 C86.924,159.667,86.924,169.667,93.373,169.667L93.373,169.667z"/> 
	<g fill="none" stroke="#000" stroke-width="10" stroke-linejoin="round"> 
		<path d="M264.533,265.292c0,11.708,0,21.2,0,21.2 c-14.294,0-28.4-9.492-28.4-21.2s14.106-21.2,28.4-21.2C264.533,244.092,264.533,253.584,264.533,265.292z"/>
		<line stroke-linecap="round" x1="286.533" y1="251.092" x2="264.533" y2="251.092"/>
		<line stroke-linecap="round" x1="286.533" y1="279.492" x2="264.533" y2="279.492"/>
		<path d="M193.333,179.167c0,0,24.065,1.558,21.5,24 c-2,17.5-5.5,22-7.5,37.5c-2.758,21.374,17.709,24,27,24"/>
	</g>
	<path d="M173.007,186.104h-6.597v-2.47c0-1.535-1.245-2.78-2.78-2.78h-5.939c-1.535,0-2.78,1.245-2.78,2.78
		v2.47h-41.005v-2.47c0-1.535-1.245-2.78-2.78-2.78h-5.939c-1.535,0-2.78,1.245-2.78,2.78v2.47h-6.542
		c-3.93,0-7.116,3.187-7.116,7.116v73.771c0,3.93,3.186,7.116,7.116,7.116h77.144c3.93,0,7.116-3.187,7.116-7.116v-73.771
		C180.123,189.291,176.937,186.104,173.007,186.104z M149.178,202.304l-6.9,22.388l4.202,3.995c1.393,1.324,1.457,3.524,0.143,4.928
		l-21.031,22.468c-0.681,0.727-1.613,1.107-2.557,1.107c-0.601,0-1.207-0.154-1.755-0.473c-1.41-0.817-2.068-2.5-1.588-4.058
		l6.9-22.388l-4.202-3.995c-1.393-1.324-1.457-3.524-0.143-4.928l21.031-22.468c1.114-1.189,2.903-1.453,4.312-0.635
		C148.999,199.063,149.658,200.746,149.178,202.304z"/>
		
	<line x1="-67.637" y1="244.108" x2="9.507" y2="244.108"/>
	<path d="M231.355,128.434c10.008-17.833,20.016-35.667,30.024-53.5c-2.015,0-4.03,0-6.045,0 c10.008,17.833,20.016,35.667,30.023,53.5c1.008-1.755,2.015-3.511,3.022-5.267c-20.016,0-40.032,0-60.048,0
		c-4.514,0-4.514,7,0,7c20.016,0,40.032,0,60.048,0c2.688,0,4.314-2.963,3.022-5.267c-10.008-17.833-20.016-35.667-30.023-53.5 c-1.276-2.274-4.769-2.273-6.045,0c-10.008,17.833-20.016,35.667-30.024,53.5C223.1,128.841,229.146,132.369,231.355,128.434z"/>
	<path style="fill:#000;" d="M261.791,114.384c0,1.083-0.341,1.919-1.021,2.509c-0.682,0.59-1.453,0.885-2.314,0.885 c-0.86,0-1.631-0.295-2.313-0.885c-0.682-0.59-1.021-1.426-1.021-2.509c0-1.082,0.34-1.918,1.021-2.509s1.452-0.885,2.313-0.885
		c0.861,0,1.633,0.295,2.314,0.885C261.45,112.465,261.791,113.302,261.791,114.384z M261.325,98.333 c0,1.993-0.072,3.851-0.216,5.571c-0.143,1.722-0.334,3.469-0.574,5.24h-4.088c-0.239-1.771-0.437-3.518-0.592-5.24
		c-0.156-1.721-0.233-3.579-0.233-5.571v-6.604h5.703V98.333z"/>
</g>
</svg>
