<svg xmlns="http://www.w3.org/2000/svg" viewBox="20 20 321 321">
<g fill="#000">
	<path fill="none" stroke="#000" stroke-width="10" d="M193.688,281.167c0,3.313-2.688,6-6,6H81.182c-3.313,0-6-2.687-6-6
		v-162c0-3.313,2.687-6,6-6h106.505c3.313,0,6,2.687,6,6V281.167z"/>
	<path d="M93.373,135.667c27.333,0,54.667,0,82,0c6.448,0,6.448-10,0-10c-27.333,0-54.667,0-82,0 C86.924,125.667,86.924,135.667,93.373,135.667L93.373,135.667z"/>
	<path d="M93.373,152.667c27.333,0,54.667,0,82,0c6.448,0,6.448-10,0-10c-27.333,0-54.667,0-82,0 C86.924,142.667,86.924,152.667,93.373,152.667L93.373,152.667z"/>
	<path d="M93.373,169.667c27.333,0,54.667,0,82,0c6.448,0,6.448-10,0-10c-27.333,0-54.667,0-82,0 C86.924,159.667,86.924,169.667,93.373,169.667L93.373,169.667z"/> 
	<g fill="none" stroke="#000" stroke-width="10" stroke-linejoin="round"> 
		<path d="M264.533,265.292c0,11.708,0,21.2,0,21.2 c-14.294,0-28.4-9.492-28.4-21.2s14.106-21.2,28.4-21.2C264.533,244.092,264.533,253.584,264.533,265.292z"/>
		<line stroke-linecap="round" x1="286.533" y1="251.092" x2="264.533" y2="251.092"/>
		<line stroke-linecap="round" x1="286.533" y1="279.492" x2="264.533" y2="279.492"/>
		<path d="M193.333,179.167c0,0,24.065,1.558,21.5,24 c-2,17.5-5.5,22-7.5,37.5c-2.758,21.374,17.709,24,27,24"/>
	</g>
	<path d="M173.007,186.104h-6.597v-2.47c0-1.535-1.245-2.78-2.78-2.78h-5.939c-1.535,0-2.78,1.245-2.78,2.78
		v2.47h-41.005v-2.47c0-1.535-1.245-2.78-2.78-2.78h-5.939c-1.535,0-2.78,1.245-2.78,2.78v2.47h-6.542
		c-3.93,0-7.116,3.187-7.116,7.116v73.771c0,3.93,3.186,7.116,7.116,7.116h77.144c3.93,0,7.116-3.187,7.116-7.116v-73.771
		C180.123,189.291,176.937,186.104,173.007,186.104z M149.178,202.304l-6.9,22.388l4.202,3.995c1.393,1.324,1.457,3.524,0.143,4.928
		l-21.031,22.468c-0.681,0.727-1.613,1.107-2.557,1.107c-0.601,0-1.207-0.154-1.755-0.473c-1.41-0.817-2.068-2.5-1.588-4.058
		l6.9-22.388l-4.202-3.995c-1.393-1.324-1.457-3.524-0.143-4.928l21.031-22.468c1.114-1.189,2.903-1.453,4.312-0.635
		C148.999,199.063,149.658,200.746,149.178,202.304z"/>
	<path d="M269.313,83.004c6.868,0,15.502-0.757,15.502,8.683c0,6.526,0,13.053,0,19.579
		c0,6.07,0,12.141,0,18.211c0,8.073-7.167,8.082-13.014,8.082c-7.62,0-15.241,0-22.861,0c-5.29,0-12.836,1.376-16.908-2.696
		c-3.346-3.345-1.771-12.751-1.771-16.889c0-7.547,0-15.095,0-22.643c0-3.331-0.443-6.823,1.771-9.63
		c3.046-3.861,9.621-2.696,13.953-2.696c4.514,0,4.514-7,0-7c-7.305,0-15.814-0.776-20.262,6.483
		c-3.126,5.103-2.463,10.882-2.463,16.606c0,7.73,0,15.46,0,23.19c0,5.64-0.727,11.762,3.011,16.5
		c4.468,5.666,10.507,5.775,17.003,5.775c7.62,0,15.241,0,22.861,0c5.154,0,11.049,0.721,16.034-0.871
		c7.471-2.384,9.646-9.662,9.646-16.627c0-11.187,0-22.373,0-33.559c0-5.245-0.834-9.764-4.746-13.677
		c-4.692-4.692-11.731-3.821-17.756-3.821C264.799,76.004,264.799,83.004,269.313,83.004L269.313,83.004z"/>
	<path d="M254.209,73.83c0,12.537,0,25.073,0,37.61c0,4.514,7,4.514,7,0c0-12.537,0-25.073,0-37.61 C261.209,69.315,254.209,69.315,254.209,73.83L254.209,73.83z"/>
</g>
</svg>
