<svg version="1.1" id="Layer_1" xmlns="http://www.w3.org/2000/svg" xmlns:xlink="http://www.w3.org/1999/xlink" viewBox="-7 -7 28 28" stroke-width="0" xml:space="preserve"><path d="M3,0H1C0.447,0,0,0.447,0,1v2c0,0.553,0.447,1,1,1h2c0.553,0,1-0.447,1-1V1C4,0.447,3.553,0,3,0z M8,0H6 C5.447,0,5,0.447,5,1v2c0,0.553,0.447,1,1,1h2c0.553,0,1-0.447,1-1V1C9,0.447,8.553,0,8,0z M13,0h-2c-0.553,0-1,0.447-1,1v2 c0,0.553,0.447,1,1,1h2c0.553,0,1-0.447,1-1V1C14,0.447,13.553,0,13,0z M3,5H1C0.447,5,0,5.447,0,6v2c0,0.553,0.447,1,1,1h2 c0.553,0,1-0.447,1-1V6C4,5.447,3.553,5,3,5z M8,5H6C5.447,5,5,5.447,5,6v2c0,0.553,0.447,1,1,1h2c0.553,0,1-0.447,1-1V6 C9,5.447,8.553,5,8,5z M13,5h-2c-0.553,0-1,0.447-1,1v2c0,0.553,0.447,1,1,1h2c0.553,0,1-0.447,1-1V6C14,5.447,13.553,5,13,5z M3,10 H1c-0.553,0-1,0.447-1,1v2c0,0.553,0.447,1,1,1h2c0.553,0,1-0.447,1-1v-2C4,10.447,3.553,10,3,10z M8,10H6c-0.553,0-1,0.447-1,1v2 c0,0.553,0.447,1,1,1h2c0.553,0,1-0.447,1-1v-2C9,10.447,8.553,10,8,10z M13,10h-2c-0.553,0-1,0.447-1,1v2c0,0.553,0.447,1,1,1h2 c0.553,0,1-0.447,1-1v-2C14,10.447,13.553,10,13,10z"/><g></g><g></g><g></g><g></g><g></g><g></g><g></g><g></g><g></g><g></g><g></g><g></g><g></g><g></g><g></g></svg>
