<svg xmlns="http://www.w3.org/2000/svg" viewBox="20 20 321 321">
<g fill="#000">
<path d="m84.09,163.192c8.917,1.522 17.833,3.045 26.749,4.567 4.414,.754 6.304-5.991 1.861-6.75-8.917-1.522-17.833-3.045-26.749-4.567-4.414-.754-6.304,5.992-1.861,6.75z"/>
<path d="m84.364,172.808c8.917,1.522 17.833,3.045 26.749,4.567 4.414,.753 6.304-5.991 1.861-6.75-8.917-1.522-17.833-3.045-26.749-4.567-4.413-.753-6.304,5.991-1.861,6.75z"/>
<path d="m84.364,182.149c8.917,1.522 17.833,3.045 26.749,4.567 4.414,.754 6.304-5.991 1.861-6.75-8.917-1.522-17.833-3.045-26.749-4.567-4.413-.753-6.304,5.992-1.861,6.75z"/>
<path d="m90.058,192.121c5.004,.854 10.008,1.708 15.012,2.563 4.414,.754 6.304-5.991 1.861-6.75-5.004-.854-10.008-1.708-15.012-2.563-4.414-.754-6.304,5.991-1.861,6.75z"/>
</g>
<path fill="none"  stroke="#000" stroke-width="10" d="m121.034,137.253c0,7.544-6.116,13.66-13.66,13.66h-18.214c-7.544,0-13.66-6.116-13.66-13.66v-48.569c0-7.544 6.116-13.66 13.66-13.66h18.213c7.544,0 13.66,6.116 13.66,13.66v48.569z"/>
<g fill="#000">
<path d="m155.893,288.545c-.02-5.125 .217-10.825-1.594-15.723-.973-2.631-2.989-4.216-5.054-5.97-1.465-1.244-3.598,.867-2.121,2.121 1.629,1.384 3.272,2.575 4.234,4.538 2.108,4.299 1.517,10.428 1.535,15.033 .007,1.935 3.007,1.935 3,.001z"/>
<path d="m159.67,288.545c-.036-5.23-.001-11.152-2.715-15.825-1.753-3.019-5.125-4.441-8.014-6.102-1.68-.966-3.19,1.626-1.514,2.59 2.291,1.317 4.983,2.389 6.624,4.556 2.958,3.906 2.587,10.19 2.619,14.781 .014,1.934 3.014,1.935 3,0z"/>
<path d="m149.473,288.545c-.036-4.574-.104-9.742-2.396-13.856-.511-.918-1.248-1.708-2.087-2.331-.271-.202-.552-.386-.839-.565-.454-.284-.164-.271-.107,.244-.21-1.901-3.212-1.922-3,0 .185,1.679 1.386,2.013 2.504,2.993 3.315,2.908 2.895,9.652 2.924,13.516 .016,1.933 3.016,1.934 3.001-.001z"/>
<path d="m153.196,288.146c-.736-3.918-1.092-9.078-3.52-12.443-1.476-2.046-4.21-3.063-6.072-4.728-1.438-1.285-3.566,.829-2.121,2.121 1.686,1.507 3.858,2.468 5.469,4.003 .829,.789 1.144,2.08 1.461,3.132 .855,2.838 1.343,5.805 1.889,8.712 .359,1.901 3.25,1.094 2.894-.797z"/>
<path d="m162.477,288.615c.021-2.716-.24-6.994 1.815-9.176 .762-.808 1.883-1.09 2.046-2.566 .212-1.922-2.79-1.901-3,0 .084-.76 .521-.832-.329-.242-.666,.462-1.171,1.022-1.631,1.687-1.941,2.806-1.876,7.07-1.901,10.298-.016,1.935 2.984,1.933 3-.001z"/>
<path d="m159.736,289.014c.432-2.299 .563-6.168 2.139-8.091 .975-1.188 2.844-1.935 4.023-2.989 1.445-1.291-.684-3.406-2.121-2.121-1.273,1.138-3.067,1.822-4.152,3.146-1.973,2.406-2.235,6.35-2.782,9.259-.355,1.889 2.536,2.696 2.893,.796z"/>
<path d="m281.462,289.773c.046-5.764-.075-12.483 3.205-17.507 1.552-2.376 4.419-3.707 6.554-5.483 1.489-1.238-.646-3.349-2.121-2.121-2.626,2.185-5.456,3.691-7.373,6.627-3.366,5.155-3.218,12.625-3.265,18.484-.016,1.936 2.984,1.934 3,0z"/>
<path d="m276.955,289.773c.064-5.908 .193-12.94 4.63-17.421 2.494-2.52 6.303-3.618 9.332-5.335 1.683-.953 .172-3.545-1.514-2.59-3.78,2.143-7.964,3.493-10.91,6.844-4.273,4.861-4.472,12.419-4.538,18.502-.02,1.936 2.98,1.934 3-0z"/>
<path d="m287.367,289.585c.023-3.34-.328-8.565 2.068-11.333 .863-.998 2.064-1.301 2.225-2.885 .194-1.925-2.808-1.905-3,0 .064-.64 .216-.522-.449-.02-.715,.54-1.271,1.17-1.753,1.929-2.179,3.43-2.063,8.441-2.091,12.309-.013,1.936 2.987,1.934 3,0z"/>
<path d="m284.326,289.983c.537-3.111 .706-7.322 2.514-10.05 .916-1.383 3.174-2.331 4.381-3.506 1.389-1.352-.734-3.471-2.121-2.121-1.446,1.407-3.492,2.31-4.708,3.923-2.169,2.881-2.374,7.572-2.958,10.957-.327,1.892 2.564,2.702 2.892,.797z"/>
<path d="m272.391,289.668c-.018-4.886 .936-12.605-3.615-15.791-1.589-1.113-3.086,1.489-1.514,2.59 .731,.513 .728,.179 1.078,1.129 1.357,3.684 1.036,8.235 1.051,12.072 .006,1.935 3.006,1.935 3,0z"/>
<path d="m276.901,289.27c-.601-3.473-.854-7.927-2.872-10.969-1.174-1.768-3.442-2.725-4.95-4.189-1.388-1.349-3.511,.771-2.121,2.121 1.353,1.314 3.128,2.18 4.418,3.516 .647,.67 .868,1.812 1.106,2.669 .693,2.5 1.085,5.098 1.526,7.649 .33,1.904 3.221,1.094 2.893-.797z"/>
<path d="m139.855,289.043c-.019-4.901 .207-10.354-1.525-15.037-.934-2.526-2.861-4.049-4.845-5.732-1.465-1.244-3.598,.867-2.121,2.121 1.552,1.317 3.117,2.451 4.034,4.321 2.007,4.094 1.44,9.942 1.457,14.327 .007,1.935 3.007,1.935 3,0z"/>
<path d="m143.464,289.043c-.035-5.009-.004-10.677-2.604-15.151-1.682-2.895-4.908-4.26-7.679-5.853-1.68-.967-3.19,1.626-1.514,2.59 2.176,1.252 4.745,2.27 6.304,4.328 2.819,3.722 2.462,9.712 2.493,14.086 .014,1.934 3.014,1.936 3,0z"/>
<path d="m133.646,289.043c-.03-4.254-.074-8.968-2.033-12.859-.398-.792-.997-1.524-1.68-2.086-.683-.562-.89-1.02-.819-.309-.19-1.906-3.192-1.925-3,0 .151,1.512 1.202,1.914 2.163,2.847 2.817,2.734 2.344,8.948 2.369,12.407 .014,1.934 3.014,1.936 3,0z"/>
<path d="m136.745,288.645c-.62-3.65-.87-8.313-2.963-11.524-1.2-1.842-3.558-2.859-5.107-4.392-1.376-1.361-3.498,.759-2.121,2.121 1.396,1.382 3.233,2.294 4.565,3.699 .679,.716 .908,1.933 1.156,2.844 .717,2.632 1.121,5.363 1.577,8.049 .324,1.904 3.214,1.094 2.893-.797z"/>
<path d="m70.833,292.085c48.132,0 96.264,0 144.396,0 24.868,0 49.736,0 74.604,0 1.935,0 1.935-3 0-3-48.132,0-96.264,0-144.396,0-24.868,0-49.736,0-74.604,0-1.935,0-1.935,3 0,3z"/>
<path d="m117.428,289.942c-.017-4.345 .182-9.18-1.354-13.331-.837-2.265-2.546-3.632-4.325-5.143-1.465-1.244-3.598,.867-2.121,2.121 1.359,1.154 2.734,2.146 3.537,3.783 1.756,3.583 1.249,8.734 1.263,12.569 .008,1.936 3.008,1.936 3,.001z"/>
<path d="m120.617,289.942c-.031-4.458-.011-9.492-2.324-13.474-1.503-2.587-4.371-3.81-6.847-5.234-1.68-.967-3.19,1.626-1.515,2.59 1.89,1.088 4.153,1.975 5.507,3.762 2.471,3.264 2.152,8.523 2.178,12.356 .015,1.934 3.015,1.936 3.001,0z"/>
<path d="m112.618,289.942c-.022-3.117-.074-6.536-1.508-9.386-.299-.594-.751-1.151-1.265-1.573-.223-.184-.458-.354-.695-.519-.083-.058 .196,.19 .237,.604-.19-1.906-3.192-1.925-3,0 .124,1.241 1.126,1.808 1.668,2.333 1.875,1.82 1.546,6.204 1.563,8.541 .013,1.934 3.013,1.936 3,0z"/>
<path d="m114.811,289.544c-.449-2.644-.641-5.994-2.156-8.319-.886-1.358-2.566-2.088-3.708-3.217-1.376-1.361-3.498,.759-2.121,2.121 .996,.985 2.399,1.734 3.254,2.637 .357,.376 .559,1.269 .713,1.837 .512,1.877 .799,3.824 1.125,5.738 .324,1.904 3.214,1.095 2.893-.797z"/>
<path d="m124.985,290.002c.017-2.221-.198-5.814 1.464-7.578 .564-.599 1.648-.999 1.795-2.333 .212-1.922-2.79-1.901-3,0 .081-.729 .663-.978-.162-.405-.598,.415-1.047,.91-1.46,1.508-1.662,2.402-1.615,6.043-1.637,8.809-.015,1.935 2.985,1.933 3-.001z"/>
<path d="m122.664,290.4c.354-1.881 .528-5.24 1.745-6.725 .694-.847 2.415-1.647 3.396-2.524 1.445-1.292-.684-3.406-2.121-2.121-1.077,.962-2.586,1.537-3.504,2.656-1.7,2.072-1.936,5.406-2.408,7.917-.356,1.891 2.535,2.698 2.892,.797z"/>
<path d="m173.5,199.69c0-2.537 2.057-4.594 4.594-4.594h77.331c2.536,0 4.594,2.057 4.594,4.594v77.331c0,2.537-2.058,4.594-4.594,4.594h-77.331c-2.537,0-4.594-2.057-4.594-4.594v-77.331z"/>
<path d="m178.5,199.69c-.101,.753 .176,.406 1.548,.406 2.202,0 4.404,0 6.606,0 7.06,0 14.118,0 21.178,0 14.365,0 28.731,0 43.097,0 1.359,0 2.719,0 4.077,0 .437,0 .013-.676 .013,.646 0,4.721 0,9.441 0,14.162 0,15.634 0,31.268 0,46.901 0,4.721 0,9.441 0,14.162 0,1.286 .213,.646 .137,.646-1.409,0-2.817,0-4.227,0-14.365,0-28.731,0-43.097,0-7.06,0-14.118,0-21.178,0-2.083,0-4.166,0-6.249,0-1.394,0-2.011-.38-1.905,.406-.398-2.96 0-6.249 0-9.228 0-7.163 0-14.326 0-21.489 0-15.535 0-31.073 0-46.612 0-6.448-10-6.448-10,0 0,24.441 0,48.882 0,73.323 0,5.185 .311,10.418 5.946,12.796 3.249,1.371 7.491,.806 10.937,.806 15.035,0 30.069,0 45.104,0 6.464,0 12.929,0 19.394,0 3.921,0 9.614,.7 12.327-2.81 3.084-3.991 2.811-7.655 2.811-12.328 0-6.465 0-12.93 0-19.394 0-15.035 0-30.069 0-45.104 0-3.513 .549-7.728-.847-11.034-2.353-5.573-7.635-5.849-12.755-5.849-16.129,0-32.257,0-48.386,0-6.977,0-13.953,0-20.93,0-6.809,0-12.531,1.625-13.602,9.594-.855,6.376 9.155,6.293 10.001,0z"/>
<path d="m189.426,288.547c18.222,0 36.444,0 54.666,0 1.935,0 1.935-3 0-3-18.222,0-36.444,0-54.666,0-1.935,0-1.935,3 0,3z"/>
</g>
</svg>
