<svg xmlns="http://www.w3.org/2000/svg" viewBox="20 20 321 321">
<g fill="#000">
<path d="m83.84,163.013c8.917,1.522 17.833,3.045 26.749,4.567 4.414,.754 6.304-5.991 1.861-6.75-8.917-1.522-17.833-3.045-26.749-4.567-4.414-.754-6.304,5.991-1.861,6.75z"/>
<path d="m84.114,172.628c8.917,1.522 17.833,3.045 26.749,4.567 4.414,.753 6.304-5.991 1.861-6.75-8.917-1.522-17.833-3.045-26.749-4.567-4.413-.753-6.304,5.992-1.861,6.75z"/>
<path d="m84.114,181.97c8.917,1.522 17.833,3.045 26.749,4.567 4.414,.754 6.304-5.991 1.861-6.75-8.917-1.522-17.833-3.045-26.749-4.567-4.413-.754-6.304,5.991-1.861,6.75z"/>
<path d="m89.808,191.941c5.004,.854 10.008,1.708 15.012,2.563 4.414,.754 6.304-5.991 1.861-6.75-5.004-.854-10.008-1.708-15.012-2.563-4.414-.753-6.304,5.992-1.861,6.75z"/>
</g>
<g fill="none"  stroke="#000" stroke-width="10">
<path d="m120.784,137.073c0,7.544-6.116,13.66-13.66,13.66h-18.214c-7.544,0-13.66-6.116-13.66-13.66v-48.569c0-7.544 6.116-13.66 13.66-13.66h18.213c7.544,0 13.66,6.116 13.66,13.66v48.569z"/>
<g stroke-linejoin="round" stroke-linecap="round">
<path d="m208.672,261.178 48.441,25.468-9.252-53.941 39.19-38.2-54.158-7.87-24.221-49.077-24.222,49.077-54.159,7.87 39.19,38.2-9.252,53.941z"/>
<path d="m208.672,239.64 24.221,12.733-4.627-26.97 19.595-19.1-27.08-3.935-12.109-24.538-12.111,24.538-27.08,3.935 19.595,19.1-4.625,26.97z"/>
</g>
</g>
</svg>
