<svg xmlns="http://www.w3.org/2000/svg" viewBox="20 20 321 321">
<g fill="#000">
<path d="m84.09,162.513c8.917,1.522 17.833,3.045 26.749,4.567 4.414,.754 6.304-5.991 1.861-6.75-8.917-1.522-17.833-3.045-26.749-4.567-4.414-.754-6.304,5.991-1.861,6.75z"/>
<path d="m84.364,172.128c8.917,1.522 17.833,3.045 26.749,4.567 4.414,.753 6.304-5.991 1.861-6.75-8.917-1.522-17.833-3.045-26.749-4.567-4.413-.753-6.304,5.992-1.861,6.75z"/>
<path d="m84.364,181.47c8.917,1.522 17.833,3.045 26.749,4.567 4.414,.754 6.304-5.991 1.861-6.75-8.917-1.522-17.833-3.045-26.749-4.567-4.413-.754-6.304,5.991-1.861,6.75z"/>
<path d="m90.058,191.441c5.004,.854 10.008,1.708 15.012,2.563 4.414,.754 6.304-5.991 1.861-6.75-5.004-.854-10.008-1.708-15.012-2.563-4.414-.753-6.304,5.992-1.861,6.75z"/>
</g>
<path fill="none"  stroke="#000" stroke-width="10" d="m121.034,136.573c0,7.544-6.116,13.66-13.66,13.66h-18.214c-7.544,0-13.66-6.116-13.66-13.66v-48.569c0-7.544 6.116-13.66 13.66-13.66h18.213c7.544,0 13.66,6.116 13.66,13.66v48.569z"/>
<g fill="#000">
<path d="m207.279,269.342c19.113,0 38.227,0 57.34,0 6.448,0 6.448-10 0-10-19.113,0-38.227,0-57.34,0-6.448,0-6.448,10-0,10z"/>
<path d="m126.772,275.786c2.083,0 4.166,0 6.249,0 1.908,0 3.5-1.592 3.5-3.5s-1.592-3.5-3.5-3.5c-2.083,0-4.166,0-6.249,0-1.908,0-3.5,1.592-3.5,3.5s1.593,3.5 3.5,3.5z"/>
<path d="m171.567,268.584c-3.876,0-7.752,0-11.628,0-4.514,0-4.514,7 0,7 3.876,0 7.752,0 11.628,0 4.515,0 4.515-7 0-7z"/>
<path d="m283.391,281.786c1.531,0 3.063,0 4.595,0 1.908,0 3.5-1.592 3.5-3.5s-1.592-3.5-3.5-3.5c-1.531,0-3.063,0-4.595,0-1.908,0-3.5,1.592-3.5,3.5s1.591,3.5 3.5,3.5z"/>
<path d="m256.666,291.786c5.333,0 10.667,0 16,0 4.514,0 4.514-7 0-7-5.333,0-10.667,0-16,0-4.514,0-4.514,7 0,7z"/>
<path d="m276.25,288.786c2,0 4,0 6,0 1.908,0 3.5-1.592 3.5-3.5s-1.592-3.5-3.5-3.5c-2,0-4,0-6,0-1.908,0-3.5,1.592-3.5,3.5s1.592,3.5 3.5,3.5z"/>
<path d="m286.584,291.786c.667,0 1.333,0 2,0 1.908,0 3.5-1.592 3.5-3.5s-1.592-3.5-3.5-3.5c-.667,0-1.333,0-2,0-1.908,0-3.5,1.592-3.5,3.5s1.592,3.5 3.5,3.5z"/>
<path d="m287.833,269.953c-.222,0-.443,0-.665,0-1.908,0-3.5,1.592-3.5,3.5s1.592,3.5 3.5,3.5c.222,0 .443,0 .665,0 1.908,0 3.5-1.592 3.5-3.5s-1.592-3.5-3.5-3.5z"/>
<path d="m73.75,282.89c2.337,0 4.673,0 7.01,0 4.514,0 4.514-7 0-7-2.337,0-4.673,0-7.01,0-4.515,0-4.515,7 0,7z"/>
<path d="m100.271,279.89c2.581,0 5.161,0 7.741,0 4.514,0 4.514-7 0-7-2.581,0-5.161,0-7.741,0-4.515,0-4.515,7 0,7z"/>
<path d="m122.069,291.786c2,0 4,0 6,0 1.908,0 3.5-1.592 3.5-3.5s-1.592-3.5-3.5-3.5c-2,0-4,0-6,0-1.908,0-3.5,1.592-3.5,3.5s1.592,3.5 3.5,3.5z"/>
<path d="m246.238,284.278c-3,0-6.001,0-9.001,0-4.514,0-4.514,7 0,7 3,0 6.001,0 9.001,0 4.514,0 4.514-7 0-7z"/>
<path d="m76.8,276.953c.694,0 1.389,0 2.083,0 1.908,0 3.5-1.592 3.5-3.5s-1.592-3.5-3.5-3.5c-.694,0-1.389,0-2.083,0-1.908,0-3.5,1.592-3.5,3.5s1.592,3.5 3.5,3.5z"/>
<path d="m93.584,276.277c-.667,0-1.333,0-2,0-1.908,0-3.5,1.592-3.5,3.5s1.592,3.5 3.5,3.5c.667,0 1.333,0 2,0 1.908,0 3.5-1.592 3.5-3.5s-1.592-3.5-3.5-3.5z"/>
<path d="m196.164,284.786c-2,0-4,0-6,0-1.908,0-3.5,1.592-3.5,3.5s1.592,3.5 3.5,3.5c2,0 4,0 6,0 1.908,0 3.5-1.592 3.5-3.5s-1.592-3.5-3.5-3.5z"/>
<path d="m205.916,291.821c5.333,0 10.667,0 16,0 4.514,0 4.514-7 0-7-5.333,0-10.667,0-16,0-4.514,0-4.514,7 0,7z"/>
<path d="m215.209,288.036c.667,0 1.333,0 2,0 1.908,0 3.5-1.592 3.5-3.5s-1.592-3.5-3.5-3.5c-.667,0-1.333,0-2,0-1.908,0-3.5,1.592-3.5,3.5s1.592,3.5 3.5,3.5z"/>
<path d="m135.882,271.917c-3,0-6,0-9,0-4.514,0-4.514,7 0,7 3,0 6,0 9,0 4.514,0 4.514-7 0-7z"/>
<path d="m152.402,271.786c-2,0-4,0-6,0-1.908,0-3.5,1.592-3.5,3.5s1.592,3.5 3.5,3.5c2,0 4,0 6,0 1.908,0 3.5-1.592 3.5-3.5s-1.592-3.5-3.5-3.5z"/>
<path d="m141.872,269.786c-.694,0-1.388,0-2.083,0-1.908,0-3.5,1.592-3.5,3.5s1.592,3.5 3.5,3.5c.694,0 1.388,0 2.083,0 1.908,0 3.5-1.592 3.5-3.5s-1.592-3.5-3.5-3.5z"/>
<path d="m144.902,291.786c2,0 4,0 6,0 1.908,0 3.5-1.592 3.5-3.5s-1.592-3.5-3.5-3.5c-2,0-4,0-6,0-1.908,0-3.5,1.592-3.5,3.5s1.593,3.5 3.5,3.5z"/>
<path d="m85.819,291.619c5.083,0 10.167,0 15.25,0 4.514,0 4.514-7 0-7-5.083,0-10.167,0-15.25,0-4.514,0-4.514,7 0,7z"/>
<path d="m178.251,276.584c3,0 6.001,0 9.001,0 4.514,0 4.514-7 0-7-3,0-6.001,0-9.001,0-4.514,0-4.514,7 0,7z"/>
<path d="m159.584,291.821c5.333,0 10.667,0 16,0 4.514,0 4.514-7 0-7-5.333,0-10.667,0-16,0-4.514,0-4.514,7 0,7z"/>
<path d="m154.902,283.786c2,0 4,0 6,0 1.908,0 3.5-1.592 3.5-3.5s-1.592-3.5-3.5-3.5c-2,0-4,0-6,0-1.908,0-3.5,1.592-3.5,3.5s1.593,3.5 3.5,3.5z"/>
<path d="m173.251,287.584c.667,0 1.333,0 2,0 1.908,0 3.5-1.592 3.5-3.5s-1.592-3.5-3.5-3.5c-.667,0-1.333,0-2,0-1.908,0-3.5,1.592-3.5,3.5s1.593,3.5 3.5,3.5z"/>
<path d="m213.432,269.786c-4.063,0-8.128,0-12.191,0-4.514,0-4.514,7 0,7 4.063,0 8.128,0 12.191,0 4.513,0 4.513-7 0-7z"/>
<path d="m192.001,278.584c-2,0-4,0-6,0-1.908,0-3.5,1.592-3.5,3.5s1.592,3.5 3.5,3.5c2,0 4,0 6,0 1.908,0 3.5-1.592 3.5-3.5s-1.592-3.5-3.5-3.5z"/>
<path d="m146.902,279.786c5.333,0 10.667,0 16,0 4.514,0 4.514-7 0-7-5.333,0-10.667,0-16,0-4.514,0-4.514,7 0,7z"/>
<path d="m118.012,275.203c-3,0-6,0-9,0-4.514,0-4.514,7 0,7 3,0 6,0 9,0 4.514,0 4.514-7 0-7z"/>
<path d="m100.754,269.167c-2.083,0-4.166,0-6.249,0-1.908,0-3.5,1.592-3.5,3.5s1.592,3.5 3.5,3.5c2.083,0 4.166,0 6.249,0 1.908,0 3.5-1.592 3.5-3.5s-1.592-3.5-3.5-3.5z"/>
<path d="m87.26,281.036c-1.833,0-3.667,0-5.5,0-1.908,0-3.5,1.592-3.5,3.5s1.592,3.5 3.5,3.5c1.833,0 3.667,0 5.5,0 1.908,0 3.5-1.592 3.5-3.5s-1.592-3.5-3.5-3.5z"/>
<path d="m143.083,281.917c-.667,0-1.333,0-2,0-1.908,0-3.5,1.592-3.5,3.5s1.592,3.5 3.5,3.5c.667,0 1.333,0 2,0 1.908,0 3.5-1.592 3.5-3.5s-1.592-3.5-3.5-3.5z"/>
<path d="m146.833,271.723c-.667,0-1.333,0-2,0-1.908,0-3.5,1.592-3.5,3.5s1.592,3.5 3.5,3.5c.667,0 1.333,0 2,0 1.908,0 3.5-1.592 3.5-3.5s-1.592-3.5-3.5-3.5z"/>
<path d="m105.261,291.619c1.833,0 3.667,0 5.5,0 1.908,0 3.5-1.592 3.5-3.5s-1.592-3.5-3.5-3.5c-1.833,0-3.667,0-5.5,0-1.908,0-3.5,1.592-3.5,3.5s1.593,3.5 3.5,3.5z"/>
<path d="m73.332,290.667c.667,0 1.333,0 2,0 1.908,0 3.5-1.592 3.5-3.5s-1.592-3.5-3.5-3.5c-.667,0-1.333,0-2,0-1.908,0-3.5,1.592-3.5,3.5s1.592,3.5 3.5,3.5z"/>
<path d="m92.583,281.953c.667,0 1.333,0 2,0 1.908,0 3.5-1.592 3.5-3.5s-1.592-3.5-3.5-3.5c-.667,0-1.333,0-2,0-1.908,0-3.5,1.592-3.5,3.5s1.592,3.5 3.5,3.5z"/>
<path d="m103.833,279.89c4.514,0 4.514-7 0-7s-4.514,7 0,7z"/>
<path d="m207.5,275.89c-3.722,0-7.444,0-11.166,0-4.514,0-4.514,7 0,7 3.722,0 7.444,0 11.166,0 4.514,0 4.514-7 0-7z"/>
<path d="m140.46,280.584c-3.722,0-7.444,0-11.166,0-4.514,0-4.514,7 0,7 3.722,0 7.444,0 11.166,0 4.515,0 4.515-7 0-7z"/>
<path d="m71.332,270.643c48.132,0 96.264,0 144.396,0 24.868,0 49.736,0 74.604,0 1.935,0 1.935-3 0-3-48.132,0-96.265,0-144.396,0-24.868,0-49.736,0-74.604,0-1.935,0-1.935,3-0,3z"/>
<path d="m284.211,272.723c-3,0-6,0-9,0-4.514,0-4.514,7 0,7 3,0 6,0 9,0 4.514,0 4.514-7 0-7z"/>
<path d="m255.289,278.65c-2,0-4,0-6,0-1.908,0-3.5,1.592-3.5,3.5s1.592,3.5 3.5,3.5c2,0 4,0 6,0 1.908,0 3.5-1.592 3.5-3.5s-1.592-3.5-3.5-3.5z"/>
<path d="m231.783,275.584c2,0 4,0 6,0 1.908,0 3.5-1.592 3.5-3.5s-1.592-3.5-3.5-3.5c-2,0-4,0-6,0-1.908,0-3.5,1.592-3.5,3.5s1.592,3.5 3.5,3.5z"/>
<path d="m222.116,289.804c5.333,0 10.667,0 16,0 4.514,0 4.514-7 0-7-5.333,0-10.667,0-16,0-4.513,0-4.513,7 0,7z"/>
<path d="m217.435,281.769c2,0 4,0 6,0 1.908,0 3.5-1.592 3.5-3.5s-1.592-3.5-3.5-3.5c-2,0-4,0-6,0-1.908,0-3.5,1.592-3.5,3.5s1.591,3.5 3.5,3.5z"/>
<path d="m235.783,285.566c.667,0 1.333,0 2,0 1.908,0 3.5-1.592 3.5-3.5s-1.592-3.5-3.5-3.5c-.667,0-1.333,0-2,0-1.908,0-3.5,1.592-3.5,3.5s1.592,3.5 3.5,3.5z"/>
<path d="m251.125,272.449c-2,0-4,0-6,0-1.908,0-3.5,1.592-3.5,3.5s1.592,3.5 3.5,3.5c2,0 4,0 6,0 1.908,0 3.5-1.592 3.5-3.5s-1.592-3.5-3.5-3.5z"/>
<path d="m181.833,275.89c-.667,0-1.333,0-2,0-1.908,0-3.5,1.592-3.5,3.5s1.592,3.5 3.5,3.5c.667,0 1.333,0 2,0 1.908,0 3.5-1.592 3.5-3.5s-1.592-3.5-3.5-3.5z"/>
<path d="m268.175,271.723c-3.722,0-7.444,0-11.166,0-4.514,0-4.514,7 0,7 3.722,0 7.444,0 11.166,0 4.513,0 4.513-7 0-7z"/>
<path d="m254.855,113.629c-11.809,0-23.617,0-35.426,0-6.283,0-10.809,3.636-10.809,10.214 0,6.071 0,12.143 0,18.214 0,3.843 6.232,4.914 6.875,.931 .424-2.626 6.506-1.431 8.456-1.431 .861,0 9.701-.421 9.053,.942-2.46,5.174-5.485,10.134-8.267,15.139-3.927,7.067-7.877,14.121-11.833,21.172-1.4,2.495-4.284,5.942-4.284,8.966 0,24.623 0,49.245 0,73.868 0,.446 0,.894 0,1.34 0,1.908 1.592,3.5 3.5,3.5 16.15,0 32.301,0 48.451,0 1.908,0 3.5-1.592 3.5-3.5 0-46.345 0-92.69 0-139.035 .001-5.794-3.424-9.653-9.216-10.32-4.479-.516-4.43,6.49 0,7 3.147,.362 2.217,5.428 2.217,7.245 0,4.712 0,9.424 0,14.136 0,14.813 0,29.626 0,44.439 0,25.076 0,50.152 0,75.228 0,.437 0,.872 0,1.309 1.167-1.167 2.333-2.333 3.5-3.5-16.15,0-32.301,0-48.451,0 1.167,1.167 2.333,2.333 3.5,3.5 0-24.163 0-48.327 0-72.49 0-1.024 0-2.048 0-3.072 0,.986-.847,2.353-.142,1.099 .49-.871 .979-1.742 1.469-2.613 3.627-6.457 7.247-12.918 10.854-19.386 3.444-6.173 6.908-12.338 10.248-18.569 2.856-5.33 1.576-13.396-5.93-13.396-6.844,0-21.828-3.019-23.375,6.569 2.292,.311 4.583,.621 6.875,.931 0-5.21 0-10.42 0-15.631 0-1.65-.699-5.797 2.356-5.797 1.64,0 3.279,0 4.92,0 10.652,0 21.306,0 31.958,0 4.515-.002 4.515-7.002 .001-7.002z"/>
<path d="m210.621,142.058c0,15.099 0,30.197 0,45.296 0,1.935 3,1.935 3,0 0-15.099 0-30.197 0-45.296 0-1.935-3-1.935-3,0z"/>
<path d="m170.608,223.293c9.048-8.306 18.096-16.612 27.144-24.919 3.332-3.059-1.631-7.996-4.949-4.949-9.049,8.306-18.097,16.612-27.145,24.919-3.332,3.058 1.632,7.996 4.95,4.949z"/>
<path d="m169.858,198.421c9.548-7.457 19.096-14.914 28.644-22.371 3.556-2.776-1.437-7.693-4.949-4.95-9.549,7.457-19.097,14.915-28.645,22.372-3.555,2.776 1.437,7.693 4.95,4.949z"/>
<path d="m169.087,176.412c9.59-7.379 19.18-14.759 28.77-22.138 3.523-2.711 .045-8.797-3.533-6.044-9.59,7.379-19.18,14.759-28.77,22.138-3.524,2.711-.045,8.797 3.533,6.044z"/>
</g>
</svg>
