<svg xmlns="http://www.w3.org/2000/svg" viewBox="20 20 321 321">
<g fill="#000">
<path d="m83.84,260.423c8.917,1.522 17.833,3.045 26.749,4.567 4.414,.754 6.304-5.991 1.861-6.75-8.917-1.522-17.833-3.045-26.749-4.567-4.414-.754-6.304,5.991-1.861,6.75z"/>
<path d="m84.114,270.038c8.917,1.522 17.833,3.045 26.749,4.567 4.414,.754 6.304-5.991 1.861-6.75-8.917-1.522-17.833-3.045-26.749-4.567-4.413-.754-6.304,5.991-1.861,6.75z"/>
<path d="m84.114,279.379c8.917,1.522 17.833,3.046 26.749,4.568 4.414,.754 6.304-5.991 1.861-6.75-8.917-1.522-17.833-3.046-26.749-4.568-4.413-.754-6.304,5.991-1.861,6.75z"/>
<path d="m89.808,289.351c5.004,.854 10.008,1.709 15.012,2.563 4.414,.754 6.304-5.991 1.861-6.75-5.004-.854-10.008-1.709-15.012-2.563-4.414-.754-6.304,5.991-1.861,6.75z"/>
</g>
<path fill="none"  stroke="#000" stroke-width="10" d="m120.784,234.483c0,7.544-6.116,13.66-13.66,13.66h-18.214c-7.544,0-13.66-6.116-13.66-13.66v-48.569c0-7.544 6.116-13.661 13.66-13.661h18.213c7.544,0 13.66,6.116 13.66,13.661v48.569z"/>
<g fill="#000">
<path d="m152.092,88.224c-23.812,0-47.623-.001-71.434,0-2.497,0-3.511-1.335-3.511-3.862 0-1.512-.984-7.528 1.992-7.528 1.678,0 3.357,0 5.035,0 24.298,0 48.597,0 72.896,0 31.12,0 62.239,0 93.358,0 9.236,0 18.473,0 27.709,0 1.482,0 2.966,0 4.448,0 2.971,0 1.915,6.84 1.915,8.313 0,3.769-3.504,3.078-6.082,3.078-9.138,0-18.274,0-27.412,0-4.514,0-4.514,7 0,7 7.54,0 15.081,0 22.621,0 6.913,0 14.74,1.295 17.605-6.723 .945-2.644 .268-6.48 .268-9.215 0-4.547-2.541-7.69-6.723-9.185-1.533-.548-3.835-.268-5.443-.268-22.985,0-45.971,0-68.957,0-31.511,0-63.022,0-94.534,0-10.072,0-20.144,0-30.215,0-2.061,0-4.122,0-6.182,0-6.446,0-9.299,5.079-9.299,10.862 0,6.162-.104,11.821 6.723,14.261 3.427,1.225 8.646,.268 12.135,.268 21.029,0 42.058,0 63.087,0 4.514-.001 4.514-7.001 0-7.001z"/>
<path d="m216.832,88.225c-10.833,0-21.666,0-32.499,0-4.514,0-4.514,7 0,7 10.833,0 21.666,0 32.499,0 4.514,0 4.514-7 0-7z"/>
<path d="m258.636,127.119c-1.759-5.764-3.518-11.528-5.276-17.292-1.313-4.305-8.071-2.468-6.75,1.861 1.759,5.764 3.518,11.528 5.276,17.292 1.313,4.305 8.071,2.468 6.75-1.861z"/>
<path d="m237.082,130.479c0-5.915 0-11.829 0-17.743 0-4.514-7-4.514-7,0 0,5.915 0,11.829 0,17.743 0,4.515 7,4.515 7,0z"/>
<path d="m215.273,128.979c1.762-5.764 3.523-11.527 5.285-17.291 1.323-4.329-5.435-6.165-6.75-1.861-1.762,5.764-3.523,11.527-5.285,17.291-1.323,4.329 5.435,6.165 6.75,1.861z"/>
<path d="m193.572,128.109c-1.759-5.764-3.519-11.528-5.277-17.292-1.313-4.305-8.071-2.468-6.75,1.861 1.759,5.764 3.519,11.528 5.277,17.292 1.314,4.305 8.072,2.468 6.75-1.861z"/>
<path d="m172.019,131.469c0-5.915 0-11.829 0-17.743 0-4.514-7-4.514-7,0 0,5.915 0,11.829 0,17.743 0,4.514 7,4.514 7,0z"/>
<path d="m150.21,129.969c1.762-5.764 3.523-11.527 5.285-17.291 1.323-4.329-5.435-6.165-6.75-1.861-1.762,5.764-3.523,11.527-5.285,17.291-1.322,4.329 5.435,6.165 6.75,1.861z"/>
<path d="m148.5,96.667c3.159,0 6.317,0 9.476,0 1.935,0 1.935-3 0-3-3.159,0-6.317,0-9.476,0-1.935,0-1.935,3 0,3z"/>
<path d="m247.558,91.325c-.637,3.145-10.126,3.162-12.179,3.264-4.851,.242-10.488,.012-14.898-2.228-1.965-.997 3.527-2.538 3.851-2.621 3.003-.767 6.167-.861 9.249-.912 2.366-.039 13.272-.186 13.978,3.294 .384,1.895 3.275,1.091 2.893-.798-1.153-5.696-12.797-5.429-16.87-5.496-3.505-.058-16.925-.029-16.925,5.895 0,5.55 11.728,5.696 15.126,5.865 4.207,.209 17.446,.574 18.669-5.466 .381-1.888-2.511-2.692-2.894-.797z"/>
<path d="m182.495,91.325c-.637,3.145-10.127,3.162-12.18,3.264-4.85,.242-10.488,.012-14.898-2.228-1.964-.997 3.528-2.538 3.851-2.621 3.003-.767 6.167-.861 9.249-.912 2.367-.039 13.274-.186 13.979,3.294 .384,1.895 3.275,1.091 2.893-.798-1.153-5.696-12.798-5.429-16.872-5.496-3.505-.058-16.924-.029-16.924,5.895 0,5.55 11.727,5.696 15.125,5.865 4.208,.209 17.448,.574 18.67-5.466 .383-1.888-2.509-2.692-2.893-.797z"/>
<path d="m180.67,96.667c3.158,0 6.317,0 9.476,0 1.935,0 1.935-3 0-3-3.158,0-6.317,0-9.476,0-1.935,0-1.935,3 0,3z"/>
<path d="m212.757,96.667c3.158,0 6.317,0 9.476,0 1.935,0 1.935-3 0-3-3.158,0-6.317,0-9.476,0-1.935,0-1.935,3 0,3z"/>
<path d="m244.927,96.667c3.158,0 6.317,0 9.476,0 1.935,0 1.935-3 0-3-3.158,0-6.317,0-9.476,0-1.935,0-1.935,3 0,3z"/>
</g>
</svg>
