<svg xmlns="http://www.w3.org/2000/svg" viewBox="20 20 321 321">
<g fill="#000">
<path d="m83.84,260.422c8.917,1.522 17.833,3.046 26.749,4.568 4.414,.754 6.304-5.991 1.861-6.75-8.917-1.522-17.833-3.046-26.749-4.568-4.414-.754-6.304,5.991-1.861,6.75z"/>
<path d="m84.114,270.038c8.917,1.522 17.833,3.045 26.749,4.567 4.414,.754 6.304-5.991 1.861-6.75-8.917-1.522-17.833-3.045-26.749-4.567-4.413-.754-6.304,5.991-1.861,6.75z"/>
<path d="m84.114,279.379c8.917,1.522 17.833,3.046 26.749,4.568 4.414,.754 6.304-5.991 1.861-6.75-8.917-1.522-17.833-3.046-26.749-4.568-4.413-.754-6.304,5.991-1.861,6.75z"/>
<path d="m89.808,289.351c5.004,.854 10.008,1.709 15.012,2.563 4.414,.754 6.304-5.991 1.861-6.75-5.004-.854-10.008-1.709-15.012-2.563-4.414-.754-6.304,5.991-1.861,6.75z"/>
</g>
<g fill="none"  stroke="#000" stroke-width="10">
<path d="m120.784,234.482c0,7.545-6.116,13.66-13.66,13.66h-18.214c-7.544,0-13.66-6.115-13.66-13.66v-48.568c0-7.544 6.116-13.661 13.66-13.661h18.213c7.544,0 13.66,6.116 13.66,13.661v48.568z"/>
<path d="m158.81,85.544"/>
<path d="m212.656,103.044"/>
</g>
<g fill="#000">
<path d="m72.322,72.845c29.626,1.827 59.275,3.517 88.94,4.571 33.96,1.207 67.973-1.146 101.871-3.017 8.996-.497 17.99-1.008 26.983-1.554 1.922-.117 1.934-3.117 0-3-29.534,1.792-59.09,3.439-88.66,4.511-33.96,1.23-67.917-1.017-101.817-2.914-9.107-.51-18.213-1.035-27.317-1.597-1.933-.119-1.922,2.881 0,3z"/>
<path d="m71.981,127.668c29.411,1.722 58.844,3.303 88.29,4.278 33.979,1.126 67.981-1.27 101.892-3.233 9.355-.542 18.711-1.1 28.063-1.694 1.921-.122 1.933-3.123 0-3-29.591,1.88-59.203,3.615-88.831,4.774-33.813,1.323-67.631-.795-101.396-2.577-9.34-.493-18.68-1.002-28.018-1.549-1.933-.112-1.922,2.889 0,3.001z"/>
<path d="m95.021,88.506c-2.323-4.981-4.646-9.963-6.969-14.944-.817-1.752-3.403-.228-2.591,1.514 2.323,4.981 4.646,9.963 6.969,14.944 .818,1.752 3.403,.228 2.591-1.514z"/>
<path d="m112.142,125.221c-2.479-5.315-4.957-10.63-7.436-15.945-.817-1.752-3.403-.228-2.591,1.514 2.479,5.315 4.957,10.631 7.436,15.946 .817,1.751 3.403,.227 2.591-1.515z"/>
<path d="m73.752,98.135c3.378,7.245 6.757,14.49 10.135,21.735 1.906,4.088 7.939,.531 6.044-3.533-3.378-7.245-6.757-14.49-10.135-21.735-1.906-4.088-7.94-.531-6.044,3.533z"/>
<path d="m100.159,104.614c1.36,2.917 .432,6.229-2.074,7.397l-8.354,3.896c-2.506,1.168-5.64-.25-7-3.166l-4.341-9.311c-1.36-2.917-.431-6.228 2.074-7.396l8.354-3.896c2.505-1.168 5.639,.249 6.999,3.165l4.342,9.311z"/>
<path d="m97.887,95.171c1.261,2.706 2.523,5.411 3.785,8.117 .806,1.729 3.258,2.152 4.789,1.255 1.758-1.029 2.062-3.06 1.255-4.789-1.261-2.706-2.523-5.411-3.785-8.117-.806-1.729-3.258-2.152-4.789-1.255-1.758,1.03-2.062,3.06-1.255,4.789z"/>
<path d="m198.688,91.205c-2.322-4.981-4.646-9.963-6.969-14.944-.816-1.752-3.402-.228-2.59,1.514 2.322,4.981 4.646,9.963 6.969,14.944 .816,1.752 3.402,.228 2.59-1.514z"/>
<path d="m215.808,127.92c-2.479-5.315-4.957-10.63-7.436-15.945-.816-1.752-3.402-.228-2.59,1.514 2.479,5.315 4.957,10.631 7.436,15.946 .816,1.752 3.402,.227 2.59-1.515z"/>
<path d="m177.418,100.834c3.378,7.245 6.757,14.49 10.135,21.735 1.907,4.088 7.939,.531 6.045-3.533-3.379-7.245-6.758-14.49-10.136-21.735-1.906-4.088-7.939-.53-6.044,3.533z"/>
<path d="m203.825,107.313c1.36,2.917 .432,6.229-2.074,7.397l-8.354,3.896c-2.506,1.168-5.639-.25-6.999-3.166l-4.342-9.311c-1.36-2.917-.431-6.228 2.075-7.396l8.354-3.896c2.506-1.168 5.64,.249 7,3.165l4.34,9.311z"/>
<path d="m201.553,97.87c1.262,2.706 2.523,5.411 3.784,8.117 .807,1.729 3.259,2.152 4.789,1.255 1.758-1.029 2.062-3.06 1.256-4.789-1.262-2.706-2.523-5.411-3.784-8.117-.807-1.729-3.259-2.152-4.789-1.255-1.758,1.03-2.062,3.06-1.256,4.789z"/>
<path d="m268.282,87.761c-2.322-4.981-4.646-9.962-6.969-14.943-.816-1.752-3.402-.228-2.59,1.514 2.322,4.981 4.646,9.963 6.969,14.944 .817,1.751 3.403,.227 2.59-1.515z"/>
<path d="m285.402,124.477c-2.479-5.315-4.957-10.63-7.436-15.945-.816-1.752-3.402-.228-2.59,1.514 2.479,5.315 4.957,10.631 7.436,15.946 .817,1.751 3.403,.227 2.59-1.515z"/>
<path d="m247.013,97.391c3.379,7.245 6.758,14.49 10.136,21.735 1.907,4.088 7.939,.531 6.045-3.533-3.379-7.245-6.758-14.49-10.136-21.735-1.908-4.088-7.94-.531-6.045,3.533z"/>
<path d="m273.42,103.87c1.36,2.916 .432,6.228-2.074,7.396l-8.354,3.896c-2.506,1.168-5.64-.249-7-3.166l-4.341-9.311c-1.36-2.916-.431-6.228 2.074-7.396l8.354-3.896c2.506-1.168 5.639,.249 6.999,3.165l4.342,9.312z"/>
<path d="m271.147,94.427c1.262,2.705 2.523,5.411 3.785,8.116 .807,1.729 3.259,2.152 4.789,1.255 1.758-1.029 2.062-3.06 1.256-4.789-1.262-2.705-2.523-5.411-3.785-8.116-.807-1.729-3.259-2.152-4.789-1.255-1.757,1.029-2.061,3.06-1.256,4.789z"/>
</g>
</svg>
