<svg xmlns="http://www.w3.org/2000/svg" viewBox="20 20 321 321">
<g fill="#000">
<path d="m84.09,162.513c8.917,1.522 17.833,3.045 26.749,4.567 4.414,.754 6.304-5.991 1.861-6.75-8.917-1.522-17.833-3.045-26.749-4.567-4.414-.754-6.304,5.991-1.861,6.75z"/>
<path d="m84.364,172.128c8.917,1.522 17.833,3.045 26.749,4.567 4.414,.753 6.304-5.991 1.861-6.75-8.917-1.522-17.833-3.045-26.749-4.567-4.413-.753-6.304,5.992-1.861,6.75z"/>
<path d="m84.364,181.47c8.917,1.522 17.833,3.045 26.749,4.567 4.414,.754 6.304-5.991 1.861-6.75-8.917-1.522-17.833-3.045-26.749-4.567-4.413-.754-6.304,5.991-1.861,6.75z"/>
<path d="m90.058,191.441c5.004,.854 10.008,1.708 15.012,2.563 4.414,.754 6.304-5.991 1.861-6.75-5.004-.854-10.008-1.708-15.012-2.563-4.414-.753-6.304,5.992-1.861,6.75z"/>
</g>
<path fill="none"  stroke="#000" stroke-width="10" d="m121.034,136.573c0,7.544-6.116,13.66-13.66,13.66h-18.214c-7.544,0-13.66-6.116-13.66-13.66v-48.569c0-7.544 6.116-13.66 13.66-13.66h18.213c7.544,0 13.66,6.116 13.66,13.66v48.569z"/>
<g fill="#000">
<path d="m289.346,72.354c-29.072,29.072-58.146,58.145-87.218,87.218-39.752,39.752-79.504,79.504-119.257,119.256-3.364,3.364-6.729,6.729-10.092,10.093-1.369,1.369 .752,3.49 2.121,2.121 29.073-29.072 58.145-58.146 87.218-87.218 39.752-39.752 79.504-79.504 119.257-119.257 3.363-3.364 6.728-6.728 10.092-10.092 1.369-1.369-.752-3.49-2.121-2.121z"/>
<path d="m289.348,122.516c-33.274,33.275-66.55,66.549-99.824,99.825-22.032,22.032-44.064,44.064-66.096,66.097-1.369,1.369 .752,3.49 2.121,2.121 33.275-33.274 66.55-66.55 99.824-99.824 22.032-22.033 44.063-44.065 66.096-66.097 1.369-1.37-.752-3.491-2.121-2.122z"/>
<path d="m291.204,93.918c-.553-.553-1.105-1.106-1.658-1.659-.381-.38-.761-.76-1.141-1.14-.395-.395-.509-.303-.229-.648 .981-1.208 2.255-2.254 3.355-3.355 1.369-1.369-.752-3.49-2.121-2.121-1.356,1.356-4.405,3.459-4.405,5.601 0,2.254 2.62,3.985 4.078,5.443 1.369,1.369 3.49-.752 2.121-2.121z"/>
<path d="m287,92.283c-.481,.481-.963,.963-1.444,1.444-.578,.578-.578,1.543 0,2.121 .578,.578 1.543,.578 2.121,0 .481-.481 .963-.963 1.444-1.444 .578-.578 .578-1.543 0-2.121-.578-.578-1.543-.578-2.121,0z"/>
<path d="m260.997,137.899c-1.162,.76-3.618-2.663-4.64-3.684-1.878-1.878-3.757-3.757-5.636-5.635-.665-.666 2.538-3.192 3.184-3.837 1.896-1.896 3.791-3.791 5.687-5.686 .53-.53 9.005,8.479 10.246,9.72 .22,.219-8.142,8.354-9.145,9.358-1.369,1.369 .752,3.49 2.121,2.121 2.464-2.463 4.928-4.927 7.393-7.391 1.521-1.522 4.073-3.889 1.891-6.071-2.575-2.575-5.15-5.15-7.725-7.725-1.957-1.957-3.638-4.327-6.544-2.423-2.67,1.749-4.935,4.865-7.183,7.113-1.538,1.538-4.795,4.193-2.453,6.535 2.407,2.407 4.814,4.814 7.221,7.221 2.063,2.062 3.979,5.014 7.097,2.975 1.612-1.054 .11-3.653-1.514-2.591z"/>
<path d="m249.428,129.854c-.481,.481-.963,.963-1.444,1.445-.578,.578-.578,1.543 0,2.121 .578,.578 1.543,.578 2.121,0 .481-.481 .963-.963 1.444-1.445 .578-.578 .578-1.543 0-2.121-.578-.578-1.543-.578-2.121,0z"/>
<path d="m256.763,137.19c-.481,.481-.963,.962-1.444,1.444-.578,.578-.578,1.543 0,2.121 .578,.578 1.543,.578 2.121,0 .481-.481 .963-.962 1.444-1.444 .578-.578 .578-1.543 0-2.121-.578-.578-1.543-.578-2.121,0z"/>
<path d="m262.676,116.605c-.481,.481-.962,.963-1.443,1.445-.578,.578-.578,1.543 0,2.121 .577,.578 1.544,.578 2.121,0 .481-.481 .962-.963 1.443-1.445 .578-.578 .578-1.543 0-2.121-.577-.578-1.544-.578-2.121,0z"/>
<path d="m270.012,123.94c-.481,.481-.963,.963-1.444,1.445-.578,.578-.578,1.543 0,2.121 .578,.578 1.543,.578 2.121,0 .481-.481 .963-.963 1.444-1.445 .578-.578 .578-1.543 0-2.121-.578-.578-1.543-.578-2.121,0z"/>
<path d="m223.426,175.472c-1.163,.76-3.619-2.664-4.64-3.685-1.878-1.878-3.757-3.757-5.635-5.636-.667-.667 2.536-3.192 3.182-3.837 1.896-1.896 3.791-3.791 5.687-5.686 .531-.531 9.006,8.479 10.247,9.72 .218,.217-8.142,8.354-9.145,9.358-1.369,1.369 .752,3.49 2.121,2.121 2.464-2.464 4.928-4.928 7.392-7.392 1.521-1.522 4.073-3.889 1.892-6.07-2.575-2.575-5.15-5.15-7.725-7.725-1.958-1.958-3.637-4.325-6.545-2.423-2.67,1.747-4.936,4.866-7.183,7.113-1.539,1.54-4.793,4.192-2.451,6.535 2.406,2.407 4.813,4.814 7.22,7.221 2.063,2.063 3.978,5.015 7.097,2.976 1.612-1.053 .11-3.652-1.514-2.59z"/>
<path d="m211.855,167.426c-.481,.481-.964,.963-1.445,1.444-.578,.578-.578,1.543 0,2.121 .578,.578 1.543,.578 2.121,0 .481-.481 .964-.963 1.445-1.444 .578-.578 .578-1.543 0-2.121-.578-.578-1.542-.577-2.121,0z"/>
<path d="m219.191,174.762c-.481,.481-.964,.963-1.445,1.444-.578,.578-.578,1.543 0,2.121 .578,.578 1.543,.578 2.121,0 .481-.481 .964-.963 1.445-1.444 .578-.578 .578-1.543 0-2.121-.578-.578-1.542-.578-2.121,0z"/>
<path d="m225.104,154.177c-.481,.481-.963,.962-1.444,1.444-.578,.578-.578,1.543 0,2.121 .578,.578 1.543,.578 2.121,0 .481-.481 .963-.962 1.444-1.444 .578-.578 .578-1.543 0-2.121-.578-.578-1.542-.578-2.121,0z"/>
<path d="m232.44,161.513c-.481,.481-.963,.962-1.444,1.444-.578,.578-.578,1.543 0,2.121 .578,.578 1.543,.578 2.121,0 .481-.481 .963-.962 1.444-1.444 .578-.578 .578-1.543 0-2.121-.578-.578-1.542-.578-2.121,0z"/>
<path d="m185.854,213.044c-1.162,.759-3.618-2.663-4.64-3.685-1.878-1.879-3.757-3.757-5.635-5.636-.666-.666 2.537-3.192 3.182-3.838 1.896-1.896 3.791-3.791 5.686-5.687 .53-.53 9.007,8.48 10.247,9.721 .218,.218-8.141,8.354-9.144,9.358-1.369,1.369 .752,3.49 2.121,2.121 2.464-2.464 4.928-4.929 7.392-7.393 1.521-1.521 4.072-3.888 1.891-6.069-2.575-2.575-5.15-5.15-7.725-7.726-1.958-1.958-3.636-4.324-6.545-2.423-2.67,1.744-4.935,4.866-7.182,7.113-1.539,1.539-4.794,4.193-2.452,6.535 2.407,2.407 4.814,4.814 7.221,7.222 2.063,2.063 3.977,5.013 7.096,2.975 1.613-1.051 .112-3.65-1.513-2.588z"/>
<path d="m174.284,204.998c-.481,.481-.963,.963-1.444,1.444-.578,.578-.578,1.543 0,2.121 .578,.578 1.543,.578 2.121,0 .481-.481 .963-.963 1.444-1.444 .578-.578 .578-1.543 0-2.121-.578-.578-1.544-.578-2.121,0z"/>
<path d="m181.619,212.333c-.481,.481-.962,.963-1.443,1.444-.578,.578-.578,1.543 0,2.121 .578,.578 1.544,.578 2.121,0 .481-.481 .962-.963 1.443-1.444 .578-.578 .578-1.543 0-2.121s-1.544-.578-2.121,0z"/>
<path d="m187.533,191.749c-.481,.481-.963,.963-1.444,1.444-.578,.578-.578,1.543 0,2.121s1.543,.578 2.121,0c.481-.481 .963-.963 1.444-1.444 .578-.578 .578-1.543 0-2.121s-1.543-.578-2.121,0z"/>
<path d="m194.869,199.084c-.481,.481-.964,.963-1.445,1.444-.578,.577-.578,1.544 0,2.121 .578,.578 1.543,.578 2.121,0 .481-.481 .964-.963 1.445-1.444 .578-.577 .578-1.543 0-2.121s-1.543-.578-2.121,0z"/>
<path d="m148.282,250.615c-1.163,.761-3.619-2.663-4.64-3.685-1.878-1.879-3.757-3.757-5.635-5.636-.666-.666 2.537-3.192 3.183-3.838 1.896-1.896 3.791-3.79 5.687-5.686 .53-.53 9.005,8.479 10.246,9.72 .218,.219-8.141,8.354-9.144,9.358-1.369,1.369 .752,3.49 2.121,2.121 2.464-2.464 4.928-4.928 7.391-7.392 1.522-1.522 4.074-3.889 1.892-6.07-2.575-2.575-5.15-5.149-7.725-7.725-1.957-1.957-3.637-4.326-6.544-2.423-2.67,1.747-4.935,4.864-7.183,7.112-1.539,1.538-4.794,4.193-2.453,6.535 2.407,2.407 4.814,4.814 7.221,7.222 2.062,2.062 3.979,5.016 7.097,2.975 1.612-1.052 .11-3.651-1.514-2.588z"/>
<path d="m136.712,242.57c-.481,.481-.963,.962-1.444,1.443-.578,.577-.578,1.543 0,2.121 .578,.578 1.543,.578 2.121,0 .481-.481 .963-.962 1.444-1.443 .578-.577 .578-1.543 0-2.121-.578-.578-1.543-.578-2.121,0z"/>
<path d="m144.048,249.905c-.482,.481-.963,.963-1.445,1.444-.578,.578-.578,1.543 0,2.121 .578,.578 1.543,.578 2.121,0 .482-.481 .963-.963 1.445-1.444 .578-.578 .578-1.543 0-2.121-.578-.578-1.543-.578-2.121,0z"/>
<path d="m149.961,229.32c-.482,.481-.963,.963-1.445,1.444-.578,.578-.578,1.543 0,2.121 .578,.578 1.543,.578 2.121,0 .482-.481 .963-.963 1.445-1.444 .578-.578 .578-1.543 0-2.121-.577-.578-1.543-.578-2.121,0z"/>
<path d="m157.297,236.656c-.482,.481-.963,.962-1.445,1.443-.578,.577-.578,1.544 0,2.121 .578,.578 1.543,.578 2.121,0 .482-.481 .963-.962 1.445-1.443 .578-.577 .578-1.544 0-2.121-.578-.578-1.543-.578-2.121,0z"/>
<path d="m110.711,288.188c-1.164,.761-3.618-2.661-4.641-3.685-1.878-1.879-3.757-3.758-5.636-5.637-.665-.665 2.538-3.19 3.184-3.837 1.896-1.896 3.791-3.79 5.686-5.686 .53-.53 9.005,8.479 10.246,9.72 .22,.221-8.139,8.354-9.143,9.358-1.369,1.369 .752,3.49 2.121,2.121 2.464-2.464 4.928-4.928 7.392-7.392 1.522-1.522 4.072-3.889 1.89-6.07-2.575-2.575-5.149-5.149-7.724-7.725-1.957-1.957-3.637-4.326-6.544-2.423-2.67,1.747-4.934,4.864-7.182,7.112-1.538,1.538-4.794,4.192-2.453,6.534 2.407,2.407 4.814,4.815 7.221,7.223 2.063,2.063 3.979,5.016 7.098,2.975 1.61-1.052 .109-3.651-1.515-2.588z"/>
<path d="m99.14,280.143c-.482,.481-.963,.962-1.445,1.443-.578,.577-.578,1.544 0,2.121 .578,.578 1.543,.578 2.121,0 .482-.481 .963-.962 1.445-1.443 .578-.577 .578-1.544 0-2.121-.578-.579-1.543-.579-2.121,0z"/>
<path d="m106.476,287.479c-.481,.48-.963,.962-1.444,1.442-.579,.577-.578,1.544 0,2.121 .578,.578 1.543,.577 2.121,0 .481-.48 .963-.962 1.444-1.442 .579-.577 .578-1.544 0-2.121-.578-.579-1.543-.578-2.121,0z"/>
<path d="m112.389,266.893c-.481,.481-.963,.963-1.444,1.444-.578,.578-.578,1.543 0,2.121 .578,.578 1.543,.578 2.121,0 .481-.481 .963-.963 1.444-1.444 .578-.578 .578-1.543 0-2.121-.577-.579-1.543-.579-2.121,0z"/>
<path d="m119.724,274.229c-.481,.481-.962,.962-1.443,1.443-.578,.578-.578,1.543 0,2.121 .578,.578 1.543,.578 2.121,0 .481-.481 .962-.962 1.443-1.443 .578-.578 .578-1.543 0-2.121-.577-.579-1.543-.579-2.121,0z"/>
<path d="m275.035,108.659c1.681,1.681 3.362,3.362 5.043,5.043 1.369,1.369 3.49-.752 2.121-2.121-1.681-1.681-3.362-3.362-5.043-5.043-1.369-1.369-3.49,.752-2.121,2.121z"/>
<path d="m199.042,184.653c1.681,1.681 3.362,3.362 5.043,5.043 1.369,1.369 3.49-.752 2.121-2.121-1.681-1.681-3.362-3.362-5.043-5.043-1.369-1.369-3.49,.752-2.121,2.121z"/>
<path d="m123.912,259.784c1.681,1.681 3.362,3.361 5.043,5.042 1.369,1.369 3.491-.752 2.121-2.121-1.681-1.681-3.362-3.361-5.043-5.042-1.369-1.369-3.491,.752-2.121,2.121z"/>
<path d="m192.324,249.607c6.24,0 11.02,1.109 14.34,3.33 3.32,2.22 4.98,5.67 4.98,10.35 0,2.92-.67,5.29-2.01,7.109-1.342,1.821-3.271,3.251-5.791,4.291 .84,1.04 1.72,2.23 2.641,3.569 .92,1.341 1.83,2.74 2.73,4.2 .899,1.461 1.77,2.98 2.609,4.561s1.62,3.13 2.34,4.649h-10.463c-.764-1.359-1.537-2.739-2.32-4.14-.782-1.4-1.585-2.76-2.408-4.08-.822-1.32-1.637-2.57-2.439-3.75s-1.606-2.25-2.409-3.211h-4.62v15.181h-9.36v-40.979c2.04-.4 4.149-.68 6.331-.84 2.179-.159 4.129-.24 5.849-.24zm.54,7.98c-.681,0-1.29,.021-1.83,.06-.54,.041-1.05,.081-1.53,.121v11.279h2.641c3.52,0 6.039-.439 7.56-1.32 1.521-.879 2.28-2.379 2.28-4.5 0-2.039-.771-3.488-2.311-4.35-1.54-.859-3.81-1.29-6.81-1.29z"/>
<path d="m238.364,257.287c-4.36,0-7.511,1.21-9.45,3.63-1.94,2.421-2.91,5.729-2.91,9.931 0,2.039 .24,3.891 .721,5.549 .479,1.66 1.199,3.09 2.16,4.291 .959,1.199 2.159,2.129 3.6,2.789 1.439,.66 3.119,.99 5.04,.99 1.04,0 1.929-.02 2.67-.06 .739-.04 1.39-.12 1.95-.24v-14.46h9.359v20.58c-1.12,.44-2.92,.91-5.4,1.41s-5.54,.75-9.18,.75c-3.119,0-5.95-.48-8.49-1.44s-4.709-2.359-6.51-4.2c-1.8-1.839-3.189-4.1-4.17-6.779s-1.47-5.74-1.47-9.18c0-3.48 .54-6.561 1.62-9.24s2.559-4.95 4.439-6.811c1.88-1.859 4.09-3.27 6.631-4.23 2.539-.959 5.25-1.439 8.129-1.439 1.96,0 3.73,.131 5.311,.391s2.939,.561 4.08,.899c1.141,.341 2.08,.69 2.82,1.05 .739,.36 1.27,.641 1.59,.84l-2.7,7.5c-1.28-.68-2.751-1.27-4.41-1.77-1.66-.501-3.47-.751-5.43-.751z"/>
<path d="m272.064,292.207c-2.28,0-4.551-.07-6.811-.21-2.26-.141-4.61-.47-7.05-.99v-40.319c1.921-.36 4.021-.631 6.3-.811 2.28-.18 4.4-.27 6.36-.27 2.64,0 5.069,.189 7.29,.569 2.221,.381 4.13,1.03 5.73,1.95 1.6,.921 2.85,2.13 3.75,3.63 .899,1.5 1.35,3.351 1.35,5.55 0,3.32-1.601,5.94-4.801,7.86 2.641,1.001 4.441,2.36 5.4,4.08 .961,1.72 1.44,3.66 1.44,5.819 0,4.361-1.591,7.641-4.771,9.841s-7.907,3.301-14.187,3.301zm-4.74-25.8h4.561c2.879,0 4.939-.37 6.18-1.11 1.239-.74 1.859-1.93 1.859-3.57 0-1.68-.64-2.859-1.92-3.539s-3.16-1.021-5.64-1.021c-.801,0-1.66,.011-2.58,.03-.921,.021-1.739,.07-2.46,.15v9.06zm0,7.14v10.74c.68,.08 1.42,.141 2.221,.18 .799,.041 1.68,.061 2.639,.061 2.801,0 5.061-.4 6.781-1.2 1.719-.8 2.58-2.28 2.58-4.44 0-1.92-.721-3.289-2.16-4.109-1.44-.82-3.501-1.23-6.181-1.23h-5.88z"/>
</g>
</svg>
