<svg xmlns="http://www.w3.org/2000/svg" viewBox="20 20 321 321">
<g fill="#000">
<path d="m84.09,163.513c8.917,1.522 17.833,3.045 26.749,4.567 4.414,.754 6.304-5.991 1.861-6.75-8.917-1.522-17.833-3.045-26.749-4.567-4.414-.754-6.304,5.991-1.861,6.75z"/>
<path d="m84.364,173.128c8.917,1.522 17.833,3.045 26.749,4.567 4.414,.753 6.304-5.991 1.861-6.75-8.917-1.522-17.833-3.045-26.749-4.567-4.413-.753-6.304,5.992-1.861,6.75z"/>
<path d="m84.364,182.47c8.917,1.522 17.833,3.045 26.749,4.567 4.414,.754 6.304-5.991 1.861-6.75-8.917-1.522-17.833-3.045-26.749-4.567-4.413-.754-6.304,5.991-1.861,6.75z"/>
<path d="m90.058,192.441c5.004,.854 10.008,1.708 15.012,2.563 4.414,.754 6.304-5.991 1.861-6.75-5.004-.854-10.008-1.708-15.012-2.563-4.414-.753-6.304,5.992-1.861,6.75z"/>
</g>
<path fill="none"  stroke="#000" stroke-width="10" d="m121.034,137.573c0,7.544-6.116,13.66-13.66,13.66h-18.214c-7.544,0-13.66-6.116-13.66-13.66v-48.569c0-7.544 6.116-13.66 13.66-13.66h18.213c7.544,0 13.66,6.116 13.66,13.66v48.569z"/>
<g fill="#000">
<path d="m250.629,75.485c0,10.625 0,21.251 0,31.877 0,4.514 7,4.514 7,0 0-10.625 0-21.251 0-31.877 0-4.514-7-4.514-7,0z"/>
<path d="m232.19,125.396c8.025-5.127 16.051-10.255 24.076-15.383-1.178,0-2.355,0-3.533,0 8.024,5.128 16.05,10.255 24.074,15.383 .589-2.174 1.178-4.348 1.767-6.522-16.05,0-32.101,0-48.15,0-4.514,0-4.514,7 0,7 16.05,0 32.101,0 48.15,0 3.579,0 4.648-4.681 1.767-6.522-8.024-5.128-16.05-10.255-24.074-15.383-1.013-.647-2.521-.647-3.533,0-8.025,5.127-16.051,10.255-24.076,15.383-3.791,2.422-.284,8.482 3.532,6.044z"/>
<path  stroke="#000" d="m266.119,75.485c0,2.661-2.158,4.817-4.818,4.817h-13.604c-2.66,0-4.817-2.157-4.817-4.817 0-2.661 2.157-4.818 4.817-4.818h13.604c2.66,0 4.818,2.157 4.818,4.818z"/>
<path d="m231.634,178.261c15.207,0 30.415,0 45.623,0 9.686,0 9.771-15.003 .107-15.003-15.207,0-30.415,0-45.623,0-9.685,0-9.771,15.003-.107,15.003z"/>
<path d="m240.867,292.641c9.088,0 18.176,0 27.264,0 6.448,0 6.448-10 0-10-9.088,0-18.176,0-27.264,0-6.448,0-6.448,10 0,10z"/>
<path d="m263.131,173.155c0,38.22 0,76.44 0,114.66 0,6.448 10,6.448 10,0 0-38.22 0-76.439 0-114.66 0-6.449-10-6.449-10,0z"/>
<path d="m235.867,173.155c0,38.092 0,76.185 0,114.278 0,6.448 10,6.448 10,0 0-38.093 0-76.186 0-114.278 0-6.449-10-6.449-10,0z"/>
<path d="m187.833,288.167c0-23.367 0-46.733 0-70.101 0-4.514-7-4.514-7,0 0,23.367 0,46.733 0,70.101 0,4.514 7,4.514 7,0z"/>
<path d="m209.833,288.167c0-23.367 0-46.733 0-70.101 0-4.514-7-4.514-7,0 0,23.367 0,46.733 0,70.101 0,4.514 7,4.514 7,0z"/>
<path d="m184.279,221.568c7.333,0 14.666,0 22,0 9.686,0 9.771-15.004 .107-15.004-7.333,0-14.666,0-22,0-9.685-0-9.771,15.004-.107,15.004z"/>
<path d="m184.333,273.667c7.333,0 14.667,0 22,0 4.514,0 4.514-7 0-7-7.333,0-14.667,0-22,0-4.514,0-4.514,7 0,7z"/>
<path d="m184.333,231.312c7.333,0 14.667,0 22,0 4.514,0 4.514-7 0-7-7.333,0-14.667,0-22,0-4.514,0-4.514,7 0,7z"/>
</g>
</svg>
