<svg xmlns="http://www.w3.org/2000/svg" viewBox="20 20 321 321">
<g fill="#000">
<path d="m83.84,163.013c8.917,1.522 17.833,3.045 26.749,4.567 4.414,.754 6.304-5.991 1.861-6.75-8.917-1.522-17.833-3.045-26.749-4.567-4.414-.754-6.304,5.991-1.861,6.75z"/>
<path d="m84.114,172.628c8.917,1.522 17.833,3.045 26.749,4.567 4.414,.753 6.304-5.991 1.861-6.75-8.917-1.522-17.833-3.045-26.749-4.567-4.413-.753-6.304,5.992-1.861,6.75z"/>
<path d="m84.114,181.97c8.917,1.522 17.833,3.045 26.749,4.567 4.414,.754 6.304-5.991 1.861-6.75-8.917-1.522-17.833-3.045-26.749-4.567-4.413-.754-6.304,5.991-1.861,6.75z"/>
<path d="m89.808,191.941c5.004,.854 10.008,1.708 15.012,2.563 4.414,.754 6.304-5.991 1.861-6.75-5.004-.854-10.008-1.708-15.012-2.563-4.414-.753-6.304,5.992-1.861,6.75z"/>
</g>
<g fill="none"  stroke="#000" stroke-width="10">
<path d="m120.784,137.073c0,7.544-6.116,13.66-13.66,13.66h-18.214c-7.544,0-13.66-6.116-13.66-13.66v-48.569c0-7.544 6.116-13.66 13.66-13.66h18.213c7.544,0 13.66,6.116 13.66,13.66v48.569z"/>
<g stroke-linejoin="round" stroke-linecap="round">
<path d="m143.476,269.365 32.87,17.281-6.279-36.601 26.593-25.921-36.749-5.341-16.435-33.301-16.435,33.301-36.75,5.341 26.593,25.921-6.279,36.601z"/>
<path d="m143.476,254.75 16.435,8.641-3.14-18.301 13.297-12.961-18.375-2.67-8.217-16.65-8.218,16.65-18.375,2.67 13.297,12.961-3.139,18.301z"/>
<path d="m153.634,205.949c0-56.362 58.865-101.969 131.61-101.969"/>
<path d="m158.377,217.213c0-31.785 56.744-57.505 126.867-57.505"/>
<path d="m285.244,159.708c0-6.881-15.947-12.45-41.834-12.45"/>
<path d="m243.41,147.258c0-6.226 26.728-15.264 42.457-15.264"/>
<path d="m285.867,131.994c0-4.26-33.689-7.707-43.193-7.707"/>
<path d="m242.674,124.287c8.186-9.635 17.078-16.75 42.57-20.307"/>
</g>
</g>
</svg>
