<svg xmlns="http://www.w3.org/2000/svg" viewBox="20 20 321 321">
<g fill="#000">
	<path style="stroke-width:0" d="M86.69 269.414h187.072V291H86.69zM180.472 70 70 135.319l4.94 8.77L180.5 81.674l105.562 62.415 4.937-8.77L180.528 70l-.03.046-.03-.046zM135.25 75.505h-9.462V97.3l9.462-5.561z"/>
	<path aria-label="SH" stroke-width="1.04" d="M157.92 145.871v21.33q-8.05-3.713-15.708-5.603-7.657-1.89-14.465-1.89-9.032 0-13.352 2.565t-4.32 7.965q0 4.05 2.88 6.345 2.945 2.227 10.603 3.847l10.734 2.228q16.298 3.375 23.17 10.26 6.873 6.884 6.873 19.574 0 16.671-9.621 24.84-9.556 8.099-29.257 8.099-9.295 0-18.654-1.823-9.36-1.822-18.72-5.4v-21.936q9.36 5.13 18.065 7.762 8.77 2.565 16.887 2.565 8.246 0 12.632-2.835 4.385-2.835 4.385-8.1 0-4.725-3.01-7.29-2.946-2.565-11.847-4.59l-9.753-2.227q-14.66-3.24-21.468-10.327-6.742-7.087-6.742-19.102 0-15.052 9.425-23.152 9.425-8.1 27.097-8.1 8.05 0 16.56 1.283 8.508 1.215 17.606 3.712zM186.52 142.696h25.2v38.406h37.176v-38.406h25.199v100.77h-25.199v-42.725H211.72v42.726h-25.2z"/>
</g>
</svg>