<svg xmlns="http://www.w3.org/2000/svg" viewBox="20 20 321 321">
  <g fill="#000" transform="matrix(7.4623237,0,0,7.6463286,70,64.553214)">
    <g style="stroke-width:0">
      <path d="m 2.2365,26.792 h 25.069 v 2.8231 H 2.2365 Z" />
      <path d="M 14.804,0.71234 0,9.25484 l 0.66188,1.147 14.146,-8.1627 14.146,8.1627 0.66156,-1.147 -14.804,-8.5425 -0.004,0.006 -0.004,-0.006 z" />
      <path d="M 8.7439,1.4323 H 7.476 V 4.2827 L 8.7439,3.55537 Z" />
    </g>
    <g aria-label="SH" font-variant-ligatures="normal" font-variant-caps="normal" font-variant-numeric="normal" font-feature-settings="normal" 
		stroke-width="1.03970003px" transform="scale(0.99678,1.0032)">
      <path d="m 11.82,10.601 v 2.7806 Q 10.7377,12.89764 9.7082,12.65126 8.6787,12.40488 7.7635,12.40488 q -1.2143,0 -1.7951,0.33438 -0.58076,0.33437 -0.58076,1.0383 0,0.52796 0.38717,0.82714 0.39597,0.29038 1.4255,0.50156 l 1.4431,0.29038 q 2.191,0.43997 3.115,1.3375 0.92393,0.89753 0.92393,2.5518 0,2.1734 -1.2935,3.2382 -1.2847,1.0559 -3.9333,1.0559 -1.2495,0 -2.5078,-0.23758 -1.2583,-0.23758 -2.5166,-0.70395 v -2.8598 q 1.2583,0.66875 2.4286,1.0119 1.1791,0.33437 2.2702,0.33437 1.1087,0 1.6983,-0.36957 0.58955,-0.36957 0.58955,-1.0559 0,-0.61595 -0.40477,-0.95033 -0.39597,-0.33437 -1.5927,-0.59835 l -1.3111,-0.29038 q -1.971,-0.42237 -2.8862,-1.3463 -0.90633,-0.92393 -0.90633,-2.4902 0,-1.9622 1.2671,-3.0182 1.2671,-1.0559 3.6429,-1.0559 1.0823,0 2.2262,0.16719 1.1439,0.15839 2.367,0.48396 z" />
      <path d="m 15.665,10.187 h 3.3877 v 5.0068 h 4.998 V 10.187 h 3.3877 v 13.137 h -3.3877 v -5.57 h -4.998 v 5.57 H 15.665 Z" />
    </g>
  </g>
</svg>
