<svg xmlns="http://www.w3.org/2000/svg" viewBox="20 20 321 321">
<g fill="none" stroke="#000" >
  <path stroke-width="10" d="m 163.3763,280.59064 c -18.78061,-0.26493 -20.06584,-0.37352 -25.95534,-2.19262 -10.56246,-3.26271 -17.75754,-11.23449 -19.9893,-22.14711 -0.83902,-4.1029 -1.19095,-12.19286 -0.81606,-18.77463 0.3648,-6.41213 1.06309,-10.96565 2.89369,-18.86875 6.47522,-27.95777 17.57593,-50.81475 34.15575,-70.32958 2.46208,-2.89741 3.3018,-4.11053 3.71896,-5.37042 0.80614,-2.43485 0.73203,-2.75261 -0.82023,-3.52725 -3.25483,-1.62343 -2.97162,-7.6319 -0.3307,-8.79102 0,0 1.12171,-0.85428 1.12171,-0.85428 0,0 -1.30924,-3.10813 -1.30924,-3.10813 -1.63734,-3.8861 -3.35487,-7.10675 -7.27858,-13.65037 -5.07327,-8.45977 -6.29866,-9.35846 -7.85788,-22.619446 -0.66471,-5.653932 -0.67863,-5.484095 -0.27434,-7.212989 1.29689,-5.543969 9.51104,-1.105703 13.35561,-0.969128 1.71387,0.114072 2.70528,1.424048 5.49059,1.879556 2.78531,0.455899 6.53072,0.925299 8.32305,1.043481 4.11508,0.270996 5.71727,-0.161815 11.51195,-3.108332 4.8485,-2.465377 7.12115,-1.502315 9.98178,-1.493901 4.36993,0.01291 7.48612,-0.106638 13.44815,5.079068 1.98526,1.726743 4.23511,3.566971 4.9995,4.089396 1.98265,1.355175 3.91659,1.300193 8.08907,-0.23108 1.77042,-0.649412 4.56234,-1.904211 5.1839,-1.904211 2.35667,0 3.90546,3.366023 3.90546,5.978736 0,1.566102 -2.35702,7.99761 -3.33695,9.93097 -1.91132,3.77261 -4.70776,7.75342 -13.34829,16.51001 -2.24951,2.28008 -4.09038,4.25121 -4.09038,4.38074 0,0.12914 0.40742,0.42655 0.9053,0.66037 0.49788,0.23401 1.48755,1.02372 2.19975,1.75511 0.71203,0.73159 1.41484,1.33013 1.56184,1.33013 0.14717,0 1.41744,-1.49449 2.82306,-3.32102 2.00004,-2.5994 2.77313,-3.8861 3.55735,-5.91984 1.11997,-2.90602 2.0531,-3.92112 3.60415,-3.92112 1.26384,0 2.39459,0.79635 3.01825,2.1255 1.2433,2.64989 0.0543,6.49745 -3.76698,12.19169 -0.93331,1.39078 -1.69683,2.59843 -1.69683,2.68413 0,0.0853 0.78857,0.49386 1.75267,0.90769 8.48379,3.64152 14.05371,9.65254 15.40279,16.62271 0.65462,3.38167 -0.78196,5.96602 -3.31624,5.96602 -1.73789,0 -2.4981,-0.81965 -3.56623,-3.84521 -0.59512,-1.68565 -1.27097,-2.91599 -2.27473,-4.14086 -2.37615,-2.90034 -7.20465,-5.6461 -13.00141,-7.39339 0,0 -2.0164,-0.60793 -2.0164,-0.60793 0,0 -1.35952,1.83475 -1.35952,1.83475 -0.74786,1.00924 -1.82712,2.13842 -2.39841,2.5096 -0.57147,0.37117 -1.08222,0.70615 -1.13528,0.74431 -0.0531,0.0378 1.6008,2.3918 3.67547,5.2309 13.35543,18.27647 23.72202,37.17124 28.86051,52.60333 1.87323,5.62673 4.61035,16.11065 5.8961,22.58461 1.48738,7.49006 1.95934,14.68328 1.52861,23.28725 -0.3314,6.61602 -0.85154,9.6635 -2.27473,13.33046 -3.71288,9.56644 -11.07409,15.56318 -22.14417,18.03893 -2.95371,0.66056 -4.69612,0.75174 -19.73011,1.03213 -9.06987,0.16925 -17.04064,-0.19449 -17.82625,-0.21914 -0.78562,-0.0247 -9.40927,0.32617 -19.05044,0.19018 0,0 0,0 0,0" />
  <path stroke-width="3" d="m 143.45126,276.08292 c 13.772,-0.67504 24.03593,-9.49736 30.28794,-18.00611" />
  <path stroke-width="3" d="m 213.55115,276.54989 c -13.772,-0.67504 -24.03593,-9.49736 -30.28794,-18.00611" />
  <path stroke-width="10" fill="none" d="m 156.23307,130.58926 c 14.77099,5.80251 26.25137,9.20731 41.02236,2.49108 -4.11915,6.92664 -1.85002,8.39596 -1.41026,8.93168 -14.72946,5.82011 -24.75803,1.29198 -39.48748,-1.41026" />
  <path stroke-width="10" d="m 207.18814,121.38786 c -15.06638,15.83643 -8.76459,18.28959 -0.47009,20.68392" />
  <path stroke-width="10" d="m 208.32327,128.7849 c -2.07585,4.75261 -1.60901,8.23387 1.01125,10.63843" />
</g>
</svg>
