<svg xmlns="http://www.w3.org/2000/svg" viewBox="20 20 321 321">
<g fill="#000">
<path d="m106.147,125.746c-24.31,24.903-24.31,64.6 0,89.502 3.158,3.234 8.104-1.719 4.95-4.949-21.646-22.174-21.646-57.429 0-79.603 3.154-3.231-1.792-8.184-4.95-4.95z"/>
<path d="m94.006,114.561c-30.503,31.089-30.501,81.123 .001,112.211 3.166,3.227 8.112-1.727 4.95-4.949-27.838-28.372-27.839-73.939-.001-102.312 3.163-3.224-1.784-8.177-4.95-4.95z"/>
<path d="m255.827,215.588c24.31-24.904 24.312-64.6 0-89.504-3.157-3.234-8.104,1.719-4.949,4.95 21.646,22.175 21.646,57.429 0,79.604-3.154,3.231 1.792,8.184 4.949,4.95z"/>
<path d="m267.968,226.771c30.502-31.088 30.502-81.123 0-112.211-3.165-3.226-8.112,1.727-4.949,4.95 27.836,28.372 27.837,73.939 0,102.312-3.164,3.223 1.784,8.176 4.949,4.949z"/>
<path d="m209.12,197.84c.194,7.243-7.534,5.738-12.351,5.738-7.126,0-14.252,0-21.377,0-5.848,0-11.696,0-17.544,0-2.86,0-5.18-.481-6.276-3.767-.896-2.688 .944-7.238 1.657-9.871 .843-3.117 1.924-6.172 2.999-9.215 2.004-5.676 4.18-11.284 5.948-17.041 1.464-4.765 1.766-9.789 3.372-14.483 1.353-3.958 3.463-8.065 6.167-11.27 1.737-2.058 4.08-1.271 6.74-1.271 2.305,0 7.58-.85 9.326,.142 3.063,1.741 5.051,7.12 6.424,10.136 1.989,4.372 2.268,9.114 3.414,13.726 3.126,12.571 9.778,24.242 11.501,37.176 .587,4.407 7.595,4.464 7,0-1.741-13.078-7.695-24.958-11.344-37.532-1.345-4.635-1.615-9.44-3.304-13.97-1.655-4.44-3.894-8.971-6.965-12.61-3.099-3.672-5.777-4.068-10.45-4.068-4.963,0-11.995-1.577-16.046,2.1-6.804,6.175-9.339,15.446-11.036,24.07-2.582,13.123-9.311,25.05-11.896,38.195-1.645,8.365 2.295,16.554 11.686,16.554 13.583,0 27.165,0 40.747,0 2.417,0 4.835,0 7.252,0 6.908,0 11.529-6.26 11.355-12.738-.12-4.506-7.12-4.518-6.999-.001z"/>
</g>
<path fill="none"  stroke="#000" stroke-width="10" d="m232.824,281.167c0,3.407-2.712,6.167-6.058,6.167h-92.89c-3.346,0-6.058-2.76-6.058-6.167v-200.096c0-3.406 2.712-6.167 6.058-6.167h92.89c3.346,0 6.058,2.761 6.058,6.167v200.096z"/>
<path fill="#000" d="m129.818,185.922c3.333,0 6.667,0 10,0 6.449,0 6.449-10 0-10-3.333,0-6.667,0-10,0-6.448,0-6.448,10 0,10z"/>
<path fill="none"  stroke="#000" stroke-width="10" d="m231.152,280.256c0-3.314-2.688-6-6-6h-91.334c-3.313,0-6,2.686-6,6v.666c0,3.313 2.687,6 6,6h91.334c3.313,0 6-2.687 6-6v-.666z"/>
<path fill="#000" d="m129.822,186.332c3.338,0 6.676,0 10.014,0 4.514,0 4.514-7 0-7-3.338,0-6.676,0-10.014,0-4.514,0-4.514,7 0,7z"/>
</svg>
