<svg xmlns="http://www.w3.org/2000/svg" viewBox="20 20 321 321">
<g fill="#000">
<path d="m260.742,70.103c-49.377,0-98.754,0-148.131,0-7.991,0-16.426-.756-23.975,2.324-10.101,4.122-17.324,13.512-18.742,24.32-.46,3.504-.315,7.06-.315,10.588 0,26.499 0,52.998 0,79.496 0,17.464 13.074,31.397 30.677,31.856 7.887,.206 15.807,0 23.695,0 22.947,0 45.893,0 68.84,0-1.179-.488-2.357-.977-3.535-1.465 20.53,24.182 41.062,48.362 61.593,72.543 3.618,4.263 9.017-.485 8.356-4.864-3.644-24.181-7.286-48.362-10.93-72.543-1.607,2.109-3.214,4.22-4.821,6.329 5.737,0 11.475,0 17.212,0 10.761,0 20.23-5.629 26.121-14.466 6.291-9.438 4.632-22.364 4.632-33.157 0-15.791 0-31.582 0-47.373 0-9.932 1.291-21.087-1.039-30.856-3.225-13.527-16.192-22.381-29.638-22.732-6.452-.168-6.437,9.832 0,10 11.505,.3 20.378,9.173 20.678,20.678 .072,2.769 0,5.549 0,8.318 0,14.906 0,29.813 0,44.719 0,11.22 0,22.44 0,33.66 0,8.574-4.854,16.442-12.912,19.731-6.562,2.678-15.045,1.479-21.969,1.479-1.027,0-2.056,0-3.084,0-3.542,0-5.297,3.173-4.821,6.329 3.644,24.181 7.286,48.362 10.93,72.543 2.785-1.621 5.571-3.243 8.356-4.864-16.078-18.937-32.156-37.873-48.234-56.811-3.559-4.191-7.117-8.383-10.676-12.574-1.803-2.122-3.287-4.623-6.443-4.623-10.273,0-20.547,0-30.821,0-15.614,0-31.228,0-46.842,0-11.15,0-23.759,1.799-31.35-8.451-6.138-8.287-3.974-21.955-3.974-31.658 0-15.837 0-31.675 0-47.512 0-9.829-1.982-22.658 3.266-31.45 5.839-9.782 16.318-9.513 26.092-9.513 28.33,0 56.66,0 84.99,0 22.271,0 44.543,0 66.814,0 6.448-.001 6.448-10.001-0-10.001z"/>
<path d="m180.017,115.02c-3.066,0-5.962,.383-8.686,1.149-2.727,.767-5.749,2.002-9.069,3.705l-5.365-14.435c3.321-2.127 7.237-3.768 11.752-4.918 4.513-1.149 8.941-1.724 13.285-1.724 5.448,0 9.941,.725 13.476,2.171 3.533,1.449 6.324,3.279 8.367,5.493 2.044,2.215 3.469,4.643 4.279,7.281 .809,2.64 1.213,5.153 1.213,7.536 0,2.385-.363,4.579-1.085,6.579-.725,2.002-1.641,3.854-2.747,5.557-1.107,1.705-2.385,3.321-3.832,4.854-1.449,1.533-2.854,2.982-4.215,4.343-1.021,1.022-2.088,2.108-3.193,3.257-1.107,1.15-2.107,2.363-3.002,3.641s-1.641,2.619-2.235,4.024c-.597,1.405-.894,2.832-.894,4.279 0,.341 0,.853 0,1.533 0,.683 .041,1.277 .127,1.788h-16.861c-.172-.85-.278-1.808-.319-2.874-.044-1.064-.064-1.98-.064-2.746 0-2.383 .297-4.535 .894-6.451 .595-1.916 1.383-3.704 2.363-5.365 .978-1.661 2.107-3.213 3.385-4.663 1.277-1.447 2.597-2.852 3.959-4.215 1.959-1.958 3.746-3.896 5.365-5.812 1.617-1.916 2.428-4.107 2.428-6.578 0-2.044-.789-3.788-2.363-5.237-1.579-1.448-3.898-2.172-6.963-2.172zm11.879,64.251c0,3.748-1.214,6.643-3.641,8.686-2.428,2.045-5.174,3.066-8.239,3.066-3.066,0-5.812-1.021-8.239-3.066-2.427-2.043-3.641-4.938-3.641-8.686 0-3.746 1.214-6.642 3.641-8.686 2.427-2.044 5.173-3.066 8.239-3.066 3.065,0 5.812,1.022 8.239,3.066 2.428,2.044 3.641,4.94 3.641,8.686z"/>
</g>
</svg>
