<svg xmlns="http://www.w3.org/2000/svg" viewBox="20 20 321 321">
<g stroke="#000" fill="#000" transform="matrix(0.52998449,0,0,0.52998449,127.52663,50.476329)" >
      <path d="m 113.13,80.035 c 22.1,0 40.02,-17.916 40.02,-40.018 C 153.15,17.918 135.23,0 113.13,0 91.031,0 73.112,17.918 73.112,40.017 c 0,22.102 17.919,40.018 40.018,40.018 z" />
      <path d="M 113.13,40.017" />
	  <path d="m 107.21,333.91 0.02,138.6 c 0,25.19 -37.736,25.19 -37.736,0 L 69.478,334.87 h -50.67 l 54.17,-187.95 h -8.41 l -31.51,106.03 c -7.5,23.13 -39.25,13.63 -31.986,-11.14 L 36.058,126.62 C 39.808,113.49 56.421,90.2 85.176,90.2 h 26.514 28.54 c 28.5,0 45.19,23.48 49.5,36.42 l 35,115.08 c 7,24.75 -24.5,35 -32,10.88 l -31.5,-105.66 h -9.11 l 54.61,187.95 H 155.98 V 472.7 c 0,25 -37.58,24.88 -37.58,0 V 333.91 h -11.19 z" />
</g>
</svg>
