<svg xmlns="http://www.w3.org/2000/svg" viewBox="20 20 321 321">
<g fill="#000">
<path d="m171.479,115.467c0,15.928 0,31.857-.001,47.785 .342-.825 .684-1.65 1.025-2.475-5.154,4.355-14.28,11.579-14.28,18.929 0,8.417 8.274,15.212 14.28,20.287-.341-.824-.683-1.649-1.025-2.475 0,10.188 0,20.376 0,30.563 0,8.301-3.439,26.774 9.527,26.774 12.919,0 9.527-18.26 9.527-26.544 0-10.412 0-20.824 0-31.236-.342,.825-.684,1.65-1.025,2.475 4.94-4.466 13.717-11.195 13.718-18.486 .001-8.392-7.945-14.616-13.718-19.845 .342,.825 .684,1.65 1.025,2.475 0-12.294 0-24.587 0-36.881 0-3.897 1.092-9.723-.27-13.535-3.591-10.054-17.571-8.35-18.783,2.189-.515,4.48 6.49,4.43 7,0 .505-4.388 5.054-1.088 5.054,1.611 0,2.688 0,5.377 0,8.066 0,7.879 0,15.759 0,23.638 0,4.935 0,9.87 0,14.805 0,2.177 2.188,3.69 3.604,5.106 2.407,2.407 4.814,4.813 7.222,7.221 6.186,6.185-5.189,14.131-9.162,18.104-2.781,2.781-1.663,8.192-1.663,11.823 0,13.204 0,26.409 0,39.613 0,3.214-5.055,3.19-5.055-.008 0-2.075 0-4.149 0-6.225 0-7.651 0-15.302 0-22.952 0-5.942 0-11.884 0-17.826 0-4.465-7.052-9.252-10.002-12.201-3.002-3.002-4.782-6.934-1.192-10.522 2.527-2.528 5.055-5.055 7.583-7.583 1.512-1.512 3.611-2.778 3.611-5.127 0-1.929 0-3.859 0-5.788 0-13.605 0-27.21 .001-40.814 0-.313 0-.627 0-.94-.001-4.515-7.001-4.515-7.001-.001z"/>
<path d="m75.188,106.167c48.616,0 97.231,0 145.846,0 21.934,0 43.866,0 65.799,0 6.448,0 6.448-10 0-10-48.615,0-97.231,0-145.847,0-21.933,0-43.866,0-65.798,0-6.449,0-6.449,10 0,10z"/>
<path d="m74.833,265.167c48.616,0 97.231,0 145.847,0 21.934,0 43.866,0 65.799,0 6.448,0 6.448-10 0-10-48.615,0-97.231,0-145.847,0-21.933,0-43.866,0-65.798,0-6.45,0-6.45,10-.001,10z"/>
</g>
</svg>
