<svg xmlns="http://www.w3.org/2000/svg" viewBox="20 20 321 321">
<g fill="#000">
<path d="m190.905,280.867c-.242,2.105-22.325,.8-24.181,.8-15.946,0-31.892,0-47.838,0-11.744,0-23.489,0-35.233,0-1.57,0-3.369,.42-3.369-1.651 0-3.387 0-6.774 0-10.161 0-29.788 0-59.577 0-89.365 0-7.414 0-14.829 0-22.243 0-1.719 22.532-.799 24.181-.799 27.69,0 55.381,0 83.071,0 1.569,0 3.369-.42 3.369,1.651 0,3.387 0,6.774 0,10.162 0,14.107 0,28.213 0,42.32 0,23.095 0,46.19 0,69.286 0,6.448 10,6.448 10,0 0-23.096 0-46.191 0-69.287 0-14.106 0-28.213 0-42.32 0-8.402 1.561-21.813-10.908-21.813-24.961,0-49.923,0-74.885,0-10.875,0-21.749,0-32.623,0-6.311,0-12.205,3.883-12.205,10.81 0,2.214 0,4.428 0,6.643 0,29.032 0,58.064 0,87.097 0,9.398 0,18.797 0,28.195 0,12.087 11.294,11.475 19.821,11.475 21.991,0 43.981,0 65.972,0 9.236,0 18.472,0 27.708,0 1.965,0 3.93,0 5.895,0 6.53,0 10.519-4.657 11.227-10.8 .736-6.399-9.273-6.329-10.002,0z"/>
<path d="m182.754,147.448c-31.177,0-62.353,0-93.53,0 1.439,2.508 2.878,5.016 4.317,7.523 3.072-6.536 6.145-13.072 9.217-19.608-1.439,.826-2.878,1.651-4.317,2.477 25.031,0 50.063,0 75.094,0-1.439-.826-2.878-1.651-4.317-2.477 3.073,6.536 6.146,13.072 9.219,19.608 2.742,5.833 11.361,.753 8.635-5.047-3.073-6.536-6.146-13.072-9.219-19.608-.73-1.553-2.679-2.477-4.317-2.477-25.031,0-50.063,0-75.094,0-1.639,0-3.587,.924-4.317,2.477-3.072,6.536-6.145,13.072-9.217,19.608-1.57,3.34 .271,7.523 4.317,7.523 31.177,0 62.353,0 93.53,0 6.447,.001 6.447-9.999-.001-9.999z"/>
<path d="m71.167,101.502c48.012,0 96.025,0 144.038,0 25.099,0 50.197,0 75.296,0 1.935,0 1.935-3 0-3-48.013,0-96.025,0-144.037,0-25.099,0-50.198,0-75.296,0-1.936,0-1.936,3-.001,3z"/>
<path d="m71.167,112.836c48.012,0 96.025,0 144.038,0 25.099,0 50.197,0 75.296,0 1.935,0 1.935-3 0-3-48.013,0-96.025,0-144.037,0-25.099,0-50.198,0-75.296,0-1.936,0-1.936,3-.001,3z"/>
<path d="m206.591,109.633c0,2.366-1.918,4.284-4.284,4.284h-33.023c-2.366,0-4.284-1.918-4.284-4.284v-7.616c0-2.366 1.918-4.284 4.284-4.284h33.023c2.366,0 4.284,1.918 4.284,4.284v7.616z"/>
<path d="m171.264,100.126c3.236,3.236 6.473,6.473 9.709,9.709 2.886,2.886 7.748,2.839 10.608-.057 2.881-2.918 2.834-7.716-.058-10.608-3.236-3.236-6.472-6.473-9.708-9.709-2.886-2.886-7.749-2.839-10.608,.057-2.881,2.918-2.835,7.716 .057,10.608z"/>
<path d="m154.337,85.516c4.308-4.308 8.616-8.615 12.923-12.923 1.369-1.369-.752-3.49-2.121-2.121-4.308,4.308-8.616,8.615-12.923,12.923-1.369,1.369 .752,3.49 2.121,2.121z"/>
<path d="m158.854,82.06c4.567,4.566 9.134,9.133 13.7,13.7 3.195,3.194 8.145-1.755 4.95-4.95-4.567-4.566-9.134-9.133-13.7-13.7-3.194-3.195-8.144,1.755-4.95,4.95z"/>
<path d="m230.516,72.875c6.092,0 12.185,0 18.276,0 1.935,0 1.935-3 0-3-6.092,0-12.185,0-18.276,0-1.935,0-1.935,3 0,3z"/>
<path d="m232.152,95.446c0,.75 0,1.5 0,2.25 0,4.086 3.342,7.529 7.448,7.556 4.065,.027 7.556-3.361 7.556-7.447 0-.75 0-1.5 0-2.25 0-4.086-3.342-7.529-7.448-7.556-4.065-.027-7.556,3.361-7.556,7.447z"/>
<path d="m236.154,73.625c0,6.458 0,12.917 0,19.375 0,4.514 7,4.514 7,0 0-6.458 0-12.917 0-19.375 0-4.514-7-4.514-7,0z"/>
<path d="m250.949,109.633c0,2.366-1.918,4.284-4.284,4.284h-14.022c-2.366,0-4.285-1.918-4.285-4.284v-7.616c0-2.366 1.919-4.284 4.285-4.284h14.022c2.366,0 4.284,1.918 4.284,4.284v7.616z"/>
<path d="m267.016,72.875c6.092,0 12.185,0 18.276,0 1.935,0 1.935-3 0-3-6.092,0-12.185,0-18.276,0-1.935,0-1.935,3 0,3z"/>
<path d="m268.652,95.446c0,.75 0,1.5 0,2.25 0,4.086 3.342,7.529 7.448,7.556 4.065,.027 7.556-3.361 7.556-7.447 0-.75 0-1.5 0-2.25 0-4.086-3.342-7.529-7.448-7.556-4.065-.027-7.556,3.361-7.556,7.447z"/>
<path d="m272.654,73.625c0,6.458 0,12.917 0,19.375 0,4.514 7,4.514 7,0 0-6.458 0-12.917 0-19.375 0-4.514-7-4.514-7,0z"/>
<path d="m287.449,109.633c0,2.366-1.918,4.284-4.284,4.284h-14.022c-2.366,0-4.285-1.918-4.285-4.284v-7.616c0-2.366 1.919-4.284 4.285-4.284h14.022c2.366,0 4.284,1.918 4.284,4.284v7.616z"/>
<path d="m266.541,109.633c0,2.366-1.918,4.284-4.285,4.284h-8.022c-2.366,0-4.284-1.918-4.284-4.284v-7.616c0-2.366 1.918-4.284 4.284-4.284h8.022c2.367,0 4.285,1.918 4.285,4.284v7.616z"/>
<path d="m235.5,113.662c-.093,23.685-3.271,47.69-11.886,69.867-4.581,11.791-13.715,31.121-28.709,31.467-1.932,.045-1.936,3.045 0,3 15.262-.353 24.604-17.558 29.932-29.642 10.235-23.214 13.564-49.525 13.663-74.692 .008-1.935-2.992-1.934-3,0z"/>
<path d="m240.333,110.662c-.083,26.404-3.043,53.76-13.493,78.256-5.744,13.468-16.277,30.975-32.882,31.248-1.933,.032-1.936,3.032 0,3 17.05-.28 28.025-16.677 34.485-30.521 11.773-25.23 14.803-54.468 14.89-81.983 .006-1.935-2.994-1.934-3,0z"/>
<path d="m272.583,112.167c-.131,28.412-6.665,57.218-22.249,81.26-12.346,19.048-31.924,34.501-55.429,34.74-1.934,.02-1.936,3.02 0,3 23.861-.243 43.346-15.197 56.563-34.064 17.142-24.469 23.979-55.452 24.115-84.936 .009-1.935-2.991-1.934-3-0z"/>
<path d="m277.583,110.662c-.122,30.072-6.59,60.814-23.21,86.26-13.33,20.408-34.439,35.771-59.468,35.99-1.934,.017-1.936,3.017 0,3 61.752-.543 85.473-74.657 85.678-125.25 .008-1.935-2.992-1.934-3-0z"/>
<path d="m107.66,236.667c-2.145-3.808-4.464-7.567-6.96-11.28-2.496-3.711-5.153-7.215-7.968-10.512v21.792h-7.392v-33.265h6.096c1.056,1.057 2.224,2.353 3.504,3.889 1.28,1.536 2.584,3.176 3.912,4.92 1.328,1.744 2.647,3.553 3.96,5.424 1.312,1.872 2.544,3.672 3.696,5.4v-19.633h7.44v33.265h-6.288z"/>
<path d="m129.219,210.747c2.112,0 3.872,.239 5.28,.72 1.408,.48 2.536,1.168 3.384,2.064 .847,.896 1.447,1.984 1.8,3.264 .352,1.28 .528,2.705 .528,4.271v14.881c-1.024,.225-2.448,.488-4.272,.791-1.824,.305-4.032,.457-6.624,.457-1.632,0-3.112-.145-4.44-.432-1.328-.289-2.472-.76-3.432-1.416-.96-.656-1.696-1.513-2.208-2.568-.513-1.057-.768-2.353-.768-3.889 0-1.471 .295-2.719 .888-3.744 .592-1.023 1.384-1.84 2.376-2.447 .992-.607 2.128-1.048 3.408-1.32 1.279-.271 2.608-.408 3.984-.408 .928,0 1.752,.041 2.472,.12 .72,.081 1.303,.185 1.752,.312v-.672c0-1.215-.368-2.191-1.104-2.928-.736-.735-2.016-1.104-3.84-1.104-1.217,0-2.417,.088-3.6,.264-1.185,.176-2.208,.425-3.072,.744l-.912-5.76c.415-.128 .936-.264 1.56-.408s1.304-.271 2.04-.385c.736-.111 1.512-.207 2.328-.287s1.64-.12 2.472-.12zm.576,20.928c.704,0 1.375-.016 2.016-.048 .64-.031 1.152-.08 1.536-.145v-5.424c-.288-.063-.72-.127-1.296-.191-.576-.064-1.104-.096-1.584-.096-.672,0-1.304,.04-1.896,.119-.593,.08-1.112,.232-1.56,.457-.449,.224-.8,.527-1.056,.911-.256,.384-.384,.864-.384,1.44 0,1.12 .375,1.896 1.128,2.328 .752,.433 1.783,.649 3.096,.649z"/>
<path d="m161.339,237.339c-5.408,0-9.528-1.503-12.36-4.512-2.832-3.008-4.248-7.28-4.248-12.815 0-2.752 .432-5.209 1.296-7.369 .864-2.16 2.048-3.983 3.552-5.472 1.504-1.487 3.295-2.616 5.376-3.384 2.08-.768 4.336-1.152 6.768-1.152 1.408,0 2.688,.104 3.84,.313s2.16,.448 3.024,.72c.864,.272 1.584,.552 2.16,.84s.992,.513 1.248,.673l-2.16,6.047c-1.024-.543-2.216-1.008-3.576-1.392-1.361-.384-2.904-.576-4.632-.576-1.152,0-2.28,.192-3.384,.576s-2.081,1.001-2.928,1.849c-.848,.848-1.528,1.943-2.04,3.287-.512,1.344-.768,2.977-.768,4.896 0,1.535 .168,2.969 .504,4.296 .336,1.328 .879,2.472 1.632,3.433 .751,.959 1.735,1.72 2.952,2.279 1.216,.561 2.688,.84 4.416,.84 1.087,0 2.064-.063 2.928-.191 .864-.128 1.632-.28 2.304-.457 .672-.175 1.264-.375 1.776-.6 .512-.223 .976-.432 1.392-.624l2.064,6c-1.056,.641-2.544,1.217-4.464,1.728-1.92,.51-4.144,.767-6.672,.767z"/>
<path d="m185.875,237.146c-2.081-.031-3.769-.256-5.064-.672-1.296-.415-2.32-1-3.072-1.752-.752-.751-1.265-1.663-1.536-2.736-.272-1.071-.408-2.279-.408-3.623v-27.793l7.153-1.151v27.504c0,.641 .047,1.217 .143,1.728 .097,.513 .28,.945 .553,1.297 .271,.352 .664,.641 1.176,.863 .512,.225 1.2,.369 2.064,.433l-1.009,5.902z"/>
</g>
</svg>
