<svg xmlns="http://www.w3.org/2000/svg" viewBox="20 20 321 321">
<path fill="none"  stroke="#000" stroke-width="10" d="m268.648,215.92c0,1.859-1.634,3.368-3.648,3.368h-13.379c-2.014,0-3.648-1.509-3.648-3.368v-93.397c0-1.861 1.635-3.369 3.648-3.369h13.379c2.015,0 3.648,1.508 3.648,3.369v93.397z"/>
<g fill="#000">
<path  stroke="#000" stroke-width="10" d="m274.121,244.019c0,2.015-1.28,3.648-2.859,3.648h-25.902c-1.579,0-2.86-1.634-2.86-3.648v-21.081c0-2.015 1.281-3.648 2.86-3.648h25.901c1.579,0 2.859,1.634 2.859,3.648v21.081z"/>
<path d="m276.555,131.451c3.648,0 7.297,0 10.945,0 6.448,0 6.448-10 0-10-3.648,0-7.297,0-10.945,0-6.449,0-6.449,10 0,10z"/>
<path d="m276.555,155.775c3.648,0 7.297,0 10.945,0 6.448,0 6.448-10 0-10-3.648,0-7.297,0-10.945,0-6.449,0-6.449,10 0,10z"/>
<path d="m276.555,180.708c3.648,0 7.297,0 10.945,0 6.448,0 6.448-10 0-10-3.648,0-7.297,0-10.945,0-6.449,0-6.449,10 0,10z"/>
<path d="m276.555,206.855c3.648,0 7.297,0 10.945,0 6.448,0 6.448-10 0-10-3.648,0-7.297,0-10.945,0-6.449,0-6.449,10 0,10z"/>
<path  stroke="#000" stroke-width="10" d="m247.973,185.894h20.676v42.922h-20.676z"/>
<path d="m130.704,75.071c0,15.074 0,30.148 0,45.222 0,6.449 10,6.449 10,0 0-15.074 0-30.148 0-45.222 0-6.449-10-6.449-10,0z"/>
<path d="m120.021,83.94c4.395,2.537 8.789,5.075 13.184,7.612 5.595,3.23 10.628-5.413 5.047-8.635-4.395-2.537-8.789-5.075-13.184-7.612-5.595-3.23-10.629,5.413-5.047,8.635z"/>
<path d="m146.189,75.306c-4.395,2.537-8.789,5.075-13.184,7.612-5.582,3.223-.548,11.865 5.047,8.635 4.395-2.537 8.789-5.075 13.184-7.612 5.581-3.223 .548-11.866-5.047-8.635z"/>
<path d="m93.86,101.478c13.054,7.537 26.108,15.074 39.163,22.611 5.595,3.23 10.628-5.412 5.047-8.635-13.054-7.537-26.108-15.074-39.163-22.611-5.595-3.23-10.629,5.412-5.047,8.635z"/>
<path d="m96.27,115.151c4.395-2.538 8.789-5.075 13.183-7.612 5.581-3.223 .548-11.865-5.047-8.635-4.395,2.538-8.789,5.075-13.183,7.612-5.581,3.223-.548,11.865 5.047,8.635z"/>
<path d="m101.831,88.17c0,5.075 0,10.149 0,15.224 0,6.449 10,6.449 10,0 0-5.075 0-10.149 0-15.224 0-6.448-10-6.448-10,0z"/>
<path d="m99.006,146.669c13.055-7.537 26.109-15.074 39.164-22.611 5.582-3.222 .548-11.865-5.047-8.635-13.055,7.537-26.109,15.074-39.164,22.611-5.581,3.223-.547,11.866 5.047,8.635z"/>
<path d="m112.005,151.471c0-5.074 0-10.148 0-15.223 0-6.449-10-6.449-10,0 0,5.074 0,10.148 0,15.223 0,6.449 10,6.449 10,0z"/>
<path d="m91.397,133.126c4.395,2.538 8.789,5.075 13.184,7.612 5.595,3.23 10.628-5.412 5.047-8.635-4.395-2.538-8.789-5.075-13.184-7.612-5.595-3.23-10.629,5.412-5.047,8.635z"/>
<path d="m140.653,165.126c0-15.074 0-30.148 0-45.222 0-6.449-10-6.449-10,0 0,15.074 0,30.148 0,45.222 0,6.449 10,6.449 10,0z"/>
<path d="m151.336,156.256c-4.395-2.537-8.789-5.074-13.184-7.611-5.595-3.23-10.628,5.413-5.047,8.635 4.395,2.537 8.789,5.074 13.184,7.611 5.595,3.23 10.628-5.413 5.047-8.635z"/>
<path d="m125.167,164.891c4.395-2.537 8.789-5.074 13.183-7.611 5.582-3.222 .548-11.865-5.047-8.635-4.395,2.537-8.789,5.074-13.183,7.611-5.581,3.222-.548,11.865 5.047,8.635z"/>
<path d="m177.497,138.374c-13.055-7.537-26.109-15.074-39.164-22.611-5.595-3.23-10.628,5.413-5.047,8.635 13.055,7.537 26.109,15.074 39.164,22.611 5.594,3.23 10.628-5.413 5.047-8.635z"/>
<path d="m175.087,124.702c-4.395,2.537-8.79,5.075-13.184,7.612-5.582,3.222-.548,11.865 5.047,8.635 4.395-2.537 8.79-5.075 13.184-7.612 5.581-3.223 .548-11.866-5.047-8.635z"/>
<path d="m169.526,151.682c0-5.075 0-10.149 0-15.224 0-6.449-10-6.449-10,0 0,5.075 0,10.149 0,15.224 0,6.449 10,6.449 10,0z"/>
<path d="m172.351,93.183c-13.055,7.537-26.109,15.075-39.164,22.612-5.582,3.223-.548,11.865 5.047,8.635 13.055-7.537 26.109-15.075 39.164-22.612 5.581-3.223 .547-11.865-5.047-8.635z"/>
<path d="m159.352,88.38c0,5.075 0,10.149 0,15.224 0,6.449 10,6.449 10,0 0-5.075 0-10.149 0-15.224 0-6.449-10-6.449-10,0z"/>
<path d="m179.959,106.726c-4.395-2.537-8.789-5.075-13.184-7.612-5.595-3.23-10.628,5.412-5.047,8.635 4.395,2.537 8.789,5.075 13.184,7.612 5.595,3.23 10.628-5.413 5.047-8.635z"/>
<path d="m71.672,186.5c5.103-1.521 10.277-2.848 15.505-3.858 7.1-1.372 13.251,.714 19.897,3.136 9.258,3.375 18.697,8.882 28.688,9.268 5.96,.23 12.572-2.904 18.003-5.008 3.237-1.254 6.416-2.644 9.662-3.878 6.432-2.446 12.845-4.821 19.784-3.72 5.62,.893 11.192,2.437 16.642,4.061 1.858,.554 2.646-2.342 .797-2.893-5.103-1.521-10.276-2.849-15.504-3.859-6.542-1.264-11.919-.128-18.195,1.966-10.039,3.35-20.494,9.917-31.188,10.33-6.14,.237-13.21-3.3-18.796-5.531-3.748-1.497-7.458-3.058-11.265-4.41-6.148-2.185-11.703-3.586-18.185-2.557-5.621,.893-11.192,2.437-16.642,4.061-1.85,.55-1.062,3.446 .797,2.892z"/>
<path d="m78.013,193.686c5.242-1.89 11.354-3.85 16.952-3.007 5.688,.856 11.29,3.203 16.602,5.324 7.693,3.073 15.8,7.21 24.196,7.534 8.107,.313 16.809-4.544 24.197-7.534 5.369-2.173 10.897-4.242 16.602-5.324 5.468-1.037 11.826,1.159 16.953,3.007 1.824,.658 2.603-2.242 .797-2.893-4.979-1.795-10.248-3.147-15.554-3.32-5.685-.185-11.898,2.679-17.096,4.655-8.287,3.153-16.927,8.063-25.898,8.409-5.631,.218-12.063-2.908-17.206-4.9-2.914-1.128-5.777-2.38-8.691-3.509-5.231-2.025-10.691-4.054-16.306-4.625-5.32-.541-11.404,1.509-16.345,3.29-1.806,.65-1.028,3.551 .797,2.893z"/>
<path d="m78.11,176.756c5.242-1.89 11.354-3.85 16.953-3.007 5.688,.856 11.289,3.203 16.601,5.324 7.694,3.073 15.801,7.21 24.196,7.535 8.108,.313 16.809-4.544 24.197-7.535 5.369-2.173 10.897-4.243 16.602-5.324 5.468-1.037 11.826,1.159 16.952,3.007 1.824,.658 2.603-2.242 .797-2.893-4.979-1.795-10.248-3.148-15.553-3.32-5.685-.185-11.899,2.679-17.096,4.656-8.287,3.152-16.926,8.063-25.897,8.409-5.632,.218-12.064-2.909-17.207-4.9-2.914-1.128-5.776-2.38-8.69-3.509-5.231-2.026-10.691-4.055-16.305-4.625-5.32-.541-11.405,1.508-16.346,3.29-1.807,.651-1.028,3.55 .796,2.892z"/>
</g>
</svg>
