<svg xmlns="http://www.w3.org/2000/svg" viewBox="20 20 321 321">
  <path stroke="#000" fill="#000" d="m 158.84735,101.21796 c -15.50123,0 -27.97298,12.64869 -27.97298,28.41801 v 67.22737 c 0,13.06693 19.12586,13.06693 19.12586,0 v -61.4687 h 4.5308 v 168.30971 c 0,17.4744 25.46897,16.95966 25.46897,0 V 206 h 4.38603 v 97.70435 c 0,16.95966 25.61374,17.4744 25.61374,0 V 135.39464 h 4.42356 v 61.4687 c 0,13.1688 19.02398,13.1688 18.99181,0 v -66.82523 c 0,-14.54144 -11.2975,-28.78798 -28.3215,-28.78798 l -46.24629,-0.0322 z m 23.43145,-4.831065 c 12.09106,0 21.89796,-9.801534 21.89796,-21.895811 0,-12.091597 -9.8069,-21.894739 -21.89796,-21.894739 -12.09106,0 -21.89259,9.803142 -21.89259,21.894739 0,12.094277 9.80153,21.895811 21.89259,21.895811 z" />
</svg>
