<svg xmlns="http://www.w3.org/2000/svg" viewBox="20 20 321 321">
  <g fill="none" stroke="#000">
    <path stroke-width="16.698" d="M285.163 155.117v119.537c-82.007-.467-80.856-.278-157.373 0V155.117"/>
    <path stroke-width="4.667" d="M73.788 257.304c-.074 7.942 0 24.053 0 24.053H63.733s.317-44.02 0-71.156c-5.62-.032.231 32.76-5.248 32.749-.05-27.968-.273-36.268-.142-48.784 4.396-10.39 21.074-10.022 21.074-10.022s16.677-.368 21.073 10.022c.13 12.516-.092 20.816-.142 48.784-5.48.012.371-32.781-5.248-32.75-.317 27.138 0 71.157 0 71.157H85.046s.074-16.11 0-24.053c.398-4.957-5.63-5.542-5.63-5.542s-6.027.245-5.63 5.542z"/>
    <path stroke-width="4.073" d="M68.325 174.823c-3.155-5.654-1.143-12.795 4.5-15.97 5.641-3.176 12.79-1.19 15.986 4.44 3.196 5.631 1.237 12.786-4.48 16.004-5.718 3.218-12.851 1.18-16.006-4.474z"/>
    <path stroke-width="16.7" d="M105.791 173.85l102.532-89.447 102.531 89.446"/>
  </g>
</svg>
