<svg xmlns="http://www.w3.org/2000/svg" viewBox="20 20 321 321">
<path fill="none" stroke="#000" stroke-width="10" d="M277.83 275.63c-15 0-22.95-4.7-29.34-8.5-5.8-3.4-9.95-5.87-19.2-5.87-9.26 0-13.4 2.46-19.17 5.87-6.38 3.8-14.34 8.5-29.33 8.5-15 0-22.94-4.7-29.33-8.5-5.77-3.4-9.92-5.87-19.17-5.87-9.24 0-13.4 2.46-19.15 5.87-6.4 3.8-14.34 8.5-29.34 8.5s-23.34-4.7-29.73-8.5c-1.93-1.14-3.57-2.18-5.57-3.05v40.06h264v-40.26c-2 .92-3.68 2.02-5.76 3.25-6.4 3.8-13.92 8.5-28.92 8.5zm-229.6-60.78v29.9c7 1.7 11.7 4.47 15.75 6.87 5.75 3.4 10.12 5.87 19.37 5.87 9.25 0 13.5-2.5 19.26-5.9 6.4-3.8 14.4-8.5 29.4-8.5 15 0 23 4.7 29.4 8.5 5.75 3.4 9.9 5.86 19.17 5.86 9.25 0 13.4-2.47 19.17-5.88 6.4-3.8 14.35-8.5 29.35-8.5 15 0 22.94 4.7 29.33 8.5 5.75 3.4 9.9 5.86 19.16 5.86s13-2.47 18.74-5.88c4.23-2.5 9.4-5.4 16.4-7.1l-.46-29.7zm41.47-65.22h181.6v49.22H89.7z"/>
<g fill="none" stroke="#000" stroke-width="5">
<path d="M174.38 88.53h12.24v47.6h-12.24z"/>
<path fill="#000" d="M184.83 78.53c2.7-1.53 4.7-4.45 4.7-7.8 0-4.94-8.9-17.87-8.9-17.87s-9 12.93-9 17.86c0 3.36 1.83 6.28 4.54 7.8z"/>
</g>
<g fill="none" stroke="#000" stroke-width="5">
<path d="M126.7 88.53h12.24v47.6H126.7z"/>
<path fill="#000" d="M137.14 78.53c2.7-1.53 4.7-4.45 4.7-7.8 0-4.94-8.9-17.87-8.9-17.87s-9 12.93-9 17.86c0 3.36 1.84 6.28 4.55 7.8z"/>
</g>
<g fill="none" stroke="#000" stroke-width="5">
<path d="M222.06 88.53h12.24v47.6h-12.24z"/>
<path fill="#000" d="M232.5 78.53c2.72-1.53 4.7-4.45 4.7-7.8 0-4.94-8.88-17.87-8.88-17.87s-9 12.93-9 17.86c0 3.36 1.83 6.28 4.53 7.8z"/>
</g>
</svg>
