<svg xmlns="http://www.w3.org/2000/svg" viewBox="20 20 321 321">
<path fill="#000" d="m233.686,276.238c-.386,5.729-5.707,5.186-9.789,5.186-5.636,0-11.271,0-16.905,0-15.871,0-31.743,0-47.614,0-6.128,0-12.256,0-18.384,0-2.811,0-6.615,.602-9.225-.708-3.222-1.617-2.568-5.975-2.568-8.938 0-4.939 0-9.879 0-14.818 0-29.792 0-59.585 0-89.377 0-5.538-2.292-17.514 6.048-17.514 11.139,0 22.277,0 33.415,0 15.411,0 30.822,0 46.234,0 5.852,0 18.788-2.535 18.788,6.242 0,26.036 0,52.071 0,78.107-0,13.938-0,27.88-0,41.82 0,6.448 10,6.448 10,0 0-23.146 0-46.292 0-69.438 0-13.881 0-27.761 0-41.642 0-3.127 0-6.255 0-9.382 0-8.869-6.553-15.128-15.186-15.709-8.843-.595-17.931,0-26.788,0-15.832,0-31.665,0-47.497,0-5.369,0-10.737,0-16.106,0-4.831,0-9.582,.152-13.483,3.587-7.332,6.454-5.426,17.765-5.426,26.563 0,29.889 0,59.777 0,89.666 0,7.733-1.955,19.818 3.587,26.115 6.885,7.822 20.433,5.426 29.795,5.426 18.696,0 37.393,0 56.088,0 5.976,0 11.952,0 17.928,0 9.308,0 16.438-5.517 17.088-15.186 .433-6.44-9.57-6.398-10,0z"/>
<path fill="none"  stroke="#000" d="m44.239,121.792"/>
<g fill="#000">
<path d="m217.936,160.973c0,12.963 0,25.927 0,38.89 0,4.514 7,4.514 7,0 0-12.963 0-25.927 0-38.89 0-4.514-7-4.514-7,0z"/>
<path d="m233.686,135.297c-.386,5.729-5.707,5.186-9.789,5.186-5.636,0-11.271,0-16.905,0-15.871,0-31.743,0-47.614,0-6.128,0-12.256,0-18.384,0-2.811,0-6.615,.602-9.225-.708-3.98-1.997-2.568-10.274-2.568-13.786 0-7.847 0-15.693 0-23.539 0-5.752 0-11.505 0-17.257 0-4.759 3.419-6.066 7.408-6.066 12.305,0 24.61,0 36.916,0 14.935,0 29.869,0 44.804,0 3.317,0 6.636,0 9.953,0 6.048,0 5.405,6.101 5.405,10.237-.001,15.31-.001,30.621-.001,45.933 0,6.449 10,6.449 10,0 0-12.191 0-24.383 0-36.575 0-4.77 0-9.539 0-14.309 0-8.553-7.075-15.288-15.527-15.288-25.978,0-51.956,0-77.933,0-10.299,0-23.967-2.412-29.542,8.698-2.21,4.405-1.483,10.235-1.483,15.021 0,7.785 0,15.57 0,23.355 0,5.97 0,11.94 0,17.91 0,9.108 6.047,15.758 15.186,16.373 8.843,.595 17.931,0 26.789,0 17.162,0 34.324,0 51.487,0 4.835,0 9.669,0 14.504,0 9.145,0 15.898-5.937 16.521-15.186 .431-6.44-9.572-6.398-10.002,.001z"/>
<path d="m217.936,90.359c0,12.963 0,25.927 0,38.89 0,4.514 7,4.514 7,0 0-12.963 0-25.927 0-38.89 0-4.514-7-4.514-7,0z"/>
<path d="m176.634,190.15c0,11.016 0,22.03 0,33.046 0,4.514 7,4.514 7,0 0-11.016 0-22.03 0-33.046 0-4.513-7-4.513-7,0z"/>
<path d="m168.75,196.499c3.211,1.854 6.423,3.707 9.635,5.562 3.917,2.261 7.44-3.789 3.533-6.045-3.211-1.854-6.423-3.707-9.634-5.562-3.917-2.261-7.441,3.789-3.534,6.045z"/>
<path d="m187.874,190.454c-3.211,1.854-6.423,3.708-9.634,5.562-3.907,2.256-.384,8.306 3.533,6.045 3.212-1.854 6.423-3.708 9.635-5.562 3.906-2.256 .383-8.306-3.534-6.045z"/>
<path d="m149.633,209.315c9.54,5.508 19.08,11.016 28.62,16.523 3.917,2.261 7.44-3.789 3.533-6.045-9.54-5.508-19.079-11.016-28.619-16.523-3.917-2.26-7.441,3.79-3.534,6.045z"/>
<path d="m151.239,219.307c3.211-1.854 6.423-3.709 9.634-5.563 3.907-2.256 .383-8.306-3.533-6.045-3.211,1.854-6.423,3.709-9.634,5.563-3.907,2.256-.383,8.305 3.533,6.045z"/>
<path d="m155.535,199.723c0,3.709 0,7.417-.001,11.126 0,4.514 7,4.514 7,0 0-3.709 0-7.417 .001-11.126 0-4.514-7-4.514-7,0z"/>
<path d="m153.239,242.34c9.54-5.509 19.079-11.017 28.619-16.524 3.907-2.256 .384-8.306-3.533-6.045-9.54,5.509-19.079,11.017-28.619,16.524-3.907,2.256-.383,8.306 3.533,6.045z"/>
<path d="m162.661,245.98c0-3.708 0-7.415 0-11.123 0-4.514-7-4.514-7,0 0,3.708 0,7.415 0,11.123 0,4.514 7,4.514 7,0z"/>
<path d="m147.833,232.442c3.212,1.854 6.424,3.709 9.635,5.563 3.917,2.261 7.44-3.789 3.533-6.045-3.212-1.854-6.423-3.709-9.635-5.563-3.916-2.26-7.44,3.79-3.533,6.045z"/>
<path d="m183.597,255.96c0-11.016 0-22.032 0-33.048 0-4.514-7-4.514-7,0 0,11.016 0,22.032 0,33.048 0,4.514 7,4.514 7,0z"/>
<path d="m191.479,249.61c-3.211-1.854-6.423-3.708-9.634-5.563-3.917-2.261-7.44,3.789-3.533,6.045 3.211,1.854 6.423,3.708 9.634,5.563 3.917,2.261 7.441-3.789 3.533-6.045z"/>
<path d="m172.356,255.655c3.211-1.854 6.423-3.709 9.634-5.563 3.907-2.256 .384-8.306-3.533-6.045-3.211,1.854-6.423,3.709-9.634,5.563-3.906,2.256-.383,8.306 3.533,6.045z"/>
<path d="m210.598,236.543c-9.54-5.508-19.08-11.016-28.62-16.523-3.916-2.261-7.439,3.789-3.533,6.045 9.54,5.508 19.08,11.016 28.62,16.523 3.916,2.261 7.44-3.789 3.533-6.045z"/>
<path d="m208.991,226.552c-3.211,1.854-6.423,3.709-9.634,5.563-3.906,2.256-.384,8.306 3.533,6.045 3.211-1.854 6.423-3.709 9.634-5.563 3.908-2.256 .384-8.306-3.533-6.045z"/>
<path d="m204.696,246.135c0-3.708 0-7.417 0-11.125 0-4.514-7-4.514-7,0 0,3.708 0,7.417 0,11.125 0,4.513 7,4.513 7,0z"/>
<path d="m206.991,203.519c-9.54,5.508-19.079,11.016-28.619,16.523-3.907,2.256-.383,8.306 3.533,6.045 9.54-5.508 19.079-11.016 28.619-16.523 3.908-2.256 .384-8.306-3.533-6.045z"/>
<path d="m197.569,199.876c0,3.708 0,7.417 0,11.125 0,4.514 7,4.514 7,0 0-3.708 0-7.417 0-11.125 0-4.514-7-4.514-7,0z"/>
<path d="m212.397,213.416c-3.211-1.854-6.423-3.709-9.634-5.563-3.916-2.262-7.439,3.788-3.533,6.045 3.211,1.854 6.423,3.709 9.634,5.563 3.916,2.262 7.44-3.788 3.533-6.045z"/>
</g>
</svg>
