<svg xmlns="http://www.w3.org/2000/svg" viewBox="20 20 321 321">
<g fill="#000">
	<path fill="none" stroke="#000" stroke-miterlimit="10" d="M44.239,121.792"/>
	<path d="M96.007,248.91c-2.399-0.215-4.559-2.644-5.934-4.43c-0.972-1.264-1.516-2.334-1.614-2.636
		c-1.256-3.889-1.448-7.944-1.119-11.994c0.805-9.894,9.759-17.592,16.553-23.875c7.433-6.874,15.602-13.327,24.693-17.864
		c1.54-0.769,3.142-1.335,4.801-1.787c1.453-0.396,2.89,0.263,0.945-0.595c2.335,1.029,4.239,3.061,6.117,4.788
		c9.625,8.858,18.324,18.861,26.829,28.784c1.768,2.063,5.22,1.461,7.644,1.442c3.417-0.025,6.834-0.032,10.251-0.038
		c8.771-0.018,17.541-0.008,26.312,0.004c11.282,0.016,22.565,0.041,33.848,0.078c2.727,0.009,4.999-2.281,5-5
		c0.006-11.691,0.013-23.383,0.019-35.074c-1.667,1.667-3.333,3.333-5,5c6.015-0.015,12.029-0.03,18.045-0.045
		c6.505-0.017,5.781,6.174,5.781,10.683c0,14.36,0,28.721,0,43.081c0,3.987,0.339,9.478-5.381,9.478c-2.127,0-4.254,0-6.38,0
		c-11.155,0-22.31,0-33.465,0C181.304,248.91,138.656,248.91,96.007,248.91c-6.449,0-6.449,10,0,10c49.826,0,99.652,0,149.478,0
		c6.146,0,12.291,0,18.436,0c8.444,0,15.257-7.021,15.257-15.404c0-4.893,0-9.786,0-14.679c0-12.586,0-25.172,0-37.757
		c0-8.781-7.145-15.423-15.781-15.401c-6.016,0.015-12.03,0.03-18.045,0.045c-2.727,0.007-4.999,2.27-5,5
		c-0.006,11.691-0.013,23.383-0.019,35.074c1.667-1.667,3.333-3.333,5-5c-24.826-0.081-49.676-0.396-74.5,0
		c1.179,0.488,2.357,0.977,3.536,1.465c-7.338-8.572-14.907-16.991-22.881-24.978c-3.592-3.598-7.709-8.243-12.452-10.332
		c-6.257-2.756-13.918,1.508-19.29,4.562c-7.95,4.521-15.202,10.466-21.993,16.552c-6.257,5.608-12.71,11.836-16.813,19.252
		c-7.61,13.755-4.234,39.872,15.068,41.601C102.433,259.485,102.377,249.48,96.007,248.91z"/>
	<path d="M277.265,278.52c0.589-2.914,6.646-2.688,3.527-2.688c-0.994,0-1.988,0-2.981,0 
		c-3.605,0-7.211,0-10.816,0c-12.289,0-24.579,0-36.869,0c-32.106,0-64.213,0-96.32,0c-17.783,0-35.566,0-53.349,0
		c2.518,0,4.586,7.053,4.586,4.083c0-0.843,0-1.686,0-2.528c0-0.941,0-1.884,0-2.825c0-3.936,0.268,3.274-4.714,3.274
		c0.417,0,0.834,0,1.251,0c2.648,0,5.297,0,7.946,0c10.979,0,21.959,0,32.938,0c52.687,0,105.375,0,158.062,0
		c0.354,0,0.707,0,1.061,0c-2.519,0-4.588-7.051-4.588-4.082c0,0.843,0,1.686,0,2.528c0,1.388,0,2.775,0,4.164
		c0,9.686,15.004,9.771,15.004,0.107c0-7.478-0.043-17.722-10.387-17.722c-1.702,0-3.404,0-5.107,0c-9.635,0-19.27,0-28.903,0
		c-31.401,0-62.802,0-94.203,0c-23.215,0-46.431,0-69.647,0c-2.253,0-4.169,0.025-6.423,0.48
		c-9.846,1.988-9.66,21.002-2.71,25.687c4.707,3.173,12.936,1.837,18.288,1.837c56.835,0,113.671,0,170.506,0
		c8.505,0,26.007,3.1,28.32-8.355C293.644,273.031,279.18,269.037,277.265,278.52z"/>
	<line sfill="none" stroke="#000" stroke-width="7" stroke-linecap="round" stroke-miterlimit="10" x1="263.833" y1="75.73" x2="263.833" y2="181.667"/>
	<path d="M148.452,181.203c5.48,5.479,10.96,10.96,16.44,16.439c4.564,4.564,11.635-2.507,7.071-7.07 c-5.48-5.48-10.96-10.96-16.44-16.44C150.959,169.568,143.889,176.64,148.452,181.203L148.452,181.203z"/>
	<path d="M239.391,203.165c-9.751,0-19.502,0-29.254,0c-9.686,0-9.771,15.004-0.107,15.004 c9.751,0,19.502,0,29.254,0C248.969,218.169,249.055,203.165,239.391,203.165L239.391,203.165z"/>
	<path fill="none" stroke="#000" stroke-width="3" stroke-linecap="round" stroke-miterlimit="10" d="M289.166,71.667 c0,2.211-12.447,9.167-24.896,2"/>
</g>
</svg>
