<svg xmlns="http://www.w3.org/2000/svg" viewBox="20 20 321 321">
<g fill="#000">
<path d="m127.412,146.07c46.192-18.91 92.385-37.821 138.577-56.731 7.613-3.117 15.227-6.233 22.84-9.35 5.884-2.409 3.312-12.086-2.658-9.643-46.192,18.91-92.385,37.821-138.578,56.731-7.613,3.117-15.226,6.233-22.839,9.35-5.884,2.409-3.312,12.087 2.658,9.643z"/>
<path d="M277.166,285.667c0,3.313-2.686,6-6,6H143.5c-3.313,0-6-2.687-6-6V274c0-3.313,2.687-6,6-6h127.667   c3.314,0,6,2.687,6,6V285.667z"/>
<path d="m238.669,212.901c-1.882,9.514-3.765,19.026-5.646,28.54-1.246,6.298 8.392,8.981 9.643,2.658 1.882-9.514 3.765-19.026 5.646-28.54 1.246-6.297-8.392-8.981-9.643-2.658z"/>
<path d="m232.166,244c-.111,8.111-.222,16.223-.333,24.334-.088,6.452 9.912,6.443 10,0 .111-8.111 .222-16.223 .333-24.334 .088-6.452-9.912-6.443-10,0z"/>
<path d="m237.166,239.334c-9.667,0-19.333,0-29,0-6.448,0-6.448,10 0,10 9.667,0 19.333,0 29,0 6.448,0 6.448-10 0-10z"/>
<path d="m205.248,246.528c-.931,7.436-1.862,14.872-2.793,22.308-.8,6.388 9.21,6.311 10,0 .931-7.436 1.862-14.872 2.793-22.308 .8-6.387-9.21-6.31-10-0z"/>
<path d="m154.5,237c0,9.889 0,19.778 0,29.667 0,6.448 10,6.448 10,0 0-9.889 0-19.778 0-29.667 0-6.448-10-6.448-10-0z"/>
<path d="m140.833,236.667c18.333,0 36.667,0 55,0 6.448,0 6.448-10 0-10-18.333,0-36.667,0-55,0-6.449,0-6.449,10 0,10z"/>
<path d="m165.5,281.334c-30.333,0-60.667,0-91,0-6.449,0-6.449,10 0,10 30.333,0 60.667,0 91,0 6.449,0 6.449-10 0-10z"/>
<path d="m172.5,236c0,9.889 0,19.778 0,29.667 0,6.448 10,6.448 10,0 0-9.889 0-19.778 0-29.667 0-6.448-10-6.448-10-0z"/>
</g>
<path fill="none"  stroke="#000" stroke-width="10" d="m269.166,86.797 0,184.537"/>
</svg>
