<svg xmlns="http://www.w3.org/2000/svg" viewBox="20 20 321 321">
<g fill="#000">
<path d="m268.551,261.68c.493,4.288 2.939,8.121 7.579,8.655 3.017,.348 7.827,.826 10.504-.876 3.729-2.372 4.699-5.741 4.699-9.818 0-9.195 0-18.392 0-27.587 0-31.239 0-62.478 0-93.716 0-10.417 0-20.833 0-31.25 0-1.83 .367-4.504-.265-6.271-1.401-3.921-4.402-6.649-8.753-6.649-3.544,0-7.989-.581-10.757,2.188-4.705,4.706-3.008,14.104-3.008,20.17 0,13.276 0,26.553 0,39.83 .001,35.108 .001,70.215 .001,105.324 0,4.514 7,4.514 7,0 0-49.14 0-98.279 0-147.419 0-3.243 0-6.486 0-9.73 0-4.418 8.782-4.652 8.782-1.562 0,6.196 0,12.393 0,18.589 0,30.471 0,60.943 0,91.414 0,12.47 0,24.939 0,37.408 0,3.168 0,6.335 0,9.503 0,.574 0,1.148 0,1.723 0,2.81-8.461,2.868-8.782,.074-.51-4.43-7.516-4.48-7,0z"/>
<path d="m209.514,132.791c17.278-6.84 34.557-13.681 51.835-20.522 1.777-.703 1.004-3.605-.797-2.893-17.278,6.84-34.557,13.681-51.835,20.522-1.778,.703-1.004,3.605 .797,2.893z"/>
<path d="m206.718,152.012c17.825,11.206 35.65,22.412 53.476,33.617 1.643,1.033 3.146-1.563 1.514-2.59-17.825-11.206-35.65-22.412-53.476-33.618-1.643-1.033-3.148,1.564-1.514,2.591z"/>
<path d="m190.522,147.18c-.68,3.975-4.872,2.928-7.347,2.84-2.762-.099-4.524-1.86-4.428-4.555 .148-4.165 .297-8.33 .446-12.494 .133-3.722 6.095-2.555 8.037-2.486 3.37,.12 3.752,2.721 3.665,5.153-.143,3.98-.284,7.961-.427,11.941-.069,1.936 2.931,1.929 3,0 .105-2.943 .21-5.886 .315-8.829 .111-3.124 .775-6.443-1.152-9.13-1.89-2.635-5.833-2.151-8.647-2.251-3.807-.136-7.017,.929-7.735,5.131-.46,2.691-.241,5.637-.337,8.358-.085,2.369-1.047,6.977 .487,9.116 3.542,4.938 15.81,5.061 17.016-1.996 .323-1.893-2.567-2.702-2.893-.798z"/>
<path d="m186.877,129.025c-.27,7.55-.539,15.101-.809,22.651-.069,1.936 2.932,1.929 3,0 .27-7.55 .539-15.101 .809-22.651 .069-1.936-2.932-1.929-3,0z"/>
<path d="m173.499,155.608c-.675,4.453-7.739,2.707-10.835,2.597-7.152-.255-14.303-.51-21.455-.766-13.311-.475-26.621-.95-39.932-1.424-5.088-.182-3.557-6.113-3.426-9.771 .222-6.222 .444-12.444 .667-18.667 .119-3.325 9.146-1.77 10.71-1.713 7.152,.255 14.303,.51 21.455,.765 13.311,.475 26.621,.95 39.932,1.425 5.088,.182 3.556,6.113 3.426,9.771-.223,6.238-.445,12.476-.667,18.714-.161,4.516 6.839,4.5 7,0 .212-5.937 .423-11.874 .635-17.811 .212-5.927 1.718-14.041-5.267-16.822-3.341-1.331-7.558-.938-11.089-1.064-7.043-.251-14.087-.502-21.131-.754-13.521-.482-27.041-.965-40.561-1.447-5.689-.203-11.209,2.422-11.442,8.938-.222,6.222-.444,12.444-.667,18.667-.121,3.373-1.112,8.528 .703,11.62 2.136,3.64 5.366,4.996 9.405,5.14 8.813,.314 17.626,.628 26.439,.943 11.298,.403 22.596,.806 33.894,1.209 7.125,.254 17.473,2.11 18.957-7.686 .668-4.417-6.077-6.315-6.751-1.864z"/>
<path d="m103.692,136.515c10.81,.386 21.619,.771 32.429,1.157 1.936,.069 1.929-2.931 0-3-10.81-.386-21.619-.771-32.429-1.157-1.936-.069-1.929,2.931 0,3z"/>
<path d="m103.868,131.587c10.81,.386 21.619,.771 32.429,1.157 1.936,.069 1.929-2.931 0-3-10.81-.386-21.619-.771-32.429-1.157-1.936-.068-1.929,2.932 0,3z"/>
<path d="m103.516,141.442c10.81,.386 21.619,.771 32.428,1.157 1.936,.069 1.929-2.931 0-3-10.81-.386-21.619-.771-32.428-1.157-1.935-.069-1.929,2.931-0,3z"/>
<path d="m187.568,79.667c33.088,0 66.177,0 99.265,0 6.448,0 6.448-10 0-10-33.088,0-66.177,0-99.265,0-6.448,0-6.448,10-0,10z"/>
<path d="m86.717,171.961c29.714,6.772 59.428,13.543 89.142,20.315 6.279,1.431 8.945-8.21 2.658-9.643-29.714-6.772-59.428-13.543-89.142-20.315-6.278-1.43-8.944,8.211-2.658,9.643z"/>
<path d="m75.235,79.667c5.088,0 10.177,0 15.265,0 6.449,0 6.449-10 0-10-5.088,0-10.177,0-15.265,0-6.449,0-6.449,10 0,10z"/>
<path d="m84.329,76.667c37.556,0 75.111,0 112.667,0 4.514,0 4.514-7 0-7-37.556,0-75.111,0-112.667,0-4.514,0-4.514,7 0,7z"/>
<path d="m134.402,276.541c-.513,8.886-9.127,7.96-15.471,7.96-7.75,0-15.501,0-23.252,0-5.377,0-13.058,1.416-16.638-3.583-2.708-3.781-1.306-11.851-1.306-16.127 0-7.666 0-15.331 0-22.996 0-5.901-.268-13.962 8.084-13.962 12.595,0 25.189,0 37.784,0 5.227,0 10.798,1.603 10.798,8.085 0,3.876 0,7.751 0,11.626 .001,9.666 .001,19.331 .001,28.997 0,4.514 7,4.514 7,0 0-12.253 0-24.506 0-36.759 0-6.784-1.089-12.418-7.05-16.688-4.412-3.159-11.093-2.262-16.219-2.262-7.768,0-15.535,0-23.303,0-5.455,0-10.815-.524-15.941,1.643-6.807,2.878-8.153,10.219-8.153,16.711 0,7.289 0,14.578 0,21.867 0,7.145-1.202,15.564 1.643,22.293 3.744,8.856 13.781,8.154 21.626,8.154 9.483,0 18.966,0 28.449,0 3.009,0 5.848,.074 8.784-.793 6.274-1.854 9.808-7.985 10.165-14.167 .259-4.511-6.742-4.485-7.001,.001z"/>
<path d="m102.745,237.626c0,12.361 0,24.722 0,37.083 0,4.514 7,4.514 7,0 0-12.361 0-24.722 0-37.083 0-4.514-7-4.514-7,0z"/>
</g>
</svg>
