<svg xmlns="http://www.w3.org/2000/svg" viewBox="20 20 321 321">
<g fill="#000">
<path d="m257.686,115.265c-48.647,0-97.294,0-145.942,0-2.517,0-5.034,0-7.551,0-6.449,0-6.449,10 0,10 48.647,0 97.294,0 145.942,0 2.517,0 5.034,0 7.551,0 6.448,0 6.448-10 0-10z"/>
<path d="m252.686,276.238c-.532,7.91-16.387,5.186-21.503,5.186-14.594,0-29.187,0-43.779,0-24.468,0-48.936,0-73.403,0-7.307,0-5.8-8.537-5.8-13.446 0-10.97 0-21.938 0-32.908 0-31.835 0-63.67 0-95.506 0-18.101 0-36.202 0-54.303 0-7.789 16.191-5.193 20.83-5.193 14.487,0 28.975,0 43.462,0 24.744,0 49.488,0 74.232,0 7.356,0 5.961,8.011 5.961,13.014 0,10.835 0,21.67 0,32.506 0,50.208 0,100.416 0,150.624 0,.008 0,.017 0,.026 0,6.448 10,6.448 10,0 0-49.658 0-99.317 0-148.975 0-11.102 0-22.204 0-33.306 0-8.689 .648-17.717-8.697-22.407-6.351-3.187-16.718-1.483-23.49-1.483-14.695,0-29.392,0-44.087,0-24.185,0-48.369,0-72.553,0-8.85,0-15.08,6.593-15.658,15.186-.091,1.352 0,2.741 0,4.095 0,9.405 0,18.81 0,28.215 0,52.567 0,105.133 0,157.701 0,6.304 2.96,11.797 8.697,14.676 3.232,1.622 6.694,1.483 10.172,1.483 11.157,0 22.313,0 33.47,0 29.31,0 58.62,0 87.93,0 2.853,0 5.705,0 8.559,0 8.85,0 15.079-6.593 15.657-15.186 .433-6.439-9.57-6.397-10,.001z"/>
<path d="m167.634,87.167c8.715,0 17.43,0 26.146,0 9.686,0 9.771-15.003 .107-15.003-8.715,0-17.43,0-26.145,0-9.686,.001-9.772,15.003-.108,15.003z"/>
</g>
<path fill="none"  stroke="#000" d="m44.239,121.792"/>
<g fill="#000">
<path d="m122.728,110.667c3.307,0 6.613,0 9.92,0 1.935,0 1.935-3 0-3-3.307,0-6.613,0-9.92,0-1.935,0-1.935,3 0,3z"/>
<path d="m122.728,90.833c3.307,0 6.613,0 9.92,0 1.935,0 1.935-3 0-3-3.307,0-6.613,0-9.92,0-1.935,0-1.935,3 0,3z"/>
<path d="m227.436,110.667c3.307,0 6.613,0 9.92,0 1.935,0 1.935-3 0-3-3.307,0-6.613,0-9.92,0-1.935,0-1.935,3 0,3z"/>
<path d="m122.728,104.056c3.307,0 6.613,0 9.92,0 1.935,0 1.935-3 0-3-3.307,0-6.613,0-9.92,0-1.935,0-1.935,3 0,3z"/>
<path d="m122.728,97.445c3.307,0 6.613,0 9.92,0 1.935,0 1.935-3 0-3-3.307,0-6.613,0-9.92,0-1.935,0-1.935,3 0,3z"/>
<path d="m200.72,99.452c-.543,2.007-5.591,1.049-7.081,1.049-4.938,0-9.874,0-14.811,0-4.534,0-9.067,0-13.601,0-1.107,0-2.215,0-3.323,0-1.547,0-.948-4.021-.948-4.982 0-1.879 20.847-.904 22.824-.904 4.401,0 8.803,0 13.204,0 .966,0 1.932,0 2.897,0 1.316,0 .783,4.425 .783,5.236 0,1.935 3,1.935 3,0 0-3.438 .64-8.236-4.172-8.236-4.912,0-9.823,0-14.734,0-6.076,0-12.152,0-18.229,0-3.351,0-7.417-.831-8.52,3.251-.859,3.175-.323,8.635 3.894,8.635 4.663,0 9.326,0 13.989,0 6.4,0 12.799,0 19.199,0 3.351,0 7.416,.831 8.52-3.251 .507-1.871-2.387-2.664-2.891-.798z"/>
<path d="m118.5,273.167c41.444,0 82.889,0 124.333,0 4.514,0 4.514-7 0-7-41.444,0-82.889,0-124.333,0-4.514,0-4.514,7 0,7z"/>
<path d="m115,237.667c0,10.667 0,21.333 0,32 0,4.514 7,4.514 7,0 0-10.667 0-21.333 0-32 0-4.514-7-4.514-7-0z"/>
<path d="m246.333,269.667c0-10.667 0-21.333 0-32 0-4.514-7-4.514-7,0 0,10.667 0,21.333 0,32 0,4.514 7,4.514 7,0z"/>
<path d="m235.92,237.926c-.323,11.585-9.41,20.955-21.161,20.955-6.571,0-13.144,0-19.715,0-9.021,0-16.967-1.866-22.233-10.006-4.089-6.321-3.084-14.447-3.084-21.617 0-6.726-.837-14.171 1.207-20.665 3.055-9.707 12.632-13.905 22.027-13.905 6.932,0 13.862,0 20.794,0 10.488,0 19.059,6.169 21.688,16.466 1.197,4.689 .478,10.382 .478,15.158-.001,4.538-.001,9.076-.001,13.614 0,4.514 7,4.514 7,0 0-12.8 2.542-28.592-4.746-39.856-9.775-15.11-28.435-12.382-43.881-12.382-8.254,0-15.361,1.54-21.952,6.87-6.864,5.552-9.614,14.271-9.614,22.795 0,15.085-2.839,32.451 9.614,43.658 10.391,9.351 26.148,6.87 39.012,6.87 6.91,0 13.227-.891 19.186-4.746 7.864-5.087 12.126-14.026 12.382-23.209 .125-4.517-6.875-4.505-7.001-0z"/>
<path d="m223.004,233.479c-.721,15.156-16.702,12.988-27.373,12.988-15.166,0-12.989-17.15-12.989-27.374 0-15.165 17.151-12.989 27.374-12.989 15.164,0 12.988,17.152 12.988,27.375 0,1.935 3,1.935 3,0 0-4.795 0-9.591 0-14.386 0-9.014-7.298-15.576-15.988-15.989-4.772-.227-9.605,0-14.385,0-9.015,0-15.576,7.299-15.989,15.989-.227,4.773 0,9.606 0,14.386 0,9.015 7.299,15.575 15.989,15.988 4.772,.227 9.605,0 14.385,0 9.014,0 15.575-7.298 15.988-15.988 .092-1.935-2.908-1.926-3,0z"/>
<path d="m167.126,260.112c-5.398-4.829-11.758-9.037-13.396-16.403-1.106-4.978-2.087-9.985-3.128-14.977-1.053-5.047-2.108-10.094-3.159-15.143-1.549-7.445 2.361-13.606 5.413-20.266 1.866-4.073-4.166-7.633-6.044-3.533-3.238,7.065-7.947,14.677-6.66,22.747 .914,5.73 2.314,11.415 3.499,17.093 1.16,5.561 2.262,11.137 3.495,16.682 1.84,8.28 9.025,13.377 15.03,18.749 3.353,3.001 8.321-1.933 4.95-4.949z"/>
<path d="m153.473,260.112c-5.398-4.829-11.758-9.037-13.396-16.403-1.106-4.978-2.087-9.985-3.128-14.977-1.053-5.047-2.108-10.094-3.159-15.143-1.549-7.445 2.361-13.606 5.413-20.266 1.866-4.073-4.166-7.633-6.044-3.533-3.238,7.065-7.947,14.677-6.66,22.747 .914,5.73 2.314,11.415 3.499,17.093 1.16,5.561 2.262,11.137 3.495,16.682 1.84,8.28 9.025,13.377 15.03,18.749 3.353,3.001 8.321-1.933 4.95-4.949z"/>
<path d="m140.818,260.112c-5.398-4.829-11.758-9.037-13.396-16.403-1.106-4.978-2.087-9.985-3.128-14.977-1.053-5.047-2.108-10.094-3.159-15.143-1.549-7.445 2.361-13.606 5.413-20.266 1.866-4.073-4.166-7.633-6.044-3.533-3.238,7.065-7.947,14.677-6.66,22.747 .914,5.73 2.314,11.415 3.499,17.093 1.16,5.561 2.262,11.137 3.495,16.682 1.84,8.28 9.025,13.377 15.03,18.749 3.353,3.001 8.321-1.933 4.95-4.949z"/>
<path d="m124.556,150.167c36.78,0 73.56,0 110.34,0 1.935,0 1.935-3 0-3-36.78,0-73.56,0-110.34,0-1.934,0-1.934,3-0,3z"/>
<path d="m186.333,148.667c-.298,2.95-3.678,2.333-5.711,2.333-2.102,0-5.98,.73-6.289-2.333-.296-2.935 4.056-2.333 5.711-2.333 2.102,0 5.98-.73 6.289,2.333 .192,1.906 3.194,1.924 3,0-.513-5.083-4.605-5.333-8.711-5.333-4.235,0-8.747-.041-9.289,5.333-.513,5.091 5.277,5.333 8.711,5.333 4.235,0 8.747,.041 9.289-5.333 .194-1.924-2.808-1.905-3,0z"/>
<path d="m139.75,154.045c.416,2.384 .832,4.768 1.249,7.152 .332,1.903 3.223,1.094 2.893-.798-.416-2.384-.832-4.768-1.249-7.152-.332-1.903-3.223-1.094-2.893,.798z"/>
<path d="m129.005,164.944c-.425,1.892-.851,3.783-1.276,5.674-.424,1.884 2.468,2.685 2.893,.798 .425-1.892 .851-3.783 1.276-5.674 .424-1.884-2.468-2.685-2.893-.798z"/>
<path d="m142.036,165.877c.41,2.35 .82,4.699 1.231,7.049 .332,1.903 3.223,1.094 2.893-.798-.41-2.35-.82-4.699-1.231-7.049-.333-1.903-3.224-1.093-2.893,.798z"/>
<path d="m132.099,153.169c-.582,2.584-1.163,5.168-1.745,7.751-.424,1.884 2.468,2.685 2.893,.798 .582-2.584 1.163-5.168 1.745-7.751 .424-1.884-2.469-2.684-2.893-.798z"/>
<path d="m126.583,176.014c-.575,2.556-1.15,5.111-1.726,7.668-.424,1.884 2.468,2.685 2.893,.797 .575-2.556 1.15-5.111 1.726-7.667 .424-1.885-2.468-2.685-2.893-.798z"/>
<path d="m144.08,177.624c.246,1.407 .491,2.813 .737,4.22 .141,.807 1.115,1.249 1.845,1.048 .844-.232 1.188-1.04 1.047-1.845-.246-1.407-.491-2.814-.737-4.221-.141-.806-1.115-1.249-1.845-1.047-.843,.232-1.188,1.04-1.047,1.845z"/>
<path d="m139.333,179.587c-.011-1.865-.023-3.729-.034-5.594-.012-1.934-3.012-1.935-3,0 .011,1.865 .023,3.729 .034,5.594 .012,1.934 3.012,1.935 3,0z"/>
<path d="m139.049,169.206c-.015-2.385-.029-4.77-.043-7.155-.012-1.934-3.012-1.935-3,0 .015,2.385 .029,4.77 .043,7.155 .012,1.934 3.012,1.935 3,0z"/>
<path d="m138.983,157.283c-.009-1.428-.017-2.856-.026-4.284-.012-1.934-3.012-1.935-3,0 .009,1.428 .017,2.856 .026,4.284 .012,1.934 3.012,1.935 3,0z"/>
<path d="m139.371,203.041c-.017-2.818-.035-5.637-.052-8.455-.012-1.934-3.012-1.936-3,0 .017,2.818 .035,5.637 .052,8.455 .011,1.934 3.011,1.936 3,0z"/>
<path d="m139.336,189.932c-.008-1.357-.016-2.715-.024-4.072-.012-1.934-3.012-1.936-3,0 .008,1.357 .016,2.715 .024,4.072 .012,1.933 3.012,1.935 3,0z"/>
<path d="m145.991,186.424c.246,1.407 .491,2.814 .737,4.221 .141,.807 1.115,1.249 1.845,1.048 .844-.232 1.188-1.04 1.047-1.845-.246-1.407-.491-2.814-.737-4.221-.141-.807-1.115-1.249-1.845-1.048-.843,.233-1.187,1.04-1.047,1.845z"/>
<path d="m147.483,195.256c.41,2.35 .82,4.699 1.231,7.049 .332,1.903 3.223,1.095 2.893-.797-.41-2.35-.82-4.699-1.231-7.049-.332-1.903-3.223-1.095-2.893,.797z"/>
<path d="m123.346,188.697c-.425,1.891-.851,3.782-1.276,5.674-.424,1.884 2.468,2.685 2.893,.797 .425-1.891 .851-3.782 1.276-5.674 .424-1.884-2.468-2.684-2.893-.797z"/>
<path d="m120.587,199.672c-.223,.99-.446,1.981-.668,2.973-.179,.797 .232,1.62 1.047,1.845 .76,.209 1.666-.25 1.845-1.048 .223-.99 .446-1.981 .668-2.973 .179-.797-.232-1.62-1.047-1.845-.76-.209-1.666,.25-1.845,1.048z"/>
<path d="m134.545,151.167c1.851,0 3.703,0 5.554,0 1.908,0 3.5-1.592 3.5-3.5s-1.592-3.5-3.5-3.5c-1.851,0-3.703,0-5.554,0-1.908,0-3.5,1.592-3.5,3.5s1.592,3.5 3.5,3.5z"/>
<path d="m217.136,153.247c-.416,2.384-.832,4.769-1.248,7.152-.33,1.892 2.561,2.701 2.893,.798 .416-2.384 .832-4.769 1.248-7.152 .329-1.892-2.561-2.701-2.893-.798z"/>
<path d="m227.882,165.742c.425,1.891 .851,3.782 1.275,5.674 .424,1.887 3.316,1.086 2.893-.798-.425-1.891-.851-3.782-1.275-5.674-.424-1.887-3.317-1.086-2.893,.798z"/>
<path d="m214.851,165.08c-.41,2.35-.82,4.699-1.23,7.049-.33,1.892 2.561,2.701 2.893,.798 .41-2.35 .82-4.699 1.23-7.049 .329-1.892-2.561-2.702-2.893-.798z"/>
<path d="m224.788,153.967c.581,2.583 1.163,5.167 1.744,7.751 .425,1.887 3.316,1.086 2.893-.798-.581-2.583-1.163-5.167-1.744-7.751-.425-1.887-3.317-1.086-2.893,.798z"/>
<path d="m230.304,176.812c.575,2.556 1.15,5.111 1.726,7.667 .425,1.888 3.316,1.087 2.893-.797-.575-2.557-1.15-5.112-1.726-7.668-.426-1.887-3.317-1.087-2.893,.798z"/>
<path d="m212.807,176.826c-.246,1.407-.491,2.813-.737,4.221-.141,.805 .203,1.612 1.048,1.845 .73,.201 1.704-.241 1.845-1.048 .246-1.406 .491-2.813 .737-4.22 .141-.805-.203-1.613-1.048-1.845-.731-.201-1.705,.241-1.845,1.047z"/>
<path d="m223.446,179.587c.012-1.865 .022-3.729 .034-5.594 .012-1.935-2.988-1.934-3,0-.012,1.865-.022,3.729-.034,5.594-.011,1.935 2.989,1.934 3,0z"/>
<path d="m223.73,169.206c.015-2.385 .028-4.77 .043-7.155 .012-1.935-2.988-1.934-3,0-.015,2.385-.028,4.77-.043,7.155-.011,1.935 2.989,1.934 3,0z"/>
<path d="m223.796,157.283c.009-1.428 .018-2.856 .026-4.284 .012-1.935-2.988-1.934-3,0-.009,1.428-.018,2.856-.026,4.284-.012,1.935 2.988,1.934 3,0z"/>
<path d="m223.408,203.041c.018-2.818 .035-5.637 .053-8.455 .012-1.936-2.988-1.934-3,0-.018,2.818-.035,5.637-.053,8.455-.012,1.936 2.988,1.934 3,0z"/>
<path d="m223.443,189.932c.008-1.357 .017-2.715 .024-4.072 .012-1.936-2.988-1.934-3,0-.008,1.357-.017,2.715-.024,4.072-.011,1.935 2.989,1.933 3,0z"/>
<path d="m210.896,185.627c-.245,1.406-.491,2.813-.736,4.221-.141,.805 .203,1.612 1.048,1.845 .73,.201 1.704-.241 1.845-1.048 .245-1.406 .491-2.813 .736-4.221 .141-.805-.203-1.612-1.048-1.845-.731-.201-1.705,.241-1.845,1.048z"/>
<path d="m209.403,194.459c-.41,2.35-.82,4.699-1.23,7.049-.33,1.892 2.561,2.7 2.893,.797 .41-2.35 .82-4.699 1.23-7.049 .33-1.892-2.561-2.7-2.893-.797z"/>
<path d="m233.54,189.494c.426,1.892 .851,3.783 1.276,5.674 .425,1.888 3.316,1.087 2.893-.797-.426-1.892-.851-3.783-1.276-5.674-.425-1.887-3.317-1.087-2.893,.797z"/>
<path d="m236.3,200.469c.223,.991 .445,1.982 .668,2.973 .179,.798 1.086,1.257 1.845,1.048 .816-.225 1.228-1.048 1.048-1.845-.223-.991-.445-1.982-.668-2.973-.179-.798-1.086-1.257-1.845-1.048-.817,.225-1.228,1.048-1.048,1.845z"/>
<path d="m219.98,151.167c1.852,0 3.702,0 5.554,0 1.908,0 3.5-1.592 3.5-3.5s-1.592-3.5-3.5-3.5c-1.852,0-3.702,0-5.554,0-1.908,0-3.5,1.592-3.5,3.5s1.592,3.5 3.5,3.5z"/>
<path d="m191.93,110.667c3.307,0 6.613,0 9.92,0 1.935,0 1.935-3 0-3-3.307,0-6.613,0-9.92,0-1.935,0-1.935,3 0,3z"/>
<path d="m168.684,110.667c3.307,0 6.613,0 9.92,0 1.935,0 1.935-3 0-3-3.307,0-6.613,0-9.92,0-1.935,0-1.935,3 0,3z"/>
<path d="m145.438,110.667c3.307,0 6.613,0 9.92,0 1.935,0 1.935-3 0-3-3.307,0-6.613,0-9.92,0-1.935,0-1.935,3 0,3z"/>
</g>
</svg>
