<svg xmlns="http://www.w3.org/2000/svg" viewBox="20 20 321 321">
<g fill="#000">
<path d="m143.388,214.87c0,24.089 0,48.177 0,72.266 0,6.448 10,6.448 10,0 0-24.089 0-48.177 0-72.266 0-6.448-10-6.448-10,0z"/>
<path d="m158.541,214.947c0,24.089 0,48.178 0,72.267 0,6.448 10,6.448 10,0 0-24.089 0-48.178 0-72.267 0-6.448-10-6.448-10,0z"/>
<path d="m173.693,214.947c0,24.089 0,48.178 0,72.267 0,6.448 10,6.448 10,0 0-24.089 0-48.178 0-72.267 0-6.448-10-6.448-10,0z"/>
<path d="m188.846,214.947c0,24.089 0,48.178 0,72.267 0,6.448 10,6.448 10,0 0-24.089 0-48.178 0-72.267 0-6.448-10-6.448-10,0z"/>
<path d="m203.998,214.87c0,24.089 0,48.177 0,72.266 0,6.448 10,6.448 10,0 0-24.089 0-48.177 0-72.266 0-6.448-10-6.448-10,0z"/>
<path d="m219.15,214.947c0,24.089 0,48.178 0,72.267 0,6.448 10,6.448 10,0 0-24.089 0-48.178 0-72.267 0-6.448-10-6.448-10,0z"/>
<path d="m234.304,214.947c0,24.089 0,48.178 0,72.267 0,6.448 10,6.448 10,0 0-24.089 0-48.178 0-72.267 0-6.448-10-6.448-10,0z"/>
<path d="m249.455,214.947c0,24.089 0,48.178 0,72.267 0,6.448 10,6.448 10,0 0-24.089 0-48.178 0-72.267-0-6.448-10-6.448-10,0z"/>
<path d="m264.608,214.87c0,24.089 0,48.177 0,72.266 0,6.448 10,6.448 10,0 0-24.089 0-48.177 0-72.266 0-6.448-10-6.448-10,0z"/>
<path d="m142.516,233.935c45.162,0 90.324,0 135.486,0 .052,0 .103,0 .154,0 6.448,0 6.448-10 0-10-45.162,0-90.324,0-135.486,0-.051,0-.103,0-.154,0-6.449,0-6.449,10 0,10z"/>
<path d="m142.083,277.761c45.382,0 90.763,0 136.145,0 .08,0 .159,0 .239,0 6.448,0 6.448-10 0-10-45.382,0-90.763,0-136.145,0-.08,0-.16,0-.239,0-6.449,0-6.449,10 0,10z"/>
<path d="m119.333,286.813c0,2.428-1.42,4.396-3.172,4.396h-8.989c-1.752,0-3.172-1.969-3.172-4.396v-111.75c0-2.428 1.42-4.396 3.172-4.396h8.989c1.752,0 3.172,1.969 3.172,4.396v111.75z"/>
<path d="m118.035,210.702c7.611-9.277 15.222-18.556 22.833-27.833 4.054-4.942-2.978-12.061-7.071-7.071-7.611,9.278-15.222,18.556-22.833,27.834-4.054,4.941 2.978,12.059 7.071,7.07z"/>
<path d="m167.972,161.25c0,2.577-1.991,4.667-4.449,4.667h-59.866c-2.458,0-4.449-2.089-4.449-4.667v-30.917c0-2.577 1.991-4.667 4.449-4.667h59.866c2.458,0 4.449,2.089 4.449,4.667v30.917z"/>
<path d="m160.244,138.515c0,2.155-1.747,3.902-3.901,3.902h-48.608c-2.155,0-3.902-1.747-3.902-3.902v-21.946c0-2.155 1.747-3.902 3.902-3.902h48.608c2.154,0 3.901,1.747 3.901,3.902v21.946z"/>
<path d="m132.711,133.616c0,1.438-1.547,2.605-3.456,2.605h-32.967c-1.908,0-3.455-1.167-3.455-2.605v-31.593c0-1.438 1.547-2.605 3.455-2.605h32.968c1.908,0 3.456,1.167 3.456,2.605v31.593z"/>
<path d="m149.083,122.667c0,3.313-2.687,6-6,6h-9.875c-3.313,0-6-2.687-6-6v-19.375c0-3.313 2.687-6 6-6h9.875c3.313,0 6,2.687 6,6v19.375z"/>
<path d="m113.958,164.417c0,3.313-2.687,6-6,6h-15.75c-3.313,0-6-2.687-6-6v-15.75c0-3.313 2.687-6 6-6h15.75c3.313,0 6,2.687 6,6v15.75z"/>
<path d="m106.583,132.667c0,3.313-3.471,6-7.753,6h-13.244c-4.282,0-7.753-2.687-7.753-6v-22.75c0-3.313 3.471-6 7.753-6h13.244c4.282,0 7.753,2.687 7.753,6v22.75z"/>
<path d="m91.833,160.667c0,3.313-2.687,6-6,6h-10c-3.313,0-6-2.687-6-6v-40.333c0-3.313 2.687-6 6-6h10c3.313,0 6,2.687 6,6v40.333z"/>
<path d="m160.167,175c0,3.313-2.687,6-6,6h-70.334c-3.313,0-6-2.686-6-6v-8c0-3.313 2.687-6 6-6h70.333c3.313,0 6,2.687 6,6v8z"/>
<path d="m113.083,180.667c0,2.624-2.126,4.75-4.75,4.75h-12c-2.624,0-4.75-2.126-4.75-4.75 0-2.624 2.126-4.75 4.75-4.75h12c2.624,0 4.75,2.126 4.75,4.75z"/>
<path d="m257.676,136.829c3.133-3.946 6.266-7.892 9.398-11.837 1.693-2.132 2.091-4.98 0-7.071-1.761-1.761-5.373-2.138-7.07,0-3.133,3.946-6.266,7.892-9.398,11.837-1.693,2.132-2.091,4.98 0,7.071 1.76,1.761 5.373,2.137 7.07,0z"/>
<path d="m263.931,125.112c5.013-.507 10.025-1.015 15.038-1.522 2.711-.274 5-2.067 5-5 0-2.518-2.283-5.275-5-5-5.013,.507-10.025,1.015-15.038,1.522-2.711,.274-5,2.067-5,5 0,2.517 2.283,5.275 5,5z"/>
<path d="m254.868,128.926c-4.906-1.145-9.813-2.289-14.72-3.434-6.274-1.464-8.938,8.178-2.658,9.643 4.906,1.145 9.813,2.289 14.72,3.434 6.274,1.463 8.937-8.179 2.658-9.643z"/>
<path d="m234.558,125.442c-4.26,2.691-8.519,5.382-12.778,8.073-5.435,3.434-.422,12.09 5.047,8.635 4.26-2.691 8.52-5.382 12.778-8.073 5.434-3.433 .421-12.09-5.047-8.635z"/>
</g>
</svg>
