<svg xmlns="http://www.w3.org/2000/svg" viewBox="20 20 321 321">
<path fill="none"  stroke="#000" stroke-width="10" d="m256.414,271.2c0,2.333-1.893,4.225-4.227,4.225h-142.708c-2.333,0-4.226-1.892-4.226-4.225v-192.308c0-2.333 1.892-4.225 4.226-4.225h142.708c2.334,0 4.227,1.892 4.227,4.225v192.308z"/>
<g fill="#000">
<path d="m179.784,185.12c2.921,3.856 2.09,7.201-.466,10.853-2.315,3.306-2.464,6.753-.902,10.367 .766,1.771 3.35,.242 2.59-1.514-2.034-4.707 1.729-7.786 3.406-11.776 1.337-3.18-.083-6.862-2.038-9.443-1.152-1.522-3.759-.03-2.59,1.513z"/>
<path d="m188.74,187.648c2.537,3.348 1.808,6.213-.411,9.379-2.079,2.968-2.195,6.071-.794,9.313 .766,1.771 3.35,.242 2.59-1.514-1.742-4.031 1.573-6.796 3.02-10.235 1.194-2.84-.065-6.15-1.814-8.456-1.153-1.521-3.761-.03-2.591,1.513z"/>
<path d="m170.334,187.648c2.536,3.348 1.808,6.214-.411,9.379-2.079,2.968-2.196,6.071-.794,9.313 .767,1.771 3.35,.242 2.591-1.514-1.744-4.03 1.573-6.797 3.019-10.235 1.194-2.84-.065-6.149-1.813-8.456-1.153-1.522-3.76-.03-2.592,1.513z"/>
<path d="m192.477,104.19c4.632,0 9.264,0 13.896,0 4.514,0 4.514-7 0-7-4.632,0-9.264,0-13.896,0-4.514,0-4.514,7 0,7z"/>
<path d="m222.582,109.375c-.834,0-1.669,0-2.503,0-1.908,0-3.5,1.592-3.5,3.5s1.592,3.5 3.5,3.5c.834,0 1.669,0 2.503,0 1.908,0 3.5-1.592 3.5-3.5s-1.592-3.5-3.5-3.5z"/>
<path d="m220.021,104.19c.748,0 1.495,0 2.243,0 1.908,0 3.5-1.592 3.5-3.5s-1.592-3.5-3.5-3.5c-.748,0-1.495,0-2.243,0-1.908,0-3.5,1.592-3.5,3.5s1.591,3.5 3.5,3.5z"/>
<path d="m114.768,291.667c44.167,0 88.333,0 132.5,0 6.448,0 6.448-10 0-10-44.166,0-88.333,0-132.5,0-6.449,0-6.449,10 0,10z"/>
<path d="m219.518,156.167c-.257,2.546-27.548,1-30.102,1-14.095,0-28.189,0-42.284,0-1.153,0-2.305,0-3.458,0-1.817,0-1.156-3.632-1.156-4.699 0-1.955-1.295-14.801 1.275-14.801 11.579,0 23.158,0 34.737,0 12.125,0 24.249,0 36.373,0 2.65,0 4.614-.649 4.614,2.578 .001,5.307 .001,10.615 .001,15.922 0,6.449 10,6.449 10,0 0-5.742 0-11.484 0-17.226 0-7.106-5.732-11.274-12.352-11.274-12.879,0-25.757,0-38.636,0-11.579,0-23.158,0-34.737,0-8.231,0-11.275,6.845-11.275,13.919 0,6.335-1.428,14.684 1.708,20.459 3.529,6.502 12.545,5.122 18.681,5.122 10.199,0 20.399,0 30.598,0 9.599,0 19.197,0 28.796,0 2.021,0 4.041,0 6.061,0 6.478,0 10.547-4.949 11.156-11 .646-6.415-9.36-6.353-10-0z"/>
<path d="m159.2,174.869c.62,.1 .48,2.116 .48,.349 0-.768 0-1.537 0-2.305 0-1.891 0-3.782 0-5.673 0-.617 0-1.233 0-1.849 0-1.041-2.301,1.055-.777,1.055 1.794,0 3.588,0 5.383,0-1.514,0-1.333-2.376-1.333-.474 0,.768 0,1.537 0,2.305 0,2.047 0,4.093 0,6.14 0,.525 0,1.05 0,1.575 0-1.053 2.379-1.249 .341-1.249-1.675,0-3.35,0-5.025,0-4.514,0-4.514,7 0,7 2.308,0 4.741,.242 7.025-.125 3.513-.565 4.659-3.639 4.659-6.777 0-4.621 1.824-14.228-4.659-15.271-2.284-.368-4.717-.125-7.025-.125-3.727,0-5.589,3.201-5.589,6.526 0,4.663-1.892,14.592 4.659,15.646 4.414,.713 6.308-6.032 1.861-6.748z"/>
<path d="m197.853,174.869c.62,.1 .48,2.116 .48,.349 0-.768 0-1.537 0-2.305 0-1.891 0-3.782 0-5.673 0-.617 0-1.233 0-1.849 0-1.041-2.302,1.055-.777,1.055 1.795,0 3.589,0 5.383,0-1.514,0-1.332-2.376-1.332-.474 0,.768 0,1.537 0,2.305 0,2.047 0,4.093 0,6.14 0,.525 0,1.05 0,1.575 0-1.053 2.379-1.249 .341-1.249-1.675,0-3.351,0-5.025,0-4.514,0-4.514,7 0,7 2.308,0 4.741,.242 7.025-.125 3.513-.565 4.659-3.639 4.659-6.777 0-4.621 1.823-14.228-4.659-15.271-2.284-.368-4.718-.125-7.025-.125-3.727,0-5.589,3.201-5.589,6.526 0,4.662-1.892,14.592 4.658,15.646 4.414,.713 6.308-6.032 1.861-6.748z"/>
<path d="m145.365,276.667c23.645,0 47.29,0 70.936,0 6.448,0 6.448-10 0-10-23.646,0-47.291,0-70.936,0-6.448,0-6.448,10 0,10z"/>
<path d="m196.205,249.046c-.469,8.709-10.487,7-16.504,7-5.489,0-15.013,1.902-18.54-3.467-1.225-1.865-.99-4.522-1.064-6.677-.119-3.456-.238-6.912-.357-10.368-.175-5.08-1.457-11.368-.436-16.394-.248,1.223-1.148,.782 .845,.729 1.157-.031 2.327,.063 3.482,.113 1.132,.049 2.264,.063 3.397,.063 3.062,0 6.123,0 9.185,0 6.318,0 12.634,.077 18.948-.16 .865-.032 1.769-.075 2.623,.092-1.114-.218-.51-1.929-.581,.112-.021,.642-.044,1.283-.066,1.925-.109,3.194-.22,6.389-.33,9.584-.201,5.816-.402,11.632-.602,17.448-.223,6.452 9.778,6.431 10,0 .2-5.815 .401-11.632 .602-17.447 .18-5.196 1.808-13.21-1.353-17.805-4.076-5.927-13.522-3.748-19.775-3.748-6.473,0-12.946,0-19.418,0-7.829,0-17.411-.321-17.042,10.386 .229,6.633 .458,13.266 .687,19.899 .229,6.64-.383,13.858 4.08,19.338 5.453,6.693 13.012,6.377 20.772,6.377 4.816,0 9.632,0 14.447,0 9.608,0 16.504-7.781 17-17 .347-6.447-9.654-6.413-10,0z"/>
<path d="m149.831,245.707c-9.324-.502-9.324-14.998 0-15.5 6.413-.346 6.447-10.348 0-10-22.225,1.197-22.226,34.303 0,35.5 6.446,.347 6.413-9.654 0-10z"/>
<path d="m206.372,109.375c-4.632,0-9.264,0-13.896,0-4.514,0-4.514,7 0,7 4.632,0 9.264,0 13.896,0 4.514,0 4.514-7 0-7z"/>
<path d="m143.504,114.543c10.382,0 20.764,0 31.145,0 9.686,0 9.772-15.003 .108-15.003-10.382,0-20.764,0-31.145,0-9.686,.001-9.772,15.003-.108,15.003z"/>
</g>
</svg>
