<svg xmlns="http://www.w3.org/2000/svg" viewBox="20 20 321 321">
<g fill="#000">
<path d="m154.873,153.673c2.465,6.861 4.931,13.722 7.396,20.583 1.515,4.215 8.28,2.397 6.75-1.861-2.465-6.861-4.931-13.722-7.396-20.583-1.515-4.215-8.28-2.398-6.75,1.861z"/>
<path d="m127.811,113.934c6.551,9.279 13.103,18.558 19.654,27.836 2.581,3.656 8.654,.164 6.044-3.533-6.551-9.279-13.103-18.558-19.654-27.836-2.581-3.656-8.654-.165-6.044,3.533z"/>
<path d="m173.189,219.684c0,8.151 0,16.304 0,24.455 0,4.514 7,4.514 7,0 0-8.151 0-16.304 0-24.455 0-4.514-7-4.514-7-0z"/>
<path d="m180.086,284.529c-.15-7.043-.3-14.085-.451-21.128-.096-4.508-7.096-4.517-7,0 .15,7.043 .3,14.085 .451,21.128 .097,4.508 7.097,4.517 7,0z"/>
<path d="m166.41,185.933c1.404,7.495 2.807,14.99 4.211,22.486 .83,4.434 7.576,2.55 6.75-1.861-1.404-7.495-2.807-14.99-4.211-22.486-.83-4.434-7.576-2.551-6.75,1.861z"/>
<path d="m186.01,156.928c2.466,6.861 4.931,13.722 7.396,20.583 1.515,4.214 8.28,2.397 6.75-1.861-2.466-6.861-4.931-13.722-7.396-20.583-1.515-4.215-8.281-2.398-6.75,1.861z"/>
<path d="m156.811,113.934c8.252,11.351 16.504,22.701 24.755,34.052 2.627,3.612 8.704,.125 6.045-3.533-8.252-11.351-16.504-22.701-24.756-34.052-2.626-3.613-8.704-.126-6.044,3.533z"/>
<path d="m203.222,231.07c.111,6.147 .224,12.294 .335,18.441 .082,4.509 7.082,4.517 7,0-.111-6.147-.224-12.294-.335-18.441-.082-4.508-7.082-4.516-7,0z"/>
<path d="m210.844,275.922c.108-3.993 .216-7.987 .324-11.98 .122-4.517-6.878-4.505-7,0-.108,3.993-.216,7.987-.324,11.98-.122,4.516 6.878,4.505 7,0z"/>
<path d="m197.504,194.584c1.403,7.495 2.808,14.99 4.211,22.485 .83,4.434 7.576,2.55 6.75-1.861-1.403-7.495-2.808-14.99-4.211-22.485-.83-4.434-7.576-2.55-6.75,1.861z"/>
<path d="m215.157,162.177c2.435,5.295 4.869,10.59 7.303,15.886 1.884,4.097 7.916,.538 6.045-3.533-2.435-5.295-4.869-10.59-7.303-15.886-1.884-4.097-7.916-.538-6.045,3.533z"/>
<path d="m188.278,113.934c7.285,12.32 14.57,24.641 21.854,36.961 2.295,3.881 8.348,.362 6.045-3.533-7.285-12.32-14.57-24.641-21.854-36.961-2.295-3.882-8.347-.362-6.045,3.533z"/>
<path d="m233.159,226.834c.156,5.812 .312,11.622 .468,17.434 .121,4.505 7.121,4.517 7,0-.156-5.812-.312-11.622-.468-17.434-.121-4.505-7.121-4.517-7,0z"/>
<path d="m240.459,275.965c.017-3.823 .033-7.647 .05-11.471 .02-4.515-6.98-4.513-7,0-.017,3.823-.033,7.647-.05,11.471-.02,4.514 6.98,4.513 7,0z"/>
<path d="m226.611,193.002c1.403,7.495 2.808,14.99 4.211,22.485 .83,4.434 7.576,2.55 6.75-1.861-1.403-7.495-2.808-14.99-4.211-22.485-.83-4.434-7.576-2.55-6.75,1.861z"/>
<path d="m170.441,155.3c2.465,6.861 4.931,13.723 7.396,20.584 1.515,4.215 8.28,2.397 6.75-1.861-2.466-6.861-4.931-13.723-7.396-20.584-1.514-4.215-8.28-2.398-6.75,1.861z"/>
<path d="m142.311,113.934c7.472,10.242 14.945,20.484 22.417,30.727 2.631,3.607 8.709,.12 6.044-3.533-7.472-10.242-14.945-20.484-22.417-30.727-2.631-3.608-8.709-.121-6.044,3.533z"/>
<path d="m187.801,223.743c.56,9.701 1.118,19.402 1.678,29.104 .259,4.486 7.26,4.512 7,0-.56-9.701-1.118-19.402-1.678-29.104-.259-4.486-7.26-4.512-7,0z"/>
<path d="m196.617,279.729c-.002-4.563-.004-9.126-.006-13.688-.002-4.514-7.002-4.515-7,0 .002,4.563 .004,9.126 .006,13.688 .002,4.514 7.002,4.515 7,0z"/>
<path d="m182.95,187.875c.975,5.206 1.95,10.412 2.925,15.618 .83,4.434 7.576,2.55 6.75-1.861-.975-5.206-1.95-10.412-2.925-15.618-.83-4.434-7.576-2.55-6.75,1.861z"/>
<path d="m197.357,152.955c3.166,7.496 6.332,14.992 9.497,22.488 1.751,4.146 7.779,.574 6.045-3.533-3.166-7.496-6.332-14.992-9.497-22.488-1.751-4.147-7.779-.574-6.045,3.533z"/>
<path d="m173.339,113.934c6.02,9.384 12.039,18.768 18.058,28.152 2.429,3.786 8.49,.279 6.045-3.533-6.02-9.384-12.039-18.768-18.059-28.152-2.428-3.786-8.489-.279-6.044,3.533z"/>
<path d="m217.199,225.736c.377,7.462 .754,14.925 1.131,22.387 .227,4.491 7.228,4.514 7,0-.377-7.462-.754-14.925-1.131-22.387-.226-4.491-7.227-4.513-7,0z"/>
<path d="m225.919,281.292c.088-4.561 .175-9.122 .263-13.683 .087-4.517-6.913-4.508-7,0-.088,4.561-.175,9.122-.263,13.683-.087,4.517 6.913,4.508 7,0z"/>
<path d="m211.34,189.407c1.344,6.849 2.688,13.697 4.031,20.547 .869,4.427 7.615,2.548 6.75-1.861-1.344-6.849-2.688-13.697-4.031-20.547-.869-4.427-7.615-2.548-6.75,1.861z"/>
<path d="m226.358,156.45c3.217,6.789 6.433,13.577 9.648,20.366 1.932,4.078 7.966,.523 6.045-3.533-3.217-6.789-6.433-13.577-9.648-20.366-1.931-4.078-7.965-.523-6.045,3.533z"/>
<path d="m201.061,113.934c6.852,10.239 13.703,20.478 20.554,30.717 2.497,3.73 8.563,.23 6.045-3.533-6.852-10.239-13.703-20.478-20.554-30.717-2.498-3.731-8.563-.231-6.045,3.533z"/>
<path d="m247.329,232.881c.291,4.304 .581,8.606 .872,12.91 .303,4.479 7.305,4.508 7,0-.291-4.304-.581-8.606-.872-12.91-.303-4.479-7.305-4.508-7,0z"/>
<path d="m255.221,278.569c-.128-7.031-.257-14.062-.385-21.093-.082-4.509-7.082-4.517-7,0 .128,7.031 .257,14.062 .385,21.093 .082,4.509 7.082,4.517 7,0z"/>
<path d="m239.092,192.577c1.646,9.16 3.294,18.32 4.94,27.48 .798,4.438 7.543,2.552 6.75-1.861-1.646-9.16-3.294-18.32-4.94-27.48-.798-4.438-7.543-2.552-6.75,1.861z"/>
<path d="m245.301,163.126c2.466,6.861 4.931,13.723 7.396,20.584 1.515,4.215 8.28,2.397 6.75-1.861-2.466-6.861-4.931-13.723-7.396-20.584-1.515-4.215-8.28-2.398-6.75,1.861z"/>
<path d="m216.921,113.934c7.583,12.161 15.166,24.322 22.748,36.484 2.383,3.82 8.44,.309 6.045-3.533-7.583-12.161-15.166-24.323-22.748-36.484-2.383-3.821-8.441-.31-6.045,3.533z"/>
<path d="m261.432,224.632c.29,7.545 .581,15.089 .871,22.634 .173,4.499 7.174,4.516 7,0-.29-7.545-.581-15.089-.871-22.634-.173-4.499-7.174-4.516-7,0z"/>
<path d="m270.918,282.156c-.164-7.794-.328-15.587-.492-23.381-.095-4.508-7.095-4.517-7,0 .164,7.794 .328,15.587 .492,23.381 .095,4.508 7.095,4.517 7,0z"/>
<path d="m255.203,196.858c1.069,4.924 2.139,9.848 3.208,14.771 .958,4.41 7.706,2.539 6.75-1.861-1.069-4.924-2.139-9.848-3.208-14.771-.958-4.41-7.706-2.539-6.75,1.861z"/>
<path d="m277.189,69.667c-11.108,0-22.218,0-33.326,0-8.488,0-10.281,7.54-10.245,14.283 .04,7.566 .081,15.133 .121,22.7 .012,2.074 1.366,6.517-1.335,6.517-3.943,0-7.886,0-11.829,0-15.016,0-30.031,0-45.046,0-13.719,0-27.438,0-41.158,0-2.323,0-4.645,0-6.968,0-.36,0-.099-14.707-.093-15.756 .031-5.843 .063-11.686 .094-17.529 .056-10.489-10.598-10.215-18.035-10.215-5.579,0-11.158,0-16.737,0-8.128,0-16.079-.335-20.645,7.9-2.487,4.486-1.554,11.16-1.554,16.093 0,7.887 0,15.774 0,23.661 0,5.01-.77,10.975 1.05,15.75 2.283,5.991 8.124,9.095 14.294,9.095 21.106,0 42.212,0 63.318,0 31.467,0 62.934,0 94.402,0 9.656,0 19.313,0 28.969,0 1.565,0 3.131,0 4.696,0 8.599,0 14.404-7.217 14.404-15.396 0-10.462 0-20.924 0-31.385 0-3.693 0-7.386 0-11.079-0-8.336-6.395-14.054-14.377-14.639-6.437-.472-6.392,9.531 0,10 6.144,.451 4.377,9.837 4.377,13.994 0,7.887 0,15.774 0,23.661 0,3.844 1.675,12.846-2.998,14.627-1.46,.556-3.638,.218-5.139,.218-24.032,0-48.065,0-72.098,0-30.568,0-61.136,0-91.705,0-7.772,0-15.544,0-23.316,0-3.222,0-5.878-1.327-5.878-5.092 0-6.061 0-12.122 0-18.183 0-7.203 0-14.405 0-21.607 0-1.541-.12-3.104 .218-4.619 .823-3.686 5.604-2.998 8.355-2.998 5.754,0 11.507,0 17.261,0 3.361,0 6.722,0 10.083,0 1.696,0 1.046,1.578 1.038,3.012-.04,7.434-.079,14.868-.119,22.301-.034,6.463-.984,12.961 5.334,16.978 2.668,1.697 6.759,1.209 9.808,1.209 5.426,0 10.852,0 16.278,0 27.537,0 55.074,0 82.611,0 5.624,0 10.104-1.913 12.158-7.66 .611-1.71 .307-4.173 .297-5.963-.02-3.714-.04-7.428-.06-11.142-.033-6.134-.065-12.269-.099-18.403-.004-.676 12.438-.331 13.993-.331 6.533,0 13.066,0 19.6,0 6.45-.002 6.45-10.002 .001-10.002z"/>
<path d="m158.671,284.384c-8.34-1.532-15.765-1.177-24.044,.409-6.527,1.251-13.071,3.108-19.741,3.286-6.555,.175-13.319-2.022-19.739-3.286-8.261-1.625-15.726-1.938-24.046-.409-1.901,.35-1.093,3.24 .798,2.893 8.74-1.605 16.439-.838 25.063,.935 5.9,1.213 11.881,2.707 17.925,2.868 5.955,.159 12.126-1.654 17.926-2.868 8.608-1.801 16.337-2.537 25.061-.935 1.891,.347 2.698-2.544 .797-2.893z"/>
<path d="m137.782,287.267c8.74-1.605 16.439-.838 25.062,.934 5.901,1.213 11.882,2.707 17.926,2.868 5.954,.159 12.125-1.655 17.926-2.868 8.607-1.8 16.337-2.537 25.062-.934 1.891,.348 2.698-2.543 .797-2.893-8.339-1.533-15.765-1.177-24.045,.409-6.526,1.25-13.069,3.107-19.739,3.285-6.555,.175-13.319-2.022-19.74-3.285-8.261-1.625-15.726-1.938-24.046-.409-1.902,.35-1.094,3.24 .797,2.893z"/>
<path d="m203.428,287.255c8.74-1.604 16.439-.837 25.062,.935 5.901,1.213 11.882,2.708 17.926,2.869 5.955,.159 12.126-1.656 17.927-2.869 8.606-1.8 16.336-2.536 25.061-.935 1.891,.348 2.698-2.544 .797-2.893-8.339-1.531-15.764-1.176-24.044,.41-6.526,1.25-13.07,3.108-19.74,3.286-6.555,.175-13.319-2.023-19.74-3.286-8.261-1.625-15.725-1.938-24.044-.41-1.904,.349-1.096,3.241 .795,2.893z"/>
<path d="m165.452,276.884c-9.081-1.548-17.25-1.137-26.26,.481-6.92,1.244-13.862,3.048-20.916,3.214-6.958,.164-14.084-1.956-20.915-3.214-8.994-1.655-17.197-2.026-26.261-.481-1.904,.324-1.094,3.215 .798,2.893 9.452-1.61 17.898-.824 27.237,.965 6.307,1.207 12.701,2.687 19.141,2.838 6.358,.149 12.927-1.629 19.142-2.838 9.325-1.815 17.798-2.573 27.236-.965 1.892,.322 2.702-2.569 .798-2.893z"/>
<path d="m142.931,279.767c9.451-1.611 17.898-.824 27.236,.964 6.307,1.207 12.702,2.687 19.142,2.838 6.357,.149 12.926-1.629 19.14-2.838 9.325-1.814 17.799-2.572 27.237-.964 1.892,.322 2.701-2.568 .797-2.893-9.08-1.548-17.25-1.137-26.261,.481-6.919,1.242-13.86,3.047-20.913,3.213-6.958,.164-14.085-1.956-20.916-3.213-8.993-1.655-17.197-2.026-26.26-.481-1.904,.324-1.094,3.215 .798,2.893z"/>
<path d="m213.705,279.755c7.769-1.323 14.766-1.208 22.501,.1 4.926,.832 9.807,1.893 14.738,2.694 13.438,2.185 25.635-2.09 38.856-3.593 1.899-.216 1.921-3.219 0-3-6.031,.686-11.928,2.041-17.893,3.112-8.317,1.495-15.332,1.453-23.648,0-4.954-.865-9.865-1.917-14.838-2.688-6.944-1.076-13.596-.697-20.514,.481-1.903,.326-1.094,3.216 .798,2.894z"/>
<path d="m71.5,269.479c4.613,.041 9.242,.521 13.803,1.194 1.892,.28 2.706-2.61 .798-2.893-4.828-.714-9.718-1.259-14.601-1.302-1.935-.017-1.934,2.983 0,3.001z"/>
<path d="m73.371,269.467c15.624,.277 30.797,6.241 46.497,4.542 6.342-.687 12.616-1.852 18.913-2.847 9.876-1.562 19.04-1.957 28.97-.499 1.892,.278 2.706-2.612 .798-2.893-8.874-1.303-17.207-1.392-26.074-.17-7.151,.985-14.234,2.37-21.399,3.267-16.139,2.02-31.65-4.116-47.704-4.4-1.937-.034-1.934,2.966-.001,3z"/>
<path d="m275.283,272.628c4.884-1.433 9.473-1.496 14.518-1.196 1.934,.115 1.922-2.886 0-3-5.325-.316-10.165-.207-15.314,1.304-1.853,.542-1.064,3.438 .796,2.892z"/>
<path d="m132.083,115.667c32.083,0 64.167,0 96.25,0 4.514,0 4.514-7 0-7-32.083,0-64.167,0-96.25,0-4.514,0-4.514,7 0,7z"/>
</g>
</svg>
