<svg xmlns="http://www.w3.org/2000/svg" viewBox="20 20 321 321">
<path fill="none" stroke="#000" stroke-miterlimit="10" d="M44.239,121.792"/>
<g fill="#000">
	<path d="M158.936,166.675c3.307,0,6.613,0,9.92,0c1.935,0,1.935-3,0-3c-3.307,0-6.613,0-9.92,0 C157.001,163.675,157.001,166.675,158.936,166.675L158.936,166.675z"/>
	<path d="M158.936,152.786c3.307,0,6.613,0,9.92,0c1.935,0,1.935-3,0-3c-3.307,0-6.613,0-9.92,0	C157.001,149.786,157.001,152.786,158.936,152.786L158.936,152.786z"/>
	<path d="M158.936,145.842c3.307,0,6.613,0,9.92,0c1.935,0,1.935-3,0-3c-3.307,0-6.613,0-9.92,0 C157.001,142.842,157.001,145.842,158.936,145.842L158.936,145.842z"/>
	<path d="M158.936,159.73c3.307,0,6.613,0,9.92,0c1.935,0,1.935-3,0-3c-3.307,0-6.613,0-9.92,0 	C157.001,156.73,157.001,159.73,158.936,159.73L158.936,159.73z"/>
	<path d="M248.333,137.225c-0.255-22.516-11.665-42.777-30.331-55.216 c-18.812-12.536-44.079-14.124-64.587-4.973c-20.142,8.988-34.927,27.554-38.653,49.354c-1.576,9.22-0.929,19.067-0.929,28.434
			c0,30.042,0,60.084,0,90.126c0,9.635,0,19.271,0,28.906c0,6.509,3.097,11.194,9.142,13.73c2.572,1.079,6.547,0.583,9.292,0.583 c28.688,0,57.376,0,86.063,0c8.132,0,22.172,2.438,27.276-5.728c3.973-6.355,2.226-16.87,2.226-23.977
				C247.833,218.054,247.632,177.601,248.333,137.225c0.112-6.452-9.888-6.441-10,0c-0.798,45.961-0.5,92.006-0.5,138.002 c0,3.844-5.514,2.942-7.974,2.942c-5.401,0-10.803,0-16.205,0c-15.883,0-31.767,0-47.65,0c-12.073,0-24.146,0-36.219,0
				c-2.449,0-5.952,0.401-5.952-3.187c0-2.597,0-5.194,0-7.792c0-29.095,0-58.189,0-87.284c0-11.382,0-22.764,0-34.146 c0-3.31-0.022-6.612,0.016-9.918c0.126-11.149,4.098-21.802,10.397-30.896c14.155-20.435,41.134-28.091,64.419-21.089
				c23.348,7.021,39.395,29.217,39.668,53.368C238.406,143.669,248.406,143.676,248.333,137.225z"/>
	<path d="M232.398,261.367c0-23.664,0-47.328,0-70.991c0-12.569,0-25.138,0-37.708 c0-3.807,0.369-7.534,0.436-11.34c0.181-10.375-2.671-20.789-7.784-29.775c-10.18-17.892-31.009-27.22-51.194-24.342
				c-20.732,2.957-36.392,17.781-42.132,37.688c-2.949,10.227-2.184,21.209-2.184,31.765c0,14.381,0,28.762,0,43.144 c0,20.52,0,41.039,0,61.559c0,1.935,3,1.935,3,0c0-23.479,0-46.958,0-70.437c0-13.094,0-26.188,0-39.282
				c0-13.957,0.57-27.271,8.023-39.66c12.557-20.872,40.081-27.71,61.756-17.64c10.11,4.697,17.742,13.267,22.486,23.213 c2.52,5.283,3.943,11.109,4.651,16.896c0.567,4.639-0.059,9.069-0.059,13.682c0,24.88,0,49.759,0,74.639
				c0,12.862,0,25.726,0,38.588C229.398,263.302,232.398,263.302,232.398,261.367L232.398,261.367z"/>
	<path  d="M138.5,260.334c0-4.419-3.582-8-8-8h-6.667c-4.418,0-8,3.581-8,8v23.333c0,4.419,3.582,8,8,8h6.667 c4.418,0,8-3.581,8-8V260.334z"/>
	<path  d="M245.833,260.334c0-4.419-3.581-8-8-8h-6.667c-4.418,0-8,3.581-8,8v23.333c0,4.419,3.582,8,8,8 h6.667c4.419,0,8-3.581,8-8V260.334z"/>
	<path  d="M113.944,167.167c11,0,22,0,33,0c4.514,0,4.514-7,0-7c-11,0-22,0-33,0 C109.43,160.167,109.43,167.167,113.944,167.167L113.944,167.167z"/>
	<path  d="M113.944,157.167c11,0,22,0,33,0c4.514,0,4.514-7,0-7c-11,0-22,0-33,0 C109.43,150.167,109.43,157.167,113.944,157.167L113.944,157.167z"/>
	<path  d="M113.944,147.167c11,0,22,0,33,0c4.514,0,4.514-7,0-7c-11,0-22,0-33,0 C109.43,140.167,109.43,147.167,113.944,147.167L113.944,147.167z"/>
	<path  d="M214.611,167.167c11,0,22,0,33,0c4.514,0,4.514-7,0-7c-11,0-22,0-33,0 C210.098,160.167,210.098,167.167,214.611,167.167L214.611,167.167z"/>
	<path  d="M214.611,157.167c11,0,22,0,33,0c4.514,0,4.514-7,0-7c-11,0-22,0-33,0 C210.098,150.167,210.098,157.167,214.611,157.167L214.611,157.167z"/>
	<path  d="M214.611,147.167c11,0,22,0,33,0c4.514,0,4.514-7,0-7c-11,0-22,0-33,0 C210.098,140.167,210.098,147.167,214.611,147.167L214.611,147.167z"/>
	<path  d="M142.333,143.563c0,7.083,0,14.167,0,21.25c0,6.449,10,6.449,10,0c0-7.083,0-14.167,0-21.25 C152.333,137.114,142.333,137.114,142.333,143.563L142.333,143.563z"/>
	<path  d="M209.583,143.563c0,7.083,0,14.167,0,21.25c0,6.449,10,6.449,10,0c0-7.083,0-14.167,0-21.25 C219.583,137.114,209.583,137.114,209.583,143.563L209.583,143.563z"/>
	<path  d="M175.833,143.563c0,7.083,0,14.167,0,21.25c0,6.449,10,6.449,10,0c0-7.083,0-14.167,0-21.25 C185.833,137.114,175.833,137.114,175.833,143.563L175.833,143.563z"/>
	<path  d="M192.936,166.675c3.307,0,6.613,0,9.92,0c1.935,0,1.935-3,0-3c-3.307,0-6.613,0-9.92,0 C191.001,163.675,191.001,166.675,192.936,166.675L192.936,166.675z"/>
	<path  d="M192.936,152.786c3.307,0,6.613,0,9.92,0c1.935,0,1.935-3,0-3c-3.307,0-6.613,0-9.92,0 C191.001,149.786,191.001,152.786,192.936,152.786L192.936,152.786z"/>
	<path  d="M192.936,145.842c3.307,0,6.613,0,9.92,0c1.935,0,1.935-3,0-3c-3.307,0-6.613,0-9.92,0 C191.001,142.842,191.001,145.842,192.936,145.842L192.936,145.842z"/>
	<path  d="M192.936,159.73c3.307,0,6.613,0,9.92,0c1.935,0,1.935-3,0-3c-3.307,0-6.613,0-9.92,0 C191.001,156.73,191.001,159.73,192.936,159.73L192.936,159.73z"/>
	<path  d="M147.239,236.961c0.609,24.549,25.574,39.124,47.631,29.601 c10.061-4.344,17.156-14.784,18.49-25.481c0.741-5.946,0.306-12.223,0.306-18.205c0-6.25,0-12.499,0-18.749
			c0-7.224-6.321-8.789-12.069-8.789c-14.021,0-28.041,0-42.061,0c-3.136,0-6.69-0.268-9.122,2.164 c-3.35,3.351-2.949,7.322-2.949,11.64C147.465,218.418,147.553,227.697,147.239,236.961c-0.219,6.452,9.782,6.431,10,0
			c0.211-6.242,0.227-12.476,0.227-18.731c0-3.514,0-7.027,0-10.541c0-1.022,0-2.045,0-3.067c0-1.581-2.115,0.716-0.96,0.716 c13.248,0,26.495,0,39.742,0c2.4,0,4.801,0,7.201,0c0.496,0,0.991,0,1.487,0c-1.453,0-1.27-2.407-1.27,0.011
			c0,7.085,0,14.169,0,21.254c0,6.478,0.734,13.542-1.939,19.586c-4.788,10.825-16.987,15.664-28.093,12.646 c-9.78-2.657-16.15-12.022-16.395-21.872C157.079,230.524,147.079,230.509,147.239,236.961z"/>
	<path  d="M164.125,73.816c2.301,5.982,4.602,11.965,6.903,17.947c1.603,4.167,8.373,2.359,6.75-1.861 c-2.301-5.982-4.602-11.965-6.903-17.947C169.271,67.788,162.501,69.596,164.125,73.816L164.125,73.816z"/>
	<path  d="M191.736,71.955c-2.301,5.982-4.602,11.965-6.902,17.947c-1.623,4.22,5.147,6.029,6.75,1.861 c2.301-5.982,4.602-11.965,6.902-17.947C200.109,69.596,193.339,67.788,191.736,71.955L191.736,71.955z"/>
	<path  d="M152.465,192.961c18.623,0,37.246,0,55.868,0c6.448,0,6.448-10,0-10c-18.622,0-37.245,0-55.868,0 C146.017,182.961,146.017,192.961,152.465,192.961L152.465,192.961z"/>
</g>
</svg>
