<svg xmlns="http://www.w3.org/2000/svg" viewBox="20 20 321 321">
<g fill="none" stroke="#000" stroke-width="10">
	<path d="M286.273,276.177c0,5.708-4.627,10.336-10.336,10.336H85.062 c-5.709,0-10.336-4.628-10.336-10.336v-12.84c0-5.708,4.627-10.337,10.336-10.337h190.875c5.709,0,10.336,4.629,10.336,10.337 V276.177z"/>
	<g stroke-linecap="round">
		<line x1="112.833" y1="228.334" x2="248.166" y2="228.334"/>
		<path d="M180.5,154.667 c0-53.247,18.451-79.333,41.666-79.333c16.582,0,27.959,11.043,32,20.137"/>
		<path d="M200.5,189.667c0,2.761-2.238,5-5,5h-30 c-2.761,0-5-2.239-5-5v-30c0-2.761,2.239-5,5-5h30c2.762,0,5,2.239,5,5V189.667z"/>
		<line x1="160.5" y1="183.334" x2="200.5" y2="183.334"/>
		<line x1="160.5" y1="168.667" x2="200.5" y2="168.667"/>
		<line x1="180.5" y1="194.667" x2="180.5" y2="202"/>
		<path stroke-width="3" d="M223.166,274c0,2.762-2.239,5-5,5h-75.003 c-2.761,0-5-2.238-5-5v-8c0-2.761,2.239-5,5-5h75.003c2.761,0,5,2.239,5,5V274z"/>
	</g>	
	<path fill="#000" d="M275.991,90.47H85.116c-8.457,0-15.336,6.88-15.336,15.336v132.852 c0,8.456,6.88,15.336,15.336,15.336h190.875c8.456,0,15.337-6.88,15.337-15.336V105.807C291.328,97.35,284.447,90.47,275.991,90.47 z M271.25,232.016c0,2.648-2.154,4.803-4.803,4.803H94.66c-2.648,0-4.803-2.154-4.803-4.803V112.449 c0-2.648,2.154-4.803,4.803-4.803h171.788c2.648,0,4.803,2.154,4.803,4.803V232.016z"/>
</g>
</svg>
