<svg xmlns="http://www.w3.org/2000/svg" viewBox="20 20 321 321">
<g fill="#000">
<path d="m256.702,283.501c-.402,2.493-9.926,1.166-11.962,1.166-7.884,0-15.767,0-23.65,0-6.321,0-12.643,0-18.964,0-3.322,0-2.798-.559-2.93-3.775-.266-6.489-2.774-72.657-2.711-72.657 11.65,0 23.3,0 34.949,0 7.156,0 14.313,0 21.47,0 1.477,0 6.837-1.008 6.753,1.045-1.013,24.7-2.024,49.4-3.037,74.101-.015,.351-.028,.701-.043,1.052-.185,4.516 6.815,4.498 7,0 .989-24.141 1.979-48.282 2.968-72.423 .194-4.729-.308-9.706-6.159-10.649-3.532-.569-7.401-.125-10.96-.125-15.029,0-30.059,0-45.088,0-3.889,0-8.293-.638-11.846,1.198-4.065,2.102-3.21,7.341-3.059,11.036 .591,14.424 1.182,28.847 1.773,43.27 .278,6.806 .558,13.611 .837,20.417 .118,2.898-.428,7.528 .966,10.224 2.581,4.991 7.63,4.288 12.345,4.288 7.205,0 14.41,0 21.615,0 7.865,0 15.729,0 23.595,0 5.246,0 11.78,.559 12.888-6.305 .712-4.417-6.032-6.31-6.75-1.863z"/>
<path d="m122.208,75.306c0,49.892 0,99.783 0,149.674 0,11.854 0,23.71 0,35.564 0,6.448 10,6.448 10,0 0-49.892 0-99.783 0-149.674 0-11.855 0-23.709 0-35.564 0-6.449-10-6.449-10-0z"/>
<path d="m95.529,269.044c21.083,0 42.167,0 63.25,0 9.687,0 9.772-15.004 .108-15.004-21.083,0-42.167,0-63.25,0-9.686,0-9.772,15.004-.108,15.004z"/>
<path d="m95.657,267.292c-.333,7.458-.667,14.917-1,22.375-.086,1.935 2.914,1.927 3,0 .333-7.458 .667-14.917 1-22.375 .086-1.935-2.914-1.927-3,0z"/>
<path d="m106.611,267.292c0,7.458 0,14.917 0,22.375 0,1.935 3,1.935 3,0 0-7.458 0-14.917 0-22.375 0-1.935-3-1.935-3,0z"/>
<path d="m101.134,267.292c0,7.458 0,14.917 0,22.375 0,1.935 3,1.935 3,0 0-7.458 0-14.917 0-22.375 0-1.935-3-1.935-3,0z"/>
<path d="m112.088,267.292c0,7.458 0,14.917 0,22.375 0,1.935 3,1.935 3,0 0-7.458 0-14.917 0-22.375 0-1.935-3-1.935-3,0z"/>
<path d="m123.043,267.292c0,7.458 0,14.917 0,22.375 0,1.935 3,1.935 3,0 0-7.458 0-14.917 0-22.375 0-1.935-3-1.935-3,0z"/>
<path d="m117.566,267.292c0,7.458 0,14.917 0,22.375 0,1.935 3,1.935 3,0 0-7.458 0-14.917 0-22.375 0-1.935-3-1.935-3,0z"/>
<path d="m128.521,267.292c0,7.458 0,14.917 0,22.375 0,1.935 3,1.935 3,0 0-7.458 0-14.917 0-22.375 0-1.935-3-1.935-3,0z"/>
<path d="m139.475,267.292c0,7.458 0,14.917 0,22.375 0,1.935 3,1.935 3,0 0-7.458 0-14.917 0-22.375 0-1.935-3-1.935-3,0z"/>
<path d="m133.998,267.292c0,7.458 0,14.917 0,22.375 0,1.935 3,1.935 3,0 0-7.458 0-14.917 0-22.375 0-1.935-3-1.935-3,0z"/>
<path d="m144.952,267.292c0,7.458 0,14.917 0,22.375 0,1.935 3,1.935 3,0 0-7.458 0-14.917 0-22.375 0-1.935-3-1.935-3,0z"/>
<path d="m155.907,267.292c.333,7.458 .667,14.917 1,22.375 .086,1.927 3.086,1.935 3,0-.333-7.458-.667-14.917-1-22.375-.086-1.927-3.087-1.935-3,0z"/>
<path d="m150.43,267.292c0,7.458 0,14.917 0,22.375 0,1.935 3,1.935 3,0 0-7.458 0-14.917 0-22.375 0-1.935-3-1.935-3,0z"/>
<path d="m161.213,267.386c.962,7.396 1.925,14.792 2.888,22.188 .246,1.891 3.249,1.914 3,0-.962-7.396-1.925-14.792-2.888-22.188-.246-1.891-3.249-1.914-3,0z"/>
<path d="m90.204,267.386c-.962,7.396-1.925,14.792-2.888,22.188-.249,1.914 2.754,1.891 3,0 .962-7.396 1.925-14.792 2.888-22.188 .249-1.914-2.754-1.891-3,0z"/>
<path d="m190.229,212.186c.865-12.291 1.729-24.582 2.595-36.873 .129-1.833 .258-3.667 .387-5.5 .433-6.146 3.781-10.5 8.884-13.759 6.249-3.991 13.806-3.155 20.853-3.155 14.208,0 38.907-3.248 40.34,17.114 .913,12.974 1.826,25.949 2.739,38.922 .076,1.083 .152,2.167 .229,3.25 .135,1.919 3.136,1.932 3,0-.865-12.291-1.729-24.582-2.595-36.873-.408-5.808-.505-11.078-4.134-16.029-4.668-6.369-12.629-9.384-20.294-9.384-7.032,0-14.064,0-21.096,0-6.348,0-12.123-.256-18.129,2.287-7.602,3.219-12.262,10.018-12.829,18.081-.426,6.048-.851,12.097-1.276,18.145-.558,7.925-1.115,15.849-1.673,23.773-.137,1.932 2.864,1.919 2.999,.001z"/>
</g>
</svg>
