<svg xmlns="http://www.w3.org/2000/svg" viewBox="20 20 321 321">
<g fill="#000">
<circle cx="244.923" cy="130.845"  stroke="#000" r="21.125"/>
<path d="m250.637,175.363c-1.865-4.405-.903-9.024 2.148-10.316l2.302-.975c3.052-1.292 7.038,1.232 8.903,5.637l26.879,63.477c1.865,4.405 .903,9.024-2.148,10.315l-2.302,.975c-3.052,1.293-7.037-1.231-8.903-5.637l-26.879-63.476z"/>
<path d="m149.633,226.322c-13.959,14.823-27.918,29.646-41.878,44.471-9.924,10.538 6.021,26.422 15.998,15.826 13.959-14.823 27.918-29.646 41.878-44.471 9.924-10.538-6.021-26.42-15.998-15.826z"/>
<path d="m164.376,228.61c-7.014,14.701-14.028,29.401-21.042,44.103-2.638,5.529-1.502,12.123 4.118,15.368 4.997,2.885 12.725,1.421 15.368-4.118 7.014-14.701 14.028-29.401 21.042-44.103 2.638-5.529 1.501-12.123-4.118-15.368-4.996-2.885-12.725-1.421-15.368,4.118z"/>
<path d="m255.063,159.71c-9.543-5.51-23.457-2.5-28.687,7.687-7.922,15.43-15.842,30.859-23.764,46.288-.018,.034-1.963,4.019-4.1,8.397-15.284,.104-34.846,.18-40.142,.354-13.173,.436-13.328,22.941-.147,22.506 11.587-.383 64.021,.498 75.608,.115 6.919-13.479 21.997-43.182 28.917-56.66 5.226-10.175 2.59-22.755-7.685-28.687z"/>
</g>
<path fill="none" d="m199,237.667h41.166v11.5h-41.166z"/>
<g fill="#000">
<path d="m286.833,249.338c-32.143,0-64.286,0-96.429,0-6.448,0-6.448,10 0,10 32.143,0 64.286,0 96.429,0 6.448,0 6.448-10 0-10z"/>
<path d="m154.598,176.641c-7.797-1.508-14.692-1.216-22.432,.328-6.313,1.26-12.635,3.181-19.098,3.373-6.003,.178-12.223-1.927-18.084-3.165-8.076-1.705-15.292-2.114-23.445-.537-1.898,.367-1.092,3.258 .798,2.893 8.264-1.599 15.422-.855 23.56,.902 5.65,1.219 11.371,2.735 17.172,2.907 5.47,.162 11.213-1.575 16.519-2.763 8.33-1.865 15.742-2.685 24.213-1.046 1.889,.366 2.695-2.525 .797-2.892z"/>
<path d="m134.794,179.523c8.263-1.599 15.422-.855 23.56,.901 5.65,1.219 11.37,2.735 17.172,2.907 5.47,.162 11.211-1.575 16.517-2.763 8.33-1.864 15.743-2.684 24.215-1.045 1.89,.366 2.695-2.525 .797-2.893-7.797-1.508-14.692-1.216-22.432,.328-6.313,1.259-12.635,3.181-19.097,3.373-6.003,.178-12.223-1.927-18.084-3.164-8.076-1.705-15.292-2.114-23.445-.536-1.899,.367-1.093,3.258 .797,2.892z"/>
<path d="m197.026,179.513c3.395-.666 6.859-1.157 10.321-1.197 1.934-.023 1.936-3.023 0-3-3.721,.044-7.47,.588-11.118,1.305-1.897,.372-1.092,3.263 .797,2.892z"/>
<path d="m290.606,176.63c-6.436-2.031-13.232-1.266-19.737,0-1.898,.369-1.093,3.26 .797,2.893 5.993-1.166 12.214-1.871 18.144,0 1.849,.583 2.635-2.314 .796-2.893z"/>
<path d="m81.72,206.936c-.532,2.634-8.387,2.931-8.387,.173 0-2.062 0-4.124 0-6.186 0-4.955 0-9.91 0-14.865 0-2.372 8.333-2.413 8.333,.168 0,2.062 0,4.124 0,6.186 0,4.975 0,9.948 0,14.923 0,1.935 3,1.935 3,0 0-6.945 0-13.892 0-20.837 0-6.948-13.026-7.106-14.28-.896-.545,2.697-.054,5.927-.054,8.66 0,4.191 0,8.384 0,12.575 0,6.948 13.026,7.105 14.28,.896 .382-1.889-2.509-2.693-2.892-.797z"/>
<path d="m85.323,197.584c2.111,0 4.222,0 6.333,0 1.935,0 1.935-3 0-3-2.111,0-4.222,0-6.333,0-1.935,0-1.935,3 0,3z"/>
<path d="m95.583,197.584c1.938,0 3.875,0 5.813,0 1.935,0 1.935-3 0-3-1.938,0-3.875,0-5.813,0-1.934,0-1.934,3 0,3z"/>
<path d="m105.844,197.584c1.764,0 3.528,0 5.292,0 1.935,0 1.935-3 0-3-1.764,0-3.528,0-5.292,0-1.935,0-1.935,3 0,3z"/>
<path d="m116.104,197.584c1.591,0 3.182,0 4.773,0 1.935,0 1.935-3 0-3-1.591,0-3.182,0-4.773,0-1.935,0-1.935,3 0,3z"/>
<path d="m126.364,197.584c1.417,0 2.835,0 4.252,0 1.935,0 1.935-3 0-3-1.417,0-2.835,0-4.252,0-1.934,0-1.934,3-0,3z"/>
<path d="m136.625,197.584c1.244,0 2.488,0 3.731,0 1.935,0 1.935-3 0-3-1.244,0-2.488,0-3.731,0-1.935,0-1.935,3 0,3z"/>
<path d="m146.885,197.584c1.07,0 2.141,0 3.211,0 1.935,0 1.935-3 0-3-1.07,0-2.141,0-3.211,0-1.934,0-1.934,3 0,3z"/>
<path d="m157.146,197.584c.897,0 1.794,0 2.692,0 .818,0 1.5-.683 1.5-1.5s-.682-1.5-1.5-1.5c-.897,0-1.794,0-2.692,0-.818,0-1.5,.683-1.5,1.5s.682,1.5 1.5,1.5z"/>
<path d="m167.406,197.584c.724,0 1.447,0 2.171,0 1.935,0 1.935-3 0-3-.724,0-1.447,0-2.171,0-1.934,0-1.934,3 0,3z"/>
<path d="m83.158,194.234c1.529-.106 3.057-.214 4.586-.32 1.918-.134 1.932-3.135 0-3-1.529,.106-3.057,.214-4.586,.32-1.918,.134-1.931,3.135 0,3z"/>
<path d="m91.661,193.641c1.933-.136 3.866-.271 5.799-.406 1.918-.135 1.932-3.136 0-3-1.933,.136-3.866,.271-5.799,.406-1.918,.134-1.932,3.135 0,3z"/>
<path d="m101.896,192.924c1.76-.123 3.52-.245 5.28-.368 1.919-.134 1.932-3.135 0-3-1.76,.123-3.52,.245-5.28,.368-1.918,.134-1.931,3.135 0,3z"/>
<path d="m112.132,192.209c1.587-.111 3.174-.223 4.761-.334 1.918-.135 1.932-3.136 0-3-1.587,.111-3.174,.223-4.761,.334-1.918,.135-1.931,3.136 0,3z"/>
<path d="m122.368,191.493c1.414-.099 2.828-.198 4.242-.297 1.918-.134 1.932-3.135 0-3-1.414,.099-2.828,.198-4.242,.297-1.919,.134-1.932,3.135 0,3z"/>
<path d="m132.603,190.777c1.241-.087 2.482-.173 3.723-.26 .815-.057 1.5-.64 1.5-1.5 0-.774-.684-1.557-1.5-1.5-1.241,.087-2.482,.173-3.723,.26-.815,.057-1.5,.64-1.5,1.5 0,.775 .684,1.557 1.5,1.5z"/>
<path d="m142.839,190.062c1.068-.075 2.135-.149 3.203-.225 .815-.058 1.5-.639 1.5-1.5 0-.774-.684-1.558-1.5-1.5-1.068,.075-2.135,.149-3.203,.225-.815,.058-1.5,.639-1.5,1.5 0,.774 .683,1.557 1.5,1.5z"/>
<path d="m153.074,189.346c.895-.063 1.79-.125 2.684-.188 .815-.057 1.5-.64 1.5-1.5 0-.774-.684-1.557-1.5-1.5-.895,.063-1.79,.125-2.684,.188-.815,.057-1.5,.64-1.5,1.5 0,.774 .684,1.556 1.5,1.5z"/>
<path d="m163.31,188.63c.722-.051 1.443-.101 2.165-.151 .815-.057 1.5-.64 1.5-1.5 0-.774-.684-1.557-1.5-1.5-.722,.051-1.443,.101-2.165,.151-.815,.057-1.5,.64-1.5,1.5 0,.774 .683,1.557 1.5,1.5z"/>
<path d="m83.158,200.725c1.528,.106 3.057,.214 4.585,.32 1.932,.135 1.918-2.866 0-3-1.528-.106-3.057-.214-4.585-.32-1.931-.135-1.918,2.866 0,3z"/>
<path d="m91.661,201.319c1.933,.135 3.866,.271 5.799,.405 1.932,.135 1.918-2.866 0-3-1.933-.135-3.866-.271-5.799-.405-1.932-.134-1.918,2.867 0,3z"/>
<path d="m101.896,202.035c1.76,.123 3.52,.245 5.28,.368 1.932,.135 1.919-2.866 0-3-1.76-.123-3.52-.245-5.28-.368-1.931-.135-1.918,2.866 0,3z"/>
<path d="m112.132,202.751c1.587,.111 3.174,.222 4.761,.333 1.932,.135 1.918-2.866 0-3-1.587-.111-3.174-.222-4.761-.333-1.932-.135-1.919,2.866 0,3z"/>
<path d="m122.367,203.467c1.414,.099 2.828,.197 4.242,.296 1.932,.135 1.919-2.866 0-3-1.414-.099-2.828-.197-4.242-.296-1.931-.135-1.919,2.866 0,3z"/>
<path d="m132.603,204.182c1.241,.087 2.482,.173 3.723,.26 .816,.057 1.5-.726 1.5-1.5 0-.86-.685-1.443-1.5-1.5-1.241-.087-2.482-.173-3.723-.26-.816-.057-1.5,.726-1.5,1.5 0,.86 .684,1.443 1.5,1.5z"/>
<path d="m142.838,204.897c1.068,.075 2.136,.149 3.204,.225 .816,.058 1.5-.726 1.5-1.5 0-.861-.685-1.442-1.5-1.5-1.068-.075-2.136-.149-3.204-.225-.816-.058-1.5,.726-1.5,1.5 0,.862 .684,1.443 1.5,1.5z"/>
<path d="m153.074,205.613c.895,.063 1.79,.125 2.685,.188 .816,.057 1.5-.726 1.5-1.5 0-.86-.685-1.443-1.5-1.5-.895-.063-1.79-.125-2.685-.188-.816-.057-1.5,.726-1.5,1.5 0,.861 .684,1.444 1.5,1.5z"/>
<path d="m163.309,206.329c.722,.051 1.444,.101 2.166,.151 .816,.057 1.5-.726 1.5-1.5 0-.86-.685-1.443-1.5-1.5-.722-.051-1.444-.101-2.166-.151-.816-.057-1.5,.726-1.5,1.5 0,.86 .685,1.443 1.5,1.5z"/>
<path d="m81.824,272.406c-.532,2.634-8.387,2.931-8.387,.173 0-2.062 0-4.124 0-6.186 0-4.955 0-9.91 0-14.865 0-2.372 8.333-2.413 8.333,.168 0,2.062 0,4.124 0,6.186 0,4.975 0,9.948 0,14.923 0,1.935 3,1.935 3,0 0-6.945 0-13.892 0-20.837 0-6.948-13.026-7.105-14.28-.896-.545,2.697-.054,5.927-.054,8.66 0,4.191 0,8.384 0,12.575 0,6.948 13.026,7.105 14.28,.896 .382-1.889-2.509-2.692-2.892-.797z"/>
<path d="m85.427,263.054c2.111,0 4.222,0 6.333,0 1.935,0 1.935-3 0-3-2.111,0-4.222,0-6.333,0-1.935,0-1.935,3 0,3z"/>
<path d="m95.688,263.054c1.938,0 3.875,0 5.813,0 1.935,0 1.935-3 0-3-1.938,0-3.875,0-5.813,0-1.935,0-1.935,3 0,3z"/>
<path d="m105.948,263.054c1.764,0 3.528,0 5.292,0 1.935,0 1.935-3 0-3-1.764,0-3.528,0-5.292,0-1.935,0-1.935,3 0,3z"/>
<path d="m116.208,263.054c1.591,0 3.182,0 4.773,0 1.935,0 1.935-3 0-3-1.591,0-3.182,0-4.773,0-1.935,0-1.935,3 0,3z"/>
<path d="m126.468,263.054c1.417,0 2.835,0 4.252,0 1.935,0 1.935-3 0-3-1.417,0-2.835,0-4.252,0-1.934,0-1.934,3 0,3z"/>
<path d="m136.729,263.054c1.244,0 2.488,0 3.731,0 1.935,0 1.935-3 0-3-1.244,0-2.488,0-3.731,0-1.935,0-1.935,3 0,3z"/>
<path d="m146.989,263.054c1.07,0 2.141,0 3.211,0 1.935,0 1.935-3 0-3-1.07,0-2.141,0-3.211,0-1.934,0-1.934,3 0,3z"/>
<path d="m157.25,263.054c.897,0 1.794,0 2.692,0 .818,0 1.5-.683 1.5-1.5s-.682-1.5-1.5-1.5c-.897,0-1.794,0-2.692,0-.818,0-1.5,.683-1.5,1.5s.682,1.5 1.5,1.5z"/>
<path d="m167.51,263.054c.724,0 1.447,0 2.171,0 1.935,0 1.935-3 0-3-.724,0-1.447,0-2.171,0-1.934,0-1.934,3 0,3z"/>
<path d="m83.833,259.665c1.338-.094 2.677-.187 4.015-.28 1.918-.134 1.932-3.135 0-3-1.338,.094-2.677,.187-4.015,.28-1.919,.134-1.932,3.135 0,3z"/>
<path d="m91.765,259.111c1.933-.136 3.866-.271 5.799-.406 1.918-.135 1.932-3.136 0-3-1.933,.136-3.866,.271-5.799,.406-1.918,.135-1.932,3.136 0,3z"/>
<path d="m102,258.395c1.76-.123 3.52-.246 5.28-.369 1.918-.134 1.932-3.135 0-3-1.76,.123-3.52,.246-5.28,.369-1.918,.133-1.931,3.134 0,3z"/>
<path d="m112.236,257.68c1.587-.111 3.174-.223 4.761-.334 1.918-.135 1.932-3.136 0-3-1.587,.111-3.174,.223-4.761,.334-1.918,.134-1.931,3.135 0,3z"/>
<path d="m122.472,256.963c1.414-.099 2.828-.198 4.242-.297 1.918-.135 1.932-3.135 0-3-1.414,.099-2.828,.198-4.242,.297-1.919,.135-1.932,3.135 0,3z"/>
<path d="m83.83,266.234c1.339,.094 2.679,.188 4.018,.281 1.932,.135 1.918-2.865 0-3-1.339-.094-2.679-.188-4.018-.281-1.932-.134-1.919,2.866 0,3z"/>
<path d="m91.765,266.789c1.933,.135 3.866,.271 5.799,.405 1.932,.135 1.918-2.866 0-3-1.933-.135-3.866-.271-5.799-.405-1.932-.135-1.918,2.866 0,3z"/>
<path d="m102,267.505c1.76,.123 3.52,.245 5.28,.368 1.932,.135 1.919-2.866 0-3-1.76-.123-3.52-.245-5.28-.368-1.931-.135-1.918,2.866 0,3z"/>
<path d="m112.236,268.221c1.587,.111 3.174,.222 4.761,.333 1.932,.135 1.918-2.866 0-3-1.587-.111-3.174-.222-4.761-.333-1.932-.135-1.919,2.866 0,3z"/>
<path d="m142.942,270.367c1.068,.075 2.136,.149 3.204,.225 .816,.058 1.5-.726 1.5-1.5 0-.861-.685-1.442-1.5-1.5-1.068-.075-2.136-.149-3.204-.225-.816-.058-1.5,.726-1.5,1.5 0,.862 .684,1.443 1.5,1.5z"/>
<path d="m163.413,271.799c.722,.051 1.444,.102 2.166,.152 .816,.058 1.5-.726 1.5-1.5 0-.861-.685-1.442-1.5-1.5-.722-.051-1.444-.102-2.166-.152-.816-.058-1.5,.726-1.5,1.5 0,.861 .685,1.442 1.5,1.5z"/>
</g>
</svg>
