<svg xmlns="http://www.w3.org/2000/svg" viewBox="20 20 321 321">
<g fill="#000">
	<path stroke="#000" stroke-width="10" stroke-miterlimit="10;" d="M78.833,189.143 c0,1.366,1.813,2.474,4.048,2.474h129.997c2.235,0,4.048-1.107,4.048-2.474v-14.429c0-1.367-1.813-2.473-4.048-2.473H82.881 c-2.235,0-4.048,1.106-4.048,2.473V189.143z"/>
	<path stroke="#000" stroke-width="10" stroke-miterlimit="10;" d="M123.93,170.276 c0,2.288,1.85,4.144,4.131,4.144h76.074c2.279,0,4.13-1.855,4.13-4.144v-18.299c0-2.289-1.851-4.143-4.13-4.143h-76.074 c-2.281,0-4.131,1.854-4.131,4.143V170.276z"/>
	<path d="M212.926,148.54c0,17.231,0,34.463,0,51.694c0,6.448,10,6.448,10,0c0-17.231,0-34.463,0-51.694 C222.926,142.091,212.926,142.091,212.926,148.54L212.926,148.54z"/>
	<path d="M69.833,143.802c0,18.996,0,37.993,0,56.989c0,6.448,10,6.448,10,0c0-18.996,0-37.993,0-56.989 C79.833,137.354,69.833,137.354,69.833,143.802L69.833,143.802z"/>
	<path stroke="#000" stroke-width="10" stroke-miterlimit="10" d="M84.32,164.314 c0,0.775,0.59,1.403,1.32,1.403h24.316c0.729,0,1.32-0.628,1.32-1.403v-6.197c0-0.775-0.591-1.403-1.32-1.403H85.64 c-0.729,0-1.32,0.628-1.32,1.403V164.314z"/>
	<path d="M194.96,77.292c31.303,0,62.605,0,93.908,0c4.514,0,4.514-7,0-7c-31.303,0-62.605,0-93.908,0 C190.446,70.292,190.446,77.292,194.96,77.292L194.96,77.292z"/>
	<line fill="none" stroke="#000" stroke-width="7" stroke-miterlimit="10" x1="280.271" y1="152.791" x2="194.96" y2="152.791"/>
	<line fill="none" stroke="#000" stroke-width="7" stroke-miterlimit="10" x1="242.045" y1="73.792" x2="242.045" y2="150.834"/>
	<path d="M239.166,112.833c2.206,0,4.413,0,6.619,0c4.514,0,4.514-7,0-7c-2.206,0-4.413,0-6.619,0 C234.652,105.833,234.652,112.833,239.166,112.833L239.166,112.833z"/>
	<path d="M289.083,74.417c0,39.5,0,79,0,118.5c0,1.935,3,1.935,3,0c0-39.5,0-79,0-118.5 C292.083,72.482,289.083,72.482,289.083,74.417L289.083,74.417z"/>
	<path d="M283.333,76.417c0,37.417,0,74.833,0,112.25c0,1.935,3,1.935,3,0c0-37.417,0-74.833,0-112.25 C286.333,74.482,283.333,74.482,283.333,76.417L283.333,76.417z"/>
	<path d="M277.333,75.167c0,37.417,0,74.833,0,112.25c0,1.935,3,1.935,3,0c0-37.417,0-74.833,0-112.25 C280.333,73.232,277.333,73.232,277.333,75.167L277.333,75.167z"/>
	<path d="M191.833,74.417c0,39.5,0,79,0,118.5c0,1.935,3,1.935,3,0c0-39.5,0-79,0-118.5 C194.833,72.482,191.833,72.482,191.833,74.417L191.833,74.417z"/>
	<path d="M197.583,76.417c0,37.417,0,74.833,0,112.25c0,1.935,3,1.935,3,0c0-37.417,0-74.833,0-112.25 C200.583,74.482,197.583,74.482,197.583,76.417L197.583,76.417z"/>
	<path d="M203.583,75.167c0,37.417,0,74.833,0,112.25c0,1.935,3,1.935,3,0c0-37.417,0-74.833,0-112.25 C206.583,73.232,203.583,73.232,203.583,75.167L203.583,75.167z"/>
	<path fill="none" stroke="#000" stroke-width="3" stroke-miterlimit="10" d="M131.637,274.611 c0.422,1.086-0.045,2.281-1.044,2.67l-32.36,12.586c-0.999,0.389-2.151-0.177-2.574-1.262l-23.796-61.185 c-0.422-1.085,0.045-2.28,1.044-2.67l32.36-12.586c0.999-0.389,2.151,0.177,2.573,1.263L131.637,274.611z"/>
	<path stroke="#000" stroke-width="2.8541" stroke-miterlimit="10"  d="M109.356,218.424 c0.295,0.759-0.213,1.664-1.135,2.022l-31.527,12.263c-0.922,0.357-1.908,0.034-2.203-0.724l-2.078-5.342
			c-0.295-0.759,0.213-1.664,1.135-2.022l31.527-12.262c0.922-0.359,1.909-0.035,2.204,0.724L109.356,218.424z M99.616,218.633 c-0.398-1.023-1.468-1.563-2.39-1.205l-14.094,5.482c-0.922,0.358-1.347,1.479-0.948,2.504l0.32,0.824
			c0.399,1.023,1.469,1.563,2.391,1.205l14.094-5.482c0.922-0.357,1.347-1.479,0.949-2.504L99.616,218.633z"/>
	<path d="M127.455,268.703L94.51,281.518c-0.964,0.375-1.502,1.302-1.203,2.07l2.106,5.417 c0.299,0.769,1.323,1.09,2.287,0.715l32.946-12.813c0.963-0.374,1.5-1.303,1.202-2.072l-2.106-5.415
		C129.441,268.648,128.418,268.329,127.455,268.703z M115.798,279.893c0.171,0.441-0.047,0.938-0.488,1.109l-2.679,1.041 c-0.44,0.172-0.938-0.047-1.109-0.487l-1.042-2.679c-0.172-0.441,0.047-0.938,0.487-1.109l2.679-1.042 c0.441-0.172,0.938,0.047,1.109,0.487L115.798,279.893z"/>
	<path fill="none" stroke="#000" stroke-width="2.905" stroke-miterlimit="10" d="M254.209,288.363 c0,0.963-0.78,1.742-1.742,1.742h-48.391c-0.963,0-1.743-0.779-1.743-1.742V265.85c0-0.963,0.78-1.744,1.743-1.744h48.391 c0.962,0,1.742,0.781,1.742,1.744V288.363z"/>
	<path d="M216.689,279.979c0,0.652-0.529,1.18-1.181,1.18l0,0c-0.651,0-1.18-0.527-1.18-1.18l0,0 c0-0.651,0.528-1.18,1.18-1.18l0,0C216.16,278.799,216.689,279.327,216.689,279.979L216.689,279.979z"/>
	<path d="M209.176,271.803c0.903,0,1.808,0,2.711,0c1.935,0,1.935-3,0-3c-0.903,0-1.808,0-2.711,0 C207.241,268.803,207.241,271.803,209.176,271.803L209.176,271.803z"/>
	<path d="M222.447,279.979c0,0.652-0.529,1.18-1.181,1.18l0,0c-0.651,0-1.18-0.527-1.18-1.18l0,0 c0-0.651,0.528-1.18,1.18-1.18l0,0C221.918,278.799,222.447,279.327,222.447,279.979L222.447,279.979z"/>
	<path d="M228.204,279.979c0,0.652-0.528,1.18-1.181,1.18l0,0c-0.65,0-1.18-0.527-1.18-1.18l0,0 c0-0.651,0.529-1.18,1.18-1.18l0,0C227.676,278.799,228.204,279.327,228.204,279.979L228.204,279.979z"/>
	<path d="M233.961,279.979c0,0.652-0.527,1.18-1.18,1.18l0,0c-0.651,0-1.18-0.527-1.18-1.18l0,0 c0-0.651,0.528-1.18,1.18-1.18l0,0C233.434,278.799,233.961,279.327,233.961,279.979L233.961,279.979z"/>
	<path d="M239.719,279.979c0,0.652-0.527,1.18-1.18,1.18l0,0c-0.652,0-1.18-0.527-1.18-1.18l0,0 c0-0.651,0.527-1.18,1.18-1.18l0,0C239.191,278.799,239.719,279.327,239.719,279.979L239.719,279.979z"/>
	<path d="M247.625,273.91c-0.173,3.217-4.815,3.217-4.988,0 C242.464,270.691,247.452,270.709,247.625,273.91c0.104,1.924,3.104,1.934,3,0c-0.167-3.105-2.389-5.327-5.494-5.494
		c-3.099-0.167-5.341,2.64-5.494,5.494c-0.167,3.099,2.64,5.341,5.494,5.494c3.099,0.167,5.341-2.64,5.494-5.494 C250.729,271.977,247.729,271.986,247.625,273.91z"/>
	<path d="M209.225,284.258c0.048-0.716,1.064-0.716,1.112,0 C210.385,284.975,209.272,284.97,209.225,284.258c0.055,0.815,0.641,1.5,1.5,1.5c0.776,0,1.555-0.684,1.5-1.5
		c-0.094-1.394-1.05-2.35-2.443-2.443c-1.389-0.094-2.36,1.19-2.444,2.443c-0.094,1.389,1.191,2.36,2.444,2.444 c1.389,0.094,2.359-1.191,2.443-2.444c0.055-0.816-0.724-1.5-1.5-1.5C209.865,282.758,209.279,283.442,209.225,284.258z"/>
	<path fill="none" stroke="#000" stroke-width="2.905" stroke-miterlimit="10" d="M168.089,290.105 c-0.963,0-1.743-0.779-1.743-1.742v-38.391c0-0.963,0.78-1.742,1.743-1.742h27.514c0.963,0,1.743,0.779,1.743,1.742v38.391 c0,0.963-0.78,1.742-1.743,1.742H168.089z"/>
	<path d="M191.533,274.106c-0.672,12.485-18.703,12.485-19.375,0c-0.295-5.48,4.638-9.416,9.688-9.688 C187.326,264.124,191.262,269.057,191.533,274.106c0.104,1.924,3.104,1.934,3,0c-0.88-16.341-24.495-16.341-25.375,0
		c-0.386,7.167,6.087,12.332,12.688,12.688c7.167,0.386,12.332-6.087,12.688-12.688 C194.638,272.173,191.637,272.183,191.533,274.106z"/>
	<circle stroke="#000" stroke-width="0.9575" stroke-miterlimit="10" cx="181.846" cy="274.106" r="3.688"/>
	<path d="M182.842,255.758c-0.069,1.288-1.924,1.288-1.993,0 C180.779,254.468,182.772,254.477,182.842,255.758c0.104,1.924,3.104,1.934,3,0c-0.122-2.257-1.739-3.874-3.996-3.996
		c-2.252-0.121-3.885,1.921-3.997,3.996c-0.121,2.253,1.921,3.885,3.997,3.996c2.252,0.121,3.885-1.921,3.996-3.996 C185.946,253.824,182.945,253.834,182.842,255.758z"/>
	<path fill="none" stroke="#000" stroke-width="2.905" stroke-miterlimit="10" d="M260.964,290.105 c-0.963,0-1.743-0.779-1.743-1.742v-38.391c0-0.963,0.78-1.742,1.743-1.742h27.514c0.963,0,1.743,0.779,1.743,1.742v38.391 c0,0.963-0.78,1.742-1.743,1.742H260.964z"/>
	<path d="M284.408,274.106c-0.672,12.485-18.703,12.485-19.375,0c-0.295-5.48,4.638-9.416,9.688-9.688 C280.201,264.124,284.137,269.057,284.408,274.106c0.104,1.924,3.104,1.934,3,0c-0.88-16.341-24.495-16.341-25.375,0
		c-0.386,7.167,6.087,12.332,12.688,12.688c7.167,0.386,12.332-6.087,12.688-12.688 C287.513,272.173,284.512,272.183,284.408,274.106z"/>
	<circle stroke="#000" stroke-width="0.9575" stroke-miterlimit="10" cx="274.721" cy="274.106" r="3.688"/>
	<path d="M275.717,255.758c-0.069,1.288-1.924,1.288-1.993,0 C273.654,254.468,275.647,254.477,275.717,255.758c0.104,1.924,3.104,1.934,3,0c-0.122-2.257-1.739-3.874-3.996-3.996 c-2.253-0.121-3.886,1.921-3.997,3.996c-0.121,2.253,1.922,3.885,3.997,3.996c2.252,0.121,3.885-1.921,3.996-3.996 C278.821,253.824,275.82,253.834,275.717,255.758z"/>
</g>
</svg>
