<svg xmlns="http://www.w3.org/2000/svg" viewBox="20 20 321 321">
<g fill="#000">
<path d="m268.551,261.68c.493,4.288 2.939,8.121 7.579,8.655 3.017,.348 7.827,.826 10.504-.876 3.729-2.372 4.699-5.741 4.699-9.818 0-9.195 0-18.392 0-27.587 0-31.239 0-62.478 0-93.716 0-10.417 0-20.833 0-31.25 0-1.83 .367-4.504-.265-6.271-1.401-3.921-4.402-6.649-8.753-6.649-3.544,0-7.989-.581-10.757,2.188-4.705,4.706-3.008,14.104-3.008,20.17 0,13.276 0,26.553 0,39.83 .001,35.108 .001,70.215 .001,105.324 0,4.514 7,4.514 7,0 0-49.14 0-98.279 0-147.419 0-3.243 0-6.486 0-9.73 0-4.418 8.782-4.652 8.782-1.562 0,6.196 0,12.393 0,18.589 0,30.471 0,60.943 0,91.414 0,12.47 0,24.939 0,37.408 0,3.168 0,6.335 0,9.503 0,.574 0,1.148 0,1.723 0,2.81-8.461,2.868-8.782,.074-.51-4.43-7.516-4.48-7,0z"/>
<path d="m187.568,79.667c33.088,0 66.177,0 99.265,0 6.448,0 6.448-10 0-10-33.088,0-66.177,0-99.265,0-6.448,0-6.448,10-0,10z"/>
<path d="m75.235,79.667c5.088,0 10.177,0 15.265,0 6.449,0 6.449-10 0-10-5.088,0-10.177,0-15.265,0-6.449,0-6.449,10 0,10z"/>
<path d="m84.329,76.667c37.556,0 75.111,0 112.667,0 4.514,0 4.514-7 0-7-37.556,0-75.111,0-112.667,0-4.514,0-4.514,7 0,7z"/>
<path d="m94.436,84.333c30.818,0 61.635,0 92.453,0 6.448,0 6.448-10 0-10-30.818,0-61.635,0-92.453,0-6.449,0-6.449,10 0,10z"/>
</g>
</svg>
