<svg xmlns="http://www.w3.org/2000/svg" viewBox="20 20 321 321">
<g fill="#000">
<path d="m117.7,92.568c-22.733,.368-41.338,16.609-46.773,38.378-3.059,12.256-1.45,26.468-1.45,38.956 0,12.36-1.28,25.601 .683,37.873 3.57,22.322 21.008,39.674 43.533,42.233 11.033,1.254 22.683,.194 33.753,.194 12.675,0 25.349,0 38.023,0 19.867,0 37.47-12.389 44.937-30.7 5.254-12.884 3.957-27.149 3.957-40.769 0-11.798 0-23.596 0-35.394 0-22.482-14.618-43.135-36.446-49.246-11.077-3.102-24.335-1.526-35.677-1.526-13.99,0-27.979,0-41.969,0-.858,.001-1.714,.001-2.571,.001-6.449,0-6.449,10 0,10 22.756,0 45.512,0 68.268,0 22.188,0 38.088,19.51 38.395,40.772 .17,11.792 0,23.6 0,35.394 0,13.576 1.574,28.024-4.802,40.504-4.967,9.724-13.831,16.866-24.303,19.797-4.803,1.344-9.733,1.168-14.659,1.168-14.854,0-29.708,0-44.562,0-12.604,0-25.515,1.396-36.899-5.124-24.958-14.294-19.661-46.882-19.661-71.04 0-9.47-.975-19.734 .8-29.099 3.428-18.083 18.881-32.073 37.423-32.373 6.442-.104 6.452-10.104-0-9.999z"/>
<path d="m131.954,94.058c-5.71,1.958-11.617,3.646-17.151,6.074-10.268,4.504-18.407,12.526-23.548,22.444-5.296,10.217-6.533,21.792-4.704,33.04 .773,4.757 2.537,9.47 3.943,14.068 4.191,13.699 8.381,27.398 12.572,41.099 5.648,18.463 18.661,30.462 37.052,36.086 7.414,2.267 15.312,3.15 23.038,3.335 6.453,.154 6.438-9.847 0-10-20.37-.486-43.142-8.2-49.69-29.606-3.605-11.784-7.209-23.568-10.814-35.352-4.214-13.775-9.354-26.771-5.209-41.364 2.97-10.457 10.376-19.015 19.939-23.982 5.334-2.771 11.565-4.254 17.232-6.198 6.061-2.081 3.457-11.743-2.66-9.644z"/>
<path d="m83.033,234.95c13.516,18.221 32.127,31.465 55.126,33.691 11.401,1.104 22.689-2.09 34.154-1.202 6.822,.528 13.272,2.739 19.237,6.007 4.579,2.509 8.902,5.414 13.934,6.981 6.126,1.909 12.195,.618 18.185-1.055 19.478-5.438 43.42-2.699 59.255,10.479 4.918,4.094 12.032-2.941 7.07-7.07-16.424-13.669-38.247-17.794-59.094-14.976-6.742,.912-13.527,4.073-20.364,3.53-4.209-.334-8.325-3.293-12.079-5.47-15.125-8.773-31.012-9.596-48.106-7.422-23.683,3.012-44.962-10.043-58.683-28.541-3.795-5.116-12.482-.138-8.635,5.048z"/>
<path d="m158.611,94.058c-8.386,3.419-16.303,6.523-23.148,12.702-8.212,7.412-13.392,18.12-15.156,28.934-2.384,14.619 3.04,28.2 7.233,41.909 3.559,11.633 6.959,23.327 10.699,34.903 6.766,20.943 28.008,36.931 50,37.311 4.224,.073 8.529-.718 12.535-2.006 6.113-1.966 3.498-11.622-2.658-9.643-20.158,6.48-40.962-7.789-49.27-25.769-1.676-3.628-2.597-7.819-3.762-11.626-2.156-7.05-4.313-14.1-6.469-21.149-3.35-10.949-8.488-22.844-8.978-34.402-.439-10.371 3.346-20.743 10.12-28.555 5.828-6.722 13.528-9.71 21.513-12.966 5.888-2.402 3.314-12.079-2.659-9.643z"/>
<path d="m148.208,94.058c-5.71,1.958-11.617,3.646-17.151,6.074-10.268,4.504-18.407,12.526-23.548,22.444-5.296,10.217-6.533,21.792-4.704,33.04 .773,4.757 2.537,9.47 3.943,14.068 4.191,13.699 8.381,27.398 12.572,41.099 5.474,17.893 18.534,28.381 36.147,33.716 7.487,2.268 15.335,3.348 23.104,4.091 6.42,.614 6.36-9.392 0-10-18.784-1.797-42.557-7.415-48.831-27.924-3.52-11.506-7.04-23.012-10.559-34.517-4.141-13.537-9.492-26.605-5.854-40.974 2.786-11 10.311-20.084 20.307-25.276 5.334-2.771 11.565-4.254 17.232-6.198 6.062-2.08 3.458-11.742-2.658-9.643z"/>
<path d="m74.487,201.067c2.088,5.443 4,10.994 6.336,16.338 4.508,10.314 12.247,18.788 22.233,24.02 9.705,5.084 20.906,6.137 31.509,3.726 5.12-1.164 9.782-3.707 14.469-5.977 12.69-6.146 25.38-12.293 38.071-18.439 17.354-8.405 28.083-22.769 30.584-42.062 1.039-8.012-.203-16.404-2.97-23.95-2.2-6.003-11.867-3.41-9.643,2.658 7.513,20.496-.51,44.518-20.951,53.717-10.728,4.828-21.217,10.276-31.804,15.404-12.548,6.077-23.689,12.524-38.259,8.589-10.473-2.828-18.581-10.684-23.429-20.149-2.676-5.225-4.405-11.061-6.504-16.532-2.284-5.958-11.956-3.374-9.642,2.657z"/>
<path d="m70.03,165.337c2.088,5.444 4.001,10.995 6.336,16.339 4.508,10.314 12.246,18.787 22.233,24.019 9.705,5.084 20.906,6.136 31.509,3.726 5.12-1.164 9.782-3.707 14.469-5.977 12.69-6.146 25.38-12.293 38.071-18.439 17.67-8.559 29.724-22.812 31.548-42.885 .629-6.931-.675-14.103-3.049-20.598-2.195-6.005-11.862-3.413-9.643,2.658 7.732,21.153-2.183,41.668-21.925,51.23-10.85,5.255-21.7,10.511-32.55,15.766-12.735,6.168-23.926,12.291-38.649,7.812-17.215-5.237-22.919-21.216-28.708-36.309-2.284-5.957-11.956-3.373-9.642,2.658z"/>
<path d="m73.309,183.901c2.088,5.443 4,10.994 6.336,16.338 4.508,10.314 12.247,18.787 22.233,24.019 9.705,5.084 20.906,6.137 31.509,3.727 5.12-1.164 9.782-3.707 14.469-5.978 12.69-6.146 25.38-12.293 38.07-18.439 17.354-8.406 28.083-22.767 30.585-42.062 1.039-8.011-.203-16.403-2.97-23.95-2.2-6.003-11.867-3.41-9.643,2.658 7.513,20.497-.511,44.517-20.952,53.716-10.728,4.828-21.217,10.276-31.804,15.405-12.548,6.078-23.688,12.523-38.259,8.588-10.472-2.828-18.581-10.684-23.429-20.148-2.676-5.225-4.405-11.061-6.504-16.532-2.283-5.957-11.954-3.372-9.641,2.658z"/>
<path d="m231.699,134.824c-11.62-8.445-23.211-19.026-36.549-24.633-27.053-11.372-52.806,8.849-67.98,29.571-3.816,5.212 4.867,10.192 8.635,5.047 13.489-18.42 36.039-35.619 59.341-23.688 5.594,2.864 10.647,7.178 15.708,10.856 5.267,3.827 10.532,7.654 15.799,11.481 5.226,3.799 10.208-4.883 5.046-8.634z"/>
<path d="m231.886,176.565c-14.608-10.42-29.217-20.84-43.825-31.261-7.557-5.391-14.856-10.918-23.786-13.926-17.22-5.798-32.313,3.8-41.692,17.843-3.593,5.379 5.073,10.38 8.635,5.047 4.229-6.332 9.557-11.819 17.049-13.958 7.318-2.089 14.969,.771 21.295,4.343 5.836,3.295 11.249,7.715 16.693,11.598 13.528,9.65 27.057,19.3 40.585,28.949 5.261,3.753 10.247-4.925 5.046-8.635z"/>
<path d="m232.014,154.911c-12.534-9.109-25.069-18.219-37.604-27.329-22.343-16.238-51.866-10.74-67.24,12.179-3.604,5.372 5.063,10.372 8.635,5.047 7.512-11.198 19.666-17.529 33.154-16.875 8.683,.421 15.757,4.906 22.539,9.834 11.823,8.593 23.646,17.185 35.47,25.778 5.225,3.799 10.208-4.883 5.046-8.634z"/>
<path d="m168.704,249.521c10.974-5.315 23.426-9.853 32.949-17.579 16.679-13.534 21.739-38.38 14.528-58.053-2.2-6.003-11.867-3.41-9.643,2.658 6.459,17.622 1.651,38.726-14.051,49.903-4.436,3.157-9.896,5.265-14.791,7.636-4.68,2.267-9.36,4.533-14.04,6.8-5.802,2.81-.729,11.432 5.048,8.635z"/>
</g>
</svg>
