<svg xmlns="http://www.w3.org/2000/svg" viewBox="20 20 321 321">
<path fill="none"  stroke="#000" stroke-width="10" d="m218.963,235.808c0,2.269-1.84,4.11-4.109,4.11h-68.042c-2.27,0-4.109-1.842-4.109-4.11v-75.348c0-2.27 1.84-4.11 4.109-4.11h68.042c2.27,0 4.109,1.84 4.109,4.11v75.348z"/>
<g fill="#000">
<path d="m207.805,224.785c-18.201,0-36.402,0-54.603,0-4.514,0-4.514,7 0,7 18.201,0 36.402,0 54.603,0 4.513,0 4.513-7 0-7z"/>
<path d="m207.805,215.525c-18.201,0-36.402,0-54.603,0-4.514,0-4.514,7 0,7 18.201,0 36.402,0 54.603,0 4.513,0 4.513-7 0-7z"/>
<path d="m207.805,205.555c-18.201,0-36.402,0-54.603,0-4.514,0-4.514,7 0,7 18.201,0 36.402,0 54.603,0 4.513,0 4.513-7 0-7z"/>
<path d="m207.805,196.296c-18.201,0-36.402,0-54.603,0-4.514,0-4.514,7 0,7 18.201,0 36.402,0 54.603,0 4.513,0 4.513-7 0-7z"/>
<path d="m207.805,187.037c-18.201,0-36.402,0-54.603,0-4.514,0-4.514,7 0,7 18.201,0 36.402,0 54.603,0 4.513,0 4.513-7 0-7z"/>
<path d="m207.805,177.066c-18.201,0-36.402,0-54.603,0-4.514,0-4.514,7 0,7 18.201,0 36.402,0 54.603,0 4.513,0 4.513-7 0-7z"/>
</g>
<path fill="none"  stroke="#000" stroke-width="10" d="m205.906,152.012c0,2.396-1.69,4.339-3.775,4.339h-42.781c-2.084,0-3.774-1.943-3.774-4.339l3.774-42.428c0-2.396 1.69-4.339 3.775-4.339h35.23c2.086,0 3.775,1.943 3.775,4.339l3.776,42.428z"/>
<g fill="#000">
<path d="m158.188,149.642c15.194,0 30.388,0 45.582,0 4.514,0 4.514-7 0-7-15.194,0-30.388,0-45.582,0-4.515,0-4.515,7 0,7z"/>
<path d="m106.821,219.583c-.992,16.153 4.889,31.528 16.123,43.124 4.494,4.639 11.558-2.439 7.071-7.07-9.501-9.808-14.029-22.458-13.194-36.054 .396-6.443-9.606-6.405-10,0z"/>
<path d="m88.606,219.584c-.905,21.407 7.077,41.853 22.029,57.158 4.512,4.619 11.578-2.457 7.071-7.07-13.194-13.507-19.896-31.245-19.1-50.088 .272-6.45-9.729-6.424-10-0z"/>
<path d="m70.454,219.584c-.943,26.468 9.054,51.866 27.592,70.744 4.524,4.607 11.591-2.468 7.071-7.07-16.77-17.078-25.515-39.771-24.664-63.674 .231-6.451-9.77-6.43-9.999,0z"/>
<path d="m196.75,136.846c0,1.313-1.143,2.376-2.551,2.376h-26.917c-1.409,0-2.551-1.064-2.551-2.376l1.551-21.24c0-1.313 1.143-2.376 2.552-2.376h23.812c1.41,0 2.553,1.064 2.553,2.376l1.551,21.24z"/>
<path d="m256.477,140.838c-4.281-15.524-14.656-28.368-29.041-35.652-5.738-2.906-10.802,5.721-5.047,8.635 12.171,6.164 20.811,16.499 24.445,29.676 1.712,6.208 11.36,3.569 9.643-2.659z"/>
<path d="m239.33,262.471c9.463-9.78 14.877-21.86 16.124-35.383 .593-6.423-9.413-6.365-10,0-.997,10.809-5.673,20.537-13.194,28.313-4.484,4.633 2.58,11.711 7.07,7.07z"/>
<path d="m273.7,134.909c-6.071-20.468-20.08-37.417-39.192-47-5.747-2.881-10.813,5.744-5.047,8.635 16.859,8.453 29.223,22.906 34.597,41.023 1.829,6.168 11.481,3.54 9.642-2.658z"/>
<path d="m251.64,276.701c13.199-13.514 20.815-30.78 22.03-49.613 .416-6.442-9.587-6.401-10,0-1.043,16.157-7.807,30.979-19.101,42.543-4.506,4.614 2.559,11.69 7.071,7.07z"/>
<path d="m290.864,129.003c-7.687-25.272-25.204-46.236-48.874-58.037-5.752-2.868-10.819,5.757-5.047,8.635 21.401,10.67 37.307,29.141 44.278,52.061 1.872,6.151 11.525,3.527 9.643-2.659z"/>
<path d="m264.229,289.891c16.679-16.989 26.332-39.041 27.593-62.803 .342-6.447-9.66-6.414-10,0-1.119,21.102-9.877,40.669-24.663,55.732-4.519,4.604 2.548,11.679 7.07,7.071z"/>
<path d="m114.481,143.497c3.634-13.178 12.275-23.512 24.446-29.676 5.754-2.914 .691-11.541-5.047-8.635-14.385,7.285-24.761,20.128-29.042,35.652-1.717,6.228 7.931,8.867 9.643,2.659z"/>
<path d="m97.258,137.567c5.374-18.118 17.737-32.57 34.596-41.023 5.766-2.891 .7-11.516-5.047-8.635-19.112,9.583-33.121,26.532-39.192,47-1.838,6.198 7.814,8.826 9.643,2.658z"/>
<path d="m80.093,131.661c6.972-22.919 22.877-41.39 44.278-52.061 5.772-2.878 .705-11.503-5.047-8.635-23.67,11.801-41.186,32.765-48.874,58.037-1.881,6.187 7.772,8.811 9.643,2.659z"/>
</g>
</svg>
