<svg xmlns="http://www.w3.org/2000/svg" viewBox="20 20 321 321">
<g fill="#000">
<path d="m180.744,155.583-.244-81 106.801,81z"/>
<path d="m185.744,155.583c-.081-27-.163-54-.244-81-2.508,1.439-5.016,2.878-7.523,4.317 35.59,26.992 71.18,53.984 106.77,80.976 .011,.008 .021,.016 .031,.024 .841-3.106 1.683-6.211 2.523-9.317-35.519,0-71.038,0-106.557,0-6.449,0-6.449,10 0,10 35.519,0 71.038,0 106.557,0 5.402,0 6.252-6.489 2.523-9.317-35.59-26.992-71.18-53.984-106.77-80.976-.011-.008-.021-.016-.031-.024-3.125-2.371-7.534,.868-7.523,4.317 .082,27 .163,54 .244,81 .02,6.448 10.02,6.45 10,0z"/>
<path d="m180.256,155.583 .244-80.999-106.801,80.999z"/>
<path d="m185.256,155.583c.081-27 .163-54 .244-81 .011-3.45-4.397-6.688-7.523-4.317-35.59,26.992-71.18,53.984-106.77,80.976-.011,.008-.021,.016-.031,.023-3.729,2.828-2.879,9.317 2.523,9.317 35.519,0 71.038,0 106.557,0 6.448,0 6.448-10 0-10-35.519,0-71.038,0-106.557,0 .841,3.106 1.683,6.211 2.523,9.317 35.59-26.992 71.18-53.984 106.77-80.976 .011-.008 .021-.016 .031-.023-2.508-1.439-5.016-2.878-7.523-4.317-.082,27-.163,54-.244,81-.02,6.45 9.98,6.448 10,0z"/>
</g>
<path fill="none"  stroke="#000" stroke-width="10" d="m268.5,278.988c0,3.919-3.927,7.096-8.771,7.096h-157.791c-4.844,0-8.771-3.177-8.771-7.096v-129.381c0-3.918 175.333-3.918 175.333,0v129.381z"/>
<g fill="#000">
<path d="m192.175,191.473c6.965,0 16.049-1.81 20.267,5.134 2.335,3.845 1.105,11.205 1.105,15.416 0,7.976 0,15.95 0,23.926 0,4.712 .724,10.15-.465,14.771-1.927,7.494-10.185,6.65-16.074,6.65-7.771,0-15.542,0-23.313,0-5.391,0-10.782,0-16.172,0-8.018,0-9.871-6.822-9.871-13.264 0-12.501 0-25.002 0-37.502 0-5.509-.369-10.682 5.133-14.025 4.16-2.527 11.862-1.105 16.501-1.105 4.514,0 4.514-7 0-7-5.911,0-13.397-1.136-18.887,1.509-6.982,3.364-9.747,9.838-9.747,17.229 0,13.814 0,27.629 0,41.444 0,6.951 1.665,12.619 7.518,16.996 4.524,3.383 10.708,2.719 16.021,2.719 13.162,0 26.323,0 39.484,0 10.436,0 16.871-8.496 16.871-18.31 0-9.515 0-19.028 0-28.543 0-6.896 1.61-16.819-1.509-23.296-5.296-10.995-16.601-9.748-26.863-9.748-4.513-.001-4.513,6.999 .001,6.999z"/>
<path d="m177.303,181.254c0,16.425 0,32.851 0,49.275 0,4.514 7,4.514 7,0 0-16.425 0-32.851 0-49.275 0-4.514-7-4.514-7,0z"/>
</g>
</svg>
