<svg xmlns="http://www.w3.org/2000/svg" viewBox="20 20 321 321">
<g fill="#000">
<path d="m180.744,155.583-.244-81 106.801,81z"/>
<path d="m185.744,155.583c-.081-27-.163-54-.244-81-2.508,1.439-5.016,2.878-7.523,4.317 35.59,26.992 71.18,53.984 106.77,80.976 .011,.008 .021,.016 .031,.024 .841-3.106 1.683-6.211 2.523-9.317-35.519,0-71.038,0-106.557,0-6.449,0-6.449,10 0,10 35.519,0 71.038,0 106.557,0 5.402,0 6.252-6.489 2.523-9.317-35.59-26.992-71.18-53.984-106.77-80.976-.011-.008-.021-.016-.031-.024-3.125-2.371-7.534,.868-7.523,4.317 .082,27 .163,54 .244,81 .02,6.448 10.02,6.45 10,0z"/>
<path d="m180.256,155.583 .244-80.999-106.801,80.999z"/>
<path d="m185.256,155.583c.081-27 .163-54 .244-81 .011-3.45-4.397-6.688-7.523-4.317-35.59,26.992-71.18,53.984-106.77,80.976-.011,.008-.021,.016-.031,.023-3.729,2.828-2.879,9.317 2.523,9.317 35.519,0 71.038,0 106.557,0 6.448,0 6.448-10 0-10-35.519,0-71.038,0-106.557,0 .841,3.106 1.683,6.211 2.523,9.317 35.59-26.992 71.18-53.984 106.77-80.976 .011-.008 .021-.016 .031-.023-2.508-1.439-5.016-2.878-7.523-4.317-.082,27-.163,54-.244,81-.02,6.45 9.98,6.448 10,0z"/>
</g>
<path fill="none"  stroke="#000" stroke-width="10" d="m268.5,278.988c0,3.919-3.927,7.096-8.771,7.096h-157.791c-4.844,0-8.771-3.177-8.771-7.096v-129.381c0-3.918 175.333-3.918 175.333,0v129.381z"/>
<g fill="#000">
<path d="m129.229,241.23c-9.98-18.121-3.849-40.477 13.906-51.05 3.874-2.307 .355-8.36-3.533-6.045-21.063,12.544-28.233,39.175-16.417,60.628 2.178,3.955 8.223,.424 6.044-3.533z"/>
<path d="m180.192,254.985c-18.121,9.98-40.478,3.85-51.051-13.905-2.307-3.873-8.359-.354-6.044,3.533 12.543,21.063 39.175,28.232 60.628,16.417 3.955-2.177 .423-8.223-3.533-6.045z"/>
<path d="m139.493,234.443c-6.284-11.433-9.588-36.144 3.624-44.313 3.83-2.369 .318-8.426-3.533-6.045-16.783,10.379-14.377,38.896-6.134,53.892 2.173,3.956 8.218,.424 6.043-3.534z"/>
<path d="m180.192,254.985c-7.233,3.788-16.067-.027-22.557-3.663-7.168-4.016-13.91-9.871-18.151-16.962-2.313-3.868-8.367-.351-6.044,3.533 8.809,14.728 32.576,32.409 50.286,23.137 4-2.094 .461-8.135-3.534-6.045z"/>
<g  stroke="#000">
<path d="m163.598,199.94c0,.759-.616,1.375-1.375,1.375-.76,0-1.375-.616-1.375-1.375 0-.76 .615-1.375 1.375-1.375 .758,0 1.375,.616 1.375,1.375z"/>
<path d="m174.348,179.315c0,1.449-1.176,2.625-2.625,2.625-1.45,0-2.625-1.176-2.625-2.625 0-1.45 1.175-2.625 2.625-2.625 1.449,0 2.625,1.175 2.625,2.625z"/>
<path d="m185.806,201.363c0,1.262-1.023,2.285-2.286,2.285h-.762c-1.262,0-2.285-1.023-2.285-2.285v-.762c0-1.263 1.023-2.286 2.285-2.286h.762c1.263,0 2.286,1.023 2.286,2.286v.762z"/>
<g stroke-width="10">
<path d="m226.598,239.975c0,2.203-1.603,3.989-3.58,3.989h-27.744c-1.977,0-3.58-1.786-3.58-3.989v-28.92c0-2.203 1.604-3.989 3.58-3.989h27.744c1.978,0 3.58,1.786 3.58,3.989v28.92z"/>
<path d="m174.075,230.002c0,2.203 1.786,3.989 3.989,3.989h18.615c2.203,0 3.989-1.786 3.989-3.989v-11.303c0-2.202-1.786-3.988-3.989-3.988h-18.615c-2.203,0-3.989,1.786-3.989,3.988v11.303z"/>
<path d="m166.098,230.002c0-2.203 1.786-3.989 3.989-3.989h22.937c2.203,0 3.988,1.786 3.988,3.989v6.316c0,2.202-1.785,3.988-3.988,3.988h-22.937c-2.203,0-3.989-1.786-3.989-3.988v-6.316z"/>
<path d="m213.301,236.317c0,2.203 1.786,3.989 3.989,3.989h18.615c2.203,0 3.989-1.786 3.989-3.989v-11.302c0-2.203-1.786-3.989-3.989-3.989h-18.615c-2.203,0-3.989,1.786-3.989,3.989v11.302z"/>
</g>
</g>
</g>
</svg>
