<svg xmlns="http://www.w3.org/2000/svg" viewBox="20 20 321 321">
<g  stroke="#000" stroke-width="10">
<path fill="#000" d="m210.541,191.987c0,9.992-8.027,18.093-17.928,18.093h-23.905c-9.901,0-17.928-8.101-17.928-18.093v-23.575c0-9.992 8.027-18.093 17.928-18.093h23.905c9.9,0 17.928,8.101 17.928,18.093v23.575z"/>
<path fill="none" d="m210.541,191.987c0,9.992-8.027,18.093-17.928,18.093h-23.905c-9.901,0-17.928-8.101-17.928-18.093v-23.575c0-9.992 8.027-18.093 17.928-18.093h23.905c9.9,0 17.928,8.101 17.928,18.093v23.575z"/>
</g>
<g fill="#000">
<path d="m108.267,188.108c7.71,0 15.42,0 23.13,0 9.687,0 9.772-15.003 .108-15.003-7.71,0-15.42,0-23.13,0-9.687-0-9.772,15.003-.108,15.003z"/>
<path d="m121.433,131.762c5.452,5.452 10.904,10.904 16.355,16.355 6.836,6.835 17.404-3.813 10.552-10.665-5.452-5.452-10.904-10.904-16.355-16.355-6.837-6.836-17.404,3.812-10.552,10.665z"/>
<path d="m188.388,131.226c0-7.71 0-15.42 0-23.13 0-9.687-15.003-9.772-15.003-.108 0,7.71 0,15.42 0,23.13 0,9.686 15.003,9.772 15.003,.108z"/>
<path d="m229.766,121.153c-5.451,5.452-10.903,10.904-16.355,16.355-6.835,6.836 3.813,17.404 10.666,10.552 5.451-5.452 10.903-10.904 16.355-16.355 6.835-6.836-3.814-17.404-10.666-10.552z"/>
<path d="m230.302,188.108c7.71,0 15.42,0 23.131,0 9.686,0 9.771-15.003 .107-15.003-7.71,0-15.42,0-23.131,0-9.685-0-9.771,15.003-.107,15.003z"/>
<path d="m240.374,229.786c-5.451-5.451-10.903-10.903-16.355-16.355-6.835-6.835-17.403,3.813-10.551,10.666 5.451,5.451 10.903,10.903 16.355,16.355 6.835,6.835 17.404-3.813 10.551-10.666z"/>
<path d="m173.419,230.323c0,7.71 0,15.42 0,23.13 0,9.686 15.003,9.771 15.003,.107 0-7.71 0-15.42 0-23.13 .001-9.685-15.003-9.771-15.003-.107z"/>
<path d="m131.908,240.629c5.452-5.451 10.904-10.903 16.355-16.355 6.835-6.835-3.813-17.403-10.665-10.551-5.452,5.451-10.904,10.903-16.355,16.355-6.836,6.835 3.812,17.403 10.665,10.551z"/>
</g>
</svg>
