<svg xmlns="http://www.w3.org/2000/svg" viewBox="20 20 321 321">
<g fill="#000">
<path d="m180.744,155.583-.244-81 106.801,81z"/>
<path d="m185.744,155.583c-.081-27-.163-54-.244-81-2.508,1.439-5.016,2.878-7.523,4.317 35.59,26.992 71.18,53.984 106.77,80.976 .011,.008 .021,.016 .031,.024 .841-3.106 1.683-6.211 2.523-9.317-35.519,0-71.038,0-106.557,0-6.449,0-6.449,10 0,10 35.519,0 71.038,0 106.557,0 5.402,0 6.252-6.489 2.523-9.317-35.59-26.992-71.18-53.984-106.77-80.976-.011-.008-.021-.016-.031-.024-3.125-2.371-7.534,.868-7.523,4.317 .082,27 .163,54 .244,81 .02,6.448 10.02,6.45 10,0z"/>
<path d="m180.256,155.583 .244-80.999-106.801,80.999z"/>
<path d="m185.256,155.583c.081-27 .163-54 .244-81 .011-3.45-4.397-6.688-7.523-4.317-35.59,26.992-71.18,53.984-106.77,80.976-.011,.008-.021,.016-.031,.023-3.729,2.828-2.879,9.317 2.523,9.317 35.519,0 71.038,0 106.557,0 6.448,0 6.448-10 0-10-35.519,0-71.038,0-106.557,0 .841,3.106 1.683,6.211 2.523,9.317 35.59-26.992 71.18-53.984 106.77-80.976 .011-.008 .021-.016 .031-.023-2.508-1.439-5.016-2.878-7.523-4.317-.082,27-.163,54-.244,81-.02,6.45 9.98,6.448 10,0z"/>
</g>
<path fill="none"  stroke="#000" stroke-width="10" d="m268.5,278.988c0,3.919-3.927,7.096-8.771,7.096h-157.791c-4.844,0-8.771-3.177-8.771-7.096v-129.381c0-3.918 175.333-3.918 175.333,0v129.381z"/>
<g fill="#000">
<path d="m133.798,268.374c-3.822,0-7.645,0-11.467,0-4.514,0-4.514,7 0,7 3.822,0 7.645,0 11.467,0 4.515,0 4.515-7 0-7z"/>
<path d="m132.507,202.423c-2.271,8.048-4.543,16.096-6.815,24.143-1.229,4.354 5.525,6.198 6.75,1.861 2.271-8.048 4.543-16.096 6.815-24.143 1.229-4.353-5.526-6.198-6.75-1.861z"/>
<path d="m124.902,193.538c0,26.14 0,52.28 0,78.42 0,4.514 7,4.514 7,0 0-26.14 0-52.28 0-78.42 0-4.514-7-4.514-7,0z"/>
<path d="m104.39,182.562c7.303,4.554 14.605,9.108 21.908,13.662 1.031,.643 2.502,.643 3.533,0 7.303-4.554 14.605-9.108 21.908-13.662 2.918-1.819 1.786-6.522-1.767-6.522-14.605,0-29.21,0-43.815,0-4.514,0-4.514,7 0,7 14.605,0 29.21,0 43.815,0-.589-2.173-1.178-4.348-1.767-6.521-7.302,4.554-14.605,9.107-21.908,13.661 1.178,0 2.355,0 3.533,0-7.303-4.554-14.605-9.107-21.908-13.661-3.841-2.397-7.352,3.66-3.532,6.043z"/>
<path d="m148.364,211.053c-3.343-3.289-6.686-6.578-10.028-9.867-3.219-3.168-8.171,1.779-4.95,4.949 3.343,3.289 6.686,6.578 10.028,9.867 3.219,3.168 8.171-1.779 4.95-4.949z"/>
<path d="m151.492,211.224c-2.318-1.316-4.636-2.633-6.954-3.949-1.371-.778-3.119-.575-4.242,.548-1.216,1.216-1.177,2.769-.547,4.241 1.048,2.45 2.096,4.901 3.144,7.352 .939,2.197 3.993,2.051 5.497,.708 1.27-1.134 2.54-2.268 3.81-3.402 1.423-1.271 1.291-3.658 0-4.949-1.406-1.405-3.528-1.27-4.95,0-1.27,1.134-2.54,2.268-3.81,3.402 1.833,.236 3.665,.472 5.497,.708-1.048-2.45-2.096-4.901-3.144-7.352-1.596,1.597-3.192,3.192-4.789,4.789 2.318,1.316 4.636,2.633 6.954,3.949 3.932,2.232 7.458-3.817 3.534-6.045z"/>
</g>
<g fill="none"  stroke="#000" stroke-width="10">
<path d="m248.682,223.715h-13.392c-2.048,0-3.708,2.132-3.708,4.762l.001,7.065-48.843,.125v-7.19c0-2.63-1.66-4.762-3.708-4.762h-13.391c-2.047,0-3.708,2.132-3.708,4.762v12.43c0,2.629 1.66,4.761 3.708,4.761h6.584v10.942c0,4.636 2.927,8.393 6.538,8.393h56.573c3.61,0 6.538-3.757 6.538-8.393v-10.942h6.807c2.047,0 3.707-2.132 3.707-4.761v-12.43c.001-2.63-1.659-4.762-3.706-4.762z"/>
<path d="m233.12,215.872c0-.11-.003-17.265-.007-17.375-.146-3.525-2.615-6.332-5.64-6.332h-41.327c-3.119,0-5.646,2.983-5.646,6.665v17.042"/>
</g>
<g fill="#000">
<path d="m178.333,266.945c0,.8 0,1.601 0,2.4 0,2.726 2.274,5 5,5s5-2.274 5-5c0-.8 0-1.601 0-2.4 0-2.726-2.274-5-5-5s-5,2.275-5,5z"/>
<path d="m225.833,266.945c0,.8 0,1.601 0,2.4 0,2.726 2.274,5 5,5s5-2.274 5-5c0-.8 0-1.601 0-2.4 0-2.726-2.274-5-5-5s-5,2.275-5,5z"/>
</g>
</svg>
