<svg xmlns="http://www.w3.org/2000/svg" viewBox="20 20 321 321">
<g  stroke="#000" stroke-width="10">
<path fill="#000" d="m210.541,191.987c0,9.992-8.027,18.093-17.928,18.093h-23.905c-9.901,0-17.928-8.101-17.928-18.093v-23.575c0-9.992 8.027-18.093 17.928-18.093h23.905c9.9,0 17.928,8.101 17.928,18.093v23.575z"/>
<path fill="none" d="m210.541,191.987c0,9.992-8.027,18.093-17.928,18.093h-23.905c-9.901,0-17.928-8.101-17.928-18.093v-23.575c0-9.992 8.027-18.093 17.928-18.093h23.905c9.9,0 17.928,8.101 17.928,18.093v23.575z"/>
</g>
</svg>
