
<svg xmlns="http://www.w3.org/2000/svg" viewBox="20 20 321 321">
<g fill="#000">
	<path d="m56.04 51.32c-5.808 0-11 4.552-11 10.539v99.21h-.002v5 49.961c-2.722.229-5.069 1.734-6.555 3.629-1.613 2.058-2.443 4.61-2.443 7.326v34.668c0 2.716.83 5.269 2.443 7.326 1.613 2.058 4.237 3.674 7.26 3.674h42.594c3.02 0 5.647-1.616 7.26-3.674 1.613-2.058 2.443-4.61 2.443-7.326v-34.668c0-2.716-.831-5.269-2.443-7.326-1.485-1.895-3.834-3.401-6.557-3.629v-.586-54.37-99.21c0-5.987-5.192-10.539-11-10.539h-22m0 10h22c.818 0 1 .406 1 .539v99.21h-24v-99.21c0-.133.182-.539 1-.539" transform="translate(20 20)"/>
	<g transform="translate(-82.46.982)">
		<path d="m199.5 92.33c6 0 12 0 18 0 6.448 0 6.448-10 0-10-6 0-12 0-18 0-6.448 0-6.448 10 0 10"/>
		<path d="m199.5 132.33c6 0 12 0 18 0 6.448 0 6.448-10 0-10-6 0-12 0-18 0-6.448 0-6.448 10 0 10"/>
		<path d="m199.5 173.33c6 0 12 0 18 0 6.448 0 6.448-10 0-10-6 0-12 0-18 0-6.448 0-6.448 10 0 10"/>
		<path d="m199.5 216.33c6 0 12 0 18 0 6.448 0 6.448-10 0-10-6 0-12 0-18 0-6.448 0-6.448 10 0 10"/>
	</g>
	<path d="m199.37 252.55h14c1.662 0 3 1.338 3 3v18.869c0 1.662-1.338 3-3 3h-14c-1.662 0-3-1.338-3-3v-18.869c0-1.662 1.338-3 3-3m0-30.869h14c1.662 0 3 1.338 3 3v18.869c0 1.662-1.338 3-3 3h-14c-1.662 0-3-1.338-3-3v-18.869c0-1.662 1.338-3 3-3m0-30.869h14c1.662 0 3 1.338 3 3v18.869c0 1.662-1.338 3-3 3h-14c-1.662 0-3-1.338-3-3v-18.869c0-1.662 1.338-3 3-3m78 31.31h14c1.662 0 3 1.338 3 3v49.3c0 1.662-1.338 3-3 3h-14c-1.662 0-3-1.338-3-3v-49.3c0-1.662 1.338-3 3-3m0-31.31h14c1.662 0 3 1.338 3 3v18.869c0 1.662-1.338 3-3 3h-14c-1.662 0-3-1.338-3-3v-18.869c0-1.662 1.338-3 3-3m0-30.869h14c1.662 0 3 1.338 3 3v18.869c0 1.662-1.338 3-3 3h-14c-1.662 0-3-1.338-3-3v-18.869c0-1.662 1.338-3 3-3m-26 92.61h14c1.662 0 3 1.338 3 3v18.869c0 1.662-1.338 3-3 3h-14c-1.662 0-3-1.338-3-3v-18.869c0-1.662 1.338-3 3-3m0-30.869h14c1.662 0 3 1.338 3 3v18.869c0 1.662-1.338 3-3 3h-14c-1.662 0-3-1.338-3-3v-18.869c0-1.662 1.338-3 3-3m0-30.869h14c1.662 0 3 1.338 3 3v18.869c0 1.662-1.338 3-3 3h-14c-1.662 0-3-1.338-3-3v-18.869c0-1.662 1.338-3 3-3m0-30.869h14c1.662 0 3 1.338 3 3v18.869c0 1.662-1.338 3-3 3h-14c-1.662 0-3-1.338-3-3v-18.869c0-1.662 1.338-3 3-3m-26 92.61h14c1.662 0 3 1.338 3 3v18.869c0 1.662-1.338 3-3 3h-14c-1.662 0-3-1.338-3-3v-18.869c0-1.662 1.338-3 3-3m0-30.869h14c1.662 0 3 1.338 3 3v18.869c0 1.662-1.338 3-3 3h-14c-1.662 0-3-1.338-3-3v-18.869c0-1.662 1.338-3 3-3m0-30.869h14c1.662 0 3 1.338 3 3v18.869c0 1.662-1.338 3-3 3h-14c-1.662 0-3-1.338-3-3v-18.869c0-1.662 1.338-3 3-3m-26-30.869h14c1.662 0 3 1.338 3 3v18.869c0 1.662-1.338 3-3 3h-14c-1.662 0-3-1.338-3-3v-18.869c0-1.662 1.338-3 3-3m26 0h14c1.662 0 3 1.338 3 3v18.869c0 1.662-1.338 3-3 3h-14c-1.662 0-3-1.338-3-3v-18.869c0-1.662 1.338-3 3-3m-26.13-33.999h92.11c1.588 0 2.866 1.338 2.866 3v18.869c0 1.662-1.278 3-2.866 3h-92.11c-1.588 0-2.866-1.338-2.866-3v-18.869c0-1.662 1.278-3 2.866-3m-2.648-6.798c-3.927 0-7.089 3.162-7.089 7.089v150.41c0 3.927 3.162 7.089 7.089 7.089h98.06c3.927 0 7.089-3.162 7.089-7.089v-150.41c0-3.927-3.162-7.089-7.089-7.089h-98.06"/>
</g>	
</svg>