<svg xmlns="http://www.w3.org/2000/svg" viewBox="20 20 321 321">
<g fill="#000">
	<path d="M119.529,84.668c40.833,0,81.667,0,122.5,0c9.686,0,9.771-15.003,0.107-15.003 c-40.833,0-81.667,0-122.5,0C109.951,69.666,109.865,84.668,119.529,84.668L119.529,84.668z"/>
	<path d="M119.529,292.169c40.833,0,81.667,0,122.5,0c9.686,0,9.771-15.004,0.107-15.004 c-40.833,0-81.667,0-122.5,0C109.951,277.165,109.865,292.169,119.529,292.169L119.529,292.169z"/>
	<path d="M180.458,233.869L180.458,233.869"/>
	<path fill="none" stroke="#000" stroke-width="3" stroke-miterlimit="10" d="M237.643,149.12V82.702
		c0-9.043-7.675-6.55-17.143-6.55h-79.999c-9.468,0-17.144-2.494-17.144,6.55v66.417c0,9.044,7.676,16.376,17.144,16.376
		c7.443,0,37.808,6.666,37.7,14.981c-0.107,8.225-30.257,14.15-37.702,14.15c-9.467,0-17.142,7.385-17.142,16.492v66.957
		c0,9.107,7.675,6.598,17.142,6.598h79.999c9.469,0,17.144,2.51,17.144-6.598v-66.957c0-9.107-7.675-16.492-17.144-16.492
		c-7.32,0-37.086-6.041-37.191-14.15c-0.108-8.203,29.872-14.981,37.193-14.981C229.968,165.496,237.643,158.164,237.643,149.12z"/>
	<path d="M123.315,136.893v12.417c0,9.044,7.676,16.376,17.144,16.376c7.443,0,37.808,6.666,37.7,14.981 h5.105c-0.107-8.203,29.873-14.981,37.193-14.981c9.469,0,17.143-7.332,17.143-16.376v-12.417"/>
	<rect x="123.357" y="237.973" width="114.286" height="42.592"/>
</g>
</svg>
