<svg xmlns="http://www.w3.org/2000/svg" viewBox="20 20 321 321">
<g fill="#000">
<path d="m280.307,291.336h-151.525c-6.313,0-11.449-5.135-11.449-11.447v-75.722l10,27v48.722c0,.798 .65,1.447 1.449,1.447h151.525c.799,0 1.448-.649 1.448-1.447v-198.273c0-.799-.649-1.449-1.448-1.449h-151.525c-.799,0-1.449,.65-1.449,1.449v68.051l-10-28v-40.051c0-6.313 5.136-11.449 11.449-11.449h151.525c6.313,0 11.448,5.136 11.448,11.449v198.273c0,6.312-5.136,11.447-11.448,11.447z"/>
<path d="m145.833,111.667c38.167,0 76.333,0 114.5,0 6.448,0 6.448-10 0-10-38.167,0-76.333,0-114.5,0-6.449,0-6.449,10 0,10z"/>
<path d="m149.833,165.667c36.833,0 73.667,0 110.5,0 6.448,0 6.448-10 0-10-36.833,0-73.666,0-110.5,0-6.448,0-6.448,10 0,10z"/>
<path d="m145.833,138.667c38.167,0 76.333,0 114.5,0 6.448,0 6.448-10 0-10-38.167,0-76.333,0-114.5,0-6.449,0-6.449,10 0,10z"/>
<path d="m160.333,194.667c33.333,0 66.667,0 100,0 6.448,0 6.448-10 0-10-33.333,0-66.667,0-100,0-6.449,0-6.449,10 0,10z"/>
<path d="m171.333,221.667c29.333,0 58.667,0 88,0 6.448,0 6.448-10 0-10-29.333,0-58.667,0-88,0-6.449,0-6.449,10 0,10z"/>
<path d="m175.333,249.667c28,0 56,0 84,0 6.448,0 6.448-10 0-10-28,0-56,0-84,0-6.449,0-6.449,10 0,10z"/>
<path d="m130.254,243.984c7.575,9.512 15.15,19.023 22.725,28.535 1.978,2.483 5.992,.339 5.975-2.475-.071-12.159-.142-24.319-.212-36.479-.013-2.15-2.248-4.145-4.431-3.375-7.504,2.647-15.008,5.296-22.513,7.943-4.227,1.491-2.407,8.256 1.861,6.75 7.504-2.647 15.008-5.296 22.513-7.943-1.477-1.125-2.954-2.25-4.431-3.375 .071,12.159 .142,24.319 .212,36.479 1.992-.825 3.983-1.65 5.975-2.475-7.575-9.512-15.15-19.023-22.725-28.535-2.811-3.53-7.73,1.458-4.949,4.95z"/>
<path d="m123.477,236.866c4.053,9.081 12.596,7.167 20.052,4.536 6.62-2.335 15.901-4.24 16.428-12.916 .384-6.321-3.658-13.668-5.695-19.442-10.026-28.42-20.052-56.839-30.079-85.259-4.337-12.293-8.674-24.587-13.012-36.881-1.911-5.417-4.062-17.519-11.604-17.214-6.621,.268-13.523,3.81-19.696,5.987-5.723,2.019-11.314,5.684-8.882,12.578 2.513,7.123 5.026,14.247 7.54,21.37 14.865,42.135 29.73,84.27 44.595,126.405 1.491,4.227 8.256,2.407 6.75-1.861-16.331-46.289-32.662-92.578-48.992-138.867-.982-2.785-1.965-5.57-2.948-8.355-1.459-4.137 6.911-5.618 9.799-6.637 2.532-.893 5.063-1.786 7.595-2.679 1.982-.699 4.534-1.791 5.371,.584 .945,2.678 1.89,5.356 2.834,8.034 9.545,27.056 19.09,54.111 28.636,81.167 5.806,16.457 11.612,32.914 17.418,49.371 1.032,2.926 2.064,5.852 3.097,8.777 2.057,5.829-5.343,7.087-9.164,8.435-4.651,1.641-11.206,5.591-13.999-.666-1.837-4.115-7.867-.552-6.044,3.533z"/>
<path d="m144.531,255.828 10.605,13.317-.099-17.023z"/>
<path d="m142.056,258.303c3.535,4.439 7.07,8.878 10.604,13.316 1.978,2.483 5.991,.339 5.975-2.475-.033-5.674-.066-11.349-.099-17.022-.013-2.151-2.248-4.145-4.431-3.375-3.502,1.235-7.004,2.471-10.506,3.706-4.227,1.491-2.407,8.256 1.861,6.75 3.502-1.235 7.004-2.471 10.506-3.706-1.477-1.125-2.954-2.25-4.431-3.375 .033,5.674 .066,11.349 .099,17.022 1.992-.825 3.983-1.65 5.975-2.475-3.535-4.439-7.07-8.878-10.604-13.316-2.811-3.531-7.73,1.458-4.949,4.95z"/>
</g>
</svg>
