<svg xmlns="http://www.w3.org/2000/svg" viewBox="20 20 321 321">
<g fill="none"  stroke="#000" stroke-width="10">
<path d="m116.167,280.287c0,3.709-2.687,6.713-6,6.713h-29c-3.313,0-6-3.004-6-6.713v-143.574c0-3.708 2.687-6.713 6-6.713h29c3.313,0 6,3.005 6,6.713v143.574z"/>
<path d="M172.167,278.635c0,4.621-2.687,8.365-6,8.365   h-29c-3.313,0-6-3.744-6-8.365V99.7c0-4.62,2.687-8.366,6-8.366h29c3.313,0,6,3.746,6,8.366V278.635z"/>
<path d="m229.167,283.096c0,2.156-2.687,3.904-6,3.904h-29c-3.313,0-6-1.748-6-3.904v-83.523c0-2.156 2.687-3.905 6-3.905h29c3.313,0 6,1.749 6,3.905v83.523z"/>
<path d="m286.167,281.186c0,3.212-2.687,5.814-6,5.814h-29c-3.313,0-6-2.603-6-5.814v-124.37c0-3.211 2.687-5.815 6-5.815h29c3.313,0 6,2.604 6,5.815v124.37z"/>
</g>
</svg>
