<svg xmlns="http://www.w3.org/2000/svg" viewBox="20 20 321 321">
<g fill="none"  stroke="#000" stroke-width="10">
<path d="m116.083,202.941c0,2.332-2.25,4.226-5.025,4.226h-31.2c-2.775,0-5.025-1.894-5.025-4.226v-51.072c0-2.333 2.25-4.226 5.025-4.226h31.2c2.775,0 5.025,1.893 5.025,4.226v51.072z"/>
<path d="m173.083,201.414c0,3.176-2.25,5.752-5.025,5.752h-31.2c-2.775,0-5.025-2.576-5.025-5.752v-69.519c0-3.176 2.25-5.752 5.025-5.752h31.2c2.775,0 5.025,2.576 5.025,5.752v69.519z"/>
<path d="m230.149,201.36c0,3.161-2.409,5.724-5.38,5.724h-30.49c-2.971,0-5.38-2.563-5.38-5.724v-92.548c0-3.16 2.409-5.724 5.38-5.724h30.49c2.971,0 5.38,2.564 5.38,5.724v92.548z"/>
<path d="m287.074,201.465c0,3.059-2.357,5.535-5.266,5.535h-30.718c-2.908,0-5.266-2.477-5.266-5.535v-121.173c0-3.058 2.357-5.535 5.266-5.535h30.719c2.908,0 5.266,2.477 5.266,5.535v121.173z"/>
</g>
<g fill="#000">
<path d="m111.929,290.613l-3.185-13.729h-18.122l-3.075,13.729h-14.06c3.221-11.712 6.48-22.383 9.775-32.016 3.295-9.632 6.48-18.769 9.556-27.408h14.718c3.221,8.704 6.425,17.938 9.61,27.695 3.185,9.762 6.277,20.338 9.281,31.729h-14.498zm-12.081-47.904c-.733,2.241-1.411,4.368-2.032,6.385-.623,2.016-1.208,4-1.757,5.951-.549,1.953-1.062,3.922-1.538,5.904-.477,1.984-.934,4.032-1.373,6.145h13.29c-.439-2.112-.878-4.16-1.318-6.145-.439-1.982-.934-3.951-1.483-5.904-.549-1.951-1.136-3.936-1.757-5.951-.624-2.017-1.301-4.144-2.032-6.385z"/>
<path d="m154.655,291.861c-4.394,0-8.073-.527-11.038-1.584-2.966-1.057-5.327-2.576-7.084-4.561-1.757-1.982-3.003-4.383-3.734-7.199-.733-2.816-1.098-5.952-1.098-9.408v-37.92h13.619v37.152c0,2.496 .146,4.592 .439,6.287 .292,1.697 .786,3.058 1.483,4.08 .695,1.025 1.665,1.762 2.91,2.209 1.245,.447 2.818,.672 4.723,.672 1.903,0 3.477-.225 4.723-.672 1.244-.447 2.233-1.201 2.966-2.257 .731-1.056 1.244-2.431 1.538-4.128 .292-1.695 .439-3.792 .439-6.288v-37.056h13.51v37.92c0,3.456-.367,6.592-1.098,9.408-.733,2.816-2.015,5.217-3.844,7.199-1.831,1.984-4.248,3.504-7.249,4.561-3.006,1.058-6.74,1.585-11.205,1.585z"/>
<path d="m234.504,231.189v9.792h-17.902v49.632h-13.619v-49.632h-17.904v-9.792h49.425z"/>
<path d="m240.215,260.854c0-10.239 2.16-17.967 6.48-23.184s10.324-7.824 18.014-7.824c7.979,0 14.059,2.607 18.232,7.824 4.173,5.217 6.26,12.944 6.26,23.184 0,10.24-2.125,17.969-6.37,23.184-4.247,5.217-10.253,7.824-18.013,7.824-7.982,0-14.078-2.607-18.287-7.824-4.212-5.216-6.316-12.944-6.316-23.184zm13.73,0c0,2.88 .127,5.584 .384,8.111 .256,2.529 .769,4.721 1.538,6.576 .769,1.857 1.848,3.328 3.24,4.416 1.39,1.09 3.257,1.633 5.602,1.633 2.268,0 4.118-.543 5.546-1.633 1.428-1.088 2.526-2.575 3.295-4.464 .769-1.887 1.28-4.08 1.538-6.575 .256-2.496 .385-5.185 .385-8.064 0-2.881-.129-5.583-.385-8.112-.258-2.527-.77-4.719-1.538-6.576-.769-1.855-1.85-3.327-3.239-4.415-1.393-1.088-3.26-1.633-5.602-1.633-2.345,0-4.212,.545-5.602,1.633-1.393,1.088-2.472,2.576-3.24,4.463-.77,1.889-1.282,4.08-1.538,6.576-.257,2.495-.384,5.183-.384,8.064z"/>
</g>
</svg>
