<svg xmlns="http://www.w3.org/2000/svg" viewBox="20 20 321 321">
<g fill="#000">
	<path d="M291.519,153.014c0-2.737-1.821-4.977-4.047-4.977h-15.983c-0.845,0-1.63,0.325-2.281,0.875 c-7.586-15.311-17.775-32.088-26.828-34.247c-24.6-5.866-42.477-5.885-61.478-5.885c-0.126,0-0.252,0-0.378,0 c-0.124,0-0.251,0-0.375,0c-18.87,0-38.064,0.019-60.87,5.885c-9.002,2.316-19.179,19.044-26.772,34.295
		c-0.66-0.576-1.461-0.923-2.328-0.923H74.195c-2.226,0-4.047,2.24-4.047,4.977c0,0-1.224,5.122,4.227,7.897 c4.95,2.52,8.133,4.153,10.264,5.176c-1.328,3.124-2.326,5.598-2.936,7.141c-0.3,0.549-0.535,1.129-0.679,1.739l0,0.001h0 c-0.118,0.501-0.182,1.019-0.182,1.55v34.505v16.564v15.805c0,4.875,3.953,8.828,8.828,8.828h16.92
		c4.875,0,8.828-3.953,8.828-8.828v-8h130.821v8c0,4.875,3.953,8.828,8.828,8.828h16.92c4.875,0,8.828-3.953,8.828-8.828v-15.805 v-16.564v-34.505c0-0.531-0.063-1.049-0.182-1.55h0l-0.001-0.001c-0.141-0.597-0.369-1.165-0.659-1.704 c-0.604-1.541-1.6-4.033-2.93-7.184c2.131-1.023,5.31-2.654,10.247-5.168C292.742,158.137,291.519,153.014,291.519,153.014z
		 M132.742,201.138H99.8c-4.588,0-8.342-2.995-8.342-6.654v-9.788c0-3.66,3.732-7.061,5.799-7.889 c4.138-1.656,3.917-3.884,33.598,5.916c11.235,3.71,10.229,11.761,10.229,11.761C141.084,198.143,137.33,201.138,132.742,201.138z M218.191,222.006c0,3.237-2.648,5.885-5.885,5.885h-62.954c-3.237,0-5.885-2.648-5.885-5.885l-3.531-13.517
		c0-3.237,2.648-5.885,5.885-5.885h70.016c3.237,0,5.885,2.648,5.885,5.885L218.191,222.006z M269.411,194.484 c0,3.66-3.754,6.654-8.342,6.654h-32.942c-4.588,0-8.342-2.995-8.342-6.654c0,0-1.006-8.051,10.229-11.761 c29.681-9.801,29.46-7.572,33.598-5.916c2.068,0.827,5.799,4.229,5.799,7.889V194.484z M102.717,151.577
		c12.531-24.608,19.084-26.923,19.126-26.937c21.618-5.561,40.268-5.561,58.305-5.561h0.375h0.378c18.301,0,35.586,0,59.054,5.595 c0.064,0.02,6.586,2.304,18.985,26.738c2.347,4.624,4.476,9.208,6.27,13.256H96.491 C98.274,160.673,100.387,156.153,102.717,151.577z"/>
</g>
</svg>
