<svg xmlns="http://www.w3.org/2000/svg" viewBox="20 20 321 321">
<g fill="#000">
<path d="m251.833,120.001c0-6.956 0-13.911 0-20.866 0-6.449-10-6.449-10,0 0,6.956 0,13.911 0,20.866 0,6.449 10,6.449 10,0z"/>
<path d="m288.759,113.632c-28.202-14.46-56.405-28.92-84.608-43.38-5.727-2.936-10.787,5.692-5.047,8.635 28.203,14.46 56.405,28.92 84.608,43.38 5.726,2.936 10.787-5.692 5.047-8.635z"/>
<path d="m136.833,150.984c6.2-1.85 12.492-3.471 18.851-4.672 8.5-1.605 15.959,.971 23.905,3.886 10.954,4.018 22.235,10.623 34.065,11.009 7.296,.238 15.346-3.587 21.991-6.186 4.038-1.579 8.011-3.305 12.074-4.823 7.977-2.98 15.38-5.382 23.906-3.886 6.361,1.116 12.664,2.827 18.851,4.672 1.858,.555 2.646-2.341 .797-2.893-6.2-1.85-12.491-3.471-18.851-4.673-7.98-1.507-14.637,.111-22.247,2.718-11.71,4.011-24.009,11.662-36.521,12.07-7.452,.243-15.945-3.972-22.727-6.689-4.586-1.838-9.129-3.741-13.794-5.38-7.143-2.51-13.599-4.118-21.125-2.915-6.746,1.079-13.432,2.918-19.974,4.87-1.848,.551-1.06,3.447 .799,2.892z"/>
<path d="m144.425,159.588c6.024-2.177 12.932-4.321 19.379-3.757 6.911,.605 13.977,3.766 20.365,6.296 9.375,3.713 19.262,8.915 29.485,9.248 6.396,.208 13.369-2.933 19.231-5.123 3.208-1.198 6.352-2.547 9.524-3.832 6.354-2.575 12.89-5.027 19.629-6.363 6.764-1.341 14.501,1.237 20.846,3.53 1.823,.659 2.602-2.24 .797-2.893-5.921-2.14-12.23-3.792-18.546-3.964-6.732-.185-14.043,3.152-20.203,5.492-9.988,3.794-20.465,9.8-31.278,10.152-6.682,.218-14.219-3.385-20.328-5.741-3.364-1.297-6.668-2.743-10.026-4.056-6.488-2.538-13.35-5.21-20.343-5.822-6.329-.554-13.449,1.813-19.33,3.939-1.805,.654-1.026,3.553 .798,2.894z"/>
<path d="m144.542,139.316c6.024-2.177 12.932-4.322 19.379-3.758 6.912,.605 13.978,3.767 20.365,6.297 9.375,3.713 19.262,8.914 29.485,9.248 6.396,.208 13.369-2.933 19.231-5.122 3.207-1.198 6.351-2.547 9.523-3.832 6.354-2.575 12.89-5.027 19.63-6.363 6.764-1.341 14.502,1.238 20.846,3.531 1.823,.659 2.602-2.24 .797-2.893-5.921-2.141-12.23-3.792-18.546-3.965-6.732-.185-14.043,3.152-20.203,5.492-9.988,3.794-20.465,9.799-31.278,10.152-6.682,.218-14.219-3.384-20.328-5.74-3.364-1.297-6.668-2.743-10.026-4.056-6.488-2.537-13.35-5.21-20.343-5.822-6.329-.554-13.449,1.814-19.33,3.939-1.805,.652-1.026,3.552 .798,2.892z"/>
<path d="m77.519,107.922c18.877-9.678 37.754-19.357 56.631-29.035 5.74-2.943 .68-11.571-5.047-8.635-18.877,9.678-37.754,19.357-56.631,29.035-5.741,2.943-.68,11.571 5.047,8.635z"/>
<path d="m201.752,217.648h91.29v18.394h-91.29z" transform="matrix(.7071 -.7071 .7071 .7071 -87.9426 241.3726)"/>
</g>
<path fill="none"  stroke="#000" stroke-width="10" d="m287.088,223.701c0,30.931-19.575,63.734-40.543,63.734s-40.543-32.804-40.543-63.734c0-11.279-.318-21.778 3.57-30.568 0,0 23.65-7.914 36.973-7.914 13.305,0 36.943,7.85 36.943,7.85 3.907,8.802 3.6,19.326 3.6,30.632z"/>
<g fill="#000">
<path d="m135.702,270.161c3.076,0 5.438,.542 7.085,1.622 1.647,1.082 2.471,2.854 2.471,5.314 0,2.48-.834,4.271-2.5,5.373-1.667,1.102-4.049,1.652-7.145,1.652h-1.458v6.906h-4.645v-20.332c1.012-.198 2.084-.338 3.215-.418 1.131-.077 2.124-.117 2.977-.117zm.298,3.959c-.338,0-.67,.011-.997,.03-.328,.02-.61,.04-.848,.06v5.953h1.458c1.607,0 2.817-.218 3.632-.655 .813-.436 1.22-1.249 1.22-2.441 0-.574-.104-1.051-.313-1.428s-.506-.68-.893-.908c-.387-.228-.858-.387-1.414-.477-.555-.09-1.171-.134-1.845-.134z"/>
<path d="m153.415,274.954c1.31,0 2.401,.149 3.275,.446 .873,.297 1.572,.725 2.098,1.28s.898,1.23 1.117,2.024c.218,.793 .328,1.678 .328,2.65v9.228c-.636,.14-1.518,.303-2.649,.491-1.131,.188-2.501,.283-4.108,.283-1.013,0-1.93-.09-2.754-.269s-1.533-.472-2.128-.878c-.596-.406-1.052-.938-1.37-1.592-.317-.656-.476-1.459-.476-2.412 0-.912 .183-1.687 .55-2.322 .367-.635 .859-1.141 1.474-1.519 .615-.376 1.32-.649 2.113-.818 .794-.168 1.617-.253 2.471-.253 .575,0 1.086,.025 1.533,.074 .447,.051 .808,.115 1.086,.193v-.416c0-.754-.228-1.359-.685-1.816s-1.25-.685-2.381-.685c-.754,0-1.499,.055-2.233,.164-.734,.108-1.369,.263-1.905,.461l-.566-3.573c.257-.078 .58-.162 .968-.252 .387-.09 .809-.169 1.265-.238 .457-.068 .938-.129 1.444-.179 .506-.047 1.017-.072 1.533-.072zm.357,12.98c.436,0 .853-.01 1.25-.029 .396-.02 .714-.05 .952-.09v-3.364c-.178-.04-.447-.079-.803-.118-.357-.04-.685-.061-.983-.061-.417,0-.809,.025-1.176,.074-.368,.051-.689,.145-.968,.283-.278,.14-.496,.327-.655,.566-.159,.238-.238,.535-.238,.893 0,.694 .233,1.176 .7,1.443 .468,.268 1.107,.403 1.921,.403z"/>
<path d="m120.725,218.723c-16.53,16.53-33.06,33.06-49.589,49.59-1.369,1.369 .752,3.49 2.121,2.121 16.53-16.53 33.06-33.06 49.589-49.59 1.369-1.369-.752-3.49-2.121-2.121z"/>
<path d="m120.481,216.139c-5.305,5.454-15.069,16.971-8.558,24.748 2.901,3.466 7.827-1.514 4.95-4.949-.783-.936 .931-4.354 1.397-5.315 1.746-3.6 4.393-6.688 7.161-9.534 3.148-3.237-1.798-8.191-4.95-4.95z"/>
<path d="m120.481,216.139c-2.625,2.553-5.388,4.787-8.553,6.635-1.066,.622-5.174,2.861-6.295,1.923-3.436-2.877-8.415,2.048-4.95,4.949 7.777,6.512 19.294-3.254 24.749-8.558 3.239-3.151-1.715-8.097-4.951-4.949z"/>
<path  stroke="#000" d="m89.527,256.607c-1.1,1.101-2.883,1.101-3.982,0l-.584-.583c-1.1-1.1-1.1-2.883 0-3.983l.759-.758c1.101-1.102 2.883-1.102 3.983,0l.583,.583c1.1,1.1 1.1,2.882 0,3.983l-.759,.758z"/>
<path d="m126.422,195.627c-2.442,3.486-4.885,6.975-7.327,10.461-.483,.695 .692,1.541 1.196,.859 2.52-3.431 5.039-6.862 7.558-10.293 .511-.689-.937-1.73-1.427-1.027z"/>
<path d="m125.774,195.248c-2.442,3.487-4.884,6.975-7.327,10.461-.992,1.416 1.221,2.922 2.374,1.769 1.394-1.394 2.477-3.364 3.645-4.955 1.344-1.83 2.688-3.66 4.031-5.489 1.041-1.417-1.254-2.886-2.453-2.054-.789,.547-.04,1.848 .757,1.295-.034,.229-.068,.458-.103,.688-.336,.457-.672,.915-1.008,1.372-.672,.915-1.344,1.83-2.015,2.745-1.176,1.602-2.352,3.202-3.527,4.804 2.377-3.238 4.617-6.587 6.922-9.877 .556-.796-.745-1.544-1.296-.759z"/>
<path d="m136.295,203.832c-1.95,1.994-3.9,3.988-5.85,5.981-.59,.607 .501,1.698 1.109,1.108 1.994-1.95 3.987-3.899 5.981-5.85 .616-.596-.643-1.854-1.24-1.239z"/>
<path d="m135.765,203.302c-1.17,1.196-2.34,2.393-3.51,3.589-.759,.776-2.373,1.861-2.67,2.94-.373,1.355 1.416,2.682 2.5,1.621 1.196-1.17 2.393-2.34 3.589-3.51 .531-.52 1.063-1.04 1.595-1.56 .323-.316 1.043-.795 1.122-1.308 .201-1.314-1.186-2.748-2.473-1.891-.801,.533-.051,1.833 .757,1.295 .505-.337-.59,.964-.466,.843-.532,.52-1.063,1.04-1.595,1.56-1.063,1.04-2.126,2.08-3.19,3.12 1.741-1.702 3.607-3.803 5.403-5.64 .674-.69-.385-1.752-1.062-1.059z"/>
<path d="m131.528,199.532c-1.781,2.146-3.562,4.292-5.343,6.438-.538,.654 .638,1.652 1.195,1.016 1.828-2.105 3.657-4.211 5.484-6.316 .566-.647-.791-1.8-1.336-1.138z"/>
<path d="m130.998,199.002c-.95,1.145-1.9,2.289-2.85,3.434-.882,1.063-2.129,2.172-2.736,3.414-.662,1.354 1.487,2.832 2.499,1.667 .975-1.123 1.95-2.246 2.925-3.369 .902-1.038 2.159-2.11 2.797-3.33 .71-1.355-1.363-2.776-2.484-1.933-.763,.574-.017,1.878 .757,1.295 .021,.127 .042,.254 .063,.381-.244,.281-.487,.562-.731,.843-.487,.562-.975,1.122-1.462,1.684-.854,.982-1.707,1.966-2.56,2.948 .332-.383 1.378-1.799 1.993-2.539 .95-1.145 1.9-2.289 2.85-3.434 .612-.739-.443-1.806-1.061-1.061z"/>
<path d="m144.713,213.518c-3.431,2.52-6.862,5.039-10.293,7.559-.681,.504 .164,1.679 .86,1.196 3.487-2.442 6.974-4.885 10.46-7.327 .703-.49-.338-1.938-1.027-1.428z"/>
<path d="m144.334,212.87c-1.83,1.344-3.66,2.688-5.49,4.031-1.591,1.168-3.562,2.251-4.956,3.645-1.153,1.152 .354,3.365 1.769,2.374 1.86-1.303 3.719-2.605 5.579-3.907 1.599-1.12 3.655-2.159 5.033-3.537 1.22-1.22-.271-3.11-1.756-2.682-.928,.269-.533,1.716 .398,1.447-.083,.182-.166,.363-.248,.545-.465,.326-.93,.651-1.395,.977-.93,.651-1.859,1.303-2.79,1.954-1.627,1.14-3.254,2.28-4.881,3.42 2.75-1.927 6.407-4.705 9.493-6.972 .772-.566 .025-1.868-.756-1.295z"/>
<path d="m148.316,218.855c-2.376,1.461-4.752,2.923-7.127,4.385-.72,.445 .08,1.774 .813,1.351 2.408-1.409 4.815-2.817 7.223-4.226 .742-.429-.18-1.963-.909-1.51z"/>
<path d="m147.938,218.208c-1.358,.835-2.715,1.67-4.073,2.505-1,.615-2.913,1.309-3.524,2.353-.708,1.207 .765,2.92 2.041,2.173 1.376-.805 2.751-1.61 4.127-2.415 .989-.578 2.955-1.239 3.553-2.26 .718-1.226-.632-2.864-1.944-2.432-.914,.302-.522,1.751 .398,1.447-.062,.146-.123,.293-.185,.44-.344,.201-.688,.402-1.032,.604-.516,.302-1.032,.604-1.548,.905-1.204,.704-2.407,1.408-3.611,2.113 2.031-1.188 4.393-2.809 6.555-4.139 .822-.505 .069-1.803-.757-1.294z"/>
<path d="m158.108,242.926c-2.722,.609-5.444,1.218-8.167,1.827-.826,.188-.496,1.751 .334,1.589 2.735-.545 5.472-1.092 8.207-1.638 .844-.165 .463-1.97-.374-1.778z"/>
<path d="m157.909,242.202c-1.675,.375-3.351,.75-5.026,1.125-1.019,.228-2.955,.249-3.729,1.024-1.003,1.003-.151,3.007 1.321,2.714 1.684-.336 3.367-.672 5.051-1.008 .998-.199 2.967-.177 3.724-.934 1.014-1.015 .268-2.921-1.141-2.948-.968-.02-.966,1.481 0,1.5-.152,.144-.304,.287-.457,.431-.421,.084-.842,.169-1.263,.253-.631,.126-1.263,.252-1.894,.378-1.263,.252-2.525,.504-3.788,.756 2.394-.478 5.095-1.283 7.601-1.844 .943-.211 .543-1.658-.399-1.447z"/>
<path d="m156.402,236.549c-4.063,1.273-8.126,2.549-12.19,3.822-.807,.256-.38,1.674 .435,1.442 4.091-1.181 8.182-2.362 12.273-3.544 .826-.234 .3-1.981-.518-1.72z"/>
<path d="m156.203,235.825c-2.188,.687-4.376,1.372-6.564,2.059-1.699,.533-4.563,.857-5.957,1.957-1.147,.905-.475,3.169 1.164,2.696 2.203-.636 4.406-1.272 6.609-1.908 1.837-.53 4.61-.796 6.149-1.938 1.274-.947 .063-2.823-1.202-2.892-.967-.053-.962,1.447 0,1.5-.208,.174-.417,.347-.626,.521-.629,.182-1.259,.363-1.888,.545-.944,.272-1.888,.546-2.832,.818-1.888,.545-3.776,1.09-5.665,1.635 3.606-1.041 7.5-2.382 11.21-3.545 .92-.29 .527-1.738-.398-1.448z"/>
<path d="m140.698,208.502c-2.106,1.828-4.211,3.656-6.317,5.485-.637,.558 .362,1.733 1.016,1.195 2.146-1.781 4.292-3.562 6.438-5.344 .662-.543-.492-1.9-1.137-1.336z"/>
<path d="m140.167,207.972c-1.123,.975-2.246,1.95-3.369,2.925-1.057,.918-2.419,1.803-3.231,2.946-.918,1.292 1.239,2.8 2.36,1.87 1.145-.95 2.289-1.899 3.434-2.85 1.073-.89 2.438-1.74 3.278-2.854 .975-1.293-1.18-2.752-2.319-2.155-.857,.448-.099,1.743 .757,1.295-.067,.172-.134,.344-.201,.516-.286,.237-.572,.475-.858,.713-.572,.475-1.145,.95-1.717,1.425-1.001,.831-2.003,1.662-3.004,2.493 1.985-1.647 3.949-3.542 5.933-5.264 .73-.635-.336-1.691-1.063-1.06z"/>
<path d="m151.48,224.488c-2.487,1.262-4.974,2.524-7.462,3.787-.754,.385-.063,1.781 .702,1.419 2.516-1.206 5.031-2.411 7.547-3.617 .775-.369-.023-1.979-.787-1.589z"/>
<path d="m151.102,223.841c-1.531,.776-3.062,1.554-4.592,2.33-.925,.47-2.807,.972-3.357,1.912-.72,1.229 .6,2.904 1.946,2.259 1.548-.742 3.096-1.483 4.645-2.226 .803-.385 2.993-.94 3.374-1.825 .544-1.263-.344-2.882-1.836-2.526-.941,.225-.542,1.671 .398,1.447-.124,.165-.248,.33-.372,.496-.387,.186-.774,.371-1.161,.557-.581,.278-1.161,.557-1.742,.834-1.161,.557-2.322,1.113-3.483,1.67 2.271-1.089 4.63-2.462 6.937-3.633 .862-.438 .103-1.732-.757-1.295z"/>
<path d="m154.184,230.395c-2.583,1.053-5.167,2.105-7.75,3.159-.783,.322-.207,1.78 .586,1.481 2.607-.994 5.212-1.988 7.819-2.982 .804-.303 .139-1.987-.655-1.658z"/>
<path d="m153.985,229.671c-1.59,.648-3.18,1.296-4.769,1.944-1.061,.433-2.717,.749-3.544,1.576-.977,.978 .176,3.09 1.547,2.567 1.604-.612 3.208-1.224 4.812-1.836 .901-.344 3.174-.701 3.671-1.639 .676-1.275-.253-2.836-1.717-2.612-.954,.146-.547,1.592 .398,1.447 .406-.063-1.087,.724-.946,.67-.602,.229-1.203,.459-1.805,.688-1.403,.535-2.807,1.07-4.21,1.606-.696,.265 1.101-.576 1-.535 .596-.243 1.192-.486 1.789-.729 1.391-.566 2.782-1.134 4.173-1.7 .883-.36 .497-1.812-.399-1.447z"/>
<path d="m159.28,249.502c-2.764,.375-5.528,.752-8.292,1.127-.838,.117-.641,1.725 .201,1.635 2.772-.312 5.543-.623 8.315-.934 .852-.094 .626-1.949-.224-1.828z"/>
<path d="m159.081,248.778c-1.701,.231-3.402,.463-5.103,.694-.892,.121-3.164-.018-3.787,.733-1.204,1.452-.032,2.923 1.637,2.735 1.706-.191 3.412-.383 5.117-.574 .818-.092 2.718,.1 3.334-.598 .947-1.073 .498-2.857-.999-3.018-.961-.103-.952,1.398 0,1.5 .485,.052-1.218,.49-1.056,.472-.64,.071-1.279,.144-1.919,.215-1.493,.168-2.985,.336-4.478,.503-1.684,.189 .424-.233 .635-.263 .851-.115 1.701-.231 2.552-.347 1.488-.202 2.977-.405 4.465-.606 .955-.128 .547-1.574-.398-1.446z"/>
<path d="m159.918,263.151c-4.253-.164-8.506-.328-12.76-.493-.846-.029-.925,1.541-.082,1.599 4.248,.269 8.496,.536 12.744,.804 .858,.054 .957-1.882 .098-1.91z"/>
<path d="m159.918,262.401c-2.29-.088-4.58-.177-6.871-.266-1.959-.075-4.56-.646-6.447-.097-1.456,.424-.953,2.878 .476,2.968 2.287,.145 4.575,.289 6.862,.434 1.929,.121 4.533,.765 6.401,.256 1.569-.427 .959-2.821-.223-3.269-.906-.343-1.294,1.108-.398,1.447-.293,.124-.585,.249-.878,.374-.653-.041-1.307-.083-1.96-.124-.98-.062-1.961-.123-2.941-.185-1.961-.124-3.921-.248-5.882-.372 3.791,.24 7.945,.182 11.861,.333 .968,.038 .964-1.462 0-1.499z"/>
<path d="m159.892,256.252c-2.786,.137-5.572,.273-8.357,.41-.845,.045-.786,1.689 .06,1.673 2.788-.071 5.576-.142 8.364-.212 .857-.019 .79-1.919-.067-1.871z"/>
<path d="m159.892,255.502c-1.714,.084-3.429,.168-5.143,.252-1.041,.052-3.149-.3-3.993,.447-.939,.832-.667,2.922 .839,2.884 1.716-.044 3.432-.087 5.147-.131 1.047-.026 3.114,.372 3.977-.359 .975-.825 .752-2.828-.627-3.066-.946-.163-1.351,1.283-.398,1.447 .763,.131-1.177,.434-1.021,.43-.644,.017-1.287,.032-1.93,.049-1.501,.038-3.002,.076-4.503,.114-.021-.063-.041-.125-.061-.188 .428-.021 .857-.042 1.286-.063 .643-.031 1.286-.063 1.928-.095 1.5-.073 3-.147 4.5-.221 .961-.047 .966-1.548-.001-1.5z"/>
<path d="m76.308,181.546c.267,4.248 .534,8.496 .801,12.744 .059,.844 1.629,.765 1.599-.082-.164-4.253-.328-8.507-.492-12.76-.028-.858-1.964-.759-1.908,.098z"/>
<path d="m75.558,181.546c.144,2.287 .288,4.575 .431,6.862 .122,1.938-.196,4.626 .538,6.427 .547,1.342 2.99,.874 2.932-.627-.088-2.29-.177-4.58-.265-6.871-.074-1.921 .311-4.599-.371-6.398-.557-1.469-2.889-.883-3.237,.408-.253,.935 1.194,1.331 1.446,.398 .158,.229 .315,.456 .473,.685 .025,.654 .05,1.309 .076,1.963 .038,.981 .076,1.963 .113,2.944 .076,1.964 .151,3.927 .227,5.89-.132-3.438-.623-7.871-.862-11.681-.061-.961-1.561-.966-1.501,0z"/>
<path d="m83.244,181.41c-.071,2.787-.142,5.575-.212,8.363-.017,.846 1.629,.904 1.673,.06 .137-2.786 .274-5.571 .41-8.357 .048-.858-1.852-.925-1.871-.066z"/>
<path d="m82.494,181.41c-.043,1.716-.087,3.431-.13,5.146-.029,1.126-.516,3.079 .22,4.041 .798,1.044 2.802,.641 2.871-.765 .084-1.714 .168-3.429 .252-5.143 .055-1.116 .584-3.041-.119-4.012-.778-1.074-2.744-.747-3.067,.532-.238,.938 1.209,1.336 1.446,.398 .164-.645 .331,1.243 .335,1.152-.031,.643-.063,1.285-.095,1.929-.073,1.5-.147,3-.221,4.5-.063-.021-.125-.04-.188-.061 .011-.429 .022-.857 .033-1.287 .016-.643 .033-1.286 .049-1.93 .038-1.501 .076-3.002 .114-4.503 .025-.965-1.475-.962-1.5,.003z"/>
<path d="m109.314,186.527c-.994,2.607-1.988,5.213-2.982,7.82-.298,.793 1.159,1.369 1.482,.586 1.053-2.584 2.105-5.168 3.159-7.751 .327-.792-1.356-1.457-1.659-.655z"/>
<path d="m108.591,186.328c-.611,1.604-1.223,3.208-1.835,4.813-.325,.851-1.535,2.765-1.182,3.691 .482,1.268 2.358,1.787 2.963,.301 .648-1.59 1.296-3.18 1.944-4.771 .347-.851 1.577-2.7 1.254-3.637-.457-1.326-2.226-1.806-3.069-.577-.549,.801 .751,1.55 1.295,.758 .026,.009 .052,.018 .077,.026 .376,.018 .366,.232-.032,.646-.243,.597-.486,1.192-.729,1.789-.567,1.391-1.134,2.782-1.701,4.174-.575,1.411-.142,.011-.063-.198 .306-.802 .612-1.604 .917-2.406 .535-1.403 1.07-2.807 1.605-4.211 .347-.905-1.103-1.292-1.444-.398z"/>
<path d="m103.097,184.447c-1.181,4.091-2.362,8.182-3.543,12.273-.231,.814 1.186,1.241 1.442,.434 1.274-4.063 2.549-8.125 3.823-12.189 .261-.818-1.487-1.344-1.722-.518z"/>
<path d="m102.374,184.248c-.636,2.202-1.272,4.405-1.908,6.608-.54,1.869-1.789,4.353-1.625,6.3 .122,1.458 2.459,1.534 2.878,.197 .687-2.188 1.373-4.375 2.059-6.563 .575-1.835 1.875-4.28 1.771-6.206-.089-1.622-2.372-1.493-3.099-.517-.579,.777 .725,1.523 1.295,.758 .019,.292 .039,.585 .058,.877-.196,.625-.392,1.251-.588,1.876-.294,.938-.588,1.875-.882,2.813-.588,1.875-1.176,3.75-1.765,5.625 1.172-3.737 2.162-7.592 3.253-11.371 .268-.93-1.18-1.325-1.447-.397z"/>
<path d="m90.037,181.863c-.311,2.771-.622,5.544-.933,8.316-.09,.841 1.517,1.037 1.634,.2 .375-2.765 .752-5.528 1.128-8.292 .12-.85-1.736-1.077-1.829-.224z"/>
<path d="m89.287,181.863c-.191,1.706-.383,3.412-.574,5.117-.1,.892-.797,3.073-.217,3.862 1.107,1.506 2.825,.77 3.052-.901 .231-1.701 .462-3.402 .694-5.104 .11-.81 .766-2.625 .244-3.389-.799-1.167-2.646-1.197-3.171,.215-.338,.908 1.112,1.297 1.446,.398 .182-.487 .166,1.419 .208,1.102-.086,.638-.173,1.275-.26,1.913-.203,1.488-.405,2.977-.607,4.466-.228,1.675-.13-.402-.104-.643 .096-.854 .191-1.706 .287-2.56 .167-1.492 .335-2.985 .502-4.478 .108-.958-1.393-.948-1.5,.002z"/>
<path d="m96.663,182.885c-.545,2.735-1.091,5.471-1.637,8.207-.162,.83 1.401,1.16 1.589,.334 .609-2.722 1.218-5.444 1.827-8.167 .191-.837-1.613-1.217-1.779-.374z"/>
<path d="m95.939,182.686c-.336,1.684-.671,3.366-1.007,5.05-.217,1.088-.919,2.738-.616,3.843 .365,1.326 2.699,1.489 3.021,.047 .375-1.675 .75-3.351 1.125-5.025 .236-1.057 .994-2.721 .697-3.801-.373-1.354-2.562-1.536-3.145-.293-.408,.87 .884,1.633 1.295,.758 .089,.141 .179,.282 .268,.424-.093,.419-.187,.838-.281,1.257-.141,.628-.281,1.257-.421,1.885-.281,1.257-.563,2.513-.843,3.77-.115,.512 .105-1.256 .094-1.202 .126-.631 .252-1.262 .378-1.894 .294-1.473 .588-2.946 .881-4.419 .189-.946-1.257-1.349-1.446-.4z"/>
<path d="m115.291,189.101c-1.206,2.516-2.412,5.03-3.617,7.547-.363,.765 1.033,1.456 1.419,.702 1.262-2.488 2.524-4.976 3.786-7.463 .391-.764-1.22-1.561-1.588-.786z"/>
<path d="m114.643,188.722c-.742,1.548-1.484,3.096-2.227,4.645-.483,1.008-1.552,2.411-1.552,3.562 0,1.378 2.21,2.113 2.876,.801 .776-1.531 1.553-3.063 2.33-4.593 .494-.974 1.619-2.376 1.619-3.503 0-1.4-2.065-2.125-2.929-1.063-.604,.743 .45,1.812 1.061,1.061 .04,.15 .08,.301 .119,.451-.194,.383-.388,.766-.583,1.148-.291,.573-.583,1.147-.874,1.722-.583,1.148-1.165,2.297-1.748,3.444-.266,.525 .477-1.233 .419-1.112 .278-.581 .557-1.161 .835-1.742 .649-1.354 1.298-2.708 1.948-4.063 .417-.869-.876-1.63-1.294-.758z"/>
<path d="m121.001,192.143c-1.408,2.406-2.816,4.814-4.224,7.223-.424,.732 .904,1.533 1.35,.813 1.462-2.375 2.924-4.75 4.385-7.127 .453-.73-1.08-1.652-1.511-.909z"/>
<path d="m120.354,191.764c-.805,1.376-1.609,2.751-2.414,4.127-.58,.991-1.995,2.559-1.995,3.749 0,1.396 2.051,2.181 2.83,.917 .836-1.357 1.671-2.715 2.506-4.072 .587-.954 2.063-2.518 2.063-3.681 0-1.418-1.91-2.198-2.873-1.191-.668,.698 .391,1.761 1.061,1.061 .007,.17 .014,.339 .02,.509-.208,.34-.417,.679-.626,1.019-.313,.509-.626,1.019-.94,1.527-.73,1.188-1.461,2.375-2.193,3.563 1.282-2.081 2.561-4.556 3.856-6.769 .489-.838-.808-1.593-1.295-.759z"/>
</g>
</svg>
