<svg xmlns="http://www.w3.org/2000/svg" viewBox="20 20 321 321">
<g fill="none"  stroke="#000" stroke-width="10">
<path d="m172.317,238.911c-.382-1.425-1.542-2.355-2.591-2.073l-22.63,6.063c-1.048,.28-1.588,1.666-1.206,3.092l10.497,39.178c.383,1.426 1.543,2.355 2.593,2.074l22.63-6.063c1.047-.282 1.588-1.667 1.205-3.093l-10.498-39.178z"/>
<path d="m173.405,212.75c-1.043,1.044-1.269,2.514-.501,3.281l16.566,16.566c.767,.768 2.237,.544 3.282-.5l28.679-28.68c1.044-1.045 1.268-2.514 .5-3.282l-16.566-16.565c-.767-.768-2.237-.543-3.28,.5l-28.68,28.68z"/>
<path d="m150.206,224.984c1.427,.383 2.812-.158 3.092-1.207l6.064-22.63c.28-1.048-.648-2.208-2.074-2.591l-39.177-10.498c-1.427-.381-2.811,.16-3.092,1.208l-6.063,22.629c-.281,1.05 .647,2.21 2.074,2.593l39.176,10.496z"/>
</g>
<g fill="#000">
<path d="m167.913,228.712c.431-1.606 .861-3.214 1.292-4.82-2.786,.735-5.571,1.471-8.357,2.206 1.176,1.177 2.353,2.354 3.528,3.529 .735-2.785 1.471-5.571 2.207-8.356-1.607,.431-3.214,.86-4.82,1.291-2.631,.705-4.211,3.537-3.492,6.15 .726,2.64 3.52,4.197 6.15,3.492 1.607-.431 3.214-.86 4.82-1.291 3.643-.976 4.853-5.71 2.207-8.356-1.176-1.177-2.353-2.354-3.528-3.529-2.646-2.647-7.381-1.436-8.357,2.206-.431,1.606-.861,3.214-1.292,4.82-.705,2.631 .853,5.425 3.492,6.15 2.613,.719 5.445-.861 6.15-3.492z"/>
<path d="m79.373,161.584c15.77-35.481 45.484-61.806 82.354-73.811 39.982-13.018 84.019-7.971 122.167,8.59 5.852,2.541 10.949-6.073 5.047-8.635-40.863-17.74-86.938-23.159-129.873-9.598-39.156,12.367-71.634,40.84-88.331,78.406-2.593,5.839 6.021,10.932 8.636,5.048z"/>
<path d="m78.538,162.629c26.971-26.788 63.205-41.83 101.209-42.087 38.527-.261 75.737,15.62 103.048,42.59 4.59,4.533 11.664-2.535 7.07-7.071-29.012-28.651-67.952-45.045-108.745-45.515-40.924-.472-80.707,16.263-109.654,45.012-4.58,4.548 2.493,11.618 7.072,7.071z"/>
<path d="m281.418,92.942c0,22.218 0,44.436 0,66.654 0,6.449 10,6.449 10,0 0-22.218 0-44.436 0-66.654 0-6.449-10-6.449-10-0z"/>
<path d="m231.453,180.24c.813-.336 1.659-.72 2.541-1.155 .882-.434 1.743-.91 2.583-1.428 .84-.518 1.645-1.063 2.415-1.638 .77-.574 1.463-1.183 2.079-1.827h4.368v29.106h-6.258v-20.958c-.84,.561-1.779,1.07-2.814,1.533-1.036,.462-2.045,.861-3.023,1.197l-1.891-4.83z"/>
<path d="m268.797,188.682c0,4.9-.932,8.66-2.793,11.277-1.863,2.618-4.432,3.927-7.707,3.927-3.276,0-5.846-1.309-7.707-3.927-1.863-2.617-2.793-6.377-2.793-11.277 0-2.436 .244-4.592 .734-6.468 .49-1.875 1.197-3.458 2.121-4.746 .924-1.288 2.03-2.268 3.318-2.94 1.287-.672 2.73-1.008 4.326-1.008 3.275,0 5.844,1.309 7.707,3.927 1.862,2.618 2.794,6.364 2.794,11.235zm-6.385,0c0-1.455-.07-2.778-.209-3.969-.141-1.189-.365-2.219-.672-3.087-.309-.868-.729-1.54-1.261-2.016-.532-.476-1.19-.714-1.974-.714-.785,0-1.436,.238-1.953,.714-.519,.477-.938,1.148-1.26,2.016-.322,.868-.554,1.897-.693,3.087-.141,1.19-.21,2.514-.21,3.969 0,1.457 .069,2.787 .21,3.99 .14,1.204 .371,2.24 .693,3.107 .321,.869 .741,1.541 1.26,2.017 .518,.477 1.168,.714 1.953,.714 .783,0 1.441-.237 1.974-.714 .532-.476 .952-1.147 1.261-2.017 .307-.867 .531-1.903 .672-3.107 .139-1.203 .209-2.533 .209-3.99z"/>
<path d="m291.652,188.682c0,4.9-.932,8.66-2.793,11.277-1.862,2.618-4.431,3.927-7.707,3.927-3.275,0-5.845-1.309-7.707-3.927-1.862-2.617-2.793-6.377-2.793-11.277 0-2.436 .245-4.592 .735-6.468 .489-1.875 1.196-3.458 2.121-4.746 .924-1.288 2.03-2.268 3.317-2.94 1.288-.672 2.73-1.008 4.326-1.008 3.276,0 5.845,1.309 7.707,3.927 1.863,2.618 2.794,6.364 2.794,11.235zm-6.383,0c0-1.455-.07-2.778-.21-3.969-.141-1.189-.364-2.219-.672-3.087-.309-.868-.729-1.54-1.26-2.016-.533-.476-1.191-.714-1.975-.714-.784,0-1.436,.238-1.953,.714-.518,.477-.938,1.148-1.26,2.016-.322,.868-.553,1.897-.693,3.087-.141,1.19-.209,2.514-.209,3.969 0,1.457 .068,2.787 .209,3.99 .141,1.204 .371,2.24 .693,3.107 .322,.869 .742,1.541 1.26,2.017 .518,.477 1.169,.714 1.953,.714 .783,0 1.441-.237 1.975-.714 .531-.476 .951-1.147 1.26-2.017 .308-.867 .531-1.903 .672-3.107 .139-1.203 .21-2.533 .21-3.99z"/>
<path d="m90.821,187.888c0,4.9-.932,8.659-2.793,11.277-1.862,2.618-4.431,3.927-7.707,3.927-3.276,0-5.845-1.309-7.707-3.927-1.863-2.618-2.793-6.377-2.793-11.277 0-2.436 .245-4.592 .735-6.468 .489-1.875 1.197-3.458 2.121-4.746 .924-1.288 2.03-2.268 3.318-2.94 1.288-.672 2.73-1.008 4.326-1.008 3.276,0 5.844,1.309 7.707,3.927 1.862,2.618 2.793,6.363 2.793,11.235zm-6.384,0c0-1.456-.07-2.778-.21-3.969-.141-1.19-.364-2.219-.672-3.087-.309-.868-.729-1.54-1.26-2.016-.532-.476-1.19-.714-1.974-.714-.785,0-1.436,.238-1.953,.714-.519,.477-.938,1.148-1.26,2.016-.322,.868-.553,1.896-.693,3.087-.141,1.19-.21,2.513-.21,3.969s.069,2.786 .21,3.99c.14,1.204 .371,2.24 .693,3.108 .322,.867 .742,1.54 1.26,2.016 .518,.477 1.168,.714 1.953,.714 .783,0 1.441-.237 1.974-.714 .532-.476 .952-1.148 1.26-2.016 .308-.868 .531-1.904 .672-3.108 .14-1.204 .21-2.534 .21-3.99z"/>
</g>
</svg>
