<svg xmlns="http://www.w3.org/2000/svg" viewBox="20 20 321 321">
<g fill="#000">
	<path d="M97.972,268.608c-22.252-20.521-24.574-55.051-4.44-77.938c4.241-4.82-2.804-11.921-7.071-7.07 c-23.601,26.828-21.983,67.712,4.44,92.079C95.632,280.042,102.722,272.988,97.972,268.608L97.972,268.608z"/>
	<path d="M175.718,263.998c-20.521,22.252-55.05,24.574-77.937,4.44c-4.821-4.241-11.922,2.804-7.071,7.07 c26.828,23.603,67.711,21.983,92.079-4.44C187.152,266.337,180.099,259.248,175.718,263.998L175.718,263.998z"/>
	<path d="M176.73,263.216c-20.033,9.25-48.476,2.209-64.578-11.917c-4.427-3.884-10.176,0.916-7.853,6.059 c0.017,0.037,0.034,0.074,0.05,0.111c2.618-2.02,5.235-4.039,7.853-6.059c-16.157-14.994-22.614-41.876-17.436-63.008
		c1.535-6.263-8.108-8.919-9.643-2.658c-5.999,24.478,1.246,55.325,20.007,72.736c4.364,4.05,10.137-1.003,7.853-6.059 c-0.017-0.037-0.034-0.074-0.05-0.111c-2.618,2.02-5.235,4.039-7.853,6.059c19.772,17.346,52.302,24.745,76.696,13.481
		C187.627,269.149,182.543,260.532,176.73,263.216L176.73,263.216z"/>
	<path d="M97.629,81.32c0,0.744-0.603,1.347-1.347,1.347h-0.449c-0.744,0-1.347-0.603-1.347-1.347v-0.449 c0-0.744,0.603-1.347,1.347-1.347h0.449c0.744,0,1.347,0.603,1.347,1.347V81.32z"/>
	<path d="M96.129,81.32c0.006-0.093,0.049-0.103,0.1-0.166c-0.201,0.255-0.1,0.053-0.014,0.025 c0.142-0.045-0.292-0.012-0.382-0.012c0.091,0,0.106,0.052,0.167,0.1c-0.255-0.202-0.053-0.1-0.025-0.014
		c0.045,0.141,0.012-0.292,0.012-0.382c0,0.091-0.052,0.105-0.1,0.166c0.201-0.255,0.1-0.053,0.014-0.025 c-0.142,0.045,0.292,0.012,0.382,0.012c-0.091,0-0.106-0.052-0.167-0.1c0.255,0.202,0.053,0.1,0.025,0.014
		C96.096,80.797,96.129,81.23,96.129,81.32c0,1.935,3,1.935,3,0c0-0.662-0.082-1.227-0.363-1.839 c-0.431-0.94-1.521-1.396-2.484-1.457c-1.781-0.111-3.184,1.05-3.296,2.847c-0.11,1.78,1.05,3.184,2.847,3.296
		c1.781,0.111,3.184-1.05,3.296-2.847c0.051-0.817-0.721-1.5-1.5-1.5C96.773,79.82,96.18,80.504,96.129,81.32z"/>
	<g stroke="#000" stroke-miterlimit="10">
		<path d="M131.086,126.638c0,1.519-1.231,2.75-2.75,2.75l0,0 c-1.519,0-2.75-1.231-2.75-2.75l0,0c0-1.519,1.231-2.75,2.75-2.75l0,0C129.855,123.888,131.086,125.12,131.086,126.638 L131.086,126.638z"/>
		<path d="M76.613,80.292c0,1.596-1.294,2.89-2.89,2.89l0,0 c-1.596,0-2.89-1.294-2.89-2.89l0,0c0-1.596,1.294-2.89,2.89-2.89l0,0C75.319,77.401,76.613,78.695,76.613,80.292L76.613,80.292z"/>
		<path d="M116.904,95.982c0,1.125-0.912,2.037-2.037,2.037h-0.679 c-1.125,0-2.037-0.912-2.037-2.037v-0.679c0-1.126,0.912-2.037,2.037-2.037h0.679c1.125,0,2.037,0.911,2.037,2.037V95.982z"/>
		<path d="M177.006,90.638c0,1.519-1.231,2.75-2.75,2.75l0,0 c-1.519,0-2.75-1.231-2.75-2.75l0,0c0-1.519,1.231-2.75,2.75-2.75l0,0C175.774,87.888,177.006,89.12,177.006,90.638L177.006,90.638 z"/>
		<path d="M171.592,126.638c0,2.319-1.881,4.2-4.2,4.2l0,0 c-2.319,0-4.2-1.881-4.2-4.2l0,0c0-2.319,1.881-4.2,4.2-4.2l0,0C169.711,122.438,171.592,124.319,171.592,126.638L171.592,126.638z"/>
		<path d="M150.35,163.956c0,1.519-1.231,2.75-2.75,2.75l0,0 c-1.519,0-2.75-1.231-2.75-2.75l0,0c0-1.519,1.231-2.75,2.75-2.75l0,0C149.119,161.206,150.35,162.438,150.35,163.956 L150.35,163.956z"/>
		<path d="M94.583,147.732c0,0.834-0.675,1.51-1.508,1.51l0,0 c-0.833,0-1.508-0.676-1.508-1.51l0,0c0-0.834,0.675-1.51,1.508-1.51l0,0C93.907,146.222,94.583,146.898,94.583,147.732 L94.583,147.732z"/>
		<path d="M242.086,125.626c0,1.519-1.23,2.75-2.75,2.75l0,0 c-1.518,0-2.75-1.231-2.75-2.75l0,0c0-1.519,1.232-2.75,2.75-2.75l0,0C240.855,122.876,242.086,124.108,242.086,125.626 L242.086,125.626z"/>
		<path d="M256.613,126.667c0,1.596-1.294,2.89-2.891,2.89l0,0 c-1.596,0-2.89-1.294-2.89-2.89l0,0c0-1.596,1.294-2.89,2.89-2.89l0,0C255.319,123.777,256.613,125.071,256.613,126.667 L256.613,126.667z"/>
		<path d="M228.295,117.97c0,1.125-0.912,2.037-2.037,2.037h-0.68 c-1.125,0-2.037-0.912-2.037-2.037v-0.679c0-1.126,0.912-2.037,2.037-2.037h0.68c1.125,0,2.037,0.911,2.037,2.037V117.97z"/>
		<path d="M288.006,89.626c0,1.519-1.231,2.75-2.75,2.75l0,0 c-1.519,0-2.75-1.231-2.75-2.75l0,0c0-1.519,1.231-2.75,2.75-2.75l0,0C286.774,86.876,288.006,88.108,288.006,89.626 L288.006,89.626z"/>
		<path d="M282.592,125.626c0,2.319-1.881,4.2-4.2,4.2l0,0 c-2.319,0-4.2-1.881-4.2-4.2l0,0c0-2.319,1.881-4.2,4.2-4.2l0,0C280.711,121.426,282.592,123.307,282.592,125.626L282.592,125.626z"/>
	</g>
	<path d="M200.904,103.392c0,0.744-0.604,1.347-1.347,1.347h-0.449c-0.743,0-1.347-0.603-1.347-1.347v-0.449 c0-0.744,0.604-1.347,1.347-1.347h0.449c0.743,0,1.347,0.603,1.347,1.347V103.392z"/>
	<path d="M199.404,103.392c0.006-0.092,0.049-0.103,0.1-0.166c-0.201,0.255-0.1,0.053-0.014,0.025 c0.142-0.045-0.292-0.012-0.382-0.012c0.091,0,0.105,0.052,0.167,0.1c-0.256-0.202-0.054-0.1-0.026-0.014
		c0.045,0.141,0.013-0.292,0.013-0.382c0,0.091-0.052,0.105-0.1,0.166c0.201-0.255,0.1-0.053,0.014-0.025 c-0.142,0.045,0.292,0.012,0.382,0.012c-0.091,0-0.105-0.052-0.167-0.1c0.256,0.202,0.054,0.1,0.026,0.014
		C199.372,102.869,199.404,103.302,199.404,103.392c0,1.935,3,1.935,3,0c0-0.662-0.082-1.228-0.362-1.839 c-0.432-0.939-1.521-1.396-2.484-1.457c-1.78-0.111-3.185,1.05-3.296,2.847c-0.11,1.78,1.05,3.184,2.847,3.296
		c1.78,0.111,3.185-1.05,3.296-2.847c0.051-0.817-0.721-1.5-1.5-1.5C200.048,101.892,199.455,102.576,199.404,103.392z"/>
	<g stroke="#000" stroke-miterlimit="10">
		<path d="M239.833,177.667c0,1.519-1.231,2.75-2.75,2.75l0,0 c-1.519,0-2.75-1.231-2.75-2.75l0,0c0-1.519,1.231-2.75,2.75-2.75l0,0C238.602,174.917,239.833,176.148,239.833,177.667 L239.833,177.667z"/>
		<path d="M205.582,146.721c0,0.834-0.675,1.51-1.508,1.51l0,0 c-0.833,0-1.508-0.676-1.508-1.51l0,0c0-0.834,0.675-1.51,1.508-1.51l0,0C204.907,145.21,205.582,145.887,205.582,146.721 L205.582,146.721z"/>
		<path d="M231.833,235.473c1.519,0,2.75,1.23,2.75,2.75l0,0 c0,1.518-1.231,2.75-2.75,2.75l0,0c-1.519,0-2.75-1.232-2.75-2.75l0,0C229.083,236.703,230.314,235.473,231.833,235.473 L231.833,235.473z"/>
		<path d="M195.333,194.777c1.597,0,2.89,1.293,2.89,2.89l0,0 c0,1.597-1.293,2.89-2.89,2.89l0,0c-1.597,0-2.89-1.293-2.89-2.89l0,0C192.443,196.07,193.736,194.777,195.333,194.777 L195.333,194.777z"/>
		<path d="M213.833,230.414c1.126,0,2.037,0.912,2.037,2.037v0.679 c0,1.126-0.911,2.037-2.037,2.037h-0.679c-1.126,0-2.037-0.911-2.037-2.037v-0.679c0-1.125,0.911-2.037,2.037-2.037H213.833z"/>
		<path d="M203.504,167.965c1.519,0,2.75,1.231,2.75,2.75l0,0 c0,1.519-1.231,2.75-2.75,2.75l0,0c-1.519,0-2.75-1.231-2.75-2.75l0,0C200.754,169.197,201.985,167.965,203.504,167.965 L203.504,167.965z"/>
		<path d="M231.833,194.967c2.319,0,4.2,1.881,4.2,4.2l0,0 c0,2.319-1.881,4.2-4.2,4.2l0,0c-2.319,0-4.2-1.881-4.2-4.2l0,0C227.633,196.848,229.514,194.967,231.833,194.967L231.833,194.967z"/>
	</g>
	<path d="M210.662,219.611c0.744,0,1.348,0.604,1.348,1.348v0.449c0,0.743-0.604,1.346-1.348,1.346h-0.449 c-0.744,0-1.347-0.603-1.347-1.346v-0.449c0-0.744,0.603-1.348,1.347-1.348H210.662z"/>
	<path d="M210.662,221.111c-0.093-0.006-0.103-0.049-0.166-0.1c0.256,0.202,0.054,0.1,0.026,0.015 c-0.045-0.142-0.013,0.292-0.013,0.382c0-0.091,0.052-0.106,0.1-0.167c-0.202,0.256-0.1,0.053-0.015,0.025
		c0.142-0.045-0.292-0.013-0.382-0.013c0.091,0,0.105,0.052,0.166,0.1c-0.255-0.201-0.053-0.099-0.025-0.013 c0.046,0.142,0.013-0.292,0.013-0.382c0,0.091-0.052,0.105-0.1,0.166c0.201-0.255,0.1-0.054,0.014-0.026
		C210.139,221.144,210.572,221.111,210.662,221.111c1.935,0,1.935-3,0-3c-0.662,0-1.228,0.082-1.84,0.362 c-0.939,0.432-1.396,1.522-1.456,2.485c-0.11,1.78,1.05,3.184,2.847,3.295c1.78,0.11,3.186-1.049,3.297-2.846
		c0.11-1.781-1.051-3.186-2.848-3.297c-0.816-0.051-1.5,0.721-1.5,1.5C209.162,220.468,209.847,221.061,210.662,221.111z"/>
	<g stroke="#000" stroke-miterlimit="10">
		<path d="M276.822,194.621c1.518,0,2.75,1.231,2.75,2.75l0,0 c0,1.519-1.232,2.75-2.75,2.75l0,0c-1.52,0-2.75-1.231-2.75-2.75l0,0C274.072,195.853,275.303,194.621,276.822,194.621 L276.822,194.621z"/>
		<path d="M224.162,167.238c0.834,0,1.51,0.675,1.51,1.508l0,0 c0,0.833-0.676,1.508-1.51,1.508l0,0c-0.834,0-1.51-0.675-1.51-1.508l0,0C222.652,167.914,223.328,167.238,224.162,167.238 L224.162,167.238z"/>
		<path d="M277.583,169.667c0,1.519-1.231,2.75-2.75,2.75l0,0 c-1.519,0-2.75-1.231-2.75-2.75l0,0c0-1.519,1.231-2.75,2.75-2.75l0,0C276.352,166.917,277.583,168.149,277.583,169.667 L277.583,169.667z"/>
		<path d="M275.583,226.168c0,1.518-1.231,2.75-2.75,2.75l0,0 c-1.519,0-2.75-1.232-2.75-2.75l0,0c0-1.52,1.231-2.75,2.75-2.75l0,0C274.352,223.418,275.583,224.648,275.583,226.168 L275.583,226.168z"/>
		<path d="M249.924,106.667c0,2.319-1.881,4.2-4.201,4.2l0,0 c-2.318,0-4.199-1.881-4.199-4.2l0,0c0-2.319,1.881-4.2,4.199-4.2l0,0C248.043,102.467,249.924,104.348,249.924,106.667 L249.924,106.667z"/>
	</g>
</g>
</svg>
