<svg xmlns="http://www.w3.org/2000/svg" viewBox="20 20 321 321">
<g fill="none"  stroke="#000" stroke-width="10">
<path d="m196.834,127.992c0,9.084-7.363,16.449-16.449,16.449-9.084,0-16.449-7.364-16.449-16.449 0-3.474 1.22-6.311 2.303-9.353 1.93-5.413 8.535-24.488 14.146-24.488 5.624,0 12.522,19.84 14.167,24.52 1.067,3.035 2.282,5.86 2.282,9.321z"/>
<path d="m174.78,201.508c0,9.085-7.365,16.449-16.45,16.449-9.084,0-16.449-7.364-16.449-16.449 0-3.475 1.219-6.312 2.304-9.353 1.93-5.413 8.535-24.489 14.145-24.489 5.624,0 12.522,19.84 14.167,24.519 1.067,3.036 2.283,5.861 2.283,9.323z"/>
<path d="m125.892,225.797c0,2.369-2.291,4.29-5.115,4.29h-40.495c-2.825,0-5.115-1.921-5.115-4.29v-146.906c0-2.369 2.291-4.29 5.115-4.29h40.495c2.825,0 5.115,1.921 5.115,4.29v146.906z"/>
</g>
<g fill="#000">
<path d="m116.702,152.251c0,9.085-7.364,16.45-16.449,16.45-9.084,0-16.449-7.364-16.449-16.45 0-3.474 1.22-6.31 2.304-9.352 1.93-5.413 8.536-24.488 14.146-24.488 5.624,0 12.522,19.84 14.167,24.519 1.065,3.035 2.281,5.861 2.281,9.321z"/>
<path d="m288.933,275.434c-2.337,0-4.674,0-7.011,0-4.514,0-4.514,7 0,7 2.337,0 4.674,0 7.011,0 4.513,0 4.513-7 0-7z"/>
<path d="m262.412,272.434c-2.581,0-5.161,0-7.742,0-4.514,0-4.514,7 0,7 2.581,0 5.161,0 7.742,0 4.514,0 4.514-7 0-7z"/>
<path d="m265.848,261.434c-5.083,0-10.167,0-15.25,0-4.514,0-4.514,7 0,7 5.083,0 10.167,0 15.25,0 4.513,0 4.513-7 0-7z"/>
<path d="m240.613,284.33c-2,0-4,0-6,0-1.908,0-3.5,1.592-3.5,3.5s1.592,3.5 3.5,3.5c2,0 4,0 6,0 1.908,0 3.5-1.592 3.5-3.5s-1.592-3.5-3.5-3.5z"/>
<path d="m286.1,265.497c-.667,0-1.333,0-2,0-1.908,0-3.5,1.592-3.5,3.5s1.592,3.5 3.5,3.5c.667,0 1.333,0 2,0 1.908,0 3.5-1.592 3.5-3.5s-1.592-3.5-3.5-3.5z"/>
<path d="m269.098,282.822c.667,0 1.333,0 2,0 1.908,0 3.5-1.592 3.5-3.5s-1.592-3.5-3.5-3.5c-.667,0-1.333,0-2,0-1.908,0-3.5,1.592-3.5,3.5s1.591,3.5 3.5,3.5z"/>
<path d="m184.518,291.33c2,0 4,0 6,0 1.908,0 3.5-1.592 3.5-3.5s-1.592-3.5-3.5-3.5c-2,0-4,0-6,0-1.908,0-3.5,1.592-3.5,3.5s1.591,3.5 3.5,3.5z"/>
<path d="m274.85,270.434c1.833,0 3.667,0 5.5,0 1.908,0 3.5-1.592 3.5-3.5s-1.592-3.5-3.5-3.5c-1.833,0-3.667,0-5.5,0-1.908,0-3.5,1.592-3.5,3.5s1.591,3.5 3.5,3.5z"/>
<path d="m194.182,259.497c-3,0-6,0-9,0-4.514,0-4.514,7 0,7 3,0 6,0 9,0 4.513,0 4.513-7 0-7z"/>
<path d="m226.801,278.461c3,0 6,0 9,0 4.514,0 4.514-7 0-7-3,0-6,0-9,0-4.514,0-4.514,7 0,7z"/>
<path d="m209.945,267.094c5.333,0 10.667,0 16,0 4.514,0 4.514-7 0-7-5.333,0-10.667,0-16,0-4.513,0-4.513,7 0,7z"/>
<path d="m210.279,278.33c2,0 4,0 6,0 1.908,0 3.5-1.592 3.5-3.5s-1.592-3.5-3.5-3.5c-2,0-4,0-6,0-1.908,0-3.5,1.592-3.5,3.5s1.592,3.5 3.5,3.5z"/>
<path d="m223.613,272.33c.667,0 1.333,0 2,0 1.908,0 3.5-1.592 3.5-3.5s-1.592-3.5-3.5-3.5c-.667,0-1.333,0-2,0-1.908,0-3.5,1.592-3.5,3.5s1.592,3.5 3.5,3.5z"/>
<path d="m217.779,284.33c-2,0-4,0-6,0-1.908,0-3.5,1.592-3.5,3.5s1.592,3.5 3.5,3.5c2,0 4,0 6,0 1.908,0 3.5-1.592 3.5-3.5s-1.591-3.5-3.5-3.5z"/>
<path d="m276.863,284.163c-5.083,0-10.167,0-15.25,0-4.514,0-4.514,7 0,7 5.083,0 10.167,0 15.25,0 4.514,0 4.514-7 0-7z"/>
<path d="m238.113,264.33c-2,0-4,0-6,0-1.908,0-3.5,1.592-3.5,3.5s1.592,3.5 3.5,3.5c2,0 4,0 6,0 1.908,0 3.5-1.592 3.5-3.5s-1.592-3.5-3.5-3.5z"/>
<path d="m193.432,269.128c-3,0-6.001,0-9.001,0-4.514,0-4.514,7 0,7 3,0 6.001,0 9.001,0 4.513,0 4.513-7 0-7z"/>
<path d="m203.098,284.365c-5.333,0-10.667,0-16,0-4.514,0-4.514,7 0,7 5.333,0 10.667,0 16,0 4.513,0 4.513-7 0-7z"/>
<path d="m207.779,276.33c-2,0-4,0-6,0-1.908,0-3.5,1.592-3.5,3.5s1.592,3.5 3.5,3.5c2,0 4,0 6,0 1.908,0 3.5-1.592 3.5-3.5s-1.591-3.5-3.5-3.5z"/>
<path d="m189.431,280.128c-.667,0-1.333,0-2,0-1.908,0-3.5,1.592-3.5,3.5s1.592,3.5 3.5,3.5c.667,0 1.333,0 2,0 1.908,0 3.5-1.592 3.5-3.5s-1.592-3.5-3.5-3.5z"/>
<path d="m195.098,271.128c3.722,0 7.444,0 11.166,0 4.514,0 4.514-7 0-7-3.722,0-7.444,0-11.166,0-4.514,0-4.514,7 0,7z"/>
<path d="m215.779,272.33c-5.333,0-10.667,0-16,0-4.514,0-4.514,7 0,7 5.333,0 10.667,0 16,0 4.514,0 4.514-7 0-7z"/>
<path d="m244.67,281.746c3,0 6.001,0 9.001,0 4.514,0 4.514-7 0-7-3,0-6.001,0-9.001,0-4.514,0-4.514,7 0,7z"/>
<path d="m239.046,267.08c1.083,0 2.167,0 3.25,0 1.908,0 3.5-1.592 3.5-3.5s-1.592-3.5-3.5-3.5c-1.083,0-2.167,0-3.25,0-1.908,0-3.5,1.592-3.5,3.5s1.592,3.5 3.5,3.5z"/>
<path d="m263.098,271.711c2,0 4,0 6,0 1.908,0 3.5-1.592 3.5-3.5s-1.592-3.5-3.5-3.5c-2,0-4,0-6,0-1.908,0-3.5,1.592-3.5,3.5s1.591,3.5 3.5,3.5z"/>
<path d="m275.422,287.58c1.833,0 3.667,0 5.5,0 1.908,0 3.5-1.592 3.5-3.5s-1.592-3.5-3.5-3.5c-1.833,0-3.667,0-5.5,0-1.908,0-3.5,1.592-3.5,3.5s1.592,3.5 3.5,3.5z"/>
<path d="m219.6,288.461c.667,0 1.333,0 2,0 1.908,0 3.5-1.592 3.5-3.5s-1.592-3.5-3.5-3.5c-.667,0-1.333,0-2,0-1.908,0-3.5,1.592-3.5,3.5s1.591,3.5 3.5,3.5z"/>
<path d="m215.85,278.267c.667,0 1.333,0 2,0 1.908,0 3.5-1.592 3.5-3.5s-1.592-3.5-3.5-3.5c-.667,0-1.333,0-2,0-1.908,0-3.5,1.592-3.5,3.5s1.591,3.5 3.5,3.5z"/>
<path d="m257.421,284.163c-1.834,0-3.667,0-5.501,0-1.908,0-3.5,1.592-3.5,3.5s1.592,3.5 3.5,3.5c1.834,0 3.667,0 5.501,0 1.908,0 3.5-1.592 3.5-3.5s-1.592-3.5-3.5-3.5z"/>
<path d="m289.35,283.211c-.667,0-1.333,0-2,0-1.908,0-3.5,1.592-3.5,3.5s1.592,3.5 3.5,3.5c.667,0 1.333,0 2,0 1.908,0 3.5-1.592 3.5-3.5s-1.592-3.5-3.5-3.5z"/>
<path d="m270.1,274.497c-.667,0-1.333,0-2,0-1.908,0-3.5,1.592-3.5,3.5s1.592,3.5 3.5,3.5c.667,0 1.333,0 2,0 1.908,0 3.5-1.592 3.5-3.5s-1.592-3.5-3.5-3.5z"/>
<path d="m258.85,279.434c1.833,0 3.667,0 5.5,0 1.908,0 3.5-1.592 3.5-3.5s-1.592-3.5-3.5-3.5c-1.833,0-3.667,0-5.5,0-1.908,0-3.5,1.592-3.5,3.5s1.591,3.5 3.5,3.5z"/>
<path d="m279.517,266.497c3.277,0 6.556,0 9.833,0 4.514,0 4.514-7 0-7-3.277,0-6.556,0-9.833,0-4.514,0-4.514,7 0,7z"/>
<path d="m222.222,287.128c3.722,0 7.444,0 11.166,0 4.514,0 4.514-7 0-7-3.722,0-7.444,0-11.166,0-4.514,0-4.514,7 0,7z"/>
<path d="m184.303,249.61c2.337,0 4.673,0 7.01,0 4.514,0 4.514-7 0-7-2.337,0-4.673,0-7.01,0-4.514,0-4.514,7 0,7z"/>
<path d="m207.823,246.61c2.58,0 5.161,0 7.741,0 4.514,0 4.514-7 0-7-2.58,0-5.161,0-7.741,0-4.513,0-4.513,7-0,7z"/>
<path d="m204.387,235.61c5.083,0 10.167,0 15.25,0 4.514,0 4.514-7 0-7-5.083,0-10.167,0-15.25,0-4.514,0-4.514,7 0,7z"/>
<path d="m229.621,258.507c2,0 4,0 6,0 1.908,0 3.5-1.592 3.5-3.5s-1.592-3.5-3.5-3.5c-2,0-4,0-6,0-1.908,0-3.5,1.592-3.5,3.5s1.592,3.5 3.5,3.5z"/>
<path d="m184.135,239.674c.667,0 1.333,0 2,0 1.908,0 3.5-1.592 3.5-3.5s-1.592-3.5-3.5-3.5c-.667,0-1.333,0-2,0-1.908,0-3.5,1.592-3.5,3.5s1.592,3.5 3.5,3.5z"/>
<path d="m201.137,242.999c-.667,0-1.333,0-2,0-1.908,0-3.5,1.592-3.5,3.5s1.592,3.5 3.5,3.5c.667,0 1.333,0 2,0 1.908,0 3.5-1.592 3.5-3.5s-1.592-3.5-3.5-3.5z"/>
<path d="m288.717,248.507c-2,0-4,0-6,0-1.908,0-3.5,1.592-3.5,3.5s1.592,3.5 3.5,3.5c2,0 4,0 6,0 1.908,0 3.5-1.592 3.5-3.5s-1.592-3.5-3.5-3.5z"/>
<path d="m195.386,230.61c-1.834,0-3.667,0-5.501,0-1.908,0-3.5,1.592-3.5,3.5s1.592,3.5 3.5,3.5c1.834,0 3.667,0 5.501,0 1.908,0 3.5-1.592 3.5-3.5s-1.592-3.5-3.5-3.5z"/>
<path d="m280.053,233.674c3,0 6.001,0 9.001,0 4.514,0 4.514-7 0-7-3,0-6.001,0-9.001,0-4.514,0-4.514,7 0,7z"/>
<path d="m243.435,238.638c-3,0-6.001,0-9.001,0-4.514,0-4.514,7 0,7 3,0 6.001,0 9.001,0 4.513,0 4.513-7 0-7z"/>
<path d="m260.289,227.271c-5.333,0-10.667,0-16,0-4.514,0-4.514,7 0,7 5.333,0 10.667,0 16,0 4.514,0 4.514-7 0-7z"/>
<path d="m259.955,238.507c-2,0-4,0-6,0-1.908,0-3.5,1.592-3.5,3.5s1.592,3.5 3.5,3.5c2,0 4,0 6,0 1.908,0 3.5-1.592 3.5-3.5s-1.592-3.5-3.5-3.5z"/>
<path d="m246.621,232.507c-.667,0-1.333,0-2,0-1.908,0-3.5,1.592-3.5,3.5s1.592,3.5 3.5,3.5c.667,0 1.333,0 2,0 1.908,0 3.5-1.592 3.5-3.5s-1.592-3.5-3.5-3.5z"/>
<path d="m252.455,258.507c2,0 4,0 6,0 1.908,0 3.5-1.592 3.5-3.5s-1.592-3.5-3.5-3.5c-2,0-4,0-6,0-1.908,0-3.5,1.592-3.5,3.5s1.592,3.5 3.5,3.5z"/>
<path d="m193.371,260.34c5.083,0 10.167,0 15.25,0 4.514,0 4.514-7 0-7-5.083,0-10.167,0-15.25,0-4.514,0-4.514,7 0,7z"/>
<path d="m232.122,238.507c2,0 4,0 6,0 1.908,0 3.5-1.592 3.5-3.5s-1.592-3.5-3.5-3.5c-2,0-4,0-6,0-1.908,0-3.5,1.592-3.5,3.5s1.592,3.5 3.5,3.5z"/>
<path d="m279.804,243.305c3,0 6.001,0 9.001,0 4.514,0 4.514-7 0-7-3,0-6.001,0-9.001,0-4.514,0-4.514,7 0,7z"/>
<path d="m266.137,258.542c5.333,0 10.667,0 16,0 4.514,0 4.514-7 0-7-5.333,0-10.667,0-16,0-4.514,0-4.514,7 0,7z"/>
<path d="m262.455,250.507c2,0 4,0 6,0 1.908,0 3.5-1.592 3.5-3.5s-1.592-3.5-3.5-3.5c-2,0-4,0-6,0-1.908,0-3.5,1.592-3.5,3.5s1.592,3.5 3.5,3.5z"/>
<path d="m280.805,254.305c.667,0 1.333,0 2,0 1.908,0 3.5-1.592 3.5-3.5s-1.592-3.5-3.5-3.5c-.667,0-1.333,0-2,0-1.908,0-3.5,1.592-3.5,3.5s1.591,3.5 3.5,3.5z"/>
<path d="m275.137,229.305c-3.722,0-7.444,0-11.166,0-4.514,0-4.514,7 0,7 3.722,0 7.444,0 11.166,0 4.513,0 4.513-7 0-7z"/>
<path d="m254.455,246.507c5.333,0 10.667,0 16,0 4.514,0 4.514-7 0-7-5.333,0-10.667,0-16,0-4.514,0-4.514,7-0,7z"/>
<path d="m225.564,241.923c-3,0-6,0-9,0-4.514,0-4.514,7 0,7 3,0 6,0 9,0 4.514,0 4.514-7 0-7z"/>
<path d="m231.189,227.257c-1.083,0-2.167,0-3.25,0-1.908,0-3.5,1.592-3.5,3.5s1.592,3.5 3.5,3.5c1.083,0 2.167,0 3.25,0 1.908,0 3.5-1.592 3.5-3.5s-1.591-3.5-3.5-3.5z"/>
<path d="m207.137,231.888c-2,0-4,0-6,0-1.908,0-3.5,1.592-3.5,3.5s1.592,3.5 3.5,3.5c2,0 4,0 6,0 1.908,0 3.5-1.592 3.5-3.5s-1.592-3.5-3.5-3.5z"/>
<path d="m194.813,247.757c-1.833,0-3.667,0-5.5,0-1.908,0-3.5,1.592-3.5,3.5s1.592,3.5 3.5,3.5c1.833,0 3.667,0 5.5,0 1.908,0 3.5-1.592 3.5-3.5s-1.592-3.5-3.5-3.5z"/>
<path d="m250.636,248.638c-.667,0-1.333,0-2,0-1.908,0-3.5,1.592-3.5,3.5s1.592,3.5 3.5,3.5c.667,0 1.333,0 2,0 1.908,0 3.5-1.592 3.5-3.5s-1.592-3.5-3.5-3.5z"/>
<path d="m254.386,238.443c-.667,0-1.333,0-2,0-1.908,0-3.5,1.592-3.5,3.5s1.592,3.5 3.5,3.5c.667,0 1.333,0 2,0 1.908,0 3.5-1.592 3.5-3.5s-1.592-3.5-3.5-3.5z"/>
<path d="m212.814,258.34c1.833,0 3.667,0 5.5,0 1.908,0 3.5-1.592 3.5-3.5s-1.592-3.5-3.5-3.5c-1.833,0-3.667,0-5.5,0-1.908,0-3.5,1.592-3.5,3.5s1.592,3.5 3.5,3.5z"/>
<path d="m184.885,257.388c.667,0 1.333,0 2,0 1.908,0 3.5-1.592 3.5-3.5s-1.592-3.5-3.5-3.5c-.667,0-1.333,0-2,0-1.908,0-3.5,1.592-3.5,3.5s1.592,3.5 3.5,3.5z"/>
<path d="m200.135,248.674c.667,0 1.333,0 2,0 1.908,0 3.5-1.592 3.5-3.5s-1.592-3.5-3.5-3.5c-.667,0-1.333,0-2,0-1.908,0-3.5,1.592-3.5,3.5s1.592,3.5 3.5,3.5z"/>
<path d="m211.386,237.61c-1.834,0-3.667,0-5.501,0-1.908,0-3.5,1.592-3.5,3.5s1.592,3.5 3.5,3.5c1.834,0 3.667,0 5.501,0 1.908,0 3.5-1.592 3.5-3.5s-1.592-3.5-3.5-3.5z"/>
<path d="m193.719,226.674c-3.278,0-6.556,0-9.834,0-4.514,0-4.514,7 0,7 3.278,0 6.556,0 9.834,0 4.513,0 4.513-7 0-7z"/>
<path d="m248.014,247.305c-3.722,0-7.444,0-11.166,0-4.514,0-4.514,7 0,7 3.722,0 7.444,0 11.166,0 4.513,0 4.513-7 0-7z"/>
<path d="m182.518,229.586c36.179,0 72.357,0 108.536,0 1.935,0 1.935-3 0-3-36.179,0-72.357,0-108.536,0-1.935,0-1.935,3 0,3z"/>
<path d="m209.147,226.655c.063-15.673 .431-42.836 21.81-43.222 1.933-.035 1.936-3.035 0-3-23.483,.423-24.739,28.599-24.81,46.222-.007,1.935 2.993,1.935 3,0z"/>
<path d="m203.711,226.655c.126-18.041 4.718-42.843 27.246-43.222 1.933-.032 1.936-3.033 0-3-24.365,.409-30.107,26.354-30.246,46.222-.014,1.936 2.986,1.934 3,0z"/>
<path d="m220.82,226.655c.016-7.765-.271-15.921 1.438-23.551 .762-3.402 2.656-5.782 4.748-8.458 1.177-1.505-.931-3.645-2.121-2.121-2.146,2.743-4.153,5.21-5.206,8.594-2.482,7.985-1.843,17.319-1.858,25.536-.005,1.935 2.995,1.935 2.999,0z"/>
<path d="m216.789,226.655c.028-7.726-.24-16.177 2.533-23.526 1.416-3.752 4.781-5.968 7.684-8.482 1.465-1.269-.667-3.382-2.121-2.121-3.118,2.701-6.256,4.995-8.047,8.837-3.517,7.541-3.02,17.229-3.049,25.293-.007,1.934 2.993,1.934 3-.001z"/>
<path d="m196.428,226.655c-.046-7.583-.018-16.121-3.419-23.114-.652-1.34-1.617-2.56-2.749-3.524-.311-.265-1.609-.977-1.646-1.382-.17-1.911-3.171-1.928-3,0 .199,2.249 2.109,2.951 3.498,4.435 5.123,5.473 4.275,16.854 4.315,23.586 .012,1.933 3.012,1.935 3.001-.001z"/>
<path d="m201.812,226.257c-1.05-6.592-1.379-15.021-5.013-20.889-1.971-3.183-6.063-5.089-8.624-7.794-1.332-1.407-3.45,.718-2.121,2.121 2.401,2.536 5.647,4.24 7.91,6.839 1.318,1.514 1.764,3.879 2.24,5.754 1.231,4.842 1.93,9.839 2.715,14.766 .304,1.907 3.194,1.094 2.893-.797z"/>
<path d="m275.006,226.604c.022-6.912-.262-14.395 1.936-21.048 1.12-3.391 3.961-5.377 6.561-7.588 1.476-1.255-.657-3.367-2.121-2.121-2.797,2.379-5.485,4.467-6.953,7.943-2.916,6.906-2.398,15.518-2.422,22.813-.007,1.936 2.993,1.936 2.999,.001z"/>
<path d="m269.568,226.604c.04-6.861-.186-14.869 3.442-20.984 2.181-3.675 6.654-5.38 10.188-7.417 1.675-.966 .165-3.559-1.514-2.59-3.98,2.294-8.076,4.141-10.883,7.92-4.566,6.149-4.191,15.894-4.233,23.071-.011,1.936 2.989,1.934 3,0z"/>
<path d="m284.246,226.604c.047-5.998-.38-14.873 4.124-19.651 1.392-1.476 3.436-1.81 3.69-4.109 .213-1.922-2.79-1.901-3,0 .01-.088-3.619,2.894-4.177,3.699-3.771,5.45-3.589,13.804-3.638,20.062-.014,1.935 2.986,1.933 3.001-.001z"/>
<path d="m278.756,227.003c.946-5.036 1.286-12.857 4.724-17.048 2.021-2.466 5.733-3.897 8.142-6.051 1.445-1.292-.684-3.406-2.121-2.121-2.565,2.293-6.219,3.706-8.402,6.367-3.766,4.592-4.197,12.535-5.234,18.056-.357,1.891 2.533,2.697 2.891,.797z"/>
<path d="m265.529,226.706c-.036-4.676-.104-9.962-2.447-14.169-.521-.935-1.27-1.739-2.124-2.374-.278-.207-.565-.395-.858-.579-.456-.285-.184-.292-.127,.22-.21-1.901-3.212-1.922-3,0 .188,1.703 1.418,2.043 2.553,3.039 3.402,2.984 2.973,9.897 3.004,13.863 .014,1.934 3.014,1.936 2.999,0z"/>
<path d="m269.344,226.308c-.753-4.009-1.116-9.289-3.6-12.731-1.508-2.09-4.309-3.133-6.211-4.833-1.438-1.285-3.566,.829-2.121,2.121 1.727,1.543 3.95,2.526 5.6,4.098 .853,.813 1.179,2.141 1.505,3.223 .876,2.906 1.375,5.943 1.935,8.92 .357,1.899 3.247,1.092 2.892-.798z"/>
<path d="m251.004,227.219c-.021-6.788 .339-14.309-1.911-20.838-1.064-3.092-3.337-5.133-5.603-7.355-1.382-1.355-3.504,.765-2.121,2.121 2.081,2.041 4.056,3.779 5.032,6.616 2.071,6.013 1.583,13.213 1.603,19.456 .006,1.934 3.006,1.934 3-0z"/>
<path d="m255.309,227.219c-.038-6.844 .123-14.679-3.241-20.889-1.917-3.538-5.665-5.402-8.881-7.539-1.616-1.074-3.117,1.525-1.514,2.59 2.862,1.902 5.955,3.442 7.804,6.464 3.309,5.406 2.799,13.333 2.832,19.374 .01,1.933 3.01,1.935 3,0z"/>
<path d="m240.324,227.211c-.042-3.81-.375-7.961-2.924-10.997-.622-.741-1.483-1.312-2.35-1.726-.273-.13-.556-.24-.834-.361-.676-.295-.063,.052-.04,.199-.304-1.906-3.194-1.095-2.893,.797 .23,1.444 1.997,1.752 3.043,2.38 2.981,1.792 2.965,6.756 2.997,9.708 .023,1.934 3.023,1.935 3.001,0z"/>
<path d="m244.511,226.813c-.883-3.167-1.622-7.311-4.082-9.727-1.792-1.76-4.812-2.372-6.941-3.656-1.661-1.002-3.168,1.593-1.514,2.59 1.938,1.17 4.154,1.796 6.063,2.976 2.322,1.437 2.937,6.301 3.582,8.614 .518,1.861 3.412,1.07 2.892-.797z"/>
</g>
</svg>
