<svg xmlns="http://www.w3.org/2000/svg" viewBox="20 20 321 321">
<g fill="#fff">
<path d="m139.333,119.667c0,43 0,86 0,129 0,6.448 10,6.448 10,0 0-43 0-86 0-129 0-6.449-10-6.449-10,0z"/>
<path d="m255.333,107.667c0,38.333 0,76.667 0,115 0,6.448 10,6.448 10,0 0-38.333 0-76.667 0-115 0-6.449-10-6.449-10,0z"/>
</g>
<g fill="none" stroke="#fff" stroke-width="10">
<path d="m260.328,105.063c.697,3.087-1.239,6.158-4.327,6.858l-102.062,23.09c-3.088,.697-6.158-1.24-6.857-4.329l-2.741-12.117c-.698-3.088 1.239-6.158 4.327-6.857l102.061-23.09c3.088-.698 6.16,1.239 6.858,4.327l2.741,12.118z"/>
<ellipse cx="120.739" cy="252.161" rx="23.486" ry="15.492" transform="matrix(.9638 -.2667 .2667 .9638 -62.8719 41.3291)"/>
<ellipse cx="237.739" cy="230.161" rx="23.486" ry="15.492" transform="matrix(.9638 -.2667 .2667 .9638 -52.7686 71.7339)"/>
</g>
</svg>
