<svg xmlns="http://www.w3.org/2000/svg" viewBox="20 20 321 321">
<path fill="#fff" d="m143.025,126.179c.386,.16 .187,.638 .187-.475 0-1.137 0-2.273 0-3.41 0-3.3 0-6.6 0-9.899 0-5.423 0-10.847 0-16.27 0,.723-.95,.542 .414,.542 1.128,0 2.256,0 3.384,0 3.275,0 6.55,0 9.826,0 5.383,0 10.766,0 16.148,0-.725,0-.543-.947-.543,.421 0,1.137 0,2.273 0,3.41 0,3.3 0,6.6 0,9.899 0,5.423 0,10.847 0,16.27 0-.723 .951-.542-.414-.542-1.128,0-2.256,0-3.384,0-3.605,0-7.211,0-10.816,0-5.067,0-10.133,0-15.2,0-1.935,0-1.935,3 0,3 5.726,0 11.452,0 17.178,0 3.396,0 6.792,0 10.187,0 1.371,0 3.64,.396 4.743-.707 1.013-1.013 .707-2.89 .707-4.165 0-3.622 0-7.243 0-10.865 0-5.769 0-11.538 0-17.307 0-4.044-9.672-2.415-11.801-2.415-6.788,0-13.576,0-20.364,0-4.276,0-3.064,5.507-3.064,8.371 0,7.405 0,14.81 0,22.215 0,2.133-.256,3.877 2.016,4.818 1.786,.742 2.557-2.162 .796-2.891z"/>
<path fill="none" stroke="#fff" stroke-width="7" d="m123.275,288.102c-1.903,0-3.446-1.541-3.446-3.445v-207.772c0-1.903 1.543-3.447 3.446-3.447h114.586c1.902,0 3.445,1.543 3.445,3.447v207.771c0,1.904-1.543,3.445-3.445,3.445h-114.586z"/>
<g fill="#fff">
<path d="m188.723,126.179c.388,.16 .188,.637 .188-.475 0-1.137 0-2.273 0-3.41 0-3.3 0-6.6 0-9.899 0-5.423 0-10.847 0-16.27 0,.723-.951,.542 .413,.542 1.129,0 2.257,0 3.385,0 3.275,0 6.551,0 9.826,0 5.383,0 10.766,0 16.147,0-.725,0-.543-.947-.543,.421 0,1.137 0,2.273 0,3.41 0,3.3 0,6.6 0,9.899 0,5.423 0,10.847 0,16.27 0-.723 .951-.542-.413-.542-1.129,0-2.257,0-3.385,0-3.605,0-7.211,0-10.816,0-5.066,0-10.134,0-15.2,0-1.935,0-1.935,3 0,3 5.726,0 11.452,0 17.178,0 3.396,0 6.791,0 10.187,0 1.371,0 3.641,.396 4.743-.707 1.013-1.013 .707-2.891 .707-4.165 0-3.622 0-7.243 0-10.865 0-5.769 0-11.538 0-17.307 0-4.044-9.672-2.415-11.802-2.415-6.787,0-13.575,0-20.363,0-4.275,0-3.063,5.507-3.063,8.371 0,7.405 0,14.81 0,22.215 0,2.133-.256,3.876 2.016,4.818 1.785,.742 2.555-2.162 .795-2.891z"/>
<path d="m143.047,172.167c.387,.16 .187,.636 .187-.476 0-1.137 0-2.273 0-3.41 0-3.3 0-6.6 0-9.899 0-5.423 0-10.847 0-16.27 0,.723-.95,.542 .414,.542 1.128,0 2.256,0 3.384,0 3.275,0 6.55,0 9.826,0 5.382,0 10.765,0 16.148,0-.725,0-.543-.947-.543,.421 0,1.137 0,2.273 0,3.41 0,3.3 0,6.6 0,9.899 0,5.423 0,10.847 0,16.27 0-.722 .951-.542-.414-.542-1.128,0-2.256,0-3.384,0-3.605,0-7.211,0-10.816,0-5.066,0-10.133,0-15.2,0-1.935,0-1.935,3 0,3 5.726,0 11.452,0 17.178,0 3.396,0 6.791,0 10.187,0 1.372,0 3.64,.396 4.743-.708 1.013-1.013 .707-2.89 .707-4.165 0-3.622 0-7.243 0-10.865 0-5.769 0-11.538 0-17.307 0-4.044-9.672-2.415-11.801-2.415-6.788,0-13.575,0-20.363,0-4.276,0-3.064,5.506-3.064,8.371 0,7.405 0,14.81 0,22.215 0,2.134-.256,3.876 2.016,4.818 1.784,.745 2.555-2.159 .795-2.889z"/>
<path d="m188.131,172.167c.388,.161 .188,.636 .188-.476 0-1.137 0-2.273 0-3.41 0-3.3 0-6.6 0-9.899 0-5.423 0-10.847 0-16.27 0,.723-.951,.542 .413,.542 1.129,0 2.257,0 3.385,0 3.275,0 6.551,0 9.826,0 5.383,0 10.766,0 16.147,0-.725,0-.543-.947-.543,.421 0,1.137 0,2.273 0,3.41 0,3.3 0,6.6 0,9.899 0,5.423 0,10.847 0,16.27 0-.722 .951-.542-.413-.542-1.129,0-2.257,0-3.385,0-3.605,0-7.211,0-10.816,0-5.066,0-10.134,0-15.2,0-1.935,0-1.935,3 0,3 5.726,0 11.452,0 17.178,0 3.396,0 6.791,0 10.187,0 1.372,0 3.641,.396 4.743-.708 1.013-1.013 .707-2.89 .707-4.165 0-3.622 0-7.243 0-10.865 0-5.769 0-11.538 0-17.307 0-4.044-9.672-2.415-11.802-2.415-6.787,0-13.575,0-20.363,0-4.276,0-3.063,5.507-3.063,8.371 0,7.405 0,14.81 0,22.215 0,2.134-.256,3.875 2.016,4.818 1.784,.745 2.556-2.159 .795-2.889z"/>
<path d="m142.854,218.276c.387,.16 .187,.639 .187-.475 0-1.137 0-2.273 0-3.41 0-3.3 0-6.6 0-9.899 0-5.423 0-10.847 0-16.27 0,.723-.951,.543 .414,.543 1.128,0 2.256,0 3.384,0 3.275,0 6.55,0 9.826,0 5.383,0 10.766,0 16.148,0-.725,0-.543-.948-.543,.421 0,1.137 0,2.273 0,3.41 0,3.3 0,6.6 0,9.899 0,5.423 0,10.847 0,16.27 0-.723 .951-.543-.414-.543-1.128,0-2.256,0-3.384,0-3.605,0-7.211,0-10.816,0-5.067,0-10.133,0-15.2,0-1.935,0-1.935,3 0,3 5.726,0 11.452,0 17.178,0 3.396,0 6.792,0 10.187,0 1.371,0 3.64,.396 4.743-.707 1.013-1.014 .707-2.89 .707-4.164 0-3.622 0-7.243 0-10.865 0-5.769 0-11.538 0-17.307 0-4.044-9.673-2.414-11.801-2.414-6.788,0-13.576,0-20.364,0-4.276,0-3.063,5.506-3.063,8.37 0,7.405 0,14.811 0,22.216 0,2.134-.256,3.876 2.015,4.817 1.786,.742 2.557-2.162 .796-2.892z"/>
<path d="m187.939,218.276c.388,.16 .188,.639 .188-.475 0-1.137 0-2.273 0-3.41 0-3.3 0-6.6 0-9.899 0-5.423 0-10.847 0-16.27 0,.723-.951,.543 .413,.543 1.129,0 2.257,0 3.385,0 3.275,0 6.551,0 9.826,0 5.383,0 10.766,0 16.147,0-.725,0-.543-.948-.543,.421 0,1.137 0,2.273 0,3.41 0,3.3 0,6.6 0,9.899 0,5.423 0,10.847 0,16.27 0-.723 .951-.543-.413-.543-1.129,0-2.257,0-3.385,0-3.605,0-7.211,0-10.816,0-5.066,0-10.134,0-15.2,0-1.935,0-1.935,3 0,3 5.726,0 11.452,0 17.178,0 3.396,0 6.791,0 10.187,0 1.372,0 3.64,.396 4.743-.707 1.013-1.014 .707-2.889 .707-4.164 0-3.622 0-7.243 0-10.865 0-5.769 0-11.538 0-17.307 0-4.044-9.673-2.414-11.802-2.414-6.787,0-13.575,0-20.363,0-4.276,0-3.063,5.506-3.063,8.37 0,7.405 0,14.811 0,22.216 0,2.134-.256,3.875 2.016,4.817 1.786,.742 2.556-2.162 .795-2.892z"/>
<path d="m142.936,264.386c.387,.16 .187,.639 .187-.475 0-1.137 0-2.273 0-3.41 0-3.3 0-6.6 0-9.899 0-5.423 0-10.847 0-16.27 0,.723-.951,.543 .414,.543 1.128,0 2.256,0 3.384,0 3.275,0 6.55,0 9.826,0 5.383,0 10.766,0 16.148,0-.725,0-.543-.948-.543,.421 0,1.137 0,2.273 0,3.41 0,3.3 0,6.6 0,9.899 0,5.423 0,10.847 0,16.27 0-.723 .951-.543-.414-.543-1.128,0-2.256,0-3.384,0-3.605,0-7.211,0-10.816,0-5.067,0-10.133,0-15.2,0-1.935,0-1.935,3 0,3 5.726,0 11.452,0 17.178,0 3.396,0 6.792,0 10.187,0 1.371,0 3.64,.396 4.743-.707 1.013-1.014 .707-2.89 .707-4.164 0-3.622 0-7.243 0-10.865 0-5.769 0-11.538 0-17.307 0-4.044-9.673-2.414-11.801-2.414-6.788,0-13.576,0-20.364,0-4.276,0-3.063,5.506-3.063,8.37 0,7.405 0,14.811 0,22.216 0,2.134-.256,3.876 2.015,4.817 1.785,.742 2.556-2.163 .796-2.892z"/>
<path d="m188.021,264.386c.388,.16 .188,.639 .188-.475 0-1.137 0-2.273 0-3.41 0-3.3 0-6.6 0-9.899 0-5.423 0-10.847 0-16.27 0,.723-.951,.543 .413,.543 1.129,0 2.257,0 3.385,0 3.275,0 6.55,0 9.825,0 5.383,0 10.766,0 16.147,0-.723,0-.542-.948-.542,.421 0,1.137 0,2.273 0,3.41 0,3.3 0,6.6 0,9.899 0,5.423 0,10.847 0,16.27 0-.724 .949-.543-.414-.543-1.129,0-2.257,0-3.385,0-3.605,0-7.211,0-10.815,0-5.067,0-10.134,0-15.2,0-1.935,0-1.935,3 0,3 5.726,0 11.451,0 17.178,0 3.396,0 6.79,0 10.186,0 1.372,0 3.642,.396 4.744-.707 1.013-1.014 .707-2.89 .707-4.164 0-3.622 0-7.243 0-10.865 0-5.769 0-11.538 0-17.307 0-4.044-9.674-2.414-11.802-2.414-6.788,0-13.575,0-20.363,0-4.276,0-3.063,5.506-3.063,8.37 0,7.405 0,14.811 0,22.216 0,2.134-.256,3.875 2.016,4.817 1.785,.742 2.555-2.163 .795-2.892z"/>
</g>
</svg>
