<svg xmlns="http://www.w3.org/2000/svg" viewBox="20 20 321 321">
<path fill="none" stroke="#fff" stroke-width="10" d="m181.042,129.844c0-2.928 .741-5.302 1.655-5.302h28.689c.914,0 1.655,2.374 1.655,5.302v103.396c0,2.928-.741,5.302-1.655,5.302h-28.689c-.914,0-1.655-2.374-1.655-5.302v-103.396z"/>
<path fill="#fff" d="m182.856,256.788c-35-26.75-70-53.501-105-80.251 0,2.878 0,5.757 0,8.635 35-26.75 70-53.501 105-80.251-2.508-1.439-5.016-2.878-7.523-4.317 0,49.382 0,98.765 0,148.147 0,4.118 0,8.237 0,12.355 0,6.448 10,6.448 10,0 0-49.383 0-98.765 0-148.147 0-4.119 0-8.237 0-12.355 0-3.435-4.397-6.707-7.523-4.317-35,26.75-70,53.501-105,80.251-3.178,2.429-3.178,6.206 0,8.635 35,26.75 70,53.501 105,80.251 5.125,3.916 10.096-4.777 5.046-8.636z"/>
</svg>
