<svg xmlns="http://www.w3.org/2000/svg" viewBox="20 20 321 321">
<g stroke="#fff" stroke-linejoin="round">
<g fill="#fff" stroke-width="3">
<path d="m286.202,90.071l4.115-.428-.417-3.967-4.111,.437-2.192-4.921 3.077-2.764-2.67-2.964-3.07,2.771-4.664-2.697 .863-4.042-3.901-.83-.855,4.047-5.358,.56-1.677-3.778-3.645,1.622 1.687,3.776-4.002,3.605-3.58-2.072-1.995,3.455 3.582,2.063-1.122,5.112-4.109,.586 .417,3.967 4.11-.437 2.193,4.921-3.076,2.764 2.669,2.964 3.071-2.772 4.664,2.697-.864,4.042 3.901,.83 .855-4.047 5.358-.56 1.677,3.778 3.645-1.622-1.662-3.792 3.979-3.59 3.58,2.072 1.994-3.455-3.582-2.063 1.115-5.268zm-14.966,11.253c-6.451,0-11.68-5.23-11.68-11.681 0-6.451 5.229-11.68 11.68-11.68s11.682,5.229 11.682,11.68c0,6.451-5.23,11.681-11.682,11.681z"/>
<path d="m262.033,120.076l4.133-.199-.197-3.984-4.129,.208-1.918-5.035 3.226-2.59-2.501-3.107-3.221,2.598-4.508-2.951 1.087-3.987-3.851-1.044-1.077,3.994-5.382,.263-1.465-3.865-3.729,1.418 1.475,3.864-4.195,3.378-3.46-2.267-2.183,3.339 3.463,2.257-1.404,5.042-4.135,.358 .197,3.984 4.129-.208 1.918,5.035-3.226,2.59 2.501,3.107 3.221-2.598 4.508,2.951-1.086,3.988 3.85,1.044 1.077-3.994 5.382-.263 1.465,3.865 3.729-1.418-1.449-3.877 4.17-3.364 3.46,2.267 2.183-3.339-3.463-2.257 1.405-5.203zm-14.919,10.426c-6.451,0-11.681-5.23-11.681-11.681 0-6.451 5.229-11.681 11.681-11.681 6.45,0 11.681,5.229 11.681,11.681 0,6.45-5.231,11.681-11.681,11.681z"/>
<path d="m282.412,125.054l2.521-.321c-.424-1.278-1.143-2.452-2.119-3.412l-1.373,2.226 .971,1.507z"/>
<path d="m282.814,121.321l1.855-3.006-3.059-1.873-1.806,2.97c.116,.043 .235,.079 .351,.128 1.025,.434 1.913,1.047 2.659,1.781z"/>
<path d="m278.418,121.696l1.388-2.283c-1.35-.503-2.749-.644-4.093-.465l.92,2.567 1.785,.181z"/>
<path d="m285.329,128.273l3.624-.438-.443-3.559-3.576,.457c.372,1.126 .518,2.33 .395,3.54z"/>
<path d="m273.301,122.724l-.945-2.583c-1.174,.721-2.181,1.73-2.905,2.98l2.597,.885 1.253-1.282z"/>
<path d="m274.557,115.729l-3.371,1.223 1.17,3.189c1.021-.627 2.164-1.034 3.357-1.193l-1.156-3.219z"/>
<path d="m282.277,130.272l1.758,1.708c.248-.392 .477-.803 .662-1.245 .342-.806 .547-1.635 .632-2.462l-2.479,.3-.573,1.699z"/>
<path d="m268.899,130.576l-2.942,1.882 1.943,3.014 2.986-1.938c-.868-.844-1.544-1.853-1.987-2.958z"/>
<path d="m278.113,133.419l-.241,2.46c1.313-.163 2.573-.625 3.675-1.353l-1.748-1.72-1.686,.613z"/>
<path d="m274.323,135.574l-.376,3.602 3.566,.36 .358-3.657c-1.164,.145-2.371,.059-3.548-.305z"/>
<path d="m269.45,123.121l-3.222-1.098-1.145,3.397 3.253,1.085c.087-.815 .29-1.63 .626-2.424 .142-.335 .309-.652 .488-.96z"/>
<path d="m281.547,134.527l2.633,2.592 2.508-2.565-2.652-2.575c-.656,1.037-1.507,1.899-2.489,2.548z"/>
<path d="m270.914,127.366l-2.577-.86c-.149,1.399 .054,2.795 .563,4.069l2.237-1.431-.223-1.778z"/>
<path d="m273.057,132.126l-2.17,1.408c.738,.717 1.613,1.317 2.617,1.742 .271,.114 .545,.214 .819,.298l.263-2.512-1.529-.936z"/>
</g>
<circle fill="none" cx="276.803" cy="127.612" r="5.917" stroke-width="5"/>
</g>
<g fill="#fff">
<path d="m74.677,156.167-.244-81 106.801,81z"/>
<path d="m79.677,156.167c-.082-27-.163-54-.245-81-2.508,1.439-5.016,2.878-7.523,4.317 35.59,26.992 71.18,53.984 106.771,80.976 .01,.008 .021,.016 .031,.024 .841-3.106 1.682-6.211 2.523-9.317-35.519,0-71.038,0-106.557,0-6.449,0-6.449,10 0,10 35.519,0 71.038,0 106.557,0 5.402,0 6.252-6.489 2.523-9.317-35.59-26.992-71.18-53.984-106.771-80.976-.01-.008-.021-.016-.031-.024-3.125-2.371-7.534,.868-7.523,4.317 .082,27 .163,54 .245,81 .02,6.448 10.02,6.45 10,0z"/>
</g>
<g fill="none" stroke="#fff" stroke-width="10">
<path d="m127.433,280.988c0,3.137-2.687,5.679-6,5.679h-23.5c-3.313,0-6-2.542-6-5.679v-68.143c0-3.137 2.687-5.679 6-5.679h23.5c3.313,0 6,2.542 6,5.679v68.143z"/>
<path d="m162.833,281.5c0,3.223-4.727,5.834-10.558,5.834h-66.884c-5.832,0-10.558-2.611-10.558-5.834v-122.5c0-3.222 4.727-5.833 10.558-5.833h66.884c5.832,0 10.558,2.612 10.558,5.833v122.5z"/>
</g>
<g fill="#fff">
<path d="m186.188,233.144c0,18.044 0,36.088 0,54.132 0,4.514 7,4.514 7,0 0-18.044 0-36.088 0-54.132 0-4.514-7-4.514-7,0z"/>
<path d="m197.537,233.202c0,18.044 0,36.088 0,54.132 0,4.514 7,4.514 7,0 0-18.044 0-36.088 0-54.132 0-4.514-7-4.514-7,0z"/>
<path d="m208.888,233.202c0,18.044 0,36.088 0,54.132 0,4.514 7,4.514 7,0 0-18.044 0-36.088 0-54.132 0-4.514-7-4.514-7,0z"/>
<path d="m220.238,233.202c0,18.044 0,36.088 0,54.132 0,4.514 7,4.514 7,0 0-18.044 0-36.088 0-54.132 0-4.514-7-4.514-7,0z"/>
<path d="m231.588,233.144c0,18.044 0,36.088 0,54.132 0,4.514 7,4.514 7,0 0-18.044 0-36.088 0-54.132 0-4.514-7-4.514-7,0z"/>
<path d="m242.938,233.202c0,18.044 0,36.088 0,54.132 0,4.514 7,4.514 7,0 0-18.044 0-36.088 0-54.132 0-4.514-7-4.514-7,0z"/>
<path d="m254.289,233.202c0,18.044 0,36.088 0,54.132 0,4.514 7,4.514 7,0 0-18.044 0-36.088 0-54.132 0-4.514-7-4.514-7,0z"/>
<path d="m265.639,233.202c0,18.044 0,36.088 0,54.132 0,4.514 7,4.514 7,0 0-18.044 0-36.088 0-54.132 0-4.514-7-4.514-7,0z"/>
<path d="m276.989,233.144c0,18.044 0,36.088 0,54.132 0,4.514 7,4.514 7,0 0-18.044 0-36.088 0-54.132 0-4.514-7-4.514-7,0z"/>
<path d="m185.288,247.18c33.868,0 67.736,0 101.604,0 4.514,0 4.514-7 0-7-33.868,0-67.736,0-101.604,0-4.514,0-4.514,7 0,7z"/>
<path d="m184.965,280.008c34.054,0 68.106,0 102.16,0 4.514,0 4.514-7 0-7-34.054,0-68.106,0-102.16,0-4.514,0-4.514,7 0,7z"/>
</g>
</svg>
