<svg xmlns="http://www.w3.org/2000/svg" viewBox="20 20 321 321">
<path fill="none" stroke="#fff" stroke-width="10" d="m144.333,231.865c0,2.928-.741,5.302-1.655,5.302h-28.69c-.914,0-1.655-2.374-1.655-5.302v-103.396c0-2.928 .741-5.302 1.655-5.302h28.69c.914,0 1.655,2.374 1.655,5.302v103.396z"/>
<path fill="#fff" d="m142.519,104.92c35,26.75 69.999,53.501 104.999,80.251 0-2.878 0-5.756 0-8.635-35,26.75-70,53.501-104.999,80.251 2.508,1.439 5.016,2.878 7.523,4.317 0-49.383 0-98.765 0-148.147 0-4.119 0-8.237 0-12.355 0-6.449-10-6.449-10,0 0,49.382 0,98.765 0,148.147 0,4.118 0,8.237 0,12.355 0,3.436 4.397,6.707 7.523,4.317 35-26.75 69.999-53.501 104.999-80.251 3.178-2.429 3.178-6.206 0-8.635-35-26.75-69.999-53.501-104.999-80.251-5.125-3.916-10.096,4.777-5.046,8.636z"/>
</svg>
