<svg xmlns="http://www.w3.org/2000/svg" viewBox="20 20 321 321">
<g fill="#fff">
<path d="m263.506,236.695c-.254,11.588-7.393,21.571-18.426,25.297-3.954,1.335-7.984,1.266-12.073,1.266-12.303,0-24.605,0-36.908,0-23.792,0-47.584,0-71.376,0-11.548,0-21.632-7.571-25.297-18.426-1.334-3.954-1.265-7.984-1.265-12.073 0-12.303 0-24.606 0-36.909 0-23.792 0-47.584 0-71.377 0-11.548 7.571-21.632 18.426-25.297 3.954-1.335 7.984-1.266 12.073-1.266 12.303,0 24.605,0 36.909,0 23.792,0 47.584,0 71.376,0 11.548,0 21.632,7.571 25.297,18.426 1.335,3.954 1.266,7.984 1.266,12.073 0,12.303 0,24.606 0,36.909-.002,23.792-.002,47.585-.002,71.377 0,6.448 10,6.448 10,0 0-23.792 0-47.585 0-71.377 0-12.303 0-24.606 0-36.909 0-15.611-6.131-29.773-20.843-36.934-9.375-4.563-20.072-3.565-30.189-3.565-15.042,0-30.083,0-45.125,0-14.228,0-28.456,0-42.684,0-3.176,0-6.352,0-9.528,0-8.913,0-16.864,3.087-23.837,8.516-11.256,8.764-13.14,22.028-13.14,35.198 0,13.507 0,27.015 0,40.522 0,15.484 0,30.967 0,46.451 0,9.007-.909,18.776 1.247,27.602 4.215,17.247 20.607,27.06 37.498,27.06 11.303,0 22.606,0 33.91,0 25.28,0 50.56,0 75.84,0 20.338,0 36.411-16.445 36.852-36.563 .14-6.453-9.861-6.439-10.001-.001z"/>
<path d="m235.686,205.366c-9.648-9.648-19.297-19.297-28.945-28.946 0,2.357 0,4.714 0,7.071 7.682-7.681 15.362-15.361 23.043-23.042 3.093-3.093 6.998-6.193 8.817-10.254 3.817-8.52-1.858-14.646-7.429-20.216-5.499-5.499-9.94-10.176-18.475-8.982-4.897,.685-8.825,5.813-12.123,9.11-7.869,7.87-15.739,15.74-23.61,23.61 2.357,0 4.714,0 7.071,0-7.681-7.681-15.361-15.362-23.042-23.043-3.093-3.093-6.192-6.998-10.254-8.817-8.52-3.817-14.646,1.858-20.216,7.429-5.499,5.499-10.176,9.94-8.982,18.475 .685,4.897 5.813,8.825 9.11,12.122 7.87,7.87 15.74,15.74 23.61,23.61 0-2.356 0-4.714 0-7.071-7.681,7.681-15.362,15.362-23.043,23.042-3.093,3.094-6.998,6.193-8.817,10.255-3.817,8.52 1.858,14.646 7.429,20.217 5.499,5.498 9.94,10.176 18.475,8.982 4.896-.686 8.825-5.813 12.122-9.11 7.87-7.87 15.74-15.74 23.61-23.611-2.356,0-4.714,0-7.071,0 9.534,9.534 19.066,19.067 28.599,28.601 3.296,3.296 7.701,4.948 12.343,4.299 4.885-.684 7.924-3.818 11.216-7.11 2.682-2.683 6.177-5.364 8.234-8.605 3.801-5.994 2.863-12.763-1.672-18.016-4.221-4.89-11.262,2.216-7.07,7.07 4.248,4.922-6.106,12.019-9.184,15.096-4.237,4.237-7.781-.792-10.714-3.725-8.228-8.228-16.455-16.455-24.683-24.683-1.926-1.927-5.145-1.927-7.071,0-6.43,6.431-12.861,12.861-19.292,19.292-3.04,3.04-6.08,6.079-9.119,9.119-4.279,4.279-7.977-.995-10.96-3.979-2.716-2.716-9.17-7.158-5.011-11.316 2.933-2.933 5.865-5.865 8.798-8.798 6.65-6.65 13.301-13.301 19.951-19.951 1.926-1.926 1.926-5.145 0-7.071-6.431-6.43-12.861-12.861-19.292-19.292-3.04-3.04-6.08-6.08-9.12-9.119-4.279-4.279 .996-7.977 3.98-10.96 2.716-2.716 7.158-9.17 11.316-5.011 2.933,2.933 5.865,5.865 8.798,8.798 6.65,6.65 13.301,13.301 19.951,19.951 1.926,1.926 5.145,1.926 7.071,0 6.431-6.431 12.861-12.861 19.292-19.292 3.04-3.04 6.079-6.08 9.119-9.12 4.279-4.279 7.977,.996 10.961,3.98 2.716,2.716 9.169,7.158 5.011,11.316-2.933,2.933-5.865,5.865-8.798,8.798-6.65,6.65-13.301,13.301-19.95,19.951-1.927,1.926-1.927,5.145 0,7.071 9.648,9.648 19.297,19.297 28.945,28.945 4.564,4.565 11.635-2.506 7.071-7.07z"/>
</g>
</svg>
