<svg xmlns="http://www.w3.org/2000/svg" viewBox="20 20 321 321">
<g fill="#fff">
<path d="m176.29,232.427c-.198,3.929 .284,.306 3.09,.306-.408,0-.815,0-1.222,0-1.519,0-3.037,0-4.556,0-3.732,0-7.464,0-11.196,0-.407,0-.814,0-1.222,0 2.807,0 3.287,3.623 3.089-.306-.007-.148 0-.299 0-.447 0-1.261 0-2.521 0-3.782 0-12.861 0-25.723 0-38.583 0-15.313 0-30.627 0-45.94 0-4.319 0-8.637 0-12.956 0-.581 0-1.162 0-1.742 0-3.903 .073-.304-3.089-.304 .408,0 .815,0 1.222,0 1.827,0 3.654,0 5.481,0 3.001,0 6.002,0 9.004,0 .83,0 1.659,0 2.489,0-3.286,0-3.089-3.591-3.089,.416 0,2.335 0,4.67 0,7.006 0,11.897 0,23.795 0,35.693 0,20.213-.001,40.426-.001,60.639 0,6.448 10,6.448 10,0 0-24.343 0-48.686 .001-73.029 0-9.992 0-19.983 0-29.975 0-2.782-.359-5.59-1.816-8.003-1.842-3.051-5.281-2.747-8.325-2.747-3.645,0-7.289,0-10.934-.001-2.833,0-6.133-.477-8.345,1.735-3.1,3.1-2.598,8.288-2.598,12.383 0,5.145 0,10.289 0,15.433 0,15.738 0,31.477 0,47.215 0,11.65 0,23.302 0,34.953 0,4.72 .418,12.341 6.722,12.341 6.027,0 12.054,0 18.081,0 5.745,0 6.979-5.631 7.214-10.306 .324-6.447-9.677-6.416-10,.001z"/>
<path d="m179.477,104.72c35.018,26.765 70.036,53.53 105.055,80.294 0-2.878 0-5.756 0-8.635-35.019,26.765-70.037,53.528-105.055,80.293 2.508,1.439 5.016,2.878 7.523,4.317 0-49.408 0-98.817 0-148.226 0-4.121 0-8.241 0-12.362 0-6.449-10-6.449-10,0 0,49.409 0,98.817 0,148.225 0,4.121 0,8.241 0,12.362 0,3.436 4.396,6.707 7.523,4.317 35.019-26.765 70.037-53.528 105.055-80.293 3.178-2.429 3.178-6.206 0-8.635-35.018-26.765-70.036-53.53-105.055-80.294-5.125-3.915-10.096,4.777-5.046,8.637z"/>
<path d="m133.387,232.427c-.198,3.93 .283,.306 3.09,.306-.408,0-.815,0-1.222,0-1.519,0-3.037,0-4.556,0-3.732,0-7.465,0-11.197,0-.407,0-.814,0-1.222,0 2.807,0 3.289,3.623 3.091-.306-.007-.148 0-.299 0-.447 0-1.261 0-2.521 0-3.782 0-12.861 0-25.723 0-38.583 0-15.313 0-30.627 0-45.94 0-4.319 0-8.637 0-12.956 0-.581 0-1.162 0-1.742 0-3.903 .073-.304-3.09-.304 .408,0 .815,0 1.222,0 1.827,0 3.654,0 5.481,0 3.001,0 6.003,0 9.004,0 .83,0 1.659,0 2.489,0-3.287,0-3.09-3.591-3.09,.416 0,2.335 0,4.67 0,7.006 0,11.897 0,23.795 0,35.693 0,20.213 0,40.426 0,60.639 0,6.448 10,6.448 10,0 0-24.343 0-48.686 0-73.029 0-9.992 0-19.983 0-29.975 0-2.782-.359-5.59-1.815-8.003-1.842-3.051-5.281-2.747-8.325-2.747-3.645,0-7.29,0-10.934-.001-2.833,0-6.134-.477-8.345,1.735-3.1,3.1-2.597,8.288-2.597,12.383 0,5.145 0,10.289 0,15.433 0,15.738 0,31.477 0,47.215 0,11.65 0,23.302 0,34.953 0,4.72 .417,12.341 6.72,12.341 6.027,0 12.054,0 18.081,0 5.745,0 6.979-5.631 7.214-10.306 .326-6.447-9.676-6.416-9.999,.001z"/>
<path d="m91.662,232.422c-.198,3.928 .283,.305 3.088,.305-.407,0-.814,0-1.222,0-1.519,0-3.037,0-4.556,0-3.732,0-7.464,0-11.196,0-.407,0-.814,0-1.222,0 2.806,0 3.288,3.623 3.09-.305-.007-.148 0-.299 0-.447 0-1.261 0-2.521 0-3.782 0-12.861 0-25.723-.001-38.583 0-15.313 0-30.627 0-45.94 0-4.319 0-8.637 0-12.956 0-.581 0-1.162 0-1.742 0-3.904 .071-.305-3.088-.305 .407,0 .814,0 1.222,0 1.827,0 3.654,0 5.481,0 3.001,0 6.002,0 9.003,0 .83,0 1.659,0 2.489,0-3.284,0-3.088-3.59-3.088,.417 0,2.335 0,4.67 0,7.006 0,11.897 0,23.795 0,35.693-0,20.213-0,40.426-0,60.639 0,6.448 10,6.448 10,0 0-24.343 0-48.686 0-73.029 0-9.992 0-19.983 0-29.975 0-2.782-.358-5.591-1.816-8.004-1.843-3.051-5.281-2.747-8.326-2.747-3.645,0-7.289,0-10.933-.001-2.833,0-6.134-.477-8.346,1.735-3.1,3.1-2.597,8.289-2.597,12.384 0,5.145 0,10.289 0,15.433 0,15.738 0,31.477 .001,47.215 0,11.65 0,23.302 0,34.953 0,4.72 .418,12.34 6.721,12.34 6.026,0 12.053,0 18.08,0 5.745,0 6.98-5.63 7.216-10.305 .325-6.447-9.676-6.416-10,.001z"/>
</g>
</svg>
