<svg xmlns="http://www.w3.org/2000/svg" viewBox="20 20 321 321">
<g fill="#fff">
<path d="m238.225,238.902h-115.042c-2.179,0-3.945,1.824-3.945,4.075v32.27c0,2.251 1.766,4.075 3.945,4.075h115.042c2.18,0 3.945-1.824 3.945-4.075v-32.27c-0-2.25-1.766-4.075-3.945-4.075zm-63.536,33.646c-.294-.933-.714-1.94-1.26-3.021-.547-1.08-1.154-2.133-1.82-3.16-.667-1.025-1.367-1.985-2.1-2.879s-1.434-1.646-2.1-2.26v11.319h-4.92v-24.76h4.92v10.28c.586-.746 1.2-1.574 1.84-2.48s1.246-1.813 1.82-2.721c.573-.906 1.1-1.799 1.58-2.68 .48-.88 .88-1.68 1.2-2.399h5.56c-.374,.72-.82,1.54-1.34,2.46s-1.114,1.88-1.78,2.88c-.667,1-1.38,2.021-2.14,3.06-.76,1.041-1.554,2.041-2.38,3 .826,.801 1.666,1.721 2.52,2.76 .853,1.041 1.66,2.154 2.42,3.341 .76,1.187 1.446,2.399 2.06,3.64 .613,1.24 1.106,2.447 1.48,3.62h-5.56zm13.48-5.86c.933,1.4 2.306,2.101 4.12,2.101 .293,0 .613-.013 .96-.04 .347-.026 .666-.066 .96-.12v-9.04h4.92v12.359c-.587,.215-1.5,.454-2.74,.721-1.24,.266-2.74,.4-4.5,.4-1.547,0-2.939-.274-4.18-.82-1.24-.547-2.3-1.36-3.18-2.44-.881-1.079-1.561-2.426-2.041-4.04-.479-1.613-.719-3.486-.719-5.619 0-2.107 .279-3.967 .84-5.58 .56-1.613 1.32-2.967 2.279-4.061 .961-1.094 2.094-1.913 3.4-2.46 1.307-.546 2.706-.819 4.199-.819 .961,0 1.82,.073 2.58,.219 .761,.147 1.42,.314 1.98,.5 .561,.188 1.02,.388 1.381,.601 .359,.214 .633,.374 .819,.479l-1.28,3.92c-.586-.373-1.307-.705-2.16-1-.854-.293-1.733-.439-2.64-.439-1.174,0-2.16,.214-2.96,.641-.8,.426-1.46,1.02-1.98,1.779-.52,.76-.893,1.667-1.119,2.721-.227,1.053-.34,2.219-.34,3.5 .002,2.956 .467,5.137 1.401,6.537z"/>
<path d="m258.334,237.25c10.61,0 21.222,0 31.832,0 1.935,0 1.935-3 0-3-10.61,0-21.222,0-31.832,0-1.935,0-1.935,3 0,3z"/>
<path d="m279.25,268.445c3,0 6,0 9,0 4.514,0 4.514-7 0-7-3,0-6,0-9,0-4.514,0-4.514,7 0,7z"/>
<path d="m260.583,283.682c5.333,0 10.667,0 16,0 4.514,0 4.514-7 0-7-5.333,0-10.667,0-16,0-4.514,0-4.514,7 0,7z"/>
<path d="m260.917,272.445c2,0 4,0 6,0 1.908,0 3.5-1.592 3.5-3.5s-1.592-3.5-3.5-3.5c-2,0-4,0-6,0-1.908,0-3.5,1.592-3.5,3.5s1.592,3.5 3.5,3.5z"/>
<path d="m274.25,279.445c.667,0 1.333,0 2,0 1.908,0 3.5-1.592 3.5-3.5s-1.592-3.5-3.5-3.5c-.667,0-1.333,0-2,0-1.908,0-3.5,1.592-3.5,3.5s1.592,3.5 3.5,3.5z"/>
<path d="m268.417,256.445c-2,0-4,0-6,0-1.908,0-3.5,1.592-3.5,3.5s1.592,3.5 3.5,3.5c2,0 4,0 6,0 1.908,0 3.5-1.592 3.5-3.5s-1.592-3.5-3.5-3.5z"/>
<path d="m262.834,241.612c-.667,0-1.333,0-2,0-1.908,0-3.5,1.592-3.5,3.5s1.592,3.5 3.5,3.5c.667,0 1.333,0 2,0 1.908,0 3.5-1.592 3.5-3.5s-1.592-3.5-3.5-3.5z"/>
<path d="m286.5,244.612c-5.333,0-10.667,0-16,0-4.514,0-4.514,7 0,7 5.333,0 10.667,0 16,0 4.514,0 4.514-7 0-7z"/>
<path d="m277.5,252.612c-5.083,0-10.167,0-15.25,0-4.514,0-4.514,7 0,7 5.083,0 10.167,0 15.25,0 4.514,0 4.514-7 0-7z"/>
<path d="m283.834,239.612c-2,0-4,0-6,0-1.908,0-3.5,1.592-3.5,3.5s1.592,3.5 3.5,3.5c2,0 4,0 6,0 1.908,0 3.5-1.592 3.5-3.5s-1.592-3.5-3.5-3.5z"/>
<path d="m266.5,236.612c-2,0-4,0-6,0-1.908,0-3.5,1.592-3.5,3.5s1.592,3.5 3.5,3.5c2,0 4,0 6,0 1.908,0 3.5-1.592 3.5-3.5s-1.592-3.5-3.5-3.5z"/>
<path d="m262.916,284.736c-.667,0-1.333,0-2,0-1.908,0-3.5,1.592-3.5,3.5s1.592,3.5 3.5,3.5c.667,0 1.333,0 2,0 1.908,0 3.5-1.592 3.5-3.5s-1.592-3.5-3.5-3.5z"/>
<path d="m287.582,284.736c-5.333,0-10.667,0-16,0-4.514,0-4.514,7 0,7 5.333,0 10.667,0 16,0 4.514,0 4.514-7 0-7z"/>
<path d="m288.5,270.445c-2,0-4,0-6,0-1.908,0-3.5,1.592-3.5,3.5s1.592,3.5 3.5,3.5c2,0 4,0 6,0 1.908,0 3.5-1.592 3.5-3.5s-1.592-3.5-3.5-3.5z"/>
<path d="m287.834,236.612c-2,0-4,0-6,0-1.908,0-3.5,1.592-3.5,3.5s1.592,3.5 3.5,3.5c2,0 4,0 6,0 1.908,0 3.5-1.592 3.5-3.5s-1.592-3.5-3.5-3.5z"/>
<path d="m98.499,273.445c.667,0 1.333,0 2,0 1.908,0 3.5-1.592 3.5-3.5s-1.592-3.5-3.5-3.5c-.667,0-1.333,0-2,0-1.908,0-3.5,1.592-3.5,3.5s1.592,3.5 3.5,3.5z"/>
<path d="m73.833,279.445c5.333,0 10.667,0 16,0 4.514,0 4.514-7 0-7-5.333,0-10.667,0-16,0-4.514,0-4.514,7 0,7z"/>
<path d="m85.833,268.445c5.083,0 10.167,0 15.25,0 4.514,0 4.514-7 0-7-5.083,0-10.167,0-15.25,0-4.515,0-4.515,7 0,7z"/>
<path d="m73.458,291.736c2,0 4,0 6,0 1.908,0 3.5-1.592 3.5-3.5s-1.592-3.5-3.5-3.5c-2,0-4,0-6,0-1.908,0-3.5,1.592-3.5,3.5s1.592,3.5 3.5,3.5z"/>
<path d="m94.165,285.682c2,0 4,0 6,0 1.908,0 3.5-1.592 3.5-3.5s-1.592-3.5-3.5-3.5c-2,0-4,0-6,0-1.908,0-3.5,1.592-3.5,3.5s1.592,3.5 3.5,3.5z"/>
<path d="m88.083,252.612c-3,0-6,0-9,0-4.514,0-4.514,7 0,7 3,0 6,0 9,0 4.514,0 4.514-7 0-7z"/>
<path d="m101.083,236.612c-5.333,0-10.667,0-16,0-4.514,0-4.514,7 0,7 5.333,0 10.667,0 16,0 4.514,0 4.514-7 0-7z"/>
<path d="m100.416,241.612c-2,0-4,0-6,0-1.908,0-3.5,1.592-3.5,3.5s1.592,3.5 3.5,3.5c2,0 4,0 6,0 1.908,0 3.5-1.592 3.5-3.5s-1.592-3.5-3.5-3.5z"/>
<path d="m80.708,237.945c-1.083,0-2.167,0-3.25,0-1.908,0-3.5,1.592-3.5,3.5s1.592,3.5 3.5,3.5c1.083,0 2.167,0 3.25,0 1.908,0 3.5-1.592 3.5-3.5s-1.593-3.5-3.5-3.5z"/>
<path d="m98.25,259.612c.667,0 1.333,0 2,0 1.908,0 3.5-1.592 3.5-3.5s-1.592-3.5-3.5-3.5c-.667,0-1.333,0-2,0-1.908,0-3.5,1.592-3.5,3.5s1.592,3.5 3.5,3.5z"/>
<path d="m100.498,284.736c-2,0-4,0-6,0-1.908,0-3.5,1.592-3.5,3.5s1.592,3.5 3.5,3.5c2,0 4,0 6,0 1.908,0 3.5-1.592 3.5-3.5s-1.593-3.5-3.5-3.5z"/>
<path d="m84.583,281.167c-.667,0-1.333,0-2,0-1.908,0-3.5,1.592-3.5,3.5s1.592,3.5 3.5,3.5c.667,0 1.333,0 2,0 1.908,0 3.5-1.592 3.5-3.5s-1.592-3.5-3.5-3.5z"/>
<path d="m72.167,237.25c10.611,0 21.222,0 31.833,0 1.935,0 1.935-3 0-3-10.611,0-21.222,0-31.833,0-1.935,0-1.935,3 0,3z"/>
<path d="m79.832,244.167c-2,0-4,0-6,0-1.908,0-3.5,1.592-3.5,3.5s1.592,3.5 3.5,3.5c2,0 4,0 6,0 1.908,0 3.5-1.592 3.5-3.5s-1.593-3.5-3.5-3.5z"/>
<path d="m78.832,263.445c-1.833,0-3.667,0-5.5,0-1.908,0-3.5,1.592-3.5,3.5s1.592,3.5 3.5,3.5c1.833,0 3.667,0 5.5,0 1.908,0 3.5-1.592 3.5-3.5s-1.593-3.5-3.5-3.5z"/>
<path d="m155.004,88.488c38.417,11.417 76.833,22.833 115.25,34.25 6.197,1.842 8.824-7.81 2.658-9.643-38.417-11.417-76.833-22.833-115.25-34.25-6.197-1.841-8.825,7.811-2.658,9.643z"/>
<path d="m100.606,123.359c21.896-14.672 43.792-29.343 65.688-44.015 5.327-3.569 .327-12.236-5.047-8.635-21.896,14.672-43.792,29.343-65.688,44.015-5.327,3.57-.327,12.236 5.047,8.635z"/>
<path d="m244.523,281.64c.119-.612 2.896-.431 .289-.431-1.465,0-2.931,0-4.396,0-5.081,0-10.163,0-15.244,0-15.325,0-30.651,0-45.977,0-15.068,0-30.137,0-45.206,0-4.76,0-9.52,0-14.279,0-1.186,0-2.373,0-3.559,0-2.261,0 .889,.243 .889,1.638 0-50.77 0-101.539 0-152.309 0-6.875 0-13.751 0-20.626-.826,1.439-1.651,2.878-2.477,4.317 13.553-9.064 27.106-18.128 40.659-27.192-1.284,.168-2.568,.336-3.853,.504 23.649,7.156 47.298,14.312 70.946,21.468 5.637,1.705 11.272,3.411 16.909,5.116 1.472,.445 2.944,.891 4.417,1.336 1.829,.554 .701,.547 .701-1.137 0,6.301 0,12.601 0,18.902 0,49.911 0,99.823 0,149.734 0,.003 0,.005 0,.008 0,6.448 10,6.448 10,0 0-49.693 0-99.387 0-149.08 0-6.503 0-13.007 0-19.51 0-8.85-15.068-10.686-21.594-12.661-25.828-7.815-51.655-15.63-77.482-23.445-3.27-.989-5.322,.283-7.953,2.042-5.823,3.895-11.646,7.789-17.469,11.683-5.823,3.894-11.646,7.788-17.469,11.683-2.637,1.763-5.337,3.214-5.337,6.838 0,21.712 0,43.424 0,65.137 0,29.982 0,59.966 0,89.949 0,5.785 0,11.57 0,17.355 0,10.699 14.644,8.248 21.506,8.248 25.049,0 50.099,0 75.148,0 10.905,0 21.812,0 32.718,0 6.465,0 16.082,1.651 17.753-6.911 1.233-6.297-8.405-8.983-9.64-2.656z"/>
<path d="m119.521,189.112 122.469,0"/>
<path d="m119.521,190.612c40.823,0 81.646,0 122.47,0 1.935,0 1.935-3 0-3-40.823,0-81.646,0-122.47,0-1.935,0-1.935,3 0,3z"/>
<path d="m119.521,235.75 122.469,0"/>
<path d="m119.521,237.25c40.823,0 81.646,0 122.47,0 1.935,0 1.935-3 0-3-40.823,0-81.646,0-122.47,0-1.935,0-1.935,3 0,3z"/>
<path d="m119.521,142.474 123.247,.343"/>
<path d="m119.521,143.974c41.083,.114 82.165,.229 123.247,.343 1.935,.005 1.935-2.995 0-3-41.082-.114-82.165-.229-123.247-.343-1.936-.005-1.935,2.995 0,3z"/>
</g>
</svg>
