<svg xmlns="http://www.w3.org/2000/svg" viewBox="20 20 321 321">
<g fill="#fff">
<path d="m134.224,152.667c-.926-2.889-1.92-5.857-2.985-8.902s-2.126-6.079-3.182-9.098h-32.479c-1.05,3.034-2.104,6.073-3.158,9.122-1.056,3.048-2.038,6.009-2.947,8.878h-19.44c3.129-8.959 6.097-17.239 8.906-24.84 2.809-7.6 5.556-14.76 8.244-21.48 2.689-6.72 5.336-13.099 7.944-19.14 2.608-6.04 5.317-11.94 8.126-17.7h17.745c2.732,5.76 5.425,11.661 8.078,17.7 2.651,6.041 5.325,12.42 8.018,19.14 2.692,6.72 5.445,13.88 8.257,21.48 2.813,7.601 5.787,15.881 8.921,24.84h-20.048zm-22.491-64.319c-.418,1.208-1.029,2.852-1.833,4.929-.805,2.08-1.72,4.481-2.747,7.206-1.027,2.725-2.177,5.725-3.446,9-1.27,3.276-2.559,6.71-3.87,10.305h23.781c-1.273-3.606-2.505-7.052-3.697-10.337-1.193-3.285-2.327-6.291-3.399-9.017-1.075-2.724-2.016-5.124-2.826-7.202-.812-2.076-1.466-3.703-1.963-4.884z"/>
<path d="m133.78,221.467c-2.561,2.641-5.604,6.061-9.125,10.26-3.521,4.2-7.163,8.781-10.924,13.74-3.761,4.961-7.483,10.08-11.166,15.36s-6.964,10.319-9.844,15.12h42.379v15.72h-65.4v-11.16c2.239-4.08 4.98-8.619 8.22-13.62 3.24-4.998 6.619-10.039 10.14-15.119 3.52-5.08 7.099-10 10.74-14.761 3.64-4.759 7.02-9.019 10.14-12.78h-37.32v-15.72h62.16v12.96z"/>
</g>
<path fill="none" stroke="#fff" stroke-width="10" d="m264.741,209.24c2.141,0 3.876-.542 3.876-1.209v-20.97c0-.667-1.735-1.21-3.876-1.21h-75.571c-2.141,0-3.875,.541-3.875,1.21v20.97c0,.668 1.734,1.209 3.875,1.209h75.571z"/>
<path fill="#fff" d="m164.485,212.283c19.552,25.581 39.104,51.162 58.656,76.743 2.429,3.178 6.206,3.178 8.635,0 19.552-25.581 39.104-51.163 58.655-76.744 2.39-3.126-.882-7.523-4.317-7.523-39.104,0-78.207,.001-117.311,.001-6.449,0-6.449,10 0,10 39.104,0 78.208-.001 117.311-.001-1.439-2.508-2.878-5.016-4.317-7.523-19.552,25.581-39.104,51.163-58.655,76.744 2.878,0 5.757,0 8.635,0-19.552-25.581-39.104-51.162-58.656-76.743-3.861-5.05-12.554-.079-8.636,5.046z"/>
<g fill="none" stroke="#fff" stroke-width="10">
<path d="m264.741,164.75c2.141,0 3.876-.542 3.876-1.209v-20.97c0-.667-1.735-1.209-3.876-1.209h-75.571c-2.141,0-3.875,.542-3.875,1.21v20.969c0,.668 1.734,1.209 3.875,1.21l75.571-.001z"/>
<path d="m265.243,120.389c2.141,0 3.876-.542 3.876-1.209v-20.97c0-.667-1.735-1.209-3.876-1.209h-75.571c-2.141,0-3.875,.542-3.875,1.21v20.969c0,.668 1.734,1.209 3.875,1.21l75.571-.001z"/>
</g>
</svg>
