<svg xmlns="http://www.w3.org/2000/svg" viewBox="20 20 321 321">
<path fill="none" stroke="#fff" stroke-width="10" d="m286.833,252.104c0,3.217-2.241,6.3-5.007,6.884l-71.986,21.692c-2.765,.585-5.006-1.551-5.006-4.768v-122.015c0-3.217 2.241-6.299 5.006-6.884l71.986-21.692c2.766-.584 5.007,1.551 5.007,4.768v122.015z"/>
<path fill="#fff" d="m206.707,220.089c1.938-.399 3.874-.8 5.812-1.199 2.67-.551 4.179-3.654 3.492-6.15-.758-2.754-3.483-4.043-6.15-3.492-1.938,.399-3.874,.8-5.812,1.199-2.67,.551-4.179,3.654-3.492,6.15 .757,2.754 3.483,4.043 6.15,3.492z"/>
<path fill="none" stroke="#fff" stroke-width="10" d="m286.816,250.303c0,3.91-3.156,7.082-7.049,7.082l-197.886,.021c-3.894,0-7.05-3.171-7.05-7.083v-127.5c0-3.911 3.156-7.083 7.05-7.083l197.886-.021c3.893,0 7.049,3.172 7.049,7.083v127.501z"/>
<path fill="#fff" d="m174.52,191.584c2.104,0 4.208,0 6.313,0 2.726,0 5-2.274 5-5s-2.273-5-5-5c-2.104,0-4.208,0-6.313,0-2.726,0-5,2.274-5,5s2.274,5 5,5z"/>
<g fill="none" stroke="#fff" stroke-width="10">
<path d="m180.824,116.583 0,137.175"/>
<path d="m286.816,120.208c0,2.485-2.71,4.5-6.053,4.5l-199.879,.021c-3.342,0-6.052-2.015-6.052-4.5v-9c0-2.485 2.71-4.5 6.052-4.5l199.879-.021c3.343,0 6.053,2.015 6.053,4.5v9z"/>
</g>
</svg>
