<svg xmlns="http://www.w3.org/2000/svg" viewBox="20 20 321 321">
<path fill="none" stroke="#fff" stroke-width="10" d="m238.852,187.987c0,2.916-2.363,5.28-5.279,5.28h-147.841c-2.917,0-5.28-2.364-5.28-5.28v-95.04c0-2.916 2.364-5.28 5.28-5.28h147.84c2.916,0 5.279,2.364 5.279,5.28v95.04z"/>
<path fill="#fff" d="m155.208,145.343c3.148,0 6.296,0 9.444,0 6.449,0 6.449-10 0-10-3.148,0-6.296,0-9.444,0-6.448,0-6.448,10 0,10z"/>
<path fill="none" stroke="#fff" stroke-width="10" d="m159.828,87.916 0,102.736"/>
<g fill="#fff">
<path stroke="#fff" stroke-width="10" d="m244.585,88.771c0,.407-2.53,.738-5.653,.738h-158.293c-3.122,0-5.653-.331-5.653-.738v-13.275c0-.407 2.531-.738 5.653-.738h158.293c3.123,0 5.653,.331 5.653,.738v13.275z"/>
<path d="m75.252,103.166c49.739,0 99.478,.001 149.217,.002 6.75,0 13.5,0 20.25,0 4.514,0 4.514-7 0-7-49.739,0-99.478-.001-149.216-.002-6.75,0-13.5,0-20.25,0-4.515,0-4.515,7-.001,7z"/>
<path d="m75.252,113.566c49.739,0 99.478,.001 149.217,.002 6.75,0 13.5,0 20.25,0 4.514,0 4.514-7 0-7-49.739,0-99.478-.001-149.216-.002-6.75,0-13.5,0-20.25,0-4.515,0-4.515,7-.001,7z"/>
<path d="m75.252,123.966c49.739,0 99.478,.001 149.217,.002 6.75,0 13.5,0 20.25,0 4.514,0 4.514-7 0-7-49.739,0-99.478-.001-149.216-.002-6.75,0-13.5,0-20.25,0-4.515,0-4.515,7-.001,7z"/>
<path d="m75.252,134.366c49.739,0 99.478,.001 149.217,.002 6.75,0 13.5,0 20.25,0 4.514,0 4.514-7 0-7-49.739,0-99.478-.001-149.216-.002-6.75,0-13.5,0-20.25,0-4.515-0-4.515,7-.001,7z"/>
<path d="m75.313,144.643c49.739,0 99.478,.001 149.217,.002 6.75,0 13.5,0 20.25,0 4.514,0 4.514-7 0-7-49.739,0-99.478-.001-149.216-.002-6.75,0-13.5,0-20.25,0-4.515,0-4.515,7-.001,7z"/>
<path d="m75.313,155.043c49.739,0 99.478,.001 149.217,.002 6.75,0 13.5,0 20.25,0 4.514,0 4.514-7 0-7-49.739,0-99.478-.001-149.216-.002-6.75,0-13.5,0-20.25,0-4.515,0-4.515,7-.001,7z"/>
<path d="m75.313,165.443c49.739,0 99.478,.001 149.217,.002 6.75,0 13.5,0 20.25,0 4.514,0 4.514-7 0-7-49.739,0-99.478-.001-149.216-.002-6.75,0-13.5,0-20.25,0-4.515,0-4.515,7-.001,7z"/>
<path d="m75.313,175.843c49.739,0 99.478,.001 149.217,.002 6.75,0 13.5,0 20.25,0 4.514,0 4.514-7 0-7-49.739,0-99.478-.001-149.216-.002-6.75,0-13.5,0-20.25,0-4.515,0-4.515,7-.001,7z"/>
</g>
<path fill="none" stroke="#fff" stroke-width="10" d="m271.988,269.805c1.464,0 2.651,.371 2.651,.828v14.345c0,.457-1.188,.827-2.651,.827h-51.698c-1.464,0-2.65-.37-2.65-.827v-14.345c0-.457 1.187-.828 2.65-.828h51.698z"/>
<path fill="#fff" d="m210.675,271.975c13.375-17.5 26.751-35 40.126-52.5-2.878,0-5.757,0-8.635,0 13.375,17.5 26.75,35 40.125,52.5 1.439-2.508 2.878-5.016 4.317-7.523-26.75,0-53.501,0-80.251,0-6.448,0-6.448,10 0,10 26.75,0 53.501,0 80.251,0 3.436,0 6.707-4.396 4.317-7.523-13.375-17.5-26.75-35-40.125-52.5-2.429-3.178-6.206-3.178-8.635,0-13.375,17.5-26.751,35-40.126,52.5-3.917,5.124 4.776,10.095 8.636,5.046z"/>
</svg>
