<svg xmlns="http://www.w3.org/2000/svg" viewBox="20 20 321 321">
<path fill="none" stroke="#fff" stroke-width="10" d="m239.016,187.987c0,2.916-2.363,5.28-5.279,5.28h-147.841c-2.917,0-5.28-2.364-5.28-5.28v-95.04c0-2.916 2.364-5.28 5.28-5.28h147.84c2.916,0 5.279,2.364 5.279,5.28v95.04z"/>
<path fill="#fff" d="m155.373,145.343c3.148,0 6.296,0 9.444,0 6.449,0 6.449-10 0-10-3.148,0-6.296,0-9.444,0-6.449,0-6.449,10 0,10z"/>
<path fill="none" stroke="#fff" stroke-width="10" d="m159.992,87.916 0,102.736"/>
<g fill="#fff">
<path stroke="#fff" stroke-width="10" d="m244.749,88.771c0,.407-2.53,.738-5.653,.738h-158.293c-3.122,0-5.653-.331-5.653-.738v-13.275c0-.407 2.531-.738 5.653-.738h158.293c3.123,0 5.653,.331 5.653,.738v13.275z"/>
<path d="m75.416,103.166c49.739,0 99.478,.001 149.217,.002 6.75,0 13.5,0 20.25,0 4.514,0 4.514-7 0-7-49.739,0-99.478-.001-149.216-.002-6.75,0-13.5,0-20.25,0-4.515,0-4.515,7-.001,7z"/>
<path d="m75.416,113.566c49.739,0 99.478,.001 149.217,.002 6.75,0 13.5,0 20.25,0 4.514,0 4.514-7 0-7-49.739,0-99.478-.001-149.216-.002-6.75,0-13.5,0-20.25,0-4.515,0-4.515,7-.001,7z"/>
<path d="m75.416,123.966c49.739,0 99.478,.001 149.217,.002 6.75,0 13.5,0 20.25,0 4.514,0 4.514-7 0-7-49.739,0-99.478-.001-149.216-.002-6.75,0-13.5,0-20.25,0-4.515,0-4.515,7-.001,7z"/>
<path d="m75.416,134.366c49.739,0 99.478,.001 149.217,.002 6.75,0 13.5,0 20.25,0 4.514,0 4.514-7 0-7-49.739,0-99.478-.001-149.216-.002-6.75,0-13.5,0-20.25,0-4.515-0-4.515,7-.001,7z"/>
<path d="m228.291,242.667c-.039,.181-1.229,.093 .117,.093 .783,0 1.566,0 2.349,0 3.004,0 6.008,0 9.012,0 7.986,0 15.973,0 23.96,0 5.584,0 11.168,0 16.753,0 1.302,0-.009-1.834-.009,.346 0,2.743 0,5.486 0,8.229 0,7.871 0,15.743 0,23.615 0,2.745 0,5.489 0,8.234 0,.65 0,1.301 0,1.951 0,.365 1.497-.762 .261-.762-13.369,0-26.737,0-40.106,0-4.227,0-8.453,0-12.68,0-.953,0 .469,.854 .469,.906 0-.55 0-1.101 0-1.65 0-2.61 0-5.22 0-7.83 0-11.354 0-22.709 0-34.063 0-4.514-7-4.514-7,0 0,12.402 0,24.806 0,37.208 0,4.739-.993,11.133 5.221,12.305 3.895,.734 8.358,.125 12.292,.125 13.753,0 27.506,0 41.259,0 4.935,0 7.285-3.078 7.285-7.744 0-6.688 0-13.375 0-20.063 0-7.277 0-14.554 0-21.831 0-7.954-11.712-5.977-16.691-5.977-10.338,0-20.675,0-31.013,0-5.363,0-16.663-2.189-18.228,5.046-.953,4.402 5.795,6.273 6.749,1.862z"/>
<path d="m225.639,280.281c9.953,0 19.906,0 29.859,0 4.514,0 4.514-7 0-7-9.953,0-19.906,0-29.859,0-4.514,0-4.514,7 0,7z"/>
<path d="m227.039,268.318c9.486,0 18.973,0 28.459,0 4.514,0 4.514-7 0-7-9.486,0-18.973,0-28.459,0-4.514,0-4.514,7 0,7z"/>
<path d="m227.039,256.355c9.486,0 18.973,0 28.459,0 4.514,0 4.514-7 0-7-9.486,0-18.973,0-28.459,0-4.514-0-4.514,7 0,7z"/>
<path d="m248.67,211.438c2.103-2.102 4.204-4.203 6.306-6.305 1.041-1.04 2.082-2.081 3.123-3.122 .326-.327 1.07-.822-.196,.061 .217-.151 1.968-.396 2.538-.506 1.96-.373 3.968-.5 5.958-.565 2.414-.079 1.324,.841-.574-1.059 .273,.273 .547,.547 .82,.82 2.464,2.465 4.929,4.93 7.394,7.395 2.579,2.579 5.158,5.159 7.737,7.738 1.791,1.79 .339,1.199 .08-.998 .249,2.114-.063,4.435-.36,6.527-.147,1.03-1.62,4.375-.171,2.925-.975,.975-1.949,1.95-2.925,2.926-2.315,2.315-4.631,4.632-6.946,6.948-4.563,4.563 2.508,11.635 7.07,7.07 2.706-2.706 5.413-5.413 8.119-8.12 3.018-3.019 4.038-5.883 4.647-10.158 .563-3.953 1.813-9.935-1.378-13.126-2.702-2.702-5.404-5.404-8.106-8.106-2.875-2.876-5.751-5.752-8.627-8.628-3.068-3.068-8.079-2.207-11.973-1.731-4.31,.527-7.867,1.206-10.981,4.319-2.875,2.875-5.75,5.75-8.625,8.625-4.565,4.563 2.506,11.633 7.07,7.07z"/>
</g>
</svg>
