<svg xmlns="http://www.w3.org/2000/svg" viewBox="20 20 321 321">
<g fill="#fff">
<path d="m136.987,107.049c-16.754,.424-29.773,13.444-30.196,30.198-.114,4.517 6.886,4.506 7,0 .326-12.901 10.295-22.871 23.196-23.198 4.506-.114 4.517-7.114 0-7z"/>
<path d="m137.231,88.906c-26.806,.409-48.234,21.836-48.643,48.642-.069,4.517 6.931,4.51 7,0 .351-22.979 18.664-41.292 41.643-41.642 4.51-.069 4.517-7.069 0-7z"/>
<path d="m137.356,71.044c-36.539,.399-66.105,29.963-66.504,66.502-.049,4.516 6.951,4.511 7,0 .357-32.726 26.779-59.145 59.504-59.502 4.511-.049 4.516-7.049 0-7z"/>
<path d="m285.456,239.009c1.083,1.624-5.593,6.83-6.919,8.161-5.408,5.432-10.816,10.863-16.224,16.295-1.482,1.488-21.521,21.726-21.63,21.617-14.138-14.088-28.274-28.175-42.412-42.263-21.862-21.785-43.724-43.569-65.586-65.354-5.503-5.484-11.007-10.969-16.511-16.453-1.321-1.316 .57-2.012 1.806-3.253 4.507-4.527 9.015-9.053 13.522-13.58 9.449-9.49 18.897-18.979 28.346-28.469 1.233-1.238 1.216-.488 2.462,.753 2.374,2.366 4.749,4.731 7.123,7.098 20.319,20.247 40.637,40.493 60.957,60.74 18.538,18.473 37.076,36.945 55.614,55.417 3.199,3.188 8.15-1.761 4.949-4.949-35.339-35.214-70.679-70.428-106.018-105.642-6.004-5.983-12.009-11.967-18.014-17.95-2.949-2.938-6.524-4.451-10.441-1.84-2.867,1.911-5.248,5.106-7.656,7.524-10.64,10.686-21.28,21.372-31.92,32.058-2.646,2.658-5.658,5.171-7.738,8.315-2.288,3.458 .382,7.06 2.786,9.455 37.558,37.425 75.116,74.85 112.673,112.276 3.619,3.606 7.239,7.214 10.858,10.82 6.362,6.34 12.362-1.868 16.611-6.137 8.902-8.939 17.804-17.88 26.706-26.82 3.418-3.433 6.835-6.865 10.253-10.298 3.136-3.149 5.355-6.688 2.446-11.053-2.488-3.738-8.554-.237-6.043,3.532z"/>
<path d="m150.645,155.629c1.889-1.896 3.778-3.792 5.668-5.688 1.346-1.351 1.35-3.6 0-4.95-1.347-1.347-3.604-1.351-4.95,0-1.889,1.896-3.778,3.792-5.668,5.688-1.346,1.351-1.35,3.6 0,4.95 1.346,1.347 3.603,1.351 4.95,0z"/>
<path d="m163.47,142.759c1.89-1.896 3.779-3.793 5.669-5.689 1.346-1.351 1.35-3.6 0-4.95-1.347-1.346-3.604-1.351-4.95,0-1.89,1.896-3.779,3.793-5.669,5.689-1.346,1.351-1.35,3.6 0,4.95 1.346,1.346 3.604,1.351 4.95,0z"/>
<path d="m137.705,168.616c1.889-1.896 3.778-3.792 5.667-5.688 1.346-1.351 1.35-3.6 0-4.95-1.347-1.346-3.604-1.351-4.95,0-1.889,1.896-3.778,3.792-5.667,5.688-1.346,1.351-1.35,3.6 0,4.95 1.346,1.346 3.603,1.35 4.95,0z"/>
<path d="m159.644,164.985c1.89-1.896 3.779-3.792 5.669-5.688 1.346-1.351 1.35-3.6 0-4.95-1.347-1.347-3.604-1.351-4.95,0-1.89,1.896-3.779,3.792-5.669,5.688-1.346,1.351-1.35,3.6 0,4.95 1.346,1.347 3.603,1.351 4.95,0z"/>
<path d="m172.469,152.115c1.889-1.896 3.779-3.792 5.668-5.688 1.346-1.351 1.35-3.6 0-4.95-1.347-1.346-3.604-1.351-4.95,0-1.889,1.896-3.779,3.792-5.668,5.688-1.346,1.351-1.35,3.6 0,4.95 1.346,1.346 3.604,1.35 4.95,0z"/>
<path d="m146.704,177.971c1.889-1.896 3.778-3.793 5.668-5.689 1.346-1.351 1.35-3.6 0-4.95-1.347-1.346-3.604-1.351-4.95,0-1.889,1.896-3.778,3.793-5.668,5.689-1.346,1.351-1.35,3.6 0,4.95 1.346,1.346 3.603,1.35 4.95,0z"/>
<path d="m151.84,138.811c2.146-2.155 4.293-4.31 6.44-6.465 3.188-3.201-1.761-8.151-4.95-4.95-2.146,2.155-4.293,4.31-6.44,6.465-3.188,3.2 1.761,8.15 4.95,4.95z"/>
<path d="m157.918,190.71c2.224-2.232 4.449-4.465 6.673-6.698 3.188-3.2-1.761-8.15-4.95-4.95-2.224,2.233-4.449,4.465-6.673,6.699-3.188,3.2 1.761,8.15 4.95,4.949z"/>
<path d="m205.006,209.267c1.89-1.896 3.779-3.791 5.668-5.688 1.347-1.351 1.351-3.6 0-4.949-1.347-1.347-3.604-1.351-4.949,0-1.89,1.896-3.779,3.791-5.668,5.688-1.347,1.351-1.351,3.6 0,4.949 1.346,1.346 3.603,1.35 4.949,0z"/>
<path d="m217.832,196.396c1.89-1.896 3.779-3.793 5.668-5.689 1.346-1.351 1.351-3.6 0-4.949-1.347-1.347-3.604-1.352-4.949,0-1.89,1.896-3.779,3.793-5.668,5.689-1.346,1.351-1.351,3.6 0,4.949 1.346,1.347 3.603,1.352 4.949,0z"/>
<path d="m192.066,222.253c1.89-1.896 3.779-3.792 5.668-5.688 1.347-1.351 1.351-3.6 0-4.949-1.347-1.347-3.604-1.352-4.949,0-1.89,1.896-3.779,3.792-5.668,5.688-1.347,1.351-1.351,3.6 0,4.949 1.347,1.347 3.604,1.351 4.949,0z"/>
<path d="m215.48,220.092c1.89-1.896 3.778-3.793 5.667-5.689 1.346-1.351 1.351-3.599 0-4.949-1.346-1.347-3.604-1.352-4.949,0-1.89,1.896-3.778,3.793-5.667,5.689-1.346,1.351-1.351,3.599 0,4.949 1.346,1.346 3.604,1.351 4.949,0z"/>
<path d="m228.305,207.22c1.89-1.896 3.779-3.791 5.669-5.688 1.347-1.351 1.351-3.6 0-4.949-1.347-1.347-3.604-1.351-4.949,0-1.89,1.896-3.779,3.791-5.669,5.688-1.347,1.351-1.351,3.6 0,4.949 1.346,1.346 3.603,1.35 4.949,0z"/>
<path d="m202.539,233.077c1.89-1.896 3.779-3.793 5.669-5.689 1.347-1.351 1.351-3.6 0-4.949-1.347-1.347-3.604-1.352-4.949,0-1.89,1.896-3.779,3.793-5.669,5.689-1.347,1.351-1.351,3.6 0,4.949 1.347,1.347 3.603,1.352 4.949,0z"/>
<path d="m226.609,231.067c1.891-1.896 3.78-3.792 5.67-5.688 1.347-1.351 1.351-3.6 0-4.949-1.347-1.347-3.604-1.351-4.949,0-1.891,1.896-3.78,3.792-5.67,5.688-1.347,1.351-1.351,3.6 0,4.949 1.347,1.347 3.604,1.351 4.949,0z"/>
<path d="m239.435,218.196c1.89-1.896 3.779-3.792 5.669-5.688 1.347-1.351 1.351-3.6 0-4.949-1.347-1.347-3.604-1.351-4.949,0-1.89,1.896-3.779,3.792-5.669,5.688-1.347,1.351-1.351,3.6 0,4.949 1.346,1.347 3.603,1.351 4.949,0z"/>
<path d="m213.671,244.055c1.89-1.896 3.778-3.793 5.667-5.689 1.346-1.351 1.351-3.599 0-4.949-1.346-1.347-3.604-1.352-4.949,0-1.89,1.896-3.778,3.793-5.667,5.689-1.346,1.351-1.351,3.599 0,4.949 1.345,1.346 3.603,1.351 4.949,0z"/>
<path d="m210.87,187.464c1.396-1.4 2.791-2.801 4.187-4.201 1.347-1.351 1.351-3.6 0-4.95-1.347-1.346-3.604-1.351-4.949,0-1.396,1.401-2.791,2.802-4.187,4.202-1.347,1.351-1.351,3.6 0,4.949 1.347,1.347 3.603,1.351 4.949-0z"/>
<path d="m235.014,263.391c.488-.489 .976-.979 1.463-1.469 1.346-1.351 1.351-3.599 0-4.949-1.346-1.347-3.604-1.352-4.949,0-.488,.489-.976,.979-1.463,1.469-1.346,1.351-1.351,3.599 0,4.949 1.345,1.346 3.603,1.351 4.949,0z"/>
<path d="m244.161,254.198c.488-.489 .977-.979 1.464-1.469 1.347-1.351 1.351-3.6 0-4.949-1.347-1.347-3.604-1.351-4.949,0-.488,.489-.977,.979-1.464,1.469-1.347,1.351-1.351,3.6 0,4.949 1.347,1.347 3.603,1.351 4.949,0z"/>
<path d="m253.432,244.887c.487-.488 .975-.978 1.462-1.467 1.347-1.351 1.351-3.6 0-4.949-1.347-1.347-3.604-1.351-4.949,0-.487,.488-.975,.978-1.462,1.467-1.347,1.351-1.351,3.6 0,4.949 1.346,1.346 3.603,1.35 4.949,0z"/>
<path d="m262.631,235.639c.488-.489 .976-.979 1.463-1.469 1.346-1.351 1.351-3.599 0-4.949-1.346-1.347-3.604-1.352-4.949,0-.488,.489-.976,.979-1.463,1.469-1.346,1.351-1.351,3.599 0,4.949 1.345,1.346 3.603,1.351 4.949,0z"/>
<path d="m237.508,242.494c1.89-1.896 3.778-3.793 5.667-5.689 1.346-1.351 1.351-3.599 0-4.949-1.346-1.347-3.604-1.352-4.949,0-1.89,1.896-3.778,3.793-5.667,5.689-1.346,1.351-1.351,3.599 0,4.949 1.345,1.347 3.603,1.352 4.949,0z"/>
<path d="m171.768,181.398c1.079-1.951 2.153-4.122 3.664-5.774 1.451-1.586 3.905-2.638 5.774-3.665-.504,0-1.009,0-1.514,0-.56-.27-.53-.636-.259-.053 .211,.456 .38,.933 .561,1.401 .44,1.14 .85,2.292 1.235,3.452 .118,.358 .229,.719 .318,1.085-.218-.896 .793-1.664-.013-.857-.79,.79-1.579,1.579-2.369,2.369-.719,.719-1.438,1.438-2.157,2.157-.199,.199-.397,.397-.596,.596 .797-.797 1.779-.189 .499-.58-1.134-.346-2.248-.765-3.358-1.179-.538-.2-1.072-.411-1.605-.626-.688-.278-.516-.539-.18,.159-.839-1.743-3.425-.221-2.591,1.514 .597,1.24 3.346,1.764 4.482,2.181 1.217,.446 3.699,1.828 4.875,.652 1.364-1.363 2.728-2.728 4.091-4.092 1.11-1.109 2.176-1.836 1.697-3.534-.567-2.015-1.346-4.021-2.181-5.94-.788-1.812-1.988-1.564-3.485-.715-2,1.135-4.364,2.3-5.831,4.122-1.428,1.772-2.549,3.827-3.648,5.813-.937,1.694 1.654,3.208 2.591,1.514z"/>
<path d="m197.544,188.298c-1.08,1.95-2.154,4.121-3.665,5.773-1.45,1.586-3.904,2.638-5.772,3.665 .505,0 1.009,0 1.514,0 .559,.269 .53,.636 .259,.052-.211-.455-.38-.933-.561-1.4-.44-1.141-.851-2.293-1.235-3.453-.118-.358-.229-.719-.318-1.085 .218,.896-.793,1.663 .013,.857 .79-.789 1.579-1.579 2.369-2.368 .72-.72 1.438-1.438 2.157-2.157 .199-.199 .397-.397 .596-.596-.797,.797-1.779,.189-.499,.579 1.134,.346 2.248,.765 3.357,1.179 .538,.201 1.072,.411 1.605,.626 .688,.278 .516,.54 .181-.158 .837,1.743 3.424,.221 2.59-1.514-.596-1.24-3.346-1.764-4.481-2.181-1.218-.446-3.699-1.828-4.874-.652-1.364,1.363-2.729,2.728-4.092,4.091-1.11,1.109-2.176,1.836-1.697,3.534 .568,2.016 1.346,4.022 2.181,5.94 .789,1.812 1.989,1.564 3.485,.716 2-1.136 4.363-2.302 5.83-4.122 1.429-1.771 2.55-3.826 3.648-5.813 .936-1.693-1.655-3.207-2.591-1.513z"/>
<path d="m180.318,198.318c-1.951-1.079-4.123-2.153-5.775-3.664-1.586-1.451-2.638-3.904-3.664-5.773 0,.505 0,1.009 0,1.514-.269,.559-.637,.53-.053,.259 .456-.211 .933-.38 1.401-.561 1.14-.439 2.292-.85 3.452-1.234 .358-.119 .718-.229 1.085-.318-.895,.218-1.664-.793-.857,.013 .79,.789 1.58,1.579 2.369,2.368 .719,.719 1.438,1.438 2.158,2.157 .199,.198 .397,.396 .596,.595-.797-.797-.19-1.778-.58-.498-.345,1.135-.765,2.248-1.179,3.358-.201,.538-.411,1.072-.626,1.604-.279,.69-.538,.513 .158,.181-1.745,.833-.222,3.42 1.515,2.59 1.239-.592 1.765-3.348 2.18-4.48 .447-1.217 1.829-3.701 .653-4.876-1.364-1.363-2.728-2.728-4.092-4.091-1.11-1.109-1.836-2.175-3.535-1.696-2.015,.567-4.021,1.346-5.939,2.18-1.812,.789-1.564,1.989-.715,3.485 1.135,2 2.3,4.364 4.121,5.831 1.772,1.429 3.827,2.549 5.813,3.647 1.694,.937 3.207-1.655 1.514-2.591z"/>
<path d="m188.688,171.071c1.95,1.08 4.12,2.155 5.773,3.665 1.587,1.45 2.639,3.906 3.665,5.774 0-.504 0-1.009 0-1.514 .267-.558 .638-.531 .053-.259-.455,.211-.934,.38-1.401,.561-1.14,.44-2.293,.85-3.452,1.235-.358,.119-.719,.229-1.086,.318 .896-.218 1.663,.793 .857-.013-.789-.79-1.579-1.579-2.369-2.369-.719-.719-1.438-1.438-2.157-2.157-.198-.199-.397-.397-.596-.596 .797,.797 .19,1.779 .58,.499 .346-1.134 .766-2.248 1.18-3.358 .2-.539 .41-1.073 .626-1.605 .277-.689 .539-.516-.159-.181 1.743-.838 .221-3.424-1.514-2.591-1.24,.596-1.764,3.347-2.181,4.482-.446,1.217-1.829,3.7-.653,4.875 1.364,1.364 2.728,2.728 4.092,4.092 1.11,1.109 1.836,2.175 3.535,1.696 2.015-.567 4.021-1.346 5.94-2.181 1.811-.788 1.563-1.988 .715-3.484-1.135-2-2.301-4.365-4.122-5.832-1.772-1.427-3.826-2.549-5.813-3.649-1.692-.936-3.205,1.655-1.513,2.592z"/>
<path d="m184.107,164.532c2.225-2.233 4.449-4.465 6.674-6.698 3.188-3.2-1.761-8.15-4.949-4.95-2.225,2.233-4.449,4.465-6.674,6.698-3.189,3.2 1.76,8.15 4.949,4.95z"/>
</g>
</svg>
