<svg xmlns="http://www.w3.org/2000/svg" viewBox="20 20 321 321">
<g fill="#fff">
<path d="m84.09,162.513c8.917,1.522 17.833,3.045 26.749,4.567 4.414,.754 6.304-5.991 1.861-6.75-8.917-1.522-17.833-3.045-26.749-4.567-4.414-.754-6.304,5.991-1.861,6.75z"/>
<path d="m84.364,172.128c8.917,1.522 17.833,3.045 26.749,4.567 4.414,.753 6.304-5.991 1.861-6.75-8.917-1.522-17.833-3.045-26.749-4.567-4.413-.753-6.304,5.992-1.861,6.75z"/>
<path d="m84.364,181.47c8.917,1.522 17.833,3.045 26.749,4.567 4.414,.754 6.304-5.991 1.861-6.75-8.917-1.522-17.833-3.045-26.749-4.567-4.413-.754-6.304,5.991-1.861,6.75z"/>
<path d="m90.058,191.441c5.004,.854 10.008,1.708 15.012,2.563 4.414,.754 6.304-5.991 1.861-6.75-5.004-.854-10.008-1.708-15.012-2.563-4.414-.753-6.304,5.992-1.861,6.75z"/>
</g>
<path fill="none" stroke="#fff" stroke-width="10" d="m121.034,136.573c0,7.544-6.116,13.66-13.66,13.66h-18.214c-7.544,0-13.66-6.116-13.66-13.66v-48.569c0-7.544 6.116-13.66 13.66-13.66h18.213c7.544,0 13.66,6.116 13.66,13.66v48.569z"/>
<g fill="#fff">
<path d="m197.521,111.733c0,1.104-.896,2-2,2h-1c-1.104,0-2-.896-2-2v-1c0-1.104 .896-2 2-2h1c1.104,0 2,.896 2,2v1z"/>
<path d="m240.931,188.215c0,1.104-.896,2-2,2h-1c-1.104,0-2-.896-2-2v-1c0-1.104 .896-2 2-2h1c1.104,0 2,.896 2,2v1z"/>
<path d="m210.521,163.605c0,1.529-1.239,2.769-2.769,2.769h-1.385c-1.529,0-2.769-1.24-2.769-2.769v-1.384c0-1.529 1.239-2.769 2.769-2.769h1.385c1.529,0 2.769,1.24 2.769,2.769v1.384z"/>
<path d="m263.563,137.684c0,1.529-1.24,2.769-2.77,2.769h-1.385c-1.528,0-2.768-1.24-2.768-2.769v-1.384c0-1.529 1.239-2.769 2.768-2.769h1.385c1.529,0 2.77,1.24 2.77,2.769v1.384z"/>
<path d="m230.565,104.467c0,1.508-1.224,2.731-2.731,2.731h-1.365c-1.508,0-2.73-1.223-2.73-2.731v-1.366c0-1.508 1.223-2.731 2.73-2.731h1.365c1.508,0 2.731,1.223 2.731,2.731v1.366z"/>
<path d="m288.102,185.715c0,1.104-.896,2-2,2h-1c-1.105,0-2-.896-2-2v-1c0-1.104 .895-2 2-2h1c1.104,0 2,.896 2,2v1z"/>
<path d="m215.521,72.993c0,1.104-.896,2-2,2h-1c-1.104,0-2-.896-2-2v-1c0-1.104 .896-2 2-2h1c1.104,0 2,.896 2,2v1z"/>
<path d="m275.021,155.474c0,1.104-.896,2-2,2h-1c-1.104,0-2-.896-2-2v-1c0-1.104 .896-2 2-2h1c1.104,0 2,.896 2,2v1z"/>
<path d="m257.594,125.455c0,.89-.722,1.611-1.611,1.611h-.806c-.89,0-1.61-.721-1.61-1.611v-.806c0-.89 .721-1.611 1.61-1.611h.806c.89,0 1.611,.721 1.611,1.611v.806z"/>
<path d="m237.521,144.993c0,1.104-.896,2-2,2h-1c-1.104,0-2-.896-2-2v-1c0-1.104 .896-2 2-2h1c1.104,0 2,.896 2,2v1z"/>
<path d="m257.521,214.992c0,1.105-.896,2-2,2h-1c-1.104,0-2-.895-2-2v-1c0-1.104 .896-2 2-2h1c1.104,0 2,.896 2,2v1z"/>
<path d="m197.521,144.993c0,1.104-.896,2-2,2h-1c-1.104,0-2-.896-2-2v-1c0-1.104 .896-2 2-2h1c1.104,0 2,.896 2,2v1z"/>
<path d="m257.521,164.993c0,1.104-.896,2-2,2h-1c-1.104,0-2-.896-2-2v-1c0-1.104 .896-2 2-2h1c1.104,0 2,.896 2,2v1z"/>
<path d="m257.521,84.993c0,1.104-.896,2-2,2h-1c-1.104,0-2-.896-2-2v-1c0-1.104 .896-2 2-2h1c1.104,0 2,.896 2,2v1z"/>
<path d="m287.361,104.653c0,1.204-.977,2.181-2.18,2.181h-1.092c-1.203,0-2.181-.977-2.181-2.181v-1.091c0-1.204 .978-2.181 2.181-2.181h1.092c1.203,0 2.18,.977 2.18,2.181v1.091z"/>
<path d="m186.201,114.275c0,.772-.626,1.398-1.398,1.398h-.699c-.772,0-1.398-.626-1.398-1.398v-.7c0-.772 .626-1.398 1.398-1.398h.699c.772,0 1.398,.626 1.398,1.398v.7z"/>
<path d="m212.386,235.927c0-.826 .67-1.496 1.497-1.496h.748c.826,0 1.496,.67 1.496,1.496v.748c0,.827-.67,1.497-1.496,1.497h-.748c-.827,0-1.497-.67-1.497-1.497v-.748z"/>
<path d="m263.931,260.857c0-1.528 1.239-2.768 2.769-2.768h1.385c1.529,0 2.769,1.239 2.769,2.768v1.385c0,1.529-1.239,2.77-2.769,2.77h-1.385c-1.529,0-2.769-1.24-2.769-2.77v-1.385z"/>
<path d="m204.431,247.6c0-1.974 1.601-3.574 3.573-3.574h1.787c1.973,0 3.573,1.601 3.573,3.574v1.786c0,1.974-1.601,3.573-3.573,3.573h-1.787c-1.973,0-3.573-1.6-3.573-3.573v-1.786z"/>
<path d="m186.35,227.024c0-1.104 .896-2 2-2h1c1.105,0 2,.896 2,2v1c0,1.104-.895,2-2,2h-1c-1.104,0-2-.896-2-2v-1z"/>
<path d="m199.431,268.989c0-1.104 .896-2 2-2h1c1.104,0 2,.896 2,2v1c0,1.104-.896,2-2,2h-1c-1.104,0-2-.896-2-2v-1z"/>
<path d="m236.931,279.471c0-1.104 .896-2 2-2h1c1.104,0 2,.896 2,2v1c0,1.104-.896,2-2,2h-1c-1.104,0-2-.896-2-2v-1z"/>
<path d="m216.931,209.471c0-1.104 .896-2 2-2h1c1.104,0 2,.896 2,2v1c0,1.104-.896,2-2,2h-1c-1.104,0-2-.896-2-2v-1z"/>
<path d="m235.931,260.471c0-1.104 .896-2 2-2h1c1.104,0 2,.896 2,2v1c0,1.104-.896,2-2,2h-1c-1.104,0-2-.896-2-2v-1z"/>
<path d="m272.757,206.916c.86,0 1.558,.697 1.558,1.559v.779c0,.859-.697,1.558-1.558,1.558h-.779c-.86,0-1.558-.698-1.558-1.558v-.779c0-.861 .697-1.559 1.558-1.559h.779z"/>
<path d="m263.68,245.989c.797,0 1.445,.647 1.445,1.445v.723c0,.798-.648,1.445-1.445,1.445h-.723c-.799,0-1.445-.647-1.445-1.445v-.723c0-.798 .646-1.445 1.445-1.445h.723z"/>
<path d="m283.021,224.498c1.104,0 2,.896 2,2v1c0,1.105-.896,2-2,2h-1c-1.104,0-2-.895-2-2v-1c0-1.104 .896-2 2-2h1z"/>
<path d="m174.319,281.572c.826,0 1.496,.67 1.496,1.496v.748c0,.826-.67,1.496-1.496,1.496h-.748c-.826,0-1.496-.67-1.496-1.496v-.748c0-.826 .67-1.496 1.496-1.496h.748z"/>
<path d="m153.871,271.746c1.973,0 3.573,1.601 3.573,3.574v1.787c0,1.973-1.601,3.572-3.573,3.572h-1.787c-1.974,0-3.573-1.6-3.573-3.572v-1.787c0-1.974 1.6-3.574 3.573-3.574h1.787z"/>
<path d="m151.511,253.666c1.104,0 2,.896 2,2v1c0,1.104-.896,2-2,2h-1c-1.104,0-2-.896-2-2v-1c0-1.104 .896-2 2-2h1z"/>
<path d="m286.361,288.213c0-1.104 .896-2 2-2h1c1.105,0 2,.896 2,2v1c0,1.105-.895,2-2,2h-1c-1.104,0-2-.895-2-2v-1z"/>
<path d="m283.361,269.213c0-1.104 .896-2 2-2h1c1.105,0 2,.896 2,2v1c0,1.105-.895,2-2,2h-1c-1.104,0-2-.895-2-2v-1z"/>
</g>
</svg>
