<svg xmlns="http://www.w3.org/2000/svg" viewBox="20 20 321 321">
<g fill="#fff">
<path d="m84.09,162.513c8.917,1.522 17.833,3.045 26.749,4.567 4.414,.754 6.304-5.991 1.861-6.75-8.917-1.522-17.833-3.045-26.749-4.567-4.414-.754-6.304,5.991-1.861,6.75z"/>
<path d="m84.364,172.128c8.917,1.522 17.833,3.045 26.749,4.567 4.414,.753 6.304-5.991 1.861-6.75-8.917-1.522-17.833-3.045-26.749-4.567-4.413-.753-6.304,5.992-1.861,6.75z"/>
<path d="m84.364,181.47c8.917,1.522 17.833,3.045 26.749,4.567 4.414,.754 6.304-5.991 1.861-6.75-8.917-1.522-17.833-3.045-26.749-4.567-4.413-.754-6.304,5.991-1.861,6.75z"/>
<path d="m90.058,191.441c5.004,.854 10.008,1.708 15.012,2.563 4.414,.754 6.304-5.991 1.861-6.75-5.004-.854-10.008-1.708-15.012-2.563-4.414-.753-6.304,5.992-1.861,6.75z"/>
</g>
<path fill="none" stroke="#fff" stroke-width="10" d="m121.034,136.573c0,7.544-6.116,13.66-13.66,13.66h-18.214c-7.544,0-13.66-6.116-13.66-13.66v-48.569c0-7.544 6.116-13.66 13.66-13.66h18.213c7.544,0 13.66,6.116 13.66,13.66v48.569z"/>
<g fill="#fff">
<path d="m136.019,252.978c7.905,9.615 15.81,19.229 23.714,28.844 2.869,3.49 7.792-1.492 4.95-4.949-7.905-9.615-15.81-19.229-23.714-28.844-2.869-3.491-7.792,1.492-4.95,4.949z"/>
<path d="m155.862,274.301c-3.552,2.92-7.104,5.84-10.656,8.76-1.794,1.476-3.328,2.624-5.306,.218-1.668-2.028-3.336-4.058-5.005-6.087-1.571-1.912-3.143-3.823-4.714-5.735-1.653-2.011-.282-3.624 1.394-5.001 3.723-3.062 7.446-6.122 11.169-9.184 3.489-2.869-1.493-7.792-4.95-4.949-4.155,3.416-8.311,6.832-12.466,10.249-7.683,6.316 .355,14.385 4.618,19.569 4.543,5.526 9.624,13.116 17.693,7.905 4.687-3.027 8.864-7.253 13.174-10.796 3.489-2.869-1.494-7.792-4.951-4.949z"/>
<path d="m269.086,290.963c.048-9.742-.126-21.342 5.427-29.844 2.746-4.204 7.565-6.453 11.313-9.609 1.481-1.248-.651-3.358-2.121-2.121-4.247,3.576-9.03,6.003-12.15,10.779-5.628,8.616-5.42,20.984-5.469,30.795-.01,1.934 2.99,1.933 3,0z"/>
<path d="m261.495,290.963c.065-9.873 .352-21.82 7.521-29.497 4.379-4.688 11.067-6.603 16.507-9.722 1.678-.962 .167-3.554-1.514-2.59-5.998,3.438-12.788,5.558-17.62,10.731-7.458,7.986-7.825,20.854-7.894,31.077-.013,1.936 2.987,1.934 3,.001z"/>
<path d="m279.033,290.646c.043-5.978-.479-14.893 3.784-19.817 1.292-1.493 3.223-1.916 3.448-4.134 .195-1.924-2.807-1.905-3,0-.035,.351-3.382,2.997-3.851,3.734-3.566,5.616-3.337,13.895-3.382,20.217-.012,1.936 2.988,1.934 3.001,0z"/>
<path d="m273.948,291.045c.922-5.341 1.235-12.494 4.337-17.175 1.621-2.447 5.417-4.047 7.541-6.114 1.389-1.352-.734-3.471-2.121-2.121-2.351,2.287-5.799,3.783-7.77,6.401-3.599,4.779-3.911,12.599-4.88,18.212-.326,1.892 2.565,2.701 2.893,.797z"/>
<path d="m253.807,290.786c-.028-7.678 1.653-20.657-5.583-25.714-1.59-1.111-3.087,1.491-1.514,2.59 1.161,.813 1.732,1.006 2.289,2.516 2.315,6.281 1.783,14.061 1.808,20.608 .006,1.935 3.006,1.935 3,0z"/>
<path d="m261.441,290.388c-.995-5.754-1.389-13.189-4.735-18.233-1.904-2.868-5.729-4.469-8.179-6.848-1.388-1.349-3.511,.771-2.121,2.121 2.281,2.216 5.266,3.667 7.443,5.922 1.229,1.273 1.672,3.308 2.128,4.949 1.168,4.212 1.827,8.586 2.571,12.886 .33,1.904 3.221,1.094 2.893-.797z"/>
<path d="m292.654,183.938c0,2.647-2.046,4.793-4.57,4.793h-61.506c-2.525,0-4.57-2.146-4.57-4.793v-31.765c0-2.648 2.045-4.794 4.57-4.794h61.506c2.524,0 4.57,2.146 4.57,4.794v31.765z"/>
<path d="m277.352,161.609c0,2.087-1.693,3.779-3.779,3.779h-47.08c-2.087,0-3.779-1.692-3.779-3.779v-21.256c0-2.087 1.692-3.779 3.779-3.779h47.08c2.086,0 3.779,1.692 3.779,3.779v21.256z"/>
<path d="m264.861,157.764c0,3.708-3.006,6.714-6.714,6.714h-11.05c-3.709,0-6.715-3.006-6.715-6.714v-21.681c0-3.708 3.006-6.714 6.715-6.714h11.05c3.708,0 6.714,3.006 6.714,6.714v21.681z"/>
<path d="m235.234,180.903c0,4.323-3.006,7.828-6.713,7.828h-17.625c-3.708,0-6.714-3.505-6.714-7.828v-20.546c0-4.323 3.006-7.828 6.714-7.828h17.625c3.707,0 6.713,3.505 6.713,7.828v20.546z"/>
<path d="m228.716,207.334c0,2.936-2.38,5.316-5.315,5.316h-13.428c-2.936,0-5.315-2.381-5.315-5.316 0-2.936 2.38-5.314 5.315-5.314h13.427c2.936,0 5.316,2.378 5.316,5.314z"/>
<path d="m270.803,197.865c0,2.758-2.236,4.993-4.994,4.993h-58.535c-2.758,0-4.994-2.235-4.994-4.993v-6.658c0-2.758 2.236-4.994 4.994-4.994h58.535c2.758,0 4.994,2.236 4.994,4.994v6.658z"/>
<path d="m286.633,209.229c0,1.609-1.732,2.916-3.867,2.916h-25.701c-2.135,0-3.866-1.307-3.866-2.916v-35.353c0-1.609 1.731-2.916 3.866-2.916h25.701c2.135,0 3.867,1.306 3.867,2.916v35.353z"/>
<path d="m276.729,221.591c0,3.203-2.335,5.8-5.217,5.8h-48.294c-2.881,0-5.217-2.597-5.217-5.8v-7.733c0-3.203 2.336-5.801 5.217-5.801h48.294c2.882,0 5.217,2.598 5.217,5.801v7.733z"/>
<path d="m226.051,201.164 11.296,47.05"/>
<path d="m221.229,202.493c3.766,15.684 7.53,31.366 11.296,47.05 1.505,6.269 11.147,3.609 9.643-2.658-3.766-15.684-7.53-31.366-11.296-47.05-1.505-6.269-11.147-3.609-9.643,2.658z"/>
<path d="m238.387,235.395 17.306-17.205"/>
<path d="m241.922,238.93c5.77-5.734 11.538-11.469 17.307-17.204 4.578-4.551-2.494-11.62-7.07-7.07-5.77,5.734-11.538,11.469-17.307,17.204-4.579,4.55 2.494,11.619 7.07,7.07z"/>
<path d="m264.326,214.516-13.989,45.293"/>
<path d="m259.505,213.187c-4.663,15.098-9.326,30.195-13.989,45.293-1.908,6.179 7.746,8.8 9.643,2.658 4.663-15.098 9.326-30.195 13.989-45.293 1.908-6.179-7.747-8.8-9.643-2.658z"/>
<path d="m239.347,287.157-2-36.943"/>
<path d="m244.347,287.157c-.667-12.314-1.333-24.629-2-36.943-.348-6.413-10.349-6.446-10,0 .667,12.314 1.333,24.629 2,36.943 .347,6.413 10.348,6.447 10,0z"/>
<path d="m247.371,287.157 2.503-28.468"/>
<path d="m252.371,287.157c.834-9.489 1.669-18.979 2.503-28.468 .565-6.427-9.439-6.372-10,0-.834,9.489-1.669,18.979-2.503,28.468-.565,6.427 9.44,6.372 10,0z"/>
<path d="m222.495,289.664c-.023-7.185 .333-15.226-2.233-22.087-1.35-3.607-4.16-5.766-6.993-8.175-1.464-1.245-3.597,.866-2.121,2.121 2.375,2.021 4.766,3.762 6.136,6.648 2.956,6.228 2.19,14.841 2.212,21.492 .005,1.936 3.005,1.936 2.999,.001z"/>
<path d="m227.842,289.664c-.043-7.27 .051-15.66-3.791-22.137-2.453-4.134-7.104-6.065-11.086-8.359-1.679-.968-3.189,1.625-1.514,2.59 3.369,1.942 7.248,3.508 9.634,6.721 4.196,5.65 3.718,14.574 3.757,21.186 .012,1.933 3.012,1.935 3-.001z"/>
<path d="m216.104,289.664c-.035-5.027-.074-10.624-2.391-15.228-.467-.926-1.163-1.776-1.962-2.434-.477-.392-1.122-1.144-1.065-.575-.19-1.906-3.192-1.925-3,0 .169,1.693 1.41,2.137 2.5,3.195 3.438,3.337 2.889,10.811 2.918,15.041 .013,1.935 3.013,1.937 3,.001z"/>
<path d="m219.819,289.266c-.736-4.337-1.025-9.893-3.513-13.708-1.415-2.171-4.234-3.384-6.061-5.19-1.376-1.361-3.498,.759-2.121,2.121 1.67,1.652 3.865,2.741 5.459,4.421 .853,.899 1.145,2.383 1.457,3.529 .857,3.147 1.341,6.413 1.886,9.624 .324,1.904 3.215,1.094 2.893-.797z"/>
<path d="m231.814,289.765c.031-4.049-.298-10.191 2.752-13.428 1.092-1.158 2.511-1.366 2.713-3.193 .213-1.922-2.79-1.901-3,0 .081-.731-.026-.323-.774,.196-.848,.588-1.5,1.319-2.085,2.164-2.683,3.88-2.571,9.803-2.605,14.261-.015,1.935 2.985,1.933 2.999-0z"/>
<path d="m227.957,290.163c.642-3.411 .855-8.882 3.188-11.727 1.409-1.718 4.016-2.73 5.695-4.232 1.445-1.292-.684-3.406-2.121-2.121-1.798,1.606-4.347,2.587-5.877,4.454-2.701,3.294-3.031,8.859-3.777,12.829-.356,1.89 2.536,2.697 2.892,.797z"/>
<path d="m182.924,233.486c-6.968,5.729-13.937,11.457-20.905,17.186-3.489,2.869 1.493,7.791 4.95,4.949 6.968-5.729 13.936-11.457 20.904-17.186 3.49-2.869-1.492-7.79-4.949-4.949z"/>
<path d="m196.158,247.787c-8.366,3.374-16.732,6.747-25.098,10.121-4.131,1.666-2.328,8.439 1.861,6.75 8.366-3.374 16.732-6.747 25.098-10.121 4.131-1.666 2.329-8.439-1.861-6.75z"/>
<path d="m170.139,220.29c-4.928,7.556-9.856,15.112-14.784,22.668-2.474,3.794 3.589,7.298 6.044,3.533 4.928-7.556 9.856-15.112 14.784-22.668 2.474-3.794-3.589-7.298-6.044-3.533z"/>
</g>
</svg>
