<svg xmlns="http://www.w3.org/2000/svg" viewBox="20 20 321 321">
<g fill="#fff">
<path d="m242.09,236.513c8.917,1.522 17.833,3.045 26.749,4.567 4.414,.754 6.304-5.991 1.861-6.75-8.917-1.522-17.833-3.045-26.749-4.567-4.414-.754-6.304,5.991-1.861,6.75z"/>
<path d="m242.364,246.129c8.917,1.522 17.833,3.044 26.749,4.566 4.414,.754 6.304-5.991 1.861-6.75-8.917-1.522-17.833-3.044-26.749-4.566-4.413-.754-6.303,5.991-1.861,6.75z"/>
<path d="m242.364,255.47c8.917,1.522 17.833,3.045 26.749,4.567 4.414,.754 6.304-5.991 1.861-6.75-8.917-1.522-17.833-3.045-26.749-4.567-4.413-.754-6.303,5.991-1.861,6.75z"/>
<path d="m248.058,265.441c5.004,.854 10.008,1.708 15.012,2.563 4.414,.754 6.304-5.991 1.861-6.75-5.004-.854-10.008-1.708-15.012-2.563-4.414-.753-6.304,5.992-1.861,6.75z"/>
</g>
<path fill="none" stroke="#fff" stroke-width="10" d="m279.033,210.573c0,7.544-6.115,13.66-13.66,13.66h-18.213c-7.545,0-13.66-6.116-13.66-13.66v-48.569c0-7.544 6.115-13.66 13.66-13.66h18.213c7.545,0 13.66,6.116 13.66,13.66v48.569z"/>
<g fill="#fff">
<path d="m201.331,149.946c0,44.552 0,89.105 0,133.658 0,.003 0,.006 0,.01 0,9.686 15.004,9.771 15.004,.107 0-44.552 0-89.104 0-133.657 0-.003 0-.007 0-.01 0-9.686-15.004-9.772-15.004-.108z"/>
<path d="m78.112,85.335c48.944,0 97.888,0 146.833,0 19.834,0 39.668,0 59.502,0 9.686,0 9.771-15.003 .107-15.003-48.943,0-97.888,0-146.832,0-19.834,0-39.667,0-59.501,0-9.687,0-9.773,15.003-.109,15.003z"/>
<path d="m245.641,122.192c-11.444-11.444-22.889-22.889-34.333-34.333-3.194-3.194-8.144,1.755-4.949,4.95 11.444,11.444 22.889,22.889 34.333,34.333 3.194,3.194 8.144-1.755 4.949-4.95z"/>
<path d="m206.691,87.525c-33.086,33.086-66.172,66.172-99.258,99.257-.358,.358-.717,.718-1.076,1.076-3.194,3.194 1.755,8.144 4.95,4.949 33.085-33.085 66.171-66.171 99.257-99.257 .358-.358 .717-.717 1.075-1.075 3.197-3.195-1.753-8.144-4.948-4.95z"/>
<path d="m262.641,122.192c-11.444-11.444-22.889-22.889-34.333-34.333-3.194-3.194-8.144,1.755-4.949,4.95 11.444,11.444 22.889,22.889 34.333,34.333 3.194,3.194 8.144-1.755 4.949-4.95z"/>
<path d="m223.691,87.525c-33.086,33.086-66.172,66.172-99.258,99.257-.358,.358-.717,.718-1.076,1.076-3.194,3.194 1.755,8.144 4.95,4.949 33.085-33.085 66.171-66.171 99.257-99.257 .358-.358 .717-.717 1.075-1.075 3.197-3.195-1.753-8.144-4.948-4.95z"/>
<path d="m227.641,121.192c-11.444-11.444-22.889-22.889-34.333-34.333-3.194-3.194-8.144,1.755-4.949,4.95 11.444,11.444 22.889,22.889 34.333,34.333 3.194,3.194 8.144-1.755 4.949-4.95z"/>
<path d="m188.691,86.525c-33.086,33.086-66.172,66.172-99.258,99.257-.358,.358-.717,.718-1.076,1.076-3.194,3.194 1.755,8.144 4.95,4.949 33.085-33.085 66.171-66.171 99.257-99.257 .358-.358 .717-.717 1.075-1.075 3.197-3.195-1.753-8.144-4.948-4.95z"/>
</g>
</svg>
