<svg xmlns="http://www.w3.org/2000/svg" viewBox="20 20 321 321">
<path fill="none" stroke="#fff" stroke-width="10" d="m219.124,90.74c0,1.566-1.271,2.835-2.837,2.835h-70.909c-1.567,0-2.836-1.27-2.836-2.835v-13.237c0-1.566 1.27-2.836 2.836-2.836h70.909c1.566,0 2.837,1.271 2.837,2.836v13.237z"/>
<g fill="#fff">
<path d="m205.119,131.934c-14.072,13.541-35.831,13.54-49.903,0-1.394-1.341-3.518,.778-2.121,2.121 15.253,14.677 38.892,14.678 54.145,0 1.397-1.344-.727-3.463-2.121-2.121z"/>
<path d="m176.84,288.75c-38.709-1.243-75.401-16.652-102.977-43.924-1.376-1.361-3.498,.76-2.121,2.121 28.138,27.828 65.604,43.534 105.098,44.803 1.935,.063 1.93-2.938 0-3z"/>
<path d="m205.583,93.576c-.327,13.741-11.01,24.423-24.75,24.75-13.74,.327-24.435-11.502-24.75-24.75-.107-4.506-7.107-4.517-7,0 .418,17.588 14.162,31.332 31.75,31.75 17.586,.418 31.347-14.791 31.75-31.75 .107-4.517-6.893-4.507-7,0z"/>
<path d="m193.512,97.804c-.163,7.441-3.531,17.934-12.465,18.328-1.927,.085-1.935,3.085 0,3 10.699-.472 15.263-12.096 15.465-21.328 .042-1.936-2.958-1.932-3,0z"/>
<path d="m164.821,97.804c.222,9.605 5.33,20.872 16.226,21.328 1.936,.081 1.928-2.919 0-3-9.165-.383-13.045-10.482-13.226-18.328-.045-1.932-3.045-1.936-3,0z"/>
<path d="m179.333,97.804c0,6.613 0,13.226 0,19.838 0,1.935 3,1.935 3,0 0-6.613 0-13.226 0-19.838 0-1.935-3-1.935-3,0z"/>
<path d="m152.86,132.237c-26.971,37.427-53.942,74.854-80.913,112.282-.146,.203-.293,.407-.44,.61-1.133,1.572 1.471,3.067 2.591,1.514 26.971-37.428 53.942-74.855 80.913-112.282 .146-.204 .293-.407 .44-.61 1.133-1.573-1.471-3.068-2.591-1.514z"/>
<path d="m205.119,134.055c.705,.899 1.41,1.797 2.115,2.696 .506,.645 1.596,.526 2.121,0 .63-.629 .504-1.479 0-2.121-.705-.899-1.41-1.797-2.115-2.696-.506-.645-1.596-.526-2.121,0-.63,.629-.504,1.478 0,2.121z"/>
<path d="m277.594,233.471c3.524,4.492 7.05,8.984 10.574,13.477 1.193,1.521 3.301-.618 2.121-2.121-3.524-4.492-7.05-8.984-10.574-13.477-1.194-1.522-3.301,.618-2.121,2.121z"/>
<circle cx="236.5" cy="156.564" r="28.836"/>
<path d="m236.501,186.084c-16.276,0-29.52-13.244-29.52-29.52s13.243-29.52 29.52-29.52 29.517,13.244 29.517,29.52-13.241,29.52-29.517,29.52zm0-57.674c-15.524,0-28.154,12.63-28.154,28.154 0,15.522 12.63,28.154 28.154,28.154 15.523,0 28.151-12.632 28.151-28.154 0-15.523-12.628-28.154-28.151-28.154z"/>
<path d="m267.465,277.459c0,7.895-6.398,14.291-14.292,14.291h-33.349c-7.893,0-14.291-6.396-14.291-14.291v-71.745c0-7.894 6.398-14.291 14.291-14.291h33.349c7.894,0 14.292,6.397 14.292,14.291v71.745z"/>
<path d="m273.764,204.122c0,16.776 0,62.553 0,79.331 0,11.443 17.746,11.443 17.746,0 0-16.778 0-62.555 0-79.331 0-11.444-17.746-11.444-17.746,0z"/>
<path d="m181.49,204.12c0,16.778 0,62.554 0,79.331 0,11.443 17.746,11.443 17.746,0 0-16.777 0-62.553 0-79.331-0-11.443-17.746-11.443-17.746,0z"/>
</g>
</svg>
