<svg xmlns="http://www.w3.org/2000/svg" viewBox="20 20 321 321">
<path fill="none" stroke="#fff" stroke-width="10" d="m208.717,96.564c0-2.141-.542-3.876-1.209-3.876h-20.97c-.668,0-1.21,1.735-1.21,3.876v75.572c0,2.14 .541,3.875 1.21,3.875h20.97c.667,0 1.209-1.735 1.209-3.875v-75.572z"/>
<g fill="#fff">
<path d="m211.759,196.82c25.581-19.552 51.163-39.104 76.744-58.656 3.178-2.429 3.178-6.206 0-8.635-25.581-19.552-51.163-39.104-76.744-58.655-3.127-2.39-7.523,.882-7.523,4.317 0,39.104 0,78.208 0,117.312 0,6.448 10,6.448 10,0 0-39.104 0-78.208 0-117.312-2.508,1.439-5.016,2.878-7.523,4.317 25.581,19.552 51.163,39.104 76.744,58.655 0-2.878 0-5.756 0-8.635-25.581,19.552-51.163,39.104-76.744,58.656-5.051,3.861-.079,12.554 5.046,8.636z"/>
<path d="m70.688,185.333c0,33.778 0,67.556 0,101.334 0,6.448 10,6.448 10,0 0-33.778 0-67.556 0-101.334 0-6.449-10-6.449-10-0z"/>
<path d="m285.835,281.667c-48.661,0-97.322,0-145.983,0-21.388,0-42.776,0-64.164,0-6.449,0-6.449,10 0,10 48.661,0 97.322,0 145.983,0 21.388,0 42.776,0 64.164,0 6.448,0 6.448-10 0-10z"/>
<path d="m81.184,248.683c20.486-10.118 40.973-20.235 61.459-30.354 5.782-2.855 .713-11.479-5.047-8.635-20.486,10.118-40.973,20.235-61.459,30.354-5.782,2.855-.713,11.479 5.047,8.635z"/>
<path d="m138.971,217.508c11.805,7.319 23.609,14.639 35.414,21.958 5.497,3.408 10.514-5.245 5.047-8.635-11.805-7.319-23.609-14.639-35.414-21.958-5.497-3.408-10.514,5.245-5.047,8.635z"/>
<path d="m191.8,223.944c3.305,8.843 6.61,17.687 9.915,26.529 2.236,5.983 11.905,3.395 9.643-2.658-3.305-8.843-6.61-17.687-9.915-26.529-2.237-5.983-11.906-3.394-9.643,2.658z"/>
<path d="m209.06,253.462c14.466-10.674 28.931-21.349 43.396-32.022 5.129-3.784 .149-12.47-5.047-8.635-14.465,10.674-28.931,21.349-43.396,32.022-5.129,3.784-.15,12.47 5.047,8.635z"/>
<path d="m179.432,239.466c6.571-4.178 13.142-8.355 19.712-12.533 5.424-3.448 .412-12.105-5.047-8.635-6.571,4.178-13.142,8.355-19.712,12.533-5.424,3.448-.412,12.106 5.047,8.635z"/>
<path d="m248.603,221.943c12.016,2.849 24.032,5.696 36.048,8.545 6.271,1.486 8.932-8.155 2.658-9.643-12.016-2.849-24.032-5.696-36.048-8.545-6.271-1.486-8.932,8.156-2.658,9.643z"/>
</g>
</svg>
