<svg xmlns="http://www.w3.org/2000/svg" viewBox="20 20 321 321">
<g fill="#fff">
<path d="m238.223,212.117l-32.162-32.161 32.162-32.162c3.982-3.983 3.982-10.442 0-14.425l-10.803-10.802c-3.983-3.983-10.441-3.983-14.426,0l-32.161,32.162-32.162-32.162c-3.983-3.983-10.442-3.983-14.425,0l-10.802,10.802c-3.983,3.983-3.983,10.442 0,14.425l32.162,32.162-32.162,32.161c-3.983,3.984-3.983,10.442 0,14.426l10.802,10.803c3.983,3.982 10.442,3.982 14.425,0l32.162-32.162 32.161,32.162c3.984,3.982 10.442,3.982 14.426,0l10.803-10.803c3.982-3.983 3.982-10.441 0-14.426z"/>
<path d="m264.34,236.723c-.242,11.37-7.044,21.449-17.785,25.477-4.182,1.567-8.445,1.63-12.81,1.63-11.976,0-23.952,0-35.929,0-24.85,0-49.7,0-74.55,0-16.523,0-27.288-13.573-27.288-29.252 0-11.169 0-22.338 0-33.507 0-25.927 0-51.854 0-77.781 0-15.933 12.455-27.823 28.218-27.823 10.289,0 20.579,0 30.868,0 26.86,0 53.72,0 80.581,0 15.678,0 28.694,11.327 28.694,27.513 0,9.338 0,18.676 0,28.015 0,27.65 0,55.299 0,82.95 .001,.924 .001,1.851 .001,2.778 0,6.448 10,6.448 10,0 0-23.63 0-47.26 0-70.889 0-12.712 0-25.425 0-38.137 0-3.096 .066-6.173-.264-9.256-1.193-11.167-7.503-20.682-16.639-26.989-9.591-6.622-20.823-5.985-31.821-5.985-14.488,0-28.978,0-43.466,0-14.938,0-29.875,0-44.813,0-10.301,0-20.128-.655-29.877,3.468-15.025,6.355-21.481,21.812-21.481,37.126 0,11.977 0,23.953 0,35.929 0,24.85 0,49.701 0,74.55 0,20.301 16.794,37.289 37.151,37.289 8.315,0 16.63,0 24.946,0 28.295,0 56.591,0 84.887,0 6.938,0 13.376-.711 19.895-3.468 13.25-5.604 21.185-19.66 21.482-33.639 .138-6.451-9.863-6.439-10,.001z"/>
</g>
</svg>
