<svg xmlns="http://www.w3.org/2000/svg" viewBox="20 20 321 321">
<g fill="#fff">
<path d="m214.363,89.353c24.414-3.261 48.828-6.522 73.242-9.784-1.667-1.667-3.333-3.333-5-5-3.262,24.414-6.522,48.829-9.784,73.243 2.845-1.179 5.69-2.357 8.535-3.536-21.152-21.153-42.305-42.306-63.458-63.459-4.563-4.563-11.635,2.507-7.07,7.071 21.152,21.153 42.305,42.306 63.458,63.459 3.398,3.399 7.99,.542 8.535-3.536 3.262-24.414 6.522-48.829 9.784-73.243 .329-2.463-2.537-5.329-5-5-24.414,3.261-48.828,6.522-73.242,9.784-6.295,.842-6.377,10.853-0,10.001z"/>
<path d="m231.631,148.096c5.807,4.194 10.148-.662 14.051-4.563 3.825-3.825 7.649-7.65 11.475-11.475 5.481-5.481-.124-10.866-4.016-14.758-3.825-3.825-7.65-7.65-11.476-11.476-5.48-5.481-10.866,.125-14.759,4.017-3.825,3.825-7.649,7.65-11.475,11.475-5.481,5.481 .123,10.866 4.016,14.759 3.825,3.825 7.65,7.65 11.476,11.475 3.194,3.194 8.144-1.755 4.949-4.95-5.149-5.149-10.3-10.299-15.449-15.449-.938-.938 13.751-14.678 15.407-16.334 .938-.938 14.679,13.752 16.335,15.409 .937,.937-6.677,7.602-7.352,8.277-1.574,1.574-7.216,9.308-9.649,7.55-3.667-2.65-7.155,3.427-3.533,6.043z"/>
</g>
<path fill="none" stroke="#fff" stroke-width="10" d="m170.428,227.26c0-3.387 .312-6.698 .877-9.922-5.506,.002-11.53,2.147-15.907,.009-2.563-1.253-4.453-6.05-5.695-8.907-2.748-6.323-9.158-21.073-11.484-26.426-.542-1.249-.864-1.988-.864-1.988-2.326-5.353-8.736-20.103-11.484-26.426-1.241-2.857-3.458-7.513-2.626-10.24 2.457-8.043 17.61-10.957 13.643-23.185l-17.526-40.332c-1.291-2.97-4.331-4.51-6.79-3.442l-35.834,15.572c-2.46,1.069-2.78,4.173-2.116,7.312 3.311,15.667 9.358,33.123 14.437,47.916 3.022,8.803 16.089,39.094 19.039,45.906h-.002c0,0 .104,.241 .298,.686 .193,.445 .298,.686 .298,.686h.002c2.967,6.803 16.196,37.024 20.569,45.241 7.35,13.806 15.985,30.136 25.18,43.246 1.842,2.627 4.33,4.511 6.79,3.442l31.668-13.762c-13.656-10.431-22.473-26.875-22.473-45.386z"/>
<g fill="#fff">
<path d="m198.349,182.312c4.574-2.862 9.328-5.039 14.5-6.59 2.017-.605 3.758-3.114 5.168-4.524 3.86-3.86 8.874-9.117 3.583-14.408-3.377-3.377-6.754-6.754-10.131-10.132-2.979-2.98-7.273-8.954-12.247-7.37-4.299,1.369-7.414,5.653-10.507,8.745-3.409,3.41-7.281,6.649-10.114,10.57-3.634,5.03 2.268,9.923 5.408,13.063 3.366,3.366 6.732,6.732 10.099,10.099 3.194,3.194 8.144-1.755 4.949-4.95-4.716-4.716-9.431-9.432-14.146-14.148-.943-.943 13.501-14.432 15.087-16.017 1.583-1.583 13.91,12.346 15.736,14.172 2.368,2.369-2.855,5.616-4.609,7.369-1.774,1.775-2.424,1.456-4.986,2.396-3.978,1.458-7.738,3.439-11.322,5.681-3.818,2.387-.307,8.445 3.532,6.044z"/>
<path d="m277.104,227.206c-.264,21.841-14.328,41.07-35.274,47.551-20.997,6.497-44.063-2.393-55.993-20.611-12.03-18.37-9.941-43.151 4.399-59.6 14.372-16.485 38.711-21.485 58.468-12.16 17.334,8.182 28.17,25.79 28.4,44.82 .117,9.678 15.12,9.774 15.004,.107-.285-23.601-12.931-45.153-33.557-56.708-20.663-11.576-46.938-10.132-66.615,2.754-19.622,12.85-30.715,36.129-28.74,59.425 1.966,23.186 16.774,44.003 38.043,53.442 20.026,8.888 43.534,6.932 61.857-5.067 18.091-11.847 28.751-32.366 29.011-53.847 .118-9.69-14.886-9.764-15.003-.106z"/>
<path d="m192.481,272.902c26.912-26.912 53.824-53.824 80.735-80.736 6.836-6.835-3.813-17.403-10.665-10.551-26.912,26.912-53.824,53.824-80.736,80.736-6.835,6.836 3.814,17.404 10.666,10.551z"/>
</g>
</svg>
