<svg xmlns="http://www.w3.org/2000/svg" viewBox="20 20 321 321">
<g fill="#fff">
<path d="m241.209,228.781c0-9.863 0-19.728 0-29.591 0-6.235 0-12.471 0-18.707 0-1.508 0-3.016 0-4.524 0-2.682 3.217-1.89 5.107-1.89 1.227,0 4.682-.57 4.682,1.468 0,1.485 0,2.971 0,4.456 0,6.17 0,12.34 0,18.509 0,10.093 0,20.186 0,30.278 0,4.514 7,4.514 7,0 0-11.709 0-23.419 0-35.128 0-5.787 0-11.575 0-17.362 0-6.465-4.814-9.221-10.729-9.221-6.253,0-13.061,1.091-13.061,9.102 0,5.413 0,10.825 0,16.238 0,12.124 0,24.248 0,36.372 .001,4.514 7.001,4.514 7.001,0z"/>
<path d="m225.525,258.786c0-11.049 0-22.098 0-33.146 0-7.303 0-14.605 0-21.908 0-4.86-.456-10.208 .396-14.969 .453-2.528 5.455-1.294 7.729-1.294 2.686,0 .558-.051 .558-1.076 0,.527 0,1.055 0,1.582 0,6.102 0,12.203 0,18.305 0,11.967 0,23.935 0,35.901 0,4.514 7,4.514 7,0 0-11.967 0-23.935 0-35.901 0-6.102 0-12.203 0-18.305 0-6.744-4.604-7.506-10.361-7.506-2.877,0-6.536-.546-8.881,1.509-3.924,3.44-3.435,9.771-3.441,14.491-.006,3.626 0,7.253 0,10.879 0,14.943 0,29.887 0,44.83 0,2.202 0,4.405 0,6.608 0,4.514 7,4.514 7,0z"/>
<path d="m257.998,238.676c0-9.999 0-19.998 0-29.997 0-6.463 0-12.926 0-19.389 0-1.837 0-3.674 0-5.511 0-.336 0-.672 0-1.008 0,.154-2.009,1.191-.736,1.191 .745,0 1.49,0 2.236,0 5.394,0 6.63,.58 6.63,5.399 0,5.854 0,11.71 0,17.565 0,10.582 0,21.165 0,31.748 0,4.514 7,4.514 7,0 0-11.865 0-23.729 0-35.595 0-10.324 3.104-26.118-11.797-26.118-5.754,0-10.333,.781-10.333,7.505 0,6.102 0,12.203 0,18.305 0,11.968 0,23.935 0,35.902 0,4.516 7,4.516 7,.003z"/>
<path d="m273.128,245.041c0-12.389 0-24.778 0-37.167 0-2.504 0-5.008 0-7.513 0-.521 0-1.044 0-1.566 0,.328-2.026,1.174-.602,1.174 1.11,0 2.221,0 3.331,0 3.463,0 2.633,5.412 2.633,8.106 0,26.102 0,52.204 0,78.306 0,.504 0,1.007 0,1.511 0,4.514 7,4.514 7,0 0-24.825 0-49.65 0-74.476 0-2.882 0-5.763 0-8.645 0-3.092-.473-6.735-2.594-9.144-2.604-2.956-6.056-2.659-9.649-2.659-6.614,0-7.119,4.728-7.119,9.918 0,7.315 0,14.632 0,21.948 0,6.735 0,13.471 0,20.206-0,4.515 7,4.515 7,.001z"/>
<path d="m213.063,288.069c-4.117-17.482-8.233-34.965-12.351-52.447-.767-3.257-1.659-4.886 2.256-6.144 1.46-.469 5.136-2.104 5.776-.108 .5,1.554 .999,3.106 1.498,4.66 2.779,8.649 5.559,17.299 8.338,25.948 1.375,4.279 8.135,2.449 6.75-1.861-3.11-9.679-6.221-19.357-9.33-29.036-1.87-5.819-5.817-8.194-12.049-7.223-5.894,.92-12.506,4.936-10.889,11.805 4.417,18.756 8.833,37.512 13.25,56.268 1.035,4.392 7.785,2.529 6.751-1.862z"/>
<path d="m130.606,75.071c0,15.074 0,30.148 0,45.222 0,6.449 10,6.449 10,0 0-15.074 0-30.148 0-45.222 0-6.449-10-6.449-10,0z"/>
<path d="m119.923,83.94c4.395,2.537 8.789,5.075 13.184,7.612 5.595,3.23 10.628-5.413 5.047-8.635-4.395-2.537-8.789-5.075-13.184-7.612-5.595-3.23-10.628,5.413-5.047,8.635z"/>
<path d="m146.092,75.306c-4.395,2.537-8.789,5.075-13.184,7.612-5.582,3.223-.548,11.865 5.047,8.635 4.395-2.537 8.789-5.075 13.184-7.612 5.581-3.223 .548-11.866-5.047-8.635z"/>
<path d="m93.763,101.478c13.054,7.537 26.108,15.074 39.163,22.611 5.595,3.23 10.628-5.412 5.047-8.635-13.054-7.537-26.108-15.074-39.163-22.611-5.595-3.23-10.629,5.412-5.047,8.635z"/>
<path d="m96.173,115.151c4.395-2.538 8.789-5.075 13.183-7.612 5.581-3.223 .548-11.865-5.047-8.635-4.395,2.538-8.789,5.075-13.183,7.612-5.581,3.223-.548,11.865 5.047,8.635z"/>
<path d="m101.733,88.17c0,5.075 0,10.149 0,15.224 0,6.449 10,6.449 10,0 0-5.075 0-10.149 0-15.224 0-6.448-10-6.448-10,0z"/>
<path d="m98.909,146.669c13.055-7.537 26.109-15.074 39.164-22.611 5.582-3.222 .548-11.865-5.047-8.635-13.055,7.537-26.109,15.074-39.164,22.611-5.581,3.223-.548,11.866 5.047,8.635z"/>
<path d="m111.908,151.471c0-5.074 0-10.148 0-15.223 0-6.449-10-6.449-10,0 0,5.074 0,10.148 0,15.223 0,6.449 10,6.449 10,0z"/>
<path d="m91.3,133.126c4.395,2.538 8.789,5.075 13.184,7.612 5.595,3.23 10.628-5.412 5.047-8.635-4.395-2.538-8.789-5.075-13.184-7.612-5.595-3.23-10.629,5.412-5.047,8.635z"/>
<path d="m140.556,165.126c0-15.074 0-30.148 0-45.222 0-6.449-10-6.449-10,0 0,15.074 0,30.148 0,45.222 0,6.449 10,6.449 10,0z"/>
<path d="m151.239,156.256c-4.395-2.537-8.789-5.074-13.184-7.611-5.595-3.23-10.628,5.413-5.047,8.635 4.395,2.537 8.789,5.074 13.184,7.611 5.595,3.23 10.628-5.413 5.047-8.635z"/>
<path d="m125.07,164.891c4.395-2.537 8.789-5.074 13.183-7.611 5.582-3.222 .548-11.865-5.047-8.635-4.395,2.537-8.789,5.074-13.183,7.611-5.581,3.222-.548,11.865 5.047,8.635z"/>
<path d="m177.399,138.374c-13.055-7.537-26.109-15.074-39.164-22.611-5.595-3.23-10.628,5.413-5.047,8.635 13.055,7.537 26.109,15.074 39.164,22.611 5.595,3.23 10.628-5.413 5.047-8.635z"/>
<path d="m174.99,124.702c-4.395,2.537-8.79,5.075-13.184,7.612-5.582,3.222-.548,11.865 5.047,8.635 4.395-2.537 8.79-5.075 13.184-7.612 5.581-3.223 .547-11.866-5.047-8.635z"/>
<path d="m169.429,151.682c0-5.075 0-10.149 0-15.224 0-6.449-10-6.449-10,0 0,5.075 0,10.149 0,15.224 0,6.449 10,6.449 10,0z"/>
<path d="m172.253,93.183c-13.055,7.537-26.109,15.075-39.164,22.612-5.582,3.223-.548,11.865 5.047,8.635 13.055-7.537 26.109-15.075 39.164-22.612 5.582-3.223 .548-11.865-5.047-8.635z"/>
<path d="m159.254,88.38c0,5.075 0,10.149 0,15.224 0,6.449 10,6.449 10,0 0-5.075 0-10.149 0-15.224 0-6.449-10-6.449-10,0z"/>
<path d="m179.862,106.726c-4.395-2.537-8.789-5.075-13.184-7.612-5.595-3.23-10.628,5.412-5.047,8.635 4.395,2.537 8.789,5.075 13.184,7.612 5.595,3.23 10.628-5.413 5.047-8.635z"/>
<path d="m71.575,186.5c5.103-1.521 10.276-2.848 15.505-3.858 7.1-1.372 13.251,.714 19.897,3.136 9.258,3.375 18.697,8.882 28.688,9.268 5.96,.23 12.572-2.904 18.003-5.008 3.237-1.254 6.416-2.644 9.662-3.878 6.432-2.446 12.845-4.821 19.784-3.72 5.621,.893 11.192,2.437 16.643,4.061 1.858,.554 2.646-2.342 .797-2.893-5.103-1.521-10.276-2.849-15.505-3.859-6.542-1.264-11.919-.128-18.195,1.966-10.039,3.35-20.494,9.917-31.188,10.33-6.14,.237-13.21-3.3-18.796-5.531-3.748-1.497-7.458-3.058-11.265-4.41-6.148-2.185-11.703-3.586-18.185-2.557-5.621,.893-11.192,2.437-16.642,4.061-1.85,.55-1.062,3.446 .797,2.892z"/>
<path d="m77.916,193.686c5.242-1.89 11.354-3.85 16.952-3.007 5.688,.856 11.29,3.203 16.602,5.324 7.693,3.073 15.8,7.21 24.196,7.534 8.107,.313 16.809-4.544 24.197-7.534 5.369-2.173 10.897-4.242 16.602-5.324 5.468-1.037 11.826,1.159 16.952,3.007 1.824,.658 2.603-2.242 .797-2.893-4.979-1.795-10.248-3.147-15.554-3.32-5.685-.185-11.898,2.679-17.096,4.655-8.287,3.153-16.927,8.063-25.898,8.409-5.631,.218-12.063-2.908-17.206-4.9-2.914-1.128-5.777-2.38-8.691-3.509-5.231-2.025-10.691-4.054-16.306-4.625-5.32-.541-11.404,1.509-16.345,3.29-1.805,.65-1.027,3.551 .798,2.893z"/>
<path d="m78.013,176.756c5.242-1.89 11.354-3.85 16.953-3.007 5.688,.856 11.289,3.203 16.601,5.324 7.694,3.073 15.801,7.21 24.196,7.535 8.108,.313 16.809-4.544 24.197-7.535 5.369-2.173 10.897-4.243 16.602-5.324 5.468-1.037 11.826,1.159 16.952,3.007 1.824,.658 2.603-2.242 .797-2.893-4.979-1.795-10.248-3.148-15.554-3.32-5.685-.185-11.899,2.679-17.096,4.656-8.287,3.152-16.926,8.063-25.897,8.409-5.632,.218-12.064-2.909-17.207-4.9-2.914-1.128-5.776-2.38-8.69-3.509-5.231-2.026-10.691-4.055-16.305-4.625-5.32-.541-11.405,1.508-16.346,3.29-1.806,.651-1.028,3.55 .797,2.892z"/>
</g>
</svg>
