<svg xmlns="http://www.w3.org/2000/svg" viewBox="20 20 321 321">
<g fill="#fff">
<path d="m98.979,232.93c-.053-10.6-.604-22.099-6.002-31.521-4.411-7.697-12.525-10.787-21.04-10.921-1.936-.03-1.933,2.97 0,3 8.132,.128 14.804,3.073 18.936,10.285 4.887,8.53 5.059,19.622 5.106,29.156 .01,1.935 3.01,1.935 3,.001z"/>
<path d="m104.937,232.93c-.093-10.772-1.663-22.707-8.624-31.402-6.079-7.594-14.81-10.899-24.376-11.039-1.936-.028-1.933,2.972 0,3 9.027,.132 17.165,3.315 22.65,10.706 6.011,8.099 7.265,18.968 7.349,28.735 .017,1.933 3.017,1.935 3.001,0z"/>
<path d="m84.647,232.93c-.024-7.925 .431-16.981-2.604-24.5-1.533-3.8-4.59-6.072-7.628-8.62-1.472-1.234-3.605,.877-2.121,2.121 2.799,2.348 5.679,4.379 7.094,7.886 2.827,7.004 2.236,15.741 2.259,23.113 .006,1.934 3.006,1.934 3,0z"/>
<path d="m90.604,232.93c-.042-7.947 .069-17.213-4.22-24.259-2.749-4.516-7.876-6.597-12.273-9.096-1.684-.958-3.195,1.635-1.514,2.59 3.779,2.148 8.141,3.872 10.817,7.459 4.64,6.219 4.15,16.014 4.189,23.306 .012,1.933 3.012,1.935 3.001,0z"/>
<path d="m112.917,232.93c.05-6.54-.401-16.33 4.692-21.428 1.484-1.485 3.606-1.838 3.871-4.225 .212-1.922-2.79-1.901-3,0-.015,.139-4.115,3.34-4.735,4.269-3.933,5.886-3.775,14.67-3.827,21.384-.017,1.935 2.983,1.933 2.999,0z"/>
<path d="m106.905,233.328c1.042-5.464 1.44-13.927 5.206-18.45 2.228-2.677 6.283-4.207 8.929-6.54 1.454-1.281-.676-3.396-2.121-2.121-2.81,2.477-6.803,3.985-9.2,6.865-4.088,4.912-4.575,13.519-5.706,19.449-.361,1.89 2.53,2.697 2.892,.797z"/>
<path d="m127.184,232.93c.019-4.713-.159-9.765 1.319-14.303 .749-2.298 2.769-3.637 4.538-5.107 1.49-1.237-.645-3.348-2.121-2.121-1.997,1.658-3.902,3.126-4.968,5.57-2.1,4.813-1.747,10.855-1.767,15.961-.009,1.934 2.991,1.934 2.999,0z"/>
<path d="m123.354,232.93c.033-4.656-.121-10.046 2.341-14.192 1.476-2.486 4.643-3.633 7.042-4.983 1.686-.948 .174-3.54-1.514-2.59-2.77,1.559-5.949,2.865-7.802,5.592-3.114,4.584-3.03,10.874-3.067,16.174-.014,1.934 2.986,1.932 3-.001z"/>
<path d="m139.437,232.912c.049-6.599-.401-16.325 4.525-21.601 1.479-1.584 3.773-1.983 4.037-4.438 .207-1.923-2.795-1.902-3,0-.014,.133-3.935,3.174-4.574,4.095-4.139,5.953-3.938,15.099-3.988,21.944-.014,1.936 2.986,1.934 3,0z"/>
<path d="m133.426,233.311c1.042-5.548 1.42-14.122 5.206-18.738 2.219-2.705 6.288-4.275 8.929-6.639 1.444-1.293-.685-3.407-2.121-2.121-2.806,2.511-6.811,4.057-9.2,6.97-4.108,5.01-4.575,13.71-5.706,19.731-.356,1.89 2.535,2.697 2.892,.797z"/>
<path d="m161.787,233.021c.055-6.33-.009-14.162 4.267-19.34 2.204-2.669 5.687-3.981 8.471-5.922 1.575-1.097 .078-3.699-1.514-2.59-3.325,2.315-7.266,3.863-9.745,7.218-4.268,5.774-4.418,13.766-4.479,20.634-.017,1.936 2.983,1.934 3,0z"/>
<path d="m155.83,233.021c.08-6.736 .557-14.27 5.905-19.054 3.49-3.122 8.634-4.235 12.79-6.208 1.747-.829 .224-3.415-1.514-2.59-4.775,2.266-9.969,3.608-13.987,7.203-5.587,5-6.111,13.718-6.194,20.648-.023,1.937 2.977,1.935 3,.001z"/>
<path d="m169.592,232.773c.033-4.581-.399-11.539 2.875-15.321 1.091-1.261 2.609-1.587 2.801-3.473 .196-1.924-2.806-1.905-3,0 .056-.554-2.553,2.101-2.977,2.768-2.832,4.458-2.663,11.005-2.698,16.026-.014,1.936 2.986,1.934 2.999,0z"/>
<path d="m165.59,233.172c.718-4.159 .955-9.753 3.371-13.398 1.249-1.885 4.229-3.139 5.868-4.733 1.388-1.352-.735-3.471-2.121-2.121-1.872,1.821-4.577,3.003-6.148,5.09-2.841,3.772-3.097,9.935-3.862,14.366-.327,1.891 2.563,2.7 2.892,.796z"/>
<path d="m149.796,232.885c-.023-6.19 1.277-16.4-4.54-20.456-1.591-1.11-3.089,1.492-1.515,2.59 .888,.619 1.206,.58 1.647,1.779 1.808,4.904 1.388,10.975 1.407,16.087 .009,1.934 3.009,1.934 3.001,0z"/>
<path d="m155.776,232.486c-.786-4.545-1.104-10.401-3.748-14.385-1.517-2.284-4.518-3.544-6.468-5.438-1.388-1.349-3.511,.771-2.121,2.121 1.789,1.738 4.133,2.878 5.84,4.646 .921,.954 1.246,2.514 1.586,3.741 .917,3.305 1.434,6.737 2.018,10.111 .329,1.906 3.22,1.096 2.893-.796z"/>
<path d="m217.033,232.87c.093-13.517 2.484-28.794 18.923-29.106 1.933-.037 1.936-3.037 0-3-6.797,.129-12.677,2.247-16.761,7.867-4.85,6.672-5.108,16.36-5.162,24.239-.013,1.936 2.987,1.934 3,0z"/>
<path d="m212.27,232.87c.183-15.327 6.78-28.81 23.687-29.106 1.933-.034 1.936-3.034 0-3-7.428,.13-14.286,2.372-19.37,7.969-5.843,6.432-7.217,15.794-7.316,24.138-.025,1.935 2.975,1.933 2.999-.001z"/>
<path d="m228.492,232.87c.023-5.538-.184-11.507 1.653-16.814 .964-2.786 3.533-4.369 5.737-6.093 1.522-1.19-.616-3.298-2.121-2.121-2.438,1.906-4.783,3.581-6.122,6.47-2.561,5.524-2.123,12.665-2.147,18.559-.008,1.934 2.992,1.934 3-.001z"/>
<path d="m223.729,232.87c.041-5.606-.122-12.179 3.155-17.025 1.91-2.823 5.813-4.12 8.694-5.647 1.71-.906 .194-3.495-1.514-2.59-3.598,1.906-7.226,3.415-9.771,6.724-3.768,4.898-3.522,12.756-3.564,18.539-.013,1.935 2.987,1.933 3-.001z"/>
<path d="m205.783,232.855c-.042-5.27-.116-11.256-2.793-15.982-.583-1.029-1.418-1.927-2.37-2.622-.597-.437-1.328-1.254-1.253-.583-.214-1.9-3.217-1.921-3,0 .21,1.861 1.63,2.229 2.881,3.307 3.957,3.413 3.499,11.302 3.535,15.881 .016,1.933 3.016,1.935 3-.001z"/>
<path d="m210.194,232.457c-.868-4.544-1.276-10.76-4.269-14.577-1.764-2.251-4.86-3.393-6.998-5.272-1.446-1.272-3.576,.841-2.121,2.121 2.021,1.778 4.705,2.897 6.581,4.772 2.942,2.938 3.198,10.006 3.914,13.753 .363,1.899 3.255,1.093 2.893-.797z"/>
<path d="m245.492,232.87c-.018-6.759 .253-13.95-1.518-20.546-.827-3.083-2.809-5.275-4.82-7.641-1.255-1.476-3.366,.657-2.121,2.121 6.286,7.393 5.435,16.715 5.459,26.065 .005,1.936 3.005,1.936 3,.001z"/>
<path d="m249.08,232.87c-.032-6.804 .104-14.199-2.598-20.586-1.445-3.417-4.544-5.384-7.328-7.601-1.496-1.192-3.635,.916-2.121,2.121 2.45,1.951 5.046,3.588 6.578,6.41 3.037,5.59 2.439,13.552 2.469,19.655 .009,1.936 3.009,1.936 3,.001z"/>
<path d="m256.414,232.87c.052-5.847-.181-14.319 4.561-18.698 1.521-1.405 3.699-1.59 4.002-3.969 .243-1.916-2.76-1.893-3,0 .036-.284-4.062,2.745-4.596,3.494-3.815,5.345-3.911,12.899-3.967,19.173-.018,1.936 2.982,1.934 3,0z"/>
<path d="m250.403,233.269c1.045-4.843 1.599-12.623 5.352-16.367 2.334-2.33 6.141-3.581 8.782-5.638 1.525-1.188-.614-3.295-2.121-2.121-2.886,2.246-6.903,3.477-9.339,6.228-3.771,4.262-4.434,11.85-5.566,17.102-.407,1.884 2.484,2.686 2.892,.796z"/>
<path d="m236.969,232.967c-.03-3.625-.118-7.754-2.045-10.964-.472-.785-1.114-1.395-1.841-1.936-.222-.165-.466-.302-.705-.44-.567-.33-.034-.059 .029,.477-.226-1.896-3.229-1.919-3,0 .179,1.498 1.156,1.737 2.175,2.566 2.651,2.157 2.362,7.33 2.387,10.297 .016,1.933 3.016,1.935 3,0z"/>
<path d="m240.089,232.568c-.637-3.145-.993-7.4-3.146-9.991-1.283-1.544-3.44-2.262-4.976-3.534-1.478-1.225-3.612,.885-2.121,2.121 1.438,1.193 3.342,1.939 4.679,3.199 .62,.584 .869,1.546 1.117,2.324 .692,2.173 1.102,4.447 1.554,6.678 .384,1.896 3.276,1.092 2.893-.797z"/>
<path d="m278.764,232.967c.054-6.548 .068-14.027 3.864-19.677 2.086-3.104 5.942-4.574 8.873-6.704 1.549-1.125 .054-3.729-1.514-2.59-3.234,2.351-7.075,3.948-9.536,7.229-4.529,6.037-4.629,14.541-4.688,21.741-.015,1.936 2.985,1.934 3.001,.001z"/>
<path d="m272.807,232.967c.079-7.082 .522-15.134 6.191-20.148 3.448-3.05 8.442-4.222 12.503-6.232 1.734-.858 .214-3.445-1.514-2.59-4.89,2.42-10.275,3.854-14.258,7.772-5.405,5.317-5.845,14.137-5.923,21.198-.021,1.935 2.979,1.933 3.001,0z"/>
<path d="m286.569,232.719c.032-4.581-.399-11.54 2.875-15.322 1.091-1.261 2.609-1.587 2.8-3.473 .194-1.925-2.807-1.905-3,0 .056-.554-2.552,2.1-2.977,2.768-2.832,4.458-2.662,11.006-2.698,16.027-.013,1.935 2.987,1.933 3,0z"/>
<path d="m282.567,233.117c.718-4.16 .954-9.753 3.37-13.399 1.248-1.885 4.229-3.139 5.867-4.733 1.389-1.352-.734-3.471-2.121-2.121-1.871,1.821-4.577,3.003-6.147,5.089-2.841,3.773-3.097,9.936-3.861,14.368-.326,1.891 2.564,2.7 2.892,.796z"/>
<path d="m266.773,232.828c-.022-6.194 1.275-16.395-4.54-20.455-1.59-1.111-3.088,1.491-1.514,2.59 .888,.62 1.205,.581 1.647,1.779 1.808,4.905 1.388,10.975 1.406,16.086 .008,1.935 3.008,1.935 3.001,0z"/>
<path d="m272.753,232.43c-.786-4.545-1.104-10.401-3.748-14.384-1.517-2.285-4.518-3.544-6.468-5.438-1.388-1.348-3.511,.771-2.121,2.121 1.789,1.738 4.133,2.878 5.841,4.646 .921,.954 1.245,2.515 1.586,3.741 .917,3.305 1.434,6.737 2.018,10.111 .328,1.904 3.219,1.094 2.892-.797z"/>
<path d="m179.837,267.654c-.28,1.736-3.44,1.063-4.6,1.063-2.062,0-4.123,0-6.184,0-2.366,0-1.301-7.396-1.301-9.178 0-1.406 9.748-.718 10.999-.718 1.919,0 1.032,7.746 1.032,9.23 0,1.935 3,1.935 3,0 0-3.455 1.694-12.23-3.833-12.23-2.757,0-5.514,0-8.271,0-2.589,0-5.357,.065-5.874,3.268-.382,2.368-.054,5.005-.054,7.399 0,2.459 .605,5.229 3.709,5.229 2.798,0 5.597,0 8.395,0 2.589,0 5.356-.064 5.873-3.267 .307-1.89-2.584-2.702-2.891-.796z"/>
<path d="m177.32,143.292c-2.897-4.06-5.795-8.121-8.692-12.181-2.598-3.64-8.672-.15-6.044,3.533 2.897,4.061 5.795,8.121 8.692,12.181 2.598,3.641 8.673,.151 6.044-3.533z"/>
<path d="m143.468,135.638c-2.764-1.699-5.527-3.397-8.291-5.096-3.857-2.371-7.371,3.686-3.533,6.044 2.764,1.699 5.527,3.397 8.291,5.096 3.857,2.371 7.371-3.685 3.533-6.044z"/>
<path d="m175.754,173.831c-2.484-5.142-4.968-10.285-7.452-15.427-1.963-4.064-7.998-.512-6.044,3.533 2.484,5.142 4.968,10.285 7.452,15.427 1.963,4.064 7.998,.512 6.044-3.533z"/>
<path d="m185.115,174.561c-1.056-5.912-2.111-11.823-3.168-17.735-.792-4.438-7.538-2.552-6.75,1.861 1.056,5.912 2.112,11.823 3.167,17.735 .794,4.439 7.539,2.552 6.751-1.861z"/>
<path d="m123.367,126.012c-2.78-.669-5.561-1.337-8.341-2.006-4.388-1.055-6.249,5.694-1.861,6.75 2.78,.669 5.561,1.337 8.341,2.006 4.388,1.055 6.249-5.694 1.861-6.75z"/>
<path d="m159.772,147.737c-2.049-1.91-4.099-3.82-6.148-5.73-1.395-1.299-3.566-1.384-4.95,0-1.313,1.313-1.396,3.649 0,4.95 2.049,1.91 4.099,3.82 6.148,5.73 1.395,1.299 3.566,1.384 4.95,0 1.312-1.313 1.395-3.649 0-4.95z"/>
<path d="m103.167,123.105c-1.334,.089-2.668,.178-4.002,.267-1.903,.127-3.5,1.496-3.5,3.5 0,1.812 1.594,3.627 3.5,3.5 1.334-.089 2.668-.178 4.002-.267 1.903-.127 3.5-1.496 3.5-3.5 0-1.812-1.594-3.626-3.5-3.5z"/>
<path d="m85.978,125.158c-.694,.198-1.389,.397-2.084,.595-1.833,.523-2.954,2.453-2.444,4.306 .502,1.825 2.472,2.968 4.306,2.444 .694-.198 1.389-.397 2.084-.595 1.833-.523 2.954-2.453 2.444-4.306-.503-1.825-2.472-2.968-4.306-2.444z"/>
<path d="m158.982,120.903c-2.345-1.772-4.69-3.545-7.036-5.317-1.526-1.153-3.91-.245-4.789,1.255-1.05,1.793-.263,3.641 1.255,4.789 2.345,1.772 4.69,3.545 7.036,5.317 1.526,1.153 3.91,.245 4.789-1.255 1.051-1.794 .264-3.642-1.255-4.789z"/>
<path d="m140.111,109.572c-1.388-.478-2.775-.956-4.162-1.433-1.805-.622-3.824,.693-4.306,2.444-.53,1.927 .643,3.685 2.444,4.306 1.388,.478 2.775,.956 4.162,1.433 1.805,.622 3.824-.693 4.306-2.444 .531-1.927-.642-3.685-2.444-4.306z"/>
<path d="m123.617,104.745c-.8-.145-1.6-.289-2.399-.434-.959-.173-1.831-.155-2.697,.353-.782,.458-1.368,1.217-1.608,2.091-.471,1.713 .565,3.966 2.444,4.306 .8,.145 1.6,.289 2.399,.434 .959,.173 1.831,.155 2.697-.353 .782-.458 1.368-1.217 1.608-2.091 .472-1.713-.565-3.966-2.444-4.306z"/>
<path d="m74.153,130.248c-.627,.343-1.255,.686-1.882,1.028-1.672,.914-2.198,3.179-1.255,4.789 .984,1.68 3.114,2.17 4.789,1.255 .627-.343 1.255-.686 1.882-1.028 1.672-.914 2.198-3.179 1.255-4.789-.984-1.68-3.114-2.17-4.789-1.255z"/>
<path d="m107.15,103.293c-.763-.047-1.526-.094-2.289-.141-1.906-.118-3.5,1.681-3.5,3.5 0,1.997 1.597,3.383 3.5,3.5 .763,.047 1.526,.094 2.289,.141 1.906,.118 3.5-1.681 3.5-3.5 0-1.996-1.596-3.382-3.5-3.5z"/>
<path d="m92.139,103.693c-.764,.005-1.528,.011-2.292,.017-1.908,.014-3.5,1.582-3.5,3.5 0,1.897 1.592,3.514 3.5,3.5 .764-.005 1.528-.011 2.292-.017 1.908-.014 3.5-1.582 3.5-3.5 0-1.897-1.592-3.513-3.5-3.5z"/>
<path d="m248.532,290.949c5.333,0 10.667,0 16,0 4.514,0 4.514-7 0-7-5.333,0-10.667,0-16,0-4.513,0-4.513,7-0,7z"/>
<path d="m75.616,283.052c2.337,0 4.673,0 7.01,0 4.514,0 4.514-7 0-7-2.337,0-4.673,0-7.01,0-4.514,0-4.514,7 0,7z"/>
<path d="m102.137,282.052c2.581,0 5.161,0 7.741,0 4.514,0 4.514-7 0-7-2.581,0-5.161,0-7.741,0-4.514,0-4.514,7 0,7z"/>
<path d="m123.935,291.949c2,0 4,0 6,0 1.908,0 3.5-1.592 3.5-3.5s-1.592-3.5-3.5-3.5c-2,0-4,0-6,0-1.908,0-3.5,1.592-3.5,3.5s1.592,3.5 3.5,3.5z"/>
<path d="m275.935,282.079c-3,0-6.001,0-9.001,0-4.514,0-4.514,7 0,7 3,0 6.001,0 9.001,0 4.513,0 4.513-7 0-7z"/>
<path d="m95.451,276.439c-.667,0-1.333,0-2,0-1.908,0-3.5,1.592-3.5,3.5s1.592,3.5 3.5,3.5c.667,0 1.333,0 2,0 1.908,0 3.5-1.592 3.5-3.5s-1.593-3.5-3.5-3.5z"/>
<path d="m198.031,284.949c-2,0-4,0-6,0-1.908,0-3.5,1.592-3.5,3.5s1.592,3.5 3.5,3.5c2,0 4,0 6,0 1.908,0 3.5-1.592 3.5-3.5s-1.592-3.5-3.5-3.5z"/>
<path d="m207.783,291.982c5.333,0 10.667,0 16,0 4.514,0 4.514-7 0-7-5.333,0-10.667,0-16,0-4.513,0-4.513,7 0,7z"/>
<path d="m217.075,285.197c.667,0 1.333,0 2,0 1.908,0 3.5-1.592 3.5-3.5s-1.592-3.5-3.5-3.5c-.667,0-1.333,0-2,0-1.908,0-3.5,1.592-3.5,3.5s1.592,3.5 3.5,3.5z"/>
<path d="m235.699,277.746c-2,0-4,0-6,0-1.908,0-3.5,1.592-3.5,3.5s1.592,3.5 3.5,3.5c2,0 4,0 6,0 1.908,0 3.5-1.592 3.5-3.5s-1.592-3.5-3.5-3.5z"/>
<path d="m137.748,274.079c-3,0-6,0-9,0-4.514,0-4.514,7 0,7 3,0 6,0 9,0 4.514,0 4.514-7 0-7z"/>
<path d="m154.269,273.948c-2,0-4,0-6,0-1.908,0-3.5,1.592-3.5,3.5s1.592,3.5 3.5,3.5c2,0 4,0 6,0 1.908,0 3.5-1.592 3.5-3.5s-1.593-3.5-3.5-3.5z"/>
<path d="m146.769,291.949c2,0 4,0 6,0 1.908,0 3.5-1.592 3.5-3.5s-1.592-3.5-3.5-3.5c-2,0-4,0-6,0-1.908,0-3.5,1.592-3.5,3.5s1.592,3.5 3.5,3.5z"/>
<path d="m87.685,291.781c5.083,0 10.167,0 15.25,0 4.514,0 4.514-7 0-7-5.083,0-10.167,0-15.25,0-4.514,0-4.514,7 0,7z"/>
<path d="m170.618,284.853c3,0 6,0 9,0 4.514,0 4.514-7 0-7-3,0-6,0-9,0-4.514,0-4.514,7 0,7z"/>
<path d="m161.45,291.982c5.333,0 10.667,0 16,0 4.514,0 4.514-7 0-7-5.333,0-10.667,0-16,0-4.514,0-4.514,7 0,7z"/>
<path d="m156.769,283.948c2,0 4,0 6,0 1.908,0 3.5-1.592 3.5-3.5s-1.592-3.5-3.5-3.5c-2,0-4,0-6,0-1.908,0-3.5,1.592-3.5,3.5s1.592,3.5 3.5,3.5z"/>
<path d="m175.118,287.746c.667,0 1.333,0 2,0 1.908,0 3.5-1.592 3.5-3.5s-1.592-3.5-3.5-3.5c-.667,0-1.333,0-2,0-1.908,0-3.5,1.592-3.5,3.5s1.592,3.5 3.5,3.5z"/>
<path d="m193.867,278.746c-2,0-4,0-6,0-1.908,0-3.5,1.592-3.5,3.5s1.592,3.5 3.5,3.5c2,0 4,0 6,0 1.908,0 3.5-1.592 3.5-3.5s-1.592-3.5-3.5-3.5z"/>
<path d="m148.769,281.948c5.333,0 10.667,0 16,0 4.514,0 4.514-7 0-7-5.333,0-10.667,0-16,0-4.515,0-4.515,7 0,7z"/>
<path d="m119.878,276.365c-3,0-6,0-9,0-4.514,0-4.514,7 0,7 3,0 6,0 9,0 4.514,0 4.514-7 0-7z"/>
<path d="m89.126,281.197c-1.833,0-3.667,0-5.5,0-1.908,0-3.5,1.592-3.5,3.5s1.592,3.5 3.5,3.5c1.833,0 3.667,0 5.5,0 1.908,0 3.5-1.592 3.5-3.5s-1.592-3.5-3.5-3.5z"/>
<path d="m144.949,282.079c-.667,0-1.333,0-2,0-1.908,0-3.5,1.592-3.5,3.5s1.592,3.5 3.5,3.5c.667,0 1.333,0 2,0 1.908,0 3.5-1.592 3.5-3.5s-1.592-3.5-3.5-3.5z"/>
<path d="m148.699,273.885c-.667,0-1.333,0-2,0-1.908,0-3.5,1.592-3.5,3.5s1.592,3.5 3.5,3.5c.667,0 1.333,0 2,0 1.908,0 3.5-1.592 3.5-3.5s-1.592-3.5-3.5-3.5z"/>
<path d="m107.127,291.781c1.833,0 3.667,0 5.5,0 1.908,0 3.5-1.592 3.5-3.5s-1.592-3.5-3.5-3.5c-1.833,0-3.667,0-5.5,0-1.908,0-3.5,1.592-3.5,3.5s1.593,3.5 3.5,3.5z"/>
<path d="m73.41,291.781c.667,0 1.333,0 2,0 1.908,0 3.5-1.592 3.5-3.5s-1.592-3.5-3.5-3.5c-.667,0-1.333,0-2,0-1.908,0-3.5,1.592-3.5,3.5s1.592,3.5 3.5,3.5z"/>
<path d="m94.449,283.115c.667,0 1.333,0 2,0 1.908,0 3.5-1.592 3.5-3.5s-1.592-3.5-3.5-3.5c-.667,0-1.333,0-2,0-1.908,0-3.5,1.592-3.5,3.5s1.592,3.5 3.5,3.5z"/>
<path d="m105.699,275.052c-1.833,0-3.667,0-5.5,0-1.908,0-3.5,1.592-3.5,3.5s1.592,3.5 3.5,3.5c1.833,0 3.667,0 5.5,0 1.908,0 3.5-1.592 3.5-3.5s-1.592-3.5-3.5-3.5z"/>
<path d="m252.7,282.454c.667,0 1.333,0 2,0 1.908,0 3.5-1.592 3.5-3.5s-1.592-3.5-3.5-3.5c-.667,0-1.333,0-2,0-1.908,0-3.5,1.592-3.5,3.5s1.592,3.5 3.5,3.5z"/>
<path d="m213.365,275.052c-3.722,0-7.444,0-11.166,0-4.514,0-4.514,7 0,7 3.722,0 7.444,0 11.166,0 4.514,0 4.514-7 0-7z"/>
<path d="m142.327,280.746c-3.722,0-7.444,0-11.166,0-4.514,0-4.514,7 0,7 3.722,0 7.444,0 11.166,0 4.514,0 4.514-7 0-7z"/>
<path d="m283.979,273.853c-5.083,0-10.167,0-15.25,0-4.514,0-4.514,7 0,7 5.083,0 10.167,0 15.25,0 4.513,0 4.513-7 0-7z"/>
<path d="m219.075,280.365c.667,0 1.333,0 2,0 1.908,0 3.5-1.592 3.5-3.5s-1.592-3.5-3.5-3.5c-.667,0-1.333,0-2,0-1.908,0-3.5,1.592-3.5,3.5s1.592,3.5 3.5,3.5z"/>
<path d="m261.699,284.948c.667,0 1.333,0 2,0 1.908,0 3.5-1.592 3.5-3.5s-1.592-3.5-3.5-3.5c-.667,0-1.333,0-2,0-1.908,0-3.5,1.592-3.5,3.5s1.592,3.5 3.5,3.5z"/>
<path d="m242.604,283.948c.667,0 1.333,0 2,0 1.908,0 3.5-1.592 3.5-3.5s-1.592-3.5-3.5-3.5c-.667,0-1.333,0-2,0-1.908,0-3.5,1.592-3.5,3.5s1.591,3.5 3.5,3.5z"/>
<path d="m76.41,274.079c-.667,0-1.333,0-2,0-1.908,0-3.5,1.592-3.5,3.5s1.592,3.5 3.5,3.5c.667,0 1.333,0 2,0 1.908,0 3.5-1.592 3.5-3.5s-1.592-3.5-3.5-3.5z"/>
<path d="m234.699,291.982c.667,0 1.333,0 2,0 1.908,0 3.5-1.592 3.5-3.5s-1.592-3.5-3.5-3.5c-.667,0-1.333,0-2,0-1.908,0-3.5,1.592-3.5,3.5s1.592,3.5 3.5,3.5z"/>
<path d="m286.449,291.982c.667,0 1.333,0 2,0 1.908,0 3.5-1.592 3.5-3.5s-1.592-3.5-3.5-3.5c-.667,0-1.333,0-2,0-1.908,0-3.5,1.592-3.5,3.5s1.592,3.5 3.5,3.5z"/>
<path d="m277.949,285.746c3.458,0 6.917,0 10.375,0 4.514,0 4.514-7 0-7-3.458,0-6.917,0-10.375,0-4.513,0-4.513,7 0,7z"/>
<path d="m98.9,236.377c-3.206,0-6.413,0-9.619,0-4.514,0-4.514,7 0,7 3.206,0 6.413,0 9.619,0 4.514,0 4.514-7 0-7z"/>
<path d="m79.745,256.129c.652,0 1.304,0 1.956,0 1.908,0 3.5-1.592 3.5-3.5s-1.592-3.5-3.5-3.5c-.652,0-1.304,0-1.956,0-1.908,0-3.5,1.592-3.5,3.5s1.592,3.5 3.5,3.5z"/>
<path d="m151.841,248.342c-.652,0-1.304,0-1.957,0-1.908,0-3.5,1.592-3.5,3.5s1.592,3.5 3.5,3.5c.652,0 1.304,0 1.957,0 1.908,0 3.5-1.592 3.5-3.5s-1.592-3.5-3.5-3.5z"/>
<path d="m96.293,251.871c4.972,0 9.944,0 14.917,0 4.514,0 4.514-7 0-7-4.972,0-9.944,0-14.917,0-4.514,0-4.514,7 0,7z"/>
<path d="m79.704,234.561c-1.957,0-3.913,0-5.869,0-4.514,0-4.514,7 0,7 1.957,0 3.913,0 5.869,0 4.514,0 4.514-7 0-7z"/>
<path d="m90.749,247.064c-1.793,0-3.587,0-5.38,0-1.908,0-3.5,1.592-3.5,3.5s1.592,3.5 3.5,3.5c1.793,0 3.587,0 5.38,0 1.908,0 3.5-1.592 3.5-3.5s-1.592-3.5-3.5-3.5z"/>
<path d="m150.974,243.531c-5.217,0-10.434,0-15.651,0-4.514,0-4.514,7 0,7 5.217,0 10.434,0 15.651,0 4.514,0 4.514-7 0-7z"/>
<path d="m126.683,254.961c1.956,0 3.913,0 5.869,0 4.514,0 4.514-7 0-7-1.956,0-3.913,0-5.869,0-4.514,0-4.514,7-0,7z"/>
<path d="m166.229,244.612c-3.641,0-7.282,0-10.922,0-4.514,0-4.514,7 0,7 3.641,0 7.282,0 10.922,0 4.515,0 4.515-7 0-7z"/>
<path d="m122.51,243.518c-1.06,0-2.12,0-3.179,0-1.908,0-3.5,1.592-3.5,3.5s1.592,3.5 3.5,3.5c1.06,0 2.12,0 3.179,0 1.908,0 3.5-1.592 3.5-3.5s-1.593-3.5-3.5-3.5z"/>
<path d="m102.244,248.342c-1.957,0-3.913,0-5.869,0-4.514,0-4.514,7 0,7 1.957,0 3.913,0 5.869,0 4.514,0 4.514-7 0-7z"/>
<path d="m82.923,242.936c-3.206,0-6.413,0-9.619,0-4.514,0-4.514,7 0,7 3.206,0 6.413,0 9.619,0 4.514,0 4.514-7 0-7z"/>
<path d="m94.933,245.816c.652,0 1.304,0 1.956,0 1.908,0 3.5-1.592 3.5-3.5s-1.592-3.5-3.5-3.5c-.652,0-1.304,0-1.956,0-1.908,0-3.5,1.592-3.5,3.5s1.592,3.5 3.5,3.5z"/>
<path d="m85.942,247.123c.652,0 1.304,0 1.957,0 1.908,0 3.5-1.592 3.5-3.5s-1.592-3.5-3.5-3.5c-.652,0-1.304,0-1.957,0-1.908,0-3.5,1.592-3.5,3.5s1.593,3.5 3.5,3.5z"/>
<path d="m114.969,235.787c-1.956,0-3.913,0-5.869,0-4.514,0-4.514,7 0,7 1.956,0 3.913,0 5.869,0 4.514,0 4.514-7 0-7z"/>
<path d="m170.022,237.787c-3.641,0-7.281,0-10.922,0-4.514,0-4.514,7 0,7 3.641,0 7.281,0 10.922,0 4.515,0 4.515-7 0-7z"/>
<path d="m133.187,234.162c-3.206,0-6.413,0-9.619,0-4.514,0-4.514,7 0,7 3.206,0 6.413,0 9.619,0 4.514,0 4.514-7 0-7z"/>
<path d="m130.199,247.043c.652,0 1.304,0 1.956,0 1.908,0 3.5-1.592 3.5-3.5s-1.592-3.5-3.5-3.5c-.652,0-1.304,0-1.956,0-1.908,0-3.5,1.592-3.5,3.5s1.592,3.5 3.5,3.5z"/>
<path d="m160.649,241.082c1.957,0 3.913,0 5.869,0 4.514,0 4.514-7 0-7-1.957,0-3.913,0-5.869,0-4.514,0-4.514,7 0,7z"/>
<path d="m144.387,242.707c3.206,0 6.413,0 9.619,0 4.514,0 4.514-7 0-7-3.206,0-6.413,0-9.619,0-4.514,0-4.514,7 0,7z"/>
<path d="m71.211,235.167c33.879,0 67.757,0 101.636,0 1.935,0 1.935-3 0-3-33.879,0-67.757,0-101.636,0-1.934,0-1.934,3 0,3z"/>
<path d="m205.787,241.082c2.946,0 5.892,0 8.838,0 4.514,0 4.514-7 0-7-2.946,0-5.892,0-8.838,0-4.514,0-4.514,7 0,7z"/>
<path d="m222.422,245.716c4.991,0 9.983,0 14.975,0 4.514,0 4.514-7 0-7-4.991,0-9.983,0-14.975,0-4.514,0-4.514,7 0,7z"/>
<path d="m241,232.66c-1.8,0-3.601,0-5.4,0-1.908,0-3.5,1.592-3.5,3.5s1.592,3.5 3.5,3.5c1.8,0 3.601,0 5.4,0 1.908,0 3.5-1.592 3.5-3.5s-1.592-3.5-3.5-3.5z"/>
<path d="m267.334,236.375c-5.236,0-10.474,0-15.71,0-4.514,0-4.514,7 0,7 5.236,0 10.474,0 15.71,0 4.514,0 4.514-7 0-7z"/>
<path d="m263.893,244.612c-.655,0-1.31,0-1.965,0-1.908,0-3.5,1.592-3.5,3.5s1.592,3.5 3.5,3.5c.655,0 1.31,0 1.965,0 1.908,0 3.5-1.592 3.5-3.5s-1.592-3.5-3.5-3.5z"/>
<path d="m249.655,249.612c1.964,0 3.928,0 5.892,0 4.514,0 4.514-7 0-7-1.964,0-3.928,0-5.892,0-4.513,0-4.513,7 0,7z"/>
<path d="m246.482,246.097c-3.654,0-7.31,0-10.964,0-4.514,0-4.514,7 0,7 3.654,0 7.31,0 10.964,0 4.514,0 4.514-7 0-7z"/>
<path d="m248.739,237.362c-1.063,0-2.128,0-3.191,0-1.908,0-3.5,1.592-3.5,3.5s1.592,3.5 3.5,3.5c1.063,0 2.128,0 3.191,0 1.908,0 3.5-1.592 3.5-3.5s-1.592-3.5-3.5-3.5z"/>
<path d="m227.087,242.993c-1.964,0-3.928,0-5.892,0-4.514,0-4.514,7 0,7 1.964,0 3.928,0 5.892,0 4.514,0 4.514-7 0-7z"/>
<path d="m220.075,239.66c.654,0 1.31,0 1.964,0 1.908,0 3.5-1.592 3.5-3.5s-1.592-3.5-3.5-3.5c-.654,0-1.31,0-1.964,0-1.908,0-3.5,1.592-3.5,3.5s1.592,3.5 3.5,3.5z"/>
<path d="m214.092,254.372c1.964,0 3.929,0 5.893,0 4.514,0 4.514-7 0-7-1.964,0-3.929,0-5.893,0-4.514,0-4.514,7 0,7z"/>
<path d="m280.753,242.787c2.946,0 5.892,0 8.838,0 4.514,0 4.514-7 0-7-2.946,0-5.892,0-8.838,0-4.514,0-4.514,7 0,7z"/>
<path d="m268.277,240.625c1.964,0 3.927,0 5.891,0 4.514,0 4.514-7 0-7-1.964,0-3.927,0-5.891,0-4.513,0-4.513,7 0,7z"/>
<path d="m274.635,254.033c.654,0 1.31,0 1.964,0 1.908,0 3.5-1.592 3.5-3.5s-1.592-3.5-3.5-3.5c-.654,0-1.31,0-1.964,0-1.908,0-3.5,1.592-3.5,3.5s1.592,3.5 3.5,3.5z"/>
<path d="m288.872,246.033c-1.964,0-3.928,0-5.892,0-4.514,0-4.514,7 0,7 1.964,0 3.928,0 5.892,0 4.514,0 4.514-7 0-7z"/>
<path d="m275.271,247.612c3.654,0 7.309,0 10.963,0 4.514,0 4.514-7 0-7-3.654,0-7.309,0-10.963,0-4.513,0-4.513,7 0,7z"/>
<path d="m268.975,256.097c.655,0 1.31,0 1.965,0 1.908,0 3.5-1.592 3.5-3.5s-1.592-3.5-3.5-3.5c-.655,0-1.31,0-1.965,0-1.908,0-3.5,1.592-3.5,3.5s1.591,3.5 3.5,3.5z"/>
<path d="m204.068,250.116c3.219,0 6.438,0 9.656,0 4.514,0 4.514-7 0-7-3.219,0-6.438,0-9.656,0-4.513,0-4.513,7 0,7z"/>
<path d="m201.977,235.167c29.589,0 59.179,0 88.768,0 1.935,0 1.935-3 0-3-29.589,0-59.179,0-88.768,0-1.935,0-1.935,3 0,3z"/>
<path d="m71.496,262.27c31.561,0 63.122,0 94.683,0 1.935,0 1.935-3 0-3-31.561,0-63.122,0-94.683,0-1.935,0-1.935,3 0,3z"/>
<path d="m209.417,262.27c27.01,0 54.021,0 81.03,0 1.935,0 1.935-3 0-3-27.01,0-54.021,0-81.03,0-1.935,0-1.935,3 0,3z"/>
<path d="m207.937,267.654c-.28,1.734-3.442,1.063-4.601,1.063-2.061,0-4.122,0-6.184,0-2.366,0-1.301-7.395-1.301-9.177 0-1.406 9.747-.718 10.998-.718 1.921,0 1.033,7.746 1.033,9.23 0,1.935 3,1.935 3,0 0-3.456 1.694-12.23-3.833-12.23-2.757,0-5.514,0-8.271,0-2.59,0-5.357,.065-5.874,3.268-.383,2.368-.054,5.005-.054,7.399 0,2.458 .605,5.228 3.709,5.228 2.798,0 5.597,0 8.395,0 2.589,0 5.357-.063 5.874-3.266 .307-1.891-2.584-2.703-2.891-.797z"/>
<path d="m71.496,268.27c31.561,0 63.122,0 94.683,0 1.935,0 1.935-3 0-3-31.561,0-63.122,0-94.683,0-1.935,0-1.935,3 0,3z"/>
<path d="m209.417,268.27c27.01,0 54.021,0 81.03,0 1.935,0 1.935-3 0-3-27.01,0-54.021,0-81.03,0-1.935,0-1.935,3 0,3z"/>
<path d="m186.626,268.242c-.945-.164-.832,.918-.832-.113 0-.546 0-1.091 0-1.636 0-2.213 0-4.427 0-6.64 0-6.98 0-13.96 0-20.939 0-14.855 0-29.711 0-44.566 0-1.811 0-3.62 0-5.431 0-.431 0-.862 0-1.293 0,.25 1.815,.325 2.767,.325 .292,0 .233-1.013 .233-.012 0,.546 0,1.091 0,1.636 0,2.213 0,4.427 0,6.64 0,15.191 0,30.383 0,45.574 0,6.644 0,13.288 0,19.932 0,1.906 0,3.812 0,5.718 0,2.033-.899,.681-3.099,.681-4.514,0-4.514,7 0,7 5.702,0 10.099-1.675 10.099-7.968 0-4.897 0-9.794 0-14.691 0-15.729 0-31.457 0-47.187 0-5.232 0-10.466 0-15.698 0-5.722-3.002-8.624-8.974-8.624-5.975,0-8.026,3.81-8.026,8.991 0,5.395 0,10.789 0,16.183 0,14.606 0,29.214 0,43.82 0,5.123 0,10.246 0,15.37 0,4.475 .495,8.73 5.971,9.679 4.414,.764 6.302-5.981 1.861-6.751z"/>
<path d="m175.893,187.167c7.6,0 15.201,0 22.801,0 4.514,0 4.514-7 0-7-7.601,0-15.201,0-22.801,0-4.514,0-4.514,7 0,7z"/>
<path d="m171.622,151.53c-3.392-4.316-6.783-8.632-10.174-12.949-1.181-1.502-3.722-1.228-4.95,0-1.468,1.469-1.177,3.451 0,4.95 3.392,4.316 6.783,8.632 10.174,12.949 1.181,1.502 3.722,1.228 4.95,0 1.468-1.469 1.177-3.451 0-4.95z"/>
<path d="m179.493,174.471c-1.09-4.199-2.18-8.397-3.27-12.597-1.133-4.366-7.885-2.512-6.75,1.861 1.09,4.199 2.18,8.397 3.27,12.597 1.133,4.366 7.885,2.512 6.75-1.861z"/>
<path d="m152.118,129.573c-2.399-1.682-4.797-3.363-7.196-5.045-1.565-1.097-3.884-.288-4.789,1.255-1.024,1.749-.303,3.696 1.255,4.789 2.398,1.682 4.797,3.363 7.196,5.045 1.565,1.097 3.884,.288 4.789-1.255 1.024-1.749 .303-3.696-1.255-4.789z"/>
<path d="m132.836,118.806c-1.419-.453-2.838-.906-4.257-1.359-1.818-.581-3.815,.662-4.306,2.444-.521,1.896 .629,3.726 2.444,4.306 1.419,.453 2.838,.906 4.257,1.359 1.818,.581 3.815-.662 4.306-2.444 .522-1.896-.629-3.726-2.444-4.306z"/>
<path d="m115.966,114.227c-.818-.137-1.636-.274-2.454-.412-.966-.162-1.823-.16-2.697,.353-.782,.458-1.368,1.217-1.608,2.091-.249,.904-.121,1.889 .353,2.697 .419,.716 1.24,1.466 2.091,1.608 .818,.137 1.636,.274 2.454,.412 .966,.162 1.823,.16 2.697-.353 .782-.458 1.368-1.217 1.608-2.091 .249-.904 .121-1.889-.353-2.697-.419-.715-1.24-1.465-2.091-1.608z"/>
<path d="m99.145,112.702c-.78,.05-1.56,.1-2.34,.15-1.903,.122-3.5,1.5-3.5,3.5 0,1.815 1.594,3.622 3.5,3.5 .78-.05 1.56-.1 2.34-.15 1.903-.122 3.5-1.5 3.5-3.5 0-1.816-1.594-3.622-3.5-3.5z"/>
<path d="m82.804,114.992c-.743,.242-1.485,.485-2.228,.727-1.812,.591-2.968,2.401-2.444,4.306 .488,1.773 2.492,3.036 4.306,2.444 .743-.242 1.485-.485 2.228-.727 1.812-.591 2.968-2.401 2.444-4.306-.488-1.773-2.492-3.036-4.306-2.444z"/>
</g>
</svg>
