<svg xmlns="http://www.w3.org/2000/svg" viewBox="20 20 321 321">
<circle fill="none" cx="217.956" cy="169.014" stroke="#fff" r="69.333" stroke-width="10"/>
<g fill="#fff">
<path d="m242.953,97.48c0,4.168-3.379,7.546-7.547,7.546h-35.216c-4.168,0-7.547-3.378-7.547-7.546v-16.35c0-4.167 3.379-7.546 7.547-7.546h35.216c4.168,0 7.547,3.379 7.547,7.546v16.35z"/>
<path d="m242.953,258.47c0,4.168-3.379,7.546-7.547,7.546h-35.216c-4.168,0-7.547-3.378-7.547-7.546v-16.351c0-4.167 3.379-7.546 7.547-7.546h35.216c4.168,0 7.547,3.379 7.547,7.546v16.351z"/>
<path d="m248.816,270.464c0,4.548-2.477,8.235-5.529,8.235h-51.298c-3.054,0-5.529-3.688-5.529-8.235v-2.288c0-4.548 2.476-8.234 5.529-8.234h51.298c3.053,0 5.529,3.687 5.529,8.234v2.288z"/>
</g>
<path fill="none" stroke="#fff" stroke-width="10" d="M209.938,238.031H98.74    c-4.219,0-7.64-3.42-7.64-7.639V108.16c0-4.22,3.42-7.64,7.64-7.64h111.198"/>
<g fill="#fff">
<path d="m72.247,100.311c0,45.753 0,91.506 0,137.259 0,.154 0,.308 0,.462 0,6.448 10,6.448 10,0 0-45.753 0-91.506 0-137.259 0-.154 0-.308 0-.462 0-6.449-10-6.449-10,0z"/>
<path d="m178.167,165.334c.317-15.703 12.631-28.016 28.333-28.333 6.439-.13 6.452-10.13 0-10-21.189,.428-37.905,17.144-38.333,38.333-.131,6.452 9.87,6.44 10,0z"/>
<path d="m199.631,120.869c4.889,4.889 9.777,9.778 14.667,14.667 4.563,4.563 11.635-2.507 7.07-7.071-4.889-4.889-9.777-9.778-14.667-14.667-4.563-4.564-11.635,2.507-7.07,7.071z"/>
<path d="m206.701,150.536c4.89-4.889 9.778-9.778 14.667-14.667 4.564-4.564-2.507-11.635-7.07-7.071-4.89,4.889-9.778,9.778-14.667,14.667-4.565,4.564 2.507,11.635 7.07,7.071z"/>
</g>
</svg>
