<svg xmlns="http://www.w3.org/2000/svg" viewBox="20 20 321 321">
<g fill="#fff">
<path d="m113.025,138.534c16.842-2.864 33.683-5.728 50.524-8.592 6.348-1.079 3.647-10.715-2.658-9.643-16.842,2.864-33.683,5.728-50.524,8.592-6.348,1.08-3.648,10.715 2.658,9.643z"/>
<path d="m163.549,137.892c-16.841-2.864-33.683-5.728-50.524-8.592-6.306-1.072-9.006,8.563-2.658,9.643 16.841,2.864 33.683,5.728 50.524,8.592 6.306,1.071 9.006-8.564 2.658-9.643z"/>
<path d="m163.549,149.892c-16.841-2.864-33.683-5.728-50.524-8.592-6.306-1.072-9.006,8.563-2.658,9.643 16.841,2.864 33.683,5.728 50.524,8.592 6.306,1.071 9.006-8.564 2.658-9.643z"/>
<path d="m163.549,161.892c-16.841-2.864-33.683-5.728-50.524-8.592-6.306-1.072-9.006,8.563-2.658,9.643 16.841,2.864 33.683,5.728 50.524,8.592 6.306,1.071 9.006-8.564 2.658-9.643z"/>
<path d="m164.833,130.167c18,0 36,0 54,0 6.448,0 6.448-10 0-10-18,0-36,0-54,0-6.449,0-6.449,10 0,10z"/>
<path d="m164.833,171.917c18,0 36,0 54,0 6.448,0 6.448-10 0-10-18,0-36,0-54,0-6.449,0-6.449,10 0,10z"/>
</g>
<path fill="none" stroke="#fff" stroke-width="10" d="m268.648,215.92c0,1.859-1.634,3.368-3.648,3.368h-13.379c-2.014,0-3.648-1.509-3.648-3.368v-93.397c0-1.861 1.635-3.369 3.648-3.369h13.379c2.015,0 3.648,1.508 3.648,3.369v93.397z"/>
<g fill="#fff">
<path stroke="#fff" stroke-width="10" d="m274.121,244.018c0,2.016-1.28,3.649-2.859,3.649h-25.902c-1.579,0-2.86-1.634-2.86-3.649v-21.08c0-2.015 1.281-3.648 2.86-3.648h25.901c1.579,0 2.859,1.634 2.859,3.648v21.08z"/>
<path d="m276.555,131.451c3.648,0 7.297,0 10.945,0 6.448,0 6.448-10 0-10-3.648,0-7.297,0-10.945,0-6.449,0-6.449,10 0,10z"/>
<path d="m276.555,155.775c3.648,0 7.297,0 10.945,0 6.448,0 6.448-10 0-10-3.648,0-7.297,0-10.945,0-6.449,0-6.449,10 0,10z"/>
<path d="m276.555,180.708c3.648,0 7.297,0 10.945,0 6.448,0 6.448-10 0-10-3.648,0-7.297,0-10.945,0-6.449,0-6.449,10 0,10z"/>
<path d="m276.555,206.855c3.648,0 7.297,0 10.945,0 6.448,0 6.448-10 0-10-3.648,0-7.297,0-10.945,0-6.449,0-6.449,10 0,10z"/>
<path stroke="#fff" stroke-width="10" d="m247.973,185.894h20.676v42.922h-20.676z"/>
</g>
<g fill="none" stroke="#fff" stroke-width="10">
<path d="m204.067,283.394c0,2.084-1.689,3.773-3.772,3.773h-121.689c-2.084,0-3.773-1.689-3.773-3.773v-173.816c0-2.083 1.689-3.773 3.773-3.773h121.688c2.083,0 3.772,1.689 3.772,3.773v173.816z"/>
<path d="m167.22,233.733c0,19.484-13.012,35.28-29.062,35.28-16.052,0-32.35-13.602-31.667-33.074 .41-11.66 7.34-16.117 12.464-24.624 5.328-8.848 8.781-27.77 11.562-29.358 .704-.402 7.111,8.176 8.546,18.5 2.483,17.843 12.267-6.938 12.87-6.334 1.956,1.955 4.721,4.934 6.234,7.34 5.63,8.947 9.053,20.092 9.053,32.27z"/>
<path d="m153.09,247.418c0,11.502-7.682,20.827-17.157,20.827-9.476,0-19.097-8.03-18.694-19.524 .242-6.884 4.333-9.516 7.358-14.537 3.146-5.225 5.184-16.395 6.826-17.332 .416-.237 4.198,4.827 5.045,10.921 1.466,10.534 7.242-4.095 7.598-3.739 1.154,1.156 2.786,2.913 3.68,4.334 3.323,5.28 5.344,11.861 5.344,19.05z"/>
<path d="m164.227,101.805c0,2.209-1.791,4-4,4h-65.894c-2.209,0-4-1.791-4-4v-22.638c0-2.209 1.791-4 4-4h65.894c2.209,0 4,1.791 4,4v22.638z"/>
</g>
<g fill="#fff">
<path d="m103.515,95.486c6.788,0 13.575,0 20.362,0 6.449,0 6.449-10 0-10-6.788,0-13.575,0-20.362,0-6.449,0-6.449,10 0,10z"/>
<path d="m147.599,95.486c1.312,0 2.624,0 3.935,0 2.726,0 5-2.274 5-5s-2.274-5-5-5c-1.312,0-2.624,0-3.935,0-2.726,0-5,2.274-5,5s2.274,5 5,5z"/>
</g>
</svg>
