<svg xmlns="http://www.w3.org/2000/svg" viewBox="20 20 321 321">
<g fill="#fff">
<path d="m192.688,220.867c0-1.569 1.16-2.842 2.591-2.842h12.094c1.432,0 2.592,1.272 2.592,2.842v6.157c0,1.569-1.16,2.842-2.592,2.842h-12.094c-1.431,0-2.591-1.272-2.591-2.842v-6.157z"/>
<path d="m190.676,216.352c0-1.713 .85-3.101 1.898-3.101h17.615c1.049,0 1.898,1.388 1.898,3.101v.861c0,1.713-.85,3.101-1.898,3.101h-17.615c-1.049,0-1.898-1.388-1.898-3.101v-.861z"/>
<path d="m230.906,217.905c0,.972 .788,1.76 1.76,1.76h33.787c.973,0 1.76-.788 1.76-1.76v-9.587c0-.974-.787-1.761-1.76-1.761h-33.787c-.972,0-1.76,.787-1.76,1.761v9.587z"/>
<path d="m185.605,267.305c0,4.574 3.709,8.284 8.284,8.284h17.665c4.574,0 8.283-3.71 8.283-8.284v-31.652c0-4.575-3.709-8.283-8.283-8.283h-17.664c-4.575,0-8.284,3.708-8.284,8.283v31.652z"/>
<path d="m213.397,283.379c0,1.917 1.193,3.471 2.665,3.471h4.785c1.473,0 2.665-1.554 2.665-3.471v-62.925c0-1.917-1.192-3.471-2.665-3.471h-4.785c-1.472,0-2.665,1.554-2.665,3.471v62.925z"/>
<path d="m222.85,268.939c.26,4.833 4.26,5.441 8.039,5.441 4.053,0 8.107,0 12.16,0 11.744,0 8.292,0 20.035,0 4.26,0 8.52,0 12.779,0 3.281,0 6.877,.246 8.359-3.536 1.16-2.952 .334-7.472 .334-10.524 0-5.896 0-11.789 0-17.686 0-3.336 .563-7.264-.334-10.524-1.056-3.845-5.287-3.534-8.359-3.534-10.166,0-11.393,0-21.559,0-9.891,0-13.525,0-23.416,0-3.779,0-7.779,.607-8.039,5.439-.178,3.293 0,6.645 0,9.941 .001,8.328 .001,16.657 .001,24.983 0,4.773-7.402,4.773-7.402,0 0-9.188 0-18.377 0-27.566 0-3.676-.387-7.648 .598-11.23 1.573-5.723 7.295-8.969 12.922-8.969 19.617,0 24.04,0 43.657,0 2.161,0 4.321,0 6.481,0 7.123,0 12.854,5.973 12.854,13.023 0,9.717 0,19.432 0,29.146 0,4.24 .275,8.164-1.754,12.077-2.378,4.592-7.514,6.36-12.35,6.36-9.109,0-9.279,0-18.389,0-10.314,0-14.371,0-24.686,0-2.131,0-4.264,0-6.395,0-7.298,0-12.561-5.801-12.939-12.842-.257-4.77 7.147-4.746 7.403,.001z"/>
<path d="m218.598,237.863c23.202,0 31.207,0 54.41,0 3.341,0 3.341,5.183 0,5.183-23.203,0-31.208,0-54.41,0-3.342,0-3.342-5.183-0-5.183z"/>
<path d="m218.598,245.289c23.202,0 31.207,0 54.41,0 3.341,0 3.341,5.181 0,5.181-23.203,0-31.208,0-54.41,0-3.342,0-3.342-5.181-0-5.181z"/>
<path d="m218.598,252.713c23.202,0 31.207,0 54.41,0 3.341,0 3.341,5.18 0,5.18-23.203,0-31.208,0-54.41,0-3.342,0-3.342-5.18-0-5.18z"/>
<path d="m218.598,260.137c23.202,0 31.207,0 54.41,0 3.341,0 3.341,5.182 0,5.182-23.203,0-31.208,0-54.41,0-3.342-.001-3.342-5.182-0-5.182z"/>
<path d="m220.357,230.439c21.67,0 28.143,0 49.813,0 3.341,0 3.341,5.182 0,5.182-21.671,0-28.144,0-49.813,0-3.34,0-3.34-5.182-0-5.182z"/>
<path d="m220.357,267.562c21.67,0 28.143,0 49.813,0 3.341,0 3.341,5.181 0,5.181-21.671,0-28.144,0-49.813,0-3.34-.001-3.34-5.181-0-5.181z"/>
<path d="m185.367,267.82c-1.583,0-2.865-1.098-2.865-2.451v-11.439c0-1.354 1.282-2.451 2.865-2.451h6.207c1.582,0 2.863,1.098 2.863,2.451v11.439c0,1.354-1.281,2.451-2.863,2.451h-6.207z"/>
<path d="m221.731,289.771c0,1.047 .849,1.896 1.896,1.896h30.502c1.048,0 1.896-.849 1.896-1.896v-2.785c0-1.048-.849-1.896-1.896-1.896h-30.502c-1.047,0-1.896,.849-1.896,1.896v2.785z"/>
<path d="m221.537,277.464h8.604v12.513h-8.604z"/>
<path d="m208.828,217.037c-.041-26.4-.834-54.427-9.685-79.589-6.415-18.238-19.132-34.328-39.923-34.616-9.692-.135-9.765,14.869-.108,15.003 14.581,.202 22.237,13.183 26.673,26.837 7.478,23.021 8.002,48.282 8.039,72.257 .016,9.686 15.019,9.772 15.004,.108z"/>
<path d="m146.373,140.299c11.656,.295 21.199,8.993 22.092,20.73 .21,2.766 .035,5.605 .035,8.374 0,14.117 0,28.233 0,42.35 0,13.806 0,27.612 0,41.418 0,3.322 .213,6.783-.373,10.062-1.862,10.43-11.415,17.989-21.876,17.989-12.854,0-25.709,0-38.563,0-7.403,0-13.942-1.105-19.579-6.48-4.876-4.649-6.481-11.005-6.481-17.498 0-27.178 0-54.355 0-81.532 0-4.389 0-8.777 0-13.166 0-12.218 10.032-22.247 22.249-22.247 14.165,0 28.331,0 42.496,0 6.449,0 6.449-10 0-10-12.464,0-24.928,0-37.393,0-6.852,0-13.105,.462-19.51,3.357-10.306,4.659-16.328,15.173-17.703,25.995-1.125,8.852-.14,18.362-.14,27.249 0,15.906 0,31.813 0,47.719 0,9.025-.545,18.239 .14,27.249 .847,11.135 7.864,20.957 17.703,25.996 6.186,3.168 12.771,3.357 19.51,3.357 12.464,0 24.929,0 37.393,0 18.922,0 32.127-15.839 32.127-33.979 0-23.447 0-46.895 0-70.343 0-8.047 0-16.095 0-24.143 0-17.943-14.394-32.01-32.127-32.458-6.453-.162-6.436,9.838 0,10.001z"/>
<path d="m70.833,178.167c35.952,0 71.903,0 107.855,0 1.935,0 1.935-3 0-3-35.952,0-71.903,0-107.855,0-1.935,0-1.935,3 0,3z"/>
<path d="m71.136,246.286c35.952,0 71.904,0 107.855,0 1.935,0 1.935-3 0-3-35.952,0-71.904,0-107.855,0-1.934,0-1.934,3 0,3z"/>
<path d="m141.881,131.255c0,3.313-2.687,6-6,6h-22.242c-3.313,0-6-2.687-6-6v-38.255c0-3.313 2.687-6 6-6h22.242c3.313,0 6,2.687 6,6v38.255z"/>
<path d="m160.333,115.014c0,2.386-1.934,4.32-4.32,4.32h-17.64c-2.386,0-4.32-1.934-4.32-4.32v-9.359c0-2.386 1.934-4.32 4.32-4.32h17.64c2.386,0 4.32,1.934 4.32,4.32v9.359z"/>
<path d="m133.564,85.366c-.436-5.821-5.68-9.02-10.647-10.975-9.563-3.764-20.161-4.693-30.353-4.775-4.516-.036-4.512,6.964 0,7 7.542,.061 14.999,.706 22.336,2.514 2.524,.622 11.395,2.644 11.664,6.236 .335,4.473 7.337,4.506 7,0z"/>
<path d="m129.025,89.179c0,2.209-1.791,4-4,4h-2c-2.209,0-4-1.791-4-4v-7.625c0-2.209 1.791-4 4-4h2c2.209,0 4,1.791 4,4v7.625z"/>
<path d="m117.333,115.014c0,2.386-1.934,4.32-4.32,4.32h-17.64c-2.386,0-4.32-1.934-4.32-4.32v-9.359c0-2.386 1.934-4.32 4.32-4.32h17.64c2.386,0 4.32,1.934 4.32,4.32v9.359z"/>
<path d="m147.829,121.744c0,3.778-3.351,6.84-7.484,6.84h-30.562c-4.133,0-7.484-3.062-7.484-6.84v-22.82c0-3.778 3.351-6.84 7.484-6.84h30.562c4.133,0 7.484,3.062 7.484,6.84v22.82z"/>
</g>
</svg>
