<svg xmlns="http://www.w3.org/2000/svg" viewBox="20 20 321 321">
<g fill="#fff">
<path d="m268.551,261.68c.493,4.288 2.939,8.121 7.579,8.655 3.017,.348 7.827,.826 10.504-.876 3.729-2.372 4.699-5.741 4.699-9.818 0-9.195 0-18.392 0-27.587 0-31.239 0-62.478 0-93.716 0-10.417 0-20.833 0-31.25 0-1.83 .367-4.504-.265-6.271-1.401-3.921-4.402-6.649-8.753-6.649-3.544,0-7.989-.581-10.757,2.188-4.705,4.706-3.008,14.104-3.008,20.17 0,13.276 0,26.553 0,39.83 .001,35.108 .001,70.215 .001,105.324 0,4.514 7,4.514 7,0 0-49.14 0-98.279 0-147.419 0-3.243 0-6.486 0-9.73 0-4.418 8.782-4.652 8.782-1.562 0,6.196 0,12.393 0,18.589 0,30.471 0,60.943 0,91.414 0,12.47 0,24.939 0,37.408 0,3.168 0,6.335 0,9.503 0,.574 0,1.148 0,1.723 0,2.81-8.461,2.868-8.782,.074-.51-4.43-7.516-4.48-7,0z"/>
<path d="m189.354,144.903c17.043-7.407 34.086-14.814 51.129-22.222 1.771-.77 .241-3.354-1.514-2.591-17.043,7.407-34.086,14.814-51.129,22.222-1.77,.77-.24,3.354 1.514,2.591z"/>
<path d="m186.537,164.084c14.71,12.722 29.419,25.443 44.129,38.165 1.455,1.259 3.587-.854 2.121-2.121-14.71-12.722-29.419-25.443-44.129-38.165-1.455-1.259-3.587,.853-2.121,2.121z"/>
<path d="m170.625,158.667c-1.012,3.739-5.343,2.294-7.682,1.987-2.866-.377-4.164-2.527-3.81-5.218 .538-4.087 1.075-8.174 1.612-12.261 .449-3.414 5.852-1.9 7.638-1.666 2.866,.376 4.164,2.527 3.81,5.218-.541,4.113-1.082,8.226-1.623,12.339-.251,1.914 2.751,1.89 3,0 .406-3.091 .813-6.183 1.219-9.274 .401-3.049 1.213-5.861-.42-8.667-1.586-2.726-5.78-2.589-8.472-2.942-3.841-.505-6.976,.403-8.089,4.516-.75,2.773-.783,5.942-1.156,8.785-.429,3.262-1.444,6.552 .304,9.555 1.586,2.726 5.78,2.589 8.472,2.943 3.841,.505 6.976-.403 8.089-4.516 .507-1.871-2.387-2.664-2.892-.799z"/>
<path d="m168.757,140.255c-.985,7.491-1.97,14.981-2.955,22.472-.251,1.914 2.751,1.89 3,0 .985-7.491 1.97-14.981 2.955-22.472 .251-1.914-2.752-1.889-3,0z"/>
<path d="m85.205,171.043c2.39,.314 4.781,.628 7.171,.943 2.709,.356 5-2.544 5-5 0-2.995-2.298-4.645-5-5-2.39-.314-4.781-.628-7.171-.943-2.709-.356-5,2.544-5,5 0,2.995 2.298,4.645 5,5z"/>
<path d="m134.948,177.583c2.39,.314 4.781,.628 7.171,.943 2.709,.356 5-2.544 5-5 0-2.995-2.298-4.645-5-5-2.39-.314-4.781-.628-7.171-.943-2.709-.356-5,2.544-5,5 0,2.995 2.299,4.646 5,5z"/>
<path d="m152.819,165.623c-.994,3.968-8.416,1.599-11.261,1.224-7.095-.933-14.19-1.866-21.285-2.798-13.205-1.736-26.41-3.473-39.616-5.209-4.81-.633-2.594-6.881-2.135-10.369 .812-6.173 1.624-12.345 2.435-18.518 .474-3.602 29.886,2.123 32.427,2.457 13.206,1.736 26.411,3.473 39.616,5.209 4.81,.633 2.593,6.882 2.135,10.369-.814,6.188-1.627,12.377-2.441,18.566-.587,4.466 6.42,4.409 7,0 .774-5.89 1.549-11.78 2.324-17.67 .839-6.384 2.855-13.587-4.271-17.243-2.896-1.486-7.524-1.386-10.662-1.799-6.988-.918-13.976-1.837-20.964-2.756-13.414-1.764-26.827-3.527-40.241-5.291-5.802-.763-11.083,1.783-11.922,8.159-.812,6.173-1.624,12.345-2.435,18.518-.467,3.553-1.828,8.171-.234,11.597 1.808,3.885 5.089,5.209 9.053,5.73 8.744,1.149 17.487,2.299 26.23,3.449 11.208,1.474 22.417,2.948 33.625,4.421 7.275,.957 16.915,3.629 19.372-6.184 1.097-4.381-5.654-6.239-6.75-1.862z"/>
<path d="m85.386,139.679c10.724,1.41 21.448,2.82 32.172,4.23 1.914,.251 1.89-2.751 0-3-10.724-1.41-21.448-2.82-32.172-4.23-1.914-.252-1.889,2.751 0,3z"/>
<path d="m86.029,134.791c10.724,1.41 21.448,2.82 32.172,4.23 1.914,.251 1.89-2.751 0-3-10.724-1.41-21.448-2.82-32.172-4.23-1.914-.252-1.89,2.751 0,3z"/>
<path d="m84.744,144.567c10.724,1.41 21.448,2.82 32.171,4.23 1.914,.251 1.89-2.751 0-3-10.724-1.41-21.448-2.82-32.171-4.23-1.914-.252-1.89,2.751 0,3z"/>
<path d="m106.701,99.272c0,9.74 0,19.479 0,29.219 0,4.514 7,4.514 7,0 0-9.74 0-19.479 0-29.219 0-4.514-7-4.514-7-0z"/>
<path d="m99.628,100.772c7.048,0 14.097,0 21.145,0 4.514,0 4.514-7 0-7-7.048,0-14.097,0-21.145,0-4.514,0-4.514,7 0,7z"/>
<path d="m80.833,172.136c21.583,2.854 43.167,5.708 64.75,8.562 1.914,.253 1.889-2.75 0-3-21.583-2.854-43.167-5.708-64.75-8.562-1.914-.253-1.889,2.75 0,3z"/>
</g>
</svg>
