<svg xmlns="http://www.w3.org/2000/svg" viewBox="20 20 321 321">
<g fill="#fff">
<path d="m164.626,256.763c-22.028-4.718-44.056-9.437-66.083-14.154-5.011-1.073-6.699,2.216-7.611,6.475-1.14,5.32-2.278,10.64-3.418,15.959-1.525,7.116 5.929,7.862 10.894,8.925 5.286,1.132 12.97,4.57 16.173-1.698-.565,.23-1.129,.46-1.694,.689 8.333,1.784 16.665,3.569 24.998,5.354-.367-.482-.734-.964-1.101-1.446 .337,6.657 6.875,6.794 12.026,7.897 3.859,.827 11.335,3.941 14.293-.29 2.421-3.462 2.658-9.101 3.541-13.224 1.048-4.904 4.269-12.042-2.018-14.487-1.806-.702-2.58,2.199-.798,2.893 3.922,1.525-1.191,15.987-1.965,19.602-1.274,5.949-6.267,3.896-10.386,3.014-2.952-.632-11.462-.807-11.695-5.405-.032-.641-.43-1.303-1.101-1.446-8.333-1.784-16.665-3.569-24.998-5.354-.633-.136-1.378,.07-1.694,.689-2.4,4.699-13.362,.195-16.938-.57-3.415-.731-4.919-3.065-4.135-6.727 .337-1.574 .674-3.147 1.011-4.721 .442-2.064 1.422-14.178 5.099-13.39 2.786,.597 5.573,1.193 8.359,1.79 19.481,4.173 38.961,8.345 58.442,12.518 1.888,.404 2.691-2.488 .799-2.893z"/>
<path d="m121.408,266.325c1.078,.23 2.155,.462 3.232,.692 .799,.171 1.619-.226 1.845-1.048 .208-.753-.248-1.674-1.047-1.845-1.078-.23-2.155-.462-3.232-.692-.799-.171-1.619,.226-1.845,1.048-.208,.753 .247,1.674 1.047,1.845z"/>
<path d="m129.417,268.04c1.078,.231 2.155,.462 3.232,.693 .799,.172 1.619-.226 1.845-1.048 .208-.753-.248-1.674-1.047-1.845-1.078-.231-2.155-.462-3.232-.693-.799-.172-1.619,.226-1.845,1.048-.208,.753 .247,1.674 1.047,1.845z"/>
<path d="m145.424,264.441c.106-.325 .405-.397 .682-.338-.097-.021-.194-.042-.291-.063-.298-.064-.597-.128-.895-.192-.194-.042-.562-.229-.257,.023 .227,.188 .087,.809 .18,.377 .026-.12 .052-.239 .078-.359-.071,.331-.428,.393-.683,.338 .097,.021 .194,.042 .292,.063 .298,.064 .597,.129 .895,.193 .197,.042 .56,.229 .256-.024-.227-.188-.087-.807-.18-.376-.026,.119-.052,.238-.077,.358-.405,1.886 2.487,2.688 2.893,.797 .167-.779 .328-1.547-.076-2.295-.407-.752-1.091-1.155-1.904-1.329-.438-.095-.876-.189-1.315-.283-1.364-.293-2.568,.455-2.993,1.761-.544,1.67 .229,3.246 1.98,3.624 .438,.094 .877,.188 1.315,.283 1.363,.294 2.568-.458 2.994-1.761 .601-1.843-2.296-2.627-2.894-.797z"/>
<path d="m155.18,266.537c.106-.323 .404-.399 .681-.34-.097-.021-.194-.042-.291-.063-.298-.064-.597-.128-.895-.192-.196-.042-.561-.229-.256,.024 .227,.188 .087,.809 .18,.376 .025-.12 .051-.24 .077-.36-.071,.332-.427,.395-.682,.339 .097,.021 .194,.042 .292,.063 .298,.064 .597,.129 .895,.193 .196,.042 .561,.229 .256-.024-.227-.188-.088-.809-.18-.376-.027,.12-.052,.24-.077,.36-.402,1.887 2.49,2.689 2.893,.797 .166-.779 .328-1.549-.077-2.297-.406-.751-1.091-1.154-1.904-1.328-.438-.095-.876-.189-1.315-.283-1.364-.294-2.566,.456-2.994,1.76-.547,1.667 .232,3.25 1.98,3.625 .438,.095 .877,.188 1.315,.282 1.365,.293 2.567-.454 2.995-1.759 .604-1.843-2.293-2.627-2.893-.797z"/>
<path d="m145.692,272.816c.105-.323 .407-.397 .683-.338-.097-.021-.194-.042-.292-.063-.298-.064-.597-.129-.896-.193-.197-.042-.561-.229-.256,.024 .227,.189 .086,.808 .18,.376 .026-.119 .052-.239 .078-.359-.071,.331-.428,.394-.683,.338 .097,.021 .194,.042 .292,.063 .298,.064 .597,.128 .895,.192 .195,.042 .562,.229 .256-.024-.227-.188-.087-.807-.18-.376-.025,.121-.051,.24-.077,.36-.405,1.886 2.487,2.688 2.893,.797 .167-.778 .329-1.548-.076-2.295-.407-.752-1.092-1.153-1.904-1.329-.438-.094-.876-.188-1.315-.283-1.363-.294-2.568,.456-2.993,1.761-.544,1.668 .228,3.248 1.979,3.624 .438,.095 .877,.189 1.316,.283 1.364,.293 2.567-.456 2.993-1.761 .603-1.843-2.295-2.628-2.893-.797z"/>
<path d="m155.449,274.912c.106-.324 .404-.398 .682-.338-.097-.021-.194-.042-.292-.063-.298-.064-.597-.128-.895-.192-.196-.043-.562-.229-.257,.024 .227,.188 .088,.807 .181,.376 .026-.12 .051-.239 .077-.359-.071,.33-.427,.393-.681,.338 .097,.021 .194,.042 .291,.063 .298,.064 .596,.129 .894,.193 .195,.042 .562,.229 .257-.024-.227-.188-.087-.807-.18-.376-.026,.119-.052,.238-.077,.358-.405,1.886 2.487,2.688 2.893,.797 .167-.778 .329-1.548-.076-2.296-.407-.751-1.092-1.153-1.904-1.328-.438-.095-.876-.189-1.314-.283-1.365-.294-2.568,.455-2.995,1.761-.545,1.668 .231,3.247 1.979,3.624 .438,.094 .877,.188 1.315,.283 1.365,.294 2.566-.458 2.994-1.761 .607-1.843-2.291-2.626-2.892-.797z"/>
<path d="m132.643,250.561c1.968-9.371-5.102-16.925-13.707-19.306-1.868-.517-2.66,2.378-.798,2.893 6.927,1.916 13.237,7.877 11.612,15.616-.396,1.886 2.496,2.69 2.893,.797z"/>
<path d="m110.833,256.731c-.854-.183-1.708-.365-2.562-.548 .349,.615 .698,1.23 1.047,1.845 .637-2.972 1.176-6.112-2.629-6.927-3.832-.82-4.707,1.943-5.37,5.036 .615-.35 1.23-.699 1.845-1.048-2.971-.636-6.114-1.176-6.927,2.63-.819,3.832 1.943,4.708 5.036,5.369-.349-.615-.698-1.23-1.047-1.845-.638,2.971-1.176,6.114 2.629,6.928 3.832,.819 4.708-1.942 5.371-5.035-.615,.35-1.23,.699-1.845,1.048 2.228,.477 4.972,1.376 6.417-1.091 1.432-2.444 .684-5.329-1.965-6.362-1.805-.703-2.58,2.198-.798,2.893 .748,.291 .452,2.376-.438,2.186-.806-.173-1.612-.345-2.418-.518-.763-.163-1.667,.215-1.845,1.048-.213,.991-.178,3.261-1.681,2.939-1.626-.348-.786-2.061-.534-3.238 .164-.762-.215-1.667-1.047-1.845-.992-.212-3.262-.176-2.941-1.68 .347-1.625 2.06-.786 3.236-.534 .763,.163 1.667-.215 1.845-1.048 .212-.99 .178-3.262 1.68-2.94 1.626,.348 .787,2.059 .535,3.237-.164,.762 .215,1.667 1.047,1.845 .854,.183 1.708,.365 2.562,.548 1.886,.403 2.689-2.488 .797-2.893z"/>
<path d="m225.15,289.463c1.894,1.963 2.741,2.383 4.688,2.174l35.769-3.813c.514-.055 2.749,.011 3.948-1.261l21.377-19.657c1.767-1.574 1.014-4.444-2.951-4.021l-74.621,7.955c-3.525,.377-4.255,2.588-2.643,4.402l14.433,14.221z"/>
<path d="m253.254,264.39c11.439-1.22 22.878-2.439 34.317-3.659 1.299-.139 1.987-1.526 1.061-2.561-13.131-14.645-26.261-29.289-39.392-43.934-.827-.923-2.7-.245-2.561,1.061 1.691,15.864 3.383,31.729 5.074,47.593 .203,1.903 3.205,1.923 3,0-1.691-15.864-3.383-31.729-5.074-47.593-.854,.354-1.707,.707-2.561,1.061 13.131,14.645 26.261,29.289 39.392,43.934 .354-.854 .707-1.707 1.061-2.561-11.439,1.22-22.878,2.439-34.317,3.659-1.903,.203-1.923,3.205 0,3z"/>
<path d="m238.563,213.313c1.827,17.138 3.654,34.274 5.481,51.412 .474,4.44 7.479,4.486 7,0-1.827-17.138-3.654-34.274-5.481-51.412-.473-4.441-7.478-4.487-7,0z"/>
<path d="m241.574,262.635c-6.555,.699-13.109,1.398-19.664,2.098 .482,.633 .964,1.266 1.446,1.898 4.863-16.563 9.727-33.126 14.59-49.689-.982-.133-1.964-.266-2.946-.398 1.691,15.864 3.383,31.728 5.074,47.592 .203,1.903 3.205,1.923 3,0-1.691-15.864-3.383-31.728-5.074-47.592-.173-1.623-2.442-2.115-2.946-.398-4.863,16.563-9.727,33.126-14.59,49.689-.254,.863 .471,2.003 1.446,1.898 6.555-.699 13.109-1.398 19.664-2.098 1.904-.203 1.923-3.205 0-3z"/>
<g stroke="#fff" stroke-width="10">
<path d="m78.833,192.143c0,1.366 1.813,2.474 4.048,2.474h129.997c2.235,0 4.048-1.107 4.048-2.474v-14.429c0-1.367-1.813-2.473-4.048-2.473h-129.997c-2.235,0-4.048,1.106-4.048,2.473v14.429z"/>
<path d="m123.93,173.276c0,2.288 1.85,4.144 4.131,4.144h76.074c2.279,0 4.13-1.855 4.13-4.144v-18.299c0-2.289-1.851-4.143-4.13-4.143h-76.074c-2.281,0-4.131,1.854-4.131,4.143v18.299z"/>
</g>
<path d="m212.926,141.328c0,23.732 0,47.465 0,71.198 0,6.448 10,6.448 10,0 0-23.732 0-47.465 0-71.198 0-6.449-10-6.449-10-0z"/>
<path d="m69.833,134.802c0,26.163 0,52.326 0,78.489 0,6.448 10,6.448 10,0 0-26.163 0-52.326 0-78.489 0-6.448-10-6.448-10,0z"/>
<path stroke="#fff" stroke-width="10" d="m84.32,167.314c0,.775 .59,1.403 1.32,1.403h24.316c.729,0 1.32-.628 1.32-1.403v-6.197c0-.775-.591-1.403-1.32-1.403h-24.316c-.729,0-1.32,.628-1.32,1.403v6.197z"/>
<path d="m194.96,77.292c31.303,0 62.605,0 93.908,0 4.514,0 4.514-7 0-7-31.303,0-62.605,0-93.908,0-4.514,0-4.514,7 0,7z"/>
</g>
<g fill="none" stroke="#fff" stroke-width="7">
<path d="m280.271,152.791-85.311,0"/>
<path d="m242.045,86.98 0,63.854"/>
</g>
<g fill="#fff">
<path d="m239.166,112.833c2.206,0 4.413,0 6.619,0 4.514,0 4.514-7 0-7-2.206,0-4.413,0-6.619,0-4.514,0-4.514,7 0,7z"/>
<path d="m277.476,75.875c-.378,4.219-9.253,5.84-12.324,6.591-7.512,1.837-15.365,2.27-23.069,2.325-7.734,.055-15.516-.649-23.069-2.325-3.067-.681-11.95-2.42-12.324-6.591-.5,.5-1,1-1.5,1.5 24.597-.054 49.19-.057 73.787,0 1.935,.004 1.935-2.996 0-3-24.597-.057-49.19-.054-73.787,0-.763,.001-1.573,.683-1.5,1.5 .421,4.694 5.694,6.696 9.525,8.072 9.063,3.256 19.342,3.776 28.868,3.844 9.638,.069 19.665-.845 28.868-3.844 3.844-1.253 9.112-3.458 9.525-8.072 .172-1.927-2.83-1.91-3,0z"/>
<path d="m193.401,77.561c1.757,.079 9.381-.473 10.079,.658 1.299,2.105 1.087,5.601 1.234,7.963 .218,3.496 .219,7.008 .225,10.509 .016,8.345 .218,16.748-1.238,24.993-.921,5.215-3.456,16.95-10.3,17.424 .5,.5 1,1 1.5,1.5-.068-21.517-.071-43.029 0-64.546 .007-1.935-2.993-1.934-3,0-.071,21.517-.068,43.029 0,64.546 .003,.775 .682,1.557 1.5,1.5 6.842-.475 9.932-8.157 11.756-13.766 3.302-10.148 2.768-21.125 2.782-31.651 .007-4.623-.05-9.255-.483-13.86-.2-2.114-.337-5.169-1.869-6.833-2.276-2.471-9.146-1.3-12.186-1.437-1.934-.087-1.926,2.913 0,3z"/>
<path d="m290.463,74.288c-3.04,.136-9.908-1.035-12.186,1.437-1.552,1.685-1.622,4.702-1.868,6.833-.528,4.583-.476,9.254-.483,13.86-.02,10.652-.229,21.327 2.781,31.651 1.641,5.626 5.035,13.3 11.756,13.766 .818,.057 1.498-.725 1.5-1.5 .068-21.517 .071-43.029 0-64.546-.007-1.934-3.007-1.935-3,0 .071,21.517 .068,43.029 0,64.546 .5-.5 1-1 1.5-1.5-6.938-.481-9.24-12.208-10.299-17.424-1.657-8.161-1.227-16.706-1.238-24.993-.009-5.594-.895-13.227 1.459-18.472 .45-1.002 8.504-.587 10.078-.658 1.927-.087 1.934-3.087-0-3z"/>
<path d="m290.463,183.989c-3.098-.14-6.194-.278-9.292-.418-.721-.032-1.51,.037-2.215-.104-.172-.035-.01-5.141-.005-5.512 .091-7.663 .302-15.096 2.244-22.562 1.126-4.327 3.762-12.569 9.268-12.951-.5-.5-1-1-1.5-1.5 .047,14.85 .135,29.697 0,44.546-.018,1.936 2.982,1.934 3,0 .135-14.849 .047-29.697 0-44.546-.002-.775-.682-1.557-1.5-1.5-5.353,.371-8.547,5.406-10.378,9.958-3.689,9.176-4.024,18.797-4.134,28.555-.03,2.635-.985,8.171 2.935,8.524 3.833,.345 7.731,.337 11.577,.51 1.934,.087 1.927-2.913-0-3z"/>
<path d="m193.401,187.107c3.847-.173 7.745-.165 11.578-.51 3.918-.354 2.966-5.89 2.935-8.525-.115-9.76-.443-19.375-4.135-28.555-1.83-4.551-5.024-9.586-10.378-9.958-.818-.057-1.497,.725-1.5,1.5-.047,14.85-.135,29.697 0,44.547 .018,1.934 3.018,1.936 3,0-.135-14.85-.047-29.697 0-44.547-.5,.5-1,1-1.5,1.5 5.598,.388 8.008,8.628 9.268,12.951 2.145,7.354 2.16,14.978 2.245,22.562 .021,1.766 .198,3.647-.103,5.399-.049,.281-1.595,.194-2.117,.218-3.098,.14-6.195,.278-9.293,.418-1.926,.087-1.934,3.087 0,3z"/>
</g>
</svg>
