<svg xmlns="http://www.w3.org/2000/svg" viewBox="20 20 321 321">
<g fill="#fff">
<path d="m120.65,193.144c-13.083-19.083-26.167-38.167-39.25-57.25-3.622-5.282-12.292-.288-8.635,5.047 13.083,19.083 26.167,38.167 39.25,57.25 3.622,5.282 12.293,.287 8.635-5.047z"/>
<path d="m115.358,193.192c-10.333,10.666-20.667,21.333-31,32-3.141,3.242 1.805,8.196 4.95,4.949 10.333-10.666 20.667-21.333 31-32 3.141-3.242-1.805-8.196-4.95-4.949z"/>
<path d="m262.561,197.434c6.917,10.667 13.834,21.333 20.75,32 2.446,3.771 8.509,.267 6.045-3.533-6.917-10.667-13.834-21.333-20.75-32-2.447-3.772-8.509-.267-6.045,3.533z"/>
<path d="m191.796,200.667c31.513,0 63.024,0 94.537,0 6.448,0 6.448-10 0-10-31.513,0-63.024,0-94.537,0v10h0z"/>
<path d="m117.833,200.667c8.083,0 15.052,0 23.136,0l-2.546-10c-8.083,0-12.506,0-20.59,0-6.449,0-6.449,10 0,10z"/>
<path d="m125.259,182.9c-11.551-16.849-23.103-33.698-34.654-50.547-2.535-3.697-8.604-.201-6.044,3.533 11.551,16.849 23.103,33.698 34.654,50.547 2.535,3.698 8.605,.202 6.044-3.533z"/>
<path d="m188.796,188.167c31.429,0 62.858,0 94.287,0 4.515,0 4.515-7 0-7-31.429,0-62.858,0-94.287,0v7h0z"/>
<path d="m123.562,188.167c4.674,0 18.695,0 14.021,0-.458,0-3.06-7-3.06-7-4.674,0-6.287,0-10.961,0-4.514,0-4.514,7 0,7z"/>
<path d="m192.857,221.238c-16.094,0-32.188,0-48.282,0 .5,.5 1,1 1.5,1.5-1.065-8.489-2.13-16.979-3.195-25.469-.811-6.464-4.919-12.417-7.724-18.232-.432,.752-.864,1.504-1.295,2.257 7.396-.78 15.644-2.307 23.099-1.74 10.057,.764 20.113,1.528 30.169,2.292-.482-.367-.964-.734-1.446-1.101 1.608,4.558 3.68,8.94 5.091,13.571 .77,2.53 .455,5.459 .485,8.067 .078,6.784 .093,13.57 .099,20.355 .002,1.935 3.002,1.935 3,0-.006-6.785-.028-13.571-.099-20.355-.027-2.642 .145-5.4-.368-8.006-.98-4.979-3.634-9.666-5.315-14.43-.237-.674-.735-1.047-1.446-1.101-9.831-.747-19.661-1.494-29.491-2.241-7.761-.589-16.054,.875-23.777,1.689-1.167,.123-1.82,1.169-1.295,2.257 1.691,3.506 3.382,7.011 5.072,10.517 .698,1.446 1.396,2.894 2.094,4.341-.626-1.298 .137,1.771 .226,2.48 1.039,8.283 2.078,16.566 3.117,24.85 .102,.812 .605,1.5 1.5,1.5 16.094,0 32.188,0 48.282,0 1.934-.001 1.934-3.001-.001-3.001z"/>
</g>
</svg>
