<svg xmlns="http://www.w3.org/2000/svg" viewBox="20 20 321 321">
<g fill="none" stroke="#fff" stroke-width="10">
<path d="m286.414,219.2c0,2.333-1.893,4.225-4.227,4.225h-202.708c-2.333,0-4.226-1.892-4.226-4.225v-17.308c0-2.334 1.892-4.226 4.226-4.226h202.708c2.334,0 4.227,1.892 4.227,4.226v17.308z"/>
<path stroke-linejoin="round" stroke-linecap="round" d="m123.466,197.836c-1.367,.001-2.474-1.107-2.474-2.475l40-40.695v-78.024c0-1.367 1.107-2.475 2.474-2.475h34.735c1.365,0 2.475,1.108 2.475,2.475v78.025l40,40.695c0,1.367-1.109,2.476-2.475,2.476l-114.735-.002z"/>
</g>
<g fill="#fff">
<path d="m178.542,247.595c2.721,2.433 5.624,5.767 5.923,9.545 .283,3.571-3.563,7.44-6.024,9.635-7.311,6.518-10.124,15.108-4.485,23.659 2.473,3.75 8.538,.247 6.044-3.533-3.938-5.971-1.563-10.408 3.107-14.914 2.209-2.132 4.173-4.353 5.854-6.938 5.182-7.964 .94-16.675-5.47-22.403-3.352-2.999-8.321,1.935-4.949,4.949z"/>
<path d="m204.981,252.782c2.311,2.069 4.821,4.898 5.095,8.112 .258,3.025-3.122,6.353-5.198,8.206-6.568,5.865-9.062,13.666-4.002,21.333 2.475,3.749 8.539,.247 6.045-3.533-3.338-5.058-1.337-8.73 2.62-12.584 1.874-1.824 3.552-3.699 5.038-5.868 4.961-7.241 1.28-15.307-4.648-20.615-3.352-3.002-8.32,1.933-4.95,4.949z"/>
<path d="m150.648,252.782c2.311,2.069 4.821,4.898 5.095,8.112 .258,3.025-3.123,6.353-5.198,8.206-6.569,5.865-9.061,13.666-4.001,21.333 2.474,3.749 8.539,.247 6.044-3.533-3.337-5.058-1.337-8.73 2.62-12.584 1.874-1.824 3.552-3.699 5.038-5.868 4.962-7.241 1.28-15.307-4.647-20.615-3.352-3.002-8.32,1.933-4.951,4.949z"/>
<path d="m167.07,214.046c4.632,0 9.264,0 13.896,0 4.514,0 4.514-7 0-7-4.632,0-9.264,0-13.896,0-4.514,0-4.514,7 0,7z"/>
<path d="m199.833,214.046c.834,0 1.669,0 2.503,0 1.908,0 3.5-1.592 3.5-3.5s-1.592-3.5-3.5-3.5c-.834,0-1.669,0-2.503,0-1.908,0-3.5,1.592-3.5,3.5s1.592,3.5 3.5,3.5z"/>
<path d="m212.333,214.046c.748,0 1.495,0 2.243,0 1.908,0 3.5-1.592 3.5-3.5s-1.592-3.5-3.5-3.5c-.748,0-1.495,0-2.243,0-1.908,0-3.5,1.592-3.5,3.5s1.592,3.5 3.5,3.5z"/>
</g>
</svg>
