<svg xmlns="http://www.w3.org/2000/svg" viewBox="20 20 321 321">
<g fill="#fff">
<path d="m244.986,124.51c13.64,3.655 27.28,7.31 40.92,10.964 6.237,1.671 8.881-7.975 2.658-9.643-13.64-3.655-27.28-7.31-40.92-10.964-6.237-1.671-8.88,7.976-2.658,9.643z"/>
<path d="m241.435,118.581c-1.21,4.515-2.419,9.03-3.629,13.545-1.671,6.237 7.976,8.881 9.643,2.658 1.21-4.515 2.419-9.03 3.629-13.545 1.67-6.237-7.976-8.881-9.643-2.658z"/>
<path d="m219.201,134.45c14.157,3.793 28.313,7.587 42.471,11.38 6.237,1.671 8.881-7.975 2.658-9.643-14.157-3.793-28.313-7.587-42.471-11.38-6.237-1.671-8.88,7.975-2.658,9.643z"/>
<path d="m215.571,128.906c-.575,2.146-1.149,4.293-1.725,6.44-.705,2.631 .853,5.424 3.492,6.15 2.613,.719 5.446-.861 6.15-3.492 .575-2.146 1.149-4.293 1.725-6.44 .705-2.631-.853-5.424-3.492-6.15-2.613-.719-5.446,.861-6.15,3.492z"/>
<path d="m258.042,140.68c-.575,2.146-1.149,4.293-1.725,6.44-.705,2.631 .853,5.424 3.492,6.15 2.613,.719 5.446-.861 6.15-3.492 .575-2.146 1.149-4.293 1.725-6.44 .705-2.631-.853-5.424-3.492-6.15-2.613-.719-5.446,.86-6.15,3.492z"/>
<path d="m242.07,166.677c-1.297,4.84-2.594,9.681-3.891,14.521-1.17,4.366 5.583,6.217 6.75,1.861 1.297-4.84 2.594-9.681 3.891-14.521 1.17-4.366-5.583-6.217-6.75-1.861z"/>
<path d="m233.057,153.946c-1.101,4.11-2.202,8.221-3.303,12.331-1.17,4.367 5.583,6.217 6.75,1.861 1.101-4.11 2.202-8.221 3.303-12.331 1.17-4.366-5.583-6.217-6.75-1.861z"/>
<path d="m226.588,178.094c-1.832,6.841-3.665,13.682-5.497,20.522-1.17,4.366 5.583,6.217 6.75,1.861 1.832-6.841 3.665-13.682 5.497-20.522 1.17-4.367-5.583-6.217-6.75-1.861z"/>
<path d="m218.887,160.467c-1.296,4.841-2.593,9.682-3.889,14.522-1.169,4.367 5.584,6.218 6.75,1.861 1.296-4.841 2.593-9.682 3.889-14.522 1.169-4.367-5.584-6.217-6.75-1.861z"/>
<path d="m211.998,186.184c-1.832,6.841-3.665,13.682-5.497,20.522-1.17,4.366 5.583,6.217 6.75,1.861 1.832-6.841 3.665-13.682 5.497-20.522 1.17-4.366-5.583-6.217-6.75-1.861z"/>
<path d="m235.779,191.637c-1.832,6.841-3.665,13.682-5.497,20.522-1.17,4.366 5.583,6.217 6.75,1.861 1.832-6.841 3.665-13.682 5.497-20.522 1.17-4.366-5.583-6.217-6.75-1.861z"/>
<path d="m251.377,179.174c-1.345,5.023-2.69,10.044-4.035,15.067-1.169,4.366 5.583,6.218 6.75,1.861 1.345-5.022 2.69-10.045 4.035-15.067 1.169-4.366-5.583-6.217-6.75-1.861z"/>
<path d="m243.688,207.616c-.405,1.515-.812,3.029-1.217,4.543-.493,1.842 .597,3.798 2.444,4.306 1.829,.503 3.813-.603 4.306-2.444 .405-1.515 .812-3.029 1.217-4.543 .493-1.842-.597-3.798-2.444-4.306-1.83-.503-3.813,.602-4.306,2.444z"/>
<path d="m204.719,166.372c-1.345,5.022-2.69,10.045-4.035,15.067-1.169,4.366 5.583,6.218 6.75,1.861 1.345-5.022 2.69-10.045 4.035-15.067 1.169-4.367-5.583-6.217-6.75-1.861z"/>
<path d="m197.057,194.711c-1.55,5.784-3.099,11.568-4.648,17.352-1.17,4.366 5.583,6.217 6.75,1.861 1.55-5.784 3.099-11.568 4.648-17.352 1.17-4.366-5.583-6.217-6.75-1.861z"/>
<path d="m246.596,150.518c-.582,2.172-1.164,4.345-1.746,6.517-1.17,4.367 5.583,6.217 6.75,1.861 .582-2.172 1.164-4.345 1.746-6.517 1.17-4.366-5.583-6.217-6.75-1.861z"/>
<path d="m223.84,144.335c-.582,2.172-1.164,4.345-1.746,6.517-1.17,4.367 5.583,6.217 6.75,1.861 .582-2.172 1.164-4.345 1.746-6.517 1.17-4.366-5.583-6.217-6.75-1.861z"/>
<path d="m255.45,164.742c-.354,1.324-.709,2.648-1.063,3.973-.493,1.842 .597,3.797 2.444,4.306 1.829,.503 3.813-.603 4.306-2.444 .354-1.324 .709-2.648 1.063-3.973 .493-1.842-.597-3.797-2.444-4.306-1.829-.504-3.813,.602-4.306,2.444z"/>
<path d="m209.25,151.96c-.354,1.324-.71,2.648-1.064,3.973-.493,1.842 .597,3.797 2.444,4.306 1.829,.503 3.813-.603 4.306-2.444 .354-1.324 .71-2.648 1.064-3.973 .493-1.842-.597-3.797-2.444-4.306-1.829-.503-3.813,.602-4.306,2.444z"/>
<path d="m109.833,292c4.222,0 8.444,0 12.667,0 6.449,0 6.449-10 0-10-4.222,0-8.444,0-12.667,0-6.448,0-6.448,10 0,10z"/>
<path d="m251.834,292c4.222,0 8.444,0 12.666,0 6.448,0 6.448-10 0-10-4.222,0-8.444,0-12.666,0-6.448,0-6.448,10 0,10z"/>
<path d="m275.414,274.338c-.984,3.02-1.787,2.329-4.62,2.329-3.787,0-7.575,0-11.362,0-13.075,0-26.151,0-39.228,0-31.08,0-62.16,0-93.239,0-8.246,0-16.491,0-24.737,0-2.538,0-2.58-2.379-3.555-4.622-2.392-5.5-4.783-11-7.174-16.499-3.075-7.072-6.149-14.144-9.224-21.215-.882-2.029-1.765-4.06-2.647-6.089-.156-.358-.312-.717-.467-1.075 1.342,3.087 .352,1.5 1.788,1.5 5.824,0 11.648,0 17.473,0 56.749,0 113.497,0 170.246,0 3.591,0 7.181,0 10.771,0 .596,0 1.191,0 1.787,0 .615,0 1.142-.018 1.152-.083-.143,.935-.285,1.87-.428,2.805-2.179,14.316-4.357,28.632-6.536,42.949-.96,6.306 8.675,9.017 9.643,2.658 1.871-12.293 3.741-24.587 5.612-36.881 .691-4.544 2.735-11 .416-15.308-2.364-4.391-6.495-6.141-11.245-6.141-21.331,0-42.662,0-63.993,0-31.771,0-63.542,0-95.313,0-10.61,0-21.221,0-31.831,0-8.455,0-17.743-.263-18.869,11-.139,1.39 1.061,3.395 1.63,4.703 1.146,2.637 2.292,5.272 3.439,7.909 3.156,7.261 6.313,14.521 9.47,21.78 2.018,4.641 4.035,9.281 6.053,13.922 2.248,5.169 5.136,8.686 11.104,8.686 21.911,0 43.822,0 65.732,0 25.685,0 51.371,0 77.056,0 8.135,0 16.27,0 24.405,0 1.694,0 3.389,0 5.082,0 6.271,0 9.439-4.114 11.252-9.671 2.005-6.147-7.653-8.76-9.643-2.657z"/>
<path d="m217.904,208.616c-.334,1.248-.669,2.496-1.003,3.743-.493,1.842 .597,3.798 2.444,4.306 1.829,.503 3.813-.603 4.306-2.444 .334-1.248 .669-2.496 1.003-3.743 .493-1.842-.597-3.798-2.444-4.306-1.829-.503-3.813,.602-4.306,2.444z"/>
<path d="m282.235,133.009c0,32.219 0,64.438 0,96.658 0,6.448 10,6.448 10,0 0-32.22 0-64.439 0-96.658 0-6.449-10-6.449-10,0z"/>
</g>
</svg>
