<svg xmlns="http://www.w3.org/2000/svg" viewBox="20 20 321 321">
<g fill="#fff">
<path d="m259.145,175.958c4.106,0 8.213,0 12.319,0 4.514,0 4.514-7 0-7-4.106,0-8.213,0-12.319,0-4.514,0-4.514,7 0,7z"/>
<path d="m253.53,99.774c2.44,8.646 4.881,17.291 7.321,25.937 1.225,4.337 7.979,2.492 6.75-1.861-2.44-8.646-4.881-17.291-7.321-25.937-1.224-4.337-7.978-2.492-6.75,1.861z"/>
<path d="m261.441,88.298c0,28.083 0,56.167 0,84.25 0,4.514 7,4.514 7,0 0-28.083 0-56.167 0-84.25 0-4.514-7-4.514-7,0z"/>
<path d="m287.074,70.237c-7.846,4.892-15.69,9.784-23.536,14.677 1.178,0 2.355,0 3.533,0-7.846-4.893-15.691-9.785-23.537-14.677-.589,2.174-1.178,4.348-1.767,6.522 15.691,0 31.382,0 47.073,0 4.514,0 4.514-7 0-7-15.691,0-31.382,0-47.073,0-3.553,0-4.685,4.703-1.767,6.522 7.846,4.893 15.691,9.785 23.537,14.677 1.031,.643 2.502,.643 3.533,0 7.846-4.892 15.69-9.784 23.536-14.677 3.822-2.383 .31-8.44-3.532-6.044z"/>
<path d="m248.629,112.248c3.592-3.533 7.184-7.066 10.774-10.6 3.222-3.17-1.73-8.117-4.949-4.95-3.592,3.533-7.184,7.066-10.774,10.6-3.222,3.17 1.73,8.117 4.949,4.95z"/>
<path d="m243.8,113.567c2.49-1.414 4.98-2.829 7.471-4.243-1.597-1.596-3.192-3.192-4.789-4.789-1.125,2.633-2.251,5.266-3.377,7.899 1.833-.236 3.665-.472 5.497-.708-1.364-1.218-2.729-2.437-4.094-3.656-3.354-2.996-8.323,1.938-4.949,4.95 1.364,1.218 2.729,2.437 4.094,3.656 1.503,1.342 4.558,1.489 5.497-.708 1.125-2.633 2.251-5.266 3.377-7.899 .629-1.472 .668-3.025-.548-4.242-1.122-1.122-2.87-1.326-4.241-.547-2.49,1.414-4.98,2.829-7.471,4.243-3.924,2.229-.398,8.277 3.533,6.044z"/>
</g>
<g fill="none" stroke="#fff" stroke-width="10">
<path d="m281.712,222.723h-19.06c-2.914,0-5.275,3.033-5.275,6.775v10.057l-139.515,.179v-10.235c0-3.742-2.363-6.775-5.278-6.775h-19.058c-2.914,0-5.277,3.033-5.277,6.775v17.691c0,3.742 2.363,6.775 5.277,6.775h9.372v15.574c0,6.598 4.165,11.945 9.304,11.945h150.518c5.14,0 9.304-5.348 9.304-11.945v-15.574h9.688c2.915,0 5.277-3.033 5.277-6.775v-17.691c0-3.743-2.362-6.776-5.277-6.776z"/>
<path d="m259.564,213.561c0-.158-.004-14.572-.01-14.729-.209-5.018-3.723-9.013-8.026-9.013h-128.82c-4.438,0-8.036,4.248-8.036,9.486v14.256"/>
</g>
<g fill="#fff">
<path d="m113.705,283.249c0,1.14 0,2.278 0,3.418 0,2.726 2.274,5 5,5s5-2.274 5-5c0-1.14 0-2.278 0-3.418 0-2.726-2.274-5-5-5s-5,2.274-5,5z"/>
<path d="m251.31,283.249c0,1.14 0,2.278 0,3.418 0,2.726 2.274,5 5,5s5-2.274 5-5c0-1.14 0-2.278 0-3.418 0-2.726-2.274-5-5-5s-5,2.274-5,5z"/>
<path d="m156.562,123.906h-75.265c-2.461,0-4.464-2.002-4.464-4.464v-45.369c0-2.461 2.003-4.465 4.464-4.465h75.265c2.461,0 4.464,2.003 4.464,4.465v45.369c0,2.462-2.003,4.464-4.464,4.464zm-75.265-50.501c-.368,0-.667,.299-.667,.668v45.369c0,.368 .3,.668 .667,.668h75.265c.368,0 .667-.3 .667-.668v-45.369c0-.369-.299-.668-.667-.668h-75.265z"/>
<path d="m158.748,119.383c0,.68-1.042,1.231-2.327,1.231h-75.264c-1.285,0-2.328-.551-2.328-1.231v-1.334c0-.68 1.042-1.232 2.328-1.232h75.263c1.285,0 2.327,.552 2.327,1.232v1.334z"/>
<path d="m156.42,122.512h-75.263c-2.449,0-4.226-1.315-4.226-3.129v-1.334c0-1.813 1.777-3.13 4.226-3.13h75.263c2.448,0 4.226,1.316 4.226,3.13v1.334c-0,1.814-1.777,3.129-4.226,3.129zm-75.263-3.796h75.263-75.263z"/>
<path d="m120.972,128.967c0,1.257-1.02,2.278-2.278,2.278h-.19c-1.258,0-2.278-1.021-2.278-2.278v-7.214c0-1.258 1.021-2.278 2.278-2.278h.19c1.258,0 2.278,1.021 2.278,2.278v7.214z"/>
<path d="m118.694,133.144h-.19c-2.303,0-4.176-1.874-4.176-4.176v-7.214c0-2.303 1.874-4.176 4.176-4.176h.19c2.303,0 4.176,1.874 4.176,4.176v7.214c0,2.302-1.873,4.176-4.176,4.176zm-.19-11.77c-.209,0-.38,.17-.38,.379v7.214c0,.209 .17,.379 .38,.379h.19c.209,0 .379-.17 .379-.379v-7.214c0-.209-.17-.379-.379-.379h-.19z"/>
<path d="m92.307,133.333c17.538,0 35.076,0 52.614,0 .116,0 .232,0 .349,0 2.448,0 2.448-3.796 0-3.796-17.538,0-35.076,0-52.614,0-.116,0-.232,0-.349,0-2.448,0-2.448,3.796 0,3.796z"/>
<path d="m185.932,154.045c-.581,5.047-7.277,3.803-10.285,3.803-5.796,0-11.593,0-17.39,0-15.955,0-31.909,0-47.863,0-10.839,0-21.678,0-32.517,0-6.817,0-5.001-9.738-5.001-13.923 0-5.411 3.18-6.591 7.551-6.591 22.662,0 45.325,0 67.987,0 9.71,0 19.42,0 29.13,0 1.528,0 3.057,0 4.585,0 5.851-.001 3.803,13.644 3.803,16.711 0,1.935 3,1.935 3,0 0-5.061 1.474-12.511-1.37-16.982-1.937-3.046-5.694-2.729-8.791-2.729-12.345,0-24.689,0-37.034,0-15.624,0-31.248,0-46.872,0-4.942,0-9.885,0-14.828,0-3.097,0-6.855-.317-8.792,2.729-2.843,4.472-1.37,11.922-1.37,16.982 0,4.96 4.312,6.803 8.514,6.803 11.295,0 22.591,0 33.886,0 15.887,0 31.773,0 47.659,0 5.565,0 11.131,0 16.697,0 2.71,0 5.641,.333 8.229-.593 2.673-.955 3.775-3.636 4.072-6.21 .221-1.92-2.782-1.899-3,0z"/>
<path d="m180.002,150.094c-.69,3.416-7.031,2.104-9.274,2.104-6.233,0-12.467,0-18.7,0-15.964,0-31.929,0-47.894,0-5.887,0-11.775,0-17.662,0-3.852,0-7.614,1.15-7.614-4.126 0-5.853 2.601-5.09 7.116-5.09 5.766,0 11.532,0 17.298,0 17.133,0 34.267,0 51.4,0 6.213,0 12.426,0 18.638,0 1.486,0 2.972,0 4.458,0 3.124,0 2.181,5.603 2.181,7.511 0,1.935 3,1.935 3,0 0-4.217 .85-10.511-5.181-10.511-3.575,0-7.15,0-10.725,0-15.03,0-30.06,0-45.09,0-12.723,0-25.447,0-38.17,0-3.526,0-6.992-.049-7.872,4.307-.822,4.071-.513,10.91 4.983,10.91 18.323,0 36.646,0 54.97,0 10.824,0 21.649,0 32.473,0 4.603,0 13.323,1.802 14.557-4.307 .382-1.889-2.509-2.693-2.892-.798z"/>
</g>
</svg>
