<svg xmlns="http://www.w3.org/2000/svg" viewBox="20 20 321 321">
<g fill="none" stroke="#fff" stroke-linejoin="round" stroke-linecap="round" stroke-width="10">
<path d="m250.266,247.186c1.59,12.645-10.332,23.077-23.076,23.077 0,0-37.795-4.748-46.479-4.748-8.624,0-46.232,4.748-46.232,4.748-12.745,0-24.666-10.433-23.077-23.077 1.368-10.888 10.643-29.938 11.739-43.014 1.065-12.7 10.333-23.078 23.078-23.078 6.442,0 24.83-11.361 34.493-11.361 9.745,0 28.243,11.361 34.739,11.361 12.744,0 22.013,10.378 23.078,23.078 1.094,13.075 10.369,32.126 11.737,43.014z"/>
<path d="m168.824,107.524c-1.514-14.405-11.189-18.156-21.287-17.095-10.098,1.061-18.782,6.742-17.268,21.147 1.514,14.406 12.653,32.081 22.75,31.02 10.098-1.061 17.32-20.665 15.805-35.072z"/>
<path d="m231.592,111.577c1.514-14.404-7.17-20.086-17.268-21.147s-19.773,2.69-21.287,17.095c-1.515,14.406 5.707,34.012 15.804,35.072 10.098,1.061 21.237-16.614 22.751-31.02z"/>
<path d="m113.479,130.635c-3.011-14.168-13.026-16.887-22.957-14.776-9.932,2.111-17.975,8.668-14.963,22.836 3.012,14.169 15.938,30.583 25.868,28.472 9.932-2.111 15.064-22.363 12.052-36.532z"/>
<path d="m286.301,138.695c3.012-14.168-5.031-20.726-14.963-22.836-9.931-2.111-19.945,.608-22.957,14.776-3.012,14.169 2.121,34.42 12.052,36.531 9.931,2.112 22.856-14.302 25.868-28.471z"/>
</g>
</svg>
