<svg xmlns="http://www.w3.org/2000/svg" viewBox="20 20 321 321">
<g fill="#fff">
<path d="m250.749,215.381c-5.517,5.142-11.688,9.531-17.119,14.801-5.176,5.022-10.656,12.34-11.796,19.673-1.401,9.018 .886,18.287-.621,27.225 .024-.141-.79,2.588-.297,1.503 .612-1.347 5.646-1.613 2.598-1.589-2.207,.019-4.413,.033-6.62,.048-6.12,.04-12.24,.068-18.361,.09-6.428,.022-12.855,.033-19.283,.034-3.188,0-6.376-.005-9.565-.013-1.536-.003-3.072-.009-4.608-.015-.992-.005-1.985-.009-2.977-.015 2.383,.139 3.951,1.09 4.704,2.854-1.912-5.98 1.039-15.431-.7-22.606-2.614-10.79-16.84-10.137-25.41-10.197-3.298-.023-6.598,.044-9.895,.158-2.553,.089 3.816,7.137 3.856,3.401 .021-2.002 .038-4.005 .052-6.007 .032-4.613 .048-9.228-.008-13.841-.01-.856-.031-1.713-.056-2.569 .113,3.967-5.163,4.159-3.102,4.059 2.41-.116 4.849,.104 7.26,.138 4.781,.066 10.152-.454 13.851-3.805 3.432-3.108 4.338-8.014 4.363-12.436 .052-9.284-3.774-18.63-7.315-27.037-1.091-2.592-2.237-5.158-3.466-7.688-.16-.33-.783-1.735-.177-.149-.464-1.215-.062-.554-.154,.003-.084,.508-1.985,.982-.587,.96 23.673-.378 47.382,0 71.057,0 13.53,0 27.06,0 40.589,0 .762,0 2.38,.425 1.239-.098-.833-.381-1.087-2.963-.9-1.757 .266,1.721-.215-1.821-.008-.112 .234,1.93 .373,3.871 .478,5.811 .517,9.692 .02,21.719-7.022,29.176-6.626,7.018 4.005,17.605 10.666,10.551 12.138-12.854 12.903-32.892 10.345-49.489-.975-6.319-8.919-9.085-14.422-9.085-4.015,0-8.029,0-12.045,0-29.397,0-58.795,0-88.192,0-10.238,0-25.279-1.533-26.073,12.84-.308,5.572 3.386,10.975 5.329,15.675 2.668,6.454 6.85,16.491 5.49,22.496-.301,1.328 2.316-1.159 .347-.959-2.185,.223-4.419,.09-6.608,.021-5.296-.167-10.591-.147-13.959,4.659-2.67,3.81-1.915,8.638-1.898,13.028 .019,4.739-.019,9.479-.064,14.22-.041,4.359 .691,8.467 4.621,11.117 3.236,2.184 6.57,1.854 10.22,1.775 4.271-.094 8.545-.081 12.814,.112 1.683,.075 3.508,.218 4.6,.42 1.618,.3 .444,.458-.305-1.51 .688,1.809 .049-.882 .166,.879 .467,7.04-.854,13.944 .357,20.98 1.804,10.471 12.575,9.036 20.586,9.052 10.596,.02 21.192-.008 31.788-.053 4.493-.02 8.985-.044 13.478-.074 4.012-.026 8.382,.491 11.966-1.662 6.79-4.079 6.642-14.208 6.546-21.087-.048-3.454-.265-6.897-.243-10.354 .012-2.07 .058-4.139 .219-6.204-.079,1.011 1.031-2.741 .212-.955 5.088-11.099 15.535-17.276 24.727-25.843 7.075-6.596-3.596-17.141-10.668-10.55z"/>
<path d="m139.667,164.814c42.705,0 85.409,0 128.113,0 9.686,0 9.771-15.003 .107-15.003-42.704,0-85.408,0-128.112,0-9.687,0-9.772,15.003-.108,15.003z"/>
<path d="m85.122,169.616c-.656,13.18 4.778,23.668 17.394,28.33 12.228,4.518 27.03,2.412 39.764,2.365 9.684-.036 9.773-15.039 .108-15.004-10.208,.038-20.886,1.181-31-.563-9.025-1.557-11.721-5.797-11.262-15.019 .481-9.69-14.526-9.729-15.004-.109z"/>
<path d="m106.385,160.565c-.195,1.695-16.442,.669-18.138,.669-2.865,0-8.415,1.604-8.415-2.222 0-12.688 0-25.376 0-38.064 0-12.915 0-25.829 0-38.743 0-3.7 3.085-2.538 6.238-2.538 7.608,0 15.216,0 22.824,0 .685,0 5.338-.653 5.49,.669 .391,3.396 0,7.067 0,10.481 0,2.339 0,4.679 0,7.018 0,1.024 0,2.047 0,3.071 0,1.272-.677,2.78 .355,1.59-1.068,1.231-3.307,1.822-4.567,2.965-1.844,1.671-2.977,3.729-3.522,6.147-.857,3.805-.32,8.264-.33,12.137-.013,5.37-.007,10.74 .002,16.11 .013,6.904 .033,13.807 .063,20.71 .028,6.447 10.028,6.45 10,0-.064-14.754-.142-29.51-.03-44.264 .007-.966-.349-2.823 .542-3.475 1.411-1.031 3.02-1.656 4.371-2.8 3.442-2.915 3.117-7.019 3.117-11.113 0-4.53 0-9.06 0-13.59 0-3.138 .504-7.231-1.259-10.005-4.147-6.523-10.752-5.653-17.437-5.653-7.449,0-14.897,0-22.346,0-6.748,0-13.51,2.874-13.51,10.815 0,3.585 0,7.17 0,10.754 0,21.979 0,43.958 0,65.936 0,2.757-.28,5.989 1.259,8.41 3.559,5.597 8.669,5.652 14.526,5.652 5.949,0 11.897,0 17.847,0 7.041,0 12.069-3.27 12.921-10.669 .737-6.397-9.272-6.326-10.001,.002z"/>
</g>
</svg>
