<svg xmlns="http://www.w3.org/2000/svg" viewBox="20 20 321 321">
<g fill="#fff">
<path d="m165.69,168.656c10.06,0 20.12,0 30.18,0 9.686,0 9.771-15.003 .107-15.003-10.06,0-20.12,0-30.179,0-9.686-0-9.772,15.003-.108,15.003z"/>
<path d="m178.955,75.715c3.411,3.031 6.406,6.828 7.659,11.259 1.488,5.266-4.036,11.148-7.58,14.384-3.122,2.851-5.805,6.183-7.817,9.904-3.584,6.626-1.973,13.292 2.039,19.291 2.495,3.731 8.562,.231 6.044-3.533-2.646-3.958-4.132-7.697-2.038-12.225 1.292-2.792 3.384-5.19 5.525-7.361 2.416-2.45 4.768-4.784 6.832-7.576 7.535-10.192 2.982-21.365-5.714-29.094-3.362-2.987-8.331,1.946-4.95,4.951z"/>
<path d="m212.678,82.333c3.14,2.797 6.478,6.677 6.781,11.029 .286,4.098-3.941,8.5-6.781,11.031-8.075,7.197-11.428,16.676-5.085,26.161 2.496,3.731 8.563,.231 6.045-3.533-4.32-6.459-2.221-11.327 2.77-16.512 2.237-2.325 4.466-4.479 6.398-7.107 6.687-9.092 2.532-19.149-5.179-26.02-3.357-2.991-8.326,1.942-4.949,4.951z"/>
<path d="m143.373,82.333c3.14,2.797 6.478,6.677 6.782,11.029 .286,4.098-3.942,8.5-6.782,11.031-8.075,7.197-11.427,16.676-5.084,26.161 2.495,3.731 8.562,.231 6.044-3.533-4.319-6.459-2.22-11.327 2.771-16.512 2.238-2.325 4.466-4.479 6.398-7.107 6.687-9.092 2.532-19.149-5.178-26.02-3.36-2.991-8.328,1.942-4.951,4.951z"/>
<path d="m101.464,192.796c.129-3.297 3.749-5.594 6.239-7.136 5.47-3.388 11.834-5.287 18-6.94 17.868-4.792 36.703-6.051 55.13-6.11 4.514-.015 4.515-7.015 0-7-20.745,.066-42.048,1.714-61.987,7.788-8.981,2.736-23.934,7.985-24.382,19.398-.177,4.516 6.823,4.499 7,0z"/>
<path d="m267.203,192.796c-.451-11.491-15.411-16.546-24.383-19.398-19.778-6.287-41.369-7.721-61.987-7.788-4.515-.015-4.513,6.985 0,7 18.507,.06 37.159,1.491 55.131,6.11 5.944,1.527 11.836,3.497 17.217,6.481 2.719,1.509 6.884,4.065 7.022,7.595 .177,4.499 7.178,4.516 7,0z"/>
<path d="m282.591,208.188c-4.282,0-8.564,0-12.848,0-4.085,0-7.528,3.342-7.556,7.448-.026,4.065 3.361,7.556 7.448,7.556 4.282,0 8.564,0 12.848,0 4.085,0 7.528-3.342 7.556-7.448 .026-4.066-3.361-7.556-7.448-7.556z"/>
</g>
<path fill="none" stroke="#fff" stroke-width="10" d="m264.556,280.99c0,3.052-2.474,5.525-5.525,5.525h-156.544c-3.051,0-5.525-2.474-5.525-5.525v-77.557c0-3.051 2.475-5.525 5.525-5.525h156.543c3.052,0 5.525,2.475 5.525,5.525v77.557z"/>
<g fill="#fff">
<path d="m91.828,202.908c49.961,0 99.922,0 149.883,0 9.326,0 18.652,0 27.979,0 6.448,0 6.448-10 0-10-49.961,0-99.922,0-149.883,0-9.326,0-18.652,0-27.979,0-6.449,0-6.449,10 0,10z"/>
<path d="m91.882,208.188c-4.283,0-8.565,0-12.847,0-4.086,0-7.529,3.342-7.556,7.448-.027,4.065 3.361,7.556 7.447,7.556 4.283,0 8.565,0 12.847,0 4.086,0 7.529-3.342 7.556-7.448 .027-4.066-3.361-7.556-7.447-7.556z"/>
</g>
</svg>
