<svg xmlns="http://www.w3.org/2000/svg" viewBox="20 20 321 321">
<g fill="#fff">
<path d="m243.971,251.167c0-32.833 0-65.667 0-98.5 0-6.449-10-6.449-10,0 0,32.833 0,65.667 0,98.5 0,6.448 10,6.448 10,0z"/>
<path d="m238.971,157.667c13.954,0 27.908,0 41.862,0 6.448,0 6.448-10 0-10-13.954,0-27.908,0-41.862,0-6.449,0-6.449,10-0,10z"/>
<path d="m275.833,152.667c0,6.361 0,12.723 0,19.084 0,6.449 10,6.449 10,0 0-6.361 0-12.723 0-19.084 0-6.449-10-6.449-10,0z"/>
<path d="m100.162,228.988c5.833-1.333 11.667-2.667 17.5-4 6.286-1.437 3.62-11.078-2.658-9.643-5.833,1.333-11.667,2.667-17.5,4-6.286,1.437-3.62,11.079 2.658,9.643z"/>
<path d="m115.004,224.988c4.667,1.5 9.333,3 14,4.5 6.157,1.979 8.772-7.678 2.658-9.643-4.667-1.5-9.333-3-14-4.5-6.157-1.979-8.772,7.678-2.658,9.643z"/>
<path d="m141.162,229.988c5.833-1.333 11.667-2.667 17.5-4 6.286-1.437 3.62-11.078-2.658-9.643-5.833,1.333-11.667,2.667-17.5,4-6.286,1.437-3.62,11.079 2.658,9.643z"/>
<path d="m156.004,225.988c4.667,1.5 9.333,3 14,4.5 6.157,1.979 8.772-7.678 2.658-9.643-4.667-1.5-9.333-3-14-4.5-6.157-1.979-8.772,7.678-2.658,9.643z"/>
<path d="m182.162,230.988c5.833-1.333 11.667-2.667 17.5-4 6.286-1.437 3.62-11.078-2.658-9.643-5.833,1.333-11.667,2.667-17.5,4-6.286,1.437-3.62,11.079 2.658,9.643z"/>
<path d="m77.162,249.988c5.833-1.333 11.667-2.667 17.5-4 6.286-1.437 3.62-11.078-2.658-9.643-5.833,1.333-11.667,2.667-17.5,4-6.286,1.437-3.62,11.079 2.658,9.643z"/>
<path d="m92.004,245.988c4.667,1.5 9.333,3 14,4.5 6.157,1.979 8.772-7.678 2.658-9.643-4.667-1.5-9.333-3-14-4.5-6.157-1.979-8.772,7.678-2.658,9.643z"/>
<path d="m118.162,250.988c5.833-1.333 11.667-2.667 17.5-4 6.286-1.437 3.62-11.078-2.658-9.643-5.833,1.333-11.667,2.667-17.5,4-6.286,1.437-3.62,11.079 2.658,9.643z"/>
<path d="m133.004,246.988c4.667,1.5 9.333,3 14,4.5 6.157,1.979 8.772-7.678 2.658-9.643-4.667-1.5-9.333-3-14-4.5-6.157-1.979-8.772,7.678-2.658,9.643z"/>
<path d="m159.162,251.988c5.833-1.333 11.667-2.667 17.5-4 6.286-1.437 3.62-11.078-2.658-9.643-5.833,1.333-11.667,2.667-17.5,4-6.286,1.437-3.62,11.079 2.658,9.643z"/>
<path d="m174.004,247.988c4.667,1.5 9.333,3 14,4.5 6.157,1.979 8.771-7.678 2.658-9.643-4.667-1.5-9.333-3-14-4.5-6.157-1.979-8.772,7.678-2.658,9.643z"/>
<path d="m200.162,251.988c5.833-1.333 11.667-2.667 17.5-4 6.286-1.437 3.62-11.078-2.658-9.643-5.833,1.333-11.667,2.667-17.5,4-6.286,1.437-3.62,11.079 2.658,9.643z"/>
<path d="m102.162,269.988c5.833-1.333 11.667-2.667 17.5-4 6.286-1.437 3.62-11.078-2.658-9.643-5.833,1.333-11.667,2.667-17.5,4-6.286,1.437-3.62,11.079 2.658,9.643z"/>
<path d="m117.004,265.988c4.667,1.5 9.333,3 14,4.5 6.157,1.979 8.772-7.678 2.658-9.643-4.667-1.5-9.333-3-14-4.5-6.157-1.979-8.772,7.678-2.658,9.643z"/>
<path d="m143.162,270.988c5.833-1.333 11.667-2.667 17.5-4 6.286-1.437 3.62-11.078-2.658-9.643-5.833,1.333-11.667,2.667-17.5,4-6.286,1.437-3.62,11.079 2.658,9.643z"/>
<path d="m158.004,266.988c4.667,1.5 9.333,3 14,4.5 6.157,1.979 8.772-7.678 2.658-9.643-4.667-1.5-9.333-3-14-4.5-6.157-1.979-8.772,7.678-2.658,9.643z"/>
<path d="m184.162,271.988c5.833-1.333 11.667-2.667 17.5-4 6.286-1.437 3.62-11.078-2.658-9.643-5.833,1.333-11.667,2.667-17.5,4-6.286,1.437-3.62,11.079 2.658,9.643z"/>
<path d="m199.004,267.988c4.667,1.5 9.333,3 14,4.5 6.157,1.979 8.771-7.678 2.658-9.643-4.667-1.5-9.333-3-14-4.5-6.157-1.979-8.771,7.678-2.658,9.643z"/>
<path d="m225.162,271.988c5.833-1.333 11.667-2.667 17.5-4 6.286-1.437 3.62-11.078-2.658-9.643-5.833,1.333-11.667,2.667-17.5,4-6.286,1.437-3.62,11.079 2.658,9.643z"/>
<path d="m240.004,267.988c4.667,1.5 9.333,3 14,4.5 6.157,1.979 8.771-7.678 2.658-9.643-4.667-1.5-9.333-3-14-4.5-6.157-1.979-8.771,7.678-2.658,9.643z"/>
<path d="m218.971,230.167c0-32.833 0-65.667 0-98.5 0-6.449-10-6.449-10,0 0,32.833 0,65.667 0,98.5 0,6.448 10,6.448 10,0z"/>
<path d="m213.971,136.667c13.954,0 27.908,0 41.862,0 6.448,0 6.448-10 0-10-13.954,0-27.908,0-41.862,0-6.449,0-6.449,10 0,10z"/>
<path d="m250.833,131.667c0,6.361 0,12.723 0,19.084 0,6.449 10,6.449 10,0 0-6.361 0-12.723 0-19.084 0-6.449-10-6.449-10,0z"/>
<path d="m74.833,204.917c40.917,0 81.833,0 122.75,0 6.448,0 6.448-10 0-10-40.917,0-81.833,0-122.75,0-6.449,0-6.449,10 0,10z"/>
<path d="m74.833,291.917c48.697,0 97.394,0 146.091,0 21.97,0 43.939,0 65.909,0 6.448,0 6.448-10 0-10-48.697,0-97.395,0-146.091,0-21.97,0-43.939,0-65.909,0-6.449,0-6.449,10-0,10z"/>
</g>
</svg>
