<svg xmlns="http://www.w3.org/2000/svg" viewBox="20 20 321 321">
<g fill="none" stroke="#fff">
<path d="m61.167,131.568"/>
<path d="m70.45,221.759"/>
</g>
<g fill="#fff">
<path d="m193.424,166.049c-16.768,0-33.536,0-50.303,0-6.449,0-6.449,10 0,10 16.768,0 33.536,0 50.303,0 6.448,0 6.448-10 0-10z"/>
<path d="m289.958,227.722c-15.585-30.276-41.564-55.341-77.317-55.341-27.818,0-55.638,0-83.457,0-8.756,0-17.512,0-26.268,0 1.607,2.11 3.214,4.219 4.821,6.329 3.271-15.693 6.542-31.387 9.813-47.081-1.607,1.224-3.214,2.447-4.821,3.671 24.226-.059 48.452-.118 72.677-.177 5.326-.013 10.991-.885 12.818-6.972 2.293-7.637 1.152-17.899-6.833-21.252-2.609-1.096-7.099-.319-9.78-.313-6.598,.016-13.195,.032-19.792,.048-15.414,.038-30.827,.075-46.24,.112-3.656,.009-7.312,.018-10.968,.027-.077,0-.154,0-.231,0 3.558-.009-1.173-.134-1.58-.182-2.338-.271-4.822,1.364-6.532,2.72-1.768,1.403-2.967,4-3.417,6.157-5.182,24.865-10.365,49.73-15.547,74.595-2.278,10.931-4.557,21.862-6.835,32.793-1.248,5.985-.377,12.585 5.919,15.352 7.227,3.176 14.694,2.976 22.425,2.711 18.323-.627 36.764-.03 55.094-.03 29.829,0 59.657,0 89.485,0 10.017,0 20.033,0 30.05,0 7.452,0 20.209-.721 17.02-11.974-1.756-6.194-11.405-3.559-9.643,2.658-.493-1.738 .961-.685-.553-.685-.2,0-.401,0-.602,0-.984,0-1.969,0-2.954,0-3.759,0-7.518,0-11.276,0-12.891,0-25.782,0-38.673,0-31.437,0-62.874,0-94.311,0-9.497,0-18.995,0-28.492,0-4.353,0-25.291,1.559-24.226-3.554 5.006-24.02 10.012-48.04 15.019-72.059 2.407-11.547 4.813-23.095 7.22-34.643 .181-.869 .362-1.739 .543-2.608 .427-2.049 .563-1.249 1.988-1.252 3.46-.008 6.92-.017 10.379-.025 15.331-.038 30.662-.075 45.993-.112 6.711-.017 13.422-.033 20.133-.049 1.932-.004 3.863-.009 5.796-.014 1.391-.003 1.955-.475 2.086,.838 .155,1.561 .006,3.212 .008,4.779 .002,.892-.056,2.923-.093,2.923-1.8,.004-3.601,.009-5.401,.013-8.708,.021-17.417,.042-26.125,.063-14.85,.037-29.7,.073-44.55,.109-2.117,.005-4.371,1.509-4.821,3.671-3.271,15.693-6.542,31.387-9.813,47.081-.657,3.152 1.416,6.329 4.821,6.329 23.864,0 47.728,0 71.592,0 12.34,0 24.681,0 37.021,0 10.652,0 21.234,1.972 30.777,6.943 17.63,9.184 30.116,26.153 39.018,43.444 2.952,5.739 11.581,.679 8.635-5.043z"/>
<path d="m90.021,251.667c49.503,0 99.007,0 148.511,0 16.267,0 32.534,0 48.801,0 6.448,0 6.448-10 0-10-49.504,0-99.007,0-148.511,0-16.267,0-32.534,0-48.801,0-6.449,0-6.449,10 0,10z"/>
</g>
</svg>
