<svg xmlns="http://www.w3.org/2000/svg" viewBox="20 20 321 321">
<path fill="#fff" d="m194.96,77.292c31.303,0 62.605,0 93.908,0 4.514,0 4.514-7 0-7-31.303,0-62.605,0-93.908,0-4.514,0-4.514,7 0,7z"/>
<g fill="none" stroke="#fff" stroke-width="7">
<path d="m280.271,152.791-76.859,0"/>
<path d="m242.045,86.98 0,63.854"/>
</g>
<g fill="#fff">
<path d="m239.166,112.833c2.206,0 4.413,0 6.619,0 4.514,0 4.514-7 0-7-2.206,0-4.413,0-6.619,0-4.514,0-4.514,7 0,7z"/>
<path d="m277.476,75.875c-.378,4.219-9.253,5.84-12.324,6.591-7.512,1.837-15.365,2.27-23.069,2.325-7.734,.055-15.516-.649-23.069-2.325-3.067-.681-11.95-2.42-12.324-6.591-.5,.5-1,1-1.5,1.5 24.597-.054 49.19-.057 73.787,0 1.935,.004 1.935-2.996 0-3-24.597-.057-49.19-.054-73.787,0-.763,.001-1.573,.683-1.5,1.5 .421,4.694 5.694,6.696 9.525,8.072 9.063,3.256 19.342,3.776 28.868,3.844 9.638,.069 19.665-.845 28.868-3.844 3.844-1.253 9.112-3.458 9.525-8.072 .172-1.927-2.83-1.91-3,0z"/>
<path d="m193.401,77.561c1.757,.079 9.381-.473 10.079,.658 1.299,2.105 1.087,5.601 1.234,7.963 .218,3.496 .219,7.008 .225,10.509 .016,8.345 .218,16.748-1.238,24.993-.921,5.215-3.456,16.95-10.3,17.424 .5,.5 1,1 1.5,1.5-.068-21.517-.071-43.029 0-64.546 .007-1.935-2.993-1.934-3,0-.071,21.517-.068,43.029 0,64.546 .003,.775 .682,1.557 1.5,1.5 6.842-.475 9.932-8.157 11.756-13.766 3.302-10.148 2.768-21.125 2.782-31.651 .007-4.623-.05-9.255-.483-13.86-.2-2.114-.337-5.169-1.869-6.833-2.276-2.471-9.146-1.3-12.186-1.437-1.934-.087-1.926,2.913 0,3z"/>
<path d="m290.463,74.288c-3.04,.136-9.908-1.035-12.186,1.437-1.552,1.685-1.622,4.702-1.868,6.833-.528,4.583-.476,9.254-.483,13.86-.02,10.652-.229,21.327 2.781,31.651 1.641,5.626 5.035,13.3 11.756,13.766 .818,.057 1.498-.725 1.5-1.5 .068-21.517 .071-43.029 0-64.546-.007-1.934-3.007-1.935-3,0 .071,21.517 .068,43.029 0,64.546 .5-.5 1-1 1.5-1.5-6.938-.481-9.24-12.208-10.299-17.424-1.657-8.161-1.227-16.706-1.238-24.993-.009-5.594-.895-13.227 1.459-18.472 .45-1.002 8.504-.587 10.078-.658 1.927-.087 1.934-3.087-0-3z"/>
<path d="m290.463,183.989c-3.098-.14-6.194-.278-9.292-.418-.721-.032-1.51,.037-2.215-.104-.172-.035-.01-5.141-.005-5.512 .091-7.663 .302-15.096 2.244-22.562 1.126-4.327 3.762-12.569 9.268-12.951-.5-.5-1-1-1.5-1.5 .047,14.85 .135,29.697 0,44.546-.018,1.936 2.982,1.934 3,0 .135-14.849 .047-29.697 0-44.546-.002-.775-.682-1.557-1.5-1.5-5.353,.371-8.547,5.406-10.378,9.958-3.689,9.176-4.024,18.797-4.134,28.555-.03,2.635-.985,8.171 2.935,8.524 3.833,.345 7.731,.337 11.577,.51 1.934,.087 1.927-2.913-0-3z"/>
<path d="m193.401,187.107c3.847-.173 7.745-.165 11.578-.51 3.918-.354 2.966-5.89 2.935-8.525-.115-9.76-.443-19.375-4.135-28.555-1.83-4.551-5.024-9.586-10.378-9.958-.818-.057-1.497,.725-1.5,1.5-.047,14.85-.135,29.697 0,44.547 .018,1.934 3.018,1.936 3,0-.135-14.85-.047-29.697 0-44.547-.5,.5-1,1-1.5,1.5 5.598,.388 8.008,8.628 9.268,12.951 2.145,7.354 2.16,14.978 2.245,22.562 .021,1.766 .198,3.647-.103,5.399-.049,.281-1.595,.194-2.117,.218-3.098,.14-6.195,.278-9.293,.418-1.926,.087-1.934,3.087 0,3z"/>
<path d="m114.97,235.568h55.765c7.66,0 9.268,3.363 9.268,6.185v3.654c0,2.821-1.608,6.185-9.268,6.185h-72.668"/>
<path d="m169.997,187.715c0,29.087 0,58.175 0,87.262 0,7.17 11.118,7.17 11.118,0 0-29.087 0-58.175 0-87.262-.001-7.17-11.118-7.17-11.118,0z"/>
<path d="m69.833,256.232c0,6.248 0,12.496 0,18.744 0,7.17 11.118,7.17 11.118,0 0-6.711 0-13.423 0-20.135"/>
<path d="m71.789,141.731c12.409,.156 24.817,.313 37.226,.469 2.698,.034 8.805-1.091 9.65,1.245 2.246,6.207 1.451,14.158 1.378,20.621-.193,17.223-.83,34.676-1.916,51.866-.688,10.881-4.404,21.545-12.655,28.945-7.179,6.438-17.091,8.857-26.428,9.839-2.474,.261-4.965,.33-7.45,.387 .5,.5 1,1 1.5,1.5 0-38.791 .084-77.581 .195-116.372 .005-1.935-2.995-1.935-3,0-.111,38.791-.195,77.581-.195,116.372 0,.804 .682,1.519 1.5,1.5 18.265-.414 36.699-5.685 45.074-23.405 4.218-8.927 4.491-18.646 4.708-28.313 .182-8.111 .719-16.217 1.088-24.32 .41-9.012 .767-18.046 .531-27.069-.104-4.015 .397-11.416-2.652-14.661-1.875-1.997-6.647-1.075-9.008-1.105-7.734-.097-15.468-.195-23.202-.292-5.448-.069-10.896-.137-16.343-.206-1.936-.025-1.934,2.975-.001,2.999z"/>
<path d="m120.571,194.386c0,14.414 0,28.827 0,43.241 0,1.935 3,1.935 3,0 0-14.414 0-28.827 0-43.241 0-1.935-3-1.935-3-0z"/>
<path d="m137.742,194.386c0,14.414 0,28.827 0,43.241 0,1.935 3,1.935 3,0 0-14.414 0-28.827 0-43.241 0-1.935-3-1.935-3-0z"/>
<path d="m154.913,194.386c0,14.414 0,28.827 0,43.241 0,1.935 3,1.935 3,0 0-14.414 0-28.827 0-43.241 0-1.935-3-1.935-3-0z"/>
<path d="m163.499,194.386c0,14.414 0,28.827 0,43.241 0,1.935 3,1.935 3,0 0-14.414 0-28.827 0-43.241 0-1.935-3-1.935-3-0z"/>
<path d="m129.157,194.386c0,14.414 0,28.827 0,43.241 0,1.935 3,1.935 3,0 0-14.414 0-28.827 0-43.241 0-1.935-3-1.935-3-0z"/>
<path d="m146.328,194.386c0,14.414 0,28.827 0,43.241 0,1.935 3,1.935 3,0 0-14.414 0-28.827 0-43.241 0-1.935-3-1.935-3-0z"/>
<path d="m122.071,195.886c16.188,0 32.376,0 48.564,0 1.935,0 1.935-3 0-3-16.188,0-32.376,0-48.564,0-1.935,0-1.935,3 0,3z"/>
<path d="m75.392,291.417c6.449,0 6.449-10 0-10s-6.449,10 0,10z"/>
<path d="m175.555,291.417c6.449,0 6.449-10 0-10s-6.449,10 0,10z"/>
<path d="m79.561,238.789c0,2.303-1.866,4.17-4.169,4.17-2.303,0-4.169-1.867-4.169-4.17 0-2.303 1.866-4.169 4.169-4.169 2.303,0 4.169,1.866 4.169,4.169z"/>
<path d="m85.12,177.507c0,2.303-1.867,4.169-4.169,4.169-2.303,0-4.169-1.867-4.169-4.169 0-2.303 1.866-4.169 4.169-4.169 2.302,0 4.169,1.867 4.169,4.169z"/>
<path d="m121.509,152.613c0,2.303-1.867,4.169-4.169,4.169-2.303,0-4.169-1.867-4.169-4.169 0-2.303 1.866-4.169 4.169-4.169 2.302,0 4.169,1.867 4.169,4.169z"/>
<path d="m87.9,160.952c0,2.303-1.867,4.169-4.169,4.169-2.303,0-4.169-1.867-4.169-4.169 0-2.303 1.866-4.169 4.169-4.169 2.303,0 4.169,1.866 4.169,4.169z"/>
<path d="m80.951,146.79c0,2.303-1.867,4.169-4.169,4.169-2.303,0-4.169-1.867-4.169-4.169 0-2.303 1.866-4.169 4.169-4.169 2.302,0 4.169,1.866 4.169,4.169z"/>
<path d="m104.919,144.4c0,2.303-1.867,4.169-4.169,4.169-2.303,0-4.169-1.867-4.169-4.169 0-2.303 1.866-4.169 4.169-4.169 2.303,0 4.169,1.867 4.169,4.169z"/>
<path d="m110.577,211.065c0,2.303-1.867,4.169-4.169,4.169-2.303,0-4.169-1.866-4.169-4.169 0-2.303 1.866-4.169 4.169-4.169 2.302,0 4.169,1.867 4.169,4.169z"/>
<path d="m117.339,169.038c0,2.303-1.866,4.169-4.169,4.169-2.303,0-4.169-1.866-4.169-4.169 0-2.303 1.866-4.169 4.169-4.169 2.303,0 4.169,1.866 4.169,4.169z"/>
<path d="m89.566,249.629c0,2.303-1.866,4.17-4.169,4.17-2.303,0-4.169-1.867-4.169-4.17 0-2.303 1.867-4.169 4.169-4.169 2.303,0 4.169,1.866 4.169,4.169z"/>
<path d="m83.731,190.678c0,2.303-1.867,4.17-4.169,4.17-2.303,0-4.169-1.867-4.169-4.17 0-2.303 1.866-4.169 4.169-4.169 2.302,0 4.169,1.866 4.169,4.169z"/>
<path d="m100.497,239.17c2.093-.961 4.568-.044 5.529,2.049 .96,2.094 .042,4.568-2.05,5.529-2.092,.959-4.567,.042-5.528-2.05-.961-2.094-.043-4.569 2.049-5.528z"/>
<path d="m111.429,224.717c2.093-.961 4.568-.044 5.529,2.049 .96,2.094 .042,4.568-2.05,5.529-2.093,.959-4.568,.043-5.529-2.051-.96-2.092-.042-4.566 2.05-5.527z"/>
<path d="m91.734,222.441c1.967,1.197 2.592,3.762 1.396,5.729-1.197,1.968-3.761,2.592-5.729,1.396-1.967-1.197-2.593-3.762-1.396-5.729 1.196-1.967 3.761-2.592 5.729-1.396z"/>
<path d="m77.559,203.334c1.967,1.196 2.592,3.761 1.396,5.729-1.196,1.967-3.761,2.592-5.729,1.395-1.968-1.195-2.592-3.76-1.396-5.728 1.197-1.968 3.761-2.593 5.729-1.396z"/>
<path d="m111.166,182.945c1.967,1.196 2.592,3.762 1.396,5.729-1.197,1.969-3.761,2.592-5.728,1.396-1.968-1.197-2.592-3.762-1.396-5.729 1.197-1.968 3.761-2.592 5.728-1.396z"/>
<path d="m98.747,165.476c1.968,1.197 2.592,3.761 1.396,5.729-1.196,1.968-3.761,2.592-5.729,1.396-1.967-1.197-2.592-3.761-1.396-5.729 1.197-1.968 3.761-2.592 5.729-1.396z"/>
<path d="m97.852,194.994c1.968,1.195 2.593,3.76 1.396,5.728-1.196,1.968-3.76,2.593-5.729,1.396-1.968-1.197-2.592-3.761-1.395-5.729 1.197-1.967 3.761-2.592 5.728-1.395z"/>
</g>
</svg>
