<svg xmlns="http://www.w3.org/2000/svg" viewBox="20 20 321 321">
<g fill="#fff">
<path d="m251.679,94.843c-19.542,0-35.386,15.842-35.386,35.385 0,.007 .001,.015 .001,.022h-.001c0-.007 0-.015 0-.022 0-19.543-15.842-35.385-35.385-35.385-19.542,0-35.385,15.842-35.385,35.385 0,8.855 3.164,19.264 7.636,26.15 .75,1.154 1.581,2.416 2.477,3.759 6.422-6.555 15.37-10.627 25.272-10.627 19.543,0 35.385,15.842 35.385,35.385 0,8.733-3.034,19.08-7.414,25.894-1.856,2.889-4.217,6.409-6.927,10.328 6.324,6.829 11.53,11.265 14.341,11.265 9.104,0 49.725-55.05 63.357-76.259 4.379-6.813 7.414-17.16 7.414-25.893 0-19.544-15.842-35.387-35.385-35.387z"/>
<path d="m251.679,89.843c-21.247,.41-41.375,18.117-40.385,40.407 1.667-1.667 3.333-3.333 5-5h-.001c1.667,1.667 3.333,3.333 5,5 0-27.512-27.788-46.882-53.648-38.166-12.574,4.238-21.962,14.83-25.679,27.407-4.382,14.829 1.148,30.822 9.353,43.168 1.785,2.686 5.45,3.361 7.853,1.012 13.445-13.147 35.514-11.753 46.578,3.693 5.073,7.083 6.342,15.729 4.978,24.192-1.682,10.425-7.241,18.542-13.093,27.034-1.292,1.875-.674,4.507 .782,6.059 4.515,4.813 12.88,15.28 20.747,12.172 5.252-2.074 9.447-6.657 13.267-10.654 12.823-13.417 23.99-28.577 34.909-43.545 11.638-15.953 24.311-31.692 24.725-52.396 .446-22.295-18.748-39.966-40.386-40.383-6.452-.125-6.44,9.876 0,10 19.826,.382 32.9,17.946 29.819,37.049-2.477,15.358-13.888,28.437-22.793,40.684-9.297,12.787-18.922,25.405-29.416,37.24-3.393,3.825-7.297,8.227-11.147,11.146-.666,.505-1.37,.955-2.098,1.366-.118,.066-.707,.105 .249,.052-.708,.04-2.853-2.052-3.391-2.5-2.664-2.214-5.049-4.778-7.415-7.3 .261,2.02 .521,4.039 .782,6.059 7.431-10.783 13.055-20.785 14.749-33.999 1.42-11.064-2.251-21.73-8.964-30.413-14.663-18.969-43.474-18.741-59.954-2.626 2.618,.337 5.235,.675 7.853,1.012-6.417-9.657-11.023-21.038-8.956-32.858 1.787-10.219 8.834-18.24 18.059-22.553 19.603-9.167 42.236,7.295 42.236,28.048 0,2.726 2.274,5 5,5h.001c2.634,0 5.121-2.275 5-5-.747-16.815 14.356-30.098 30.385-30.407 6.441-.124 6.453-10.124 .001-10z"/>
<path d="m213.197,213.593c7.452-12.162 10.473-27.981 5.855-41.68-4.104-12.177-14.118-21.252-26.135-25.303-25.092-8.458-52.968,12.184-52.394,38.588 1.667-1.667 3.333-3.333 5-5 1.667,1.667 3.333,3.333 5,5 0-22.782-19.257-40.814-41.775-40.38-23.708,.457-40.924,22.269-38.71,45.164 1.958,20.244 16.704,37.114 28.285,52.938 10.822,14.788 21.896,30.31 35.406,42.801 4.844,4.479 10.451,8.653 16.982,4.971 7.535-4.248 13.568-12.226 19.068-18.679 15.682-18.399 30.312-38.104 43.418-58.42 3.507-5.437-5.152-10.444-8.635-5.047-9.931,15.394-20.879,30.211-32.216,44.593-5.658,7.178-11.48,14.258-17.756,20.907-2.156,2.284-4.398,4.494-6.801,6.52-.587,.495-1.294,.984-2.125,1.491-.197,.121-1.492,.689-.27,.207-1.204,.476 .155,.079 .843,.182-.929-.138-.108,.146-1.464-.655-.937-.554-1.537-1.036-2.346-1.709-2.771-2.302-5.273-4.936-7.725-7.567-6.406-6.879-12.294-14.265-18.033-21.701-6.204-8.04-12.193-16.247-18.054-24.54-4.888-6.917-10.24-13.882-14.144-21.417-9.657-18.641-3.8-42.658 17.589-48.979 19.052-5.63 38.463,9.824 38.463,29.322 0,2.726 2.274,5 5,5 2.681,0 5.059-2.274 5-5-.452-20.767 20.647-34.587 39.736-28.945 9.293,2.746 16.527,10.538 19.572,19.572 3.599,10.676 .454,23.38-5.27,32.721-3.377,5.513 5.274,10.532 8.636,5.045z"/>
</g>
</svg>
