<svg xmlns="http://www.w3.org/2000/svg" viewBox="20 20 321 321">
<g fill="#fff">
<path d="m254.828,73.75c0,10.735 0,21.469 0,32.204 0,4.514 7,4.514 7,0 0-10.735 0-21.469 0-32.204 0-4.515-7-4.515-7,0z"/>
<path d="m247.19,80.013c3.13,1.807 6.259,3.614 9.389,5.421 3.917,2.262 7.439-3.788 3.533-6.044-3.13-1.807-6.259-3.614-9.389-5.421-3.916-2.262-7.439,3.788-3.533,6.044z"/>
<path d="m265.825,73.969c-3.129,1.807-6.259,3.614-9.388,5.421-3.906,2.256-.383,8.306 3.533,6.044 3.129-1.807 6.259-3.614 9.388-5.421 3.907-2.256 .383-8.306-3.533-6.044z"/>
<path d="m228.562,92.502c9.296,5.368 18.593,10.735 27.889,16.102 3.917,2.261 7.44-3.789 3.533-6.044-9.296-5.368-18.593-10.735-27.889-16.102-3.917-2.261-7.441,3.789-3.533,6.044z"/>
<path d="m230.216,102.239c3.13-1.807 6.259-3.613 9.389-5.42 3.907-2.255 .384-8.305-3.533-6.044-3.13,1.807-6.259,3.613-9.389,5.42-3.908,2.255-.384,8.305 3.533,6.044z"/>
<path d="m234.268,83.077c0,3.614 0,7.228 0,10.842 0,4.514 7,4.514 7,0 0-3.614 0-7.228 0-10.842 0-4.514-7-4.514-7,0z"/>
<path d="m232.164,124.684c9.297-5.367 18.593-10.734 27.89-16.102 3.907-2.255 .384-8.305-3.533-6.044-9.297,5.367-18.593,10.734-27.89,16.102-3.907,2.256-.384,8.305 3.533,6.044z"/>
<path d="m241.391,128.157c0-3.614 0-7.228 0-10.841 0-4.514-7-4.514-7,0 0,3.614 0,7.228 0,10.841 0,4.514 7,4.514 7,0z"/>
<path d="m226.808,115.041c3.129,1.807 6.259,3.613 9.388,5.419 3.917,2.261 7.44-3.789 3.533-6.044-3.129-1.807-6.259-3.613-9.388-5.419-3.917-2.261-7.441,3.789-3.533,6.044z"/>
<path d="m261.793,137.88c0-10.735 0-21.47 0-32.205 0-4.514-7-4.514-7,0 0,10.735 0,21.47 0,32.205 0,4.515 7,4.515 7,0z"/>
<path d="m269.431,131.617c-3.13-1.807-6.259-3.614-9.389-5.42-3.917-2.261-7.44,3.789-3.533,6.044 3.13,1.807 6.259,3.614 9.389,5.42 3.916,2.261 7.44-3.789 3.533-6.044z"/>
<path d="m250.794,137.661c3.13-1.807 6.259-3.613 9.389-5.42 3.907-2.255 .384-8.305-3.533-6.044-3.13,1.807-6.259,3.613-9.389,5.42-3.907,2.255-.384,8.305 3.533,6.044z"/>
<path d="m288.06,118.882c-9.297-5.368-18.593-10.735-27.89-16.102-3.917-2.261-7.44,3.789-3.533,6.044 9.297,5.368 18.593,10.735 27.89,16.102 3.916,2.261 7.44-3.789 3.533-6.044z"/>
<path d="m286.405,109.146c-3.13,1.806-6.259,3.613-9.389,5.419-3.907,2.255-.384,8.305 3.533,6.044 3.13-1.806 6.259-3.613 9.389-5.419 3.908-2.256 .384-8.306-3.533-6.044z"/>
<path d="m282.354,128.306c0-3.613 0-7.227 0-10.84 0-4.514-7-4.514-7,0 0,3.613 0,7.227 0,10.84 0,4.514 7,4.514 7,0z"/>
<path d="m284.456,86.7c-9.297,5.367-18.593,10.735-27.89,16.103-3.907,2.255-.384,8.305 3.533,6.044 9.297-5.367 18.593-10.735 27.89-16.103 3.907-2.256 .384-8.306-3.533-6.044z"/>
<path d="m275.229,83.228c0,3.613 0,7.227 0,10.84 0,4.514 7,4.514 7,0 0-3.613 0-7.227 0-10.84 0-4.514-7-4.514-7,0z"/>
<path d="m289.813,96.344c-3.13-1.807-6.259-3.614-9.389-5.421-3.917-2.262-7.44,3.789-3.533,6.044 3.13,1.807 6.259,3.614 9.389,5.421 3.917,2.262 7.441-3.788 3.533-6.044z"/>
<path d="m69.214,117.196h120.33v24.244h-120.33z" transform="matrix(.7071 -.7071 .7071 .7071 -53.5471 129.3601)"/>
</g>
<g fill="none" stroke="#fff" stroke-width="10">
<path d="m180.957,124.823c0,40.488-25.624,83.429-53.071,83.429s-53.071-42.941-53.071-83.429c0-14.763-.415-28.507 4.674-40.012 0,0 30.958-10.361 48.396-10.361 17.415,0 48.358,10.274 48.358,10.274 5.114,11.524 4.714,25.299 4.714,40.099z"/>
<path d="m268.648,254.92c0,1.859-1.634,3.368-3.648,3.368h-13.379c-2.014,0-3.648-1.509-3.648-3.368v-93.397c0-1.861 1.635-3.369 3.648-3.369h13.379c2.015,0 3.648,1.508 3.648,3.369v93.397z"/>
</g>
<g fill="#fff">
<path stroke="#fff" stroke-width="10" d="m274.121,283.018c0,2.016-1.28,3.649-2.859,3.649h-25.902c-1.579,0-2.86-1.634-2.86-3.649v-21.08c0-2.015 1.281-3.648 2.86-3.648h25.901c1.579,0 2.859,1.634 2.859,3.648v21.08z"/>
<path d="m276.555,170.451c3.648,0 7.297,0 10.945,0 6.448,0 6.448-10 0-10-3.648,0-7.297,0-10.945,0-6.449,0-6.449,10 0,10z"/>
<path d="m276.555,194.775c3.648,0 7.297,0 10.945,0 6.448,0 6.448-10 0-10-3.648,0-7.297,0-10.945,0-6.449,0-6.449,10 0,10z"/>
<path d="m276.555,219.707c3.648,0 7.297,0 10.945,0 6.448,0 6.448-10 0-10-3.648,0-7.297,0-10.945,0-6.449,0-6.449,10 0,10z"/>
<path d="m276.555,245.855c3.648,0 7.297,0 10.945,0 6.448,0 6.448-10 0-10-3.648,0-7.297,0-10.945,0-6.449,0-6.449,10 0,10z"/>
<path stroke="#fff" stroke-width="10" d="m247.973,234.667h20.676v33.148h-20.676z"/>
</g>
</svg>
