<svg xmlns="http://www.w3.org/2000/svg" viewBox="20 20 321 321">
<path fill="none" stroke="#fff" stroke-width="10" d="m174.333,209.918h-28.834c-2.27,0-4.109-1.842-4.109-4.11v-75.348c0-2.27 1.84-4.11 4.109-4.11h68.041c2.27,0 4.11,1.84 4.11,4.11v42.707"/>
<g fill="#fff">
<path d="m179.189,194.785c-9.101,0-18.201,0-27.302,0-4.514,0-4.514,7 0,7 9.101,0 18.201,0 27.302,0 4.514,0 4.514-7 0-7z"/>
<path d="m184.604,185.525c-10.905,0-21.811,0-32.716,0-4.514,0-4.514,7 0,7 10.905,0 21.811,0 32.716,0 4.513,0 4.513-7 0-7z"/>
<path d="m197.143,175.555c-15.085,0-30.17,0-45.255,0-4.514,0-4.514,7 0,7 15.085,0 30.17,0 45.255,0 4.513,0 4.513-7 0-7z"/>
<path d="m206.491,166.296c-18.201,0-36.402,0-54.604,0-4.514,0-4.514,7 0,7 18.201,0 36.402,0 54.604,0 4.514,0 4.514-7 0-7z"/>
<path d="m206.491,157.037c-18.201,0-36.402,0-54.604,0-4.514,0-4.514,7 0,7 18.201,0 36.402,0 54.604,0 4.514,0 4.514-7 0-7z"/>
<path d="m206.491,147.066c-18.201,0-36.402,0-54.604,0-4.514,0-4.514,7 0,7 18.201,0 36.402,0 54.604,0 4.514,0 4.514-7 0-7z"/>
</g>
<path fill="none" stroke="#fff" stroke-width="10" d="m204.592,122.012c0,2.396-1.689,4.339-3.774,4.339h-42.781c-2.084,0-3.774-1.943-3.774-4.339l3.774-42.428c0-2.396 1.69-4.339 3.775-4.339h35.23c2.085,0 3.775,1.943 3.775,4.339l3.775,42.428z"/>
<g fill="#fff">
<path d="m156.874,119.642c15.194,0 30.388,0 45.582,0 4.514,0 4.514-7 0-7-15.193,0-30.388,0-45.582,0-4.515,0-4.515,7 0,7z"/>
<path d="m113.742,128.887c-17.101,17.727-17.101,45.38 0,63.107 4.484,4.648 11.547-2.431 7.071-7.07-13.303-13.79-13.303-35.176 0-48.965 4.477-4.641-2.586-11.72-7.071-7.072z"/>
<path d="m102.734,117.724c-23.149,23.761-23.15,61.518 0,85.279 4.506,4.626 11.572-2.451 7.071-7.07-19.345-19.857-19.345-51.281 0-71.137 4.501-4.62-2.565-11.697-7.071-7.072z"/>
<path d="m91.504,107.378c-28.878,29.476-28.878,76.806 0,106.282 4.519,4.612 11.585-2.463 7.071-7.07-25.071-25.59-25.071-66.551 0-92.14 4.515-4.608-2.552-11.684-7.071-7.072z"/>
<path d="m276.864,227.493c-.264,21.841-14.328,41.071-35.274,47.552-20.997,6.497-44.063-2.394-55.992-20.611-12.03-18.37-9.942-43.152 4.398-59.601 14.373-16.485 38.711-21.484 58.468-12.159 17.335,8.181 28.171,25.79 28.4,44.819 .117,9.678 15.12,9.774 15.004,.107-.285-23.601-12.931-45.152-33.557-56.708-20.663-11.575-46.938-10.131-66.614,2.754-19.622,12.85-30.716,36.129-28.74,59.425 1.966,23.186 16.774,44.003 38.044,53.443 20.026,8.888 43.534,6.932 61.856-5.067 18.09-11.848 28.751-32.366 29.011-53.848 .117-9.69-14.887-9.764-15.004-.106z"/>
<path d="m192.242,273.19c26.912-26.912 53.824-53.824 80.736-80.736 6.836-6.835-3.812-17.403-10.665-10.551-26.912,26.912-53.824,53.824-80.737,80.736-6.835,6.836 3.813,17.404 10.666,10.551z"/>
</g>
</svg>
