<svg xmlns="http://www.w3.org/2000/svg" viewBox="20 20 321 321">
<path fill="none" stroke="#fff" stroke-width="10" d="m181.359,280.871c0,3.291-2.654,5.959-5.93,5.959l-93.991,.016c-3.275,0-5.931-2.668-5.931-5.957v-200.257c0-3.29 2.655-5.958 5.931-5.958l93.991-.017c3.275,0 5.93,2.668 5.93,5.958v200.256z"/>
<path fill="#fff" d="m115.229,175.948c0,3.536 0,7.072 0,10.607 0,6.448 10,6.448 10,0 0-3.535 0-7.071 0-10.607 0-6.449-10-6.449-10,0z"/>
<g stroke="#fff">
<path fill="none" stroke-width="10" d="m132.833,76.555 0,208.394"/>
<g stroke-linejoin="round">
<g fill="#fff" stroke-width="3">
<path d="m163.1,233.994l1.555-2.009c-1.203-.604-2.542-.926-3.911-.915l.603,2.546 1.753,.378z"/>
<path d="m160.745,231.07l-.814-3.437-3.486,.839 .823,3.377c.113-.053 .222-.111 .339-.158 1.028-.417 2.09-.612 3.138-.621z"/>
<path d="m157.9,234.445l-.632-2.596c-1.31,.599-2.4,1.488-3.223,2.565l2.466,1.164 1.389-1.133z"/>
<path d="m167.438,234.209l2.252-2.873-2.83-2.203-2.206,2.853c1.061,.532 2.015,1.28 2.784,2.223z"/>
<path d="m155.009,238.789l-2.496-1.156c-.32,1.34-.318,2.766 .053,4.16l2.462-1.21-.019-1.794z"/>
<path d="m150.952,232.955l-1.52,3.249 3.082,1.429c.279-1.166 .8-2.262 1.531-3.218l-3.093-1.46z"/>
<path d="m166.693,237.78l2.452-.036c-.103-.453-.232-.904-.412-1.348-.329-.812-.77-1.543-1.294-2.188l-1.542,1.965 .796,1.607z"/>
<path d="m157.449,247.455l-.75,3.411 3.505,.757 .742-3.481c-1.212,.016-2.403-.218-3.497-.687z"/>
<path d="m165.975,242.95l1.57,1.91c.813-1.044 1.378-2.261 1.641-3.555l-2.452,.021-.759,1.624z"/>
<path d="m164.818,247.153l2.281,2.813 2.777-2.268-2.332-2.839c-.722,.928-1.636,1.719-2.726,2.294z"/>
<path d="m152.567,241.793l-3.054,1.502 1.592,3.213 3.068-1.533c-.515-.638-.948-1.357-1.271-2.156-.137-.339-.243-.682-.335-1.026z"/>
<path d="m169.186,241.306l3.695-.029-.041-3.587-3.695,.055c.268,1.196 .276,2.406 .041,3.561z"/>
<path d="m156.604,243.76l-2.431,1.215c.884,1.096 2.015,1.938 3.276,2.48l.569-2.594-1.414-1.101z"/>
<path d="m161.484,245.611l-.539,2.53c1.029-.017 2.072-.21 3.083-.62 .272-.11 .536-.233 .79-.368l-1.59-1.961-1.744,.419z"/>
</g>
<circle fill="none" cx="160.942" cy="239.77" r="5.917" stroke-width="5"/>
<g fill="#fff" stroke-width="3">
<path d="m145.007,214.938l3.997-1.065-1.032-3.854-3.992,1.074-2.938-4.516 2.607-3.213-3.1-2.51-2.598,3.215-2.119-.813v3.4c.925,.515 1.799,1.154 2.584,1.94 4.561,4.562 4.561,11.957 0,16.519-.786,.785-1.66,1.426-2.584,1.941v3.528l.74-.198 2.248,3.47 3.346-2.173-2.257-3.466 3.393-4.186 3.857,1.485 1.43-3.723-3.855-1.507 .273-5.348z"/>
<path d="m148.666,253.452l4.049-.843-.818-3.905-4.044,.853-2.683-4.672 2.781-3.063-2.956-2.678-2.772,3.066-4.917-2.204 .449-4.112-1.922-.207v7.374c2.256,.41 4.416,1.481 6.16,3.226 4.561,4.562 4.561,11.959 0,16.52-1.744,1.744-3.904,2.815-6.16,3.227v3.121l3.557-.742 2.053,3.589 3.46-1.985-2.063-3.585 3.62-3.991 3.769,1.696 1.633-3.639-3.766-1.718 .57-5.328z"/>
</g>
</g>
<path fill="none" stroke-width="10" d="m222.096,124.522c-1.728,1.728-1.728,4.529 0,6.256l8.342,8.342c1.729,1.728 4.529,1.728 6.257,0l48.837-48.837c1.727-1.728 1.727-4.529 0-6.256l-8.342-8.342c-1.729-1.728-4.529-1.728-6.258,0l-48.836,48.837z"/>
</g>
<g fill="#fff">
<path d="m172.403,196.669c18.485-18.485 36.97-36.97 55.456-55.455 4.564-4.564-2.507-11.635-7.07-7.071-18.485,18.485-36.971,36.971-55.457,55.456-4.564,4.563 2.507,11.634 7.071,7.07z"/>
<path d="m165.311,187.525c2.267-2.268 5.942-2.268 8.209-.001l.912,.912c2.267,2.267 2.267,5.942 0,8.21l-12.315,12.314c-2.267,2.268-5.942,2.268-8.21,0l-.912-.912c-2.267-2.267-2.267-5.942 0-8.209l12.316-12.314z"/>
</g>
</svg>
