<svg xmlns="http://www.w3.org/2000/svg" viewBox="20 20 321 321">
<path fill="none" stroke="#fff" stroke-width="10" d="m275.5,280.563c0,3.188-2.584,5.771-5.771,5.771h-95.534c-3.187,0-5.771-2.584-5.771-5.771v-105.792c0-3.187 2.584-5.771 5.771-5.771h95.534c3.187,0 5.771,2.584 5.771,5.771v105.792z"/>
<g fill="#fff">
<path d="m259.833,266.5c-25.556,0-51.111,0-76.667,0-4.514,0-4.514,7 0,7 25.556,0 51.111,0 76.667,0 4.514,0 4.514-7 0-7z"/>
<path d="m259.833,253.5c-25.556,0-51.111,0-76.667,0-4.514,0-4.514,7 0,7 25.556,0 51.111,0 76.667,0 4.514,0 4.514-7 0-7z"/>
<path d="m259.833,239.5c-25.556,0-51.111,0-76.667,0-4.514,0-4.514,7 0,7 25.556,0 51.111,0 76.667,0 4.514,0 4.514-7 0-7z"/>
<path d="m259.833,226.5c-25.556,0-51.111,0-76.667,0-4.514,0-4.514,7 0,7 25.556,0 51.111,0 76.667,0 4.514,0 4.514-7 0-7z"/>
<path d="m259.833,213.5c-25.556,0-51.111,0-76.667,0-4.514,0-4.514,7 0,7 25.556,0 51.111,0 76.667,0 4.514,0 4.514-7 0-7z"/>
<path d="m259.833,199.5c-25.556,0-51.111,0-76.667,0-4.514,0-4.514,7 0,7 25.556,0 51.111,0 76.667,0 4.514,0 4.514-7 0-7z"/>
</g>
<g fill="none" stroke="#fff" stroke-width="10">
<path d="m257.166,162.908c0,3.364-2.373,6.092-5.299,6.092h-60.067c-2.927,0-5.3-2.728-5.3-6.092l5.3-59.571c0-3.364 2.373-6.092 5.3-6.092h49.467c2.928,0 5.301,2.728 5.301,6.092l5.298,59.571z"/>
<path d="m190.166,154.667 64,0"/>
</g>
<g fill="#fff">
<path d="m131.036,173.991c-23.279,23.884-23.279,61.865 0,85.749 4.507,4.625 11.573-2.452 7.071-7.07-19.474-19.98-19.474-51.628 0-71.607 4.502-4.619-2.564-11.696-7.071-7.072z"/>
<path d="m115.581,158.317c-31.769,32.364-31.77,84.515-.001,116.879 4.523,4.608 11.59-2.467 7.071-7.07-27.96-28.484-27.959-74.254 .001-102.738 4.518-4.603-2.548-11.679-7.071-7.071z"/>
<path d="m99.813,143.792c-19.296,19.582-30.146,45.687-30.337,73.185-.19,27.35 11.239,53.803 30.337,73.184 4.532,4.599 11.6-2.476 7.071-7.07-36-36.533-36-95.694 0-132.227 4.529-4.596-2.539-11.671-7.071-7.072z"/>
</g>
</svg>
