<svg xmlns="http://www.w3.org/2000/svg" viewBox="20 20 321 321">
<g fill="#fff">
<path d="m180.744,155.583-.244-81 106.801,81z"/>
<path d="m185.744,155.583c-.081-27-.163-54-.244-81-2.508,1.439-5.016,2.878-7.523,4.317 35.59,26.992 71.18,53.984 106.77,80.976 .011,.008 .021,.016 .031,.024 .841-3.106 1.683-6.211 2.523-9.317-35.519,0-71.038,0-106.557,0-6.449,0-6.449,10 0,10 35.519,0 71.038,0 106.557,0 5.402,0 6.252-6.489 2.523-9.317-35.59-26.992-71.18-53.984-106.77-80.976-.011-.008-.021-.016-.031-.024-3.125-2.371-7.534,.868-7.523,4.317 .082,27 .163,54 .244,81 .02,6.448 10.02,6.45 10,0z"/>
<path d="m180.256,155.583 .244-80.999-106.801,80.999z"/>
<path d="m185.256,155.583c.081-27 .163-54 .244-81 .011-3.45-4.397-6.688-7.523-4.317-35.59,26.992-71.18,53.984-106.77,80.976-.011,.008-.021,.016-.031,.023-3.729,2.828-2.879,9.317 2.523,9.317 35.519,0 71.038,0 106.557,0 6.448,0 6.448-10 0-10-35.519,0-71.038,0-106.557,0 .841,3.106 1.683,6.211 2.523,9.317 35.59-26.992 71.18-53.984 106.77-80.976 .011-.008 .021-.016 .031-.023-2.508-1.439-5.016-2.878-7.523-4.317-.082,27-.163,54-.244,81-.02,6.45 9.98,6.448 10,0z"/>
</g>
<path fill="none" stroke="#fff" stroke-width="10" d="m268.5,278.988c0,3.919-3.927,7.096-8.771,7.096h-157.791c-4.844,0-8.771-3.177-8.771-7.096v-129.381c0-3.918 175.333-3.918 175.333,0v129.381z"/>
<g fill="#fff">
<path d="m206.236,223.13c0,6.322 0,12.646 0,18.968 0,4.514 7,4.514 7,0 0-6.322 0-12.646 0-18.968 0-4.514-7-4.514-7,0z"/>
<path d="m202.45,228.062c1.843,1.063 3.687,2.128 5.529,3.192 1.653,.954 3.821,.396 4.789-1.256 .96-1.639 .394-3.836-1.256-4.789-1.843-1.063-3.687-2.128-5.529-3.192-1.653-.954-3.821-.396-4.789,1.256-.96,1.638-.393,3.835 1.256,4.789z"/>
<path d="m213.426,222.017c-1.843,1.064-3.687,2.129-5.529,3.192-1.649,.953-2.216,3.15-1.256,4.789 .968,1.651 3.136,2.21 4.789,1.256 1.843-1.064 3.687-2.129 5.529-3.192 1.649-.953 2.216-3.15 1.256-4.789-.968-1.652-3.136-2.21-4.789-1.256z"/>
<path d="m191.478,235.417c5.476,3.161 10.95,6.322 16.426,9.484 3.917,2.261 7.439-3.789 3.533-6.045-5.476-3.161-10.95-6.322-16.426-9.484-3.917-2.261-7.44,3.789-3.533,6.045z"/>
<path d="m193.904,241.152c1.844-1.064 3.687-2.129 5.53-3.192 1.649-.952 2.216-3.15 1.256-4.789-.968-1.651-3.136-2.21-4.789-1.256-1.844,1.064-3.687,2.129-5.53,3.192-1.649,.952-2.216,3.15-1.256,4.789 .968,1.652 3.136,2.21 4.789,1.256z"/>
<path d="m194.126,228.625c0,2.128 0,4.257 0,6.385 0,4.514 7,4.514 7,0 0-2.128 0-4.257 0-6.385 0-4.514-7-4.514-7,0z"/>
<path d="m195.052,254.372c5.476-3.162 10.952-6.323 16.428-9.484 3.907-2.256 .384-8.306-3.533-6.045-5.476,3.162-10.952,6.323-16.428,9.484-3.908,2.256-.384,8.306 3.533,6.045z"/>
<path d="m201.199,255.174c0-2.128 0-4.256 0-6.384 0-4.514-7-4.514-7,0 0,2.128 0,4.256 0,6.384 0,4.514 7,4.514 7-0z"/>
<path d="m190.444,248.691c1.843,1.064 3.687,2.129 5.529,3.193 1.652,.954 3.821,.396 4.789-1.256 .96-1.64 .394-3.836-1.256-4.789-1.843-1.064-3.687-2.129-5.529-3.193-1.652-.954-3.821-.396-4.789,1.256-.959,1.64-.393,3.836 1.256,4.789z"/>
<path d="m213.215,260.902c0-6.322 0-12.646 0-18.968 0-4.514-7-4.514-7,0 0,6.322 0,12.646 0,18.968 0,4.514 7,4.514 7,0z"/>
<path d="m217.001,255.97c-1.843-1.063-3.687-2.128-5.529-3.192-1.653-.954-3.821-.396-4.789,1.256-.96,1.639-.394,3.836 1.256,4.789 1.843,1.063 3.687,2.128 5.529,3.192 1.653,.954 3.821,.396 4.789-1.256 .96-1.639 .393-3.836-1.256-4.789z"/>
<path d="m206.024,262.015c1.844-1.064 3.687-2.129 5.53-3.192 1.649-.952 2.216-3.15 1.256-4.789-.968-1.651-3.136-2.21-4.789-1.256-1.844,1.064-3.687,2.129-5.53,3.192-1.649,.952-2.216,3.15-1.256,4.789 .968,1.651 3.136,2.21 4.789,1.256z"/>
<path d="m227.974,248.47c-5.476-3.161-10.951-6.322-16.427-9.484-3.917-2.261-7.44,3.789-3.533,6.045 5.476,3.161 10.951,6.322 16.427,9.484 3.916,2.26 7.44-3.789 3.533-6.045z"/>
<path d="m225.546,242.735c-1.843,1.064-3.687,2.129-5.529,3.192-1.649,.953-2.216,3.15-1.256,4.789 .968,1.651 3.136,2.21 4.789,1.256 1.843-1.064 3.687-2.129 5.529-3.192 1.649-.953 2.216-3.15 1.256-4.789-.968-1.651-3.136-2.21-4.789-1.256z"/>
<path d="m225.325,255.263c0-2.128 0-4.257 0-6.385 0-4.514-7-4.514-7,0 0,2.128 0,4.257 0,6.385 0,4.513 7,4.513 7,0z"/>
<path d="m224.398,229.516c-5.476,3.161-10.951,6.322-16.427,9.483-3.907,2.256-.384,8.306 3.533,6.045 5.476-3.161 10.951-6.322 16.427-9.483 3.908-2.256 .384-8.306-3.533-6.045z"/>
<path d="m218.252,228.713c0,2.128 0,4.257 0,6.385 0,4.514 7,4.514 7,0 0-2.128 0-4.257 0-6.385 0-4.514-7-4.514-7,0z"/>
<path d="m229.007,235.195c-1.843-1.063-3.687-2.128-5.529-3.192-1.653-.954-3.821-.396-4.789,1.256-.96,1.639-.394,3.836 1.256,4.789 1.843,1.063 3.687,2.128 5.529,3.192 1.653,.954 3.821,.396 4.789-1.256 .96-1.638 .393-3.836-1.256-4.789z"/>
<path d="m157.777,243.147c.075-.257 1.1-.124-.284-.124-.803,0-1.606,0-2.409,0-1.762,0-3.523,0-5.284,0-1.614,0-.159,1.171-.159,.75 0-.631 0-1.261 0-1.892 0-5.728 0-11.454 0-17.182 0-14.65 0-29.301 0-43.951 0-1.392 0-2.785 0-4.177 0-.42-1.455,.75 .159,.75 2.062,0 4.123,0 6.185,0 .682,0 1.364,0 2.046,0 .998,0-.379-.708-.379-.978 0,.37 0,.739 0,1.109 0,2.084 0,4.168 0,6.253 0,15.129 0,30.259 0,45.388 0,4.994 0,9.989 0,14.983 0,4.514 7,4.514 7,0 0-22.578 0-45.155 0-67.733 0-7.834-10.75-6.022-15.739-6.022-6.065,0-6.272,5.512-6.272,9.914 0,14.516 0,29.032 0,43.547 0,6.707 0,13.415 0,20.122 0,5.096 4.619,6.118 8.667,6.118 5.118,0 11.413,1.15 13.219-5.015 1.273-4.341-5.483-6.182-6.75-1.86z"/>
<path d="m165.126,264.479c0,1.463-.93,2.648-2.077,2.648h-18.805c-1.147,0-2.077-1.186-2.077-2.648v-15.307c0-1.462 .93-2.648 2.077-2.648h18.805c1.147,0 2.077,1.187 2.077,2.648v15.307z"/>
<path d="m161.751,263.548c-.001,.009 2.154,.079-.542,.079-1.769,0-3.538,0-5.307,0-3.6,0-7.2,0-10.799,0-1.646,0 .565,1.59 .565-.124 0-1.642 0-3.283 0-4.926 0-3.113 0-6.226 0-9.339 0,.853-2.185,.785-.929,.785 .65,0 1.3,0 1.949,0 1.866,0 3.732,0 5.599,0 3.423,0 6.846,0 10.269,0 1.256,0-.929,.067-.929-.785 0,.472 0,.942 0,1.414 0,1.764 0,3.527 0,5.292 0,2.845 0,5.689 0,8.534 0,4.514 7,4.514 7,0 0-4.191 0-8.384 0-12.575 0-3.957-.667-8.88-5.801-8.88-4.658,0-9.315,0-13.973,0-4.321,0-9.182-.322-10.06,5.218-.651,4.114-.125,8.628-.125,12.781 0,3.96 .211,9.604 5.634,9.604 4.441,0 8.883,0 13.325,0 4.492,0 9.946,.646 10.875-5.218 .698-4.414-6.047-6.308-6.751-1.86z"/>
<path d="m169.892,182.62c2.649,0 5.298,0 7.947,0 4.514,0 4.514-7 0-7-2.649,0-5.298,0-7.947,0-4.514,0-4.514,7 0,7z"/>
<path d="m169.892,200.281c2.649,0 5.298,0 7.947,0 4.514,0 4.514-7 0-7-2.649,0-5.298,0-7.947,0-4.514,0-4.514,7 0,7z"/>
<path d="m169.892,218.383c2.649,0 5.298,0 7.947,0 4.514,0 4.514-7 0-7-2.649,0-5.298,0-7.947,0-4.514,0-4.514,7 0,7z"/>
<path d="m169.892,237.367c2.649,0 5.298,0 7.947,0 4.514,0 4.514-7 0-7-2.649,0-5.298,0-7.947,0-4.514,0-4.514,7 0,7z"/>
<path d="m146.141,235.303h15.012v18.138h-15.012z"/>
<path d="m161.152,231.803c-5.004,0-10.008,0-15.012,0-1.908,0-3.5,1.592-3.5,3.5 0,6.046 0,12.092 0,18.138 0,1.908 1.592,3.5 3.5,3.5 5.004,0 10.008,0 15.012,0 1.908,0 3.5-1.592 3.5-3.5 0-6.046 0-12.092 0-18.138 0-4.514-7-4.514-7,0 0,6.046 0,12.092 0,18.138 1.167-1.167 2.333-2.333 3.5-3.5-5.004,0-10.008,0-15.012,0 1.167,1.167 2.333,2.333 3.5,3.5 0-6.046 0-12.092 0-18.138-1.167,1.167-2.333,2.333-3.5,3.5 5.004,0 10.008,0 15.012,0 4.515-0 4.515-7 0-7z"/>
</g>
</svg>
