<svg xmlns="http://www.w3.org/2000/svg" viewBox="20 20 321 321">
<g fill="#fff">
<path d="m75.078,156.167-.245-81 106.802,81z"/>
<path d="m80.078,156.167c-.082-27-.163-54-.245-81-2.508,1.439-5.016,2.878-7.523,4.317 35.59,26.992 71.18,53.984 106.771,80.976 .01,.008 .021,.016 .031,.024 .841-3.106 1.682-6.211 2.523-9.317-35.519,0-71.038,0-106.557,0-6.449,0-6.449,10 0,10 35.519,0 71.038,0 106.557,0 5.402,0 6.252-6.489 2.523-9.317-35.59-26.992-71.18-53.984-106.771-80.976-.01-.008-.021-.016-.031-.024-3.125-2.371-7.534,.868-7.523,4.317 .082,27 .163,54 .245,81 .019,6.448 10.019,6.45 10,0z"/>
</g>
<g fill="none" stroke="#fff" stroke-width="10">
<path d="m162.833,281.5c0,3.223-4.727,5.834-10.558,5.834h-66.884c-5.832,0-10.558-2.611-10.558-5.834v-122.5c0-3.222 4.727-5.833 10.558-5.833h66.884c5.832,0 10.558,2.612 10.558,5.833v122.5z"/>
<path d="m127.833,280.988c0,3.137-2.687,5.679-6,5.679h-23.5c-3.313,0-6-2.542-6-5.679v-68.143c0-3.137 2.687-5.679 6-5.679h23.5c3.313,0 6,2.542 6,5.679v68.143z"/>
<path d="m255.889,248.588c0,2.231-1.959,4.041-4.376,4.041h-16.046c-2.418,0-4.377-1.81-4.377-4.041v-112.025c0-2.231 1.959-4.041 4.377-4.041h16.046c2.417,0 4.376,1.809 4.376,4.041v112.025z"/>
</g>
<g fill="#fff">
<path stroke="#fff" stroke-width="10" d="m262.453,282.291c0,2.416-1.536,4.376-3.431,4.376h-31.066c-1.896,0-3.431-1.96-3.431-4.376v-25.285c0-2.418 1.535-4.377 3.431-4.377h31.066c1.895,0 3.431,1.959 3.431,4.377v25.285z"/>
<path d="m273.371,146.276c4.376,0 8.753,0 13.129,0 6.448,0 6.448-10 0-10-4.376,0-8.753,0-13.129,0-6.448,0-6.448,10 0,10z"/>
<path d="m273.371,175.451c4.376,0 8.753,0 13.129,0 6.448,0 6.448-10 0-10-4.376,0-8.753,0-13.129,0-6.448,0-6.448,10 0,10z"/>
<path d="m273.371,205.355c4.376,0 8.753,0 13.129,0 6.448,0 6.448-10 0-10-4.376,0-8.753,0-13.129,0-6.448,0-6.448,10 0,10z"/>
<path d="m273.371,236.719c4.376,0 8.753,0 13.129,0 6.448,0 6.448-10 0-10-4.376,0-8.753,0-13.129,0-6.448,0-6.448,10 0,10z"/>
<path stroke="#fff" stroke-width="10" d="m231.089,212.574h24.8v51.482h-24.8z"/>
</g>
</svg>
