<svg xmlns="http://www.w3.org/2000/svg" viewBox="20 20 321 321">
<g fill="#fff">
<path d="m251.162,198.775c0,7.16 0,14.32 0,21.48 0,1.935 3,1.935 3,0 0-7.16 0-14.32 0-21.48 0-1.934-3-1.934-3,0z"/>
<path d="m245.654,202.232c2.087,1.205 4.175,2.41 6.263,3.615 1.679,.97 3.188-1.623 1.514-2.59-2.087-1.205-4.175-2.41-6.263-3.615-1.679-.969-3.189,1.624-1.514,2.59z"/>
<path d="m258.085,199.643c-2.088,1.205-4.176,2.41-6.264,3.615-1.675,.966-.165,3.559 1.514,2.59 2.088-1.205 4.176-2.41 6.264-3.615 1.674-.966 .165-3.559-1.514-2.59z"/>
<path d="m233.228,210.563c6.201,3.58 12.402,7.16 18.604,10.74 1.679,.97 3.188-1.623 1.514-2.59-6.201-3.58-12.402-7.16-18.604-10.74-1.679-.97-3.189,1.623-1.514,2.59z"/>
<path d="m233.489,217.057c2.088-1.205 4.175-2.41 6.262-3.615 1.675-.967 .165-3.56-1.514-2.59-2.088,1.205-4.175,2.41-6.262,3.615-1.674,.967-.164,3.559 1.514,2.59z"/>
<path d="m237.447,204.998c0,2.41 0,4.82 0,7.23 0,1.935 3,1.935 3,0 0-2.41 0-4.82 0-7.23 0-1.935-3-1.935-3,0z"/>
<path d="m234.788,232.029c6.201-3.58 12.402-7.16 18.604-10.74 1.675-.967 .165-3.56-1.514-2.59-6.201,3.58-12.402,7.16-18.604,10.74-1.674,.967-.165,3.56 1.514,2.59z"/>
<path d="m240.529,235.066c0-2.411 0-4.821 0-7.232 0-1.935-3-1.935-3,0 0,2.411 0,4.821 0,7.232 0,1.935 3,1.935 3,0z"/>
<path d="m232.058,225.596c2.087,1.205 4.175,2.41 6.263,3.615 1.679,.97 3.188-1.623 1.514-2.59-2.087-1.205-4.175-2.41-6.263-3.615-1.679-.97-3.189,1.623-1.514,2.59z"/>
<path d="m254.139,241.552c0-7.16 0-14.321 0-21.481 0-1.935-3-1.935-3,0 0,7.16 0,14.321 0,21.481 0,1.934 3,1.934 3,0z"/>
<path d="m259.646,238.094c-2.087-1.205-4.174-2.41-6.262-3.615-1.679-.97-3.188,1.623-1.514,2.59 2.087,1.205 4.174,2.41 6.262,3.615 1.679,.969 3.188-1.623 1.514-2.59z"/>
<path d="m247.216,240.684c2.088-1.205 4.175-2.41 6.262-3.615 1.675-.967 .165-3.56-1.514-2.59-2.088,1.205-4.175,2.41-6.262,3.615-1.675,.967-.165,3.559 1.514,2.59z"/>
<path d="m272.071,229.6c-6.2-3.58-12.4-7.16-18.602-10.74-1.679-.97-3.188,1.623-1.514,2.59 6.2,3.58 12.4,7.16 18.602,10.74 1.679,.969 3.189-1.624 1.514-2.59z"/>
<path d="m271.812,223.105c-2.088,1.205-4.176,2.41-6.264,3.615-1.675,.966-.165,3.559 1.514,2.59 2.088-1.205 4.176-2.41 6.264-3.615 1.674-.966 .164-3.558-1.514-2.59z"/>
<path d="m267.853,235.166c0-2.41 .001-4.821 .001-7.231 0-1.935-3-1.935-3,0 0,2.41-.001,4.821-.001,7.231 0,1.935 3,1.935 3,0z"/>
<path d="m270.511,208.135c-6.201,3.58-12.402,7.16-18.603,10.74-1.675,.967-.165,3.56 1.514,2.59 6.201-3.58 12.402-7.16 18.603-10.74 1.674-.967 .164-3.56-1.514-2.59z"/>
<path d="m264.77,205.098c0,2.41 0,4.82 0,7.23 0,1.935 3,1.935 3,0 0-2.41 0-4.82 0-7.23 0-1.935-3-1.935-3,0z"/>
<path d="m273.241,214.567c-2.087-1.206-4.174-2.411-6.262-3.616-1.678-.97-3.188,1.623-1.514,2.59 2.087,1.206 4.174,2.411 6.262,3.616 1.678,.97 3.189-1.623 1.514-2.59z"/>
</g>
<path fill="none" stroke="#fff" stroke-width="10" d="m135.5,234.127c0,3.06-2.687,5.54-6,5.54h-22c-3.313,0-6-2.48-6-5.54v-153.586c0-3.06 2.687-5.54 6-5.54h22c3.313,0 6,2.48 6,5.54v153.586z"/>
<g fill="#fff">
<path stroke="#fff" stroke-width="10" d="m144.499,280.334c0,3.313-2.106,6-4.704,6h-42.592c-2.598,0-4.704-2.687-4.704-6v-34.666c0-3.314 2.106-6 4.704-6h42.592c2.598,0 4.704,2.686 4.704,6v34.666z"/>
<path d="m148.5,91.333c6,0 12,0 18,0 6.449,0 6.449-10 0-10-6,0-12,0-18,0-6.449,0-6.449,10 0,10z"/>
<path d="m148.5,131.333c6,0 12,0 18,0 6.449,0 6.449-10 0-10-6,0-12,0-18,0-6.449,0-6.449,10 0,10z"/>
<path d="m148.5,172.333c6,0 12,0 18,0 6.449,0 6.449-10 0-10-6,0-12,0-18,0-6.449,0-6.449,10 0,10z"/>
<path d="m148.5,215.334c6,0 12,0 18,0 6.449,0 6.449-10 0-10-6,0-12,0-18,0-6.449,0-6.449,10 0,10z"/>
<path stroke="#fff" stroke-width="10" d="m101.499,167.333h34v87.333h-34z"/>
</g>
<path fill="none" stroke="#fff" stroke-width="10" d="m217.42,282.192c0,3.249 3.141,5.884 7.016,5.884h55.543c3.874,0 7.016-2.635 7.016-5.884v-201.494c0-3.249-3.142-5.884-7.016-5.884h-55.543c-3.875,0-7.016,2.635-7.016,5.884v201.494z"/>
<path fill="#fff" d="m235.758,140.387c0,9.085 7.364,16.45 16.449,16.45 9.084,0 16.449-7.364 16.449-16.45 0-3.474-1.221-6.31-2.304-9.352-1.93-5.413-8.536-24.488-14.146-24.488-5.624,0-12.522,19.84-14.166,24.519-1.065,3.035-2.282,5.86-2.282,9.321z"/>
</svg>
