<svg xmlns="http://www.w3.org/2000/svg" viewBox="20 20 321 321">
<path fill="none" stroke="#fff" stroke-width="10" d="m286.755,81.616c0-3.562-2.888-6.449-6.448-6.449h-151.525c-3.562,0-6.449,2.887-6.449,6.449v198.273c0,3.561 2.887,6.447 6.449,6.447h151.525c3.561,0 6.448-2.887 6.448-6.447v-198.273z"/>
<g fill="#fff">
<path d="m97.515,97.588c1.351,3.575-.474,7.575-4.074,8.934l-7.877,2.974c-3.6,1.36-7.613-.437-8.962-4.01l-6.314-16.72c-1.35-3.574 .474-7.574 4.075-8.934l7.876-2.974c3.601-1.36 7.613,.437 8.963,4.01l6.313,16.72z"/>
<path d="m140.703,211.955c1.314,3.479-.442,7.366-3.921,8.68l-8.138,3.074c-3.48,1.313-7.366-.443-8.68-3.922l-38.464-101.857c-1.314-3.479 .441-7.366 3.921-8.68l8.138-3.073c3.479-1.314 7.366,.442 8.68,3.921l38.464,101.857z"/>
<path d="m151.775,241.273c1.349,3.574-.475,7.574-4.075,8.934l-7.875,2.975c-3.601,1.359-7.613-.437-8.963-4.012l-6.314-16.72c-1.35-3.573 .475-7.574 4.075-8.934l7.876-2.974c3.6-1.359 7.613,.436 8.963,4.01l6.313,16.721z"/>
<path d="m149.682,255.058 1.271,17.217-10.426-13.76z"/>
<path d="m144.682,255.058c.424,5.739 .848,11.479 1.271,17.218 3.106-.841 6.211-1.683 9.317-2.523-3.476-4.587-6.951-9.174-10.426-13.761-.996,2.448-1.992,4.896-2.988,7.345 3.052-1.152 6.104-2.305 9.155-3.457 5.973-2.256 3.386-11.925-2.658-9.643-3.052,1.152-6.104,2.305-9.155,3.457-2.691,1.016-5.105,4.551-2.988,7.345 3.476,4.587 6.951,9.174 10.426,13.761 2.672,3.526 9.725,2.997 9.317-2.523-.424-5.739-.848-11.479-1.271-17.218-.473-6.392-10.475-6.438-10-.001z"/>
<path d="m145.833,111.667c38.167,0 76.333,0 114.5,0 6.448,0 6.448-10 0-10-38.167,0-76.333,0-114.5,0-6.449,0-6.449,10 0,10z"/>
<path d="m145.833,165.667c38.167,0 76.333,0 114.5,0 6.448,0 6.448-10 0-10-38.167,0-76.333,0-114.5,0-6.449,0-6.449,10 0,10z"/>
<path d="m145.833,138.667c38.167,0 76.333,0 114.5,0 6.448,0 6.448-10 0-10-38.167,0-76.333,0-114.5,0-6.449,0-6.449,10 0,10z"/>
<path d="m145.833,194.667c38.167,0 76.333,0 114.5,0 6.448,0 6.448-10 0-10-38.167,0-76.333,0-114.5,0-6.449,0-6.449,10 0,10z"/>
<path d="m157.333,221.667c34,0 68,0 102,0 6.448,0 6.448-10 0-10-34,0-68,0-102,0-6.449,0-6.449,10 0,10z"/>
<path d="m171.333,249.667c29.333,0 58.667,0 88,0 6.448,0 6.448-10 0-10-29.333,0-58.667,0-88,0-6.449,0-6.449,10 0,10z"/>
</g>
</svg>
