<svg xmlns="http://www.w3.org/2000/svg" viewBox="20 20 321 321">
<g stroke="#fff" stroke-width="10">
<g fill="none">
<path d="m249.333,101.93c0,4.272-3.464,7.737-7.737,7.737h-9.025c-4.273,0-7.737-3.464-7.737-7.737v-9.026c0-4.272 3.464-7.737 7.737-7.737h9.025c4.273,0 7.737,3.464 7.737,7.737v9.026z"/>
<path d="m136.333,101.93c0,4.272-3.464,7.737-7.737,7.737h-9.026c-4.272,0-7.737-3.464-7.737-7.737v-9.026c0-4.272 3.464-7.737 7.737-7.737h9.026c4.272,0 7.737,3.464 7.737,7.737v9.026z"/>
</g>
<path fill="#fff" d="m286.833,144.667c0,3.313-2.711,6-6.054,6h-199.795c-3.344,0-6.055-2.687-6.055-6v-29c0-3.313 2.711-6 6.055-6h199.795c3.343,0 6.054,2.687 6.054,6v29z"/>
<path fill="none" d="m286.936,279.902c0,3.46-2.706,6.265-6.043,6.265h-199.913c-3.337,0-6.043-2.805-6.043-6.265v-131.54c0-3.459 2.706-6.264 6.043-6.264h199.913c3.337,0 6.043,2.805 6.043,6.264v131.54z"/>
</g>
<g fill="#fff">
<path d="m245.102,285.424 .455-40.111 40.113-.088z"/>
<path d="m250.102,285.424c.151-13.37 .304-26.741 .455-40.111-1.667,1.667-3.333,3.333-5,5 13.371-.029 26.742-.059 40.113-.088-1.179-2.845-2.357-5.69-3.535-8.535-13.523,13.399-27.046,26.799-40.568,40.199-4.586,4.543 2.487,11.612 7.07,7.07 13.523-13.399 27.046-26.799 40.568-40.199 3.101-3.071 .815-8.545-3.535-8.535-13.371,.029-26.742,.059-40.113,.088-2.749,.006-4.969,2.271-5,5-.151,13.37-.304,26.741-.455,40.111-.074,6.451 9.926,6.444 10,0z"/>
<path d="m142.833,185.667c0,25.167 0,50.333 0,75.5 0,6.448 10,6.448 10,0 0-25.167 0-50.333 0-75.5 0-6.449-10-6.449-10-0z"/>
<path d="m209.833,186.167c0,25 0,50 0,75 0,6.448 10,6.448 10,0 0-25 0-50 0-75 0-6.449-10-6.449-10-0z"/>
<path d="m183.833,229.667c9.5,0 19,0 28.5,0 6.448,0 6.448-10 0-10-9.5,0-19,0-28.5,0-6.449,0-6.449,10 0,10z"/>
<path d="m178.333,185.667c0,12.167 0,24.333 0,36.5 0,6.448 10,6.448 10,0 0-12.167 0-24.333 0-36.5 0-6.449-10-6.449-10,0z"/>
</g>
</svg>
