<svg xmlns="http://www.w3.org/2000/svg" viewBox="20 20 321 321">
<g fill="#fff">
<path d="m215.131,268.935c.141-.066 .281-.133 .423-.198 1.178-.488 2.356-.977 3.535-1.465-6.018,0-12.036,0-18.054,0 1.179,.488 2.357,.977 3.535,1.465 .768,.666 .425-1.665 .425-2.077 0-2.507 0-5.013 0-7.52 0-7.579 0-15.157 0-22.736s0-15.157 0-22.736c0-2.369 0-4.738 0-7.107 0-.437 .345-3.154-.425-2.487-1.178,.488-2.356,.977-3.535,1.465 6.018,0 12.036,0 18.054,0-1.179-.488-2.357-.977-3.535-1.465-.767-.663-.423,1.659-.423,2.075 0,2.265 0,4.529 0,6.794 0,7.488 0,14.978 0,22.466 0,11.174 0,22.35 0,33.526 0,6.448 10,6.448 10,0 0-11.176 0-22.352 0-33.527 0-7.488 0-14.978 0-22.466 0-3.59 .781-8.555-.321-12.082-2.383-7.626-12.185-5.322-18.511-5.322-2.303,0-5.692-.544-7.787,.683-2.972,1.741-3.517,5.187-3.517,8.354 0,12.917 0,25.835 0,38.753 0,6.194 0,12.39 0,18.584 0,2.992-.592,7.108 .32,10.037 2.208,7.083 9.782,5.323 15.712,5.323 2.6,0 5.199,0 7.799,0 4.756,0 5.979-4.474 6.305-8.337 .543-6.429-9.461-6.377-10,0z"/>
<path d="m218.053,190.655c22.023,16.833 44.047,33.665 66.071,50.498 0-2.878 0-5.757 0-8.635-22.024,16.833-44.048,33.665-66.071,50.498 2.508,1.439 5.016,2.878 7.523,4.317 0-33.665 0-67.331 0-100.996 0-6.449-10-6.449-10,0 0,33.665 0,67.331 0,100.996 0,3.436 4.396,6.707 7.523,4.317 22.023-16.833 44.048-33.665 66.071-50.498 3.178-2.429 3.178-6.206 0-8.635-22.023-16.833-44.048-33.665-66.071-50.498-5.124-3.916-10.096,4.777-5.046,8.636z"/>
<path d="m161.833,286.334c0-36.111 0-72.223 0-108.333 0-6.449-10-6.449-10,0 0,36.111 0,72.222 0,108.333 0,6.448 10,6.448 10,0z"/>
<path d="m161.833,120.001c0-6.956 0-13.911 0-20.866 0-6.449-10-6.449-10,0 0,6.956 0,13.911 0,20.866 0,6.449 10,6.449 10,0z"/>
<path d="m198.759,113.632c-28.203-14.46-56.406-28.92-84.609-43.38-5.727-2.936-10.787,5.692-5.047,8.635 28.203,14.46 56.406,28.92 84.609,43.38 5.726,2.936 10.787-5.692 5.047-8.635z"/>
<path d="m136.833,150.984c6.2-1.85 12.492-3.471 18.851-4.672 8.5-1.605 15.959,.971 23.905,3.886 10.954,4.018 22.235,10.623 34.065,11.009 7.296,.238 15.346-3.587 21.991-6.186 4.038-1.579 8.011-3.305 12.074-4.823 7.977-2.98 15.38-5.382 23.906-3.886 6.361,1.116 12.664,2.827 18.851,4.672 1.858,.555 2.646-2.341 .797-2.893-6.2-1.85-12.491-3.471-18.851-4.673-7.98-1.507-14.637,.111-22.247,2.718-11.71,4.011-24.009,11.662-36.521,12.07-7.452,.243-15.945-3.972-22.727-6.689-4.586-1.838-9.129-3.741-13.794-5.38-7.143-2.51-13.599-4.118-21.125-2.915-6.746,1.079-13.432,2.918-19.974,4.87-1.848,.551-1.06,3.447 .799,2.892z"/>
<path d="m144.425,159.588c6.024-2.177 12.932-4.321 19.379-3.757 6.911,.605 13.977,3.766 20.365,6.296 9.375,3.713 19.262,8.915 29.485,9.248 6.396,.208 13.369-2.933 19.231-5.123 3.208-1.198 6.352-2.547 9.524-3.832 6.354-2.575 12.89-5.027 19.629-6.363 6.764-1.341 14.501,1.237 20.846,3.53 1.823,.659 2.602-2.24 .797-2.893-5.921-2.14-12.23-3.792-18.546-3.964-6.732-.185-14.043,3.152-20.203,5.492-9.988,3.794-20.465,9.8-31.278,10.152-6.682,.218-14.219-3.385-20.328-5.741-3.364-1.297-6.668-2.743-10.026-4.056-6.488-2.538-13.35-5.21-20.343-5.822-6.329-.554-13.449,1.813-19.33,3.939-1.805,.654-1.026,3.553 .798,2.894z"/>
<path d="m144.542,139.316c6.024-2.177 12.932-4.322 19.379-3.758 6.912,.605 13.978,3.767 20.365,6.297 9.375,3.713 19.262,8.914 29.485,9.248 6.396,.208 13.369-2.933 19.231-5.122 3.207-1.198 6.351-2.547 9.523-3.832 6.354-2.575 12.89-5.027 19.63-6.363 6.764-1.341 14.502,1.238 20.846,3.531 1.823,.659 2.602-2.24 .797-2.893-5.921-2.141-12.23-3.792-18.546-3.965-6.732-.185-14.043,3.152-20.203,5.492-9.988,3.794-20.465,9.799-31.278,10.152-6.682,.218-14.219-3.384-20.328-5.74-3.364-1.297-6.668-2.743-10.026-4.056-6.488-2.537-13.35-5.21-20.343-5.822-6.329-.554-13.449,1.814-19.33,3.939-1.805,.652-1.026,3.552 .798,2.892z"/>
</g>
</svg>
