<svg xmlns="http://www.w3.org/2000/svg" viewBox="20 20 321 321">
<g fill="none" stroke="#fff" stroke-width="10">
<path d="m157.116,146.943c-.497-1.854-2.006-3.064-3.371-2.697l-29.435,7.886c-1.363,.365-2.066,2.167-1.569,4.022l13.653,50.958c.499,1.855 2.007,3.064 3.373,2.698l29.435-7.888c1.363-.365 2.066-2.167 1.569-4.021l-13.655-50.958z"/>
<path d="m158.531,112.915c-1.357,1.358-1.651,3.27-.652,4.268l21.547,21.549c.998,.998 2.911,.707 4.269-.652l37.304-37.304c1.357-1.358 1.649-3.27 .65-4.269l-21.548-21.546c-.998-.999-2.91-.708-4.268,.65l-37.302,37.304z"/>
<path d="m128.355,128.829c1.855,.499 3.657-.206 4.022-1.57l7.888-29.436c.364-1.363-.843-2.873-2.697-3.369l-50.96-13.655c-1.856-.497-3.656,.207-4.022,1.57l-7.887,29.435c-.366,1.365 .841,2.875 2.697,3.372l50.959,13.653z"/>
</g>
<g fill="#fff">
<path d="m149.938,133.278c.56-2.09 1.12-4.18 1.68-6.27-2.786,.735-5.571,1.471-8.357,2.207 1.53,1.53 3.06,3.06 4.59,4.59 .735-2.786 1.471-5.571 2.207-8.357-2.09,.56-4.18,1.12-6.27,1.68-2.631,.705-4.211,3.537-3.492,6.15 .726,2.639 3.52,4.197 6.15,3.492 2.09-.56 4.18-1.12 6.27-1.68 3.642-.976 4.853-5.71 2.207-8.357-1.53-1.53-3.06-3.06-4.59-4.59-2.647-2.646-7.381-1.436-8.357,2.207-.56,2.09-1.12,4.18-1.68,6.27-.705,2.631 .853,5.424 3.492,6.15 2.612,.719 5.444-.86 6.15-3.492z"/>
<path d="m198.484,245.925c.188-.586 1.316-.445 .176-.445-.85,0-1.699,0-2.549,0-2.498,0-4.996,0-7.494,0-1.551,0-3.101,0-4.651,0-.838,0 .667,2.139 .667,.943 0-.583 0-1.167 0-1.751 0-7.809 0-15.618 0-23.428 0,1.479-1.653,1.327-.302,1.327 .85,0 1.699,0 2.549,0 2.498,0 4.996,0 7.494,0 1.627,0 3.254,0 4.881,0-1.013,0-.896-2.243-.896-.622 0,.68 0,1.36 0,2.041 0,7.622 0,15.243 0,22.865 0,4.514 7,4.514 7,0 0-4.441 0-8.883 0-13.324 0-3.889 1.089-9.495-.125-13.268-1.939-6.028-8.692-4.692-13.738-4.692-5.047,0-11.799-1.336-13.738,4.692-1.214,3.772-.125,9.379-.125,13.268 0,4.441 0,8.883 0,13.324 0,6.741 8.491,5.624 12.886,5.624 5.196,0 12.706,1.554 14.716-4.693 1.386-4.309-5.374-6.14-6.751-1.861z"/>
<path d="m227.125,245.158c-.064,.367 1.441,.321-.311,.321-1.267,0-2.533,0-3.8,0-2.756,0-5.512,0-8.268,0-.713,0-1.427,0-2.141,0-.28,0 .667,1.114 .667,.043 0-1.819 0-3.639 0-5.458 0-9.623 0-19.246 0-28.869 0,.734-1.64,.572 .186,.572 1.267,0 2.533,0 3.8,0 2.986,0 5.973,0 8.959,0 .56,0 1.119,0 1.679,0-1.095,0-.896-1.074-.896,.265 0,1.979 0,3.957 0,5.937 0,9.373 0,18.746 0,28.12 0,4.514 7,4.514 7,0 0-11.353 0-22.704 0-34.057 0-7.04-5.566-7.265-10.985-7.265-5.5,0-15.295-2.032-16.616,5.46-.839,4.756-.125,10.152-.125,14.956 0,6.555 0,13.109 0,19.664 0,6.644 4.577,7.632 10.089,7.632 5.598,0 16.159,2.213 17.513-5.46 .777-4.413-5.968-6.3-6.751-1.861z"/>
<path d="m255.799,245.131c.685,.242 .799,.344 .345,.307-.51,0-1.021,0-1.53,0-1.768,0-3.535,0-5.304,0-2.691,0-5.383,0-8.075,0 .854,0 .713,1.093 .713-.054 0-.802 0-1.604 0-2.406 0-2.893 0-5.785 0-8.678 0-11.57 0-23.142 0-34.712 0,.875-.98,.596 1.061,.596 1.768,0 3.535,0 5.304,0 1.858,0 3.717,0 5.575,0 .623,0 1.247,0 1.87,0 1.247,0-.083,.122-.083-.596 0,4.207 0,8.415 0,12.622 0,11.284 0,22.567 0,33.852 0,4.514 7,4.514 7,0 0-12.428 0-24.855 0-37.283 0-3.797 1.207-10.702-1.817-13.727-2.152-2.152-5.013-1.868-7.779-1.868-3.737,0-7.476,0-11.213,0-6.244,0-6.917,5.165-6.917,10.007 0,7.204 0,14.407 0,21.611 0,6.525 0,13.051 0,19.576 0,6.331 3.902,8.06 9.597,8.06 5.661,0 16.541,2.264 18.005-5.445 .836-4.412-5.91-6.294-6.752-1.862z"/>
<path d="m284.401,245.183c-.044,.231 1.256,.214 .066,.214-.583,0-1.166,0-1.749,0-1.769,0-3.537,0-5.306,0s-3.537,0-5.306,0c-.583,0-1.166,0-1.749,0-1.229,0 .191,.091 .191,.632 0-4.189 0-8.379 0-12.569 0-14.634 0-29.269 0-43.902 0-1.38 0-2.759 0-4.138 0,.335-1.441,.528 .289,.528 1.87,0 3.741,0 5.611,0 2.868,0 5.735,0 8.603,0-.928,0-.776-1.265-.776,.024 0,.854 0,1.707 0,2.561 0,14.415 0,28.831 0,43.246 0,4.778 0,9.557 0,14.335 0,4.514 7,4.514 7,0 0-11.468 0-22.936 0-34.403 0-7.004 0-14.009 0-21.013 0-3.735 .831-10.341-4.186-11.406-5.501-1.168-11.713-.344-17.317-.344-5.965,0-6.224,5.725-6.224,10.082 0,14.532 0,29.065 0,43.598 0,5.674-1.961,15.306 3.35,19.073 2.923,2.073 10.102,.696 13.348,.696 4.557,0 9.804,.381 10.904-5.353 .848-4.41-5.898-6.291-6.749-1.861z"/>
<path d="m199.264,290.906l-1.644-7.081h-9.347l-1.586,7.081h-7.251c1.662-6.041 3.342-11.545 5.042-16.514 1.699-4.967 3.342-9.68 4.928-14.136h7.591c1.661,4.489 3.313,9.251 4.957,14.284 1.643,5.035 3.237,10.49 4.786,16.365h-7.476zm-6.233-24.707c-.377,1.155-.727,2.253-1.047,3.293-.322,1.04-.623,2.063-.906,3.069-.284,1.008-.549,2.022-.794,3.045-.246,1.023-.481,2.08-.708,3.17h6.854c-.227-1.09-.453-2.146-.68-3.17-.227-1.022-.481-2.037-.765-3.045-.283-1.006-.586-2.029-.906-3.069-.321-1.04-.671-2.137-1.048-3.293z"/>
<path d="m221.299,291.549c-2.266,0-4.163-.271-5.693-.816-1.529-.545-2.746-1.328-3.653-2.352-.906-1.023-1.549-2.261-1.926-3.714-.378-1.452-.566-3.069-.566-4.853v-19.558h7.024v19.161c0,1.288 .075,2.369 .227,3.244 .15,.875 .405,1.576 .765,2.104 .358,.529 .858,.908 1.501,1.139 .643,.232 1.453,.348 2.436,.348s1.794-.115 2.437-.348c.642-.23 1.151-.618 1.529-1.163 .378-.544 .642-1.254 .794-2.129 .15-.874 .227-1.956 .227-3.243v-19.112h6.967v19.558c0,1.783-.189,3.4-.566,4.853-.378,1.453-1.039,2.69-1.982,3.714-.944,1.023-2.191,1.807-3.738,2.352-1.554,.543-3.479,.815-5.783,.815z"/>
<path d="m262.482,260.257v5.05h-9.233v25.6h-7.024v-25.6h-9.234v-5.05h25.491z"/>
<path d="m265.428,275.557c0-5.281 1.114-9.268 3.343-11.957 2.228-2.691 5.325-4.036 9.29-4.036 4.116,0 7.252,1.345 9.404,4.036 2.152,2.689 3.229,6.676 3.229,11.957s-1.096,9.268-3.285,11.957c-2.191,2.691-5.288,4.035-9.291,4.035-4.116,0-7.26-1.344-9.432-4.035-2.172-2.69-3.258-6.676-3.258-11.957zm7.082,0c0,1.485 .065,2.881 .198,4.184 .132,1.305 .396,2.436 .793,3.393s.953,1.716 1.671,2.277c.717,.561 1.68,.842 2.889,.842 1.171,0 2.125-.281 2.861-.842 .736-.562 1.303-1.328 1.699-2.303 .396-.973 .66-2.104 .793-3.392 .133-1.288 .199-2.674 .199-4.159s-.066-2.88-.199-4.184c-.133-1.305-.396-2.435-.793-3.393-.396-.957-.954-1.715-1.671-2.277-.718-.561-1.681-.842-2.89-.842s-2.172,.281-2.889,.842c-.718,.563-1.274,1.329-1.671,2.303s-.661,2.104-.793,3.392c-.132,1.287-.197,2.673-.197,4.159z"/>
</g>
</svg>
