<svg xmlns="http://www.w3.org/2000/svg" viewBox="20 20 321 321">
<g fill="#fff">
<path d="m191.66,103.333c-2.145-3.808-4.465-7.567-6.961-11.28-2.496-3.712-5.152-7.216-7.968-10.512v21.792h-7.392v-33.264h6.096c1.056,1.056 2.224,2.352 3.504,3.888 1.28,1.536 2.584,3.176 3.912,4.92 1.328,1.745 2.647,3.552 3.96,5.424 1.312,1.872 2.544,3.672 3.696,5.4v-19.632h7.439v33.264h-6.286z"/>
<path d="m174.833,160.042 8.952-38.063 8.382,38.063z"/>
<path d="m176.28,160.441c2.984-12.688 5.968-25.375 8.952-38.063-.964,0-1.929,0-2.893,0 2.794,12.688 5.588,25.375 8.382,38.063 .482-.633 .964-1.266 1.446-1.899-5.778,0-11.556,0-17.333,0-1.935,0-1.935,3 0,3 5.778,0 11.555,0 17.333,0 1.014,0 1.654-.954 1.446-1.899-2.794-12.688-5.588-25.375-8.382-38.063-.318-1.448-2.558-1.423-2.893,0-2.984,12.688-5.968,25.375-8.952,38.063-.442,1.882 2.451,2.681 2.894,.798z"/>
<path d="m239.118,177.189c-10.674-2.415-21.348-4.83-32.021-7.245 .856,1.125 1.713,2.25 2.569,3.375 0-4.834 .81-10.292-1.102-14.821-2.332-5.526-11.34-3.998-15.96-3.998 1.125,.856 2.25,1.713 3.375,2.569-3.035-13.414-6.069-26.827-9.104-40.241-.758-3.35-5.992-3.35-6.75,0-3.035,13.414-6.069,26.828-9.104,40.241 1.125-.856 2.25-1.713 3.375-2.569-5.112,0-11.876-1.289-15.413,3.29-2.98,3.857-1.649,10.975-1.649,15.53 .856-1.125 1.713-2.25 2.569-3.375-10.673,2.415-21.347,4.83-32.02,7.244-3.35,.758-3.35,5.992 0,6.75 10.673,2.415 21.347,4.829 32.02,7.244-.856-1.125-1.713-2.25-2.569-3.375 0,3.867-1.472,11.696 1.102,15.028 3.981,5.154 9.991,3.998 15.849,3.998-1.125-.856-2.25-1.713-3.375-2.569 3.072,13.078 6.144,26.157 9.215,39.236 .784,3.34 5.978,3.359 6.75,0 3.007-13.079 6.015-26.158 9.021-39.236-1.125,.856-2.25,1.713-3.375,2.569 4.878,0 11.929,1.328 15.328-3.072 3.141-4.067 1.816-11.128 1.816-15.953-.856,1.125-1.713,2.25-2.569,3.375 10.674-2.415 21.348-4.83 32.021-7.245 4.402-.995 2.535-7.744-1.861-6.75-10.674,2.415-21.348,4.83-32.021,7.245-1.509,.342-2.569,1.873-2.569,3.375 0,3.512 0,7.022 0,10.534 0,2.603-8.361,1.491-10.145,1.491-1.506,0-3.028,1.062-3.375,2.569-3.007,13.079-6.015,26.158-9.021,39.236 2.25,0 4.5,0 6.75,0-3.072-13.078-6.144-26.157-9.215-39.236-.354-1.508-1.863-2.569-3.375-2.569-1.41,0-9.951,.923-9.951-1.182 0-3.615 0-7.229 0-10.845 0-1.502-1.061-3.033-2.569-3.375-10.673-2.414-21.347-4.829-32.02-7.244 0,2.25 0,4.5 0,6.75 10.673-2.414 21.347-4.829 32.02-7.244 1.509-.341 2.569-1.873 2.569-3.375 0-3.446 0-6.891 0-10.337 0-2.632 8.13-1.482 10.063-1.482 1.502,0 3.034-1.061 3.375-2.569 3.035-13.414 6.069-26.828 9.104-40.241-2.25,0-4.5,0-6.75,0 3.035,13.414 6.069,26.827 9.104,40.241 .342,1.509 1.873,2.569 3.375,2.569 1.563,0 10.062-.938 10.062,1.179 0,3.546 0,7.093 0,10.64 0,1.502 1.061,3.034 2.569,3.375 10.674,2.415 21.348,4.83 32.021,7.244 4.396,.996 6.264-5.753 1.861-6.749z"/>
</g>
</svg>
