<svg xmlns="http://www.w3.org/2000/svg" viewBox="20 20 321 321">
<g fill="#fff">
<path d="m232.365,267.052c-16.279,0-32.559,0-48.838,0-6.449,0-6.449,10 0,10 16.279,0 32.559,0 48.838,0 6.448,0 6.448-10 0-10z"/>
<path d="m71.923,217.449c6.184,6.184 12.367,12.366 18.55,18.549 4.564,4.563 11.635-2.507 7.071-7.07-6.184-6.184-12.367-12.366-18.55-18.549-4.563-4.564-11.634,2.507-7.071,7.07z"/>
<path d="m127.14,171.826c0,16.279 0,32.557 0,48.836 0,6.448 10,6.448 10,0 0-16.279 0-32.558 0-48.836 0-6.449-10-6.449-10,0z"/>
<path d="m201.27,194.395c-11.512,11.511-23.024,23.022-34.536,34.534-4.563,4.563 2.507,11.635 7.071,7.07 11.511-11.511 23.023-23.022 34.535-34.534 4.564-4.564-2.507-11.635-7.07-7.07z"/>
<path d="m232.365,267.052c-16.279,0-32.559,0-48.838,0-6.449,0-6.449,10 0,10 16.279,0 32.559,0 48.838,0 6.448,0 6.448-10 0-10z"/>
<path d="m127.14,171.826c0,16.279 0,32.557 0,48.836 0,6.448 10,6.448 10,0 0-16.279 0-32.558 0-48.836 0-6.449-10-6.449-10,0z"/>
<path d="m201.27,194.395c-11.512,11.511-23.024,23.022-34.536,34.534-4.563,4.563 2.507,11.635 7.071,7.07 11.511-11.511 23.023-23.022 34.535-34.534 4.564-4.564-2.507-11.635-7.07-7.07z"/>
<path d="m195.058,238.709c-4.584,1.898-9.168,3.798-13.752,5.696-2.516,1.042-4.283,3.275-3.492,6.15 .655,2.383 3.628,4.537 6.15,3.492 4.584-1.898 9.168-3.798 13.752-5.696 2.516-1.042 4.283-3.275 3.492-6.15-.655-2.383-3.628-4.537-6.15-3.492z"/>
<path d="m153.733,206.456c-1.899,4.584-3.798,9.168-5.696,13.752-1.045,2.522 1.11,5.495 3.492,6.15 2.875,.791 5.108-.977 6.15-3.492 1.899-4.584 3.798-9.168 5.696-13.752 1.045-2.522-1.11-5.495-3.492-6.15-2.874-.791-5.108,.976-6.15,3.492z"/>
<path d="m101.296,209.114c1.898,4.584 3.797,9.168 5.696,13.752 1.042,2.516 3.275,4.283 6.15,3.492 2.382-.655 4.537-3.628 3.492-6.15-1.898-4.584-3.797-9.168-5.696-13.752-1.042-2.516-3.275-4.283-6.15-3.492-2.382,.655-4.537,3.628-3.492,6.15z"/>
<path d="m73.599,252.427c2.648,1.097 5.296,2.194 7.944,3.291 2.523,1.045 5.495-1.109 6.15-3.492 .791-2.875-.976-5.108-3.492-6.15-2.648-1.097-5.296-2.194-7.944-3.291-2.523-1.045-5.495,1.109-6.15,3.492-.792,2.874 .976,5.108 3.492,6.15z"/>
</g>
<path fill="none" stroke="#fff" stroke-width="10" d="m98.554,285.293v-24.484c0-11.063 8.969-20.031 20.032-20.031h25.77c11.063,0 20.032,8.969 20.032,20.032v24.483"/>
<g fill="#fff">
<path d="m286.166,281.334c-48.718,0-97.435,0-146.152,0-21.695,0-43.391,0-65.086,0-6.449,0-6.449,10 0,10 48.717,0 97.435,0 146.152,0 21.695,0 43.391,0 65.086,0 6.448,0 6.448-10 0-10z"/>
<path d="m78.9,267.052c-1.324,0-2.648,0-3.972,0-2.726,0-5,2.274-5,5s2.274,5 5,5c1.324,0 2.648,0 3.972,0 2.726,0 5-2.274 5-5s-2.275-5-5-5z"/>
<path d="m115.781,281.574c0-4.224 0-8.447 0-12.67 0-9.428 8.666-9.531 15.536-9.531 6.836,0 16.515-.459 16.515,9.261 0,4.313 0,8.627 0,12.94 0,1.935 3,1.935 3,0 0-5.53 .933-11.951-.771-17.289-2.573-8.061-10.938-7.912-17.764-7.912-7.467,0-14.928-.433-18.592,7.554-2.267,4.941-.923,12.385-.923,17.647-.001,1.935 2.999,1.935 2.999,0z"/>
<g stroke="#fff" stroke-width="10">
<path d="m211.529,119.166c0,3.624 2.635,6.56 5.887,6.56h45.621c3.251,0 5.887-2.937 5.887-6.56v-27.555c0-3.622-2.636-6.559-5.887-6.559h-45.621c-3.252,0-5.887,2.937-5.887,6.559v27.555z"/>
<path d="m113.616,109.366c0,2.495-2.023,4.519-4.519,4.519h-21.088c-2.495,0-4.519-2.024-4.519-4.519v-2.804c0-2.495 2.023-4.519 4.519-4.519h21.088c2.495,0 4.519,2.024 4.519,4.519v2.804z"/>
<path d="m286.693,111.491c0,3.683-2.986,6.668-6.669,6.668h-31.122c-3.682,0-6.668-2.985-6.668-6.668v-8.896c0-3.683 2.986-6.668 6.668-6.668h31.122c3.683,0 6.669,2.986 6.669,6.668v8.896z"/>
<path d="m233.039,113.94c0,3.683-2.986,6.668-6.668,6.668h-31.122c-3.683,0-6.669-2.985-6.669-6.668v-8.896c0-3.683 2.986-6.668 6.669-6.668h31.122c3.682,0 6.668,2.986 6.668,6.668v8.896z"/>
<path d="m164.976,86.058c0,3.792-3.076,6.869-6.868,6.869h-32.056c-3.792,0-6.868-3.077-6.868-6.869v-4.262c0-3.792 3.076-6.869 6.868-6.869h32.056c3.792,0 6.868,3.077 6.868,6.869v4.262z"/>
<path d="m175.912,90.088c0,3.501-2.84,6.342-6.342,6.342h-9.188c-3.502,0-6.341-2.84-6.341-6.342v-3.935c0-3.501 2.839-6.342 6.341-6.342h9.188c3.502,0 6.342,2.84 6.342,6.342v3.935z"/>
</g>
</g>
</svg>
