<svg xmlns="http://www.w3.org/2000/svg" viewBox="20 20 321 321">
<g fill="#fff">
<path d="m193.513,291.667v-45.12l8.94-1.439v15.119c.6-.199 1.369-.39 2.31-.569 .938-.181 1.85-.271 2.729-.271 2.56,0 4.689,.352 6.391,1.051 1.699,.699 3.06,1.689 4.08,2.97 1.02,1.28 1.74,2.8 2.16,4.56 .42,1.761 .629,3.721 .629,5.881v17.819h-8.939v-16.74c0-2.88-.37-4.92-1.109-6.12-.741-1.199-2.111-1.8-4.111-1.8-.8,0-1.55,.07-2.25,.21-.699,.141-1.33,.291-1.889,.45v24h-8.941z"/>
<path d="m241.932,249.607c6.199,0 10.959,1.09 14.28,3.27 3.319,2.181 4.979,5.75 4.979,10.71 0,5.001-1.68,8.61-5.039,10.83-3.36,2.22-8.16,3.33-14.4,3.33h-2.939v13.92h-9.361v-40.979c2.041-.4 4.201-.68 6.48-.84 2.28-.16 4.279-.241 6-.241zm.599,7.98c-.68,0-1.35,.021-2.01,.06-.66,.041-1.229,.081-1.709,.121v12h2.939c3.24,0 5.68-.44 7.32-1.32 1.639-.88 2.459-2.521 2.459-4.92 0-1.16-.209-2.12-.629-2.881-.42-.759-1.021-1.369-1.801-1.83-.779-.459-1.73-.779-2.85-.959-1.119-.181-2.359-.271-3.719-.271z"/>
<path d="m277.633,259.268c2.64,0 4.839,.299 6.6,.899 1.76,.601 3.17,1.46 4.23,2.58 1.059,1.12 1.809,2.48 2.25,4.08 .439,1.601 .659,3.38 .659,5.34v18.601c-1.28,.279-3.06,.609-5.34,.989s-5.04,.57-8.28,.57c-2.039,0-3.891-.181-5.55-.54-1.66-.36-3.09-.949-4.29-1.77-1.199-.82-2.121-1.891-2.76-3.211-.641-1.32-.96-2.939-.96-4.859 0-1.84 .369-3.399 1.11-4.68 .739-1.28 1.729-2.301 2.97-3.061 1.239-.76 2.659-1.31 4.26-1.65 1.6-.339 3.26-.51 4.979-.51 1.16,0 2.19,.051 3.09,.15 .9,.1 1.63,.23 2.191,.39v-.84c0-1.52-.461-2.739-1.381-3.66-.92-.919-2.52-1.38-4.8-1.38-1.521,0-3.021,.11-4.5,.33-1.48,.221-2.761,.53-3.84,.93l-1.14-7.199c.52-.16 1.17-.33 1.949-.511 .78-.18 1.629-.339 2.551-.479 .919-.141 1.89-.26 2.91-.36 1.022-.1 2.051-.149 3.092-.149zm.719,26.159c.88,0 1.721-.02 2.521-.06 .8-.039 1.44-.1 1.921-.18v-6.78c-.361-.08-.9-.159-1.621-.24-.72-.079-1.379-.12-1.979-.12-.841,0-1.63,.051-2.37,.15s-1.391,.291-1.95,.57c-.561,.279-1,.659-1.319,1.14-.321,.479-.48,1.079-.48,1.8 0,1.4 .47,2.37 1.41,2.91 .937,.54 2.226,.81 3.867,.81z"/>
<path d="m212.824,147.008c-35.26,35.259-70.519,70.519-105.778,105.779-4.928,4.928-9.855,9.855-14.783,14.783-1.369,1.369 .752,3.49 2.121,2.121 35.26-35.26 70.519-70.52 105.778-105.779 4.928-4.928 9.855-9.855 14.783-14.783 1.369-1.369-.752-3.49-2.121-2.121z"/>
<path d="m213.768,143.236c-7.541,7.676-14.125,16.245-18.269,26.233-2.463,5.938-3.563,13.415 1.042,18.572 3.012,3.374 7.945-1.594 4.949-4.949-3.273-3.667 .328-11.016 2.04-14.561 3.694-7.654 9.271-14.322 15.187-20.344 3.165-3.222-1.782-8.175-4.949-4.951z"/>
<path d="m213.768,143.236c-6.096,5.988-12.729,11.265-20.345,15.188-3.474,1.79-10.946,5.267-14.56,2.04-3.355-2.996-8.324,1.938-4.95,4.95 5.263,4.699 12.515,3.336 18.572,1.041 9.989-3.785 18.695-10.863 26.232-18.268 3.224-3.168-1.729-8.115-4.949-4.951z"/>
<path d="m75.999,271.105c4.35-4.013 10.5-4.013 14.849,0 3.312,3.056 8.274-1.883 4.95-4.949-7.212-6.654-17.537-6.653-24.75,0-3.323,3.067 1.64,8.004 4.951,4.949z"/>
<path d="m95.798,290.904c6.652-7.212 6.653-17.536 0-24.748-3.067-3.324-8.005,1.638-4.95,4.949 4.013,4.35 4.012,10.5 0,14.85-3.054,3.312 1.884,8.274 4.95,4.949z"/>
<path stroke="#fff" d="m148.951,222.195c-2.214,2.214-5.803,2.214-8.018,0l-1.175-1.175c-2.214-2.214-2.214-5.804 0-8.018l1.528-1.528c2.214-2.215 5.804-2.215 8.018,0l1.175,1.175c2.214,2.214 2.214,5.804 0,8.018l-1.528,1.528z"/>
<path d="m223.227,99.384c-4.922,7.027-9.844,14.055-14.767,21.083-.974,1.402 1.396,3.105 2.411,1.732 5.078-6.915 10.155-13.831 15.233-20.746 1.029-1.389-1.89-3.489-2.877-2.069z"/>
<path d="m243.126,115.921c-3.93,4.018-7.859,8.036-11.79,12.055-1.188,1.225 1.01,3.423 2.235,2.234 4.019-3.93 8.036-7.859 12.055-11.789 1.241-1.204-1.296-3.741-2.5-2.5z"/>
<path d="m233.518,107.254c-3.59,4.325-7.178,8.65-10.768,12.976-1.085,1.318 1.285,3.332 2.408,2.047 3.686-4.243 7.371-8.488 11.055-12.732 1.139-1.3-1.596-3.625-2.695-2.291z"/>
<path d="m260.093,135.442c-6.915,5.077-13.831,10.156-20.746,15.233-1.372,1.016 .331,3.384 1.733,2.412 7.027-4.923 14.055-9.845 21.082-14.769 1.42-.985-.68-3.905-2.069-2.876z"/>
<path d="m267.354,146.199c-4.788,2.946-9.576,5.893-14.363,8.837-1.451,.9 .16,3.578 1.639,2.723 4.852-2.838 9.705-5.677 14.558-8.515 1.495-.867-.365-3.957-1.834-3.045z"/>
<path d="m287.092,194.715c-5.487,1.227-10.975,2.453-16.461,3.682-1.665,.377-1.002,3.528 .673,3.203 5.515-1.1 11.028-2.201 16.542-3.301 1.698-.334 .933-3.971-.754-3.584z"/>
<path d="m283.652,181.861c-8.189,2.567-16.38,5.137-24.568,7.704-1.627,.517-.768,3.372 .875,2.907 8.246-2.381 16.492-4.762 24.736-7.142 1.664-.475 .606-3.995-1.043-3.469z"/>
<path d="m252,125.333c-4.244,3.685-8.487,7.37-12.732,11.055-1.284,1.124 .73,3.494 2.048,2.41 4.325-3.59 8.65-7.179 12.977-10.77 1.333-1.098-.992-3.834-2.293-2.695z"/>
<path d="m273.732,157.554c-5.013,2.543-10.026,5.087-15.041,7.631-1.52,.777-.127,3.591 1.415,2.861 5.07-2.431 10.141-4.86 15.212-7.291 1.561-.743-.047-3.99-1.586-3.201z"/>
<path d="m279.183,169.458c-5.207,2.123-10.413,4.244-15.62,6.367-1.578,.649-.418,3.587 1.18,2.987 5.254-2.004 10.508-4.007 15.761-6.011 1.617-.612 .277-4.004-1.321-3.343z"/>
<path d="m289.452,207.967c-5.571,.758-11.142,1.516-16.712,2.273-1.69,.235-1.295,3.476 .402,3.294 5.587-.627 11.174-1.254 16.76-1.882 1.721-.188 1.263-3.927-.45-3.685z"/>
<path d="m290.74,235.479c-8.573-.332-17.145-.662-25.718-.992-1.705-.062-1.866,3.104-.165,3.222 8.563,.539 17.124,1.078 25.687,1.616 1.727,.112 1.927-3.791 .196-3.846z"/>
<path d="m290.686,221.572c-5.615,.275-11.229,.552-16.844,.828-1.704,.089-1.586,3.404 .119,3.371 5.62-.143 11.238-.285 16.858-.427 1.73-.038 1.593-3.867-.133-3.772z"/>
<path d="m122.222,71.003c.539,8.562 1.077,17.124 1.615,25.686 .118,1.701 3.284,1.54 3.223-.166-.331-8.572-.662-17.145-.992-25.717-.056-1.729-3.959-1.53-3.846,.197z"/>
<path d="m136.202,70.728c-.143,5.62-.285,11.238-.427,16.858-.034,1.705 3.283,1.823 3.372,.12 .276-5.615 .552-11.229 .827-16.843 .095-1.73-3.733-1.866-3.772-.135z"/>
<path d="m188.746,81.043c-2.004,5.254-4.007,10.508-6.01,15.761-.602,1.598 2.336,2.759 2.986,1.181 2.121-5.208 4.244-10.414 6.366-15.621 .661-1.599-2.731-2.94-3.342-1.321z"/>
<path d="m176.216,76.85c-2.381,8.245-4.761,16.492-7.142,24.737-.465,1.643 2.391,2.502 2.907,.875 2.568-8.189 5.137-16.378 7.705-24.568 .525-1.648-2.997-2.707-3.47-1.044z"/>
<path d="m149.894,71.644c-.627,5.586-1.254,11.173-1.881,16.76-.182,1.696 3.058,2.092 3.293,.403 .757-5.571 1.516-11.143 2.274-16.713 .241-1.714-3.498-2.171-3.686-.45z"/>
<path d="m163.248,73.7c-1.1,5.515-2.201,11.028-3.3,16.543-.326,1.674 2.825,2.338 3.204,.674 1.227-5.487 2.455-10.974 3.681-16.461 .385-1.688-3.251-2.453-3.585-.756z"/>
<path d="m200.791,86.229c-2.43,5.069-4.86,10.14-7.29,15.21-.731,1.542 2.083,2.935 2.86,1.416 2.545-5.014 5.088-10.028 7.631-15.042 .789-1.539-2.459-3.146-3.201-1.584z"/>
<path d="m212.301,92.359c-2.838,4.853-5.676,9.706-8.514,14.559-.855,1.477 1.822,3.088 2.723,1.638 2.945-4.788 5.893-9.576 8.838-14.364 .912-1.468-2.18-3.329-3.047-1.833z"/>
</g>
</svg>
